<?xml version="1.0" encoding="UTF-8"?>
<svg width="2065px" height="2496px" viewBox="0 0 2065 2496" version="1.1" xmlns="http://www.w3.org/2000/svg" xmlns:xlink="http://www.w3.org/1999/xlink">
    <!-- Generator: Sketch 63.1 (92452) - https://sketch.com -->
    <title>aws-s3</title>
    <desc>Created with Sketch.</desc>
    <g id="Page-1" stroke="none" stroke-width="1" fill="none" fill-rule="evenodd">
        <g id="aws-s3" fill-rule="nonzero">
            <polyline id="Path" fill="#8C3123" points="166.361562 433.053086 0 516.25 0 1976.43086 166.361562 2059.14379 167.361797 2057.94189 167.361797 434.198516 166.361562 433.053086"></polyline>
            <polyline id="Path" fill="#E05243" points="1056.69922 1847.20703 166.361562 2059.14379 166.361562 433.053086 1056.69922 640.367793 1056.69922 1847.20703"></polyline>
            <polyline id="Path" fill="#8C3123" points="654.814727 1515.40348 1032.46773 1563.47926 1034.83926 1558.01023 1036.96072 938.752227 1032.46773 933.912383 654.814727 981.294453 654.814727 1515.40348"></polyline>
            <polyline id="Path" fill="#8C3123" points="1032.46773 1849.58662 1898.56584 2059.59551 1899.92906 2057.42564 1899.90486 434.505039 1898.53357 433.053086 1032.46773 642.747383 1032.46773 1849.58662"></polyline>
            <polyline id="Path" fill="#E05243" points="1410.22561 1515.40348 1032.46773 1563.47926 1032.46773 933.912383 1410.22561 981.294453 1410.22561 1515.40348"></polyline>
            <polyline id="Path" fill="#5E1F18" points="1410.22561 723.000059 1032.46773 791.846836 654.814727 723.000059 1031.99182 624.138184 1410.22561 723.000059"></polyline>
            <polyline id="Path" fill="#F2B0A9" points="1410.22561 1773.00416 1032.46773 1703.70566 654.814727 1773.00416 1032.00795 1878.29496 1410.22561 1773.00416"></polyline>
            <polyline id="Path" fill="#8C3123" points="654.814727 723.000059 1032.46773 629.542676 1035.5249 628.598906 1035.5249 2.52478516 1032.46773 0 654.814727 188.85877 654.814727 723.000059"></polyline>
            <polyline id="Path" fill="#E05243" points="1410.22561 723.000059 1032.46773 629.542676 1032.46773 0 1410.22561 188.85877 1410.22561 723.000059"></polyline>
            <polyline id="Path" fill="#8C3123" points="1032.46773 2495.97195 654.774395 2307.17771 654.774395 1773.04449 1032.46773 1866.46961 1038.02549 1872.78561 1036.51707 2485.07424 1032.46773 2495.97195"></polyline>
            <path d="M1032.46773,2495.97195 L1410.19334,2307.17771 L1410.19334,1773.04449 L1032.46773,1866.46961 L1032.46773,2495.97195 M1898.56584,433.053086 L2065,516.25 L2065,1976.43086 L1898.56584,2059.59551 L1898.56584,433.053086" id="Shape" fill="#E05243"></path>
        </g>
    </g>
</svg>