<svg width="64" height="64" viewBox="0 0 64 64" xmlns="http://www.w3.org/2000/svg">
  <g fill="#000000" fill-rule="nonzero">
    <path d="M32 19.388h-6.275c-.693 0-1.254.562-1.254 1.255v22.588c0 .693.561 1.255 1.254 1.255H32c.693 0 1.255-.562 1.255-1.255V20.643c0-.693-.562-1.255-1.255-1.255zm-1.255 22.588H26.98V21.898h3.765v20.078z"/>
    <path d="M47.335 25.688l-14.08-3.1-.979-.2c-.373-.088-.766 0-1.067.238a1.255 1.255 0 00-.464.966v16.715c-.005.385.166.75.464.992.23.169.506.26.791.263h.276l.979-.226 14.08-3.124c.584-.132.993-.657.979-1.255v-10.04a1.255 1.255 0 00-.98-1.23zm-1.531 10.277l-12.55 2.786V25.098l12.55 2.798v8.07zM63.373 25.098v2.635a45 45 0 01-12.55 1.694v-2.51a41.976 41.976 0 0012.55-1.819zM63.373 29.992v2.51c-4.166.482-8.357.704-12.55.665v-2.51a97.669 97.669 0 0012.55-.665z"/>
    <path d="M63.373 31.573v2.51a83.614 83.614 0 00-12.55-.903v-2.51c4.2-.014 8.395.288 12.55.903zM63.373 36.204v2.698a40.345 40.345 0 00-12.55-1.92v-2.51a43.57 43.57 0 0112.55 1.732zM21.96 25.663v2.51A49.895 49.895 0 01.628 22.11v-2.936c5.535 3.614 12.9 5.785 21.334 6.488zM21.96 30.657v2.51c-3.638-.163-7.78-.502-11.946-1.104a69.12 69.12 0 01-9.387-1.945V27.52a90.44 90.44 0 0021.334 3.137z"/>
    <path d="M21.96 30.971v2.51A91.093 91.093 0 00.628 36.618V34.02a67.238 67.238 0 019.412-1.932c4.141-.615 8.283-.941 11.922-1.117zM21.96 21.534v2.51C4.657 22.036.74 13.164.74 5.609V.59h2.51v5.083c0 6.45 3.464 13.992 18.71 15.862zM21.96 35.878v2.51c-8.42.702-15.786 2.936-21.333 6.525v-2.924a50.196 50.196 0 0121.334-6.111zM21.96 40.056v2.51c-9.737 1.192-18.71 5.158-18.71 15.687v4.931l-1.029.088-1.468.113a.326.326 0 010-.113v-4.066-.953C.74 50.798 4.656 42.052 21.96 40.056z"/>
  </g>
</svg>