<svg width="64" height="64" viewBox="0 0 64 64" xmlns="http://www.w3.org/2000/svg">
  <g fill="#000000" fill-rule="nonzero">
    <path d="M63.373 25.738v2.51H52.304c-3.676.006-7.35-.183-11.005-.565C17.782 25.173.639 14.908.639 2.221.637 1.692.67 1.164.74.64h2.51a9.587 9.587 0 00-.125 1.581c0 12.976 22.073 23.53 49.217 23.53l11.03-.013zM63.373 30.758v2.51h-2.66a19.64 19.64 0 00-2.75-2.51h5.41zM35.451 30.356c-.402.276-.753.552-1.13.853-.56.443-1.097.917-1.606 1.418-.401.402-.79.829-1.154 1.255C15.674 35.3 4.555 38.814.627 43.922v-3.64c5.484-4.655 15.624-7.065 25.575-8.295-9.951-1.254-20.078-3.664-25.575-8.32v-3.589c4.242 5.46 16.866 9.124 34.824 10.278z"/>
    <path d="M63.373 30.77v2.51h-2.66a19.64 19.64 0 00-2.75-2.51h5.41zM63.373 20.718v2.51h-5.196c-25.098 0-43.407-8.52-43.407-20.254V.678h2.51v2.296c0 10.04 17.569 17.807 40.897 17.807l5.196-.063zM28.624 38.613a17.305 17.305 0 00-1.004 2.874C12.963 45.565 3.087 53.157 3.087 61.83c0 .517.037 1.033.113 1.544H.69a10.516 10.516 0 01-.1-1.544C.627 51.564 11.87 42.855 28.624 38.613zM17.28 60.95v2.423h-2.51V60.95c0-5.823 4.543-10.855 12.21-14.432.003.89.07 1.78.201 2.66-6.224 3.075-9.901 7.166-9.901 11.772zM46.431 29.49c-9.356 0-16.94 7.585-16.94 16.941 0 9.357 7.584 16.942 16.94 16.942 9.357 0 16.942-7.585 16.942-16.942-.014-9.35-7.591-16.927-16.942-16.94zm13.804 21.334a13.678 13.678 0 01-1.857 3.764h-6.274v2.51h4.065c-5.501 5.022-13.924 5.022-19.425 0h1.53v-2.51H34.51a13.678 13.678 0 01-1.857-3.764h5.622v-2.51h-6.15a14.18 14.18 0 010-3.765h7.404v-2.51H32.69a13.678 13.678 0 011.857-3.764h13.804v-2.51H36.718c5.502-5.023 13.925-5.023 19.426 0h-4.066c-.693 0-1.254.562-1.254 1.255v6.274c0 .693.561 1.255 1.254 1.255h6.275c.693 0 1.255-.562 1.255-1.255v-2.736a14.333 14.333 0 011.13 7.756h-8.66v2.51h8.157zm-3.074-12.55v3.765h-3.765v-3.764h3.765z"/>
    <path d="M42.039 42.039h6.275v2.51h-6.275zM48.314 57.098h-6.275a1.255 1.255 0 01-1.255-1.255V49.57c0-.693.562-1.255 1.255-1.255h6.275c.693 0 1.255.562 1.255 1.255v6.274c0 .693-.562 1.255-1.255 1.255zm-5.02-2.51h3.765v-3.764h-3.765v3.764z"/>
  </g>
</svg>