<svg width="64" height="64" viewBox="0 0 64 64" xmlns="http://www.w3.org/2000/svg">
  <g fill-rule="nonzero" fill="none">
    <path d="M56.2329 30.2827C56.2329 30.3322 56.223 30.3812 56.2038 30.4267C56.1846 30.4723 56.1565 30.5135 56.121 30.548C56.0856 30.5825 56.0436 30.6095 55.9976 30.6275C55.9515 30.6455 55.9023 30.6541 55.8529 30.6527C55.8067 30.6622 55.7591 30.6622 55.7129 30.6527V30.6527C54.8104 30.1948 54.0317 29.5259 53.4429 28.7027C53.5067 29.6995 53.3319 30.6971 52.9329 31.6128V31.6128C52.909 31.6558 52.8767 31.6937 52.838 31.7241C52.7993 31.7546 52.7549 31.777 52.7073 31.79C52.6598 31.803 52.6102 31.8065 52.5614 31.8001C52.5125 31.7937 52.4655 31.7776 52.4229 31.7528C52.3797 31.7274 52.3422 31.6934 52.3129 31.6527V31.6527C51.4507 30.2998 51.1427 28.6668 51.4529 27.0927C45.3629 23.6027 39.1729 26.6527 39.1729 26.6527C39.9772 26.7309 40.7584 26.9653 41.4729 27.3427V27.3427C41.5143 27.3683 41.5503 27.4018 41.5787 27.4413C41.6072 27.4808 41.6276 27.5255 41.6387 27.5728C41.6499 27.6202 41.6516 27.6693 41.6437 27.7174C41.6358 27.7654 41.6186 27.8114 41.5929 27.8527L41.5129 27.9328C41.3525 28.0519 41.1856 28.1621 41.0129 28.2628V28.2628L40.7529 28.4027C40.265 28.6702 39.7438 28.872 39.2029 29.0028C38.8053 29.1214 38.3964 29.1985 37.9829 29.2327C36.0308 29.4215 34.065 29.4215 32.1129 29.2327C29.8329 31.1627 20.6229 35.3028 12.4729 33.9428C6.55291 32.5628 3.39291 29.8228 1.73291 26.9428C3.25291 28.0028 9.58291 31.5728 22.0229 27.6328C36.3729 23.0828 40.9629 20.5828 52.8529 23.6328C53.1469 24.2969 53.3682 24.9909 53.5129 25.7027V25.7027C54.2767 26.2176 54.9168 26.8954 55.3871 27.6874C55.8574 28.4794 56.1463 29.3657 56.2329 30.2827V30.2827Z" fill="#BBE7FF"/>
    <path d="M50.213 19.2927C51.2704 20.6488 52.1446 22.1383 52.813 23.7227C40.923 20.6227 36.333 23.1227 21.983 27.7227C9.543 31.6627 3.213 28.0927 1.693 27.0327C0.124174 24.1799 -0.375774 20.8611 0.283002 17.6727C0.543002 17.4027 0.853002 17.1027 1.203 16.8027C2.563 18.0327 9.203 23.1827 22.203 19.9327C22.173 19.8427 42.513 14.6927 50.213 19.2927Z" fill="#52AEFF"/>
    <path d="M43.4229 13.3627C46.0379 14.8963 48.3413 16.9079 50.2129 19.2927C42.5129 14.6927 22.2129 19.8427 22.2129 19.8427C9.21289 23.0927 2.58289 17.9427 1.21289 16.7127C4.62386 13.8242 8.58298 11.6541 12.8529 10.3327V10.3327C15.9851 11.7418 19.4582 12.2142 22.8529 11.6927C29.7419 10.5346 36.8109 11.1085 43.4229 13.3627V13.3627Z" fill="#0175F6"/>
    <path d="M40.5629 11.8527C41.5423 12.3051 42.4969 12.8092 43.4229 13.3627C36.8109 11.1085 29.742 10.5346 22.8529 11.6927C19.4582 12.2142 15.9851 11.7418 12.8529 10.3327C20.296 7.96814 28.2742 7.8707 35.7729 10.0527C37.4121 10.5327 39.0133 11.1343 40.5629 11.8527V11.8527Z" fill="#015BCF"/>
    <path d="M22.2429 1.46272C22.2407 1.75094 22.1543 2.03223 21.9944 2.27205C21.8345 2.51187 21.6081 2.69981 21.3429 2.81276V2.81276C20.1118 3.42423 19.1144 4.42157 18.5029 5.65272C18.4103 5.21544 18.3634 4.76975 18.3629 4.32277C18.3623 3.02151 18.7678 1.7525 19.5229 0.692762L19.6929 0.47273C19.8937 0.255289 20.1554 0.103551 20.4439 0.0373056C20.7323 -0.0289401 21.0341 -0.00659795 21.3096 0.101454C21.5851 0.209505 21.8216 0.398229 21.9882 0.642896C22.1547 0.887564 22.2435 1.17677 22.2429 1.47273V1.46272Z" fill="#015BCF"/>
    <path d="M17.1728 7.13272C17.1728 7.36272 17.1728 7.59271 17.1728 7.81271C16.4472 7.07786 15.5503 6.5349 14.5628 6.2327H14.4928C14.2479 6.15688 14.0253 6.02182 13.845 5.83951C13.6647 5.6572 13.532 5.43326 13.4589 5.18747C13.3857 4.94168 13.3743 4.68165 13.4256 4.43039C13.4769 4.17913 13.5893 3.94436 13.753 3.74692C13.9166 3.54948 14.1264 3.39546 14.3638 3.29843C14.6012 3.2014 14.8588 3.16437 15.1139 3.19064C15.369 3.21692 15.6137 3.30568 15.8263 3.44907C16.0389 3.59245 16.2129 3.78607 16.3328 4.01273C16.8855 4.95946 17.1754 6.03651 17.1728 7.13272Z" fill="#015BCF"/>
    <path d="M23.3029 28.7327C24.043 28.7327 24.6429 28.1328 24.6429 27.3927C24.6429 26.6526 24.043 26.0527 23.3029 26.0527C22.5628 26.0527 21.9629 26.6526 21.9629 27.3927C21.9629 28.1328 22.5628 28.7327 23.3029 28.7327Z" fill="#0175F6"/>
  </g>
</svg>
