<svg width="64" height="64" viewBox="0 0 64 64" xmlns="http://www.w3.org/2000/svg">
  <g fill="none" fill-rule="evenodd">
    <path d="M47 3v4h6v27h5v2.681l2.79 17.605-2.79.442V56h-5.039l.065.528L38 58.372V59h-7v-5h-.602l-3.4 2.381.002.119c0 3.508-2.352 6.367-5.294 6.496L21.5 63a4.843 4.843 0 01-2.73-.856l-.757.528L11.941 54H8V7h28V3h11z" fill="#FEFEFE"/>
    <path d="M52.063 45.425l-5.32-3.51-4.438 7.414-5.162-1.509-4.545 6.937.233 2.184 24.712-4.554-1.436-15.44-4.044 8.478zm-23.045-6.657l3.965-.545c.641.288 1.088.398 1.857.594 1.198.312 2.585.611 4.638-.424.478-.236 1.474-1.147 1.876-1.666L57.6 33.78l1.657 20.056-27.83 5.016-2.408-20.084zm30.175-7.227l-1.603.306L54.51.02 2.02 6.107l6.467 52.475 6.143-.892c-.49-.7-1.254-1.548-2.559-2.633-1.81-1.503-1.17-4.056-.102-5.669 1.412-2.724 8.688-6.186 8.276-10.54-.148-1.584-.4-3.645-1.87-5.057a4.89 4.89 0 00.045 1.15s-.604-.77-.905-1.82c-.298-.402-.533-.53-.85-1.068-.227.622-.197 1.343-.197 1.343s-.493-1.166-.573-2.15c-.293.44-.367 1.278-.367 1.278s-.641-1.84-.495-2.83c-.293-.861-1.16-2.571-.915-6.458 1.602 1.122 5.128.855 6.502-1.17.457-.67.769-2.502-.227-6.11-.64-2.313-2.225-5.758-2.843-7.065l-.074.053c.326 1.053.997 3.26 1.255 4.331.78 3.246.989 4.376.623 5.873-.311 1.3-1.058 2.152-2.951 3.103-1.894.955-4.406-1.368-4.565-1.496-1.84-1.465-3.262-3.856-3.42-5.017-.166-1.271.732-2.034 1.184-3.074-.647.185-1.37.514-1.37.514s.863-.892 1.925-1.663c.44-.291.698-.477 1.162-.862-.671-.011-1.216.008-1.216.008s1.12-.605 2.28-1.045c-.85-.038-1.662-.006-1.662-.006s2.498-1.117 4.471-1.937c1.357-.557 2.683-.393 3.427.684.978 1.411 2.004 2.177 4.18 2.652 1.337-.592 1.743-.897 3.422-1.354 1.478-1.625 2.638-1.835 2.638-1.835s-.576.528-.73 1.357a19.272 19.272 0 011.757-1.211s-.356.44-.687 1.137l.077.114c.977-.586 2.127-1.049 2.127-1.049s-.329.416-.714.953c.737-.006 2.232.032 2.812.097 3.426.076 4.137-3.658 5.451-4.126 1.646-.588 2.381-.944 5.186 1.811 2.407 2.365 4.288 6.599 3.354 7.547-.782.788-2.327-.307-4.038-2.44a9.235 9.235 0 01-1.91-4.163c-.27-1.432-1.322-2.263-1.322-2.263s.611 1.357.611 2.557c0 .655.082 3.103 1.132 4.478-.104.2-.152.994-.267 1.145-1.222-1.476-3.845-2.533-4.273-2.844 1.448 1.186 4.776 3.912 6.055 6.524 1.209 2.47.496 4.735 1.108 5.321.174.168 2.6 3.191 3.067 4.71.814 2.648.049 5.43-1.017 7.155l-2.976.464c-.435-.121-.729-.182-1.12-.408.216-.38.644-1.33.648-1.526l-.168-.295c-.926 1.312-2.478 2.586-3.767 3.318-1.687.956-3.631.809-4.897.416-3.593-1.108-6.99-3.536-7.81-4.173 0 0-.025.509.13.623.906 1.022 2.98 2.87 4.987 4.158l-4.276.47L29.41 53.42c-.896.128-1.036.19-2.017.33-.865-3.055-2.519-5.05-4.327-6.211-1.594-1.025-3.793-1.256-5.899-.839l-.135.157c1.464-.152 3.192.06 4.967 1.184 1.742 1.101 3.146 3.946 3.663 5.66.662 2.19 1.12 4.531-.662 7.013-1.267 1.765-4.966 2.74-7.955.63.798 1.284 1.877 2.334 3.33 2.532 2.157.293 4.203-.081 5.613-1.528 1.203-1.236 1.84-3.822 1.672-6.546l1.904-.276.687 4.888 31.513-3.794-2.571-25.078zM40.021 18.266c-.088.2-.227.332-.019.986l.013.037.033.084.086.196c.374.765.785 1.486 1.471 1.854a4.8 4.8 0 01.552-.06c.645-.028 1.052.074 1.31.213.023-.128.028-.316.014-.593-.05-.969.192-2.616-1.67-3.483-.702-.327-1.688-.226-2.017.181.06.007.114.02.156.034.496.174.16.345.07.55m5.218 9.038c-.244-.134-1.385-.081-2.187.015-1.528.18-3.177.71-3.539.992-.657.508-.358 1.394.127 1.757 1.361 1.017 2.555 1.7 3.815 1.533.773-.101 1.455-1.326 1.938-2.437.331-.766.331-1.591-.154-1.86m-13.527-7.838c.431-.41-2.146-.947-4.146.417-1.475 1.006-1.522 3.162-.11 4.385.141.121.258.207.367.277a12.712 12.712 0 013.72-1.097c.298-.334.646-.922.559-1.986-.118-1.443-1.212-1.214-.39-1.996" fill="#632CA6" fill-rule="nonzero"/>
  </g>
</svg>