<svg width="240" height="240" viewBox="0 0 240 240" xmlns="http://www.w3.org/2000/svg" xmlns:xlink="http://www.w3.org/1999/xlink">
  <g>
    <path style=" stroke:none;fill-rule:nonzero;fill:rgb(10.588235%,51.372549%,96.470588%);fill-opacity:1;" d="M 31.597656 188.304688 C 31.597656 187.851562 31.960938 187.488281 32.410156 187.488281 L 41.832031 187.488281 C 49.632812 187.488281 54.9375 192.40625 54.9375 199.621094 C 54.9375 206.832031 49.632812 211.765625 41.832031 211.765625 L 32.398438 211.765625 C 31.953125 211.757812 31.589844 211.394531 31.585938 210.949219 Z M 41.628906 208.703125 C 47.628906 208.703125 51.46875 205.03125 51.46875 199.585938 C 51.46875 194.136719 47.628906 190.464844 41.628906 190.464844 L 35.878906 190.464844 C 35.433594 190.46875 35.070312 190.832031 35.0625 191.28125 L 35.0625 208.800781 Z M 41.628906 208.703125 "/>
    <path style=" stroke:none;fill-rule:nonzero;fill:rgb(10.588235%,51.372549%,96.470588%);fill-opacity:1;" d="M 77.101562 194.195312 L 77.101562 210.996094 C 77.101562 211.445312 76.734375 211.8125 76.285156 211.8125 L 74.722656 211.8125 C 74.277344 211.804688 73.914062 211.445312 73.90625 210.996094 L 73.90625 208.800781 C 72.378906 210.863281 69.921875 212.035156 67.355469 211.921875 C 62.308594 211.738281 58.308594 207.59375 58.308594 202.542969 C 58.308594 197.488281 62.308594 193.34375 67.355469 193.164062 C 69.839844 193.070312 72.222656 194.160156 73.777344 196.105469 L 73.777344 194.148438 C 73.777344 193.699219 74.140625 193.332031 74.59375 193.332031 L 76.285156 193.332031 C 76.507812 193.332031 76.722656 193.425781 76.878906 193.585938 C 77.03125 193.75 77.113281 193.972656 77.101562 194.195312 Z M 73.8125 202.597656 C 73.660156 199.207031 70.816406 196.566406 67.425781 196.671875 C 64.03125 196.773438 61.355469 199.582031 61.410156 202.976562 C 61.46875 206.367188 64.238281 209.085938 67.632812 209.074219 C 69.34375 209.132812 71.003906 208.457031 72.183594 207.210938 C 73.363281 205.96875 73.957031 204.28125 73.8125 202.570312 Z M 73.8125 202.597656 "/>
    <path style=" stroke:none;fill-rule:nonzero;fill:rgb(10.588235%,51.372549%,96.470588%);fill-opacity:1;" d="M 94.945312 209.628906 C 95.238281 210.3125 94.925781 211.101562 94.246094 211.402344 C 93.339844 211.785156 92.363281 211.976562 91.378906 211.96875 C 87.671875 211.96875 85.558594 209.929688 85.558594 206.207031 L 85.558594 196.117188 L 82.222656 196.117188 C 81.542969 196 81.039062 195.417969 81.023438 194.722656 C 81.019531 194.035156 81.539062 193.453125 82.222656 193.378906 L 84.433594 193.378906 C 85.09375 193.378906 85.632812 192.84375 85.632812 192.179688 L 85.632812 190.667969 C 85.632812 189.925781 86.234375 189.324219 86.976562 189.324219 L 87.601562 189.324219 C 88.34375 189.324219 88.945312 189.925781 88.945312 190.667969 L 88.945312 193.34375 L 92.867188 193.34375 C 93.609375 193.34375 94.210938 193.945312 94.210938 194.6875 C 94.210938 195.429688 93.609375 196.03125 92.867188 196.03125 L 90.226562 196.03125 C 89.484375 196.039062 88.882812 196.644531 88.882812 197.386719 L 88.882812 205.992188 C 88.882812 207.972656 89.890625 209.074219 91.765625 209.074219 C 92.265625 209.078125 92.765625 208.992188 93.238281 208.824219 C 93.910156 208.574219 94.65625 208.890625 94.945312 209.542969 Z M 94.945312 209.628906 "/>
    <path style=" stroke:none;fill-rule:nonzero;fill:rgb(10.588235%,51.372549%,96.470588%);fill-opacity:1;" d="M 116.148438 194.195312 L 116.148438 210.996094 C 116.140625 211.445312 115.78125 211.804688 115.332031 211.8125 L 113.773438 211.8125 C 113.320312 211.8125 112.957031 211.445312 112.957031 210.996094 L 112.957031 208.800781 C 111.421875 210.859375 108.96875 212.027344 106.402344 211.921875 C 101.355469 211.738281 97.355469 207.59375 97.355469 202.542969 C 97.355469 197.488281 101.355469 193.34375 106.402344 193.164062 C 108.890625 193.089844 111.261719 194.199219 112.800781 196.152344 L 112.800781 194.195312 C 112.804688 193.746094 113.167969 193.386719 113.617188 193.378906 L 115.320312 193.378906 C 115.773438 193.378906 116.140625 193.742188 116.148438 194.195312 Z M 112.847656 202.597656 C 112.695312 199.203125 109.847656 196.566406 106.457031 196.671875 C 103.0625 196.777344 100.386719 199.589844 100.445312 202.984375 C 100.507812 206.378906 103.285156 209.09375 106.679688 209.074219 C 108.382812 209.117188 110.023438 208.429688 111.191406 207.1875 C 112.359375 205.949219 112.945312 204.269531 112.800781 202.570312 Z M 112.847656 202.597656 "/>
    <path style=" stroke:none;fill-rule:nonzero;fill:rgb(10.588235%,51.372549%,96.470588%);fill-opacity:1;" d="M 141.492188 202.570312 C 141.621094 205.082031 140.6875 207.53125 138.921875 209.320312 C 137.15625 211.109375 134.714844 212.070312 132.203125 211.96875 C 130.332031 212.019531 128.496094 211.429688 127.007812 210.289062 C 126.761719 210.082031 126.417969 210.039062 126.128906 210.175781 C 125.839844 210.3125 125.652344 210.605469 125.652344 210.925781 C 125.652344 211.386719 125.277344 211.765625 124.8125 211.765625 L 123.289062 211.765625 C 123.066406 211.765625 122.855469 211.675781 122.699219 211.515625 C 122.542969 211.359375 122.457031 211.144531 122.460938 210.925781 L 122.460938 186.863281 C 122.460938 186.40625 122.828125 186.03125 123.289062 186.023438 L 124.957031 186.023438 C 125.414062 186.03125 125.785156 186.40625 125.785156 186.863281 L 125.785156 196.152344 C 127.335938 194.207031 129.71875 193.117188 132.203125 193.210938 C 134.710938 193.105469 137.148438 194.058594 138.917969 195.839844 C 140.683594 197.621094 141.621094 200.066406 141.492188 202.570312 Z M 138.132812 202.570312 C 137.980469 199.1875 135.140625 196.546875 131.753906 196.648438 C 128.363281 196.746094 125.683594 199.546875 125.730469 202.9375 C 125.777344 206.324219 128.539062 209.046875 131.929688 209.050781 C 133.640625 209.117188 135.300781 208.445312 136.484375 207.207031 C 137.671875 205.96875 138.269531 204.28125 138.132812 202.570312 Z M 138.132812 202.570312 "/>
    <path style=" stroke:none;fill-rule:nonzero;fill:rgb(10.588235%,51.372549%,96.470588%);fill-opacity:1;" d="M 185.554688 201.253906 L 185.554688 211.019531 C 185.554688 211.464844 185.199219 211.828125 184.753906 211.835938 L 183.035156 211.835938 C 182.589844 211.828125 182.230469 211.464844 182.230469 211.019531 L 182.230469 201.601562 C 182.230469 198 180.433594 196.222656 177.277344 196.222656 C 173.734375 196.222656 171.445312 198.335938 171.445312 202.332031 L 171.445312 210.984375 C 171.445312 211.429688 171.085938 211.792969 170.640625 211.800781 L 168.925781 211.800781 C 168.476562 211.792969 168.121094 211.429688 168.121094 210.984375 L 168.121094 194.183594 C 168.121094 193.738281 168.480469 193.378906 168.925781 193.378906 L 170.496094 193.378906 C 170.941406 193.378906 171.304688 193.738281 171.3125 194.183594 C 171.316406 194.492188 171.496094 194.769531 171.769531 194.902344 C 172.046875 195.039062 172.375 195.003906 172.621094 194.820312 C 174.164062 193.707031 176.035156 193.136719 177.9375 193.199219 C 182.398438 193.273438 185.554688 195.839844 185.554688 201.253906 Z M 185.554688 201.253906 "/>
    <path style=" stroke:none;fill-rule:nonzero;fill:rgb(10.588235%,51.372549%,96.470588%);fill-opacity:1;" d="M 162.382812 207.972656 C 162.894531 208.582031 162.8125 209.488281 162.203125 210 C 160.433594 211.351562 158.25 212.046875 156.023438 211.96875 C 150.023438 211.96875 146.136719 208.054688 146.136719 202.570312 C 146.027344 200.082031 146.960938 197.65625 148.710938 195.882812 C 150.460938 194.105469 152.871094 193.140625 155.363281 193.210938 C 159.871094 193.054688 163.753906 196.367188 164.304688 200.84375 C 164.414062 201.625 163.878906 202.347656 163.105469 202.476562 L 149.761719 205.066406 C 150.753906 207.644531 153.320312 209.261719 156.070312 209.050781 C 157.605469 209.097656 159.113281 208.640625 160.367188 207.757812 C 160.984375 207.261719 161.886719 207.359375 162.382812 207.972656 Z M 150.382812 202.546875 L 159.371094 200.84375 C 159.835938 200.757812 160.230469 200.449219 160.425781 200.019531 C 160.617188 199.585938 160.589844 199.089844 160.34375 198.683594 C 159.035156 196.714844 156.6875 195.699219 154.355469 196.09375 C 152.023438 196.484375 150.140625 198.207031 149.542969 200.496094 C 149.417969 201.003906 149.382812 201.535156 149.449219 202.054688 C 149.59375 202.65625 150.421875 202.546875 150.421875 202.546875 Z M 150.382812 202.546875 "/>
    <path style=" stroke:none;fill-rule:nonzero;fill:rgb(10.588235%,51.372549%,96.470588%);fill-opacity:1;" d="M 208.402344 186.769531 L 208.402344 211.019531 C 208.402344 211.429688 208.070312 211.765625 207.660156 211.765625 L 205.945312 211.765625 C 205.746094 211.765625 205.558594 211.683594 205.421875 211.546875 C 205.285156 211.40625 205.207031 211.214844 205.210938 211.019531 L 205.210938 210.71875 C 205.203125 210.441406 205.039062 210.1875 204.785156 210.070312 C 204.53125 209.953125 204.234375 209.984375 204.011719 210.15625 C 202.503906 211.382812 200.601562 212.023438 198.660156 211.96875 C 193.609375 211.789062 189.613281 207.640625 189.613281 202.589844 C 189.613281 197.539062 193.609375 193.394531 198.660156 193.210938 C 201.144531 193.117188 203.527344 194.207031 205.078125 196.152344 L 205.078125 186.769531 C 205.078125 186.355469 205.414062 186.023438 205.824219 186.023438 L 207.671875 186.023438 C 208.078125 186.03125 208.402344 186.363281 208.402344 186.769531 Z M 205.105469 202.570312 C 204.953125 199.179688 202.105469 196.539062 198.710938 196.648438 C 195.320312 196.753906 192.640625 199.566406 192.703125 202.960938 C 192.765625 206.355469 195.542969 209.066406 198.9375 209.050781 C 200.644531 209.105469 202.292969 208.429688 203.46875 207.191406 C 204.648438 205.953125 205.242188 204.273438 205.105469 202.570312 Z M 205.105469 202.570312 "/>
    <path style=" stroke:none;fill-rule:nonzero;fill:rgb(47.843137%,70.588235%,96.078431%);fill-opacity:1;" d="M 206.460938 103.65625 C 204.613281 103.65625 202.464844 99.277344 200.902344 98.605469 C 194.722656 95.902344 188.988281 95.941406 182.398438 95.136719 C 176.085938 94.214844 169.710938 93.816406 163.332031 93.9375 C 153.15625 94.402344 142.738281 93.300781 132.695312 95.136719 C 116.640625 98.003906 100.210938 101.136719 84.132812 103.800781 C 74.484375 105.445312 66.203125 106.800781 56.398438 106.128906 C 41.902344 105.085938 27.875 105 16.1875 95.929688 C 15.28125 95.328125 14.523438 94.535156 13.96875 93.601562 C 12.167969 95.027344 10.441406 96.359375 10.164062 99.046875 C 9.371094 105.886719 9.410156 112.796875 10.285156 119.628906 C 10.957031 124.429688 11.59375 129.324219 14.015625 133.703125 C 20.183594 138.371094 26.242188 147.023438 33.875 148.308594 C 41.507812 149.59375 49.128906 148.847656 56.988281 148.308594 C 70.875 147.4375 84.636719 145.113281 98.039062 141.371094 C 98.195312 141.371094 99.238281 136.753906 99.457031 136.679688 C 100.789062 131.59375 104.4375 130.429688 108.9375 133.65625 C 118.835938 130.296875 127.992188 130.765625 137.914062 127.5 C 148.175781 124.140625 157.765625 123.253906 168.550781 122.304688 C 173.183594 121.894531 179.59375 119.902344 184.152344 119.988281 C 194.578125 119.988281 204.875 117.492188 214.8125 121.1875 C 215.519531 121.398438 216.242188 121.566406 216.972656 121.691406 L 206.699219 103.800781 "/>
    <path style=" stroke:none;fill-rule:nonzero;fill:rgb(16.078431%,51.372549%,95.686275%);fill-opacity:1;" d="M 191.554688 86.6875 C 188.21875 86.292969 184.429688 81.660156 181.273438 80.6875 C 170.90625 77.5625 160.257812 75.457031 149.484375 74.398438 C 140.828125 73.625 132.121094 73.625 123.46875 74.398438 C 115.871094 74.914062 109.066406 73.488281 101.507812 74.398438 C 94.023438 75.226562 86.480469 75.417969 78.960938 74.976562 C 69.480469 74.449219 59.519531 77.652344 51.46875 72.144531 C 37.726562 76.871094 25.003906 84.148438 13.96875 93.601562 C 14.527344 94.53125 15.289062 95.320312 16.199219 95.914062 C 27.886719 104.988281 41.398438 109.042969 55.933594 110.089844 C 65.714844 110.753906 75.539062 110.246094 85.199219 108.574219 C 101.28125 105.863281 117.3125 102.839844 133.355469 99.972656 C 143.398438 98.238281 153.542969 97.167969 163.726562 96.769531 C 169.953125 96.390625 176.199219 96.535156 182.398438 97.199219 C 188.988281 98.003906 195.527344 99 201.707031 101.699219 C 203.269531 102.371094 205.667969 104.101562 206.507812 103.644531 C 199.199219 92.257812 191.554688 86.6875 191.554688 86.6875 Z M 191.554688 86.6875 "/>
    <path style=" stroke:none;fill-rule:nonzero;fill:rgb(70.196078%,84.313725%,97.254902%);fill-opacity:1;" d="M 108.9375 133.667969 C 118.835938 130.308594 128.699219 126.863281 138.636719 123.601562 C 148.859375 120.210938 159.441406 118.015625 170.171875 117.058594 C 174.804688 116.652344 179.472656 116.339844 184.054688 116.375 C 194.484375 116.375 204.886719 117.503906 214.824219 121.175781 C 215.53125 121.386719 216.253906 121.554688 216.984375 121.679688 C 217.921875 123.71875 218.914062 125.722656 219.769531 127.800781 C 220.425781 129.488281 221.523438 130.964844 222.949219 132.085938 C 227.265625 135.476562 229.964844 140.519531 230.398438 145.992188 C 230.628906 148.1875 229.765625 148.800781 227.675781 148.164062 C 225.496094 147.320312 223.578125 145.910156 222.121094 144.085938 C 221.796875 143.746094 221.496094 143.183594 220.921875 143.398438 C 220.34375 143.617188 220.535156 144.238281 220.476562 144.707031 C 220.226562 147.527344 219.359375 150.261719 217.945312 152.710938 C 217.019531 154.175781 216.167969 154.726562 214.777344 152.929688 C 212.734375 150.28125 211.582031 147.0625 211.476562 143.722656 C 211.476562 142.523438 211.476562 141.226562 211.476562 139.980469 C 211.476562 134.761719 210.347656 133.019531 205.285156 131.195312 C 199.167969 129.058594 192.65625 128.308594 186.214844 129 C 178.917969 129.757812 171.695312 131.105469 164.617188 133.03125 C 167.257812 133.933594 169.234375 134.554688 171.179688 135.289062 C 172.175781 135.660156 173.351562 136.078125 173.472656 137.328125 C 173.59375 138.574219 172.453125 138.925781 171.636719 139.453125 C 166.921875 142.453125 161.554688 143.125 156.191406 143.628906 C 150.753906 144.316406 145.253906 144.34375 139.8125 143.699219 C 138.570312 143.515625 137.304688 143.75 136.210938 144.359375 C 121.152344 152.515625 104.90625 158.25 88.066406 161.363281 C 71.269531 164.410156 54.550781 164.386719 38.4375 157.644531 C 28.523438 153.492188 20.101562 147.574219 15.371094 137.472656 C 14.738281 136.308594 14.328125 135.03125 14.171875 133.714844 C 20.1875 138.449219 27.269531 141.640625 34.800781 143.015625 C 42.457031 144.367188 50.246094 144.800781 58.007812 144.3125 C 71.945312 143.277344 85.734375 140.792969 99.15625 136.894531 C 99.3125 136.839844 99.464844 136.769531 99.613281 136.691406 C 100.128906 140.21875 101.617188 141.851562 104.292969 142.222656 C 107.902344 142.800781 111.949219 138.589844 108.9375 133.667969 Z M 108.9375 133.667969 "/>
    <path style=" stroke:none;fill-rule:nonzero;fill:rgb(5.098039%,41.960784%,83.137255%);fill-opacity:1;" d="M 191.554688 86.6875 C 188.21875 86.292969 185.195312 84.863281 182.039062 83.902344 C 171.597656 80.671875 160.867188 78.464844 150 77.316406 C 141 76.464844 131.941406 76.390625 122.929688 77.089844 C 115.34375 77.605469 107.785156 78.40625 100.246094 79.308594 C 92.921875 80.222656 85.53125 80.492188 78.15625 80.113281 C 68.675781 79.597656 59.484375 77.59375 51.433594 72.085938 C 60.527344 68.433594 70.015625 65.839844 79.703125 64.355469 C 103.121094 60.277344 127.105469 60.742188 150.347656 65.734375 C 164.265625 68.613281 177.308594 74.742188 188.398438 83.628906 C 189.652344 84.417969 190.730469 85.460938 191.554688 86.6875 Z M 191.554688 86.6875 "/>
    <path style=" stroke:none;fill-rule:nonzero;fill:rgb(5.490196%,42.745098%,83.137255%);fill-opacity:1;" d="M 81.601562 52.078125 C 81.335938 46.078125 81.3125 40.859375 83.003906 35.785156 C 83.824219 32.695312 85.9375 30.113281 88.800781 28.691406 C 91.40625 27.285156 94.65625 28.082031 96.3125 30.539062 C 97.90625 32.941406 97.511719 35.257812 94.96875 37.570312 C 92.761719 39.589844 90.527344 41.59375 88.261719 43.570312 C 85.566406 46.003906 83.3125 48.882812 81.601562 52.078125 Z M 81.601562 52.078125 "/>
    <path style=" stroke:none;fill-rule:nonzero;fill:rgb(5.882353%,43.137255%,83.137255%);fill-opacity:1;" d="M 76.679688 59.554688 C 73.414062 55.558594 69.324219 53.929688 65.351562 52.066406 C 63.046875 50.976562 61.378906 49.210938 61.644531 46.441406 C 61.78125 44.023438 63.523438 41.996094 65.890625 41.496094 C 68.878906 40.691406 71.675781 41.257812 73.523438 43.738281 C 76.894531 48.300781 77.257812 53.566406 76.679688 59.554688 Z M 76.679688 59.554688 "/>
    <path style=" stroke:none;fill-rule:nonzero;fill:rgb(5.098039%,42.745098%,83.137255%);fill-opacity:1;" d="M 108.9375 133.667969 C 111.949219 138.589844 107.902344 142.738281 104.136719 142.222656 C 101.460938 141.851562 99.972656 140.21875 99.457031 136.691406 C 100.800781 131.605469 104.398438 130.441406 108.9375 133.667969 Z M 108.9375 133.667969 "/>
  </g>
</svg>
