<?xml version="1.0" encoding="UTF-8"?>
<svg width="89px" height="62px" viewBox="0 0 89 62" version="1.1" xmlns="http://www.w3.org/2000/svg" xmlns:xlink="http://www.w3.org/1999/xlink">
    <!-- Generator: Sketch 63.1 (92452) - https://sketch.com -->
    <title>icons8-docker(1)</title>
    <desc>Created with Sketch.</desc>
    <g id="Page-1" stroke="none" stroke-width="1" fill="none" fill-rule="evenodd">
        <g id="icons8-docker(1)" fill-rule="nonzero">
            <path d="M77,22 C77.782,18.53 76.816,14.44 72,10 C64.172,17.086 66.41,24.454 69,28 C69,28 68.668,30 61,30 C53.332,30 1,30 1,30 C1,30 -2.666,62 33,62 C64.186,62 72.946,37.994 74.656,31.848 C75.364,31.944 76.158,32.006 77,32 C81.294,31.966 86.86,29.658 89,21.032 C83.324,19.066 79.678,19.956 77,22 Z" id="Path" fill="#03A9F4"></path>
            <path d="M1.33,38 C2.8,47.478 8.966,62 33,62 C57.37,62 68.046,47.34 72.364,38 L1.33,38 Z" id="Path" fill="#0288D1"></path>
            <path d="M36.624,61.876 C34.784,61.232 26.48,59.696 25,48 C16.582,51.726 9.124,50.75 5.842,50.016 C10.166,56.474 18.182,62 33,62 C34.246,62 35.448,61.952 36.624,61.876 Z" id="Path" fill="#81D4FA"></path>
            <path d="M33,42 C30.790861,42 29,43.790861 29,46 C29,48.209139 30.790861,50 33,50 C35.209139,50 37,48.209139 37,46 C37,43.790861 35.209139,42 33,42 Z" id="Path" fill="#FFFFFF"></path>
            <path d="M26.828,49.194 C27.276,50.204 26.868,51.518 25.808,51.83 C19.206,53.776 13.516,54.034 9.214,54.034 C7.926,52.796 6.826,51.476 5.902,50.108 C11.072,50.108 19.322,49.868 24.19,48.176 C25.234,47.812 26.38,48.18 26.828,49.194 Z M1,36 C1,36 4.75,36.25 7,34 C10.75,37.376 18.88,36.176 21,34 C23.126,37.376 34.876,36.75 37,34 C39.5,36.876 50.25,37.5 53,34 C53.958,36.922 66.638,37.748 69,34 C71.122,36.176 79.126,37.876 83.622,34 C84.75,36.376 89,36 89,36 L89,38 L1,38 M31,46 C31,47.104 31.896,48 33,48 C34.104,48 35,47.104 35,46 C35,44.896 34.104,44 33,44 C31.896,44 31,44.896 31,46 Z" id="Shape" fill="#37474F"></path>
            <path d="M19,30 L9,30 L9,20 L19,20 L19,30 Z M39,20 L29,20 L29,30 L39,30 L39,20 Z M59,20 L49,20 L49,30 L59,30 L59,20 Z M29,10 L19,10 L19,20 L29,20 L29,10 Z M49,10 L39,10 L39,20 L49,20 L49,10 Z" id="Shape" fill="#01579B"></path>
            <path d="M29,30 L19,30 L19,20 L29,20 L29,30 Z M49,20 L39,20 L39,30 L49,30 L49,20 Z M49,0 L39,0 L39,10 L49,10 L49,0 Z M39,10 L29,10 L29,20 L39,20 L39,10 Z" id="Shape" fill="#0288D1"></path>
        </g>
    </g>
</svg>