<?xml version="1.0" encoding="UTF-8"?>
<svg width="64px" height="64px" viewBox="0 0 64 64" version="1.1" xmlns="http://www.w3.org/2000/svg" xmlns:xlink="http://www.w3.org/1999/xlink">
    <!-- Generator: Sketch 63.1 (92452) - https://sketch.com -->
    <title>Icon</title>
    <desc>Created with Sketch.</desc>
    <g id="Icon" stroke="none" stroke-width="1" fill="none" fill-rule="evenodd">
        <g id="docker" transform="translate(0.000000, 10.000000)" fill-rule="nonzero">
            <path d="M55.3707865,15.8202247 C55.9331236,13.3249438 55.2384719,10.3838202 51.7752809,7.19101124 C46.1461573,12.2865618 47.7555056,17.5848989 49.6179775,20.1348315 C49.6179775,20.1348315 49.379236,21.5730337 43.8651685,21.5730337 C38.3511011,21.5730337 0.719101124,21.5730337 0.719101124,21.5730337 C0.719101124,21.5730337 -1.9171236,44.5842697 23.7303371,44.5842697 C46.1562247,44.5842697 52.4555506,27.3215281 53.6852135,22.9019326 C54.1943371,22.9709663 54.7653034,23.0155506 55.3707865,23.011236 C58.4586067,22.9867865 62.4611236,21.3271011 64,15.1241348 C59.918382,13.710382 57.2965393,14.350382 55.3707865,15.8202247 Z" id="Path" fill="#03A9F4"></path>
            <path d="M0.956404494,27.3258427 C2.01348315,34.1414831 6.44746067,44.5842697 23.7303371,44.5842697 C41.2548315,44.5842697 48.9319551,34.0422472 52.0370337,27.3258427 L0.956404494,27.3258427 Z" id="Path" fill="#0288D1"></path>
            <path d="M26.3363596,44.4951011 C25.0132135,44.032 19.0417978,42.9274607 17.9775281,34.5168539 C11.9241348,37.1962247 6.56107865,36.494382 4.20098876,35.9665618 C7.31038202,40.6105169 13.0746966,44.5842697 23.7303371,44.5842697 C24.6263371,44.5842697 25.4906966,44.5497528 26.3363596,44.4951011 Z" id="Path" fill="#81D4FA"></path>
            <path d="M23.7303371,30.2022472 C22.1417427,30.2022472 20.8539326,31.4900573 20.8539326,33.0786517 C20.8539326,34.667246 22.1417427,35.9550562 23.7303371,35.9550562 C25.3189314,35.9550562 26.6067416,34.667246 26.6067416,33.0786517 C26.6067416,31.4900573 25.3189314,30.2022472 23.7303371,30.2022472 Z" id="Path" fill="#FFFFFF"></path>
            <path d="M19.2920449,35.3754607 C19.6142022,36.1017528 19.320809,37.0466517 18.5585618,37.2710112 C13.8110562,38.670382 9.71937079,38.8559101 6.62579775,38.8559101 C5.69959551,37.9656629 4.90858427,37.0164494 4.24413483,36.0327191 C7.96188764,36.0327191 13.8944719,35.8601348 17.3950562,34.6434157 C18.1457978,34.3816629 18.9698876,34.6462921 19.2920449,35.3754607 Z M0.719101124,25.8876404 C0.719101124,25.8876404 3.41573034,26.0674157 5.03370787,24.4494382 C7.73033708,26.8771236 13.5766292,26.0142022 15.1011236,24.4494382 C16.6299326,26.8771236 25.0793708,26.4269663 26.6067416,24.4494382 C28.4044944,26.517573 36.1348315,26.9662921 38.1123596,24.4494382 C38.8012584,26.5506517 47.9194607,27.1446292 49.6179775,24.4494382 C51.1439101,26.0142022 56.8995955,27.2366742 60.1326742,24.4494382 C60.9438202,26.1580225 64,25.8876404 64,25.8876404 L64,27.3258427 L0.719101124,27.3258427 M22.2921348,33.0786517 C22.2921348,33.8725393 22.9364494,34.5168539 23.7303371,34.5168539 C24.5242247,34.5168539 25.1685393,33.8725393 25.1685393,33.0786517 C25.1685393,32.284764 24.5242247,31.6404494 23.7303371,31.6404494 C22.9364494,31.6404494 22.2921348,32.284764 22.2921348,33.0786517 Z" id="Shape" fill="#37474F"></path>
            <path d="M13.6629213,21.5730337 L6.47191011,21.5730337 L6.47191011,14.3820225 L13.6629213,14.3820225 L13.6629213,21.5730337 Z M28.0449438,14.3820225 L20.8539326,14.3820225 L20.8539326,21.5730337 L28.0449438,21.5730337 L28.0449438,14.3820225 Z M42.4269663,14.3820225 L35.2359551,14.3820225 L35.2359551,21.5730337 L42.4269663,21.5730337 L42.4269663,14.3820225 Z M20.8539326,7.19101124 L13.6629213,7.19101124 L13.6629213,14.3820225 L20.8539326,14.3820225 L20.8539326,7.19101124 Z M35.2359551,7.19101124 L28.0449438,7.19101124 L28.0449438,14.3820225 L35.2359551,14.3820225 L35.2359551,7.19101124 Z" id="Shape" fill="#01579B"></path>
            <path d="M20.8539326,21.5730337 L13.6629213,21.5730337 L13.6629213,14.3820225 L20.8539326,14.3820225 L20.8539326,21.5730337 Z M35.2359551,14.3820225 L28.0449438,14.3820225 L28.0449438,21.5730337 L35.2359551,21.5730337 L35.2359551,14.3820225 Z M35.2359551,0 L28.0449438,0 L28.0449438,7.19101124 L35.2359551,7.19101124 L35.2359551,0 Z M28.0449438,7.19101124 L20.8539326,7.19101124 L20.8539326,14.3820225 L28.0449438,14.3820225 L28.0449438,7.19101124 Z" id="Shape" fill="#0288D1"></path>
        </g>
    </g>
</svg>