<svg width="64" height="64" viewBox="0 0 64 64" xmlns="http://www.w3.org/2000/svg">
  <g fill-rule="nonzero" fill="none">
    <path d="M6.21 17.94h42.34c4.666 0 8.832-2.139 11.628-5.479C54.346 4.886 45.194.001 34.895.001 22.285 0 11.386 7.32 6.21 17.94" fill="#F0BF1A"/>
    <path d="M44.961 22.924H4.288a31.89 31.89 0 000 17.941H44.96c4.884 0 8.971-3.986 8.971-8.97a8.933 8.933 0 00-8.97-8.97" fill="#07A5DE"/>
    <path d="M60.287 51.19c-2.778-3.265-6.911-5.341-11.538-5.341H6.21c5.176 10.62 16.075 17.94 28.685 17.94 10.362 0 19.566-4.944 25.392-12.6" fill="#3EBEB0"/>
    <path d="M4.288 22.924a31.882 31.882 0 000 17.941h26.62c.698-2.69 1.096-5.68 1.096-8.97 0-3.29-.398-6.28-1.096-8.97H4.288z" fill="#231F20"/>
    <path d="M18.848 4.286C13.465 7.476 8.98 12.26 6.189 17.94h23.523c-2.392-5.482-6.18-10.067-10.864-13.655" fill="#D7A229"/>
    <path d="M19.845 60.002A35.57 35.57 0 0030.41 45.85H6.19c2.99 5.98 7.774 10.964 13.655 14.153" fill="#019B8F"/>
  </g>
</svg>