<?xml version="1.0" encoding="UTF-8"?>
<svg width="64px" height="64px" viewBox="0 0 64 64" version="1.1" xmlns="http://www.w3.org/2000/svg" xmlns:xlink="http://www.w3.org/1999/xlink">
    <!-- Generator: Sketch 63.1 (92452) - https://sketch.com -->
    <title>Icon</title>
    <desc>Created with Sketch.</desc>
    <g id="Icon" stroke="none" stroke-width="1" fill="none" fill-rule="evenodd">
        <g id="file" transform="translate(7.000000, 0.000000)" fill="#000000" fill-rule="nonzero">
            <path d="M50.5391304,14.1913043 C50.4695652,14.1913043 50.4695652,14.1217391 50.4,14.0521739 C50.3304348,13.9826087 50.3304348,13.9130435 50.2608696,13.8434783 L38.2956522,0.417391304 C38.226087,0.347826087 38.0869565,0.27826087 38.0173913,0.208695652 C37.9478261,0.208695652 37.9478261,0.139130435 37.8782609,0.139130435 C37.7391304,0.0695652174 37.5304348,0 37.3217391,0 L7.96521739,0 C3.65217391,0 0.104347826,3.54782609 0.104347826,7.86086957 L0.104347826,56.0695652 C0.104347826,60.3826087 3.65217391,63.9304348 7.96521739,63.9304348 L42.7478261,63.9304348 C47.0608696,63.9304348 50.6086957,60.3826087 50.6086957,56.0695652 L50.6086957,14.6782609 C50.6086957,14.5391304 50.5391304,14.3304348 50.5391304,14.1913043 Z M38.6434783,4.73043478 L46.3652174,13.426087 L38.6434783,13.426087 L38.6434783,4.73043478 Z M47.9652174,56 C47.9652174,58.9217391 45.6695652,61.2869565 42.7478261,61.2869565 L7.96521739,61.2869565 C5.04347826,61.2869565 2.74782609,58.9217391 2.74782609,56.0695652 L2.74782609,7.79130435 C2.74782609,4.86956522 5.11304348,2.57391304 7.96521739,2.57391304 L36,2.57391304 L36,14.6782609 C36,15.373913 36.5565217,16 37.3217391,16 L47.9652174,16 L47.9652174,56 Z" id="Shape"></path>
            <path d="M9.49565217,16 L21.1130435,16 C21.8086957,16 22.4347826,15.4434783 22.4347826,14.6782609 C22.4347826,13.9130435 21.8782609,13.3565217 21.1130435,13.3565217 L9.49565217,13.3565217 C8.8,13.3565217 8.17391304,13.9130435 8.17391304,14.6782609 C8.17391304,15.4434783 8.8,16 9.49565217,16 Z" id="Path"></path>
            <path d="M21.1130435,47.9304348 L9.49565217,47.9304348 C8.8,47.9304348 8.17391304,48.4869565 8.17391304,49.2521739 C8.17391304,49.9478261 8.73043478,50.573913 9.49565217,50.573913 L21.1130435,50.573913 C21.8086957,50.573913 22.4347826,50.0173913 22.4347826,49.2521739 C22.4347826,48.5565217 21.8086957,47.9304348 21.1130435,47.9304348 Z" id="Path"></path>
            <path d="M8.17391304,23.4434783 C8.17391304,24.1391304 8.73043478,24.7652174 9.49565217,24.7652174 L40.5217391,24.7652174 C41.2173913,24.7652174 41.8434783,24.2086957 41.8434783,23.4434783 C41.8434783,22.7478261 41.2869565,22.1217391 40.5217391,22.1217391 L9.49565217,22.1217391 C8.8,22.1217391 8.17391304,22.6782609 8.17391304,23.4434783 Z" id="Path"></path>
            <path d="M40.5217391,28.6608696 L9.49565217,28.6608696 C8.8,28.6608696 8.17391304,29.2173913 8.17391304,29.9826087 C8.17391304,30.6782609 8.73043478,31.3043478 9.49565217,31.3043478 L40.5217391,31.3043478 C41.2173913,31.3043478 41.8434783,30.7478261 41.8434783,29.9826087 C41.8434783,29.2173913 41.2869565,28.6608696 40.5217391,28.6608696 Z" id="Path"></path>
            <path d="M40.5217391,35.1304348 L9.49565217,35.1304348 C8.8,35.1304348 8.17391304,35.6869565 8.17391304,36.4521739 C8.17391304,37.1478261 8.73043478,37.773913 9.49565217,37.773913 L40.5217391,37.773913 C41.2173913,37.773913 41.8434783,37.2173913 41.8434783,36.4521739 C41.8434783,35.6869565 41.2869565,35.1304348 40.5217391,35.1304348 Z" id="Path"></path>
            <path d="M40.5217391,41.6 L9.49565217,41.6 C8.8,41.6 8.17391304,42.1565217 8.17391304,42.9217391 C8.17391304,43.6173913 8.73043478,44.2434783 9.49565217,44.2434783 L40.5217391,44.2434783 C41.2173913,44.2434783 41.8434783,43.6869565 41.8434783,42.9217391 C41.8434783,42.226087 41.2869565,41.6 40.5217391,41.6 Z" id="Path"></path>
        </g>
    </g>
</svg>