<svg width="64" height="64" viewBox="0 0 64 64" xmlns="http://www.w3.org/2000/svg">
  <g fill-rule="nonzero" fill="none">
    <path d="M63.235 29.06L50.085 6.19a5.78 5.78 0 00-4.93-2.94H18.85a5.775 5.775 0 00-4.93 2.94L.765 29a5.74 5.74 0 000 5.72l13.15 23a5.885 5.885 0 004.93 3.045H45.15a5.865 5.865 0 004.935-3.03l13.15-22.87a5.865 5.865 0 000-5.805z" fill="#4285F4"/>
    <path d="M50.085 57.72l8.765-15.245L40.31 23.94 32 21.715 24.535 24.5 21.65 32l2.32 8.365L44.355 60.75h.795a5.865 5.865 0 004.935-3.03z" fill="#FFFFFF" opacity=".07"/>
    <g fill="#FFFFFF">
      <path d="M32 20.4c-6.403 0-11.594 5.19-11.595 11.593 0 6.403 5.189 11.595 11.592 11.597 6.403.002 11.595-5.187 11.598-11.59A11.595 11.595 0 0032 20.4m0 20.4a8.8 8.8 0 110-17.6 8.8 8.8 0 010 17.6"/>
      <path d="M26.5 31.55v3.605a6.395 6.395 0 002.19 2.24V31.55H26.5zM30.835 28.5v9.72a5.89 5.89 0 002.19 0V28.5h-2.19zM35.385 33.05v4.28a6.39 6.39 0 002.19-2.33v-1.95h-2.19zM40.345 39.145l-1.2 1.205a.545.545 0 000 .765L43.7 45.67a.545.545 0 00.77 0l1.2-1.2a.545.545 0 000-.765l-4.56-4.56a.545.545 0 00-.765 0"/>
    </g>
  </g>
</svg>