<svg width="64" height="64" viewBox="0 0 64 64" xmlns="http://www.w3.org/2000/svg">
  <g fill-rule="nonzero" fill="none">
    <path d="M63.235 29.06L50.085 6.19a5.78 5.78 0 00-4.93-2.94H18.85a5.775 5.775 0 00-4.93 2.94L.765 29a5.74 5.74 0 000 5.72l13.15 23a5.885 5.885 0 004.93 3.045H45.15a5.865 5.865 0 004.935-3.03l13.15-22.87a5.865 5.865 0 000-5.805z" fill="#4285F4"/>
    <path d="M42.745 25.275l-18.09 1.665-3.5 3.5 3 3-2.975 5.21 22.1 22.1h1.87a5.865 5.865 0 004.935-3.03l9.165-15.94-16.505-16.505z" fill="#FFFFFF" opacity=".07"/>
    <g fill="#FFFFFF">
      <path d="M42.35 25.135H21.63a.61.61 0 00-.63.605v4.285c0 .334.27.605.605.605H42.35a.61.61 0 00.605-.605V25.74a.61.61 0 00-.605-.605m-3.205 4a1.24 1.24 0 110-2.48 1.24 1.24 0 010 2.48M42.35 33.37H21.63A.61.61 0 0021 34v4.285a.61.61 0 00.605.605H42.35a.61.61 0 00.605-.605v-4.31a.61.61 0 00-.605-.605m-3.205 4a1.24 1.24 0 110-2.48 1.24 1.24 0 010 2.48"/>
    </g>
  </g>
</svg>