<svg width="64" height="64" viewBox="0 0 64 64" xmlns="http://www.w3.org/2000/svg">
  <g fill-rule="nonzero" fill="none">
    <path d="M62.745 28.853L49.697 6.16a5.735 5.735 0 00-4.892-2.917H18.704a5.73 5.73 0 00-4.892 2.917L.76 28.798a5.696 5.696 0 000 5.676l13.048 22.822a5.84 5.84 0 004.892 3.021H44.8a5.82 5.82 0 004.897-3.006l13.048-22.693a5.82 5.82 0 000-5.765z" fill="#4285F4"/>
    <path d="M39.764 19.833l-.228 1.112-2.064-2.069-12.403 1.86-8.2 10.047 2.976 3.046-2.595-.714 6.465 11.56 16.967 15.622H44.8a5.82 5.82 0 004.897-3.006l10.026-17.439-19.959-20.019z" fill="#FFFFFF" opacity=".07"/>
    <path fill-opacity=".75" fill="#FFFFFF" d="M46.636 31.785l-6.872-11.952-6.876 11.952 6.876 11.952zM16.868 32.777l6.847 11.907h13.732l-6.846-11.907z"/>
    <path fill="#FFFFFF" d="M30.512 30.793l6.96-11.907H23.74l-6.872 11.907z"/>
  </g>
</svg>