<?xml version="1.0" encoding="UTF-8"?>
<svg width="64px" height="64px" viewBox="0 0 64 64" version="1.1" xmlns="http://www.w3.org/2000/svg" xmlns:xlink="http://www.w3.org/1999/xlink">
    <!-- Generator: Sketch 63.1 (92452) - https://sketch.com -->
    <title>Icon</title>
    <desc>Created with Sketch.</desc>
    <g id="Icon" stroke="none" stroke-width="1" fill="none" fill-rule="evenodd">
        <g id="Cloud-PubSub" transform="translate(-0.000000, 3.000000)" fill-rule="nonzero">
            <path d="M63.235,26.06 L50.085,3.19 C49.0787803,1.40559698 47.2032176,0.287107232 45.155,0.25 L18.85,0.25 C16.8014944,0.286097392 14.9254681,1.40486361 13.92,3.19 L0.765,26 C-0.2526721,27.7708725 -0.2526721,29.9491275 0.765,31.72 L13.915,54.72 C14.910162,56.5297703 16.7811974,57.6854098 18.845,57.765 L45.15,57.765 C47.2136932,57.6941625 49.0880882,56.5433181 50.085,54.735 L63.235,31.865 C64.2597443,30.0656719 64.2597443,27.8593281 63.235,26.06 Z" id="Path" fill="#4285F4"></path>
            <path d="M44.61,20.87 L41.68,21.5 L34.38,14.2 L32.045,18.55 L30.775,23.6 L32.92,25.745 L28.8,26.59 L23.15,20.94 L19.315,24.63 L26.38,31.685 L18.88,37.635 L39,57.75 L45.15,57.75 C47.2136932,57.6791625 49.0880882,56.5283181 50.085,54.72 L60.445,36.72 L44.61,20.87 Z" id="Path" fill="#FFFFFF" opacity="0.0700000003"></path>
            <path d="M41.43,20.5 C42.7025076,19.7665127 44.3286781,20.2032127 45.0625445,21.4755017 C45.7964109,22.7477907 45.3601955,24.3740913 44.0881252,25.1083368 C42.8160549,25.8425822 41.1896245,25.4068514 40.455,24.135 C40.1019405,23.5237499 40.0063179,22.7972314 40.1891909,22.1154432 C40.372064,21.4336551 40.8184346,20.852513 41.43,20.5" id="Path" fill="#FFFFFF"></path>
            <path d="M19.91,25.09 C18.6381486,24.3553755 18.2024178,22.7289451 18.9366632,21.4568748 C19.6709087,20.1848045 21.2972093,19.7485891 22.5694983,20.4824555 C23.8417873,21.2163219 24.2784873,22.8424924 23.545,24.115 C23.192487,24.7265654 22.6113449,25.172936 21.9295568,25.3558091 C21.2477686,25.5386821 20.5212501,25.4430595 19.91,25.09" id="Path" fill="#FFFFFF"></path>
            <path d="M34.66,41.425 C34.6572398,42.8934234 33.4650978,44.0818372 31.9966729,44.08 C30.5282481,44.0781586 29.3390869,42.8867622 29.3400047,41.4183365 C29.3409236,39.9499108 30.531574,38.76 32,38.76 C33.4690774,38.76 34.66,39.9509226 34.66,41.42" id="Path" fill="#FFFFFF"></path>
            <g id="Group" transform="translate(20.500000, 16.500000)" fill="#FFFFFF">
                <path d="M11.5,6.97 C11.9139476,6.97048379 12.3265321,7.01744462 12.73,7.11 L12.73,0.075 L10.27,0.075 L10.27,7.11 C10.6734679,7.01744462 11.0860524,6.97048379 11.5,6.97 L11.5,6.97 Z" id="Path"></path>
                <path d="M16.785,14.13 C16.5388984,14.9224242 16.1166908,15.6488947 15.55,16.255 L21.645,19.755 L22.875,17.625 L16.785,14.13 Z" id="Path"></path>
                <path d="M6.215,14.13 L0.125,17.63 L1.355,19.76 L7.45,16.26 C6.88266104,15.6524504 6.46041537,14.9242048 6.215,14.13 Z" id="Path"></path>
            </g>
            <path d="M36.3,29 C36.3,30.7391877 35.2523386,32.3071237 33.6455388,32.972682 C32.0387389,33.6382403 30.1892322,33.2703505 28.9594408,32.0405592 C27.7296495,30.8107678 27.3617597,28.9612611 28.027318,27.3544612 C28.6928763,25.7476614 30.2608123,24.7 32,24.7 C34.3748244,24.7 36.3,26.6251756 36.3,29" id="Path" fill="#FFFFFF"></path>
            <path d="M19.55,32.285 C20.7336247,31.6002519 22.2132237,31.6961354 23.2985714,32.5279213 C24.3839191,33.3597073 24.8611629,34.763504 24.5076711,36.0844472 C24.1541792,37.4053904 23.0396023,38.3832069 21.6838848,38.56175 C20.3281674,38.7402932 18.9984345,38.0843837 18.315,36.9 C17.3827492,35.2844207 17.935456,33.2190427 19.55,32.285" id="Path" fill="#FFFFFF"></path>
            <path d="M41.07,38.135 C39.8856163,37.4515655 39.2297068,36.1218326 39.40825,34.7661152 C39.5867931,33.4103977 40.5646096,32.2958208 41.8855528,31.9423289 C43.206496,31.5888371 44.6102927,32.0660809 45.4420787,33.1514286 C46.2738646,34.2367763 46.3697481,35.7163753 45.685,36.9 C45.2373757,37.6763936 44.4993383,38.2428767 43.633612,38.47455 C42.7678856,38.7062232 41.8455631,38.5840618 41.07,38.135" id="Path" fill="#FFFFFF"></path>
            <path d="M35.38,16.575 C35.38,18.4417225 33.8667225,19.955 32,19.955 C30.1332775,19.955 28.62,18.4417225 28.62,16.575 C28.62,14.7082775 30.1332775,13.195 32,13.195 C33.8667225,13.195 35.38,14.7082775 35.38,16.575" id="Path" fill="#FFFFFF"></path>
        </g>
    </g>
</svg>
