<svg width="64" height="64" viewBox="0 0 64 64" xmlns="http://www.w3.org/2000/svg">
  <g fill-rule="nonzero" fill="none">
    <path d="M63.235 29.06L50.085 6.19a5.78 5.78 0 00-4.93-2.94H18.85a5.775 5.775 0 00-4.93 2.94L.765 29a5.74 5.74 0 000 5.72l13.15 23a5.885 5.885 0 004.93 3.045H45.15a5.865 5.865 0 004.935-3.03l13.15-22.87a5.865 5.865 0 000-5.805z" fill="#4285F4"/>
    <path d="M44.61 23.87l-2.93.63-7.3-7.3-2.335 4.35-1.27 5.05 2.145 2.145-4.12.845-5.65-5.65-3.835 3.69 7.065 7.055-7.5 5.95L39 60.75h6.15a5.865 5.865 0 004.935-3.03l10.36-18L44.61 23.87z" fill="#FFFFFF" opacity=".07"/>
    <path d="M41.43 23.5a2.66 2.66 0 112.657 4.61 2.66 2.66 0 01-2.657-4.61M19.91 28.09a2.66 2.66 0 112.66-4.607 2.66 2.66 0 01-2.66 4.607M34.66 44.425a2.66 2.66 0 110-.005" fill="#FFFFFF"/>
    <g fill="#FFFFFF">
      <path d="M32 26.47c.414 0 .827.047 1.23.14v-7.035h-2.46v7.035a5.53 5.53 0 011.23-.14zM37.285 33.63a5.5 5.5 0 01-1.235 2.125l6.095 3.5 1.23-2.13-6.09-3.495zM26.715 33.63l-6.09 3.5 1.23 2.13 6.095-3.5a5.5 5.5 0 01-1.235-2.13z"/>
    </g>
    <path d="M36.3 32a4.3 4.3 0 11-8.6 0 4.3 4.3 0 018.6 0M19.55 35.285a3.38 3.38 0 113.385 5.851 3.38 3.38 0 01-3.385-5.851M41.07 41.135a3.38 3.38 0 113.379-5.855 3.38 3.38 0 01-3.379 5.855M35.38 19.575a3.38 3.38 0 11-6.76 0 3.38 3.38 0 016.76 0" fill="#FFFFFF"/>
  </g>
</svg>