<?xml version="1.0" encoding="UTF-8"?>
<svg width="64px" height="64px" viewBox="0 0 64 64" version="1.1" xmlns="http://www.w3.org/2000/svg" xmlns:xlink="http://www.w3.org/1999/xlink">
    <!-- Generator: Sketch 64 (93537) - https://sketch.com -->
    <title>Icon</title>
    <desc>Created with Sketch.</desc>
    <g id="Icon" stroke="none" stroke-width="1" fill="none" fill-rule="evenodd">
        <g id="gcp_stackdriver" transform="translate(0.000000, 3.000000)" fill-rule="nonzero">
            <path d="M62.7448062,25.8530233 L49.6967442,3.16031008 C48.6983247,1.38973964 46.8373012,0.279920355 44.8049612,0.243100775 L18.703876,0.243100775 C16.6712503,0.278918343 14.8097668,1.38901195 13.812093,3.16031008 L0.759069767,25.7984496 C-0.250713402,27.5555945 -0.250713402,29.7169637 0.759069767,31.4741085 L13.8071318,54.295814 C14.7945793,56.091555 16.6511106,57.2382361 18.6989147,57.3172093 L44.8,57.3172093 C46.8476956,57.2469209 48.7075604,56.1049978 49.6967442,54.3106977 L62.7448062,31.6179845 C63.7634915,29.8313342 63.7634915,27.6396735 62.7448062,25.8530233 Z" id="Path" fill="#4285F4"></path>
            <path d="M39.7643411,16.8334884 L39.536124,17.9448062 L37.4722481,15.875969 L25.0691473,17.7364341 L16.8682171,27.7829457 L19.8449612,30.8291473 L17.2502326,30.1147287 L23.7147287,41.6744186 L40.6821705,57.2973643 L44.8,57.2973643 C46.8476956,57.227076 48.7075604,56.0851529 49.6967442,54.2908527 L59.7234109,36.852093 L39.7643411,16.8334884 Z" id="Path" fill="#FFFFFF" opacity="0.0700000003"></path>
            <polygon id="Path" fill-opacity="0.75" fill="#FFFFFF" points="46.6356589 28.7851163 39.7643411 16.8334884 32.888062 28.7851163 39.7643411 40.7367442"></polygon>
            <polygon id="Path" fill-opacity="0.75" fill="#FFFFFF" points="16.8682171 29.7773643 23.7147287 41.6843411 37.4474419 41.6843411 30.6009302 29.7773643"></polygon>
            <polygon id="Path" fill="#FFFFFF" points="30.5116279 27.7928682 37.4722481 15.8858915 23.7395349 15.8858915 16.8682171 27.7928682"></polygon>
        </g>
    </g>
</svg>
