<?xml version="1.0" encoding="UTF-8"?>
<svg width="64px" height="64px" viewBox="0 0 64 64" version="1.1" xmlns="http://www.w3.org/2000/svg" xmlns:xlink="http://www.w3.org/1999/xlink">
    <!-- Generator: Sketch 63.1 (92452) - https://sketch.com -->
    <title>Icon</title>
    <desc>Created with Sketch.</desc>
    <g id="Icon" stroke="none" stroke-width="1" fill="none" fill-rule="evenodd">
        <g id="humio" transform="translate(-0.000000, 2.000000)" fill="#000000" fill-rule="nonzero">
            <path d="M45.4342171,13.0995086 C42.6655833,13.1002882 40.4217898,15.3453335 40.4225543,18.1139675 C40.4233195,20.8826014 42.6683529,23.1264068 45.4369867,23.1256572 C48.2056207,23.1249067 50.4494381,20.8798854 50.4487032,18.1112514 C50.4448251,15.3438794 48.2015909,13.1018722 45.4342171,13.0995086 L45.4342171,13.0995086 Z" id="Path"></path>
            <path d="M59.6463714,21.7944686 C59.9772749,20.5941045 60.1529914,19.3562845 60.1692286,18.1112514 C60.1520297,16.8317054 59.9658006,15.5600439 59.6153771,14.3292971 L59.6153771,1.06857143 L58.0750914,1.24009714 C53.0055029,1.79912 47.9149886,2.17393143 42.8163886,2.40476571 C35.9428465,-0.512918237 28.1788793,-0.512918237 21.3053371,2.40476571 C16.2067429,2.17390857 11.1161486,1.79912 6.04762286,1.24009714 L4.50624571,1.06857143 L4.50624571,14.3325714 C4.15669525,15.5623457 3.97082475,16.8328421 3.95344,18.1112114 C3.96966406,19.3563188 4.14534375,20.5942172 4.47618857,21.7946743 C2.14871429,23.12416 0.293977143,25.97212 0.191851429,30.1881829 C-0.03252,39.5208629 6.24884,48.4541714 6.24884,48.4541714 C6.94075063,46.4799042 7.87458657,44.5989617 9.02901143,42.85432 C11.373859,46.4139855 14.5074693,49.3854186 18.1866057,51.5379714 C17.7046731,51.5526857 17.2614921,51.8057146 17.00384,52.2132571 C16.7427965,51.7976502 16.2898047,51.5416698 15.7991029,51.5324743 L15.4065314,51.5324743 C14.5723549,51.545194 13.9057825,52.2305521 13.9162457,53.06476 L13.9162457,57.8779029 C13.9057825,58.7121109 14.5723549,59.3974686 15.4065314,59.4102229 L15.7991029,59.4102229 C16.2898047,59.4009931 16.7427965,59.1450126 17.00384,58.7294057 C17.2639013,59.145084 17.7164015,59.4011971 18.2066457,59.4102229 L18.6032686,59.4102229 C19.0926359,59.4008423 19.5445538,59.1462109 19.8060686,58.7324743 C20.0665576,59.1462874 20.5179625,59.4010577 21.0068514,59.4102229 L21.4034229,59.4102229 C22.2375981,59.3974657 22.9041686,58.7121097 22.8937086,57.8779029 L22.8937086,53.724 C28.8190543,55.8589165 35.3037273,55.8588317 41.2290171,53.72376 L41.2290171,57.8779371 C41.2185441,58.7121114 41.8850633,59.3974594 42.7192057,59.4102229 L43.1117771,59.4102229 C43.6017499,59.4010937 44.0542257,59.1459749 44.3156286,58.7314571 C44.576985,59.145984 45.0294441,59.4011103 45.5194,59.4102229 L45.9159714,59.4102229 C46.4056634,59.4011389 46.8576829,59.1454851 47.1178,58.7304914 C47.3778998,59.1454663 47.8298878,59.4011183 48.3195543,59.4102229 L48.7161771,59.4102229 C49.5495445,59.3971057 50.2147203,58.7113166 50.2024057,57.8779371 L50.2024057,53.0647943 C50.2147203,52.2314147 49.5495445,51.5456255 48.7161771,51.5325086 L48.3195543,51.5325086 C47.8298864,51.5416135 47.3778977,51.7972677 47.1178,52.2122457 C46.8601366,51.8053061 46.4174297,51.5526419 45.9360057,51.5377657 C49.6152238,49.3850489 52.7488648,46.413419 55.09368,42.8535486 C56.2485012,44.5982487 57.18236,46.4795082 57.8738514,48.4542057 C57.8738514,48.4542057 64.1561829,39.5208971 63.9318114,30.1882171 C63.8306057,25.9716743 61.9738457,23.1237143 59.6463714,21.7944686 L59.6463714,21.7944686 Z M18.6873771,30.0738171 C12.0818786,30.0728578 6.72767509,24.7175806 6.72804011,18.112082 C6.72840514,11.5065834 12.0832005,6.15166869 18.6886991,6.15166869 C25.2941977,6.15166869 30.6493649,11.5057529 30.6501886,18.1112514 C30.6425804,24.714936 25.2910619,30.0663446 18.6873771,30.0738171 L18.6873771,30.0738171 Z M32.0673371,35.8651429 L26.6723086,30.4698686 C29.0222593,28.9344643 30.8906758,26.7664567 32.0623314,24.2155829 C33.2349322,26.76868 35.1055617,28.9381703 37.4583314,30.4736743 L32.0673371,35.8651429 Z M45.4352629,30.0738174 C40.5973867,30.0747348 36.2353344,27.1612631 34.3831762,22.6919727 C32.5310181,18.2226823 33.5535164,13.0777514 36.9738697,9.65631451 C40.3942229,6.23487766 45.5388298,5.21074973 50.0087066,7.06149217 C54.4785834,8.91223457 57.3934366,13.2733638 57.39404,18.11124 C57.3868137,24.7135101 52.0375303,30.064493 45.4352629,30.0738174 L45.4352629,30.0738174 Z" id="Shape"></path>
            <path d="M18.6873771,13.0995086 C15.9187433,13.1002882 13.6749498,15.3453335 13.6757143,18.1139675 C13.6764795,20.8826014 15.9215129,23.1264068 18.6901467,23.1256572 C21.4587807,23.1249067 23.7025981,20.8798854 23.7018632,18.1112514 C23.6993941,15.3432946 21.4553349,13.1004629 18.6873771,13.0995086 Z" id="Path"></path>
        </g>
    </g>
</svg>