<?xml version="1.0" encoding="UTF-8"?>
<svg width="112px" height="104px" viewBox="0 0 112 104" version="1.1" xmlns="http://www.w3.org/2000/svg" xmlns:xlink="http://www.w3.org/1999/xlink">
    <!-- Generator: Sketch 63.1 (92452) - https://sketch.com -->
    <title>humio</title>
    <desc>Created with Sketch.</desc>
    <g id="Page-1" stroke="none" stroke-width="1" fill="none" fill-rule="evenodd">
        <g id="humio" fill="#000000" fill-rule="nonzero">
            <path d="M79.50988,22.92414 C74.6647707,22.9255043 70.7381322,26.8543337 70.7394703,31.6994431 C70.7408091,36.5445524 74.6696175,40.4712119 79.5147268,40.4698997 C84.3598362,40.4685868 88.2865166,36.5397994 88.2852303,31.69469 C88.278444,26.8517889 84.3527841,22.9282763 79.50988,22.92414 L79.50988,22.92414 Z" id="Path"></path>
            <path d="M104.38115,38.14032 C104.960231,36.0396829 105.267735,33.8734978 105.29615,31.69469 C105.266052,29.4554844 104.940151,27.2300768 104.32691,25.07627 L104.32691,1.87 L101.63141,2.17017 C92.75963,3.14846 83.85123,3.80438 74.92868,4.20834 C62.8999813,-0.897606914 49.3130387,-0.897606914 37.28434,4.20834 C28.3618,3.80434 19.45326,3.14846 10.58334,2.17017 L7.88593,1.87 L7.88593,25.082 C7.27421669,27.234105 6.94894332,29.4574737 6.91852,31.69462 C6.94691211,33.8735579 7.25435156,36.0398801 7.83333,38.14068 C3.76025,40.46728 0.51446,45.45121 0.33574,52.82932 C-0.05691,69.16151 10.93547,84.7948 10.93547,84.7948 C12.1463136,81.3398323 13.7805265,78.048183 15.80077,74.99506 C19.9042532,81.2244746 25.3880712,86.4244826 31.82656,90.19145 C30.9831779,90.2172 30.2076111,90.6600005 29.75672,91.3732 C29.2998938,90.6458878 28.5071582,90.1979222 27.64843,90.18183 L26.96143,90.18183 C25.501621,90.2040895 24.3351194,91.4034661 24.35343,92.86333 L24.35343,101.28633 C24.3351194,102.746194 25.501621,103.94557 26.96143,103.96789 L27.64843,103.96789 C28.5071582,103.951738 29.2998938,103.503772 29.75672,102.77646 C30.2118272,103.503897 31.0037027,103.952095 31.86163,103.96789 L32.55572,103.96789 C33.4121128,103.951474 34.2029692,103.505869 34.66062,102.78183 C35.1164758,103.506003 35.9064344,103.951851 36.76199,103.96789 L37.45599,103.96789 C38.9157967,103.945565 40.0822951,102.746192 40.06399,101.28633 L40.06399,94.017 C50.4333451,97.7531039 61.7815228,97.7529554 72.15078,94.01658 L72.15078,101.28639 C72.1324522,102.746195 73.2988607,103.945554 74.75861,103.96789 L75.44561,103.96789 C76.3030623,103.951914 77.0948949,103.505456 77.55235,102.78005 C78.0097237,103.505472 78.8015271,103.951943 79.65895,103.96789 L80.35295,103.96789 C81.2099109,103.951993 82.000945,103.504599 82.45615,102.77836 C82.9113247,103.504566 83.7023036,103.951957 84.55922,103.96789 L85.25331,103.96789 C86.7117029,103.944935 87.8757605,102.744804 87.85421,101.28639 L87.85421,92.86339 C87.8757605,91.4049757 86.7117029,90.2048447 85.25331,90.18189 L84.55922,90.18189 C83.7023012,90.1978237 82.911321,90.6452185 82.45615,91.37143 C82.0052391,90.6592856 81.2305019,90.2171234 80.38801,90.19109 C86.8266417,86.4238355 92.3105134,81.2234832 96.41394,74.99371 C98.4348771,78.0469352 100.06913,81.3391394 101.27924,84.79486 C101.27924,84.79486 112.27332,69.16157 111.88067,52.82938 C111.70356,45.45043 108.45423,40.4665 104.38115,38.14032 L104.38115,38.14032 Z M32.70291,52.62918 C21.1432875,52.6275011 11.7734314,43.2557661 11.7740702,31.6961435 C11.774709,20.136521 21.1456008,10.7654202 32.7052234,10.7654202 C44.264846,10.7654202 53.6363885,20.1350675 53.63783,31.69469 C53.6245157,43.251138 44.2593583,52.6161031 32.70291,52.62918 L32.70291,52.62918 Z M56.11784,62.764 L46.67654,53.32227 C50.7889538,50.6353126 54.0586826,46.8412993 56.10908,42.37727 C58.1611314,46.84519 61.4347329,50.6417981 65.55208,53.32893 L56.11784,62.764 Z M79.51171,52.62918 C71.0454267,52.6307859 63.4118352,47.5322105 60.1705584,39.7109523 C56.9292816,31.8896941 58.7186537,22.8860649 64.7042719,16.8985504 C70.6898901,10.9110359 79.6929521,9.11881202 87.5152365,12.3576113 C95.337521,15.5964105 100.438514,23.2283866 100.43957,31.69467 C100.426924,43.2486427 91.0656781,52.6128627 79.51171,52.62918 L79.51171,52.62918 Z" id="Shape"></path>
            <path d="M32.70291,22.92414 C27.8578007,22.9255043 23.9311622,26.8543337 23.9325003,31.6994431 C23.9338391,36.5445524 27.8626475,40.4712119 32.7077568,40.4698997 C37.5528662,40.4685868 41.4795466,36.5397994 41.4782603,31.69469 C41.4739397,26.8507655 37.5468361,22.92581 32.70291,22.92414 Z" id="Path"></path>
        </g>
    </g>
</svg>