<svg width="64" height="64" viewBox="0 0 64 64" xmlns="http://www.w3.org/2000/svg">
  <g fill="#000000" fill-rule="nonzero">
    <path d="M45.434 15.1a5.013 5.013 0 10.003 10.026 5.013 5.013 0 00-.003-10.026z"/>
    <path d="M59.646 23.794c.331-1.2.507-2.438.523-3.683a14.524 14.524 0 00-.554-3.782V3.07l-1.54.171c-5.07.56-10.16.934-15.259 1.165a27.526 27.526 0 00-21.51 0c-5.1-.231-10.19-.606-15.258-1.165L4.506 3.07v13.264c-.35 1.23-.535 2.5-.553 3.778.017 1.245.192 2.483.523 3.684C2.15 25.125.294 27.972.192 32.188c-.225 9.333 6.057 18.266 6.057 18.266a25.329 25.329 0 012.78-5.6 27.741 27.741 0 009.158 8.684 1.452 1.452 0 00-1.183.675 1.455 1.455 0 00-1.205-.68h-.392c-.835.012-1.501.698-1.49 1.532v4.813c-.011.834.655 1.52 1.49 1.532h.392c.49-.009.944-.265 1.205-.68.26.415.712.671 1.203.68h.396c.49-.01.942-.264 1.203-.678.26.414.712.67 1.2.678h.397a1.514 1.514 0 001.49-1.532v-4.154a27.045 27.045 0 0018.336 0v4.154c-.01.834.656 1.52 1.49 1.532h.393c.49-.009.942-.264 1.204-.679.261.415.713.67 1.203.68h.397a1.45 1.45 0 001.202-.68c.26.414.712.67 1.202.68h.396a1.51 1.51 0 001.486-1.533v-4.813a1.51 1.51 0 00-1.486-1.532h-.396a1.45 1.45 0 00-1.202.68c-.258-.408-.7-.66-1.182-.675a27.742 27.742 0 009.158-8.684 25.291 25.291 0 012.78 5.6s6.282-8.933 6.058-18.266c-.101-4.216-1.958-7.064-4.286-8.394zm-40.959 8.28c-6.605-.001-11.96-5.356-11.959-11.962 0-6.605 5.355-11.96 11.96-11.96 6.606 0 11.961 5.354 11.962 11.96-.007 6.603-5.359 11.954-11.963 11.962zm13.38 5.791l-5.395-5.395a14.9 14.9 0 005.39-6.254 14.898 14.898 0 005.396 6.258l-5.39 5.391zm13.368-5.791A11.961 11.961 0 1157.394 20.11c-.007 6.603-5.356 11.953-11.959 11.963z"/>
    <path d="M18.687 15.1a5.013 5.013 0 10.003 10.026 5.013 5.013 0 00-.003-10.026z"/>
  </g>
</svg>