<svg width="64" height="64" viewBox="0 0 64 64" xmlns="http://www.w3.org/2000/svg">
  <g fill="none" fill-rule="evenodd">
    <path d="M0 0h64v64H0z"/>
    <path d="M61.66 38.25L55.9 13.17c-.327-1.373-1.571-2.745-2.944-3.143L26.631 1.906c-.327-.128-.718-.128-1.116-.128-1.117 0-2.29.455-3.08 1.116L3.578 20.444c-1.045.918-1.572 2.752-1.245 4.06l6.159 26.852c.327 1.373 1.571 2.752 2.944 3.144l24.618 7.594c.327.128.719.128 1.117.128 1.116 0 2.29-.455 3.079-1.116l20.167-18.724c1.052-.981 1.572-2.752 1.244-4.131zM29.383 7.866l18.07 5.568c.718.199.718.526 0 .718l-9.494 2.162c-.718.199-1.7-.128-2.226-.654l-6.613-7.14c-.59-.583-.462-.846.263-.654zm11.257 32.42c.2.718-.263 1.116-.981.917l-19.513-6.023c-.718-.2-.854-.79-.327-1.309l14.933-13.888c.526-.526 1.116-.327 1.308.391l4.58 19.911zM8.49 22.598L24.342 7.865c.527-.526 1.373-.455 1.899.064l7.922 8.583c.526.526.455 1.372-.064 1.899l-15.85 14.734c-.527.526-1.373.455-1.9-.064l-7.921-8.576c-.527-.59-.455-1.444.064-1.906zm3.87 23.381L8.17 27.577c-.198-.718.129-.853.59-.327l6.614 7.14c.526.526.718 1.57.526 2.29l-2.887 9.3c-.199.719-.526.719-.654 0zm23.174 10.738l-20.693-6.35c-.718-.2-1.117-.981-.917-1.7l3.47-11.136c.199-.718.981-1.116 1.7-.917l20.693 6.35c.718.2 1.116.982.917 1.7L37.234 55.8c-.256.725-.974 1.116-1.7.917zm18.333-15.061l-13.81 12.835c-.526.527-.782.328-.59-.39l2.88-9.302c.199-.718.981-1.444 1.7-1.572l9.493-2.161c.725-.192.853.135.327.59zm1.507-2.745l-11.392 2.617c-.718.199-1.443-.263-1.635-.981l-4.843-21.085c-.2-.718.263-1.443.981-1.635l11.392-2.617c.719-.2 1.444.263 1.636.981l4.843 21.084c.199.783-.256 1.5-.982 1.636z" fill="#000000" fill-rule="nonzero"/>
  </g>
</svg>