<svg width="512" height="512" viewBox="0 0 512 512" xmlns="http://www.w3.org/2000/svg">
  <g fill="none">
    <circle fill="#000000" cx="256" cy="256" r="256"/>
    <path d="M457.433 300.691c-.4 0-.4 0 0 0h-.4c-.398 0-.797 0-.797-.398-.798 0-1.596-.4-2.393-.4-2.792-.398-5.186-.797-7.579-.797-1.197 0-2.393 0-3.989-.399h-.399c-8.376-.798-15.157-1.595-21.539-3.59-2.792-1.196-3.59-2.792-4.388-4.387 0-.4-.399-.4-.399-.798l-5.185-1.596c2.393-18.348 1.596-37.494-2.792-56.241-4.388-18.748-11.966-36.298-22.337-52.253l3.989-3.59v-.798c0-1.994.398-3.989 1.994-5.983 4.786-4.388 10.77-7.978 17.95-12.365 1.196-.798 2.393-1.197 3.59-1.995 2.393-1.196 4.387-2.393 6.78-3.988.4-.4 1.197-.798 1.995-1.596.399-.399.797-.399.797-.798 5.585-4.786 6.781-12.764 2.793-17.95-1.995-2.791-5.585-4.387-9.175-4.387-3.19 0-5.983 1.197-8.775 3.191l-.798.798c-.797.399-1.196 1.197-1.994 1.595-1.994 1.995-3.59 3.59-5.185 5.585-.798.797-1.596 1.994-2.793 2.792-5.584 5.983-10.77 10.77-15.955 14.36-1.196.797-2.393 1.196-3.59 1.196-.797 0-1.595 0-2.393-.399h-.798l-4.786 3.191c-5.186-5.584-10.77-10.37-16.354-15.157-23.933-18.747-53.05-30.315-83.365-33.107l-.4-5.185c-.398-.4-.398-.4-.797-.798-1.197-1.197-2.792-2.393-3.191-5.185-.399-6.383.399-13.562 1.197-21.54v-.399c0-1.196.398-2.792.797-3.988.4-2.394.798-4.787 1.197-7.58v-3.589c0-7.18-5.584-13.163-12.365-13.163-3.191 0-6.382 1.596-8.776 3.989-2.393 2.393-3.59 5.584-3.59 9.174v3.191c0 2.792.4 5.185 1.197 7.579.4 1.196.4 2.393.798 3.988v.4c.798 7.977 1.994 15.157 1.197 21.539-.4 2.792-1.995 3.988-3.191 5.185l-.798.798-.4 5.185c-7.179.798-14.359 1.596-21.538 3.191-30.714 6.781-57.838 22.337-78.978 44.674l-3.989-2.792h-.798c-.797 0-1.595.4-2.393.4-1.197 0-2.393-.4-3.59-1.197-5.185-3.59-10.37-8.776-15.955-14.759-.798-.798-1.595-1.994-2.792-2.792-1.596-1.994-3.191-3.59-5.185-5.584-.4-.4-1.197-.798-1.995-1.596-.399-.399-.798-.399-.798-.798-2.393-1.994-5.584-3.19-8.775-3.19-3.59 0-7.18 1.595-9.174 4.387-3.989 5.185-2.792 13.163 2.792 17.95.399 0 .399.398.798.398.798.4 1.197 1.197 1.994 1.596 2.394 1.595 4.388 2.792 6.781 3.989 1.197.399 2.393 1.196 3.59 1.994 7.18 4.388 13.163 7.978 17.95 12.365 1.994 1.995 1.994 3.989 1.994 5.983v.798l3.989 3.59c-.798 1.197-1.596 1.994-1.995 3.191-19.944 31.511-27.522 68.607-22.337 105.304l-5.185 1.595c0 .399-.4.399-.4.798-.797 1.595-1.993 3.19-4.387 4.388-5.983 1.994-13.163 2.792-21.54 3.59h-.398c-1.197 0-2.792 0-3.989.398-2.393 0-4.786.4-7.578.798-.798 0-1.596.399-2.394.399-.399 0-.797 0-1.196.399-7.18 1.595-11.568 8.376-10.371 14.758 1.197 5.585 6.382 9.174 12.764 9.174 1.197 0 1.994 0 3.191-.398.399 0 .798 0 .798-.4.797 0 1.595-.398 2.393-.398 2.792-.798 4.787-1.596 7.18-2.792 1.196-.4 2.393-1.197 3.59-1.596h.399c7.578-2.792 14.36-5.185 20.741-5.983h.798c2.393 0 3.989 1.197 5.185 1.994.4 0 .4.4.798.4l5.584-.798c9.573 29.516 27.922 55.842 52.253 74.988 5.585 4.388 11.169 7.978 17.152 11.568l-2.393 5.185c0 .4.399.4.399.798.797 1.596 1.595 3.59.797 6.382-2.393 5.983-5.983 11.966-10.37 18.747v.4c-.798 1.196-1.596 1.994-2.394 3.19-1.595 1.995-2.792 3.989-4.387 6.382-.4.4-.798 1.197-1.197 1.995 0 .398-.399.797-.399.797-3.19 6.781-.798 14.36 5.186 17.152 1.595.798 3.19 1.197 4.786 1.197 4.787 0 9.573-3.191 11.966-7.579 0-.399.4-.798.4-.798.398-.798.797-1.595 1.196-1.994 1.196-2.792 1.595-4.787 2.393-7.18l1.197-3.59c2.792-7.977 4.786-14.36 8.376-19.944 1.596-2.393 3.59-2.792 5.186-3.59.398 0 .398 0 .797-.398l2.792-5.186c17.551 6.781 36.697 10.371 55.843 10.371 11.568 0 23.534-1.197 34.703-3.989 7.18-1.595 13.96-3.59 20.741-5.983l2.393 4.388c.4 0 .4 0 .798.399 1.995.398 3.59 1.196 5.186 3.59 3.19 5.584 5.584 12.365 8.376 19.943v.4l1.197 3.59c.797 2.392 1.196 4.786 2.393 7.179.399.798.798 1.196 1.197 1.994 0 .4.398.798.398.798 2.394 4.787 7.18 7.579 11.967 7.579 1.595 0 3.19-.4 4.786-1.197 2.792-1.595 5.186-3.989 5.983-7.18.798-3.19.798-6.78-.797-9.972 0-.399-.4-.399-.4-.797-.398-.798-.797-1.596-1.196-1.995-1.196-2.393-2.792-4.387-4.387-6.382-.798-1.196-1.596-1.994-2.394-3.19v-.4c-4.387-6.78-8.376-12.764-10.37-18.747-.798-2.792 0-4.388.398-6.382 0-.399.4-.399.4-.798l-1.995-4.786c21.14-12.365 39.09-29.916 52.652-51.455 7.18-11.169 12.764-23.534 16.752-35.9l4.787.798c.399 0 .399-.398.798-.398 1.595-.798 2.792-1.995 5.185-1.995h.798c6.382.798 13.163 3.191 20.741 5.983h.4c1.196.4 2.393 1.197 3.59 1.596 2.392 1.196 4.387 1.994 7.179 2.792.798 0 1.596.399 2.393.399.4 0 .798 0 1.197.399 1.197.399 1.994.399 3.19.399 5.984 0 11.17-3.99 12.765-9.175 0-4.786-4.388-11.168-11.567-13.163zm-184.68-19.545l-17.551 8.377-17.55-8.377-4.388-18.747 11.966-15.157h19.545l11.966 15.157-3.989 18.747zm104.106-41.483c3.191 13.562 3.99 27.124 2.793 40.287l-61.029-17.55c-5.584-1.596-8.775-7.18-7.578-12.765.399-1.595 1.196-3.19 2.393-4.387l48.264-43.478c6.781 11.168 11.966 23.933 15.157 37.893zm-34.303-61.826l-52.253 37.096c-4.388 2.792-10.37 1.994-13.96-2.393-1.197-1.197-1.596-2.793-1.995-4.388l-3.59-65.017c27.523 3.191 52.652 15.556 71.798 34.702zM226.882 145.13c4.387-.797 8.376-1.595 12.764-2.393l-3.59 63.82c-.4 5.585-4.787 10.371-10.77 10.371-1.595 0-3.59-.399-4.786-1.196l-53.051-37.894c16.354-16.354 36.697-27.522 59.433-32.708zm-78.58 56.64l47.467 42.282c4.388 3.59 4.787 10.37 1.197 14.758-1.197 1.596-2.792 2.792-4.787 3.191l-61.826 17.95c-2.393-27.124 3.59-54.646 17.95-78.18zm-10.769 108.097l63.422-10.77c5.185-.399 9.972 3.191 11.168 8.376.399 2.394.399 4.388-.399 6.382l-24.331 58.635c-22.337-14.36-40.287-36.297-49.86-62.623zm145.59 79.376c-9.174 1.995-18.348 3.191-27.921 3.191-13.96 0-27.523-2.393-40.287-6.382l31.512-57.04c3.19-3.59 8.376-5.185 12.764-2.791 1.994 1.196 3.59 2.792 4.786 4.387l30.714 55.444c-3.59 1.197-7.579 1.995-11.568 3.191zm77.781-55.444c-9.972 15.955-23.135 28.72-38.292 38.691l-25.13-60.23c-1.196-4.787.799-9.972 5.585-12.365 1.596-.798 3.59-1.197 5.584-1.197l63.82 10.77c-2.393 8.775-6.381 16.753-11.567 24.331z" fill="#FFF"/>
  </g>
</svg>