<svg width="512" height="512" viewBox="0 0 512 512" xmlns="http://www.w3.org/2000/svg">
  <g fill="none">
    <circle fill="#000000" cx="256" cy="256" r="256"/>
    <path d="M302.035 78.453L103.938 389.559l119.456 120.384A258.53 258.53 0 00256 512c131.031 0 239.052-98.448 254.173-225.408L302.035 78.453z" fill-opacity=".1" fill="#000"/>
    <path d="M343.63 203.832c-20.848-18.711-29.607-47.033-25.339-74.719.601-3.896.824-7.917.632-12.024-1.446-30.892-26.905-55.87-57.819-56.766-33.757-.978-61.429 26.095-61.429 59.632 0 5.028.622 9.911 1.793 14.575 6.805 27.099.09 55.757-19.069 76.094-19.231 20.414-31.396 47.828-31.396 78.024 0 69.544 27.064 103.059 65.787 113.618 8.909-3.999 21.829-6.516 36.209-6.516 13.678 0 26.03 2.278 34.871 5.942 47.78-9.578 70.446-32.849 86.26-86.578 12.631-42.914-6.951-90.148-30.5-111.282z" fill="#121212"/>
    <path d="M343.63 203.832c-20.848-18.711-29.607-47.033-25.339-74.719.601-3.896.824-7.917.632-12.024-1.446-30.892-26.905-55.87-57.819-56.766a60.237 60.237 0 00-8.104.326V395.75c15.921 0 30.055 3.083 38.933 7.85 45.206-7.048 66.827-36.262 82.197-88.486 12.631-42.914-6.951-90.148-30.5-111.282z" fill-opacity=".1" fill="#EDEDED"/>
    <path d="M176.289 302.745c0-45.34 36.325-150.337 81.134-150.337s81.134 105.528 81.134 150.337c0 44.809-36.325 81.134-81.134 81.134s-81.134-36.325-81.134-81.134z" fill="#F4F4F4"/>
    <path d="M257.424 152.408c-1.484 0-2.959.123-4.424.347v230.999c1.465.079 2.939.125 4.424.125 44.809 0 81.134-36.325 81.134-81.134s-36.325-150.337-81.134-150.337z" fill-opacity=".1" fill="#0E0E0E"/>
    <ellipse fill="#E6E6E6" cx="227.5" cy="129.5" rx="13.363" ry="18.14"/>
    <ellipse fill="#000F00" cx="227.5" cy="133.62" rx="6.627" ry="11.759"/>
    <ellipse fill="#E6E6E6" cx="275.08" cy="129.5" rx="13.363" ry="18.14"/>
    <ellipse fill="#000C00" cx="275.08" cy="133.62" rx="6.627" ry="11.759"/>
    <path d="M292.98 160.521c4.364 9.307-28.874 26.965-40.448 26.965-14.437 0-44.586-21.338-40.448-26.965 7.721-10.5 24.579-27.442 38.419-27.442 9.971 0 39.511 21.118 42.477 27.442z" fill="#FE9A0F"/>
    <path d="M292.979 160.521c-2.749-5.861-28.312-24.418-39.979-27.105v54.049c11.962-.44 44.288-17.756 39.979-26.944z" fill="#E2810C"/>
    <path d="M343.568 305.75c5.898 11.393 14.67 22.153 25.984 24.644 8.344 1.837 14.655 8.937 15.586 17.43.129 1.179.304 2.361.527 3.546a46.06 46.06 0 009.252 20.267c6.831 8.576 1.907 21.367-8.865 23.408l-85.065 16.121c-18.529 3.512-32.467-16.577-22.691-32.704l46.968-73.639c4.396-6.894 14.546-6.335 18.304.927z" fill="#DD7F10"/>
    <path d="M252.394 182.211c-12.088 0-24.417-5.908-36.711-17.607l4.136-4.347c12.257 11.662 24.291 16.972 35.759 15.79 15.831-1.635 25.361-15.185 25.455-15.321l4.938 3.41c-.45.651-11.226 15.964-29.776 17.879a36.89 36.89 0 01-3.801.196z" fill="#AE4E32"/>
    <path d="M255.577 176.047c-.855.088-1.715.128-2.577.144v6.004a36.996 36.996 0 003.192-.18c18.551-1.915 29.326-17.229 29.776-17.879l-4.938-3.41c-.092.136-9.623 13.686-25.453 15.321z" fill="#9E402B"/>
    <circle fill="#121212" cx="355.14" cy="318.86" r="27.25"/>
    <path d="M171 289s29.119 35.5 49.869 43.5S211 363.727 183 346.113C155 328.5 171 289 171 289z" fill="#333"/>
    <path d="M155.35 305.75c-5.898 11.393-14.67 22.153-25.984 24.644-8.344 1.837-14.655 8.937-15.586 17.43a47.03 47.03 0 01-.526 3.546 46.06 46.06 0 01-9.252 20.267c-6.831 8.576-1.907 21.367 8.865 23.408l85.065 16.121c18.529 3.512 32.467-16.577 22.691-32.704l-46.968-73.639c-4.397-6.894-14.547-6.335-18.305.927z" fill="#FE9B0E"/>
  </g>
</svg>