<svg width="64" height="64" viewBox="0 0 64 64" xmlns="http://www.w3.org/2000/svg">
  <path d="M23.071 10.033c.039.36.08.72.124 1.079l16.256.449.018-.266v.005l.028-.47.025-.475.012-.236-5.76-3.325a5.093 5.093 0 00-5.093 0l-5.61 3.239zm1.135 7.104l14.644.477.031-.222v.006l.024-.183a57.838 57.838 0 00.079-.63l.036-.278.048-.38a67.369 67.369 0 00.275-2.833l-15.81.436c.19 1.206.411 2.408.672 3.601l.001.006zm1.755 5.967l11.854.444c.082-.349.153-.7.218-1.052.01-.062.012-.061.026-.126l.052-.258c.052-.268.1-.536.146-.806.007-.045.017-.091.025-.137.01-.047.017-.094.026-.142.034-.191.068-.383.099-.575l.061-.398.063-.354c.031-.186.062-.372.09-.559l-13.813.45c.136.496.281.99.437 1.48.216.685.453 1.365.716 2.033zm7.437 7.233l.021-.005c.296-.065.577-.187.838-.34.212-.124.41-.27.597-.432a5.018 5.018 0 00.746-.801l.082-.113a7.336 7.336 0 00.512-.79l.036-.06.037-.06a9.621 9.621 0 00.657-1.336l.104-.251a12.833 12.833 0 00.379-1.095l-10.374.389c.158.295.325.585.502.87.325.523.684 1.027 1.09 1.49.56.64 1.218 1.214 1.991 1.579a4.353 4.353 0 00.9.31c.07.016.141.03.211.045a8.304 8.304 0 01.537.143 7.218 7.218 0 011.134.457zm-9.526 13.59l13.584-.483a44.238 44.238 0 00-.443-1.504 33.627 33.627 0 00-.806-2.29l-11.467-.497-.06.248c-.091.396-.17.794-.24 1.194l-.058.294c-.056.293-.109.588-.155.884l-.04.219a31.337 31.337 0 00-.166 1.03l-.056.322c-.032.194-.063.389-.093.584zm-.725 6.042l15.62-.48a68.691 68.691 0 00-.698-3.578l-14.414-.513c-.052.369-.1.738-.144 1.108l-.04.31a65.898 65.898 0 00-.324 3.153zm-3.628 1.56c.028-.338.057-.676.089-1.014l.027-.255.026-.236a71.273 71.273 0 01.541-3.895l.022-.128c.127-.681.266-1.36.42-2.037l.068-.27a54.205 54.205 0 01.318-1.184c.016-.06.032-.12.05-.178.13-.408.268-.813.41-1.218l.03-.08c.15-.394.308-.786.472-1.175l.015-.035a29.023 29.023 0 011.052-2.084l.034-.06a22.706 22.706 0 011.047-1.592c.04-.056.08-.112.122-.167.367-.476.757-.935 1.181-1.361l.061-.057.056-.05a11.983 11.983 0 01.683-.568c.038-.03.078-.057.117-.084l.153-.105a8.16 8.16 0 01.876-.515c.144-.07.29-.135.438-.193.204-.08.413-.148.626-.2.148-.036.297-.063.448-.079.095-.01.19-.015.285-.01h.005l.022.025-.023.02c-.016 0-.03.002-.047.003a2.595 2.595 0 00-.927.298c-.228.122-.44.27-.639.437a4.77 4.77 0 00-.789.849l-.043.06a7.07 7.07 0 00-.508.792c-.01.02-.024.04-.036.059l-.035.06a9.468 9.468 0 00-.646 1.343l-.07.174a11.977 11.977 0 00-.304.863l9.957-.432a14.691 14.691 0 00-.826-1.362 9.822 9.822 0 00-.944-1.182c-.476-.503-1.025-.953-1.658-1.243a3.76 3.76 0 00-.561-.205c-.124-.034-.25-.06-.375-.086l-.137-.033a7.814 7.814 0 01-1.318-.447 8.157 8.157 0 01-.796-.403 8.849 8.849 0 01-.577-.364c-1.19-.815-2.17-1.902-2.983-3.085a17.658 17.658 0 01-.818-1.316c-.2-.353-.389-.712-.568-1.076a25.66 25.66 0 01-.633-1.388 31.864 31.864 0 01-.736-1.927c-.292-.84-.552-1.69-.789-2.548a53.561 53.561 0 01-.81-3.389 67.702 67.702 0 01-.863-5.223l-8.872 5.122a5.092 5.092 0 00-2.546 4.41v20.602c0 1.82.97 3.5 2.546 4.41l8.68 5.012zm23.18.137l8.917-5.148a5.093 5.093 0 002.546-4.41V21.504c0-1.82-.97-3.5-2.546-4.41l-8.695-5.02a69.74 69.74 0 01-.035.414l-.007.082a65.978 65.978 0 01-.609 4.52l-.055.29c-.084.432-.172.864-.266 1.295-.033.15-.065.299-.1.448a31.218 31.218 0 01-.154.596c-.087.33-.179.657-.273.985l-.015.05c-.142.435-.29.867-.446 1.297-.018.05-.039.1-.059.15l-.112.28c-.105.261-.213.52-.325.779l-.072.15-.06.126a30.027 30.027 0 01-.951 1.819l-.021.037a23.329 23.329 0 01-1.065 1.583c-.04.054-.08.109-.121.161-.372.47-.764.925-1.19 1.347-.02.02-.043.038-.064.056a12.179 12.179 0 01-.705.588l-.052.039c-.35.25-.713.48-1.095.68a6.013 6.013 0 01-.765.332 4.555 4.555 0 01-.572.163c-.08.017-.159.032-.24.043a8.059 8.059 0 01.677.394c1.184.767 2.158 1.823 2.965 2.974a16.337 16.337 0 01.867 1.373c.203.355.395.717.577 1.083.23.462.444.93.646 1.405.274.645.526 1.3.759 1.96.32.908.605 1.83.863 2.757.336 1.203.626 2.419.884 3.64a76.613 76.613 0 01.97 5.695zM22.916 53.49l5.766 3.329c1.576.91 3.517.91 5.093 0l5.575-3.22a82.299 82.299 0 00-.209-1.652l-16.103-.493a91.364 91.364 0 00-.122 2.036zM42.378 5.65l14.53 8.39a5.093 5.093 0 012.547 4.41v26.713c0 1.82-.97 3.5-2.547 4.41L33.774 62.93a5.092 5.092 0 01-5.093 0L5.547 49.573A5.093 5.093 0 013 45.163V18.45c0-1.82.97-3.501 2.547-4.41C10.91 10.941 23.317 3.78 28.68.681a5.093 5.093 0 015.093 0l8.277 4.78.094.021c.091.065.168.119.233.167z" fill="#DB0A5B" fill-rule="nonzero"/>
</svg>