<svg width="64" height="64" viewBox="0 0 64 64" xmlns="http://www.w3.org/2000/svg">
  <path d="M54.628 0H8.754A5.73 5.73 0 003 5.754v52.428a5.73 5.73 0 005.754 5.754h45.874a5.73 5.73 0 005.755-5.754V5.754A5.73 5.73 0 0054.628 0zm2.558 58.182a2.525 2.525 0 01-2.558 2.557H8.754a2.525 2.525 0 01-2.557-2.557V5.754a2.525 2.525 0 012.557-2.557h45.874a2.525 2.525 0 012.558 2.557v52.428zm-39.8-3.836l7.192-6.394-7.192-6.394v12.788zM43.28 28.452c-1.279-1.28-3.677-2.878-7.673-2.878-4.315 0-8.79 1.12-11.988 2.238V9.59h-6.233v27.653l4.475-2.078s7.353-3.357 13.746-3.357c3.197 0 3.996 1.758 3.996 3.357v19.18h6.394v-19.18c0-.48 0-3.996-2.717-6.713zm-8.472-8.472h6.394c2.877-3.357 4.315-6.713 4.795-10.39h-6.394c-.639 3.677-2.237 7.033-4.795 10.39z" fill="#000000" fill-rule="nonzero"/>
</svg>