<?xml version="1.0" encoding="UTF-8"?>
<svg width="64px" height="64px" viewBox="0 0 64 64" version="1.1" xmlns="http://www.w3.org/2000/svg" xmlns:xlink="http://www.w3.org/1999/xlink">
    <!-- Generator: Sketch 64 (93537) - https://sketch.com -->
    <title>Icon</title>
    <desc>Created with Sketch.</desc>
    <g id="Icon" stroke="none" stroke-width="1" fill="none" fill-rule="evenodd">
        <g id="logplex" transform="translate(3.000000, 0.000000)" fill="#000000" fill-rule="nonzero">
            <path d="M51.6283716,0 L5.75424575,0 C2.55744256,0 0,2.55744256 0,5.75424575 L0,58.1818182 C0,61.3786214 2.55744256,63.9360639 5.75424575,63.9360639 L51.6283716,63.9360639 C54.8251748,63.9360639 57.3826174,61.3786214 57.3826174,58.1818182 L57.3826174,5.75424575 C57.3826174,2.55744256 54.8251748,0 51.6283716,0 Z M54.1858142,58.1818182 C54.1858142,59.6203796 53.0669331,60.7392607 51.6283716,60.7392607 L5.75424575,60.7392607 C4.31568432,60.7392607 3.1968032,59.6203796 3.1968032,58.1818182 L3.1968032,5.75424575 C3.1968032,4.31568432 4.31568432,3.1968032 5.75424575,3.1968032 L51.6283716,3.1968032 C53.0669331,3.1968032 54.1858142,4.31568432 54.1858142,5.75424575 L54.1858142,58.1818182 Z M14.3856144,54.3456543 L21.5784216,47.952048 L14.3856144,41.5584416 L14.3856144,54.3456543 Z M40.2797203,28.4515485 C39.000999,27.1728272 36.6033966,25.5744256 32.6073926,25.5744256 C28.2917083,25.5744256 23.8161838,26.6933067 20.6193806,27.8121878 L20.6193806,9.59040959 L14.3856144,9.59040959 L14.3856144,37.2427572 L18.8611389,35.1648352 C18.8611389,35.1648352 26.2137862,31.8081918 32.6073926,31.8081918 C35.8041958,31.8081918 36.6033966,33.5664336 36.6033966,35.1648352 L36.6033966,54.3456543 L42.997003,54.3456543 L42.997003,35.1648352 C42.997003,34.6853147 42.997003,31.1688312 40.2797203,28.4515485 Z M31.8081918,19.98002 L38.2017982,19.98002 C41.0789211,16.6233766 42.5174825,13.2667333 42.997003,9.59040959 L36.6033966,9.59040959 C35.964036,13.2667333 34.3656344,16.6233766 31.8081918,19.98002 Z" id="logo"></path>
        </g>
    </g>
</svg>