<?xml version="1.0" encoding="UTF-8"?>
<svg width="64px" height="64px" viewBox="0 0 64 64" version="1.1" xmlns="http://www.w3.org/2000/svg" xmlns:xlink="http://www.w3.org/1999/xlink">
    <!-- Generator: Sketch 63.1 (92452) - https://sketch.com -->
    <title>Icon</title>
    <desc>Created with Sketch.</desc>
    <defs>
        <linearGradient x1="7299.87913%" y1="36256.5306%" x2="428.581596%" y2="1952.52231%" id="lokiGradient-1">
            <stop stop-color="#F9EC1C" offset="0%"></stop>
            <stop stop-color="#F05A2B" offset="100%"></stop>
        </linearGradient>
        <linearGradient x1="101.768778%" y1="309.444414%" x2="-151.781231%" y2="-961.074776%" id="lokiGradient-2">
            <stop stop-color="#F9EC1C" offset="0%"></stop>
            <stop stop-color="#F05A2B" offset="100%"></stop>
        </linearGradient>
        <linearGradient x1="70.3205688%" y1="91.4612826%" x2="3.99528401%" y2="-43.7353422%" id="lokiGradient-3">
            <stop stop-color="#F9EC1C" offset="0%"></stop>
            <stop stop-color="#F05A2B" offset="100%"></stop>
        </linearGradient>
        <linearGradient x1="128.083548%" y1="438.252519%" x2="-126.409026%" y2="-827.561044%" id="lokiGradient-4">
            <stop stop-color="#F9EC1C" offset="0%"></stop>
            <stop stop-color="#F05A2B" offset="100%"></stop>
        </linearGradient>
        <linearGradient x1="101.966469%" y1="308.516577%" x2="-152.526105%" y2="-957.296986%" id="lokiGradient-5">
            <stop stop-color="#F9EC1C" offset="0%"></stop>
            <stop stop-color="#F05A2B" offset="100%"></stop>
        </linearGradient>
        <linearGradient x1="128.072338%" y1="438.186526%" x2="-126.420236%" y2="-827.627037%" id="lokiGradient-6">
            <stop stop-color="#F9EC1C" offset="0%"></stop>
            <stop stop-color="#F05A2B" offset="100%"></stop>
        </linearGradient>
        <linearGradient x1="63.563812%" y1="77.6279133%" x2="-2.76147275%" y2="-57.5687116%" id="lokiGradient-7">
            <stop stop-color="#F9EC1C" offset="0%"></stop>
            <stop stop-color="#F05A2B" offset="100%"></stop>
        </linearGradient>
        <linearGradient x1="101.779946%" y1="309.510652%" x2="-151.770063%" y2="-961.008538%" id="lokiGradient-8">
            <stop stop-color="#F9EC1C" offset="0%"></stop>
            <stop stop-color="#F05A2B" offset="100%"></stop>
        </linearGradient>
        <linearGradient x1="127.788404%" y1="439.662791%" x2="-125.761605%" y2="-830.856399%" id="lokiGradient-9">
            <stop stop-color="#F9EC1C" offset="0%"></stop>
            <stop stop-color="#F05A2B" offset="100%"></stop>
        </linearGradient>
        <linearGradient x1="55.8650899%" y1="166.897573%" x2="46.8739074%" y2="-12.2567841%" id="lokiGradient-10">
            <stop stop-color="#F9EC1C" offset="0%"></stop>
            <stop stop-color="#F05A2B" offset="100%"></stop>
        </linearGradient>
        <linearGradient x1="55.7869857%" y1="166.990329%" x2="46.9181108%" y2="-12.3254538%" id="lokiGradient-11">
            <stop stop-color="#F9EC1C" offset="0%"></stop>
            <stop stop-color="#F05A2B" offset="100%"></stop>
        </linearGradient>
        <linearGradient x1="55.6730003%" y1="167.162429%" x2="46.9811582%" y2="-12.3885225%" id="lokiGradient-12">
            <stop stop-color="#F9EC1C" offset="0%"></stop>
            <stop stop-color="#F05A2B" offset="100%"></stop>
        </linearGradient>
        <linearGradient x1="55.7411652%" y1="167.045482%" x2="46.9442363%" y2="-12.3134164%" id="lokiGradient-13">
            <stop stop-color="#F9EC1C" offset="0%"></stop>
            <stop stop-color="#F05A2B" offset="100%"></stop>
        </linearGradient>
        <linearGradient x1="55.9595494%" y1="166.789239%" x2="46.8265318%" y2="-12.1751193%" id="lokiGradient-14">
            <stop stop-color="#F9EC1C" offset="0%"></stop>
            <stop stop-color="#F05A2B" offset="100%"></stop>
        </linearGradient>
        <linearGradient x1="55.9094441%" y1="166.851585%" x2="46.8535751%" y2="-12.2384033%" id="lokiGradient-15">
            <stop stop-color="#F9EC1C" offset="0%"></stop>
            <stop stop-color="#F05A2B" offset="100%"></stop>
        </linearGradient>
    </defs>
    <g id="Icon" stroke="none" stroke-width="1" fill="none" fill-rule="evenodd">
        <g id="loki-logo" transform="translate(5.000000, 0.000000)" fill-rule="nonzero">
            <polygon id="Path" fill="url(#lokiGradient-1)" points="10.3609121 0.3752443 10.3192182 0.18762215 10.152443 0.229315961"></polygon>
            <polygon id="Path" fill="url(#lokiGradient-2)" points="14.3218241 58.2254072 9.65211726 59.1635179 10.590228 63.8540717 15.2599349 62.9159609"></polygon>
            <polygon id="Path" fill="url(#lokiGradient-3)" points="31.1035831 52.1172638 51.7628664 47.9687296 50.8247557 43.2990228 30.1654723 47.4267101"></polygon>
            <polygon id="Path" fill="url(#lokiGradient-4)" points="22.8273616 48.9068404 23.7654723 53.5765472 28.4560261 52.6384365 27.5179153 47.9687296"></polygon>
            <polygon id="Path" fill="url(#lokiGradient-5)" points="22.5980456 61.4358306 21.6599349 56.7661238 16.9693811 57.7042345 17.9074919 62.3739414"></polygon>
            <polygon id="Path" fill="url(#lokiGradient-6)" points="9.11009772 56.5159609 13.8006515 55.5778502 12.8625407 50.9081433 8.17198697 51.8462541"></polygon>
            <polygon id="Path" fill="url(#lokiGradient-7)" points="52.2840391 50.6162866 31.6247557 54.7648208 32.5628664 59.4345277 53.2221498 55.3068404"></polygon>
            <polygon id="Path" fill="url(#lokiGradient-8)" points="24.3074919 56.2241042 25.2456026 60.914658 29.9153094 59.9765472 28.9771987 55.2859935"></polygon>
            <polygon id="Path" fill="url(#lokiGradient-9)" points="16.4482085 55.0566775 21.1179153 54.1185668 20.1798046 49.428013 15.5100977 50.3661238"></polygon>
            <polygon id="Path" fill="url(#lokiGradient-10)" points="7.65081433 49.1986971 9.63127036 48.8026059 2.12638436 11.3407166 0.145928339 11.7368078"></polygon>
            <polygon id="Path" fill="url(#lokiGradient-11)" points="10.3609121 48.6566775 12.3413681 48.2605863 4.29446254 8.04690554 2.31400651 8.44299674"></polygon>
            <polygon id="Path" fill="url(#lokiGradient-12)" points="15.009772 47.7185668 16.990228 47.3224756 7.77589577 1.39674267 5.79543974 1.79283388"></polygon>
            <polygon id="Path" fill="url(#lokiGradient-13)" points="17.7198697 47.1765472 19.7003257 46.780456 11.257329 4.60716612 9.27687296 5.00325733"></polygon>
            <polygon id="Path" fill="url(#lokiGradient-14)" points="22.3061889 46.2592834 24.286645 45.8631922 17.3654723 11.3198697 15.3850163 11.7159609"></polygon>
            <polygon id="Path" fill="url(#lokiGradient-15)" points="25.0162866 45.7172638 26.9967427 45.3211726 19.8254072 9.46449511 17.8449511 9.86058632"></polygon>
        </g>
    </g>
</svg>
