<?xml version="1.0" encoding="UTF-8"?>
<svg width="64px" height="64px" viewBox="0 0 64 64" version="1.1" xmlns="http://www.w3.org/2000/svg" xmlns:xlink="http://www.w3.org/1999/xlink">
    <!-- Generator: Sketch 63.1 (92452) - https://sketch.com -->
    <title>Icon</title>
    <desc>Created with Sketch.</desc>
    <g id="Icon" stroke="none" stroke-width="1" fill="none" fill-rule="evenodd" stroke-linecap="round" stroke-linejoin="round">
        <g id="13_papertrail-icon.d1c108acd9" transform="translate(0.000000, 6.000000)" fill="#F99D1E" fill-rule="nonzero">
            <g id="A-link" transform="translate(0.492308, 0.492308)">
                <g id="A">
                    <path d="M30.0012308,23.7312 L21.3632,26.0352 C15.4269538,20.6788923 7.95076923,17.3233231 0,16.4765538 C11.7367422,8.04183641 25.8156404,3.48507629 40.2688,3.4432 L35.3201231,7.99212308 C35.3201231,7.99212308 56.3761231,7.25366154 61.6635077,0 C61.5256615,0.751261538 61.2992,1.48381538 60.9870769,2.18289231 C59.5180111,6.44485199 56.8624287,10.1986718 53.3326769,13.0028308 C50.0079951,15.5635944 46.3330426,17.6340089 42.4201846,19.1507692 C38.5555692,20.8324923 34.5924923,22.2798769 30.5555692,23.4850462 L30.0022154,23.4850462 M63.0153846,22.7780923 C49.603002,22.2229146 36.1961089,24.0016384 23.3924923,28.0349538 C26.0879698,30.8420208 28.3376393,34.0453509 30.0632615,37.5335385 C40.7296,31.6297846 55.3924923,24.0679385 62.9858462,23.0340923 M31.5076923,40.5464615 C32.7661188,43.7710021 33.5729287,47.1539711 33.9052308,50.5993846 L52.3490462,31.5716923 L31.5076923,40.5464615 Z" id="Shape"></path>
                </g>
            </g>
            <g id="A">
                <path d="M30.0012308,23.7312 L21.3632,26.0352 C15.4269538,20.6788923 7.95076923,17.3233231 0,16.4765538 C11.7367422,8.04183641 25.8156404,3.48507629 40.2688,3.4432 L35.3201231,7.99212308 C35.3201231,7.99212308 56.3761231,7.25366154 61.6635077,0 C61.5256615,0.751261538 61.2992,1.48381538 60.9870769,2.18289231 C59.5180111,6.44485199 56.8624287,10.1986718 53.3326769,13.0028308 C50.0079951,15.5635944 46.3330426,17.6340089 42.4201846,19.1507692 C38.5555692,20.8324923 34.5924923,22.2798769 30.5555692,23.4850462 L30.0022154,23.4850462 M63.0153846,22.7780923 C49.603002,22.2229146 36.1961089,24.0016384 23.3924923,28.0349538 C26.0879698,30.8420208 28.3376393,34.0453509 30.0632615,37.5335385 C40.7296,31.6297846 55.3924923,24.0679385 62.9858462,23.0340923 M31.5076923,40.5464615 C32.7661188,43.7710021 33.5729287,47.1539711 33.9052308,50.5993846 L52.3490462,31.5716923 L31.5076923,40.5464615 Z" id="Shape"></path>
            </g>
        </g>
    </g>
</svg>