<svg width="64" height="64" viewBox="0 0 64 64" xmlns="http://www.w3.org/2000/svg">
  <path d="M31.852.328C14.452.328.345 14.433.345 31.836c0 17.402 14.107 31.507 31.507 31.507 17.4 0 31.508-14.106 31.508-31.507C63.36 14.434 49.252.328 31.852.328zm0 58.968c-4.95 0-8.965-3.308-8.965-7.384h17.92c0 4.078-4.014 7.384-8.965 7.384h.01zm14.819-9.829H17.044v-5.37H46.67v5.37zm-.107-8.133H17.13l-.292-.339c-3.033-3.682-3.746-5.612-4.439-7.561-.012-.065 3.677.754 6.292 1.342 0 0 1.346.31 3.312.67-1.888-2.216-3.01-5.03-3.01-7.907 0-6.317 4.845-11.835 3.097-16.296 1.701.138 3.52 3.59 3.643 8.986 1.809-2.499 2.565-7.062 2.565-9.86 0-2.897 1.91-6.262 3.818-6.377-1.703 2.806.441 5.208 2.346 11.175.714 2.241.623 6.012 1.174 8.404.183-4.968 1.037-12.214 4.189-14.716-1.39 3.15.207 7.094 1.297 8.99 1.763 3.057 2.83 5.375 2.83 9.747 0 2.938-1.086 5.704-2.915 7.877 2.08-.391 3.517-.743 3.517-.743l6.756-1.319c0-.001-.981 4.037-4.753 7.926l.008.001z" fill="#DA4E31" fill-rule="nonzero"/>
</svg>