<svg width="64" height="64" viewBox="0 0 64 64" xmlns="http://www.w3.org/2000/svg">
  <path d="M64 23.405H48.357C44.129 15.295 39.659 9 33.574 9c-7.922 0-11.646 6.914-15.245 13.64l-.315.587H0v3.997h10.492c3.703 0 4.459 1.249 4.459 1.249-2.906 4.511-6.4 8.97-12.223 8.97H0v4.197h2.749c11.289 0 16.22-9.16 20.176-16.514 3.63-6.778 6.158-10.88 10.649-10.88 4.658 0 9.558 10.135 13.87 19.084.63 1.301 1.27 2.634 1.92 3.956-16.535.524-24.414 4.396-30.825 7.554-4.69 2.308-8.393 5.172-14.49 5.172H0v4.197h4.018c7.345 0 11.919-2.266 16.787-4.669 6.746-3.315 14.395-7.071 32.42-7.071h10.418v-4.197h-5.886a3.148 3.148 0 11-1.049 0c-2.57-3.042-3.578-5.14-4.564-7.24l-1.364-2.79s.976-1.05 3.683-1.05H64v-3.787z" fill="#188FFF" fill-rule="nonzero"/>
</svg>