<svg width="512" height="512" viewBox="0 0 512 512" xmlns="http://www.w3.org/2000/svg">
  <g fill="none">
    <circle fill="#000000" cx="256" cy="256" r="256"/>
    <path d="M511.63 269.75L403.795 161.914c-11.472-12.127-28.483-25.886-50.344-31.899L270.838 47h-29.676v99.584C147.385 86.259 91.087 184.03 91.087 184.03l46.733 47.099c-15.829 7.275-26.823 23.26-26.823 41.822 0 12.502 4.991 23.832 13.085 32.121l19.991 19.768a45.97 45.97 0 00-1.39 11.204c0 12.805 5.236 24.379 13.678 32.718l19.797 19.614a45.99 45.99 0 00-1.789 12.72c0 13.71 6 26.013 15.513 34.444l76.325 76.239c132.081-5.181 238.457-110.414 245.423-242.029z" fill-opacity=".1" fill="#000"/>
    <circle fill="#FF4E0A" cx="220.39" cy="401.1" r="46.02"/>
    <circle fill="#FF2100" cx="291.61" cy="401.1" r="46.02"/>
    <path d="M337.636 401.1c0 25.414-20.606 46.02-46.02 46.02-14.354 0-27.172-6.576-35.616-16.869v-58.303c8.444-10.293 21.262-16.869 35.616-16.869.98 0 1.96.03 2.919.091 24.051 1.506 43.101 21.496 43.101 45.93z" fill="#EB1500"/>
    <g transform="translate(142 290)" fill="#FF2100">
      <circle cx="46.7" cy="46.05" r="46.02"/>
      <circle cx="181.3" cy="46.05" r="46.02"/>
    </g>
    <circle fill="#FF6339" cx="256" cy="330.02" r="46.02"/>
    <path d="M302.02 330.019c0 9.283-2.747 17.929-7.485 25.151-8.212 12.566-22.404 20.869-38.535 20.869v-92.04c17.697 0 33.06 9.99 40.757 24.636 3.364 6.384 5.263 13.667 5.263 21.384z" fill="#FF4E0A"/>
    <circle fill="#FF2100" cx="157.02" cy="272.95" r="46.02"/>
    <g transform="translate(174 216)" fill="#FF4E0A">
      <circle cx="46.39" cy="46.91" r="46.02"/>
      <circle cx="180.98" cy="56.95" r="46.02"/>
    </g>
    <circle fill="#FF2100" cx="291.61" cy="262.91" r="46.02"/>
    <path d="M337.636 262.908c0 23.677-17.879 43.182-40.879 45.727a45.47 45.47 0 01-5.141.293c-14.354 0-27.172-6.566-35.616-16.869v-58.303c8.444-10.303 21.262-16.869 35.616-16.869 1.081 0 2.151.04 3.212.111 23.919 1.648 42.808 21.577 42.808 45.91z" fill="#EB1500"/>
    <g transform="translate(132 152)" fill="#FF2100">
      <circle cx="46.66" cy="46.32" r="46.02"/>
      <circle cx="201.34" cy="46.32" r="46.02"/>
    </g>
    <circle fill="#FF6339" cx="256" cy="192.29" r="46.02"/>
    <path d="M302.02 192.293A45.776 45.776 0 01294.828 217c-8.162 12.808-22.505 21.313-38.828 21.313v-92.04c25.414 0 46.02 20.605 46.02 46.02z" fill="#FF4E0A"/>
    <path fill="#B04B00" d="M241.16 47h29.676v110.24H241.16z"/>
    <path fill="#803400" d="M256 47h14.837v110.24H256z"/>
    <path d="M256 157.235s9.159 35.078 69.546 15.981c38.343-12.126 95.367 10.815 95.367 10.815S358.646 75.883 256 157.235z" fill="#008D44"/>
    <path d="M256 157.235s-9.159 35.078-69.546 15.981c-38.343-12.126-95.367 10.815-95.367 10.815S153.354 75.883 256 157.235z" fill="#00C475"/>
  </g>
</svg>