<?xml version="1.0" encoding="UTF-8"?>
<svg width="64px" height="64px" viewBox="0 0 64 64" version="1.1" xmlns="http://www.w3.org/2000/svg" xmlns:xlink="http://www.w3.org/1999/xlink">
    <!-- Generator: Sketch 63.1 (92452) - https://sketch.com -->
    <title>Icon</title>
    <desc>Created with Sketch.</desc>
    <g id="Icon" stroke="none" stroke-width="1" fill="none" fill-rule="evenodd">
        <g id="sematext" transform="translate(0.000000, 8.000000)">
            <path d="M52.757047,21.1221477 C52.9610738,19.9409396 52.1986577,19.5328859 51.5758389,18.8348993 L51.2966443,18.8993289 C51.0926174,18.9637584 50.8778523,18.8241611 50.8134228,18.695302 L50.4697987,18.0724832 C50.4053691,17.9328859 50.3946309,17.7288591 50.5342282,17.5892617 L50.8134228,17.3100671 C50.8134228,16.8912752 50.8778523,16.4832215 51.0926174,15.9892617 L50.9530201,15.8496644 C50.9208054,15.8174497 50.8993289,15.7852349 50.8885906,15.7530201 C50.3946309,16.6013423 49.6644295,17.3852349 48.633557,18.0187919 C45.7879195,19.7798658 43.9624161,20.252349 42.7597315,20.4134228 C41.7610738,20.8536913 40.8161074,21.1221477 40,21.4442953 C41.5248322,22.2389262 44.4885906,23.4845638 46.6684564,23.538255 C50.8134228,23.6134228 52.4778523,22.6469799 52.757047,21.1221477 L52.757047,21.1221477 Z M2.57718121,54.9798658 C1.90067114,54.9798658 1.31006711,55.2483221 0.783892617,55.7959732 C0.257718121,56.3328859 0,56.9449664 0,57.6107383 C0,57.7610738 0.12885906,57.8469799 0.397315436,57.8469799 C1.48187919,57.8469799 2.7704698,57.7395973 4.28456376,57.514094 C4.71409396,57.4604027 4.91812081,57.3852349 4.91812081,57.2993289 C4.91812081,56.6872483 4.68187919,56.1503356 4.19865772,55.6885906 C3.71543624,55.2161074 3.17852349,54.9798658 2.57718121,54.9798658 L2.57718121,54.9798658 Z M33.4174497,22.6469799 C34.8778523,22.6469799 36.0483221,21.4657718 36.0483221,20.0161074 C36.0483221,18.566443 34.8671141,17.3852349 33.4174497,17.3852349 C31.9677852,17.3852349 30.7865772,18.566443 30.7865772,20.0161074 C30.7865772,21.4657718 31.957047,22.6469799 33.4174497,22.6469799 Z M31.8281879,19.1785235 C31.8281879,19.1785235 33.2885906,20.1449664 34.8778523,19.1785235 C34.8778523,19.1785235 35.2214765,21.1221477 33.3530201,21.1221477 C31.4738255,21.1221477 31.8281879,19.1785235 31.8281879,19.1785235 Z M32.8161074,55.1516779 C31.9355705,55.1516779 31.2053691,55.495302 30.6255034,56.1825503 C30.0563758,56.8375839 29.7771812,57.6107383 29.7771812,58.5127517 C29.7771812,59.3932886 30.0563758,60.166443 30.6255034,60.8214765 C31.2053691,61.4979866 31.9355705,61.8416107 32.8161074,61.8416107 C33.6751678,61.8416107 34.3838926,61.4979866 34.9637584,60.8 C35.5006711,60.1449664 35.7798658,59.3932886 35.7798658,58.5234899 C35.7798658,57.6214765 35.5114094,56.8483221 34.9744966,56.2040268 C34.4161074,55.5060403 33.6966443,55.1516779 32.8161074,55.1516779 Z M52.3919463,54.9798658 C51.7154362,54.9798658 51.1248322,55.2483221 50.5986577,55.7959732 C50.0724832,56.3328859 49.8147651,56.9449664 49.8147651,57.6107383 C49.8147651,57.7610738 49.9436242,57.8469799 50.2120805,57.8469799 C51.2966443,57.8469799 52.5852349,57.7395973 54.0885906,57.514094 C54.5181208,57.4604027 54.7221477,57.3852349 54.7221477,57.2993289 C54.7221477,56.6872483 54.485906,56.1503356 54.0026846,55.6885906 C53.5302013,55.2161074 52.9932886,54.9798658 52.3919463,54.9798658 Z" id="Shape"></path>
            <path d="M40.1395973,36.0912752 C39.9355705,36.0912752 39.7208054,36.0912752 39.5167785,36.1557047 C37.1651007,36.8536913 37.2939597,39.7637584 37.2939597,39.7637584 C37.2939597,39.7637584 38.4751678,38.0993289 39.1624161,38.0993289 C39.7208054,38.0993289 40.0644295,38.9261745 39.6456376,41.7718121 C39.5060403,42.8134228 39.0872483,43.2966443 38.6040268,43.2966443 C35.9731544,43.2966443 29.4550336,30.6147651 29.4550336,28.3919463 C29.4550336,28.1879195 29.5946309,28.1127517 29.7986577,28.1127517 C30.0778523,28.1127517 30.4214765,28.252349 30.9798658,28.4563758 L30.8402685,28.9395973 C30.7758389,29.2187919 30.904698,29.5624161 31.1838926,29.7020134 L31.9463087,29.9812081 C32.0107383,29.9812081 32.085906,30.0456376 32.1503356,30.0456376 C32.2899329,30.0456376 32.4939597,29.9704698 32.633557,29.8416107 L32.9771812,29.4228188 C33.3208054,29.6268456 33.7395973,29.8416107 34.1583893,30.0456376 L34.0187919,30.6040268 C33.9543624,30.8832215 34.0939597,31.2268456 34.3624161,31.366443 L35.1248322,31.6456376 C35.1892617,31.6456376 35.2644295,31.7100671 35.3288591,31.7100671 C35.4684564,31.7100671 35.6724832,31.6348993 35.8120805,31.5060403 L36.1557047,31.1624161 C36.6389262,31.4416107 37.1973154,31.7208054 37.7449664,32.0644295 L37.6053691,32.547651 C37.5409396,32.8268456 37.6697987,33.1704698 37.9489933,33.3100671 L38.7114094,33.5892617 C38.7758389,33.5892617 38.8510067,33.6536913 38.9154362,33.6536913 C39.0550336,33.6536913 39.2590604,33.5892617 39.3986577,33.4496644 L39.6778523,33.1704698 C40.2362416,33.4496644 40.7838926,33.7932886 41.2778523,34.0724832 L41.138255,34.5557047 C41.0738255,34.8348993 41.2026846,35.1785235 41.4818792,35.3181208 L42.2442953,35.5973154 C42.3087248,35.5973154 42.3838926,35.661745 42.4483221,35.661745 C42.5879195,35.661745 42.7919463,35.5973154 42.9315436,35.4577181 L43.2107383,35.1785235 C45.2939597,36.2845638 47.4416107,37.390604 49.4496644,38.2926174 C52.0805369,39.4738255 54.7865772,40.1610738 57.0738255,40.1610738 C60.0483221,40.1610738 62.4107383,38.9798658 62.9691275,35.9302013 C62.9691275,35.8657718 62.9691275,35.7261745 63.033557,35.6510067 L63.3127517,35.5865772 C63.5919463,35.5221477 63.8711409,35.242953 63.8711409,35.0281879 L63.9355705,34.4053691 C64.0751678,34.1261745 63.9355705,33.9865772 63.7315436,33.9221477 L63.3557047,33.9221477 C63.3557047,33.1597315 63.2161074,32.5369128 63.0765101,31.914094 L63.2805369,31.6348993 C63.4845638,31.3557047 63.4845638,31.0120805 63.3449664,30.8724832 L63.0013423,30.3892617 C62.9369128,30.3248322 62.5825503,30.2496644 62.2389262,30.2496644 L62.1744966,30.2496644 C61.7557047,29.6912752 61.2724832,29.2832215 60.7248322,28.9288591 L60.5852349,28.3060403 C60.5208054,28.0268456 60.3060403,27.747651 60.0268456,27.6832215 L59.4040268,27.6187919 C59.2644295,27.6187919 58.9208054,27.8979866 58.7060403,28.1771812 C58.2872483,28.1127517 57.8791946,28.0375839 57.3852349,28.0375839 C55.0979866,28.0375839 52.9503356,29.2187919 52.7463087,31.4308725 C52.6818792,32.3973154 52.6818792,33.5785235 54.6899329,34.7597315 C55.2483221,35.1033557 55.8711409,35.242953 56.4187919,35.242953 C58.0832215,35.242953 59.6080537,34.2013423 59.1892617,32.6765101 C58.9100671,31.495302 58.0832215,31.0872483 57.2456376,31.0872483 C56.6228188,31.0872483 56.0644295,31.366443 55.7852349,31.6456376 C55.3020134,32.3436242 55.6456376,33.1704698 56.1288591,33.1704698 C56.6120805,33.1704698 56.4724832,32.7516779 56.4724832,32.7516779 C56.1932886,32.2684564 56.5369128,32.0536913 57.0308725,32.0536913 C57.4496644,32.0536913 57.9328859,32.2577181 57.9328859,32.8161074 C57.9973154,33.5785235 57.0308725,33.8577181 56.6872483,33.9221477 L56.6228188,33.9221477 C54.4,33.9221477 54.4751678,31.8389262 54.8939597,31.3557047 C55.5167785,30.4536913 56.4187919,30.1100671 57.1812081,30.1100671 C59.1892617,30.1100671 61.0577181,32.2577181 59.8120805,34.8241611 C59.3932886,35.7261745 58.7060403,36.4885906 57.1812081,36.4885906 C56.2791946,36.4885906 55.033557,36.209396 53.3691275,35.4469799 C47.6885906,32.9986577 39.7315436,29.304698 37.809396,25.9114094 C39.0228188,26.2442953 40.8268456,26.6416107 41.4496644,26.8563758 L41.4496644,27.3395973 C41.4496644,27.5436242 41.5892617,27.7583893 41.7932886,27.8228188 L42.5557047,28.1020134 C42.7597315,28.166443 43.0389262,28.1020134 43.1785235,27.8979866 L43.4577181,27.4791946 C44.0161074,27.6187919 44.6389262,27.6832215 45.261745,27.7583893 L45.4657718,28.3812081 C45.5302013,28.5852349 45.7449664,28.7248322 45.9489933,28.7248322 L46.7758389,28.6604027 C46.9798658,28.6604027 47.1946309,28.4563758 47.2590604,28.2416107 L47.3234899,27.8228188 C48.0107383,27.7583893 48.7087248,27.6832215 49.4067114,27.4791946 L49.8899329,27.9624161 C50.0295302,28.1020134 50.3087248,28.166443 50.5127517,28.1020134 L51.2751678,27.7583893 C51.4791946,27.6939597 51.6187919,27.4147651 51.5543624,27.2 L51.4899329,26.6416107 C51.9731544,26.4375839 52.3919463,26.1583893 52.8751678,25.8147651 C58.6308725,22.0026846 55.7208054,18.8134228 53.8416107,17.2885906 C52.0375839,15.7637584 54.1208054,14.3033557 56.3328859,14.3033557 C56.9557047,14.3033557 58.061745,14.3677852 58.7597315,14.442953 C58.8993289,14.442953 58.9637584,14.2389262 58.8241611,14.1637584 C57.095302,13.1973154 55.495302,13.0577181 54.2496644,13.4013423 L54.1100671,13.261745 C53.9704698,13.1221477 53.8308725,13.0577181 53.6268456,13.1221477 L53.0040268,13.4013423 C52.8,13.4657718 52.7248322,13.6805369 52.7248322,13.8201342 L52.7248322,14.0241611 C52.3812081,14.2281879 52.1020134,14.442953 51.8979866,14.7114094 L51.6187919,14.5718121 C51.5221477,14.5395973 51.4469799,14.5503356 51.3825503,14.5932886 C52.7248322,10.7812081 50.5234899,6.21744966 50.5234899,6.21744966 C49.0308725,0.891275168 42.7489933,0.0214765101 38.9691275,3.64290846e-14 L38.9691275,3.64290846e-14 C37.2510067,-0.010738255 36.0483221,0.161073826 36.0483221,0.161073826 C24.1503356,-9.57784199e-16 23.5060403,15.5812081 23.5060403,15.5812081 C22.947651,15.5812081 22.2604027,15.6456376 21.7771812,16 C18.5879195,18.4268456 21.2939597,21.4013423 21.2939597,21.4013423 C21.0469799,21.6053691 20.8322148,21.7986577 20.6174497,22.0026846 C20.4456376,21.7342282 20.2845638,21.390604 20.166443,21.0469799 C16.6979866,20.9825503 15.3127517,20.0805369 15.033557,18.6201342 C14.6899329,16.8912752 15.6563758,14.947651 17.3208054,15.0120805 C19.747651,15.0765101 18.566443,16.6013423 18.2228188,16.6013423 C17.8791946,16.6013423 17.6644295,16.461745 17.5248322,16.3221477 C17.3208054,16.1181208 17.0416107,16.2577181 17.0416107,16.5261745 C17.0416107,17.2241611 17.8040268,18.190604 19.3288591,17.4281879 C20.714094,16.7302013 20.7892617,15.6241611 20.3704698,14.7221477 C19.9516779,13.6161074 19.1248322,13.0577181 18.1583893,12.8536913 L18.0939597,12.6496644 C18.0939597,12.4456376 17.8899329,12.3060403 17.7503356,12.3060403 L17.052349,12.2416107 C16.8483221,12.2416107 16.7087248,12.3167785 16.633557,12.5208054 L16.5691275,12.8644295 C15.9463087,12.9288591 15.3234899,13.0684564 14.8402685,13.2832215 L14.4966443,13.0040268 C14.357047,12.8644295 14.1530201,12.9395973 14.0134228,13.0040268 L13.5302013,13.4228188 C13.390604,13.5624161 13.3261745,13.7020134 13.390604,13.9060403 L13.5302013,14.1852349 C13.1865772,14.5288591 12.7677852,15.0120805 12.4885906,15.5060403 L12.2845638,15.4416107 C12.0805369,15.3771812 11.9409396,15.5060403 11.8013423,15.6456376 L11.5221477,16.2684564 C11.4577181,16.4080537 11.4577181,16.6120805 11.5865772,16.7516779 L11.790604,17.0308725 C11.3073826,18.8993289 11.8657718,21.1865772 14.9798658,23.2697987 C15.3986577,23.5489933 15.7422819,23.7530201 16.085906,23.957047 L15.9463087,24.6550336 C15.8818792,24.8590604 16.0107383,25.138255 16.2255034,25.2134228 L16.9879195,25.557047 C17.1812081,25.6214765 17.3637584,25.6214765 17.557047,25.4604027 C16.2362416,27.4255034 15.6456376,29.1543624 13.1328859,31.8818792 C11.747651,33.4067114 10.147651,34.0939597 8.69798658,34.0939597 C6.41073826,34.0939597 4.54228188,32.2899329 4.74630872,29.6590604 C4.88590604,27.7154362 6.34630872,26.5449664 7.93557047,26.2657718 C8.13959732,26.2013423 8.35436242,26.2013423 8.55838926,26.2013423 C10.2872483,26.2013423 11.1248322,27.6510067 10.4268456,29.0469799 C10.4268456,29.0469799 9.86845638,30.4322148 8.76241611,30.5073826 L8.69798658,30.5073826 C7.65637584,30.5073826 7.79597315,29.3261745 8.13959732,29.0469799 C8.20402685,28.9825503 8.34362416,28.9825503 8.41879195,28.9825503 C8.62281879,28.9825503 8.76241611,29.1221477 8.97718121,29.1221477 C9.04161074,29.1221477 9.11677852,29.1221477 9.18120805,29.0577181 C9.66442953,28.8536913 9.6,28.4348993 9.6,28.4348993 C9.53557047,27.8765101 9.11677852,27.6724832 8.55838926,27.6724832 C8.2147651,27.6724832 7.79597315,27.8120805 7.51677852,27.9516779 C6.47516779,28.5100671 6.19597315,30.0348993 6.89395973,31.0013423 C7.31275168,31.6241611 8,31.9677852 8.83758389,31.9677852 C10.2872483,31.9677852 12.0912752,30.9261745 12.7892617,28.8536913 C13.4872483,26.8456376 11.9624161,23.452349 8.41879195,23.452349 C7.65637584,23.452349 6.8295302,23.5919463 5.92751678,23.9355705 C-1.6966443,26.7060403 1.83624161,39.6026846 8.55838926,39.6026846 C8.90201342,39.6026846 9.18120805,39.6026846 9.52483221,39.538255 C10.9852349,39.2590604 12.295302,38.5718121 13.5409396,37.6697987 L13.6805369,37.809396 C13.8201342,37.9489933 13.9597315,38.0134228 14.0993289,38.0134228 C14.2389262,38.0134228 14.3785235,37.9489933 14.5181208,37.8738255 L15.1409396,37.3154362 C15.3449664,37.1758389 15.4201342,36.8966443 15.3449664,36.6174497 L15.2053691,36.1986577 C15.6885906,35.7798658 16.1073826,35.2966443 16.5261745,34.8778523 L16.7302013,35.0174497 C16.8697987,35.0818792 16.9342282,35.0818792 17.0738255,35.0818792 C17.2778523,35.0818792 17.4174497,35.0174497 17.557047,34.8778523 L18.0402685,34.2550336 C18.1798658,34.0510067 18.2442953,33.7718121 18.104698,33.5677852 L17.9006711,33.2241611 C18.3194631,32.6657718 18.7275168,32.1825503 19.1463087,31.6993289 L19.285906,31.7637584 C19.3503356,31.8281879 19.4899329,31.8281879 19.6295302,31.8281879 C19.833557,31.8281879 19.9731544,31.7637584 20.1127517,31.5489933 L20.5959732,30.9261745 C20.7355705,30.7221477 20.8,30.442953 20.6604027,30.2281879 L20.5208054,29.9489933 C21.2832215,29.0469799 21.9060403,28.4993289 22.3892617,28.4993289 C22.6684564,28.4993289 22.8724832,28.7033557 23.0765101,29.1221477 C23.2161074,29.4013423 23.3557047,29.7449664 23.6348993,30.1637584 L23.5704698,30.2281879 C23.2912752,30.4322148 23.2268456,30.7865772 23.4308725,31.0550336 L23.8496644,31.7530201 C23.9892617,31.957047 24.1932886,32.0322148 24.4080537,32.0322148 L24.6872483,32.0322148 C24.966443,32.5154362 25.2456376,32.9986577 25.5892617,33.557047 C25.3100671,33.7610738 25.2456376,34.1154362 25.4496644,34.3838926 L25.8684564,35.0711409 C26.0080537,35.2751678 26.2120805,35.3503356 26.4268456,35.3503356 L26.566443,35.3503356 L26.7704698,35.285906 C27.0496644,35.7691275 27.3932886,36.252349 27.7369128,36.7355705 L27.6724832,36.8 C27.4684564,37.0040268 27.3932886,37.3583893 27.6080537,37.6268456 L28.0912752,38.2496644 C28.2308725,38.3892617 28.3704698,38.5288591 28.5744966,38.5288591 L28.7785235,38.5288591 L28.9181208,38.4644295 C32.0322148,42.8993289 35.8442953,47.0550336 38.7543624,47.0550336 L38.8939597,47.0550336 C44.0912752,46.8295302 43.8120805,36.0912752 40.1395973,36.0912752 Z M42.7489933,20.4241611 C43.9624161,20.252349 45.7771812,19.790604 48.6228188,18.0295302 C49.6536913,17.3959732 50.3731544,16.6120805 50.8778523,15.7637584 L50.8778523,15.7637584 C50.8993289,15.7959732 50.9208054,15.8389262 50.9422819,15.8604027 L51.0818792,16 C50.8778523,16.4832215 50.8026846,16.9020134 50.8026846,17.3208054 L50.5234899,17.6 C50.3838926,17.7395973 50.3838926,17.9436242 50.4590604,18.0832215 L50.8026846,18.7060403 C50.8671141,18.8456376 51.0818792,18.9852349 51.285906,18.9100671 L51.5651007,18.8456376 C52.1879195,19.5436242 52.9503356,19.9516779 52.7463087,21.1328859 C52.4671141,22.6577181 50.8026846,23.6241611 46.6469799,23.5597315 C44.4671141,23.5060403 41.5033557,22.2604027 39.9785235,21.4657718 C40.8053691,21.1328859 41.7503356,20.8644295 42.7489933,20.4241611 L42.7489933,20.4241611 Z M33.4174497,17.3852349 C34.8778523,17.3852349 36.0483221,18.566443 36.0483221,20.0161074 C36.0483221,21.4657718 34.8671141,22.6469799 33.4174497,22.6469799 C31.957047,22.6469799 30.7865772,21.4657718 30.7865772,20.0161074 C30.7865772,18.566443 31.957047,17.3852349 33.4174497,17.3852349 Z" id="Shape" fill="#1074BF" fill-rule="nonzero"></path>
            <path d="M33.3530201,21.1221477 C35.2214765,21.1221477 34.8778523,19.1785235 34.8778523,19.1785235 C33.2885906,20.1449664 31.8281879,19.1785235 31.8281879,19.1785235 C31.8281879,19.1785235 31.4738255,21.1221477 33.3530201,21.1221477 Z" id="Path" fill="#1074BF" fill-rule="nonzero"></path>
        </g>
    </g>
</svg>