<svg width="64" height="64" viewBox="0 0 64 64" xmlns="http://www.w3.org/2000/svg">
  <g fill="none" fill-rule="evenodd">
    <path d="M52.757 29.122c.204-1.181-.558-1.59-1.181-2.287l-.28.064c-.203.065-.418-.075-.483-.204l-.343-.623c-.065-.14-.075-.343.064-.483l.28-.279c0-.419.064-.827.279-1.32l-.14-.14a.254.254 0 01-.064-.097c-.494.848-1.225 1.632-2.255 2.266-2.846 1.76-4.672 2.233-5.874 2.394-.999.44-1.944.71-2.76 1.031 1.525.795 4.489 2.04 6.668 2.094 4.145.075 5.81-.891 6.089-2.416zM2.577 62.98c-.676 0-1.267.268-1.793.816C.258 64.333 0 64.945 0 65.611c0 .15.129.236.397.236 1.085 0 2.373-.107 3.888-.333.43-.054.633-.129.633-.215 0-.612-.236-1.149-.72-1.61-.483-.473-1.02-.71-1.62-.71zm30.84-32.333c1.46 0 2.631-1.181 2.631-2.63 0-1.45-1.18-2.632-2.63-2.632a2.635 2.635 0 00-2.631 2.631c0 1.45 1.17 2.631 2.63 2.631zm-1.589-3.468s1.46.966 3.05 0c0 0 .343 1.943-1.525 1.943-1.88 0-1.525-1.943-1.525-1.943zm.988 35.973c-.88 0-1.61.343-2.19 1.03-.57.656-.849 1.429-.849 2.33 0 .881.28 1.654.849 2.31.58.676 1.31 1.02 2.19 1.02.86 0 1.568-.344 2.148-1.042a3.482 3.482 0 00.816-2.277c0-.902-.269-1.675-.806-2.319-.558-.698-1.277-1.052-2.158-1.052zm19.576-.172c-.677 0-1.267.268-1.793.816-.527.537-.784 1.149-.784 1.815 0 .15.129.236.397.236 1.085 0 2.373-.107 3.877-.333.43-.054.633-.129.633-.215 0-.612-.236-1.149-.72-1.61-.472-.473-1.009-.71-1.61-.71z"/>
    <path d="M40.14 44.091c-.204 0-.42 0-.623.065-2.352.698-2.223 3.608-2.223 3.608s1.181-1.665 1.868-1.665c.559 0 .902.827.484 3.673-.14 1.041-.559 1.525-1.042 1.525-2.63 0-9.149-12.682-9.149-14.905 0-.204.14-.28.344-.28.279 0 .622.14 1.18.344l-.139.484c-.064.279.065.622.344.762l.762.28c.065 0 .14.064.204.064.14 0 .344-.076.484-.204l.343-.42c.344.205.763.42 1.181.624l-.14.558c-.064.28.076.623.344.762l.763.28c.064 0 .14.064.204.064.14 0 .343-.075.483-.204l.344-.344c.483.28 1.041.559 1.589.902l-.14.484c-.064.279.065.622.344.762l.762.28c.065 0 .14.064.204.064.14 0 .344-.065.484-.204l.279-.28c.558.28 1.106.623 1.6.902l-.14.484c-.064.279.065.623.344.762l.762.28c.065 0 .14.064.204.064.14 0 .344-.065.484-.204l.279-.28c2.083 1.107 4.23 2.213 6.239 3.115 2.63 1.18 5.337 1.868 7.624 1.868 2.974 0 5.337-1.181 5.895-4.23 0-.065 0-.205.065-.28l.279-.064c.279-.065.558-.344.558-.559l.065-.623c.14-.279 0-.418-.204-.483h-.376c0-.762-.14-1.385-.28-2.008l.205-.28c.204-.278.204-.622.064-.762l-.344-.483c-.064-.064-.418-.14-.762-.14h-.065c-.418-.558-.902-.966-1.45-1.32l-.139-.623c-.064-.28-.279-.558-.558-.623l-.623-.064c-.14 0-.483.279-.698.558-.419-.064-.827-.14-1.32-.14-2.288 0-4.436 1.182-4.64 3.394-.064.966-.064 2.148 1.944 3.329a3.33 3.33 0 001.729.483c1.664 0 3.19-1.042 2.77-2.566-.279-1.182-1.106-1.59-1.943-1.59-.623 0-1.182.28-1.46.559-.484.698-.14 1.524.343 1.524.483 0 .343-.418.343-.418-.279-.484.065-.698.559-.698.419 0 .902.204.902.762.064.763-.902 1.042-1.246 1.106h-.064c-2.223 0-2.148-2.083-1.729-2.566.623-.902 1.525-1.246 2.287-1.246 2.008 0 3.877 2.148 2.631 4.714-.419.902-1.106 1.665-2.63 1.665-.903 0-2.148-.28-3.813-1.042-5.68-2.448-13.637-6.142-15.56-9.536 1.214.333 3.018.73 3.64.945v.484c0 .204.14.418.344.483l.763.279c.204.064.483 0 .623-.204l.279-.419c.558.14 1.18.204 1.804.28l.204.622a.52.52 0 00.483.344l.827-.065c.204 0 .419-.204.483-.418l.064-.42c.688-.064 1.386-.139 2.084-.343l.483.483c.14.14.419.204.623.14l.762-.344c.204-.064.344-.343.28-.558l-.065-.558c.483-.204.902-.484 1.385-.827 5.756-3.812 2.846-7.002.967-8.526-1.804-1.525.279-2.986 2.49-2.986.624 0 1.73.065 2.428.14.14 0 .204-.204.064-.28-1.729-.966-3.329-1.105-4.574-.762l-.14-.14c-.14-.139-.28-.203-.483-.139l-.623.28c-.204.064-.28.279-.28.418v.204c-.343.204-.622.419-.826.687l-.28-.14c-.096-.031-.171-.02-.235.022 1.342-3.812-.86-8.376-.86-8.376C49.031 8.891 42.75 8.021 38.97 8c-1.718-.01-2.92.161-2.92.161C24.15 8 23.505 23.581 23.505 23.581c-.558 0-1.246.065-1.729.419-3.19 2.427-.483 5.401-.483 5.401-.247.204-.462.398-.677.602a4.627 4.627 0 01-.45-.956c-3.469-.064-4.854-.966-5.133-2.427-.344-1.729.622-3.672 2.287-3.608 2.427.065 1.245 1.59.902 1.59a.94.94 0 01-.698-.28c-.204-.204-.483-.064-.483.204 0 .698.762 1.665 2.287.902 1.385-.698 1.46-1.804 1.041-2.706-.418-1.106-1.245-1.664-2.212-1.868l-.064-.204c0-.204-.204-.344-.344-.344l-.698-.064c-.204 0-.343.075-.418.279l-.065.343c-.623.065-1.246.204-1.729.42l-.343-.28c-.14-.14-.344-.064-.484 0l-.483.419c-.14.14-.204.279-.14.483l.14.28c-.343.343-.762.826-1.041 1.32l-.204-.064c-.204-.065-.344.064-.484.204l-.279.622a.449.449 0 00.065.484l.204.279c-.484 1.868.075 4.156 3.189 6.239.419.279.762.483 1.106.687l-.14.698c-.064.204.065.483.28.558l.762.344c.193.064.376.064.569-.097-1.32 1.966-1.911 3.694-4.424 6.422-1.385 1.525-2.985 2.212-4.435 2.212-2.287 0-4.156-1.804-3.952-4.435.14-1.944 1.6-3.114 3.19-3.393.204-.065.418-.065.622-.065 1.73 0 2.567 1.45 1.869 2.846 0 0-.559 1.385-1.665 1.46h-.064c-1.042 0-.902-1.18-.558-1.46.064-.064.204-.064.279-.064.204 0 .343.14.558.14.065 0 .14 0 .204-.065.483-.204.419-.623.419-.623-.064-.558-.483-.763-1.042-.763-.343 0-.762.14-1.041.28-1.042.558-1.321 2.083-.623 3.05.419.622 1.106.966 1.944.966 1.45 0 3.253-1.042 3.951-3.114.698-2.008-.827-5.402-4.37-5.402-.763 0-1.59.14-2.491.484-7.625 2.77-4.092 15.667 2.63 15.667.344 0 .623 0 .967-.065 1.46-.279 2.77-.966 4.016-1.868l.14.14c.14.139.279.203.418.203.14 0 .28-.064.42-.14l.622-.558c.204-.14.28-.418.204-.698l-.14-.418c.484-.42.902-.902 1.321-1.321l.204.14c.14.064.204.064.344.064a.626.626 0 00.483-.204l.483-.623c.14-.204.204-.483.065-.687l-.204-.344a27.17 27.17 0 011.245-1.525l.14.065c.064.064.204.064.344.064.204 0 .343-.064.483-.279l.483-.623c.14-.204.204-.483.064-.698l-.14-.279c.763-.902 1.386-1.45 1.87-1.45.278 0 .482.204.687.623.14.28.279.623.558 1.042l-.065.064c-.279.204-.343.559-.14.827l.42.698c.14.204.343.28.558.28h.28c.278.482.558.966.901 1.524-.279.204-.343.558-.14.827l.42.687c.14.204.343.28.558.28h.14l.203-.065c.28.483.623.966.967 1.45l-.065.064c-.204.204-.279.558-.064.827l.483.623c.14.14.28.279.483.279h.205l.14-.065c3.113 4.435 6.925 8.591 9.835 8.591h.14c5.197-.225 4.918-10.964 1.246-10.964zm2.609-15.667c1.213-.172 3.028-.633 5.874-2.394a6.577 6.577 0 002.255-2.266c.021.032.043.075.064.096l.14.14c-.204.483-.28.902-.28 1.32l-.279.28a.411.411 0 00-.064.483l.344.623c.064.14.279.28.483.204l.28-.064c.622.698 1.384 1.106 1.18 2.287-.279 1.525-1.943 2.491-6.099 2.427-2.18-.054-5.144-1.3-6.668-2.094.826-.333 1.771-.602 2.77-1.042zm-9.332-3.039c1.46 0 2.631 1.181 2.631 2.631 0 1.45-1.18 2.631-2.63 2.631a2.628 2.628 0 01-2.631-2.63c0-1.45 1.17-2.632 2.63-2.632z" fill="#1074BF" fill-rule="nonzero"/>
    <path d="M33.353 29.122c1.868 0 1.525-1.943 1.525-1.943-1.59.966-3.05 0-3.05 0s-.354 1.943 1.525 1.943z" fill="#1074BF" fill-rule="nonzero"/>
  </g>
</svg>