<svg width="64" height="64" viewBox="0 0 64 64" xmlns="http://www.w3.org/2000/svg">
  <path d="M52.722 39.898h-6.538v2.041c-.969 0-2.041 0-3.08.035-1.348 0-2.628.035-3.39 0-1.383-.035-1.383-.035-1.937-.692-.103-.104-.173-.207-.276-.346a1630.4 1630.4 0 01-5.95-6.607l-.312-.346c-.173-.208-.346-.38-.519-.588h26.95v2.456L64 32.184l-6.33-3.633v2.457H19.303c.173-.173.346-.381.519-.554l.311-.346c1.142-1.245 5.916-6.538 5.95-6.607.104-.139.208-.243.277-.346.554-.658.554-.658 1.937-.692h3.39c1.004 0 2.042 0 2.976.034a3.264 3.264 0 003.01 2.007 3.248 3.248 0 003.251-3.252A3.248 3.248 0 0037.674 18c-1.384 0-2.56.865-3.045 2.076-.934 0-1.972 0-2.94-.035-1.384 0-2.664-.035-3.46 0-2.248.035-2.767.346-3.77 1.557-.07.104-.174.207-.243.311-.138.139-4.981 5.535-6.02 6.677l-.241.277c-.623.692-1.142 1.28-1.972 1.937-.139.104-.312.173-1.246.208-.657.034-2.006.034-3.286.034h-1.038a5.283 5.283 0 00-5.12-3.874 5.293 5.293 0 100 10.586 5.311 5.311 0 005.224-4.29h12.35v.034c1.28 0 2.63.035 3.287.035.934.035 1.107.138 1.245.208.83.622 1.35 1.245 1.972 1.937l.242.242c1.038 1.142 5.916 6.538 6.02 6.642.103.104.172.208.276.312 1.003 1.21 1.522 1.522 3.771 1.556h.865c.726 0 1.626 0 2.594-.034 1.038 0 2.11-.035 3.08-.035v2.041h6.538l-.035-6.504z" fill="#000000" fill-rule="nonzero"/>
</svg>