<svg width="64" height="64" viewBox="0 0 64 64" xmlns="http://www.w3.org/2000/svg">
  <g fill="#000000" fill-rule="nonzero">
    <path d="M32 30.125c-1.035 0-1.875.84-1.875 1.875 0 1.035.84 1.875 1.875 1.875 1.035 0 1.875-.84 1.875-1.875 0-1.035-.84-1.875-1.875-1.875z"/>
    <path d="M32 0C14.424 0 0 14.424 0 32s14.424 32 32 32 32-14.424 32-32S49.576 0 32 0zm5.625 52.625h-11.25a1.874 1.874 0 110-3.75h11.25a1.874 1.874 0 110 3.75zm1.452-25.05l-2.016 2.015a5.56 5.56 0 01.564 2.41A5.631 5.631 0 0132 37.625 5.631 5.631 0 0126.375 32 5.631 5.631 0 0132 26.375a5.56 5.56 0 012.41.564l2.016-2.016a1.874 1.874 0 112.651 2.651zm10.192 21.61c-.014.015-.018.036-.033.05a1.874 1.874 0 01-2.652 0l-.002-.001-.005-.004-.004-.005-5.291-5.292a1.874 1.874 0 112.651-2.651l3.841 3.841a20.312 20.312 0 004.667-11.248H47a1.874 1.874 0 110-3.75h5.53a20.526 20.526 0 00-4.69-11.313l-3.907 3.906a1.874 1.874 0 11-2.651-2.651l3.906-3.907a20.526 20.526 0 00-11.313-4.69V17a1.874 1.874 0 11-3.75 0v-5.53a20.526 20.526 0 00-11.313 4.69l3.906 3.907a1.874 1.874 0 11-2.651 2.651l-3.907-3.906a20.526 20.526 0 00-4.69 11.313H17a1.874 1.874 0 110 3.75h-5.441a20.312 20.312 0 004.667 11.248l3.841-3.841a1.874 1.874 0 112.651 2.651l-5.291 5.292-.004.005-.005.004-.002.002a1.874 1.874 0 01-2.652 0c-.014-.015-.019-.035-.033-.05C10.149 44.58 7.625 38.481 7.625 32 7.625 18.595 18.534 7.625 32 7.625c13.405 0 24.375 10.909 24.375 24.375 0 6.482-2.524 12.581-7.106 17.185z"/>
  </g>
</svg>