<?xml version="1.0" encoding="UTF-8"?>
<svg width="64px" height="64px" viewBox="0 0 64 64" version="1.1" xmlns="http://www.w3.org/2000/svg" xmlns:xlink="http://www.w3.org/1999/xlink">
    <!-- Generator: Sketch 63.1 (92452) - https://sketch.com -->
    <title>Icon</title>
    <desc>Created with Sketch.</desc>
    <g id="Icon" stroke="none" stroke-width="1" fill="none" fill-rule="evenodd">
        <g id="706ohd" transform="translate(0.000000, 7.000000)" fill="#000000" fill-rule="nonzero">
            <path d="M56.2567901,0.237037037 L6.95308642,0.237037037 C3.16049383,0.237037037 0,3.31851852 0,7.19012346 L0,43.3777778 C0,47.1703704 3.08148148,50.3308642 6.95308642,50.3308642 L56.3358025,50.3308642 C60.1283951,50.3308642 63.2888889,47.2493827 63.2888889,43.3777778 L63.2888889,7.19012346 C63.2098765,3.39753086 60.1283951,0.237037037 56.2567901,0.237037037 Z M15.4074074,38.7950617 C15.0123457,38.7950617 14.617284,38.637037 14.2222222,38.4 C13.4320988,37.7679012 13.2740741,36.582716 13.9061728,35.7925926 L22.4395062,24.8888889 L13.9061728,13.6691358 C13.2740741,12.8790123 13.4320988,11.6938272 14.2222222,11.0617284 C15.0123457,10.4296296 16.1975309,10.5876543 16.8296296,11.3777778 L26.3111111,23.7037037 C26.8641975,24.4148148 26.8641975,25.362963 26.3111111,25.9950617 L16.8296296,38.0049383 C16.5135802,38.5580247 15.9604938,38.7950617 15.4074074,38.7950617 L15.4074074,38.7950617 Z M47.8024691,39.9012346 L27.654321,39.9012346 C26.6271605,39.9012346 25.7580247,39.0320988 25.7580247,38.0049383 C25.7580247,36.9777778 26.6271605,36.108642 27.654321,36.108642 L47.8814815,36.108642 C48.908642,36.108642 49.7777778,36.9777778 49.7777778,38.0049383 C49.6987654,39.0320988 48.908642,39.9012346 47.8024691,39.9012346 Z" id="Shape"></path>
        </g>
    </g>
</svg>