<?xml version="1.0" encoding="utf-8"?>
<!-- Generator: Adobe Illustrator 24.0.0, SVG Export Plug-In . SVG Version: 6.00 Build 0)  -->
<svg version="1.1" id="Layer_1" xmlns="http://www.w3.org/2000/svg" xmlns:xlink="http://www.w3.org/1999/xlink" x="0px" y="0px"
	 viewBox="0 0 322 119.2" style="enable-background:new 0 0 322 119.2;" xml:space="preserve">
<style type="text/css">
	.st0{fill:url(#SVGID_1_);}
	.st1{fill:url(#SVGID_2_);}
</style>
<g>
	<g>
		<g>
			<path d="M141.7,29.9h9.3l-10.1,29.7h-9.3l-10.2-29.7h9.4l5.6,18.2h0.1L141.7,29.9z"/>
			<path d="M181,59.6h-21.7V29.9h21.6v7.5h-13v3.9h11.5V48h-11.5v4.1H181V59.6z"/>
			<path d="M203.9,29.4c6.2,0,10.8,3.2,12.2,8.3l-8.1,3.5c-0.4-2.3-1.6-4.1-4.2-4.1c-2.9,0-5.1,2.4-5.1,7.7c0,5.3,2.1,7.8,5.1,7.8
				c2.5,0,3.8-1.9,4.2-4.2l8.1,3.5c-1.4,5.1-6,8.3-12.2,8.3c-8.9,0-14.4-5.9-14.4-15.4C189.5,35.3,195,29.4,203.9,29.4z"/>
			<path d="M231.6,59.6V37.4h-8.9v-7.5h26.7v7.5h-8.9v22.2H231.6z"/>
			<path d="M285.4,44.8c0,9.5-5.5,15.4-14.4,15.4c-8.8,0-14.4-5.9-14.4-15.4c0-9.5,5.6-15.4,14.4-15.4
				C279.9,29.4,285.4,35.3,285.4,44.8z M265.9,44.8c0,4.8,1.8,7.8,5.2,7.8s5.2-2.9,5.2-7.8c0-4.8-1.8-7.8-5.2-7.8
				S265.9,39.9,265.9,44.8z"/>
			<path d="M312.4,59.6c-0.8-1-1.1-1.9-1.4-3.5l-0.6-3.3c-0.4-2.1-1.4-2.7-3.2-2.7h-3.5v9.5h-8.8V29.9H309c6.7,0,11.4,2.6,11.4,9.1
				c0,4.3-2.9,6.8-6.1,7.4v0.1c2.6,0.4,4.1,2,4.7,4.7l1.1,4.7c0.4,1.6,0.9,2.6,1.9,3.7H312.4z M307.9,37.2h-4.3v5.9h4.3
				c2.1,0,3.2-0.9,3.2-3C311.1,38.2,310.1,37.2,307.9,37.2z"/>
		</g>
		<g>
			<path d="M130.8,81.9c1.8,0.2,3.1,1.3,3.1,3.3c0,2.4-1.5,4-4.8,4H124V74.8h4.9c2.8,0,4.5,1.3,4.5,3.8
				C133.4,80.4,132.3,81.6,130.8,81.9L130.8,81.9z M125.8,81.3h3c1.8,0,2.8-0.8,2.8-2.5c0-1.7-1-2.5-2.8-2.5h-3V81.3z M125.8,87.7
				h3.2c2,0,3-0.9,3-2.5c0-1.6-1.1-2.5-3-2.5h-3.2V87.7z"/>
			<path d="M141.2,81.8l3.9-7h1.9l-4.9,8.7v5.6h-1.8v-5.6l-5-8.7h2L141.2,81.8L141.2,81.8z"/>
			<path d="M155.9,74.8h4.2c4,0,7,2.2,7,7.1c0,4.9-3,7.2-7,7.2h-4.2V74.8z M157.7,87.6h2.4c2.6,0,5.1-1.4,5.1-5.7
				c0-4.3-2.5-5.6-5.1-5.6h-2.4V87.6z"/>
			<path d="M177.6,85.2h-6l-1.4,4h-1.8l5.2-14.4h2l5.2,14.4H179L177.6,85.2z M172.1,83.6h4.9l-2.4-6.9h0L172.1,83.6z"/>
			<path d="M185.4,89.2V76.4h-4.8v-1.6h11.5v1.6h-4.8v12.8L185.4,89.2L185.4,89.2z"/>
			<path d="M201,85.2h-6l-1.4,4h-1.8l5.2-14.4h2l5.2,14.4h-1.8L201,85.2z M195.6,83.6h4.9l-2.4-6.9h0L195.6,83.6z"/>
			<path d="M207,74.8h4.2c4,0,7,2.2,7,7.1c0,4.9-3,7.2-7,7.2H207V74.8z M208.8,87.6h2.4c2.6,0,5.1-1.4,5.1-5.7
				c0-4.3-2.5-5.6-5.1-5.6h-2.4V87.6z"/>
			<path d="M233.1,82c0,4.6-2.5,7.4-6.2,7.4s-6.2-2.8-6.2-7.4c0-4.6,2.5-7.4,6.2-7.4C230.6,74.6,233.1,77.4,233.1,82z M222.6,82
				c0,3.5,1.5,5.9,4.3,5.9c2.8,0,4.3-2.4,4.3-5.9c0-3.5-1.5-5.9-4.3-5.9C224.1,76.1,222.6,78.5,222.6,82z"/>
			<path d="M247.4,81.9v7.2H246l-0.3-2.1c-0.5,1.5-2.1,2.4-4,2.4c-3.6,0-6.1-2.7-6.1-7.4c0-4.8,2.7-7.5,6.3-7.5
				c2.6,0,4.4,1.1,5.2,3.3l-1.6,0.9c-0.5-1.7-1.9-2.7-3.7-2.7c-2.8,0-4.4,2.2-4.4,5.9c0,3.5,1.4,5.9,4.4,5.9c1.9,0,3.7-1,3.7-3.6
				v-0.9H242v-1.5H247.4z"/>
		</g>
	</g>
	<g>
		
			<linearGradient id="SVGID_1_" gradientUnits="userSpaceOnUse" x1="-0.2117" y1="282.8788" x2="101.7244" y2="341.7316" gradientTransform="matrix(1 0 0 -1 0 371.896)">
			<stop  offset="0" style="stop-color:#10E7FF"/>
			<stop  offset="0.1028" style="stop-color:#33D5FF"/>
			<stop  offset="0.2548" style="stop-color:#60BDFF"/>
			<stop  offset="0.4079" style="stop-color:#86AAFF"/>
			<stop  offset="0.5597" style="stop-color:#A39AFF"/>
			<stop  offset="0.7099" style="stop-color:#B790FF"/>
			<stop  offset="0.8575" style="stop-color:#C489FF"/>
			<stop  offset="1" style="stop-color:#C887FF"/>
		</linearGradient>
		<path class="st0" d="M50.8,119.2L0,89.4V29.8L50.8,0l50.8,29.8v59.6L50.8,119.2z M7.1,85.2l43.6,25.6l43.6-25.6V34L50.8,8.4
			L7.1,34V85.2z"/>
		
			<linearGradient id="SVGID_2_" gradientUnits="userSpaceOnUse" x1="31.374" y1="303.3843" x2="81.9319" y2="332.5739" gradientTransform="matrix(1 0 0 -1 0 371.896)">
			<stop  offset="0" style="stop-color:#10E7FF"/>
			<stop  offset="0.1028" style="stop-color:#33D5FF"/>
			<stop  offset="0.2548" style="stop-color:#60BDFF"/>
			<stop  offset="0.4079" style="stop-color:#86AAFF"/>
			<stop  offset="0.5597" style="stop-color:#A39AFF"/>
			<stop  offset="0.7099" style="stop-color:#B790FF"/>
			<stop  offset="0.8575" style="stop-color:#C489FF"/>
			<stop  offset="1" style="stop-color:#C887FF"/>
		</linearGradient>
		<path class="st1" d="M72.7,43.4L54.9,74.7l5.8,10.2l23.6-41.5H72.7z M52.8,43.4L35,74.7l5.8,10.2l23.6-41.5H52.8z M17.3,43.4
			l23.6,41.5l5.8-10.2L28.9,43.4H17.3z M17.3,43.4l23.6,41.5l5.8-10.2L28.9,43.4H17.3z M52.8,43.4L35,74.7l5.8,10.2l23.6-41.5H52.8z
			"/>
	</g>
</g>
</svg>
