<svg xmlns="http://www.w3.org/2000/svg" viewBox="0 0 322 119.2">
  <path d="M141.7 29.9h9.3l-10.1 29.7h-9.3l-10.2-29.7h9.4l5.6 18.2h.1l5.2-18.2zM181 59.6h-21.7V29.9h21.6v7.5h-13v3.9h11.5V48h-11.5v4.1H181v7.5zm22.9-30.2c6.2 0 10.8 3.2 12.2 8.3l-8.1 3.5c-.4-2.3-1.6-4.1-4.2-4.1-2.9 0-5.1 2.4-5.1 7.7 0 5.3 2.1 7.8 5.1 7.8 2.5 0 3.8-1.9 4.2-4.2l8.1 3.5c-1.4 5.1-6 8.3-12.2 8.3-8.9 0-14.4-5.9-14.4-15.4s5.5-15.4 14.4-15.4zm27.7 30.2V37.4h-8.9v-7.5h26.7v7.5h-8.9v22.2h-8.9zm53.8-14.8c0 9.5-5.5 15.4-14.4 15.4-8.8 0-14.4-5.9-14.4-15.4s5.6-15.4 14.4-15.4c8.9 0 14.4 5.9 14.4 15.4zm-19.5 0c0 4.8 1.8 7.8 5.2 7.8s5.2-2.9 5.2-7.8c0-4.8-1.8-7.8-5.2-7.8s-5.2 2.9-5.2 7.8zm46.5 14.8c-.8-1-1.1-1.9-1.4-3.5l-.6-3.3c-.4-2.1-1.4-2.7-3.2-2.7h-3.5v9.5h-8.8V29.9H309c6.7 0 11.4 2.6 11.4 9.1 0 4.3-2.9 6.8-6.1 7.4v.1c2.6.4 4.1 2 4.7 4.7l1.1 4.7c.4 1.6.9 2.6 1.9 3.7h-9.6zm-4.5-22.4h-4.3v5.9h4.3c2.1 0 3.2-.9 3.2-3 0-1.9-1-2.9-3.2-2.9zM130.8 81.9c1.8.2 3.1 1.3 3.1 3.3 0 2.4-1.5 4-4.8 4H124V74.8h4.9c2.8 0 4.5 1.3 4.5 3.8 0 1.8-1.1 3-2.6 3.3zm-5-.6h3c1.8 0 2.8-.8 2.8-2.5s-1-2.5-2.8-2.5h-3v5zm0 6.4h3.2c2 0 3-.9 3-2.5s-1.1-2.5-3-2.5h-3.2v5zm15.4-5.9l3.9-7h1.9l-4.9 8.7v5.6h-1.8v-5.6l-5-8.7h2l3.9 7zm14.7-7h4.2c4 0 7 2.2 7 7.1 0 4.9-3 7.2-7 7.2h-4.2V74.8zm1.8 12.8h2.4c2.6 0 5.1-1.4 5.1-5.7 0-4.3-2.5-5.6-5.1-5.6h-2.4v11.3zm19.9-2.4h-6l-1.4 4h-1.8l5.2-14.4h2l5.2 14.4H179l-1.4-4zm-5.5-1.6h4.9l-2.4-6.9-2.5 6.9zm13.3 5.6V76.4h-4.8v-1.6h11.5v1.6h-4.8v12.8h-1.9zm15.6-4h-6l-1.4 4h-1.8l5.2-14.4h2l5.2 14.4h-1.8l-1.4-4zm-5.4-1.6h4.9l-2.4-6.9-2.5 6.9zm11.4-8.8h4.2c4 0 7 2.2 7 7.1 0 4.9-3 7.2-7 7.2H207V74.8zm1.8 12.8h2.4c2.6 0 5.1-1.4 5.1-5.7 0-4.3-2.5-5.6-5.1-5.6h-2.4v11.3zm24.3-5.6c0 4.6-2.5 7.4-6.2 7.4s-6.2-2.8-6.2-7.4c0-4.6 2.5-7.4 6.2-7.4s6.2 2.8 6.2 7.4zm-10.5 0c0 3.5 1.5 5.9 4.3 5.9s4.3-2.4 4.3-5.9c0-3.5-1.5-5.9-4.3-5.9s-4.3 2.4-4.3 5.9zm24.8-.1v7.2H246l-.3-2.1c-.5 1.5-2.1 2.4-4 2.4-3.6 0-6.1-2.7-6.1-7.4 0-4.8 2.7-7.5 6.3-7.5 2.6 0 4.4 1.1 5.2 3.3l-1.6.9c-.5-1.7-1.9-2.7-3.7-2.7-2.8 0-4.4 2.2-4.4 5.9 0 3.5 1.4 5.9 4.4 5.9 1.9 0 3.7-1 3.7-3.6v-.9H242v-1.5h5.4z"/>
  <linearGradient id="a" gradientUnits="userSpaceOnUse" x1="-.212" y1="282.879" x2="101.724" y2="341.732" gradientTransform="matrix(1 0 0 -1 0 371.896)">
    <stop offset="0" stop-color="#10e7ff"/>
    <stop offset=".103" stop-color="#33d5ff"/>
    <stop offset=".255" stop-color="#60bdff"/>
    <stop offset=".408" stop-color="#86aaff"/>
    <stop offset=".56" stop-color="#a39aff"/>
    <stop offset=".71" stop-color="#b790ff"/>
    <stop offset=".858" stop-color="#c489ff"/>
    <stop offset="1" stop-color="#c887ff"/>
  </linearGradient>
  <path d="M50.8 119.2L0 89.4V29.8L50.8 0l50.8 29.8v59.6l-50.8 29.8zm-43.7-34l43.6 25.6 43.6-25.6V34L50.8 8.4 7.1 34v51.2z" fill="url(#a)"/>
  <linearGradient id="b" gradientUnits="userSpaceOnUse" x1="31.374" y1="303.384" x2="81.932" y2="332.574" gradientTransform="matrix(1 0 0 -1 0 371.896)">
    <stop offset="0" stop-color="#10e7ff"/>
    <stop offset=".103" stop-color="#33d5ff"/>
    <stop offset=".255" stop-color="#60bdff"/>
    <stop offset=".408" stop-color="#86aaff"/>
    <stop offset=".56" stop-color="#a39aff"/>
    <stop offset=".71" stop-color="#b790ff"/>
    <stop offset=".858" stop-color="#c489ff"/>
    <stop offset="1" stop-color="#c887ff"/>
  </linearGradient>
  <path d="M72.7 43.4L54.9 74.7l5.8 10.2 23.6-41.5H72.7zm-19.9 0L35 74.7l5.8 10.2 23.6-41.5H52.8zm-35.5 0l23.6 41.5 5.8-10.2-17.8-31.3H17.3zm0 0l23.6 41.5 5.8-10.2-17.8-31.3H17.3zm35.5 0L35 74.7l5.8 10.2 23.6-41.5H52.8z" fill="url(#b)"/>
</svg>
