<?xml version="1.0" encoding="UTF-8"?>
<svg width="900px" height="278px" viewBox="0 0 900 278" version="1.1" xmlns="http://www.w3.org/2000/svg" xmlns:xlink="http://www.w3.org/1999/xlink">
    <!-- Generator: Sketch 59.1 (86144) - https://sketch.com -->
    <title>Centralized Service</title>
    <desc>Created with Sketch.</desc>
    <defs>
        <linearGradient x1="100%" y1="50%" x2="0%" y2="50%" id="linearGradient-1">
            <stop stop-color="#00DEFF" offset="0%"></stop>
            <stop stop-color="#000000" offset="100%"></stop>
        </linearGradient>
        <linearGradient x1="100%" y1="50%" x2="0%" y2="50%" id="linearGradient-2">
            <stop stop-color="#00DEFF" offset="0%"></stop>
            <stop stop-color="#000000" offset="100%"></stop>
        </linearGradient>
        <linearGradient x1="100%" y1="50%" x2="0%" y2="50%" id="linearGradient-3">
            <stop stop-color="#00DEFF" offset="0%"></stop>
            <stop stop-color="#000000" offset="100%"></stop>
        </linearGradient>
        <linearGradient x1="100%" y1="50%" x2="0%" y2="50%" id="linearGradient-4">
            <stop stop-color="#00DEFF" offset="0%"></stop>
            <stop stop-color="#000000" offset="100%"></stop>
        </linearGradient>
        <linearGradient x1="100%" y1="50%" x2="0%" y2="50%" id="linearGradient-5">
            <stop stop-color="#00DEFF" offset="0%"></stop>
            <stop stop-color="#000000" offset="100%"></stop>
        </linearGradient>
        <linearGradient x1="100%" y1="50%" x2="0%" y2="50%" id="linearGradient-6">
            <stop stop-color="#00DEFF" offset="0%"></stop>
            <stop stop-color="#000000" offset="100%"></stop>
        </linearGradient>
        <linearGradient x1="100%" y1="50%" x2="0%" y2="50%" id="linearGradient-7">
            <stop stop-color="#00DEFF" offset="0%"></stop>
            <stop stop-color="#000000" offset="100%"></stop>
        </linearGradient>
        <linearGradient x1="100%" y1="50%" x2="0%" y2="50%" id="linearGradient-8">
            <stop stop-color="#00DEFF" offset="0%"></stop>
            <stop stop-color="#000000" offset="100%"></stop>
        </linearGradient>
    </defs>
    <g id="Role:-Centralized-Service" stroke="none" stroke-width="1" fill="none" fill-rule="evenodd">
        <g id="Diagram" transform="translate(0.000000, -63.000000)">
            <g id="Centralized-Service" transform="translate(-168.000000, 23.000000)">
                <g id="Vector" transform="translate(514.000000, 106.000000)">
                    <polygon id="Stroke-1" stroke-opacity="0.152671547" stroke="#000000" stroke-linecap="round" stroke-linejoin="round" points="0.596470588 99.8750881 96.8670588 139.436604 193.135686 99.8750881 96.8670588 60.3093852"></polygon>
                    <polygon id="Stroke-7" stroke-opacity="0.152671547" stroke="#000000" stroke-linecap="round" stroke-linejoin="round" points="96.6672549 0.524918578 193.606471 40.5233234 193.135882 99.8746693 96.8672549 60.3089664"></polygon>
                    <polygon id="Stroke-9" stroke-opacity="0.152671547" stroke="#000000" stroke-linecap="round" stroke-linejoin="round" points="0.941176471 40.0098039 0.941176471 99.8720173 96.8670588 60.2532735 96.6670588 0.525058159"></polygon>
                    <polygon id="Fill-11" fill-opacity="0.0739182692" fill="#000000" points="0.596470588 99.8750881 0.396470588 40.0910402 96.8670588 0.503981389 193.74549 40.4890701 193.427529 99.7355068 96.8670588 139.436604"></polygon>
                    <polygon id="Stroke-13" stroke-opacity="0.152671547" stroke="#000000" stroke-linecap="round" stroke-linejoin="round" points="0.596470588 99.8750881 0.396470588 40.0910402 96.8670588 0.503953473 193.74549 40.4890701 193.427451 99.7355068 96.8670588 139.436604"></polygon>
                    <g transform="translate(34.000000, 29.529412)" fill-opacity="0.6">
                        <polygon id="Fill-21" fill="#10E7FF" points="0.275967078 63.0221001 62.6685802 88.1123655 125.059753 63.0221001 62.6685802 37.9291279"></polygon>
                        <polygon id="Fill-22" fill="#10E7FF" points="-1.13686838e-13 25.0549614 -1.13686838e-13 63.0201525 63.3744856 88.1157325 63.3744856 50.4745164"></polygon>
                        <polygon id="Fill-23" fill="#10E7FF" points="63.3744856 50.4748465 125.365679 25.3810986 125.060617 63.0221826 63.3744856 88.1159966"></polygon>
                        <polygon id="Fill-24" fill="#10E7FF" points="62.5389506 0.013368984 125.364959 25.3806034 125.059897 63.021836 62.6685802 37.9289628"></polygon>
                        <polygon id="Fill-25" fill="#10E7FF" points="-1.70530257e-13 25.0549614 -1.70530257e-13 63.0201525 62.6685802 37.8936423 62.5389506 0.013368984"></polygon>
                        <polygon id="Fill-26" fill="#10E7FF" points="0.275967078 63.0221001 0.146337449 25.1064567 62.6685802 -4.26325641e-13 125.454979 25.358982 125.248868 62.9335677 62.6685802 88.1123655"></polygon>
                        <polygon id="Fill-21-Copy" fill="#00C1D8" points="0.275967078 25.206974 62.6685802 50.2972394 125.059753 25.206974 62.6685802 0.11400183"></polygon>
                    </g>
                    <polygon id="Stroke-3" stroke-opacity="0.152671547" stroke="#000000" stroke-linecap="round" stroke-linejoin="round" points="0.941176471 40.0098039 0.941176471 99.8720173 97.0196078 139.441908 97.0196078 80.0905616"></polygon>
                    <polygon id="Stroke-5" stroke-opacity="0.152671547" stroke="#000000" stroke-linecap="round" stroke-linejoin="round" points="97.0196078 80.0909804 193.607647 40.5238817 193.137059 99.8752277 97.0196078 139.442326"></polygon>
                </g>
                <g id="Logo" transform="translate(577.000000, 47.000000)" fill="#10E7FF">
                    <polygon id="Rectangle" points="56.7252722 0 66.7327728 5.56344142e-13 42.8996397 39.305191 37.954892 31.1715113"></polygon>
                    <polygon id="Triangle-Copy" transform="translate(23.707696, 19.549161) scale(1, -1) translate(-23.707696, -19.549161) " points="23.7076956 9.09494702e-13 47.4153912 39.0983216 35.5899698 39.0983216 23.9502082 19.9835866 12.3048123 39.0983216 0 39.0983216"></polygon>
                </g>
                <g id="Lines" transform="translate(0.000000, 36.000000)" fill-rule="nonzero">
                    <path d="M520.689146,138.904518 C386.619611,113.547978 295.122981,88.3620522 246.163662,63.3102905 C194.924832,37.0921364 167.581376,16.619518 164.163642,1.79572613 L164,1.08596059 L166.850323,0.922965421 L167.013965,1.63273096 C170.337704,16.0488363 197.396149,36.308061 248.219647,62.3136957 C296.820302,87.1819348 387.990329,112.278241 521.694139,137.566169 L524.706471,133.554645 L540,141.742337 L517.671615,142.922965 L520.689146,138.904518 L520.689146,138.904518 Z" id="Line" fill="url(#linearGradient-1)"></path>
                    <path d="M520.147867,139.76933 C377.019531,121.482811 275.267174,98.2534081 214.878502,70.0501944 C152.081785,40.7223552 106.51416,22.2040952 78.2594752,14.5160185 L77,14.1733164 L78.380812,12.9229654 L79.6402871,13.2656676 C108.172435,21.0292418 153.880035,39.6043863 216.846934,69.0117053 C276.816992,97.0194143 378.154121,120.154543 520.846032,138.386166 L522.938335,134.241021 L540,141.507819 L518.051279,143.922965 L520.147867,139.76933 L520.147867,139.76933 Z" id="Line" fill="url(#linearGradient-2)"></path>
                    <path d="M519.933056,141.707268 C372.704043,129.026229 262.837966,109.768317 190.3225,83.91188 C114.824344,56.9919213 69.7682331,41.1836994 55.2050526,36.5043653 L54,36.1171667 L55.5628679,34.9229654 L56.7679205,35.3101641 C71.3888108,40.008041 116.449311,55.8178032 192.000305,82.7566018 C264.10501,108.466576 373.578187,127.656086 520.407513,140.303481 L521.829356,136.096647 L540,142.655422 L518.508217,145.922965 L519.933056,141.707268 L519.933056,141.707268 Z" id="Line" fill="url(#linearGradient-3)"></path>
                    <path d="M519.86475,142.649849 C368.517308,136.277141 254.64057,121.506653 178.217158,98.315554 C98.3048273,74.0657243 57.2256333,53.2560194 55.0868866,35.721735 L55,35.0094049 L57.8640571,34.9229654 L57.9509436,35.6352955 C60.0125421,52.5370884 100.563615,73.0792604 179.711474,97.0971069 C255.690321,120.1533 369.155374,134.870846 520.089258,141.226918 L520.762072,136.962634 L540,142.724521 L519.190543,146.922965 L519.86475,142.649849 Z" id="Line" fill="url(#linearGradient-4)"></path>
                    <path d="M519.932391,142.647115 C332.463995,144.005826 202.179696,131.636107 129.025387,105.480367 C54.4226233,78.8067444 12.9659958,85.1433159 3.02731644,124.595592 L2.84929278,125.302269 L0,125.125657 L0.178023657,124.418979 C10.4110126,83.7984213 54.4625383,77.0652242 130.704413,104.324898 C203.236783,130.258268 332.978348,142.576841 519.875007,141.223033 L519.703008,136.954531 L540,141.739501 L520.104686,146.922965 L519.932391,142.647115 L519.932391,142.647115 Z" id="Line" fill="url(#linearGradient-5)"></path>
                    <path d="M520.593079,280.880292 C386.580357,256.843593 295.115373,232.324892 246.163677,207.28657 C194.924841,181.078398 167.581382,160.613574 164.163646,145.795419 L164,145.085906 L166.850322,144.922965 L167.013968,145.632478 C170.337705,160.043084 197.396146,180.29459 248.219637,206.290318 C296.798885,231.138136 387.920885,255.565208 521.55119,279.53392 L524.422894,275.498497 L540,283.549632 L517.716215,284.922965 L520.593079,280.880292 L520.593079,280.880292 Z" id="Line-Copy-5" fill="url(#linearGradient-6)" transform="translate(352.000000, 214.922965) scale(1, -1) translate(-352.000000, -214.922965) "></path>
                    <path d="M520.147867,269.76933 C377.019531,251.482811 275.267174,228.253408 214.878502,200.050194 C152.081785,170.722355 106.51416,152.204095 78.2594752,144.516019 L77,144.173316 L78.380812,142.922965 L79.6402871,143.265668 C108.172435,151.029242 153.880035,169.604386 216.846934,199.011705 C276.816992,227.019414 378.154121,250.154543 520.846032,268.386166 L522.938335,264.241021 L540,271.507819 L518.051279,273.922965 L520.147867,269.76933 L520.147867,269.76933 Z" id="Line-Copy-4" fill="url(#linearGradient-2)" transform="translate(308.500000, 208.422965) scale(1, -1) translate(-308.500000, -208.422965) "></path>
                    <path d="M519.911943,246.687624 C372.696361,234.846471 262.837027,215.973535 190.322488,190.046401 C114.824332,163.052494 69.7682221,147.200847 55.2050418,142.508659 L54,142.1204 L55.562901,140.922965 L56.7679428,141.311224 C71.3888331,146.022006 116.449333,161.875197 192.000326,188.887996 C264.093555,214.664493 373.548257,233.468411 520.352981,245.277341 L521.674626,241.05119 L540,247.520934 L518.587424,250.922965 L519.911943,246.687624 L519.911943,246.687624 Z" id="Line-Copy-3" fill="url(#linearGradient-7)" transform="translate(297.000000, 195.922965) scale(1, -1) translate(-297.000000, -195.922965) "></path>
                    <path d="M519.865233,245.646078 C368.522035,240.589054 254.64482,226.480102 178.21713,203.295146 C98.3048151,179.053101 57.2256265,158.250074 55.0868826,140.721439 L55,140.009369 L57.8640576,139.922965 L57.9509402,140.635035 C60.0125416,157.531429 100.563621,178.067014 179.711496,202.07716 C255.677776,225.122144 369.125912,239.178424 520.039445,244.221924 L520.561516,239.954089 L540,245.544898 L519.342055,249.922965 L519.865233,245.646078 L519.865233,245.646078 Z" id="Line-Copy-2" fill="url(#linearGradient-8)" transform="translate(297.500000, 194.922965) scale(1, -1) translate(-297.500000, -194.922965) "></path>
                    <path d="M519.932391,194.647115 C332.463995,196.005826 202.179696,183.636107 129.025387,157.480367 C54.4226233,130.806744 12.9659958,137.143316 3.02731644,176.595592 L2.84929278,177.302269 L0,177.125657 L0.178023657,176.418979 C10.4110126,135.798421 54.4625383,129.065224 130.704413,156.324898 C203.236783,182.258268 332.978348,194.576841 519.875007,193.223033 L519.703008,188.954531 L540,193.739501 L520.104686,198.922965 L519.932391,194.647115 L519.932391,194.647115 Z" id="Line-Copy" fill="url(#linearGradient-5)" transform="translate(270.000000, 169.422965) scale(1, -1) translate(-270.000000, -169.422965) "></path>
                    <polygon id="Line-5" fill="#10E7FF" points="1030 127 1069 146.5 1030 166 1030 150 679 150 679 143 1030 143"></polygon>
                </g>
                <g id="Text" transform="translate(345.000000, 0.000000)"></g>
            </g>
        </g>
    </g>
</svg>