<?xml version="1.0" encoding="UTF-8"?>
<svg width="64px" height="62px" viewBox="0 0 64 62" version="1.1" xmlns="http://www.w3.org/2000/svg" xmlns:xlink="http://www.w3.org/1999/xlink">
    <!-- Generator: Sketch 64 (93537) - https://sketch.com -->
    <title>Vicmojis</title>
    <desc>Created with Sketch.</desc>
    <g id="Page-1" stroke="none" stroke-width="1" fill="none" fill-rule="evenodd">
        <g id="Vicmojis" transform="translate(0.000000, -2.000000)">
            <g id="Cool" transform="translate(0.000000, 2.000000)">
                <path d="M42.9703,18.8908 C44.4512,18.3794 46.9718,20.989 45.983,23.7699 C44.9528,26.6674 41.4498,28.1158 40.296,26.7827 C39.3726,25.7159 41.1166,24.8734 41.9309,22.7668 C42.7996,20.5191 41.5427,19.3837 42.9703,18.8908 Z" id="Path" fill="#FFFFFF"></path>
                <path d="M4.5905,0.58362 C0.679051,1.70617 0.395436,4.8224 1.1491,9.1388 C1.60274,11.737 2.79564,14.2261 5.54971,17.7808 C9.86007,23.3442 12.7924,24.4729 12.7924,24.4729 L25.2386,17.1469 C25.2386,17.1469 22.8613,10.6942 18.1423,5.51748 C14.4566,1.47431 8.50195,-0.53893 4.5905,0.58362 Z" id="Path" fill="#14E6FF"></path>
                <path d="M4.94246,26.2167 C4.94246,12.1805 17.3451,0.80178 32.6446,0.80178 C47.9441,0.80178 60.3468,12.1805 60.3468,26.2167 C60.3468,40.253 47.9441,51.6316 32.6446,51.6316 C17.3451,51.6316 4.94246,40.253 4.94246,26.2167 Z" id="Path" fill="#14E6FF"></path>
                <path d="M24.611,42.719 C26.9423,38.7896 17.8147,37.7708 12.9836,35.8587 C8.65344,34.1448 6.33448,33.2397 6.03409,33.3067 C5.85143,33.3474 5.81585,33.7301 6.75344,37.6916 C7.10613,39.1817 8.64769,40.6718 9.23679,42.4752 C10.2138,45.4659 10.2504,48.5828 10.2504,48.5828 C10.2504,48.5828 13.76,50.6223 15.8253,53.281 C17.8905,55.9398 19.0688,59.4314 19.0688,59.4314 C19.0688,59.4314 21.2555,48.3747 24.611,42.719 Z" id="Path" fill="#000000"></path>
                <path d="M23.7769,44.3551 C26.1082,40.4258 18.7595,40.6393 12.171,36.9662 C7.90135,34.5858 6.23927,33.3115 5.93888,33.3785 C5.75622,33.4192 6.6599,42.5506 9.83972,49.2242 C13.0195,55.8977 18.6581,60.0727 18.6581,60.0727 C18.6581,60.0727 20.4214,50.0108 23.7769,44.3551 Z" id="Path" fill="#14E6FF"></path>
                <path d="M59.4272,21.3026 C59.0276,22.4167 58.2842,25.2796 53.0668,30.205 C48.3347,34.6724 41.0591,40.2556 35.3692,40.3823 C28.5689,40.5337 28.2044,39.0968 24.5563,39.1882 C21.8648,39.2556 18.667,40.3823 17.0131,43.9645 C16.2125,45.6986 15.6588,49.1778 16.1996,53.711 C16.9767,60.2256 28.1464,48.4075 28.1464,48.4075 C28.1464,48.4075 27.0923,48.4118 32.5895,46.5572 C37.6028,44.8659 41.0369,45.3236 41.0369,45.3236 C41.0369,45.3236 41.9471,45.1602 44.767,43.2677 C47.5868,41.3753 49.0455,40.4922 49.0455,40.4922 C49.0455,40.4922 47.6512,40.9397 49.978,38.1279 C52.3048,35.3162 54.8599,35.8664 54.8599,35.8664 C54.8599,35.8664 59.2445,31.206 59.348,26.8305 C59.4788,21.2974 59.5377,20.9943 59.4272,21.3026 Z" id="Path" fill="#000000"></path>
                <path d="M59.4708,21.1541 C59.0713,22.2682 59.8487,24.9974 55.0488,30.2825 C49.7551,36.1112 40.5007,41.8511 34.8108,41.9778 C28.0105,42.1292 27.1337,40.6315 24.6322,40.6981 C22.7938,40.747 20.4488,41.6264 18.8382,43.4766 C17.3858,45.145 16.592,47.6577 16.283,51.1752 C15.6579,58.2928 19.0836,60.9307 20.4428,61.3843 C20.9041,61.5382 40.6082,63.9416 50.9725,55.6703 C61.3367,47.3991 60.4056,33.2907 60.509,28.9151 C60.6399,23.3821 59.5814,20.8458 59.4708,21.1541 Z" id="Path" fill="#14E6FF"></path>
                <g id="Group" transform="translate(38.000000, 0.000000)">
                    <path d="M21.4095,0.58362 C25.3209,1.70617 25.6046,4.8224 24.8509,9.1388 C24.3973,11.737 23.2044,14.2261 20.4503,17.7808 C16.1399,23.3442 13.2076,24.4729 13.2076,24.4729 L0.7614,17.1469 C0.7614,17.1469 3.1387,10.6942 7.8577,5.51748 C11.5434,1.47431 17.498,-0.53893 21.4095,0.58362 Z" id="Path" fill="#14E6FF"></path>
                    <path d="M17.6858,2.99365 C17.6699,2.96229 13.152,3.82485 11.2606,6.07102 C8.6978,9.1146 9.8902,12.3033 10.9065,13.5346 C12.1619,15.0556 14.6444,16.8364 14.7546,16.6902 C15.1787,16.1277 12.0936,14.0583 12.6821,9.2967 C13.0951,5.95562 18.0854,3.77911 17.6858,2.99365 Z" id="Path" fill="#000000"></path>
                </g>
                <g id="Group" transform="translate(19.000000, 26.000000)" fill="#000000">
                    <path d="M2.9919,2.5963 C2.9919,1.5188 4.2752,0.6454 5.8582,0.6454 C7.4412,0.6454 8.7245,1.5188 8.7245,2.5963 C8.7245,3.6738 7.4412,4.5473 5.8582,4.5473 C4.2752,4.5473 2.9919,3.6738 2.9919,2.5963 Z" id="Path"></path>
                    <path d="M5.7981,5.5291 C5.5837,5.5291 5.3693,5.6721 5.3693,5.9579 C5.3693,6.6167 5.154,7.3633 4.7731,7.9208 C4.3351,8.5618 3.7167,8.919 2.9208,8.919 C1.9144,8.919 1.0483,8.0028 1.0483,6.8891 C1.0483,6.6523 0.8564,6.4603 0.6196,6.4603 C0.3828,6.4603 0.1908,6.6523 0.1908,6.8891 C0.1908,8.466 1.4298,9.7765 2.9208,9.7765 C4.0134,9.7765 4.8886,9.2685 5.4799,8.4031 C5.6076,8.2163 5.7187,8.0142 5.8148,7.8035 C5.9232,8.0207 6.0473,8.2318 6.1933,8.4232 C6.8488,9.2825 7.8222,9.7765 9.0506,9.7765 C10.8273,9.7765 12.2863,8.4974 12.2863,6.8891 C12.2863,6.6523 12.0944,6.4603 11.8576,6.4603 C11.6208,6.4603 11.4288,6.6523 11.4288,6.8891 C11.4288,7.9964 10.3773,8.919 9.0506,8.919 C8.0932,8.919 7.372,8.55 6.8767,7.9007 C6.4577,7.3514 6.2268,6.6184 6.2268,5.9579 C6.2268,5.6721 6.0125,5.5291 5.7981,5.5291 Z" id="Path"></path>
                </g>
                <path d="M24.8438,20.625 C23.5156,20.625 23.0867,20.7688 22.1875,20.9688 C21.6509,21.088 21.2219,21.1968 20.9688,21.2812 C20.4317,21.4603 20.1334,22.0255 20.3125,22.5625 C20.4916,23.0995 21.088,23.3978 21.625,23.2188 C21.8156,23.1552 22.1633,23.0714 22.625,22.9688 C23.3896,22.7988 23.7344,22.6875 24.8438,22.6875 C25.9531,22.6875 26.2979,22.7988 27.0625,22.9688 C27.5242,23.0714 27.8719,23.1552 28.0625,23.2188 C28.5995,23.3978 29.1959,23.0995 29.375,22.5625 C29.5541,22.0255 29.2558,21.4603 28.7188,21.2812 C28.4656,21.1968 28.0366,21.088 27.5,20.9688 C26.6008,20.7689 26.1719,20.625 24.8438,20.625 Z" id="Path" fill="#000000"></path>
                <path d="M2.99386,21.1291 L22.2697,21.1291 C22.2697,21.1291 21.3381,33.2598 12.3783,33.2598 C4.15371,33.2598 2.99386,21.1291 2.99386,21.1291 Z" id="Path" fill="#000000"></path>
                <path d="M46.9768,21.1291 L27.701,21.1291 C27.701,21.1291 28.6326,33.2598 37.5924,33.2598 C45.817,33.2598 46.9768,21.1291 46.9768,21.1291 Z" id="Path" fill="#000000"></path>
            </g>
        </g>
    </g>
</svg>