<?xml version="1.0" encoding="UTF-8"?>
<svg width="64px" height="62px" viewBox="0 0 64 62" version="1.1" xmlns="http://www.w3.org/2000/svg" xmlns:xlink="http://www.w3.org/1999/xlink">
    <!-- Generator: Sketch 64 (93537) - https://sketch.com -->
    <title>Vicmojis</title>
    <desc>Created with Sketch.</desc>
    <g id="Page-1" stroke="none" stroke-width="1" fill="none" fill-rule="evenodd">
        <g id="Vicmojis" transform="translate(0.000000, -2.000000)">
            <g id="No" transform="translate(0.000000, 2.000000)">
                <path d="M42.9703,18.8908 C44.4512,18.3794 46.9718,20.989 45.983,23.7699 C44.9528,26.6674 41.4498,28.1158 40.296,26.7827 C39.3726,25.7159 41.1166,24.8734 41.9309,22.7668 C42.7996,20.5191 41.5427,19.3837 42.9703,18.8908 Z" id="Path" fill="#FFFFFF"></path>
                <path d="M4.5905,0.58362 C0.679051,1.70617 0.395436,4.8224 1.1491,9.1388 C1.60274,11.737 2.79564,14.2261 5.54971,17.7808 C9.86007,23.3442 12.7924,24.4729 12.7924,24.4729 L25.2386,17.1469 C25.2386,17.1469 22.8613,10.6942 18.1423,5.51748 C14.4566,1.47431 8.50195,-0.53893 4.5905,0.58362 Z" id="Path" fill="#14E6FF"></path>
                <path d="M4.94246,26.2167 C4.94246,12.1805 17.3451,0.80178 32.6446,0.80178 C47.9441,0.80178 60.3468,12.1805 60.3468,26.2167 C60.3468,40.253 47.9441,51.6316 32.6446,51.6316 C17.3451,51.6316 4.94246,40.253 4.94246,26.2167 Z" id="Path" fill="#14E6FF"></path>
                <g id="Group" transform="translate(38.000000, 0.000000)">
                    <path d="M21.4095,0.58362 C25.3209,1.70617 25.6046,4.8224 24.8509,9.1388 C24.3973,11.737 23.2044,14.2261 20.4503,17.7808 C16.1399,23.3442 13.2076,24.4729 13.2076,24.4729 L0.7614,17.1469 C0.7614,17.1469 3.1387,10.6942 7.8577,5.51748 C11.5434,1.47431 17.498,-0.53893 21.4095,0.58362 Z" id="Path" fill="#14E6FF"></path>
                    <path d="M17.6858,2.99365 C17.6699,2.96229 13.152,3.82485 11.2606,6.07102 C8.6978,9.1146 9.8902,12.3033 10.9065,13.5346 C12.1619,15.0556 14.6444,16.8364 14.7546,16.6902 C15.1787,16.1277 12.0936,14.0583 12.6821,9.2967 C13.0951,5.95562 18.0854,3.77911 17.6858,2.99365 Z" id="Path" fill="#000000"></path>
                </g>
                <g id="Group" transform="translate(19.000000, 26.000000)" fill="#000000">
                    <path d="M2.9919,2.5963 C2.9919,1.5188 4.2752,0.6454 5.8582,0.6454 C7.4412,0.6454 8.7245,1.5188 8.7245,2.5963 C8.7245,3.6738 7.4412,4.5473 5.8582,4.5473 C4.2752,4.5473 2.9919,3.6738 2.9919,2.5963 Z" id="Path"></path>
                    <path d="M5.7981,5.5291 C5.5837,5.5291 5.3693,5.6721 5.3693,5.9579 C5.3693,6.6167 5.154,7.3633 4.7731,7.9208 C4.3351,8.5618 3.7167,8.919 2.9208,8.919 C1.9144,8.919 1.0483,8.0028 1.0483,6.8891 C1.0483,6.6523 0.8564,6.4603 0.6196,6.4603 C0.3828,6.4603 0.1908,6.6523 0.1908,6.8891 C0.1908,8.466 1.4298,9.7765 2.9208,9.7765 C4.0134,9.7765 4.8886,9.2685 5.4799,8.4031 C5.6076,8.2163 5.7187,8.0142 5.8148,7.8035 C5.9232,8.0207 6.0473,8.2318 6.1933,8.4232 C6.8488,9.2825 7.8222,9.7765 9.0506,9.7765 C10.8273,9.7765 12.2863,8.4974 12.2863,6.8891 C12.2863,6.6523 12.0944,6.4603 11.8576,6.4603 C11.6208,6.4603 11.4288,6.6523 11.4288,6.8891 C11.4288,7.9964 10.3773,8.919 9.0506,8.919 C8.0932,8.919 7.372,8.55 6.8767,7.9007 C6.4577,7.3514 6.2268,6.6184 6.2268,5.9579 C6.2268,5.6721 6.0125,5.5291 5.7981,5.5291 Z" id="Path"></path>
                </g>
                <g id="Group" transform="translate(7.000000, 16.000000)">
                    <g id="Path">
                        <path d="M0.60536,8.3695 C0.60536,4.1256 3.5031,0.6851 7.0776,0.6851 C10.6522,0.6851 13.5499,4.1256 13.5499,8.3695 C13.5499,12.6135 10.6522,16.0539 7.0776,16.0539 C3.5031,16.0539 0.60536,12.6135 0.60536,8.3695 Z" fill="#000000"></path>
                        <path d="M7.9816,2.5758 C9.1436,1.3638 12.2977,3.915 12.3466,7.9585 C12.3976,12.1716 9.7298,15.355 8.2391,14.0035 C7.0462,12.922 8.3333,11.1762 8.3551,8.0895 C8.3783,4.7963 6.8616,3.7441 7.9816,2.5758 Z" fill="#FFFFFF"></path>
                    </g>
                    <g transform="translate(24.000000, 0.000000)" id="Path">
                        <path d="M0.07,8.3695 C0.07,4.1256 2.9678,0.6851 6.5423,0.6851 C10.1168,0.6851 13.0146,4.1256 13.0146,8.3695 C13.0146,12.6135 10.1168,16.0539 6.5423,16.0539 C2.9678,16.0539 0.07,12.6135 0.07,8.3695 Z" fill="#000000"></path>
                        <path d="M7.4463,2.5758 C8.6083,1.3638 11.7624,3.915 11.8113,7.9585 C11.8622,12.1716 9.1945,15.355 7.7038,14.0035 C6.5109,12.922 7.798,11.1762 7.8198,8.0895 C7.843,4.7963 6.3262,3.7441 7.4463,2.5758 Z" fill="#FFFFFF"></path>
                    </g>
                </g>
                <polygon id="Path" fill="#14E6FF" points="30.3605 10.7281 30.8236 22.9722 44.2058 15.9693"></polygon>
                <path d="M24.6697,42.0168 C27.0065,37.9446 17.8574,36.8888 13.0149,34.9071 C8.67452,33.1309 6.3501,32.193 6.049,32.2624 C5.86591,32.3046 5.83025,32.7012 6.77005,36.8066 C7.12357,38.3509 8.66876,39.8952 9.25925,41.7641 C10.2385,44.8634 10.2752,48.0937 10.2752,48.0937 C10.2752,48.0937 13.7932,50.2072 15.8633,52.9626 C16.3923,53.6668 20.0478,51.1654 21.6977,51.4878 C26.5031,52.4267 31.883,55.0198 31.883,55.0198 C31.883,55.0198 21.3063,47.878 24.6697,42.0168 Z" id="Path" fill="#000000"></path>
                <path d="M33.8978,42.4347 C36.2346,38.3625 18.8044,39.8615 12.2004,36.0549 C7.92066,33.588 6.25466,32.2674 5.95357,32.3368 C5.77048,32.379 5.90903,40.0683 9.8636,48.7583 C15.8895,62 35.4355,56.6122 35.4355,56.6122 C35.4355,56.6122 30.5344,48.2959 33.8978,42.4347 Z" id="Path" fill="#14E6FF"></path>
                <path d="M59.4482,19.4779411 C58.6696,20.5545 54.8592,24.4657 51.0018,27.5048 C47.5589,30.2173 43.8911,31.6695 41.1451,32.0202 C39.185,32.2706 33.9633,30.3799 27.5887,29.8778 C21.5448,29.4018 19.6024,32.0183 18.3469,35.1178 C17.5056,37.1948 15.6397,44.9275 15.917,48.5752 C16.3002,53.6161 22.0528,53.9335 26.0811,53.5692 C33.2216,52.9235 28.7146,59.6839 29.957,61.3611 C30.1722,61.6516 34.1901,60.4717 37.0364,57.6836 C39.394,55.3742 39.9802,53.4424 41.3787,52.436 C45.3523,49.5763 49.8467,47.7425 50.148,47.4438 C50.6601,46.936 50.9485,43.3235 52.6076,41.9676 C55.265,39.7957 56.6359,40.1616 57.1858,39.6093 C57.599,39.1944 59.6473,35.3656 60.1098,30.8521 C60.8451,23.6755 59.476,19.4398 59.4482,19.4779411 Z" id="Path" fill="#000000"></path>
                <path d="M59.4334,19.4927 C58.8297,20.9561 57.7358,23.336 52.3458,28.2815 C49.1239,31.2378 44.4953,33.448 40.9705,33.9571 C39.0151,34.2396 34.4075,32.2835 28.0329,31.7814 C21.989,31.3054 20.5035,34.5239 19.9025,36.189 C19.1423,38.2952 17.2419,44.5815 17.5191,48.2293 C17.9023,53.2701 23.6908,52.4263 27.6565,51.6399 C37.5542,49.6772 26.8749,61.493 30.4852,61.9984 C30.8431,62.0485 35.9919,61.4074 38.2707,58.1391 C43.0206,51.3268 44.2452,57.2178 50.9725,51.6316 C59.9542,44.1732 59.6794,35.3571 60.1418,30.8436 C60.8772,23.667 59.5626,19.1797 59.4334,19.4927 Z" id="Path" fill="#14E6FF"></path>
                <polygon id="Path" fill="#14E6FF" points="21.8367 10.7281 21.3736 22.9722 7.99137 15.9693"></polygon>
            </g>
        </g>
    </g>
</svg>