<?xml version="1.0" encoding="UTF-8" standalone="no"?>
<svg
   xmlns:dc="http://purl.org/dc/elements/1.1/"
   xmlns:cc="http://creativecommons.org/ns#"
   xmlns:rdf="http://www.w3.org/1999/02/22-rdf-syntax-ns#"
   xmlns:svg="http://www.w3.org/2000/svg"
   xmlns="http://www.w3.org/2000/svg"
   xmlns:sodipodi="http://sodipodi.sourceforge.net/DTD/sodipodi-0.dtd"
   xmlns:inkscape="http://www.inkscape.org/namespaces/inkscape"
   width="150px"
   height="150px"
   viewBox="0 0 150 150"
   version="1.1"
   id="svg1894"
   sodipodi:docname="acorn-bg-dark.svg"
   inkscape:version="0.92.4 (5da689c313, 2019-01-14)">
  <metadata
     id="metadata1900">
    <rdf:RDF>
      <cc:Work
         rdf:about="">
        <dc:format>image/svg+xml</dc:format>
        <dc:type
           rdf:resource="http://purl.org/dc/dcmitype/StillImage" />
        <dc:title>floating-cogs</dc:title>
      </cc:Work>
    </rdf:RDF>
  </metadata>
  <defs
     id="defs1898" />
  <sodipodi:namedview
     pagecolor="#ffffff"
     bordercolor="#666666"
     borderopacity="1"
     objecttolerance="10"
     gridtolerance="10"
     guidetolerance="10"
     inkscape:pageopacity="0"
     inkscape:pageshadow="2"
     inkscape:window-width="3840"
     inkscape:window-height="2047"
     id="namedview1896"
     showgrid="false"
     inkscape:zoom="3.0583333"
     inkscape:cx="139.4064"
     inkscape:cy="-99.42365"
     inkscape:window-x="2560"
     inkscape:window-y="0"
     inkscape:window-maximized="1"
     inkscape:current-layer="svg1894" />
  <!-- Generator: Sketch 60 (88103) - https://sketch.com -->
  <title
     id="title1887">floating-cogs</title>
  <desc
     id="desc1889">Created with Sketch.</desc>
  <g
     id="g3101"
     style="fill:#dfdfdf;fill-opacity:0.0591716;opacity:1">
    <g
       style="fill:#dfdfdf;fill-opacity:0.0591716"
       id="g3049">
      <path
         inkscape:connector-curvature="0"
         id="path2850"
         d="m 0.3896299,-20 c -1.17777398,0 -1.19424798,1.107954 -1.19424798,1.107954 v 1.428466 C -5.7203941,-17.27226 -9.3075681,-15.339326 -11.594224,-12.61705 -14.00437,-9.7477614 -15,-6.0912093 -15,-2.7314863 c 0,1.95904205 0.5855,3.7995387 1.543002,5.4383985 0.202454,4.0481751 1.57391,8.2319868 3.8486979,11.5075638 C -7.2908501,17.551476 -3.9576281,20 5.1392e-4,20 3.9584839,20 7.2911239,17.552286 9.608296,14.2155 11.883406,10.939287 13.25596,6.7538153 13.458034,2.7048608 14.414798,1.0665898 15,-0.77308765 15,-2.7314863 15,-6.0912093 14.00437,-9.7477614 11.594222,-12.61705 9.430252,-15.193268 6.1006019,-17.060774 1.5838759,-17.416478 v -1.475568 c 0,0 -0.0162,-1.107954 -1.194246,-1.107954 z m -0.38910998,4.715464 c 4.78793598,0 7.88096598,1.687454 9.88513008,4.073419 2.004162,2.3859646 2.892472,5.5547573 2.892472,8.4796307 0,0.02765 -0.0112,0.05243 -0.0112,0.079878 C 12.081908,-4.6798525 10.962198,-6.3164441 9.419128,-7.4428417 6.8952799,-9.2851784 3.5613199,-9.9331774 7.2792e-4,-9.9331774 c -3.56059802,-5e-6 -6.89558802,0.647999 -9.41943602,2.4903357 -1.5433459,1.1265986 -2.6628319,2.7634918 -3.3478179,4.792259 -2.74e-4,-0.02765 -0.0112,-0.053036 -0.0112,-0.080884 -6e-6,-2.9248734 0.88831,-6.0936667 2.8924739,-8.4796303 2.004164,-2.385966 5.09823,-4.073419 9.88616002,-4.073419 z m 0,7.5498528 c 3.28076198,0 6.13938998,0.6308723 8.09893598,2.0612869 1.9595421,1.43041 3.1770661,3.6365895 3.1770661,7.3727031 0,0.2270698 -0.005,0.4597182 -0.0148,0.6952886 -0.14382,3.6782939 -1.439726,7.6288076 -3.4854581,10.5747106 -2.045728,2.9459 -4.746678,4.832192 -7.77604998,4.832192 -3.02950402,0 -5.73109002,-1.88606 -7.77708602,-4.832192 -2.045936,-2.946131 -3.3417379,-6.8973767 -3.4854019,-10.5757362 -0.0092,-0.2322982 -0.0148,-0.4645448 -0.0148,-0.694263 0,-3.7361184 1.217522,-5.9422931 3.1770639,-7.3727031 1.95955,-1.4304146 4.819208,-2.0612869 8.09997002,-2.0612869 z"
         style="opacity:1;fill:#dfdfdf;fill-opacity:0.0591716;stroke:none;stroke-width:2.26555109;stroke-linecap:round;stroke-linejoin:round;stroke-miterlimit:4;stroke-dasharray:none;stroke-dashoffset:0;stroke-opacity:1" />
      <path
         style="opacity:1;fill:#dfdfdf;fill-opacity:0.0591716;stroke:none;stroke-width:2.26555109;stroke-linecap:round;stroke-linejoin:round;stroke-miterlimit:4;stroke-dasharray:none;stroke-dashoffset:0;stroke-opacity:1"
         d="m 150.38963,-20 c -1.17778,0 -1.19425,1.107954 -1.19425,1.107954 v 1.428466 c -4.91578,0.19132 -8.50295,2.124254 -10.78961,4.84653 C 135.99563,-9.7477614 135,-6.0912093 135,-2.7314863 c 0,1.95904205 0.5855,3.7995387 1.543,5.4383985 0.20245,4.0481751 1.57391,8.2319868 3.8487,11.5075638 2.31745,3.337 5.65067,5.785524 9.60881,5.785524 3.95797,0 7.29061,-2.447714 9.60779,-5.7845 2.27511,-3.276213 3.64766,-7.4616847 3.84973,-11.5106392 C 164.4148,1.0665898 165,-0.77308765 165,-2.7314863 c 0,-3.359723 -0.99563,-7.0162751 -3.40578,-9.8855637 -2.16397,-2.576218 -5.49362,-4.443724 -10.01035,-4.799428 v -1.475568 c 0,0 -0.0162,-1.107954 -1.19424,-1.107954 z m -0.38911,4.715464 c 4.78794,0 7.88097,1.687454 9.88513,4.073419 2.00416,2.3859646 2.89247,5.5547573 2.89247,8.4796307 0,0.02765 -0.0112,0.05243 -0.0112,0.079878 -0.68501,-2.0282442 -1.80472,-3.6648358 -3.34779,-4.7912334 -2.52385,-1.8423367 -5.85781,-2.4903357 -9.4184,-2.4903357 -3.5606,-5e-6 -6.89559,0.647999 -9.41944,2.4903357 -1.54335,1.1265986 -2.66283,2.7634918 -3.34782,4.792259 -2.7e-4,-0.02765 -0.0112,-0.053036 -0.0112,-0.080884 0,-2.9248734 0.88831,-6.0936667 2.89248,-8.4796303 2.00416,-2.385966 5.09823,-4.073419 9.88616,-4.073419 z m 0,7.5498528 c 3.28076,0 6.13939,0.6308723 8.09894,2.0612869 1.95954,1.43041 3.17706,3.6365895 3.17706,7.3727031 0,0.2270698 -0.005,0.4597182 -0.0148,0.6952886 -0.14382,3.6782939 -1.43972,7.6288076 -3.48546,10.5747106 -2.04572,2.9459 -4.74667,4.832192 -7.77605,4.832192 -3.0295,0 -5.73109,-1.88606 -7.77708,-4.832192 -2.04594,-2.946131 -3.34174,-6.8973767 -3.48541,-10.5757362 -0.009,-0.2322982 -0.0148,-0.4645448 -0.0148,-0.694263 0,-3.7361184 1.21753,-5.9422931 3.17707,-7.3727031 1.95955,-1.4304146 4.81921,-2.0612869 8.09997,-2.0612869 z"
         id="path3037"
         inkscape:connector-curvature="0" />
      <path
         inkscape:connector-curvature="0"
         id="path3039"
         d="m 100.38963,-20 c -1.177776,0 -1.194246,1.107954 -1.194246,1.107954 v 1.428466 c -4.915776,0.19132 -8.502942,2.124254 -10.789602,4.84653 -2.41014,2.8692886 -3.40577,6.5258407 -3.40577,9.8855637 0,1.95904205 0.5855,3.7995387 1.543,5.4383985 0.20245,4.0481751 1.57391,8.2319868 3.8487,11.5075638 2.31745,3.337 5.650666,5.785524 9.608798,5.785524 3.95797,0 7.29061,-2.447714 9.60779,-5.7845 2.27511,-3.276213 3.64766,-7.4616847 3.84973,-11.5106392 C 114.4148,1.0665898 115,-0.77308765 115,-2.7314863 c 0,-3.359723 -0.99563,-7.0162751 -3.40578,-9.8855637 -2.16397,-2.576218 -5.49362,-4.443724 -10.01035,-4.799428 v -1.475568 c 0,0 -0.0162,-1.107954 -1.19424,-1.107954 z m -0.38911,4.715464 c 4.78794,0 7.88097,1.687454 9.88513,4.073419 2.00416,2.3859646 2.89247,5.5547573 2.89247,8.4796307 0,0.02765 -0.0112,0.05243 -0.0112,0.079878 -0.68501,-2.0282442 -1.80472,-3.6648358 -3.34779,-4.7912334 -2.52385,-1.8423367 -5.85781,-2.4903357 -9.4184,-2.4903357 -3.560596,-5e-6 -6.895578,0.647999 -9.419428,2.4903357 -1.54335,1.1265986 -2.66283,2.7634918 -3.34782,4.792259 -2.7e-4,-0.02765 -0.0112,-0.053036 -0.0112,-0.080884 0,-2.9248734 0.88831,-6.0936667 2.89248,-8.4796303 2.00416,-2.385966 5.098226,-4.073419 9.886148,-4.073419 z m 0,7.5498528 c 3.28076,0 6.13939,0.6308723 8.09894,2.0612869 1.95954,1.43041 3.17706,3.6365895 3.17706,7.3727031 0,0.2270698 -0.005,0.4597182 -0.0148,0.6952886 -0.14382,3.6782939 -1.43972,7.6288076 -3.48546,10.5747106 -2.04572,2.9459 -4.74667,4.832192 -7.77605,4.832192 -3.029496,0 -5.731082,-1.88606 -7.777068,-4.832192 -2.04594,-2.946131 -3.34174,-6.8973767 -3.48541,-10.5757362 -0.009,-0.2322982 -0.0148,-0.4645448 -0.0148,-0.694263 0,-3.7361184 1.21753,-5.9422931 3.17707,-7.3727031 1.959546,-1.4304146 4.819202,-2.0612869 8.099962,-2.0612869 z"
         style="opacity:1;fill:#dfdfdf;fill-opacity:0.0591716;stroke:none;stroke-width:2.26555109;stroke-linecap:round;stroke-linejoin:round;stroke-miterlimit:4;stroke-dasharray:none;stroke-dashoffset:0;stroke-opacity:1" />
      <path
         style="opacity:1;fill:#dfdfdf;fill-opacity:0.0591716;stroke:none;stroke-width:2.26555109;stroke-linecap:round;stroke-linejoin:round;stroke-miterlimit:4;stroke-dasharray:none;stroke-dashoffset:0;stroke-opacity:1"
         d="m 50.38963,-20 c -1.17778,0 -1.19425,1.107954 -1.19425,1.107954 v 1.428466 c -4.91578,0.19132 -8.502946,2.124254 -10.789606,4.84653 -2.41014,2.8692886 -3.40577,6.5258407 -3.40577,9.8855637 0,1.95904205 0.5855,3.7995387 1.543,5.4383985 0.20245,4.0481751 1.57391,8.2319868 3.8487,11.5075638 C 42.709154,17.551476 46.04237,20 50.00051,20 53.95848,20 57.29112,17.552286 59.6083,14.2155 61.88341,10.939287 63.25596,6.7538153 63.45803,2.7048608 64.4148,1.0665898 65,-0.77308765 65,-2.7314863 c 0,-3.359723 -0.99563,-7.0162751 -3.40578,-9.8855637 -2.16397,-2.576218 -5.49362,-4.443724 -10.01035,-4.799428 v -1.475568 c 0,0 -0.0162,-1.107954 -1.19424,-1.107954 z m -0.38911,4.715464 c 4.78794,0 7.88097,1.687454 9.88513,4.073419 2.00416,2.3859646 2.89247,5.5547573 2.89247,8.4796307 0,0.02765 -0.0112,0.05243 -0.0112,0.079878 -0.68501,-2.0282442 -1.80472,-3.6648358 -3.34779,-4.7912334 -2.52385,-1.8423367 -5.85781,-2.4903357 -9.4184,-2.4903357 -3.5606,-5e-6 -6.895586,0.647999 -9.419436,2.4903357 -1.54335,1.1265986 -2.66283,2.7634918 -3.34782,4.792259 -2.7e-4,-0.02765 -0.0112,-0.053036 -0.0112,-0.080884 0,-2.9248734 0.88831,-6.0936667 2.89248,-8.4796303 2.00416,-2.385966 5.098226,-4.073419 9.886156,-4.073419 z m 0,7.5498528 c 3.28076,0 6.13939,0.6308723 8.09894,2.0612869 1.95954,1.43041 3.17706,3.6365895 3.17706,7.3727031 0,0.2270698 -0.005,0.4597182 -0.0148,0.6952886 -0.14382,3.6782939 -1.43972,7.6288076 -3.48546,10.5747106 -2.04572,2.9459 -4.74667,4.832192 -7.77605,4.832192 -3.0295,0 -5.73109,-1.88606 -7.777076,-4.832192 -2.04594,-2.946131 -3.34174,-6.8973767 -3.48541,-10.5757362 -0.009,-0.2322982 -0.0148,-0.4645448 -0.0148,-0.694263 0,-3.7361184 1.21753,-5.9422931 3.17707,-7.3727031 1.959546,-1.4304146 4.819206,-2.0612869 8.099966,-2.0612869 z"
         id="path3041"
         inkscape:connector-curvature="0" />
    </g>
    <g
       style="fill:#dfdfdf;fill-opacity:0.0591716"
       transform="translate(0,49.999998)"
       id="g3059">
      <path
         style="opacity:1;fill:#dfdfdf;fill-opacity:0.0591716;stroke:none;stroke-width:2.26555109;stroke-linecap:round;stroke-linejoin:round;stroke-miterlimit:4;stroke-dasharray:none;stroke-dashoffset:0;stroke-opacity:1"
         d="m 0.3896299,-20 c -1.17777398,0 -1.19424798,1.107954 -1.19424798,1.107954 v 1.428466 C -5.7203941,-17.27226 -9.3075681,-15.339326 -11.594224,-12.61705 -14.00437,-9.7477614 -15,-6.0912093 -15,-2.7314863 c 0,1.95904205 0.5855,3.7995387 1.543002,5.4383985 0.202454,4.0481751 1.57391,8.2319868 3.8486979,11.5075638 C -7.2908501,17.551476 -3.9576281,20 5.1392e-4,20 3.9584839,20 7.2911239,17.552286 9.608296,14.2155 11.883406,10.939287 13.25596,6.7538153 13.458034,2.7048608 14.414798,1.0665898 15,-0.77308765 15,-2.7314863 15,-6.0912093 14.00437,-9.7477614 11.594222,-12.61705 9.430252,-15.193268 6.1006019,-17.060774 1.5838759,-17.416478 v -1.475568 c 0,0 -0.0162,-1.107954 -1.194246,-1.107954 z m -0.38910998,4.715464 c 4.78793598,0 7.88096598,1.687454 9.88513008,4.073419 2.004162,2.3859646 2.892472,5.5547573 2.892472,8.4796307 0,0.02765 -0.0112,0.05243 -0.0112,0.079878 C 12.081908,-4.6798525 10.962198,-6.3164441 9.419128,-7.4428417 6.8952799,-9.2851784 3.5613199,-9.9331774 7.2792e-4,-9.9331774 c -3.56059802,-5e-6 -6.89558802,0.647999 -9.41943602,2.4903357 -1.5433459,1.1265986 -2.6628319,2.7634918 -3.3478179,4.792259 -2.74e-4,-0.02765 -0.0112,-0.053036 -0.0112,-0.080884 -6e-6,-2.9248734 0.88831,-6.0936667 2.8924739,-8.4796303 2.004164,-2.385966 5.09823,-4.073419 9.88616002,-4.073419 z m 0,7.5498528 c 3.28076198,0 6.13938998,0.6308723 8.09893598,2.0612869 1.9595421,1.43041 3.1770661,3.6365895 3.1770661,7.3727031 0,0.2270698 -0.005,0.4597182 -0.0148,0.6952886 -0.14382,3.6782939 -1.439726,7.6288076 -3.4854581,10.5747106 -2.045728,2.9459 -4.746678,4.832192 -7.77604998,4.832192 -3.02950402,0 -5.73109002,-1.88606 -7.77708602,-4.832192 -2.045936,-2.946131 -3.3417379,-6.8973767 -3.4854019,-10.5757362 -0.0092,-0.2322982 -0.0148,-0.4645448 -0.0148,-0.694263 0,-3.7361184 1.217522,-5.9422931 3.1770639,-7.3727031 1.95955,-1.4304146 4.819208,-2.0612869 8.09997002,-2.0612869 z"
         id="path3051"
         inkscape:connector-curvature="0" />
      <path
         inkscape:connector-curvature="0"
         id="path3053"
         d="m 150.38963,-20 c -1.17778,0 -1.19425,1.107954 -1.19425,1.107954 v 1.428466 c -4.91578,0.19132 -8.50295,2.124254 -10.78961,4.84653 C 135.99563,-9.7477614 135,-6.0912093 135,-2.7314863 c 0,1.95904205 0.5855,3.7995387 1.543,5.4383985 0.20245,4.0481751 1.57391,8.2319868 3.8487,11.5075638 2.31745,3.337 5.65067,5.785524 9.60881,5.785524 3.95797,0 7.29061,-2.447714 9.60779,-5.7845 2.27511,-3.276213 3.64766,-7.4616847 3.84973,-11.5106392 C 164.4148,1.0665898 165,-0.77308765 165,-2.7314863 c 0,-3.359723 -0.99563,-7.0162751 -3.40578,-9.8855637 -2.16397,-2.576218 -5.49362,-4.443724 -10.01035,-4.799428 v -1.475568 c 0,0 -0.0162,-1.107954 -1.19424,-1.107954 z m -0.38911,4.715464 c 4.78794,0 7.88097,1.687454 9.88513,4.073419 2.00416,2.3859646 2.89247,5.5547573 2.89247,8.4796307 0,0.02765 -0.0112,0.05243 -0.0112,0.079878 -0.68501,-2.0282442 -1.80472,-3.6648358 -3.34779,-4.7912334 -2.52385,-1.8423367 -5.85781,-2.4903357 -9.4184,-2.4903357 -3.5606,-5e-6 -6.89559,0.647999 -9.41944,2.4903357 -1.54335,1.1265986 -2.66283,2.7634918 -3.34782,4.792259 -2.7e-4,-0.02765 -0.0112,-0.053036 -0.0112,-0.080884 0,-2.9248734 0.88831,-6.0936667 2.89248,-8.4796303 2.00416,-2.385966 5.09823,-4.073419 9.88616,-4.073419 z m 0,7.5498528 c 3.28076,0 6.13939,0.6308723 8.09894,2.0612869 1.95954,1.43041 3.17706,3.6365895 3.17706,7.3727031 0,0.2270698 -0.005,0.4597182 -0.0148,0.6952886 -0.14382,3.6782939 -1.43972,7.6288076 -3.48546,10.5747106 -2.04572,2.9459 -4.74667,4.832192 -7.77605,4.832192 -3.0295,0 -5.73109,-1.88606 -7.77708,-4.832192 -2.04594,-2.946131 -3.34174,-6.8973767 -3.48541,-10.5757362 -0.009,-0.2322982 -0.0148,-0.4645448 -0.0148,-0.694263 0,-3.7361184 1.21753,-5.9422931 3.17707,-7.3727031 1.95955,-1.4304146 4.81921,-2.0612869 8.09997,-2.0612869 z"
         style="opacity:1;fill:#dfdfdf;fill-opacity:0.0591716;stroke:none;stroke-width:2.26555109;stroke-linecap:round;stroke-linejoin:round;stroke-miterlimit:4;stroke-dasharray:none;stroke-dashoffset:0;stroke-opacity:1" />
      <path
         style="opacity:1;fill:#dfdfdf;fill-opacity:0.0591716;stroke:none;stroke-width:2.26555109;stroke-linecap:round;stroke-linejoin:round;stroke-miterlimit:4;stroke-dasharray:none;stroke-dashoffset:0;stroke-opacity:1"
         d="m 100.38963,-20 c -1.177776,0 -1.194246,1.107954 -1.194246,1.107954 v 1.428466 c -4.915776,0.19132 -8.502942,2.124254 -10.789602,4.84653 -2.41014,2.8692886 -3.40577,6.5258407 -3.40577,9.8855637 0,1.95904205 0.5855,3.7995387 1.543,5.4383985 0.20245,4.0481751 1.57391,8.2319868 3.8487,11.5075638 2.31745,3.337 5.650666,5.785524 9.608798,5.785524 3.95797,0 7.29061,-2.447714 9.60779,-5.7845 2.27511,-3.276213 3.64766,-7.4616847 3.84973,-11.5106392 C 114.4148,1.0665898 115,-0.77308765 115,-2.7314863 c 0,-3.359723 -0.99563,-7.0162751 -3.40578,-9.8855637 -2.16397,-2.576218 -5.49362,-4.443724 -10.01035,-4.799428 v -1.475568 c 0,0 -0.0162,-1.107954 -1.19424,-1.107954 z m -0.38911,4.715464 c 4.78794,0 7.88097,1.687454 9.88513,4.073419 2.00416,2.3859646 2.89247,5.5547573 2.89247,8.4796307 0,0.02765 -0.0112,0.05243 -0.0112,0.079878 -0.68501,-2.0282442 -1.80472,-3.6648358 -3.34779,-4.7912334 -2.52385,-1.8423367 -5.85781,-2.4903357 -9.4184,-2.4903357 -3.560596,-5e-6 -6.895578,0.647999 -9.419428,2.4903357 -1.54335,1.1265986 -2.66283,2.7634918 -3.34782,4.792259 -2.7e-4,-0.02765 -0.0112,-0.053036 -0.0112,-0.080884 0,-2.9248734 0.88831,-6.0936667 2.89248,-8.4796303 2.00416,-2.385966 5.098226,-4.073419 9.886148,-4.073419 z m 0,7.5498528 c 3.28076,0 6.13939,0.6308723 8.09894,2.0612869 1.95954,1.43041 3.17706,3.6365895 3.17706,7.3727031 0,0.2270698 -0.005,0.4597182 -0.0148,0.6952886 -0.14382,3.6782939 -1.43972,7.6288076 -3.48546,10.5747106 -2.04572,2.9459 -4.74667,4.832192 -7.77605,4.832192 -3.029496,0 -5.731082,-1.88606 -7.777068,-4.832192 -2.04594,-2.946131 -3.34174,-6.8973767 -3.48541,-10.5757362 -0.009,-0.2322982 -0.0148,-0.4645448 -0.0148,-0.694263 0,-3.7361184 1.21753,-5.9422931 3.17707,-7.3727031 1.959546,-1.4304146 4.819202,-2.0612869 8.099962,-2.0612869 z"
         id="path3055"
         inkscape:connector-curvature="0" />
      <path
         inkscape:connector-curvature="0"
         id="path3057"
         d="m 50.38963,-20 c -1.17778,0 -1.19425,1.107954 -1.19425,1.107954 v 1.428466 c -4.91578,0.19132 -8.502946,2.124254 -10.789606,4.84653 -2.41014,2.8692886 -3.40577,6.5258407 -3.40577,9.8855637 0,1.95904205 0.5855,3.7995387 1.543,5.4383985 0.20245,4.0481751 1.57391,8.2319868 3.8487,11.5075638 C 42.709154,17.551476 46.04237,20 50.00051,20 53.95848,20 57.29112,17.552286 59.6083,14.2155 61.88341,10.939287 63.25596,6.7538153 63.45803,2.7048608 64.4148,1.0665898 65,-0.77308765 65,-2.7314863 c 0,-3.359723 -0.99563,-7.0162751 -3.40578,-9.8855637 -2.16397,-2.576218 -5.49362,-4.443724 -10.01035,-4.799428 v -1.475568 c 0,0 -0.0162,-1.107954 -1.19424,-1.107954 z m -0.38911,4.715464 c 4.78794,0 7.88097,1.687454 9.88513,4.073419 2.00416,2.3859646 2.89247,5.5547573 2.89247,8.4796307 0,0.02765 -0.0112,0.05243 -0.0112,0.079878 -0.68501,-2.0282442 -1.80472,-3.6648358 -3.34779,-4.7912334 -2.52385,-1.8423367 -5.85781,-2.4903357 -9.4184,-2.4903357 -3.5606,-5e-6 -6.895586,0.647999 -9.419436,2.4903357 -1.54335,1.1265986 -2.66283,2.7634918 -3.34782,4.792259 -2.7e-4,-0.02765 -0.0112,-0.053036 -0.0112,-0.080884 0,-2.9248734 0.88831,-6.0936667 2.89248,-8.4796303 2.00416,-2.385966 5.098226,-4.073419 9.886156,-4.073419 z m 0,7.5498528 c 3.28076,0 6.13939,0.6308723 8.09894,2.0612869 1.95954,1.43041 3.17706,3.6365895 3.17706,7.3727031 0,0.2270698 -0.005,0.4597182 -0.0148,0.6952886 -0.14382,3.6782939 -1.43972,7.6288076 -3.48546,10.5747106 -2.04572,2.9459 -4.74667,4.832192 -7.77605,4.832192 -3.0295,0 -5.73109,-1.88606 -7.777076,-4.832192 -2.04594,-2.946131 -3.34174,-6.8973767 -3.48541,-10.5757362 -0.009,-0.2322982 -0.0148,-0.4645448 -0.0148,-0.694263 0,-3.7361184 1.21753,-5.9422931 3.17707,-7.3727031 1.959546,-1.4304146 4.819206,-2.0612869 8.099966,-2.0612869 z"
         style="opacity:1;fill:#dfdfdf;fill-opacity:0.0591716;stroke:none;stroke-width:2.26555109;stroke-linecap:round;stroke-linejoin:round;stroke-miterlimit:4;stroke-dasharray:none;stroke-dashoffset:0;stroke-opacity:1" />
    </g>
    <g
       style="fill:#dfdfdf;fill-opacity:0.0591716"
       id="g3069"
       transform="translate(0,100)">
      <path
         inkscape:connector-curvature="0"
         id="path3061"
         d="m 0.3896299,-20 c -1.17777398,0 -1.19424798,1.107954 -1.19424798,1.107954 v 1.428466 C -5.7203941,-17.27226 -9.3075681,-15.339326 -11.594224,-12.61705 -14.00437,-9.7477614 -15,-6.0912093 -15,-2.7314863 c 0,1.95904205 0.5855,3.7995387 1.543002,5.4383985 0.202454,4.0481751 1.57391,8.2319868 3.8486979,11.5075638 C -7.2908501,17.551476 -3.9576281,20 5.1392e-4,20 3.9584839,20 7.2911239,17.552286 9.608296,14.2155 11.883406,10.939287 13.25596,6.7538153 13.458034,2.7048608 14.414798,1.0665898 15,-0.77308765 15,-2.7314863 15,-6.0912093 14.00437,-9.7477614 11.594222,-12.61705 9.430252,-15.193268 6.1006019,-17.060774 1.5838759,-17.416478 v -1.475568 c 0,0 -0.0162,-1.107954 -1.194246,-1.107954 z m -0.38910998,4.715464 c 4.78793598,0 7.88096598,1.687454 9.88513008,4.073419 2.004162,2.3859646 2.892472,5.5547573 2.892472,8.4796307 0,0.02765 -0.0112,0.05243 -0.0112,0.079878 C 12.081908,-4.6798525 10.962198,-6.3164441 9.419128,-7.4428417 6.8952799,-9.2851784 3.5613199,-9.9331774 7.2792e-4,-9.9331774 c -3.56059802,-5e-6 -6.89558802,0.647999 -9.41943602,2.4903357 -1.5433459,1.1265986 -2.6628319,2.7634918 -3.3478179,4.792259 -2.74e-4,-0.02765 -0.0112,-0.053036 -0.0112,-0.080884 -6e-6,-2.9248734 0.88831,-6.0936667 2.8924739,-8.4796303 2.004164,-2.385966 5.09823,-4.073419 9.88616002,-4.073419 z m 0,7.5498528 c 3.28076198,0 6.13938998,0.6308723 8.09893598,2.0612869 1.9595421,1.43041 3.1770661,3.6365895 3.1770661,7.3727031 0,0.2270698 -0.005,0.4597182 -0.0148,0.6952886 -0.14382,3.6782939 -1.439726,7.6288076 -3.4854581,10.5747106 -2.045728,2.9459 -4.746678,4.832192 -7.77604998,4.832192 -3.02950402,0 -5.73109002,-1.88606 -7.77708602,-4.832192 -2.045936,-2.946131 -3.3417379,-6.8973767 -3.4854019,-10.5757362 -0.0092,-0.2322982 -0.0148,-0.4645448 -0.0148,-0.694263 0,-3.7361184 1.217522,-5.9422931 3.1770639,-7.3727031 1.95955,-1.4304146 4.819208,-2.0612869 8.09997002,-2.0612869 z"
         style="opacity:1;fill:#dfdfdf;fill-opacity:0.0591716;stroke:none;stroke-width:2.26555109;stroke-linecap:round;stroke-linejoin:round;stroke-miterlimit:4;stroke-dasharray:none;stroke-dashoffset:0;stroke-opacity:1" />
      <path
         style="opacity:1;fill:#dfdfdf;fill-opacity:0.0591716;stroke:none;stroke-width:2.26555109;stroke-linecap:round;stroke-linejoin:round;stroke-miterlimit:4;stroke-dasharray:none;stroke-dashoffset:0;stroke-opacity:1"
         d="m 150.38963,-20 c -1.17778,0 -1.19425,1.107954 -1.19425,1.107954 v 1.428466 c -4.91578,0.19132 -8.50295,2.124254 -10.78961,4.84653 C 135.99563,-9.7477614 135,-6.0912093 135,-2.7314863 c 0,1.95904205 0.5855,3.7995387 1.543,5.4383985 0.20245,4.0481751 1.57391,8.2319868 3.8487,11.5075638 2.31745,3.337 5.65067,5.785524 9.60881,5.785524 3.95797,0 7.29061,-2.447714 9.60779,-5.7845 2.27511,-3.276213 3.64766,-7.4616847 3.84973,-11.5106392 C 164.4148,1.0665898 165,-0.77308765 165,-2.7314863 c 0,-3.359723 -0.99563,-7.0162751 -3.40578,-9.8855637 -2.16397,-2.576218 -5.49362,-4.443724 -10.01035,-4.799428 v -1.475568 c 0,0 -0.0162,-1.107954 -1.19424,-1.107954 z m -0.38911,4.715464 c 4.78794,0 7.88097,1.687454 9.88513,4.073419 2.00416,2.3859646 2.89247,5.5547573 2.89247,8.4796307 0,0.02765 -0.0112,0.05243 -0.0112,0.079878 -0.68501,-2.0282442 -1.80472,-3.6648358 -3.34779,-4.7912334 -2.52385,-1.8423367 -5.85781,-2.4903357 -9.4184,-2.4903357 -3.5606,-5e-6 -6.89559,0.647999 -9.41944,2.4903357 -1.54335,1.1265986 -2.66283,2.7634918 -3.34782,4.792259 -2.7e-4,-0.02765 -0.0112,-0.053036 -0.0112,-0.080884 0,-2.9248734 0.88831,-6.0936667 2.89248,-8.4796303 2.00416,-2.385966 5.09823,-4.073419 9.88616,-4.073419 z m 0,7.5498528 c 3.28076,0 6.13939,0.6308723 8.09894,2.0612869 1.95954,1.43041 3.17706,3.6365895 3.17706,7.3727031 0,0.2270698 -0.005,0.4597182 -0.0148,0.6952886 -0.14382,3.6782939 -1.43972,7.6288076 -3.48546,10.5747106 -2.04572,2.9459 -4.74667,4.832192 -7.77605,4.832192 -3.0295,0 -5.73109,-1.88606 -7.77708,-4.832192 -2.04594,-2.946131 -3.34174,-6.8973767 -3.48541,-10.5757362 -0.009,-0.2322982 -0.0148,-0.4645448 -0.0148,-0.694263 0,-3.7361184 1.21753,-5.9422931 3.17707,-7.3727031 1.95955,-1.4304146 4.81921,-2.0612869 8.09997,-2.0612869 z"
         id="path3063"
         inkscape:connector-curvature="0" />
      <path
         inkscape:connector-curvature="0"
         id="path3065"
         d="m 100.38963,-20 c -1.177776,0 -1.194246,1.107954 -1.194246,1.107954 v 1.428466 c -4.915776,0.19132 -8.502942,2.124254 -10.789602,4.84653 -2.41014,2.8692886 -3.40577,6.5258407 -3.40577,9.8855637 0,1.95904205 0.5855,3.7995387 1.543,5.4383985 0.20245,4.0481751 1.57391,8.2319868 3.8487,11.5075638 2.31745,3.337 5.650666,5.785524 9.608798,5.785524 3.95797,0 7.29061,-2.447714 9.60779,-5.7845 2.27511,-3.276213 3.64766,-7.4616847 3.84973,-11.5106392 C 114.4148,1.0665898 115,-0.77308765 115,-2.7314863 c 0,-3.359723 -0.99563,-7.0162751 -3.40578,-9.8855637 -2.16397,-2.576218 -5.49362,-4.443724 -10.01035,-4.799428 v -1.475568 c 0,0 -0.0162,-1.107954 -1.19424,-1.107954 z m -0.38911,4.715464 c 4.78794,0 7.88097,1.687454 9.88513,4.073419 2.00416,2.3859646 2.89247,5.5547573 2.89247,8.4796307 0,0.02765 -0.0112,0.05243 -0.0112,0.079878 -0.68501,-2.0282442 -1.80472,-3.6648358 -3.34779,-4.7912334 -2.52385,-1.8423367 -5.85781,-2.4903357 -9.4184,-2.4903357 -3.560596,-5e-6 -6.895578,0.647999 -9.419428,2.4903357 -1.54335,1.1265986 -2.66283,2.7634918 -3.34782,4.792259 -2.7e-4,-0.02765 -0.0112,-0.053036 -0.0112,-0.080884 0,-2.9248734 0.88831,-6.0936667 2.89248,-8.4796303 2.00416,-2.385966 5.098226,-4.073419 9.886148,-4.073419 z m 0,7.5498528 c 3.28076,0 6.13939,0.6308723 8.09894,2.0612869 1.95954,1.43041 3.17706,3.6365895 3.17706,7.3727031 0,0.2270698 -0.005,0.4597182 -0.0148,0.6952886 -0.14382,3.6782939 -1.43972,7.6288076 -3.48546,10.5747106 -2.04572,2.9459 -4.74667,4.832192 -7.77605,4.832192 -3.029496,0 -5.731082,-1.88606 -7.777068,-4.832192 -2.04594,-2.946131 -3.34174,-6.8973767 -3.48541,-10.5757362 -0.009,-0.2322982 -0.0148,-0.4645448 -0.0148,-0.694263 0,-3.7361184 1.21753,-5.9422931 3.17707,-7.3727031 1.959546,-1.4304146 4.819202,-2.0612869 8.099962,-2.0612869 z"
         style="opacity:1;fill:#dfdfdf;fill-opacity:0.0591716;stroke:none;stroke-width:2.26555109;stroke-linecap:round;stroke-linejoin:round;stroke-miterlimit:4;stroke-dasharray:none;stroke-dashoffset:0;stroke-opacity:1" />
      <path
         style="opacity:1;fill:#dfdfdf;fill-opacity:0.0591716;stroke:none;stroke-width:2.26555109;stroke-linecap:round;stroke-linejoin:round;stroke-miterlimit:4;stroke-dasharray:none;stroke-dashoffset:0;stroke-opacity:1"
         d="m 50.38963,-20 c -1.17778,0 -1.19425,1.107954 -1.19425,1.107954 v 1.428466 c -4.91578,0.19132 -8.502946,2.124254 -10.789606,4.84653 -2.41014,2.8692886 -3.40577,6.5258407 -3.40577,9.8855637 0,1.95904205 0.5855,3.7995387 1.543,5.4383985 0.20245,4.0481751 1.57391,8.2319868 3.8487,11.5075638 C 42.709154,17.551476 46.04237,20 50.00051,20 53.95848,20 57.29112,17.552286 59.6083,14.2155 61.88341,10.939287 63.25596,6.7538153 63.45803,2.7048608 64.4148,1.0665898 65,-0.77308765 65,-2.7314863 c 0,-3.359723 -0.99563,-7.0162751 -3.40578,-9.8855637 -2.16397,-2.576218 -5.49362,-4.443724 -10.01035,-4.799428 v -1.475568 c 0,0 -0.0162,-1.107954 -1.19424,-1.107954 z m -0.38911,4.715464 c 4.78794,0 7.88097,1.687454 9.88513,4.073419 2.00416,2.3859646 2.89247,5.5547573 2.89247,8.4796307 0,0.02765 -0.0112,0.05243 -0.0112,0.079878 -0.68501,-2.0282442 -1.80472,-3.6648358 -3.34779,-4.7912334 -2.52385,-1.8423367 -5.85781,-2.4903357 -9.4184,-2.4903357 -3.5606,-5e-6 -6.895586,0.647999 -9.419436,2.4903357 -1.54335,1.1265986 -2.66283,2.7634918 -3.34782,4.792259 -2.7e-4,-0.02765 -0.0112,-0.053036 -0.0112,-0.080884 0,-2.9248734 0.88831,-6.0936667 2.89248,-8.4796303 2.00416,-2.385966 5.098226,-4.073419 9.886156,-4.073419 z m 0,7.5498528 c 3.28076,0 6.13939,0.6308723 8.09894,2.0612869 1.95954,1.43041 3.17706,3.6365895 3.17706,7.3727031 0,0.2270698 -0.005,0.4597182 -0.0148,0.6952886 -0.14382,3.6782939 -1.43972,7.6288076 -3.48546,10.5747106 -2.04572,2.9459 -4.74667,4.832192 -7.77605,4.832192 -3.0295,0 -5.73109,-1.88606 -7.777076,-4.832192 -2.04594,-2.946131 -3.34174,-6.8973767 -3.48541,-10.5757362 -0.009,-0.2322982 -0.0148,-0.4645448 -0.0148,-0.694263 0,-3.7361184 1.21753,-5.9422931 3.17707,-7.3727031 1.959546,-1.4304146 4.819206,-2.0612869 8.099966,-2.0612869 z"
         id="path3067"
         inkscape:connector-curvature="0" />
    </g>
    <g
       style="fill:#dfdfdf;fill-opacity:0.0591716"
       transform="translate(0,150)"
       id="g3079">
      <path
         style="opacity:1;fill:#dfdfdf;fill-opacity:0.0591716;stroke:none;stroke-width:2.26555109;stroke-linecap:round;stroke-linejoin:round;stroke-miterlimit:4;stroke-dasharray:none;stroke-dashoffset:0;stroke-opacity:1"
         d="m 0.3896299,-20 c -1.17777398,0 -1.19424798,1.107954 -1.19424798,1.107954 v 1.428466 C -5.7203941,-17.27226 -9.3075681,-15.339326 -11.594224,-12.61705 -14.00437,-9.7477614 -15,-6.0912093 -15,-2.7314863 c 0,1.95904205 0.5855,3.7995387 1.543002,5.4383985 0.202454,4.0481751 1.57391,8.2319868 3.8486979,11.5075638 C -7.2908501,17.551476 -3.9576281,20 5.1392e-4,20 3.9584839,20 7.2911239,17.552286 9.608296,14.2155 11.883406,10.939287 13.25596,6.7538153 13.458034,2.7048608 14.414798,1.0665898 15,-0.77308765 15,-2.7314863 15,-6.0912093 14.00437,-9.7477614 11.594222,-12.61705 9.430252,-15.193268 6.1006019,-17.060774 1.5838759,-17.416478 v -1.475568 c 0,0 -0.0162,-1.107954 -1.194246,-1.107954 z m -0.38910998,4.715464 c 4.78793598,0 7.88096598,1.687454 9.88513008,4.073419 2.004162,2.3859646 2.892472,5.5547573 2.892472,8.4796307 0,0.02765 -0.0112,0.05243 -0.0112,0.079878 C 12.081908,-4.6798525 10.962198,-6.3164441 9.419128,-7.4428417 6.8952799,-9.2851784 3.5613199,-9.9331774 7.2792e-4,-9.9331774 c -3.56059802,-5e-6 -6.89558802,0.647999 -9.41943602,2.4903357 -1.5433459,1.1265986 -2.6628319,2.7634918 -3.3478179,4.792259 -2.74e-4,-0.02765 -0.0112,-0.053036 -0.0112,-0.080884 -6e-6,-2.9248734 0.88831,-6.0936667 2.8924739,-8.4796303 2.004164,-2.385966 5.09823,-4.073419 9.88616002,-4.073419 z m 0,7.5498528 c 3.28076198,0 6.13938998,0.6308723 8.09893598,2.0612869 1.9595421,1.43041 3.1770661,3.6365895 3.1770661,7.3727031 0,0.2270698 -0.005,0.4597182 -0.0148,0.6952886 -0.14382,3.6782939 -1.439726,7.6288076 -3.4854581,10.5747106 -2.045728,2.9459 -4.746678,4.832192 -7.77604998,4.832192 -3.02950402,0 -5.73109002,-1.88606 -7.77708602,-4.832192 -2.045936,-2.946131 -3.3417379,-6.8973767 -3.4854019,-10.5757362 -0.0092,-0.2322982 -0.0148,-0.4645448 -0.0148,-0.694263 0,-3.7361184 1.217522,-5.9422931 3.1770639,-7.3727031 1.95955,-1.4304146 4.819208,-2.0612869 8.09997002,-2.0612869 z"
         id="path3071"
         inkscape:connector-curvature="0" />
      <path
         inkscape:connector-curvature="0"
         id="path3073"
         d="m 150.38963,-20 c -1.17778,0 -1.19425,1.107954 -1.19425,1.107954 v 1.428466 c -4.91578,0.19132 -8.50295,2.124254 -10.78961,4.84653 C 135.99563,-9.7477614 135,-6.0912093 135,-2.7314863 c 0,1.95904205 0.5855,3.7995387 1.543,5.4383985 0.20245,4.0481751 1.57391,8.2319868 3.8487,11.5075638 2.31745,3.337 5.65067,5.785524 9.60881,5.785524 3.95797,0 7.29061,-2.447714 9.60779,-5.7845 2.27511,-3.276213 3.64766,-7.4616847 3.84973,-11.5106392 C 164.4148,1.0665898 165,-0.77308765 165,-2.7314863 c 0,-3.359723 -0.99563,-7.0162751 -3.40578,-9.8855637 -2.16397,-2.576218 -5.49362,-4.443724 -10.01035,-4.799428 v -1.475568 c 0,0 -0.0162,-1.107954 -1.19424,-1.107954 z m -0.38911,4.715464 c 4.78794,0 7.88097,1.687454 9.88513,4.073419 2.00416,2.3859646 2.89247,5.5547573 2.89247,8.4796307 0,0.02765 -0.0112,0.05243 -0.0112,0.079878 -0.68501,-2.0282442 -1.80472,-3.6648358 -3.34779,-4.7912334 -2.52385,-1.8423367 -5.85781,-2.4903357 -9.4184,-2.4903357 -3.5606,-5e-6 -6.89559,0.647999 -9.41944,2.4903357 -1.54335,1.1265986 -2.66283,2.7634918 -3.34782,4.792259 -2.7e-4,-0.02765 -0.0112,-0.053036 -0.0112,-0.080884 0,-2.9248734 0.88831,-6.0936667 2.89248,-8.4796303 2.00416,-2.385966 5.09823,-4.073419 9.88616,-4.073419 z m 0,7.5498528 c 3.28076,0 6.13939,0.6308723 8.09894,2.0612869 1.95954,1.43041 3.17706,3.6365895 3.17706,7.3727031 0,0.2270698 -0.005,0.4597182 -0.0148,0.6952886 -0.14382,3.6782939 -1.43972,7.6288076 -3.48546,10.5747106 -2.04572,2.9459 -4.74667,4.832192 -7.77605,4.832192 -3.0295,0 -5.73109,-1.88606 -7.77708,-4.832192 -2.04594,-2.946131 -3.34174,-6.8973767 -3.48541,-10.5757362 -0.009,-0.2322982 -0.0148,-0.4645448 -0.0148,-0.694263 0,-3.7361184 1.21753,-5.9422931 3.17707,-7.3727031 1.95955,-1.4304146 4.81921,-2.0612869 8.09997,-2.0612869 z"
         style="opacity:1;fill:#dfdfdf;fill-opacity:0.0591716;stroke:none;stroke-width:2.26555109;stroke-linecap:round;stroke-linejoin:round;stroke-miterlimit:4;stroke-dasharray:none;stroke-dashoffset:0;stroke-opacity:1" />
      <path
         style="opacity:1;fill:#dfdfdf;fill-opacity:0.0591716;stroke:none;stroke-width:2.26555109;stroke-linecap:round;stroke-linejoin:round;stroke-miterlimit:4;stroke-dasharray:none;stroke-dashoffset:0;stroke-opacity:1"
         d="m 100.38963,-20 c -1.177776,0 -1.194246,1.107954 -1.194246,1.107954 v 1.428466 c -4.915776,0.19132 -8.502942,2.124254 -10.789602,4.84653 -2.41014,2.8692886 -3.40577,6.5258407 -3.40577,9.8855637 0,1.95904205 0.5855,3.7995387 1.543,5.4383985 0.20245,4.0481751 1.57391,8.2319868 3.8487,11.5075638 2.31745,3.337 5.650666,5.785524 9.608798,5.785524 3.95797,0 7.29061,-2.447714 9.60779,-5.7845 2.27511,-3.276213 3.64766,-7.4616847 3.84973,-11.5106392 C 114.4148,1.0665898 115,-0.77308765 115,-2.7314863 c 0,-3.359723 -0.99563,-7.0162751 -3.40578,-9.8855637 -2.16397,-2.576218 -5.49362,-4.443724 -10.01035,-4.799428 v -1.475568 c 0,0 -0.0162,-1.107954 -1.19424,-1.107954 z m -0.38911,4.715464 c 4.78794,0 7.88097,1.687454 9.88513,4.073419 2.00416,2.3859646 2.89247,5.5547573 2.89247,8.4796307 0,0.02765 -0.0112,0.05243 -0.0112,0.079878 -0.68501,-2.0282442 -1.80472,-3.6648358 -3.34779,-4.7912334 -2.52385,-1.8423367 -5.85781,-2.4903357 -9.4184,-2.4903357 -3.560596,-5e-6 -6.895578,0.647999 -9.419428,2.4903357 -1.54335,1.1265986 -2.66283,2.7634918 -3.34782,4.792259 -2.7e-4,-0.02765 -0.0112,-0.053036 -0.0112,-0.080884 0,-2.9248734 0.88831,-6.0936667 2.89248,-8.4796303 2.00416,-2.385966 5.098226,-4.073419 9.886148,-4.073419 z m 0,7.5498528 c 3.28076,0 6.13939,0.6308723 8.09894,2.0612869 1.95954,1.43041 3.17706,3.6365895 3.17706,7.3727031 0,0.2270698 -0.005,0.4597182 -0.0148,0.6952886 -0.14382,3.6782939 -1.43972,7.6288076 -3.48546,10.5747106 -2.04572,2.9459 -4.74667,4.832192 -7.77605,4.832192 -3.029496,0 -5.731082,-1.88606 -7.777068,-4.832192 -2.04594,-2.946131 -3.34174,-6.8973767 -3.48541,-10.5757362 -0.009,-0.2322982 -0.0148,-0.4645448 -0.0148,-0.694263 0,-3.7361184 1.21753,-5.9422931 3.17707,-7.3727031 1.959546,-1.4304146 4.819202,-2.0612869 8.099962,-2.0612869 z"
         id="path3075"
         inkscape:connector-curvature="0" />
      <path
         inkscape:connector-curvature="0"
         id="path3077"
         d="m 50.38963,-20 c -1.17778,0 -1.19425,1.107954 -1.19425,1.107954 v 1.428466 c -4.91578,0.19132 -8.502946,2.124254 -10.789606,4.84653 -2.41014,2.8692886 -3.40577,6.5258407 -3.40577,9.8855637 0,1.95904205 0.5855,3.7995387 1.543,5.4383985 0.20245,4.0481751 1.57391,8.2319868 3.8487,11.5075638 C 42.709154,17.551476 46.04237,20 50.00051,20 53.95848,20 57.29112,17.552286 59.6083,14.2155 61.88341,10.939287 63.25596,6.7538153 63.45803,2.7048608 64.4148,1.0665898 65,-0.77308765 65,-2.7314863 c 0,-3.359723 -0.99563,-7.0162751 -3.40578,-9.8855637 -2.16397,-2.576218 -5.49362,-4.443724 -10.01035,-4.799428 v -1.475568 c 0,0 -0.0162,-1.107954 -1.19424,-1.107954 z m -0.38911,4.715464 c 4.78794,0 7.88097,1.687454 9.88513,4.073419 2.00416,2.3859646 2.89247,5.5547573 2.89247,8.4796307 0,0.02765 -0.0112,0.05243 -0.0112,0.079878 -0.68501,-2.0282442 -1.80472,-3.6648358 -3.34779,-4.7912334 -2.52385,-1.8423367 -5.85781,-2.4903357 -9.4184,-2.4903357 -3.5606,-5e-6 -6.895586,0.647999 -9.419436,2.4903357 -1.54335,1.1265986 -2.66283,2.7634918 -3.34782,4.792259 -2.7e-4,-0.02765 -0.0112,-0.053036 -0.0112,-0.080884 0,-2.9248734 0.88831,-6.0936667 2.89248,-8.4796303 2.00416,-2.385966 5.098226,-4.073419 9.886156,-4.073419 z m 0,7.5498528 c 3.28076,0 6.13939,0.6308723 8.09894,2.0612869 1.95954,1.43041 3.17706,3.6365895 3.17706,7.3727031 0,0.2270698 -0.005,0.4597182 -0.0148,0.6952886 -0.14382,3.6782939 -1.43972,7.6288076 -3.48546,10.5747106 -2.04572,2.9459 -4.74667,4.832192 -7.77605,4.832192 -3.0295,0 -5.73109,-1.88606 -7.777076,-4.832192 -2.04594,-2.946131 -3.34174,-6.8973767 -3.48541,-10.5757362 -0.009,-0.2322982 -0.0148,-0.4645448 -0.0148,-0.694263 0,-3.7361184 1.21753,-5.9422931 3.17707,-7.3727031 1.959546,-1.4304146 4.819206,-2.0612869 8.099966,-2.0612869 z"
         style="opacity:1;fill:#dfdfdf;fill-opacity:0.0591716;stroke:none;stroke-width:2.26555109;stroke-linecap:round;stroke-linejoin:round;stroke-miterlimit:4;stroke-dasharray:none;stroke-dashoffset:0;stroke-opacity:1" />
    </g>
  </g>
</svg>
