<?xml version="1.0" encoding="UTF-8"?>
<svg width="512px" height="512px" viewBox="0 0 512 512" version="1.1" xmlns="http://www.w3.org/2000/svg" xmlns:xlink="http://www.w3.org/1999/xlink">
    <!-- Generator: Sketch 60 (88103) - https://sketch.com -->
    <title>001-apple</title>
    <desc>Created with Sketch.</desc>
    <g id="Page-1" stroke="none" stroke-width="1" fill="none" fill-rule="evenodd">
        <g id="001-apple" fill-rule="nonzero">
            <circle id="Oval" fill="#10E7FF" cx="256" cy="256" r="256"></circle>
            <path d="M248.989,139.771 L316,206.541 L161.382,402.958 L275.688,511.254 C407.874,501.201 512,390.76 512,256 C512,252.697 511.917,249.413 511.793,246.14 L321.541,55.888 L248.989,139.771 Z" id="Path" fill-opacity="0.1" fill="#000000"></path>
            <path d="M191.187,419.533 C180.919,419.132 165.58,407.937 158.936,400.404 C141.934,381.126 128.084,359.765 118.289,335.962 C107.139,308.868 100.488,280.769 100.825,251.271 C101.067,230.053 105.209,209.702 115.831,191.181 C128.964,168.282 148.353,153.222 174.266,147.134 C184.577,144.712 195.088,143.74 205.393,146.789 C215.696,149.837 225.848,153.435 235.957,157.092 C244.716,160.261 253.312,162.554 262.508,158.569 C268.55,155.95 274.834,153.888 281.022,151.611 C291.157,147.881 301.401,144.423 312.312,144.098 C333.415,143.468 352.882,148.644 370.055,161.277 C377.137,166.487 383.09,172.817 388.029,180.233 C387.35,180.745 386.83,181.169 386.279,181.548 C378.883,186.633 372.333,192.635 366.667,199.601 C351.627,218.09 346.407,239.195 349.957,262.599 C352.434,278.929 359.471,293.026 370.951,304.908 C377.967,312.17 389.747,319.766 398.813,324.168 C397.233,327.914 394.135,333.959 392.63,337.74 C386.208,353.878 377.565,368.775 367.395,382.825 C360.163,392.816 352.885,402.723 343.004,410.395 C333.963,417.415 323.956,420.924 312.425,420.123 C303.641,419.513 295.51,416.769 287.64,413.126 C270.443,405.164 252.792,403.575 234.653,409.253 C230.129,410.669 225.861,412.891 221.35,414.357 C214.188,416.684 198.713,419.827 191.187,419.533 Z" id="Path" fill="#FFFFFF"></path>
            <g id="Group" transform="translate(248.000000, 55.000000)">
                <path d="M122.95,249.908 C111.47,238.025 104.433,223.929 101.957,207.599 C98.407,184.195 103.627,163.09 118.667,144.601 C124.333,137.635 130.883,131.633 138.279,126.548 C138.83,126.169 139.349,125.745 140.028,125.233 C135.089,117.817 129.136,111.487 122.054,106.277 C104.881,93.645 85.413,88.469 64.311,89.098 C53.401,89.424 43.156,92.881 33.021,96.611 C26.833,98.888 20.548,100.951 14.507,103.569 C10.019,105.514 5.675,105.957 1.383,105.539 L1.383,351.23 C14.383,349.935 27.132,352.336 39.639,358.126 C47.509,361.77 55.641,364.513 64.424,365.123 C75.956,365.924 85.963,362.414 95.003,355.395 C104.884,347.723 112.162,337.816 119.394,327.825 C129.564,313.775 138.207,298.878 144.629,282.74 C146.133,278.96 149.232,272.915 150.812,269.168 C141.746,264.766 129.966,257.17 122.95,249.908 Z" id="Path" fill-opacity="0.1" fill="#000000"></path>
                <path d="M73.541,0.888 C73.497,6.675 74.157,12.571 73.282,18.229 C70.037,39.201 60.192,56.693 43.617,70.02 C31.331,79.898 17.426,85.793 0.989,84.771 C0.055,78.437 0.263,72.152 1.628,65.999 C6.51,43.994 18.215,26.476 37.011,13.973 C46.712,7.52 57.357,3.115 68.997,1.415 C69.554,1.333 72.57,0.888 73.541,0.888 Z" id="Path" fill="#FFFFFF"></path>
                <path d="M73.541,0.888 C73.497,6.675 74.157,12.571 73.282,18.229 C70.037,39.201 60.192,56.693 43.617,70.02 C31.331,79.898 17.426,85.793 0.989,84.771 C0.055,78.437 0.263,72.152 1.628,65.999 C6.51,43.994 18.215,26.476 37.011,13.973 C46.712,7.52 57.357,3.115 68.997,1.415 C69.554,1.333 72.57,0.888 73.541,0.888 Z" id="Path-Copy" fill-opacity="0.1" fill="#000000"></path>
            </g>
        </g>
    </g>
</svg>