<svg width="538" height="160" viewBox="0 0 538 160" xmlns="http://www.w3.org/2000/svg">
  <g fill="none" fill-rule="evenodd">
    <path d="M108 40.526V45h2v-5h-2v.526zm0 8V53h2v-5h-2v.526zm0 7V60h2v-5h-2v.526zm0 8V68h2v-5h-2v.526zm0 8V76h2v-5h-2v.526zm0 8V84h2v-5h-2v.526zm0 8V92h2v-5h-2v.526zm0 7V99h2v-5h-2v.526zm0 8V107h2v-5h-2v.526zm0 8V115h2v-5h-2v.526zm0 8V123h2v-5h-2v.526zm0 7V130h2v-5h-2v.526zm0 8V138h2v-5h-2v.526zm0 7V145h2v-5h-2v.526zm0 8V153h2v-5h-2v.526zM438 40.526V45h2v-5h-2v.526zm0 7V52h2v-5h-2v.526zm0 8V60h2v-5h-2v.526zm0 8V68h2v-5h-2v.526zm0 7V75h2v-5h-2v.526zm0 9V84h2v-5h-2v.526zm0 7V91h2v-5h-2v.526zm0 8V99h2v-5h-2v.526zm0 8V107h2v-5h-2v.526zm0 7V114h2v-5h-2v.526zm0 8V122h2v-5h-2v.526zm0 8V130h2v-5h-2v.526zm0 7V137h2v-5h-2v.526zm0 8V145h2v-5h-2v.526zm0 8V153h2v-5h-2v.526z" fill="#000000" fill-rule="nonzero"/>
    <g transform="translate(0 86.804)">
      <path fill="#000000" fill-rule="nonzero" d="M121.92 8.574H7.53v-2.51H121.92V.21l14.22 7.11-14.22 7.11z"/>
      <circle fill="#10E7FF" cx="70.057" cy="7.319" r="7.319"/>
      <circle fill="#10E7FF" cx="90.97" cy="7.319" r="7.319"/>
      <circle fill="#10E7FF" cx="49.144" cy="7.319" r="7.319"/>
      <circle fill="#10E7FF" cx="28.232" cy="7.319" r="7.319"/>
      <circle fill="#10E7FF" cx="7.319" cy="7.319" r="7.319"/>
      <path d="M29.922 52.693c0-.556.085-1.043.256-1.46a3.13 3.13 0 01.673-1.043 2.8 2.8 0 01.96-.631 3.004 3.004 0 011.114-.215c.89 0 1.593.272 2.11.816.515.545.774 1.345.774 2.402 0 .103-.004.216-.012.34-.008.122-.016.232-.024.327h-4.028c.04.365.21.655.512.87.302.214.708.322 1.216.322.326 0 .645-.03.96-.09.313-.06.57-.133.768-.22l.238 1.442a2.452 2.452 0 01-.381.143 4.99 4.99 0 01-.53.125 8.459 8.459 0 01-.626.09 6.26 6.26 0 01-.667.035c-.564 0-1.055-.083-1.472-.25a2.866 2.866 0 01-1.037-.685 2.72 2.72 0 01-.608-1.031 4.083 4.083 0 01-.196-1.287zm4.17-.68a1.833 1.833 0 00-.077-.44 1.079 1.079 0 00-.548-.655 1.126 1.126 0 00-.518-.108c-.199 0-.37.034-.513.101a1.059 1.059 0 00-.357.268 1.2 1.2 0 00-.22.388c-.052.147-.09.296-.114.446h2.348zm4.791 3.766a31.403 31.403 0 01-1.233-2.788 43.764 43.764 0 01-1.186-3.48h1.883c.08.31.173.645.28 1.007a82.796 82.796 0 00.68 2.175c.114.35.228.667.339.953.103-.286.214-.604.334-.953.119-.35.236-.71.351-1.079.115-.37.226-.735.334-1.096.107-.362.2-.697.28-1.007h1.835a43.764 43.764 0 01-1.186 3.48 31.403 31.403 0 01-1.233 2.788h-1.478zm4.386-3.086c0-.556.085-1.043.256-1.46a3.13 3.13 0 01.673-1.043 2.8 2.8 0 01.96-.631 3.004 3.004 0 011.114-.215c.89 0 1.592.272 2.109.816.516.545.774 1.345.774 2.402 0 .103-.004.216-.012.34-.008.122-.015.232-.023.327h-4.028c.04.365.21.655.512.87.302.214.707.322 1.216.322.325 0 .645-.03.959-.09.314-.06.57-.133.769-.22l.238 1.442a2.452 2.452 0 01-.381.143 4.99 4.99 0 01-.53.125 8.459 8.459 0 01-.626.09 6.26 6.26 0 01-.668.035c-.564 0-1.054-.083-1.471-.25a2.866 2.866 0 01-1.037-.685 2.72 2.72 0 01-.608-1.031 4.083 4.083 0 01-.197-1.287zm4.17-.68a1.833 1.833 0 00-.077-.44 1.079 1.079 0 00-.548-.655 1.126 1.126 0 00-.519-.108c-.198 0-.37.034-.512.101a1.059 1.059 0 00-.358.268 1.2 1.2 0 00-.22.388c-.052.147-.09.296-.113.446h2.347zm3.087-2.288a9.897 9.897 0 011.168-.244 9.596 9.596 0 011.501-.113c.532 0 .975.07 1.329.209.353.139.633.335.84.59.206.254.353.556.44.905.088.35.132.739.132 1.168v3.54H54.16v-3.326c0-.572-.075-.977-.226-1.215-.151-.238-.433-.358-.846-.358a6.602 6.602 0 00-.786.06v4.838h-1.776v-6.054zm6.96-1.775l1.775-.286v1.847h2.133v1.478H59.26v2.204c0 .374.065.672.196.894.131.222.396.334.793.334a3.392 3.392 0 001.144-.203l.25 1.382a5.052 5.052 0 01-.715.227 4.166 4.166 0 01-.965.095c-.485 0-.886-.065-1.204-.196a1.888 1.888 0 01-.762-.549 2.04 2.04 0 01-.4-.852 5.03 5.03 0 01-.113-1.108V47.95zm7.15 6.554c.325 0 .555-.032.69-.095.135-.064.203-.187.203-.37 0-.143-.088-.268-.262-.375a4.982 4.982 0 00-.799-.364 8.182 8.182 0 01-.756-.321 2.224 2.224 0 01-.578-.4 1.615 1.615 0 01-.37-.554 2.052 2.052 0 01-.13-.774c0-.588.218-1.053.654-1.394.437-.342 1.037-.513 1.8-.513.381 0 .747.034 1.096.101.35.068.628.141.834.22l-.31 1.383a6.52 6.52 0 00-.673-.19 3.66 3.66 0 00-.816-.084c-.556 0-.834.155-.834.465a.48.48 0 00.036.19c.023.056.071.11.143.161.071.052.168.108.292.167.123.06.28.125.47.197.39.143.711.284.966.423.254.139.454.29.601.453.147.163.25.343.31.542s.09.429.09.691c0 .62-.233 1.089-.698 1.406-.464.318-1.122.477-1.972.477-.556 0-1.019-.048-1.388-.143a5.628 5.628 0 01-.769-.238l.298-1.442c.302.119.612.212.93.28.317.067.631.101.941.101z" fill="#000000" fill-rule="nonzero"/>
    </g>
    <g transform="translate(143.042 81.785)">
      <rect fill="#000000" width="124.221" height="25.095" rx="6"/>
      <circle fill="#10E7FF" cx="98.08" cy="12.338" r="7.319"/>
      <circle fill="#10E7FF" cx="83.441" cy="12.338" r="7.319"/>
      <circle fill="#10E7FF" cx="112.719" cy="12.338" r="7.319"/>
      <path d="M57.326 55.783c0-1.144-.421-1.716-1.263-1.716-.183 0-.364.024-.542.072a1.543 1.543 0 00-.435.178v3.23a5.037 5.037 0 00.775.06c.484 0 .85-.168 1.096-.501.246-.334.369-.775.369-1.323zm1.811.048c0 .5-.073.953-.22 1.358-.147.405-.36.751-.638 1.037-.278.286-.62.506-1.025.661a3.85 3.85 0 01-1.382.233c-.214 0-.439-.01-.673-.03a12.67 12.67 0 01-.691-.078 9.561 9.561 0 01-.65-.113 6.882 6.882 0 01-.548-.137v-8.759l1.776-.286v3.123a3.182 3.182 0 011.31-.274c.445 0 .839.077 1.18.232.342.155.628.375.858.661.23.286.405.63.525 1.031a4.7 4.7 0 01.178 1.34zm6.721 2.92a9.897 9.897 0 01-1.168.244 9.596 9.596 0 01-1.501.113c-.532 0-.975-.072-1.329-.215a2.017 2.017 0 01-.84-.601 2.349 2.349 0 01-.44-.924 4.967 4.967 0 01-.132-1.18v-3.491h1.776v3.277c0 .572.075.985.226 1.24.151.253.433.38.846.38.127 0 .262-.006.405-.017.143-.012.27-.026.382-.042v-4.838h1.775v6.053zm4.386-9.034c.333 0 .64.034.917.102.278.067.493.133.644.196l-.346 1.418a2.324 2.324 0 00-.518-.16 2.77 2.77 0 00-.519-.054c-.214 0-.395.03-.542.09a.837.837 0 00-.345.244.943.943 0 00-.18.37 1.913 1.913 0 00-.053.464v.31h2.193v1.477h-2.193v4.79h-1.775v-6.601c0-.81.228-1.454.685-1.93.457-.477 1.134-.716 2.032-.716zm4.993 0c.333 0 .64.034.917.102.278.067.493.133.644.196l-.346 1.418a2.324 2.324 0 00-.518-.16 2.77 2.77 0 00-.519-.054c-.214 0-.395.03-.542.09a.837.837 0 00-.345.244.943.943 0 00-.18.37 1.913 1.913 0 00-.053.464v.31h2.193v1.477h-2.193v4.79H72.52v-6.601c0-.81.228-1.454.685-1.93.457-.477 1.134-.716 2.032-.716zm1.918 6.161c0-.556.086-1.042.256-1.46a3.13 3.13 0 01.674-1.042 2.8 2.8 0 01.959-.632 3.004 3.004 0 011.114-.214c.89 0 1.593.272 2.11.816.516.544.774 1.345.774 2.401 0 .104-.004.217-.012.34l-.024.328H78.98c.04.365.21.655.512.87.302.214.707.321 1.215.321.326 0 .646-.03.96-.089.314-.06.57-.133.768-.22l.239 1.441a2.452 2.452 0 01-.382.143 4.99 4.99 0 01-.53.126 8.459 8.459 0 01-.626.089 6.26 6.26 0 01-.667.036c-.564 0-1.055-.084-1.472-.25a2.866 2.866 0 01-1.036-.686 2.72 2.72 0 01-.608-1.03 4.083 4.083 0 01-.197-1.288zm4.171-.679a1.833 1.833 0 00-.077-.44 1.079 1.079 0 00-.548-.655 1.126 1.126 0 00-.519-.108c-.199 0-.37.033-.512.1a1.059 1.059 0 00-.358.269 1.2 1.2 0 00-.22.387c-.052.147-.09.296-.113.447h2.347zm6.864-.93c-.159-.04-.345-.08-.56-.124a3.207 3.207 0 00-1.09-.036 2.35 2.35 0 00-.352.065v4.79h-1.775V53.03c.317-.11.693-.216 1.126-.315.433-.1.915-.15 1.448-.15.095 0 .21.007.345.018a7.033 7.033 0 01.81.12c.135.027.25.061.346.1l-.298 1.467zM26.873 71.903c0 1.017.147 1.958.44 2.824a8.232 8.232 0 001.3 2.407l-.787.536a9.365 9.365 0 01-1.495-2.603 8.738 8.738 0 01-.566-3.164c0-1.128.188-2.183.566-3.164a9.365 9.365 0 011.495-2.604l.787.536a8.232 8.232 0 00-1.3 2.407c-.293.866-.44 1.808-.44 2.825zm2.776-2.455c.255-.064.59-.131 1.007-.203.418-.071.9-.107 1.448-.107.398 0 .731.054 1.001.161.27.107.497.264.68.47.055-.04.143-.095.262-.166.119-.072.266-.141.44-.209.175-.067.37-.127.585-.178.214-.052.444-.078.69-.078.477 0 .867.07 1.169.209.301.139.538.335.709.59.17.254.286.556.345.905.06.35.09.731.09 1.144v3.48h-1.109v-3.242c0-.365-.018-.679-.053-.94a1.82 1.82 0 00-.203-.656.929.929 0 00-.405-.388c-.17-.083-.391-.125-.661-.125-.374 0-.682.05-.924.15-.242.099-.407.188-.495.267.064.207.112.433.143.68.032.246.048.504.048.774v3.48h-1.108v-3.242c0-.365-.02-.679-.06-.94a1.9 1.9 0 00-.208-.656.929.929 0 00-.405-.388 1.479 1.479 0 00-.65-.125c-.111 0-.23.004-.357.012a8.983 8.983 0 00-.364.03 5.163 5.163 0 00-.506.077v5.232h-1.109v-6.018zm9.915 2.931c0-.548.08-1.026.238-1.436a3 3 0 01.632-1.018c.262-.27.564-.473.906-.608a2.83 2.83 0 011.048-.203c.835 0 1.474.26 1.919.78.445.521.667 1.314.667 2.378v.185c0 .075-.004.145-.012.208H40.72c.048.644.234 1.132.56 1.466.326.334.834.5 1.525.5.39 0 .717-.033.984-.1.266-.068.466-.134.601-.197l.155.93c-.135.07-.371.146-.709.226a5.04 5.04 0 01-1.15.119c-.54 0-1.007-.082-1.4-.244a2.612 2.612 0 01-.971-.674 2.747 2.747 0 01-.566-1.019 4.31 4.31 0 01-.185-1.293zm4.254-.607c.008-.5-.117-.912-.375-1.234-.258-.321-.614-.482-1.067-.482-.254 0-.478.05-.673.149-.194.099-.36.228-.494.387-.135.159-.24.342-.316.548a2.705 2.705 0 00-.15.632h3.075zm2.753-2.324c.254-.064.59-.131 1.007-.203.417-.071.9-.107 1.448-.107.397 0 .73.054 1.001.161.27.107.496.264.68.47.055-.04.142-.095.261-.166.12-.072.267-.141.441-.209.175-.067.37-.127.584-.178.215-.052.445-.078.691-.078.477 0 .866.07 1.168.209.302.139.538.335.71.59.17.254.285.556.345.905.06.35.09.731.09 1.144v3.48h-1.109v-3.242c0-.365-.018-.679-.054-.94a1.82 1.82 0 00-.202-.656.929.929 0 00-.405-.388c-.171-.083-.392-.125-.662-.125-.373 0-.681.05-.923.15-.243.099-.407.188-.495.267.064.207.111.433.143.68.032.246.048.504.048.774v3.48H50.23v-3.242c0-.365-.02-.679-.06-.94a1.9 1.9 0 00-.209-.656.929.929 0 00-.405-.388 1.479 1.479 0 00-.65-.125c-.11 0-.23.004-.357.012a8.983 8.983 0 00-.363.03 5.163 5.163 0 00-.507.077v5.232h-1.108v-6.018zm15.73 2.92c0 .492-.071.937-.214 1.334a3.052 3.052 0 01-.602 1.025 2.647 2.647 0 01-.924.661 2.905 2.905 0 01-1.168.233c-.42 0-.81-.078-1.167-.233a2.647 2.647 0 01-.924-.661 3.052 3.052 0 01-.602-1.025 3.92 3.92 0 01-.214-1.335c0-.484.071-.927.214-1.328.143-.401.344-.745.602-1.031.258-.286.566-.506.924-.661a2.905 2.905 0 011.167-.233c.422 0 .81.078 1.168.233.358.155.666.375.924.661.258.286.459.63.602 1.03.143.402.214.845.214 1.33zm-1.156 0c0-.7-.157-1.254-.47-1.663-.314-.409-.741-.614-1.282-.614-.54 0-.967.205-1.28.614-.314.41-.471.963-.471 1.662 0 .7.157 1.254.47 1.663.314.409.741.614 1.281.614.54 0 .968-.205 1.282-.614.313-.41.47-.963.47-1.663zm5.005-3.23c.096 0 .205.006.328.018.123.012.244.028.363.048.12.02.229.04.328.06a2 2 0 01.22.053l-.19.965a3.714 3.714 0 00-.435-.113 3.812 3.812 0 00-.78-.066c-.207 0-.412.022-.614.066-.203.044-.336.073-.4.09v5.207h-1.108V69.53c.262-.095.588-.184.977-.268.39-.083.827-.125 1.311-.125zm1.835 7.484c.088.04.201.077.34.113.139.036.276.054.411.054.437 0 .779-.098 1.025-.292.246-.195.469-.51.667-.948-.5-.953-.967-1.964-1.4-3.033a26.353 26.353 0 01-1.078-3.247h1.191c.088.358.193.743.316 1.156a31.236 31.236 0 00.9 2.586c.175.437.357.858.548 1.263.302-.834.564-1.66.786-2.479.223-.818.433-1.66.632-2.526h1.144a47.43 47.43 0 01-.953 3.367 34.39 34.39 0 01-1.132 3.02 6.364 6.364 0 01-.495.924c-.17.258-.36.47-.566.638-.207.166-.439.29-.697.369a2.975 2.975 0 01-1.15.101 3.167 3.167 0 01-.53-.113 1.225 1.225 0 01-.161-.06l.202-.893zm14.872-4.255c0 .493-.071.938-.214 1.335a3.052 3.052 0 01-.602 1.025 2.647 2.647 0 01-.923.661 2.905 2.905 0 01-1.168.233c-.421 0-.81-.078-1.168-.233a2.647 2.647 0 01-.924-.661 3.052 3.052 0 01-.601-1.025 3.92 3.92 0 01-.215-1.335c0-.484.072-.927.215-1.328.143-.401.343-.745.601-1.031.259-.286.566-.506.924-.661a2.905 2.905 0 011.168-.233c.42 0 .81.078 1.168.233.357.155.665.375.923.661.258.286.459.63.602 1.03.143.402.214.845.214 1.33zm-1.156 0c0-.699-.156-1.253-.47-1.662-.314-.409-.741-.614-1.281-.614-.54 0-.968.205-1.281.614-.314.41-.471.963-.471 1.662 0 .7.157 1.254.47 1.663.314.409.741.614 1.282.614.54 0 .967-.205 1.28-.614.315-.41.471-.963.471-1.663zm5.005-3.229c.096 0 .205.006.328.018.123.012.244.028.364.048.119.02.228.04.327.06a2 2 0 01.22.053l-.19.965a3.714 3.714 0 00-.435-.113 3.812 3.812 0 00-.78-.066c-.207 0-.411.022-.614.066-.203.044-.336.073-.4.09v5.207h-1.108V69.53c.263-.095.588-.184.978-.268.389-.083.826-.125 1.31-.125zm9.069 1.442a2.281 2.281 0 00-.584-.322 2.196 2.196 0 00-.834-.155c-.318 0-.59.058-.816.173a1.499 1.499 0 00-.554.477 2.014 2.014 0 00-.31.72 4.004 4.004 0 00-.096.894c0 .723.18 1.282.537 1.675.357.393.834.59 1.43.59.302 0 .554-.014.756-.042.203-.028.36-.058.471-.09v-3.92zm0-4.17l1.108-.192v9.07c-.254.07-.58.142-.977.214a7.802 7.802 0 01-1.37.107c-.477 0-.906-.076-1.287-.227a2.758 2.758 0 01-.977-.643 2.843 2.843 0 01-.626-1.019 3.911 3.911 0 01-.22-1.353c0-.476.061-.913.184-1.31a2.94 2.94 0 01.542-1.025c.239-.286.53-.509.876-.668.346-.158.741-.238 1.186-.238.357 0 .673.048.947.143.274.095.479.187.614.274v-3.134zm4.123 9.056H98.79v-6.197h1.108v6.197zm-.56-7.317a.711.711 0 01-.506-.197c-.14-.13-.209-.307-.209-.53 0-.222.07-.4.209-.53a.711.711 0 01.506-.197c.199 0 .368.066.507.197.139.13.208.308.208.53 0 .223-.07.4-.208.53a.711.711 0 01-.507.197zm3.909 6.518c.453 0 .788-.06 1.007-.178.218-.12.327-.31.327-.572a.76.76 0 00-.321-.644c-.215-.159-.568-.337-1.06-.536a16.162 16.162 0 01-.686-.292 2.403 2.403 0 01-.566-.352 1.534 1.534 0 01-.381-.488 1.562 1.562 0 01-.143-.703c0-.548.202-.983.607-1.305.405-.322.958-.483 1.657-.483.174 0 .35.01.524.03.175.02.338.044.489.072a4.757 4.757 0 01.667.172l-.203.954a2.798 2.798 0 00-.56-.197 3.614 3.614 0 00-.917-.101c-.31 0-.58.061-.81.184a.612.612 0 00-.346.578.79.79 0 00.077.358.825.825 0 00.239.28c.107.083.24.16.399.232.159.072.35.147.572.227.294.111.556.22.786.327.23.108.427.233.59.376.163.143.288.316.376.518.087.203.13.451.13.745 0 .572-.212 1.005-.637 1.299-.425.294-1.03.44-1.817.44-.548 0-.977-.045-1.287-.136a6.73 6.73 0 01-.632-.209l.203-.953c.127.048.33.12.608.214.278.096.647.143 1.108.143zm6.113-2.61c.238.183.49.41.757.68.266.27.528.562.786.876.258.314.503.631.733.953.23.322.425.622.584.9h-1.299a9.801 9.801 0 00-.578-.852c-.218-.29-.447-.568-.685-.834a9.758 9.758 0 00-.727-.733 6.547 6.547 0 00-.703-.56v2.979h-1.108v-9.057l1.108-.19v5.648l.632-.632c.23-.23.456-.464.679-.703.222-.238.433-.466.631-.685a26.9 26.9 0 00.513-.578h1.299c-.183.199-.382.417-.596.656-.215.238-.437.478-.667.72-.23.243-.463.485-.698.727l-.66.686zm4.85-.154c0-1.017-.147-1.959-.44-2.825a8.232 8.232 0 00-1.3-2.407l.787-.536a9.365 9.365 0 011.495 2.604c.378.981.566 2.036.566 3.164a8.738 8.738 0 01-.566 3.164 9.365 9.365 0 01-1.495 2.603l-.787-.536a8.232 8.232 0 001.3-2.407c.293-.866.44-1.807.44-2.824z" fill="#000000" fill-rule="nonzero"/>
    </g>
    <g fill-rule="nonzero">
      <path d="M353.84 94.333c0 10.395 8.427 18.821 18.822 18.821 10.394 0 18.82-8.426 18.82-18.821 0-10.395-8.426-18.822-18.82-18.822-10.395 0-18.822 8.427-18.822 18.822z" fill="#000000"/>
      <g fill="#10E7FF">
        <path d="M359.816 94.844c0-6.961 5.664-12.625 12.625-12.625 3.148 0 6.166 1.188 8.466 3.263v-3.136h2.206v6.961h-6.961v-2.205h3.257a10.454 10.454 0 00-6.968-2.677c-5.745 0-10.42 4.674-10.42 10.42h-.126c0 .323.015.65.044.97l-1.944.176a12.81 12.81 0 01-.053-1.147h.832-.958zM380.657 101.456l1.52 1.226a12.607 12.607 0 01-1.46 1.529l-1.294-1.463c.445-.394.86-.829 1.234-1.292zM382.39 98.35l1.842.65a12.484 12.484 0 01-.871 1.929l-1.705-.952c.29-.52.537-1.067.734-1.627zM382.987 94.844h1.953c0 .707-.06 1.415-.177 2.106l-1.926-.326c.1-.584.15-1.183.15-1.78zM379.02 105.473c-.6.371-1.233.694-1.885.958l-.734-1.81c.55-.223 1.084-.494 1.59-.808l1.029 1.66zM362.856 99.249l-1.774.816c-.295-.64-.536-1.31-.718-1.99l1.887-.504c.153.573.357 1.138.605 1.678zM375.112 107.056c-.686.15-1.391.242-2.097.273l-.088-1.95a10.559 10.559 0 001.77-.231l.415 1.908zM364.867 102.182l-1.402 1.36c-.49-.507-.94-1.057-1.339-1.638l1.61-1.104c.337.49.717.955 1.131 1.382zM367.737 104.286l-.872 1.747a12.536 12.536 0 01-1.806-1.102l1.155-1.575c.48.351.992.664 1.523.93zM371.141 105.31l-.237 1.939c-.7-.086-1.397-.233-2.07-.435l.562-1.87c.568.17 1.155.294 1.745.367z"/>
      </g>
      <path fill="#000000" d="M337.531 94.989l-63.783.183-.005-1.673 63.783-.183-.012-4.183 10.053 4.99-10.024 5.048-.012-4.182zM361.364 136.796c0-1.152-.424-1.728-1.272-1.728a2.11 2.11 0 00-.546.072c-.18.048-.326.108-.438.18v3.252a5.072 5.072 0 00.78.06c.488 0 .856-.168 1.104-.504.248-.336.372-.78.372-1.332zm1.824.048c0 .504-.074.96-.222 1.368a2.888 2.888 0 01-.642 1.044c-.28.288-.624.51-1.032.666a3.877 3.877 0 01-1.392.234c-.216 0-.442-.01-.678-.03-.236-.02-.468-.046-.696-.078a9.628 9.628 0 01-.654-.114 6.93 6.93 0 01-.552-.138v-8.82l1.788-.288v3.144a3.205 3.205 0 011.32-.276c.448 0 .844.078 1.188.234.344.156.632.378.864.666.232.288.408.634.528 1.038.12.404.18.854.18 1.35zm3.792 1.908c.176 0 .344-.004.504-.012.16-.008.288-.02.384-.036v-1.356a3.301 3.301 0 00-.324-.048 3.608 3.608 0 00-.87.006c-.148.02-.278.058-.39.114a.67.67 0 00-.264.228.635.635 0 00-.096.36c0 .28.094.474.282.582.188.108.446.162.774.162zm-.144-5.232c.528 0 .968.06 1.32.18.352.12.634.292.846.516.212.224.362.496.45.816.088.32.132.676.132 1.068v3.72c-.256.056-.612.122-1.068.198-.456.076-1.008.114-1.656.114a5.25 5.25 0 01-1.11-.108 2.409 2.409 0 01-.858-.354 1.62 1.62 0 01-.552-.642c-.128-.264-.192-.588-.192-.972 0-.368.074-.68.222-.936.148-.256.346-.46.594-.612.248-.152.532-.262.852-.33a4.78 4.78 0 01.996-.102c.232 0 .438.01.618.03.18.02.326.046.438.078v-.168c0-.304-.092-.548-.276-.732-.184-.184-.504-.276-.96-.276-.304 0-.604.022-.9.066a3.86 3.86 0 00-.768.186l-.228-1.44a6.876 6.876 0 01.9-.198c.184-.028.378-.052.582-.072.204-.02.41-.03.618-.03zm4.308-1.404l1.788-.288v1.86h2.148v1.488h-2.148v2.22c0 .376.066.676.198.9.132.224.398.336.798.336a3.416 3.416 0 001.152-.204l.252 1.392a5.087 5.087 0 01-.72.228 4.195 4.195 0 01-.972.096c-.488 0-.892-.066-1.212-.198a1.901 1.901 0 01-.768-.552 2.055 2.055 0 01-.402-.858 5.065 5.065 0 01-.114-1.116v-5.304zm4.848 4.728c0-.456.074-.886.222-1.29.148-.404.362-.756.642-1.056.28-.3.62-.538 1.02-.714.4-.176.856-.264 1.368-.264.336 0 .644.03.924.09s.552.146.816.258l-.372 1.428a4.506 4.506 0 00-.552-.168 2.885 2.885 0 00-.672-.072c-.528 0-.922.164-1.182.492-.26.328-.39.76-.39 1.296 0 .568.122 1.008.366 1.32.244.312.67.468 1.278.468.216 0 .448-.02.696-.06.248-.04.476-.104.684-.192l.252 1.464a4.195 4.195 0 01-.78.228 5.145 5.145 0 01-1.032.096c-.576 0-1.072-.086-1.488-.258a2.803 2.803 0 01-1.026-.702 2.739 2.739 0 01-.588-1.05 4.458 4.458 0 01-.186-1.314zm6.3 3.156v-9.024l1.788-.288v3.024c.12-.04.274-.078.462-.114.188-.036.37-.054.546-.054.512 0 .938.07 1.278.21.34.14.612.338.816.594.204.256.348.56.432.912.084.352.126.744.126 1.176V140h-1.788v-3.348c0-.576-.074-.984-.222-1.224-.148-.24-.422-.36-.822-.36-.16 0-.31.014-.45.042a4.84 4.84 0 00-.378.09v4.8h-1.788z"/>
    </g>
    <g fill="#000000" fill-rule="nonzero">
      <path d="M467.189 94.989l-63.784.183-.004-1.673 63.783-.183-.012-4.183 10.052 4.99-10.023 5.048-.012-4.182zM496.048 139.475c.325 0 .556-.032.69-.095.136-.064.203-.187.203-.37 0-.143-.087-.268-.262-.375a4.982 4.982 0 00-.798-.364 8.182 8.182 0 01-.757-.321 2.224 2.224 0 01-.578-.4 1.615 1.615 0 01-.37-.554 2.052 2.052 0 01-.13-.774c0-.588.218-1.053.655-1.395.437-.341 1.037-.512 1.8-.512.38 0 .746.034 1.096.101.35.068.628.141.834.22l-.31 1.383a6.52 6.52 0 00-.673-.19 3.66 3.66 0 00-.816-.084c-.556 0-.835.155-.835.465a.48.48 0 00.036.19c.024.056.072.11.143.161.072.052.17.108.292.167.123.06.28.125.47.197.39.143.712.284.966.423s.455.29.602.453c.147.162.25.343.31.542.06.198.09.429.09.691 0 .62-.233 1.088-.698 1.406-.465.318-1.122.477-1.972.477-.556 0-1.019-.048-1.388-.143a5.628 5.628 0 01-.77-.238l.299-1.442c.302.119.612.212.93.28.317.067.63.1.94.1zm3.682-1.811c0-.557.085-1.043.256-1.46a3.13 3.13 0 01.673-1.043 2.8 2.8 0 01.96-.631 3.004 3.004 0 011.114-.215c.89 0 1.593.272 2.11.816.516.544.774 1.345.774 2.402 0 .103-.004.216-.012.34l-.024.327h-4.028c.04.365.21.655.513.87.302.214.707.322 1.215.322.326 0 .646-.03.96-.09.313-.06.57-.133.768-.22l.238 1.442a2.452 2.452 0 01-.38.143 4.99 4.99 0 01-.531.125 8.459 8.459 0 01-.626.09 6.26 6.26 0 01-.667.035c-.564 0-1.055-.084-1.472-.25a2.866 2.866 0 01-1.037-.686 2.72 2.72 0 01-.607-1.03 4.083 4.083 0 01-.197-1.287zm4.17-.68a1.833 1.833 0 00-.077-.44 1.079 1.079 0 00-.548-.655 1.126 1.126 0 00-.518-.108c-.199 0-.37.034-.513.101a1.059 1.059 0 00-.357.268 1.2 1.2 0 00-.22.387c-.052.147-.09.296-.114.447h2.348zm6.865-.93c-.16-.039-.346-.08-.56-.124a3.207 3.207 0 00-1.09-.036 2.35 2.35 0 00-.352.066v4.79h-1.776v-5.934c.318-.112.693-.217 1.126-.316.433-.1.916-.15 1.448-.15.096 0 .21.007.346.019a7.033 7.033 0 01.81.119c.135.028.25.061.346.101l-.298 1.466zm3.325 4.696a31.403 31.403 0 01-1.234-2.788 43.764 43.764 0 01-1.185-3.48h1.882c.08.31.173.645.28 1.007a82.787 82.787 0 00.68 2.175c.115.35.228.667.34.953.103-.286.214-.604.333-.953.12-.35.236-.71.351-1.079.116-.37.227-.735.334-1.096.107-.362.2-.697.28-1.007h1.835a43.764 43.764 0 01-1.185 3.48 31.403 31.403 0 01-1.234 2.788h-1.477zm6.625 0h-1.775v-6.268h1.775v6.268zm.167-8.08c0 .326-.105.582-.316.77-.21.186-.458.28-.744.28-.287 0-.535-.094-.745-.28-.21-.188-.316-.444-.316-.77 0-.325.105-.581.316-.768.21-.187.458-.28.745-.28.286 0 .534.093.744.28.21.187.316.443.316.769zm1.204 4.946c0-.453.073-.88.22-1.281.147-.401.36-.75.638-1.049a3.042 3.042 0 011.013-.709c.397-.175.85-.262 1.358-.262.334 0 .64.03.918.09.278.059.548.144.81.256l-.37 1.418a4.475 4.475 0 00-.548-.167 2.865 2.865 0 00-.667-.072c-.524 0-.916.163-1.174.489-.258.326-.387.755-.387 1.287 0 .564.121 1 .363 1.31.243.31.666.466 1.27.466.214 0 .444-.02.69-.06.247-.04.473-.103.68-.19l.25 1.453a4.165 4.165 0 01-.774.227 5.11 5.11 0 01-1.025.095c-.572 0-1.065-.086-1.478-.256a2.784 2.784 0 01-1.019-.697 2.72 2.72 0 01-.584-1.043 4.427 4.427 0 01-.184-1.305zm5.66.048c0-.557.085-1.043.256-1.46a3.13 3.13 0 01.674-1.043 2.8 2.8 0 01.959-.631 3.004 3.004 0 011.114-.215c.89 0 1.593.272 2.11.816.516.544.774 1.345.774 2.402 0 .103-.004.216-.012.34l-.024.327h-4.028c.04.365.21.655.513.87.302.214.707.322 1.215.322.326 0 .646-.03.96-.09.313-.06.57-.133.768-.22l.239 1.442a2.452 2.452 0 01-.382.143 4.99 4.99 0 01-.53.125 8.459 8.459 0 01-.626.09 6.26 6.26 0 01-.667.035c-.564 0-1.055-.084-1.472-.25a2.866 2.866 0 01-1.037-.686 2.72 2.72 0 01-.607-1.03 4.083 4.083 0 01-.197-1.287zm4.17-.68a1.833 1.833 0 00-.077-.44 1.079 1.079 0 00-.548-.655 1.126 1.126 0 00-.518-.108c-.199 0-.37.034-.513.101a1.059 1.059 0 00-.357.268 1.2 1.2 0 00-.22.387c-.052.147-.09.296-.114.447h2.348zM537.536 101.124c0 5.162-4.154 9.347-9.277 9.347h-28.706c-5.123 0-9.276-4.185-9.276-9.347 0-4.662 3.387-8.524 7.818-9.231a5.962 5.962 0 01-.087-1.01c0-3.271 2.632-5.923 5.88-5.923 1.447 0 2.774.528 3.798 1.406 1.826-4.144 4.165-7.926 10.73-7.926 7.96 0 11.734 6.187 11.734 12.714 0 .273-.011.544-.03.812 4.232.868 7.416 4.638 7.416 9.158z"/>
    </g>
    <g fill="#000000" fill-rule="nonzero">
      <path d="M109 23h330v-2H109z"/>
      <path d="M108.327 21.284v14.22H110v-14.22zM437.745 21.284v14.22h1.673v-14.22zM257.175 7.44c0-1.707 1.503-2.843 3.75-2.843 2.287 0 3.635.956 3.765 2.68h-2.197c-.123-.58-.67-.94-1.552-.94-.85 0-1.479.384-1.479.956 0 .44.384.71 1.217.898l1.691.368c1.749.384 2.533 1.12 2.533 2.467 0 1.797-1.61 2.974-3.97 2.974-2.378 0-3.815-.973-3.979-2.704h2.32c.18.612.76.964 1.708.964.923 0 1.56-.384 1.56-.964 0-.442-.343-.711-1.136-.883l-1.633-.367c-1.748-.384-2.598-1.217-2.598-2.606zm9.696 6.363v-9.01h2.378v9.01h-2.378zm1.193-10.358a1.358 1.358 0 01-1.348-1.364c0-.76.613-1.356 1.348-1.356.744 0 1.348.596 1.348 1.356 0 .76-.604 1.364-1.348 1.364zm3.586 10.358v-9.01h2.304V6.24h.147c.417-1.013 1.332-1.642 2.663-1.642 2.002 0 3.08 1.225 3.08 3.382v5.824h-2.377v-5.26c0-1.242-.531-1.896-1.659-1.896-1.102 0-1.78.777-1.78 1.961v5.195h-2.378zm13.103-5.49l3.015-3.52h2.704l-3.431 3.864 3.668 5.146h-2.819l-2.63-3.66-.654.67v2.99h-2.377V1.354h2.377v6.96h.147z"/>
    </g>
  </g>
</svg>