<svg width="538" height="160" viewBox="0 0 538 160" fill="none" xmlns="http://www.w3.org/2000/svg">
<path d="M108 40.526V45H109.187V40H108V40.526ZM108 48.526V53H109.187V48H108V48.526ZM108 55.526V60H109.187V55H108V55.526ZM108 63.526V68H109.187V63H108V63.526ZM108 71.526V76H109.187V71H108V71.526V71.526ZM108 79.526V84H109.187V79H108V79.526V79.526ZM108 87.526V92H109.187V87H108V87.526V87.526ZM108 94.526V99H109.187V94H108V94.526V94.526ZM108 102.526V107H109.187V102H108V102.526V102.526ZM108 110.526V115H109.187V110H108V110.526V110.526ZM108 118.526V123H109.187V118H108V118.526V118.526ZM108 125.526V130H109.187V125H108V125.526V125.526ZM108 133.526V138H109.187V133H108V133.526ZM108 140.526V145H109.187V140H108V140.526ZM108 148.526V153H109.187V148H108V148.526ZM303.813 40.526V45H305V40H303.813V40.526ZM303.813 47.526V52H305V47H303.813V47.526ZM303.813 55.526V60H305V55H303.813V55.526ZM303.813 63.526V68H305V63H303.813V63.526ZM303.813 70.526V75H305V70H303.813V70.526V70.526ZM303.813 79.526V84H305V79H303.813V79.526V79.526ZM303.813 86.526V91H305V86H303.813V86.526V86.526ZM303.813 94.526V99H305V94H303.813V94.526V94.526ZM303.813 102.526V107H305V102H303.813V102.526V102.526ZM303.813 109.526V114H305V109H303.813V109.526V109.526ZM303.813 117.526V122H305V117H303.813V117.526V117.526ZM303.813 125.526V130H305V125H303.813V125.526V125.526ZM303.813 132.526V137H305V132H303.813V132.526ZM303.813 140.526V145H305V140H303.813V140.526ZM303.813 148.526V153H305V148H303.813V148.526Z" fill="black"/>
<path d="M121.92 95.378H7.53V92.868H121.92V87.014L136.14 94.124L121.92 101.234V95.378Z" fill="black"/>
<path d="M70.057 101.442C74.0992 101.442 77.376 98.1652 77.376 94.123C77.376 90.0808 74.0992 86.804 70.057 86.804C66.0148 86.804 62.738 90.0808 62.738 94.123C62.738 98.1652 66.0148 101.442 70.057 101.442Z" fill="#10E7FF"/>
<path d="M90.97 101.442C95.0122 101.442 98.289 98.1652 98.289 94.123C98.289 90.0808 95.0122 86.804 90.97 86.804C86.9278 86.804 83.651 90.0808 83.651 94.123C83.651 98.1652 86.9278 101.442 90.97 101.442Z" fill="#10E7FF"/>
<path d="M49.144 101.442C53.1862 101.442 56.463 98.1652 56.463 94.123C56.463 90.0808 53.1862 86.804 49.144 86.804C45.1018 86.804 41.825 90.0808 41.825 94.123C41.825 98.1652 45.1018 101.442 49.144 101.442Z" fill="#10E7FF"/>
<path d="M28.232 101.442C32.2742 101.442 35.551 98.1652 35.551 94.123C35.551 90.0808 32.2742 86.804 28.232 86.804C24.1898 86.804 20.913 90.0808 20.913 94.123C20.913 98.1652 24.1898 101.442 28.232 101.442Z" fill="#10E7FF"/>
<path d="M7.319 101.442C11.3612 101.442 14.638 98.1652 14.638 94.123C14.638 90.0808 11.3612 86.804 7.319 86.804C3.27683 86.804 0 90.0808 0 94.123C0 98.1652 3.27683 101.442 7.319 101.442Z" fill="#10E7FF"/>
<path d="M29.922 139.497C29.922 138.941 30.007 138.454 30.178 138.037C30.3305 137.648 30.5593 137.293 30.851 136.994C31.124 136.72 31.4508 136.505 31.811 136.363C32.1653 136.221 32.5434 136.148 32.925 136.148C33.815 136.148 34.518 136.42 35.035 136.964C35.55 137.509 35.809 138.309 35.809 139.366C35.809 139.469 35.805 139.582 35.797 139.706C35.789 139.828 35.781 139.938 35.773 140.033H31.745C31.785 140.398 31.955 140.688 32.257 140.903C32.559 141.117 32.965 141.225 33.473 141.225C33.799 141.225 34.118 141.195 34.433 141.135C34.746 141.075 35.003 141.002 35.201 140.915L35.439 142.357C35.3162 142.415 35.1887 142.463 35.058 142.5C34.8837 142.551 34.7068 142.593 34.528 142.625C34.3205 142.663 34.1117 142.693 33.902 142.715C33.6805 142.739 33.4578 142.75 33.235 142.75C32.671 142.75 32.18 142.667 31.763 142.5C31.3714 142.35 31.0174 142.116 30.726 141.815C30.4493 141.521 30.2416 141.169 30.118 140.784C29.9843 140.368 29.9181 139.934 29.922 139.497V139.497ZM34.092 138.817C34.0844 138.668 34.0585 138.52 34.015 138.377C33.973 138.236 33.9028 138.106 33.8086 137.993C33.7143 137.88 33.5981 137.788 33.467 137.722C33.3054 137.645 33.1278 137.608 32.949 137.614C32.75 137.614 32.579 137.648 32.436 137.715C32.2993 137.778 32.1776 137.869 32.079 137.983C31.9821 138.097 31.9074 138.229 31.859 138.371C31.807 138.518 31.769 138.667 31.745 138.817H34.093H34.092ZM38.883 142.583C38.4271 141.674 38.0156 140.744 37.65 139.795C37.2061 138.652 36.8104 137.491 36.464 136.315H38.347C38.427 136.625 38.52 136.96 38.627 137.322C38.8437 138.05 39.0704 138.775 39.307 139.497C39.421 139.847 39.535 140.164 39.646 140.45C39.749 140.164 39.86 139.846 39.98 139.497C40.099 139.147 40.216 138.787 40.331 138.418C40.446 138.048 40.557 137.683 40.665 137.322C40.772 136.96 40.865 136.625 40.945 136.315H42.78C42.4336 137.491 42.0379 138.652 41.594 139.795C41.2284 140.744 40.8169 141.674 40.361 142.583H38.883V142.583ZM43.269 139.497C43.269 138.941 43.354 138.454 43.525 138.037C43.6775 137.648 43.9063 137.293 44.198 136.994C44.471 136.72 44.7978 136.505 45.158 136.363C45.5123 136.221 45.8904 136.148 46.272 136.148C47.162 136.148 47.864 136.42 48.381 136.964C48.897 137.509 49.155 138.309 49.155 139.366C49.155 139.469 49.151 139.582 49.143 139.706C49.135 139.828 49.128 139.938 49.12 140.033H45.092C45.132 140.398 45.302 140.688 45.604 140.903C45.906 141.117 46.311 141.225 46.82 141.225C47.145 141.225 47.465 141.195 47.779 141.135C48.093 141.075 48.349 141.002 48.548 140.915L48.786 142.357C48.6632 142.415 48.5357 142.463 48.405 142.5C48.2307 142.551 48.0538 142.593 47.875 142.625C47.6675 142.663 47.4587 142.693 47.249 142.715C47.0271 142.739 46.8041 142.75 46.581 142.75C46.017 142.75 45.527 142.667 45.11 142.5C44.7184 142.35 44.3644 142.116 44.073 141.815C43.7963 141.521 43.5886 141.169 43.465 140.784C43.3309 140.368 43.2644 139.934 43.268 139.497H43.269ZM47.439 138.817C47.4314 138.668 47.4055 138.52 47.362 138.377C47.32 138.236 47.2498 138.106 47.1556 137.993C47.0613 137.88 46.9451 137.788 46.814 137.722C46.6521 137.645 46.4741 137.608 46.295 137.614C46.097 137.614 45.925 137.648 45.783 137.715C45.646 137.778 45.5239 137.869 45.425 137.983C45.3281 138.097 45.2535 138.229 45.205 138.371C45.153 138.518 45.115 138.667 45.092 138.817H47.439V138.817ZM50.526 136.529C50.9101 136.424 51.3001 136.343 51.694 136.285C52.1906 136.208 52.6925 136.17 53.195 136.172C53.727 136.172 54.17 136.242 54.524 136.381C54.877 136.52 55.157 136.716 55.364 136.971C55.57 137.225 55.717 137.527 55.804 137.876C55.892 138.226 55.936 138.615 55.936 139.044V142.584H54.16V139.258C54.16 138.686 54.085 138.281 53.934 138.043C53.783 137.805 53.501 137.685 53.088 137.685C52.825 137.689 52.5626 137.709 52.302 137.745V142.583H50.526V136.529V136.529ZM57.486 134.754L59.261 134.468V136.315H61.394V137.793H59.26V139.997C59.26 140.371 59.325 140.669 59.456 140.891C59.587 141.113 59.852 141.225 60.249 141.225C60.6392 141.224 61.0262 141.155 61.393 141.022L61.643 142.404C61.4106 142.497 61.1716 142.573 60.928 142.631C60.6111 142.7 60.2873 142.732 59.963 142.726C59.478 142.726 59.077 142.661 58.759 142.53C58.4628 142.414 58.2007 142.225 57.997 141.981C57.7991 141.732 57.6621 141.44 57.597 141.129C57.5184 140.765 57.4805 140.393 57.484 140.021V134.754H57.486ZM64.636 141.308C64.961 141.308 65.191 141.276 65.326 141.213C65.461 141.149 65.529 141.026 65.529 140.843C65.529 140.7 65.441 140.575 65.267 140.468C65.0119 140.323 64.7445 140.202 64.468 140.104C64.2108 140.01 63.9585 139.903 63.712 139.783C63.4994 139.681 63.3043 139.546 63.134 139.383C62.9735 139.226 62.8475 139.037 62.764 138.829C62.6713 138.582 62.6271 138.319 62.634 138.055C62.634 137.467 62.852 137.002 63.288 136.661C63.725 136.319 64.325 136.148 65.088 136.148C65.469 136.148 65.835 136.182 66.184 136.249C66.534 136.317 66.812 136.39 67.018 136.469L66.708 137.852C66.4872 137.777 66.2626 137.713 66.035 137.662C65.767 137.604 65.4933 137.575 65.219 137.578C64.663 137.578 64.385 137.733 64.385 138.043C64.384 138.108 64.3962 138.173 64.421 138.233C64.444 138.289 64.492 138.343 64.564 138.394C64.635 138.446 64.732 138.502 64.856 138.561C64.979 138.621 65.136 138.686 65.326 138.758C65.716 138.901 66.037 139.042 66.292 139.181C66.546 139.32 66.746 139.471 66.893 139.634C67.04 139.797 67.143 139.977 67.203 140.176C67.263 140.375 67.293 140.605 67.293 140.867C67.293 141.487 67.06 141.956 66.595 142.273C66.131 142.591 65.473 142.75 64.623 142.75C64.067 142.75 63.604 142.702 63.235 142.607C62.9733 142.546 62.7163 142.467 62.466 142.369L62.764 140.927C63.066 141.046 63.376 141.139 63.694 141.207C64.011 141.274 64.325 141.308 64.635 141.308H64.636Z" fill="black"/>
<path d="M261.263 81.785H149.042C145.728 81.785 143.042 84.4713 143.042 87.785V100.88C143.042 104.194 145.728 106.88 149.042 106.88H261.263C264.577 106.88 267.263 104.194 267.263 100.88V87.785C267.263 84.4713 264.577 81.785 261.263 81.785Z" fill="black"/>
<path d="M241.122 101.442C245.164 101.442 248.441 98.1652 248.441 94.123C248.441 90.0808 245.164 86.804 241.122 86.804C237.08 86.804 233.803 90.0808 233.803 94.123C233.803 98.1652 237.08 101.442 241.122 101.442Z" fill="#10E7FF"/>
<path d="M226.483 101.442C230.525 101.442 233.802 98.1652 233.802 94.123C233.802 90.0808 230.525 86.804 226.483 86.804C222.441 86.804 219.164 90.0808 219.164 94.123C219.164 98.1652 222.441 101.442 226.483 101.442Z" fill="#10E7FF"/>
<path d="M255.761 101.442C259.803 101.442 263.08 98.1652 263.08 94.123C263.08 90.0808 259.803 86.804 255.761 86.804C251.719 86.804 248.442 90.0808 248.442 94.123C248.442 98.1652 251.719 101.442 255.761 101.442Z" fill="#10E7FF"/>
<path d="M200.368 137.568C200.368 136.424 199.947 135.852 199.105 135.852C198.922 135.852 198.741 135.876 198.563 135.924C198.41 135.961 198.263 136.021 198.128 136.102V139.332C198.384 139.372 198.644 139.392 198.903 139.392C199.387 139.392 199.753 139.224 199.999 138.891C200.245 138.557 200.368 138.116 200.368 137.568V137.568ZM202.179 137.616C202.179 138.116 202.106 138.569 201.959 138.974C201.812 139.379 201.599 139.725 201.321 140.011C201.043 140.297 200.701 140.517 200.296 140.672C199.853 140.834 199.385 140.913 198.914 140.905C198.7 140.905 198.475 140.895 198.241 140.875C198.01 140.855 197.78 140.829 197.55 140.797C197.332 140.767 197.115 140.729 196.9 140.684C196.716 140.646 196.533 140.6 196.352 140.547V131.788L198.128 131.502V134.625C198.54 134.442 198.987 134.348 199.438 134.351C199.883 134.351 200.277 134.428 200.618 134.583C200.96 134.738 201.246 134.958 201.476 135.244C201.706 135.53 201.881 135.874 202.001 136.275C202.125 136.711 202.185 137.162 202.179 137.615V137.616ZM208.9 140.536C208.516 140.641 208.126 140.722 207.732 140.78C207.235 140.857 206.734 140.895 206.231 140.893C205.699 140.893 205.256 140.821 204.902 140.678C204.575 140.554 204.285 140.347 204.062 140.077C203.849 139.805 203.699 139.49 203.622 139.153C203.531 138.766 203.487 138.37 203.49 137.973V134.482H205.266V137.759C205.266 138.331 205.341 138.744 205.492 138.999C205.643 139.252 205.925 139.379 206.338 139.379C206.465 139.379 206.6 139.373 206.743 139.362C206.886 139.35 207.013 139.336 207.125 139.32V134.482H208.9V140.535V140.536ZM213.286 131.502C213.619 131.502 213.926 131.536 214.203 131.604C214.481 131.671 214.696 131.737 214.847 131.8L214.501 133.218C214.335 133.145 214.161 133.091 213.983 133.058C213.812 133.024 213.638 133.006 213.464 133.004C213.25 133.004 213.069 133.034 212.922 133.094C212.788 133.144 212.669 133.228 212.577 133.338C212.491 133.447 212.429 133.573 212.397 133.708C212.36 133.86 212.343 134.016 212.344 134.172V134.482H214.537V135.959H212.344V140.749H210.569V134.148C210.569 133.338 210.797 132.694 211.254 132.218C211.711 131.741 212.388 131.502 213.286 131.502V131.502ZM218.279 131.502C218.612 131.502 218.919 131.536 219.196 131.604C219.474 131.671 219.689 131.737 219.84 131.8L219.494 133.218C219.328 133.145 219.154 133.091 218.976 133.058C218.805 133.024 218.631 133.006 218.457 133.004C218.243 133.004 218.062 133.034 217.915 133.094C217.781 133.144 217.662 133.228 217.57 133.338C217.484 133.447 217.422 133.573 217.39 133.708C217.353 133.86 217.336 134.016 217.337 134.172V134.482H219.53V135.959H217.337V140.749H215.562V134.148C215.562 133.338 215.79 132.694 216.247 132.218C216.704 131.741 217.381 131.502 218.279 131.502V131.502ZM220.197 137.663C220.197 137.107 220.283 136.621 220.453 136.203C220.606 135.814 220.835 135.46 221.127 135.161C221.4 134.886 221.726 134.671 222.086 134.529C222.44 134.388 222.818 134.315 223.2 134.315C224.09 134.315 224.793 134.587 225.31 135.131C225.826 135.675 226.084 136.476 226.084 137.532C226.084 137.636 226.08 137.749 226.072 137.872L226.048 138.2H222.022C222.062 138.565 222.232 138.855 222.534 139.07C222.836 139.284 223.241 139.391 223.749 139.391C224.075 139.391 224.395 139.361 224.709 139.302C225.023 139.242 225.279 139.169 225.477 139.082L225.716 140.523C225.593 140.581 225.465 140.629 225.334 140.666C225.16 140.718 224.983 140.76 224.804 140.792C224.597 140.829 224.388 140.859 224.178 140.881C223.956 140.905 223.734 140.917 223.511 140.917C222.947 140.917 222.456 140.833 222.039 140.667C221.648 140.517 221.294 140.283 221.003 139.981C220.726 139.687 220.519 139.335 220.395 138.951C220.261 138.535 220.194 138.1 220.198 137.663H220.197ZM224.368 136.984C224.36 136.835 224.335 136.687 224.291 136.544C224.249 136.403 224.179 136.273 224.085 136.16C223.99 136.047 223.874 135.955 223.743 135.889C223.581 135.812 223.403 135.775 223.224 135.781C223.025 135.781 222.854 135.814 222.712 135.881C222.575 135.944 222.453 136.036 222.354 136.15C222.257 136.264 222.183 136.395 222.134 136.537C222.082 136.684 222.044 136.833 222.021 136.984H224.368V136.984ZM231.232 136.054C231.073 136.014 230.887 135.974 230.672 135.93C230.313 135.856 229.945 135.844 229.582 135.894C229.463 135.907 229.346 135.928 229.23 135.959V140.749H227.455V134.815C227.772 134.705 228.148 134.599 228.581 134.5C229.014 134.4 229.496 134.35 230.029 134.35C230.124 134.35 230.239 134.357 230.374 134.368C230.646 134.392 230.917 134.432 231.184 134.488C231.319 134.515 231.434 134.549 231.53 134.588L231.232 136.055V136.054ZM169.915 153.688C169.915 154.705 170.062 155.646 170.355 156.512C170.651 157.381 171.09 158.195 171.655 158.919L170.868 159.455C170.233 158.673 169.728 157.794 169.373 156.852C168.99 155.841 168.798 154.769 168.807 153.688C168.807 152.56 168.995 151.505 169.373 150.524C169.728 149.581 170.233 148.702 170.868 147.92L171.655 148.456C171.09 149.18 170.651 149.994 170.355 150.863C170.062 151.729 169.915 152.671 169.915 153.688ZM172.691 151.233C172.946 151.169 173.281 151.102 173.698 151.03C174.116 150.959 174.598 150.923 175.146 150.923C175.544 150.923 175.877 150.977 176.147 151.084C176.417 151.191 176.644 151.348 176.827 151.554C176.882 151.514 176.97 151.459 177.089 151.388C177.208 151.316 177.355 151.247 177.529 151.179C177.704 151.112 177.899 151.052 178.114 151.001C178.328 150.949 178.558 150.923 178.804 150.923C179.281 150.923 179.671 150.993 179.973 151.132C180.274 151.271 180.511 151.467 180.682 151.722C180.852 151.976 180.968 152.278 181.027 152.627C181.087 152.977 181.117 153.358 181.117 153.771V157.251H180.008V154.009C180.008 153.644 179.99 153.33 179.955 153.069C179.93 152.839 179.861 152.617 179.752 152.413C179.66 152.245 179.519 152.11 179.347 152.025C179.177 151.942 178.956 151.9 178.686 151.9C178.312 151.9 178.004 151.95 177.762 152.05C177.52 152.149 177.355 152.238 177.267 152.317C177.331 152.524 177.379 152.75 177.41 152.997C177.442 153.243 177.458 153.501 177.458 153.771V157.251H176.35V154.009C176.35 153.644 176.33 153.33 176.29 153.069C176.261 152.839 176.191 152.617 176.082 152.413C175.99 152.245 175.849 152.11 175.677 152.025C175.473 151.935 175.25 151.892 175.027 151.9C174.916 151.9 174.797 151.904 174.67 151.912C174.548 151.92 174.427 151.93 174.306 151.942C174.136 151.959 173.967 151.985 173.8 152.019V157.251H172.691V151.233ZM182.606 154.164C182.606 153.616 182.686 153.138 182.844 152.728C182.984 152.35 183.199 152.003 183.476 151.71C183.738 151.44 184.04 151.237 184.382 151.102C184.715 150.968 185.071 150.9 185.43 150.899C186.265 150.899 186.904 151.159 187.349 151.679C187.794 152.2 188.016 152.993 188.016 154.057V154.242C188.016 154.317 188.012 154.387 188.004 154.45H183.762C183.81 155.094 183.996 155.582 184.322 155.916C184.648 156.25 185.156 156.416 185.847 156.416C186.237 156.416 186.564 156.383 186.831 156.316C187.097 156.248 187.297 156.182 187.432 156.119L187.587 157.049C187.452 157.119 187.216 157.195 186.878 157.275C186.501 157.359 186.115 157.399 185.728 157.394C185.188 157.394 184.721 157.312 184.328 157.15C183.957 157.002 183.625 156.772 183.357 156.476C183.098 156.181 182.905 155.833 182.791 155.457C182.664 155.038 182.602 154.602 182.606 154.164V154.164ZM186.86 153.557C186.868 153.057 186.743 152.645 186.485 152.323C186.227 152.002 185.871 151.841 185.418 151.841C185.164 151.841 184.94 151.891 184.745 151.99C184.551 152.089 184.385 152.218 184.251 152.377C184.116 152.536 184.011 152.719 183.935 152.925C183.86 153.129 183.809 153.341 183.785 153.557H186.86V153.557ZM189.613 151.233C189.867 151.169 190.203 151.102 190.62 151.03C191.037 150.959 191.52 150.923 192.068 150.923C192.465 150.923 192.798 150.977 193.069 151.084C193.339 151.191 193.565 151.348 193.749 151.554C193.804 151.514 193.891 151.459 194.01 151.388C194.13 151.316 194.277 151.247 194.451 151.179C194.626 151.112 194.821 151.052 195.035 151.001C195.25 150.949 195.48 150.923 195.726 150.923C196.203 150.923 196.592 150.993 196.894 151.132C197.196 151.271 197.432 151.467 197.604 151.722C197.774 151.976 197.889 152.278 197.949 152.627C198.009 152.977 198.039 153.358 198.039 153.771V157.251H196.93V154.009C196.93 153.644 196.912 153.33 196.876 153.069C196.851 152.839 196.782 152.617 196.674 152.413C196.582 152.245 196.441 152.11 196.269 152.025C196.098 151.942 195.877 151.9 195.607 151.9C195.234 151.9 194.926 151.95 194.684 152.05C194.441 152.149 194.277 152.238 194.189 152.317C194.253 152.524 194.3 152.75 194.332 152.997C194.364 153.243 194.38 153.501 194.38 153.771V157.251H193.272V154.009C193.272 153.644 193.252 153.33 193.212 153.069C193.183 152.839 193.112 152.617 193.003 152.413C192.911 152.245 192.77 152.11 192.598 152.025C192.394 151.935 192.171 151.892 191.948 151.9C191.838 151.9 191.718 151.904 191.591 151.912C191.47 151.92 191.349 151.93 191.228 151.942C191.058 151.959 190.889 151.985 190.721 152.019V157.251H189.613V151.233ZM205.343 154.153C205.343 154.645 205.272 155.09 205.129 155.487C204.997 155.865 204.793 156.213 204.527 156.512C204.27 156.797 203.955 157.022 203.603 157.173C203.234 157.331 202.836 157.41 202.435 157.406C202.015 157.406 201.625 157.328 201.268 157.173C200.916 157.022 200.601 156.797 200.344 156.512C200.078 156.213 199.874 155.865 199.742 155.487C199.594 155.058 199.521 154.606 199.528 154.152C199.528 153.668 199.599 153.225 199.742 152.824C199.885 152.423 200.086 152.079 200.344 151.793C200.602 151.507 200.91 151.287 201.268 151.132C201.637 150.975 202.034 150.895 202.435 150.899C202.857 150.899 203.245 150.977 203.603 151.132C203.961 151.287 204.269 151.507 204.527 151.793C204.785 152.079 204.986 152.423 205.129 152.823C205.272 153.225 205.343 153.668 205.343 154.153ZM204.187 154.153C204.187 153.453 204.03 152.899 203.717 152.49C203.403 152.081 202.976 151.876 202.435 151.876C201.895 151.876 201.468 152.081 201.155 152.49C200.841 152.9 200.684 153.453 200.684 154.152C200.684 154.852 200.841 155.406 201.154 155.815C201.468 156.224 201.895 156.429 202.435 156.429C202.975 156.429 203.403 156.224 203.717 155.815C204.03 155.405 204.187 154.852 204.187 154.152V154.153ZM209.192 150.923C209.288 150.923 209.397 150.929 209.52 150.941C209.643 150.953 209.764 150.969 209.883 150.989C210.003 151.009 210.112 151.029 210.211 151.049C210.285 151.063 210.359 151.08 210.431 151.102L210.241 152.067C210.098 152.021 209.953 151.983 209.806 151.954C209.549 151.905 209.288 151.883 209.026 151.888C208.819 151.888 208.614 151.91 208.412 151.954C208.209 151.998 208.076 152.027 208.012 152.044V157.251H206.904V151.315C207.166 151.22 207.492 151.131 207.881 151.047C208.271 150.964 208.708 150.922 209.192 150.922V150.923ZM211.027 158.407C211.115 158.447 211.228 158.484 211.367 158.52C211.506 158.556 211.643 158.574 211.778 158.574C212.215 158.574 212.557 158.476 212.803 158.282C213.049 158.087 213.272 157.772 213.47 157.334C212.97 156.381 212.503 155.37 212.07 154.301C211.641 153.243 211.281 152.159 210.992 151.054H212.183C212.271 151.412 212.376 151.797 212.499 152.21C212.761 153.085 213.061 153.948 213.399 154.796C213.574 155.233 213.756 155.654 213.947 156.059C214.249 155.225 214.511 154.399 214.733 153.58C214.956 152.762 215.166 151.92 215.365 151.054H216.509C216.233 152.188 215.915 153.311 215.556 154.421C215.226 155.445 214.848 156.453 214.424 157.441C214.285 157.762 214.119 158.071 213.929 158.365C213.759 158.623 213.569 158.835 213.363 159.003C213.156 159.169 212.924 159.293 212.666 159.372C212.293 159.48 211.902 159.515 211.516 159.473C211.336 159.451 211.159 159.413 210.986 159.36C210.931 159.344 210.877 159.324 210.825 159.3L211.027 158.407V158.407ZM225.899 154.152C225.899 154.645 225.828 155.09 225.685 155.487C225.553 155.865 225.349 156.213 225.083 156.512C224.827 156.796 224.512 157.022 224.16 157.173C223.791 157.331 223.393 157.41 222.992 157.406C222.571 157.406 222.182 157.328 221.824 157.173C221.472 157.022 221.157 156.797 220.9 156.512C220.634 156.213 220.43 155.865 220.299 155.487C220.151 155.058 220.078 154.606 220.084 154.152C220.084 153.668 220.156 153.225 220.299 152.824C220.442 152.423 220.642 152.079 220.9 151.793C221.159 151.507 221.466 151.287 221.824 151.132C222.193 150.974 222.591 150.895 222.992 150.899C223.412 150.899 223.802 150.977 224.16 151.132C224.517 151.287 224.825 151.507 225.083 151.793C225.341 152.079 225.542 152.423 225.685 152.823C225.828 153.225 225.899 153.668 225.899 154.153V154.152ZM224.743 154.152C224.743 153.453 224.587 152.899 224.273 152.49C223.959 152.081 223.532 151.876 222.992 151.876C222.452 151.876 222.024 152.081 221.711 152.49C221.397 152.9 221.24 153.453 221.24 154.152C221.24 154.852 221.397 155.406 221.71 155.815C222.024 156.224 222.451 156.429 222.992 156.429C223.532 156.429 223.959 156.224 224.272 155.815C224.587 155.405 224.743 154.852 224.743 154.152V154.152ZM229.748 150.923C229.844 150.923 229.953 150.929 230.076 150.941C230.199 150.953 230.32 150.969 230.44 150.989C230.559 151.009 230.668 151.029 230.767 151.049C230.841 151.063 230.915 151.08 230.987 151.102L230.797 152.067C230.654 152.021 230.509 151.983 230.362 151.954C230.105 151.905 229.844 151.883 229.582 151.888C229.375 151.888 229.171 151.91 228.968 151.954C228.765 151.998 228.632 152.027 228.568 152.044V157.251H227.46V151.315C227.723 151.22 228.048 151.131 228.438 151.047C228.827 150.964 229.264 150.922 229.748 150.922V150.923ZM238.817 152.365C238.639 152.23 238.442 152.121 238.233 152.043C237.968 151.938 237.684 151.885 237.399 151.888C237.081 151.888 236.809 151.946 236.583 152.061C236.362 152.172 236.171 152.336 236.029 152.538C235.88 152.755 235.774 153 235.719 153.258C235.654 153.551 235.621 153.851 235.623 154.152C235.623 154.875 235.803 155.434 236.16 155.827C236.517 156.22 236.994 156.417 237.59 156.417C237.892 156.417 238.144 156.403 238.346 156.375C238.549 156.347 238.706 156.317 238.817 156.285V152.365ZM238.817 148.195L239.925 148.003V157.073C239.671 157.143 239.345 157.215 238.948 157.287C238.495 157.363 238.037 157.399 237.578 157.394C237.101 157.394 236.672 157.318 236.291 157.167C235.923 157.025 235.59 156.806 235.314 156.524C235.035 156.233 234.822 155.885 234.688 155.505C234.536 155.07 234.461 154.612 234.468 154.152C234.468 153.676 234.529 153.239 234.652 152.842C234.763 152.468 234.947 152.119 235.194 151.817C235.433 151.531 235.724 151.308 236.07 151.149C236.416 150.991 236.811 150.911 237.256 150.911C237.613 150.911 237.929 150.959 238.203 151.054C238.477 151.149 238.682 151.241 238.817 151.328V148.194V148.195ZM242.94 157.251H241.832V151.054H242.94V157.251V157.251ZM242.38 149.934C242.192 149.938 242.01 149.867 241.874 149.737C241.734 149.607 241.665 149.43 241.665 149.207C241.665 148.985 241.735 148.807 241.874 148.677C242.01 148.547 242.192 148.476 242.38 148.48C242.579 148.48 242.748 148.546 242.887 148.677C243.026 148.807 243.095 148.985 243.095 149.207C243.095 149.43 243.025 149.607 242.887 149.737C242.751 149.867 242.568 149.938 242.38 149.934ZM246.289 156.452C246.742 156.452 247.077 156.392 247.296 156.274C247.514 156.154 247.623 155.964 247.623 155.702C247.627 155.576 247.6 155.452 247.544 155.34C247.488 155.227 247.405 155.13 247.302 155.058C247.087 154.899 246.734 154.721 246.242 154.522C246.011 154.43 245.782 154.333 245.556 154.23C245.352 154.14 245.161 154.021 244.99 153.878C244.831 153.743 244.702 153.577 244.609 153.39C244.507 153.17 244.458 152.929 244.466 152.687C244.466 152.139 244.668 151.704 245.073 151.382C245.478 151.06 246.031 150.899 246.73 150.899C246.904 150.899 247.08 150.909 247.254 150.929C247.429 150.949 247.592 150.973 247.743 151.001C247.969 151.042 248.192 151.1 248.41 151.173L248.207 152.127C248.028 152.042 247.84 151.976 247.647 151.93C247.347 151.857 247.039 151.823 246.73 151.829C246.42 151.829 246.15 151.89 245.92 152.013C245.812 152.065 245.722 152.147 245.66 152.25C245.599 152.353 245.569 152.471 245.574 152.591C245.571 152.715 245.598 152.837 245.651 152.949C245.709 153.059 245.79 153.155 245.89 153.229C245.997 153.312 246.13 153.389 246.289 153.461C246.448 153.533 246.639 153.608 246.861 153.688C247.155 153.799 247.417 153.908 247.647 154.015C247.877 154.123 248.074 154.248 248.237 154.391C248.4 154.534 248.525 154.707 248.613 154.909C248.7 155.112 248.743 155.36 248.743 155.654C248.743 156.226 248.531 156.659 248.106 156.953C247.681 157.247 247.076 157.393 246.289 157.393C245.741 157.393 245.312 157.348 245.002 157.257C244.788 157.198 244.577 157.128 244.37 157.048L244.573 156.095C244.7 156.143 244.903 156.215 245.181 156.309C245.459 156.405 245.828 156.452 246.289 156.452V156.452ZM252.402 153.842C252.64 154.025 252.892 154.252 253.159 154.522C253.425 154.792 253.687 155.084 253.945 155.398C254.203 155.712 254.448 156.029 254.678 156.351C254.908 156.673 255.103 156.973 255.262 157.251H253.963C253.785 156.957 253.592 156.673 253.385 156.399C253.167 156.109 252.938 155.831 252.7 155.565C252.471 155.308 252.228 155.063 251.973 154.832C251.752 154.629 251.517 154.442 251.27 154.272V157.251H250.162V148.194L251.27 148.004V153.652L251.902 153.02C252.132 152.79 252.358 152.556 252.581 152.317C252.803 152.079 253.014 151.851 253.212 151.632C253.386 151.442 253.557 151.249 253.725 151.054H255.024C254.841 151.253 254.642 151.471 254.428 151.71C254.213 151.948 253.991 152.188 253.761 152.43C253.531 152.673 253.298 152.915 253.063 153.157L252.403 153.843L252.402 153.842ZM257.252 153.688C257.252 152.671 257.105 151.729 256.812 150.863C256.516 149.994 256.077 149.18 255.512 148.456L256.299 147.92C256.934 148.702 257.439 149.581 257.794 150.524C258.172 151.505 258.36 152.56 258.36 153.688C258.369 154.769 258.177 155.841 257.794 156.852C257.439 157.794 256.934 158.673 256.299 159.455L255.512 158.919C256.077 158.195 256.516 157.381 256.812 156.512C257.105 155.646 257.252 154.705 257.252 153.688Z" fill="black"/>
<path d="M347.189 94.989L283.405 95.172L283.401 93.499L347.184 93.316L347.172 89.133L357.224 94.123L347.201 99.171L347.189 94.989ZM376.048 139.475C376.373 139.475 376.604 139.443 376.738 139.38C376.874 139.316 376.941 139.193 376.941 139.01C376.941 138.867 376.854 138.742 376.679 138.635C376.424 138.49 376.157 138.369 375.881 138.271C375.623 138.177 375.371 138.07 375.124 137.95C374.911 137.848 374.716 137.713 374.546 137.55C374.385 137.393 374.259 137.204 374.176 136.996C374.083 136.749 374.039 136.486 374.046 136.222C374.046 135.634 374.264 135.169 374.701 134.827C375.138 134.486 375.738 134.315 376.501 134.315C376.881 134.315 377.247 134.349 377.597 134.416C377.947 134.484 378.225 134.557 378.431 134.636L378.121 136.019C377.9 135.944 377.676 135.88 377.448 135.829C377.18 135.771 376.906 135.742 376.632 135.745C376.076 135.745 375.797 135.9 375.797 136.21C375.796 136.275 375.808 136.34 375.833 136.4C375.857 136.456 375.905 136.51 375.976 136.561C376.048 136.613 376.146 136.669 376.268 136.728C376.391 136.788 376.548 136.853 376.738 136.925C377.128 137.068 377.45 137.209 377.704 137.348C377.958 137.487 378.159 137.638 378.306 137.801C378.453 137.963 378.556 138.144 378.616 138.343C378.676 138.541 378.706 138.772 378.706 139.034C378.706 139.654 378.473 140.122 378.008 140.44C377.543 140.758 376.886 140.917 376.036 140.917C375.48 140.917 375.017 140.869 374.648 140.774C374.386 140.713 374.129 140.634 373.878 140.536L374.177 139.094C374.479 139.213 374.789 139.306 375.107 139.374C375.424 139.441 375.737 139.474 376.047 139.474L376.048 139.475ZM379.73 137.664C379.73 137.107 379.815 136.621 379.986 136.204C380.138 135.815 380.367 135.46 380.659 135.161C380.932 134.887 381.259 134.672 381.619 134.53C381.973 134.388 382.351 134.315 382.733 134.315C383.623 134.315 384.326 134.587 384.843 135.131C385.359 135.675 385.617 136.476 385.617 137.533C385.617 137.636 385.613 137.749 385.605 137.873L385.581 138.2H381.553C381.593 138.565 381.763 138.855 382.066 139.07C382.368 139.284 382.773 139.392 383.281 139.392C383.607 139.392 383.927 139.362 384.241 139.302C384.554 139.242 384.811 139.169 385.009 139.082L385.247 140.524C385.125 140.582 384.997 140.63 384.867 140.667C384.692 140.718 384.515 140.76 384.336 140.792C384.129 140.83 383.92 140.86 383.71 140.882C383.488 140.906 383.266 140.917 383.043 140.917C382.479 140.917 381.988 140.833 381.571 140.667C381.179 140.517 380.825 140.283 380.534 139.981C380.258 139.687 380.05 139.335 379.927 138.951C379.793 138.535 379.726 138.101 379.73 137.664V137.664ZM383.9 136.984C383.892 136.835 383.867 136.687 383.823 136.544C383.781 136.403 383.711 136.273 383.617 136.16C383.522 136.047 383.406 135.955 383.275 135.889C383.113 135.812 382.936 135.775 382.757 135.781C382.558 135.781 382.387 135.815 382.244 135.882C382.107 135.945 381.986 136.036 381.887 136.15C381.79 136.264 381.716 136.395 381.667 136.537C381.615 136.684 381.577 136.833 381.553 136.984H383.901H383.9ZM390.765 136.054C390.605 136.015 390.419 135.974 390.205 135.93C389.846 135.856 389.478 135.844 389.115 135.894C388.996 135.907 388.878 135.929 388.763 135.96V140.75H386.987V134.816C387.305 134.704 387.68 134.599 388.113 134.5C388.546 134.4 389.029 134.35 389.561 134.35C389.657 134.35 389.771 134.357 389.907 134.369C390.179 134.393 390.45 134.433 390.717 134.488C390.852 134.516 390.967 134.549 391.063 134.589L390.765 136.055V136.054ZM394.09 140.75C393.634 139.841 393.222 138.911 392.856 137.962C392.412 136.819 392.017 135.658 391.671 134.482H393.553C393.633 134.792 393.726 135.127 393.833 135.489C394.05 136.217 394.276 136.942 394.513 137.664C394.628 138.014 394.741 138.331 394.853 138.617C394.956 138.331 395.067 138.013 395.186 137.664C395.306 137.314 395.422 136.954 395.537 136.585C395.653 136.215 395.764 135.85 395.871 135.489C395.978 135.127 396.071 134.792 396.151 134.482H397.986C397.64 135.658 397.245 136.819 396.801 137.962C396.435 138.911 396.023 139.841 395.567 140.75H394.09V140.75ZM400.715 140.75H398.94V134.482H400.715V140.75ZM400.882 132.67C400.882 132.996 400.777 133.252 400.566 133.44C400.356 133.626 400.108 133.72 399.822 133.72C399.535 133.72 399.287 133.626 399.077 133.44C398.867 133.252 398.761 132.996 398.761 132.67C398.761 132.345 398.866 132.089 399.077 131.902C399.287 131.715 399.535 131.622 399.822 131.622C400.108 131.622 400.356 131.715 400.566 131.902C400.776 132.089 400.882 132.345 400.882 132.671V132.67ZM402.086 137.616C402.086 137.163 402.159 136.736 402.306 136.335C402.453 135.934 402.666 135.585 402.944 135.286C403.23 134.983 403.574 134.741 403.957 134.577C404.354 134.402 404.807 134.315 405.315 134.315C405.649 134.315 405.955 134.345 406.233 134.405C406.511 134.464 406.781 134.549 407.043 134.661L406.673 136.079C406.494 136.012 406.311 135.956 406.125 135.912C405.906 135.862 405.682 135.838 405.458 135.84C404.934 135.84 404.542 136.003 404.284 136.329C404.026 136.655 403.897 137.084 403.897 137.616C403.897 138.18 404.018 138.616 404.26 138.926C404.503 139.236 404.926 139.392 405.53 139.392C405.744 139.392 405.974 139.372 406.22 139.332C406.467 139.292 406.693 139.229 406.9 139.142L407.15 140.595C406.9 140.696 406.641 140.772 406.376 140.822C406.038 140.888 405.695 140.92 405.351 140.917C404.779 140.917 404.286 140.831 403.873 140.661C403.485 140.508 403.137 140.27 402.854 139.964C402.584 139.664 402.385 139.308 402.27 138.921C402.144 138.498 402.082 138.058 402.086 137.616V137.616ZM407.746 137.664C407.746 137.107 407.831 136.621 408.002 136.204C408.155 135.815 408.384 135.46 408.676 135.161C408.949 134.887 409.275 134.672 409.635 134.53C409.989 134.388 410.367 134.315 410.749 134.315C411.639 134.315 412.342 134.587 412.859 135.131C413.375 135.675 413.633 136.476 413.633 137.533C413.633 137.636 413.629 137.749 413.621 137.873L413.597 138.2H409.569C409.609 138.565 409.779 138.855 410.082 139.07C410.384 139.284 410.789 139.392 411.297 139.392C411.623 139.392 411.943 139.362 412.257 139.302C412.57 139.242 412.827 139.169 413.025 139.082L413.264 140.524C413.141 140.582 413.013 140.63 412.882 140.667C412.708 140.718 412.531 140.76 412.352 140.792C412.145 140.83 411.936 140.86 411.726 140.882C411.504 140.906 411.282 140.917 411.059 140.917C410.495 140.917 410.004 140.833 409.587 140.667C409.195 140.517 408.841 140.283 408.55 139.981C408.274 139.687 408.066 139.335 407.943 138.951C407.809 138.535 407.742 138.101 407.746 137.664V137.664ZM411.916 136.984C411.908 136.835 411.882 136.687 411.839 136.544C411.797 136.403 411.727 136.273 411.633 136.16C411.538 136.047 411.422 135.955 411.291 135.889C411.129 135.812 410.952 135.775 410.773 135.781C410.574 135.781 410.403 135.815 410.26 135.882C410.123 135.945 410.002 136.036 409.903 136.15C409.806 136.264 409.732 136.395 409.683 136.537C409.631 136.684 409.593 136.833 409.569 136.984H411.917H411.916ZM417.536 101.124C417.536 106.286 413.382 110.471 408.259 110.471H379.553C374.43 110.471 370.277 106.286 370.277 101.124C370.277 96.462 373.664 92.6 378.095 91.893C378.037 91.5594 378.008 91.2215 378.008 90.883C378.008 87.612 380.64 84.96 383.888 84.96C385.335 84.96 386.662 85.488 387.686 86.366C389.512 82.222 391.851 78.44 398.416 78.44C406.376 78.44 410.15 84.627 410.15 91.154C410.15 91.427 410.139 91.698 410.12 91.966C414.352 92.834 417.536 96.604 417.536 101.124Z" fill="black"/>
<path d="M109 23H305V21H109V23Z" fill="black"/>
<path d="M198.409 11.1875C198.409 11.0068 198.382 10.8457 198.328 10.7041C198.274 10.5576 198.177 10.4233 198.035 10.3013C197.894 10.1792 197.693 10.0571 197.435 9.93506C197.176 9.80811 196.836 9.67871 196.417 9.54688C195.938 9.39062 195.481 9.21484 195.047 9.01953C194.617 8.81934 194.234 8.5874 193.897 8.32373C193.56 8.06006 193.294 7.75244 193.099 7.40088C192.908 7.04932 192.813 6.63916 192.813 6.17041C192.813 5.71631 192.913 5.30615 193.113 4.93994C193.313 4.57373 193.594 4.26123 193.956 4.00244C194.317 3.73877 194.742 3.53857 195.23 3.40186C195.718 3.26025 196.255 3.18945 196.841 3.18945C197.623 3.18945 198.309 3.32861 198.899 3.60693C199.495 3.88037 199.959 4.26611 200.291 4.76416C200.623 5.25732 200.789 5.83105 200.789 6.48535H198.416C198.416 6.19727 198.355 5.94336 198.233 5.72363C198.116 5.49902 197.935 5.32324 197.691 5.19629C197.452 5.06934 197.151 5.00586 196.79 5.00586C196.438 5.00586 196.143 5.05957 195.904 5.16699C195.669 5.26953 195.491 5.41113 195.369 5.5918C195.252 5.77246 195.193 5.97021 195.193 6.18506C195.193 6.35596 195.237 6.51221 195.325 6.65381C195.418 6.79053 195.55 6.91992 195.721 7.04199C195.896 7.15918 196.111 7.27148 196.365 7.37891C196.619 7.48633 196.91 7.58887 197.237 7.68652C197.808 7.86719 198.313 8.06738 198.753 8.28711C199.197 8.50684 199.571 8.75586 199.874 9.03418C200.176 9.3125 200.403 9.62744 200.555 9.979C200.711 10.3306 200.789 10.7285 200.789 11.1729C200.789 11.6465 200.696 12.0664 200.511 12.4326C200.33 12.7988 200.066 13.1113 199.72 13.3701C199.378 13.624 198.968 13.8169 198.489 13.9487C198.011 14.0806 197.476 14.1465 196.885 14.1465C196.348 14.1465 195.818 14.0781 195.296 13.9414C194.773 13.7998 194.3 13.585 193.875 13.2969C193.455 13.0088 193.118 12.6426 192.864 12.1982C192.615 11.749 192.491 11.2168 192.491 10.6016H194.878C194.878 10.9238 194.925 11.1973 195.018 11.4219C195.11 11.6416 195.242 11.8198 195.413 11.9565C195.589 12.0933 195.801 12.1909 196.05 12.2495C196.299 12.3081 196.578 12.3374 196.885 12.3374C197.242 12.3374 197.53 12.2886 197.75 12.1909C197.974 12.0884 198.14 11.9492 198.248 11.7734C198.355 11.5977 198.409 11.4023 198.409 11.1875ZM204.488 6.0752V14H202.195V6.0752H204.488ZM202.056 4.02441C202.056 3.69238 202.173 3.42139 202.408 3.21143C202.642 2.99658 202.95 2.88916 203.331 2.88916C203.711 2.88916 204.019 2.99658 204.253 3.21143C204.493 3.42139 204.612 3.69238 204.612 4.02441C204.612 4.35156 204.493 4.62256 204.253 4.8374C204.019 5.04736 203.711 5.15234 203.331 5.15234C202.95 5.15234 202.642 5.04736 202.408 4.8374C202.173 4.62256 202.056 4.35156 202.056 4.02441ZM208.377 7.76709V14H206.084V6.0752H208.238L208.377 7.76709ZM208.077 9.75928L207.505 9.77393C207.505 9.17822 207.579 8.64355 207.725 8.16992C207.872 7.69629 208.079 7.29346 208.348 6.96143C208.621 6.62451 208.946 6.36816 209.322 6.19238C209.703 6.0166 210.123 5.92871 210.582 5.92871C210.953 5.92871 211.292 5.98242 211.6 6.08984C211.907 6.19727 212.171 6.37061 212.391 6.60986C212.615 6.84424 212.786 7.15674 212.903 7.54736C213.021 7.93311 213.079 8.40918 213.079 8.97559V14H210.779V8.96826C210.779 8.63623 210.733 8.37988 210.64 8.19922C210.547 8.01855 210.411 7.8916 210.23 7.81836C210.054 7.74512 209.839 7.7085 209.585 7.7085C209.317 7.7085 209.087 7.76221 208.897 7.86963C208.707 7.97217 208.55 8.11621 208.428 8.30176C208.306 8.4873 208.216 8.70459 208.157 8.95361C208.104 9.20264 208.077 9.47119 208.077 9.75928ZM216.873 2.74268V14H214.581V2.74268H216.873ZM221.905 6.0752L218.455 10.0596L216.631 11.8906L215.716 10.3452L217.195 8.43359L219.151 6.0752H221.905ZM219.488 14L217.254 10.3599L218.895 9.07812L222.11 14H219.488Z" fill="black"/>
<line x1="109" y1="21" x2="109" y2="40" stroke="black" stroke-width="2"/>
<line x1="304" y1="21" x2="304" y2="40" stroke="black" stroke-width="2"/>
</svg>
