<?xml version="1.0" encoding="UTF-8"?>
<svg width="400px" height="400px" viewBox="0 0 400 400" version="1.1" xmlns="http://www.w3.org/2000/svg" xmlns:xlink="http://www.w3.org/1999/xlink">
    <!-- Generator: Sketch 64 (93537) - https://sketch.com -->
    <title>charts</title>
    <desc>Created with Sketch.</desc>
    <defs>
        <polygon id="path-1" points="0.625569042 0.04 310.272 0.04 310.272 400 0.625569042 400"></polygon>
        <polygon id="path-3" points="0.06 0.463 400 0.463 400 268.794 0.06 268.794"></polygon>
        <polygon id="path-5" points="0.06 0.705 81.531 0.705 81.531 392.354 0.06 392.354"></polygon>
    </defs>
    <g id="charts" stroke="none" stroke-width="1" fill="none" fill-rule="evenodd" opacity="0.05">
        <g id="Group">
            <path d="M99.265,76.777 C98.628,77.043 97.959,77.178 97.276,77.178 C95.184,77.178 93.312,75.931 92.506,74.001 C91.974,72.727 91.97,71.323 92.494,70.047 C92.737,69.457 93.088,68.936 93.51,68.484 C93.556,68.436 93.596,68.382 93.643,68.336 C93.841,68.14 94.06,67.965 94.289,67.803 C94.356,67.755 94.425,67.71 94.495,67.665 C94.745,67.506 95.003,67.359 95.282,67.242 C95.56,67.126 95.846,67.046 96.135,66.98 C96.217,66.962 96.298,66.945 96.38,66.93 C96.661,66.881 96.945,66.848 97.232,66.8459361 C97.333,66.845 97.433,66.856 97.533,66.861 C97.7,66.87 97.868,66.874 98.031,66.898 L98.047,66.9 C99.816,67.166 101.336,68.331 102.041,70.02 C103.139,72.647 101.893,75.68 99.265,76.777 Z M82.854,37.48 L85.47,38.556 L96.467,64.89 C96.409,64.895 96.351,64.903 96.292,64.911 C96.255,64.916 96.219,64.928 96.181,64.934 C95.956,64.969 95.732,65.015 95.511,65.071 C95.446,65.087 95.382,65.102 95.318,65.12 C95.049,65.197 94.782,65.284 94.521,65.393 C94.518,65.394 94.514,65.395 94.511,65.396 C94.507,65.398 94.504,65.401 94.5,65.402 C94.24,65.511 93.991,65.638 93.75,65.774 C93.689,65.808 93.631,65.846 93.572,65.881 C93.375,66 93.186,66.126 93.004,66.261 C92.974,66.283 92.941,66.3 92.912,66.322 C92.866,66.357 92.821,66.393 92.776,66.431 L81.779,40.098 L82.854,37.48 Z M98.679,64.998 L86.996,37.02 L81.764,34.871 L79.614,40.103 L91.29,68.064 C91.039,68.446 90.822,68.854 90.645,69.287 C89.917,71.058 89.922,73.006 90.66,74.772 C91.778,77.448 94.374,79.178 97.275,79.178 L97.276,79.178 C98.225,79.178 99.153,78.991 100.035,78.623 C101.802,77.885 103.175,76.504 103.902,74.733 C104.63,72.963 104.624,71.015 103.887,69.248 C102.954,67.016 100.988,65.458 98.679,64.998 L98.679,64.998 Z" id="Fill-1" fill="#0A0B09"></path>
            <path d="M81.221,71.205 C81.184,71.21 81.149,71.222 81.112,71.227 C80.884,71.263 80.658,71.309 80.434,71.366 C80.373,71.382 80.312,71.395 80.252,71.412 C79.978,71.49 79.706,71.579 79.44,71.69 C79.173,71.802 78.919,71.932 78.673,72.071 C78.608,72.108 78.546,72.149 78.482,72.187 C78.301,72.298 78.125,72.414 77.956,72.539 C77.919,72.566 77.877,72.588 77.84,72.616 C77.794,72.651 77.749,72.687 77.704,72.724 L69.02,51.928 L70.094,49.311 L72.71,50.387 L81.395,71.183 C81.337,71.189 81.279,71.197 81.221,71.205 Z M86.969,76.313 C87.5,77.587 87.505,78.991 86.98,80.267 C86.456,81.544 85.466,82.54 84.192,83.071 C83.556,83.337 82.887,83.472 82.204,83.472 C80.112,83.472 78.239,82.224 77.434,80.295 C76.627,78.362 77.094,76.218 78.438,74.778 C78.475,74.739 78.508,74.696 78.546,74.658 C78.748,74.455 78.972,74.271 79.21,74.102 C79.272,74.058 79.336,74.016 79.4,73.975 C79.648,73.814 79.908,73.667 80.189,73.547 C80.197,73.544 80.203,73.54 80.21,73.537 C80.219,73.533 80.228,73.531 80.237,73.528 C80.505,73.418 80.781,73.339 81.059,73.276 C81.143,73.257 81.226,73.239 81.31,73.224 C81.589,73.175 81.87,73.142 82.155,73.1399362 C82.262,73.139 82.369,73.15 82.476,73.156 C82.638,73.165 82.801,73.169 82.96,73.192 L82.975,73.194 C84.744,73.46 86.264,74.625 86.969,76.313 Z M69.004,46.702 L66.854,51.934 L76.22,74.361 C74.955,76.286 74.636,78.785 75.588,81.066 C76.705,83.742 79.302,85.472 82.204,85.472 C83.153,85.472 84.081,85.285 84.963,84.917 C86.729,84.18 88.103,82.799 88.83,81.027 C89.558,79.257 89.552,77.309 88.814,75.542 C87.882,73.31 85.916,71.753 83.608,71.292 L74.237,48.852 L69.004,46.702 L69.004,46.702 Z" id="Fill-2" fill="#0A0B09"></path>
            <path d="M66.148,77.499 C66.104,77.505 66.062,77.519 66.018,77.526 C65.806,77.559 65.596,77.602 65.387,77.655 C65.313,77.673 65.239,77.69 65.166,77.711 C64.897,77.788 64.63,77.876 64.368,77.985 C64.103,78.096 63.85,78.225 63.604,78.364 C63.544,78.398 63.485,78.435 63.426,78.471 C63.226,78.591 63.033,78.72 62.847,78.859 C62.823,78.877 62.795,78.891 62.77,78.91 C62.724,78.946 62.678,78.982 62.632,79.018 L56.259,63.759 L57.334,61.141 L59.95,62.217 L66.323,77.477 C66.265,77.483 66.206,77.491 66.148,77.499 Z M71.897,82.607 C72.429,83.881 72.433,85.285 71.909,86.561 C71.384,87.839 70.394,88.834 69.12,89.366 C68.484,89.632 67.815,89.766 67.133,89.766 C65.04,89.766 63.168,88.52 62.362,86.589 C61.83,85.315 61.826,83.911 62.35,82.635 C62.592,82.046 62.943,81.525 63.366,81.073 C63.411,81.024 63.452,80.971 63.499,80.924 C63.697,80.728 63.915,80.553 64.144,80.392 C64.211,80.344 64.28,80.299 64.35,80.254 C64.596,80.097 64.852,79.952 65.127,79.837 C65.131,79.835 65.135,79.833 65.139,79.831 C65.142,79.83 65.145,79.829 65.147,79.828 C65.425,79.713 65.71,79.632 65.998,79.567 C66.075,79.55 66.151,79.534 66.228,79.52 C66.513,79.469 66.801,79.436 67.093,79.434 C67.182,79.434 67.269,79.444 67.358,79.448 C69.354,79.536 71.121,80.749 71.897,82.607 Z M56.244,58.532 L54.094,63.765 L61.146,80.652 C60.895,81.034 60.678,81.442 60.5,81.875 C59.773,83.645 59.778,85.594 60.516,87.36 C61.634,90.036 64.231,91.766 67.133,91.766 C68.081,91.766 69.009,91.58 69.891,91.212 C73.538,89.688 75.266,85.483 73.743,81.836 C72.81,79.604 70.844,78.047 68.536,77.586 L61.477,60.682 L56.244,58.532 L56.244,58.532 Z" id="Fill-3" fill="#0A0B09"></path>
            <path d="M113.539,114.043 L113.676,114.048 C114.685,114.122 115.447,115.004 115.373,116.013 C115.303,116.967 114.5,117.715 113.546,117.715 L113.408,117.71 C112.919,117.674 112.474,117.45 112.153,117.079 C111.832,116.708 111.675,116.234 111.711,115.745 C111.781,114.791 112.583,114.043 113.539,114.043 Z M121.783,128.693 C121.997,129.135 122.026,129.633 121.865,130.097 C121.704,130.56 121.372,130.933 120.93,131.145 C120.678,131.268 120.41,131.33 120.133,131.33 C119.421,131.33 118.788,130.933 118.478,130.293 C118.265,129.852 118.235,129.353 118.396,128.891 C118.558,128.427 118.89,128.055 119.331,127.841 C119.583,127.719 119.851,127.657 120.128,127.657 C120.84,127.657 121.474,128.054 121.783,128.693 Z M98.459,116.614 L98.324,116.609 C97.314,116.535 96.553,115.653 96.626,114.644 C96.696,113.689 97.499,112.941 98.454,112.941 L98.591,112.946 C99.601,113.02 100.362,113.901 100.288,114.912 C100.219,115.866 99.416,116.614 98.459,116.614 Z M91.622,102.918 C90.613,102.844 89.851,101.962 89.925,100.953 C89.995,99.998 90.797,99.25 91.752,99.25 L91.89,99.255 C92.899,99.329 93.661,100.21 93.586,101.221 C93.517,102.175 92.714,102.923 91.757,102.923 L91.622,102.918 Z M76.674,101.821 L76.537,101.816 C75.528,101.742 74.766,100.86 74.84,99.852 C74.91,98.896 75.712,98.148 76.668,98.148 L76.805,98.153 C77.814,98.228 78.576,99.109 78.502,100.118 C78.432,101.073 77.629,101.821 76.674,101.821 Z M109.939,114.614 L102.207,114.049 C101.884,112.393 100.499,111.081 98.737,110.952 C98.332,110.922 97.943,110.974 97.569,111.065 L94.253,103.979 C94.999,103.333 95.505,102.413 95.581,101.366 C95.735,99.257 94.145,97.415 92.035,97.261 C90.274,97.137 88.716,98.241 88.153,99.821 L80.421,99.256 C80.098,97.6 78.713,96.288 76.95,96.159 C74.822,96.007 72.998,97.618 72.845,99.706 C72.691,101.815 74.282,103.656 76.392,103.81 C76.486,103.817 76.58,103.821 76.674,103.821 C78.325,103.821 79.744,102.747 80.274,101.25 L88.006,101.815 C88.329,103.471 89.714,104.783 91.477,104.912 C91.571,104.919 91.665,104.923 91.757,104.923 C91.995,104.923 92.228,104.898 92.454,104.855 L95.811,112.027 C95.15,112.664 94.702,113.525 94.631,114.499 C94.478,116.608 96.069,118.449 98.179,118.603 C98.273,118.61 98.366,118.614 98.459,118.614 C100.111,118.614 101.531,117.54 102.061,116.043 L109.791,116.608 C109.917,117.258 110.195,117.872 110.64,118.387 C111.31,119.162 112.241,119.63 113.263,119.704 C113.358,119.711 113.452,119.715 113.546,119.715 C113.787,119.715 114.023,119.69 114.253,119.646 L117.624,126.609 C117.124,127.043 116.731,127.591 116.507,128.233 C116.171,129.201 116.231,130.242 116.678,131.164 C117.314,132.479 118.67,133.33 120.133,133.33 C120.714,133.33 121.276,133.201 121.802,132.946 C122.724,132.5 123.417,131.722 123.754,130.754 C124.09,129.786 124.03,128.745 123.583,127.822 C122.947,126.507 121.591,125.657 120.128,125.657 C119.889,125.657 119.655,125.693 119.423,125.737 L116.048,118.764 C116.789,118.119 117.292,117.202 117.368,116.159 C117.522,114.05 115.931,112.208 113.821,112.054 C112.057,111.924 110.5,113.033 109.939,114.614 L109.939,114.614 Z" id="Fill-4" fill="#0A0B09"></path>
            <polyline id="Fill-5" fill="#0A0B09" points="50.645 140.097 68.081 114.415 66.427 113.292 48.99 138.974 50.645 140.097"></polyline>
            <polyline id="Fill-6" fill="#0A0B09" points="83.278 115.352 81.624 114.229 59.827 146.331 61.481 147.454 83.278 115.352"></polyline>
            <polyline id="Fill-7" fill="#0A0B09" points="89.868 129.207 88.214 128.084 70.776 153.766 72.431 154.889 89.868 129.207"></polyline>
            <polyline id="Fill-8" fill="#0A0B09" points="105.064 130.144 103.41 129.021 81.613 161.124 83.268 162.247 105.064 130.144"></polyline>
            <polyline id="Fill-9" fill="#0A0B09" points="92.45 168.481 94.104 169.604 111.541 143.923 109.887 142.8 92.45 168.481"></polyline>
            <path d="M148.067,61.578 L148.076,61.31 L148.232,56.812 L151.945,59.805 L148.067,61.578 Z M114.323,66.837 L115.97,66.083 L119.11,64.648 L118.75,74.983 L113.963,77.173 L114.323,66.837 Z M115.585,30.507 L122.562,36.129 L115.274,39.462 L115.585,30.507 Z M141.605,54.361 L142.222,54.079 L143.892,53.316 L146.285,55.244 L146.033,62.508 L141.246,64.697 L141.605,54.361 Z M134.785,57.48 L139.572,55.291 L139.212,65.627 L134.425,67.815 L134.785,57.48 Z M127.964,60.599 L132.751,58.41 L132.392,68.745 L127.604,70.934 L127.964,60.599 Z M121.143,63.718 L125.93,61.529 L125.571,71.864 L120.784,74.054 L121.143,63.718 Z M114.76,54.266 L134.098,45.423 L142.151,51.913 L140.211,52.8 L139.432,53.156 L133.392,55.917 L133.391,55.918 L114.4,64.602 L114.76,54.266 Z M115.197,41.696 L119.75,39.614 L124.304,37.531 L132.357,44.02 L114.837,52.032 L115.197,41.696 Z M147.93,54.001 L144.667,51.373 C144.667,51.373 144.666,51.371 144.665,51.371 L115.283,27.695 C114.988,27.456 114.584,27.406 114.24,27.564 C113.895,27.722 113.669,28.06 113.656,28.439 L111.908,78.72 C111.896,79.066 112.064,79.395 112.352,79.587 C112.519,79.698 112.713,79.755 112.908,79.755 C113.049,79.755 113.191,79.724 113.324,79.664 L133.786,70.307 L133.787,70.306 L140.605,67.189 L140.606,67.188 L154.248,60.95 C154.563,60.807 154.781,60.509 154.824,60.165 C154.867,59.821 154.729,59.479 154.459,59.263 L147.93,54.001 L147.93,54.001 Z" id="Fill-10" fill="#0A0B09"></path>
            <path d="M239.854,78.895 L235.778,77.164 L238.906,69.801 L242.982,71.531 L239.854,78.895 Z M242.761,63.833 L240.806,68.434 L237.847,67.178 L233.155,78.223 L236.114,79.479 L234.159,84.081 L236,84.862 L237.954,80.261 L240.913,81.517 L245.605,70.473 L242.646,69.216 L244.602,64.614 L242.761,63.833 L242.761,63.833 Z" id="Fill-11" fill="#0A0B09"></path>
            <path d="M248.56,91.285 L244.484,89.554 L247.612,82.19 L251.688,83.922 L248.56,91.285 Z M251.466,76.223 L249.512,80.824 L246.553,79.567 L241.861,90.612 L244.82,91.869 L242.865,96.472 L244.706,97.253 L246.661,92.651 L249.619,93.908 L254.311,82.863 L251.352,81.606 L253.307,77.004 L251.466,76.223 L251.466,76.223 Z" id="Fill-12" fill="#0A0B09"></path>
            <path d="M262.74,90.789 L258.664,89.059 L261.791,81.695 L265.868,83.426 L262.74,90.789 Z M265.646,75.727 L263.691,80.329 L260.733,79.072 L256.041,90.117 L258.999,91.374 L257.044,95.975 L258.885,96.757 L260.84,92.155 L263.798,93.412 L268.491,82.367 L265.532,81.11 L267.487,76.509 L265.646,75.727 L265.646,75.727 Z" id="Fill-13" fill="#0A0B09"></path>
            <polyline id="Fill-14" fill="#0A0B09" points="218.832 95.497 261.171 113.482 261.953 111.643 221.456 94.438 238.658 53.94 236.817 53.159 218.832 95.497"></polyline>
            <polyline id="Fill-15" fill="#0A0B09" points="188.531 331.177 180.531 331.177 180.531 317.547 178.531 317.547 178.531 331.177 171.531 331.177 171.531 312.351 169.531 312.351 169.531 331.177 162.531 331.177 162.531 307.154 160.531 307.154 160.531 331.177 153.531 331.177 153.531 301.958 151.531 301.958 151.531 331.177 144.531 331.177 144.531 287.177 142.531 287.177 142.531 333.177 188.531 333.177 188.531 331.177"></polyline>
            <polyline id="Fill-16" fill="#0A0B09" points="147.531 292.227 181.44 311.804 175.476 313.403 175.994 315.335 185.255 312.852 182.775 303.59 180.843 304.107 182.44 310.071 148.531 290.494 147.531 292.227"></polyline>
            <path d="M88.499,218.894 L84.626,222.767 L75.181,213.322 C80.157,213.585 84.817,215.533 88.499,218.894 Z M76.433,233.788 L84.211,226.01 L85.333,224.889 L86.626,223.595 L89.913,220.309 C93.404,224.137 95.262,228.931 95.486,233.788 L76.433,233.788 Z M89.913,249.268 L76.433,235.788 L95.486,235.788 C95.262,240.645 93.404,245.439 89.913,249.268 Z M83.915,253.876 L54.931,224.892 C55.792,223.229 56.863,221.693 58.125,220.309 L88.498,250.682 C87.113,251.944 85.577,253.016 83.915,253.876 Z M75.655,256.223 L52.584,233.152 C52.749,230.97 53.238,228.852 54.043,226.832 L81.975,254.764 C79.957,255.568 77.838,256.058 75.655,256.223 Z M58.816,249.991 C55.058,246.232 52.842,241.215 52.555,235.951 L72.858,256.254 C67.55,255.974 62.601,253.775 58.816,249.991 Z M64.123,215.699 L77.908,229.484 L74.019,233.374 L60.144,219.499 L59.54,218.894 C60.923,217.633 62.46,216.561 64.123,215.699 Z M72.384,213.353 L83.212,224.181 L81.267,226.126 L79.322,228.07 L66.064,214.811 C68.083,214.008 70.201,213.518 72.384,213.353 Z M72.715,211.328 C69.635,211.498 66.665,212.256 63.891,213.581 C61.477,214.734 59.294,216.278 57.402,218.171 C55.509,220.064 53.965,222.248 52.812,224.659 C51.487,227.434 50.729,230.402 50.559,233.482 L50.559,233.483 C50.19,240.155 52.685,246.686 57.402,251.405 C61.839,255.842 67.739,258.284 74.017,258.284 C74.434,258.284 74.85,258.272 75.266,258.25 C75.267,258.25 75.267,258.25 75.267,258.25 C75.286,258.25 75.305,258.249 75.323,258.248 C78.405,258.078 81.374,257.319 84.148,255.994 C84.148,255.994 84.148,255.994 84.149,255.993 C86.559,254.843 88.741,253.299 90.636,251.405 C99.799,242.242 99.799,227.334 90.636,218.171 C85.892,213.427 79.421,210.954 72.715,211.328 L72.715,211.328 Z" id="Fill-17" fill="#0A0B09"></path>
            <polyline id="Fill-18" fill="#0A0B09" points="233.831 248.418 182.105 242.775 188.308 185.905 186.32 185.688 185.376 194.339 181.227 193.886 181.01 195.874 185.159 196.327 184.324 203.982 180.175 203.53 179.958 205.518 184.107 205.971 183.272 213.627 179.123 213.174 178.906 215.162 183.056 215.615 182.221 223.271 178.071 222.818 177.854 224.807 182.004 225.259 181.169 232.915 177.019 232.462 176.802 234.45 180.952 234.903 179.9 244.547 233.615 250.406 233.831 248.418"></polyline>
            <path d="M219.136,232.903 C218.965,234.473 217.568,235.636 215.96,235.455 C215.195,235.372 214.509,234.995 214.027,234.395 C213.545,233.796 213.326,233.044 213.409,232.279 C213.569,230.814 214.798,229.71 216.268,229.71 C216.372,229.71 216.478,229.716 216.585,229.727 C217.35,229.81 218.036,230.187 218.518,230.787 C219,231.388 219.22,232.139 219.136,232.903 Z M203.062,224.503 C202.891,226.072 201.483,227.227 199.886,227.055 C199.121,226.972 198.435,226.595 197.953,225.995 C197.471,225.395 197.251,224.643 197.335,223.879 C197.495,222.414 198.724,221.31 200.194,221.31 C200.298,221.31 200.404,221.315 200.511,221.327 C202.089,221.499 203.234,222.924 203.062,224.503 Z M193.917,235.311 C193.746,236.88 192.351,238.042 190.741,237.862 C189.163,237.69 188.018,236.266 188.19,234.686 C188.35,233.223 189.579,232.118 191.049,232.118 C191.154,232.118 191.26,232.124 191.366,232.136 C192.945,232.308 194.089,233.732 193.917,235.311 Z M228.776,224.243 L230.718,223.763 L228.343,214.165 L218.744,216.538 L219.224,218.479 L225.509,216.926 L218.634,228.319 C218.075,228.01 217.456,227.811 216.802,227.739 C215.003,227.543 213.371,228.348 212.378,229.676 L204.945,225.235 C204.982,225.064 205.031,224.898 205.05,224.72 C205.342,222.045 203.402,219.631 200.727,219.339 C198.011,219.045 195.636,221.005 195.347,223.662 C195.218,224.847 195.536,226.003 196.213,226.971 L193.253,230.659 C192.743,230.4 192.185,230.213 191.583,230.147 C188.862,229.852 186.491,231.814 186.202,234.47 C185.911,237.144 187.849,239.559 190.524,239.851 C190.704,239.87 190.882,239.88 191.058,239.88 C193.551,239.88 195.635,238.009 195.905,235.528 C196.053,234.171 195.623,232.885 194.818,231.905 L197.671,228.349 C198.273,228.717 198.946,228.964 199.669,229.043 C199.849,229.062 200.026,229.072 200.203,229.072 C201.808,229.072 203.235,228.291 204.126,227.076 L211.539,231.505 C211.496,231.69 211.442,231.87 211.421,232.062 C211.28,233.358 211.651,234.632 212.468,235.647 C213.284,236.664 214.448,237.302 215.744,237.443 C215.923,237.463 216.101,237.473 216.277,237.473 C218.77,237.473 220.854,235.602 221.124,233.12 C221.26,231.875 220.911,230.656 220.16,229.662 L227.221,217.96 L228.776,224.243 L228.776,224.243 Z" id="Fill-19" fill="#0A0B09"></path>
            <path d="M352.97,253.716 L346.793,252.039 L348.468,245.87 C349.969,246.5 351.221,247.593 352.044,249.029 C352.868,250.468 353.186,252.101 352.97,253.716 Z M348.377,259.659 C346.876,260.269 345.191,260.376 343.61,259.948 C339.636,258.869 337.281,254.759 338.36,250.785 C339.241,247.54 342.202,245.273 345.56,245.273 C345.887,245.273 346.214,245.296 346.54,245.339 L344.601,252.48 L344.61,252.483 C344.542,252.734 344.564,253.005 344.698,253.239 L348.377,259.659 Z M348.046,243.606 C347.232,243.386 346.396,243.273 345.56,243.273 C341.301,243.273 337.546,246.146 336.43,250.262 C335.062,255.299 338.048,260.51 343.086,261.878 C343.899,262.099 344.734,262.211 345.57,262.211 C347.213,262.211 348.839,261.776 350.272,260.955 C350.751,260.681 350.917,260.07 350.643,259.591 L347.634,254.34 L353.475,255.925 C354.007,256.075 354.558,255.755 354.702,255.222 C355.364,252.781 355.037,250.229 353.78,248.035 C352.523,245.842 350.486,244.268 348.046,243.606 L348.046,243.606 Z" id="Fill-20" fill="#0A0B09"></path>
            <path d="M355.788,241.503 C355.595,241.326 355.397,241.156 355.196,240.99 C355.08,240.894 354.968,240.796 354.849,240.704 C354.527,240.453 354.193,240.22 353.852,239.997 C353.752,239.932 353.65,239.87 353.548,239.807 C353.22,239.604 352.885,239.412 352.542,239.234 C352.489,239.207 352.437,239.176 352.383,239.149 C352.004,238.959 351.615,238.788 351.218,238.629 L355.125,224.237 L311.971,212.523 L303.647,243.185 L330.532,250.483 C330.468,250.904 330.419,251.326 330.392,251.748 C330.388,251.81 330.388,251.872 330.385,251.933 C330.365,252.318 330.361,252.702 330.37,253.086 C330.373,253.206 330.375,253.326 330.38,253.446 C330.4,253.853 330.433,254.259 330.486,254.664 C330.505,254.812 330.533,254.958 330.557,255.105 C330.598,255.365 330.646,255.624 330.702,255.883 C330.743,256.078 330.785,256.272 330.834,256.464 C330.841,256.491 330.845,256.518 330.852,256.545 L296.572,247.238 L309.952,197.951 L323.012,201.497 L321.918,205.528 L323.848,206.052 L324.942,202.02 L349.246,208.618 L348.151,212.649 L350.081,213.173 L351.175,209.142 L364.236,212.687 L356.287,241.972 C356.268,241.953 356.249,241.937 356.23,241.919 C356.087,241.777 355.938,241.64 355.788,241.503 Z M358.312,256.202 C356.753,261.943 351.515,265.953 345.574,265.953 C344.409,265.953 343.242,265.797 342.106,265.488 C337.901,264.347 334.735,261.28 333.267,257.501 C333.16,257.226 333.061,256.949 332.973,256.67 C332.947,256.59 332.926,256.508 332.902,256.427 C332.82,256.149 332.742,255.87 332.679,255.589 C332.662,255.512 332.651,255.433 332.635,255.356 C332.548,254.933 332.485,254.507 332.44,254.079 C332.416,253.844 332.39,253.609 332.379,253.371 C332.371,253.213 332.372,253.055 332.37,252.897 C332.367,252.646 332.368,252.395 332.38,252.143 C332.387,251.993 332.396,251.842 332.408,251.692 C332.43,251.419 332.462,251.145 332.502,250.87 C332.52,250.744 332.535,250.618 332.557,250.492 L332.615,250.221 C332.676,249.908 332.735,249.594 332.82,249.281 C334.378,243.541 339.616,239.531 345.557,239.531 C345.848,239.531 346.14,239.541 346.431,239.56 C346.448,239.562 346.465,239.564 346.483,239.566 C347.338,239.626 348.191,239.769 349.028,239.997 C349.052,240.004 349.075,240.013 349.099,240.02 C349.358,240.092 349.606,240.181 349.856,240.267 L350.219,240.387 C350.33,240.429 350.438,240.476 350.548,240.521 C350.81,240.628 351.068,240.741 351.321,240.863 C351.452,240.927 351.582,240.992 351.71,241.06 C351.94,241.181 352.164,241.31 352.385,241.444 C352.514,241.522 352.645,241.597 352.772,241.68 C352.981,241.817 353.181,241.964 353.381,242.112 C353.701,242.348 354.01,242.598 354.308,242.864 C354.385,242.932 354.466,242.996 354.541,243.066 C354.75,243.261 354.949,243.468 355.146,243.677 C355.205,243.74 355.266,243.801 355.323,243.864 C355.519,244.081 355.708,244.307 355.891,244.538 C358.409,247.716 359.453,251.998 358.312,256.202 Z M349.316,238.005 C349.179,237.97 349.04,237.944 348.901,237.913 C348.759,237.88 348.616,237.846 348.473,237.818 C348.287,237.781 348.1,237.753 347.914,237.724 C347.778,237.702 347.642,237.677 347.506,237.659 C347.296,237.632 347.084,237.614 346.873,237.596 C346.76,237.586 346.647,237.571 346.534,237.564 C346.208,237.543 345.883,237.531 345.557,237.531 C345.132,237.531 344.71,237.549 344.292,237.584 C344.157,237.596 344.026,237.619 343.892,237.634 C343.611,237.665 343.328,237.694 343.051,237.741 C342.889,237.768 342.731,237.809 342.571,237.841 C342.326,237.89 342.079,237.935 341.837,237.996 C341.672,238.038 341.512,238.094 341.349,238.141 C341.118,238.208 340.885,238.27 340.658,238.348 C340.649,238.351 340.64,238.353 340.631,238.356 C340.472,238.411 340.318,238.48 340.16,238.54 C339.946,238.622 339.729,238.699 339.518,238.791 C339.349,238.864 339.186,238.951 339.019,239.03 C338.819,239.126 338.617,239.217 338.422,239.321 C338.256,239.41 338.098,239.51 337.937,239.604 C337.748,239.714 337.556,239.819 337.373,239.937 C337.213,240.039 337.062,240.152 336.906,240.261 C336.729,240.383 336.55,240.502 336.378,240.632 C336.224,240.749 336.079,240.876 335.929,240.999 C335.766,241.133 335.599,241.263 335.441,241.404 C335.295,241.535 335.158,241.675 335.017,241.811 C334.866,241.956 334.713,242.098 334.568,242.249 C334.431,242.393 334.303,242.545 334.172,242.694 C334.034,242.85 333.894,243.002 333.763,243.163 C333.636,243.319 333.519,243.483 333.399,243.644 C333.275,243.809 333.147,243.972 333.03,244.142 C332.915,244.31 332.81,244.486 332.701,244.658 C332.591,244.833 332.478,245.004 332.376,245.183 C332.273,245.362 332.181,245.548 332.085,245.733 C331.99,245.915 331.891,246.095 331.804,246.282 C331.715,246.471 331.637,246.666 331.556,246.86 C331.476,247.05 331.392,247.239 331.319,247.434 C331.245,247.632 331.183,247.836 331.117,248.039 C331.064,248.202 331.003,248.36 330.955,248.525 L306.102,241.778 L313.377,214.977 L352.671,225.643 L349.316,238.005 Z M351.699,207.211 L352.794,203.18 L350.864,202.656 L349.77,206.688 L325.466,200.09 L326.56,196.059 L324.631,195.535 L323.537,199.566 L308.546,195.496 L294.118,248.644 L331.646,258.833 C333.432,262.903 336.968,266.166 341.581,267.418 C342.889,267.773 344.232,267.953 345.574,267.953 C352.416,267.953 358.447,263.336 360.242,256.726 C361.494,252.112 360.467,247.412 357.859,243.813 L366.69,211.281 L351.699,207.211 L351.699,207.211 Z" id="Fill-21" fill="#0A0B09"></path>
            <path d="M178.22,86.288 L190.296,53.596 L195.827,55.64 L183.752,88.332 L180.986,87.31 L178.22,86.288 Z M193.035,91.761 L207.664,52.154 L213.196,54.198 L198.567,93.804 L193.035,91.761 Z M172.927,55.037 L178.458,57.081 L168.936,82.859 L163.405,80.816 L172.927,55.037 Z M181.028,55.897 L171.744,52.469 L161.529,80.123 L155.06,77.733 L154.366,79.61 L206.219,98.764 L206.912,96.887 L200.442,94.497 L215.766,53.015 L206.482,49.586 L191.159,91.068 L185.627,89.024 L198.396,54.456 L189.113,51.027 L176.344,85.595 L170.812,83.552 L181.028,55.897 L181.028,55.897 Z" id="Fill-22" fill="#0A0B09"></path>
            <path d="M237.641,327.986 L243.199,329.262 L240.785,339.781 L236.167,338.722 L235.227,338.506 L237.641,327.986 Z M240.502,315.518 L246.06,316.793 L243.646,327.312 L240.867,326.675 L238.088,326.037 L240.502,315.518 Z M225.28,312.977 L230.838,314.253 L225.771,336.336 L223.89,335.904 L220.213,335.06 L225.28,312.977 Z M225.727,311.028 L230.795,288.946 L236.353,290.222 L231.286,312.304 L228.507,311.666 L225.727,311.028 Z M208.371,317.792 L213.622,318.997 L213.929,319.067 L210.757,332.891 L205.199,331.615 L208.371,317.792 Z M211.99,302.019 L217.548,303.295 L214.376,317.118 L208.818,315.843 L211.99,302.019 Z M235.533,340.628 L248.819,343.677 L249.267,341.727 L242.734,340.229 L248.456,315.291 L239,313.121 L233.278,338.059 L227.72,336.783 L238.749,288.72 L229.293,286.55 L218.264,334.613 L212.706,333.338 L219.945,301.793 L210.488,299.623 L206.421,317.345 L206.422,317.345 L203.25,331.168 L197.692,329.893 L210.703,273.19 L208.754,272.743 L206.772,281.382 L202.62,280.429 L202.172,282.378 L206.324,283.331 L204.566,290.994 L200.414,290.041 L199.966,291.99 L204.119,292.943 L202.36,300.607 L198.208,299.654 L197.761,301.603 L201.913,302.557 L200.154,310.22 L196.002,309.267 L195.555,311.216 L199.707,312.169 L197.948,319.832 L193.796,318.88 L193.349,320.829 L197.501,321.781 L195.295,331.394 L208.205,334.357 L217.816,336.562 L221.869,337.492 L232.831,340.008 L235.533,340.628 L235.533,340.628 Z" id="Fill-23" fill="#0A0B09"></path>
            <polyline id="Fill-24" fill="#0A0B09" points="207.825 21.576 210.649 20.563 212.506 25.739 209.683 26.752 210.358 28.635 213.182 27.622 215.039 32.799 212.215 33.811 212.89 35.694 215.714 34.682 217.571 39.858 214.747 40.871 215.422 42.754 218.246 41.741 220.104 46.918 217.28 47.931 217.955 49.813 220.779 48.8 223.311 55.86 262.845 41.68 262.17 39.797 224.518 53.302 209.662 11.886 207.779 12.562 209.974 18.68 207.15 19.693 207.825 21.576"></polyline>
            <path d="M227.659,36.102 L233.022,40.761 L233.995,27.599 L237.855,31.287 L242.184,26.08 L250.046,34.079 L252.509,27.577 L255.469,35.826 L226.759,46.125 L227.659,36.102 Z M252.561,21.797 L249.282,30.449 L242.06,23.1 L237.687,28.36 L232.313,23.224 L231.322,36.636 L226.016,32.027 L224.486,49.064 L258.026,37.033 L252.561,21.797 L252.561,21.797 Z" id="Fill-25" fill="#0A0B09"></path>
            <polyline id="Fill-26" fill="#0A0B09" points="121.687 150.9 133.107 169.69 150.276 179.093 142.811 181.275 143.373 183.195 154.113 180.054 150.976 169.314 149.056 169.875 151.236 177.339 134.538 168.194 123.396 149.861 121.687 150.9"></polyline>
            <path d="M119.331,163.973 L124.798,165.306 L115.693,202.632 L114.087,202.24 L110.227,201.298 L119.331,163.973 Z M131.379,178.948 L136.845,180.281 L130.511,206.246 L125.58,205.043 L125.045,204.913 L131.379,178.948 Z M143.426,193.924 L148.892,195.257 L145.33,209.861 L139.864,208.528 L143.426,193.924 Z M108.781,203.005 L116.191,204.812 C116.193,204.813 116.194,204.813 116.196,204.813 L123.599,206.619 L131.009,208.427 C131.01,208.427 131.01,208.427 131.011,208.427 L138.416,210.233 C138.417,210.234 138.418,210.234 138.418,210.234 L145.827,212.042 C145.829,212.042 145.832,212.042 145.834,212.043 L153.237,213.849 L153.71,211.905 L147.273,210.335 L151.072,194.76 C151.135,194.502 151.093,194.229 150.955,194.003 C150.817,193.776 150.595,193.613 150.337,193.551 L142.928,191.744 C142.393,191.614 141.851,191.941 141.72,192.478 L137.921,208.054 L132.454,206.72 L139.025,179.784 C139.088,179.526 139.046,179.254 138.908,179.027 C138.77,178.801 138.548,178.638 138.29,178.575 L130.881,176.768 C130.345,176.637 129.805,176.966 129.673,177.503 L123.102,204.439 L117.636,203.106 L126.978,164.809 C127.041,164.551 126.999,164.278 126.861,164.052 C126.724,163.825 126.501,163.662 126.244,163.6 L118.834,161.793 C118.301,161.663 117.757,161.991 117.625,162.527 L108.283,200.824 L102.817,199.491 L115.232,148.599 L113.289,148.124 L100.4,200.96 L108.779,203.004 C108.78,203.004 108.78,203.005 108.781,203.005 L108.781,203.005 Z" id="Fill-27" fill="#0A0B09"></path>
            <polyline id="Fill-28" fill="#0A0B09" points="342.567 292.279 340.739 291.467 315.967 347.215 308.351 343.831 317.663 322.876 315.835 322.063 306.523 343.018 298.908 339.634 311.447 311.415 309.619 310.602 297.08 338.822 289.464 335.438 303.586 303.657 301.758 302.845 287.636 334.625 280.02 331.241 292.318 303.567 290.49 302.755 278.192 330.429 270.577 327.045 285.557 293.333 283.729 292.52 268.749 326.233 260.219 322.442 259.407 324.27 316.982 349.855 342.567 292.279"></polyline>
            <path d="M181.454,359.59 L187.079,356.475 L197.825,375.872 L192.2,378.988 L181.454,359.59 Z M182.404,348.034 L185.89,354.328 L180.265,357.444 L176.779,351.15 L182.404,348.034 Z M163.451,361.887 L169.077,358.772 L183.076,384.043 L177.451,387.159 L163.451,361.887 Z M163.264,348.279 L167.732,356.343 L162.106,359.459 L157.639,351.395 L163.264,348.279 Z M199.393,357.179 L205.018,354.062 L212.574,367.702 L206.949,370.818 L199.393,357.179 Z M200.963,346.742 L203.533,351.381 L197.908,354.497 L195.338,349.858 L200.963,346.742 Z M206.169,373.537 L206.169,373.537 L209.946,371.444 L221.792,364.882 L220.823,363.132 L214.324,366.732 L201.743,344.023 L192.619,349.077 L205.199,371.787 L199.574,374.903 L183.184,345.315 L174.06,350.369 L179.705,360.56 L179.705,360.559 L190.451,379.957 L184.826,383.073 L164.044,345.56 L154.92,350.614 L175.701,388.128 L170.076,391.244 L139.175,335.461 L137.425,336.43 L142.172,344.998 L138.01,347.304 L138.979,349.054 L143.141,346.748 L147.403,354.441 L143.242,356.746 L144.21,358.496 L148.372,356.191 L152.634,363.884 L148.473,366.189 L149.441,367.939 L153.603,365.634 L157.865,373.327 L153.704,375.633 L154.672,377.383 L158.834,375.077 L163.096,382.77 L158.935,385.075 L159.903,386.825 L164.065,384.52 L169.296,393.963 L176.671,389.877 L176.671,389.878 L179.873,388.103 L206.169,373.537 L206.169,373.537 Z" id="Fill-29" fill="#0A0B09"></path>
            <path d="M340.921,59.971 L337.694,45.882 L343.431,44.567 L346.658,58.657 L345.472,58.929 L340.921,59.971 Z M341.683,36.936 L342.762,41.645 L337.025,42.96 L335.946,38.251 L341.683,36.936 Z M351.692,36.358 L357.429,35.044 L362.031,55.136 L356.363,56.434 L356.294,56.45 L351.692,36.358 Z M349.677,27.56 L355.414,26.246 L356.888,32.681 L351.151,33.995 L349.677,27.56 Z M365.663,26.715 L371.4,25.401 L377.403,51.615 L373.936,52.409 L371.666,52.929 L365.663,26.715 Z M363.158,15.779 L368.895,14.465 L370.791,22.745 L365.054,24.058 L363.158,15.779 Z M316.185,15.894 L320.46,14.915 L322.268,22.809 L317.994,23.788 L318.44,25.737 L322.714,24.758 L324.522,32.651 L320.247,33.63 L320.694,35.58 L324.969,34.601 L326.776,42.494 L322.502,43.473 L322.948,45.422 L327.223,44.443 L329.031,52.336 L324.756,53.315 L325.203,55.265 L329.477,54.286 L331.731,64.128 L341.304,61.935 L349.054,60.161 L349.054,60.16 L354.791,58.846 L354.791,58.847 L364.427,56.64 L364.427,56.639 L370.163,55.325 L370.164,55.326 L379.799,53.119 L379.799,53.118 L386.511,51.581 L386.065,49.632 L379.353,51.169 L373.349,24.955 L373.35,24.954 L370.398,12.069 L360.762,14.276 L363.105,24.505 L363.104,24.505 L369.717,53.376 L363.981,54.69 L356.917,23.85 L347.281,26.058 L354.344,56.897 L348.607,58.211 L344.934,42.171 L344.933,42.171 L343.186,34.54 L333.55,36.747 L338.971,60.417 L333.234,61.731 L319.932,3.652 L317.983,4.099 L320.014,12.966 L315.739,13.945 L316.185,15.894 L316.185,15.894 Z" id="Fill-30" fill="#0A0B09"></path>
            <polyline id="Fill-31" fill="#0A0B09" points="224.268 157.84 226.256 158.055 230.967 114.309 274.713 119.02 274.927 117.032 229.192 112.105 224.268 157.84"></polyline>
            <polyline id="Fill-32" fill="#0A0B09" points="257.447 150.301 266.981 151.327 268.008 141.793 266.02 141.578 265.358 147.718 248.583 126.894 241.071 132.946 234.766 125.12 233.208 126.374 240.768 135.759 248.281 129.707 263.801 148.973 257.661 148.312 257.447 150.301"></polyline>
            <path d="M315.748,64.031 L315.748,66.031 C335.797,66.031 352.108,82.343 352.108,102.392 C352.108,122.44 335.797,138.752 315.748,138.752 C295.699,138.752 279.388,122.44 279.388,102.392 L277.388,102.392 C277.388,123.544 294.596,140.752 315.748,140.752 C336.9,140.752 354.108,123.544 354.108,102.392 C354.108,81.239 336.9,64.031 315.748,64.031" id="Fill-33" fill="#0A0B09"></path>
            <path d="M314.748,76.02 L314.748,101.977 L296.401,120.325 C292.03,115.613 289.351,109.31 289.351,102.392 C289.351,88.171 300.655,76.548 314.748,76.02 Z M316.748,76.02 C323.273,76.264 329.197,78.885 333.681,83.044 L316.748,99.977 L316.748,76.02 Z M342.145,102.392 C342.145,116.947 330.304,128.789 315.748,128.789 C308.829,128.789 302.527,126.11 297.815,121.739 L335.095,84.458 C339.466,89.171 342.145,95.473 342.145,102.392 Z M315.748,130.789 C331.406,130.789 344.145,118.05 344.145,102.392 C344.145,86.733 331.406,73.994 315.748,73.994 C300.09,73.994 287.351,86.733 287.351,102.392 C287.351,118.05 300.09,130.789 315.748,130.789 L315.748,130.789 Z" id="Fill-34" fill="#0A0B09"></path>
            <path d="M165.603,272.593 L158.618,243.718 L171.094,240.699 L178.079,269.575 L165.603,272.593 Z M156.204,242.243 L164.129,275.007 L180.493,271.05 L172.567,238.285 L156.204,242.243 L156.204,242.243 Z" id="Fill-35" fill="#0A0B09"></path>
            <path d="M143.315,238.043 L152.443,275.776 L139.967,278.795 L130.839,241.061 L143.315,238.043 Z M154.857,277.251 L144.789,235.629 L128.425,239.587 L138.494,281.209 L154.857,277.251 L154.857,277.251 Z" id="Fill-36" fill="#0A0B09"></path>
            <path d="M126.808,281.977 L114.331,284.996 L103.061,238.406 L115.537,235.388 L126.808,281.977 Z M112.858,287.41 L129.222,283.452 L117.011,232.974 L100.647,236.932 L112.858,287.41 L112.858,287.41 Z" id="Fill-37" fill="#0A0B09"></path>
            <path d="M158.052,224.614 C140.273,215.096 120.305,212.793 103.273,218.304 L103.888,220.206 C120.409,214.864 139.806,217.114 157.108,226.378 L158.052,224.614" id="Fill-38" fill="#0A0B09"></path>
            <polyline id="Fill-39" fill="#0A0B09" points="164.263 229.402 161.328 218.469 159.396 218.988 161.813 227.99 152.812 230.408 153.331 232.34 164.263 229.402"></polyline>
            <path d="M211.716,179.345 L249.684,157.421 L267.27,187.878 L229.303,209.801 L211.716,179.345 Z M251.416,156.421 L254.842,154.442 L253.842,152.71 L205.559,180.59 L206.559,182.322 L209.984,180.344 L228.571,212.533 L243.664,203.818 L250.341,219.935 L252.189,219.169 L245.411,202.81 L253.163,198.334 L263.943,212.381 L265.53,211.164 L254.909,197.325 L270.003,188.61 L251.416,156.421 L251.416,156.421 Z" id="Fill-40" fill="#0A0B09"></path>
            <path d="M252.441,171.99 C252.156,172.83 251.205,173.31 250.348,173.021 C249.487,172.729 249.024,171.791 249.316,170.93 C249.543,170.26 250.171,169.81 250.877,169.81 C251.057,169.81 251.235,169.84 251.409,169.898 C252.269,170.19 252.733,171.129 252.441,171.99 Z M249.408,185.33 C249.106,185.595 248.721,185.74 248.321,185.74 C247.846,185.74 247.393,185.536 247.08,185.179 C246.48,184.495 246.548,183.451 247.232,182.852 C247.533,182.587 247.919,182.441 248.319,182.441 C248.794,182.441 249.247,182.645 249.56,183.004 C249.851,183.335 249.995,183.759 249.966,184.198 C249.937,184.638 249.739,185.04 249.408,185.33 Z M237.404,187.668 C236.781,188.291 235.694,188.291 235.071,187.668 C234.428,187.025 234.428,185.978 235.071,185.335 C235.382,185.023 235.797,184.852 236.237,184.852 C236.678,184.852 237.092,185.023 237.404,185.335 C237.715,185.646 237.887,186.06 237.887,186.501 C237.887,186.941 237.715,187.356 237.404,187.668 Z M229.194,196.786 C228.571,197.409 227.484,197.409 226.861,196.786 C226.218,196.143 226.218,195.096 226.86,194.453 C227.172,194.142 227.586,193.97 228.027,193.97 C228.467,193.97 228.882,194.142 229.194,194.453 C229.505,194.765 229.677,195.179 229.677,195.619 C229.677,196.06 229.505,196.475 229.194,196.786 Z M252.051,168.004 C251.671,167.875 251.276,167.81 250.877,167.81 C249.313,167.81 247.925,168.806 247.422,170.287 C246.867,171.924 247.55,173.681 248.959,174.555 L248.334,180.443 C248.329,180.443 248.324,180.441 248.319,180.441 C247.433,180.441 246.579,180.764 245.913,181.348 C245.14,182.026 244.728,182.961 244.682,183.915 L239.412,184.733 C239.249,184.442 239.06,184.163 238.817,183.921 C237.44,182.542 235.035,182.542 233.656,183.921 C232.461,185.117 232.283,186.938 233.097,188.334 L229.707,192.413 C228.336,191.727 226.56,191.925 225.446,193.039 C224.024,194.462 224.024,196.777 225.447,198.2 C226.136,198.89 227.053,199.268 228.027,199.268 C229.002,199.268 229.918,198.89 230.608,198.2 C231.297,197.511 231.677,196.594 231.677,195.619 C231.677,194.962 231.491,194.339 231.167,193.786 L234.548,189.719 C235.065,189.991 235.636,190.151 236.237,190.151 C237.212,190.151 238.129,189.771 238.818,189.082 C239.463,188.437 239.823,187.59 239.869,186.687 L245.135,185.869 C245.258,186.089 245.403,186.3 245.576,186.497 C246.269,187.287 247.269,187.74 248.321,187.74 C249.206,187.74 250.061,187.418 250.727,186.834 C251.459,186.191 251.898,185.302 251.962,184.328 C252.025,183.355 251.706,182.417 251.063,181.685 C250.836,181.425 250.567,181.218 250.283,181.035 L250.912,175.108 C252.463,175.094 253.836,174.104 254.335,172.633 C254.981,170.727 253.956,168.65 252.051,168.004 L252.051,168.004 Z" id="Fill-41" fill="#0A0B09"></path>
            <path d="M142.87,97.106 L125.313,86.97 C129.38,82.026 135.511,79.106 141.932,79.106 C152.531,79.106 161.46,86.768 163.144,97.106 L142.87,97.106 Z M141.932,77.106 C134.504,77.106 127.432,80.681 123.013,86.668 L122.349,87.568 L142.333,99.106 L165.407,99.106 L165.284,97.996 C163.967,86.087 153.927,77.106 141.932,77.106 L141.932,77.106 Z" id="Fill-42" fill="#0A0B09"></path>
            <path d="M145.432,121.818 L145.432,104.106 L163.143,104.106 C161.658,113.12 154.445,120.333 145.432,121.818 Z M165.284,103.217 L165.407,102.106 L143.432,102.106 L143.432,124.081 L144.541,123.959 C155.364,122.762 164.087,114.038 165.284,103.217 L165.284,103.217 Z" id="Fill-43" fill="#0A0B09"></path>
            <path d="M138.432,102.627 L138.432,121.819 C128.094,120.135 120.432,111.205 120.432,100.606 C120.432,97.994 120.894,95.45 121.809,93.03 L138.432,102.627 Z M120.4,91.189 C119.094,94.172 118.432,97.34 118.432,100.606 C118.432,112.602 127.413,122.642 139.322,123.959 L140.432,124.081 L140.432,101.473 L120.849,90.166 L120.4,91.189 L120.4,91.189 Z" id="Fill-44" fill="#0A0B09"></path>
            <path d="M268.253,58.094 L311.253,58.094 L311.253,26.094 L268.253,26.094 L268.253,58.094 Z M266.253,60.095 L313.253,60.095 L313.253,24.094 L266.253,24.094 L266.253,60.095 Z" id="Fill-45" fill="#0A0B09"></path>
            <path d="M280.62,69.095 L282.227,64.095 L297.278,64.095 L298.886,69.095 L280.62,69.095 Z M280.769,62.095 L277.875,71.095 L301.63,71.095 L298.736,62.095 L280.769,62.095 L280.769,62.095 Z" id="Fill-46" fill="#0A0B09"></path>
            <path d="M282.487,42.825 L279.676,44.448 C279.484,43.657 279.388,42.858 279.388,42.059 C279.388,37.44 282.421,33.446 286.753,32.145 L286.753,35.407 C284.145,36.579 282.439,39.168 282.439,42.059 C282.439,42.308 282.455,42.56 282.487,42.825 Z M284.567,43.137 C284.479,42.723 284.439,42.38 284.439,42.059 C284.439,39.783 285.898,37.766 288.071,37.037 L288.753,36.809 L288.753,29.687 L287.578,29.897 C281.673,30.947 277.388,36.062 277.388,42.059 C277.388,43.483 277.643,44.906 278.146,46.286 L278.555,47.404 L284.717,43.847 L284.567,43.137 L284.567,43.137 Z" id="Fill-47" fill="#0A0B09"></path>
            <path d="M296.805,49.63 C294.893,51.418 292.381,52.424 289.753,52.424 C287.124,52.424 284.613,51.418 282.701,49.63 L285.514,48.006 C287.987,49.778 291.519,49.779 293.992,48.005 L296.805,49.63 Z M293.244,46.049 C291.297,47.757 288.206,47.755 286.262,46.049 L285.723,45.575 L279.563,49.132 L280.339,50.046 C282.701,52.828 286.132,54.424 289.753,54.424 C293.373,54.424 296.805,52.828 299.167,50.046 L299.943,49.132 L293.783,45.575 L293.244,46.049 L293.244,46.049 Z" id="Fill-48" fill="#0A0B09"></path>
            <path d="M299.83,44.448 L297.018,42.825 C297.051,42.56 297.067,42.308 297.067,42.059 C297.067,39.168 295.361,36.579 292.753,35.407 L292.753,32.145 C297.085,33.446 300.118,37.44 300.118,42.059 C300.118,42.858 300.021,43.657 299.83,44.448 Z M291.928,29.897 L290.753,29.687 L290.753,36.809 L291.435,37.037 C293.607,37.766 295.067,39.783 295.067,42.059 C295.067,42.38 295.026,42.723 294.938,43.137 L294.789,43.847 L300.951,47.404 L301.359,46.286 C301.863,44.906 302.118,43.483 302.118,42.059 C302.118,36.062 297.832,30.947 291.928,29.897 L291.928,29.897 Z" id="Fill-49" fill="#0A0B09"></path>
            <polyline id="Fill-50" fill="#0A0B09" points="74.296 271.879 38.943 302.901 7.921 267.549 6.418 268.867 37.44 304.22 34.669 306.651 35.988 308.155 38.759 305.724 41.19 308.494 42.693 307.176 40.262 304.405 75.615 273.383 74.296 271.879"></polyline>
            <path d="M30.257,265.322 C29.03,266.399 27.999,269.022 33.177,279.33 C34.598,282.157 34.23,285.216 32.263,286.942 L30.713,288.303 L32.033,289.805 L33.581,288.445 C36.245,286.109 36.8,282.085 34.964,278.432 C30.024,268.598 31.403,266.978 31.576,266.826 C31.749,266.675 33.533,265.518 42.643,271.694 C42.824,271.817 43.013,271.906 43.197,272.015 C44.045,274.514 43.549,277.039 41.83,278.547 L40.281,279.906 L41.6,281.41 L43.149,280.051 C45.094,278.344 45.9,275.735 45.486,273.029 C48.115,273.792 50.806,273.331 52.751,271.625 L54.301,270.266 L52.981,268.762 L51.432,270.121 C49.714,271.63 47.146,271.795 44.778,270.628 C44.694,270.431 44.63,270.231 44.532,270.036 C40.519,262.05 40.513,258.983 41.143,258.432 C41.774,257.881 44.813,258.284 52.21,263.3 C55.593,265.593 59.656,265.565 62.318,263.229 L63.868,261.87 L62.548,260.366 L60.999,261.726 C59.032,263.452 55.952,263.419 53.333,261.643 C43.785,255.169 41.052,255.852 39.824,256.928 C38.694,257.92 37.742,260.239 41.645,268.651 C33.808,263.69 31.386,264.335 30.257,265.322" id="Fill-51" fill="#0A0B09"></path>
            <path d="M290.453,255.092 C290.453,236.155 275.047,220.75 256.111,220.75 L255.111,220.75 L255.111,231.641 L256.111,231.641 C269.041,231.641 279.561,242.161 279.561,255.092 C279.561,268.022 269.041,278.543 256.111,278.543 C243.18,278.543 232.66,268.022 232.66,255.092 L230.66,255.092 C230.66,269.126 242.077,280.543 256.111,280.543 C270.144,280.543 281.561,269.126 281.561,255.092 C281.561,241.393 270.683,230.187 257.111,229.66 L257.111,222.766 C274.484,223.295 288.453,237.593 288.453,255.092 C288.453,272.926 273.944,287.435 256.111,287.435 C238.277,287.435 223.768,272.926 223.768,255.092 L221.768,255.092 C221.768,274.028 237.174,289.435 256.111,289.435 C275.047,289.435 290.453,274.028 290.453,255.092" id="Fill-52" fill="#0A0B09"></path>
            <path d="M256.111,241.273 C263.73,241.273 269.93,247.473 269.93,255.092 C269.93,262.712 263.73,268.911 256.111,268.911 C248.491,268.911 242.292,262.712 242.292,255.092 C242.292,247.473 248.491,241.273 256.111,241.273 Z M240.292,255.092 C240.292,263.814 247.388,270.911 256.111,270.911 C264.833,270.911 271.93,263.814 271.93,255.092 C271.93,246.369 264.833,239.273 256.111,239.273 C247.388,239.273 240.292,246.369 240.292,255.092 L240.292,255.092 Z" id="Fill-53" fill="#0A0B09"></path>
            <path d="M194.256,147.946 C192.284,153.799 186.813,157.731 180.642,157.731 C179.086,157.731 177.542,157.477 176.053,156.976 C172.416,155.75 169.474,153.183 167.768,149.744 C166.063,146.306 165.799,142.409 167.024,138.772 C168.548,134.247 172.256,130.772 176.831,129.508 L180.001,145.255 L192.053,134.637 C194.931,138.411 195.78,143.421 194.256,147.946 Z M192.259,131.789 L181.279,141.464 L178.39,127.116 L177.409,127.314 C171.693,128.472 166.987,132.617 165.128,138.134 C163.733,142.277 164.034,146.716 165.977,150.633 C167.92,154.55 171.271,157.476 175.414,158.87 C177.11,159.441 178.869,159.731 180.642,159.731 C187.673,159.731 193.905,155.252 196.151,148.585 C198.01,143.068 196.771,136.92 192.92,132.541 L192.259,131.789 L192.259,131.789 Z" id="Fill-54" fill="#0A0B09"></path>
            <polyline id="Fill-55" fill="#0A0B09" points="139.165 131.969 140.054 133.76 197.552 105.239 196.663 103.448 139.165 131.969"></polyline>
            <path d="M203.247,169.594 L189.606,176.36 L185.665,172.835 L202.759,164.355 L202.825,164.322 L203.247,169.594 Z M189.282,178.753 L205.349,170.783 L204.755,163.365 L222.113,154.755 L221.225,152.964 L163.727,181.484 L164.615,183.275 L183.735,173.792 L189.282,178.753 L189.282,178.753 Z" id="Fill-56" fill="#0A0B09"></path>
            <path d="M163.062,175.644 L144.302,137.822 L198.216,111.079 L216.977,148.901 L163.062,175.644 Z M141.621,136.92 L162.159,178.324 L219.657,149.804 L199.119,108.399 L141.621,136.92 L141.621,136.92 Z" id="Fill-57" fill="#0A0B09"></path>
            <path d="M274.935,146.62 L317.935,146.62 L317.935,168.446 L313.65,171.943 L304.711,161.144 L291.089,169.532 L279.503,157.946 L274.935,162.514 L274.935,146.62 Z M317.935,189.62 L274.935,189.62 L274.935,165.342 L279.503,160.774 L290.792,172.063 L304.28,163.76 L313.376,174.748 L317.935,171.027 L317.935,189.62 Z M272.935,164.514 L272.935,191.62 L319.935,191.62 L319.935,144.62 L272.935,144.62 L272.935,164.514 L272.935,164.514 Z" id="Fill-58" fill="#0A0B09"></path>
            <path d="M355.871,184.951 L349.538,186.526 L349.921,183.548 L360.47,180.924 L362.205,183.375 L355.871,184.951 Z M335.457,190.029 L337.037,177.775 L369.148,169.786 L376.286,179.872 L364.288,182.857 L361.313,178.652 L348.113,181.936 L347.454,187.045 L335.457,190.029 Z M362.928,146.098 L368.357,167.921 L336.861,175.758 L331.432,153.934 L362.928,146.098 Z M370.495,168.227 L364.386,143.674 L329.008,152.477 L335.117,177.029 L333.1,192.678 L347.179,189.175 L347.606,189.069 L379.609,181.106 L370.495,168.227 L370.495,168.227 Z" id="Fill-59" fill="#0A0B09"></path>
            <path d="M344.093,157.607 C345.158,155.836 346.928,154.688 348.939,154.427 L348.82,161.035 C348.813,161.392 348.998,161.726 349.304,161.909 L349.305,161.909 L349.304,161.91 L354.962,165.313 C353.702,166.844 351.843,167.737 349.812,167.737 C348.604,167.737 347.415,167.406 346.374,166.78 C344.845,165.859 343.765,164.398 343.333,162.666 C342.903,160.934 343.172,159.137 344.093,157.607 Z M356.083,158.727 C356.665,160.302 356.625,162.045 355.989,163.596 L351.82,161.088 L356.083,158.727 Z M341.393,163.148 C341.953,165.399 343.356,167.298 345.343,168.493 C346.696,169.308 348.241,169.737 349.812,169.737 C352.845,169.737 355.699,168.124 357.261,165.528 C358.852,162.882 358.912,159.556 357.416,156.848 C357.288,156.615 357.073,156.443 356.817,156.37 C356.563,156.295 356.289,156.327 356.057,156.456 L350.851,159.339 L350.958,153.389 C350.962,153.124 350.862,152.867 350.677,152.677 C350.493,152.485 350.241,152.376 349.975,152.371 L349.825,152.37 C346.746,152.37 343.962,153.942 342.379,156.576 C341.183,158.563 340.833,160.897 341.393,163.148 L341.393,163.148 Z" id="Fill-60" fill="#0A0B09"></path>
            <path d="M73.098,315.385 L100.888,332.362 C101.192,332.549 101.574,332.56 101.888,332.387 C102.201,332.216 102.4,331.891 102.409,331.533 L103.217,298.978 C114.435,299.613 124.641,306.036 130.025,315.921 C134.189,323.564 135.127,332.372 132.666,340.721 C130.206,349.07 124.641,355.961 116.997,360.125 C112.222,362.727 106.842,364.102 101.439,364.102 C89.483,364.102 78.507,357.586 72.793,347.097 C67.41,337.213 67.548,325.154 73.098,315.385 Z M101.439,366.102 C107.175,366.102 112.886,364.642 117.955,361.881 C126.067,357.462 131.973,350.147 134.585,341.286 C137.196,332.425 136.201,323.077 131.781,314.964 C125.897,304.162 114.589,297.255 102.268,296.936818 C102.001,296.932 101.746,297.03 101.553,297.213 C101.361,297.395 101.249,297.647 101.243,297.913 L100.453,329.753 L73.273,313.148 C73.046,313.01 72.774,312.964 72.517,313.03 C72.259,313.093 72.036,313.255 71.898,313.481 C65.483,324.004 65.153,337.252 71.037,348.054 C77.101,359.185 88.751,366.102 101.439,366.102 L101.439,366.102 Z" id="Fill-61" fill="#0A0B09"></path>
            <path d="M77.817,290.29 L91.606,315.602 L66.999,300.569 C69.75,296.354 73.467,292.837 77.817,290.29 Z M93.362,314.645 L79.573,289.333 C84.067,287.063 89.052,285.842 94.077,285.817 L93.362,314.645 Z M65.09,301.747 L93.747,319.254 C93.907,319.352 94.087,319.4 94.269,319.4 C94.433,319.4 94.598,319.36 94.747,319.278 C95.061,319.107 95.259,318.782 95.268,318.425 L96.101,284.852 C96.115,284.301 95.679,283.843 95.127,283.828 C89.09,283.692 83.043,285.131 77.724,288.028 C72.395,290.931 67.911,295.199 64.757,300.373 C64.47,300.845 64.619,301.459 65.09,301.747 L65.09,301.747 Z" id="Fill-62" fill="#0A0B09"></path>
            <polyline id="Fill-63" fill="#0A0B09" points="129.652 370.505 96.018 380.189 101.722 400 103.804 400 98.494 381.558 128.284 372.981 134.371 394.122 113.954 400 121.183 400 136.846 395.49 129.652 370.505"></polyline>
            <polyline id="Fill-64" fill="#0A0B09" points="88.592 376.084 95.479 400 97.56 400 91.068 377.452 132.389 365.555 141.796 398.227 135.64 400 142.868 400 144.272 399.596 133.757 363.079 88.592 376.084"></polyline>
            <polyline id="Fill-65" fill="#0A0B09" points="104.27 389.85 106.795 398.62 108.717 398.066 106.192 389.296 104.27 389.85"></polyline>
            <polyline id="Fill-66" fill="#0A0B09" points="115.92 395.992 112.818 385.217 110.896 385.771 113.998 396.546 115.92 395.992"></polyline>
            <polyline id="Fill-67" fill="#0A0B09" points="119.251 380.471 117.329 381.024 121.201 394.472 123.123 393.918 119.251 380.471"></polyline>
            <polyline id="Fill-68" fill="#0A0B09" points="126.069 377.06 124.147 377.614 128.404 392.398 130.326 391.844 126.069 377.06"></polyline>
            <path d="M248.188,356.974 C247.505,355.9 247.281,354.624 247.557,353.382 C248.037,351.22 249.991,349.65 252.202,349.65 C252.549,349.65 252.898,349.688 253.24,349.764 C254.483,350.04 255.543,350.783 256.227,351.856 C256.91,352.93 257.134,354.206 256.858,355.448 C256.378,357.611 254.425,359.18 252.213,359.18 C251.867,359.18 251.517,359.142 251.175,359.066 C249.933,358.79 248.872,358.047 248.188,356.974 Z M245.163,381.526 C245.01,381.515 244.857,381.5 244.705,381.5 C241.604,381.5 238.866,383.7 238.193,386.73 C238.01,387.557 237.989,388.393 238.116,389.206 L223.929,393.674 C223.057,390.391 222.967,386.928 223.724,383.518 C225.891,373.759 234.708,366.675 244.689,366.675 C245.923,366.675 247.163,366.788 248.388,367.001 L245.163,381.526 Z M249.275,389.191 C248.804,391.314 246.886,392.854 244.716,392.854 C244.375,392.854 244.033,392.817 243.697,392.742 C242.477,392.471 241.436,391.742 240.766,390.688 C240.095,389.635 239.875,388.383 240.145,387.164 C240.617,385.041 242.535,383.5 244.705,383.5 C245.045,383.5 245.388,383.538 245.724,383.613 C248.241,384.172 249.834,386.674 249.275,389.191 Z M250.769,365.503 L251.735,361.154 C251.895,361.165 252.054,361.18 252.213,361.18 C255.354,361.18 258.129,358.952 258.81,355.881 C259.203,354.118 258.884,352.307 257.914,350.783 C256.943,349.258 255.437,348.204 253.674,347.812 C253.189,347.704 252.694,347.65 252.202,347.65 C249.061,347.65 246.287,349.878 245.604,352.949 C245.213,354.713 245.531,356.523 246.501,358.047 C247.29,359.286 248.436,360.208 249.783,360.722 L248.822,365.049 C247.454,364.805 246.068,364.675 244.689,364.675 C233.778,364.675 224.14,372.417 221.772,383.084 C220.937,386.843 221.035,390.663 222.011,394.278 L217.334,395.75 C216.548,393.702 214.785,392.071 212.487,391.56 C212.003,391.453 211.508,391.398 211.016,391.398 C207.874,391.398 205.1,393.627 204.417,396.697 C204.166,397.828 204.216,398.957 204.513,400 L206.636,400 C206.267,399.122 206.148,398.129 206.37,397.131 C206.85,394.968 208.804,393.398 211.016,393.398 C211.362,393.398 211.711,393.437 212.054,393.513 C214.618,394.082 216.241,396.632 215.672,399.197 C215.61,399.475 215.522,399.743 215.414,400 L217.507,400 C217.543,399.875 217.596,399.758 217.624,399.63 C217.767,398.984 217.808,398.34 217.766,397.711 L222.617,396.183 C223.096,397.495 223.697,398.771 224.413,400 L226.773,400 C226.71,399.905 226.637,399.818 226.576,399.722 C225.736,398.402 225.064,397.012 224.536,395.579 L238.717,391.113 C238.826,391.334 238.944,391.552 239.079,391.763 C240.037,393.267 241.522,394.308 243.263,394.694 C243.741,394.801 244.23,394.854 244.716,394.854 C246.27,394.854 247.733,394.301 248.891,393.368 L256.124,400 L259.082,400 L250.235,391.888 C250.693,391.211 251.043,390.453 251.227,389.624 C251.951,386.364 250.141,383.127 247.115,381.958 L250.336,367.456 C255.52,368.858 259.942,372.073 262.845,376.633 C265.929,381.477 266.941,387.232 265.696,392.838 C265.116,395.449 264.05,397.86 262.62,400 L264.978,400 C266.194,397.944 267.112,395.686 267.648,393.271 C269.009,387.144 267.903,380.854 264.532,375.559 C261.342,370.548 256.475,367.023 250.769,365.503 L250.769,365.503 Z" id="Fill-69" fill="#0A0B09"></path>
            <polyline id="Fill-70" fill="#0A0B09" points="339.189 395.884 341.167 400 343.386 400 341.858 396.821 348.01 393.864 350.958 400 353.177 400 348.946 391.195 339.189 395.884"></polyline>
            <path d="M361.36,396.652 L353.727,380.771 L359.878,377.815 L367.511,393.696 L361.36,396.652 Z M351.058,379.835 L360.423,399.321 L370.18,394.633 L360.815,375.146 L351.058,379.835 L351.058,379.835 Z" id="Fill-71" fill="#0A0B09"></path>
            <path d="M377.268,389.007 L365.221,363.942 L371.372,360.985 L383.419,386.051 L377.268,389.007 Z M362.552,363.005 L376.331,391.676 L386.088,386.987 L372.309,358.316 L362.552,363.005 L362.552,363.005 Z" id="Fill-72" fill="#0A0B09"></path>
            <polyline id="Fill-73" fill="#0A0B09" points="356.34 369.674 358.306 369.304 356.56 360.045 347.301 361.788 347.671 363.754 353.575 362.642 336.08 388.26 337.731 389.388 355.227 363.77 356.34 369.674"></polyline>
            <path d="M359.675,351.525 C360.054,350.444 360.831,349.575 361.864,349.079 C362.45,348.797 363.074,348.655 363.718,348.655 C365.358,348.655 366.877,349.609 367.587,351.086 C368.083,352.119 368.147,353.283 367.768,354.364 C367.389,355.444 366.612,356.313 365.58,356.809 C364.994,357.091 364.37,357.233 363.726,357.233 C362.085,357.233 360.566,356.279 359.856,354.802 C359.36,353.769 359.296,352.605 359.675,351.525 Z M357.788,350.862 C357.232,352.448 357.326,354.154 358.054,355.668 C359.095,357.834 361.321,359.233 363.726,359.233 C364.672,359.233 365.587,359.024 366.446,358.612 C367.96,357.884 369.1,356.61 369.656,355.025 C370.211,353.44 370.117,351.734 369.39,350.22 C368.349,348.054 366.122,346.655 363.718,346.655 C362.771,346.655 361.856,346.864 360.998,347.276 C359.484,348.004 358.344,349.277 357.788,350.862 L357.788,350.862 Z" id="Fill-74" fill="#0A0B09"></path>
            <polyline id="Fill-75" fill="#0A0B09" points="291.834 399.711 272.743 360.068 270.941 360.936 273.761 366.793 271.058 368.095 271.926 369.896 274.629 368.595 277.015 373.55 274.312 374.852 275.18 376.653 277.883 375.352 280.269 380.307 277.566 381.609 278.435 383.411 281.137 382.109 283.524 387.065 280.821 388.366 281.688 390.168 284.391 388.866 286.778 393.822 284.075 395.123 284.943 396.925 287.645 395.624 289.753 400 295.843 400 328.74 384.158 327.872 382.356 291.834 399.711"></polyline>
            <polyline id="Fill-76" fill="#0A0B09" points="310.486 361.696 312.449 361.31 310.932 353.586 303.208 355.102 303.593 357.064 307.967 356.206 304.121 361.932 305.824 379.566 290.975 376.309 289.017 388.845 290.993 389.153 292.623 378.718 308.079 382.108 306.18 362.453 309.627 357.322 310.486 361.696"></polyline>
            <path d="M68.1,390.487 C61.823,390.487 55.921,392.932 51.482,397.37 C50.654,398.198 49.928,399.087 49.249,400 L51.795,400 C52.149,399.587 52.505,399.175 52.896,398.784 C56.957,394.724 62.357,392.487 68.1,392.487 C73.508,392.487 78.611,394.47 82.579,398.093 L80.672,400 L83.5,400 L85.423,398.077 L84.716,397.37 C80.278,392.932 74.377,390.487 68.1,390.487" id="Fill-77" fill="#0A0B09"></path>
            <g id="Group-88" transform="translate(44.000000, 0.000000)">
                <mask id="mask-2" fill="white">
                    <use xlink:href="#path-1"></use>
                </mask>
                <g id="Clip-79"></g>
                <path d="M113.286,400 L122.443,400 C124.31,399.781 126.244,399.665 128.226,399.665 C130.207,399.665 132.141,399.781 134.008,400 L143.165,400 C138.751,398.517 133.654,397.665 128.226,397.665 C122.797,397.665 117.7,398.517 113.286,400" id="Fill-78" fill="#0A0B09" mask="url(#mask-2)"></path>
                <polyline id="Fill-80" fill="#0A0B09" mask="url(#mask-2)" points="77.183 0 69.954 0 60.581 2.699 59.804 0 57.722 0 59.212 5.174 77.183 0"></polyline>
                <polyline id="Fill-81" fill="#0A0B09" mask="url(#mask-2)" points="76.728 6.375 78.665 13.101 73.86 14.485 74.414 16.407 85.945 13.086 85.392 11.164 80.587 12.548 78.65 5.821 98.868 0 91.64 0 56.475 10.125 53.56 0 51.479 0 55.107 12.6 76.728 6.375"></polyline>
                <path d="M165.554,4.767 C166.039,4.874 166.534,4.929 167.026,4.929 C170.036,4.929 172.689,2.873 173.507,0 L171.414,0 C170.682,1.737 168.952,2.929 167.026,2.929 C166.679,2.929 166.33,2.891 165.988,2.815 C164.422,2.467 163.215,1.377 162.636,0 L160.513,0 C161.17,2.316 163.044,4.21 165.554,4.767" id="Fill-82" fill="#0A0B09" mask="url(#mask-2)"></path>
                <path d="M222.355,10.452 C222.836,8.289 224.79,6.719 227.001,6.719 C227.348,6.719 227.697,6.758 228.039,6.833 C229.282,7.109 230.342,7.852 231.025,8.926 C231.709,9.999 231.934,11.275 231.658,12.517 C231.177,14.68 229.224,16.25 227.013,16.25 C226.666,16.25 226.316,16.211 225.974,16.135 C224.732,15.859 223.671,15.116 222.988,14.043 C222.304,12.969 222.08,11.694 222.355,10.452 Z M195.617,11.116 C197.301,11.49 199.021,11.679 200.731,11.679 C207.084,11.679 212.992,9.043 217.298,4.745 L221.104,8.234 C220.796,8.788 220.545,9.379 220.403,10.018 C220.012,11.782 220.33,13.593 221.301,15.117 C222.271,16.641 223.777,17.696 225.54,18.087 C226.025,18.195 226.52,18.249 227.013,18.249 C230.154,18.249 232.928,16.021 233.61,12.951 C234.418,9.31 232.114,5.689 228.473,4.881 C227.989,4.773 227.494,4.719 227.001,4.719 C225.214,4.719 223.561,5.457 222.329,6.645 L218.653,3.274 C219.516,2.254 220.293,1.158 220.978,0 L218.62,0 C218.174,0.668 217.694,1.311 217.18,1.923 L215.082,0 L212.124,0 L215.828,3.396 C211.893,7.292 206.513,9.679 200.731,9.679 C199.167,9.679 197.592,9.506 196.05,9.164 C190.557,7.944 185.861,4.689 182.773,0 L180.413,0 C180.568,0.267 180.722,0.534 180.889,0.795 C184.259,6.09 189.49,9.755 195.617,11.116 L195.617,11.116 Z" id="Fill-83" fill="#0A0B09" mask="url(#mask-2)"></path>
                <polyline id="Fill-84" fill="#0A0B09" mask="url(#mask-2)" points="310.272 2.278 309.177 0 306.958 0 307.603 1.341 301.452 4.298 299.386 0 297.167 0 300.516 6.967 310.272 2.278"></polyline>
                <polyline id="Fill-85" fill="#0A0B09" mask="url(#mask-2)" points="251.843 0 245.753 0 246.899 2.381 251.843 0"></polyline>
                <path d="M24.398,15.102 L44.583,20.511 C43.546,23.775 41.733,26.759 39.302,29.19 C35.241,33.25 29.842,35.487 24.1,35.487 C18.693,35.487 13.606,33.483 9.638,29.862 L24.398,15.102 Z M36.098,3.403 C39.388,7.139 40.753,12.25 39.77,17.15 L26.032,13.469 L36.098,3.403 Z M24.1,37.487 C30.376,37.487 36.278,35.043 40.716,30.604 C43.632,27.688 45.734,24.045 46.796,20.067 L47.054,19.102 L41.7,17.667 C42.862,12.078 41.3,6.232 37.511,1.99 L39.5,0 L36.672,0 L22.167,14.504 L22.168,14.505 L8.225,28.447 C0.914,20.424 0.768,8.184 7.795,0 L5.249,0 C-1.579,9.194 -0.852,22.269 7.482,30.604 C11.921,35.043 17.822,37.487 24.1,37.487 L24.1,37.487 Z" id="Fill-86" fill="#0A0B09" mask="url(#mask-2)"></path>
                <path d="M99.861,22.039 C102.288,25.82 106.828,29.055 112.884,31.144 L112.884,44.699 C104.813,41.75 99.861,36.689 99.861,31.292 L99.861,22.039 Z M114.884,31.811 L114.884,30.435 L127.226,18.049 L127.226,30.506 L114.884,43.579 L114.884,31.811 Z M129.226,18.046 L141.31,30.13 L141.31,43.593 L129.226,30.513 L129.226,18.046 Z M143.31,31.235 C149.497,29.149 154.129,25.884 156.59,22.051 L156.59,31.292 C156.59,36.759 151.538,41.857 143.31,44.792 L143.31,31.235 Z M97.861,31.292 C97.861,37.871 103.88,43.909 113.57,47.051 L114.008,47.188 L114.884,46.663 L114.884,46.492 L128.218,32.369 L141.482,46.727 L141.676,47.434 L142.636,47.129 C152.477,44.008 158.59,37.939 158.59,31.292 L158.59,15.632 C158.59,8.937 152.365,3.091 143.165,0 L134.008,0 C146.885,1.507 156.59,7.943 156.59,15.632 C156.59,21.126 151.486,26.247 143.183,29.175 L128.226,14.218 L113.27,29.172 C104.972,26.245 99.861,21.111 99.861,15.632 C99.861,7.943 109.566,1.507 122.443,0 L113.286,0 C104.085,3.091 97.861,8.937 97.861,15.632 L97.861,31.292 L97.861,31.292 Z" id="Fill-87" fill="#0A0B09" mask="url(#mask-2)"></path>
            </g>
            <path d="M366.396,272.706 L367.213,274.532 C378.305,269.571 390.797,271.301 400,278.202 L400,275.74 C390.363,269.138 377.696,267.651 366.396,272.706" id="Fill-89" fill="#0A0B09"></path>
            <path d="M367.635,334.211 L366.848,336.049 C371.194,337.909 375.833,338.83 380.461,338.83 C386.549,338.83 392.617,337.237 397.971,334.095 C398.666,333.686 399.339,333.248 400,332.794 L400,330.338 C399.029,331.068 398.016,331.749 396.958,332.37 C388.08,337.58 377.117,338.268 367.635,334.211" id="Fill-90" fill="#0A0B09"></path>
            <path d="M360.968,278.197 L359.773,276.594 C345.643,287.132 341.724,306.557 350.657,321.776 C353.088,325.921 356.288,329.447 360.165,332.259 L361.339,330.64 C357.686,327.991 354.673,324.669 352.381,320.765 C343.966,306.425 347.657,288.125 360.968,278.197" id="Fill-91" fill="#0A0B09"></path>
            <path d="M384.529,304.255 C384.054,304.103 383.558,304 383.032,304 C381.727,304.009 380.504,304.525 379.588,305.454 C378.912,306.141 378.466,306.993 378.281,307.917 L373.85,307.949 L374.722,301.274 C375.078,301.356 375.441,301.405 375.808,301.405 C377.563,301.405 379.191,300.458 380.058,298.933 C380.246,298.602 380.38,298.257 380.483,297.907 L386.621,300.458 L384.529,304.255 Z M385.12,310.908 C384.579,311.456 383.857,311.762 383.086,311.767 L383.065,312.767 L383.065,311.767 C381.487,311.767 380.194,310.482 380.183,308.904 C380.177,308.134 380.472,307.407 381.013,306.858 C381.553,306.31 382.275,306.005 383.067,306 C384.645,306 385.938,307.284 385.95,308.862 C385.955,309.633 385.66,310.359 385.12,310.908 Z M373.031,297.287 C372.827,296.544 372.923,295.767 373.304,295.097 C373.815,294.196 374.777,293.637 375.814,293.637 C376.31,293.637 376.801,293.767 377.235,294.013 C378.618,294.799 379.104,296.562 378.319,297.944 C377.807,298.846 376.845,299.405 375.808,299.405 C375.312,299.405 374.821,299.274 374.387,299.027 C373.717,298.647 373.236,298.029 373.031,297.287 Z M372.116,322.816 C371.605,323.718 370.643,324.277 369.605,324.277 C369.11,324.277 368.619,324.146 368.185,323.899 C367.515,323.519 367.033,322.901 366.829,322.159 C366.624,321.416 366.721,320.639 367.101,319.969 C367.613,319.067 368.575,318.508 369.612,318.508 C370.107,318.508 370.599,318.639 371.033,318.885 C372.415,319.671 372.901,321.435 372.116,322.816 Z M362.374,311.914 L362.354,312.914 L362.354,311.914 C360.775,311.914 359.481,310.63 359.47,309.051 C359.459,307.461 360.744,306.158 362.353,306.146 C363.933,306.146 365.226,307.431 365.237,309.01 C365.248,310.6 363.964,311.902 362.374,311.914 Z M393.456,287.893 C395.035,287.893 396.329,289.178 396.34,290.757 C396.352,292.347 395.067,293.649 393.477,293.661 L393.456,294.661 L393.457,293.661 C391.878,293.661 390.584,292.376 390.573,290.798 C390.561,289.208 391.846,287.905 393.456,287.893 Z M396.465,300.727 C396.207,301.182 396.048,301.67 395.946,302.167 L389.45,299.467 L391.729,295.329 C392.268,295.535 392.847,295.661 393.456,295.661 L393.491,295.661 C396.184,295.642 398.359,293.435 398.34,290.743 C398.321,288.068 396.13,285.893 393.421,285.893 C390.729,285.913 388.554,288.119 388.573,290.811 C388.583,292.157 389.144,293.375 390.038,294.254 L387.592,298.695 L380.617,295.796 C380.4,294.367 379.575,293.042 378.223,292.273 C377.488,291.856 376.655,291.637 375.814,291.637 C374.059,291.637 372.43,292.584 371.564,294.108 C370.92,295.243 370.756,296.56 371.103,297.818 C371.386,298.847 371.996,299.72 372.824,300.361 L371.831,307.963 L367.124,307.997 C366.646,305.801 364.68,304.146 362.319,304.146 C359.626,304.166 357.451,306.372 357.469876,309.064 C357.489,311.738 359.68,313.914 362.354,313.914 L362.389,313.914 C364.738,313.897 366.692,312.214 367.14,309.997 L371.57,309.965 L370.698,316.639 C370.342,316.557 369.979,316.508 369.612,316.508 C367.857,316.508 366.228,317.455 365.362,318.98 C364.718,320.115 364.554,321.433 364.9,322.69 C365.247,323.948 366.063,324.995 367.197,325.639 C367.932,326.057 368.765,326.277 369.605,326.277 C371.361,326.277 372.989,325.329 373.855,323.805 C375.066,321.672 374.476,319.018 372.596,317.555 L373.589,309.951 L378.296,309.917 C378.773,312.113 380.734,313.767 383.065,313.767 L383.101,313.767 C384.405,313.758 385.628,313.241 386.544,312.312 C387.459,311.383 387.959,310.153 387.95,308.849 C387.939,307.407 387.285,306.125 386.272,305.236 L388.479,301.23 L395.989,304.352 C395.996,304.38 395.996,304.409 396.003,304.437 C396.35,305.695 397.165,306.742 398.299,307.386 C398.826,307.686 399.405,307.879 400,307.968 L400,305.931 C399.752,305.868 399.512,305.774 399.287,305.646 C398.618,305.267 398.136,304.648 397.932,303.906 C397.727,303.163 397.824,302.386 398.204,301.716 C398.595,301.027 399.25,300.543 400,300.351 L400,298.311 C398.527,298.53 397.212,299.413 396.465,300.727 L396.465,300.727 Z" id="Fill-92" fill="#0A0B09"></path>
            <polyline id="Fill-93" fill="#0A0B09" points="400 186.49 400 184.075 392.438 178.951 400 167.791 400 164.226 389.661 179.484 400 186.49"></polyline>
            <polyline id="Fill-94" fill="#0A0B09" points="380.75 3.418 378.948 4.285 381.763 10.143 379.059 11.443 379.925 13.245 382.629 11.946 385.011 16.904 382.307 18.203 383.173 20.006 385.878 18.706 388.26 23.664 385.556 24.963 386.422 26.766 389.126 25.466 391.508 30.424 388.804 31.723 389.67 33.526 392.374 32.226 394.756 37.184 392.052 38.483 392.918 40.286 395.622 38.987 398.871 45.746 400 45.203 400 42.985 399.807 43.078 380.75 3.418"></polyline>
            <polyline id="Fill-95" fill="#0A0B09" points="400 21.799 395.013 24.195 400 34.573 400 29.955 397.682 25.131 400 24.018 400 21.799"></polyline>
            <polyline id="Fill-96" fill="#0A0B09" points="353.448 123.435 352.008 124.824 383.953 157.925 400 142.438 400 139.658 384.002 155.097 353.448 123.435"></polyline>
            <polyline id="Fill-97" fill="#0A0B09" points="386.956 148.077 388.395 146.688 378.964 136.915 377.525 138.304 386.956 148.077"></polyline>
            <polyline id="Fill-98" fill="#0A0B09" points="394.872 140.438 379.171 124.169 377.731 125.558 393.432 141.827 394.872 140.438"></polyline>
            <polyline id="Fill-99" fill="#0A0B09" points="389.795 125.098 399.908 135.577 400 135.488 400 132.792 391.234 123.709 389.795 125.098"></polyline>
            <polyline id="Fill-100" fill="#0A0B09" points="389.313 111.639 400 122.712 400 119.832 390.753 110.25 389.313 111.639"></polyline>
            <polyline id="Fill-101" fill="#0A0B09" points="373.503 106.05 374.892 107.489 379.336 103.202 379.144 113.955 367.768 113.753 367.522 127.518 369.522 127.554 369.731 115.788 381.108 115.99 381.335 103.237 385.624 107.68 387.063 106.291 380.403 99.392 373.503 106.05"></polyline>
            <polyline id="Fill-102" fill="#0A0B09" points="393.364 237 392.143 246.401 385.683 241.414 378.926 246.071 380.06 247.718 385.616 243.889 393.678 250.112 394.762 241.766 399.372 247.242 400 246.498 400 243.397 399.374 244.139 393.364 237"></polyline>
            <polyline id="Fill-103" fill="#0A0B09" points="391.005 224.083 389.785 233.484 383.324 228.497 376.567 233.154 377.702 234.801 383.258 230.972 391.32 237.195 392.403 228.849 397.014 234.325 400 230.789 400 227.688 397.016 231.222 391.005 224.083"></polyline>
            <polyline id="Fill-104" fill="#0A0B09" points="370.77 215.822 368.803 216.182 377.065 261.434 400 257.246 400 255.213 378.673 259.107 370.77 215.822"></polyline>
            <polyline id="Fill-105" fill="#0A0B09" points="400 372.515 400 367.305 398.719 369.361 393.258 365.958 400 355.141 400 351.359 390.503 366.597 400 372.515"></polyline>
            <path d="M385.157,80.801 C385.157,92.481 391.042,102.809 400,108.987 L400,106.525 C392.205,100.638 387.157,91.299 387.157,80.801 C387.157,70.303 392.205,60.964 400,55.077 L400,52.616 C391.042,58.793 385.157,69.121 385.157,80.801" id="Fill-106" fill="#0A0B09"></path>
            <g id="Group-112" transform="translate(0.000000, 64.000000)">
                <mask id="mask-4" fill="white">
                    <use xlink:href="#path-3"></use>
                </mask>
                <g id="Clip-108"></g>
                <path d="M400,33.138 L400,29.836 C397.485,26.111 396.016,21.624 396.016,16.801 C396.016,11.977 397.485,7.491 400,3.765 L400,0.463 C396.27,4.88 394.016,10.581 394.016,16.801 C394.016,23.021 396.27,28.721 400,33.138" id="Fill-107" fill="#0A0B09" mask="url(#mask-4)"></path>
                <path d="M8.564,223.793 C10.854,227.697 12.286,231.948 12.816,236.43 L14.803,236.193 C14.239,231.436 12.72,226.924 10.289,222.781 C7.629,218.25 4.085,214.539 0,211.74 L0,214.202 C3.372,216.731 6.307,219.948 8.564,223.793" id="Fill-109" fill="#0A0B09" mask="url(#mask-4)"></path>
                <path d="M14.854,243.876 L12.865,243.667 C11.912,252.702 7.181,260.94 0,266.338 L0,268.794 C8.292,263.104 13.791,253.959 14.854,243.876" id="Fill-110" fill="#0A0B09" mask="url(#mask-4)"></path>
                <path d="M4.958,241.552 C6.288,239.21 5.465,236.224 3.123,234.893 C2.389,234.476 1.556,234.255 0.715,234.255 C0.473,234.255 0.235,234.276 0,234.311 L0,236.351 C0.231,236.291 0.47,236.255 0.715,236.255 C1.21,236.255 1.701,236.386 2.135,236.632 C3.518,237.418 4.004,239.182 3.219,240.563 C2.707,241.465 1.746,242.024 0.708,242.024 C0.469,242.024 0.231,241.991 0,241.931 L0,243.968 C0.234,244.002 0.47,244.024 0.708,244.024 C2.463,244.024 4.092,243.077 4.958,241.552" id="Fill-111" fill="#0A0B09" mask="url(#mask-4)"></path>
            </g>
            <polyline id="Fill-113" fill="#0A0B09" points="13.642 175.217 15.297 176.338 23.236 164.621 21.581 163.5 13.642 175.217"></polyline>
            <g id="Group-127" transform="translate(0.000000, 6.000000)">
                <mask id="mask-6" fill="white">
                    <use xlink:href="#path-5"></use>
                </mask>
                <g id="Clip-115"></g>
                <polyline id="Fill-114" fill="#0A0B09" mask="url(#mask-6)" points="33.019 161.342 23.265 175.737 24.92 176.858 34.674 162.463 33.019 161.342"></polyline>
                <path d="M23.455,192.586 C23.467,192.408 23.469,192.227 23.489,192.05 C23.5,191.948 23.521,191.848 23.535,191.746 C24.197,186.911 27.856,182.805 32.907,181.835 C33.641,181.693 34.388,181.622 35.128,181.622 C40.718,181.622 45.542,185.613 46.599,191.111 C47.571,196.167 45.108,201.094 40.855,203.498 C40.771,203.545 40.69,203.599 40.605,203.645 C40.44,203.733 40.265,203.806 40.095,203.886 C39.906,203.974 39.721,204.069 39.527,204.147 C39.45,204.179 39.369,204.202 39.291,204.231 C39.001,204.342 38.71,204.449 38.409,204.537 L38.407,204.537 C38.053,204.641 37.692,204.733 37.322,204.804 C36.588,204.945 35.841,205.017 35.101,205.017 C29.511,205.017 24.687,201.025 23.629,195.527 C23.559,195.161 23.511,194.795 23.476,194.43 L23.475,194.419 C23.443,194.092 23.433,193.766 23.429,193.441 C23.428,193.374 23.421,193.306 23.4219025,193.239 C23.423,193.02 23.442,192.804 23.455,192.586 Z M5.361,170.468 L25.118,141.31 L65.83,168.895 L48.774,194.07 C48.834,192.975 48.779,191.859 48.563,190.734 C48.228,188.993 47.562,187.388 46.652,185.963 L46.776,186.047 L57.55,170.146 L55.895,169.025 L45.489,184.383 C43.348,181.899 40.341,180.225 36.993,179.763 L46.717,165.412 L45.062,164.291 L34.658,179.645 C33.946,179.669 33.232,179.736 32.529,179.87 C29.61,180.431 27.095,181.895 25.193,183.905 L5.361,170.468 Z M11.842,202.958 L4.966,198.299 L3.844,199.955 L19.25,210.393 L20.373,208.737 L13.497,204.079 L20.204,194.18 L21.552,195.093 C21.587,195.364 21.613,195.633 21.666,195.904 C22.903,202.344 28.554,207.017 35.101,207.017 C35.636,207.017 36.173,206.974 36.709,206.91 L40.014,224.108 L41.978,223.731 L38.708,206.718 L49.092,213.753 L81.531,165.878 L22.1,125.609 L0,158.226 L0,161.791 L22.634,128.387 L78.753,166.411 L48.558,210.976 L40.853,205.755 C41.057,205.661 41.254,205.557 41.452,205.454 C41.505,205.427 41.56,205.402 41.613,205.374 C41.992,205.171 42.359,204.948 42.715,204.711 C42.725,204.704 42.735,204.697 42.745,204.69 C44.26,203.677 45.564,202.368 46.578,200.812 L46.607,200.832 L68.608,168.362 L24.584,138.532 L2.584,171.001 L23.907,185.449 C22.836,186.97 22.103,188.669 21.723,190.454 C21.721,190.462 21.719,190.471 21.717,190.48 C21.629,190.901 21.558,191.326 21.509,191.756 C21.503,191.81 21.501,191.865 21.495,191.919 C21.473,192.145 21.449,192.371 21.437,192.6 L0,178.075 L0,180.49 L18.549,193.058 L11.842,202.958 L11.842,202.958 Z" id="Fill-116" fill="#0A0B09" mask="url(#mask-6)"></path>
                <path d="M3.909,5.044 L7.386,3.374 L19.122,27.797 L15.645,29.468 L3.909,5.044 Z M20.531,12.59 L24.008,10.919 L29.68,22.723 L26.204,24.393 L20.531,12.59 Z M11.232,33.808 L11.231,33.807 L21.791,28.733 L21.79,28.733 L36.727,21.556 L35.861,19.753 L31.483,21.857 L24.944,8.25 L17.862,11.653 L24.401,25.26 L20.924,26.931 L8.323,0.705 L1.24,4.108 L13.842,30.334 L10.366,32.004 L2.095,14.792 L0,15.799 L0,18.018 L1.159,17.461 L8.563,32.87 L5.086,34.541 L0,23.955 L0,28.573 L3.284,35.407 L0,36.985 L0,39.203 L6.082,36.281 L11.232,33.808 L11.232,33.808 Z" id="Fill-117" fill="#0A0B09" mask="url(#mask-6)"></path>
                <polyline id="Fill-118" fill="#0A0B09" mask="url(#mask-6)" points="15.663 118.542 0 133.658 0 136.438 17.052 119.981 15.663 118.542"></polyline>
                <polyline id="Fill-119" fill="#0A0B09" mask="url(#mask-6)" points="0 126.792 0 129.488 1.348 128.188 0 126.792"></polyline>
                <polyline id="Fill-120" fill="#0A0B09" mask="url(#mask-6)" points="7.824 121.938 0 113.832 0 116.712 6.384 123.327 7.824 121.938"></polyline>
                <polyline id="Fill-121" fill="#0A0B09" mask="url(#mask-6)" points="9.773 239.508 15.057 224.861 13.175 224.184 8.823 236.248 4.071 232.577 0 237.397 0 240.498 4.364 235.331 9.773 239.508"></polyline>
                <polyline id="Fill-122" fill="#0A0B09" mask="url(#mask-6)" points="7.415 226.591 12.698 211.945 10.817 211.268 6.465 223.331 1.712 219.66 0 221.688 0 224.789 2.005 222.414 7.415 226.591"></polyline>
                <polyline id="Fill-123" fill="#0A0B09" mask="url(#mask-6)" points="21.958 245.204 0 249.213 0 251.246 22.317 247.171 21.958 245.204"></polyline>
                <polyline id="Fill-124" fill="#0A0B09" mask="url(#mask-6)" points="22.261 309.641 0 345.359 0 349.141 23.958 310.699 22.261 309.641"></polyline>
                <path d="M40.574,363.771 L59.22,333.854 L64.681,337.257 L46.035,367.174 L40.574,363.771 Z M34.51,385.667 L29.049,382.264 L39.367,365.708 L44.827,369.112 L34.51,385.667 Z M20.193,376.744 L14.732,373.341 L32.065,345.531 L34.796,347.232 L37.526,348.934 L20.193,376.744 Z M44.904,324.932 L50.365,328.334 L38.584,347.236 L35.853,345.535 L33.123,343.833 L44.904,324.932 Z M5.877,367.821 L0.416,364.419 L8.033,352.197 L13.494,355.601 L5.877,367.821 Z M30.587,316.009 L36.048,319.412 L14.552,353.903 L11.821,352.202 L9.091,350.5 L30.587,316.009 Z M67.436,336.618 L58.581,331.099 L27.351,381.206 L21.891,377.803 L39.223,349.992 L39.224,349.992 L53.12,327.695 L44.264,322.176 L13.035,372.283 L7.574,368.88 L38.803,318.773 L29.948,313.253 L7.394,349.441 L7.393,349.441 L0,361.305 L0,366.515 L17.309,377.303 L20.833,379.5 L35.149,388.423 L35.15,388.422 L41.459,392.354 L42.517,390.657 L36.207,386.725 L67.436,336.618 L67.436,336.618 Z" id="Fill-125" fill="#0A0B09" mask="url(#mask-6)"></path>
                <path d="M43.74,73.801 L21.11,73.801 L36.345,47.414 C45.496,53.098 51.247,63.055 51.584,73.801 L43.74,73.801 Z M53.6,74.801 C53.6,62.63 47.042,51.275 36.488,45.169 C31.3,42.167 25.384,40.58 19.378,40.58 C12.189,40.58 5.514,42.813 0,46.616 L0,49.077 C5.397,45.002 12.109,42.58 19.378,42.58 C24.698,42.58 29.944,43.902 34.613,46.413 L31.17,52.376 C31.065,52.32 30.955,52.273 30.849,52.218 C30.638,52.111 30.425,52.008 30.212,51.906 C29.94,51.777 29.667,51.652 29.391,51.532 C29.174,51.438 28.956,51.347 28.737,51.26 C28.458,51.148 28.177,51.042 27.894,50.94 C27.674,50.861 27.453,50.783 27.231,50.71 C26.943,50.615 26.652,50.528 26.36,50.444 C26.139,50.38 25.919,50.315 25.697,50.257 C25.398,50.179 25.097,50.111 24.795,50.044 C24.576,49.996 24.359,49.944 24.139,49.902 C23.823,49.841 23.505,49.792 23.186,49.743 C22.979,49.711 22.772,49.673 22.564,49.647 C22.211,49.601 21.856,49.571 21.502,49.54 C21.326,49.525 21.151,49.503 20.975,49.492 C20.444,49.457 19.911,49.438 19.378,49.438 C11.613,49.438 4.656,52.949 0,58.463 L0,61.765 C4.201,55.54 11.319,51.438 19.378,51.438 C19.868,51.438 20.357,51.456 20.844,51.487 C21.004,51.498 21.163,51.518 21.322,51.531 C21.65,51.559 21.977,51.587 22.303,51.63 C22.493,51.654 22.681,51.687 22.87,51.717 C23.164,51.762 23.458,51.807 23.75,51.864 C23.949,51.902 24.147,51.949 24.346,51.992 C24.625,52.054 24.904,52.117 25.181,52.189 C25.383,52.242 25.584,52.3 25.785,52.358 C26.055,52.436 26.324,52.517 26.592,52.605 C26.793,52.671 26.993,52.741 27.192,52.812 C27.455,52.907 27.717,53.006 27.977,53.11 C28.175,53.189 28.373,53.27 28.569,53.355 C28.826,53.466 29.081,53.583 29.335,53.703 C29.527,53.794 29.718,53.886 29.908,53.982 C29.994,54.026 30.078,54.074 30.164,54.119 L18.512,74.301 C18.333,74.61 18.333,74.991 18.512,75.301 C18.69,75.61 19.02,75.801 19.378,75.801 L42.715,75.801 C42.713,75.836 42.714,75.871 42.712,75.906 C42.704,76.083 42.689,76.259 42.677,76.435 C42.662,76.649 42.648,76.864 42.628,77.076 C42.61,77.254 42.587,77.43 42.566,77.607 C42.541,77.815 42.517,78.024 42.486,78.23 C42.46,78.408 42.428,78.583 42.398,78.76 C42.363,78.962 42.329,79.165 42.289,79.366 C42.254,79.543 42.214,79.718 42.174,79.893 C42.13,80.09 42.087,80.288 42.038,80.483 C41.994,80.657 41.946,80.829 41.898,81.001 C41.845,81.195 41.792,81.389 41.733,81.581 C41.681,81.752 41.625,81.922 41.569,82.091 C41.507,82.279 41.445,82.467 41.378,82.654 C41.318,82.823 41.253,82.99 41.189,83.158 C41.118,83.341 41.048,83.524 40.973,83.705 C40.904,83.871 40.832,84.034 40.76,84.198 C40.681,84.376 40.602,84.554 40.519,84.73 C40.442,84.892 40.363,85.053 40.283,85.213 C40.196,85.386 40.108,85.559 40.018,85.73 C39.934,85.887 39.847,86.044 39.76,86.199 C39.665,86.368 39.569,86.536 39.47,86.702 C39.38,86.855 39.286,87.006 39.192,87.157 C39.089,87.321 38.985,87.484 38.878,87.646 C38.781,87.793 38.682,87.939 38.581,88.084 C38.471,88.243 38.359,88.401 38.244,88.557 C38.14,88.7 38.033,88.842 37.926,88.982 C37.809,89.135 37.689,89.286 37.569,89.436 C37.458,89.574 37.346,89.71 37.232,89.845 C37.107,89.993 36.98,90.139 36.852,90.284 C36.735,90.415 36.617,90.546 36.498,90.675 C36.367,90.816 36.233,90.956 36.098,91.094 C35.975,91.22 35.851,91.346 35.725,91.47 C35.587,91.605 35.447,91.737 35.307,91.869 C35.178,91.989 35.048,92.109 34.917,92.226 C34.773,92.355 34.626,92.481 34.479,92.606 C34.344,92.72 34.21,92.834 34.073,92.945 C33.923,93.067 33.77,93.185 33.617,93.304 C33.477,93.411 33.338,93.518 33.197,93.623 C33.039,93.738 32.88,93.85 32.719,93.962 C32.576,94.062 32.433,94.163 32.287,94.26 C32.125,94.368 31.96,94.472 31.795,94.576 C31.646,94.67 31.497,94.764 31.346,94.855 C31.178,94.955 31.008,95.051 30.838,95.147 C30.685,95.234 30.532,95.321 30.377,95.405 C30.203,95.498 30.027,95.586 29.851,95.675 C29.694,95.754 29.538,95.834 29.379,95.909 C29.2,95.995 29.018,96.074 28.836,96.155 C28.676,96.226 28.517,96.299 28.355,96.367 C28.17,96.444 27.983,96.515 27.796,96.588 C27.633,96.651 27.47,96.716 27.305,96.776 C27.114,96.845 26.92,96.908 26.726,96.972 C26.562,97.027 26.399,97.084 26.234,97.135 C26.034,97.196 25.832,97.25 25.631,97.306 C25.467,97.352 25.304,97.401 25.138,97.443 C24.934,97.495 24.726,97.539 24.519,97.586 C24.353,97.623 24.188,97.664 24.021,97.698 C23.808,97.741 23.593,97.776 23.378,97.813 C23.214,97.842 23.051,97.874 22.886,97.899 C22.657,97.934 22.426,97.959 22.194,97.987 C22.041,98.006 21.888,98.029 21.733,98.044 C21.478,98.07 21.22,98.086 20.963,98.103 C20.829,98.112 20.697,98.126 20.562,98.133 C20.17,98.153 19.775,98.163 19.378,98.163 C11.319,98.163 4.201,94.061 0,87.836 L0,91.138 C4.656,96.652 11.613,100.163 19.378,100.163 C19.81,100.163 20.24,100.152 20.666,100.13 C20.804,100.123 20.94,100.109 21.077,100.1 C21.365,100.081 21.652,100.063 21.937,100.034 C22.103,100.017 22.266,99.993 22.43,99.973 C22.685,99.942 22.94,99.914 23.192,99.876 C23.363,99.85 23.532,99.816 23.702,99.787 C23.944,99.745 24.187,99.706 24.427,99.657 C24.602,99.621 24.775,99.578 24.95,99.539 C25.18,99.487 25.411,99.438 25.638,99.379 C25.816,99.334 25.991,99.282 26.167,99.233 C26.388,99.171 26.61,99.112 26.829,99.044 C27.005,98.99 27.177,98.93 27.351,98.872 C27.566,98.8 27.783,98.73 27.996,98.653 C28.169,98.591 28.338,98.522 28.509,98.456 C28.719,98.374 28.93,98.294 29.137,98.208 C29.305,98.137 29.471,98.061 29.638,97.987 C29.843,97.896 30.048,97.806 30.251,97.709 C30.415,97.631 30.577,97.547 30.739,97.465 C30.939,97.365 31.138,97.266 31.335,97.16 C31.495,97.074 31.653,96.983 31.811,96.894 C32.005,96.784 32.199,96.675 32.39,96.56 C32.545,96.467 32.697,96.37 32.85,96.274 C33.038,96.155 33.227,96.036 33.412,95.913 C33.562,95.813 33.709,95.709 33.857,95.606 C34.04,95.478 34.222,95.351 34.4,95.219 C34.546,95.112 34.688,95.002 34.831,94.892 C35.007,94.756 35.182,94.62 35.354,94.48 C35.494,94.366 35.63,94.25 35.767,94.134 C35.937,93.99 36.105,93.846 36.271,93.698 C36.405,93.577 36.537,93.454 36.668,93.331 C36.83,93.181 36.991,93.029 37.148,92.874 C37.277,92.747 37.404,92.618 37.531,92.488 C37.684,92.33 37.836,92.172 37.986,92.01 C38.109,91.877 38.23,91.742 38.351,91.606 C38.497,91.441 38.642,91.275 38.784,91.106 C38.9,90.967 39.015,90.827 39.128,90.686 C39.267,90.514 39.403,90.341 39.537,90.166 C39.648,90.022 39.756,89.876 39.863,89.729 C39.993,89.551 40.122,89.371 40.247,89.19 C40.351,89.04 40.452,88.889 40.553,88.737 C40.675,88.553 40.794,88.367 40.91,88.18 C41.007,88.025 41.102,87.868 41.196,87.711 C41.309,87.522 41.418,87.331 41.526,87.138 C41.616,86.977 41.704,86.816 41.791,86.653 C41.894,86.459 41.994,86.263 42.092,86.065 C42.175,85.899 42.257,85.733 42.336,85.565 C42.429,85.366 42.519,85.165 42.608,84.964 C42.683,84.792 42.758,84.621 42.829,84.448 C42.913,84.244 42.993,84.039 43.072,83.833 C43.139,83.657 43.206,83.481 43.27,83.303 C43.343,83.096 43.413,82.888 43.481,82.679 C43.541,82.498 43.6,82.316 43.655,82.133 C43.719,81.922 43.778,81.71 43.836,81.497 C43.887,81.311 43.938,81.126 43.985,80.939 C44.038,80.726 44.086,80.511 44.134,80.296 C44.176,80.105 44.219,79.914 44.257,79.721 C44.299,79.506 44.336,79.288 44.373,79.071 C44.407,78.876 44.441,78.682 44.469,78.485 C44.501,78.267 44.527,78.047 44.553,77.826 C44.577,77.627 44.602,77.428 44.621,77.227 C44.642,77.007 44.657,76.785 44.672,76.563 C44.686,76.36 44.702,76.158 44.711,75.953 C44.713,75.902 44.719,75.852 44.721,75.801 L51.584,75.801 C51.055,93.107 36.811,107.022 19.378,107.022 C12.109,107.022 5.397,104.601 0,100.525 L0,102.987 C5.514,106.789 12.189,109.022 19.378,109.022 C38.248,109.022 53.6,93.671 53.6,74.801 L53.6,74.801 Z" id="Fill-126" fill="#0A0B09" mask="url(#mask-6)"></path>
            </g>
        </g>
    </g>
</svg>