<svg width="842" height="494" viewBox="0 0 842 494" xmlns="http://www.w3.org/2000/svg">
  <g fill="none" fill-rule="evenodd">
    <g transform="translate(1 1)">
      <rect fill-opacity=".25" fill="#FFFFFF" fill-rule="nonzero" width="300" height="240" rx="3"/>
      <rect stroke="#C3CFD9" stroke-width="2" stroke-linecap="round" stroke-linejoin="round" width="300" height="240" rx="3"/>
      <text fill="#000000" fill-rule="nonzero" font-family="Helvetica" font-size="18">
        <tspan x="59" y="30">Source (socket-based)</tspan>
      </text>
    </g>
    <g transform="translate(13 49)">
      <rect fill-opacity=".25" fill="#28D9F2" fill-rule="nonzero" width="276" height="72" rx="3"/>
      <rect stroke="#28D9F2" stroke-width="2" stroke-linecap="round" stroke-linejoin="round" width="276" height="72" rx="3"/>
      <text fill="#000000" fill-rule="nonzero" font-family="Helvetica" font-size="15">
        <tspan x="100" y="27">Connection</tspan>
      </text>
    </g>
    <g transform="translate(21 89)">
      <rect fill-opacity=".25" fill="#F44AF5" fill-rule="nonzero" width="112" height="24" rx="3"/>
      <rect stroke="#F44AF5" stroke-width="2" stroke-linecap="round" stroke-linejoin="round" width="112" height="24" rx="3"/>
      <text fill="#000000" fill-rule="nonzero" font-family="Helvetica" font-size="15">
        <tspan x="36" y="17">Parse</tspan>
      </text>
    </g>
    <g transform="translate(169 89)">
      <rect fill-opacity=".25" fill="#F44AF5" fill-rule="nonzero" width="111" height="24" rx="3"/>
      <rect stroke="#F44AF5" stroke-width="2" stroke-linecap="round" stroke-linejoin="round" width="111" height="24" rx="3"/>
      <text fill="#000000" fill-rule="nonzero" font-family="Helvetica" font-size="15">
        <tspan x="22.5" y="17">Add fields</tspan>
      </text>
    </g>
    <g stroke="#788896" stroke-linecap="round" stroke-linejoin="round">
      <path stroke-width="4" d="M141 101h16"/>
      <path stroke-width="2" fill="#788896" fill-rule="nonzero" d="M153.908 95.46L161 101l-7.092 5.541z"/>
    </g>
    <g transform="translate(13 132)">
      <rect fill-opacity=".25" fill="#28D9F2" fill-rule="nonzero" width="276" height="72" rx="3"/>
      <rect stroke="#28D9F2" stroke-width="2" stroke-linecap="round" stroke-linejoin="round" width="276" height="72" rx="3"/>
      <text fill="#000000" fill-rule="nonzero" font-family="Helvetica" font-size="15">
        <tspan x="100" y="27">Connection</tspan>
      </text>
    </g>
    <g transform="translate(21 173)">
      <rect fill-opacity=".25" fill="#F44AF5" fill-rule="nonzero" width="112" height="24" rx="3"/>
      <rect stroke="#F44AF5" stroke-width="2" stroke-linecap="round" stroke-linejoin="round" width="112" height="24" rx="3"/>
      <text fill="#000000" fill-rule="nonzero" font-family="Helvetica" font-size="15">
        <tspan x="36" y="17">Parse</tspan>
      </text>
    </g>
    <g transform="translate(169 173)">
      <rect fill-opacity=".25" fill="#F44AF5" fill-rule="nonzero" width="111" height="24" rx="3"/>
      <rect stroke="#F44AF5" stroke-width="2" stroke-linecap="round" stroke-linejoin="round" width="111" height="24" rx="3"/>
      <text fill="#000000" fill-rule="nonzero" font-family="Helvetica" font-size="15">
        <tspan x="22.5" y="17">Add fields</tspan>
      </text>
    </g>
    <g stroke="#788896" stroke-linecap="round" stroke-linejoin="round">
      <path stroke-width="4" d="M141 185h16"/>
      <path stroke-width="2" fill="#788896" fill-rule="nonzero" d="M153.908 179.459L161 185l-7.092 5.541z"/>
    </g>
    <text fill="#000000" fill-rule="nonzero" font-family="Helvetica" font-size="21" transform="translate(13 49)">
      <tspan x="129" y="176">...</tspan>
    </text>
    <g>
      <g transform="translate(1 253)">
        <rect fill-opacity=".25" fill="#FFFFFF" fill-rule="nonzero" width="300" height="240" rx="3"/>
        <rect stroke="#C3CFD9" stroke-width="2" stroke-linecap="round" stroke-linejoin="round" width="300" height="240" rx="3"/>
        <text fill="#000000" fill-rule="nonzero" font-family="Helvetica" font-size="18">
          <tspan x="73.5" y="30">Source (file-based)</tspan>
        </text>
      </g>
      <g transform="translate(13 301)">
        <rect fill-opacity=".25" fill="#3DDCF3" fill-rule="nonzero" width="276" height="72" rx="3"/>
        <rect stroke="#28D9F2" stroke-width="2" stroke-linecap="round" stroke-linejoin="round" width="276" height="72" rx="3"/>
        <text fill="#000000" fill-rule="nonzero" font-family="Helvetica" font-size="15">
          <tspan x="128" y="27">file</tspan>
        </text>
      </g>
      <g transform="translate(21 341)">
        <rect fill-opacity=".25" fill="#F44AF5" fill-rule="nonzero" width="112" height="24" rx="3"/>
        <rect stroke="#F44AF5" stroke-width="2" stroke-linecap="round" stroke-linejoin="round" width="112" height="24" rx="3"/>
        <text fill="#000000" fill-rule="nonzero" font-family="Helvetica" font-size="15">
          <tspan x="36" y="17">Parse</tspan>
        </text>
      </g>
      <g transform="translate(169 341)">
        <rect fill-opacity=".25" fill="#F44AF5" fill-rule="nonzero" width="111" height="24" rx="3"/>
        <rect stroke="#F44AF5" stroke-width="2" stroke-linecap="round" stroke-linejoin="round" width="111" height="24" rx="3"/>
        <text fill="#000000" fill-rule="nonzero" font-family="Helvetica" font-size="15">
          <tspan x="22.5" y="17">Add fields</tspan>
        </text>
      </g>
      <g stroke="#788896" stroke-linecap="round" stroke-linejoin="round">
        <path stroke-width="4" d="M141 353h16"/>
        <path stroke-width="2" fill="#788896" fill-rule="nonzero" d="M153.908 347.46L161 353l-7.092 5.541z"/>
      </g>
      <g>
        <g transform="translate(13 384)">
          <rect fill-opacity=".25" fill="#28D9F2" fill-rule="nonzero" width="276" height="72" rx="3"/>
          <rect stroke="#28D9F2" stroke-width="2" stroke-linecap="round" stroke-linejoin="round" width="276" height="72" rx="3"/>
          <text fill="#000000" fill-rule="nonzero" font-family="Helvetica" font-size="15">
            <tspan x="128" y="27">file</tspan>
          </text>
        </g>
        <g transform="translate(21 425)">
          <rect fill-opacity=".25" fill="#F44AF5" fill-rule="nonzero" width="112" height="24" rx="3"/>
          <rect stroke="#F44AF5" stroke-width="2" stroke-linecap="round" stroke-linejoin="round" width="112" height="24" rx="3"/>
          <text fill="#000000" fill-rule="nonzero" font-family="Helvetica" font-size="15">
            <tspan x="36" y="17">Parse</tspan>
          </text>
        </g>
        <g transform="translate(169 425)">
          <rect fill-opacity=".25" fill="#F44AF5" fill-rule="nonzero" width="111" height="24" rx="3"/>
          <rect stroke="#F44AF5" stroke-width="2" stroke-linecap="round" stroke-linejoin="round" width="111" height="24" rx="3"/>
          <text fill="#000000" fill-rule="nonzero" font-family="Helvetica" font-size="15">
            <tspan x="22.5" y="17">Add fields</tspan>
          </text>
        </g>
        <g stroke="#788896" stroke-linecap="round" stroke-linejoin="round">
          <path stroke-width="4" d="M141 437h16"/>
          <path stroke-width="2" fill="#788896" fill-rule="nonzero" d="M153.908 431.46L161 437l-7.092 5.541z"/>
        </g>
      </g>
      <text fill="#000000" fill-rule="nonzero" font-family="Helvetica" font-size="21" transform="translate(13 301)">
        <tspan x="129" y="176">...</tspan>
      </text>
    </g>
    <g transform="translate(395 222)">
      <rect fill-opacity=".25" fill="#F44AF5" fill-rule="nonzero" width="192" height="47" rx="3"/>
      <rect stroke="#F44AF5" stroke-width="2" stroke-linecap="round" stroke-linejoin="round" width="192" height="47" rx="3"/>
      <text fill="#000000" fill-rule="nonzero" font-family="Helvetica" font-size="18">
        <tspan x="64" y="29.5">Dedupe</tspan>
      </text>
    </g>
    <g transform="translate(649 222)">
      <rect fill-opacity=".25" fill="#FFFFFF" fill-rule="nonzero" width="192" height="47" rx="3"/>
      <rect stroke="#C3CFD9" stroke-width="2" stroke-linecap="round" stroke-linejoin="round" width="192" height="47" rx="3"/>
      <text fill="#000000" fill-rule="nonzero" font-family="Helvetica" font-size="18">
        <tspan x="78" y="29.5">Sink</tspan>
      </text>
    </g>
    <g stroke="#C3CFD9" stroke-linecap="round" stroke-linejoin="round">
      <path d="M288 101h25c8.284 0 15 6.716 15 15v114.5c0 8.284 6.716 15 15 15h40" stroke-width="4"/>
      <path stroke-width="2" fill="#C3CFD9" fill-rule="nonzero" d="M379.908 239.959L387 245.5l-7.092 5.541z"/>
    </g>
    <g stroke="#C3CFD9" stroke-linecap="round" stroke-linejoin="round">
      <path d="M288 185h25c8.284 0 15 6.716 15 15v30.5c0 8.284 6.716 15 15 15h40" stroke-width="4"/>
      <path stroke-width="2" fill="#C3CFD9" fill-rule="nonzero" d="M379.908 239.959L387 245.5l-7.092 5.54z"/>
    </g>
    <g stroke="#C3CFD9" stroke-linecap="round" stroke-linejoin="round">
      <path d="M288 353h25c8.284 0 15-6.716 15-15v-78c0-8.284 6.716-15 15-15h40" stroke-width="4"/>
      <path stroke-width="2" fill="#C3CFD9" fill-rule="nonzero" d="M379.908 239.459L387 245l-7.092 5.541z"/>
    </g>
    <g stroke="#C3CFD9" stroke-linecap="round" stroke-linejoin="round">
      <path d="M288 437h25c8.284 0 15-6.716 15-15V260.5c0-8.284 6.716-15 15-15h40" stroke-width="4"/>
      <path stroke-width="2" fill="#C3CFD9" fill-rule="nonzero" d="M379.908 239.959L387 245.5l-7.092 5.541z"/>
    </g>
    <g stroke="#C3CFD9" stroke-linecap="round" stroke-linejoin="round">
      <path stroke-width="4" d="M595 245.5h42"/>
      <path stroke-width="2" fill="#C3CFD9" fill-rule="nonzero" d="M633.908 239.959L641 245.5l-7.092 5.541z"/>
    </g>
  </g>
</svg>