<?xml version="1.0" encoding="UTF-8"?>
<svg width="1139px" height="778px" viewBox="0 0 1139 778" version="1.1" xmlns="http://www.w3.org/2000/svg" xmlns:xlink="http://www.w3.org/1999/xlink">
    <!-- Generator: Sketch 60 (88103) - https://sketch.com -->
    <title>Configuration</title>
    <desc>Created with Sketch.</desc>
    <defs>
        <linearGradient x1="50%" y1="0%" x2="50%" y2="100%" id="config-example-line-1">
            <stop stop-color="#B96ECE" offset="0%"></stop>
            <stop stop-color="#3F80D2" offset="100%"></stop>
        </linearGradient>
        <linearGradient x1="50%" y1="0%" x2="50%" y2="100%" id="config-example-line-2">
            <stop stop-color="#3F80D2" offset="0%"></stop>
            <stop stop-color="#019BB4" offset="100%"></stop>
        </linearGradient>
        <linearGradient x1="50%" y1="0%" x2="50%" y2="100%" id="config-example-line-3">
            <stop stop-color="#3F80D2" offset="0%"></stop>
            <stop stop-color="#009CB4" offset="100%"></stop>
        </linearGradient>
    </defs>
    <g id="Configuration" stroke="none" stroke-width="1" fill="none" fill-rule="evenodd">
        <g id="Custom-Preset-3" transform="translate(0.000000, -16.000000)">
            <g id="Configuration" transform="translate(0.000000, 16.000000)">
                <path d="M45.9987269,178.001275 L46.0012747,180.001273 L49.0012723,179.997453 L48.9987269,177.997453 L45.9987269,178.001275 Z M55.9987188,177.988536 L56.0012666,179.988534 L59.0012641,179.984714 L58.9987188,177.984714 L55.9987188,177.988536 Z M65.9987107,177.975797 L66.0012585,179.975795 L69.001256,179.971975 L68.9987107,177.971975 L65.9987107,177.975797 Z M75.9987026,177.963058 L76.0012504,179.963057 L79.0012479,179.959237 L78.9987026,177.959237 L75.9987026,177.963058 Z M85.9986945,177.950319 L86.0012422,179.950318 L89.0012398,179.946498 L88.9986945,177.946498 L85.9986945,177.950319 Z M95.9986864,177.93758 L96.0012341,179.937579 L99.0012317,179.933759 L98.9986864,177.933759 L95.9986864,177.93758 Z M105.998678,177.924842 L106.001226,179.92484 L109.001224,179.92102 L108.998678,177.92102 L105.998678,177.924842 Z M115.99867,177.912103 L116.001218,179.912101 L119.001215,179.908281 L118.99867,177.908281 L115.99867,177.912103 Z M125.998662,177.899364 L126.00121,179.899362 L129.001207,179.895542 L128.998662,177.895542 L125.998662,177.899364 Z M135.998654,177.886625 L136.001202,179.886623 L139.001199,179.882803 L138.998654,177.882803 L135.998654,177.886625 Z M145.998646,177.873886 L146.001194,179.873885 L149.001191,179.870065 L148.998646,177.870065 L145.998646,177.873886 Z M155.998638,177.861147 L156.001185,179.861146 L159.001183,179.857326 L158.998638,177.857326 L155.998638,177.861147 Z M165.99863,177.848409 L166.001177,179.848407 L169.001175,179.844587 L168.99863,177.844587 L165.99863,177.848409 Z M175.998621,177.83567 L176.001169,179.835668 L179.001167,179.831848 L178.998621,177.831848 L175.998621,177.83567 Z M185.998613,177.822931 L186.001161,179.822929 L189.001159,179.819109 L188.998613,177.819109 L185.998613,177.822931 Z M195.998605,177.810192 L196.001153,179.81019 L199.001151,179.80637 L198.998605,177.80637 L195.998605,177.810192 Z M205.998597,177.797453 L206.001145,179.797452 L209.001142,179.793632 L208.998597,177.793632 L205.998597,177.797453 Z M215.998589,177.784714 L216.001137,179.784713 L219.001134,179.780893 L218.998589,177.780893 L215.998589,177.784714 Z M225.998581,177.771976 L226.001129,179.771974 L229.001126,179.768154 L228.998581,177.768154 L225.998581,177.771976 Z M235.998573,177.759237 L236.001121,179.759235 L239.001118,179.755415 L238.998573,177.755415 L235.998573,177.759237 Z M245.998565,177.746498 L246.001112,179.746496 L249.00111,179.742676 L248.998565,177.742676 L245.998565,177.746498 Z M255.998557,177.733759 L256.001104,179.733757 L259.001102,179.729937 L258.998557,177.729937 L255.998557,177.733759 Z M265.998548,177.72102 L266.001096,179.721019 L269.001094,179.717198 L268.998548,177.717198 L265.998548,177.72102 Z M275.99854,177.708281 L276.001088,179.70828 L279.001086,179.70446 L278.99854,177.70446 L275.99854,177.708281 Z M285.998532,177.695542 L286.00108,179.695541 L289.001078,179.691721 L288.998532,177.691721 L285.998532,177.695542 Z M295.998524,177.682804 L296.001072,179.682802 L299.001069,179.678982 L298.998524,177.678982 L295.998524,177.682804 Z M305.998516,177.670065 L306.001064,179.670063 L309.001061,179.666243 L308.998516,177.666243 L305.998516,177.670065 Z M315.998508,177.657326 L316.001056,179.657324 L319.001053,179.653504 L318.998508,177.653504 L315.998508,177.657326 Z M325.9985,177.644587 L326.001048,179.644585 L329.001045,179.640765 L328.9985,177.640765 L325.9985,177.644587 Z M335.998492,177.631848 L336.001039,179.631847 L339.001037,179.628027 L338.998492,177.628027 L335.998492,177.631848 Z M345.998484,177.619109 L346.001031,179.619108 L349.001029,179.615288 L348.998484,177.615288 L345.998484,177.619109 Z M355.998475,177.606371 L356.001023,179.606369 L359.001021,179.602549 L358.998475,177.602549 L355.998475,177.606371 Z M365.998467,177.593632 L366.001015,179.59363 L369.001013,179.58981 L368.998467,177.58981 L365.998467,177.593632 Z M375.998459,177.580893 L376.001007,179.580891 L379.001005,179.577071 L378.998459,177.577071 L375.998459,177.580893 Z M385.998451,177.568154 L386.000999,179.568152 L389.000996,179.564332 L388.998451,177.564332 L385.998451,177.568154 Z M395.998443,177.555415 L396.000991,179.555414 L399.000988,179.551594 L398.998443,177.551594 L395.998443,177.555415 Z M405.998435,177.542676 L406.000983,179.542675 L409.00098,179.538855 L408.998435,177.538855 L405.998435,177.542676 Z M415.998427,177.529937 L416.000974,179.529936 L419.000972,179.526116 L418.998427,177.526116 L415.998427,177.529937 Z M425.998419,177.517199 L426.000966,179.517197 L429.000964,179.513377 L428.998419,177.513377 L425.998419,177.517199 Z M435.99841,177.50446 L436.000958,179.504458 L439.000956,179.500638 L438.99841,177.500638 L435.99841,177.50446 Z" id="Line" fill-opacity="0.25" fill="#FFFFFF" fill-rule="nonzero"></path>
                <path d="M45.9987269,461.001275 L46.0012747,463.001273 L49.0012723,462.997453 L48.9987269,460.997453 L45.9987269,461.001275 Z M55.9987188,460.988536 L56.0012666,462.988534 L59.0012641,462.984714 L58.9987188,460.984714 L55.9987188,460.988536 Z M65.9987107,460.975797 L66.0012585,462.975795 L69.001256,462.971975 L68.9987107,460.971975 L65.9987107,460.975797 Z M75.9987026,460.963058 L76.0012504,462.963057 L79.0012479,462.959237 L78.9987026,460.959237 L75.9987026,460.963058 Z M85.9986945,460.950319 L86.0012422,462.950318 L89.0012398,462.946498 L88.9986945,460.946498 L85.9986945,460.950319 Z M95.9986864,460.93758 L96.0012341,462.937579 L99.0012317,462.933759 L98.9986864,460.933759 L95.9986864,460.93758 Z M105.998678,460.924842 L106.001226,462.92484 L109.001224,462.92102 L108.998678,460.92102 L105.998678,460.924842 Z M115.99867,460.912103 L116.001218,462.912101 L119.001215,462.908281 L118.99867,460.908281 L115.99867,460.912103 Z M125.998662,460.899364 L126.00121,462.899362 L129.001207,462.895542 L128.998662,460.895542 L125.998662,460.899364 Z M135.998654,460.886625 L136.001202,462.886623 L139.001199,462.882803 L138.998654,460.882803 L135.998654,460.886625 Z M145.998646,460.873886 L146.001194,462.873885 L149.001191,462.870065 L148.998646,460.870065 L145.998646,460.873886 Z M155.998638,460.861147 L156.001185,462.861146 L159.001183,462.857326 L158.998638,460.857326 L155.998638,460.861147 Z M165.99863,460.848409 L166.001177,462.848407 L169.001175,462.844587 L168.99863,460.844587 L165.99863,460.848409 Z M175.998621,460.83567 L176.001169,462.835668 L179.001167,462.831848 L178.998621,460.831848 L175.998621,460.83567 Z M185.998613,460.822931 L186.001161,462.822929 L189.001159,462.819109 L188.998613,460.819109 L185.998613,460.822931 Z M195.998605,460.810192 L196.001153,462.81019 L199.001151,462.80637 L198.998605,460.80637 L195.998605,460.810192 Z M205.998597,460.797453 L206.001145,462.797452 L209.001142,462.793632 L208.998597,460.793632 L205.998597,460.797453 Z M215.998589,460.784714 L216.001137,462.784713 L219.001134,462.780893 L218.998589,460.780893 L215.998589,460.784714 Z M225.998581,460.771976 L226.001129,462.771974 L229.001126,462.768154 L228.998581,460.768154 L225.998581,460.771976 Z M235.998573,460.759237 L236.001121,462.759235 L239.001118,462.755415 L238.998573,460.755415 L235.998573,460.759237 Z M245.998565,460.746498 L246.001112,462.746496 L249.00111,462.742676 L248.998565,460.742676 L245.998565,460.746498 Z M255.998557,460.733759 L256.001104,462.733757 L259.001102,462.729937 L258.998557,460.729937 L255.998557,460.733759 Z M265.998548,460.72102 L266.001096,462.721019 L269.001094,462.717198 L268.998548,460.717198 L265.998548,460.72102 Z M275.99854,460.708281 L276.001088,462.70828 L279.001086,462.70446 L278.99854,460.70446 L275.99854,460.708281 Z M285.998532,460.695542 L286.00108,462.695541 L289.001078,462.691721 L288.998532,460.691721 L285.998532,460.695542 Z M295.998524,460.682804 L296.001072,462.682802 L299.001069,462.678982 L298.998524,460.678982 L295.998524,460.682804 Z M305.998516,460.670065 L306.001064,462.670063 L309.001061,462.666243 L308.998516,460.666243 L305.998516,460.670065 Z M315.998508,460.657326 L316.001056,462.657324 L319.001053,462.653504 L318.998508,460.653504 L315.998508,460.657326 Z M325.9985,460.644587 L326.001048,462.644585 L329.001045,462.640765 L328.9985,460.640765 L325.9985,460.644587 Z M335.998492,460.631848 L336.001039,462.631847 L339.001037,462.628027 L338.998492,460.628027 L335.998492,460.631848 Z M345.998484,460.619109 L346.001031,462.619108 L349.001029,462.615288 L348.998484,460.615288 L345.998484,460.619109 Z M355.998475,460.606371 L356.001023,462.606369 L359.001021,462.602549 L358.998475,460.602549 L355.998475,460.606371 Z M365.998467,460.593632 L366.001015,462.59363 L369.001013,462.58981 L368.998467,460.58981 L365.998467,460.593632 Z M375.998459,460.580893 L376.001007,462.580891 L379.001005,462.577071 L378.998459,460.577071 L375.998459,460.580893 Z M385.998451,460.568154 L386.000999,462.568152 L389.000996,462.564332 L388.998451,460.564332 L385.998451,460.568154 Z M395.998443,460.555415 L396.000991,462.555414 L399.000988,462.551594 L398.998443,460.551594 L395.998443,460.555415 Z M405.998435,460.542676 L406.000983,462.542675 L409.00098,462.538855 L408.998435,460.538855 L405.998435,460.542676 Z M415.998427,460.529937 L416.000974,462.529936 L419.000972,462.526116 L418.998427,460.526116 L415.998427,460.529937 Z M425.998419,460.517199 L426.000966,462.517197 L429.000964,462.513377 L428.998419,460.513377 L425.998419,460.517199 Z M435.99841,460.50446 L436.000958,462.504458 L439.000956,462.500638 L438.99841,460.500638 L435.99841,460.50446 Z" id="Line-Copy" fill-opacity="0.25" fill="#FFFFFF" fill-rule="nonzero"></path>
                <rect id="config-file-bg" stroke="#000000" x="45.5" y="22.5" width="394" height="755" rx="10"></rect>
                <polygon id="Line-6" fill="#000000" fill-rule="nonzero" transform="translate(512.500000, 204.500000) scale(1, -1) translate(-512.500000, -204.500000) " points="685 204 685 205 340 205 340 204"></polygon>
                <polygon id="Line-6" fill="#000000" fill-rule="nonzero" points="685 333 685 334 402 334 402 333"></polygon>
                <polygon id="Line-6" fill="#000000" fill-rule="nonzero" points="685 49 685 50 288 50 288 49"></polygon>
                <polygon id="Line-6" fill="#000000" fill-rule="nonzero" transform="translate(457.000000, 490.500000) scale(1, -1) translate(-457.000000, -490.500000) " points="685 490 685 491 229 491 229 490"></polygon>
                <polygon id="Line-6" fill="#000000" fill-rule="nonzero" points="685 622 685 623 229 623 229 622"></polygon>
                <text font-size="16" font-weight="normal" fill="#10E7FF">
                    <a href="/docs/setup/configuration"><tspan x="711" y="747">Learn more about Vector's configuration</tspan></a>
                </text>
                <text font-size="16" font-weight="bold" line-spacing="24">
                    <tspan x="711" y="51" fill="#000000">1. Define One Or More Data Sources</tspan>
                    <tspan x="711" y="75" font-weight="normal" fill="#000000">This can be a file, journald, STDIn, TCP, and more.</tspan>
                    <tspan x="711" y="99" font-weight="normal" fill="#000000">Vector collects data in any shape from many sources.</tspan>
                    <a href="/docs/reference/sources/file"><tspan x="711" y="123" font-weight="normal" fill="#10E7FF">View the file source</tspan></a>
                </text>
                <text font-size="16" font-weight="bold" line-spacing="24">
                    <tspan x="711" y="206" fill="#000000">2. Parse &amp; Transform</tspan>
                    <tspan x="711" y="230" font-weight="normal" fill="#000000">Common parsers are included out of the box with </tspan>
                    <tspan x="711" y="254" font-weight="normal" fill="#000000">support for custom Regex and LUA scripting.</tspan>
                    <a href="/docs/reference/transforms/tokenizer"><tspan x="711" y="278" font-weight="normal" fill="#10E7FF">View the tokenizer transform</tspan></a>
                </text>
                <text font-size="16" font-weight="bold" line-spacing="24">
                    <tspan x="711" y="334" fill="#000000">3. Sample &amp; Reduce Volumne</tspan>
                    <tspan x="711" y="358" font-weight="normal" fill="#000000">Reduce volume by sampling data and removing </tspan>
                    <tspan x="711" y="382" font-weight="normal" fill="#000000">superflous events.</tspan>
                    <a href="/docs/reference/transforms/sampler"><tspan x="711" y="406" font-weight="normal" fill="#10E7FF">View the sampler transform</tspan></a>
                </text>
                <text font-size="16" font-weight="bold" line-spacing="24">
                    <tspan x="711" y="492" fill="#000000">4. Aggregate &amp; Search</tspan>
                    <tspan x="711" y="516" font-weight="normal" fill="#000000">Stream your data to Elasticsearch (or the storage of your </tspan>
                    <tspan x="711" y="540" font-weight="normal" fill="#000000">choice) to aggregate, search, and analyze.</tspan>
                    <a href="/docs/reference/sinks/elasticsearch"><tspan x="711" y="564" font-weight="normal" fill="#10E7FF">View the Elasticsearch sink</tspan></a>
                </text>
                <text font-size="16" font-weight="bold" line-spacing="24">
                    <tspan x="711" y="624" fill="#000000">5. Archive</tspan>
                    <tspan x="711" y="648" font-weight="normal" fill="#000000">Archive everything in a compressed format in a cheap </tspan>
                    <tspan x="711" y="672" font-weight="normal" fill="#000000">durable storage like S3.</tspan>
                    <a href="/docs/reference/sinks/aws_s3"><tspan x="711" y="696" font-weight="normal" fill="#10E7FF">View the AWS S3 sink</tspan></a>
                </text>
                <text font-family="Courier-Bold, Courier" font-size="14" font-weight="bold" line-spacing="26" letter-spacing="0.3">
                    <tspan x="67" y="48" fill="#B963CE">[sources.nginx_error_log]</tspan>
                    <tspan x="67" y="74" fill="#B963CE">  type = 'file'</tspan>
                    <tspan x="67" y="100" fill="#B963CE">  include = ['/var/log/nginx*.log']</tspan>
                    <tspan x="67" y="126" fill="#B963CE">  start_at_beginning = false</tspan>
                    <tspan x="67" y="152" fill="#B963CE">  ignore_older = 86400</tspan>
                    <tspan x="258.430078" y="152" fill="#000000"></tspan>
                    <tspan x="67" y="178" fill="#000000"></tspan>
                    <tspan x="67" y="204" fill="#3A7DD1">[transforms.nginx_error_parser]</tspan>
                    <tspan x="67" y="230" fill="#3A7DD1">  inputs = ['nginx_error_log']</tspan>
                    <tspan x="67" y="256" fill="#3A7DD1">  type   = 'tokenizer'</tspan>
                    <tspan x="67" y="282" fill="#3A7DD1">  field_names = ['timestamp', 'message']</tspan>
                    <tspan x="67" y="308" fill="#3A7DD1"></tspan>
                    <tspan x="67" y="334" fill="#3A7DD1">[transforms.nginx_transaction_sampler]</tspan>
                    <tspan x="67" y="360" fill="#3A7DD1">  inputs      = ['nginx_error_parser']</tspan>
                    <tspan x="67" y="386" fill="#3A7DD1">  type        = 'sampler'</tspan>
                    <tspan x="67" y="412" fill="#3A7DD1">  key_field  = 'request_id'</tspan>
                    <tspan x="67" y="438" fill="#3A7DD1">  rate        = 10</tspan>
                    <tspan x="223.624609" y="438" fill="#000000"></tspan>
                    <tspan x="67" y="464" fill="#000000"></tspan>
                    <tspan x="67" y="490" fill="#0092A8">[sinks.es_cluster]</tspan>
                    <tspan x="67" y="516" fill="#0092A8">  inputs = ['nginx_transaction_sampler']</tspan>
                    <tspan x="67" y="542" fill="#0092A8">  type   = 'elasticsearch'</tspan>
                    <tspan x="67" y="568" fill="#0092A8">  host   = '123.123.123.123:5000'</tspan>
                    <tspan x="67" y="594" fill="#0092A8"></tspan>
                    <tspan x="67" y="620" fill="#0092A8">[sinks.s3_archive]</tspan>
                    <tspan x="67" y="646" fill="#0092A8">  inputs = ['nginx_error_parser']</tspan>
                    <tspan x="67" y="672" fill="#0092A8">  type   = 'aws_s3'</tspan>
                    <tspan x="67" y="698" fill="#0092A8">  region = 'us-east-1'</tspan>
                    <tspan x="67" y="724" fill="#0092A8">  bucket = 'log-archives'</tspan>
                    <tspan x="67" y="750" fill="#0092A8">  compression = 'gzip'</tspan>
                </text>
                <path d="M59.9217929,48 L61,49.1046297 L60.4583103,49.6543077 C37.1580781,73.2981482 25.5284769,98.5602347 25.5284769,125.466422 C25.5284769,153.857586 34.7788958,177.001736 53.2890677,194.950014 L55.9182352,191.827103 L60.1125308,202 L49.6141966,199.317514 L52.2928822,196.134687 C33.4340816,177.877607 24,154.304418 24,125.466422 C24,98.3913862 35.5720841,72.9834892 58.6764412,49.2678167 L59.3801032,48.549678 L59.9217929,48 Z" id="Line-7" fill="url(#config-example-line-1)" fill-rule="nonzero"></path>
                <path d="M59.9503433,215 L61,216.17245 L60.4070542,216.69133 C40.5052938,234.107123 30.5837039,252.692853 30.5837039,272.472239 C30.5837039,292.654159 37.9506623,309.224407 52.7051688,322.237596 L55.2722183,318.98853 L60.0902502,329 L49.0984358,326.803856 L51.7282766,323.474147 C36.5829915,310.151577 29,293.132642 29,272.472239 C29,252.407093 38.9369001,233.59203 58.7538595,216.050065 L59.3573975,215.51888 L59.9503433,215 Z" id="Line-7" fill="#3F80D2" fill-rule="nonzero"></path>
                <path d="M60.9943106,214 L62,215.205739 L61.3892739,215.702116 C21.5270766,248.100669 1.58219995,299.297516 1.58219995,369.358982 C1.58219995,448.668477 19.8889697,525.642845 56.5063532,600.290181 L57.2484241,601.795267 L61.017564,599.940757 L61.0040754,611 L52.0494782,604.353802 L55.8323552,602.49185 L55.0821042,600.970426 C18.3619827,526.113483 0,448.906969 0,369.358982 C0,299.570152 19.7183145,248.256983 59.1816811,215.483827 L60.3835845,214.496376 L60.9943106,214 Z" id="Line-7" fill="url(#config-example-line-2)" fill-rule="nonzero"></path>
                <path d="M59.9504967,341 L61,342.131449 L60.4443833,342.665747 C37.1512597,365.06512 25.528495,388.990796 25.528495,414.46803 C25.528495,441.281431 34.7221429,463.152102 53.1245719,480.134406 L55.675612,476.950639 L60.1170279,487 L49.5563302,484.588154 L52.15691,481.341778 C33.3906971,464.052338 24,441.742909 24,414.46803 C24,388.789278 35.5790563,364.69679 58.6909884,342.215069 L59.39488,341.534298 L59.9504967,341 Z" id="Line-7" fill="url(#config-example-line-3)" fill-rule="nonzero"></path>
                <path d="M47.9463531,11.7873418 C47.4528728,10.7746785 46.9521429,9.5898802 46.4441484,8.23291139 C45.936154,6.87594258 45.454776,5.39747635 45,3.79746835 L47.2932207,3.79746835 C47.3899815,4.19240704 47.5036738,4.62025086 47.6343009,5.08101266 C47.7649281,5.54177446 47.9003912,6.00759258 48.0406945,6.47848101 C48.1809977,6.94936944 48.3212988,7.40759271 48.4616021,7.85316456 C48.6019053,8.29873641 48.7397874,8.70379565 48.8752526,9.06835443 C49.0010417,8.70379565 49.1365049,8.29873641 49.2816462,7.85316456 C49.4267874,7.40759271 49.5695075,6.94936944 49.7098108,6.47848101 C49.850114,6.00759258 49.9855772,5.54177446 50.1162043,5.08101266 C50.2468314,4.62025086 50.3605237,4.19240704 50.4572846,3.79746835 L52.692449,3.79746835 C52.237673,5.39747635 51.756295,6.87594258 51.2483006,8.23291139 C50.7403061,9.5898802 50.2395762,10.7746785 49.7460959,11.7873418 L47.9463531,11.7873418 Z M53.2875253,7.85316456 C53.2875253,7.14430025 53.3915416,6.52405329 53.5995774,5.99240506 C53.8076133,5.46075684 54.0809586,5.01772329 54.4196215,4.66329114 C54.7582845,4.30885899 55.1477411,4.04050724 55.5880029,3.85822785 C56.0282648,3.67594846 56.480615,3.58481013 56.9450671,3.58481013 C58.0287886,3.58481013 58.8851092,3.9316421 59.5140547,4.62531646 C60.1430003,5.31899081 60.4574683,6.33923377 60.4574683,7.68607595 C60.4574683,7.81772218 60.4526303,7.96202453 60.4429543,8.11898734 C60.4332782,8.27595015 60.4236022,8.41518927 60.4139261,8.53670886 L55.5081756,8.53670886 C55.5565561,9.00253397 55.7645888,9.37215053 56.13228,9.64556962 C56.4999712,9.91898871 56.9934441,10.0556962 57.6127136,10.0556962 C58.0094331,10.0556962 58.3988896,10.0177219 58.781095,9.94177215 C59.1633003,9.86582241 59.4753494,9.77215246 59.7172515,9.66075949 L60.0075326,11.4987342 C59.8914196,11.559494 59.7366046,11.6202529 59.5430829,11.6810127 C59.3495612,11.7417725 59.1342715,11.7949365 58.8972074,11.8405063 C58.6601433,11.8860762 58.4061499,11.9240505 58.1352195,11.9544304 C57.8642892,11.9848103 57.5933629,12 57.3224325,12 C56.6354305,12 56.0379412,11.8936719 55.5299467,11.6810127 C55.0219523,11.4683534 54.6010489,11.177217 54.267224,10.8075949 C53.933399,10.4379728 53.6866626,10.0000025 53.5270072,9.49367089 C53.3673518,8.98733924 53.2875253,8.44050927 53.2875253,7.85316456 Z M58.3674444,6.98734177 C58.3577683,6.79493575 58.3263215,6.60759585 58.2731031,6.42531646 C58.2198846,6.24303706 58.1376391,6.08101337 58.0263641,5.93924051 C57.9150892,5.79746765 57.774788,5.68101311 57.6054565,5.58987342 C57.4361251,5.49873372 57.2256734,5.45316456 56.9740952,5.45316456 C56.732193,5.45316456 56.5241603,5.4962021 56.3499908,5.58227848 C56.1758213,5.66835486 56.0306822,5.78227777 55.9145692,5.92405063 C55.7984562,6.06582349 55.7089537,6.23037881 55.6460592,6.41772152 C55.5831646,6.60506423 55.5372039,6.79493575 55.5081756,6.98734177 L58.3674444,6.98734177 Z M61.7637332,7.79240506 C61.7637332,7.21518699 61.8532357,6.67088863 62.0322432,6.15949367 C62.2112508,5.64809871 62.4700822,5.20253354 62.8087452,4.82278481 C63.1474081,4.44303608 63.5586356,4.14177327 64.0424398,3.91898734 C64.5262441,3.69620142 65.0777726,3.58481013 65.6970421,3.58481013 C66.1034376,3.58481013 66.4759613,3.62278443 66.8146243,3.69873418 C67.1532873,3.77468392 67.4822692,3.88354359 67.80158,4.02531646 L67.3516443,5.83291139 C67.1484465,5.75189833 66.9258999,5.68101296 66.6839978,5.62025316 C66.4420957,5.55949337 66.1711694,5.52911392 65.8712107,5.52911392 C65.2325891,5.52911392 64.7560491,5.73670678 64.4415763,6.15189873 C64.1271036,6.56709068 63.9698696,7.11392066 63.9698696,7.79240506 C63.9698696,8.511396 64.1174276,9.06835246 64.4125482,9.46329114 C64.7076688,9.85822982 65.2229126,10.0556962 65.9582951,10.0556962 C66.2195493,10.0556962 66.5001516,10.03038 66.8001102,9.97974684 C67.1000689,9.92911367 67.3758331,9.84810182 67.6274114,9.73670886 L67.9322065,11.5898734 C67.6806283,11.7012664 67.3661603,11.7974679 66.9887929,11.878481 C66.6114256,11.9594941 66.1953602,12 65.7405842,12 C65.0439061,12 64.4439979,11.8911403 63.9408414,11.6734177 C63.437685,11.4556951 63.0240386,11.1594955 62.6998898,10.7848101 C62.3757409,10.4101247 62.1386804,9.96709116 61.9887011,9.4556962 C61.8387218,8.94430124 61.7637332,8.38987641 61.7637332,7.79240506 Z M69.3110417,1.80759494 L71.4736359,1.44303797 L71.4736359,3.79746835 L74.0716517,3.79746835 L74.0716517,5.68101266 L71.4736359,5.68101266 L71.4736359,8.49113924 C71.4736359,8.96709099 71.5534624,9.34683403 71.7131178,9.63037975 C71.8727732,9.91392547 72.1944982,10.0556962 72.6783024,10.0556962 C72.9105284,10.0556962 73.150008,10.0329116 73.3967481,9.98734177 C73.6434883,9.94177192 73.8684539,9.87848142 74.0716517,9.79746835 L74.3764468,11.5594937 C74.1151925,11.6708866 73.8249143,11.7670882 73.5056035,11.8481013 C73.1862927,11.9291143 72.7944172,11.9696203 72.3299651,11.9696203 C71.7397239,11.9696203 71.251089,11.8860768 70.8640456,11.7189873 C70.4770022,11.5518979 70.1673721,11.3189888 69.9351461,11.0202532 C69.70292,10.7215175 69.540848,10.3594958 69.4489252,9.93417722 C69.3570024,9.50885863 69.3110417,9.03797468 69.3110417,8.52151899 L69.3110417,1.80759494 Z M82.6784861,7.77721519 C82.6784861,8.40506643 82.5914027,8.97974423 82.4172331,9.50126582 C82.2430636,10.0227874 81.9914892,10.4683526 81.6625023,10.8379747 C81.3335154,11.2075968 80.9392209,11.4936699 80.4796068,11.6962025 C80.0199928,11.8987352 79.504749,12 78.93386,12 C78.3726471,12 77.8622413,11.8987352 77.4026272,11.6962025 C76.9430132,11.4936699 76.5487187,11.2075968 76.2197318,10.8379747 C75.8907449,10.4683526 75.6343325,10.0227874 75.4504869,9.50126582 C75.2666413,8.97974423 75.1747198,8.40506643 75.1747198,7.77721519 C75.1747198,7.14936395 75.2690602,6.57721777 75.4577439,6.06075949 C75.6464275,5.54430122 75.9076779,5.10379929 76.2415028,4.73924051 C76.5753278,4.37468172 76.9720413,4.09114025 77.4316553,3.88860759 C77.8912694,3.68607494 78.3919993,3.58481013 78.93386,3.58481013 C79.4853968,3.58481013 79.9909647,3.68607494 80.4505787,3.88860759 C80.9101928,4.09114025 81.3044873,4.37468172 81.6334742,4.73924051 C81.9624611,5.10379929 82.2188735,5.54430122 82.4027191,6.06075949 C82.5865647,6.57721777 82.6784861,7.14936395 82.6784861,7.77721519 Z M80.4723498,7.77721519 C80.4723498,7.07847752 80.3393056,6.52911392 80.0732133,6.12911392 C79.807121,5.72911192 79.4273403,5.52911392 78.93386,5.52911392 C78.4403797,5.52911392 78.0581801,5.72911192 77.7872497,6.12911392 C77.5163193,6.52911392 77.3808561,7.07847752 77.3808561,7.77721519 C77.3808561,8.47595286 77.5163193,9.0303777 77.7872497,9.44050633 C78.0581801,9.85063496 78.4403797,10.0556962 78.93386,10.0556962 C79.4273403,10.0556962 79.807121,9.85063496 80.0732133,9.44050633 C80.3393056,9.0303777 80.4723498,8.47595286 80.4723498,7.77721519 Z M88.9485578,5.80253165 C88.7550361,5.75189848 88.5276515,5.69873446 88.2663972,5.64303797 C88.0051429,5.58734149 87.7245407,5.55949367 87.424582,5.55949367 C87.2891168,5.55949367 87.1270449,5.57215177 86.9383612,5.59746835 C86.7496775,5.62278494 86.6069574,5.65063276 86.5101966,5.68101266 L86.5101966,11.7873418 L84.3476024,11.7873418 L84.3476024,4.22278481 C84.7346458,4.08101195 85.191834,3.94683608 85.7191806,3.82025316 C86.2465272,3.69367025 86.8343406,3.63037975 87.4826383,3.63037975 C87.5987513,3.63037975 87.7390524,3.63797461 87.9035458,3.65316456 C88.0680393,3.66835451 88.2325303,3.68860747 88.3970237,3.71392405 C88.5615171,3.73924063 88.7260081,3.76962008 88.8905016,3.80506329 C89.054995,3.84050651 89.1952961,3.88354405 89.3114091,3.93417722 L88.9485578,5.80253165 Z M91.7207422,10.5873418 C91.7207422,11.0430403 91.5828601,11.3898722 91.3070917,11.6278481 C91.0313233,11.865824 90.7192742,11.9848101 90.3709351,11.9848101 C90.0225961,11.9848101 89.710547,11.865824 89.4347786,11.6278481 C89.1590102,11.3898722 89.0211281,11.0430403 89.0211281,10.5873418 C89.0211281,10.1316433 89.1590102,9.78481132 89.4347786,9.54683544 C89.710547,9.30885957 90.0225961,9.18987342 90.3709351,9.18987342 C90.7192742,9.18987342 91.0313233,9.30885957 91.3070917,9.54683544 C91.5828601,9.78481132 91.7207422,10.1316433 91.7207422,10.5873418 Z M93.0995774,1.80759494 L95.2621716,1.44303797 L95.2621716,3.79746835 L97.8601874,3.79746835 L97.8601874,5.68101266 L95.2621716,5.68101266 L95.2621716,8.49113924 C95.2621716,8.96709099 95.3419981,9.34683403 95.5016535,9.63037975 C95.6613089,9.91392547 95.9830339,10.0556962 96.4668381,10.0556962 C96.6990642,10.0556962 96.9385437,10.0329116 97.1852839,9.98734177 C97.432024,9.94177192 97.6569896,9.87848142 97.8601874,9.79746835 L98.1649825,11.5594937 C97.9037283,11.6708866 97.6134501,11.7670882 97.2941393,11.8481013 C96.9748285,11.9291143 96.5829529,11.9696203 96.1185008,11.9696203 C95.5282596,11.9696203 95.0396247,11.8860768 94.6525813,11.7189873 C94.2655379,11.5518979 93.9559078,11.3189888 93.7236818,11.0202532 C93.4914558,10.7215175 93.3293838,10.3594958 93.237461,9.93417722 C93.1455382,9.50885863 93.0995774,9.03797468 93.0995774,8.52151899 L93.0995774,1.80759494 Z M106.467022,7.77721519 C106.467022,8.40506643 106.379938,8.97974423 106.205769,9.50126582 C106.031599,10.0227874 105.780025,10.4683526 105.451038,10.8379747 C105.122051,11.2075968 104.727757,11.4936699 104.268143,11.6962025 C103.808529,11.8987352 103.293285,12 102.722396,12 C102.161183,12 101.650777,11.8987352 101.191163,11.6962025 C100.731549,11.4936699 100.337254,11.2075968 100.008267,10.8379747 C99.6792806,10.4683526 99.4228682,10.0227874 99.2390226,9.50126582 C99.055177,8.97974423 98.9632556,8.40506643 98.9632556,7.77721519 C98.9632556,7.14936395 99.057596,6.57721777 99.2462796,6.06075949 C99.4349633,5.54430122 99.6962137,5.10379929 100.030039,4.73924051 C100.363864,4.37468172 100.760577,4.09114025 101.220191,3.88860759 C101.679805,3.68607494 102.180535,3.58481013 102.722396,3.58481013 C103.273933,3.58481013 103.7795,3.68607494 104.239114,3.88860759 C104.698728,4.09114025 105.093023,4.37468172 105.42201,4.73924051 C105.750997,5.10379929 106.007409,5.54430122 106.191255,6.06075949 C106.3751,6.57721777 106.467022,7.14936395 106.467022,7.77721519 Z M104.260886,7.77721519 C104.260886,7.07847752 104.127841,6.52911392 103.861749,6.12911392 C103.595657,5.72911192 103.215876,5.52911392 102.722396,5.52911392 C102.228915,5.52911392 101.846716,5.72911192 101.575785,6.12911392 C101.304855,6.52911392 101.169392,7.07847752 101.169392,7.77721519 C101.169392,8.47595286 101.304855,9.0303777 101.575785,9.44050633 C101.846716,9.85063496 102.228915,10.0556962 102.722396,10.0556962 C103.215876,10.0556962 103.595657,9.85063496 103.861749,9.44050633 C104.127841,9.0303777 104.260886,8.47595286 104.260886,7.77721519 Z M112.3307,7.54936709 C112.3307,6.82024952 112.241198,6.30379899 112.06219,6 C111.883182,5.69620101 111.575971,5.5443038 111.140547,5.5443038 C111.005082,5.5443038 110.864781,5.55189866 110.71964,5.56708861 C110.574499,5.58227856 110.434198,5.5999999 110.298732,5.62025316 L110.298732,11.7873418 L108.136138,11.7873418 L108.136138,4.07088608 C108.319984,4.02025291 108.535273,3.96708889 108.782014,3.91139241 C109.028754,3.85569592 109.290004,3.80506352 109.565773,3.75949367 C109.841541,3.71392382 110.124562,3.67848114 110.414845,3.65316456 C110.705127,3.62784797 110.990568,3.61518987 111.271174,3.61518987 C111.822711,3.61518987 112.270223,3.68860686 112.613724,3.83544304 C112.957225,3.98227922 113.240246,4.15696101 113.462796,4.35949367 C113.772431,4.12658111 114.128022,3.94430446 114.529579,3.81265823 C114.931137,3.681012 115.301241,3.61518987 115.639904,3.61518987 C116.249498,3.61518987 116.750228,3.70379658 117.142109,3.88101266 C117.533991,4.05822873 117.84604,4.30885914 118.078266,4.63291139 C118.310492,4.95696365 118.470145,5.34176992 118.557229,5.78734177 C118.644314,6.23291362 118.687856,6.72911119 118.687856,7.27594937 L118.687856,11.7873418 L116.525262,11.7873418 L116.525262,7.54936709 C116.525262,6.82024952 116.435759,6.30379899 116.256752,6 C116.077744,5.69620101 115.770533,5.5443038 115.335109,5.5443038 C115.218996,5.5443038 115.056924,5.57468324 114.848888,5.63544304 C114.640853,5.69620284 114.469105,5.77215144 114.33364,5.86329114 C114.401372,6.0962037 114.444914,6.34177086 114.464266,6.6 C114.483618,6.85822914 114.493294,7.13417575 114.493294,7.4278481 L114.493294,11.7873418 L112.3307,11.7873418 L112.3307,7.54936709 Z M123.695205,11.9392405 C123.066259,11.9291139 122.555854,11.8582285 122.163972,11.7265823 C121.772091,11.5949361 121.462461,11.4101278 121.235073,11.1721519 C121.007685,10.934176 120.85287,10.6455713 120.770623,10.3063291 C120.688376,9.96708691 120.647253,9.58481225 120.647253,9.15949367 L120.647253,0.364556962 L122.809848,0 L122.809848,8.70379747 C122.809848,8.90633013 122.824361,9.08860678 122.85339,9.25063291 C122.882418,9.41265904 122.938055,9.54936653 123.020301,9.66075949 C123.102548,9.77215246 123.221078,9.86329078 123.375896,9.93417722 C123.530713,10.0050636 123.738746,10.0506328 124,10.0708861 L123.695205,11.9392405 Z" id="vector.toml" fill="#000000" fill-rule="nonzero"></path>
            </g>
        </g>
    </g>
</svg>