<?xml version="1.0" encoding="UTF-8"?>
<svg width="750px" height="303px" viewBox="0 0 750 303" version="1.1" xmlns="http://www.w3.org/2000/svg" xmlns:xlink="http://www.w3.org/1999/xlink">
    <!-- Generator: Sketch 59.1 (86144) - https://sketch.com -->
    <title>Custom Preset</title>
    <desc>Created with Sketch.</desc>
    <g id="Custom-Preset" stroke="none" stroke-width="1" fill="none" fill-rule="evenodd">
        <path d="M768,-97 L768,316 L-7,316 L-7,-97 L768,-97 Z M533,5 L531,5 L531,171.225 L528,171.225968 L528,173.225968 L531,173.225 L531,231.225 L528,231.225968 L528,233.225968 L531,233.225 L531,298.5 L533,298.5 L533,233.225 L535,233.225968 L535,231.225968 L533,231.225 L533,173.225 L535,173.225968 L535,171.225968 L533,171.225 L533,5 Z M216,5 L214,5 L214,106.258 L187.490569,106.509521 L187.509521,108.509431 L214,108.258 L214.00004,111.042649 C211.536064,112.053887 209.169442,113.206975 206.900384,114.501857 L206.900384,114.501857 L206.697725,114.60999 C201.282253,117.52924 196.457672,121.166725 192.226422,125.523072 C186.98898,130.91536 182.633419,137.39247 179.157459,144.953526 C178.55742,145.892481 178.020492,146.733391 177.53146,147.499935 C177.503833,147.518928 177.488269,147.53302 177.457937,147.560481 C177.374963,147.641248 177.374963,147.641248 177.332554,147.691018 C177.250749,147.787465 177.128519,147.952362 176.941507,148.216254 C176.106997,149.393837 173.95574,152.589409 170.166886,158.296396 C159.86347,173.815987 139.454917,177.946842 108.734751,170.527944 L108.734751,170.527944 L107.762695,170.293194 L107.293194,172.237305 L108.265249,172.472056 C139.712834,180.066624 160.970948,175.763811 171.833114,159.4026 C173.419185,157.013568 174.717588,155.065717 175.750116,153.524356 C171.847504,164.966776 169.599684,178.447359 169.000744,193.961423 L169.000744,193.961423 L168.962167,194.960678 L170.960678,195.037833 L170.999256,194.038577 C171.743553,174.759355 175.05442,158.718987 180.92016,145.909335 C182.434577,143.539694 184.348205,140.549859 186.899393,136.56891 C192.512279,127.8104 199.491867,121.042807 207.849088,116.262394 C209.818117,115.210529 211.868457,114.255583 214.000236,113.397589 L214.000236,113.397589 L214,298.5 L216,298.5 L216.000161,112.629842 C218.806275,111.603573 221.747126,110.737648 224.821909,110.032976 C225.863949,111.808179 227.792792,113 230,113 C232.886589,113 235.297079,110.961576 235.868848,108.244834 C236.680446,108.163365 237.499827,108.091127 238.326995,108.028121 L238.326995,108.028121 L241.451,107.998384 L241.201536,113.594165 L241.406,113.502384 L241.40283,113.774371 L241.784,113.589384 L241.788331,113.995333 L251.749,108.895384 L255.5,107.225968 L255.266,107.095384 L255.721371,106.862984 L248.663,103.417384 L241.826364,99.6081156 L241.813,99.8873836 L241.599945,99.7757587 L241.516529,105.668846 C239.258663,105.724102 237.051968,105.85455 234.896527,106.060168 L235.911,105.969 L235.866546,105.735649 C235.302608,103.106416 233.015968,101.116501 230.245662,101.004938 L230,101 C226.970264,101 224.465019,103.245608 224.057888,106.1632 L224.057888,106.1632 L216,106.239 L216,5 Z M374.923874,84.8720433 L373.862,85.09 L373.861612,85 L275,105.253892 L275,136.66421 L352.756371,152.86 L275,168.664575 L275,199.825605 L342.918371,213.86 L275,227.664575 L275,258.825605 L372.360599,278.9448 L372.36,278.464 L374.712079,278.9448 L374.817,278.922 L374.923874,278.9448 L375.776,278.771 L375.776761,278.9448 L474.36429,258.722481 L474.84544,258.624265 L474.496,258.553 L474.516959,258.549305 L474.836,228.979 L474.84544,228.388662 L474.842,228.389 L474.84544,228.112878 L474.842,228.111 L474.84544,227.925467 L474.459,227.846 L474.84544,227.767122 L405.951371,213.755 L474.36429,199.722481 L474.84544,199.624265 L474.496,199.553 L474.516959,199.549305 L474.836,169.979 L474.84544,169.388662 L474.842,169.389 L474.84544,169.112878 L474.842,169.111 L474.84544,168.925467 L474.459,168.846 L474.84544,168.767122 L398.299,153.198 L396.089371,152.744 L474.36429,136.56026 L474.84544,136.461259 L474.495,136.389 L474.516959,136.385699 L474.836,106.578 L474.84544,105.983771 L474.842,105.984 L474.84544,105.705781 L474.842,105.704 L474.84544,105.516871 L474.459,105.436 L474.84544,105.357259 L398.332,89.671 L375.776761,85 L375.776,85.047 L374.923874,84.8720433 Z M141.5,194 C120.789322,194 104,210.789322 104,231.5 C104,252.210678 120.789322,269 141.5,269 C162.210678,269 179,252.210678 179,231.5 C179,210.789322 162.210678,194 141.5,194 Z M608.5,194 C587.789322,194 571,210.789322 571,231.5 C571,252.210678 587.789322,269 608.5,269 C629.210678,269 646,252.210678 646,231.5 C646,210.789322 629.210678,194 608.5,194 Z M268.491077,118.585815 L267.813328,119.272025 C264.533476,122.139391 261.869351,125.38008 259.822184,128.990456 C250.418034,142.833417 245.721371,160.513181 245.721371,182 C245.721371,203.174861 250.489123,221.063968 260.035545,235.644231 L260.035545,235.644231 L255.280261,239.457904 L269.5,246 L266.201834,230.698951 L261.603218,234.386978 C252.352252,220.179546 247.721371,202.72483 247.721371,182 C247.721371,166.059728 250.338941,152.298689 255.569426,140.704228 C255.004118,143.635975 254.721371,146.734989 254.721371,150 C254.721371,157.926538 256.51437,165.128919 260.100575,171.590782 L260.100575,171.590782 L255.288248,175.440571 L269.5,182 L266.220492,166.694941 L261.685777,170.322645 C258.376238,164.239403 256.721371,157.470383 256.721371,150 C256.721371,142.368885 258.31923,135.726481 261.518036,130.054257 C263.678996,126.880459 266.093607,123.916683 268.761729,121.162541 L268.761729,121.162541 L269.185371,120.729 L269.910951,120.096 L269.863371,120.042 L269.914185,119.991077 L269.226371,119.313 L268.596,118.589049 L268.541371,118.636 L268.491077,118.585815 Z M549,225.225968 L549,231.225968 L548,231.225968 L548,233.225968 L549,233.225968 L549,239.225968 L563,232.225968 L549,225.225968 Z M525,231.225968 L518,231.225968 L518,233.225968 L525,233.225968 L525,231.225968 Z M505,231.225968 L498,231.225968 L498,233.225968 L505,233.225968 L505,231.225968 Z M545,231.225968 L538,231.225968 L538,233.225968 L545,233.225968 L545,231.225968 Z M515,231.225968 L508,231.225968 L508,233.225968 L515,233.225968 L515,231.225968 Z M495,231.225968 L488,231.225968 L488,233.225968 L495,233.225968 L495,231.225968 Z M59.5,134 C38.7893219,134 22,150.789322 22,171.5 C22,192.210678 38.7893219,209 59.5,209 C80.2106781,209 97,192.210678 97,171.5 C97,150.789322 80.2106781,134 59.5,134 Z M689.5,134 C668.789322,134 652,150.789322 652,171.5 C652,192.210678 668.789322,209 689.5,209 C710.210678,209 727,192.210678 727,171.5 C727,150.789322 710.210678,134 689.5,134 Z M627,165.225968 L627,179.225968 L641,172.225968 L627,165.225968 Z M565,171.225968 L558,171.225968 L558,173.225968 L565,173.225968 L565,171.225968 Z M545,171.225968 L538,171.225968 L538,173.225968 L545,173.225968 L545,171.225968 Z M515,171.225968 L508,171.225968 L508,173.225968 L515,173.225968 L515,171.225968 Z M495,171.225968 L488,171.225968 L488,173.225968 L495,173.225968 L495,171.225968 Z M505,171.225968 L498,171.225968 L498,173.225968 L505,173.225968 L505,171.225968 Z M525,171.225968 L518,171.225968 L518,173.225968 L525,173.225968 L525,171.225968 Z M555,171.225968 L548,171.225968 L548,173.225968 L555,173.225968 L555,171.225968 Z M625,171.225968 L618,171.225968 L618,173.225968 L625,173.225968 L625,171.225968 Z M615,171.225968 L608,171.225968 L608,173.225968 L615,173.225968 L615,171.225968 Z M605,171.225968 L598,171.225968 L598,173.225968 L605,173.225968 L605,171.225968 Z M595,171.225968 L588,171.225968 L588,173.225968 L595,173.225968 L595,171.225968 Z M585,171.225968 L578,171.225968 L578,173.225968 L585,173.225968 L585,171.225968 Z M575,171.225968 L568,171.225968 L568,173.225968 L575,173.225968 L575,171.225968 Z M141.5,68 C120.789322,68 104,84.7893219 104,105.5 C104,126.210678 120.789322,143 141.5,143 C162.210678,143 179,126.210678 179,105.5 C179,84.7893219 162.210678,68 141.5,68 Z M609.5,68 C588.789322,68 572,84.7893219 572,105.5 C572,126.210678 588.789322,143 609.5,143 C630.210678,143 647,126.210678 647,105.5 C647,84.7893219 630.210678,68 609.5,68 Z M549,102.5 L549,108.5 L536,108.5 L536,110.5 L549,110.5 L549,116.5 L563,109.5 L549,102.5 Z M502,108.5 L488,108.5 L488,110.5 L502,110.5 L502,108.5 Z M526,108.5 L512,108.5 L512,110.5 L526,110.5 L526,108.5 Z M222.654288,108.176396 C220.365377,108.767908 218.147202,109.462781 215.999892,110.260982 L215.999892,110.260982 L216,108.239 Z M400.592935,43 L393.005826,43 L378.775208,66.6449723 L382.52403,72.8147288 L400.592935,43 Z M359.328798,43 L350,43 L367.973806,72.6578091 L385.947612,43 L376.98226,43 L368.157665,57.4993734 L359.328798,43 Z M278.628,57.28 C277.475994,57.28 276.570003,57.5379974 275.91,58.054 C275.249997,58.5700026 274.92,59.2719956 274.92,60.16 C274.92,60.6160023 274.985999,61.0059984 275.118,61.33 C275.250001,61.6540016 275.435999,61.9329988 275.676,62.167 C275.916001,62.4010012 276.206998,62.6019992 276.549,62.77 C276.891002,62.9380008 277.271998,63.0999992 277.692,63.256 C278.232003,63.460001 278.633999,63.6429992 278.898,63.805 C279.162001,63.9670008 279.294,64.1559989 279.294,64.372 C279.294,64.6480014 279.192001,64.8339995 278.988,64.93 C278.783999,65.0260005 278.436002,65.074 277.944,65.074 C277.475998,65.074 277.002002,65.0230005 276.522,64.921 C276.041998,64.8189995 275.574002,64.6780009 275.118,64.498 L275.118,64.498 L274.668,66.676 C274.884001,66.7720005 275.270997,66.8919993 275.829,67.036 C276.387003,67.1800007 277.085996,67.252 277.926,67.252 C279.210006,67.252 280.202996,67.0120024 280.905,66.532 C281.607004,66.0519976 281.958,65.3440047 281.958,64.408 C281.958,64.011998 281.913,63.6640015 281.823,63.364 C281.733,63.0639985 281.577001,62.7910012 281.355,62.545 C281.132999,62.2989988 280.830002,62.0710011 280.446,61.861 C280.061998,61.650999 279.576003,61.4380011 278.988,61.222 C278.699999,61.1139995 278.463001,61.0150005 278.277,60.925 C278.090999,60.8349995 277.944001,60.7510004 277.836,60.673 C277.727999,60.5949996 277.656,60.5140004 277.62,60.43 C277.584,60.3459996 277.566,60.2500005 277.566,60.142 C277.566,59.6739977 277.985996,59.44 278.826,59.44 C279.282002,59.44 279.692998,59.4819996 280.059,59.566 C280.425002,59.6500004 280.763998,59.7459995 281.076,59.854 L281.076,59.854 L281.544,57.766 C281.231998,57.6459994 280.812003,57.5350005 280.284,57.433 C279.755997,57.3309995 279.204003,57.28 278.628,57.28 Z M250.206,57.28 C249.629997,57.28 249.069003,57.3879989 248.523,57.604 C247.976997,57.8200011 247.494002,58.1379979 247.074,58.558 C246.653998,58.9780021 246.315001,59.5029968 246.057,60.133 C245.798999,60.7630032 245.67,61.4979958 245.67,62.338 C245.67,63.0340035 245.768999,63.681997 245.967,64.282 C246.165001,64.882003 246.470998,65.4009978 246.885,65.839 C247.299002,66.2770022 247.820997,66.6219987 248.451,66.874 C249.081003,67.1260013 249.821996,67.252 250.674,67.252 C251.010002,67.252 251.345998,67.2340002 251.682,67.198 C252.018002,67.1619998 252.332999,67.1170003 252.627,67.063 C252.921001,67.0089997 253.187999,66.9460004 253.428,66.874 C253.668001,66.8019996 253.859999,66.7300004 254.004,66.658 L254.004,66.658 L253.644,64.48 C253.343998,64.6120007 252.957002,64.7229995 252.483,64.813 C252.008998,64.9030005 251.526002,64.948 251.034,64.948 C250.265996,64.948 249.654002,64.7860016 249.198,64.462 C248.741998,64.1379984 248.484,63.7000028 248.424,63.148 L248.424,63.148 L254.508,63.148 C254.52,63.0039993 254.532,62.8390009 254.544,62.653 C254.556,62.4669991 254.562,62.2960008 254.562,62.14 C254.562,60.543992 254.172004,59.3350041 253.392,58.513 C252.611996,57.6909959 251.550007,57.28 250.206,57.28 Z M269.826,54.742 L267.144,55.174 L267.144,63.13 C267.144,63.742 267.200999,64.2999975 267.315,64.804 C267.429001,65.3080025 267.629999,65.7369982 267.918,66.091 C268.206001,66.4450018 268.589998,66.720999 269.07,66.919 C269.550002,67.117001 270.155996,67.216 270.888,67.216 C271.464003,67.216 271.949998,67.1680005 272.346,67.072 C272.742002,66.9759995 273.101998,66.8620007 273.426,66.73 L273.426,66.73 L273.048,64.642 C272.795999,64.7380005 272.517002,64.8129997 272.211,64.867 C271.904998,64.9210003 271.608001,64.948 271.32,64.948 C270.719997,64.948 270.321001,64.7800017 270.123,64.444 C269.924999,64.1079983 269.826,63.6580028 269.826,63.094 L269.826,63.094 L269.826,59.764 L273.048,59.764 L273.048,57.532 L269.826,57.532 L269.826,54.742 Z M260.664,57.316 C259.871996,57.316 259.116004,57.3729994 258.396,57.487 C257.675996,57.6010006 257.088002,57.7239993 256.632,57.856 L256.632,57.856 L256.632,67 L259.314,67 L259.314,59.692 C259.482001,59.6679999 259.673999,59.6470001 259.89,59.629 C260.106001,59.6109999 260.309999,59.602 260.502,59.602 C261.126003,59.602 261.551999,59.7819982 261.78,60.142 C262.008001,60.5020018 262.122,61.1139957 262.122,61.978 L262.122,61.978 L262.122,67 L264.804,67 L264.804,61.654 C264.804,61.0059968 264.738001,60.4180026 264.606,59.89 C264.473999,59.3619974 264.252002,58.9060019 263.94,58.522 C263.627998,58.1379981 263.205003,57.841001 262.671,57.631 C262.136997,57.420999 261.468004,57.316 260.664,57.316 Z M238.236,57.532 L235.392,57.532 C235.956003,59.4280095 236.552997,61.179992 237.183,62.788 C237.813003,64.396008 238.433997,65.799994 239.046,67 L239.046,67 L241.278,67 C241.890003,65.799994 242.510997,64.396008 243.141,62.788 C243.771003,61.179992 244.367997,59.4280095 244.932,57.532 L244.932,57.532 L242.16,57.532 C242.039999,58.0000023 241.899001,58.5069973 241.737,59.053 C241.574999,59.5990027 241.407001,60.1509972 241.233,60.709 C241.058999,61.2670028 240.882001,61.8099974 240.702,62.338 C240.521999,62.8660026 240.354001,63.3459978 240.198,63.778 C240.029999,63.3459978 239.859001,62.8660026 239.685,62.338 C239.510999,61.8099974 239.337001,61.2670028 239.163,60.709 C238.988999,60.1509972 238.821001,59.5990027 238.659,59.053 C238.496999,58.5069973 238.356001,58.0000023 238.236,57.532 L238.236,57.532 Z M234.168,54.526 L225.744,54.526 L225.744,67 L234.582,67 L234.582,64.642 L228.552,64.642 L228.552,61.636 L233.538,61.636 L233.538,59.332 L228.552,59.332 L228.552,56.884 L234.168,56.884 L234.168,54.526 Z M250.242,59.494 C250.554002,59.494 250.814999,59.5479995 251.025,59.656 C251.235001,59.7640005 251.408999,59.9019992 251.547,60.07 C251.685001,60.2380008 251.787,60.4299989 251.853,60.646 C251.919,60.8620011 251.958,61.0839989 251.97,61.312 L251.97,61.312 L248.424,61.312 C248.46,61.0839989 248.517,60.8590011 248.595,60.637 C248.673,60.4149989 248.783999,60.2200008 248.928,60.052 C249.072001,59.8839992 249.251999,59.7490005 249.468,59.647 C249.684001,59.5449995 249.941999,59.494 250.242,59.494 Z M367.262,16.12 C365.853993,16.12 364.746671,16.4353302 363.94,17.066 C363.133329,17.6966698 362.73,18.5546612 362.73,19.64 C362.73,20.1973361 362.810666,20.673998 362.972,21.07 C363.133334,21.466002 363.360665,21.8069986 363.654,22.093 C363.947335,22.3790014 364.302998,22.6246656 364.721,22.83 C365.139002,23.0353344 365.604664,23.2333324 366.118,23.424 C366.778003,23.6733346 367.269332,23.896999 367.592,24.095 C367.914668,24.293001 368.076,24.5239987 368.076,24.788 C368.076,25.125335 367.951335,25.3526661 367.702,25.47 C367.452665,25.5873339 367.027336,25.646 366.426,25.646 C365.853997,25.646 365.27467,25.5836673 364.688,25.459 C364.10133,25.3343327 363.529336,25.1620011 362.972,24.942 L362.972,24.942 L362.422,27.604 C362.686001,27.7213339 363.158997,27.8679991 363.841,28.044 C364.523003,28.2200009 365.377328,28.308 366.404,28.308 C367.973341,28.308 369.186996,28.0146696 370.045,27.428 C370.903004,26.8413304 371.332,25.9760057 371.332,24.832 C371.332,24.3479976 371.277001,23.9226685 371.167,23.556 C371.056999,23.1893315 370.866335,22.8556682 370.595,22.555 C370.323665,22.2543318 369.953336,21.975668 369.484,21.719 C369.014664,21.4623321 368.42067,21.2020013 367.702,20.938 C367.349998,20.8059993 367.060334,20.6850005 366.833,20.575 C366.605666,20.4649994 366.426001,20.3623338 366.294,20.267 C366.161999,20.1716662 366.074,20.0726672 366.03,19.97 C365.986,19.8673328 365.964,19.7500007 365.964,19.618 C365.964,19.0459971 366.477328,18.76 367.504,18.76 C368.061336,18.76 368.563664,18.8113328 369.011,18.914 C369.458336,19.0166672 369.872665,19.1339993 370.254,19.266 L370.254,19.266 L370.826,16.714 C370.444665,16.5673326 369.931337,16.4316673 369.286,16.307 C368.640663,16.1823327 367.966004,16.12 367.262,16.12 Z M108.918,16.12 C108.096663,16.12 107.33767,16.2666652 106.641,16.56 C105.94433,16.8533348 105.343003,17.2639974 104.837,17.792 C104.330997,18.3200026 103.935001,18.9579963 103.649,19.706 C103.362999,20.4540037 103.22,21.2826621 103.22,22.192 C103.22,23.1013379 103.359332,23.9336629 103.638,24.689 C103.916668,25.4443371 104.305331,26.089664 104.804,26.625 C105.302669,27.160336 105.90033,27.5746652 106.597,27.868 C107.29367,28.1613348 108.067329,28.308 108.918,28.308 C109.783338,28.308 110.56433,28.1613348 111.261,27.868 C111.95767,27.5746652 112.555331,27.160336 113.054,26.625 C113.552669,26.089664 113.933999,25.4443371 114.198,24.689 C114.462001,23.9336629 114.594,23.1013379 114.594,22.192 C114.594,21.2826621 114.454668,20.4540037 114.176,19.706 C113.897332,18.9579963 113.508669,18.3200026 113.01,17.792 C112.511331,17.2639974 111.91367,16.8533348 111.217,16.56 C110.52033,16.2666652 109.754004,16.12 108.918,16.12 Z M96.114,12.402 C95.2486623,12.402 94.4713368,12.5083323 93.782,12.721 C93.0926632,12.9336677 92.5060024,13.237998 92.022,13.634 C91.5379976,14.030002 91.1640013,14.5103305 90.9,15.075 C90.6359987,15.6396695 90.504,16.2739965 90.504,16.978 C90.504,17.6820035 90.6286654,18.2796642 90.878,18.771 C91.1273346,19.2623358 91.449998,19.6803316 91.846,20.025 C92.242002,20.3696684 92.6893308,20.6556655 93.188,20.883 C93.6866692,21.1103345 94.1853308,21.3119991 94.684,21.488 C95.8280057,21.8693352 96.6346643,22.2249984 97.104,22.555 C97.5733357,22.8850017 97.808,23.2993308 97.808,23.798 C97.808,24.0326678 97.7713337,24.2453324 97.698,24.436 C97.6246663,24.6266676 97.4926676,24.791666 97.302,24.931 C97.1113324,25.070334 96.8583349,25.1803329 96.543,25.261 C96.2276651,25.3416671 95.8280024,25.382 95.344,25.382 C94.3759952,25.382 93.5583367,25.283001 92.891,25.085 C92.2236633,24.886999 91.6626689,24.6633346 91.208,24.414 L91.208,24.414 L90.24,27.142 C90.4453344,27.2593339 90.6983318,27.3839993 90.999,27.516 C91.2996682,27.6480007 91.6589979,27.7726661 92.077,27.89 C92.4950021,28.0073339 92.9753306,28.1063329 93.518,28.187 C94.0606694,28.2676671 94.66933,28.308 95.344,28.308 C97.3533434,28.308 98.8566617,27.9156706 99.854,27.131 C100.851338,26.3463294 101.35,25.2426738 101.35,23.82 C101.35,23.086663 101.254668,22.4633359 101.064,21.95 C100.873332,21.4366641 100.583669,20.9893352 100.195,20.608 C99.8063314,20.2266648 99.3186696,19.8930014 98.732,19.607 C98.1453304,19.3209986 97.456004,19.0313348 96.664,18.738 C96.2826648,18.6059993 95.9343349,18.4776673 95.619,18.353 C95.3036651,18.2283327 95.0250012,18.0890008 94.783,17.935 C94.5409988,17.7809992 94.3540007,17.6086676 94.222,17.418 C94.0899993,17.2273324 94.024,16.9926681 94.024,16.714 C94.024,16.2446643 94.2036649,15.8963345 94.563,15.669 C94.9223351,15.4416655 95.5126626,15.328 96.334,15.328 C97.067337,15.328 97.6943307,15.4123325 98.215,15.581 C98.7356693,15.7496675 99.2086645,15.9439989 99.634,16.164 L99.634,16.164 L100.624,13.458 C100.139998,13.1939987 99.5240037,12.9520011 98.776,12.732 C98.0279963,12.5119989 97.1406718,12.402 96.114,12.402 Z M166.602,16.12 C165.193993,16.12 164.086671,16.4353302 163.28,17.066 C162.473329,17.6966698 162.07,18.5546612 162.07,19.64 C162.07,20.1973361 162.150666,20.673998 162.312,21.07 C162.473334,21.466002 162.700665,21.8069986 162.994,22.093 C163.287335,22.3790014 163.642998,22.6246656 164.061,22.83 C164.479002,23.0353344 164.944664,23.2333324 165.458,23.424 C166.118003,23.6733346 166.609332,23.896999 166.932,24.095 C167.254668,24.293001 167.416,24.5239987 167.416,24.788 C167.416,25.125335 167.291335,25.3526661 167.042,25.47 C166.792665,25.5873339 166.367336,25.646 165.766,25.646 C165.193997,25.646 164.61467,25.5836673 164.028,25.459 C163.44133,25.3343327 162.869336,25.1620011 162.312,24.942 L162.312,24.942 L161.762,27.604 C162.026001,27.7213339 162.498997,27.8679991 163.181,28.044 C163.863003,28.2200009 164.717328,28.308 165.744,28.308 C167.313341,28.308 168.526996,28.0146696 169.385,27.428 C170.243004,26.8413304 170.672,25.9760057 170.672,24.832 C170.672,24.3479976 170.617001,23.9226685 170.507,23.556 C170.396999,23.1893315 170.206335,22.8556682 169.935,22.555 C169.663665,22.2543318 169.293336,21.975668 168.824,21.719 C168.354664,21.4623321 167.76067,21.2020013 167.042,20.938 C166.689998,20.8059993 166.400334,20.6850006 166.173,20.575 C165.945666,20.4649995 165.766001,20.3623338 165.634,20.267 C165.501999,20.1716662 165.414,20.0726672 165.37,19.97 C165.326,19.8673328 165.304,19.7500007 165.304,19.618 C165.304,19.0459971 165.817328,18.76 166.844,18.76 C167.401336,18.76 167.903664,18.8113328 168.351,18.914 C168.798336,19.0166672 169.212665,19.1339993 169.594,19.266 L169.594,19.266 L170.166,16.714 C169.784665,16.5673326 169.271337,16.4316673 168.626,16.307 C167.980663,16.1823327 167.306004,16.12 166.602,16.12 Z M144.558,16.12 C143.619329,16.12 142.783337,16.2813317 142.05,16.604 C141.316663,16.9266683 140.693336,17.3629973 140.18,17.913 C139.666664,18.4630028 139.274335,19.1083296 139.003,19.849 C138.731665,20.5896704 138.596,21.3779958 138.596,22.214 C138.596,23.0793377 138.709666,23.8823296 138.937,24.623 C139.164334,25.3636704 139.523664,26.0053306 140.015,26.548 C140.506336,27.0906694 141.13333,27.5196651 141.896,27.835 C142.65867,28.1503349 143.567995,28.308 144.624,28.308 C145.313337,28.308 145.943997,28.2493339 146.516,28.132 C147.088003,28.0146661 147.564665,27.8753341 147.946,27.714 L147.946,27.714 L147.484,25.03 C147.102665,25.1913341 146.684669,25.3086663 146.23,25.382 C145.775331,25.4553337 145.350002,25.492 144.954,25.492 C143.839328,25.492 143.058336,25.2060029 142.611,24.634 C142.163664,24.0619971 141.94,23.2553385 141.94,22.214 C141.94,21.2313284 142.178331,20.4393363 142.655,19.838 C143.131669,19.2366637 143.853995,18.936 144.822,18.936 C145.276669,18.936 145.687331,18.9799996 146.054,19.068 C146.420669,19.1560004 146.757998,19.2586661 147.066,19.376 L147.066,19.376 L147.748,16.758 C147.263998,16.5526656 146.765336,16.3950006 146.252,16.285 C145.738664,16.1749995 145.174003,16.12 144.558,16.12 Z M428.642,16.12 C427.233993,16.12 426.126671,16.4353302 425.32,17.066 C424.513329,17.6966698 424.11,18.5546612 424.11,19.64 C424.11,20.1973361 424.190666,20.673998 424.352,21.07 C424.513334,21.466002 424.740665,21.8069986 425.034,22.093 C425.327335,22.3790014 425.682998,22.6246656 426.101,22.83 C426.519002,23.0353344 426.984664,23.2333324 427.498,23.424 C428.158003,23.6733346 428.649332,23.896999 428.972,24.095 C429.294668,24.293001 429.456,24.5239987 429.456,24.788 C429.456,25.125335 429.331335,25.3526661 429.082,25.47 C428.832665,25.5873339 428.407336,25.646 427.806,25.646 C427.233997,25.646 426.65467,25.5836673 426.068,25.459 C425.48133,25.3343327 424.909336,25.1620011 424.352,24.942 L424.352,24.942 L423.802,27.604 C424.066001,27.7213339 424.538997,27.8679991 425.221,28.044 C425.903003,28.2200009 426.757328,28.308 427.784,28.308 C429.353341,28.308 430.566996,28.0146696 431.425,27.428 C432.283004,26.8413304 432.712,25.9760057 432.712,24.832 C432.712,24.3479976 432.657001,23.9226685 432.547,23.556 C432.436999,23.1893315 432.246335,22.8556682 431.975,22.555 C431.703665,22.2543318 431.333336,21.975668 430.864,21.719 C430.394664,21.4623321 429.80067,21.2020013 429.082,20.938 C428.729998,20.8059993 428.440334,20.6850005 428.213,20.575 C427.985666,20.4649994 427.806001,20.3623338 427.674,20.267 C427.541999,20.1716662 427.454,20.0726672 427.41,19.97 C427.366,19.8673328 427.344,19.7500007 427.344,19.618 C427.344,19.0459971 427.857328,18.76 428.884,18.76 C429.441336,18.76 429.943664,18.8113328 430.391,18.914 C430.838336,19.0166672 431.252665,19.1339993 431.634,19.266 L431.634,19.266 L432.206,16.714 C431.824665,16.5673326 431.311337,16.4316673 430.666,16.307 C430.020663,16.1823327 429.346004,16.12 428.642,16.12 Z M154.59,16.12 C153.885996,16.12 153.200337,16.2519987 152.533,16.516 C151.865663,16.7800013 151.275336,17.1686641 150.762,17.682 C150.248664,18.1953359 149.834335,18.8369962 149.519,19.607 C149.203665,20.3770039 149.046,21.2753282 149.046,22.302 C149.046,23.1526709 149.166999,23.944663 149.409,24.678 C149.651001,25.411337 150.024997,26.045664 150.531,26.581 C151.037003,27.116336 151.674996,27.5379985 152.445,27.846 C153.215004,28.1540015 154.120661,28.308 155.162,28.308 C155.572669,28.308 155.983331,28.2860002 156.394,28.242 C156.804669,28.1979998 157.189665,28.1430003 157.549,28.077 C157.908335,28.0109997 158.234665,27.9340004 158.528,27.846 C158.821335,27.7579996 159.055999,27.6700004 159.232,27.582 L159.232,27.582 L158.792,24.92 C158.425331,25.0813341 157.952336,25.2169995 157.373,25.327 C156.793664,25.4370006 156.203336,25.492 155.602,25.492 C154.663329,25.492 153.915336,25.294002 153.358,24.898 C152.800664,24.501998 152.485334,23.96667 152.412,23.292 L152.412,23.292 L159.848,23.292 C159.862667,23.1159991 159.877333,22.9143345 159.892,22.687 C159.906667,22.4596655 159.914,22.2506676 159.914,22.06 C159.914,20.1093236 159.437338,18.6316717 158.484,17.627 C157.530662,16.6223283 156.232675,16.12 154.59,16.12 Z M388.03,16.12 C387.208663,16.12 386.44967,16.2666652 385.753,16.56 C385.05633,16.8533348 384.455003,17.2639974 383.949,17.792 C383.442997,18.3200026 383.047001,18.9579963 382.761,19.706 C382.474999,20.4540037 382.332,21.2826621 382.332,22.192 C382.332,23.1013379 382.471332,23.9336629 382.75,24.689 C383.028668,25.4443371 383.417331,26.089664 383.916,26.625 C384.414669,27.160336 385.01233,27.5746652 385.709,27.868 C386.40567,28.1613348 387.179329,28.308 388.03,28.308 C388.895338,28.308 389.67633,28.1613348 390.373,27.868 C391.06967,27.5746652 391.667331,27.160336 392.166,26.625 C392.664669,26.089664 393.045999,25.4443371 393.31,24.689 C393.574001,23.9336629 393.706,23.1013379 393.706,22.192 C393.706,21.2826621 393.566668,20.4540037 393.288,19.706 C393.009332,18.9579963 392.620669,18.3200026 392.122,17.792 C391.623331,17.2639974 391.02567,16.8533348 390.329,16.56 C389.63233,16.2666652 388.866004,16.12 388.03,16.12 Z M566.924,12.402 C566.058662,12.402 565.281337,12.5083323 564.592,12.721 C563.902663,12.9336677 563.316002,13.237998 562.832,13.634 C562.347998,14.030002 561.974001,14.5103305 561.71,15.075 C561.445999,15.6396695 561.314,16.2739965 561.314,16.978 C561.314,17.6820035 561.438665,18.2796642 561.688,18.771 C561.937335,19.2623358 562.259998,19.6803316 562.656,20.025 C563.052002,20.3696684 563.499331,20.6556655 563.998,20.883 C564.496669,21.1103345 564.995331,21.3119991 565.494,21.488 C566.638006,21.8693352 567.444664,22.2249983 567.914,22.555 C568.383336,22.8850016 568.618,23.2993308 568.618,23.798 C568.618,24.0326678 568.581334,24.2453324 568.508,24.436 C568.434666,24.6266676 568.302668,24.791666 568.112,24.931 C567.921332,25.070334 567.668335,25.1803329 567.353,25.261 C567.037665,25.3416671 566.638002,25.382 566.154,25.382 C565.185995,25.382 564.368337,25.283001 563.701,25.085 C563.033663,24.886999 562.472669,24.6633346 562.018,24.414 L562.018,24.414 L561.05,27.142 C561.255334,27.2593339 561.508332,27.3839993 561.809,27.516 C562.109668,27.6480007 562.468998,27.7726661 562.887,27.89 C563.305002,28.0073339 563.785331,28.1063329 564.328,28.187 C564.870669,28.2676671 565.47933,28.308 566.154,28.308 C568.163343,28.308 569.666662,27.9156706 570.664,27.131 C571.661338,26.3463294 572.16,25.2426738 572.16,23.82 C572.16,23.086663 572.064668,22.4633359 571.874,21.95 C571.683332,21.4366641 571.393669,20.9893352 571.005,20.608 C570.616331,20.2266648 570.12867,19.8930014 569.542,19.607 C568.95533,19.3209986 568.266004,19.0313348 567.474,18.738 C567.092665,18.6059993 566.744335,18.4776673 566.429,18.353 C566.113665,18.2283327 565.835001,18.0890008 565.593,17.935 C565.350999,17.7809992 565.164001,17.6086676 565.032,17.418 C564.899999,17.2273324 564.834,16.9926681 564.834,16.714 C564.834,16.2446643 565.013665,15.8963345 565.373,15.669 C565.732335,15.4416655 566.322663,15.328 567.144,15.328 C567.877337,15.328 568.504331,15.4123325 569.025,15.581 C569.545669,15.7496675 570.018665,15.9439989 570.444,16.164 L570.444,16.164 L571.434,13.458 C570.949998,13.1939987 570.334004,12.9520011 569.586,12.732 C568.837996,12.5119989 567.950672,12.402 566.924,12.402 Z M610.792,16.12 C609.383993,16.12 608.276671,16.4353302 607.47,17.066 C606.663329,17.6966698 606.26,18.5546612 606.26,19.64 C606.26,20.1973361 606.340666,20.673998 606.502,21.07 C606.663334,21.466002 606.890665,21.8069986 607.184,22.093 C607.477335,22.3790014 607.832998,22.6246656 608.251,22.83 C608.669002,23.0353344 609.134664,23.2333324 609.648,23.424 C610.308003,23.6733346 610.799332,23.896999 611.122,24.095 C611.444668,24.293001 611.606,24.5239987 611.606,24.788 C611.606,25.125335 611.481335,25.3526661 611.232,25.47 C610.982665,25.5873339 610.557336,25.646 609.956,25.646 C609.383997,25.646 608.80467,25.5836673 608.218,25.459 C607.63133,25.3343327 607.059336,25.1620011 606.502,24.942 L606.502,24.942 L605.952,27.604 C606.216001,27.7213339 606.688997,27.8679991 607.371,28.044 C608.053003,28.2200009 608.907328,28.308 609.934,28.308 C611.503341,28.308 612.716996,28.0146696 613.575,27.428 C614.433004,26.8413304 614.862,25.9760057 614.862,24.832 C614.862,24.3479976 614.807001,23.9226685 614.697,23.556 C614.586999,23.1893315 614.396335,22.8556682 614.125,22.555 C613.853665,22.2543318 613.483336,21.9756679 613.014,21.719 C612.544664,21.462332 611.95067,21.2020013 611.232,20.938 C610.879998,20.8059993 610.590334,20.6850005 610.363,20.575 C610.135666,20.4649994 609.956001,20.3623338 609.824,20.267 C609.691999,20.1716662 609.604,20.0726672 609.56,19.97 C609.516,19.8673328 609.494,19.7500007 609.494,19.618 C609.494,19.0459971 610.007328,18.76 611.034,18.76 C611.591336,18.76 612.093664,18.8113328 612.541,18.914 C612.988336,19.0166672 613.402665,19.1339993 613.784,19.266 L613.784,19.266 L614.356,16.714 C613.974665,16.5673326 613.461337,16.4316673 612.816,16.307 C612.170663,16.1823327 611.496004,16.12 610.792,16.12 Z M120.292,16.428 L117.014,16.428 L117.014,22.874 C117.014,23.666004 117.094666,24.3919967 117.256,25.052 C117.417334,25.7120033 117.688665,26.280331 118.07,26.757 C118.451335,27.2336691 118.96833,27.6039987 119.621,27.868 C120.27367,28.1320013 121.091328,28.264 122.074,28.264 C123.042005,28.264 123.965996,28.194334 124.846,28.055 C125.726004,27.915666 126.444664,27.7653341 127.002,27.604 L127.002,27.604 L127.002,16.428 L123.724,16.428 L123.724,25.36 C123.518666,25.3893335 123.284001,25.4149999 123.02,25.437 C122.755999,25.4590001 122.506668,25.47 122.272,25.47 C121.50933,25.47 120.988668,25.2353357 120.71,24.766 C120.431332,24.2966643 120.292,23.5340053 120.292,22.478 L120.292,22.478 L120.292,16.428 Z M342.138,16.12 C341.756665,16.12 341.379002,16.1383331 341.005,16.175 C340.630998,16.2116669 340.275335,16.2556664 339.938,16.307 C339.600665,16.3583336 339.289001,16.4169997 339.003,16.483 C338.716999,16.5490003 338.478668,16.611333 338.288,16.67 L338.288,16.67 L338.706,19.31 C339.102002,19.1633326 339.571331,19.0496671 340.114,18.969 C340.656669,18.8883329 341.206664,18.848 341.764,18.848 C342.600004,18.848 343.186665,19.016665 343.524,19.354 C343.861335,19.691335 344.03,20.1386639 344.03,20.696 L344.03,20.696 L344.03,21.004 C343.824666,20.945333 343.557002,20.8976668 343.227,20.861 C342.896998,20.8243332 342.519335,20.806 342.094,20.806 C341.46333,20.806 340.85467,20.8683327 340.268,20.993 C339.68133,21.1176673 339.160669,21.3193319 338.706,21.598 C338.251331,21.8766681 337.888335,22.2506643 337.617,22.72 C337.345665,23.1893357 337.21,23.76133 337.21,24.436 C337.21,25.1400035 337.327332,25.7339976 337.562,26.218 C337.796668,26.7020024 338.133998,27.0943318 338.574,27.395 C339.014002,27.6956682 339.53833,27.9119993 340.147,28.044 C340.75567,28.1760007 341.433996,28.242 342.182,28.242 C343.370006,28.242 344.381996,28.172334 345.218,28.033 C346.054004,27.893666 346.706664,27.7726672 347.176,27.67 L347.176,27.67 L347.176,20.85 C347.176,20.1313297 347.095334,19.4786696 346.934,18.892 C346.772666,18.3053304 346.497669,17.8066687 346.109,17.396 C345.720331,16.9853313 345.203337,16.6700011 344.558,16.45 C343.912663,16.2299989 343.106005,16.12 342.138,16.12 Z M416.894,16.164 C416.380664,16.164 415.81967,16.2593324 415.211,16.45 C414.60233,16.6406676 414.063336,16.904665 413.594,17.242 C413.256665,16.9486652 412.827669,16.6956677 412.307,16.483 C411.786331,16.2703323 411.108004,16.164 410.272,16.164 C409.846665,16.164 409.414002,16.1823332 408.974,16.219 C408.533998,16.2556668 408.105002,16.3069997 407.687,16.373 C407.268998,16.4390003 406.873002,16.5123329 406.499,16.593 C406.124998,16.6736671 405.798668,16.7506663 405.52,16.824 L405.52,16.824 L405.52,28 L408.798,28 L408.798,19.068 C409.003334,19.0386665 409.215999,19.0130001 409.436,18.991 C409.656001,18.9689999 409.868666,18.958 410.074,18.958 C410.734003,18.958 411.199665,19.1779978 411.471,19.618 C411.742335,20.0580022 411.878,20.8059947 411.878,21.862 L411.878,21.862 L411.878,28 L415.156,28 L415.156,21.686 C415.156,21.2606645 415.141333,20.8610019 415.112,20.487 C415.082667,20.1129981 415.016667,19.757335 414.914,19.42 C415.119334,19.2879993 415.379665,19.1780004 415.695,19.09 C416.010335,19.0019996 416.255999,18.958 416.432,18.958 C417.092003,18.958 417.557665,19.1779978 417.829,19.618 C418.100335,20.0580022 418.236,20.8059947 418.236,21.862 L418.236,21.862 L418.236,28 L421.514,28 L421.514,21.466 C421.514,20.673996 421.448001,19.9553366 421.316,19.31 C421.183999,18.6646634 420.942002,18.1073357 420.59,17.638 C420.237998,17.1686643 419.765003,16.805668 419.171,16.549 C418.576997,16.292332 417.818005,16.164 416.894,16.164 Z M328.454,12.754 L315.826,12.754 L315.826,15.68 L320.424,15.68 L320.424,28 L323.856,28 L323.856,15.68 L328.454,15.68 L328.454,12.754 Z M355.074,16.164 C354.105995,16.164 353.182004,16.233666 352.302,16.373 C351.421996,16.512334 350.703336,16.6626659 350.146,16.824 L350.146,16.824 L350.146,28 L353.424,28 L353.424,19.068 C353.629334,19.0386665 353.863999,19.0130001 354.128,18.991 C354.392001,18.9689999 354.641332,18.958 354.876,18.958 C355.63867,18.958 356.159332,19.1779978 356.438,19.618 C356.716668,20.0580022 356.856,20.8059947 356.856,21.862 L356.856,21.862 L356.856,28 L360.134,28 L360.134,21.466 C360.134,20.673996 360.053334,19.9553366 359.892,19.31 C359.730666,18.6646634 359.459335,18.1073357 359.078,17.638 C358.696665,17.1686643 358.17967,16.805668 357.527,16.549 C356.87433,16.292332 356.056672,16.164 355.074,16.164 Z M378.79,10.928 C377.132658,10.928 375.882338,11.3679956 375.039,12.248 C374.195662,13.1280044 373.774,14.3159925 373.774,15.812 L373.774,15.812 L373.774,28 L377.052,28 L377.052,19.156 L381.1,19.156 L381.1,16.428 L377.052,16.428 L377.052,15.856 C377.052,15.5479985 377.085,15.2620013 377.151,14.998 C377.217,14.7339987 377.326999,14.5066676 377.481,14.316 C377.635001,14.1253324 377.847665,13.9750006 378.119,13.865 C378.390335,13.7549994 378.723998,13.7 379.12,13.7 C379.413335,13.7 379.732332,13.7329997 380.077,13.799 C380.421668,13.8650003 380.740665,13.9639993 381.034,14.096 L381.034,14.096 L381.672,11.478 C381.393332,11.3606661 380.997336,11.2396673 380.484,11.115 C379.970664,10.9903327 379.406003,10.928 378.79,10.928 Z M134.834,16.186 C133.851328,16.186 132.960337,16.2776658 132.161,16.461 C131.361663,16.6443343 130.66867,16.8386656 130.082,17.044 L130.082,17.044 L130.082,28 L133.36,28 L133.36,19.156 C133.506667,19.1119998 133.722999,19.0716669 134.009,19.035 C134.295001,18.9983332 134.540666,18.98 134.746,18.98 C135.200669,18.98 135.625998,19.0203329 136.022,19.101 C136.418002,19.1816671 136.762665,19.2586663 137.056,19.332 L137.056,19.332 L137.606,16.626 C137.429999,16.5526663 137.217335,16.4903336 136.968,16.439 C136.718665,16.3876664 136.469335,16.3436669 136.22,16.307 C135.970665,16.2703332 135.721335,16.2410001 135.472,16.219 C135.222665,16.1969999 135.010001,16.186 134.834,16.186 Z M333.668,16.186 C332.685328,16.186 331.794337,16.2776657 330.995,16.461 C330.195663,16.6443342 329.50267,16.8386656 328.916,17.044 L328.916,17.044 L328.916,28 L332.194,28 L332.194,19.156 C332.340667,19.1119998 332.556999,19.0716668 332.843,19.035 C333.129001,18.9983331 333.374666,18.98 333.58,18.98 C334.034669,18.98 334.459998,19.0203329 334.856,19.101 C335.252002,19.1816671 335.596665,19.2586663 335.89,19.332 L335.89,19.332 L336.44,16.626 C336.263999,16.5526663 336.051335,16.4903336 335.802,16.439 C335.552665,16.3876664 335.303335,16.3436669 335.054,16.307 C334.804665,16.2703331 334.555335,16.2410001 334.306,16.219 C334.056665,16.1969999 333.844001,16.186 333.668,16.186 Z M400.988,16.186 C400.005328,16.186 399.114337,16.2776657 398.315,16.461 C397.515663,16.6443342 396.82267,16.8386656 396.236,17.044 L396.236,17.044 L396.236,28 L399.514,28 L399.514,19.156 C399.660667,19.1119998 399.876999,19.0716668 400.163,19.035 C400.449001,18.9983331 400.694666,18.98 400.9,18.98 C401.354669,18.98 401.779998,19.0203329 402.176,19.101 C402.572002,19.1816671 402.916665,19.2586663 403.21,19.332 L403.21,19.332 L403.76,16.626 C403.583999,16.5526663 403.371335,16.4903336 403.122,16.439 C402.872665,16.3876664 402.623335,16.3436669 402.374,16.307 C402.124665,16.2703331 401.875335,16.2410001 401.626,16.219 C401.376665,16.1969999 401.164001,16.186 400.988,16.186 Z M597.174,10.928 L593.896,11.456 L593.896,28 L597.174,28 L597.174,22.94 C597.540669,23.2333348 597.910998,23.5926645 598.285,24.018 C598.659002,24.4433355 599.014665,24.8869977 599.352,25.349 C599.689335,25.8110023 600.008332,26.2729977 600.309,26.735 C600.609668,27.1970023 600.877332,27.6186648 601.112,28 L601.112,28 L604.874,28 C604.624665,27.5159976 604.316668,26.9806696 603.95,26.394 C603.583331,25.8073304 603.180002,25.2206696 602.74,24.634 C602.299998,24.0473304 601.845336,23.4790027 601.376,22.929 C600.906664,22.3789972 600.452002,21.906002 600.012,21.51 C600.892004,20.6446623 601.70233,19.8050041 602.443,18.991 C603.18367,18.1769959 603.942663,17.3226711 604.72,16.428 L604.72,16.428 L600.826,16.428 C600.620666,16.6773346 600.375001,16.970665 600.089,17.308 C599.802999,17.645335 599.498668,18.0009981 599.176,18.375 C598.853332,18.7490019 598.519668,19.1266648 598.175,19.508 C597.830332,19.8893352 597.496668,20.2559982 597.174,20.608 L597.174,20.608 L597.174,10.928 Z M585.866,16.164 C584.897995,16.164 583.974004,16.233666 583.094,16.373 C582.213996,16.512334 581.495336,16.6626659 580.938,16.824 L580.938,16.824 L580.938,28 L584.216,28 L584.216,19.068 C584.421334,19.0386665 584.655999,19.0130001 584.92,18.991 C585.184001,18.9689999 585.433332,18.958 585.668,18.958 C586.43067,18.958 586.951332,19.1779978 587.23,19.618 C587.508668,20.0580022 587.648,20.8059947 587.648,21.862 L587.648,21.862 L587.648,28 L590.926,28 L590.926,21.466 C590.926,20.673996 590.845334,19.9553366 590.684,19.31 C590.522666,18.6646634 590.251335,18.1073357 589.87,17.638 C589.488665,17.1686643 588.97167,16.8056679 588.319,16.549 C587.66633,16.292332 586.848672,16.164 585.866,16.164 Z M577.858,16.428 L574.58,16.428 L574.58,28 L577.858,28 L577.858,16.428 Z M342.71,23.006 C342.930001,23.006 343.171999,23.0206665 343.436,23.05 C343.700001,23.0793335 343.897999,23.1086665 344.03,23.138 L344.03,23.138 L344.03,25.624 C343.853999,25.6533335 343.619335,25.6753333 343.326,25.69 C343.032665,25.7046667 342.724668,25.712 342.402,25.712 C341.800664,25.712 341.327668,25.613001 340.983,25.415 C340.638332,25.216999 340.466,24.8613359 340.466,24.348 C340.466,24.0839987 340.524666,23.8640009 340.642,23.688 C340.759334,23.5119991 340.920666,23.3726672 341.126,23.27 C341.331334,23.1673328 341.569665,23.0976668 341.841,23.061 C342.112335,23.0243331 342.401998,23.006 342.71,23.006 Z M108.918,18.936 C109.666004,18.936 110.241665,19.2256638 110.645,19.805 C111.048335,20.3843362 111.25,21.1799949 111.25,22.192 C111.25,23.2040051 111.048335,24.006997 110.645,24.601 C110.241665,25.195003 109.666004,25.492 108.918,25.492 C108.169996,25.492 107.590669,25.195003 107.18,24.601 C106.769331,24.006997 106.564,23.2040051 106.564,22.192 C106.564,21.1799949 106.769331,20.3843362 107.18,19.805 C107.590669,19.2256638 108.169996,18.936 108.918,18.936 Z M388.03,18.936 C388.778004,18.936 389.353665,19.2256638 389.757,19.805 C390.160335,20.3843362 390.362,21.1799949 390.362,22.192 C390.362,23.2040051 390.160335,24.006997 389.757,24.601 C389.353665,25.195003 388.778004,25.492 388.03,25.492 C387.281996,25.492 386.702669,25.195003 386.292,24.601 C385.881331,24.006997 385.676,23.2040051 385.676,22.192 C385.676,21.1799949 385.881331,20.3843362 386.292,19.805 C386.702669,19.2256638 387.281996,18.936 388.03,18.936 Z M154.634,18.826 C155.015335,18.826 155.334332,18.8919993 155.591,19.024 C155.847668,19.1560007 156.060332,19.3246656 156.229,19.53 C156.397668,19.7353344 156.522333,19.9699987 156.603,20.234 C156.683667,20.4980013 156.731333,20.7693319 156.746,21.048 L156.746,21.048 L152.412,21.048 C152.456,20.7693319 152.525666,20.4943347 152.621,20.223 C152.716334,19.9516653 152.851999,19.7133344 153.028,19.508 C153.204001,19.3026656 153.423999,19.1376673 153.688,19.013 C153.952001,18.8883327 154.267332,18.826 154.634,18.826 Z M576.208,11.148 C575.679997,11.148 575.221669,11.3203316 574.833,11.665 C574.444331,12.0096684 574.25,12.4826637 574.25,13.084 C574.25,13.6853363 574.444331,14.1583316 574.833,14.503 C575.221669,14.8476684 575.679997,15.02 576.208,15.02 C576.736003,15.02 577.194331,14.8476684 577.583,14.503 C577.971669,14.1583316 578.166,13.6853363 578.166,13.084 C578.166,12.4826637 577.971669,12.0096684 577.583,11.665 C577.194331,11.3203316 576.736003,11.148 576.208,11.148 Z" id="Combined-Shape" fill="black"></path>
    </g>
</svg>