<?xml version="1.0" encoding="UTF-8"?>
<svg width="512px" height="512px" viewBox="0 0 512 512" version="1.1" xmlns="http://www.w3.org/2000/svg" xmlns:xlink="http://www.w3.org/1999/xlink">
    <!-- Generator: Sketch 60 (88103) - https://sketch.com -->
    <title>docker</title>
    <desc>Created with Sketch.</desc>
    <defs>
        <path d="M74.372093,0 L74.372093,83.3956835 L34.4651163,83.3956835 L34.4651163,125.093525 L1.05342991,125.093525 C0.911615023,126.300395 0.796782698,127.50995 0.680232558,128.719424 C-1.40792177,151.437429 2.56025386,172.388932 11.6773256,190.303058 L14.7383721,195.798561 C16.5730101,199.092292 18.7131813,202.185528 20.9738372,205.203237 C23.2317105,208.21723 24.0316476,209.885397 25.4520349,211.888489 C49.5570479,238.966397 85.490672,252 126.976744,252 C218.850513,252 296.822633,211.321054 331.329942,119.93795 C355.812455,122.448831 379.297094,116.174462 390,95.2931655 C372.951322,85.460334 351.039236,88.6119493 338.415698,94.9532374 L371.860465,0 L241.255814,83.3956835 L199.534884,83.3956835 L199.534884,0 L74.372093,0 Z" id="path-1"></path>
        <path d="M74.372093,0 L74.372093,83.3956835 L34.4651163,83.3956835 L34.4651163,125.093525 L1.05342991,125.093525 C0.911615023,126.300395 0.796782698,127.50995 0.680232558,128.719424 C-1.40792177,151.437429 2.56025386,172.388932 11.6773256,190.303058 L14.7383721,195.798561 C16.5730101,199.092292 18.7131813,202.185528 20.9738372,205.203237 C23.2317105,208.21723 24.0316476,209.885397 25.4520349,211.888489 C49.5570479,238.966397 85.490672,252 126.976744,252 C218.850513,252 296.822633,211.321054 331.329942,119.93795 C355.812455,122.448831 379.297094,116.174462 390,95.2931655 C372.951322,85.460334 351.039236,88.6119493 338.415698,94.9532374 L371.860465,0 L241.255814,83.3956835 L199.534884,83.3956835 L199.534884,0 L74.372093,0 Z" id="path-3"></path>
        <path d="M74.372093,0 L74.372093,83.3956835 L34.4651163,83.3956835 L34.4651163,125.093525 L1.05342991,125.093525 C0.911615023,126.300395 0.796782698,127.50995 0.680232558,128.719424 C-1.40792177,151.437429 2.56025386,172.388932 11.6773256,190.303058 L14.7383721,195.798561 C16.5730101,199.092292 18.7131813,202.185528 20.9738372,205.203237 C23.2317105,208.21723 24.0316476,209.885397 25.4520349,211.888489 C49.5570479,238.966397 85.490672,252 126.976744,252 C218.850513,252 296.822633,211.321054 331.329942,119.93795 C355.812455,122.448831 379.297094,116.174462 390,95.2931655 C372.951322,85.460334 351.039236,88.6119493 338.415698,94.9532374 L371.860465,0 L241.255814,83.3956835 L199.534884,83.3956835 L199.534884,0 L74.372093,0 Z" id="path-5"></path>
        <path d="M74.372093,0 L74.372093,83.3956835 L34.4651163,83.3956835 L34.4651163,125.093525 L1.05342991,125.093525 C0.911615023,126.300395 0.796782698,127.50995 0.680232558,128.719424 C-1.40792177,151.437429 2.56025386,172.388932 11.6773256,190.303058 L14.7383721,195.798561 C16.5730101,199.092292 18.7131813,202.185528 20.9738372,205.203237 C23.2317105,208.21723 24.0316476,209.885397 25.4520349,211.888489 C49.5570479,238.966397 85.490672,252 126.976744,252 C218.850513,252 296.822633,211.321054 331.329942,119.93795 C355.812455,122.448831 379.297094,116.174462 390,95.2931655 C372.951322,85.460334 351.039236,88.6119493 338.415698,94.9532374 L371.860465,0 L241.255814,83.3956835 L199.534884,83.3956835 L199.534884,0 L74.372093,0 Z" id="path-7"></path>
        <path d="M74.372093,0 L74.372093,83.3956835 L34.4651163,83.3956835 L34.4651163,125.093525 L1.05342991,125.093525 C0.911615023,126.300395 0.796782698,127.50995 0.680232558,128.719424 C-1.40792177,151.437429 2.56025386,172.388932 11.6773256,190.303058 L14.7383721,195.798561 C16.5730101,199.092292 18.7131813,202.185528 20.9738372,205.203237 C23.2317105,208.21723 24.0316476,209.885397 25.4520349,211.888489 C49.5570479,238.966397 85.490672,252 126.976744,252 C218.850513,252 296.822633,211.321054 331.329942,119.93795 C355.812455,122.448831 379.297094,116.174462 390,95.2931655 C372.951322,85.460334 351.039236,88.6119493 338.415698,94.9532374 L371.860465,0 L241.255814,83.3956835 L199.534884,83.3956835 L199.534884,0 L74.372093,0 Z" id="path-9"></path>
    </defs>
    <g id="Page-1" stroke="none" stroke-width="1" fill="none" fill-rule="evenodd">
        <g id="docker">
            <circle id="Oval-Copy" fill="#10E7FF" fill-rule="nonzero" cx="256" cy="256" r="256"></circle>
            <path d="M488.414428,223.010046 L511.932274,250.052607 C511.977343,252.029617 512,254.012163 512,256 C512,397.384896 397.384896,512 256,512 C242.469135,512 229.183453,510.950247 216.219953,508.927742 L25.2504282,289.231516 L26.7994282,287.885046 L488.414428,223.010046 Z" id="Combined-Shape" fill-opacity="0.1" fill="#000000" fill-rule="nonzero"></path>
            <g id="Docker_(container_engine)_logo" transform="translate(25.000000, 125.000000)">
                <path d="M267.377824,83.0509068 L308.960585,83.0509068 L308.960585,125.500663 L329.986139,125.500663 C339.69542,125.500663 349.682266,123.773288 358.877301,120.661898 C363.39543,119.131982 368.466778,117.002932 372.923567,114.325325 C367.053589,106.671822 364.056743,97.0079123 363.17435,87.4821314 C361.976404,74.5259347 364.593394,57.6617729 373.374493,47.5213015 L377.745574,42.4724607 L382.95424,46.6537292 C396.068431,57.1754701 407.09741,71.8775115 409.041394,88.6375954 C424.832005,83.9991954 443.371067,85.0962914 457.289745,93.1184346 L463,96.4087963 L459.994388,102.26684 C448.223171,125.209721 423.614455,132.316613 399.555047,131.059023 C363.553116,220.605688 285.172794,263 190.137036,263 C141.038428,263 95.9914445,244.671082 70.3396365,201.168959 C68.8356702,198.466708 67.5477521,195.641074 66.1818586,192.865745 C57.510811,173.71691 54.6308511,152.739569 56.584588,131.779735 L57.1709038,125.501508 L92.7287235,125.501508 L92.7287235,83.0517513 L134.311485,83.0517513 L134.311485,41.5258756 L217.477006,41.5258756 L217.477006,0 L267.377174,0 L267.377174,83.0517513" id="path14" fill="#394D54" fill-rule="nonzero"></path>
                <g id="g16-Clipped" transform="translate(64.000000, 4.000000)">
                    <mask id="mask-2" fill="white">
                        <use xlink:href="#path-1"></use>
                    </mask>
                    <g id="path10"></g>
                    <g id="g16" mask="url(#mask-2)">
                        <g transform="translate(-5.441860, -39.978417)">
                            <g id="g18" transform="translate(165.976744, 0.000000)">
                                <g id="g20" transform="translate(0.000000, 1.242935)" fill-rule="nonzero">
                                    <polygon id="path22" fill="#00ACD3" points="0.651227442 0.563971286 36.5992688 0.563971286 36.5992688 36.491141 0.651227442 36.491141"></polygon>
                                    <polygon id="path24" fill="#20C2EF" points="0.651227442 42.0178001 36.5992688 42.0178001 36.5992688 77.9469141 0.651227442 77.9469141"></polygon>
                                    <path d="M5.06519302,33.4976965 L5.06519302,3.55547489 M10.4559907,33.4976965 L10.4559907,3.55547489 M15.9011888,33.4976965 L15.9011888,3.55547489 M21.3492893,33.4976965 L21.3492893,3.55547489 M26.7964465,33.4976965 L26.7964465,3.55547489 M32.1862647,33.4976965 L32.1862647,3.55547489" id="path26" stroke="#394D54" stroke-width="1.56" fill="#000000"></path>
                                    <g id="use28" transform="translate(3.627907, 44.174331)" fill="#000000" stroke="#394D54" stroke-width="1.56">
                                        <path d="M1.43728605,30.778272 L1.43728605,0.836050429 M6.82808372,30.778272 L6.82808372,0.836050429 M12.2732819,30.778272 L12.2732819,0.836050429 M17.7213823,30.778272 L17.7213823,0.836050429 M23.1685395,30.778272 L23.1685395,0.836050429 M28.5583577,30.778272 L28.5583577,0.836050429" id="path26"></path>
                                    </g>
                                </g>
                                <g id="use30" transform="translate(59.977860, 40.495022) scale(-1, 1) rotate(-180.000000) translate(-59.977860, -40.495022) translate(41.477860, 0.995022)" fill-rule="nonzero">
                                    <g id="g20" transform="translate(0.000000, 0.242935)">
                                        <polygon id="path22" fill="#00ACD3" points="0.651227442 0.563971286 36.5992688 0.563971286 36.5992688 36.491141 0.651227442 36.491141"></polygon>
                                        <polygon id="path24" fill="#20C2EF" points="0.651227442 42.0178001 36.5992688 42.0178001 36.5992688 77.9469141 0.651227442 77.9469141"></polygon>
                                        <path d="M5.06519302,33.4976965 L5.06519302,3.55547489 M10.4559907,33.4976965 L10.4559907,3.55547489 M15.9011888,33.4976965 L15.9011888,3.55547489 M21.3492893,33.4976965 L21.3492893,3.55547489 M26.7964465,33.4976965 L26.7964465,3.55547489 M32.1862647,33.4976965 L32.1862647,3.55547489" id="path26" stroke="#394D54" stroke-width="1.56" fill="#000000"></path>
                                        <g id="use28" transform="translate(3.627907, 44.174331)" fill="#000000" stroke="#394D54" stroke-width="1.56">
                                            <path d="M1.43728605,30.778272 L1.43728605,0.836050429 M6.82808372,30.778272 L6.82808372,0.836050429 M12.2732819,30.778272 L12.2732819,0.836050429 M17.7213823,30.778272 L17.7213823,0.836050429 M23.1685395,30.778272 L23.1685395,0.836050429 M28.5583577,30.778272 L28.5583577,0.836050429" id="path26"></path>
                                        </g>
                                    </g>
                                </g>
                            </g>
                            <g id="use32" transform="translate(0.065302, 82.909813)">
                                <g id="g18" fill-rule="nonzero">
                                    <g id="g20" transform="translate(0.000000, 1.242935)">
                                        <polygon id="path22" fill="#00ACD3" points="0.651227442 0.563971286 36.5992688 0.563971286 36.5992688 36.491141 0.651227442 36.491141"></polygon>
                                        <polygon id="path24" fill="#20C2EF" points="0.651227442 42.0178001 36.5992688 42.0178001 36.5992688 77.9469141 0.651227442 77.9469141"></polygon>
                                        <path d="M5.06519302,33.4976965 L5.06519302,3.55547489 M10.4559907,33.4976965 L10.4559907,3.55547489 M15.9011888,33.4976965 L15.9011888,3.55547489 M21.3492893,33.4976965 L21.3492893,3.55547489 M26.7964465,33.4976965 L26.7964465,3.55547489 M32.1862647,33.4976965 L32.1862647,3.55547489" id="path26" stroke="#394D54" stroke-width="1.56" fill="#000000"></path>
                                        <g id="use28" transform="translate(3.627907, 44.174331)" fill="#000000" stroke="#394D54" stroke-width="1.56">
                                            <path d="M1.43728605,30.778272 L1.43728605,0.836050429 M6.82808372,30.778272 L6.82808372,0.836050429 M12.2732819,30.778272 L12.2732819,0.836050429 M17.7213823,30.778272 L17.7213823,0.836050429 M23.1685395,30.778272 L23.1685395,0.836050429 M28.5583577,30.778272 L28.5583577,0.836050429" id="path26"></path>
                                        </g>
                                    </g>
                                    <g id="use30" transform="translate(59.977860, 40.495022) scale(-1, 1) rotate(-180.000000) translate(-59.977860, -40.495022) translate(41.477860, 0.995022)">
                                        <g id="g20" transform="translate(0.000000, 0.242935)">
                                            <polygon id="path22" fill="#00ACD3" points="0.651227442 0.563971286 36.5992688 0.563971286 36.5992688 36.491141 0.651227442 36.491141"></polygon>
                                            <polygon id="path24" fill="#20C2EF" points="0.651227442 42.0178001 36.5992688 42.0178001 36.5992688 77.9469141 0.651227442 77.9469141"></polygon>
                                            <path d="M5.06519302,33.4976965 L5.06519302,3.55547489 M10.4559907,33.4976965 L10.4559907,3.55547489 M15.9011888,33.4976965 L15.9011888,3.55547489 M21.3492893,33.4976965 L21.3492893,3.55547489 M26.7964465,33.4976965 L26.7964465,3.55547489 M32.1862647,33.4976965 L32.1862647,3.55547489" id="path26" stroke="#394D54" stroke-width="1.56" fill="#000000"></path>
                                            <g id="use28" transform="translate(3.627907, 44.174331)" fill="#000000" stroke="#394D54" stroke-width="1.56">
                                                <path d="M1.43728605,30.778272 L1.43728605,0.836050429 M6.82808372,30.778272 L6.82808372,0.836050429 M12.2732819,30.778272 L12.2732819,0.836050429 M17.7213823,30.778272 L17.7213823,0.836050429 M23.1685395,30.778272 L23.1685395,0.836050429 M28.5583577,30.778272 L28.5583577,0.836050429" id="path26"></path>
                                            </g>
                                        </g>
                                    </g>
                                </g>
                            </g>
                            <g id="use34" transform="translate(83.021023, 82.909813)">
                                <g id="g18" fill-rule="nonzero">
                                    <g id="g20" transform="translate(0.000000, 1.242935)">
                                        <polygon id="path22" fill="#00ACD3" points="0.651227442 0.563971286 36.5992688 0.563971286 36.5992688 36.491141 0.651227442 36.491141"></polygon>
                                        <polygon id="path24" fill="#20C2EF" points="0.651227442 42.0178001 36.5992688 42.0178001 36.5992688 77.9469141 0.651227442 77.9469141"></polygon>
                                        <path d="M5.06519302,33.4976965 L5.06519302,3.55547489 M10.4559907,33.4976965 L10.4559907,3.55547489 M15.9011888,33.4976965 L15.9011888,3.55547489 M21.3492893,33.4976965 L21.3492893,3.55547489 M26.7964465,33.4976965 L26.7964465,3.55547489 M32.1862647,33.4976965 L32.1862647,3.55547489" id="path26" stroke="#394D54" stroke-width="1.56" fill="#000000"></path>
                                        <g id="use28" transform="translate(3.627907, 44.174331)" fill="#000000" stroke="#394D54" stroke-width="1.56">
                                            <path d="M1.43728605,30.778272 L1.43728605,0.836050429 M6.82808372,30.778272 L6.82808372,0.836050429 M12.2732819,30.778272 L12.2732819,0.836050429 M17.7213823,30.778272 L17.7213823,0.836050429 M23.1685395,30.778272 L23.1685395,0.836050429 M28.5583577,30.778272 L28.5583577,0.836050429" id="path26"></path>
                                        </g>
                                    </g>
                                    <g id="use30" transform="translate(59.977860, 40.495022) scale(-1, 1) rotate(-180.000000) translate(-59.977860, -40.495022) translate(41.477860, 0.995022)">
                                        <g id="g20" transform="translate(0.000000, 0.242935)">
                                            <polygon id="path22" fill="#00ACD3" points="0.651227442 0.563971286 36.5992688 0.563971286 36.5992688 36.491141 0.651227442 36.491141"></polygon>
                                            <polygon id="path24" fill="#20C2EF" points="0.651227442 42.0178001 36.5992688 42.0178001 36.5992688 77.9469141 0.651227442 77.9469141"></polygon>
                                            <path d="M5.06519302,33.4976965 L5.06519302,3.55547489 M10.4559907,33.4976965 L10.4559907,3.55547489 M15.9011888,33.4976965 L15.9011888,3.55547489 M21.3492893,33.4976965 L21.3492893,3.55547489 M26.7964465,33.4976965 L26.7964465,3.55547489 M32.1862647,33.4976965 L32.1862647,3.55547489" id="path26" stroke="#394D54" stroke-width="1.56" fill="#000000"></path>
                                            <g id="use28" transform="translate(3.627907, 44.174331)" fill="#000000" stroke="#394D54" stroke-width="1.56">
                                                <path d="M1.43728605,30.778272 L1.43728605,0.836050429 M6.82808372,30.778272 L6.82808372,0.836050429 M12.2732819,30.778272 L12.2732819,0.836050429 M17.7213823,30.778272 L17.7213823,0.836050429 M23.1685395,30.778272 L23.1685395,0.836050429 M28.5583577,30.778272 L28.5583577,0.836050429" id="path26"></path>
                                            </g>
                                        </g>
                                    </g>
                                </g>
                            </g>
                            <g id="use36" transform="translate(165.976744, 82.909813)">
                                <g id="g18" fill-rule="nonzero">
                                    <g id="g20" transform="translate(0.000000, 1.242935)">
                                        <polygon id="path22" fill="#00ACD3" points="0.651227442 0.563971286 36.5992688 0.563971286 36.5992688 36.491141 0.651227442 36.491141"></polygon>
                                        <polygon id="path24" fill="#20C2EF" points="0.651227442 42.0178001 36.5992688 42.0178001 36.5992688 77.9469141 0.651227442 77.9469141"></polygon>
                                        <path d="M5.06519302,33.4976965 L5.06519302,3.55547489 M10.4559907,33.4976965 L10.4559907,3.55547489 M15.9011888,33.4976965 L15.9011888,3.55547489 M21.3492893,33.4976965 L21.3492893,3.55547489 M26.7964465,33.4976965 L26.7964465,3.55547489 M32.1862647,33.4976965 L32.1862647,3.55547489" id="path26" stroke="#394D54" stroke-width="1.56" fill="#000000"></path>
                                        <g id="use28" transform="translate(3.627907, 44.174331)" fill="#000000" stroke="#394D54" stroke-width="1.56">
                                            <path d="M1.43728605,30.778272 L1.43728605,0.836050429 M6.82808372,30.778272 L6.82808372,0.836050429 M12.2732819,30.778272 L12.2732819,0.836050429 M17.7213823,30.778272 L17.7213823,0.836050429 M23.1685395,30.778272 L23.1685395,0.836050429 M28.5583577,30.778272 L28.5583577,0.836050429" id="path26"></path>
                                        </g>
                                    </g>
                                    <g id="use30" transform="translate(59.977860, 40.495022) scale(-1, 1) rotate(-180.000000) translate(-59.977860, -40.495022) translate(41.477860, 0.995022)">
                                        <g id="g20" transform="translate(0.000000, 0.242935)">
                                            <polygon id="path22" fill="#00ACD3" points="0.651227442 0.563971286 36.5992688 0.563971286 36.5992688 36.491141 0.651227442 36.491141"></polygon>
                                            <polygon id="path24" fill="#20C2EF" points="0.651227442 42.0178001 36.5992688 42.0178001 36.5992688 77.9469141 0.651227442 77.9469141"></polygon>
                                            <path d="M5.06519302,33.4976965 L5.06519302,3.55547489 M10.4559907,33.4976965 L10.4559907,3.55547489 M15.9011888,33.4976965 L15.9011888,3.55547489 M21.3492893,33.4976965 L21.3492893,3.55547489 M26.7964465,33.4976965 L26.7964465,3.55547489 M32.1862647,33.4976965 L32.1862647,3.55547489" id="path26" stroke="#394D54" stroke-width="1.56" fill="#000000"></path>
                                            <g id="use28" transform="translate(3.627907, 44.174331)" fill="#000000" stroke="#394D54" stroke-width="1.56">
                                                <path d="M1.43728605,30.778272 L1.43728605,0.836050429 M6.82808372,30.778272 L6.82808372,0.836050429 M12.2732819,30.778272 L12.2732819,0.836050429 M17.7213823,30.778272 L17.7213823,0.836050429 M23.1685395,30.778272 L23.1685395,0.836050429 M28.5583577,30.778272 L28.5583577,0.836050429" id="path26"></path>
                                            </g>
                                        </g>
                                    </g>
                                </g>
                            </g>
                        </g>
                    </g>
                </g>
                <g id="path38-Clipped" transform="translate(64.000000, 4.000000)">
                    <mask id="mask-4" fill="white">
                        <use xlink:href="#path-3"></use>
                    </mask>
                    <g id="path10"></g>
                    <path d="M338.429556,94.9616658 C341.210927,73.3599231 325.035632,56.3915629 315.004034,48.3355743 C303.444271,61.6929612 301.647985,96.7006399 319.783765,111.439694 C309.662775,120.424884 288.334691,128.569231 266.497539,128.569231 L-1.81395349,128.569231 C-3.93763047,151.352621 -1.81395349,261.064748 -1.81395349,261.064748 L391.813953,261.064748 L390.024361,95.3176403 C372.975684,85.4848088 351.05304,88.6200133 338.429502,94.9613014" id="path38" fill="#17B5EB" fill-rule="nonzero" mask="url(#mask-4)"></path>
                </g>
                <g id="path40-Clipped" transform="translate(64.000000, 4.000000)">
                    <mask id="mask-6" fill="white">
                        <use xlink:href="#path-5"></use>
                    </mask>
                    <g id="path10"></g>
                    <polyline id="path40" fill-opacity="0.17" fill="#000000" fill-rule="nonzero" mask="url(#mask-6)" points="-1.81395349 157.726619 -1.81395349 261.064748 391.813953 261.064748 391.813953 157.726619"></polyline>
                </g>
                <g id="path42-Clipped" transform="translate(64.000000, 4.000000)">
                    <mask id="mask-8" fill="white">
                        <use xlink:href="#path-7"></use>
                    </mask>
                    <g id="path10"></g>
                    <path d="M138.291025,251.800521 C113.730786,240.152012 100.249422,224.317727 92.7485502,207.030908 L18.1395349,210.302158 L56.2325581,261.064748 L138.291025,251.800521" id="path42" fill="#D4EDF1" fill-rule="nonzero" mask="url(#mask-8)"></path>
                </g>
                <g id="path44-Clipped" transform="translate(64.000000, 4.000000)">
                    <mask id="mask-10" fill="white">
                        <use xlink:href="#path-9"></use>
                    </mask>
                    <g id="path10"></g>
                    <path d="M340.116279,94.1600719 L340.116279,94.2167266 C302.275051,142.965391 247.998061,185.550809 189.728198,207.922662 C137.74976,227.879013 92.4306693,227.974592 61.1642442,211.945144 C57.7974195,210.044593 54.4966935,207.935769 51.1875,205.939748 C28.2651992,189.927777 15.3537993,163.441594 16.4389535,128.54946 L-1.81395349,128.54946 L-1.81395349,261.064748 L391.813953,261.064748 L391.813953,87.0215827 L346.465116,87.0215827 L340.116279,94.1600719 Z" id="path44" fill-opacity="0.085" fill="#000000" fill-rule="nonzero" mask="url(#mask-10)"></path>
                </g>
                <path d="M83,212.293346 C108.682809,213.56837 136.091948,213.796993 160,207" id="path46" stroke="#394D54" stroke-width="3.4" stroke-linecap="round"></path>
                <path d="M185,194.000979 C185,199.523121 180.523122,204 175.000981,204 C169.477862,204 165,199.523121 165,194.000979 C165,188.478855 169.477862,184 175.000981,184 C180.523122,184 185,188.478855 185,194.000979 Z" id="path48" fill="#D4EDF1" fill-rule="nonzero"></path>
                <path d="M178.215751,187.507753 C177.301781,188.036039 176.683236,189.025918 176.683236,190.158375 C176.683236,191.848862 178.053678,193.217267 179.744165,193.217267 C180.902273,193.217267 181.908571,192.5741 182.428639,191.624213 C182.795865,192.509477 183,193.481908 183,194.501532 C183,198.642623 179.642613,202 175.500509,202 C171.359433,202 168,198.642623 168,194.501532 C168,190.358411 171.359433,187 175.500509,187 C176.45859,187 177.37256,187.180615 178.215751,187.507753 L178.215751,187.507753 Z" id="path50" fill="#394D54" fill-rule="nonzero"></path>
                <path d="M0,163 L462,163 C451.940386,160.472385 430.172124,157.058224 433.762056,144 C415.470882,164.964853 371.358383,158.707967 360.225692,148.370086 C347.828225,166.179997 275.656821,159.410458 270.623108,145.536034 C255.081292,163.602272 206.921615,163.602272 191.378835,145.536034 C186.343179,159.410458 114.172743,166.179997 101.774317,148.370086 C90.6416102,158.707967 46.5330183,164.964853 28.2398896,144 C31.8298292,157.058224 10.0615612,160.472385 0,163" id="path52" fill="#394D54" fill-rule="nonzero"></path>
            </g>
        </g>
    </g>
</svg>