<?xml version="1.0" encoding="UTF-8"?>
<svg width="1140px" height="291px" viewBox="0 0 1140 291" version="1.1" xmlns="http://www.w3.org/2000/svg" xmlns:xlink="http://www.w3.org/1999/xlink">
    <!-- Generator: Sketch 59.1 (86144) - https://sketch.com -->
    <title>Custom Preset</title>
    <desc>Created with Sketch.</desc>
    <defs>
        <linearGradient x1="50%" y1="66.7478824%" x2="50%" y2="100%" id="linearGradient-1">
            <stop stop-color="#000000" offset="0%"></stop>
            <stop stop-color="#10E7FF" offset="100%"></stop>
        </linearGradient>
        <linearGradient x1="50%" y1="66.7478824%" x2="50%" y2="100%" id="linearGradient-2">
            <stop stop-color="#000000" offset="0%"></stop>
            <stop stop-color="#10E7FF" offset="100%"></stop>
        </linearGradient>
        <linearGradient x1="50%" y1="66.7478824%" x2="50%" y2="100%" id="linearGradient-3">
            <stop stop-color="#000000" offset="0%"></stop>
            <stop stop-color="#10E7FF" offset="100%"></stop>
        </linearGradient>
        <linearGradient x1="50%" y1="66.7478824%" x2="50%" y2="100%" id="linearGradient-4">
            <stop stop-color="#000000" offset="0%"></stop>
            <stop stop-color="#10E7FF" offset="100%"></stop>
        </linearGradient>
        <linearGradient x1="50%" y1="66.7478824%" x2="50%" y2="100%" id="linearGradient-5">
            <stop stop-color="#000000" offset="0%"></stop>
            <stop stop-color="#10E7FF" offset="100%"></stop>
        </linearGradient>
        <linearGradient x1="50%" y1="66.7478824%" x2="50%" y2="100%" id="linearGradient-6">
            <stop stop-color="#000000" offset="0%"></stop>
            <stop stop-color="#10E7FF" offset="100%"></stop>
        </linearGradient>
        <linearGradient x1="50%" y1="66.7478824%" x2="50%" y2="100%" id="linearGradient-7">
            <stop stop-color="#000000" offset="0%"></stop>
            <stop stop-color="#10E7FF" offset="100%"></stop>
        </linearGradient>
        <linearGradient x1="50%" y1="66.7478824%" x2="50%" y2="100%" id="linearGradient-8">
            <stop stop-color="#000000" offset="0%"></stop>
            <stop stop-color="#10E7FF" offset="100%"></stop>
        </linearGradient>
        <linearGradient x1="50%" y1="66.7478824%" x2="50%" y2="100%" id="linearGradient-9">
            <stop stop-color="#000000" offset="0%"></stop>
            <stop stop-color="#10E7FF" offset="100%"></stop>
        </linearGradient>
        <linearGradient x1="50%" y1="66.7478824%" x2="50%" y2="100%" id="linearGradient-10">
            <stop stop-color="#000000" offset="0%"></stop>
            <stop stop-color="#10E7FF" offset="100%"></stop>
        </linearGradient>
    </defs>
    <g id="Custom-Preset" stroke="none" stroke-width="1" fill="none" fill-rule="evenodd">
        <g id="Download" transform="translate(-340.000000, -166.000000)">
            <g id="Box" transform="translate(855.000000, 382.000000)">
                <polygon id="Stroke-1" stroke-opacity="0.0961538462" stroke="#000000" stroke-linecap="round" stroke-linejoin="round" points="0 53.8054695 50.8700833 75 101.73913 53.8054695 50.8700833 32.6086957"></polygon>
                <polygon id="Stroke-7" stroke-opacity="0.0961538462" stroke="#000000" stroke-linecap="round" stroke-linejoin="round" points="50.2173913 1.30434783 101.73913 22.3096677 101.48902 53.4782609 50.3236883 32.7001761"></polygon>
                <polygon id="Stroke-9" stroke-opacity="0.0961538462" stroke="#000000" stroke-linecap="round" stroke-linejoin="round" points="0.652173913 22.0405003 0.652173913 53.4782609 51.5217391 32.6717368 51.415679 1.30434783"></polygon>
                <polygon id="Fill-11" fill-opacity="0.061489292" fill="#000000" points="0.105238838 53.6435064 0 21.3702827 50.7622629 0 101.73913 21.5851512 101.571821 53.5681562 50.7622629 75"></polygon>
                <polygon id="Stroke-13" stroke-opacity="0.0961538462" stroke="#000000" stroke-linecap="round" stroke-linejoin="round" points="0.105238838 53.6435107 0 21.3702935 50.7622629 0 101.73913 21.5851619 101.57178 53.5681605 50.7622629 75"></polygon>
                <g id="Vector" transform="translate(17.608696, 16.304348)">
                    <polygon id="Fill-21" fill="#10E7FF" points="0 32.7525563 32.9745185 45.7396607 65.9482759 32.7525563 32.9745185 19.7640509"></polygon>
                    <polygon id="Fill-22" fill="#10E7FF" points="0 12.9878049 0 32.705776 33.8343328 45.7396607 33.8343328 26.1899524"></polygon>
                    <polygon id="Fill-23" fill="#10E7FF" points="33.8343328 26.0884369 66.5217391 12.9878049 66.3608828 32.6389942 33.8343328 45.7396607"></polygon>
                    <polygon id="Fill-24" fill="#10E7FF" points="33.2608696 0 66.5217391 13.1859105 66.3602357 32.7518558 33.3294971 19.7085585"></polygon>
                    <polygon id="Fill-25" fill="#10E7FF" points="0 13.0169892 0 32.7518558 33.2608696 19.690725 33.1920696 0"></polygon>
                    <polygon id="Fill-26" fill="#10E7FF" points="0.0688155922 32.7151525 0 13.0329132 33.1907541 0 66.5217391 13.1640006 66.4123223 32.6691948 33.1907541 45.7396607"></polygon>
                    <polygon id="Fill-21-Copy" fill-opacity="0.30736451" fill="#FFFFFF" points="0 12.9885054 32.9745185 25.9756098 65.9482759 12.9885054 32.9745185 0"></polygon>
                </g>
                <polygon id="Stroke-3" stroke-opacity="0.0961538462" stroke="#000000" stroke-linecap="round" stroke-linejoin="round" points="0.652173913 22.826087 0.652173913 54.2369271 51.5217391 75 51.5217391 43.8572217"></polygon>
                <polygon id="Stroke-5" stroke-opacity="0.0961538462" stroke="#000000" stroke-linecap="round" stroke-linejoin="round" points="50.2173913 43.6955049 101.73913 22.826087 101.48811 54.130582 50.2173913 75"></polygon>
            </g>
            <g id="Lines" fill-rule="nonzero">
                <path d="M1809.99469,376.427353 C1802.96357,328.548719 1760.66645,289.260888 1683.18431,258.535211 C1606.57377,228.155169 1351.95764,178.845572 919.244739,110.580516 L905.583789,108.428364 L905.428364,109.416211 L905.922287,109.493924 C1346.53762,178.81918 1605.53341,228.818367 1682.81569,259.464789 C1760.00021,290.072445 1802.03643,329.117948 1809.00531,376.572647 L1809.07795,377.067342 L1810.06734,376.922047 L1809.99469,376.427353 Z" id="Line-Copy" fill="url(#linearGradient-1)" transform="translate(1357.747853, 242.747853) scale(-1, 1) translate(-1357.747853, -242.747853) "></path>
                <path d="M1665.99065,375.403748 C1652.28148,305.52045 1588.9686,253.901239 1476.14185,220.520544 L1469.49735,218.559738 C1359.55057,186.195154 1180.02542,137.264491 930.919467,71.7669943 L906.643334,65.3894355 L906.389435,66.3566664 L922.780372,70.6615422 C1181.09076,138.541681 1365.45092,188.814595 1475.85815,221.479456 C1588.36473,254.765428 1651.38518,306.146217 1665.00935,375.596252 L1665.1056,376.0869 L1666.0869,375.894397 L1665.99065,375.403748 Z" id="Line-5-Copy" fill="url(#linearGradient-2)" transform="translate(1286.238168, 220.738168) scale(-1, 1) translate(-1286.238168, -220.738168) "></path>
                <path d="M1639.49357,375.920088 C1628.12714,305.715647 1569.3303,249.92546 1463.18165,208.534163 C1359.29181,168.023659 1179.21385,105.105478 922.943008,19.7776897 L906.683294,14.3677837 L906.367784,15.3167057 L922.626592,20.7263103 L937.910529,25.8187921 C1186.05483,108.556777 1361.0256,169.773064 1462.81835,209.465837 C1568.6697,250.741207 1627.20619,306.284353 1638.50643,376.079912 L1638.58634,376.573485 L1639.57348,376.413661 L1639.49357,375.920088 Z" id="Line-3-Copy" fill="url(#linearGradient-3)" transform="translate(1272.970634, 195.470634) scale(-1, 1) translate(-1272.970634, -195.470634) "></path>
                <path d="M1535.00371,376.474666 C1532.17036,320.625709 1485.57303,263.341175 1395.27271,204.580916 C1305.94663,146.45462 1145.7523,81.6627716 914.671317,10.1900337 L907.169314,7.8749828 L906.874983,8.83068642 L907.352835,8.97785181 C1142.13206,81.283484 1304.59654,146.769163 1394.72729,205.419084 C1484.78609,264.022175 1531.19166,321.070975 1534.00499,376.525334 L1534.03033,377.024691 L1535.02904,376.974024 L1535.00371,376.474666 Z" id="Line-2-Copy" fill="url(#linearGradient-4)" transform="translate(1220.952013, 192.449837) scale(-1, 1) translate(-1220.952013, -192.449837) "></path>
                <path d="M1220.11608,376.093803 L1221.0938,375.883924 L1220.98886,375.395061 C1207.2978,311.614754 1174.73464,259.346696 1123.31048,218.60808 L1120.26668,216.204327 C1070.14972,176.748556 1000.35766,127.764257 910.888329,69.2493139 L904.854478,65.3080293 L904.308029,66.1455217 L910.340471,70.0858861 L915.792219,73.655621 C1004.43586,131.766767 1073.40235,180.346238 1122.68952,219.39192 C1173.41961,259.58069 1205.71825,311.011754 1219.59623,373.701795 L1220.11608,376.093803 Z" id="Line-9-Copy" fill="url(#linearGradient-5)" transform="translate(1062.700916, 220.700916) scale(-1, 1) translate(-1062.700916, -220.700916) "></path>
                <path d="M1208.99738,376.448835 C1203.75678,325.505052 1179.87777,275.910196 1137.37516,227.669464 C1095.34802,179.968391 1019.45048,105.321075 909.676329,3.7199746 L905.972373,0.293433126 L905.293433,1.02762703 L912.312109,7.5234432 L918.750181,13.492632 C1023.2548,110.471748 1095.88158,182.086678 1136.62484,228.330536 C1178.99711,276.423329 1202.78477,325.828473 1208.00262,376.551165 L1208.05379,377.04854 L1209.04854,376.94621 L1208.99738,376.448835 Z" id="Line-4-Copy" fill="url(#linearGradient-6)" transform="translate(1057.170987, 188.670987) scale(-1, 1) translate(-1057.170987, -188.670987) "></path>
                <path d="M905.009555,90.2929578 L904.292958,90.9904454 L907.546262,94.3388728 L910.364791,97.25212 C956.174888,144.697083 990.917152,185.376427 1014.59002,219.286212 C1038.96063,254.195458 1056.66005,305.932863 1067.6744,374.495185 L1068.0841,377.071863 L1069.07186,376.9159 L1068.99388,376.422019 C1057.98307,306.686886 1040.12654,254.11859 1015.40998,218.713788 C990.972457,183.70869 954.774774,141.522062 906.815218,92.1495912 L905.009555,90.2929578 Z" id="Line-6-Copy" fill="url(#linearGradient-7)" transform="translate(986.682410, 233.682410) scale(-1, 1) translate(-986.682410, -233.682410) "></path>
                <path d="M1020.06554,376.057891 L1021.05789,375.934463 L1020.99618,375.438286 C1011.41762,298.427455 999.576618,242.224387 985.464472,206.814889 C971.635756,172.116562 945.729596,128.49304 907.745085,75.9349771 L905.110384,72.3015621 L904.301562,72.8896163 L904.595589,73.2940271 C943.813624,127.235307 970.460592,171.868978 984.535528,207.185111 C998.468515,242.145071 1010.19818,297.507944 1019.71608,373.259958 L1020.06554,376.057891 Z" id="Line-8-Copy" fill="url(#linearGradient-8)" transform="translate(962.679727, 224.179727) scale(-1, 1) translate(-962.679727, -224.179727) "></path>
                <path d="M964.039948,376.036984 L965.036984,375.960052 L964.461285,368.575791 L963.769299,359.929848 C958.213965,291.515956 952.191991,241.189652 945.701351,208.943319 L945.489902,207.90002 C938.575586,174.019871 925.463494,132.819147 906.154083,84.2941085 L904.778167,80.8499053 L903.849905,81.221833 L904.035869,81.6859638 C923.976877,131.454985 937.468125,173.594315 944.510098,208.09998 L944.932057,210.196351 L945.340107,212.27868 C951.926943,246.33183 958.030696,299.243677 963.649209,371.006119 L964.039948,376.036984 Z" id="Line-6-Copy-2" fill="url(#linearGradient-9)" transform="translate(934.443445, 228.443445) scale(-1, 1) translate(-934.443445, -228.443445) "></path>
                <polygon id="Line-7" fill="url(#linearGradient-10)" points="905.502544 377.502532 906.502532 377.497456 904.997456 80.9974684 903.997468 81.0025445"></polygon>
                <path d="M905.039948,376.036984 L906.036984,375.960052 L905.461285,368.575791 L904.769299,359.929848 C899.213965,291.515956 893.191991,241.189652 886.701351,208.943319 L886.489902,207.90002 C879.575586,174.019871 866.463494,132.819147 847.154083,84.2941085 L845.778167,80.8499053 L844.849905,81.221833 L845.035869,81.6859638 C864.976877,131.454985 878.468125,173.594315 885.510098,208.09998 L885.932057,210.196351 L886.340107,212.27868 C892.926943,246.33183 899.030696,299.243677 904.649209,371.006119 L905.039948,376.036984 Z" id="Line-6" fill="url(#linearGradient-9)"></path>
                <path d="M905.065537,376.057891 L906.057891,375.934463 L905.996177,375.438286 C896.41762,298.427455 884.576618,242.224387 870.464472,206.814889 C856.635756,172.116562 830.729596,128.49304 792.745085,75.9349771 L790.110384,72.3015621 L789.301562,72.8896163 L789.595589,73.2940271 C828.813624,127.235307 855.460592,171.868978 869.535528,207.185111 C883.468515,242.145071 895.198179,297.507944 904.716079,373.259958 L905.065537,376.057891 Z" id="Line-8" fill="url(#linearGradient-8)"></path>
                <path d="M742.009555,90.2929578 L741.292958,90.9904454 L744.546262,94.3388728 L747.364791,97.25212 C793.174888,144.697083 827.917152,185.376427 851.590021,219.286212 C875.960627,254.195458 893.660046,305.932863 904.674397,374.495185 L905.0841,377.071863 L906.071863,376.9159 L905.993881,376.422019 C894.983071,306.686886 877.126539,254.11859 852.409979,218.713788 C827.972457,183.70869 791.774774,141.522062 743.815218,92.1495912 L742.009555,90.2929578 Z" id="Line-6" fill="url(#linearGradient-7)"></path>
                <path d="M905.997375,376.448835 C900.756776,325.505052 876.877771,275.910196 834.375161,227.669464 C792.348019,179.968391 716.450477,105.321075 606.676329,3.7199746 L602.972373,0.293433126 L602.293433,1.02762703 L609.312109,7.5234432 L615.750181,13.492632 C720.254805,110.471748 792.881579,182.086678 833.624839,228.330536 C875.997107,276.423329 899.784769,325.828473 905.002625,376.551165 L905.05379,377.04854 L906.04854,376.94621 L905.997375,376.448835 Z" id="Line-4" fill="url(#linearGradient-6)"></path>
                <path d="M906.116076,376.093803 L907.093803,375.883924 L906.988864,375.395061 C893.297803,311.614754 860.734636,259.346696 809.310482,218.60808 L806.26668,216.204327 C756.149721,176.748556 686.357655,127.764257 596.888329,69.2493139 L590.854478,65.3080293 L590.308029,66.1455217 L596.340471,70.0858861 L601.792219,73.655621 C690.435861,131.766767 759.402346,180.346238 808.689518,219.39192 C859.419606,259.58069 891.718246,311.011754 905.59623,373.701795 L906.116076,376.093803 Z" id="Line-9" fill="url(#linearGradient-5)"></path>
                <path d="M905.003709,376.474666 C902.170356,320.625709 855.573028,263.341175 765.272706,204.580916 C675.946633,146.45462 515.752301,81.6627716 284.671317,10.1900337 L277.169314,7.8749828 L276.874983,8.83068642 L277.352835,8.97785181 C512.132064,81.283484 674.596536,146.769163 764.727294,205.419084 C854.786086,264.022175 901.191659,321.070975 904.004993,376.525334 L904.030327,377.024691 L905.029042,376.974024 L905.003709,376.474666 Z" id="Line-2" fill="url(#linearGradient-4)"></path>
                <path d="M905.493573,375.920088 C894.127139,305.715647 835.330296,249.92546 729.181647,208.534163 C625.291807,168.023659 445.213847,105.105478 188.943008,19.7776897 L172.683294,14.3677837 L172.367784,15.3167057 L188.626592,20.7263103 L203.910529,25.8187921 C452.054829,108.556777 627.025596,169.773064 728.818353,209.465837 C834.669704,250.741207 893.206194,306.284353 904.506427,376.079912 L904.586339,376.573485 L905.573485,376.413661 L905.493573,375.920088 Z" id="Line-3" fill="url(#linearGradient-3)"></path>
                <path d="M904.990648,375.403748 C891.281484,305.52045 827.968601,253.901239 715.141851,220.520544 L708.497352,218.559738 C598.550568,186.195154 419.025424,137.264491 169.919467,71.7669943 L145.643334,65.3894355 L145.389435,66.3566664 L161.780372,70.6615422 C420.090762,138.541681 604.450917,188.814595 714.858149,221.479456 C827.364732,254.765428 890.385182,306.146217 904.009352,375.596252 L904.105603,376.0869 L905.0869,375.894397 L904.990648,375.403748 Z" id="Line-5" fill="url(#linearGradient-2)"></path>
                <path d="M904.994694,376.427353 C897.963566,328.548719 855.666455,289.260888 778.184313,258.535211 C701.573772,228.155169 446.957639,178.845572 14.2447388,110.580516 L0.583788853,108.428364 L0.428363506,109.416211 L0.922287326,109.493924 C441.537616,178.81918 700.533405,228.818367 777.815687,259.464789 C855.000212,290.072445 897.036434,329.117948 904.005306,376.572647 L904.077953,377.067342 L905.067342,376.922047 L904.994694,376.427353 Z" id="Line" fill="url(#linearGradient-1)"></path>
            </g>
        </g>
    </g>
</svg>