<?xml version="1.0" encoding="UTF-8"?>
<svg width="300px" height="300px" viewBox="0 0 300 300" version="1.1" xmlns="http://www.w3.org/2000/svg" xmlns:xlink="http://www.w3.org/1999/xlink">
    <!-- Generator: Sketch 62 (91390) - https://sketch.com -->
    <title>Group</title>
    <desc>Created with Sketch.</desc>
    <defs>
        <polygon id="path-1" points="0.0338983051 0 300 0 300 300 0.0338983051 300"></polygon>
        <polygon id="path-3" points="0.0338983051 0 60.9960452 0 60.9960452 300 0.0338983051 300"></polygon>
        <polygon id="path-5" points="0.0338983051 0.0220338983 211.745198 0.0220338983 211.745198 176.489266 0.0338983051 176.489266"></polygon>
        <polygon id="path-7" points="0.0338983051 0.310169492 211.273446 0.310169492 211.273446 269.740678 0.0338983051 269.740678"></polygon>
        <polygon id="path-9" points="0.0338983051 0.483050847 201.970056 0.483050847 201.970056 79.4909605 0.0338983051 79.4909605"></polygon>
        <polygon id="path-11" points="0.0338983051 0.371186441 51.4847458 0.371186441 51.4847458 100.229379 0.0338983051 100.229379"></polygon>
    </defs>
    <g id="Page-1" stroke="none" stroke-width="1" fill="none" fill-rule="evenodd" opacity="0.1">
        <g id="shutterstock_1226183854">
            <g id="Group">
                <g id="Group-5">
                    <mask id="mask-2" fill="white">
                        <use xlink:href="#path-1"></use>
                    </mask>
                    <g id="Clip-2"></g>
                    <polyline id="Fill-3" fill="#000000" mask="url(#mask-2)" points="4.84745763 289.897175 9.04011299 300 8.5819209 300 4.68418079 290.60791 0 294.755367 0 294.188701 4.62485876 290.093785 4.84745763 289.897175"></polyline>
                    <polyline id="Fill-4" fill="#000000" mask="url(#mask-2)" points="5.04463277 290.289266 0 294.755367 0 294.189266 4.48700565 290.216384 0 283.469492 0 282.70452 4.94237288 290.135028 5.04463277 290.289266"></polyline>
                </g>
                <polyline id="Fill-6" fill="#000000" points="300 294.754802 294.076271 300 293.437288 300 300 294.188701 300 294.754802"></polyline>
                <polyline id="Fill-7" fill="#000000" points="300 294.755367 294.076836 300 293.437288 300 300 294.189266 300 294.755367"></polyline>
                <polyline id="Fill-8" fill="#000000" points="284.549718 259.475706 300 282.705085 300 283.470056 284.588701 260.298305 263.229379 300 262.748588 300 284.549718 259.475706"></polyline>
                <polyline id="Fill-9" fill="#000000" points="263.229379 300 262.748588 300 283.932203 260.624294 230.921469 300 230.211299 300 285.206215 259.149718 263.229379 300"></polyline>
                <polyline id="Fill-10" fill="#000000" points="230.069492 270.875141 285.463277 259.487006 230.922034 300 230.211299 300 283.675141 260.287006 230.342938 271.251412 213.984746 300 213.497175 300 230.022034 270.958757 230.069492 270.875141"></polyline>
                <polyline id="Fill-11" fill="#000000" points="213.984746 300 213.497175 300 229.588701 271.719774 186.314124 300 185.540113 300 230.823729 270.40678 213.984746 300"></polyline>
                <polyline id="Fill-12" fill="#000000" points="230.7 270.993785 186.314689 300 185.539548 300 229.711864 271.132768 188.729944 258.532203 162.463842 300 161.962147 300 188.545198 258.032203 230.7 270.993785"></polyline>
                <polyline id="Fill-13" fill="#000000" points="172.514124 262.908475 189.120339 257.915819 162.463842 300 161.962147 300 188.154802 258.648588 172.824859 263.257062 157.048023 300 156.587006 300 172.474576 262.99887 172.514124 262.908475"></polyline>
                <polyline id="Fill-14" fill="#000000" points="15.7225989 300 15.0954802 300 5.32881356 291.058192 9.05028249 300 8.59152542 300 4.20112994 289.451412 15.7225989 300"></polyline>
                <polyline id="Fill-15" fill="#000000" points="132.358192 300 131.884181 300 113.636723 263.835028 110.49774 300 110.071751 300 113.342938 262.313559 132.358192 300"></polyline>
                <polyline id="Fill-16" fill="#000000" points="172.99096 262.870621 157.048588 300 156.587006 300 172.348023 263.29435 113.833898 263.286441 132.358192 300 131.883616 300 113.145763 262.862712 172.99096 262.870621"></polyline>
                <polyline id="Fill-17" fill="#000000" points="110.497175 300 110.072316 300 113.225989 263.665537 79.1338983 300 78.5525424 300 113.753672 262.483616 110.497175 300"></polyline>
                <polyline id="Fill-18" fill="#000000" points="60.5372881 293.29096 114.619209 262.180226 79.1333333 300 78.5525424 300 112.360452 263.968927 60.8960452 293.573446 58.9949153 300 58.5531073 300 60.5135593 293.372316 60.5372881 293.29096"></polyline>
                <g id="Group-28">
                    <mask id="mask-4" fill="white">
                        <use xlink:href="#path-3"></use>
                    </mask>
                    <g id="Clip-20"></g>
                    <polyline id="Fill-19" fill="#000000" mask="url(#mask-4)" points="4.18305085 290.009605 60.7288136 293.220904 60.9960452 293.235593 58.9949153 300 58.5525424 300 60.4378531 293.628814 5.34632768 290.5 15.7225989 300 15.0954802 300 4.6220339 290.410734 4.18305085 290.009605"></polyline>
                    <polyline id="Fill-21" fill="#000000" mask="url(#mask-4)" points="0 283.468362 0 282.70339 4.36327684 289.263277 0 266.293785 0 264.023729 5.1700565 291.241808 0 283.468362"></polyline>
                    <polyline id="Fill-22" fill="#000000" mask="url(#mask-4)" points="0 192.144633 0 191.373446 18.8711864 162.628814 0 157.554237 0 157.115254 19.5468927 162.371186 0 192.144633"></polyline>
                    <polyline id="Fill-23" fill="#000000" mask="url(#mask-4)" points="19.3841808 162.766667 0 157.554237 0 157.115254 19.0338983 162.233333 23.7039548 130.757062 0 143.69661 0 143.214124 24.2480226 129.977401 19.3841808 162.766667"></polyline>
                    <polyline id="Fill-24" fill="#000000" mask="url(#mask-4)" points="24.2610169 130.453107 0 143.697175 0 143.214124 23.6909605 130.281356 0 85.5553672 0 84.6491525 24.1632768 130.268362 24.2610169 130.453107"></polyline>
                    <polyline id="Fill-25" fill="#000000" mask="url(#mask-4)" points="27.7785311 43.7548023 0 71.5333333 0 70.9338983 26.4587571 44.4751412 0 50.2214689 0 49.7881356 27.0734463 43.9079096 27.7785311 43.7548023"></polyline>
                    <polyline id="Fill-26" fill="#000000" mask="url(#mask-4)" points="27.1638418 44.3220339 0 50.2214689 0 49.7881356 23.8480226 44.6084746 0 46.6564972 0 46.2310734 27.100565 43.9039548 27.1638418 44.3220339"></polyline>
                    <polyline id="Fill-27" fill="#000000" mask="url(#mask-4)" points="0 46.6564972 0 46.2310734 26.8118644 43.9288136 8.5819209 0 9.04011299 0 27.4254237 44.3011299 0 46.6564972"></polyline>
                </g>
                <path d="M126.613559,173.7 L150.20791,214.596045 L165.936723,167.408475 L126.613559,173.7 Z M126.09322,173.645763 L125.939548,173.379096 L166.559887,166.879661 L150.311864,215.624294 L126.09322,173.645763 L126.09322,173.645763 Z" id="Fill-29" fill="#000000"></path>
                <path d="M166.372316,167.442373 L150.775141,214.234463 L185.089266,176.801695 L166.372316,167.442373 Z M166.124294,166.845198 L185.529944,176.548023 L185.781356,176.673446 L149.744633,215.985876 L166.124294,166.845198 L166.124294,166.845198 Z" id="Fill-30" fill="#000000"></path>
                <path d="M102.662147,208.550282 L149.861017,214.842938 L126.261582,173.937288 L102.662147,208.550282 Z M102.265537,208.924859 L101.924859,208.879096 L126.291525,173.141808 L150.658192,215.377401 L102.265537,208.924859 L102.265537,208.924859 Z" id="Fill-31" fill="#000000"></path>
                <path d="M150.678531,214.967232 L196.345198,222.840678 L185.322599,177.174011 L150.678531,214.967232 Z M150.224294,215.318644 L149.841243,215.253107 L185.279096,176.59435 L185.547458,176.30113 L196.908475,223.367797 L150.224294,215.318644 L150.224294,215.318644 Z" id="Fill-32" fill="#000000"></path>
                <path d="M102.561017,208.963842 L113.6,262.579096 L149.868927,215.271751 L102.561017,208.963842 Z M102.025989,208.464972 L150.650847,214.948588 L113.654237,263.205085 L113.371751,263.572881 L102.025989,208.464972 L102.025989,208.464972 Z" id="Fill-33" fill="#000000"></path>
                <path d="M142.316949,119.754237 L126.574576,173.277401 L165.929944,166.980791 L142.316949,119.754237 Z M142.214124,118.601695 L166.567232,167.307345 L125.978531,173.801695 L142.214124,118.601695 L142.214124,118.601695 Z" id="Fill-34" fill="#000000"></path>
                <path d="M166.79548,167.180226 L185.410169,176.488136 L221.088136,148.565537 L166.79548,167.180226 Z M165.701695,167.107345 L223.329944,147.349153 L185.565537,176.903955 L185.460452,176.987006 L165.701695,167.107345 L165.701695,167.107345 Z" id="Fill-35" fill="#000000"></path>
                <path d="M126.488701,122.549718 L126.488701,172.068362 L141.963277,119.454237 L126.488701,122.549718 Z M126.064972,122.201695 L142.567797,118.901695 L126.064972,175.010734 L126.064972,122.201695 L126.064972,122.201695 Z" id="Fill-36" fill="#000000"></path>
                <path d="M54.9841808,125.756497 L126.064972,173.143503 L126.064972,122.597175 L54.9841808,125.756497 Z M53.6711864,125.390395 L126.267232,122.163842 L126.488701,122.154237 L126.488701,173.935593 L53.6711864,125.390395 L53.6711864,125.390395 Z" id="Fill-37" fill="#000000"></path>
                <path d="M150.623164,215.387571 L172.667797,262.625424 L196.286441,223.260452 L150.623164,215.387571 Z M149.89661,214.832768 L196.967797,222.948023 L172.825989,263.185311 L172.620904,263.526554 L149.89661,214.832768 L149.89661,214.832768 Z" id="Fill-38" fill="#000000"></path>
                <path d="M196.126554,224.350282 L173.107345,262.715819 L188.453672,258.112429 L196.126554,224.350282 Z M197.127119,221.858757 L188.811864,258.446893 L172.180791,263.436158 L197.127119,221.858757 L197.127119,221.858757 Z" id="Fill-39" fill="#000000"></path>
                <path d="M150.215254,215.516384 L113.915254,262.864407 L172.311299,262.864407 L150.215254,215.516384 Z M150.30452,214.703955 L172.976836,263.288136 L113.056497,263.288136 L150.30452,214.703955 L150.30452,214.703955 Z" id="Fill-40" fill="#000000"></path>
                <path d="M185.724859,177.035593 L196.772881,222.803955 L255.167232,195.974576 L185.724859,177.035593 Z M185.145198,176.438983 L256.403955,195.872881 L196.481356,223.40452 L185.145198,176.438983 L185.145198,176.438983 Z" id="Fill-41" fill="#000000"></path>
                <path d="M196.784181,223.369492 L188.931073,257.922599 L240.761017,235.934463 L196.784181,223.369492 Z M196.470056,222.838983 L242.029944,235.856497 L188.334463,258.636723 L196.470056,222.838983 L196.470056,222.838983 Z" id="Fill-42" fill="#000000"></path>
                <path d="M142.69209,119.556497 L166.354802,166.883616 L221.570056,147.952542 L142.69209,119.556497 Z M141.839548,118.799435 L222.280791,147.758192 L222.848023,147.962712 L166.141808,167.40452 L141.839548,118.799435 L141.839548,118.799435 Z" id="Fill-43" fill="#000000"></path>
                <path d="M48.6870056,183.253107 L102.220339,208.445763 L125.837853,173.80678 L48.6870056,183.253107 Z M47.1774011,183.011864 L126.715254,173.272316 L102.468362,208.833898 L102.367232,208.983051 L47.1774011,183.011864 L47.1774011,183.011864 Z" id="Fill-44" fill="#000000"></path>
                <path d="M64.3158192,242.227119 L113.197175,262.724859 L102.159322,209.113559 L64.3158192,242.227119 Z M63.5254237,242.355367 L102.427684,208.315819 L113.774576,263.427119 L63.5254237,242.355367 L63.5254237,242.355367 Z" id="Fill-45" fill="#000000"></path>
                <path d="M48.2559322,183.519209 L64.0367232,241.908475 L101.910169,208.768927 L48.2559322,183.519209 Z M47.7271186,183.187571 L47.6084746,182.745763 L102.384181,208.523164 L102.676836,208.660452 L63.8050847,242.674011 L47.7271186,183.187571 L47.7271186,183.187571 Z" id="Fill-46" fill="#000000"></path>
                <path d="M197.235593,223.058192 L241.263277,235.637288 L255.415254,196.327119 L197.235593,223.058192 Z M196.018644,223.150847 L256.155932,195.520339 L241.594915,235.967232 L241.527684,236.153672 L196.018644,223.150847 L196.018644,223.150847 Z" id="Fill-47" fill="#000000"></path>
                <path d="M185.898305,176.644068 L255.275706,195.564972 L222.163277,148.262147 L185.898305,176.644068 Z M184.972316,176.830508 L222.254802,147.653107 L256.294915,196.282486 L184.972316,176.830508 L184.972316,176.830508 Z" id="Fill-48" fill="#000000"></path>
                <path d="M151.338418,74.2813559 L126.666667,122.081921 L142.086441,118.99774 L151.338418,74.2813559 Z M152.379096,71.340113 L142.444633,119.358192 L125.886441,122.670056 L152.379096,71.340113 L152.379096,71.340113 Z" id="Fill-49" fill="#000000"></path>
                <path d="M142.70226,119.109605 L221.951412,147.639548 L210.856497,66.8056497 L142.70226,119.109605 Z M141.828814,119.245763 L211.177401,66.0254237 L222.466667,148.275141 L141.828814,119.245763 L141.828814,119.245763 Z" id="Fill-50" fill="#000000"></path>
                <path d="M92.6988701,93.8734463 L54.9463277,125.333898 L125.732203,122.188136 L92.6988701,93.8734463 Z M92.5649718,93.4333333 L92.7022599,93.3186441 L126.821469,122.563842 L53.7090395,125.812994 L92.5649718,93.4333333 L92.5649718,93.4333333 Z" id="Fill-51" fill="#000000"></path>
                <path d="M54.5,125.942938 L48.1723164,182.889831 L125.683616,173.39887 L54.5,125.942938 Z M54.1169492,125.550282 L54.1553672,125.203955 L126.870056,173.680226 L47.6920904,183.375141 L54.1169492,125.550282 L54.1169492,125.550282 Z" id="Fill-52" fill="#000000"></path>
                <path d="M93.1169492,93.6740113 L126.211299,122.040678 L151.425989,73.1875706 L93.1169492,93.6740113 Z M92.2841808,93.5180791 L151.788136,72.6107345 L152.291525,72.4338983 L126.464972,122.472881 L126.342373,122.710734 L92.2841808,93.5180791 L92.2841808,93.5180791 Z" id="Fill-53" fill="#000000"></path>
                <path d="M189.250282,258.248023 L230.064972,270.806215 L241.053672,236.270621 L189.250282,258.248023 Z M188.015254,258.311864 L241.312994,235.700565 L241.737288,235.520339 L230.341808,271.335028 L188.015254,258.311864 L188.015254,258.311864 Z" id="Fill-54" fill="#000000"></path>
                <path d="M241.518644,236.20678 L230.514689,270.790395 L283.962712,259.786441 L241.518644,236.20678 Z M241.272316,235.584181 L285.167797,259.970621 L229.89209,271.350847 L241.272316,235.584181 L241.272316,235.584181 Z" id="Fill-55" fill="#000000"></path>
                <path d="M211.345763,67.2548023 L222.342938,147.374576 L244.336723,114.384181 L211.345763,67.2548023 Z M210.688136,65.5757062 L244.849718,114.378531 L222.075141,148.540113 L210.688136,65.5757062 L210.688136,65.5757062 Z" id="Fill-56" fill="#000000"></path>
                <path d="M222.640113,148.203955 L255.776271,195.540678 L282.6,152.937853 L222.640113,148.203955 Z M221.777966,147.710734 L283.332203,152.570621 L255.794915,196.30678 L221.777966,147.710734 L221.777966,147.710734 Z" id="Fill-57" fill="#000000"></path>
                <path d="M64.1135593,242.601695 L60.959322,293.074576 L113.00904,263.10565 L64.1135593,242.601695 Z M63.7096045,242.277966 L63.7276836,241.980791 L113.962712,263.046328 L60.8293785,293.638418 L60.4875706,293.835028 L63.7096045,242.277966 L63.7096045,242.277966 Z" id="Fill-58" fill="#000000"></path>
                <path d="M105.622599,55.499435 L93.0384181,93.2531073 L151.241243,72.8028249 L105.622599,55.499435 Z M105.290395,55.1559322 L105.359887,54.9468927 L152.476271,72.8186441 L92.3627119,93.939548 L105.290395,55.1559322 L105.290395,55.1559322 Z" id="Fill-59" fill="#000000"></path>
                <path d="M51.3655367,100.169492 L54.4898305,125.162712 L91.979661,93.9214689 L51.3655367,100.169492 Z M50.8943503,99.8129944 L93.4214689,93.2706215 L54.1655367,125.984746 L50.8943503,99.8129944 L50.8943503,99.8129944 Z" id="Fill-60" fill="#000000"></path>
                <path d="M50.9774011,100.479661 L24.5033898,130.067797 L54.0920904,125.396045 L50.9774011,100.479661 Z M50.9723164,99.8502825 L51.2819209,99.5033898 L54.5632768,125.750847 L23.3943503,130.672316 L50.9723164,99.8502825 L50.9723164,99.8502825 Z" id="Fill-61" fill="#000000"></path>
                <g id="Group-67" transform="translate(0.000000, 66.101695)">
                    <mask id="mask-6" fill="white">
                        <use xlink:href="#path-5"></use>
                    </mask>
                    <g id="Clip-63"></g>
                    <path d="M19.4740113,96.2169492 L47.7615819,116.646328 L54.0480226,60.0706215 L19.4740113,96.2169492 Z M18.8316384,96.2751412 L54.6073446,58.8728814 L48.1028249,117.415254 L18.8316384,96.2751412 L18.8316384,96.2751412 Z" id="Fill-62" fill="#000000" mask="url(#mask-6)"></path>
                    <polyline id="Fill-64" fill="#000000" mask="url(#mask-6)" points="48.3429379 117.066102 0 140.618079 0 140.146893 47.520904 116.99548 19.2084746 96.5474576 0 125.816949 0 125.044633 19.0971751 95.9446328 48.3429379 117.066102"></polyline>
                    <path d="M152.035028,6.90282486 L142.588136,52.5615819 L210.288701,0.605649718 L152.035028,6.90282486 Z M151.682486,6.51525424 L211.745198,0.0220338983 L141.942938,53.5909605 L151.682486,6.51525424 L151.682486,6.51525424 Z" id="Fill-65" fill="#000000" mask="url(#mask-6)"></path>
                    <polyline id="Fill-66" fill="#000000" mask="url(#mask-6)" points="48.0570621 116.680791 64.1254237 176.134463 64.220904 176.489266 0 159.362712 0 158.924294 63.620339 175.889831 47.8067797 117.380791 0 151.528249 0 151.00791 47.8090395 116.858757 48.0570621 116.680791"></polyline>
                </g>
                <path d="M24.1355932,130.555367 L19.4610169,161.718644 L53.740678,125.880791 L24.1355932,130.555367 Z M23.7627119,130.184746 L54.9146893,125.266667 L19.3056497,162.493785 L18.8440678,162.976836 L23.7627119,130.184746 L23.7627119,130.184746 Z" id="Fill-68" fill="#000000"></path>
                <path d="M222.585876,147.774576 L282.410169,152.49774 L244.625989,114.714124 L222.585876,147.774576 Z M221.832768,148.140113 L244.560452,114.049153 L283.522599,153.010734 L221.832768,148.140113 L221.832768,148.140113 Z" id="Fill-69" fill="#000000"></path>
                <path d="M241.680791,235.728249 L279.385876,242.012429 L255.820339,196.452542 L241.680791,235.728249 Z M241.360452,236.10452 L241.110169,236.062712 L255.750847,195.39548 L280.150847,242.570056 L241.360452,236.10452 L241.360452,236.10452 Z" id="Fill-70" fill="#000000"></path>
                <path d="M50.1242938,31.7248588 L92.6338983,93.1271186 L105.228814,55.3412429 L50.1242938,31.7248588 Z M48.9378531,30.7553672 L105.574576,55.0282486 L105.754237,55.1050847 L92.7672316,94.0649718 L48.9378531,30.7553672 L48.9378531,30.7553672 Z" id="Fill-71" fill="#000000"></path>
                <path d="M201.768362,22.2446328 L211.162147,66.0813559 L234.646328,51.9903955 L201.768362,22.2446328 Z M201.079096,21.0491525 L235.142373,51.8683616 L235.354237,52.059887 L210.871751,66.7491525 L201.079096,21.0491525 L201.079096,21.0491525 Z" id="Fill-72" fill="#000000"></path>
                <path d="M211.40339,66.5977401 L244.09548,113.30113 L231.641243,65.0412429 L211.40339,66.5977401 Z M210.630508,66.2327684 L231.963277,64.5915254 L245.09096,115.461582 L210.630508,66.2327684 L210.630508,66.2327684 Z" id="Fill-73" fill="#000000"></path>
                <path d="M234.670621,52.4706215 L211.89548,66.1355932 L231.633898,64.6169492 L234.670621,52.4706215 Z M235.329944,51.580226 L231.970621,65.0158192 L210.138418,66.6954802 L235.329944,51.580226 L235.329944,51.580226 Z" id="Fill-74" fill="#000000"></path>
                <path d="M242.571186,236.306215 L284.228249,259.449718 L279.599435,242.477401 L242.571186,236.306215 Z M240.220339,235.485311 L279.802825,242.081921 L279.936723,242.10452 L284.901695,260.30791 L240.220339,235.485311 L240.220339,235.485311 Z" id="Fill-75" fill="#000000"></path>
                <g id="Group-81" transform="translate(0.000000, 20.903955)">
                    <mask id="mask-8" fill="white">
                        <use xlink:href="#path-7"></use>
                    </mask>
                    <g id="Clip-77"></g>
                    <path d="M201.3,1.17570621 L152.418644,51.6333333 L210.760452,45.3259887 L201.3,1.17570621 Z M201.547458,0.310169492 L211.273446,45.6966102 L151.29887,52.180226 L201.547458,0.310169492 L201.547458,0.310169492 Z" id="Fill-76" fill="#000000" mask="url(#mask-8)"></path>
                    <polyline id="Fill-78" fill="#000000" mask="url(#mask-8)" points="64.3774011 221.289831 4.62090395 269.740678 0 245.481356 0 243.216384 4.90451977 268.964972 63.4638418 221.484746 0 204.560452 0 204.122034 63.9751412 221.182486 64.3774011 221.289831"></polyline>
                    <path d="M105.935028,34.2610169 L151.6,51.5819209 L145.301695,5.91751412 L105.935028,34.2610169 Z M105.048023,34.3774011 L145.625424,5.16214689 L152.117514,52.2316384 L105.048023,34.3774011 L105.048023,34.3774011 Z" id="Fill-79" fill="#000000" mask="url(#mask-8)"></path>
                    <polyline id="Fill-80" fill="#000000" mask="url(#mask-8)" points="48.0553672 162.400565 0 196.725989 0 196.20565 45.7480226 163.528249 0 185.815819 0 185.344633 47.839548 162.038418 48.0553672 162.400565"></polyline>
                </g>
                <path d="M5.32146893,290.076271 L60.5254237,293.231073 L63.679096,242.759887 L5.32146893,290.076271 Z M4.75028249,290.468362 L4.20338983,290.437288 L64.1621469,241.822599 L60.9214689,293.677966 L4.75028249,290.468362 L4.75028249,290.468362 Z" id="Fill-82" fill="#000000"></path>
                <g id="Group-86" transform="translate(0.000000, 20.903955)">
                    <mask id="mask-10" fill="white">
                        <use xlink:href="#path-9"></use>
                    </mask>
                    <g id="Clip-84"></g>
                    <path d="M145.703955,5.73163842 L152.00904,51.4468927 L200.877401,1.00225989 L145.703955,5.73163842 Z M145.253672,5.56836158 L145.223164,5.34745763 L201.970056,0.483050847 L151.708475,52.3666667 L145.253672,5.56836158 L145.253672,5.56836158 Z" id="Fill-83" fill="#000000" mask="url(#mask-10)"></path>
                    <polyline id="Fill-85" fill="#000000" mask="url(#mask-10)" points="27.2186441 22.7559322 51.5333333 79.4909605 0 57.4050847 0 56.9440678 50.7265537 78.6841808 27.0751412 23.4983051 0 50.5740113 0 49.9740113 26.9966102 22.9774011 27.2186441 22.7559322"></polyline>
                </g>
                <path d="M49.759322,31.9418079 L51.3361582,99.7451977 L92.3338983,93.4384181 L49.759322,31.9418079 Z M49.3028249,30.5384181 L92.8751412,93.4757062 L93.0677966,93.7536723 L50.9237288,100.237288 L49.3028249,30.5384181 L49.3028249,30.5384181 Z" id="Fill-87" fill="#000000"></path>
                <g id="Group-91" transform="translate(0.000000, 30.508475)">
                    <mask id="mask-12" fill="white">
                        <use xlink:href="#path-11"></use>
                    </mask>
                    <g id="Clip-89"></g>
                    <path d="M27.4158192,13.6129944 L50.8926554,68.3915254 L49.3276836,1.0920904 L27.4158192,13.6129944 Z M26.8774011,13.4322034 L49.7344633,0.371186441 L51.3672316,70.5745763 L26.8774011,13.4322034 L26.8774011,13.4322034 Z" id="Fill-88" fill="#000000" mask="url(#mask-12)"></path>
                    <polyline id="Fill-90" fill="#000000" mask="url(#mask-12)" points="51.4847458 69.4045198 24.1067797 100.002825 23.9045198 100.229379 0 55.0768362 0 54.1711864 23.9937853 99.4937853 50.7751412 69.5615819 0 47.800565 0 47.340113 51.2129944 69.2881356 51.4847458 69.4045198"></polyline>
                </g>
                <path d="M256.080791,195.851977 L285.458192,213.177966 L282.784746,153.440113 L256.080791,195.851977 Z M255.489831,195.99548 L283.147458,152.068362 L285.916384,213.940678 L255.489831,195.99548 L255.489831,195.99548 Z" id="Fill-92" fill="#000000"></path>
                <path d="M256.311864,196.480226 L279.681921,241.662147 L285.449153,213.664407 L256.311864,196.480226 Z M255.259322,195.367797 L285.794915,213.376836 L285.925424,213.454237 L279.975706,242.333898 L279.844633,242.9 L255.259322,195.367797 L255.259322,195.367797 Z" id="Fill-93" fill="#000000"></path>
                <path d="M285.792655,214.09887 L280.20904,241.20113 L291.743503,223.025424 L285.792655,214.09887 Z M285.581921,213.019774 L292.249153,223.019774 L279.327684,243.381356 L285.581921,213.019774 L285.581921,213.019774 Z" id="Fill-94" fill="#000000"></path>
                <path d="M279.997175,242.325989 L284.533898,258.959887 L291.562712,224.10113 L279.997175,242.325989 Z M279.539548,242.256497 L292.429944,221.944068 L284.596045,260.797175 L279.539548,242.256497 L279.539548,242.256497 Z" id="Fill-95" fill="#000000"></path>
                <polyline id="Fill-96" fill="#000000" points="292.00226 221.919774 300 264.023164 300 266.293785 291.990395 224.125424 284.790395 259.834463 300 282.70339 300 283.468362 284.340113 259.923164 292.00226 221.919774"></polyline>
                <polyline id="Fill-97" fill="#000000" points="282.741808 152.474576 300 157.115254 300 157.554237 283.19096 153.033898 285.869492 212.89548 300 191.372316 300 192.144633 285.505085 214.223164 282.741808 152.474576"></polyline>
                <polyline id="Fill-98" fill="#000000" points="300 143.214124 300 143.697175 283.531638 152.687006 300 157.115254 300 157.554237 282.400565 152.821469 300 143.214124"></polyline>
                <polyline id="Fill-99" fill="#000000" points="295.088136 75.3768362 300 84.6497175 300 85.5548023 295.307345 76.6954802 283.243503 152.361582 300 143.214124 300 143.697175 282.688701 153.146893 295.088136 75.3768362"></polyline>
                <path d="M244.915254,114.40339 L282.822599,152.310734 L294.90565,76.5231638 L244.915254,114.40339 Z M244.271751,114.359322 L295.489831,75.5485876 L283.109605,153.19774 L244.271751,114.359322 L244.271751,114.359322 Z" id="Fill-100" fill="#000000"></path>
                <path d="M232.089831,65.0824859 L244.718644,114.020339 L294.683051,76.159887 L232.089831,65.0824859 Z M231.514689,64.5502825 L295.712429,75.9118644 L244.721469,114.550282 L244.467797,114.742373 L231.514689,64.5502825 L231.514689,64.5502825 Z" id="Fill-101" fill="#000000"></path>
                <polyline id="Fill-102" fill="#000000" points="230.706215 64.8378531 300 49.7881356 300 50.2214689 232.898305 64.7954802 295.125989 75.8079096 300 70.9338983 300 71.5333333 295.269492 76.2638418 230.706215 64.8378531"></polyline>
                <polyline id="Fill-103" fill="#000000" points="231.514124 65.0960452 234.831073 51.8271186 300 46.2310734 300 46.6564972 235.168927 52.2231638 232.090395 64.5367232 300 49.7881356 300 50.2214689 231.847458 65.0237288 231.514124 65.0960452"></polyline>
                <polyline id="Fill-104" fill="#000000" points="293.437288 0 294.076836 0 235.619774 51.759322 300 46.2310734 300 46.6564972 234.380226 52.2915254 293.437288 0"></polyline>
                <polyline id="Fill-105" fill="#000000" points="262.748588 0 263.229379 0 235.750282 51.0779661 293.437288 0 294.076836 0 234.250282 52.9728814 262.748588 0"></polyline>
                <polyline id="Fill-106" fill="#000000" points="201.090395 21.6310734 230.211299 0 230.921469 0 201.757062 21.6627119 234.941808 51.6870056 262.748588 0 263.229944 0 235.058757 52.3638418 201.090395 21.6310734"></polyline>
                <polyline id="Fill-107" fill="#000000" points="213.497175 0 213.984746 0 202.106215 20.8762712 230.210734 0 230.921469 0 200.741808 22.4175141 213.497175 0"></polyline>
                <polyline id="Fill-108" fill="#000000" points="201.553107 21.8485876 144.643503 26.7265537 185.540113 0 186.314689 0 146.283616 26.160452 201.294915 21.4451977 213.497175 0 213.984746 0 201.60791 21.7514124 201.553107 21.8485876"></polyline>
                <polyline id="Fill-109" fill="#000000" points="161.962147 0 162.463842 0 146.164972 25.7322034 185.540113 0 186.314689 0 144.762147 27.1548023 161.962147 0"></polyline>
                <polyline id="Fill-110" fill="#000000" points="145.268927 26.359887 156.587006 0 157.048023 0 146.70678 24.0841808 161.962147 0 162.463842 0 145.642373 26.5570621 145.268927 26.359887"></polyline>
                <polyline id="Fill-111" fill="#000000" points="49.8887006 31.279661 27.0435028 44.3344633 8.59152542 0 9.05028249 0 27.2497175 43.7276836 49.1734463 31.200565 15.0949153 0 15.7225989 0 49.6740113 31.0841808 49.8887006 31.279661"></polyline>
                <polyline id="Fill-112" fill="#000000" points="145.733898 26.5096045 105.240113 55.6649718 110.071751 0 110.497175 0 105.742373 54.7813559 145.192655 26.3774011 131.884181 0 132.358192 0 145.652542 26.3480226 145.733898 26.5096045"></polyline>
                <polyline id="Fill-113" fill="#000000" points="131.883616 0 132.358192 0 145.448023 25.9423729 156.587571 0 157.048023 0 145.479096 26.9446328 131.883616 0"></polyline>
                <polyline id="Fill-114" fill="#000000" points="49.1694915 31.3158192 78.5525424 0 79.1333333 0 49.8926554 31.1644068 105.30565 54.9129944 110.072316 0 110.497175 0 105.677401 55.5333333 49.1694915 31.3158192"></polyline>
                <polyline id="Fill-115" fill="#000000" points="49.0745763 32.0361582 58.5531073 0 58.9949153 0 49.9870056 30.4440678 78.5525424 0 79.1333333 0 49.6853107 31.3847458 49.0745763 32.0361582"></polyline>
                <polyline id="Fill-116" fill="#000000" points="15.0954802 0 15.7225989 0 49.4237288 30.8548023 58.5525424 0 58.9949153 0 49.6378531 31.6254237 15.0954802 0"></polyline>
                <polyline id="Fill-117" fill="#000000" points="300 191.146328 300 191.918079 286.176271 212.983051 300 206.248588 300 206.720339 284.976836 214.039548 300 191.146328"></polyline>
                <polyline id="Fill-118" fill="#000000" points="300 217.109605 300 217.629944 292.460452 223.015254 300 225.025989 300 225.464407 291.483051 223.19322 300 217.109605"></polyline>
                <polyline id="Fill-119" fill="#000000" points="300 225.025424 300 225.464972 292.242938 223.396045 300 264.120339 300 266.384181 291.700565 222.812429 300 225.025424"></polyline>
                <polyline id="Fill-120" fill="#000000" points="291.916949 223.403955 285.265537 213.427119 300 206.248588 300 206.720339 285.887571 213.596045 292.026554 222.80452 300 217.109605 300 217.629944 292.094915 223.276271 291.916949 223.403955"></polyline>
                <polyline id="Fill-121" fill="#000000" points="300 70.8785311 300 71.4779661 295.540678 75.9372881 300 77.8480226 300 78.3090395 294.798305 76.080226 300 70.8785311"></polyline>
                <polyline id="Fill-122" fill="#000000" points="300 77.8485876 300 78.3090395 295.637288 76.439548 300 84.679661 300 85.5853107 294.701695 75.5779661 300 77.8485876"></polyline>
                <path d="M7.14519774,290.447458 C7.14519774,291.724294 6.11016949,292.759887 4.83333333,292.759887 C3.55649718,292.759887 2.52146893,291.724294 2.52146893,290.447458 C2.52146893,289.170621 3.55649718,288.135593 4.83333333,288.135593 C6.11016949,288.135593 7.14519774,289.170621 7.14519774,290.447458" id="Fill-123" fill="#000000"></path>
                <path d="M66.3553672,242.460452 C66.3553672,243.737288 65.320339,244.772881 64.0429379,244.772881 C62.7661017,244.772881 61.7310734,243.737288 61.7310734,242.460452 C61.7310734,241.183616 62.7661017,240.148588 64.0429379,240.148588 C65.320339,240.148588 66.3553672,241.183616 66.3553672,242.460452" id="Fill-124" fill="#000000"></path>
                <path d="M63.2717514,293.074576 C63.2717514,294.351412 62.2367232,295.386441 60.959322,295.386441 C59.6824859,295.386441 58.6474576,294.351412 58.6474576,293.074576 C58.6474576,291.79774 59.6824859,290.762712 60.959322,290.762712 C62.2367232,290.762712 63.2717514,291.79774 63.2717514,293.074576" id="Fill-125" fill="#000000"></path>
                <path d="M115.948588,263.270056 C115.948588,264.546893 114.913559,265.582486 113.636723,265.582486 C112.359887,265.582486 111.324294,264.546893 111.324294,263.270056 C111.324294,261.99322 112.359887,260.958192 113.636723,260.958192 C114.913559,260.958192 115.948588,261.99322 115.948588,263.270056" id="Fill-126" fill="#000000"></path>
                <path d="M152.623729,215.059322 C152.623729,216.336158 151.588701,217.371751 150.311864,217.371751 C149.035028,217.371751 148,216.336158 148,215.059322 C148,213.782486 149.035028,212.747458 150.311864,212.747458 C151.588701,212.747458 152.623729,213.782486 152.623729,215.059322" id="Fill-127" fill="#000000"></path>
                <path d="M104.789266,208.844633 C104.789266,210.121469 103.754237,211.157062 102.477401,211.157062 C101.200565,211.157062 100.165537,210.121469 100.165537,208.844633 C100.165537,207.567797 101.200565,206.532768 102.477401,206.532768 C103.754237,206.532768 104.789266,207.567797 104.789266,208.844633" id="Fill-128" fill="#000000"></path>
                <path d="M175.222599,263.081921 C175.222599,264.358757 174.187571,265.39435 172.910734,265.39435 C171.633898,265.39435 170.59887,264.358757 170.59887,263.081921 C170.59887,261.805085 171.633898,260.770056 172.910734,260.770056 C174.187571,260.770056 175.222599,261.805085 175.222599,263.081921" id="Fill-129" fill="#000000"></path>
                <path d="M191.229944,258.185876 C191.229944,259.462712 190.194915,260.49774 188.918079,260.49774 C187.641243,260.49774 186.606215,259.462712 186.606215,258.185876 C186.606215,256.90904 187.641243,255.873446 188.918079,255.873446 C190.194915,255.873446 191.229944,256.90904 191.229944,258.185876" id="Fill-130" fill="#000000"></path>
                <path d="M50.2824859,183.050847 C50.2824859,184.327684 49.2474576,185.362712 47.9706215,185.362712 C46.6937853,185.362712 45.6581921,184.327684 45.6581921,183.050847 C45.6581921,181.774011 46.6937853,180.738983 47.9706215,180.738983 C49.2474576,180.738983 50.2824859,181.774011 50.2824859,183.050847" id="Fill-131" fill="#000000"></path>
                <path d="M199.139548,222.875141 C199.139548,224.151977 198.10452,225.187006 196.827684,225.187006 C195.550847,225.187006 194.515819,224.151977 194.515819,222.875141 C194.515819,221.598305 195.550847,220.562712 196.827684,220.562712 C198.10452,220.562712 199.139548,221.598305 199.139548,222.875141" id="Fill-132" fill="#000000"></path>
                <path d="M21.8169492,162.159887 C22.0175141,163.420904 21.1581921,164.60565 19.8971751,164.80678 C18.6361582,165.00791 17.4514124,164.148023 17.2502825,162.887571 C17.0491525,161.626554 17.9090395,160.441243 19.1694915,160.240113 C20.4305085,160.039548 21.6158192,160.89887 21.8169492,162.159887" id="Fill-133" fill="#000000"></path>
                <path d="M56.8118644,125.942938 C56.8118644,127.219774 55.7768362,128.254802 54.5,128.254802 C53.2231638,128.254802 52.1875706,127.219774 52.1875706,125.942938 C52.1875706,124.666102 53.2231638,123.631073 54.5,123.631073 C55.7768362,123.631073 56.8118644,124.666102 56.8118644,125.942938" id="Fill-134" fill="#000000"></path>
                <path d="M26.2163842,130.737853 C26.2163842,132.014689 25.1813559,133.050282 23.9045198,133.050282 C22.6271186,133.050282 21.5920904,132.014689 21.5920904,130.737853 C21.5920904,129.461017 22.6271186,128.425989 23.9045198,128.425989 C25.1813559,128.425989 26.2163842,129.461017 26.2163842,130.737853" id="Fill-135" fill="#000000"></path>
                <path d="M53.6723164,99.8118644 C53.6723164,101.088701 52.6372881,102.123729 51.360452,102.123729 C50.0836158,102.123729 49.0480226,101.088701 49.0480226,99.8118644 C49.0480226,98.5350282 50.0836158,97.499435 51.360452,97.499435 C52.6372881,97.499435 53.6723164,98.5350282 53.6723164,99.8118644" id="Fill-136" fill="#000000"></path>
                <path d="M95.0819209,93.3152542 C95.0819209,94.5920904 94.0468927,95.6276836 92.7700565,95.6276836 C91.4932203,95.6276836 90.4581921,94.5920904 90.4581921,93.3152542 C90.4581921,92.0384181 91.4932203,91.0033898 92.7700565,91.0033898 C94.0468927,91.0033898 95.0819209,92.0384181 95.0819209,93.3152542" id="Fill-137" fill="#000000"></path>
                <path d="M52.1655367,31.6384181 C52.1655367,32.9152542 51.1305085,33.9502825 49.8536723,33.9502825 C48.5768362,33.9502825 47.5418079,32.9152542 47.5418079,31.6384181 C47.5418079,30.3615819 48.5768362,29.3265537 49.8536723,29.3265537 C51.1305085,29.3265537 52.1655367,30.3615819 52.1655367,31.6384181" id="Fill-138" fill="#000000"></path>
                <path d="M29.5666667,43.879661 C29.5666667,45.1564972 28.5316384,46.1915254 27.2548023,46.1915254 C25.9779661,46.1915254 24.9429379,45.1564972 24.9429379,43.879661 C24.9429379,42.6028249 25.9779661,41.5672316 27.2548023,41.5672316 C28.5316384,41.5672316 29.5666667,42.6028249 29.5666667,43.879661" id="Fill-139" fill="#000000"></path>
                <path d="M107.934463,54.9344633 C107.934463,56.2118644 106.899435,57.2468927 105.622599,57.2468927 C104.345763,57.2468927 103.310734,56.2118644 103.310734,54.9344633 C103.310734,53.6576271 104.345763,52.6225989 105.622599,52.6225989 C106.899435,52.6225989 107.934463,53.6576271 107.934463,54.9344633" id="Fill-140" fill="#000000"></path>
                <path d="M147.790395,26.3485876 C147.790395,27.6259887 146.754802,28.6610169 145.477966,28.6610169 C144.20113,28.6610169 143.166102,27.6259887 143.166102,26.3485876 C143.166102,25.0717514 144.20113,24.0367232 145.477966,24.0367232 C146.754802,24.0367232 147.790395,25.0717514 147.790395,26.3485876" id="Fill-141" fill="#000000"></path>
                <path d="M153.911864,73.1757062 C153.911864,74.4525424 152.876836,75.4875706 151.6,75.4875706 C150.323164,75.4875706 149.288136,74.4525424 149.288136,73.1757062 C149.288136,71.8988701 150.323164,70.8638418 151.6,70.8638418 C152.876836,70.8638418 153.911864,71.8988701 153.911864,73.1757062" id="Fill-142" fill="#000000"></path>
                <path d="M204.080791,22.2446328 C204.080791,23.5214689 203.045763,24.5564972 201.768362,24.5564972 C200.491525,24.5564972 199.456497,23.5214689 199.456497,22.2446328 C199.456497,20.9672316 200.491525,19.9322034 201.768362,19.9322034 C203.045763,19.9322034 204.080791,20.9672316 204.080791,22.2446328" id="Fill-143" fill="#000000"></path>
                <path d="M237.716949,51.9774011 C237.716949,53.2542373 236.681921,54.2892655 235.405085,54.2892655 C234.128249,54.2892655 233.092655,53.2542373 233.092655,51.9774011 C233.092655,50.700565 234.128249,49.6655367 235.405085,49.6655367 C236.681921,49.6655367 237.716949,50.700565 237.716949,51.9774011" id="Fill-144" fill="#000000"></path>
                <path d="M234.840113,64.7836158 C234.840113,66.060452 233.80452,67.0954802 232.527684,67.0954802 C231.250847,67.0954802 230.215819,66.060452 230.215819,64.7836158 C230.215819,63.5067797 231.250847,62.4711864 232.527684,62.4711864 C233.80452,62.4711864 234.840113,63.5067797 234.840113,64.7836158" id="Fill-145" fill="#000000"></path>
                <path d="M213.715254,66.5977401 C213.715254,67.8751412 212.680226,68.9101695 211.40339,68.9101695 C210.126554,68.9101695 209.091525,67.8751412 209.091525,66.5977401 C209.091525,65.320904 210.126554,64.2858757 211.40339,64.2858757 C212.680226,64.2858757 213.715254,65.320904 213.715254,66.5977401" id="Fill-146" fill="#000000"></path>
                <path d="M246.938418,114.149153 C246.938418,115.425989 245.902825,116.461017 244.625989,116.461017 C243.349153,116.461017 242.314124,115.425989 242.314124,114.149153 C242.314124,112.871751 243.349153,111.836723 244.625989,111.836723 C245.902825,111.836723 246.938418,112.871751 246.938418,114.149153" id="Fill-147" fill="#000000"></path>
                <path d="M297.619209,76.6954802 C297.619209,77.9723164 296.584181,79.0073446 295.307345,79.0073446 C294.030508,79.0073446 292.99548,77.9723164 292.99548,76.6954802 C292.99548,75.4180791 294.030508,74.3830508 295.307345,74.3830508 C296.584181,74.3830508 297.619209,75.4180791 297.619209,76.6954802" id="Fill-148" fill="#000000"></path>
                <path d="M284.810734,154.131638 C284.087571,155.184181 282.648023,155.451412 281.596045,154.728249 C280.543503,154.005085 280.276271,152.565537 280.999435,151.512994 C281.722599,150.460452 283.162147,150.193785 284.214689,150.916949 C285.266667,151.640113 285.533898,153.079661 284.810734,154.131638" id="Fill-149" fill="#000000"></path>
                <path d="M224.670621,147.834463 C224.670621,149.111299 223.635028,150.146328 222.358192,150.146328 C221.081356,150.146328 220.046328,149.111299 220.046328,147.834463 C220.046328,146.557627 221.081356,145.522034 222.358192,145.522034 C223.635028,145.522034 224.670621,146.557627 224.670621,147.834463" id="Fill-150" fill="#000000"></path>
                <path d="M187.758757,177.024294 C187.758757,178.30113 186.723729,179.336723 185.446893,179.336723 C184.170056,179.336723 183.135028,178.30113 183.135028,177.024294 C183.135028,175.747458 184.170056,174.712429 185.446893,174.712429 C186.723729,174.712429 187.758757,175.747458 187.758757,177.024294" id="Fill-151" fill="#000000"></path>
                <path d="M168.549718,167.419774 C168.549718,168.69661 167.514689,169.732203 166.237853,169.732203 C164.961017,169.732203 163.925989,168.69661 163.925989,167.419774 C163.925989,166.142938 164.961017,165.10791 166.237853,165.10791 C167.514689,165.10791 168.549718,166.142938 168.549718,167.419774" id="Fill-152" fill="#000000"></path>
                <path d="M257.727119,196.327119 C257.727119,197.603955 256.69209,198.638983 255.415254,198.638983 C254.137853,198.638983 253.102825,197.603955 253.102825,196.327119 C253.102825,195.050282 254.137853,194.015254 255.415254,194.015254 C256.69209,194.015254 257.727119,195.050282 257.727119,196.327119" id="Fill-153" fill="#000000"></path>
                <path d="M288.210734,213.549718 C288.210734,214.826554 287.175706,215.862147 285.89887,215.862147 C284.622034,215.862147 283.587006,214.826554 283.587006,213.549718 C283.587006,212.272881 284.622034,211.237853 285.89887,211.237853 C287.175706,211.237853 288.210734,212.272881 288.210734,213.549718" id="Fill-154" fill="#000000"></path>
                <path d="M294.425424,223.154237 C294.425424,224.431073 293.390395,225.466667 292.113559,225.466667 C290.836723,225.466667 289.801695,224.431073 289.801695,223.154237 C289.801695,221.877401 290.836723,220.842373 292.113559,220.842373 C293.390395,220.842373 294.425424,221.877401 294.425424,223.154237" id="Fill-155" fill="#000000"></path>
                <path d="M243.577966,236.148588 C243.577966,237.425424 242.542938,238.461017 241.266102,238.461017 C239.989266,238.461017 238.954237,237.425424 238.954237,236.148588 C238.954237,234.871751 239.989266,233.836723 241.266102,233.836723 C242.542938,233.836723 243.577966,234.871751 243.577966,236.148588" id="Fill-156" fill="#000000"></path>
                <path d="M286.694915,259.786441 C286.694915,261.063277 285.659887,262.09887 284.382486,262.09887 C283.10565,262.09887 282.070621,261.063277 282.070621,259.786441 C282.070621,258.509605 283.10565,257.474576 284.382486,257.474576 C285.659887,257.474576 286.694915,258.509605 286.694915,259.786441" id="Fill-157" fill="#000000"></path>
                <path d="M232.654802,271.251412 C232.654802,272.528249 231.619774,273.563277 230.342938,273.563277 C229.065537,273.563277 228.030508,272.528249 228.030508,271.251412 C228.030508,269.974576 229.065537,268.939548 230.342938,268.939548 C231.619774,268.939548 232.654802,269.974576 232.654802,271.251412" id="Fill-158" fill="#000000"></path>
                <path d="M128.405085,173.645763 C128.405085,174.922599 127.370056,175.957627 126.09322,175.957627 C124.815819,175.957627 123.780791,174.922599 123.780791,173.645763 C123.780791,172.368362 124.815819,171.333333 126.09322,171.333333 C127.370056,171.333333 128.405085,172.368362 128.405085,173.645763" id="Fill-159" fill="#000000"></path>
                <path d="M144.628814,119.754237 C144.628814,121.031073 143.593785,122.066102 142.316949,122.066102 C141.040113,122.066102 140.005085,121.031073 140.005085,119.754237 C140.005085,118.477401 141.040113,117.441808 142.316949,117.441808 C143.593785,117.441808 144.628814,118.477401 144.628814,119.754237" id="Fill-160" fill="#000000"></path>
                <path d="M128.800565,122.549718 C128.800565,123.826554 127.765537,124.861582 126.488701,124.861582 C125.211864,124.861582 124.176836,123.826554 124.176836,122.549718 C124.176836,121.272316 125.211864,120.237288 126.488701,120.237288 C127.765537,120.237288 128.800565,121.272316 128.800565,122.549718" id="Fill-161" fill="#000000"></path>
            </g>
        </g>
    </g>
</svg>