<svg width="1350" height="760" viewBox="0 0 1350 760" fill="none" xmlns="http://www.w3.org/2000/svg">
  <g clip-path="url(#clip0)">
    <g clip-path="url(#clip1)">
      <path d="M91.325 22.617H93.1c-.035-1.72-1.502-2.938-3.67-2.938-2.137 0-3.743 1.203-3.738 3.003 0 1.462 1.039 2.302 2.714 2.734l1.159.299c1.099.278 1.824.62 1.83 1.411-.006.87-.83 1.452-2.034 1.452-1.153 0-2.048-.517-2.123-1.586h-1.814c.074 2.024 1.58 3.162 3.952 3.162 2.44 0 3.858-1.218 3.863-3.013-.005-1.765-1.462-2.57-2.993-2.933l-.955-.238c-.835-.2-1.74-.552-1.73-1.402.005-.766.691-1.328 1.845-1.328 1.098 0 1.824.512 1.919 1.377zm6.81 7.532c2.237 0 3.659-1.576 3.659-3.937 0-2.367-1.422-3.948-3.66-3.948-2.237 0-3.659 1.581-3.659 3.948 0 2.361 1.422 3.937 3.66 3.937zm.01-1.442c-1.238 0-1.845-1.103-1.845-2.5s.607-2.516 1.844-2.516c1.219 0 1.825 1.119 1.825 2.516s-.606 2.5-1.825 2.5zm10.043-1.919c0 1.164-.83 1.74-1.625 1.74-.865 0-1.442-.611-1.442-1.58v-4.584h-1.8v4.862c0 1.834 1.044 2.873 2.546 2.873 1.143 0 1.949-.601 2.297-1.456h.079V30h1.745v-7.636h-1.8v4.424zM111.839 30h1.799v-4.49c0-.969.731-1.655 1.721-1.655.303 0 .681.055.835.104v-1.655a4.316 4.316 0 00-.646-.05c-.875 0-1.606.497-1.885 1.382h-.079v-1.272h-1.745V30zm8.567.15c1.919 0 3.142-1.14 3.271-2.76h-1.72c-.154.82-.746 1.293-1.536 1.293-1.124 0-1.849-.94-1.849-2.501 0-1.541.74-2.466 1.849-2.466.865 0 1.397.557 1.536 1.293h1.72c-.124-1.656-1.417-2.745-3.281-2.745-2.237 0-3.649 1.616-3.649 3.948 0 2.311 1.377 3.937 3.659 3.937zm8.13 0c1.78 0 3.003-.87 3.321-2.198l-1.681-.19c-.243.647-.84.985-1.615.985-1.164 0-1.934-.765-1.949-2.073h5.319v-.552c0-2.68-1.61-3.858-3.49-3.858-2.187 0-3.614 1.606-3.614 3.963 0 2.396 1.407 3.922 3.709 3.922zm-1.919-4.69c.055-.974.775-1.794 1.849-1.794 1.034 0 1.73.756 1.74 1.795h-3.589zm12.873-1.078c-.249-1.293-1.283-2.118-3.073-2.118-1.839 0-3.092.905-3.087 2.317-.005 1.114.681 1.85 2.147 2.153l1.303.273c.701.154 1.029.438 1.029.87 0 .522-.567.915-1.422.915-.825 0-1.362-.358-1.516-1.044l-1.755.169c.224 1.402 1.402 2.232 3.276 2.232 1.909 0 3.257-.99 3.262-2.436-.005-1.089-.706-1.755-2.148-2.068l-1.303-.279c-.775-.174-1.084-.442-1.079-.884-.005-.517.567-.875 1.318-.875.83 0 1.268.452 1.407.954l1.641-.179z" fill="black"/>
      <path fill-rule="evenodd" clip-rule="evenodd" d="M112 109c11.046 0 20-8.954 20-20s-8.954-20-20-20-20 8.954-20 20 8.954 20 20 20zm0-5c8.284 0 15-6.716 15-15 0-8.284-6.716-15-15-15-8.284 0-15 6.716-15 15 0 8.284 6.716 15 15 15z" fill="#26CEE6"/>
      <path d="M102.983 91.034h2.809V92h1.344v-.966h.696v-1.108h-.696v-3.744h-1.77l-2.383 3.755v1.097zm2.838-1.108h-1.44v-.045l1.394-2.21h.046v2.255zm3.486 2.156c.39 0 .733-.33.739-.738a.75.75 0 00-.739-.73.73.73 0 00-.738.73.733.733 0 00.738.738zm1.645-.082h4.307v-1.133h-2.358v-.038l.696-.641c1.262-1.1 1.591-1.66 1.591-2.327 0-1.049-.855-1.759-2.176-1.759-1.287 0-2.148.742-2.145 1.926h1.332c0-.525.324-.83.807-.83.475 0 .818.294.818.774 0 .434-.272.73-.75 1.159l-2.122 1.858V92zm5.113 0h1.389v-1.31l.282-.34 1.039 1.65h1.606l-1.611-2.463 1.548-1.9h-1.574l-1.227 1.562h-.063v-3.017h-1.389V92zM89.109 120.545h-1.09V130h1.09v-9.455zm4.876 9.603c1.92 0 3.213-1.459 3.213-3.657 0-2.215-1.293-3.674-3.213-3.674-1.92 0-3.213 1.459-3.213 3.674 0 2.198 1.292 3.657 3.213 3.657zm0-.979c-1.46 0-2.124-1.256-2.124-2.678 0-1.421.665-2.696 2.124-2.696s2.123 1.275 2.123 2.696c0 1.422-.665 2.678-2.123 2.678zm7.738 3.638c1.699 0 3.065-.776 3.065-2.604v-7.294h-1.052v1.127h-.111c-.24-.37-.683-1.219-2.068-1.219-1.791 0-3.029 1.422-3.029 3.601 0 2.216 1.293 3.471 3.01 3.471 1.385 0 1.828-.812 2.069-1.2h.092v1.44c0 1.182-.831 1.718-1.976 1.718-1.288 0-1.74-.679-2.031-1.071l-.868.609c.443.743 1.316 1.422 2.899 1.422zm-.037-3.896c-1.366 0-2.068-1.035-2.068-2.512 0-1.44.683-2.604 2.068-2.604 1.33 0 2.031 1.071 2.031 2.604 0 1.57-.72 2.512-2.031 2.512zm9.159-3.472h-4.136v1.016h4.136v-1.016zm5.075-2.53h-1.588v-.72c0-.702.295-1.071 1.015-1.071.314 0 .499.074.61.111l.314-.942c-.166-.074-.499-.185-1.034-.185-1.016 0-1.995.61-1.995 1.828v.979h-1.145v.923h1.145V130h1.09v-6.168h1.588v-.923zm1.527 7.091h1.089v-7.091h-1.089V130zm.554-8.273c.424 0 .775-.332.775-.738 0-.407-.351-.739-.775-.739-.425 0-.776.332-.776.739 0 .406.351.738.776.738zm3.62-1.182h-1.089V130h1.089v-9.455zm4.969 9.603c1.44 0 2.493-.72 2.825-1.791l-1.053-.296c-.277.739-.918 1.108-1.772 1.108-1.279 0-2.161-.826-2.212-2.345h5.148v-.462c0-2.64-1.57-3.545-3.047-3.545-1.921 0-3.195 1.514-3.195 3.693 0 2.179 1.256 3.638 3.306 3.638zm-2.212-4.266c.074-1.103.854-2.087 2.101-2.087 1.182 0 1.939.887 1.939 2.087h-4.04zm11.828-1.385c-.342-1.006-1.108-1.68-2.512-1.68-1.495 0-2.603.849-2.603 2.049 0 .979.581 1.635 1.883 1.939l1.182.277c.716.167 1.053.508 1.053.998 0 .609-.647 1.108-1.662 1.108-.891 0-1.45-.384-1.644-1.145l-1.034.258c.254 1.205 1.247 1.847 2.696 1.847 1.648 0 2.77-.9 2.77-2.124 0-.988-.619-1.611-1.883-1.92l-1.053-.259c-.84-.208-1.219-.489-1.219-1.034 0-.609.647-1.052 1.514-1.052.951 0 1.344.526 1.533 1.015l.979-.277z" fill="black"/>
      <path fill-rule="evenodd" clip-rule="evenodd" d="M112 589c11.046 0 20-8.954 20-20s-8.954-20-20-20-20 8.954-20 20 8.954 20 20 20zm0-5c8.284 0 15-6.716 15-15 0-8.284-6.716-15-15-15-8.284 0-15 6.716-15 15 0 8.284 6.716 15 15 15z" fill="#26CEE6"/>
      <path d="M106.355 572.08c1.355 0 2.259-.853 2.259-2.052 0-1.108-.773-1.897-1.818-1.897-.551 0-1.009.235-1.202.557h-.034l.133-1.373h2.577v-1.133h-3.733l-.253 3.136 1.242.233c.156-.261.48-.423.821-.42.534 0 .915.378.912.937.003.557-.372.932-.904.932-.451 0-.824-.281-.843-.71h-1.364c.017 1.045.935 1.79 2.207 1.79zm5.437.062c1.523.003 2.458-1.122 2.46-3.043.003-1.909-.937-2.997-2.46-2.997s-2.454 1.086-2.457 2.997c-.006 1.915.934 3.043 2.457 3.043zm0-1.151c-.605 0-1.017-.607-1.011-1.892.003-1.258.409-1.855 1.011-1.855.605 0 1.012.597 1.014 1.855.003 1.285-.406 1.892-1.014 1.892zm5.672 1.151c1.523.003 2.457-1.122 2.46-3.043.003-1.909-.937-2.997-2.46-2.997s-2.455 1.086-2.457 2.997c-.006 1.915.934 3.043 2.457 3.043zm0-1.151c-.605 0-1.017-.607-1.011-1.892.002-1.258.409-1.855 1.011-1.855.605 0 1.011.597 1.014 1.855.003 1.285-.406 1.892-1.014 1.892zM70.076 604.497c-.342-1.006-1.108-1.68-2.511-1.68-1.496 0-2.604.849-2.604 2.049 0 .979.582 1.635 1.883 1.939l1.182.277c.716.167 1.053.508 1.053.998 0 .609-.646 1.108-1.662 1.108-.891 0-1.45-.384-1.644-1.145l-1.034.258c.254 1.205 1.247 1.847 2.696 1.847 1.648 0 2.77-.9 2.77-2.124 0-.988-.618-1.611-1.883-1.92l-1.053-.259c-.84-.208-1.219-.489-1.219-1.034 0-.609.647-1.052 1.515-1.052.95 0 1.343.526 1.532 1.015l.979-.277zm2.47 8.162c.984 0 1.677-.522 2.087-1.625l3.02-8.106-1.191-.019-1.958 5.651h-.074l-1.957-5.651h-1.182l2.622 7.128-.203.554c-.397 1.08-.886 1.182-1.68.979l-.277.96c.11.055.425.129.794.129zm11.57-8.162c-.34-1.006-1.107-1.68-2.51-1.68-1.496 0-2.604.849-2.604 2.049 0 .979.582 1.635 1.883 1.939l1.182.277c.716.167 1.053.508 1.053.998 0 .609-.647 1.108-1.662 1.108-.891 0-1.45-.384-1.644-1.145l-1.034.258c.254 1.205 1.247 1.847 2.696 1.847 1.648 0 2.77-.9 2.77-2.124 0-.988-.618-1.611-1.883-1.92l-1.053-.259c-.84-.208-1.219-.489-1.219-1.034 0-.609.647-1.052 1.515-1.052.95 0 1.343.526 1.532 1.015l.979-.277zm4.854-1.588h-1.514v-1.699h-1.09v1.699h-1.07v.923h1.07v4.432c0 1.237.998 1.828 1.92 1.828.407 0 .665-.074.813-.129l-.221-.979c-.093.019-.24.056-.48.056-.48 0-.942-.148-.942-1.071v-4.137h1.514v-.923zm4.536 7.239c1.44 0 2.493-.72 2.825-1.791l-1.053-.296c-.277.739-.918 1.108-1.772 1.108-1.28 0-2.16-.826-2.212-2.345h5.148v-.462c0-2.64-1.57-3.545-3.047-3.545-1.92 0-3.195 1.514-3.195 3.693 0 2.179 1.256 3.638 3.306 3.638zm-2.212-4.266c.074-1.103.854-2.087 2.1-2.087 1.183 0 1.94.887 1.94 2.087h-4.04zM98.1 610h1.09v-4.432c0-1.039.757-1.773 1.606-1.773.826 0 1.404.541 1.404 1.348V610h1.107v-4.616c0-.915.573-1.589 1.57-1.589.776 0 1.44.411 1.44 1.459V610h1.09v-4.746c0-1.666-.896-2.437-2.161-2.437-1.015 0-1.758.466-2.123 1.2h-.074c-.351-.757-.97-1.2-1.902-1.2-.923 0-1.607.443-1.902 1.2h-.092v-1.108h-1.053V610zm15.361-4.561h-4.136v1.016h4.136v-1.016zm1.917 4.561h1.09v-4.432c0-1.039.757-1.773 1.606-1.773.827 0 1.404.541 1.404 1.348V610h1.108v-4.616c0-.915.572-1.589 1.569-1.589.776 0 1.441.411 1.441 1.459V610h1.089v-4.746c0-1.666-.895-2.437-2.16-2.437-1.016 0-1.759.466-2.124 1.2h-.074c-.351-.757-.969-1.2-1.902-1.2-.923 0-1.606.443-1.902 1.2h-.092v-1.108h-1.053V610zm14.272.148c1.441 0 2.493-.72 2.826-1.791l-1.053-.296c-.277.739-.919 1.108-1.773 1.108-1.279 0-2.16-.826-2.211-2.345h5.147v-.462c0-2.64-1.569-3.545-3.047-3.545-1.92 0-3.194 1.514-3.194 3.693 0 2.179 1.256 3.638 3.305 3.638zm-2.211-4.266c.074-1.103.854-2.087 2.1-2.087 1.182 0 1.939.887 1.939 2.087h-4.039zm9.888-2.973h-1.514v-1.699h-1.089v1.699h-1.071v.923h1.071v4.432c0 1.237.997 1.828 1.92 1.828.406 0 .665-.074.813-.129l-.222-.979c-.092.019-.24.056-.48.056-.48 0-.942-.148-.942-1.071v-4.137h1.514v-.923zm1.639 7.091h1.09v-4.487c0-.96.757-1.662 1.791-1.662.291 0 .591.055.665.074v-1.108a10.696 10.696 0 00-.573-.019c-.849 0-1.588.48-1.846 1.182h-.074v-1.071h-1.053V610zm4.837 0h1.09v-7.091h-1.09V610zm.554-8.273c.425 0 .776-.332.776-.738 0-.407-.351-.739-.776-.739-.425 0-.775.332-.775.739 0 .406.35.738.775.738zm5.412 8.421c1.569 0 2.604-.96 2.788-2.216h-1.089c-.203.775-.85 1.237-1.699 1.237-1.293 0-2.124-1.071-2.124-2.714 0-1.607.85-2.66 2.124-2.66.96 0 1.533.591 1.699 1.238h1.089c-.184-1.33-1.311-2.216-2.807-2.216-1.92 0-3.194 1.514-3.194 3.674 0 2.124 1.219 3.657 3.213 3.657zm9.404-5.651c-.342-1.006-1.108-1.68-2.512-1.68-1.495 0-2.603.849-2.603 2.049 0 .979.581 1.635 1.883 1.939l1.182.277c.715.167 1.052.508 1.052.998 0 .609-.646 1.108-1.661 1.108-.891 0-1.45-.384-1.644-1.145l-1.034.258c.254 1.205 1.246 1.847 2.696 1.847 1.648 0 2.77-.9 2.77-2.124 0-.988-.619-1.611-1.884-1.92l-1.052-.259c-.84-.208-1.219-.489-1.219-1.034 0-.609.646-1.052 1.514-1.052.951 0 1.344.526 1.533 1.015l.979-.277z" fill="black"/>
      <path fill-rule="evenodd" clip-rule="evenodd" d="M112 709c11.046 0 20-8.954 20-20s-8.954-20-20-20-20 8.954-20 20 8.954 20 20 20zm0-5c8.284 0 15-6.716 15-15 0-8.284-6.716-15-15-15-8.284 0-15 6.716-15 15 0 8.284 6.716 15 15 15z" fill="#26CEE6"/>
      <path d="M106.635 686.182h-1.304l-1.435.892v1.216l1.301-.796h.034V692h1.404v-5.818zm1.782 5.9a.753.753 0 00.738-.738.749.749 0 00-.738-.73.73.73 0 00-.739.73.733.733 0 00.739.738zm1.645-.082h4.306v-1.134h-2.357v-.036l.696-.642c1.261-1.1 1.59-1.66 1.59-2.327 0-1.049-.855-1.759-2.176-1.759-1.287 0-2.147.742-2.145 1.926h1.333c0-.525.324-.829.807-.829.474 0 .818.292.818.773 0 .434-.273.73-.75 1.159l-2.122 1.858V692zm5.113 0h1.389v-1.31l.281-.341 1.04 1.651h1.605l-1.611-2.463 1.548-1.901h-1.573l-1.228 1.563h-.062v-3.017h-1.389V692zM77.728 730.166c1.237 0 1.883-.665 2.105-1.126h.055v.96h1.09v-4.672c0-2.253-1.718-2.511-2.622-2.511-1.072 0-2.29.369-2.844 1.662l1.034.369c.24-.517.808-1.071 1.846-1.071 1.002 0 1.496.531 1.496 1.44v.037c0 .527-.535.48-1.828.647-1.316.17-2.751.461-2.751 2.086 0 1.385 1.07 2.179 2.419 2.179zm.166-.978c-.868 0-1.496-.388-1.496-1.145 0-.831.757-1.09 1.607-1.201.461-.055 1.699-.184 1.883-.406v.997c0 .887-.702 1.755-1.994 1.755zm5.072 3.471h1.09v-3.748h.092c.24.387.702 1.237 2.068 1.237 1.773 0 3.01-1.422 3.01-3.675 0-2.234-1.237-3.656-3.028-3.656-1.385 0-1.81.849-2.05 1.219h-.13v-1.127h-1.052v9.75zm1.071-6.204c0-1.589.702-2.66 2.031-2.66 1.386 0 2.069 1.164 2.069 2.66 0 1.514-.702 2.714-2.069 2.714-1.31 0-2.03-1.108-2.03-2.714zm6.851 6.204h1.09v-3.748h.092c.24.387.702 1.237 2.068 1.237 1.773 0 3.01-1.422 3.01-3.675 0-2.234-1.237-3.656-3.028-3.656-1.385 0-1.81.849-2.05 1.219h-.13v-1.127h-1.052v9.75zm1.071-6.204c0-1.589.702-2.66 2.031-2.66 1.385 0 2.069 1.164 2.069 2.66 0 1.514-.702 2.714-2.069 2.714-1.31 0-2.03-1.108-2.03-2.714zm10.914-1.016h-4.137v1.016h4.137v-1.016zM104.79 730h1.089v-4.432c0-1.039.757-1.773 1.607-1.773.826 0 1.403.541 1.403 1.348V730h1.108v-4.616c0-.915.572-1.589 1.57-1.589.775 0 1.44.411 1.44 1.459V730h1.089v-4.746c0-1.666-.895-2.437-2.16-2.437-1.016 0-1.759.466-2.124 1.2h-.074c-.35-.757-.969-1.2-1.902-1.2-.923 0-1.606.443-1.902 1.2h-.092v-1.108h-1.052V730zm14.271.148c1.441 0 2.493-.72 2.826-1.791l-1.053-.296c-.277.739-.919 1.108-1.773 1.108-1.278 0-2.16-.826-2.211-2.345h5.147v-.462c0-2.64-1.569-3.545-3.046-3.545-1.921 0-3.195 1.514-3.195 3.693 0 2.179 1.256 3.638 3.305 3.638zm-2.211-4.266c.074-1.103.854-2.087 2.101-2.087 1.181 0 1.938.887 1.938 2.087h-4.039zm9.889-2.973h-1.515v-1.699h-1.089v1.699h-1.071v.923h1.071v4.432c0 1.237.997 1.828 1.92 1.828.407 0 .665-.074.813-.129l-.222-.979c-.092.019-.24.056-.48.056-.48 0-.942-.148-.942-1.071v-4.137h1.515v-.923zm1.638 7.091h1.09v-4.487c0-.96.757-1.662 1.791-1.662.291 0 .591.055.665.074v-1.108a10.696 10.696 0 00-.573-.019c-.849 0-1.588.48-1.846 1.182h-.074v-1.071h-1.053V730zm4.837 0h1.09v-7.091h-1.09V730zm.554-8.273c.425 0 .776-.332.776-.738 0-.407-.351-.739-.776-.739-.424 0-.775.332-.775.739 0 .406.351.738.775.738zm5.412 8.421c1.57 0 2.604-.96 2.788-2.216h-1.089c-.203.775-.85 1.237-1.699 1.237-1.293 0-2.124-1.071-2.124-2.714 0-1.607.85-2.66 2.124-2.66.96 0 1.533.591 1.699 1.238h1.089c-.184-1.33-1.311-2.216-2.807-2.216-1.92 0-3.194 1.514-3.194 3.674 0 2.124 1.219 3.657 3.213 3.657zm9.404-5.651c-.342-1.006-1.108-1.68-2.512-1.68-1.495 0-2.603.849-2.603 2.049 0 .979.581 1.635 1.883 1.939l1.182.277c.716.167 1.053.508 1.053.998 0 .609-.647 1.108-1.662 1.108-.891 0-1.45-.384-1.644-1.145l-1.034.258c.254 1.205 1.247 1.847 2.696 1.847 1.648 0 2.77-.9 2.77-2.124 0-.988-.619-1.611-1.884-1.92l-1.052-.259c-.84-.208-1.219-.489-1.219-1.034 0-.609.646-1.052 1.514-1.052.951 0 1.344.526 1.533 1.015l.979-.277z" fill="black"/>
      <path stroke="black" stroke-opacity=".2" d="M224.5-74v834"/>
      <path d="M272.767 21.364h3.147V30h1.829v-8.636h3.147v-1.546h-8.123v1.546zM281.584 30h1.8v-4.49c0-.969.73-1.655 1.72-1.655.303 0 .681.055.835.104v-1.655a4.306 4.306 0 00-.646-.05c-.875 0-1.606.497-1.885 1.382h-.079v-1.272h-1.745V30zm7.598.154c1.198 0 1.914-.562 2.242-1.203h.06V30h1.73v-5.11c0-2.02-1.646-2.626-3.103-2.626-1.605 0-2.838.716-3.236 2.108l1.68.239c.179-.522.686-.97 1.566-.97.836 0 1.293.428 1.293 1.179v.03c0 .516-.542.541-1.889.685-1.482.16-2.899.602-2.899 2.322 0 1.502 1.099 2.297 2.556 2.297zm.467-1.322c-.751 0-1.288-.343-1.288-1.005 0-.69.602-.979 1.407-1.093.473-.065 1.417-.184 1.651-.373v.9c0 .85-.686 1.57-1.77 1.57zm7.174-3.306c0-1.104.666-1.74 1.616-1.74.93 0 1.486.611 1.486 1.63V30h1.8v-4.862c.005-1.83-1.039-2.874-2.615-2.874-1.143 0-1.929.547-2.277 1.397h-.089v-1.297h-1.721V30h1.8v-4.474zm12.767-1.144c-.248-1.293-1.283-2.118-3.072-2.118-1.84 0-3.093.905-3.088 2.317-.005 1.114.681 1.85 2.148 2.153l1.303.273c.701.154 1.029.438 1.029.87 0 .522-.567.915-1.422.915-.825 0-1.362-.358-1.516-1.044l-1.755.169c.223 1.402 1.402 2.232 3.276 2.232 1.909 0 3.256-.99 3.261-2.436-.005-1.089-.706-1.755-2.148-2.068l-1.302-.279c-.776-.174-1.084-.442-1.079-.884-.005-.517.567-.875 1.318-.875.83 0 1.267.452 1.406.954l1.641-.179zm5.516-2.018h-1.586v-.602c0-.596.249-.93.92-.93.283 0 .522.065.671.11l.363-1.392a4.492 4.492 0 00-1.367-.21c-1.328 0-2.387.762-2.387 2.303v.72h-1.128v1.393h1.128V30h1.8v-6.244h1.586v-1.392zm4.453 7.785c2.238 0 3.659-1.576 3.659-3.937 0-2.367-1.421-3.948-3.659-3.948-2.237 0-3.659 1.581-3.659 3.948 0 2.361 1.422 3.937 3.659 3.937zm.01-1.442c-1.238 0-1.844-1.103-1.844-2.5s.606-2.516 1.844-2.516c1.218 0 1.825 1.119 1.825 2.516s-.607 2.5-1.825 2.5zM324.746 30h1.8v-4.49c0-.969.731-1.655 1.72-1.655.303 0 .681.055.835.104v-1.655a4.306 4.306 0 00-.646-.05c-.875 0-1.606.497-1.884 1.382h-.08v-1.272h-1.745V30zm5.551 0h1.8v-4.643c0-.94.626-1.576 1.401-1.576.761 0 1.283.512 1.283 1.297V30h1.765v-4.763c0-.86.512-1.456 1.382-1.456.726 0 1.303.427 1.303 1.372V30h1.804v-5.126c0-1.705-.984-2.61-2.386-2.61-1.109 0-1.954.547-2.292 1.397h-.079c-.294-.865-1.034-1.397-2.064-1.397-1.024 0-1.789.527-2.108 1.397h-.089v-1.297h-1.72V30zm18.6-5.618c-.249-1.293-1.283-2.118-3.073-2.118-1.839 0-3.092.905-3.087 2.317-.005 1.114.681 1.85 2.148 2.153l1.302.273c.701.154 1.029.438 1.029.87 0 .522-.566.915-1.422.915-.825 0-1.362-.358-1.516-1.044l-1.755.169c.224 1.402 1.402 2.232 3.276 2.232 1.91 0 3.257-.99 3.262-2.436-.005-1.089-.706-1.755-2.148-2.068l-1.302-.279c-.776-.174-1.084-.442-1.079-.884-.005-.517.566-.875 1.317-.875.83 0 1.268.452 1.407.954l1.641-.179zm10.733-1.765h1.775c-.035-1.72-1.501-2.938-3.669-2.938-2.138 0-3.743 1.203-3.738 3.003 0 1.462 1.039 2.302 2.714 2.734l1.158.299c1.099.278 1.825.62 1.83 1.411-.005.87-.83 1.452-2.033 1.452-1.154 0-2.049-.517-2.123-1.586h-1.815c.075 2.024 1.581 3.162 3.953 3.162 2.441 0 3.858-1.218 3.862-3.013-.004-1.765-1.461-2.57-2.992-2.933l-.955-.238c-.835-.2-1.74-.552-1.73-1.402.005-.766.691-1.328 1.844-1.328 1.099 0 1.825.512 1.919 1.377zm7.292-.253h-1.506v-1.83h-1.8v1.83h-1.083v1.392h1.083V28c-.01 1.437 1.034 2.143 2.387 2.103a3.616 3.616 0 001.059-.179l-.304-1.407c-.099.025-.303.07-.527.07-.452 0-.815-.159-.815-.885v-3.947h1.506v-1.392zm3.703 7.79c1.198 0 1.914-.562 2.242-1.203h.06V30h1.73v-5.11c0-2.02-1.646-2.626-3.102-2.626-1.606 0-2.839.716-3.237 2.108l1.681.239c.179-.522.686-.97 1.566-.97.835 0 1.292.428 1.292 1.179v.03c0 .516-.542.541-1.889.685-1.481.16-2.898.602-2.898 2.322 0 1.502 1.098 2.297 2.555 2.297zm.467-1.322c-.75 0-1.287-.343-1.287-1.005 0-.69.601-.979 1.407-1.093.472-.065 1.417-.184 1.65-.373v.9c0 .85-.686 1.57-1.77 1.57zm8.696 4.19c2.063 0 3.584-.944 3.584-2.898v-7.76h-1.775v1.262h-.099c-.273-.551-.845-1.362-2.193-1.362-1.764 0-3.152 1.382-3.152 3.893 0 2.49 1.388 3.734 3.148 3.734 1.307 0 1.919-.701 2.197-1.263h.089v1.447c0 1.123-.745 1.585-1.769 1.585-1.084 0-1.562-.512-1.78-.959l-1.621.393c.328 1.069 1.427 1.929 3.371 1.929zm.015-4.543c-1.189 0-1.815-.925-1.815-2.332 0-1.387.616-2.406 1.815-2.406 1.158 0 1.794.96 1.794 2.406 0 1.457-.646 2.332-1.794 2.332zm8.794 1.67c1.78 0 3.003-.87 3.321-2.197l-1.68-.19c-.244.647-.84.985-1.616.985-1.163 0-1.934-.765-1.949-2.073h5.32v-.552c0-2.68-1.611-3.858-3.49-3.858-2.188 0-3.614 1.606-3.614 3.963 0 2.396 1.407 3.922 3.708 3.922zm-1.919-4.688c.055-.974.776-1.795 1.85-1.795 1.034 0 1.73.756 1.74 1.795h-3.59zm14.432-5.643h-1.755l-2.531 1.626v1.69l2.382-1.521h.059V30h1.845V19.818z" fill="black"/>
      <path fill-rule="evenodd" clip-rule="evenodd" d="M337 109c11.046 0 20-8.954 20-20s-8.954-20-20-20-20 8.954-20 20 8.954 20 20 20zm0-5c8.284 0 15-6.716 15-15 0-8.284-6.716-15-15-15-8.284 0-15 6.716-15 15 0 8.284 6.716 15 15 15z" fill="#26CEE6"/>
      <path d="M327.983 91.034h2.809V92h1.344v-.966h.696v-1.108h-.696v-3.744h-1.77l-2.383 3.755v1.097zm2.838-1.108h-1.44v-.045l1.394-2.21h.046v2.255zm3.486 2.156c.39 0 .733-.33.739-.738a.75.75 0 00-.739-.73.73.73 0 00-.738.73.733.733 0 00.738.738zm1.645-.082h4.307v-1.133h-2.358v-.038l.696-.641c1.262-1.1 1.591-1.66 1.591-2.327 0-1.049-.855-1.759-2.176-1.759-1.287 0-2.148.742-2.145 1.926h1.332c0-.525.324-.83.807-.83.475 0 .818.294.818.774 0 .434-.272.73-.75 1.159l-2.122 1.858V92zm5.113 0h1.389v-1.31l.282-.34 1.039 1.65h1.606l-1.611-2.463 1.548-1.9h-1.574l-1.227 1.562h-.063v-3.017h-1.389V92zM307.619 124.497c-.342-1.006-1.108-1.68-2.511-1.68-1.496 0-2.604.849-2.604 2.049 0 .979.582 1.635 1.883 1.939l1.182.277c.716.167 1.053.508 1.053.998 0 .609-.647 1.108-1.662 1.108-.891 0-1.45-.384-1.644-1.145l-1.034.258c.254 1.205 1.247 1.847 2.696 1.847 1.648 0 2.77-.9 2.77-2.124 0-.988-.618-1.611-1.883-1.92l-1.053-.259c-.84-.208-1.219-.489-1.219-1.034 0-.609.647-1.052 1.515-1.052.951 0 1.343.526 1.532 1.015l.979-.277zm1.769 8.162h1.09v-3.748h.092c.24.387.702 1.237 2.068 1.237 1.773 0 3.01-1.422 3.01-3.675 0-2.234-1.237-3.656-3.028-3.656-1.385 0-1.81.849-2.05 1.219h-.129v-1.127h-1.053v9.75zm1.071-6.204c0-1.589.702-2.66 2.031-2.66 1.385 0 2.069 1.164 2.069 2.66 0 1.514-.702 2.714-2.069 2.714-1.311 0-2.031-1.108-2.031-2.714zm7.941-5.91h-1.09V130h1.09v-9.455zm1.995 9.455h1.089v-7.091h-1.089V130zm.554-8.273c.425 0 .776-.332.776-.738 0-.407-.351-.739-.776-.739-.425 0-.776.332-.776.739 0 .406.351.738.776.738zm5.615 1.182h-1.514v-1.699h-1.09v1.699h-1.071v.923h1.071v4.432c0 1.237.997 1.828 1.921 1.828.406 0 .664-.074.812-.129l-.222-.979c-.092.019-.24.056-.48.056-.48 0-.941-.148-.941-1.071v-4.137h1.514v-.923zm5.447 2.53h-4.136v1.016h4.136v-1.016zm2.065 4.561h1.052v-1.089h.13c.24.387.701 1.237 2.068 1.237 1.773 0 3.01-1.422 3.01-3.675 0-2.234-1.237-3.656-3.029-3.656-1.384 0-1.809.849-2.049 1.219h-.093v-3.491h-1.089V130zm1.071-3.545c0-1.589.702-2.66 2.031-2.66 1.385 0 2.068 1.164 2.068 2.66 0 1.514-.701 2.714-2.068 2.714-1.311 0-2.031-1.108-2.031-2.714zm7.303 6.204c.984 0 1.676-.522 2.087-1.625l3.019-8.106-1.191-.019-1.957 5.651h-.074l-1.958-5.651h-1.181l2.622 7.128-.203.554c-.397 1.08-.887 1.182-1.681.979l-.277.96c.111.055.425.129.794.129zm10.61-7.22h-4.136v1.016h4.136v-1.016zm5.075-2.53h-1.588v-.72c0-.702.295-1.071 1.015-1.071.314 0 .499.074.61.111l.314-.942c-.167-.074-.499-.185-1.035-.185-1.015 0-1.994.61-1.994 1.828v.979h-1.145v.923h1.145V130h1.09v-6.168h1.588v-.923zm1.527 7.091h1.089v-7.091h-1.089V130zm.554-8.273c.424 0 .775-.332.775-.738 0-.407-.351-.739-.775-.739-.425 0-.776.332-.776.739 0 .406.351.738.776.738zm3.62-1.182h-1.089V130h1.089v-9.455zm4.969 9.603c1.44 0 2.492-.72 2.825-1.791l-1.053-.296c-.277.739-.918 1.108-1.772 1.108-1.279 0-2.161-.826-2.212-2.345h5.148v-.462c0-2.64-1.57-3.545-3.047-3.545-1.921 0-3.195 1.514-3.195 3.693 0 2.179 1.256 3.638 3.306 3.638zm-2.212-4.266c.074-1.103.854-2.087 2.101-2.087 1.182 0 1.939.887 1.939 2.087h-4.04z" fill="black"/>
      <path stroke="black" stroke-opacity=".2" d="M449.5-74v834"/>
      <path d="M496.782 21.364h3.147V30h1.83v-8.636h3.147v-1.546h-8.124v1.546zM505.6 30h1.799v-4.49c0-.969.731-1.655 1.72-1.655.304 0 .682.055.836.104v-1.655a4.32 4.32 0 00-.647-.05c-.875 0-1.605.497-1.884 1.382h-.079v-1.272H505.6V30zm7.597.154c1.199 0 1.914-.562 2.243-1.203h.059V30h1.73v-5.11c0-2.02-1.645-2.626-3.102-2.626-1.606 0-2.839.716-3.236 2.108l1.68.239c.179-.522.686-.97 1.566-.97.835 0 1.293.428 1.293 1.179v.03c0 .516-.542.541-1.89.685-1.481.16-2.898.602-2.898 2.322 0 1.502 1.099 2.297 2.555 2.297zm.468-1.322c-.751 0-1.288-.343-1.288-1.005 0-.69.602-.979 1.407-1.093.472-.065 1.417-.184 1.651-.373v.9c0 .85-.687 1.57-1.77 1.57zm7.174-3.306c0-1.104.666-1.74 1.615-1.74.93 0 1.487.611 1.487 1.63V30h1.8v-4.862c.005-1.83-1.039-2.874-2.615-2.874-1.144 0-1.929.547-2.277 1.397h-.09v-1.297h-1.72V30h1.8v-4.474zm12.767-1.144c-.249-1.293-1.283-2.118-3.073-2.118-1.839 0-3.092.905-3.087 2.317-.005 1.114.681 1.85 2.148 2.153l1.302.273c.701.154 1.029.438 1.029.87 0 .522-.566.915-1.422.915-.825 0-1.362-.358-1.516-1.044l-1.755.169c.224 1.402 1.402 2.232 3.276 2.232 1.91 0 3.257-.99 3.262-2.436-.005-1.089-.706-1.755-2.148-2.068l-1.302-.279c-.776-.174-1.084-.442-1.079-.884-.005-.517.566-.875 1.317-.875.83 0 1.268.452 1.407.954l1.641-.179zm5.516-2.018h-1.586v-.602c0-.596.248-.93.92-.93.283 0 .522.065.671.11l.363-1.392a4.494 4.494 0 00-1.368-.21c-1.327 0-2.386.762-2.386 2.303v.72h-1.128v1.393h1.128V30h1.8v-6.244h1.586v-1.392zm4.453 7.785c2.237 0 3.659-1.576 3.659-3.937 0-2.367-1.422-3.948-3.659-3.948s-3.659 1.581-3.659 3.948c0 2.361 1.422 3.937 3.659 3.937zm.01-1.442c-1.238 0-1.844-1.103-1.844-2.5s.606-2.516 1.844-2.516c1.218 0 1.825 1.119 1.825 2.516s-.607 2.5-1.825 2.5zM548.762 30h1.799v-4.49c0-.969.731-1.655 1.721-1.655.303 0 .681.055.835.104v-1.655a4.32 4.32 0 00-.647-.05c-.875 0-1.605.497-1.884 1.382h-.079v-1.272h-1.745V30zm5.55 0h1.8v-4.643c0-.94.627-1.576 1.402-1.576.761 0 1.283.512 1.283 1.297V30h1.765v-4.763c0-.86.512-1.456 1.382-1.456.726 0 1.302.427 1.302 1.372V30h1.805v-5.126c0-1.705-.984-2.61-2.386-2.61-1.109 0-1.954.547-2.292 1.397h-.08c-.293-.865-1.034-1.397-2.063-1.397-1.024 0-1.79.527-2.108 1.397h-.089v-1.297h-1.721V30zm18.6-5.618c-.248-1.293-1.282-2.118-3.072-2.118-1.84 0-3.092.905-3.087 2.317-.005 1.114.681 1.85 2.147 2.153l1.303.273c.701.154 1.029.438 1.029.87 0 .522-.567.915-1.422.915-.825 0-1.362-.358-1.516-1.044l-1.755.169c.224 1.402 1.402 2.232 3.276 2.232 1.909 0 3.256-.99 3.261-2.436-.005-1.089-.706-1.755-2.147-2.068l-1.303-.279c-.775-.174-1.084-.442-1.079-.884-.005-.517.567-.875 1.318-.875.83 0 1.268.452 1.407.954l1.64-.179zm10.734-1.765h1.775c-.035-1.72-1.502-2.938-3.669-2.938-2.138 0-3.744 1.203-3.739 3.003 0 1.462 1.039 2.302 2.715 2.734l1.158.299c1.099.278 1.825.62 1.83 1.411-.005.87-.831 1.452-2.034 1.452-1.153 0-2.048-.517-2.123-1.586h-1.814c.074 2.024 1.581 3.162 3.952 3.162 2.441 0 3.858-1.218 3.863-3.013-.005-1.765-1.462-2.57-2.993-2.933l-.954-.238c-.836-.2-1.74-.552-1.73-1.402.005-.766.691-1.328 1.844-1.328 1.099 0 1.825.512 1.919 1.377zm7.292-.253h-1.506v-1.83h-1.8v1.83h-1.084v1.392h1.084V28c-.01 1.437 1.034 2.143 2.386 2.103a3.616 3.616 0 001.059-.179l-.303-1.407c-.099.025-.303.07-.527.07-.452 0-.815-.159-.815-.885v-3.947h1.506v-1.392zm3.703 7.79c1.198 0 1.914-.562 2.242-1.203h.06V30h1.73v-5.11c0-2.02-1.646-2.626-3.103-2.626-1.605 0-2.838.716-3.236 2.108l1.68.239c.179-.522.686-.97 1.566-.97.836 0 1.293.428 1.293 1.179v.03c0 .516-.542.541-1.889.685-1.482.16-2.899.602-2.899 2.322 0 1.502 1.099 2.297 2.556 2.297zm.467-1.322c-.751 0-1.288-.343-1.288-1.005 0-.69.602-.979 1.407-1.093.473-.065 1.417-.184 1.651-.373v.9c0 .85-.686 1.57-1.77 1.57zm8.695 4.19c2.064 0 3.585-.944 3.585-2.898v-7.76h-1.775v1.262h-.099c-.274-.551-.846-1.362-2.193-1.362-1.765 0-3.152 1.382-3.152 3.893 0 2.49 1.387 3.734 3.147 3.734 1.308 0 1.919-.701 2.198-1.263h.089v1.447c0 1.123-.746 1.585-1.77 1.585-1.084 0-1.561-.512-1.78-.959l-1.62.393c.328 1.069 1.426 1.929 3.37 1.929zm.015-4.543c-1.188 0-1.814-.925-1.814-2.332 0-1.387.616-2.406 1.814-2.406 1.159 0 1.795.96 1.795 2.406 0 1.457-.646 2.332-1.795 2.332zm8.795 1.67c1.78 0 3.003-.87 3.321-2.197l-1.68-.19c-.244.647-.841.985-1.616.985-1.163 0-1.934-.765-1.949-2.073h5.32v-.552c0-2.68-1.611-3.858-3.49-3.858-2.188 0-3.615 1.606-3.615 3.963 0 2.396 1.407 3.922 3.709 3.922zm-1.919-4.688c.055-.974.776-1.795 1.849-1.795 1.035 0 1.731.756 1.74 1.795h-3.589zM620.984 30h6.98v-1.541h-4.435v-.07l1.755-1.785c1.979-1.899 2.526-2.823 2.526-3.972 0-1.705-1.387-2.953-3.435-2.953-2.019 0-3.451 1.253-3.451 3.187h1.755c0-1.04.656-1.69 1.671-1.69.969 0 1.69.591 1.69 1.55 0 .85-.517 1.457-1.521 2.476l-3.535 3.466V30z" fill="black"/>
      <path fill-rule="evenodd" clip-rule="evenodd" d="M562 109c11.046 0 20-8.954 20-20s-8.954-20-20-20-20 8.954-20 20 8.954 20 20 20zm0-5c8.284 0 15-6.716 15-15 0-8.284-6.716-15-15-15-8.284 0-15 6.716-15 15 0 8.284 6.716 15 15 15z" fill="#26CEE6"/>
      <path d="M557.111 86.182h-1.304l-1.434.892v1.216l1.301-.796h.034V92h1.403v-5.818zm1.782 5.9c.39 0 .733-.33.739-.738a.75.75 0 00-.739-.73.73.73 0 00-.738.73.733.733 0 00.738.738zm3.66-.002c1.361 0 2.35-.708 2.35-1.654 0-.722-.583-1.307-1.307-1.42v-.046c.63-.12 1.091-.642 1.091-1.284 0-.906-.904-1.574-2.134-1.574s-2.133.665-2.133 1.574c0 .642.448 1.165 1.091 1.284v.046c-.736.113-1.307.698-1.307 1.42 0 .946.988 1.653 2.349 1.653zm0-.998c-.517 0-.875-.323-.875-.77 0-.454.369-.78.875-.78s.875.329.875.78c0 .45-.361.77-.875.77zm0-2.542c-.443 0-.761-.299-.761-.71 0-.41.315-.697.761-.697s.762.29.762.697c0 .414-.322.71-.762.71zm3.145 3.46h1.389v-1.31l.281-.34 1.04 1.65h1.605l-1.61-2.463 1.548-1.9h-1.574l-1.227 1.562h-.063v-3.017h-1.389V92zM524.985 125.734c0-1.237.766-1.939 1.81-1.939 1.011 0 1.625.661 1.625 1.773V130h1.089v-4.506c0-1.809-.965-2.677-2.4-2.677-1.071 0-1.736.48-2.069 1.2h-.092v-1.108h-1.053V130h1.09v-4.266zm9.377 7.073c1.699 0 3.066-.776 3.066-2.604v-7.294h-1.053v1.127h-.111c-.24-.37-.683-1.219-2.068-1.219-1.791 0-3.028 1.422-3.028 3.601 0 2.216 1.292 3.471 3.01 3.471 1.384 0 1.828-.812 2.068-1.2h.092v1.44c0 1.182-.831 1.718-1.976 1.718-1.288 0-1.74-.679-2.031-1.071l-.868.609c.443.743 1.316 1.422 2.899 1.422zm-.037-3.896c-1.366 0-2.068-1.035-2.068-2.512 0-1.44.683-2.604 2.068-2.604 1.33 0 2.032 1.071 2.032 2.604 0 1.57-.721 2.512-2.032 2.512zm5.097 1.089h1.089v-7.091h-1.089V130zm.554-8.273c.425 0 .775-.332.775-.738 0-.407-.35-.739-.775-.739-.425 0-.776.332-.776.739 0 .406.351.738.776.738zm3.62 4.007c0-1.237.767-1.939 1.81-1.939 1.011 0 1.625.661 1.625 1.773V130h1.089v-4.506c0-1.809-.964-2.677-2.4-2.677-1.071 0-1.736.48-2.068 1.2h-.093v-1.108h-1.052V130h1.089v-4.266zm7.328-2.825h-1.256l2.253 3.546-2.253 3.545h1.256l1.699-2.751 1.699 2.751h1.255l-2.29-3.545 2.29-3.546h-1.255l-1.699 2.899-1.699-2.899zm9.978 2.53h-4.136v1.016h4.136v-1.016zm1.917 7.22h1.09v-3.748h.092c.24.387.702 1.237 2.068 1.237 1.773 0 3.01-1.422 3.01-3.675 0-2.234-1.237-3.656-3.028-3.656-1.385 0-1.81.849-2.05 1.219h-.129v-1.127h-1.053v9.75zm1.071-6.204c0-1.589.702-2.66 2.032-2.66 1.385 0 2.068 1.164 2.068 2.66 0 1.514-.702 2.714-2.068 2.714-1.312 0-2.032-1.108-2.032-2.714zm8.938 3.711c1.237 0 1.883-.665 2.105-1.126h.055v.96h1.09v-4.672c0-2.253-1.718-2.511-2.622-2.511-1.071 0-2.29.369-2.844 1.662l1.034.369c.24-.517.808-1.071 1.847-1.071 1.001 0 1.495.531 1.495 1.44v.037c0 .527-.535.48-1.828.647-1.315.17-2.751.461-2.751 2.086 0 1.385 1.071 2.179 2.419 2.179zm.166-.978c-.868 0-1.496-.388-1.496-1.145 0-.831.757-1.09 1.607-1.201.461-.055 1.699-.184 1.883-.406v.997c0 .887-.701 1.755-1.994 1.755zm5.072.812h1.09v-4.487c0-.96.757-1.662 1.791-1.662.291 0 .591.055.665.074v-1.108a10.696 10.696 0 00-.573-.019c-.849 0-1.588.48-1.846 1.182h-.074v-1.071h-1.053V130zm9.86-5.503c-.342-1.006-1.108-1.68-2.511-1.68-1.496 0-2.604.849-2.604 2.049 0 .979.582 1.635 1.883 1.939l1.182.277c.716.167 1.053.508 1.053.998 0 .609-.646 1.108-1.662 1.108-.891 0-1.45-.384-1.644-1.145l-1.034.258c.254 1.205 1.247 1.847 2.696 1.847 1.648 0 2.77-.9 2.77-2.124 0-.988-.618-1.611-1.883-1.92l-1.053-.259c-.84-.208-1.219-.489-1.219-1.034 0-.609.647-1.052 1.515-1.052.951 0 1.343.526 1.532 1.015l.979-.277zm4.742 5.651c1.441 0 2.493-.72 2.826-1.791l-1.053-.296c-.277.739-.919 1.108-1.773 1.108-1.278 0-2.16-.826-2.211-2.345h5.147v-.462c0-2.64-1.569-3.545-3.047-3.545-1.92 0-3.194 1.514-3.194 3.693 0 2.179 1.256 3.638 3.305 3.638zm-2.211-4.266c.074-1.103.854-2.087 2.1-2.087 1.182 0 1.939.887 1.939 2.087h-4.039zm6.805 4.118h1.089v-4.487c0-.96.757-1.662 1.791-1.662.291 0 .591.055.665.074v-1.108a10.693 10.693 0 00-.572-.019c-.85 0-1.588.48-1.847 1.182h-.074v-1.071h-1.052V130z" fill="black"/>
      <path fill-rule="evenodd" clip-rule="evenodd" d="M562 229c11.046 0 20-8.954 20-20s-8.954-20-20-20-20 8.954-20 20 8.954 20 20 20zm0-5c8.284 0 15-6.716 15-15 0-8.284-6.716-15-15-15-8.284 0-15 6.716-15 15 0 8.284 6.716 15 15 15z" fill="#26CEE6"/>
      <path d="M553.234 212h4.306v-1.134h-2.358v-.036l.696-.642c1.262-1.1 1.591-1.66 1.591-2.327 0-1.049-.855-1.759-2.176-1.759-1.287 0-2.148.742-2.145 1.926h1.333c0-.525.324-.829.807-.829.474 0 .818.292.818.773 0 .434-.273.73-.75 1.159l-2.122 1.858V212zm5.894.082a.753.753 0 00.738-.738.749.749 0 00-.738-.73.73.73 0 00-.739.73.733.733 0 00.739.738zm1.645-.082h4.306v-1.134h-2.358v-.036l.696-.642c1.262-1.1 1.591-1.66 1.591-2.327 0-1.049-.855-1.759-2.176-1.759-1.287 0-2.147.742-2.145 1.926h1.333c0-.525.324-.829.807-.829.474 0 .818.292.818.773 0 .434-.273.73-.75 1.159l-2.122 1.858V212zm5.113 0h1.389v-1.31l.281-.341 1.04 1.651h1.605l-1.611-2.463 1.548-1.901h-1.573l-1.228 1.563h-.062v-3.017h-1.389V212zM513.358 252.659h1.09v-3.748h.092c.24.387.702 1.237 2.068 1.237 1.773 0 3.01-1.422 3.01-3.675 0-2.234-1.237-3.656-3.028-3.656-1.385 0-1.81.849-2.05 1.219h-.129v-1.127h-1.053v9.75zm1.071-6.204c0-1.589.702-2.66 2.032-2.66 1.385 0 2.068 1.164 2.068 2.66 0 1.514-.702 2.714-2.068 2.714-1.311 0-2.032-1.108-2.032-2.714zm9.732 3.693c1.92 0 3.213-1.459 3.213-3.657 0-2.215-1.293-3.674-3.213-3.674-1.921 0-3.213 1.459-3.213 3.674 0 2.198 1.292 3.657 3.213 3.657zm0-.979c-1.459 0-2.124-1.256-2.124-2.678 0-1.421.665-2.696 2.124-2.696s2.124 1.275 2.124 2.696c0 1.422-.665 2.678-2.124 2.678zm9.899-4.672c-.342-1.006-1.108-1.68-2.512-1.68-1.495 0-2.603.849-2.603 2.049 0 .979.581 1.635 1.883 1.939l1.182.277c.716.167 1.053.508 1.053.998 0 .609-.647 1.108-1.662 1.108-.891 0-1.45-.384-1.644-1.145l-1.034.258c.254 1.205 1.247 1.847 2.696 1.847 1.648 0 2.77-.9 2.77-2.124 0-.988-.619-1.611-1.883-1.92l-1.053-.259c-.84-.208-1.219-.489-1.219-1.034 0-.609.647-1.052 1.514-1.052.951 0 1.344.526 1.533 1.015l.979-.277zm4.853-1.588h-1.514v-1.699h-1.09v1.699h-1.071v.923h1.071v4.432c0 1.237.997 1.828 1.921 1.828.406 0 .664-.074.812-.129l-.221-.979c-.093.019-.241.056-.481.056-.48 0-.941-.148-.941-1.071v-4.137h1.514v-.923zm4.425 9.898c1.699 0 3.065-.776 3.065-2.604v-7.294h-1.052v1.127h-.111c-.24-.37-.683-1.219-2.068-1.219-1.792 0-3.029 1.422-3.029 3.601 0 2.216 1.293 3.471 3.01 3.471 1.385 0 1.828-.812 2.068-1.2h.093v1.44c0 1.182-.831 1.718-1.976 1.718-1.288 0-1.741-.679-2.031-1.071l-.868.609c.443.743 1.315 1.422 2.899 1.422zm-.037-3.896c-1.367 0-2.068-1.035-2.068-2.512 0-1.44.683-2.604 2.068-2.604 1.329 0 2.031 1.071 2.031 2.604 0 1.57-.72 2.512-2.031 2.512zm5.096 1.089h1.09v-4.487c0-.96.757-1.662 1.791-1.662.291 0 .591.055.665.074v-1.108a10.696 10.696 0 00-.573-.019c-.849 0-1.588.48-1.846 1.182h-.074v-1.071h-1.053V250zm7.595.148c1.44 0 2.492-.72 2.825-1.791l-1.053-.296c-.277.739-.918 1.108-1.772 1.108-1.279 0-2.161-.826-2.212-2.345h5.148v-.462c0-2.64-1.57-3.545-3.047-3.545-1.921 0-3.195 1.514-3.195 3.693 0 2.179 1.256 3.638 3.306 3.638zm-2.212-4.266c.074-1.103.854-2.087 2.101-2.087 1.182 0 1.939.887 1.939 2.087h-4.04zm11.828-1.385c-.342-1.006-1.108-1.68-2.512-1.68-1.495 0-2.603.849-2.603 2.049 0 .979.581 1.635 1.883 1.939l1.182.277c.715.167 1.052.508 1.052.998 0 .609-.646 1.108-1.661 1.108-.891 0-1.45-.384-1.644-1.145l-1.034.258c.254 1.205 1.246 1.847 2.696 1.847 1.648 0 2.77-.9 2.77-2.124 0-.988-.619-1.611-1.884-1.92l-1.052-.259c-.84-.208-1.219-.489-1.219-1.034 0-.609.646-1.052 1.514-1.052.951 0 1.344.526 1.533 1.015l.979-.277zm5.831.942h-4.136v1.016h4.136v-1.016zm1.917 7.22h1.09v-3.748h.092c.24.387.702 1.237 2.068 1.237 1.773 0 3.01-1.422 3.01-3.675 0-2.234-1.237-3.656-3.028-3.656-1.385 0-1.81.849-2.05 1.219h-.129v-1.127h-1.053v9.75zm1.071-6.204c0-1.589.702-2.66 2.032-2.66 1.385 0 2.068 1.164 2.068 2.66 0 1.514-.702 2.714-2.068 2.714-1.311 0-2.032-1.108-2.032-2.714zm8.938 3.711c1.237 0 1.883-.665 2.105-1.126h.055v.96h1.09v-4.672c0-2.253-1.717-2.511-2.622-2.511-1.071 0-2.29.369-2.844 1.662l1.034.369c.24-.517.808-1.071 1.847-1.071 1.001 0 1.495.531 1.495 1.44v.037c0 .527-.535.48-1.828.647-1.315.17-2.751.461-2.751 2.086 0 1.385 1.071 2.179 2.419 2.179zm.166-.978c-.868 0-1.496-.388-1.496-1.145 0-.831.757-1.09 1.607-1.201.462-.055 1.699-.184 1.883-.406v.997c0 .887-.701 1.755-1.994 1.755zm5.072.812h1.09v-4.487c0-.96.757-1.662 1.791-1.662.291 0 .591.055.665.074v-1.108a10.696 10.696 0 00-.573-.019c-.849 0-1.588.48-1.846 1.182h-.074v-1.071h-1.053V250zm9.86-5.503c-.341-1.006-1.108-1.68-2.511-1.68-1.496 0-2.604.849-2.604 2.049 0 .979.582 1.635 1.884 1.939l1.181.277c.716.167 1.053.508 1.053.998 0 .609-.646 1.108-1.662 1.108-.891 0-1.45-.384-1.643-1.145l-1.035.258c.254 1.205 1.247 1.847 2.696 1.847 1.649 0 2.77-.9 2.77-2.124 0-.988-.618-1.611-1.883-1.92l-1.053-.259c-.84-.208-1.218-.489-1.218-1.034 0-.609.646-1.052 1.514-1.052.951 0 1.343.526 1.532 1.015l.979-.277zm4.742 5.651c1.441 0 2.493-.72 2.826-1.791l-1.053-.296c-.277.739-.919 1.108-1.773 1.108-1.278 0-2.16-.826-2.211-2.345h5.147v-.462c0-2.64-1.569-3.545-3.046-3.545-1.921 0-3.195 1.514-3.195 3.693 0 2.179 1.256 3.638 3.305 3.638zm-2.211-4.266c.074-1.103.854-2.087 2.101-2.087 1.181 0 1.939.887 1.939 2.087h-4.04zm6.805 4.118h1.089v-4.487c0-.96.757-1.662 1.791-1.662.291 0 .591.055.665.074v-1.108a10.657 10.657 0 00-.572-.019c-.85 0-1.588.48-1.847 1.182h-.074v-1.071h-1.052V250z" fill="black"/>
      <g clip-path="url(#clip2)">
        <mask id="a" fill="white">
          <path fill-rule="evenodd" clip-rule="evenodd" d="M560.903 288.005a1.25 1.25 0 012.194 0l5.198 9.505a1.25 1.25 0 01-1.097 1.849h-10.397a1.25 1.25 0 01-1.096-1.849l5.198-9.505zm1.092 3.215a.493.493 0 01.462.307c.024.063.035.13.032.197l-.177 3.606a.312.312 0 01-.624 0l-.177-3.607.312-.015-.312.012a.478.478 0 01.299-.463.492.492 0 01.185-.037zm-.338 6.357a.635.635 0 00.343.099.632.632 0 00.437-.173.582.582 0 00.181-.418.577.577 0 00-.105-.329.637.637 0 00-.95-.089.571.571 0 00-.133.644.591.591 0 00.227.266z"/>
        </mask>
        <path fill-rule="evenodd" clip-rule="evenodd" d="M560.903 288.005a1.25 1.25 0 012.194 0l5.198 9.505a1.25 1.25 0 01-1.097 1.849h-10.397a1.25 1.25 0 01-1.096-1.849l5.198-9.505zm1.092 3.215a.493.493 0 01.462.307c.024.063.035.13.032.197l-.177 3.606a.312.312 0 01-.624 0l-.177-3.607.312-.015-.312.012a.478.478 0 01.299-.463.492.492 0 01.185-.037zm-.338 6.357a.635.635 0 00.343.099.632.632 0 00.437-.173.582.582 0 00.181-.418.577.577 0 00-.105-.329.637.637 0 00-.95-.089.571.571 0 00-.133.644.591.591 0 00.227.266z" fill="#FF9D59"/>
        <path d="M562.498 291.527l-.003-.312-1 .009.003.313 1-.01zm.599-3.522l.877-.48-.877.48zm-2.194 0l-.877-.48.877.48zm7.392 9.505l-.877.479.877-.479zm-12.59 0l.877.479-.877-.479zm6.48-6.255l-.372.928.372-.928zm-.19-.035l-.009-1 .009 1zm.353.142l-.705.71.705-.71zm.109.165l.93-.367-.93.367zm.032.197l.999.049v-.001l-.999-.048zm-.177 3.606l-.998-.049.998.049zm-.312.298v1-1zm-.312-.298l.999-.049-.999.049zm-.177-3.607l-.049-.998-.999.049.049.998.999-.049zm.312-.015l.049.999-.087-1.998.038.999zm-.312.012l-1 .038.039.999.999-.038-.038-.999zm.033-.194l.93.369-.93-.369zm.107-.162l-.709-.706.709.706zm.159-.107l.383.924-.383-.924zm-.153 6.32l.539-.843-.539.843zm.856-.821l.821-.572-.821.572zm-.95-.089l-.691-.722.691.722zm2.411-9.142c-.854-1.56-3.095-1.56-3.948 0l1.755.96a.25.25 0 01.438 0l1.755-.96zm5.199 9.505l-5.199-9.505-1.755.96 5.199 9.504 1.755-.959zm-1.975 3.329c1.71 0 2.795-1.83 1.975-3.329l-1.755.959a.25.25 0 01-.22.37v2zm-10.397 0h10.397v-2h-10.397v2zm-1.974-3.329c-.82 1.499.265 3.329 1.974 3.329v-2a.25.25 0 01-.219-.37l-1.755-.959zm5.199-9.505l-5.199 9.505 1.755.959 5.199-9.504-1.755-.96zm2.531 2.802a1.492 1.492 0 00-.571-.107l.019 2a.508.508 0 01-.192-.037l.744-1.856zm.495.325a1.483 1.483 0 00-.495-.325l-.744 1.856a.505.505 0 01-.17-.111l1.409-1.42zm.335.508a1.48 1.48 0 00-.335-.508l-1.409 1.42a.53.53 0 01-.117-.178l1.861-.734zm.101.612c.01-.21-.025-.418-.101-.612l-1.861.734a.53.53 0 01-.036-.217l1.998.095zm-.177 3.607l.177-3.606-1.998-.098-.176 3.606 1.997.098zM562 296.628c.7 0 1.277-.55 1.311-1.249l-1.997-.098a.687.687 0 01.686-.653v2zm-1.311-1.249c.035.7.611 1.249 1.311 1.249v-2c.367 0 .669.287.687.653l-1.998.098zm-.177-3.607l.177 3.607 1.998-.098-.177-3.607-1.998.098zm1.262-1.063l-.312.016.098 1.997.312-.015-.098-1.998zm-.225 2.01l.312-.012-.076-1.998-.313.012.077 1.998zm-.935-1.561c-.075.19-.11.394-.103.6l1.999-.076a.531.531 0 01-.036.213l-1.86-.737zm.328-.5c-.14.141-.253.31-.328.5l1.86.737a.538.538 0 01-.115.175l-1.417-1.412zm.484-.324a1.497 1.497 0 00-.484.324l1.417 1.412a.504.504 0 01-.166.111l-.767-1.847zm.56-.114c-.191.001-.381.04-.56.114l.767 1.847a.51.51 0 01-.188.039l-.019-2zm.014 6.456c.066 0 .134.019.196.058l-1.078 1.685c.265.169.572.257.882.257v-2zm-.255.105a.367.367 0 01.255-.105v2c.415 0 .822-.157 1.128-.451l-1.383-1.444zm-.127.304a.42.42 0 01.127-.304l1.383 1.444c.308-.294.49-.704.49-1.14h-2zm.075.244a.43.43 0 01-.075-.244h2c0-.325-.101-.638-.284-.901l-1.641 1.145zm.175.139a.392.392 0 01-.175-.139l1.641-1.145a1.61 1.61 0 00-.729-.575l-.737 1.859zm.199.019a.349.349 0 01-.199-.019l.737-1.859a1.637 1.637 0 00-.913-.086l.375 1.964zm.188-.098a.365.365 0 01-.188.098l-.375-1.964a1.619 1.619 0 00-.82.422l1.383 1.444zm.118-.216a.409.409 0 01-.118.216l-1.383-1.444c-.23.219-.391.504-.457.821l1.958.407zm-.026-.259c.035.08.045.171.026.259l-1.958-.407c-.066.318-.031.646.097.942l1.835-.794zm-.151-.18c.062.04.117.101.151.18l-1.835.794c.128.296.341.541.606.711l1.078-1.685z" fill="#FF9D59" mask="url(#a)"/>
      </g>
      <path fill-rule="evenodd" clip-rule="evenodd" d="M562 349c11.046 0 20-8.954 20-20s-8.954-20-20-20-20 8.954-20 20 8.954 20 20 20zm0-5c8.284 0 15-6.716 15-15 0-8.284-6.716-15-15-15-8.284 0-15 6.716-15 15 0 8.284 6.716 15 15 15z" fill="#FF9D59"/>
      <path d="M554.206 332h4.307v-1.134h-2.358v-.036l.696-.642c1.261-1.1 1.591-1.66 1.591-2.327 0-1.049-.855-1.759-2.176-1.759-1.287 0-2.148.742-2.145 1.926h1.332c0-.525.324-.829.807-.829.475 0 .818.292.818.773 0 .434-.272.73-.75 1.159l-2.122 1.858V332zm7.508.142c1.523.003 2.457-1.122 2.46-3.043.003-1.909-.937-2.997-2.46-2.997s-2.455 1.086-2.457 2.997c-.006 1.915.934 3.043 2.457 3.043zm0-1.151c-.605 0-1.017-.607-1.011-1.892.002-1.258.409-1.855 1.011-1.855.605 0 1.011.597 1.014 1.855.003 1.285-.406 1.892-1.014 1.892zm5.672 1.151c1.523.003 2.457-1.122 2.46-3.043.003-1.909-.937-2.997-2.46-2.997s-2.455 1.086-2.457 2.997c-.006 1.915.934 3.043 2.457 3.043zm0-1.151c-.605 0-1.017-.607-1.011-1.892.002-1.258.409-1.855 1.011-1.855.605 0 1.011.597 1.014 1.855.003 1.285-.406 1.892-1.014 1.892zM527.749 362.909v7.608c0 .72-.296 1.126-.961 1.126h-.203v1.016h.222c1.366 0 2.031-.831 2.031-2.142v-7.608h-1.089zm.535-1.182c.425 0 .776-.332.776-.738 0-.407-.351-.739-.776-.739-.425 0-.776.332-.776.739 0 .406.351.738.776.738zm7.572 2.77c-.341-1.006-1.108-1.68-2.511-1.68-1.496 0-2.604.849-2.604 2.049 0 .979.582 1.635 1.884 1.939l1.181.277c.716.167 1.053.508 1.053.998 0 .609-.646 1.108-1.662 1.108-.891 0-1.449-.384-1.643-1.145l-1.034.258c.253 1.205 1.246 1.847 2.696 1.847 1.648 0 2.769-.9 2.769-2.124 0-.988-.618-1.611-1.883-1.92l-1.053-.259c-.84-.208-1.218-.489-1.218-1.034 0-.609.646-1.052 1.514-1.052.951 0 1.343.526 1.532 1.015l.979-.277zm4.65 5.651c1.921 0 3.213-1.459 3.213-3.657 0-2.215-1.292-3.674-3.213-3.674-1.92 0-3.213 1.459-3.213 3.674 0 2.198 1.293 3.657 3.213 3.657zm0-.979c-1.459 0-2.123-1.256-2.123-2.678 0-1.421.664-2.696 2.123-2.696s2.124 1.275 2.124 2.696c0 1.422-.665 2.678-2.124 2.678zm5.966-3.435c0-1.237.766-1.939 1.809-1.939 1.011 0 1.625.661 1.625 1.773V370h1.09v-4.506c0-1.809-.965-2.677-2.401-2.677-1.071 0-1.735.48-2.068 1.2h-.092v-1.108h-1.053V370h1.09v-4.266zm10.577-.295h-4.136v1.016h4.136v-1.016zm1.917 7.22h1.09v-3.748h.092c.24.387.702 1.237 2.068 1.237 1.773 0 3.01-1.422 3.01-3.675 0-2.234-1.237-3.656-3.028-3.656-1.385 0-1.81.849-2.05 1.219h-.129v-1.127h-1.053v9.75zm1.071-6.204c0-1.589.702-2.66 2.032-2.66 1.384 0 2.068 1.164 2.068 2.66 0 1.514-.702 2.714-2.068 2.714-1.312 0-2.032-1.108-2.032-2.714zm8.938 3.711c1.237 0 1.883-.665 2.105-1.126h.055v.96h1.09v-4.672c0-2.253-1.718-2.511-2.622-2.511-1.071 0-2.29.369-2.844 1.662l1.034.369c.24-.517.808-1.071 1.847-1.071 1.001 0 1.495.531 1.495 1.44v.037c0 .527-.535.48-1.828.647-1.316.17-2.751.461-2.751 2.086 0 1.385 1.071 2.179 2.419 2.179zm.166-.978c-.868 0-1.496-.388-1.496-1.145 0-.831.757-1.09 1.607-1.201.461-.055 1.699-.184 1.883-.406v.997c0 .887-.701 1.755-1.994 1.755zm5.072.812h1.09v-4.487c0-.96.757-1.662 1.791-1.662.291 0 .591.055.665.074v-1.108a10.696 10.696 0 00-.573-.019c-.849 0-1.588.48-1.846 1.182h-.074v-1.071h-1.053V370zm9.86-5.503c-.342-1.006-1.108-1.68-2.511-1.68-1.496 0-2.604.849-2.604 2.049 0 .979.582 1.635 1.883 1.939l1.182.277c.716.167 1.053.508 1.053.998 0 .609-.646 1.108-1.662 1.108-.891 0-1.45-.384-1.644-1.145l-1.034.258c.254 1.205 1.247 1.847 2.696 1.847 1.648 0 2.77-.9 2.77-2.124 0-.988-.618-1.611-1.883-1.92l-1.053-.259c-.84-.208-1.219-.489-1.219-1.034 0-.609.647-1.052 1.515-1.052.951 0 1.343.526 1.532 1.015l.979-.277zm4.742 5.651c1.441 0 2.493-.72 2.826-1.791l-1.053-.296c-.277.739-.919 1.108-1.773 1.108-1.279 0-2.16-.826-2.211-2.345h5.147v-.462c0-2.64-1.569-3.545-3.047-3.545-1.92 0-3.194 1.514-3.194 3.693 0 2.179 1.256 3.638 3.305 3.638zm-2.211-4.266c.074-1.103.854-2.087 2.1-2.087 1.182 0 1.939.887 1.939 2.087h-4.039zm6.805 4.118h1.089v-4.487c0-.96.757-1.662 1.791-1.662.291 0 .591.055.665.074v-1.108a10.693 10.693 0 00-.572-.019c-.85 0-1.588.48-1.847 1.182h-.074v-1.071h-1.052V370z" fill="black"/>
      <path stroke="black" stroke-opacity=".2" d="M674.5-74v834"/>
      <path d="M721.57 21.364h3.148V30h1.829v-8.636h3.147v-1.546h-8.124v1.546zM730.388 30h1.799v-4.49c0-.969.731-1.655 1.72-1.655.304 0 .682.055.836.104v-1.655a4.32 4.32 0 00-.647-.05c-.875 0-1.605.497-1.884 1.382h-.079v-1.272h-1.745V30zm7.597.154c1.199 0 1.915-.562 2.243-1.203h.059V30h1.73v-5.11c0-2.02-1.645-2.626-3.102-2.626-1.606 0-2.839.716-3.236 2.108l1.68.239c.179-.522.686-.97 1.566-.97.835 0 1.293.428 1.293 1.179v.03c0 .516-.542.541-1.89.685-1.481.16-2.898.602-2.898 2.322 0 1.502 1.099 2.297 2.555 2.297zm.468-1.322c-.751 0-1.288-.343-1.288-1.005 0-.69.602-.979 1.407-1.093.472-.065 1.417-.184 1.651-.373v.9c0 .85-.686 1.57-1.77 1.57zm7.174-3.306c0-1.104.666-1.74 1.616-1.74.929 0 1.486.611 1.486 1.63V30h1.8v-4.862c.005-1.83-1.039-2.874-2.615-2.874-1.144 0-1.929.547-2.277 1.397h-.09v-1.297h-1.72V30h1.8v-4.474zm12.767-1.144c-.249-1.293-1.283-2.118-3.073-2.118-1.839 0-3.092.905-3.087 2.317-.005 1.114.681 1.85 2.148 2.153l1.302.273c.701.154 1.029.438 1.029.87 0 .522-.566.915-1.421.915-.826 0-1.363-.358-1.517-1.044l-1.755.169c.224 1.402 1.402 2.232 3.277 2.232 1.909 0 3.256-.99 3.261-2.436-.005-1.089-.706-1.755-2.148-2.068l-1.302-.279c-.776-.174-1.084-.442-1.079-.884-.005-.517.567-.875 1.317-.875.83 0 1.268.452 1.407.954l1.641-.179zm5.516-2.018h-1.586v-.602c0-.596.248-.93.92-.93.283 0 .522.065.671.11l.363-1.392a4.492 4.492 0 00-1.367-.21c-1.328 0-2.387.762-2.387 2.303v.72h-1.128v1.393h1.128V30h1.8v-6.244h1.586v-1.392zm4.453 7.785c2.237 0 3.659-1.576 3.659-3.937 0-2.367-1.422-3.948-3.659-3.948s-3.659 1.581-3.659 3.948c0 2.361 1.422 3.937 3.659 3.937zm.01-1.442c-1.238 0-1.844-1.103-1.844-2.5s.606-2.516 1.844-2.516c1.218 0 1.825 1.119 1.825 2.516s-.607 2.5-1.825 2.5zM773.55 30h1.799v-4.49c0-.969.731-1.655 1.721-1.655.303 0 .681.055.835.104v-1.655a4.316 4.316 0 00-.646-.05c-.875 0-1.606.497-1.885 1.382h-.079v-1.272h-1.745V30zm5.55 0h1.8v-4.643c0-.94.627-1.576 1.402-1.576.761 0 1.283.512 1.283 1.297V30h1.765v-4.763c0-.86.512-1.456 1.382-1.456.726 0 1.302.427 1.302 1.372V30h1.805v-5.126c0-1.705-.984-2.61-2.386-2.61-1.109 0-1.954.547-2.292 1.397h-.08c-.293-.865-1.034-1.397-2.063-1.397-1.024 0-1.79.527-2.108 1.397h-.089v-1.297H779.1V30zm18.6-5.618c-.248-1.293-1.282-2.118-3.072-2.118-1.839 0-3.092.905-3.087 2.317-.005 1.114.681 1.85 2.147 2.153l1.303.273c.701.154 1.029.438 1.029.87 0 .522-.567.915-1.422.915-.825 0-1.362-.358-1.516-1.044l-1.755.169c.224 1.402 1.402 2.232 3.276 2.232 1.909 0 3.257-.99 3.262-2.436-.005-1.089-.706-1.755-2.148-2.068l-1.303-.279c-.775-.174-1.084-.442-1.079-.884-.005-.517.567-.875 1.318-.875.83 0 1.268.452 1.407.954l1.64-.179zm10.734-1.765h1.775c-.035-1.72-1.501-2.938-3.669-2.938-2.138 0-3.744 1.203-3.739 3.003 0 1.462 1.039 2.302 2.715 2.734l1.158.299c1.099.278 1.825.62 1.83 1.411-.005.87-.831 1.452-2.034 1.452-1.153 0-2.048-.517-2.123-1.586h-1.814c.074 2.024 1.581 3.162 3.952 3.162 2.441 0 3.858-1.218 3.863-3.013-.005-1.765-1.461-2.57-2.993-2.933l-.954-.238c-.835-.2-1.74-.552-1.73-1.402.005-.766.691-1.328 1.844-1.328 1.099 0 1.825.512 1.919 1.377zm7.292-.253h-1.506v-1.83h-1.8v1.83h-1.084v1.392h1.084V28c-.01 1.437 1.034 2.143 2.386 2.103a3.602 3.602 0 001.059-.179l-.303-1.407c-.099.025-.303.07-.527.07-.452 0-.815-.159-.815-.885v-3.947h1.506v-1.392zm3.703 7.79c1.198 0 1.914-.562 2.242-1.203h.06V30h1.73v-5.11c0-2.02-1.646-2.626-3.103-2.626-1.605 0-2.838.716-3.236 2.108l1.68.239c.179-.522.686-.97 1.566-.97.836 0 1.293.428 1.293 1.179v.03c0 .516-.542.541-1.889.685-1.482.16-2.899.602-2.899 2.322 0 1.502 1.099 2.297 2.556 2.297zm.467-1.322c-.751 0-1.288-.343-1.288-1.005 0-.69.602-.979 1.407-1.093.473-.065 1.417-.184 1.651-.373v.9c0 .85-.686 1.57-1.77 1.57zm8.695 4.19c2.064 0 3.585-.944 3.585-2.898v-7.76h-1.775v1.262h-.099c-.274-.551-.846-1.362-2.193-1.362-1.765 0-3.152 1.382-3.152 3.893 0 2.49 1.387 3.734 3.147 3.734 1.308 0 1.919-.701 2.198-1.263h.089v1.447c0 1.123-.746 1.585-1.77 1.585-1.084 0-1.561-.512-1.78-.959l-1.62.393c.328 1.069 1.427 1.929 3.37 1.929zm.015-4.543c-1.188 0-1.814-.925-1.814-2.332 0-1.387.616-2.406 1.814-2.406 1.159 0 1.795.96 1.795 2.406 0 1.457-.646 2.332-1.795 2.332zm8.795 1.67c1.78 0 3.003-.87 3.321-2.197l-1.68-.19c-.244.647-.84.985-1.616.985-1.163 0-1.934-.765-1.949-2.073h5.32v-.552c0-2.68-1.611-3.858-3.49-3.858-2.188 0-3.615 1.606-3.615 3.963 0 2.396 1.407 3.922 3.709 3.922zm-1.919-4.688c.055-.974.776-1.795 1.849-1.795 1.035 0 1.731.756 1.741 1.795h-3.59zm13.944 4.678c2.178 0 3.764-1.248 3.759-2.968.005-1.273-.791-2.187-2.218-2.391v-.08c1.104-.238 1.845-1.059 1.84-2.202.005-1.551-1.318-2.819-3.351-2.819-1.979 0-3.51 1.178-3.55 2.884h1.775c.03-.856.825-1.388 1.765-1.388.95 0 1.581.577 1.576 1.432.005.89-.731 1.482-1.785 1.482h-.9v1.422h.9c1.288 0 2.053.646 2.049 1.566.004.9-.776 1.516-1.865 1.516-1.024 0-1.814-.532-1.859-1.362h-1.87c.05 1.72 1.586 2.908 3.734 2.908z" fill="black"/>
      <path fill-rule="evenodd" clip-rule="evenodd" d="M787 469c11.046 0 20-8.954 20-20s-8.954-20-20-20-20 8.954-20 20 8.954 20 20 20zm0-5c8.284 0 15-6.716 15-15 0-8.284-6.716-15-15-15-8.284 0-15 6.716-15 15 0 8.284 6.716 15 15 15z" fill="#26CEE6"/>
      <path d="M780.391 452.08c1.355 0 2.258-.853 2.258-2.052 0-1.108-.773-1.897-1.818-1.897-.551 0-1.009.235-1.202.557h-.034l.134-1.373h2.576v-1.133h-3.733l-.253 3.136 1.242.233c.156-.261.48-.423.821-.42.534 0 .915.378.912.937.003.557-.372.932-.903.932-.452 0-.824-.281-.844-.71h-1.364c.017 1.045.935 1.79 2.208 1.79zm3.651.002a.753.753 0 00.738-.738.749.749 0 00-.738-.73.73.73 0 00-.739.73.733.733 0 00.739.738zm3.71-5.98c-1.341-.003-2.259.838-2.253 2.043.003 1.071.733 1.849 1.776 1.849.65 0 1.236-.312 1.477-.835h.034c-.003 1.06-.352 1.722-1.062 1.722-.392 0-.694-.193-.779-.583h-1.383c.105 1.003.934 1.782 2.162 1.782 1.483 0 2.454-1.168 2.448-3.108-.002-2.103-1.144-2.867-2.42-2.87zm.009 1.08c.514 0 .892.406.897.915a.9.9 0 01-.903.92c-.52 0-.889-.398-.892-.918a.883.883 0 01.898-.917zm3.195 4.818h1.389v-1.31l.281-.341 1.04 1.651h1.605l-1.611-2.463 1.549-1.901h-1.574l-1.227 1.563h-.063v-3.017h-1.389V452zM747.451 490.148c1.44 0 2.492-.72 2.825-1.791l-1.053-.296c-.277.739-.918 1.108-1.772 1.108-1.279 0-2.161-.826-2.212-2.345h5.148v-.462c0-2.64-1.57-3.545-3.047-3.545-1.921 0-3.195 1.514-3.195 3.693 0 2.179 1.256 3.638 3.306 3.638zm-2.212-4.266c.074-1.103.854-2.087 2.101-2.087 1.182 0 1.939.887 1.939 2.087h-4.04zm9.686 4.266c1.569 0 2.603-.96 2.788-2.216h-1.09c-.203.775-.849 1.237-1.698 1.237-1.293 0-2.124-1.071-2.124-2.714 0-1.607.849-2.66 2.124-2.66.96 0 1.532.591 1.698 1.238h1.09c-.185-1.33-1.311-2.216-2.807-2.216-1.92 0-3.194 1.514-3.194 3.674 0 2.124 1.218 3.657 3.213 3.657zm4.362-.148h5.965v-1.016h-4.395v-.073l2.123-2.272c1.625-1.74 2.105-2.553 2.105-3.601 0-1.458-1.181-2.622-2.843-2.622-1.658 0-2.918 1.127-2.918 2.789h1.09c0-1.076.697-1.792 1.791-1.792 1.025 0 1.809.628 1.809 1.625 0 .873-.512 1.519-1.606 2.715l-3.121 3.416V490zm11.952-4.561h-4.136v1.016h4.136v-1.016zm1.917 4.561h1.09v-4.432c0-1.039.757-1.773 1.606-1.773.827 0 1.404.541 1.404 1.348V490h1.108v-4.616c0-.915.572-1.589 1.569-1.589.776 0 1.441.411 1.441 1.459V490h1.089v-4.746c0-1.666-.896-2.437-2.16-2.437-1.016 0-1.759.466-2.124 1.2h-.074c-.351-.757-.969-1.2-1.902-1.2-.923 0-1.606.443-1.902 1.2h-.092v-1.108h-1.053V490zm14.272.148c1.44 0 2.493-.72 2.825-1.791l-1.052-.296c-.277.739-.919 1.108-1.773 1.108-1.279 0-2.16-.826-2.211-2.345h5.147v-.462c0-2.64-1.569-3.545-3.047-3.545-1.92 0-3.194 1.514-3.194 3.693 0 2.179 1.255 3.638 3.305 3.638zm-2.211-4.266c.074-1.103.854-2.087 2.1-2.087 1.182 0 1.939.887 1.939 2.087h-4.039zm9.888-2.973h-1.514v-1.699h-1.089v1.699h-1.071v.923h1.071v4.432c0 1.237.997 1.828 1.92 1.828.406 0 .665-.074.813-.129l-.222-.979c-.092.019-.24.056-.48.056-.48 0-.942-.148-.942-1.071v-4.137h1.514v-.923zm3.726 7.257c1.237 0 1.883-.665 2.105-1.126h.055v.96h1.09v-4.672c0-2.253-1.718-2.511-2.622-2.511-1.071 0-2.29.369-2.844 1.662l1.034.369c.24-.517.808-1.071 1.847-1.071 1.001 0 1.495.531 1.495 1.44v.037c0 .527-.535.48-1.828.647-1.316.17-2.751.461-2.751 2.086 0 1.385 1.071 2.179 2.419 2.179zm.166-.978c-.868 0-1.496-.388-1.496-1.145 0-.831.757-1.09 1.607-1.201.461-.055 1.699-.184 1.883-.406v.997c0 .887-.701 1.755-1.994 1.755zm7.75.96c1.366 0 1.828-.85 2.068-1.237h.129V490h1.053v-9.455h-1.09v3.491h-.092c-.24-.37-.665-1.219-2.05-1.219-1.791 0-3.028 1.422-3.028 3.656 0 2.253 1.237 3.675 3.01 3.675zm.148-.979c-1.367 0-2.069-1.2-2.069-2.714 0-1.496.684-2.66 2.069-2.66 1.329 0 2.031 1.071 2.031 2.66 0 1.606-.72 2.714-2.031 2.714zm7.335.997c1.237 0 1.884-.665 2.105-1.126h.056v.96h1.089v-4.672c0-2.253-1.717-2.511-2.622-2.511-1.071 0-2.29.369-2.844 1.662l1.034.369c.24-.517.808-1.071 1.847-1.071 1.002 0 1.496.531 1.496 1.44v.037c0 .527-.536.48-1.828.647-1.316.17-2.752.461-2.752 2.086 0 1.385 1.071 2.179 2.419 2.179zm.166-.978c-.868 0-1.495-.388-1.495-1.145 0-.831.757-1.09 1.606-1.201.462-.055 1.699-.184 1.884-.406v.997c0 .887-.702 1.755-1.995 1.755zm8.157-6.279h-1.515v-1.699h-1.089v1.699h-1.071v.923h1.071v4.432c0 1.237.997 1.828 1.92 1.828.407 0 .665-.074.813-.129l-.222-.979c-.092.019-.24.056-.48.056-.48 0-.942-.148-.942-1.071v-4.137h1.515v-.923zm3.725 7.257c1.237 0 1.884-.665 2.105-1.126h.056v.96h1.089v-4.672c0-2.253-1.717-2.511-2.622-2.511-1.071 0-2.29.369-2.844 1.662l1.034.369c.24-.517.808-1.071 1.847-1.071 1.002 0 1.496.531 1.496 1.44v.037c0 .527-.536.48-1.829.647-1.315.17-2.751.461-2.751 2.086 0 1.385 1.071 2.179 2.419 2.179zm.166-.978c-.868 0-1.496-.388-1.496-1.145 0-.831.758-1.09 1.607-1.201.462-.055 1.699-.184 1.884-.406v.997c0 .887-.702 1.755-1.995 1.755z" fill="black"/>
      <path stroke="black" stroke-opacity=".2" d="M899.5-74v834"/>
      <path d="M946.468 21.364h3.147V30h1.83v-8.636h3.147v-1.546h-8.124v1.546zM955.285 30h1.8v-4.49c0-.969.731-1.655 1.72-1.655.303 0 .681.055.835.104v-1.655a4.306 4.306 0 00-.646-.05c-.875 0-1.606.497-1.884 1.382h-.08v-1.272h-1.745V30zm7.598.154c1.198 0 1.914-.562 2.242-1.203h.06V30h1.73v-5.11c0-2.02-1.646-2.626-3.102-2.626-1.606 0-2.839.716-3.237 2.108l1.68.239c.179-.522.687-.97 1.567-.97.835 0 1.292.428 1.292 1.179v.03c0 .516-.542.541-1.889.685-1.482.16-2.898.602-2.898 2.322 0 1.502 1.098 2.297 2.555 2.297zm.467-1.322c-.75 0-1.287-.343-1.287-1.005 0-.69.601-.979 1.407-1.093.472-.065 1.416-.184 1.65-.373v.9c0 .85-.686 1.57-1.77 1.57zm7.174-3.306c0-1.104.666-1.74 1.616-1.74.93 0 1.487.611 1.487 1.63V30h1.799v-4.862c.005-1.83-1.039-2.874-2.615-2.874-1.143 0-1.929.547-2.277 1.397h-.089v-1.297h-1.72V30h1.799v-4.474zm12.767-1.144c-.248-1.293-1.282-2.118-3.072-2.118-1.84 0-3.092.905-3.088 2.317-.004 1.114.682 1.85 2.148 2.153l1.303.273c.701.154 1.029.438 1.029.87 0 .522-.567.915-1.422.915-.825 0-1.362-.358-1.516-1.044l-1.755.169c.223 1.402 1.402 2.232 3.276 2.232 1.909 0 3.256-.99 3.261-2.436-.005-1.089-.706-1.755-2.147-2.068l-1.303-.279c-.776-.174-1.084-.442-1.079-.884-.005-.517.567-.875 1.318-.875.83 0 1.267.452 1.407.954l1.64-.179zm5.516-2.018h-1.586v-.602c0-.596.249-.93.92-.93.283 0 .522.065.671.11l.363-1.392a4.492 4.492 0 00-1.367-.21c-1.327 0-2.386.762-2.386 2.303v.72h-1.129v1.393h1.129V30h1.799v-6.244h1.586v-1.392zm4.454 7.785c2.237 0 3.659-1.576 3.659-3.937 0-2.367-1.422-3.948-3.659-3.948-2.238 0-3.66 1.581-3.66 3.948 0 2.361 1.422 3.937 3.66 3.937zm.01-1.442c-1.238 0-1.845-1.103-1.845-2.5s.607-2.516 1.845-2.516c1.218 0 1.824 1.119 1.824 2.516s-.606 2.5-1.824 2.5zM998.447 30h1.803v-4.49c0-.969.73-1.655 1.72-1.655.3 0 .68.055.83.104v-1.655c-.16-.03-.45-.05-.64-.05-.88 0-1.61.497-1.89 1.382h-.08v-1.272h-1.743V30zm5.553 0h1.8v-4.643c0-.94.62-1.576 1.4-1.576.76 0 1.28.512 1.28 1.297V30h1.77v-4.763c0-.86.51-1.456 1.38-1.456.73 0 1.3.427 1.3 1.372V30h1.81v-5.126c0-1.705-.99-2.61-2.39-2.61-1.11 0-1.95.547-2.29 1.397h-.08c-.29-.865-1.04-1.397-2.06-1.397-1.03 0-1.79.527-2.11 1.397h-.09v-1.297H1004V30zm18.6-5.618c-.25-1.293-1.28-2.118-3.07-2.118-1.84 0-3.1.905-3.09 2.317-.01 1.114.68 1.85 2.15 2.153l1.3.273c.7.154 1.03.438 1.03.87 0 .522-.57.915-1.42.915-.83 0-1.37-.358-1.52-1.044l-1.76.169c.23 1.402 1.41 2.232 3.28 2.232 1.91 0 3.26-.99 3.26-2.436 0-1.089-.7-1.755-2.15-2.068l-1.3-.279c-.77-.174-1.08-.442-1.08-.884 0-.517.57-.875 1.32-.875.83 0 1.27.452 1.41.954l1.64-.179zm10.73-1.765h1.78c-.04-1.72-1.5-2.938-3.67-2.938-2.14 0-3.75 1.203-3.74 3.003 0 1.462 1.04 2.302 2.71 2.734l1.16.299c1.1.278 1.83.62 1.83 1.411 0 .87-.83 1.452-2.03 1.452-1.16 0-2.05-.517-2.13-1.586h-1.81c.07 2.024 1.58 3.162 3.95 3.162 2.44 0 3.86-1.218 3.87-3.013-.01-1.765-1.47-2.57-3-2.933l-.95-.238c-.84-.2-1.74-.552-1.73-1.402 0-.766.69-1.328 1.84-1.328 1.1 0 1.83.512 1.92 1.377zm7.29-.253h-1.5v-1.83h-1.8v1.83h-1.09v1.392h1.09V28c-.01 1.437 1.03 2.143 2.38 2.103.52-.014.87-.114 1.06-.179l-.3-1.407c-.1.025-.3.07-.53.07-.45 0-.81-.159-.81-.885v-3.947h1.5v-1.392zm3.71 7.79c1.19 0 1.91-.562 2.24-1.203h.06V30h1.73v-5.11c0-2.02-1.65-2.626-3.1-2.626-1.61 0-2.84.716-3.24 2.108l1.68.239c.18-.522.69-.97 1.57-.97.83 0 1.29.428 1.29 1.179v.03c0 .516-.54.541-1.89.685-1.48.16-2.9.602-2.9 2.322 0 1.502 1.1 2.297 2.56 2.297zm.46-1.322c-.75 0-1.28-.343-1.28-1.005 0-.69.6-.979 1.4-1.093.48-.065 1.42-.184 1.65-.373v.9c0 .85-.68 1.57-1.77 1.57zm8.7 4.19c2.06 0 3.58-.944 3.58-2.898v-7.76h-1.77v1.262h-.1c-.27-.551-.85-1.362-2.19-1.362-1.77 0-3.16 1.382-3.16 3.893 0 2.49 1.39 3.734 3.15 3.734 1.31 0 1.92-.701 2.2-1.263h.09v1.447c0 1.123-.75 1.585-1.77 1.585-1.09 0-1.56-.512-1.78-.959l-1.62.393c.33 1.069 1.43 1.929 3.37 1.929zm.01-4.543c-1.18 0-1.81-.925-1.81-2.332 0-1.387.62-2.406 1.81-2.406 1.16 0 1.8.96 1.8 2.406 0 1.457-.65 2.332-1.8 2.332zm8.8 1.67c1.78 0 3-.87 3.32-2.197l-1.68-.19c-.24.647-.84.985-1.62.985-1.16 0-1.93-.765-1.95-2.073h5.32v-.552c0-2.68-1.61-3.858-3.49-3.858-2.18 0-3.61 1.606-3.61 3.963 0 2.396 1.41 3.922 3.71 3.922zm-1.92-4.688c.05-.974.78-1.795 1.85-1.795 1.03 0 1.73.756 1.74 1.795h-3.59zm10.11 2.65h4.85V30h1.76v-1.89h1.31v-1.515h-1.31v-6.777h-2.29l-4.32 6.826v1.467zm4.87-1.517h-2.99v-.08l2.91-4.608h.08v4.689z" fill="black"/>
      <path fill-rule="evenodd" clip-rule="evenodd" d="M1012 469c11.05 0 20-8.954 20-20s-8.95-20-20-20-20 8.954-20 20 8.95 20 20 20zm0-5c8.28 0 15-6.716 15-15 0-8.284-6.72-15-15-15-8.28 0-15 6.716-15 15 0 8.284 6.72 15 15 15z" fill="#26CEE6"/>
      <path d="M1005.39 452.08c1.36 0 2.26-.853 2.26-2.052 0-1.108-.77-1.897-1.82-1.897-.55 0-1.01.235-1.2.557h-.03l.13-1.373h2.58v-1.133h-3.74l-.25 3.136 1.24.233c.16-.261.48-.423.82-.42.54 0 .92.378.91.937.01.557-.37.932-.9.932-.45 0-.82-.281-.84-.71h-1.37c.02 1.045.94 1.79 2.21 1.79zm3.65.002c.39 0 .73-.329.74-.738a.753.753 0 00-.74-.73.734.734 0 100 1.468zm3.71-5.98c-1.34-.003-2.26.838-2.25 2.043 0 1.071.73 1.849 1.77 1.849.66 0 1.24-.312 1.48-.835h.04c-.01 1.06-.36 1.722-1.07 1.722-.39 0-.69-.193-.77-.583h-1.39c.11 1.003.94 1.782 2.16 1.782 1.49 0 2.46-1.168 2.45-3.108 0-2.103-1.14-2.867-2.42-2.87zm.01 1.08c.51 0 .89.406.9.915 0 .511-.39.92-.91.92s-.88-.398-.89-.918c0-.517.38-.917.9-.917zm3.2 4.818h1.39v-1.31l.28-.341 1.04 1.651h1.6l-1.61-2.463 1.55-1.901h-1.58l-1.22 1.563h-.06v-3.017h-1.39V452zM993.607 484.497c-.342-1.006-1.108-1.68-2.512-1.68-1.495 0-2.603.849-2.603 2.049 0 .979.581 1.635 1.883 1.939l1.182.277c.716.167 1.053.508 1.053.998 0 .609-.647 1.108-1.662 1.108-.891 0-1.45-.384-1.644-1.145l-1.034.258c.254 1.205 1.246 1.847 2.696 1.847 1.648 0 2.77-.9 2.77-2.124 0-.988-.619-1.611-1.884-1.92l-1.052-.259c-.84-.208-1.219-.489-1.219-1.034 0-.609.646-1.052 1.514-1.052.951 0 1.344.526 1.533 1.015l.979-.277zm3.856 5.669c1.237 0 1.883-.665 2.105-1.126h.055v.96h1.087v-4.672c0-2.253-1.715-2.511-2.62-2.511-1.071 0-2.289.369-2.843 1.662l1.034.369c.24-.517.808-1.071 1.846-1.071 1.002 0 1.496.531 1.496 1.44v.037c0 .527-.535.48-1.828.647-1.316.17-2.751.461-2.751 2.086 0 1.385 1.071 2.179 2.419 2.179zm.166-.978c-.868 0-1.496-.388-1.496-1.145 0-.831.757-1.09 1.607-1.201.461-.055 1.698-.184 1.883-.406v.997c0 .887-.702 1.755-1.994 1.755zm5.071.812h1.09v-4.432c0-1.039.76-1.773 1.61-1.773.82 0 1.4.541 1.4 1.348V490h1.11v-4.616c0-.915.57-1.589 1.57-1.589.77 0 1.44.411 1.44 1.459V490h1.09v-4.746c0-1.666-.9-2.437-2.16-2.437-1.02 0-1.76.466-2.13 1.2h-.07c-.35-.757-.97-1.2-1.9-1.2-.93 0-1.61.443-1.9 1.2h-.1v-1.108h-1.05V490zm11.3 2.659h1.09v-3.748h.09c.24.387.7 1.237 2.07 1.237 1.77 0 3.01-1.422 3.01-3.675 0-2.234-1.24-3.656-3.03-3.656-1.38 0-1.81.849-2.05 1.219h-.13v-1.127H1014v9.75zm1.07-6.204c0-1.589.7-2.66 2.03-2.66 1.39 0 2.07 1.164 2.07 2.66 0 1.514-.7 2.714-2.07 2.714-1.31 0-2.03-1.108-2.03-2.714zm7.94-5.91h-1.09V490h1.09v-9.455zm4.97 9.603c1.44 0 2.49-.72 2.83-1.791l-1.06-.296c-.27.739-.92 1.108-1.77 1.108-1.28 0-2.16-.826-2.21-2.345h5.15v-.462c0-2.64-1.57-3.545-3.05-3.545-1.92 0-3.2 1.514-3.2 3.693 0 2.179 1.26 3.638 3.31 3.638zm-2.21-4.266c.07-1.103.85-2.087 2.1-2.087 1.18 0 1.94.887 1.94 2.087h-4.04zm6.8 4.118h1.09v-4.487c0-.96.76-1.662 1.79-1.662.29 0 .59.055.67.074v-1.108c-.13-.009-.41-.019-.57-.019-.85 0-1.59.48-1.85 1.182h-.07v-1.071h-1.06V490z" fill="black"/>
      <path stroke="black" stroke-opacity=".2" d="M1124.5-74v834"/>
      <path d="M1225.57 22.617h1.78c-.04-1.72-1.5-2.938-3.67-2.938-2.14 0-3.74 1.203-3.74 3.003 0 1.462 1.04 2.302 2.72 2.734l1.15.299c1.1.278 1.83.62 1.83 1.411 0 .87-.83 1.452-2.03 1.452-1.15 0-2.05-.517-2.12-1.586h-1.82c.08 2.024 1.58 3.162 3.95 3.162 2.45 0 3.86-1.218 3.87-3.013-.01-1.765-1.46-2.57-3-2.933l-.95-.238c-.83-.2-1.74-.552-1.73-1.402.01-.766.69-1.328 1.84-1.328 1.1 0 1.83.512 1.92 1.377zm3.48 7.383h1.8v-7.636h-1.8V30zm.91-8.72c.57 0 1.04-.438 1.04-.975 0-.541-.47-.979-1.04-.979-.58 0-1.05.438-1.05.98 0 .536.47.974 1.05.974zm4.54 4.246c0-1.104.67-1.74 1.62-1.74.93 0 1.49.611 1.49 1.63V30h1.79v-4.862c.01-1.83-1.03-2.874-2.61-2.874-1.14 0-1.93.547-2.28 1.397h-.09v-1.297h-1.72V30h1.8v-4.474zm6.73 4.474h1.8v-2.565l.66-.701 2.34 3.266h2.15l-3.13-4.34 2.96-3.296h-2.11l-2.74 3.067h-.13v-5.613h-1.8V30zm14.01-5.618c-.25-1.293-1.28-2.118-3.07-2.118-1.84 0-3.09.905-3.09 2.317 0 1.114.68 1.85 2.15 2.153l1.3.273c.7.154 1.03.438 1.03.87 0 .522-.57.915-1.42.915-.83 0-1.36-.358-1.52-1.044l-1.75.169c.22 1.402 1.4 2.232 3.27 2.232 1.91 0 3.26-.99 3.26-2.436 0-1.089-.7-1.755-2.14-2.068l-1.31-.279c-.77-.174-1.08-.442-1.07-.884-.01-.517.56-.875 1.31-.875.83 0 1.27.452 1.41.954l1.64-.179z" fill="black"/>
      <path fill-rule="evenodd" clip-rule="evenodd" d="M1237 349c11.05 0 20-8.954 20-20s-8.95-20-20-20-20 8.954-20 20 8.95 20 20 20zm0-5c8.28 0 15-6.716 15-15 0-8.284-6.72-15-15-15-8.28 0-15 6.716-15 15 0 8.284 6.72 15 15 15z" fill="#26CEE6"/>
      <path opacity=".6" d="M1236.5 310c10.29 0 18.7 8.21 18.94 18.495l.06 2.505h-19v-21z" fill="#26CEE6"/>
      <path d="M1231.63 326.182h-1.3l-1.43.892v1.216l1.3-.796h.03V332h1.4v-5.818zm1.79 5.9c.39 0 .73-.329.74-.738a.753.753 0 00-.74-.73c-.41 0-.75.326-.74.73-.01.409.33.738.74.738zm1.64-.082h4.31v-1.134h-2.36v-.036l.7-.642c1.26-1.1 1.59-1.66 1.59-2.327 0-1.049-.86-1.759-2.18-1.759-1.29 0-2.15.742-2.14 1.926h1.33c0-.525.32-.829.81-.829.47 0 .81.292.81.773 0 .434-.27.73-.75 1.159l-2.12 1.858V332zm5.11 0h1.39v-1.31l.29-.341 1.03 1.651h1.61l-1.61-2.463 1.55-1.901h-1.58l-1.22 1.563h-.07v-3.017h-1.39V332zM1205.01 358.727h-1.25l-1.81 1.161v1.208l1.7-1.087h.04V366h1.32v-7.273zm4.53 7.411c1.76.004 2.81-1.381 2.81-3.767 0-2.372-1.06-3.743-2.81-3.743-1.74 0-2.79 1.367-2.8 3.743 0 2.383 1.05 3.767 2.8 3.767zm0-1.111c-.9 0-1.47-.909-1.47-2.656.01-1.733.57-2.646 1.47-2.646.91 0 1.47.913 1.48 2.646 0 1.747-.57 2.656-1.48 2.656zm4.51 1.051c.42 0 .78-.348.78-.781a.785.785 0 00-.78-.774c-.44 0-.79.348-.78.774-.01.433.34.781.78.781zm2.09-.078h4.99v-1.101h-3.17v-.05l1.25-1.274c1.42-1.357 1.81-2.017 1.81-2.838 0-1.218-.99-2.109-2.46-2.109-1.44 0-2.46.895-2.46 2.276h1.25c0-.742.47-1.207 1.2-1.207.69 0 1.2.422 1.2 1.108 0 .607-.37 1.04-1.08 1.768l-2.53 2.475V366zm6.23 0h1.28v-3.317c0-.671.45-1.125 1-1.125s.92.365.92.926V366h1.26v-3.402c0-.614.37-1.04.99-1.04.52 0 .93.305.93.98V366h1.29v-3.661c0-1.218-.71-1.865-1.71-1.865-.79 0-1.39.391-1.63.998h-.06c-.21-.618-.74-.998-1.47-.998-.74 0-1.28.377-1.51.998h-.06v-.927h-1.23V366zm9.03 0h1.26v-.859h.08c.2.397.62.955 1.56.955 1.29 0 2.25-1.019 2.25-2.816 0-1.818-.99-2.806-2.25-2.806-.97 0-1.37.579-1.56.973h-.06v-2.72h-1.28V366zm1.26-2.727c0-1.059.45-1.744 1.28-1.744.86 0 1.3.728 1.3 1.744 0 1.022-.45 1.768-1.3 1.768-.82 0-1.28-.71-1.28-1.768zm7.66-4.887h-.77l-2.34 8.708h.76l2.35-8.708zm3.53.341h-.88l-1.81 1.208v.895l1.77-1.179h.04V366h.88v-7.273zm4.47 7.372c1.6 0 2.53-1.36 2.53-3.735 0-2.358-.94-3.736-2.53-3.736-1.59 0-2.53 1.378-2.53 3.736 0 2.375.92 3.735 2.53 3.735zm0-.781c-1.06 0-1.68-1.062-1.68-2.954 0-1.89.63-2.969 1.68-2.969 1.05 0 1.67 1.079 1.67 2.969 0 1.892-.61 2.954-1.67 2.954zm6.25.781c1.6 0 2.53-1.36 2.53-3.735 0-2.358-.94-3.736-2.53-3.736-1.59 0-2.53 1.378-2.53 3.736 0 2.375.92 3.735 2.53 3.735zm0-.781c-1.06 0-1.68-1.062-1.68-2.954 0-1.89.63-2.969 1.68-2.969 1.05 0 1.67 1.079 1.67 2.969 0 1.892-.61 2.954-1.67 2.954zm3.89.682h.84v-3.409c0-.799.58-1.364 1.23-1.364.64 0 1.08.416 1.08 1.037V366h.86v-3.551c0-.703.44-1.222 1.2-1.222.6 0 1.11.316 1.11 1.122V366h.84v-3.651c0-1.282-.69-1.875-1.66-1.875-.78 0-1.36.359-1.64.924h-.05c-.27-.583-.75-.924-1.47-.924-.71 0-1.23.341-1.46.924h-.07v-.853h-.81V366zm8.81 0h.8v-.838h.1c.19.298.54.952 1.6.952 1.36 0 2.31-1.094 2.31-2.827 0-1.719-.95-2.813-2.33-2.813-1.06 0-1.39.654-1.58.938h-.07v-2.685h-.83V366zm.82-2.727c0-1.222.54-2.046 1.56-2.046 1.07 0 1.59.895 1.59 2.046 0 1.165-.54 2.088-1.59 2.088-1.01 0-1.56-.852-1.56-2.088zM1200.43 384.148c1.44 0 2.49-.72 2.82-1.791l-1.05-.296c-.28.739-.92 1.108-1.77 1.108-1.28 0-2.16-.826-2.21-2.345h5.14v-.462c0-2.64-1.57-3.545-3.04-3.545-1.92 0-3.2 1.514-3.2 3.693 0 2.179 1.26 3.638 3.31 3.638zm-2.21-4.266c.07-1.103.85-2.087 2.1-2.087 1.18 0 1.94.887 1.94 2.087h-4.04zm7.89-5.337h-1.09V384h1.09v-9.455zm4.08 9.621c1.24 0 1.89-.665 2.11-1.126h.05v.96h1.09v-4.672c0-2.253-1.71-2.511-2.62-2.511-1.07 0-2.29.369-2.84 1.662l1.03.369c.24-.517.81-1.071 1.85-1.071 1 0 1.49.531 1.49 1.44v.037c0 .527-.53.48-1.83.647-1.31.17-2.75.461-2.75 2.086 0 1.385 1.07 2.179 2.42 2.179zm.17-.978c-.87 0-1.5-.388-1.5-1.145 0-.831.76-1.09 1.61-1.201.46-.055 1.7-.184 1.88-.406v.997c0 .887-.7 1.755-1.99 1.755zm10.09-4.691c-.34-1.006-1.1-1.68-2.51-1.68-1.49 0-2.6.849-2.6 2.049 0 .979.58 1.635 1.88 1.939l1.18.277c.72.167 1.06.508 1.06.998 0 .609-.65 1.108-1.67 1.108-.89 0-1.44-.384-1.64-1.145l-1.03.258c.25 1.205 1.24 1.847 2.69 1.847 1.65 0 2.77-.9 2.77-2.124 0-.988-.62-1.611-1.88-1.92l-1.05-.259c-.84-.208-1.22-.489-1.22-1.034 0-.609.64-1.052 1.51-1.052.95 0 1.35.526 1.54 1.015l.97-.277zm4.86-1.588h-1.52v-1.699h-1.09v1.699h-1.07v.923h1.07v4.432c0 1.237 1 1.828 1.92 1.828.41 0 .67-.074.82-.129l-.23-.979c-.09.019-.24.056-.48.056-.48 0-.94-.148-.94-1.071v-4.137h1.52v-.923zm1.64 7.091h1.09v-7.091h-1.09V384zm.55-8.273c.42 0 .78-.332.78-.738 0-.407-.36-.739-.78-.739-.42 0-.78.332-.78.739 0 .406.36.738.78.738zm5.41 8.421c1.57 0 2.61-.96 2.79-2.216h-1.09c-.2.775-.85 1.237-1.7 1.237-1.29 0-2.12-1.071-2.12-2.714 0-1.607.85-2.66 2.12-2.66.96 0 1.53.591 1.7 1.238h1.09c-.18-1.33-1.31-2.216-2.81-2.216-1.92 0-3.19 1.514-3.19 3.674 0 2.124 1.22 3.657 3.21 3.657zm9.41-5.651c-.35-1.006-1.11-1.68-2.52-1.68-1.49 0-2.6.849-2.6 2.049 0 .979.58 1.635 1.88 1.939l1.19.277c.71.167 1.05.508 1.05.998 0 .609-.65 1.108-1.66 1.108-.89 0-1.45-.384-1.65-1.145l-1.03.258c.25 1.205 1.24 1.847 2.69 1.847 1.65 0 2.77-.9 2.77-2.124 0-.988-.61-1.611-1.88-1.92l-1.05-.259c-.84-.208-1.22-.489-1.22-1.034 0-.609.65-1.052 1.51-1.052.95 0 1.35.526 1.54 1.015l.98-.277zm4.74 5.651c1.44 0 2.49-.72 2.82-1.791l-1.05-.296c-.28.739-.92 1.108-1.77 1.108-1.28 0-2.16-.826-2.21-2.345h5.14v-.462c0-2.64-1.57-3.545-3.04-3.545-1.92 0-3.2 1.514-3.2 3.693 0 2.179 1.26 3.638 3.31 3.638zm-2.21-4.266c.07-1.103.85-2.087 2.1-2.087 1.18 0 1.94.887 1.94 2.087h-4.04zm8.89 4.284c1.23 0 1.88-.665 2.1-1.126h.06v.96h1.09v-4.672c0-2.253-1.72-2.511-2.62-2.511-1.08 0-2.29.369-2.85 1.662l1.04.369c.24-.517.8-1.071 1.84-1.071 1 0 1.5.531 1.5 1.44v.037c0 .527-.54.48-1.83.647-1.32.17-2.75.461-2.75 2.086 0 1.385 1.07 2.179 2.42 2.179zm.16-.978c-.86 0-1.49-.388-1.49-1.145 0-.831.76-1.09 1.6-1.201.47-.055 1.7-.184 1.89-.406v.997c0 .887-.7 1.755-2 1.755zm5.08.812h1.09v-4.487c0-.96.75-1.662 1.79-1.662.29 0 .59.055.66.074v-1.108c-.12-.009-.41-.019-.57-.019-.85 0-1.59.48-1.85 1.182h-.07v-1.071h-1.05V384zm7.5.148c1.57 0 2.6-.96 2.79-2.216h-1.09c-.21.775-.85 1.237-1.7 1.237-1.29 0-2.13-1.071-2.13-2.714 0-1.607.85-2.66 2.13-2.66.96 0 1.53.591 1.7 1.238h1.09c-.19-1.33-1.31-2.216-2.81-2.216-1.92 0-3.2 1.514-3.2 3.674 0 2.124 1.22 3.657 3.22 3.657zm5.47-4.414c0-1.237.79-1.939 1.86-1.939 1.03 0 1.65.647 1.65 1.773V384h1.09v-4.506c0-1.823-.97-2.677-2.42-2.677-1.12 0-1.76.466-2.09 1.2h-.09v-3.472h-1.09V384h1.09v-4.266z" fill="black"/>
      <g clip-path="url(#clip3)">
        <path fill-rule="evenodd" clip-rule="evenodd" d="M1243.25 413.5a6.251 6.251 0 01-12.5 0 6.251 6.251 0 0112.5 0zm-6.25-3.53c.06-.001.12.011.18.035.07.024.12.061.17.107a.79.79 0 01.11.165c.02.063.03.13.03.197l-.18 3.606a.31.31 0 01-.62 0l-.18-3.607.31-.015-.31.012c0-.066.01-.132.03-.194a.516.516 0 01.27-.269.495.495 0 01.19-.037zm-.34 6.357c.1.065.22.099.34.099.16 0 .32-.062.44-.173a.601.601 0 00.18-.418.567.567 0 00-.11-.329.564.564 0 00-.27-.217.656.656 0 00-.68.128.685.685 0 00-.17.303.573.573 0 00.04.341c.05.108.13.201.23.266z" fill="#EC5868"/>
      </g>
      <path fill-rule="evenodd" clip-rule="evenodd" d="M1237 469c11.05 0 20-8.954 20-20s-8.95-20-20-20-20 8.954-20 20 8.95 20 20 20zm0-5c8.28 0 15-6.716 15-15 0-8.284-6.72-15-15-15-8.28 0-15 6.716-15 15 0 8.284 6.72 15 15 15z" fill="#EC5868"/>
      <path opacity=".6" d="M1236.5 430c10.29 0 18.7 8.21 18.94 18.495l.06 2.505h-19v-21z" fill="#EC5868"/>
      <path d="M1231.63 446.182h-1.3l-1.43.892v1.216l1.3-.796h.03V452h1.4v-5.818zm1.79 5.9c.39 0 .73-.329.74-.738a.753.753 0 00-.74-.73c-.41 0-.75.326-.74.73-.01.409.33.738.74.738zm1.64-.082h4.31v-1.134h-2.36v-.036l.7-.642c1.26-1.1 1.59-1.66 1.59-2.327 0-1.049-.86-1.759-2.18-1.759-1.29 0-2.15.742-2.14 1.926h1.33c0-.525.32-.829.81-.829.47 0 .81.292.81.773 0 .434-.27.73-.75 1.159l-2.12 1.858V452zm5.11 0h1.39v-1.31l.29-.341 1.03 1.651h1.61l-1.61-2.463 1.55-1.901h-1.58l-1.22 1.563h-.07v-3.017h-1.39V452zM1209.87 486h4.99v-1.101h-3.17v-.05l1.25-1.274c1.42-1.357 1.81-2.017 1.81-2.838 0-1.218-.99-2.109-2.46-2.109-1.44 0-2.46.895-2.46 2.276h1.25c0-.742.47-1.207 1.2-1.207.69 0 1.2.422 1.2 1.108 0 .607-.37 1.04-1.08 1.768l-2.53 2.475V486zm9.17-7.273h-1.25l-1.81 1.161v1.208l1.7-1.087h.04V486h1.32v-7.273zm2.25 7.351c.42 0 .78-.348.79-.781a.8.8 0 00-.79-.774.778.778 0 100 1.555zm4.54.021c1.54 0 2.61-1.044 2.61-2.489 0-1.399-.97-2.408-2.3-2.408-.58 0-1.11.235-1.38.554h-.04l.21-1.928h3.13v-1.101h-4.22l-.38 3.75 1.19.196c.24-.27.71-.451 1.14-.448.8.004 1.38.593 1.37 1.417.01.813-.55 1.392-1.33 1.392-.66 0-1.19-.415-1.23-1.012h-1.28c.03 1.207 1.09 2.077 2.51 2.077zm3.81-.099h1.29v-3.317c0-.671.45-1.125 1-1.125.54 0 .92.365.92.926V486h1.26v-3.402c0-.614.36-1.04.98-1.04.52 0 .93.305.93.98V486h1.29v-3.661c0-1.218-.7-1.865-1.7-1.865-.79 0-1.4.391-1.64.998h-.06c-.2-.618-.73-.998-1.47-.998-.73 0-1.28.377-1.5.998h-.07v-.927h-1.23V486zm9.03 0h1.27v-.859h.07c.21.397.63.955 1.57.955 1.28 0 2.24-1.019 2.24-2.816 0-1.818-.99-2.806-2.25-2.806-.96 0-1.36.579-1.56.973h-.05v-2.72h-1.29V486zm1.26-2.727c0-1.059.46-1.744 1.29-1.744.85 0 1.29.728 1.29 1.744 0 1.022-.44 1.768-1.29 1.768-.82 0-1.29-.71-1.29-1.768zm7.66-4.887h-.76l-2.35 8.708h.77l2.34-8.708zm3.54.341h-.88l-1.82 1.208v.895l1.78-1.179h.04V486h.88v-7.273zm4.31 9.432c1.3 0 2.36-.597 2.36-2.003v-5.611h-.81v.867h-.09c-.18-.284-.53-.938-1.59-.938-1.38 0-2.33 1.094-2.33 2.77 0 1.705.99 2.671 2.32 2.671 1.06 0 1.4-.625 1.59-.924h.07v1.108c0 .91-.64 1.321-1.52 1.321-.99 0-1.34-.522-1.57-.823l-.66.468c.34.572 1.01 1.094 2.23 1.094zm-.03-2.997c-1.05 0-1.59-.796-1.59-1.932 0-1.108.52-2.003 1.59-2.003 1.02 0 1.56.824 1.56 2.003 0 1.208-.55 1.932-1.56 1.932zm4.03.838h.81v-.838h.1c.19.298.54.952 1.59.952 1.37 0 2.32-1.094 2.32-2.827 0-1.719-.95-2.813-2.33-2.813-1.07 0-1.39.654-1.58.938h-.07v-2.685h-.84V486zm.83-2.727c0-1.222.54-2.046 1.56-2.046 1.06 0 1.59.895 1.59 2.046 0 1.165-.54 2.088-1.59 2.088-1.01 0-1.56-.852-1.56-2.088zM1235.49 498.497c-.35-1.006-1.11-1.68-2.52-1.68-1.49 0-2.6.849-2.6 2.049 0 .979.58 1.635 1.88 1.939l1.19.277c.71.167 1.05.508 1.05.998 0 .609-.65 1.108-1.66 1.108-.89 0-1.45-.384-1.65-1.145l-1.03.258c.25 1.205 1.24 1.847 2.69 1.847 1.65 0 2.77-.9 2.77-2.124 0-.988-.61-1.611-1.88-1.92l-1.05-.259c-.84-.208-1.22-.489-1.22-1.034 0-.609.65-1.052 1.51-1.052.95 0 1.35.526 1.54 1.015l.98-.277zm4.94 5.632c1.83 0 3.2-1.149 3.2-2.696 0-1.2-.72-2.073-1.91-2.271v-.074c.96-.291 1.55-1.076 1.55-2.142 0-1.339-1.05-2.53-2.8-2.53-1.64 0-2.99 1.007-3.05 2.493h1.11c.04-.942.94-1.496 1.92-1.496 1.04 0 1.72.633 1.72 1.588 0 .998-.78 1.644-1.91 1.644h-.75v1.016h.75c1.44 0 2.24.729 2.24 1.772 0 1.002-.87 1.681-2.09 1.681-1.09 0-1.96-.564-2.03-1.478h-1.16c.07 1.487 1.38 2.493 3.21 2.493z" fill="black"/>
      <path fill-rule="evenodd" clip-rule="evenodd" d="M1237 589c11.05 0 20-8.954 20-20s-8.95-20-20-20-20 8.954-20 20 8.95 20 20 20zm0-5c8.28 0 15-6.716 15-15 0-8.284-6.72-15-15-15-8.28 0-15 6.716-15 15 0 8.284 6.72 15 15 15z" fill="#26CEE6"/>
      <path d="M1232.07 566.182h-1.31l-1.43.892v1.216l1.3-.796h.04V572h1.4v-5.818zm1.78 5.9c.39 0 .73-.329.74-.738a.753.753 0 00-.74-.73.734.734 0 100 1.468zm3.85-.002c1.35 0 2.26-.853 2.26-2.052 0-1.108-.78-1.897-1.82-1.897-.55 0-1.01.235-1.2.557h-.04l.14-1.373h2.57v-1.133h-3.73l-.25 3.136 1.24.233c.16-.261.48-.423.82-.42.53 0 .92.378.91.937.01.557-.37.932-.9.932-.45 0-.82-.281-.84-.71h-1.37c.02 1.045.94 1.79 2.21 1.79zm3.04-.08h1.39v-1.31l.28-.341 1.04 1.651h1.61l-1.61-2.463 1.54-1.901h-1.57l-1.23 1.563h-.06v-3.017h-1.39V572zM1207.15 606.099c1.53 0 2.61-1.044 2.61-2.489 0-1.399-.98-2.408-2.3-2.408-.59 0-1.11.235-1.38.554h-.04l.21-1.928h3.13v-1.101h-4.22l-.38 3.75 1.19.196c.24-.27.7-.451 1.14-.448.8.004 1.38.593 1.37 1.417.01.813-.56 1.392-1.33 1.392-.66 0-1.19-.415-1.23-1.012h-1.28c.03 1.207 1.09 2.077 2.51 2.077zm8.12-4.112c-.18-.923-.91-1.513-2.19-1.513-1.32 0-2.21.647-2.21 1.655 0 .796.49 1.321 1.54 1.538l.93.195c.5.11.73.313.73.622 0 .373-.4.653-1.01.653-.59 0-.98-.256-1.09-.746l-1.25.121c.16 1.001 1 1.595 2.34 1.595 1.36 0 2.33-.707 2.33-1.741 0-.777-.5-1.253-1.53-1.477l-.94-.199c-.55-.124-.77-.316-.77-.632 0-.369.41-.625.95-.625.59 0 .9.323 1 .682l1.17-.128zm4.6-3.26h-.83V606h.83v-7.273zm3.14 7.401c.96 0 1.45-.512 1.62-.867h.05V606h.83v-3.594c0-1.733-1.32-1.932-2.01-1.932-.83 0-1.76.285-2.19 1.279l.8.284c.18-.398.62-.824 1.42-.824.77 0 1.15.408 1.15 1.108v.028c0 .405-.42.37-1.41.498-1.01.131-2.12.355-2.12 1.605 0 1.065.83 1.676 1.86 1.676zm.13-.753c-.67 0-1.15-.298-1.15-.881 0-.639.58-.838 1.24-.923.35-.043 1.3-.142 1.45-.312v.767c0 .681-.54 1.349-1.54 1.349zm7.77-3.608c-.26-.774-.85-1.293-1.93-1.293-1.15 0-2.01.654-2.01 1.577 0 .753.45 1.257 1.45 1.492l.91.213c.55.128.81.39.81.767 0 .468-.5.852-1.28.852-.68 0-1.11-.295-1.26-.881l-.8.199c.2.927.96 1.421 2.08 1.421 1.26 0 2.13-.693 2.13-1.634 0-.76-.48-1.239-1.45-1.477l-.81-.199c-.65-.16-.94-.376-.94-.795 0-.469.5-.81 1.17-.81.73 0 1.03.405 1.18.781l.75-.213zm3.73-1.222h-1.16v-1.306h-.84v1.306h-.83v.711h.83v3.409c0 .951.77 1.406 1.48 1.406.31 0 .51-.057.62-.099l-.17-.753c-.07.014-.18.042-.37.042-.37 0-.72-.113-.72-.823v-3.182h1.16v-.711zm7.94 1.222c-.26-.774-.85-1.293-1.93-1.293-1.15 0-2.01.654-2.01 1.577 0 .753.45 1.257 1.45 1.492l.91.213c.55.128.81.39.81.767 0 .468-.5.852-1.28.852-.68 0-1.11-.295-1.26-.881l-.8.199c.2.927.96 1.421 2.08 1.421 1.26 0 2.13-.693 2.13-1.634 0-.76-.48-1.239-1.45-1.477l-.81-.199c-.65-.16-.94-.376-.94-.795 0-.469.5-.81 1.17-.81.73 0 1.03.405 1.17.781l.76-.213zm3.57 4.347c1.21 0 2.01-.739 2.15-1.705h-.84c-.15.597-.65.952-1.31.952-.99 0-1.63-.824-1.63-2.088 0-1.236.65-2.046 1.63-2.046.74 0 1.18.455 1.31.952h.84c-.14-1.023-1.01-1.705-2.16-1.705-1.48 0-2.46 1.165-2.46 2.827 0 1.634.94 2.813 2.47 2.813zm3.37-.114h.84v-3.452c0-.738.59-1.278 1.38-1.278.22 0 .46.042.51.057v-.853a7.778 7.778 0 00-.44-.014c-.65 0-1.22.37-1.42.909h-.06v-.824h-.81V606zm5.33.128c.95 0 1.45-.512 1.62-.867h.04V606h.84v-3.594c0-1.733-1.32-1.932-2.02-1.932-.82 0-1.76.285-2.18 1.279l.79.284c.19-.398.62-.824 1.42-.824.77 0 1.15.408 1.15 1.108v.028c0 .405-.41.37-1.4.498-1.02.131-2.12.355-2.12 1.605 0 1.065.82 1.676 1.86 1.676zm.13-.753c-.67 0-1.15-.298-1.15-.881 0-.639.58-.838 1.23-.923.36-.043 1.31-.142 1.45-.312v.767c0 .681-.54 1.349-1.53 1.349zm3.9 2.67h.84v-2.883h.07c.18.298.54.952 1.59.952 1.36 0 2.32-1.094 2.32-2.827 0-1.719-.96-2.813-2.33-2.813-1.07 0-1.4.654-1.58.938h-.1v-.867h-.81v7.5zm.82-4.772c0-1.222.54-2.046 1.57-2.046 1.06 0 1.59.895 1.59 2.046 0 1.165-.54 2.088-1.59 2.088-1.01 0-1.57-.852-1.57-2.088zm7.56 2.841c1.11 0 1.92-.554 2.17-1.378l-.81-.227c-.21.568-.7.852-1.36.852-.98 0-1.66-.636-1.7-1.804h3.96v-.355c0-2.032-1.21-2.728-2.34-2.728-1.48 0-2.46 1.165-2.46 2.841 0 1.676.96 2.799 2.54 2.799zm-1.7-3.282c.06-.848.66-1.605 1.62-1.605.9 0 1.49.682 1.49 1.605h-3.11zM1201.18 626.659h1.09v-3.748h.09c.24.387.7 1.237 2.07 1.237 1.77 0 3.01-1.422 3.01-3.675 0-2.234-1.24-3.656-3.03-3.656-1.38 0-1.81.849-2.05 1.219h-.13v-1.127h-1.05v9.75zm1.07-6.204c0-1.589.7-2.66 2.03-2.66 1.39 0 2.07 1.164 2.07 2.66 0 1.514-.7 2.714-2.07 2.714-1.31 0-2.03-1.108-2.03-2.714zm6.85 3.545h1.09v-4.487c0-.96.76-1.662 1.79-1.662.29 0 .59.055.67.074v-1.108c-.13-.009-.41-.019-.57-.019-.85 0-1.59.48-1.85 1.182h-.07v-1.071h-1.06V624zm7.5.148c1.92 0 3.22-1.459 3.22-3.657 0-2.215-1.3-3.674-3.22-3.674-1.92 0-3.21 1.459-3.21 3.674 0 2.198 1.29 3.657 3.21 3.657zm0-.979c-1.45 0-2.12-1.256-2.12-2.678 0-1.421.67-2.696 2.12-2.696 1.46 0 2.13 1.275 2.13 2.696 0 1.422-.67 2.678-2.13 2.678zm4.88.831h1.09v-4.432c0-1.039.76-1.773 1.61-1.773.82 0 1.4.541 1.4 1.348V624h1.11v-4.616c0-.915.57-1.589 1.57-1.589.77 0 1.44.411 1.44 1.459V624h1.09v-4.746c0-1.666-.9-2.437-2.16-2.437-1.02 0-1.76.466-2.13 1.2h-.07c-.35-.757-.97-1.2-1.9-1.2-.93 0-1.61.443-1.9 1.2h-.1v-1.108h-1.05V624zm14.27.148c1.44 0 2.5-.72 2.83-1.791l-1.05-.296c-.28.739-.92 1.108-1.78 1.108-1.28 0-2.16-.826-2.21-2.345h5.15v-.462c0-2.64-1.57-3.545-3.05-3.545-1.92 0-3.19 1.514-3.19 3.693 0 2.179 1.25 3.638 3.3 3.638zm-2.21-4.266c.07-1.103.86-2.087 2.1-2.087 1.18 0 1.94.887 1.94 2.087h-4.04zm9.89-2.973h-1.51v-1.699h-1.09v1.699h-1.08v.923h1.08v4.432c0 1.237.99 1.828 1.92 1.828.4 0 .66-.074.81-.129l-.22-.979c-.1.019-.24.056-.48.056-.48 0-.94-.148-.94-1.071v-4.137h1.51v-.923zm2.88 2.825c0-1.237.79-1.939 1.87-1.939 1.02 0 1.64.647 1.64 1.773V624h1.09v-4.506c0-1.823-.97-2.677-2.42-2.677-1.12 0-1.76.466-2.09 1.2h-.09v-3.472h-1.09V624h1.09v-4.266zm9.56 4.414c1.44 0 2.5-.72 2.83-1.791l-1.05-.296c-.28.739-.92 1.108-1.78 1.108-1.27 0-2.16-.826-2.21-2.345h5.15v-.462c0-2.64-1.57-3.545-3.05-3.545-1.92 0-3.19 1.514-3.19 3.693 0 2.179 1.25 3.638 3.3 3.638zm-2.21-4.266c.08-1.103.86-2.087 2.1-2.087 1.19 0 1.94.887 1.94 2.087h-4.04zm11.28 1.219c0 1.329-1.02 1.939-1.83 1.939-.91 0-1.55-.665-1.55-1.699v-4.432h-1.09v4.506c0 1.809.96 2.677 2.29 2.677 1.07 0 1.77-.572 2.1-1.292h.08v1.2h1.09v-7.091h-1.09v4.192zm8.1-2.604c-.34-1.006-1.1-1.68-2.51-1.68-1.49 0-2.6.849-2.6 2.049 0 .979.58 1.635 1.88 1.939l1.18.277c.72.167 1.06.508 1.06.998 0 .609-.65 1.108-1.66 1.108-.9 0-1.45-.384-1.65-1.145l-1.03.258c.25 1.205 1.24 1.847 2.69 1.847 1.65 0 2.77-.9 2.77-2.124 0-.988-.62-1.611-1.88-1.92l-1.05-.259c-.84-.208-1.22-.489-1.22-1.034 0-.609.64-1.052 1.51-1.052.95 0 1.35.526 1.54 1.015l.97-.277z" fill="black"/>
    </g>
    <path d="M140 89.976h166.524" stroke="#26CEE6" stroke-width="4" stroke-linecap="round" stroke-dasharray="0.25 7"/>
    <path d="M31.63 83.6c1.57.01 2.624-1.07 2.62-2.508.004-1.374-.976-2.368-2.25-2.368-.782 0-1.47.38-1.819 1.005h-.05c.004-1.53.565-2.461 1.573-2.461.626 0 1.048.362 1.183.92h1.296c-.156-1.176-1.104-2.06-2.479-2.06-1.747 0-2.851 1.456-2.851 3.942-.004 2.667 1.381 3.522 2.777 3.53zm-.007-1.066c-.778 0-1.346-.643-1.35-1.403.008-.763.597-1.402 1.368-1.402.77 0 1.335.61 1.331 1.392.004.795-.578 1.413-1.35 1.413zm8.858-4.489H39.26v-.553c0-.54.227-.824.78-.824.242 0 .384.056.47.085l.241-.725c-.128-.056-.383-.142-.795-.142-.782 0-1.535.47-1.535 1.407v.752h-.88v.71h.88V83.5h.839v-4.744h1.221v-.71zm1.175 5.455h.838v-5.454h-.838V83.5zm.426-6.364c.327 0 .596-.255.596-.568 0-.312-.27-.568-.596-.568-.327 0-.597.256-.597.568 0 .313.27.568.597.568zm2.785-.909h-.838V83.5h.838v-7.273zm3.822 7.387c1.108 0 1.917-.554 2.173-1.378l-.81-.228c-.213.569-.706.853-1.363.853-.984 0-1.662-.636-1.701-1.804h3.96v-.355c0-2.031-1.208-2.728-2.345-2.728-1.477 0-2.457 1.165-2.457 2.841 0 1.677.966 2.799 2.543 2.799zm-1.701-3.282c.057-.848.657-1.605 1.615-1.605.91 0 1.492.682 1.492 1.605h-3.107zm9.098-1.065c-.263-.774-.852-1.293-1.932-1.293-1.15 0-2.003.654-2.003 1.577 0 .753.447 1.257 1.449 1.492l.91.213c.55.127.809.39.809.767 0 .469-.497.852-1.279.852-.685 0-1.115-.295-1.264-.88l-.795.198c.195.927.959 1.42 2.073 1.42 1.268 0 2.131-.692 2.131-1.633 0-.76-.476-1.24-1.449-1.477l-.81-.199c-.646-.16-.937-.376-.937-.796 0-.468.497-.81 1.165-.81.731 0 1.033.406 1.179.782l.753-.213z" fill="black"/>
    <path stroke="#26CEE6" stroke-width="3" d="M-.991 90.5l83.503.5"/>
    <path d="M24.367 672.045h-1.145l-2.364 1.57v1.163l2.309-1.532h.055v8.254h1.145v-9.455zm2.72 9.455h5.964v-1.016h-4.395v-.073l2.123-2.272c1.625-1.74 2.105-2.553 2.105-3.601 0-1.458-1.181-2.622-2.843-2.622-1.658 0-2.918 1.127-2.918 2.789h1.09c0-1.076.697-1.792 1.79-1.792 1.026 0 1.81.628 1.81 1.625 0 .873-.512 1.519-1.606 2.715l-3.12 3.416v.831zm12.355.114c1.207 0 2.003-.739 2.145-1.705h-.838c-.157.597-.654.952-1.307.952-.994 0-1.634-.824-1.634-2.088 0-1.236.654-2.046 1.634-2.046.739 0 1.179.455 1.307.952h.838c-.142-1.023-1.009-1.705-2.16-1.705-1.477 0-2.457 1.165-2.457 2.827 0 1.634.938 2.813 2.472 2.813zm5.586 0c1.477 0 2.471-1.123 2.471-2.813 0-1.704-.994-2.827-2.471-2.827s-2.472 1.123-2.472 2.827c0 1.69.995 2.813 2.472 2.813zm0-.753c-1.122 0-1.634-.966-1.634-2.06s.512-2.074 1.634-2.074c1.122 0 1.633.98 1.633 2.074 0 1.094-.511 2.06-1.633 2.06zm4.589-2.642c0-.952.59-1.492 1.392-1.492.778 0 1.25.508 1.25 1.364v3.409h.838v-3.466c0-1.392-.742-2.06-1.847-2.06-.824 0-1.335.37-1.59.924h-.072v-.853h-.81v5.455h.839v-3.281zm5.85 0c0-.952.589-1.492 1.392-1.492.777 0 1.25.508 1.25 1.364v3.409h.838v-3.466c0-1.392-.743-2.06-1.847-2.06-.824 0-1.335.37-1.59.924h-.072v-.853h-.81v5.455h.838v-3.281zm8.875-.952c-.263-.774-.853-1.293-1.932-1.293-1.15 0-2.003.654-2.003 1.577 0 .753.447 1.257 1.449 1.492l.909.213c.55.128.81.39.81.767 0 .468-.498.852-1.279.852-.685 0-1.115-.295-1.264-.881l-.795.199c.195.927.958 1.421 2.073 1.421 1.268 0 2.131-.693 2.131-1.634 0-.76-.476-1.239-1.449-1.477l-.81-.199c-.646-.16-.937-.376-.937-.795 0-.469.497-.81 1.165-.81.731 0 1.033.405 1.179.781l.753-.213z" fill="black"/>
    <path stroke="#26CEE6" stroke-width="3" d="M-.991 688.5l83.503.5"/>
    <path d="M591 209.5v0c25.957 0 47 21.043 47 47v91c0 55.229 44.772 100 100 100h20.5" stroke="#26CEE6" stroke-width="4" stroke-linecap="round" stroke-dasharray="0.25 7"/>
    <path d="M588 330v0c16.931 0 31.577 11.79 35.193 28.331l6.07 27.768c6.681 30.56 32.494 53.202 63.664 55.844L758.5 447.5" stroke="#26CEE6" stroke-width="4" stroke-linecap="round" stroke-dasharray="0.25 7"/>
    <path d="M588 330v0c16.931 0 31.577 11.79 35.193 28.331l6.07 27.768c6.681 30.56 32.494 53.202 63.664 55.844L758.5 447.5" stroke="url(#paint0_linear)" stroke-width="4" stroke-linecap="round" stroke-dasharray="0.25 7"/>
    <path d="M591.5 90v0c38.044 0 68.824 30.955 68.608 68.999l-1.067 187.811c-.303 53.314 41.273 97.49 94.507 100.418l4.952.272M815 447.976h166.524M1040 448.976h165" stroke="#26CEE6" stroke-width="4" stroke-linecap="round" stroke-dasharray="0.25 7"/>
    <path d="M1040 448.976h165" stroke="url(#paint1_linear)" stroke-width="4" stroke-linecap="round" stroke-dasharray="0.25 7"/>
    <path d="M1040 449l3.68-.537a99.973 99.973 0 0074.76-53.748l8.92-17.583c15.04-29.694 45.86-48.048 79.14-47.132v0M1040 449v0c34.08 2.169 64.48 22.197 79.91 52.659l7.61 15.016c15.2 29.98 44.96 49.828 78.48 52.325v0M140.5 689.5h151.278c95.897 0 186.271-44.869 244.241-121.261v0A306.602 306.602 0 01746.167 448.88l12.333-1.38" stroke="#26CEE6" stroke-width="4" stroke-linecap="round" stroke-dasharray="0.25 7"/>
    <path d="M140.5 568h118.543a352.751 352.751 0 00191.3-56.376v0a352.768 352.768 0 01169.915-55.728L758.5 447.5M365.048 90H531.5M365 90v0c30.975 4.859 56.127 27.611 64.058 57.945L461.7 272.803c8.487 32.462 37.268 55.51 70.8 56.697v0" stroke="#26CEE6" stroke-width="4" stroke-linecap="round" stroke-dasharray="0.25 7"/>
    <path d="M365 90v0c30.975 4.859 56.127 27.611 64.058 57.945L461.7 272.803c8.487 32.462 37.268 55.51 70.8 56.697v0" stroke="url(#paint2_linear)" stroke-width="4" stroke-linecap="round" stroke-dasharray="0.25 7"/>
    <path d="M365 89.976v0c36.026 0 68.513 21.675 82.346 54.94l1.861 4.475c13.715 32.982 44.536 55.683 80.102 58.998l1.191.111" stroke="#26CEE6" stroke-width="4" stroke-linecap="round" stroke-dasharray="0.25 7"/>
    <path stroke="#26CEE6" stroke-width="3" d="M1266.01 449.5l91.5.5"/>
    <path stroke="url(#paint3_linear)" stroke-width="3" d="M1266.01 449.5l91.5.5"/>
    <path stroke="#26CEE6" stroke-width="3" d="M1266.01 329.5l91.5.5"/>
    <path d="M1296.55 323.629c1.83 0 3.19-1.149 3.19-2.696 0-1.2-.71-2.073-1.9-2.271v-.074c.96-.291 1.55-1.076 1.55-2.142 0-1.339-1.05-2.53-2.8-2.53-1.64 0-2.99 1.007-3.05 2.493h1.11c.04-.942.94-1.496 1.92-1.496 1.04 0 1.72.633 1.72 1.588 0 .998-.78 1.644-1.91 1.644h-.75v1.016h.75c1.44 0 2.24.729 2.24 1.772 0 1.002-.87 1.681-2.09 1.681-1.09 0-1.96-.564-2.03-1.478h-1.16c.07 1.487 1.38 2.493 3.21 2.493zm7.44-7.743h-.76l-2.35 8.708h.77l2.34-8.708zm3.54.341h-.88l-1.82 1.208v.895l1.78-1.179h.04v6.349h.88v-7.273zm4.46 7.372c1.61 0 2.53-1.36 2.53-3.735 0-2.358-.94-3.736-2.53-3.736-1.59 0-2.53 1.378-2.53 3.736 0 2.375.93 3.735 2.53 3.735zm0-.781c-1.06 0-1.67-1.062-1.67-2.954 0-1.89.62-2.969 1.67-2.969 1.05 0 1.68 1.079 1.68 2.969 0 1.892-.62 2.954-1.68 2.954zm6.71.682h.83v-3.452c0-.738.59-1.278 1.38-1.278.23 0 .46.042.51.057v-.853a7.778 7.778 0 00-.44-.014c-.65 0-1.22.37-1.42.909h-.05v-.824h-.81v5.455zm5.84.114c1.11 0 1.92-.554 2.17-1.378l-.81-.227c-.21.568-.7.852-1.36.852-.99 0-1.66-.636-1.7-1.804h3.96v-.355c0-2.032-1.21-2.728-2.35-2.728-1.47 0-2.45 1.165-2.45 2.841 0 1.676.96 2.799 2.54 2.799zm-1.7-3.282c.05-.848.65-1.605 1.61-1.605.91 0 1.49.682 1.49 1.605h-3.1zm9.79 5.213v-7.5h-.81v.867h-.1c-.18-.284-.51-.938-1.57-.938-1.38 0-2.33 1.094-2.33 2.813 0 1.733.95 2.827 2.31 2.827 1.05 0 1.41-.654 1.59-.952h.07v2.883h.84zm-.82-4.772c0 1.236-.56 2.088-1.56 2.088-1.06 0-1.6-.923-1.6-2.088 0-1.151.53-2.046 1.6-2.046 1.02 0 1.56.824 1.56 2.046zm6.22-1.506c-.26-.774-.85-1.293-1.93-1.293-1.15 0-2.01.654-2.01 1.577 0 .753.45 1.257 1.45 1.492l.91.213c.55.128.81.39.81.767 0 .468-.5.852-1.28.852-.68 0-1.11-.295-1.26-.881l-.8.199c.2.927.96 1.421 2.08 1.421 1.27 0 2.13-.693 2.13-1.634 0-.76-.48-1.239-1.45-1.477l-.81-.199c-.65-.16-.94-.376-.94-.795 0-.469.5-.81 1.17-.81.73 0 1.03.405 1.18.781l.75-.213zM1293.06 443.5h5.96v-1.016h-4.39v-.073l2.12-2.272c1.63-1.74 2.11-2.553 2.11-3.601 0-1.458-1.18-2.622-2.85-2.622-1.65 0-2.91 1.127-2.91 2.789h1.09c0-1.076.69-1.792 1.79-1.792 1.02 0 1.81.628 1.81 1.625 0 .873-.52 1.519-1.61 2.715l-3.12 3.416v.831zm10.23-7.614h-.77l-2.34 8.708h.77l2.34-8.708zm3.54.341h-.89l-1.81 1.208v.895l1.77-1.179h.04v6.349h.89v-7.273zm4.46 7.372c1.6 0 2.53-1.36 2.53-3.735 0-2.358-.94-3.736-2.53-3.736-1.59 0-2.53 1.378-2.53 3.736 0 2.375.92 3.735 2.53 3.735zm0-.781c-1.06 0-1.68-1.062-1.68-2.954 0-1.89.63-2.969 1.68-2.969 1.05 0 1.68 1.079 1.68 2.969 0 1.892-.62 2.954-1.68 2.954zm6.7.682h.84v-3.452c0-.738.58-1.278 1.38-1.278.22 0 .45.042.51.057v-.853c-.1-.007-.32-.014-.44-.014-.65 0-1.22.37-1.42.909h-.06v-.824h-.81v5.455zm5.85.114c1.1 0 1.91-.554 2.17-1.378l-.81-.227c-.21.568-.71.852-1.36.852-.99 0-1.67-.636-1.71-1.804h3.96v-.355c0-2.032-1.2-2.728-2.34-2.728-1.48 0-2.46 1.165-2.46 2.841 0 1.676.97 2.799 2.55 2.799zm-1.71-3.282c.06-.848.66-1.605 1.62-1.605.91 0 1.49.682 1.49 1.605h-3.11zm9.8 5.213v-7.5h-.81v.867h-.1c-.19-.284-.51-.938-1.58-.938-1.38 0-2.33 1.094-2.33 2.813 0 1.733.95 2.827 2.32 2.827 1.05 0 1.4-.654 1.59-.952h.07v2.883h.84zm-.83-4.772c0 1.236-.55 2.088-1.56 2.088-1.05 0-1.59-.923-1.59-2.088 0-1.151.53-2.046 1.59-2.046 1.02 0 1.56.824 1.56 2.046zm6.23-1.506c-.27-.774-.86-1.293-1.94-1.293-1.15 0-2 .654-2 1.577 0 .753.45 1.257 1.45 1.492l.91.213c.55.128.81.39.81.767 0 .468-.5.852-1.28.852-.68 0-1.11-.295-1.26-.881l-.8.199c.2.927.96 1.421 2.07 1.421 1.27 0 2.14-.693 2.14-1.634 0-.76-.48-1.239-1.45-1.477l-.81-.199c-.65-.16-.94-.376-.94-.795 0-.469.5-.81 1.16-.81.74 0 1.04.405 1.18.781l.76-.213z" fill="black"/>
  </g>
  <defs>
    <linearGradient id="paint0_linear" x1="675.406" y1="337.499" x2="674.099" y2="445.983" gradientUnits="userSpaceOnUse">
      <stop stop-color="#FF9D59"/>
      <stop offset="1" stop-color="white" stop-opacity="0"/>
    </linearGradient>
    <linearGradient id="paint1_linear" x1="1038.5" y1="448.998" x2="1204" y2="448.998" gradientUnits="userSpaceOnUse">
      <stop stop-color="white" stop-opacity="0"/>
      <stop offset="1" stop-color="#EC5868"/>
    </linearGradient>
    <linearGradient id="paint2_linear" x1="450.15" y1="96.002" x2="447.35" y2="328.474" gradientUnits="userSpaceOnUse">
      <stop stop-color="white" stop-opacity="0"/>
      <stop offset="1" stop-color="#FF9D59"/>
    </linearGradient>
    <linearGradient id="paint3_linear" x1="1266" y1="449.5" x2="1357" y2="450.5" gradientUnits="userSpaceOnUse">
      <stop stop-color="#EC5868"/>
      <stop offset="1" stop-color="white" stop-opacity="0"/>
    </linearGradient>
    <clipPath id="clip0">
      <path fill="white" d="M0 0h1350v760H0z"/>
    </clipPath>
    <clipPath id="clip1">
      <path fill="white" d="M0 0h1350v760H0z"/>
    </clipPath>
    <clipPath id="clip2">
      <path fill="white" transform="translate(554.5 286)" d="M0 0h15v15H0z"/>
    </clipPath>
    <clipPath id="clip3">
      <path fill="white" transform="translate(1229.5 406)" d="M0 0h15v15H0z"/>
    </clipPath>
  </defs>
</svg>