<?xml version="1.0" encoding="UTF-8"?>
<svg width="512px" height="512px" viewBox="0 0 512 512" version="1.1" xmlns="http://www.w3.org/2000/svg" xmlns:xlink="http://www.w3.org/1999/xlink">
    <!-- Generator: Sketch 60 (88103) - https://sketch.com -->
    <title>004-raspberry</title>
    <desc>Created with Sketch.</desc>
    <g id="Page-1" stroke="none" stroke-width="1" fill="none" fill-rule="evenodd">
        <g id="004-raspberry" fill-rule="nonzero">
            <circle id="Oval" fill="#10E7FF" cx="256" cy="256" r="256"></circle>
            <path d="M511.63,269.75 L403.795,161.914 C392.323,149.787 375.312,136.028 353.451,130.015 L270.838,47 L241.162,47 L241.162,146.584 C147.385,86.259 91.087,184.03 91.087,184.03 L137.82,231.129 C121.991,238.404 110.997,254.389 110.997,272.951 C110.997,285.453 115.988,296.783 124.082,305.072 L144.073,324.84 C143.173,328.427 142.683,332.177 142.683,336.044 C142.683,348.849 147.919,360.423 156.361,368.762 L176.158,388.376 C174.997,392.417 174.369,396.682 174.369,401.096 C174.369,414.806 180.369,427.109 189.882,435.54 L266.207,511.779 C398.288,506.598 504.664,401.365 511.63,269.75 Z" id="Path" fill-opacity="0.1" fill="#000000"></path>
            <circle id="Oval" fill="#FF4E0A" cx="220.39" cy="401.1" r="46.02"></circle>
            <circle id="Oval" fill="#FF2100" cx="291.61" cy="401.1" r="46.02"></circle>
            <path d="M337.636,401.1 C337.636,426.514 317.03,447.12 291.616,447.12 C277.262,447.12 264.444,440.544 256,430.251 L256,371.948 C264.444,361.655 277.262,355.079 291.616,355.079 C292.596,355.079 293.576,355.109 294.535,355.17 C318.586,356.676 337.636,376.666 337.636,401.1 Z" id="Path" fill="#EB1500"></path>
            <g id="Group" transform="translate(142.000000, 290.000000)" fill="#FF2100">
                <circle id="Oval" cx="46.7" cy="46.05" r="46.02"></circle>
                <circle id="Oval" cx="181.3" cy="46.05" r="46.02"></circle>
            </g>
            <circle id="Oval" fill="#FF6339" cx="256" cy="330.02" r="46.02"></circle>
            <path d="M302.02,330.019 C302.02,339.302 299.273,347.948 294.535,355.17 C286.323,367.736 272.131,376.039 256,376.039 L256,283.999 C273.697,283.999 289.06,293.989 296.757,308.635 C300.121,315.019 302.02,322.302 302.02,330.019 Z" id="Path" fill="#FF4E0A"></path>
            <circle id="Oval" fill="#FF2100" cx="157.02" cy="272.95" r="46.02"></circle>
            <g id="Group" transform="translate(174.000000, 216.000000)" fill="#FF4E0A">
                <circle id="Oval" cx="46.39" cy="46.91" r="46.02"></circle>
                <circle id="Oval" cx="180.98" cy="56.95" r="46.02"></circle>
            </g>
            <circle id="Oval" fill="#FF2100" cx="291.61" cy="262.91" r="46.02"></circle>
            <path d="M337.636,262.908 C337.636,286.585 319.757,306.09 296.757,308.635 C295.07,308.827 293.353,308.928 291.616,308.928 C277.262,308.928 264.444,302.362 256,292.059 L256,233.756 C264.444,223.453 277.262,216.887 291.616,216.887 C292.697,216.887 293.767,216.927 294.828,216.998 C318.747,218.646 337.636,238.575 337.636,262.908 Z" id="Path" fill="#EB1500"></path>
            <g id="Group" transform="translate(132.000000, 152.000000)" fill="#FF2100">
                <circle id="Oval" cx="46.66" cy="46.32" r="46.02"></circle>
                <circle id="Oval" cx="201.34" cy="46.32" r="46.02"></circle>
            </g>
            <circle id="Oval" fill="#FF6339" cx="256" cy="192.29" r="46.02"></circle>
            <path d="M302.02,192.293 C302.02,201.384 299.384,209.859 294.828,217 C286.666,229.808 272.323,238.313 256,238.313 L256,146.273 C281.414,146.273 302.02,166.878 302.02,192.293 Z" id="Path" fill="#FF4E0A"></path>
            <rect id="Rectangle" fill="#B04B00" x="241.16" y="47" width="29.676" height="110.24"></rect>
            <rect id="Rectangle" fill="#803400" x="256" y="47" width="14.837" height="110.24"></rect>
            <path d="M256,157.235 C256,157.235 265.159,192.313 325.546,173.216 C363.889,161.09 420.913,184.031 420.913,184.031 C420.913,184.031 358.646,75.883 256,157.235 Z" id="Path" fill="#008D44"></path>
            <path d="M256,157.235 C256,157.235 246.841,192.313 186.454,173.216 C148.111,161.09 91.087,184.031 91.087,184.031 C91.087,184.031 153.354,75.883 256,157.235 Z" id="Path" fill="#00C475"></path>
        </g>
    </g>
</svg>