<?xml version="1.0" encoding="UTF-8"?>
<svg width="131px" height="42px" viewBox="0 0 131 42" version="1.1" xmlns="http://www.w3.org/2000/svg" xmlns:xlink="http://www.w3.org/1999/xlink">
    <title>Timber Logo</title>
    <g id="Page-1" stroke="none" stroke-width="1" fill="none" fill-rule="evenodd">
        <g id="Custom-Preset" transform="translate(-179.000000, -229.000000)">
            <g id="logo" transform="translate(180.000000, 230.000000)">
                <g id="XMLID_118_" stroke="#000000" stroke-linecap="round" stroke-width="2">
                    <circle id="XMLID_126_" cx="20" cy="20" r="20"></circle>
                    <path d="M14.8,34.1 C9.1,31.9 5,26.4 5,20 C5,11.7 11.7,5 20,5 C26.1,5 31.3,8.6 33.7,13.8" id="XMLID_125_"></path>
                    <path d="M35,20 C35,28.3 28.3,35 20,35 C19.7,35 19.4,35 19.1,35" id="XMLID_124_"></path>
                    <path d="M10.4,17.1 C11.6,13.1 15.3,10.1 19.6,9.9 C25.3,9.7 30,14.2 30,19.9 L30,20.3 C30,24.3 25.8,28 22.2,26.3 L22.2,26.3 C20.9,25.7 20,24.4 20,22.9 L20,17.7" id="XMLID_122_"></path>
                    <path d="M20,29.9 C15.5,29.9 11.7,27 10.5,22.9" id="XMLID_120_"></path>
                    <line x1="16" y1="17" x2="24" y2="17" id="XMLID_119_"></line>
                </g>
                <g id="Group" transform="translate(53.000000, 13.000000)" fill="#000000" fill-rule="nonzero">
                    <polygon id="Path" points="6.4 2.9 6.4 13.6 3.3 13.6 3.3 2.9 0.4 2.9 0.4 0.3 9.3 0.3 9.3 2.9"></polygon>
                    <polygon id="Path" points="16 0.3 16 13.6 13 13.6 13 0.3"></polygon>
                    <polygon id="Path" points="20.4 13.6 22.5 0.3 25.1 0.3 28.4 8.3 31.7 0.3 34.3 0.3 36.4 13.6 33.3 13.6 32.2 5.7 28.9 13.6 27.8 13.6 24.5 5.7 23.4 13.6"></polygon>
                    <path d="M44.7,0.3 C45.4,0.3 47.1,0.3 48.1,1.3 C49,2.1 49.1,3.2 49.1,3.8 C49.1,4.3 49,4.9 48.7,5.5 C48.4,6.1 47.9,6.3 47.6,6.5 C48.2,6.6 49,6.9 49.4,7.4 C49.8,7.8 50.3,8.6 50.3,9.8 C50.3,11.1 49.8,12 49.3,12.5 C48.2,13.6 46.6,13.6 45.8,13.6 L40.8,13.6 L40.8,0.3 L44.7,0.3 Z M43.7,5.7 L44.2,5.7 C44.6,5.7 45.3,5.6 45.8,5.3 C46.1,5.1 46.3,4.7 46.3,4.1 C46.3,3.5 46,3.2 45.8,3 C45.4,2.7 44.8,2.7 44.2,2.7 L43.7,2.7 L43.7,5.7 Z M43.7,11.2 L44.4,11.2 C45.2,11.2 46.1,11.2 46.7,10.7 C47,10.4 47.1,10.1 47.1,9.6 C47.1,9.1 46.9,8.7 46.7,8.5 C46.2,8 45.1,8 44.5,8 L43.7,8 L43.7,11.2 Z" id="Shape"></path>
                    <polygon id="Path" points="62 2.9 57.6 2.9 57.6 5.5 61.8 5.5 61.8 8 57.6 8 57.6 11 62 11 62 13.6 54.5 13.6 54.5 0.3 62 0.3"></polygon>
                    <path d="M71.2,0.3 C72.9,0.3 74,0.9 74.6,1.5 C75.2,2 75.8,3 75.8,4.5 C75.8,5.3 75.6,6.4 74.8,7.2 C74.3,7.6 73.7,8 72.9,8.2 L77,13.6 L73.3,13.6 L69.7,8.4 L69.7,13.6 L66.6,13.6 L66.6,0.3 L71.2,0.3 Z M69.6,6.3 L70.3,6.3 C70.9,6.3 71.6,6.2 72.1,5.7 C72.3,5.5 72.6,5.1 72.6,4.4 C72.6,3.6 72.2,3.2 72,3 C71.5,2.6 70.7,2.6 70.3,2.6 L69.6,2.6 L69.6,6.3 Z" id="Shape"></path>
                </g>
            </g>
        </g>
    </g>
</svg>
