<?xml version="1.0" encoding="UTF-8"?>
<svg width="104px" height="77px" viewBox="0 0 104 77" version="1.1" xmlns="http://www.w3.org/2000/svg" xmlns:xlink="http://www.w3.org/1999/xlink">
    <!-- Generator: Sketch 60 (88103) - https://sketch.com -->
    <title>Box</title>
    <desc>Created with Sketch.</desc>
    <g id="Download" stroke="none" stroke-width="1" fill="none" fill-rule="evenodd">
        <g id="Custom-Preset" transform="translate(-514.000000, -182.000000)">
            <g id="Download" transform="translate(-340.000000, -479.000000)">
                <g id="Box" transform="translate(855.000000, 662.000000)">
                    <polygon id="Stroke-1" stroke-opacity="0.0961538462" stroke="#000000" stroke-linecap="round" stroke-linejoin="round" points="0 53.8054695 50.8700833 75 101.73913 53.8054695 50.8700833 32.6086957"></polygon>
                    <polygon id="Stroke-7" stroke-opacity="0.0961538462" stroke="#000000" stroke-linecap="round" stroke-linejoin="round" points="50.2173913 1.30434783 101.73913 22.3096677 101.48902 53.4782609 50.3236883 32.7001761"></polygon>
                    <polygon id="Stroke-9" stroke-opacity="0.0961538462" stroke="#000000" stroke-linecap="round" stroke-linejoin="round" points="0.652173913 22.0405003 0.652173913 53.4782609 51.5217391 32.6717368 51.415679 1.30434783"></polygon>
                    <polygon id="Fill-11" fill-opacity="0.061489292" fill="#000000" points="0.105238838 53.6435064 0 21.3702827 50.7622629 0 101.73913 21.5851512 101.571821 53.5681562 50.7622629 75"></polygon>
                    <polygon id="Stroke-13" stroke-opacity="0.0961538462" stroke="#000000" stroke-linecap="round" stroke-linejoin="round" points="0.105238838 53.6435107 0 21.3702935 50.7622629 0 101.73913 21.5851619 101.57178 53.5681605 50.7622629 75"></polygon>
                    <g id="Vector" transform="translate(17.608696, 16.304348)">
                        <polygon id="Fill-21" fill="#10E7FF" points="0 32.7525563 32.9745185 45.7396607 65.9482759 32.7525563 32.9745185 19.7640509"></polygon>
                        <polygon id="Fill-22" fill="#10E7FF" points="0 12.9878049 0 32.705776 33.8343328 45.7396607 33.8343328 26.1899524"></polygon>
                        <polygon id="Fill-23" fill="#10E7FF" points="33.8343328 26.0884369 66.5217391 12.9878049 66.3608828 32.6389942 33.8343328 45.7396607"></polygon>
                        <polygon id="Fill-24" fill="#10E7FF" points="33.2608696 0 66.5217391 13.1859105 66.3602357 32.7518558 33.3294971 19.7085585"></polygon>
                        <polygon id="Fill-25" fill="#10E7FF" points="0 13.0169892 0 32.7518558 33.2608696 19.690725 33.1920696 0"></polygon>
                        <polygon id="Fill-26" fill="#10E7FF" points="0.0688155922 32.7151525 0 13.0329132 33.1907541 0 66.5217391 13.1640006 66.4123223 32.6691948 33.1907541 45.7396607"></polygon>
                        <polygon id="Fill-21-Copy" fill-opacity="0.30736451" fill="#FFFFFF" points="0 12.9885054 32.9745185 25.9756098 65.9482759 12.9885054 32.9745185 0"></polygon>
                    </g>
                    <polygon id="Stroke-3" stroke-opacity="0.0961538462" stroke="#000000" stroke-linecap="round" stroke-linejoin="round" points="0.652173913 22.826087 0.652173913 54.2369271 51.5217391 75 51.5217391 43.8572217"></polygon>
                    <polygon id="Stroke-5" stroke-opacity="0.0961538462" stroke="#000000" stroke-linecap="round" stroke-linejoin="round" points="50.2173913 43.6955049 101.73913 22.826087 101.48811 54.130582 50.2173913 75"></polygon>
                </g>
            </g>
        </g>
    </g>
</svg>