<?xml version="1.0" encoding="UTF-8" standalone="no"?>
<!-- Created with Vectornator for iOS (http://vectornator.io/) -->

<svg
   xmlns:vectornator="http://vectornator.io"
   xmlns:dc="http://purl.org/dc/elements/1.1/"
   xmlns:cc="http://creativecommons.org/ns#"
   xmlns:rdf="http://www.w3.org/1999/02/22-rdf-syntax-ns#"
   xmlns:svg="http://www.w3.org/2000/svg"
   xmlns="http://www.w3.org/2000/svg"
   xmlns:sodipodi="http://sodipodi.sourceforge.net/DTD/sodipodi-0.dtd"
   xmlns:inkscape="http://www.inkscape.org/namespaces/inkscape"
   style="clip-rule:evenodd;fill-rule:evenodd;stroke-linecap:round;stroke-linejoin:round"
   xml:space="preserve"
   version="1.1"
   viewBox="0 0 1280 880"
   id="svg276"
   sodipodi:docname="vic.svg"
   inkscape:version="0.92.4 (5da689c313, 2019-01-14)"
   width="1280"
   height="880"><sodipodi:namedview
   pagecolor="#ffffff"
   bordercolor="#666666"
   borderopacity="1"
   objecttolerance="10"
   gridtolerance="10"
   guidetolerance="10"
   inkscape:pageopacity="0"
   inkscape:pageshadow="2"
   inkscape:window-width="3840"
   inkscape:window-height="2047"
   id="namedview278"
   showgrid="false"
   inkscape:zoom="0.92709555"
   inkscape:cx="421.45523"
   inkscape:cy="678.4116"
   inkscape:window-x="2560"
   inkscape:window-y="0"
   inkscape:window-maximized="1"
   inkscape:current-layer="svg276" />
<metadata
   id="metadata2">
<vectornator:setting
   key="SnapToGrid"
   value="0" />
<vectornator:setting
   key="SnapToPoints"
   value="0" />
<vectornator:setting
   key="RulersVisible"
   value="1" />
<vectornator:setting
   key="CMYKEnabledKey"
   value="0" />
<vectornator:setting
   key="SnapToEdges"
   value="1" />
<vectornator:setting
   key="DisplayWhiteBackground"
   value="0" />
<vectornator:setting
   key="ShowGrid"
   value="0" />
<vectornator:setting
   key="SnapToGuides"
   value="1" />
<vectornator:setting
   key="GridSpacing"
   value="36" />
<vectornator:setting
   key="Units"
   value="Pixels" />
<vectornator:setting
   key="IsolateActiveLayer"
   value="0" />
<vectornator:setting
   key="DynamicGuides"
   value="1" />
<rdf:RDF><cc:Work
     rdf:about=""><dc:format>image/svg+xml</dc:format><dc:type
       rdf:resource="http://purl.org/dc/dcmitype/StillImage" /><dc:title /></cc:Work></rdf:RDF></metadata>
<defs
   id="defs4">















</defs>









<g
   id="g977"><path
     d="m 915.56924,231.16877 c 58.94778,-70.54753 150.56066,-102.46663 204.62296,-71.29684 54.0623,31.16978 50.1028,113.62901 -8.845,184.17489 -58.9478,70.54588 -150.56071,102.46665 -204.62301,71.29521 -54.0623,-31.1698 -50.10273,-113.62736 8.84505,-184.17326 z"
     id="path9"
     inkscape:connector-curvature="0"
     style="opacity:1;fill:#0576af;stroke-width:1.65050507" /><g
     transform="matrix(1.6505049,0,0,1.6505049,-370.68082,-166.94456)"
     id="g15"
     style="opacity:1">
<path
   d="m 406.424,557.252 c -31.282,8.075 -56.643,14.622 -53.087,28.4 0.685,2.65 2.192,4.544 4.376,5.824 -0.643,1.899 -0.763,3.92 -0.197,6.113 1.942,7.523 9.661,9.652 20.99,8.921 4.806,12.057 29.466,5.74 59.722,-2.07 31.281,-8.075 58.215,-29.264 48.914,-40.313 -14.807,-17.59 -49.437,-14.95 -80.718,-6.875 z"
   id="path11"
   inkscape:connector-curvature="0"
   style="opacity:1;fill:#0576af" />
<path
   d="m 821.284,557.252 c 31.281,8.075 56.643,14.622 53.086,28.4 -0.684,2.65 -2.191,4.544 -4.376,5.824 0.644,1.899 0.764,3.92 0.197,6.113 -1.942,7.523 -9.66,9.652 -20.989,8.921 -4.807,12.057 -29.466,5.74 -59.722,-2.07 -31.282,-8.075 -58.215,-29.264 -48.914,-40.313 14.807,-17.59 49.436,-14.95 80.718,-6.875 z"
   id="path13"
   inkscape:connector-curvature="0"
   style="opacity:1;fill:#0576af" />
</g><path
     d="m 72.61345,319.56487 c -31.008021,17.22964 -14.965133,56.29048 -6.859499,69.94841 L 269.74482,729.45622 c 0,0 10.19187,17.86673 26.17865,43.6245 36.00083,58.00206 154.61436,-18.32555 329.72302,-18.32555 175.10867,0 342.34114,65.49204 370.71002,18.32555 15.92899,-26.4807 26.23809,-43.70867 26.23809,-43.70867 0,0 196.6989,-327.60706 206.3693,-344.00154 10.2759,-17.41943 10.6638,-40.8698 -12.973,-59.88033 -38.3446,-30.84132 -289.64386,-1.69176 -583.91074,-1.69176 -294.26688,0 -533.532314,-18.64575 -559.46671,-4.23355 z"
     id="path17"
     inkscape:connector-curvature="0"
     style="opacity:1;fill:#14e6ff;stroke-width:1.65050507" /><g
     transform="matrix(1.6505049,0,0,1.6505049,-370.68082,-166.94456)"
     id="g23"
     style="opacity:1">
<path
   d="m 367.999,124.688 c -31.262,8.972 -33.529,33.878 -27.505,68.376 3.625,20.765 13.16,40.66 35.171,69.07 34.45,44.465 57.887,53.486 57.887,53.486 l 99.474,-58.553 c 0,0 -19,-51.572 -56.716,-92.946 -29.458,-32.315 -77.049,-48.405 -108.311,-39.433 z"
   id="path19"
   inkscape:connector-curvature="0"
   style="opacity:1;fill:#14e6ff" />
<path
   d="m 397.76,143.95 c 0.127,-0.251 36.236,6.643 51.352,24.595 20.483,24.325 10.954,49.811 2.831,59.652 -10.034,12.156 -29.875,26.389 -30.756,25.221 -3.389,-4.496 21.268,-21.035 16.564,-59.092 -3.3,-26.703 -43.185,-44.099 -39.991,-50.376 z"
   id="path21"
   inkscape:connector-curvature="0"
   style="opacity:1;fill:#0576af" />
</g><path
     d="m 236.70335,38.853599 c -51.59809,14.808329 -55.33977,55.915809 -45.39712,112.854921 5.98307,34.27274 21.72063,67.10952 58.0499,114.00038 56.8599,73.3897 95.54278,88.27891 95.54278,88.27891 l 164.18232,-96.64202 c 0,0 -31.35959,-85.11985 -93.61003,-153.40783 C 366.85063,50.601887 288.30144,24.045267 236.70335,38.853599 Z"
     id="path25"
     inkscape:connector-curvature="0"
     style="opacity:1;fill:#14e6ff;stroke-width:1.65050507" /><path
     d="m 358.80936,535.85035 c 0,-131.02368 122.11921,-237.24028 272.7608,-237.24028 150.63993,0 272.75915,106.2166 272.75915,237.24028 0,131.02368 -122.11922,237.24027 -272.75915,237.24027 -150.64159,0 -272.7608,-106.21659 -272.7608,-237.24027 z"
     id="path27"
     inkscape:connector-curvature="0"
     style="opacity:1;fill:#0576af;stroke-width:1.65050507" /><path
     d="m 228.74132,384.06331 c 0,-181.33768 160.23268,-328.339906 357.89054,-328.339906 197.65788,0 357.89054,147.002226 357.89054,328.339906 0,181.33768 -160.23266,328.3399 -357.89054,328.3399 -197.65786,0 -357.89054,-147.00222 -357.89054,-328.3399 z"
     id="path29"
     inkscape:connector-curvature="0"
     style="opacity:1;fill:#14e6ff;stroke-width:1.65050507" /><path
     style="opacity:1;fill:#14e6ff;stroke-width:1.65050495"
     inkscape:connector-curvature="0"
     id="path31"
     d="m 959.84565,38.853595 c 51.59805,14.80833 55.33975,55.915805 45.39715,112.854925 -5.98475,34.27273 -21.72066,67.10953 -58.04992,114.00037 -56.8599,73.3897 -95.54278,88.27891 -95.54278,88.27891 L 687.46777,257.34578 c 0,0 31.3596,-85.11984 93.61004,-153.40783 48.61892,-53.336061 127.16975,-79.892685 178.76784,-65.084355 z" /><path
     sodipodi:nodetypes="czzczc"
     style="opacity:1;fill:#0576af;stroke-width:1.65050495"
     inkscape:connector-curvature="0"
     id="path33"
     d="m 910.72497,70.64562 c -0.21126,-0.414276 -54.77829,9.939748 -84.75838,40.59417 -29.98009,30.65442 -19.1149,76.39278 -4.67093,98.45592 14.44397,22.06314 49.30884,43.55517 50.76293,41.62738 5.59356,-7.42067 -33.75525,-44.18362 -27.34061,-97.53163 6.41464,-53.34801 71.27705,-72.78562 66.00699,-83.14584 z" /><path
     d="m 362.61708,122.15292 c -1.67196,-0.24591 -3.43636,0.15186 -4.90036,1.23789 -85.10992,63.18298 -135.59889,158.10352 -135.59889,260.67746 0,185.11567 163.32077,334.94851 364.50413,334.94851 201.18169,0 364.50246,-149.83284 364.50246,-334.94851 0,-3.64598 -2.95441,-6.60204 -6.60202,-6.60204 -3.64597,0 -6.60202,2.95606 -6.60202,6.60204 0,177.55801 -157.16604,321.74447 -351.29842,321.74447 -194.1324,0 -351.30007,-144.18646 -351.30007,-321.74447 0,-98.27933 48.44561,-189.34758 130.28591,-250.10268 2.92799,-2.17371 3.51557,-6.30493 1.34185,-9.23291 -1.08604,-1.464 -2.66061,-2.33217 -4.33257,-2.57976 z"
     id="path37"
     inkscape:connector-curvature="0"
     style="opacity:1;fill:#0576af;stroke-width:1.65050507" /><path
     d="m 1255.2135,361.04207 c 10.7843,34.57312 -0.6205,74.57806 -26.3602,84.02885 -10.6392,3.90511 -28.019,1.61915 -39.7162,-14.76211 -5.917,5.2354 -12.1262,11.51061 -28.1774,6.46996 -16.0511,-5.03898 -17.8568,-13.42685 -20.6643,-23.76891 -18.2381,6.40891 -34.2397,-3.40004 -40.8302,-12.72044 -14.0441,-19.85887 -4.3359,-61.78996 23.4306,-82.31397 17.327,-12.80793 43.7631,-13.18755 71.7755,-3.49248 28.0139,9.69507 52.9366,22.17454 60.5422,46.5591 z"
     id="path61"
     inkscape:connector-curvature="0"
     style="opacity:1;fill:#0576af;stroke-width:1.65050507" /><path
     d="m 24.786762,361.04207 c -10.784389,34.57312 0.618951,74.57806 26.360226,84.02885 10.639155,3.90511 28.018971,1.61915 39.716096,-14.76211 5.917063,5.2354 12.124626,11.51061 28.177426,6.46996 16.05116,-5.03898 17.85515,-13.42685 20.66268,-23.76891 18.23808,6.40891 34.24137,-3.40004 40.83182,-12.72044 14.0425,-19.85887 4.33589,-61.78996 -23.43056,-82.31397 -17.32865,-12.80793 -43.76479,-13.18755 -71.777156,-3.49248 -28.012375,9.69507 -52.934982,22.17454 -60.540532,46.5591 z"
     id="path63"
     inkscape:connector-curvature="0"
     style="opacity:1;fill:#0576af;stroke-width:1.65050507" /><g
     transform="matrix(1.6505049,0,0,1.6505049,-370.68082,-166.94456)"
     vectornator:layerName="Face 6 copy"
     id="Face 6 copy">
<path
   style="opacity:1;fill:#0477af"
   inkscape:connector-curvature="0"
   id="path257"
   d="m 500.327,366.614 c 0,-9.201 10.958,-16.66 24.475,-16.66 13.518,0 24.475,7.459 24.475,16.66 0,9.2 -10.957,16.659 -24.475,16.659 -13.517,0 -24.475,-7.459 -24.475,-16.659 z" />
<g
   style="opacity:1"
   id="g271">
<g
   style="opacity:1"
   id="g263">
<path
   style="opacity:1;fill:#000000"
   inkscape:connector-curvature="0"
   id="path259"
   d="m 387.524,328.51 c 0,-32.966 22.509,-59.69 50.275,-59.69 27.767,0 50.275,26.724 50.275,59.69 0,32.966 -22.508,59.69 -50.275,59.69 -27.766,0 -50.275,-26.724 -50.275,-59.69 z" />
<path
   style="opacity:1;fill:#ffffff"
   inkscape:connector-curvature="0"
   id="path261"
   d="m 444.822,283.506 c 9.025,-9.414 33.526,10.402 33.906,41.812 0.395,32.726 -20.327,57.454 -31.906,46.956 -9.266,-8.401 0.732,-21.962 0.9,-45.939 0.181,-25.581 -11.601,-33.754 -2.9,-42.829 z" />
</g>
<g
   style="opacity:1"
   id="g269">
<path
   style="opacity:1;fill:#000000"
   inkscape:connector-curvature="0"
   id="path265"
   d="m 569.792,328.51 c 0,-32.966 22.509,-59.69 50.275,-59.69 27.766,0 50.275,26.724 50.275,59.69 0,32.966 -22.509,59.69 -50.275,59.69 -27.766,0 -50.275,-26.724 -50.275,-59.69 z" />
<path
   style="opacity:1;fill:#ffffff"
   inkscape:connector-curvature="0"
   id="path267"
   d="m 627.089,283.506 c 9.026,-9.414 33.527,10.402 33.906,41.812 0.396,32.726 -20.326,57.454 -31.906,46.956 -9.266,-8.401 0.732,-21.962 0.901,-45.939 0.18,-25.581 -11.601,-33.754 -2.901,-42.829 z" />
</g>
</g>
<path
   style="opacity:1;fill:#000000"
   inkscape:connector-curvature="0"
   id="path273"
   d="m 524.812,390.188 c -2,0 -4,1.333 -4,4 0,6.146 -2.008,13.111 -5.562,18.312 -4.086,5.98 -9.856,9.312 -17.281,9.312 -9.389,0 -17.469,-8.547 -17.469,-18.937 0,-2.209 -1.791,-4 -4,-4 -2.209,0 -4,1.791 -4,4 0,14.711 11.559,26.938 25.469,26.937 10.193,0 18.358,-4.739 23.875,-12.812 1.191,-1.743 2.228,-3.628 3.125,-5.594 1.011,2.026 2.168,3.995 3.531,5.782 6.115,8.016 15.196,12.624 26.656,12.624 16.576,0 30.188,-11.933 30.188,-26.937 0,-2.209 -1.791,-4 -4,-4 -2.209,0 -4,1.791 -4,4 0,10.331 -9.811,18.938 -22.188,18.937 -8.932,0 -15.66,-3.441 -20.281,-9.5 -3.909,-5.124 -6.062,-11.963 -6.063,-18.124 0,-2.667 -1.999,-4 -4,-4 z" />
</g></g>
</svg>