<svg width="68" height="22" viewBox="0 0 68 22" fill="none" xmlns="http://www.w3.org/2000/svg">
<path d="M43.739 17.9336L24.3071 6.70832L5.68024 17.5759L4.04785 14.7807L24.2847 2.974L43.739 14.1993L62.3659 3.44358L63.9759 6.23873L43.739 17.9336Z" fill="url(#paint0_linear)"/>
<path d="M24.2844 8.07239C26.0751 8.07239 27.5267 6.62073 27.5267 4.83002C27.5267 3.03931 26.0751 1.58765 24.2844 1.58765C22.4936 1.58765 21.042 3.03931 21.042 4.83002C21.042 6.62073 22.4936 8.07239 24.2844 8.07239Z" fill="url(#paint1_linear)"/>
<path d="M24.284 9.70476C21.6007 9.70476 19.4316 7.51336 19.4316 4.85238C19.4316 2.1914 21.623 0 24.284 0C26.945 0 29.1364 2.1914 29.1364 4.85238C29.1364 7.51336 26.9674 9.70476 24.284 9.70476ZM24.284 3.22001C23.3896 3.22001 22.674 3.95793 22.674 4.83002C22.674 5.70211 23.3896 6.44003 24.284 6.44003C25.1785 6.44003 25.894 5.70211 25.894 4.83002C25.894 3.95793 25.1785 3.22001 24.284 3.22001Z" fill="url(#paint2_linear)"/>
<path d="M63.1486 8.07239C64.9393 8.07239 66.391 6.62073 66.391 4.83002C66.391 3.03931 64.9393 1.58765 63.1486 1.58765C61.3579 1.58765 59.9062 3.03931 59.9062 4.83002C59.9062 6.62073 61.3579 8.07239 63.1486 8.07239Z" fill="url(#paint3_linear)"/>
<path d="M63.1478 9.70476C60.4644 9.70476 58.2954 7.51336 58.2954 4.85238C58.2954 2.1914 60.4868 0 63.1478 0C65.8088 0 68.0002 2.1914 68.0002 4.85238C68.0002 7.51336 65.8311 9.70476 63.1478 9.70476ZM63.1478 3.22001C62.2533 3.22001 61.5378 3.95793 61.5378 4.83002C61.5378 5.70211 62.2533 6.44003 63.1478 6.44003C64.0422 6.44003 64.7801 5.72447 64.7801 4.83002C64.7801 3.93557 64.0422 3.22001 63.1478 3.22001Z" fill="url(#paint4_linear)"/>
<path d="M4.85272 19.4095C6.64343 19.4095 8.09509 17.9578 8.09509 16.1671C8.09509 14.3764 6.64343 12.9247 4.85272 12.9247C3.062 12.9247 1.61035 14.3764 1.61035 16.1671C1.61035 17.9578 3.062 19.4095 4.85272 19.4095Z" fill="url(#paint5_linear)"/>
<path d="M4.85238 21.0195C2.16903 21.0195 0 18.8505 0 16.1671C0 13.4838 2.19139 11.3148 4.85238 11.3148C7.51336 11.3148 9.70475 13.5062 9.70475 16.1671C9.70475 18.8281 7.53572 21.0195 4.85238 21.0195ZM4.85238 14.5348C3.95793 14.5348 3.24237 15.2727 3.24237 16.1448C3.24237 17.0169 3.95793 17.7548 4.85238 17.7548C5.74682 17.7548 6.46238 17.0392 6.46238 16.1448C6.46238 15.2503 5.74682 14.5348 4.85238 14.5348Z" fill="url(#paint6_linear)"/>
<path d="M43.7389 19.4095C45.5297 19.4095 46.9813 17.9578 46.9813 16.1671C46.9813 14.3764 45.5297 12.9247 43.7389 12.9247C41.9482 12.9247 40.4966 14.3764 40.4966 16.1671C40.4966 17.9578 41.9482 19.4095 43.7389 19.4095Z" fill="url(#paint7_linear)"/>
<path d="M43.7391 21.0195C41.0558 21.0195 38.8867 18.8505 38.8867 16.1671C38.8867 13.4838 41.0781 11.3148 43.7391 11.3148C46.4001 11.3148 48.5915 13.5062 48.5915 16.1671C48.5915 18.8281 46.4224 21.0195 43.7391 21.0195ZM43.7391 14.5348C42.8446 14.5348 42.1291 15.2727 42.1291 16.1448C42.1291 17.0169 42.8446 17.7548 43.7391 17.7548C44.6335 17.7548 45.3491 17.0392 45.3491 16.1448C45.3491 15.2503 44.6335 14.5348 43.7391 14.5348Z" fill="url(#paint8_linear)"/>
<defs>
<linearGradient id="paint0_linear" x1="34.0119" y1="2.974" x2="34.0119" y2="17.9336" gradientUnits="userSpaceOnUse">
<stop stop-color="#C887FF"/>
<stop offset="1" stop-color="#10E7FF"/>
</linearGradient>
<linearGradient id="paint1_linear" x1="24.2844" y1="1.58765" x2="24.2844" y2="8.07239" gradientUnits="userSpaceOnUse">
<stop stop-color="#C887FF"/>
<stop offset="1" stop-color="#10E7FF"/>
</linearGradient>
<linearGradient id="paint2_linear" x1="24.284" y1="0" x2="24.284" y2="9.70476" gradientUnits="userSpaceOnUse">
<stop stop-color="#C887FF"/>
<stop offset="1" stop-color="#10E7FF"/>
</linearGradient>
<linearGradient id="paint3_linear" x1="63.1486" y1="1.58765" x2="63.1486" y2="8.07239" gradientUnits="userSpaceOnUse">
<stop stop-color="#C887FF"/>
<stop offset="1" stop-color="#10E7FF"/>
</linearGradient>
<linearGradient id="paint4_linear" x1="63.1478" y1="0" x2="63.1478" y2="9.70476" gradientUnits="userSpaceOnUse">
<stop stop-color="#C887FF"/>
<stop offset="1" stop-color="#10E7FF"/>
</linearGradient>
<linearGradient id="paint5_linear" x1="4.85272" y1="12.9247" x2="4.85272" y2="19.4095" gradientUnits="userSpaceOnUse">
<stop stop-color="#C887FF"/>
<stop offset="1" stop-color="#10E7FF"/>
</linearGradient>
<linearGradient id="paint6_linear" x1="4.85238" y1="11.3148" x2="4.85238" y2="21.0195" gradientUnits="userSpaceOnUse">
<stop stop-color="#C887FF"/>
<stop offset="1" stop-color="#10E7FF"/>
</linearGradient>
<linearGradient id="paint7_linear" x1="43.7389" y1="12.9247" x2="43.7389" y2="19.4095" gradientUnits="userSpaceOnUse">
<stop stop-color="#C887FF"/>
<stop offset="1" stop-color="#10E7FF"/>
</linearGradient>
<linearGradient id="paint8_linear" x1="43.7391" y1="11.3148" x2="43.7391" y2="21.0195" gradientUnits="userSpaceOnUse">
<stop stop-color="#C887FF"/>
<stop offset="1" stop-color="#10E7FF"/>
</linearGradient>
</defs>
</svg>
