<svg width="512" height="512" viewBox="0 0 512 512" xmlns="http://www.w3.org/2000/svg">
  <g fill="none">
    <circle fill="#000000" cx="256" cy="256" r="256"/>
    <path d="M248.989 139.771L316 206.541 161.382 402.958l114.306 108.296C407.874 501.201 512 390.76 512 256c0-3.303-.083-6.587-.207-9.86L321.541 55.888l-72.552 83.883z" fill-opacity=".1" fill="#000"/>
    <path d="M191.187 419.533c-10.268-.401-25.607-11.596-32.251-19.129-17.002-19.278-30.852-40.639-40.647-64.442-11.15-27.094-17.801-55.193-17.464-84.691.242-21.218 4.384-41.569 15.006-60.09 13.133-22.899 32.522-37.959 58.435-44.047 10.311-2.422 20.822-3.394 31.127-.345 10.303 3.048 20.455 6.646 30.564 10.303 8.759 3.169 17.355 5.462 26.551 1.477 6.042-2.619 12.326-4.681 18.514-6.958 10.135-3.73 20.379-7.188 31.29-7.513 21.103-.63 40.57 4.546 57.743 17.179 7.082 5.21 13.035 11.54 17.974 18.956-.679.512-1.199.936-1.75 1.315-7.396 5.085-13.946 11.087-19.612 18.053-15.04 18.489-20.26 39.594-16.71 62.998 2.477 16.33 9.514 30.427 20.994 42.309 7.016 7.262 18.796 14.858 27.862 19.26-1.58 3.746-4.678 9.791-6.183 13.572-6.422 16.138-15.065 31.035-25.235 45.085-7.232 9.991-14.51 19.898-24.391 27.57-9.041 7.02-19.048 10.529-30.579 9.728-8.784-.61-16.915-3.354-24.785-6.997-17.197-7.962-34.848-9.551-52.987-3.873-4.524 1.416-8.792 3.638-13.303 5.104-7.162 2.327-22.637 5.47-30.163 5.176z" fill="#FFF"/>
    <path d="M370.95 304.908c-11.48-11.883-18.517-25.979-20.993-42.309-3.55-23.404 1.67-44.509 16.71-62.998 5.666-6.966 12.216-12.968 19.612-18.053.551-.379 1.07-.803 1.749-1.315-4.939-7.416-10.892-13.746-17.974-18.956-17.173-12.632-36.641-17.808-57.743-17.179-10.91.326-21.155 3.783-31.29 7.513-6.188 2.277-12.473 4.34-18.514 6.958-4.488 1.945-8.832 2.388-13.124 1.97V406.23c13-1.295 25.749 1.106 38.256 6.896 7.87 3.644 16.002 6.387 24.785 6.997 11.532.801 21.539-2.709 30.579-9.728 9.881-7.672 17.159-17.579 24.391-27.57 10.17-14.05 18.813-28.947 25.235-45.085 1.504-3.78 4.603-9.825 6.183-13.572-9.066-4.402-20.846-11.998-27.862-19.26z" fill-opacity=".1" fill="#000"/>
    <path d="M321.541 55.888c-.044 5.787.616 11.683-.259 17.341-3.245 20.972-13.09 38.464-29.665 51.791-12.286 9.878-26.191 15.773-42.628 14.751-.934-6.334-.726-12.619.639-18.772 4.882-22.005 16.587-39.523 35.383-52.026 9.701-6.453 20.346-10.858 31.986-12.558.557-.082 3.573-.527 4.544-.527z" fill="#FFF"/>
    <path d="M321.541 55.888c-.044 5.787.616 11.683-.259 17.341-3.245 20.972-13.09 38.464-29.665 51.791-12.286 9.878-26.191 15.773-42.628 14.751-.934-6.334-.726-12.619.639-18.772 4.882-22.005 16.587-39.523 35.383-52.026 9.701-6.453 20.346-10.858 31.986-12.558.557-.082 3.573-.527 4.544-.527z" fill-opacity=".1" fill="#000"/>
  </g>
</svg>