<?xml version="1.0" encoding="UTF-8"?>
<svg width="64px" height="64px" viewBox="0 0 64 64" version="1.1" xmlns="http://www.w3.org/2000/svg" xmlns:xlink="http://www.w3.org/1999/xlink">
    <!-- Generator: Sketch 63.1 (92452) - https://sketch.com -->
    <title>Icon</title>
    <desc>Created with Sketch.</desc>
    <g id="Icon" stroke="none" stroke-width="1" fill="none" fill-rule="evenodd">
        <g id="Amazon-Simple-Storage-Service-S3_Bucket_light-bg" transform="translate(1.000000, 0.000000)" fill="#000000" fill-rule="nonzero">
            <path d="M28.8933333,63.3333333 C20.3733333,63.3333333 6.89333333,61.4 6.72,56.2133333 L0.68,11.4 C0.536405978,10.6636203 1.01695368,9.95026072 1.75333334,9.80666669 C2.489713,9.66307265 3.20307262,10.1436203 3.34666667,10.88 C4.01333333,13.4533333 14.08,17.0533333 28.9466667,17.0533333 C43.8133333,17.0533333 53.8666667,13.4533333 54.5333333,10.88 C54.6769274,10.1436203 55.390287,9.66307265 56.1266667,9.80666669 C56.8630463,9.95026072 57.343594,10.6636203 57.2,11.4 L51.0533333,56.2133333 C51.0533333,57.9733333 49.4266667,59.48 46.3733333,60.6933333 C45.018231,61.2094918 43.6280366,61.6283324 42.2133333,61.9466667 C37.8371049,62.8927383 33.3705905,63.3577208 28.8933333,63.3333333 Z M3.86666667,15.0266667 L9.33333333,56 C9.33333333,56 9.33333333,56.12 9.33333333,56.1733333 C9.33333333,57.7466667 16.92,60.7333333 28.84,60.7333333 C33.1160539,60.7564511 37.3816859,60.3093199 41.56,59.4 C42.8441798,59.0938926 44.1051031,58.6973478 45.3333333,58.2133333 C47.8,57.24 48.3466667,56.36 48.3466667,56.1066667 C48.3405926,56.0490485 48.3405926,55.9909515 48.3466667,55.9333333 L53.8533333,15.0266667 C48.7066667,18.0933333 38.3333333,19.72 28.8266667,19.72 C19.32,19.72 9,18.0933333 3.86666667,15.0266667 Z" id="Shape"></path>
            <path d="M28.8933333,19.72 C16.2666667,19.72 2.09333333,16.8533333 0.72,11.56 C0.715444437,11.5023203 0.715444437,11.4443463 0.72,11.3866667 L0.72,10.84 C0.713925916,10.7823819 0.713925916,10.7242848 0.72,10.6666667 C0.72,4.77333333 15.6266667,0.666666667 29.0133333,0.666666667 C42.4,0.666666667 57.1866667,4.77333333 57.1866667,10.6666667 C57.1866667,10.6666667 57.1866667,10.7733333 57.1866667,10.84 L57.1066667,11.3866667 C57.1121216,11.4443157 57.1121216,11.502351 57.1066667,11.56 C55.68,16.8533333 41.5066667,19.72 28.8933333,19.72 Z M3.30666667,10.9466667 C4.13333333,13.52 14.16,17.0533333 28.8933333,17.0533333 C43.6266667,17.0533333 53.64,13.52 54.4666667,10.9466667 L54.4666667,10.5866667 C54.32,8 43.8133333,3.33333333 28.8933333,3.33333333 C13.9733333,3.33333333 3.45333333,8 3.26666667,10.5866667 L3.30666667,10.9466667 Z" id="Shape"></path>
            <path d="M57.24,38.16 C50.8933333,38.16 37,31.88 28.3066667,27.6133333 L29.48,25.2133333 C41.48,31.12 55.6133333,36.5733333 58.0266667,35.5466667 C57.84,35.16 56.9466667,33.96 52.6933333,31.6533333 L52.48,31.52 L53.8133333,29.2 L54.0133333,29.32 C58.2933333,31.68 60.3333333,33.4933333 60.68,35.2 C60.8181247,35.9214573 60.622021,36.6666512 60.1466667,37.2266667 C59.3577097,37.9423898 58.2981484,38.2826159 57.24,38.16 L57.24,38.16 Z" id="Path"></path>
            <path d="M28.8933333,29.3333333 C27.2953895,29.3333333 26,28.0379439 26,26.44 C26,24.8420561 27.2953895,23.5466667 28.8933333,23.5466667 C30.4912772,23.5466667 31.7866667,24.8420561 31.7866667,26.44 C31.7793672,28.0349105 30.4882439,29.3260339 28.8933333,29.3333333 L28.8933333,29.3333333 Z M28.8933333,26.2133333 C28.8309426,26.2096568 28.7698025,26.2319046 28.724365,26.2748178 C28.6789275,26.3177311 28.6532251,26.3775012 28.6533333,26.44 C28.6533333,26.6933333 29.12,26.6933333 29.12,26.44 C29.1276529,26.3754156 29.1071953,26.3106554 29.0638294,26.2621877 C29.0204636,26.21372 28.958368,26.1862148 28.8933333,26.1866667 L28.8933333,26.2133333 Z" id="Shape"></path>
        </g>
    </g>
</svg>