<svg width="64" height="64" viewBox="0 0 64 64" xmlns="http://www.w3.org/2000/svg">
  <g fill="#000000" fill-rule="nonzero">
    <path d="M24.47 44.412H10.668a7.667 7.667 0 01-3.94-1.18 12.775 12.775 0 01-6.1-11.156A11.407 11.407 0 018.784 20.57v-.98a17.192 17.192 0 019.814-15.158 16.464 16.464 0 0118.56 3.676 18.886 18.886 0 013.764 5.522 7.354 7.354 0 014.618-1.631c3.414 0 7.254 2.585 7.956 8.257 3.226.765 9.851 3.4 9.851 11.934a11.294 11.294 0 01-5.935 10.529l-1.255-2.196a8.885 8.885 0 004.643-8.333c0-7.379-6.111-9.211-8.784-9.663A1.255 1.255 0 0151.2 22a1.255 1.255 0 01-.213-.903c-.364-4.556-3.025-6.589-5.522-6.589a5.02 5.02 0 00-4.053 2.121 1.255 1.255 0 01-1.192.502 1.255 1.255 0 01-.992-.828 17.067 17.067 0 00-3.94-6.425 14.005 14.005 0 00-15.699-3.112 14.758 14.758 0 00-8.295 12.8c.001.578.035 1.157.1 1.731a1.255 1.255 0 01-1.016 1.393 9.085 9.085 0 00-7.253 9.387 10.202 10.202 0 004.931 9.035c.78.5 1.684.773 2.61.791h13.805v2.51z"/>
    <path d="M61.98 51.941l-8.91-8.947a13.315 13.315 0 10-6.099 6.437l8.784 8.785a4.417 4.417 0 003.138 1.255 4.367 4.367 0 003.124-1.255 4.418 4.418 0 00-.037-6.275zM40.91 48.39c-5.954 0-10.78-4.826-10.78-10.78 0-5.953 4.826-10.78 10.78-10.78 5.953 0 10.78 4.827 10.78 10.78 0 5.954-4.827 10.78-10.78 10.78zm19.325 8.006c-.76.72-1.95.72-2.71 0l-8.358-8.358c1.02-.8 1.917-1.747 2.66-2.81l8.408 8.457c.74.753.74 1.959 0 2.711z"/>
    <path d="M44.36 31.775l-1.493 2.02a4.229 4.229 0 00-6.7 4.016 4.141 4.141 0 001.668 2.836l-1.443 1.958a6.739 6.739 0 018.019-10.83h-.05z"/>
  </g>
</svg>