<svg width="64" height="64" viewBox="0 0 64 64" xmlns="http://www.w3.org/2000/svg">
  <g fill="#000000" fill-rule="nonzero">
    <path d="M29.893 63.333c-8.52 0-22-1.933-22.173-7.12L1.68 11.4a1.358 1.358 0 012.667-.52c.666 2.573 10.733 6.173 25.6 6.173 14.866 0 24.92-3.6 25.586-6.173a1.358 1.358 0 012.667.52l-6.147 44.813c0 1.76-1.626 3.267-4.68 4.48a30.493 30.493 0 01-4.16 1.254 61.453 61.453 0 01-13.32 1.386zM4.867 15.027L10.333 56v.173c0 1.574 7.587 4.56 19.507 4.56A58.333 58.333 0 0042.56 59.4a28 28 0 003.773-1.187c2.467-.973 3.014-1.853 3.014-2.106a.827.827 0 010-.174l5.506-40.906c-5.146 3.066-15.52 4.693-25.026 4.693-9.507 0-19.827-1.627-24.96-4.693z"/>
    <path d="M29.893 19.72c-12.626 0-26.8-2.867-28.173-8.16a1.1 1.1 0 010-.173v-.547a.827.827 0 010-.173c0-5.894 14.907-10 28.293-10 13.387 0 28.174 4.106 28.174 10v.173l-.08.547a.92.92 0 010 .173c-1.427 5.293-15.6 8.16-28.214 8.16zM4.307 10.947c.826 2.573 10.853 6.106 25.586 6.106 14.734 0 24.747-3.533 25.574-6.106v-.36C55.32 8 44.813 3.333 29.893 3.333c-14.92 0-25.44 4.667-25.626 7.254l.04.36zM58.24 38.16c-6.347 0-20.24-6.28-28.933-10.547l1.173-2.4c12 5.907 26.133 11.36 28.547 10.334-.187-.387-1.08-1.587-5.334-3.894l-.213-.133 1.333-2.32.2.12c4.28 2.36 6.32 4.173 6.667 5.88a2.427 2.427 0 01-.533 2.027 3.693 3.693 0 01-2.907.933z"/>
    <path d="M29.893 29.333a2.893 2.893 0 112.894-2.893 2.907 2.907 0 01-2.894 2.893zm0-3.12a.227.227 0 00-.24.227c0 .253.467.253.467 0a.227.227 0 00-.227-.253v.026z"/>
  </g>
</svg>