<?xml version="1.0" encoding="UTF-8"?>
<svg width="64px" height="64px" viewBox="0 0 64 64" version="1.1" xmlns="http://www.w3.org/2000/svg" xmlns:xlink="http://www.w3.org/1999/xlink">
    <!-- Generator: Sketch 63.1 (92452) - https://sketch.com -->
    <title>Icon</title>
    <desc>Created with Sketch.</desc>
    <g id="Icon" stroke="none" stroke-width="1" fill="none" fill-rule="evenodd">
        <g id="Amazon-CloudWatch" transform="translate(0.000000, 3.000000)" fill="#000000" fill-rule="nonzero">
            <g id="Icon_Test">
                <path d="M24.4705882,41.4117647 L10.6666667,41.4117647 C9.27028218,41.3847767 7.90779049,40.9768971 6.72627451,40.2321569 C2.85575938,37.8610314 0.534085987,33.6141844 0.62745098,29.0760784 C0.364808513,23.8174559 3.73544075,19.0622717 8.78431373,17.5686275 C8.78431373,17.2423529 8.78431373,16.9160784 8.78431373,16.5898039 C8.92460311,10.0872711 12.7224033,4.22059261 18.5976471,1.43058824 C24.9411533,-1.37594336 32.3632487,0.0944244345 37.1576471,5.10745098 C38.7307935,6.70955349 40.0056495,8.57934233 40.9223529,10.6290196 C42.2300713,9.57352765 43.8598593,8.99778733 45.5403922,8.99764706 C48.9537255,8.99764706 52.7937255,11.5827451 53.4964706,17.254902 C56.7215686,18.0203922 63.347451,20.6556863 63.347451,29.1890196 C63.5712139,33.5510681 61.2597471,37.6511117 57.4117647,39.7176471 L56.1568627,37.5215686 C59.1907785,35.8807839 61.0009053,32.6323402 60.8,29.1890196 C60.8,21.8101961 54.6886275,19.9780392 52.0156863,19.5262745 C51.6840742,19.46718 51.3901408,19.2772538 51.2,18.9992157 C51.0160026,18.7363839 50.9396623,18.4130602 50.9866667,18.0956863 C50.6227451,13.5403922 47.9623529,11.507451 45.465098,11.507451 C43.8516606,11.5218415 42.3434977,12.3109422 41.4117647,13.6282353 C41.1378677,14.0032511 40.6792601,14.1963491 40.2196078,14.1301961 C39.7615151,14.0584701 39.3803032,13.7399892 39.2282353,13.3019608 C38.4100135,10.8933682 37.0637224,8.69814196 35.2878431,6.87686275 C31.221439,2.65709847 24.9576925,1.41536455 19.5890196,3.76470588 C14.6625664,6.16102087 11.4689449,11.0891509 11.2941176,16.5647059 C11.2951982,17.1433831 11.3287148,17.7215449 11.3945098,18.2964706 C11.4788618,18.9569158 11.0327364,19.5682728 10.3780392,19.6894118 C5.9693904,20.5904045 2.8844162,24.5827241 3.12470588,29.0760784 C3.01743205,32.7572035 4.90232348,36.2104397 8.05647059,38.1113725 C8.83689814,38.6107472 9.74031197,38.8843773 10.6666667,38.9019608 L24.4705882,38.9019608 L24.4705882,41.4117647 Z" id="Path"></path>
                <path d="M61.9796078,48.9411765 L53.0698039,39.9937255 C55.7076911,34.068926 53.6928908,27.105395 48.2988808,23.5045126 C42.9048707,19.9036302 35.7010545,20.7130841 31.2406872,25.4212496 C26.7803199,30.129415 26.361159,37.3664371 30.2481399,42.5580725 C34.1351207,47.7497078 41.1973147,49.3854345 46.9709804,46.4313725 L55.7552941,55.2156863 C56.5934101,56.0332301 57.7218141,56.4845917 58.892549,56.4705882 C60.0599917,56.4868091 61.1853166,56.0348714 62.0172549,55.2156863 C62.8491588,54.3811846 63.3131638,53.2488923 63.3061735,52.0705854 C63.2990241,50.8922785 62.8214655,49.7656356 61.9796078,48.9411765 Z M40.9098039,45.3898039 C34.9563909,45.3898039 30.1301961,40.5636091 30.1301961,34.6101961 C30.1301961,28.6567831 34.9563909,23.8305882 40.9098039,23.8305882 C46.8632169,23.8305882 51.6894118,28.6567831 51.6894118,34.6101961 C51.6894118,40.5636091 46.8632169,45.3898039 40.9098039,45.3898039 Z M60.2352941,53.3960784 C59.4753156,54.116363 58.2846844,54.116363 57.5247059,53.3960784 L49.1670588,45.0384314 C50.1876315,44.237767 51.0841345,43.2905185 51.827451,42.227451 L60.2352941,50.6854902 C60.9751575,51.4375586 60.9751575,52.64401 60.2352941,53.3960784 Z" id="Shape"></path>
                <path d="M44.3607843,28.774902 L42.867451,30.7952941 C41.4938069,29.7776098 39.6425518,29.6870481 38.1761358,30.5657992 C36.7097199,31.4445504 35.916602,33.1197551 36.1662745,34.8109804 C36.3069992,35.9462921 36.9111027,36.9728138 37.8352941,37.6470588 L36.3921569,39.6047059 C33.480193,37.3649498 32.8987206,33.2055272 35.0848328,30.2530783 C37.270945,27.3006295 41.4190346,26.6431653 44.4109804,28.774902 L44.3607843,28.774902 Z" id="Path"></path>
            </g>
        </g>
    </g>
</svg>