<?xml version="1.0" encoding="UTF-8"?>
<svg width="64px" height="64px" viewBox="0 0 64 64" version="1.1" xmlns="http://www.w3.org/2000/svg" xmlns:xlink="http://www.w3.org/1999/xlink">
    <!-- Generator: Sketch 63.1 (92452) - https://sketch.com -->
    <title>Icon</title>
    <desc>Created with Sketch.</desc>
    <g id="Icon" stroke="none" stroke-width="1" fill="none" fill-rule="evenodd">
        <g id="datadog" transform="translate(2.000000, 0.000000)">
            <path d="M45,3 L45,7 L51,7 L51,34 L56,34 L56,36.681 L58.7891597,54.2860813 L56,54.728 L56,56 L50.961,56 L51.0260125,56.528237 L36,58.372 L36,59 L29,59 L29,54 L28.398,54 L24.998,56.381 L25,56.5 C25,60.0082634 22.648223,62.8673694 19.7061934,62.9955167 L19.5,63 C18.5066315,63 17.5747719,62.6887678 16.7704287,62.1443127 L16.0134863,62.6724827 L9.941,54 L6,54 L6,7 L34,7 L34,3 L45,3 Z" id="Combined-Shape" fill="#FEFEFE"></path>
            <path d="M50.0633839,45.4250642 L44.7432439,41.9158926 L40.3050642,49.3292882 L35.1432439,47.8200233 L30.598273,54.7569662 L30.8312719,56.9405834 L55.5425904,52.3873979 L54.1072579,36.9474912 L50.0633839,45.4250642 Z M27.0181564,38.768168 L30.9828705,38.2230105 C31.6243641,38.5112719 32.0709452,38.6210502 32.84014,38.8167095 C34.037993,39.1288681 35.4247841,39.4283314 37.4784597,38.3932789 C37.9564061,38.1565461 38.9518786,37.2462077 39.3543991,36.7271879 L55.5985998,33.7803501 L57.2557293,53.8361727 L29.4265578,58.8516219 L27.0181564,38.768168 Z M57.1929988,31.5414702 L55.5896383,31.8469078 L52.5091249,0.0201633606 L0.0201633606,6.10651109 L6.48662777,58.5820303 L12.6304784,57.6903617 C12.1398366,56.9898716 11.3758693,56.1422637 10.0712252,55.0571762 C8.26175029,53.5538856 8.90175029,51.0006068 9.96891482,49.3882847 C11.3810968,46.6639907 18.6570828,43.201867 18.2448541,38.8473279 C18.0969895,37.2641307 17.8453209,35.2029872 16.3756359,33.7908051 C16.3203734,34.3770362 16.4196966,34.9416103 16.4196966,34.9416103 C16.4196966,34.9416103 15.8162894,34.1716686 15.5153326,33.1216803 C15.2166161,32.7191599 14.9821237,32.5907118 14.6647375,32.0530222 C14.4384597,32.6750992 14.4683314,33.3964994 14.4683314,33.3964994 C14.4683314,33.3964994 13.9747025,32.2300117 13.8947958,31.245741 C13.6020537,31.6863477 13.5281214,32.5235006 13.5281214,32.5235006 C13.5281214,32.5235006 12.8866278,30.6849008 13.0329988,29.6946558 C12.7402567,28.8328588 11.8724854,27.1227071 12.1181797,23.2356593 C13.7200467,24.3580863 17.2463944,24.0914819 18.6204901,22.0661844 C19.0767795,21.3955659 19.3889382,19.5644341 18.3927188,15.9566861 C17.7527188,13.6431272 16.168028,10.1981797 15.5504317,8.89129522 L15.4764994,8.94431739 C15.8021004,9.99729288 16.4734656,12.2048075 16.7311085,13.2749592 C17.5107585,16.5212602 17.71986,17.6511552 17.3539323,19.1477246 C17.0425204,20.4486348 16.2957293,21.2999767 14.4026138,22.2513886 C12.5094982,23.2057876 9.99729288,20.8832672 9.83822637,20.7548191 C7.99887981,19.2896149 6.57624271,16.8991365 6.4171762,15.7378763 C6.25213536,14.4668378 7.1497783,13.7036173 7.60233372,12.664084 C6.95486581,12.8492882 6.23271879,13.1778763 6.23271879,13.1778763 C6.23271879,13.1778763 7.09451575,12.2862077 8.15719953,11.5147725 C8.59705951,11.2235239 8.85544924,11.0383197 9.31920653,10.6529755 C8.64784131,10.6417736 8.10268378,10.6611902 8.10268378,10.6611902 C8.10268378,10.6611902 9.22212369,10.0562894 10.3826371,9.61568261 C9.53353559,9.57834306 8.72102684,9.60970828 8.72102684,9.60970828 C8.72102684,9.60970828 11.2190432,8.49250875 13.1920653,7.67253209 C14.5489848,7.1161727 15.8745391,7.28046674 16.6190898,8.35733956 C17.5966394,9.768028 18.6234772,10.5342357 20.7996266,11.0091949 C22.1356359,10.4169895 22.5418903,10.1122987 24.2206768,9.65526254 C25.6985764,8.03024504 26.8590898,7.81964994 26.8590898,7.81964994 C26.8590898,7.81964994 26.2833139,8.34763127 26.1294749,9.17731622 C26.9673746,8.51715286 27.8859277,7.966021 27.8859277,7.966021 C27.8859277,7.966021 27.5304551,8.40513419 27.1988798,9.10263711 L27.2757993,9.21689615 C28.2533489,8.63066511 29.4026604,8.1684014 29.4026604,8.1684014 C29.4026604,8.1684014 29.0740723,8.58361727 28.6887281,9.12130688 C29.425811,9.11533256 30.9208868,9.15267211 31.5011435,9.21838973 C34.9266744,9.29381564 35.6376196,5.55985998 36.951972,5.09162194 C38.5978996,4.50389732 39.3334889,4.14842474 42.1384364,6.90333722 C44.5453442,9.26842474 46.4257643,13.5019837 45.4922754,14.4504084 C44.7096383,15.2375263 43.1652742,14.1434772 41.4536289,12.009895 C40.5492649,10.88 39.8652042,9.54473746 39.5448308,7.84728121 C39.2744924,6.41493582 38.2222637,5.58375729 38.2222637,5.58375729 C38.2222637,5.58375729 38.8331389,6.94142357 38.8331389,8.14077013 C38.8331389,8.79570595 38.9152859,11.2444341 39.9652742,12.6185298 C39.8614702,12.8194166 39.8129288,13.6125088 39.697923,13.7641074 C38.4761727,12.2877013 35.8526954,11.2309918 35.4247841,10.9195799 C36.8728121,12.106231 40.2012602,14.8320187 41.4797666,17.444294 C42.6888215,19.9146791 41.9763827,22.1789498 42.5880047,22.7651809 C42.762007,22.9332089 45.1883314,25.9562194 45.6550758,27.4751925 C46.4690782,30.1225671 45.7036173,32.9043641 44.6379463,34.6301984 L41.6619837,35.0939557 C41.2266044,34.9729755 40.9331155,34.9124854 40.5425438,34.6862077 C40.7576196,34.3053442 41.1855309,33.3554259 41.1900117,33.1597666 L41.0219837,32.8647841 C40.0959627,34.1768961 38.5441307,35.4509218 37.2551692,36.1827771 C35.568168,37.1386698 33.6235239,36.9915519 32.357713,36.5994866 C28.7649008,35.4912485 25.367748,33.0634306 24.5485181,32.4256709 C24.5485181,32.4256709 24.5231272,32.9349825 24.677713,33.0492415 C25.5835706,34.0708518 27.6589032,35.9191599 29.6647841,37.2073746 L25.3886581,37.677853 L27.4102217,53.4187165 C26.5140723,53.5471645 26.3744224,53.609895 25.3931389,53.7495449 C24.5283547,50.6944224 22.8742124,48.6997433 21.066231,47.5377363 C19.471832,46.5131389 17.2725321,46.2823804 15.1673279,46.6990898 L15.0321587,46.855916 C16.4958693,46.7035706 18.223944,46.9156593 19.9990665,48.0395799 C21.7413302,49.1410968 23.1452975,51.9863711 23.662077,53.6995099 C24.323734,55.8891015 24.7815169,58.2310385 23.0004201,60.7133722 C21.7331155,62.4780397 18.0335123,63.4533489 15.0448541,61.3436639 C15.8431739,62.6273979 16.922287,63.6773862 18.3747958,63.8752859 C20.5315286,64.168028 22.5784831,63.7938856 23.9876779,62.3473512 C25.1907585,61.1106651 25.8285181,58.5245274 25.6604901,55.8009802 L27.5640607,55.5246674 L28.2511085,60.4131622 L59.7642007,56.6187165 L57.1929988,31.5414702 Z M38.0206301,18.2657643 C37.9325088,18.4666511 37.7943524,18.5980863 38.0019603,19.2515286 L38.0146558,19.2888681 L38.0475146,19.3732555 L38.1341424,19.5689148 C38.5082847,20.3336289 38.9190198,21.0550292 39.6053209,21.4231972 C39.7830572,21.3933256 39.9667678,21.3731622 40.1571995,21.3634539 C40.8016803,21.3350758 41.2086814,21.4373862 41.4670712,21.5762894 C41.4902217,21.4478413 41.4954492,21.2596499 41.4812602,20.9825904 C41.4312252,20.0140023 41.6731855,18.3665811 39.8114352,17.4995566 C39.1087048,17.1732089 38.1229405,17.2740257 37.7943524,17.6810268 C37.8540957,17.6884947 37.9078646,17.7011902 37.9496849,17.7153792 C38.4463011,17.8893816 38.1094982,18.0603967 38.0206301,18.2657643 M43.2384597,27.3034306 C42.994259,27.1690082 41.8531622,27.2220303 41.0511085,27.3176196 C39.5231739,27.4975963 37.8735123,28.027818 37.5120653,28.310105 C36.8548891,28.817923 37.1536056,29.7036173 37.6390198,30.0673046 C39.0004201,31.0844341 40.1937923,31.7662544 41.4536289,31.6004667 C42.2273046,31.4989032 42.9091249,30.2741657 43.3922987,29.1629405 C43.7231272,28.3974796 43.7231272,27.5715286 43.2384597,27.3034306 M29.7110852,19.4651109 C30.1419837,19.0558693 27.5648075,18.5181797 25.5649008,19.8818203 C24.0899883,20.887748 24.0429405,23.0444807 25.4551225,24.2669778 C25.596266,24.387958 25.7127655,24.473839 25.821797,24.5440373 C26.2340257,24.3498716 26.7037573,24.1534656 27.2444341,23.9779697 C28.1577596,23.6814936 28.9172462,23.5284014 29.5415636,23.4470012 C29.84028,23.1131855 30.1875379,22.5254609 30.1009102,21.4612835 C29.9829172,20.0177363 28.8888681,20.2470012 29.7110852,19.4651109" id="Shape" fill="#632CA6" fill-rule="nonzero"></path>
        </g>
    </g>
</svg>