<svg width="512" height="512" viewBox="0 0 512 512" xmlns="http://www.w3.org/2000/svg" xmlns:xlink="http://www.w3.org/1999/xlink">
  <defs>
    <path d="M74.372 0v83.396H34.465v41.698H1.053C.912 126.3.797 127.51.68 128.719c-2.088 22.718 1.88 43.67 10.997 61.584l3.061 5.496c1.835 3.293 3.975 6.387 6.236 9.404 2.258 3.014 3.058 4.682 4.478 6.685C49.557 238.966 85.491 252 126.977 252c91.874 0 169.846-40.679 204.353-132.062 24.482 2.51 47.967-3.764 58.67-24.645-17.049-9.833-38.96-6.681-51.584-.34L371.86 0 241.256 83.396h-41.721V0H74.372z" id="a"/>
    <path d="M74.372 0v83.396H34.465v41.698H1.053C.912 126.3.797 127.51.68 128.719c-2.088 22.718 1.88 43.67 10.997 61.584l3.061 5.496c1.835 3.293 3.975 6.387 6.236 9.404 2.258 3.014 3.058 4.682 4.478 6.685C49.557 238.966 85.491 252 126.977 252c91.874 0 169.846-40.679 204.353-132.062 24.482 2.51 47.967-3.764 58.67-24.645-17.049-9.833-38.96-6.681-51.584-.34L371.86 0 241.256 83.396h-41.721V0H74.372z" id="c"/>
    <path d="M74.372 0v83.396H34.465v41.698H1.053C.912 126.3.797 127.51.68 128.719c-2.088 22.718 1.88 43.67 10.997 61.584l3.061 5.496c1.835 3.293 3.975 6.387 6.236 9.404 2.258 3.014 3.058 4.682 4.478 6.685C49.557 238.966 85.491 252 126.977 252c91.874 0 169.846-40.679 204.353-132.062 24.482 2.51 47.967-3.764 58.67-24.645-17.049-9.833-38.96-6.681-51.584-.34L371.86 0 241.256 83.396h-41.721V0H74.372z" id="e"/>
    <path d="M74.372 0v83.396H34.465v41.698H1.053C.912 126.3.797 127.51.68 128.719c-2.088 22.718 1.88 43.67 10.997 61.584l3.061 5.496c1.835 3.293 3.975 6.387 6.236 9.404 2.258 3.014 3.058 4.682 4.478 6.685C49.557 238.966 85.491 252 126.977 252c91.874 0 169.846-40.679 204.353-132.062 24.482 2.51 47.967-3.764 58.67-24.645-17.049-9.833-38.96-6.681-51.584-.34L371.86 0 241.256 83.396h-41.721V0H74.372z" id="g"/>
    <path d="M74.372 0v83.396H34.465v41.698H1.053C.912 126.3.797 127.51.68 128.719c-2.088 22.718 1.88 43.67 10.997 61.584l3.061 5.496c1.835 3.293 3.975 6.387 6.236 9.404 2.258 3.014 3.058 4.682 4.478 6.685C49.557 238.966 85.491 252 126.977 252c91.874 0 169.846-40.679 204.353-132.062 24.482 2.51 47.967-3.764 58.67-24.645-17.049-9.833-38.96-6.681-51.584-.34L371.86 0 241.256 83.396h-41.721V0H74.372z" id="i"/>
  </defs>
  <g fill="none" fill-rule="evenodd">
    <circle fill="#000000" fill-rule="nonzero" cx="256" cy="256" r="256"/>
    <path d="M488.414 223.01l23.518 27.043c.045 1.977.068 3.96.068 5.947 0 141.385-114.615 256-256 256a258 258 0 01-39.78-3.072L25.25 289.232l1.55-1.347 461.614-64.875z" fill-opacity=".1" fill="#000" fill-rule="nonzero"/>
    <path d="M292.378 208.05h41.583v42.45h21.025c9.71 0 19.696-1.727 28.891-4.838 4.518-1.53 9.59-3.66 14.047-6.337-5.87-7.653-8.867-17.317-9.75-26.843-1.198-12.956 1.42-29.82 10.2-39.96l4.372-5.05 5.208 4.182c13.114 10.521 24.143 25.224 26.087 41.984 15.791-4.639 34.33-3.542 48.249 4.48l5.71 3.29-3.006 5.859c-11.77 22.943-36.38 30.05-60.439 28.792C388.553 345.606 310.173 388 215.137 388c-49.099 0-94.146-18.329-119.797-61.831-1.504-2.702-2.792-5.528-4.158-8.303-8.671-19.15-11.551-40.126-9.597-61.086l.586-6.278h35.558v-42.45h41.582v-41.526h83.166V125h49.9v83.052" fill="#394D54" fill-rule="nonzero"/>
    <g transform="translate(89 129)">
      <mask id="b" fill="#fff">
        <use xlink:href="#a"/>
      </mask>
      <g mask="url(#b)" fill-rule="nonzero">
        <path fill="#00ACD3" d="M161.186-38.172h35.948v35.928h-35.948z"/>
        <path fill="#20C2EF" d="M161.186 3.282h35.948v35.93h-35.948z"/>
        <path d="M165.6-5.238V-35.18m5.39 29.942V-35.18m5.446 29.942V-35.18m5.448 29.942V-35.18m5.447 29.942V-35.18m5.39 29.942V-35.18M165.6 36.217V6.275m5.39 29.942V6.275m5.446 29.942V6.275m5.448 29.942V6.275m5.447 29.942V6.275m5.39 29.942V6.275" stroke="#394D54" stroke-width="1.56" fill="#000"/>
        <path fill="#00ACD3" d="M202.664 39.21h35.948V3.283h-35.948z"/>
        <path fill="#20C2EF" d="M202.664-2.244h35.948v-35.93h-35.948z"/>
        <path d="M207.078 6.276v29.942m5.39-29.942v29.942m5.446-29.942v29.942m5.448-29.942v29.942m5.447-29.942v29.942m5.39-29.942v29.942m-27.121-71.397v29.942m5.39-29.942v29.942m5.446-29.942v29.942m5.448-29.942v29.942m5.447-29.942v29.942m5.39-29.942v29.942" stroke="#394D54" stroke-width="1.56" fill="#000"/>
        <g>
          <path fill="#00ACD3" d="M-4.725 44.738h35.948v35.927H-4.725z"/>
          <path fill="#20C2EF" d="M-4.725 86.192h35.948v35.93H-4.725z"/>
          <path d="M-.311 77.672V47.73m5.39 29.942V47.73m5.446 29.942V47.73m5.448 29.942V47.73m5.447 29.942V47.73m5.39 29.942V47.73M-.311 119.127V89.185m5.39 29.942V89.185m5.446 29.942V89.185m5.448 29.942V89.185m5.447 29.942V89.185m5.39 29.942V89.185" stroke="#394D54" stroke-width="1.56" fill="#000"/>
          <path fill="#00ACD3" d="M36.753 122.12H72.7V86.192H36.753z"/>
          <path fill="#20C2EF" d="M36.753 80.666H72.7v-35.93H36.753z"/>
          <path d="M41.166 89.186v29.942m5.391-29.942v29.942m5.445-29.942v29.942m5.449-29.942v29.942m5.447-29.942v29.942m5.39-29.942v29.942M41.166 47.73v29.943m5.391-29.942v29.942m5.445-29.942v29.942m5.449-29.942v29.942m5.447-29.942v29.942m5.39-29.942v29.942" stroke="#394D54" stroke-width="1.56" fill="#000"/>
        </g>
        <g>
          <path fill="#00ACD3" d="M78.23 44.738h35.948v35.927H78.23z"/>
          <path fill="#20C2EF" d="M78.23 86.192h35.948v35.93H78.23z"/>
          <path d="M82.644 77.672V47.73m5.391 29.942V47.73m5.445 29.942V47.73m5.448 29.942V47.73m5.448 29.942V47.73m5.39 29.942V47.73m-27.122 71.397V89.185m5.391 29.942V89.185m5.445 29.942V89.185m5.448 29.942V89.185m5.448 29.942V89.185m5.39 29.942V89.185" stroke="#394D54" stroke-width="1.56" fill="#000"/>
          <path fill="#00ACD3" d="M119.708 122.12h35.948V86.192h-35.948z"/>
          <path fill="#20C2EF" d="M119.708 80.666h35.948v-35.93h-35.948z"/>
          <path d="M124.122 89.186v29.942m5.391-29.942v29.942m5.445-29.942v29.942m5.448-29.942v29.942m5.447-29.942v29.942m5.39-29.942v29.942M124.122 47.73v29.943m5.391-29.942v29.942m5.445-29.942v29.942m5.448-29.942v29.942m5.447-29.942v29.942m5.39-29.942v29.942" stroke="#394D54" stroke-width="1.56" fill="#000"/>
        </g>
        <g>
          <path fill="#00ACD3" d="M161.186 44.738h35.948v35.927h-35.948z"/>
          <path fill="#20C2EF" d="M161.186 86.192h35.948v35.93h-35.948z"/>
          <path d="M165.6 77.672V47.73m5.39 29.942V47.73m5.446 29.942V47.73m5.448 29.942V47.73m5.447 29.942V47.73m5.39 29.942V47.73M165.6 119.127V89.185m5.39 29.942V89.185m5.446 29.942V89.185m5.448 29.942V89.185m5.447 29.942V89.185m5.39 29.942V89.185" stroke="#394D54" stroke-width="1.56" fill="#000"/>
          <path fill="#00ACD3" d="M202.664 122.12h35.948V86.192h-35.948z"/>
          <path fill="#20C2EF" d="M202.664 80.666h35.948v-35.93h-35.948z"/>
          <path d="M207.078 89.186v29.942m5.39-29.942v29.942m5.446-29.942v29.942m5.448-29.942v29.942m5.447-29.942v29.942m5.39-29.942v29.942M207.078 47.73v29.943m5.39-29.942v29.942m5.446-29.942v29.942m5.448-29.942v29.942m5.447-29.942v29.942m5.39-29.942v29.942" stroke="#394D54" stroke-width="1.56" fill="#000"/>
        </g>
      </g>
    </g>
    <g transform="translate(89 129)">
      <mask id="d" fill="#fff">
        <use xlink:href="#c"/>
      </mask>
      <path d="M338.43 94.962c2.78-21.602-13.394-38.57-23.426-46.626-11.56 13.357-13.356 48.365 4.78 63.104-10.121 8.985-31.45 17.13-53.286 17.13H-1.814c-2.124 22.783 0 132.495 0 132.495h393.628l-1.79-165.747c-17.048-9.833-38.971-6.698-51.594-.357" fill="#17B5EB" fill-rule="nonzero" mask="url(#d)"/>
    </g>
    <g transform="translate(89 129)">
      <mask id="f" fill="#fff">
        <use xlink:href="#e"/>
      </mask>
      <path fill-opacity=".17" fill="#000" fill-rule="nonzero" mask="url(#f)" d="M-1.814 157.727v103.338h393.628V157.727"/>
    </g>
    <g transform="translate(89 129)">
      <mask id="h" fill="#fff">
        <use xlink:href="#g"/>
      </mask>
      <path d="M138.291 251.8c-24.56-11.648-38.042-27.482-45.542-44.77l-74.61 3.272 38.094 50.763 82.058-9.264" fill="#D4EDF1" fill-rule="nonzero" mask="url(#h)"/>
    </g>
    <g transform="translate(89 129)">
      <mask id="j" fill="#fff">
        <use xlink:href="#i"/>
      </mask>
      <path d="M340.116 94.16v.057c-37.84 48.748-92.118 91.334-150.388 113.706-51.978 19.956-97.297 20.052-128.564 4.022-3.367-1.9-6.667-4.01-9.977-6.005-22.922-16.012-35.833-42.498-34.748-77.39H-1.814v132.515h393.628V87.022h-45.349l-6.349 7.138z" fill-opacity=".085" fill="#000" fill-rule="nonzero" mask="url(#j)"/>
    </g>
    <path d="M108 337.293c25.683 1.275 53.092 1.504 77-5.293" stroke="#394D54" stroke-width="3.4" stroke-linecap="round"/>
    <path d="M210 319.001c0 5.522-4.477 9.999-9.999 9.999-5.523 0-10.001-4.477-10.001-9.999S194.478 309 200.001 309c5.522 0 9.999 4.479 9.999 10.001z" fill="#D4EDF1" fill-rule="nonzero"/>
    <path d="M203.216 312.508a3.06 3.06 0 104.213 4.116 7.5 7.5 0 01.571 2.878 7.5 7.5 0 11-4.784-6.994zM25 288h462c-10.06-2.528-31.828-5.942-28.238-19-18.291 20.965-62.404 14.708-73.536 4.37-12.398 17.81-84.57 11.04-89.603-2.834-15.542 18.066-63.701 18.066-79.244 0-5.036 13.874-77.206 20.644-89.605 2.834-11.132 10.338-55.241 16.595-73.534-4.37 3.59 13.058-18.178 16.472-28.24 19" fill="#394D54" fill-rule="nonzero"/>
  </g>
</svg>