<?xml version="1.0" encoding="UTF-8"?>
<svg width="64px" height="64px" viewBox="0 0 64 64" version="1.1" xmlns="http://www.w3.org/2000/svg" xmlns:xlink="http://www.w3.org/1999/xlink">
    <!-- Generator: Sketch 63.1 (92452) - https://sketch.com -->
    <title>Icon</title>
    <desc>Created with Sketch.</desc>
    <g id="Icon" stroke="none" stroke-width="1" fill="none" fill-rule="evenodd">
        <g id="elasticsearch-seeklogo.com" transform="translate(3.000000, 0.000000)" fill-rule="nonzero">
            <path d="M3.20991329,17.9408783 L45.5497175,17.9408783 C50.2156755,17.9408783 54.382165,15.8013538 57.1778014,12.4612699 C51.346193,4.88622098 42.1935217,6.71328671e-05 31.8948923,6.71328671e-05 C19.2846545,6.71328671e-05 8.3863049,7.32001119 3.20991329,17.9408783" id="Path" fill="#F0BF1A"></path>
            <path d="M41.9614434,22.9244867 L1.28787692,22.9244867 C0.454981818,25.7711441 4.47552448e-05,28.7791441 4.47552448e-05,31.8947804 C4.47552448e-05,35.0106406 0.454981818,38.0188643 1.28787692,40.8652979 L41.9614434,40.8652979 C46.8453594,40.8652979 50.9319608,36.8785007 50.9319608,31.8947804 C50.9319608,26.9112839 46.9451636,22.9244867 41.9614434,22.9244867" id="Path" fill="#07A5DE"></path>
            <path d="M57.2866238,51.1898853 C54.5086657,47.9247664 50.3757427,45.8487944 45.7489455,45.8487944 L3.20998042,45.8487944 C8.38637203,56.4698853 19.2847217,63.7896056 31.8947357,63.7896056 C42.2569175,63.7896056 51.4608336,58.8448224 57.2866238,51.1898853" id="Path" fill="#3EBEB0"></path>
            <path d="M1.28794406,22.9244867 C0.454825175,25.7711441 0.000111888112,28.7791441 0.000111888112,31.8947804 C0.000111888112,35.0106406 0.454825175,38.0188643 1.28794406,40.8652979 L27.9079161,40.8652979 C28.6056503,38.174165 29.0041958,35.1840671 29.0041958,31.8947804 C29.0041958,28.6057175 28.6056503,25.6156196 27.9079161,22.9244867 L1.28794406,22.9244867 Z" id="Path" fill="#231F20"></path>
            <path d="M15.8478098,4.28594126 C10.4653203,7.47542378 5.98017343,12.2595357 3.18946014,17.9409902 L26.7119217,17.9409902 C24.3197538,12.4589203 20.5323413,7.87419301 15.8478098,4.28594126" id="Path" fill="#D7A229"></path>
            <path d="M16.8445315,60.0021706 C21.4292587,56.3143385 25.1170909,51.4304224 27.4096783,45.848772 L3.18948252,45.848772 C6.17958042,51.8291916 10.9639161,56.8126881 16.8445315,60.0021706" id="Path" fill="#019B8F"></path>
        </g>
    </g>
</svg>