<?xml version="1.0" encoding="UTF-8"?>
<svg width="64px" height="64px" viewBox="0 0 64 64" version="1.1" xmlns="http://www.w3.org/2000/svg" xmlns:xlink="http://www.w3.org/1999/xlink">
    <!-- Generator: Sketch 63.1 (92452) - https://sketch.com -->
    <title>Icon</title>
    <desc>Created with Sketch.</desc>
    <g id="Icon" stroke="none" stroke-width="1" fill="none" fill-rule="evenodd">
        <g id="files-and-folders" transform="translate(0.000000, 3.000000)" fill="#000000" fill-rule="nonzero">
            <path d="M58.6132293,29.3163707 C56.6439024,29.3163707 54.944,30.3953171 54.0217756,31.9786146 L31.9687805,31.9786146 L31.9687805,37.3077854 L54.0216195,37.3077854 C54.9438439,38.8949854 56.6439024,39.9723707 58.6130732,39.9723707 C61.5517659,39.9723707 63.9374049,37.5890732 63.9374049,34.6432 C63.9374049,31.7051317 61.551922,29.3163707 58.6132293,29.3163707 Z" id="Path"></path>
            <path d="M58.6132293,8.00187317 C56.6439024,8.00187317 54.944,9.08394146 54.0217756,10.6664585 L31.9687805,10.6664585 L31.9687805,15.9964098 L54.0216195,15.9964098 C54.9438439,17.5836098 56.6439024,18.6609951 58.6130732,18.6609951 C61.5517659,18.6602146 63.9374049,16.2769171 63.9374049,13.3310439 C63.9374049,10.3900098 61.551922,8.00187317 58.6132293,8.00187317 Z" id="Path"></path>
            <path d="M26.6396098,5.33900488 L37.2979512,5.33900488 C37.2979512,2.39313171 34.9123122,0.00983414634 31.9687805,0.00983414634 L5.32682927,0.00983414634 C2.38563902,0.0106146341 0,2.39625366 0,5.33900488 L0,53.2929561 C0,56.2372683 2.38563902,58.6205659 5.32682927,58.6205659 L31.9687805,58.6205659 C34.9123122,58.6205659 37.2979512,56.2372683 37.2979512,53.2929561 L26.6396098,53.2929561 L26.6396098,5.33900488 Z M21.3127805,47.9645659 L5.32682927,47.9645659 L5.32682927,42.6369561 L21.3127805,42.6369561 L21.3127805,47.9645659 Z M21.3127805,37.3077854 L5.32682927,37.3077854 L5.32682927,31.9786146 L21.3127805,31.9786146 L21.3127805,37.3077854 Z M21.3127805,26.6517854 L5.32682927,26.6517854 L5.32682927,21.3233951 L21.3127805,21.3233951 L21.3127805,26.6517854 Z M21.3127805,15.9957854 L5.32682927,15.9957854 L5.32682927,10.665678 L21.3127805,10.665678 L21.3127805,15.9957854 Z" id="Shape"></path>
            <path d="M42.627122,39.9723707 C40.6577951,39.9723707 38.9602341,41.052878 38.0356683,42.6369561 L31.9687805,42.6369561 L31.9687805,47.9645659 L38.0356683,47.9645659 C38.9603902,49.5517659 40.6579512,50.6291512 42.627122,50.6291512 C45.5683122,50.6291512 47.9547317,48.2458537 47.9547317,45.2999805 C47.9547317,42.3603512 45.5683122,39.9723707 42.627122,39.9723707 Z" id="Path"></path>
            <path d="M47.9562927,18.6603707 C45.9869659,18.6603707 44.2870634,19.7400976 43.364839,21.3226146 L31.9687805,21.3226146 L31.9687805,26.6517854 L43.364839,26.6517854 C44.2870634,28.2389854 45.987122,29.3163707 47.9562927,29.3163707 C50.8957659,29.3163707 53.281561,26.9330732 53.281561,23.9872 C53.281561,21.0491317 50.895922,18.6603707 47.9562927,18.6603707 Z" id="Path"></path>
        </g>
    </g>
</svg>