<svg width="64" height="64" viewBox="0 0 64 64" xmlns="http://www.w3.org/2000/svg">
  <g fill="#000000" fill-rule="nonzero">
    <path d="M58.613 32.316c-1.97 0-3.669 1.08-4.591 2.663H31.969v5.329h22.053c.922 1.587 2.622 2.664 4.591 2.664a5.33 5.33 0 000-10.656zM58.613 11.002c-1.97 0-3.669 1.082-4.591 2.664H31.969v5.33h22.053c.922 1.588 2.622 2.665 4.591 2.665a5.327 5.327 0 005.324-5.33 5.33 5.33 0 00-5.324-5.33z"/>
    <path d="M26.64 8.339h10.658a5.327 5.327 0 00-5.33-5.33H5.328A5.33 5.33 0 000 8.34v47.954a5.326 5.326 0 005.327 5.328h26.642a5.327 5.327 0 005.329-5.328H26.64V8.339zm-5.327 42.626H5.327v-5.328h15.986v5.328zm0-10.657H5.327v-5.33h15.986v5.33zm0-10.656H5.327v-5.329h15.986v5.329zm0-10.656H5.327v-5.33h15.986v5.33z"/>
    <path d="M42.627 42.972c-1.97 0-3.667 1.08-4.591 2.665h-6.067v5.328h6.067c.924 1.587 2.622 2.664 4.591 2.664a5.327 5.327 0 005.328-5.329 5.33 5.33 0 00-5.328-5.328zM47.956 21.66c-1.969 0-3.669 1.08-4.591 2.663H31.969v5.329h11.396c.922 1.587 2.622 2.664 4.591 2.664a5.327 5.327 0 005.326-5.329 5.33 5.33 0 00-5.326-5.327z"/>
  </g>
</svg>