<?xml version="1.0" encoding="UTF-8"?>
<svg width="64px" height="64px" viewBox="0 0 64 64" version="1.1" xmlns="http://www.w3.org/2000/svg" xmlns:xlink="http://www.w3.org/1999/xlink">
    <!-- Generator: Sketch 63.1 (92452) - https://sketch.com -->
    <title>Icon</title>
    <desc>Created with Sketch.</desc>
    <g id="Icon" stroke="none" stroke-width="1" fill="none" fill-rule="evenodd">
        <g id="Cloud-Storage" transform="translate(0.000000, 3.000000)" fill-rule="nonzero">
            <path d="M63.235,26.06 L50.085,3.19 C49.0787803,1.40559698 47.2032176,0.287107232 45.155,0.25 L18.85,0.25 C16.8014944,0.286097392 14.9254681,1.40486361 13.92,3.19 L0.765,26 C-0.2526721,27.7708725 -0.2526721,29.9491275 0.765,31.72 L13.915,54.72 C14.910162,56.5297703 16.7811974,57.6854098 18.845,57.765 L45.15,57.765 C47.2136932,57.6941625 49.0880882,56.5433181 50.085,54.735 L63.235,31.865 C64.2597443,30.0656719 64.2597443,27.8593281 63.235,26.06 Z" id="Path" fill="#4285F4"></path>
            <path d="M42.745,22.275 L24.655,23.94 L21.155,27.44 L24.155,30.44 L21.18,35.65 L43.28,57.75 L45.15,57.75 C47.2136932,57.6791625 49.0880882,56.5283181 50.085,54.72 L59.25,38.78 L42.745,22.275 Z" id="Path" fill="#FFFFFF" opacity="0.0700000003"></path>
            <g id="art" transform="translate(21.000000, 22.000000)" fill="#FFFFFF">
                <g id="Group">
                    <path d="M21.35,0.135 L0.63,0.135 C0.465645283,0.129603595 0.306073505,0.190793173 0.187465016,0.304694975 C0.0688565273,0.418596778 0.00125932715,0.575561536 0,0.74 L0,5.025 C0,5.35913227 0.270867726,5.63 0.605,5.63 L21.35,5.63 C21.6829997,5.6272815 21.9522815,5.35799973 21.955,5.025 L21.955,0.74 C21.9522815,0.407000266 21.6829997,0.137718501 21.35,0.135 M18.145,4.135 C17.4601669,4.135 16.905,3.57983309 16.905,2.895 C16.905,2.21016691 17.4601669,1.655 18.145,1.655 C18.8298331,1.655 19.385,2.21016691 19.385,2.895 C19.385,3.57983309 18.8298331,4.135 18.145,4.135" id="Shape"></path>
                    <path d="M21.35,8.37 L0.63,8.37 C0.461250669,8.36437028 0.297715866,8.4289355 0.178325685,8.54832569 C0.0589355048,8.66771587 -0.00562972486,8.83125067 -6.38378239e-16,9 L-6.38378239e-16,13.285 C0.00271850068,13.6179997 0.272000266,13.8872815 0.605,13.89 L21.35,13.89 C21.6829997,13.8872815 21.9522815,13.6179997 21.955,13.285 L21.955,8.975 C21.9522815,8.64200027 21.6829997,8.3727185 21.35,8.37 M18.145,12.37 C17.4601669,12.37 16.905,11.8148331 16.905,11.13 C16.905,10.4451669 17.4601669,9.89 18.145,9.89 C18.8298331,9.89 19.385,10.4451669 19.385,11.13 C19.385,11.8148331 18.8298331,12.37 18.145,12.37" id="Shape"></path>
                </g>
            </g>
        </g>
    </g>
</svg>
