<?xml version="1.0" encoding="UTF-8"?>
<svg width="64px" height="64px" viewBox="0 0 64 64" version="1.1" xmlns="http://www.w3.org/2000/svg" xmlns:xlink="http://www.w3.org/1999/xlink">
    <!-- Generator: Sketch 63.1 (92452) - https://sketch.com -->
    <title>Icon</title>
    <desc>Created with Sketch.</desc>
    <g id="Icon" stroke="none" stroke-width="1" fill="none" fill-rule="evenodd">
        <g id="BigQuery" transform="translate(0.000000, 3.000000)" fill-rule="nonzero">
            <path d="M63.235,26.06 L50.085,3.19 C49.0787803,1.40559698 47.2032176,0.287107232 45.155,0.25 L18.85,0.25 C16.8014944,0.286097392 14.9254681,1.40486361 13.92,3.19 L0.765,26 C-0.2526721,27.7708725 -0.2526721,29.9491275 0.765,31.72 L13.915,54.72 C14.910162,56.5297703 16.7811974,57.6854098 18.845,57.765 L45.15,57.765 C47.2136932,57.6941625 49.0880882,56.5433181 50.085,54.735 L63.235,31.865 C64.2597443,30.0656719 64.2597443,27.8593281 63.235,26.06 Z" id="Path" fill="#4285F4"></path>
            <path d="M50.085,54.72 L58.85,39.475 L40.31,20.94 L32,18.715 L24.535,21.5 L21.65,29 L23.97,37.365 L44.355,57.75 L45.15,57.75 C47.2136932,57.6791625 49.0880882,56.5283181 50.085,54.72 L50.085,54.72 Z" id="Path" fill="#FFFFFF" opacity="0.0700000003"></path>
            <g id="art" transform="translate(20.000000, 17.000000)" fill="#FFFFFF">
                <g id="Group">
                    <path d="M12,0.4 C5.59690933,0.4 0.405921182,5.59024345 0.405001198,11.9933341 C0.404081214,18.3964247 5.5935777,23.588159 11.9966681,23.59 C18.3997585,23.5918401 23.5922389,18.4030901 23.5950011,12 C23.5963265,8.92394859 22.3752995,5.97343029 20.2006714,3.79786445 C18.0260433,1.62229861 15.0760517,0.4 12,0.4 M12,20.8 C8.44073225,20.8 5.23193291,18.6559488 3.86986011,15.3676142 C2.50778731,12.0792796 3.26067796,8.29424269 5.77746033,5.77746033 C8.29424269,3.26067796 12.0792796,2.50778731 15.3676142,3.86986011 C18.6559488,5.23193291 20.8,8.44073225 20.8,12 C20.8,16.8601058 16.8601058,20.8 12,20.8" id="Shape"></path>
                    <path d="M6.5,11.55 L6.5,15.155 C7.03299918,16.0716849 7.78557871,16.8414466 8.69,17.395 L8.69,11.55 L6.5,11.55 Z" id="Path"></path>
                    <path d="M10.835,8.5 L10.835,18.22 C11.558581,18.3569064 12.301419,18.3569064 13.025,18.22 L13.025,8.5 L10.835,8.5 Z" id="Path"></path>
                    <path d="M15.385,13.05 L15.385,17.33 C16.3006711,16.7514885 17.054266,15.9497185 17.575,15 L17.575,13.05 L15.385,13.05 Z" id="Path"></path>
                    <path d="M20.345,19.145 L19.145,20.35 C18.9359668,20.5621619 18.9359668,20.9028381 19.145,21.115 L23.7,25.67 C23.9127501,25.8823386 24.2572499,25.8823386 24.47,25.67 L25.67,24.47 C25.8790332,24.2578381 25.8790332,23.9171619 25.67,23.705 L21.11,19.145 C20.8978381,18.9359668 20.5571619,18.9359668 20.345,19.145" id="Path"></path>
                </g>
            </g>
        </g>
    </g>
</svg>
