<?xml version="1.0" encoding="UTF-8"?>
<svg width="64px" height="64px" viewBox="0 0 64 64" version="1.1" xmlns="http://www.w3.org/2000/svg" xmlns:xlink="http://www.w3.org/1999/xlink">
    <!-- Generator: Sketch 63.1 (92452) - https://sketch.com -->
    <title>Icon</title>
    <desc>Created with Sketch.</desc>
    <g id="Icon" stroke="none" stroke-width="1" fill="none" fill-rule="evenodd">
        <g id="http" transform="translate(0.000000, 4.000000)" fill="#000000" fill-rule="nonzero">
            <path d="M57.8064516,0 L6.19354839,0 C2.77845161,0 0,2.77845161 0,6.19354839 L0,49.5483871 C0,52.9634839 2.77845161,55.7419355 6.19354839,55.7419355 L57.8064516,55.7419355 C61.2215484,55.7419355 64,52.9634839 64,49.5483871 L64,6.19354839 C64,2.77845161 61.2215484,0 57.8064516,0 Z M59.8709677,49.5483871 C59.8709677,50.6868387 58.9447742,51.6129032 57.8064516,51.6129032 L6.19354839,51.6129032 C5.05522581,51.6129032 4.12903226,50.6868387 4.12903226,49.5483871 L4.12903226,16.516129 L55.7419355,16.516129 C56.8820645,16.516129 57.8064516,15.5917419 57.8064516,14.4516129 C57.8064516,13.3114839 56.8820645,12.3870968 55.7419355,12.3870968 L4.12903226,12.3870968 L4.12903226,6.19354839 C4.12903226,5.05509677 5.05522581,4.12903226 6.19354839,4.12903226 L57.8064516,4.12903226 C58.9447742,4.12903226 59.8709677,5.05509677 59.8709677,6.19354839 L59.8709677,49.5483871 Z M18.8387097,27.3748387 L18.8387097,38.9476129 C18.8387097,40.087871 17.9143226,41.0122581 16.7741935,41.0122581 C15.6340645,41.0122581 14.7096774,40.087871 14.7096774,38.9476129 L14.7096774,35.2258065 L12.9032258,35.2258065 L12.9032258,38.9477419 C12.9032258,40.088 11.9788387,41.0122581 10.8387097,41.0122581 C9.69858065,41.0122581 8.77419355,40.088 8.77419355,38.9477419 L8.77419355,27.3749677 C8.77419355,26.2347097 9.69858065,25.3103226 10.8387097,25.3103226 C11.9788387,25.3103226 12.9032258,26.2347097 12.9032258,27.3749677 L12.9032258,31.0967742 L14.7096774,31.0967742 L14.7096774,27.3748387 C14.7096774,26.2345806 15.6340645,25.3103226 16.7741935,25.3103226 C17.9143226,25.3103226 18.8387097,26.2347097 18.8387097,27.3748387 L18.8387097,27.3748387 Z M31.0967742,27.3548387 C31.0967742,28.4949677 30.1723871,29.4193548 29.0322581,29.4193548 L28,29.4193548 L28,38.9677419 C28,40.108 27.0756129,41.0322581 25.9354839,41.0322581 C24.7953548,41.0322581 23.8709677,40.108 23.8709677,38.9677419 L23.8709677,29.4193548 L22.8387097,29.4193548 C21.6985806,29.4193548 20.7741935,28.4949677 20.7741935,27.3548387 C20.7741935,26.2147097 21.6985806,25.2903226 22.8387097,25.2903226 L29.0322581,25.2903226 C30.1723871,25.2903226 31.0967742,26.2147097 31.0967742,27.3548387 Z M49.4855484,25.3103226 L47.1367742,25.3103226 C45.9966452,25.3103226 45.0722581,26.2345806 45.0722581,27.3748387 L45.0722581,38.9476129 C45.0722581,40.087871 45.9966452,41.012129 47.1367742,41.012129 C48.2769032,41.012129 49.2012903,40.087871 49.2012903,38.9476129 L49.2012903,36.9277419 C52.7907097,36.9277419 55.2501935,34.3449032 55.2501935,31.0750968 C55.2501935,27.8963871 52.6642581,25.3103226 49.4855484,25.3103226 L49.4855484,25.3103226 Z M49.4855484,32.7987097 L49.2012903,32.7987097 L49.2012903,29.4394839 L49.4855484,29.4394839 C50.3874839,29.4394839 51.1211613,30.1732903 51.1211613,31.0752258 C51.1211613,32.1636129 50.3171613,32.7987097 49.4855484,32.7987097 L49.4855484,32.7987097 Z M43.2258065,27.3548387 C43.2258065,28.4949677 42.3014194,29.4193548 41.1612903,29.4193548 L40.1290323,29.4193548 L40.1290323,38.9677419 C40.1290323,40.108 39.2046452,41.0322581 38.0645161,41.0322581 C36.9243871,41.0322581 36,40.108 36,38.9677419 L36,29.4193548 L34.9677419,29.4193548 C33.8276129,29.4193548 32.9032258,28.4949677 32.9032258,27.3548387 C32.9032258,26.2147097 33.8276129,25.2903226 34.9677419,25.2903226 L41.1612903,25.2903226 C42.3014194,25.2903226 43.2258065,26.2147097 43.2258065,27.3548387 Z M8.66193548,10.2825806 C7.58993548,10.4889032 6.48954839,9.85006452 6.23354839,8.66193548 C6.02541935,7.58064516 6.67380645,6.48851613 7.85419355,6.23354839 C8.94541935,6.024 10.0307097,6.68464516 10.2825806,7.85419355 C10.492,8.94232258 9.8356129,10.0290323 8.66193548,10.2825806 Z M14.8554839,10.2825806 C13.7723871,10.4910968 12.6809032,9.84012903 12.4270968,8.66193548 C12.2189677,7.58077419 12.8672258,6.48851613 14.0477419,6.23354839 C15.1389677,6.024 16.2242581,6.68464516 16.476129,7.85419355 C16.6855484,8.94206452 16.0292903,10.0290323 14.8554839,10.2825806 Z M21.0490323,10.2825806 C19.9652903,10.4912258 18.8743226,9.8396129 18.6206452,8.66193548 C18.4125161,7.58090323 19.0606452,6.48851613 20.2412903,6.23354839 C21.3310968,6.02425806 22.4174194,6.68309677 22.6696774,7.85419355 C22.8790968,8.94206452 22.2228387,10.0290323 21.0490323,10.2825806 Z" id="Shape"></path>
        </g>
    </g>
</svg>