<svg width="64" height="64" viewBox="0 0 64 64" xmlns="http://www.w3.org/2000/svg">
  <path d="M57.806 4H6.194A6.2 6.2 0 000 10.194v43.354a6.2 6.2 0 006.194 6.194h51.612A6.2 6.2 0 0064 53.548V10.194A6.2 6.2 0 0057.806 4zm2.065 49.548a2.067 2.067 0 01-2.065 2.065H6.194a2.067 2.067 0 01-2.065-2.065V20.516h51.613a2.065 2.065 0 000-4.129H4.129v-6.193c0-1.139.926-2.065 2.065-2.065h51.612c1.139 0 2.065.926 2.065 2.065v43.354zM18.839 31.375v11.573a2.065 2.065 0 11-4.13 0v-3.722h-1.806v3.722a2.065 2.065 0 01-4.129 0V31.375a2.065 2.065 0 114.13 0v3.722h1.806v-3.722a2.065 2.065 0 014.129 0zm12.258-.02c0 1.14-.925 2.064-2.065 2.064H28v9.549a2.065 2.065 0 01-4.129 0v-9.549h-1.032a2.065 2.065 0 010-4.129h6.193c1.14 0 2.065.925 2.065 2.065zm18.389-2.045h-2.35c-1.14 0-2.064.925-2.064 2.065v11.573a2.065 2.065 0 004.13 0v-2.02c3.589 0 6.048-2.583 6.048-5.853a5.771 5.771 0 00-5.764-5.765zm0 7.489H49.2v-3.36h.285c.901 0 1.635.734 1.635 1.636 0 1.089-.804 1.724-1.635 1.724zm-6.26-5.444c0 1.14-.925 2.064-2.065 2.064H40.13v9.549a2.065 2.065 0 01-4.129 0v-9.549h-1.032a2.065 2.065 0 010-4.129h6.193c1.14 0 2.065.925 2.065 2.065zM8.662 14.283a2.063 2.063 0 11-.808-4.05 2.063 2.063 0 11.808 4.05zm6.193 0a2.063 2.063 0 01-2.428-1.621 2.063 2.063 0 112.428 1.62zm6.194 0a2.063 2.063 0 01-2.428-1.621 2.063 2.063 0 112.428 1.62z" fill="#000000" fill-rule="nonzero"/>
</svg>