<svg width="64" height="64" viewBox="0 0 64 64" xmlns="http://www.w3.org/2000/svg">
  <path d="M42.956 35.312a8.285 8.285 0 00-6.233 2.832l-3.906-2.765c.415-1.142.653-2.367.653-3.65 0-1.261-.23-2.466-.63-3.59l3.896-2.737a8.286 8.286 0 006.22 2.817c4.582 0 8.31-3.728 8.31-8.31 0-4.584-3.728-8.312-8.31-8.312-4.583 0-8.311 3.728-8.311 8.311 0 .82.124 1.612.346 2.36l-3.9 2.738a10.728 10.728 0 00-6.646-3.863v-4.7c3.765-.79 6.601-4.135 6.601-8.132 0-4.583-3.729-8.311-8.31-8.311-4.583 0-8.312 3.728-8.312 8.311 0 3.943 2.763 7.247 6.452 8.094v4.761C15.841 22.05 12 26.444 12 31.729c0 5.31 3.88 9.72 8.95 10.574v5.027c-3.726.82-6.526 4.143-6.526 8.113 0 4.583 3.729 8.311 8.311 8.311s8.311-3.728 8.311-8.31c0-3.97-2.8-7.295-6.527-8.114v-5.027a10.732 10.732 0 006.535-3.8l3.931 2.782a8.27 8.27 0 00-.34 2.338c0 4.583 3.728 8.311 8.31 8.311 4.583 0 8.312-3.728 8.312-8.31 0-4.584-3.729-8.312-8.311-8.312zm0-19.433a4.034 4.034 0 014.03 4.03 4.034 4.034 0 01-4.03 4.029 4.034 4.034 0 01-4.03-4.03 4.034 4.034 0 014.03-4.03zM18.706 8.31a4.034 4.034 0 014.03-4.03 4.034 4.034 0 014.029 4.03 4.034 4.034 0 01-4.03 4.03 4.034 4.034 0 01-4.03-4.03zm8.059 47.132a4.034 4.034 0 01-4.03 4.03 4.034 4.034 0 01-4.03-4.03 4.034 4.034 0 014.03-4.03 4.034 4.034 0 014.03 4.03zm-4.03-18.095c-3.1 0-5.62-2.52-5.62-5.62 0-3.099 2.52-5.62 5.62-5.62a5.627 5.627 0 015.62 5.62 5.626 5.626 0 01-5.62 5.62zm20.22 10.305a4.034 4.034 0 01-4.029-4.03 4.034 4.034 0 014.03-4.03 4.034 4.034 0 014.03 4.03 4.034 4.034 0 01-4.03 4.03z" fill="#000000" fill-rule="nonzero"/>
</svg>