<?xml version="1.0" encoding="UTF-8"?>
<svg width="64px" height="64px" viewBox="0 0 64 64" version="1.1" xmlns="http://www.w3.org/2000/svg" xmlns:xlink="http://www.w3.org/1999/xlink">
    <!-- Generator: Sketch 63.1 (92452) - https://sketch.com -->
    <title>Icon</title>
    <desc>Created with Sketch.</desc>
    <g id="Icon" stroke="none" stroke-width="1" fill="none" fill-rule="evenodd">
        <g id="Apache_kafka" transform="translate(12.000000, 0.000000)" fill="#000000" fill-rule="nonzero">
            <path d="M30.9558406,35.3120159 C28.4731275,35.3120159 26.2473367,36.4119502 24.7231355,38.1436833 L20.8174562,35.378739 C21.2320598,34.2372371 21.4701155,33.0115259 21.4701155,31.7286016 C21.4701155,30.4679183 21.2403426,29.262761 20.8393904,28.1381315 L24.7363267,25.4024841 C26.2603745,27.1254741 28.4803367,28.2194263 30.9558406,28.2194263 C35.538261,28.2194263 39.2669323,24.4913685 39.2669323,19.9083347 C39.2669323,15.3253008 35.538261,11.597243 30.9558406,11.597243 C26.3734203,11.597243 22.644749,15.3253008 22.644749,19.9083347 C22.644749,20.7286454 22.7686853,21.5196594 22.9910956,22.2687988 L19.0915518,25.0058267 C17.4625876,22.9849602 15.1171554,21.5739582 12.4448566,21.143249 L12.4448566,16.443488 C16.2095737,15.6527809 19.0461494,12.3078825 19.0461494,8.31109163 C19.0461494,3.72805777 15.3174781,0 10.7350578,0 C6.15263745,0 2.42396614,3.72805777 2.42396614,8.31109163 C2.42396614,12.2543506 5.18706972,15.557988 8.8764741,16.4051414 L8.8764741,21.1659502 C3.84141036,22.0497629 0,26.4439781 0,31.7286016 C0,37.038994 3.8794502,41.4493147 8.95086653,42.3030637 L8.95086653,47.3301514 C5.22372908,48.1493884 2.42396614,51.4732729 2.42396614,55.4433745 C2.42396614,60.0264084 6.15263745,63.7544661 10.7350578,63.7544661 C15.3174781,63.7544661 19.0461494,60.0264084 19.0461494,55.4433745 C19.0461494,51.4732729 16.2463865,48.1493884 12.519249,47.3301514 L12.519249,42.3029104 C15.0861521,41.870537 17.4084054,40.5199233 19.053512,38.5026076 L22.9852669,41.285498 C22.766998,42.0278884 22.644749,42.8110797 22.644749,43.6231076 C22.644749,48.2061414 26.3734203,51.9341992 30.9558406,51.9341992 C35.538261,51.9341992 39.2669323,48.2061414 39.2669323,43.6231076 C39.2669323,39.0400737 35.538261,35.3120159 30.9558406,35.3120159 Z M30.9558406,15.8787191 C33.1779502,15.8787191 34.9853028,17.6868386 34.9853028,19.9083347 C34.9853028,22.1298307 33.1779502,23.9377968 30.9558406,23.9377968 C28.7337311,23.9377968 26.9263785,22.1298307 26.9263785,19.9083347 C26.9263785,17.6868386 28.7337311,15.8787191 30.9558406,15.8787191 L30.9558406,15.8787191 Z M6.70544223,8.31109163 C6.70544223,6.08959562 8.51294821,4.28162948 10.7350578,4.28162948 C12.9571673,4.28162948 14.7645199,6.08959562 14.7645199,8.31109163 C14.7645199,10.5325876 12.9571673,12.3405538 10.7350578,12.3405538 C8.51294821,12.3405538 6.70544223,10.5325876 6.70544223,8.31109163 Z M14.7645199,55.4433745 C14.7645199,57.6648705 12.9571673,59.4728367 10.7350578,59.4728367 C8.51294821,59.4728367 6.70544223,57.6648705 6.70544223,55.4433745 C6.70544223,53.2218785 8.51294821,51.4139124 10.7350578,51.4139124 C12.9571673,51.4139124 14.7645199,53.2218785 14.7645199,55.4433745 Z M10.734751,37.3483745 C7.63557769,37.3483745 5.11436454,34.8276215 5.11436454,31.7286016 C5.11436454,28.6294283 7.63557769,26.1082151 10.734751,26.1082151 C13.8337709,26.1082151 16.3549841,28.6294283 16.3549841,31.7286016 C16.3549841,34.8276215 13.8337709,37.3483745 10.734751,37.3483745 Z M30.9558406,47.6527231 C28.7337311,47.6527231 26.9263785,45.8446036 26.9263785,43.6231076 C26.9263785,41.4016116 28.7337311,39.5936454 30.9558406,39.5936454 C33.1779502,39.5936454 34.9853028,41.4016116 34.9853028,43.6231076 C34.9853028,45.8446036 33.1779502,47.6527231 30.9558406,47.6527231 Z" id="Shape"></path>
        </g>
    </g>
</svg>