<?xml version="1.0" encoding="UTF-8"?>
<svg width="64px" height="64px" viewBox="0 0 64 64" version="1.1" xmlns="http://www.w3.org/2000/svg" xmlns:xlink="http://www.w3.org/1999/xlink">
    <!-- Generator: Sketch 63.1 (92452) - https://sketch.com -->
    <title>Icon</title>
    <desc>Created with Sketch.</desc>
    <g id="Icon" stroke="none" stroke-width="1" fill="none" fill-rule="evenodd">
        <g id="logo" transform="translate(3.000000, 0.000000)" fill="#DB0A5B" fill-rule="nonzero">
            <path d="M20.0714336,10.0325366 C20.1099925,10.3926857 20.1513342,10.7524373 20.1954584,11.1117913 L36.4514584,11.5605863 C36.4570237,11.4719404 36.4629864,11.3832944 36.4685515,11.2946484 L36.4685515,11.2998161 C36.478092,11.1427975 36.4872347,10.9861764 36.4967752,10.8291578 C36.5055205,10.6709466 36.5138683,10.5127354 36.5222162,10.3549217 C36.5261914,10.2762137 36.5301664,10.1979031 36.5337442,10.119195 L30.7737442,6.79358013 C29.1979925,5.88406459 27.2569242,5.88406459 25.6811726,6.79358013 L20.0714336,10.0325366 Z M21.2063403,17.1373317 L35.8504149,17.6139528 C35.8607502,17.5400149 35.8710858,17.4656795 35.8814211,17.3917416 L35.8802286,17.3977043 L35.9048746,17.2148472 C35.9203776,17.0963875 35.9354832,16.977928 35.9501914,16.8598658 C35.9617192,16.7680397 35.9728498,16.6762136 35.9835826,16.5843875 C35.996303,16.492164 36.0082286,16.3995429 36.0201541,16.3073192 C36.0364522,16.1805118 36.0523528,16.0537043 36.0682534,15.9268969 C36.0682534,15.9249093 36.0670608,15.9344497 36.0674584,15.9324621 C36.0829614,15.802872 36.0984646,15.6728845 36.1135702,15.5432944 C36.1135702,15.5413068 36.1123776,15.5508472 36.1127752,15.5488596 C36.1576944,15.1493565 36.2002286,14.7494559 36.2379925,14.3491578 C36.2773466,13.9309714 36.312328,13.5123876 36.3437317,13.0934062 L20.5329491,13.5298783 C20.7221664,14.7363379 20.9439802,15.9380273 21.2051478,17.1309714 L21.2063403,17.1373317 Z M22.9613714,23.1044373 L34.8148869,23.5484621 C34.8967752,23.1994435 34.9679304,22.8484373 35.0327254,22.495841 C35.0438558,22.4342261 35.0450485,22.4346237 35.058564,22.3698286 C35.0764522,22.2839653 35.0935453,22.1981019 35.111036,22.1122386 C35.1631106,21.8443131 35.2116075,21.5759901 35.2565267,21.3064746 C35.2640795,21.2607603 35.2736198,21.2150459 35.2823653,21.1693317 C35.2911106,21.1220274 35.2994584,21.074723 35.3082037,21.0274186 C35.3423901,20.8358162 35.3757814,20.6442136 35.4067875,20.4518162 C35.4282534,20.3194435 35.4481291,20.1866733 35.4684026,20.0543006 C35.4898683,19.9362386 35.5105392,19.8181763 35.5312099,19.7001142 C35.5622162,19.514077 35.5928248,19.3276422 35.6218435,19.1412075 L21.8081789,19.5907974 C21.9441291,20.0872944 22.0892224,20.5810086 22.2446509,21.0719403 C22.461297,21.7564621 22.6982162,22.4358162 22.9613714,23.1044373 Z M30.3984894,30.3368347 C30.4052472,30.3352448 30.4124026,30.3340522 30.4191603,30.3324621 C30.7149118,30.2672696 30.9963528,30.1452323 31.2567254,29.9925864 C31.4693963,29.8677664 31.667359,29.7210832 31.8537938,29.5600894 C32.0736198,29.3704746 32.2759552,29.1617789 32.460005,28.9367851 C32.5077069,28.8783502 32.5542162,28.8191205 32.599533,28.7586981 C32.6277565,28.7213317 32.6543901,28.6831702 32.6822162,28.6458037 C32.7255453,28.5869714 32.7688746,28.5285366 32.8110112,28.4689093 C32.9493466,28.2713442 33.0757565,28.0662261 33.1938186,27.8563379 C33.2053466,27.8360646 33.218067,27.8165864 33.2299925,27.7967106 C33.2423155,27.7768347 33.254241,27.7565614 33.266564,27.7362882 C33.4208,27.4751205 33.5631106,27.2075925 33.6919056,26.9333069 C33.7745888,26.757605 33.8509118,26.5791205 33.9244522,26.399841 C33.959036,26.3159653 33.9944149,26.2328845 34.0278062,26.1490086 C34.0846509,26.005903 34.1387131,25.8620026 34.1903901,25.7169093 C34.268303,25.4978782 34.3398558,25.2768597 34.4066386,25.0542509 L24.0326758,25.4426237 C24.1908869,25.7379776 24.3578435,26.028164 24.5347379,26.3127851 C24.8599056,26.8359155 25.2188621,27.3399653 25.6247254,27.8038658 C26.1844274,28.4434683 26.8427131,29.0174808 27.6162782,29.3820026 C27.8349118,29.4853565 28.0618931,29.5708224 28.2944397,29.6364125 C28.3675826,29.6566858 28.4415205,29.675369 28.5158558,29.6920646 C28.5862162,29.7075677 28.6569739,29.7218782 28.7273342,29.7373814 C28.7949118,29.7528845 28.7949118,29.7528845 28.8624894,29.7691826 C28.9972472,29.8029714 29.1308125,29.8391453 29.2635826,29.8800894 C29.5259429,29.9607851 29.783533,30.0565864 30.0351603,30.1666981 C30.1579925,30.2199653 30.2788373,30.2768099 30.3984894,30.3368347 Z M20.8720298,43.9278907 L34.455533,43.4437168 C34.3168,42.9404621 34.1697192,42.4387974 34.0130981,41.9403131 C33.7702162,41.1687354 33.5046758,40.402723 33.2065392,39.6502261 L21.7402037,39.1525366 C21.719533,39.2352198 21.7000547,39.317903 21.6805763,39.4005864 C21.5887502,39.7965118 21.5100422,40.1948224 21.440477,40.594723 C21.4202037,40.6925118 21.401123,40.7903006 21.3820422,40.8888845 C21.325595,41.1822509 21.273123,41.4772075 21.2266136,41.772959 C21.2130981,41.8457043 21.1999802,41.9188472 21.1868621,41.9919901 C21.1614211,42.1374808 21.1359802,42.2829714 21.1125267,42.4292571 C21.080328,42.6264248 21.0505142,42.8239901 21.0210981,43.0215552 C21.0020174,43.1288845 20.9837317,43.2362136 20.9654459,43.3435429 C20.9328498,43.5383254 20.9018435,43.7327106 20.8720298,43.9278907 Z M20.146564,49.9685366 L35.7669366,49.4895304 C35.5793093,48.375692 35.3666386,47.2658286 35.1241541,46.161928 C35.1058683,46.0784498 35.0871851,45.9949714 35.0685019,45.9114931 L20.6545888,45.397903 C20.6029118,45.7667974 20.5548125,46.1360894 20.5110858,46.5057789 C20.4971726,46.609133 20.4836571,46.7128845 20.4701416,46.816636 C20.3369739,47.8640894 20.2292472,48.9155181 20.146564,49.9685366 Z M16.5192347,51.5287851 C16.5466634,51.1912944 16.5760795,50.8526112 16.6078808,50.5151205 C16.615831,50.4300522 16.625769,50.3449838 16.6349118,50.2595181 C16.6436571,50.181605 16.6524026,50.1024994 16.6611478,50.0237914 C16.6949366,49.7177043 16.7311106,49.4116174 16.7688746,49.105928 C16.8579181,48.3832448 16.9576944,47.6621515 17.0697938,46.9418534 C17.112328,46.6707478 17.1568498,46.3996422 17.2021664,46.1285366 L17.2240298,46.0009342 C17.3512347,45.3195925 17.4903653,44.6402386 17.6442037,43.9644621 C17.6664646,43.8746237 17.689123,43.7843875 17.7117814,43.6941515 C17.7853218,43.4083379 17.8596571,43.1237168 17.9379677,42.8386981 C17.9681789,42.7281888 17.9983901,42.6200646 18.0297938,42.5095552 C18.0464894,42.4503254 18.061595,42.3906981 18.0802782,42.3322634 C18.2106634,41.9244125 18.3478062,41.5189466 18.4901168,41.1142758 L18.5191354,41.0335802 C18.6697938,40.6396422 18.8276075,40.2480894 18.9917814,39.8593192 L19.0072845,39.8235429 C19.2116075,39.3807106 19.4234832,38.9410584 19.6476819,38.507369 C19.7808498,38.2489838 19.9187875,37.9933814 20.059508,37.739369 L20.093297,37.6793442 C20.3322037,37.280636 20.582241,36.8882882 20.8453963,36.5046858 C20.941595,36.3651578 21.0393838,36.2256298 21.1395578,36.0880894 C21.1797069,36.0324373 21.2202534,35.9755925 21.2623901,35.921133 C21.6288994,35.4449093 22.0188621,34.9857789 22.4430112,34.5600397 C22.4624894,34.5397664 22.4839552,34.5218782 22.5042286,34.503195 C22.5229118,34.4864994 22.541595,34.4694062 22.5602782,34.4523131 C22.6509118,34.3708224 22.7427379,34.2909218 22.835359,34.2126112 C22.9685267,34.0997168 23.1036819,33.989605 23.2428125,33.8846608 C23.2813714,33.8556422 23.321123,33.8282136 23.360477,33.8007851 C23.4109614,33.7658037 23.4618435,33.7304248 23.5127254,33.695841 C23.6840547,33.5805614 23.859359,33.4704498 24.0386386,33.3686858 C24.1535205,33.3030957 24.2699925,33.2386981 24.3888498,33.1810584 C24.5327502,33.1114931 24.6786386,33.0463006 24.8269118,32.9882634 C25.0312347,32.9075677 25.2399304,32.8395925 25.4533963,32.7883131 C25.6008746,32.7521392 25.7503403,32.7247106 25.9013963,32.7092075 C25.9956075,32.699667 26.0910112,32.6941019 26.1856198,32.6992696 L26.1911851,32.699667 L26.2126509,32.7235181 L26.189595,32.7445864 C26.1744894,32.7445864 26.1593838,32.7457789 26.1434832,32.7469714 C26.1379181,32.7469714 26.1220174,32.748164 26.1271851,32.748164 C26.1053218,32.7501515 26.0850485,32.7525366 26.0635826,32.7557168 C25.766241,32.7974558 25.4804274,32.9051826 25.216477,33.045108 C24.987508,33.1667478 24.7752347,33.3158162 24.577272,33.4819776 C24.4965763,33.5503502 24.4178683,33.6199155 24.3419429,33.6930584 C24.193272,33.836164 24.0549366,33.989605 23.9261416,34.1505987 C23.8792347,34.209431 23.833123,34.2694558 23.7886013,34.3306733 C23.7738931,34.3505491 23.7599802,34.3708224 23.745272,34.3906981 C23.6888248,34.4674186 23.6327752,34.5437416 23.5791106,34.6224498 C23.4558808,34.8033192 23.3429864,34.9913442 23.2372472,35.1825491 C23.2261168,35.2028224 23.2133963,35.2223006 23.2014709,35.2417789 C23.1895453,35.2620522 23.1776198,35.2823254 23.1656944,35.3025987 C23.053595,35.4961888 22.9474584,35.6925614 22.849272,35.8937043 C22.7292224,36.139369 22.6210981,36.3905987 22.5201291,36.6450086 C22.4970733,36.7030459 22.4728248,36.7602882 22.4501664,36.818723 C22.3937192,36.961431 22.3400547,37.1057291 22.2891726,37.2504248 C22.2390858,37.393928 22.1909864,37.537431 22.1456696,37.6821267 L32.103036,37.2500274 C31.8510112,36.7825491 31.5783155,36.3258037 31.2769987,35.8881392 C30.9911851,35.4727354 30.6791354,35.0732323 30.3325019,34.7063254 C29.8566758,34.2034683 29.3077069,33.7530832 28.6748621,33.4632944 C28.493595,33.3802136 28.3059677,33.3110459 28.1139677,33.2577789 C27.9903403,33.2235925 27.8647254,33.1989466 27.7391106,33.1715181 C27.6703403,33.1556174 27.6703403,33.1556174 27.6019677,33.1393192 C27.4429614,33.0999653 27.2847502,33.057431 27.1281291,33.0085366 C26.841123,32.9194931 26.5588869,32.8137541 26.2838062,32.6921142 C26.011508,32.5724621 25.7459677,32.4373069 25.4883776,32.288636 C25.2912099,32.1749466 25.0988125,32.0537043 24.9111851,31.9253069 C23.7218186,31.1104 22.7407502,30.023195 21.927831,28.8397914 C21.8089739,28.6664746 21.6936944,28.4907726 21.5811974,28.3134808 C21.4174211,28.0543006 21.2604026,27.7911453 21.1097442,27.5244125 C20.9101914,27.1714186 20.7213714,26.8120646 20.5416944,26.4479403 C20.3167006,25.9919901 20.1068125,25.5284869 19.9092472,25.0598162 C19.6421168,24.4257789 19.3980422,23.7825987 19.1726509,23.1330584 C18.8808746,22.293108 18.6205019,21.4424248 18.3843776,20.5853814 C18.0759056,19.4651826 17.8091726,18.3338534 17.574241,17.196164 C17.2800795,15.7698783 17.0352099,14.3332571 16.8336696,12.8910708 C16.7911354,12.5853814 16.7501914,12.2788969 16.7108373,11.9728099 L7.83908571,17.0947974 C6.26333416,18.0043131 5.29299875,19.6858037 5.29299875,21.5052323 L5.29299875,42.1072696 C5.29299875,43.9266981 6.26333416,45.6077914 7.83908571,46.5177043 L16.5192347,51.5287851 Z M39.6995578,51.6655304 L48.615831,46.5181019 C50.1915826,45.6081888 51.1619181,43.9266981 51.1619181,42.1072696 L51.1619181,21.5052323 C51.1619181,19.6858037 50.1915826,18.0043131 48.615831,17.0947974 L39.9213714,12.0749714 C39.9098435,12.2133068 39.8983155,12.3512447 39.8859925,12.4891826 L39.8788373,12.5706733 C39.7246013,14.0836174 39.5286261,15.5921888 39.270241,17.0908224 C39.2523528,17.1874186 39.2336696,17.2840149 39.2153838,17.3806112 C39.1311106,17.813108 39.0432597,18.2452075 38.9490485,18.6757168 C38.9160547,18.8251826 38.8838558,18.9750459 38.8480795,19.1241142 C38.8373466,19.1690336 38.784477,19.3753442 38.7836819,19.3781267 C38.7479056,19.5180522 38.7316075,19.5804621 38.6946386,19.7195925 C38.6075826,20.049133 38.5161541,20.3770832 38.4215453,20.704636 L38.4068373,20.754723 C38.2649242,21.189605 38.1174459,21.6221019 37.9612224,22.0518162 C37.9429366,22.1023006 37.9222658,22.1519901 37.9023901,22.202077 C37.8487254,22.3372323 37.8443528,22.3483627 37.7902907,22.4823254 C37.6849491,22.7430957 37.5772224,23.0026733 37.4647254,23.2606608 C37.4424646,23.3115429 37.4170237,23.3612323 37.3931726,23.4113192 C37.373297,23.4534558 37.3530237,23.4955925 37.3331478,23.5373317 C37.2548373,23.7003131 37.1749366,23.8624994 37.094241,24.0242882 C36.9404026,24.3307726 36.7817938,24.6344746 36.6176198,24.9353938 C36.5405019,25.0765118 36.4613963,25.2164373 36.3818931,25.3559653 L36.3608248,25.3925366 C36.1155578,25.7908472 35.8607502,26.1827974 35.5920298,26.565605 C35.495036,26.7039403 35.3964522,26.8406858 35.2958808,26.975841 C35.2561291,27.0295056 35.2159802,27.0847603 35.1746386,27.1372323 C34.803359,27.6074931 34.4106136,28.0618534 33.9840795,28.4836174 C33.9642037,28.5034931 33.9423403,28.5217789 33.921272,28.5404621 C33.8656198,28.5905491 33.8095702,28.6402386 33.7527254,28.6895304 C33.5782162,28.8409838 33.3989366,28.986872 33.2160795,29.1279901 C33.1898435,29.1478658 33.190241,29.1478658 33.164005,29.1669466 C32.8137938,29.4165864 32.4508621,29.6479403 32.0692472,29.8466981 C31.9746386,29.8959901 31.8776448,29.9417043 31.7806509,29.9858286 C31.6244274,30.0565864 31.4658186,30.1213814 31.3044274,30.1786237 C31.1171974,30.2450086 30.9263901,30.3010584 30.7324026,30.3424 C30.6528994,30.3594931 30.5729987,30.3738037 30.492303,30.3845366 C30.5638558,30.4215056 30.6346136,30.459667 30.7049739,30.4990211 C30.8627875,30.586872 31.0174211,30.6802882 31.1688746,30.7784746 C32.3534709,31.5464746 33.3273838,32.6022758 34.1343403,33.7526858 C34.2687006,33.9438907 34.3982907,34.1386733 34.524303,34.3354435 C34.690067,34.5950211 34.8486758,34.8589714 35.0009242,35.1257043 C35.2040547,35.4810832 35.3956571,35.8428224 35.5777192,36.2093317 C35.8074832,36.6708472 36.0217442,37.1395181 36.2236819,37.6137541 C36.4983653,38.2585242 36.749595,38.9132323 36.9825392,39.573903 C37.3025392,40.4822261 37.5875578,41.4032696 37.8463403,42.3306733 C38.1818435,43.5339528 38.4724274,44.7495552 38.7300174,45.9715181 C39.0496198,47.4908224 39.3171478,49.0212571 39.5437317,50.5564621 C39.5981914,50.9261515 39.6498683,51.2954435 39.6995578,51.6655304 Z M19.9152099,53.4897291 L25.6811726,56.8185242 C27.2569242,57.7284373 29.1979925,57.7284373 30.7737442,56.8185242 L36.3488994,53.599841 C36.2848994,53.0480894 36.2153342,52.497133 36.1402037,51.9469714 L20.0372472,51.4540522 C19.9891478,52.1318162 19.9482037,52.8103752 19.9152099,53.4897291 Z M39.3779677,5.64992795 L53.9083528,14.0390956 C55.4841043,14.9486112 56.4548373,16.6301019 56.4548373,18.4495304 L56.4548373,45.1629714 C56.4548373,46.9827974 55.4841043,48.6634931 53.9083528,49.5734062 C48.5446758,52.6700522 36.1374211,59.8332819 30.7737442,62.929928 C29.1979925,63.839841 27.2569242,63.839841 25.6811726,62.929928 C20.3174957,59.8332819 7.91024099,52.6700522 2.54656397,49.5734062 C0.970812422,48.6634931 7.95031056e-05,46.9827974 7.95031056e-05,45.1629714 L7.95031056e-05,18.4495304 C7.95031056e-05,16.6301019 0.970812422,14.9486112 2.54656397,14.0390956 C7.91024099,10.9424497 20.3174957,3.77921987 25.6811726,0.682176397 C27.2569242,-0.227339131 29.1979925,-0.227339131 30.7737442,0.682176397 L39.0512099,5.46150558 L39.1454211,5.48297142 C39.2364522,5.54776646 39.3127752,5.60182858 39.3779677,5.64992795 Z" id="Shape"></path>
        </g>
    </g>
</svg>