<?xml version="1.0" encoding="UTF-8"?>
<svg width="64px" height="64px" viewBox="0 0 64 64" version="1.1" xmlns="http://www.w3.org/2000/svg" xmlns:xlink="http://www.w3.org/1999/xlink">
    <!-- Generator: Sketch 63.1 (92452) - https://sketch.com -->
    <title>Icon</title>
    <desc>Created with Sketch.</desc>
    <g id="Icon" stroke="none" stroke-width="1" fill="none" fill-rule="evenodd">
        <g id="NR_logo_Horizontal" transform="translate(0.000000, 6.000000)" fill-rule="nonzero">
            <path d="M63.1940741,19.1348148 C60.2251852,5.48148148 43.8518519,-2.54814815 26.6251852,1.18518519 C9.39851852,4.91851852 -2.16296296,19.0459259 0.805925926,32.6992593 C3.77481481,46.3525926 20.1481481,54.3822222 37.3748148,50.637037 C54.6014815,46.8918519 66.162963,32.7881481 63.1940741,19.1348148 M30.8444444,42.962964 C23.8020682,42.96536 17.4517969,38.7249795 14.7551351,32.21936 C12.0584733,25.7137406 13.5465676,18.2242581 18.5254323,13.2436983 C23.5042969,8.26313848 30.9932723,6.77249465 37.4998094,9.46694159 C44.0063465,12.1613885 48.2488889,18.5102159 48.2488889,25.5525926 C48.2488889,35.1657609 40.4576122,42.959691 30.8444444,42.962964" id="Shape" fill="#008996"></path>
            <path d="M35.1822222,3.98220959 C22.8780475,3.99203982 12.910889,13.9733457 12.9185192,26.2775219 C12.9261581,38.5816982 22.9056955,48.5506274 35.2098729,48.5451781 C47.5140503,48.5397244 57.48475,38.561956 57.4814823,26.2577778 C57.4814823,20.3458239 55.1313491,14.676354 50.948744,10.4981949 C46.7661389,6.32003587 41.0941728,3.97593124 35.1822222,3.98220959 M30.8444444,42.6666923 C21.3883889,42.6503044 13.7350839,34.9731292 13.7481519,25.5170685 C13.7612534,16.0610078 21.4357756,8.40504236 30.8918402,8.41484025 C40.3479048,8.42465697 48.0065298,16.0965251 48.0000042,25.5525926 C47.9968614,30.0977549 46.1870731,34.4552509 42.9692693,37.6652742 C39.7514656,40.8752974 35.389601,42.6745314 30.8444444,42.6666923" id="Shape" fill="#1DCAD3"></path>
            <path d="M24.717037,23.8459259 L22.8385185,19.9111111 C22.4392948,19.1029065 22.0832387,18.274087 21.7718519,17.4281481 L21.7362963,17.4637037 C21.7955556,18.162963 21.8074074,19.0518519 21.8192593,19.7866667 L21.8666667,23.8459259 L20.4977778,23.8459259 L20.4977778,15.4666667 L22.0740741,15.4666667 L24.1066667,19.5555556 C24.4494579,20.2508116 24.736772,20.9720689 24.9659259,21.7125926 L25.0074074,21.677037 C24.9659259,21.2503704 24.882963,20.0533333 24.882963,19.3066667 L24.882963,15.4844444 L26.2044444,15.4844444 L26.2044444,23.8459259 L24.717037,23.8459259 Z" id="Path" fill="#000000"></path>
            <path d="M28.6755556,21.1437037 L28.6755556,21.2385185 C28.6755556,22.0859259 28.9896296,22.9866667 30.1866667,22.9866667 C30.7525512,22.9877148 31.2981974,22.776224 31.7155556,22.3940741 L32.2311111,23.2059259 C31.6222513,23.7363607 30.8400678,24.0251993 30.0325926,24.0177778 C28.2962963,24.0177778 27.2059259,22.7733333 27.2059259,20.8118519 C27.1268495,19.9288478 27.4018341,19.0506025 27.9703704,18.3703704 C28.4359539,17.8207247 29.1291781,17.5167558 29.8488889,17.5466667 C30.4713892,17.5287391 31.0759394,17.7565098 31.5318519,18.1807407 C32.0651852,18.6607407 32.3318519,19.4133333 32.3318519,20.8414815 L32.3318519,21.12 L28.6755556,21.1437037 Z M29.8607407,18.5777778 C29.1081481,18.5777778 28.6755556,19.1703704 28.6755556,20.1659259 L30.9392593,20.1659259 C30.9392593,19.1703704 30.5007407,18.5777778 29.837037,18.5777778" id="Shape" fill="#000000"></path>
            <path d="M39.4133333,23.8696296 L38.1688889,23.8696296 L37.4162963,21.0488889 C37.2207407,20.32 37.0133333,19.3777778 37.0133333,19.3777778 L37.0133333,19.3777778 C37.0133333,19.3777778 36.9185185,19.9703704 36.6162963,21.1081481 L35.8518519,23.8696296 L34.6074074,23.8696296 L32.9362963,17.7777778 L34.2577778,17.5940741 L34.9214815,20.557037 C35.0933333,21.3214815 35.2355556,22.1688889 35.2355556,22.1688889 L35.2711111,22.1688889 C35.2711111,22.1688889 35.3955556,21.3688889 35.6207407,20.5214815 L36.4088889,17.6888889 L37.7185185,17.6888889 L38.4059259,20.4503704 C38.6607407,21.44 38.797037,22.1925926 38.797037,22.1925926 L38.8325926,22.1925926 C38.8325926,22.1925926 38.9807407,21.2622222 39.1348148,20.5451852 L39.762963,17.7185185 L41.1437037,17.7185185 L39.4133333,23.8696296 Z" id="Path" fill="#000000"></path>
            <path d="M23.6622222,34.6311111 L22.9333333,33.3333333 C22.5564098,32.5805162 22.0756693,31.8843401 21.5051852,31.2651852 C21.371171,31.1023922 21.1708525,31.0087651 20.96,31.0103704 L20.96,34.6311111 L19.5911111,34.6311111 L19.5911111,26.2518519 L22.1511111,26.2518519 C24.0237037,26.2518519 24.8711111,27.3422222 24.8711111,28.6222222 C24.9168297,29.2075805 24.719951,29.7860004 24.3266175,30.221917 C23.933284,30.6578336 23.3780734,30.9129258 22.7911111,30.9274074 C23.3147462,31.4073663 23.7535153,31.9723566 24.0888889,32.5985185 L25.3214815,34.6074074 L23.6622222,34.6311111 Z M21.7244444,27.3777778 L20.96,27.3777778 L20.96,30.0266667 L21.677037,30.0266667 C22.1618019,30.0992971 22.6553642,29.9732358 23.0459259,29.677037 C23.3013668,29.4006964 23.4357783,29.0337316 23.4192593,28.6577778 C23.4192593,27.8103704 22.962963,27.3777778 21.7244444,27.3777778" id="Shape" fill="#000000"></path>
            <path d="M27.1466667,31.9288889 L27.1466667,32 C27.1466667,32.8474074 27.4666667,33.7777778 28.6637037,33.7777778 C29.2275438,33.7773431 29.7708162,33.5659531 30.1866667,33.1851852 L30.7081481,33.9911111 C30.094889,34.5160015 29.3108103,34.7984384 28.5037037,34.7851852 C26.7733333,34.7851852 25.682963,33.5407407 25.682963,31.5792593 C25.6228703,30.7201564 25.8967185,29.8710147 26.4474074,29.2088889 C26.9129909,28.6592432 27.6062151,28.3552743 28.3259259,28.3851852 C28.9484263,28.3672576 29.5529764,28.5950283 30.0088889,29.0192593 C30.5422222,29.4992593 30.8088889,30.2518519 30.8088889,31.68 L30.8088889,31.9585185 L27.1466667,31.9288889 Z M28.3318519,29.362963 C27.5792593,29.362963 27.1466667,29.9555556 27.1466667,30.9511111 L29.4103704,30.9511111 C29.4103704,29.9555556 28.9718519,29.362963 28.3081481,29.362963" id="Shape" fill="#000000"></path>
            <path d="M33.2977778,34.7614815 C31.9585185,34.7614815 31.9585185,33.5762963 31.9585185,33.0311111 L31.9585185,27.8103704 C31.9699184,27.2152579 31.9282723,26.6203132 31.8340741,26.0325926 L33.1851852,25.7185185 C33.2834789,26.2737624 33.3192576,26.8382707 33.2918519,27.4014815 L33.2918519,32.5925926 C33.2918519,33.4103704 33.3333333,33.5466667 33.4281481,33.6888889 C33.5353945,33.8166747 33.7144037,33.8577985 33.8666667,33.7896296 L34.08,34.6133333 C33.825028,34.7119872 33.5533513,34.7602853 33.28,34.7555556" id="Path" fill="#000000"></path>
            <path d="M35.6148148,27.597037 C35.3827303,27.5939279 35.1614832,27.4983266 35.0001649,27.3314456 C34.8388465,27.1645645 34.7507979,26.9402047 34.7555556,26.7081481 C34.7555556,26.2172284 35.1535247,25.8192593 35.6444444,25.8192593 C36.1353642,25.8192593 36.5333333,26.2172284 36.5333333,26.7081481 C36.5300758,27.2000249 36.1304061,27.597037 35.6385185,27.597037 M34.962963,34.6311111 L34.962963,28.5985185 L36.3081481,28.3555556 L36.3081481,34.6311111 L34.962963,34.6311111 Z" id="Shape" fill="#000000"></path>
            <path d="M40.1066667,34.7851852 C38.4355556,34.7851852 37.4992593,33.6 37.4992593,31.6385185 C37.4992593,29.4103704 38.8325926,28.3437037 40.2014815,28.3437037 C40.8395348,28.3220391 41.4563737,28.5743823 41.8962963,29.037037 L41.2325926,29.92 C40.9624397,29.6355402 40.593278,29.4658107 40.2014815,29.4459259 C39.790505,29.4345218 39.4115979,29.6669801 39.2355556,30.0385185 C39.0319224,30.5832558 38.945106,31.1647239 38.9807407,31.7451852 C38.9119347,32.3332504 39.0570759,32.9264362 39.3896296,33.4162963 C39.596798,33.6456694 39.8924185,33.7751382 40.2014815,33.7718519 C40.6770187,33.748142 41.1231721,33.5346715 41.44,33.1792593 L42.0740741,33.9733333 C41.5690053,34.5157217 40.8532423,34.811974 40.1125926,34.7851852" id="Path" fill="#000000"></path>
        </g>
    </g>
</svg>