<svg width="64" height="64" viewBox="0 0 64 64" xmlns="http://www.w3.org/2000/svg">
  <g fill-rule="nonzero" fill="none">
    <path d="M63.194 25.135C60.225 11.48 43.852 3.452 26.625 7.185 9.4 10.92-2.163 25.045.805 38.7c2.97 13.654 19.343 21.683 36.57 17.938 17.226-3.745 28.788-17.849 25.82-31.502m-32.35 23.828a17.41 17.41 0 1117.404-17.41c0 9.613-7.791 17.407-17.405 17.41" fill="#008996"/>
    <path d="M35.182 9.982c-12.304.01-22.271 9.991-22.263 22.296.007 12.304 9.987 22.273 22.29 22.267 12.305-.005 22.276-9.983 22.272-22.287A22.276 22.276 0 0035.182 9.982m-4.338 38.685c-9.456-.017-17.109-7.694-17.096-17.15.013-9.456 7.688-17.112 17.144-17.102 9.456.01 17.115 7.682 17.108 17.138a17.126 17.126 0 01-17.156 17.114" fill="#1DCAD3"/>
    <path d="M24.717 29.846l-1.878-3.935c-.4-.808-.756-1.637-1.067-2.483l-.036.036c.06.699.071 1.588.083 2.323l.048 4.059h-1.37v-8.38h1.577l2.033 4.09c.342.695.63 1.416.859 2.157l.041-.036a31.955 31.955 0 01-.124-2.37v-3.823h1.321v8.362h-1.487zM28.676 27.144v.095c0 .847.314 1.748 1.51 1.748a2.258 2.258 0 001.53-.593l.515.812a3.3 3.3 0 01-2.198.812c-1.737 0-2.827-1.245-2.827-3.206a3.342 3.342 0 01.764-2.442 2.335 2.335 0 011.879-.823 2.37 2.37 0 011.683.634c.533.48.8 1.232.8 2.66v.279l-3.656.024zm1.185-2.566c-.753 0-1.185.592-1.185 1.588h2.263c0-.996-.438-1.588-1.102-1.588M39.413 29.87H38.17l-.753-2.821c-.195-.729-.403-1.671-.403-1.671s-.094.592-.397 1.73l-.764 2.762h-1.245l-1.67-6.092 1.32-.184.664 2.963c.172.764.315 1.612.315 1.612h.035s.125-.8.35-1.648l.788-2.832h1.31l.687 2.761c.255.99.391 1.743.391 1.743h.036s.148-.93.302-1.648l.628-2.826h1.38l-1.73 6.15zM23.662 40.631l-.729-1.298a8.996 8.996 0 00-1.428-2.068.7.7 0 00-.545-.255v3.621h-1.369v-8.38h2.56c1.873 0 2.72 1.091 2.72 2.371a2.14 2.14 0 01-2.08 2.305c.524.48.963 1.045 1.298 1.672l1.232 2.008-1.659.024zm-1.938-7.253h-.764v2.649h.717a1.82 1.82 0 001.369-.35 1.41 1.41 0 00.373-1.02c0-.847-.456-1.28-1.695-1.28M27.147 37.929V38c0 .847.32 1.778 1.517 1.778.564 0 1.107-.212 1.523-.593l.521.806a3.307 3.307 0 01-2.204.794c-1.73 0-2.821-1.244-2.821-3.206-.06-.859.214-1.708.764-2.37a2.335 2.335 0 011.879-.824 2.37 2.37 0 011.683.634c.533.48.8 1.233.8 2.661v.279l-3.662-.03zm1.185-2.566c-.753 0-1.185.593-1.185 1.588h2.263c0-.995-.438-1.588-1.102-1.588M33.298 40.761c-1.34 0-1.34-1.185-1.34-1.73v-5.22a10.02 10.02 0 00-.124-1.778l1.351-.314a7.55 7.55 0 01.107 1.682v5.192c0 .817.041.954.136 1.096a.373.373 0 00.439.1l.213.824a2.116 2.116 0 01-.8.143M35.615 33.597a.871.871 0 01-.86-.889.889.889 0 11.884.889m-.676 7.034V34.6l1.345-.243v6.275h-1.345zM40.107 40.785c-1.671 0-2.608-1.185-2.608-3.146 0-2.229 1.334-3.295 2.702-3.295a2.234 2.234 0 011.695.693l-.663.883a1.529 1.529 0 00-1.032-.474 1.037 1.037 0 00-.965.593 4.148 4.148 0 00-.255 1.706 2.465 2.465 0 00.409 1.671c.207.23.502.36.811.356a1.778 1.778 0 001.239-.593l.634.794a2.554 2.554 0 01-1.961.812" fill="#000000"/>
  </g>
</svg>