<svg width="64" height="64" viewBox="0 0 64 64" xmlns="http://www.w3.org/2000/svg">
  <g fill="#F99D1E" fill-rule="nonzero" stroke-linecap="round" stroke-linejoin="round">
    <path d="M30.494 30.224l-8.638 2.304a37.894 37.894 0 00-21.364-9.56 69.346 69.346 0 0140.27-13.032l-4.95 4.548s21.056-.738 26.344-7.992a9.604 9.604 0 01-.677 2.183 23.67 23.67 0 01-7.654 10.82c-3.325 2.56-7 4.631-10.913 6.148a105.05 105.05 0 01-11.864 4.334h-.553m33.013-.707a115.919 115.919 0 00-39.623 5.257 38.114 38.114 0 016.67 9.499c10.667-5.904 25.33-13.466 32.923-14.5M32 47.04a37.573 37.573 0 012.398 10.053L52.84 38.064 32 47.039z"/>
    <path d="M30.001 29.731l-8.638 2.304A37.894 37.894 0 000 22.477 69.346 69.346 0 0140.269 9.443l-4.949 4.55S56.376 13.252 61.664 6a9.604 9.604 0 01-.677 2.183 23.67 23.67 0 01-7.654 10.82c-3.325 2.56-7 4.631-10.913 6.148a105.05 105.05 0 01-11.864 4.334h-.554m33.013-.707a115.919 115.919 0 00-39.623 5.257 38.114 38.114 0 016.671 9.499c10.667-5.904 25.33-13.466 32.923-14.5M31.508 46.546A37.573 37.573 0 0133.905 56.6L52.35 37.572l-20.841 8.974z"/>
  </g>
</svg>