<?xml version="1.0" encoding="UTF-8"?>
<svg width="64px" height="64px" viewBox="0 0 64 64" version="1.1" xmlns="http://www.w3.org/2000/svg" xmlns:xlink="http://www.w3.org/1999/xlink">
    <!-- Generator: Sketch 63.1 (92452) - https://sketch.com -->
    <title>Icon</title>
    <desc>Created with Sketch.</desc>
    <g id="Icon" stroke="none" stroke-width="1" fill="none" fill-rule="evenodd">
        <g id="pulsar" transform="translate(0.000000, 9.000000)" fill="#188FFF" fill-rule="nonzero">
            <path d="M64,14.4052459 L48.3567213,14.4052459 C44.1285246,6.29508197 39.6590164,0 33.5737705,0 C25.652459,0 21.9278689,6.91409836 18.3291803,13.6393443 L18.0144262,14.2268852 L0,14.2268852 L0,18.2242623 L10.4918033,18.2242623 C14.1954098,18.2242623 14.9508197,19.4727869 14.9508197,19.4727869 C12.0445902,23.9842623 8.55081967,28.4432787 2.72786885,28.4432787 L0,28.4432787 L0,32.64 L2.74885246,32.64 C14.0380328,32.64 18.9691803,23.4806557 22.9245902,16.1259016 C26.5547541,9.34819672 29.0832787,5.24590164 33.5737705,5.24590164 C38.2321311,5.24590164 43.1318033,15.3809836 47.4439344,24.3304918 C48.0734426,25.6314754 48.7134426,26.9639344 49.3639344,28.2859016 C32.8288525,28.8104918 24.9495082,32.6819672 18.5390164,35.84 C13.8491803,38.1481967 10.1455738,41.012459 4.04983607,41.012459 L0,41.012459 L0,45.2091803 L4.01836066,45.2091803 C11.362623,45.2091803 15.9370492,42.9429508 20.8052459,40.5403279 C27.5514754,37.224918 35.2,33.4688525 53.224918,33.4688525 L63.6432787,33.4688525 L63.6432787,29.2721311 L57.757377,29.2721311 C59.3707865,29.5448471 60.5061399,31.0083013 60.3693026,32.6388655 C60.2324653,34.2694297 58.8690827,35.5231894 57.2327869,35.5231894 C55.5964911,35.5231894 54.2331084,34.2694297 54.0962711,32.6388655 C53.9594338,31.0083013 55.0947873,29.5448471 56.7081967,29.2721311 C54.1377049,26.2295082 53.1304918,24.1311475 52.1442623,22.0327869 L50.7803279,19.2419672 C50.7803279,19.2419672 51.7560656,18.1927869 54.4629508,18.1927869 L64,18.1927869 L64,14.4052459 Z" id="Path"></path>
        </g>
    </g>
</svg>