<svg width="64" height="64" viewBox="0 0 64 64" xmlns="http://www.w3.org/2000/svg">
  <path d="M56.257 7.237H6.953C3.16 7.237 0 10.319 0 14.19v36.188c0 3.792 3.081 6.953 6.953 6.953h49.383c3.792 0 6.953-3.082 6.953-6.953V14.19c-.08-3.792-3.16-6.953-7.032-6.953zm-40.85 38.558c-.395 0-.79-.158-1.185-.395-.79-.632-.948-1.817-.316-2.607l8.534-10.904-8.534-11.22c-.632-.79-.474-1.975.316-2.607.79-.632 1.976-.474 2.608.316l9.481 12.326c.553.71.553 1.659 0 2.291l-9.481 12.01c-.316.553-.87.79-1.423.79zm32.395 1.106H27.654c-1.027 0-1.896-.869-1.896-1.896s.87-1.896 1.896-1.896h20.227c1.028 0 1.897.869 1.897 1.896-.08 1.027-.87 1.896-1.976 1.896z" fill="#000000" fill-rule="nonzero"/>
</svg>