<svg width="64" height="64" viewBox="0 0 64 64" xmlns="http://www.w3.org/2000/svg">
  <path d="M61.697 15.996H50.272V2.286A2.285 2.285 0 0047.987 0H2.285A2.285 2.285 0 000 2.285v52.557a9.14 9.14 0 009.14 9.14h45.702a9.14 9.14 0 009.14-9.14V18.28a2.285 2.285 0 00-2.285-2.285zm-43.416-4.57h13.71a2.285 2.285 0 110 4.57h-13.71a2.285 2.285 0 110-4.57zm20.565 43.416h-27.42a2.285 2.285 0 110-4.57h27.42a2.285 2.285 0 110 4.57zm0-9.14h-27.42a2.285 2.285 0 110-4.57h27.42a2.285 2.285 0 110 4.57zm0-9.14h-27.42a2.285 2.285 0 110-4.571h27.42a2.285 2.285 0 110 4.57zm0-9.141h-27.42a2.285 2.285 0 110-4.57h27.42a2.285 2.285 0 110 4.57zm20.566 27.42a4.57 4.57 0 01-9.14 0V20.567h9.14v34.276z" fill="#000000" fill-rule="nonzero"/>
</svg>