<?xml version="1.0" encoding="UTF-8" standalone="no"?>
<svg
   xmlns:dc="http://purl.org/dc/elements/1.1/"
   xmlns:cc="http://creativecommons.org/ns#"
   xmlns:rdf="http://www.w3.org/1999/02/22-rdf-syntax-ns#"
   xmlns:svg="http://www.w3.org/2000/svg"
   xmlns="http://www.w3.org/2000/svg"
   xmlns:sodipodi="http://sodipodi.sourceforge.net/DTD/sodipodi-0.dtd"
   xmlns:inkscape="http://www.inkscape.org/namespaces/inkscape"
   sodipodi:docname="background.svg"
   inkscape:version="1.0beta1 (32d4812, 2019-09-19)"
   id="svg8"
   version="1.1"
   viewBox="0 0 130.43958 82.549997"
   height="312"
   width="493"
   inkscape:export-filename="/Users/alex/vector/distribution/msi/background.png"
   inkscape:export-xdpi="96"
   inkscape:export-ydpi="96">
  <defs
     id="defs2" />
  <sodipodi:namedview
     inkscape:window-maximized="0"
     inkscape:window-y="23"
     inkscape:window-x="0"
     inkscape:window-height="855"
     inkscape:window-width="1440"
     inkscape:guide-bbox="true"
     showguides="true"
     units="px"
     showgrid="false"
     inkscape:document-rotation="0"
     inkscape:current-layer="layer1"
     inkscape:document-units="px"
     inkscape:cy="334.07863"
     inkscape:cx="306.24272"
     inkscape:zoom="0.68557479"
     inkscape:pageshadow="2"
     inkscape:pageopacity="0.0"
     borderopacity="1.0"
     bordercolor="#666666"
     pagecolor="#ffffff"
     id="base">
    <sodipodi:guide
       id="guide833"
       orientation="1,0"
       position="43.564932,76.135529" />
    <sodipodi:guide
       id="guide1717"
       orientation="0,-1"
       position="-3.2600445,68.659373" />
    <sodipodi:guide
       position="2.7324735,67.203699"
       orientation="1,0"
       id="guide2423" />
    <sodipodi:guide
       position="43.564932,49.254302"
       orientation="1,0"
       id="guide2425" />
    <sodipodi:guide
       position="40.885899,57.249317"
       orientation="1,0"
       id="guide2427" />
  </sodipodi:namedview>
  <metadata
     id="metadata5">
    <rdf:RDF>
      <cc:Work
         rdf:about="">
        <dc:format>image/svg+xml</dc:format>
        <dc:type
           rdf:resource="http://purl.org/dc/dcmitype/StillImage" />
        <dc:title />
      </cc:Work>
    </rdf:RDF>
  </metadata>
  <g
     id="layer1"
     inkscape:groupmode="layer"
     inkscape:label="Layer 1">
    <rect
       y="-0.015433364"
       x="2.0378413e-06"
       height="82.496941"
       width="43.56493"
       id="rect835"
       style="fill:#28d8f1;fill-opacity:1;stroke-width:0.264439" />
    <g
       transform="matrix(0.19057815,0,0,0.19057815,2.7324735,37.002391)"
       style="opacity:1;fill:#ffffff;stop-opacity:1"
       id="g1003"
       fill="#10E7FF">
      <polygon
         style="fill:#ffffff"
         points="170.17582,0 200.19832,1.6690324e-12 128.69892,117.91557 113.86468,93.514534 "
         id="Rectangle" />
      <polygon
         style="fill:#ffffff"
         points="36.914437,117.29497 0,117.29497 71.123087,9.094947e-13 142.24617,117.29497 106.76991,117.29497 71.850625,59.95076 "
         transform="matrix(1,0,0,-1,0,117.29496)"
         id="Triangle-Copy" />
    </g>
    <rect
       y="17.342703"
       x="-0.13443959"
       height="65.243584"
       width="43.699371"
       id="rect1719"
       style="fill:none;fill-opacity:1;stroke-width:0.264583" />
    <g
       transform="matrix(0.43004072,0,0,0.43004072,-3.8194152,7.6228088)"
       id="g1611">
      <path
         d="m 15.793741,2.6713141 h 3.399637 l 2.878,7.130605 2.913975,-7.130605 H 28.367 L 23.258552,14.385879 h -2.428314 z m 24.932383,0 v 2.581771 h -3.705423 v 1.9495 h 3.507562 v 2.581771 H 37.020701 V 11.80411 h 3.705423 v 2.581769 H 33.908865 V 2.6713141 Z m 14.877375,7.7980009 v 3.60043 c -1.241137,0.439076 -1.924664,0.579581 -2.698126,0.579581 -2.086549,0 -3.651461,-0.807901 -4.640773,-1.756308 -1.169188,-1.141597 -1.816737,-2.739838 -1.816737,-4.2678239 0,-1.668492 0.737486,-3.249168 1.816737,-4.320515 1.061263,-1.053783 2.662148,-1.826558 4.53285,-1.826558 0.575598,0 1.510948,0.08782 2.806049,0.597144 v 3.635554 c -1.0073,-1.211851 -2.194475,-1.282103 -2.716112,-1.282103 -0.899374,0 -1.582901,0.263446 -2.1585,0.772775 -0.737486,0.667396 -1.043276,1.580676 -1.043276,2.406139 0,0.807901 0.341763,1.7036179 0.971325,2.2831989 0.521637,0.474203 1.349063,0.8079 2.230451,0.8079 0.467675,0 1.618874,-0.05269 2.716112,-1.229414 z M 69.401623,5.2530851 H 66.847399 V 14.385879 H 63.73556 V 5.2530851 h -2.554224 v -2.581771 h 8.220287 z m 18.366948,3.284293 c 0,1.5455499 -0.611576,3.1789139 -1.888688,4.3732029 -1.223151,1.141601 -2.949948,1.738745 -4.730713,1.738745 -1.780762,0 -3.50756,-0.597144 -4.73071,-1.738745 -1.277112,-1.194289 -1.888689,-2.827653 -1.888689,-4.3732029 0,-1.563113 0.611577,-3.214041 1.888689,-4.390766 1.22315,-1.141599 2.949948,-1.738744 4.73071,-1.738744 1.780765,0 3.507562,0.597145 4.730713,1.738744 1.277112,1.176725 1.888688,2.827653 1.888688,4.390766 z M 81.14917,5.3584631 c -0.863399,0 -1.780762,0.298573 -2.428312,0.930843 -0.647549,0.614707 -0.953336,1.475297 -0.953336,2.300761 0,1.036221 0.503651,1.7563069 0.953336,2.1778199 0.575601,0.544456 1.385039,0.930842 2.428312,0.930842 1.061262,0 1.852713,-0.368823 2.410325,-0.913278 0.557612,-0.544455 0.971325,-1.3523569 0.971325,-2.2480729 0,-0.913279 -0.413713,-1.72118 -0.971325,-2.248072 -0.665536,-0.614707 -1.582899,-0.930843 -2.410325,-0.930843 z m 12.880763,-2.687149 h 4.856622 c 0.899377,0 2.050575,0.140505 2.931965,1.036221 0.68352,0.68496 1.02529,1.703618 1.02529,2.63446 0,1.001095 -0.35976,1.879248 -0.95334,2.441266 -0.46768,0.439077 -1.09724,0.702523 -1.65485,0.807901 l 3.75939,4.7947169 h -3.86732 L 97.141769,9.8897341 v 4.4961449 h -3.111836 z m 3.111836,2.353451 v 2.897906 h 0.593587 c 0.467675,0 1.133213,-0.122941 1.510951,-0.474203 0.233839,-0.22832 0.395724,-0.614707 0.395724,-0.983531 0,-0.351262 -0.143899,-0.737649 -0.413711,-0.983532 -0.2878,-0.281009 -0.809439,-0.45664 -1.492964,-0.45664 z"
         id="Words"
         fill="#000000"
         inkscape:connector-curvature="0"
         style="opacity:1;stroke-width:0.264583;stop-opacity:1" />
      <path
         d="M 18.339792,-4.7773345 H 17.304835 V -10.498905 H 15.2072 v -0.94205 h 5.225608 v 0.94205 h -2.093016 z m 3.169555,0 V -9.8062208 H 22.4981 v 5.0288863 z m 0.494377,-5.9016685 c -0.346525,0 -0.628367,-0.290927 -0.628367,-0.646505 0,-0.360196 0.281842,-0.651123 0.628367,-0.651123 0.346527,0 0.628367,0.290927 0.628367,0.651123 0,0.355578 -0.28184,0.646505 -0.628367,0.646505 z m 1.954405,5.9016685 v -5.0288863 h 0.956411 v 0.8081314 h 0.07393 c 0.221777,-0.5680009 0.730012,-0.905107 1.399963,-0.905107 0.68843,0 1.164326,0.3555777 1.386102,0.905107 h 0.07855 c 0.254119,-0.5495293 0.831662,-0.905107 1.529334,-0.905107 1.016474,0 1.607878,0.6141796 1.607878,1.6624416 v 3.4634203 h -0.993376 v -3.2048182 c 0,-0.6788303 -0.323424,-1.0113187 -0.974894,-1.0113187 -0.642226,0 -1.062678,0.4617892 -1.062678,1.0528797 v 3.1632572 h -0.974891 v -3.301794 c 0,-0.5680009 -0.37887,-0.9143429 -0.970272,-0.9143429 -0.605266,0 -1.062681,0.4941147 -1.062681,1.1406198 v 3.0755171 z m 11.093442,0.083122 c -0.702291,0 -1.289074,-0.3232526 -1.589397,-0.8773999 h -0.07392 v 0.7942779 h -0.956411 v -6.9914915 h 0.993373 v 2.7615008 h 0.07855 c 0.267978,-0.5495293 0.859382,-0.8820176 1.547812,-0.8820176 1.275215,0 2.079157,0.9974651 2.079157,2.5952563 0,1.5931734 -0.808562,2.5998743 -2.079157,2.5998743 z m -0.286459,-4.3038769 c -0.831662,0 -1.353762,0.6557409 -1.358381,1.7086206 0.0046,1.05288 0.522099,1.7040029 1.358381,1.7040029 0.840901,0 1.34452,-0.6418871 1.34452,-1.7086206 0,-1.0574978 -0.503619,-1.7040029 -1.34452,-1.7040029 z m 5.622957,-0.060033 c -0.734634,0 -1.247492,0.517204 -1.302938,1.302246 h 2.54119 c -0.0231,-0.7896598 -0.503618,-1.302246 -1.238252,-1.302246 z m 1.23363,2.9231269 h 0.956413 c -0.217157,0.8958714 -1.030338,1.4546365 -2.180804,1.4546365 -1.441545,0 -2.324031,-0.9882293 -2.324031,-2.5952563 0,-1.607027 0.900967,-2.6275815 2.319411,-2.6275815 1.399964,0 2.245487,0.9559038 2.245487,2.5352236 v 0.346342 h -3.553044 v 0.055415 c 0.03234,0.8820179 0.5452,1.4407829 1.3399,1.4407829 0.600644,0 1.011854,-0.2170408 1.196668,-0.6095622 z m 2.208525,1.3576606 v -5.0288859 h 0.95641 v 0.7711884 h 0.07392 c 0.143232,-0.4941146 0.702294,-0.8543104 1.358381,-0.8543104 0.147852,0 0.337286,0.013854 0.443553,0.041561 v 0.9789935 c -0.08317,-0.027707 -0.378868,-0.060033 -0.55444,-0.060033 -0.753115,0 -1.284457,0.4756431 -1.284457,1.1821808 v 2.9693057 z m 3.885707,0.078504 c -0.388109,0 -0.67919,-0.3001632 -0.67919,-0.6880662 0,-0.3879029 0.291081,-0.6880661 0.67919,-0.6880661 0.392729,0 0.679191,0.3001632 0.679191,0.6880661 0,0.387903 -0.286462,0.6880662 -0.679191,0.6880662 z m 2.227006,-0.078504 v -5.0288859 h 0.988753 v 5.0288863 z m 0.494377,-5.9016681 c -0.346525,0 -0.628367,-0.290927 -0.628367,-0.646505 0,-0.360196 0.281842,-0.651123 0.628367,-0.651123 0.346525,0 0.628367,0.290927 0.628367,0.651123 0,0.355578 -0.281842,0.646505 -0.628367,0.646505 z m 4.079764,5.998644 c -1.473891,0 -2.374858,-0.9836113 -2.374858,-2.6137279 0,-1.6208806 0.905587,-2.6091099 2.374858,-2.6091099 1.464645,0 2.370235,0.9882293 2.370235,2.6091099 0,1.6301166 -0.900967,2.6137279 -2.370235,2.6137279 z m 0,-0.8820176 c 0.859382,0 1.349139,-0.6372696 1.349139,-1.7317103 0,-1.089823 -0.489757,-1.7270923 -1.349139,-1.7270923 -0.864005,0 -1.349143,0.6372693 -1.349143,1.7270923 0,1.0990587 0.485138,1.7317103 1.349143,1.7317103 z"
         id="Timber.io"
         fill="#000000"
         fill-rule="nonzero"
         inkscape:connector-curvature="0"
         style="opacity:1;stroke-width:0.264583;stop-opacity:1" />
    </g>
  </g>
</svg>
