<svg width="770" height="325" viewBox="0 0 770 325" xmlns="http://www.w3.org/2000/svg">
  <g fill="none" fill-rule="evenodd">
    <g fill-rule="nonzero" transform="translate(1)">
      <rect fill="#000000" width="768" height="48" rx="3"/>
      <text fill="#FFFFFF" font-family="Helvetica" font-size="18">
        <tspan x="298.5" y="30">Tokio core event loop</tspan>
      </text>
    </g>
    <g transform="translate(1 72)">
      <rect fill-opacity=".25" fill="#F44AF5" fill-rule="nonzero" width="768" height="48" rx="3"/>
      <rect stroke="#F44AF5" stroke-width="2" stroke-linecap="round" stroke-linejoin="round" width="768" height="48" rx="3"/>
      <text fill="#000000" fill-rule="nonzero" font-family="Helvetica" font-size="18">
        <tspan x="345" y="30">Main task</tspan>
      </text>
    </g>
    <g transform="translate(1 144)">
      <rect fill-opacity=".25" fill="#3084FF" fill-rule="nonzero" width="768" height="48" rx="3"/>
      <rect stroke="#3084FF" stroke-width="2" stroke-linecap="round" stroke-linejoin="round" width="768" height="48" rx="3"/>
      <text fill="#000000" fill-rule="nonzero" font-family="Helvetica" font-size="18">
        <tspan x="287.5" y="30">futures::futures::FromAll</tspan>
      </text>
    </g>
    <g stroke="#C3CFD9" stroke-linecap="round" stroke-linejoin="round">
      <path stroke-width="4" d="M385 54v8"/>
      <path stroke-width="2" fill="#C3CFD9" fill-rule="nonzero" d="M390.54 58.908L385 66l-5.54-7.092z"/>
    </g>
    <g stroke="#C3CFD9" stroke-linecap="round" stroke-linejoin="round">
      <path stroke-width="4" d="M385 126v8"/>
      <path stroke-width="2" fill="#C3CFD9" fill-rule="nonzero" d="M390.54 130.908L385 138l-5.54-7.092z"/>
    </g>
    <g transform="translate(1 252)">
      <rect fill-opacity=".25" fill="#28D9F2" fill-rule="nonzero" width="192" height="72" rx="3"/>
      <rect stroke="#28D9F2" stroke-width="2" stroke-linecap="round" stroke-linejoin="round" width="192" height="72" rx="3"/>
      <text fill="#000000" fill-rule="nonzero" font-family="Helvetica" font-size="15">
        <tspan x="63.5" y="31">Future #1</tspan>
      </text>
      <text fill="#000000" fill-rule="nonzero" font-family="Helvetica" font-size="15">
        <tspan x="53.5" y="51">(component)</tspan>
      </text>
    </g>
    <g transform="translate(205 252)">
      <rect fill-opacity=".25" fill="#28D9F2" fill-rule="nonzero" width="180" height="72" rx="3"/>
      <rect stroke="#28D9F2" stroke-width="2" stroke-linecap="round" stroke-linejoin="round" width="180" height="72" rx="3"/>
      <text fill="#000000" fill-rule="nonzero" font-family="Helvetica" font-size="15">
        <tspan x="57.5" y="31">Future #2</tspan>
      </text>
      <text fill="#000000" fill-rule="nonzero" font-family="Helvetica" font-size="15">
        <tspan x="47.5" y="51">(component)</tspan>
      </text>
    </g>
    <g transform="translate(397 252)">
      <rect fill-opacity=".25" fill="#28D9F2" fill-rule="nonzero" width="180" height="72" rx="3"/>
      <rect stroke="#28D9F2" stroke-width="2" stroke-linecap="round" stroke-linejoin="round" width="180" height="72" rx="3"/>
      <text fill="#000000" fill-rule="nonzero" font-family="Helvetica" font-size="15">
        <tspan x="57.5" y="31">Future #3</tspan>
      </text>
      <text fill="#000000" fill-rule="nonzero" font-family="Helvetica" font-size="15">
        <tspan x="47.5" y="51">(component)</tspan>
      </text>
    </g>
    <g transform="translate(589 252)">
      <rect fill-opacity=".25" fill="#28D9F2" fill-rule="nonzero" width="180" height="72" rx="3"/>
      <rect stroke="#28D9F2" stroke-width="2" stroke-linecap="round" stroke-linejoin="round" width="180" height="72" rx="3"/>
      <text fill="#000000" fill-rule="nonzero" font-family="Helvetica" font-size="15">
        <tspan x="57.5" y="31">Future #n</tspan>
      </text>
      <text fill="#000000" fill-rule="nonzero" font-family="Helvetica" font-size="15">
        <tspan x="47.5" y="51">(component)</tspan>
      </text>
    </g>
    <g stroke="#C3CFD9" stroke-linecap="round" stroke-linejoin="round">
      <path d="M385 200v8a8 8 0 01-8 8H111c-7.732 0-14 6.268-14 14v10" stroke-width="4"/>
      <path stroke-width="2" fill="#C3CFD9" fill-rule="nonzero" d="M102.54 236.908L97 244l-5.54-7.092z"/>
    </g>
    <g stroke="#C3CFD9" stroke-linecap="round" stroke-linejoin="round">
      <path d="M385 200v8a8 8 0 01-8 8h-68c-7.732 0-14 6.268-14 14v10" stroke-width="4"/>
      <path stroke-width="2" fill="#C3CFD9" fill-rule="nonzero" d="M300.54 236.908L295 244l-5.54-7.092z"/>
    </g>
    <g stroke="#C3CFD9" stroke-linecap="round" stroke-linejoin="round">
      <path d="M385 200v8a8 8 0 008 8h80c7.732 0 14 6.268 14 14v10" stroke-width="4"/>
      <path stroke-width="2" fill="#C3CFD9" fill-rule="nonzero" d="M492.54 236.908L487 244l-5.54-7.092z"/>
    </g>
    <g stroke="#C3CFD9" stroke-linecap="round" stroke-linejoin="round">
      <path d="M385 200v8a8 8 0 008 8h272c7.732 0 14 6.268 14 14v10" stroke-width="4"/>
      <path stroke-width="2" fill="#C3CFD9" fill-rule="nonzero" d="M684.541 236.908L679 244l-5.541-7.092z"/>
    </g>
  </g>
</svg>