<svg viewBox="0 0 100 100" fill="none" xmlns="http://www.w3.org/2000/svg" class="fill-current">
  <path d="M44.187 35.444v2.824L27.04 28.375V12.243h2.451v14.712l14.696 8.489z" fill="url(#paint0_linear)"/>
  <path d="M29.525 53.91c-2.333 0-4.701-.304-7.018-.93-6.95-1.86-12.767-6.325-16.369-12.564l2.114-1.218c3.28 5.665 8.557 9.723 14.881 11.414 6.324 1.691 12.92.829 18.601-2.452a24.54 24.54 0 008.98-8.962l2.13 1.218a26.938 26.938 0 01-9.875 9.858 26.624 26.624 0 01-13.444 3.636z" fill="url(#paint1_linear)"/>
  <path d="M.068 43.933L0 26.887l14.796 8.54L.069 43.933zm2.4-12.784l.035 8.556 7.39-4.261-7.424-4.295z" fill="url(#paint2_linear)"/>
  <path d="M29.492 53.91c-10.13 0-19.312-5.597-23.962-14.61l2.181-1.117c4.228 8.185 12.581 13.275 21.78 13.275 13.512 0 24.504-10.992 24.504-24.503S43.003 2.452 29.492 2.452V0c14.864 0 26.955 12.09 26.955 26.955 0 14.864-12.091 26.955-26.955 26.955z" fill="url(#paint3_linear)"/>
  <path d="M8.27 14.695l-2.115-1.218C10.958 5.157 19.903 0 29.491 0v2.452c-8.725 0-16.86 4.684-21.222 12.243z" fill="url(#paint4_linear)"/>
  <defs>
    <linearGradient id="paint0_linear" x1="35.613" y1="12.243" x2="35.613" y2="38.268" gradientUnits="userSpaceOnUse">
      <stop stop-color="#C887FF"/>
      <stop offset="1" stop-color="#10E7FF"/>
    </linearGradient>
    <linearGradient id="paint1_linear" x1="29.491" y1="39.198" x2="29.491" y2="53.91" gradientUnits="userSpaceOnUse">
      <stop stop-color="#C887FF"/>
      <stop offset="1" stop-color="#10E7FF"/>
    </linearGradient>
    <linearGradient id="paint2_linear" x1="7.398" y1="26.887" x2="7.398" y2="43.933" gradientUnits="userSpaceOnUse">
      <stop stop-color="#C887FF"/>
      <stop offset="1" stop-color="#10E7FF"/>
    </linearGradient>
    <linearGradient id="paint3_linear" x1="30.988" y1="0" x2="30.988" y2="53.91" gradientUnits="userSpaceOnUse">
      <stop stop-color="#C887FF"/>
      <stop offset="1" stop-color="#10E7FF"/>
    </linearGradient>
    <linearGradient id="paint4_linear" x1="17.823" y1="0" x2="17.823" y2="14.695" gradientUnits="userSpaceOnUse">
      <stop stop-color="#C887FF"/>
      <stop offset="1" stop-color="#10E7FF"/>
    </linearGradient>
  </defs>
</svg>
