<?xml version="1.0" encoding="UTF-8"?>
<svg width="683px" height="423px" viewBox="0 0 683 423" version="1.1" xmlns="http://www.w3.org/2000/svg" xmlns:xlink="http://www.w3.org/1999/xlink">
    <!-- Generator: Sketch 54.1 (76490) - https://sketchapp.com -->
    <title>Group 2</title>
    <desc>Created with Sketch.</desc>
    <defs>
        <linearGradient x1="50%" y1="0%" x2="50%" y2="100%" id="linearGradient-1">
            <stop stop-color="#19E7FF" offset="0%"></stop>
            <stop stop-color="#CB58EB" offset="100%"></stop>
        </linearGradient>
        <linearGradient x1="50%" y1="40%" x2="50%" y2="73.3333333%" id="linearGradient-2">
            <stop stop-color="#FFFFFF" stop-opacity="0" offset="0%"></stop>
            <stop stop-color="#FFFFFF" offset="32.923353%"></stop>
            <stop stop-color="#FFFFFF" offset="71.38144%"></stop>
            <stop stop-color="#FFFFFF" stop-opacity="0" offset="100%"></stop>
        </linearGradient>
        <linearGradient x1="50%" y1="0%" x2="50%" y2="100%" id="linearGradient-3">
            <stop stop-color="#19E7FF" offset="0%"></stop>
            <stop stop-color="#3084FF" offset="100%"></stop>
        </linearGradient>
        <linearGradient x1="50%" y1="0%" x2="50%" y2="100%" id="linearGradient-4">
            <stop stop-color="#19E7FF" offset="0%"></stop>
            <stop stop-color="#CB58EB" offset="100%"></stop>
        </linearGradient>
        <linearGradient x1="50%" y1="40%" x2="50%" y2="73.3333333%" id="linearGradient-5">
            <stop stop-color="#FFFFFF" stop-opacity="0" offset="0%"></stop>
            <stop stop-color="#FFFFFF" offset="32.923353%"></stop>
            <stop stop-color="#FFFFFF" offset="71.38144%"></stop>
            <stop stop-color="#FFFFFF" stop-opacity="0" offset="100%"></stop>
        </linearGradient>
        <polygon id="path-6" points="37.9721997 0.066292248 57.1836932 32.0854481 18.7607062 32.0854481"></polygon>
    </defs>
    <g id="Components" stroke="none" stroke-width="1" fill="none" fill-rule="evenodd">
        <g id="Group-2">
            <rect id="Rectangle" fill="#FFFFFF" x="0" y="0" width="683" height="421"></rect>
            <g id="Sinks" transform="translate(528.000000, 131.000000)">
                <g id="Aggregate" transform="translate(0.000000, 187.000000)" fill="#001B3D" fill-rule="nonzero">
                    <path d="M37.1374778,5.68434189e-14 C16.6272051,5.68434189e-14 -5.68434189e-14,16.7873016 -5.68434189e-14,37.5014246 C-5.68434189e-14,58.2112731 16.6272051,75 37.1374778,75 C57.6463394,75 74.2749555,58.2112731 74.2749555,37.498575 C74.2749555,16.7901513 57.6449284,0.00284963651 37.1374778,0.00284963651 L37.1374778,5.68434189e-14 Z M37.1374778,70.1869372 C31.3015884,70.1869372 26.5690998,66.2501424 26.5690998,61.3957596 L47.7058557,61.3957596 C47.7058557,66.2487176 42.9761891,70.1869372 37.1402998,70.1869372 L37.1374778,70.1869372 Z M54.5915279,58.4848398 L19.6834276,58.4848398 L19.6834276,52.0916447 L54.5915279,52.0916447 L54.5915279,58.4834149 L54.5915279,58.4848398 Z M54.464538,48.8031459 L19.7821975,48.8031459 C19.6693176,48.6692122 19.5493828,48.5367034 19.4379139,48.3999201 C15.865266,44.0185796 15.0214889,41.7317335 14.2059318,39.4007179 C14.1918219,39.3266269 18.5376969,40.2983584 21.6207284,41.0007977 C21.6207284,41.0007977 23.2066906,41.3712525 25.524961,41.7987004 C23.2998165,39.1627719 21.977711,35.8144304 21.977711,32.3891483 C21.977711,24.8703405 27.6866105,18.3018918 25.6265529,12.9915651 C27.6301706,13.1568449 29.7748881,17.2660432 29.921632,23.68631 C32.0522395,20.7141226 32.9439905,15.2826852 32.9439905,11.9528668 C32.9439905,8.50478746 35.194533,4.5010259 37.4450754,4.36281776 C35.4386357,7.7011855 37.9643228,10.5636613 40.2106323,17.6635697 C41.0515873,20.3308443 40.9443514,24.8190468 41.5934107,27.6658495 C41.8107044,21.7528209 42.8167463,13.1283484 46.5319051,10.1504617 C44.8923249,13.9006042 46.7717748,18.5939812 48.0600163,20.8509059 C50.138417,24.4884871 51.3956165,27.2483754 51.3956165,32.4632392 C51.3956165,35.9597627 50.117252,39.2511112 47.9612464,41.8243472 C50.4121507,41.3598539 52.1053487,40.940955 52.1053487,40.940955 L60.0690237,39.3736462 C60.0732567,39.3736462 58.912005,44.1781601 54.46736,48.8059955 L54.464538,48.8031459 Z" id="path4181"></path>
                </g>
                <g id="Search" transform="translate(80.000000, 127.000000)">
                    <circle id="Oval-Copy" fill="#001B3D" cx="37.5" cy="37.5" r="37.5"></circle>
                    <g id="elasticsearch" transform="translate(4.500000, 5.250000)" fill-rule="nonzero">
                        <path d="M65.2395982,34.2545336 C65.2395982,28.7690818 61.831162,24.0292253 56.7717647,22.1652367 C56.9847919,20.9935868 57.0913057,19.8751937 57.0913057,18.6502869 C57.0913057,8.4782353 48.8364994,0.223428981 38.6644477,0.223428981 C32.7529412,0.223428981 27.2142324,3.04604016 23.7525395,7.89241033 C22.0483214,6.56098996 19.9713056,5.86865137 17.7877762,5.86865137 C12.4088379,5.86865137 7.98852225,10.2357102 7.98852225,15.6679053 C7.98852225,16.8395552 8.20154951,18.0112052 8.5743472,19.0763415 C3.46169298,20.8338164 0,25.7334433 0,31.1656384 C0,36.6510904 3.40843616,41.4442038 8.52109038,43.3081924 C8.30806312,44.4265853 8.20154951,45.5982354 8.20154951,46.8231421 C8.20154951,56.941937 16.4563558,65.1967433 26.5751508,65.1967433 C32.539914,65.1967433 38.0253658,62.3208752 41.4870587,57.5277619 C43.1912768,58.8591823 45.3215494,59.6047777 47.505079,59.6047777 C52.8840173,59.6047777 57.3043329,55.2377188 57.3043329,49.8055236 C57.3043329,48.6338737 57.0913057,47.4622238 56.718508,46.3970876 C61.7246485,44.5863557 65.2395982,39.6867289 65.2395982,34.2545336 L65.2395982,34.2545336 Z" id="Path" fill="#001B3D"></path>
                        <path d="M25.5100143,28.1299999 L40.0491249,34.7871018 L54.7480056,21.8989527 C54.9610331,20.8338164 55.0675466,19.76868 55.0675466,18.6502869 C55.0675466,9.59662841 47.7181062,2.24718795 38.6644477,2.24718795 C33.2322524,2.24718795 28.1728551,4.9100287 25.1372166,9.38360115 L22.6874032,22.0587231 L25.5100143,28.1299999 L25.5100143,28.1299999 Z" id="Path" fill="#FFFFFF"></path>
                        <path d="M10.4383357,43.5212196 C10.2253085,44.5863557 10.1187948,45.7047489 10.1187948,46.8231421 C10.1187948,55.8768005 17.5214921,63.2794979 26.5751508,63.2794979 C32.0606025,63.2794979 37.1200001,60.5634004 40.2088954,56.0898278 L42.6054519,43.4147058 L39.3567862,37.2369154 L24.7644189,30.5798134 L10.4383357,43.5212196 L10.4383357,43.5212196 Z" id="Path" fill="#FFFFFF"></path>
                        <path d="M10.3318221,18.330746 L20.2908465,20.6740459 L22.5276327,9.33034433 C21.1429555,8.26520804 19.4919943,7.73263989 17.7345194,7.73263989 C13.4207174,7.73263989 9.85251077,11.2475897 9.85251077,15.6146485 C9.85251077,16.5200143 10.0122812,17.478637 10.3318221,18.330746 L10.3318221,18.330746 Z" id="Path" fill="#FFFFFF"></path>
                        <path d="M9.47971305,20.7273027 C5.0061406,22.1652367 1.91724534,26.4790388 1.91724534,31.1656384 C1.91724534,35.7457245 4.73985652,39.8464994 9.00040171,41.4442038 L23.0069441,28.7690818 L20.4506169,23.2836298 L9.47971305,20.7273027 L9.47971305,20.7273027 Z" id="Path" fill="#FFFFFF"></path>
                        <path d="M42.7652224,56.036571 C44.1498995,57.1017074 45.8008609,57.6875324 47.505079,57.6875324 C51.8188809,57.6875324 55.3870876,54.1725824 55.3870876,49.8055236 C55.3870876,48.8469009 55.2273171,47.9415352 54.9077761,47.089426 L44.9487517,44.7461262 L42.7652224,56.036571 L42.7652224,56.036571 Z" id="Path" fill="#FFFFFF"></path>
                        <path d="M44.7889815,42.1365422 L55.7598853,44.6928695 C60.2334577,43.2016786 63.3223529,38.9411335 63.3223529,34.2545336 C63.3223529,29.6744475 60.4997416,25.6269296 56.2391965,23.9759684 L41.8598565,36.5445767 L44.7889815,42.1365422 L44.7889815,42.1365422 Z" id="Path" fill="#FFFFFF"></path>
                    </g>
                </g>
                <g id="Archive" transform="translate(0.000000, 61.000000)">
                    <circle id="Oval-Copy-2" fill="#001B3D" cx="37.5" cy="37.5" r="37.5"></circle>
                    <path d="M25.8375,45.7875 C26.6625041,45.7875 27.3437473,45.7187507 27.88125,45.58125 C28.4187527,45.4437493 28.8499984,45.2562512 29.175,45.01875 C29.5000016,44.7812488 29.7249994,44.5000016 29.85,44.175 C29.9750006,43.8499984 30.0375,43.487502 30.0375,43.0875 C30.0375,42.2374958 29.637504,41.5312528 28.8375,40.96875 C28.037496,40.4062472 26.6625098,39.8000033 24.7125,39.15 C23.8624958,38.8499985 23.0125043,38.5062519 22.1625,38.11875 C21.3124958,37.7312481 20.5500034,37.2437529 19.875,36.65625 C19.1999966,36.0687471 18.6500021,35.3562542 18.225,34.51875 C17.7999979,33.6812458 17.5875,32.662506 17.5875,31.4625 C17.5875,30.262494 17.8124978,29.1812548 18.2625,28.21875 C18.7125023,27.2562452 19.3499959,26.4375034 20.175,25.7625 C21.0000041,25.0874966 21.9999941,24.5687518 23.175,24.20625 C24.3500059,23.8437482 25.6749926,23.6625 27.15,23.6625 C28.9000087,23.6625 30.4124936,23.8499981 31.6875,24.225 C32.9625064,24.6000019 34.0124959,25.0124978 34.8375,25.4625 L33.15,30.075 C32.4249964,29.6999981 31.6187544,29.3687514 30.73125,29.08125 C29.8437456,28.7937486 28.7750063,28.65 27.525,28.65 C26.124993,28.65 25.1187531,28.8437481 24.50625,29.23125 C23.8937469,29.6187519 23.5875,30.212496 23.5875,31.0125 C23.5875,31.4875024 23.6999989,31.8874984 23.925,32.2125 C24.1500011,32.5375016 24.4687479,32.8312487 24.88125,33.09375 C25.2937521,33.3562513 25.7687473,33.5937489 26.30625,33.80625 C26.8437527,34.0187511 27.4374968,34.2374989 28.0875,34.4625 C29.4375068,34.9625025 30.612495,35.4562476 31.6125,35.94375 C32.612505,36.4312524 33.4437467,36.9999968 34.10625,37.65 C34.7687533,38.3000033 35.2624984,39.0624956 35.5875,39.9375 C35.9125016,40.8125044 36.075,41.8749938 36.075,43.125 C36.075,45.5500121 35.2250085,47.4312433 33.525,48.76875 C31.8249915,50.1062567 29.2625171,50.775 25.8375,50.775 C24.6874943,50.775 23.6500046,50.7062507 22.725,50.56875 C21.7999954,50.4312493 20.9812536,50.262501 20.26875,50.0625 C19.5562464,49.862499 18.9437526,49.6500011 18.43125,49.425 C17.9187474,49.1999989 17.4875018,48.987501 17.1375,48.7875 L18.7875,44.1375 C19.5625039,44.5625021 20.5187443,44.9437483 21.65625,45.28125 C22.7937557,45.6187517 24.1874917,45.7875 25.8375,45.7875 Z M46.125,50.8125 C45.4499966,50.8125 44.7375038,50.7687504 43.9875,50.68125 C43.2374962,50.5937496 42.5125035,50.4750008 41.8125,50.325 C41.1124965,50.1749993 40.4750029,50.0125009 39.9,49.8375 C39.3249971,49.6624991 38.8750016,49.5000007 38.55,49.35 L39.6375,44.7 C40.2875033,44.9750014 41.1187449,45.2687484 42.13125,45.58125 C43.1437551,45.8937516 44.3999925,46.05 45.9,46.05 C47.6250086,46.05 48.887496,45.7250033 49.6875,45.075 C50.487504,44.4249967 50.8875,43.5500055 50.8875,42.45 C50.8875,41.7749966 50.7437514,41.2062523 50.45625,40.74375 C50.1687486,40.2812477 49.7750025,39.9062514 49.275,39.61875 C48.7749975,39.3312486 48.1812534,39.1312506 47.49375,39.01875 C46.8062466,38.9062494 46.0750039,38.85 45.3,38.85 L43.125,38.85 L43.125,34.35 L45.6,34.35 C46.1500027,34.35 46.6812474,34.3000005 47.19375,34.2 C47.7062526,34.0999995 48.162498,33.9312512 48.5625,33.69375 C48.962502,33.4562488 49.2812488,33.1312521 49.51875,32.71875 C49.7562512,32.3062479 49.875,31.7875031 49.875,31.1625 C49.875,30.6874976 49.775001,30.2750017 49.575,29.925 C49.374999,29.5749983 49.1187516,29.2875011 48.80625,29.0625 C48.4937484,28.8374989 48.1312521,28.6687506 47.71875,28.55625 C47.3062479,28.4437494 46.8875021,28.3875 46.4625,28.3875 C45.3874946,28.3875 44.3937546,28.5499984 43.48125,28.875 C42.5687454,29.2000016 41.7375038,29.5999976 40.9875,30.075 L39,25.9875 C39.400002,25.7374988 39.8687473,25.4750014 40.40625,25.2 C40.9437527,24.9249986 41.5374968,24.6750011 42.1875,24.45 C42.8375032,24.2249989 43.5312463,24.0375007 44.26875,23.8875 C45.0062537,23.7374992 45.7874959,23.6625 46.6125,23.6625 C48.1375076,23.6625 49.4562444,23.8437482 50.56875,24.20625 C51.6812556,24.5687518 52.5999964,25.0812467 53.325,25.74375 C54.0500036,26.4062533 54.5874982,27.1812456 54.9375,28.06875 C55.2875017,28.9562544 55.4625,29.9249948 55.4625,30.975 C55.4625,32.0000051 55.1750029,32.9937452 54.6,33.95625 C54.0249971,34.9187548 53.2500049,35.6499975 52.275,36.15 C53.6250067,36.7000028 54.6687463,37.5187446 55.40625,38.60625 C56.1437537,39.6937554 56.5125,40.9999924 56.5125,42.525 C56.5125,43.725006 56.312502,44.8312449 55.9125,45.84375 C55.512498,46.8562551 54.8875042,47.7312463 54.0375,48.46875 C53.1874957,49.2062537 52.1062566,49.7812479 50.79375,50.19375 C49.4812434,50.6062521 47.925009,50.8125 46.125,50.8125 Z" id="S3" stroke="#FFFFFF" fill="#FFFFFF" fill-rule="nonzero"></path>
                </g>
                <path d="M16.154,18.382 C16.6380024,18.382 17.0376651,18.3416671 17.353,18.261 C17.6683349,18.1803329 17.9213324,18.070334 18.112,17.931 C18.3026676,17.791666 18.4346663,17.6266676 18.508,17.436 C18.5813337,17.2453324 18.618,17.0326678 18.618,16.798 C18.618,16.2993308 18.3833357,15.8850016 17.914,15.555 C17.4446643,15.2249983 16.6380057,14.8693352 15.494,14.488 C14.9953308,14.3119991 14.4966692,14.1103345 13.998,13.883 C13.4993308,13.6556655 13.052002,13.3696684 12.656,13.025 C12.259998,12.6803316 11.9373346,12.2623358 11.688,11.771 C11.4386654,11.2796642 11.314,10.6820035 11.314,9.978 C11.314,9.27399648 11.4459987,8.63966949 11.71,8.075 C11.9740013,7.51033051 12.3479976,7.03000198 12.832,6.634 C13.3160024,6.23799802 13.9026632,5.93366773 14.592,5.721 C15.2813368,5.50833227 16.0586623,5.402 16.924,5.402 C17.9506718,5.402 18.8379963,5.5119989 19.586,5.732 C20.3340037,5.9520011 20.9499976,6.19399868 21.434,6.458 L20.444,9.164 C20.0186645,8.9439989 19.5456693,8.74966751 19.025,8.581 C18.5043307,8.41233249 17.877337,8.328 17.144,8.328 C16.3226626,8.328 15.7323351,8.44166553 15.373,8.669 C15.0136649,8.89633447 14.834,9.24466432 14.834,9.714 C14.834,9.99266806 14.8999993,10.2273324 15.032,10.418 C15.1640007,10.6086676 15.3509988,10.7809992 15.593,10.935 C15.8350012,11.0890008 16.1136651,11.2283327 16.429,11.353 C16.7443349,11.4776673 17.0926648,11.6059993 17.474,11.738 C18.266004,12.0313348 18.9553304,12.3209986 19.542,12.607 C20.1286696,12.8930014 20.6163314,13.2266648 21.005,13.608 C21.3936686,13.9893352 21.6833324,14.4366641 21.874,14.95 C22.0646676,15.4633359 22.16,16.086663 22.16,16.82 C22.16,18.2426738 21.6613383,19.3463294 20.664,20.131 C19.6666617,20.9156706 18.1633434,21.308 16.154,21.308 C15.47933,21.308 14.8706694,21.2676671 14.328,21.187 C13.7853306,21.1063329 13.3050021,21.0073339 12.887,20.89 C12.4689979,20.7726661 12.1096682,20.6480007 11.809,20.516 C11.5083318,20.3839993 11.2553344,20.2593339 11.05,20.142 L12.018,17.414 C12.4726689,17.6633346 13.0336633,17.886999 13.701,18.085 C14.3683367,18.283001 15.1859952,18.382 16.154,18.382 Z M27.858,21 L24.58,21 L24.58,9.428 L27.858,9.428 L27.858,21 Z M28.166,6.084 C28.166,6.68533634 27.9716686,7.15833161 27.583,7.503 C27.1943314,7.84766839 26.7360026,8.02 26.208,8.02 C25.6799974,8.02 25.2216686,7.84766839 24.833,7.503 C24.4443314,7.15833161 24.25,6.68533634 24.25,6.084 C24.25,5.48266366 24.4443314,5.00966839 24.833,4.665 C25.2216686,4.32033161 25.6799974,4.148 26.208,4.148 C26.7360026,4.148 27.1943314,4.32033161 27.583,4.665 C27.9716686,5.00966839 28.166,5.48266366 28.166,6.084 Z M30.938,9.824 C31.4953361,9.66266586 32.2139956,9.51233403 33.094,9.373 C33.9740044,9.23366597 34.8979952,9.164 35.866,9.164 C36.8486716,9.164 37.6663301,9.29233205 38.319,9.549 C38.9716699,9.80566795 39.4886648,10.1686643 39.87,10.638 C40.2513352,11.1073357 40.5226659,11.6646634 40.684,12.31 C40.8453341,12.9553366 40.926,13.673996 40.926,14.466 L40.926,21 L37.648,21 L37.648,14.862 C37.648,13.8059947 37.5086681,13.0580022 37.23,12.618 C36.9513319,12.1779978 36.4306705,11.958 35.668,11.958 C35.4333322,11.958 35.1840013,11.9689999 34.92,11.991 C34.6559987,12.0130001 34.4213344,12.0386665 34.216,12.068 L34.216,21 L30.938,21 L30.938,9.824 Z M47.174,13.608 C47.4966683,13.2559982 47.8303316,12.8893352 48.175,12.508 C48.5196684,12.1266648 48.8533317,11.7490019 49.176,11.375 C49.4986683,11.0009981 49.8029986,10.645335 50.089,10.308 C50.3750014,9.97066498 50.6206656,9.67733458 50.826,9.428 L54.72,9.428 C53.9426628,10.3226711 53.1836704,11.1769959 52.443,11.991 C51.7023296,12.8050041 50.8920044,13.6446623 50.012,14.51 C50.4520022,14.906002 50.9066643,15.3789972 51.376,15.929 C51.8453357,16.4790027 52.2999978,17.0473304 52.74,17.634 C53.1800022,18.2206696 53.5833315,18.8073304 53.95,19.394 C54.3166685,19.9806696 54.6246654,20.5159976 54.874,21 L51.112,21 C50.8773322,20.6186648 50.6096682,20.1970023 50.309,19.735 C50.0083318,19.2729977 49.689335,18.8110023 49.352,18.349 C49.014665,17.8869977 48.6590019,17.4433355 48.285,17.018 C47.9109981,16.5926645 47.5406685,16.2333348 47.174,15.94 L47.174,21 L43.896,21 L43.896,4.456 L47.174,3.928 L47.174,13.608 Z M59.956,18.646 C60.5573363,18.646 60.9826654,18.5873339 61.232,18.47 C61.4813346,18.3526661 61.606,18.125335 61.606,17.788 C61.606,17.5239987 61.4446683,17.293001 61.122,17.095 C60.7993317,16.896999 60.3080033,16.6733346 59.648,16.424 C59.1346641,16.2333324 58.6690021,16.0353344 58.251,15.83 C57.8329979,15.6246656 57.4773348,15.3790014 57.184,15.093 C56.8906652,14.8069986 56.6633341,14.466002 56.502,14.07 C56.3406659,13.673998 56.26,13.1973361 56.26,12.64 C56.26,11.5546612 56.6633293,10.6966698 57.47,10.066 C58.2766707,9.43533018 59.383993,9.12 60.792,9.12 C61.4960035,9.12 62.1706634,9.18233271 62.816,9.307 C63.4613366,9.43166729 63.9746648,9.5673326 64.356,9.714 L63.784,12.266 C63.4026648,12.1339993 62.9883356,12.0166672 62.541,11.914 C62.0936644,11.8113328 61.5913361,11.76 61.034,11.76 C60.0073282,11.76 59.494,12.0459971 59.494,12.618 C59.494,12.7500007 59.5159998,12.8673328 59.56,12.97 C59.6040002,13.0726672 59.6919993,13.1716662 59.824,13.267 C59.9560007,13.3623338 60.1356655,13.4649995 60.363,13.575 C60.5903345,13.6850005 60.8799982,13.8059993 61.232,13.938 C61.9506703,14.2020013 62.5446643,14.4623321 63.014,14.719 C63.4833357,14.975668 63.8536653,15.2543318 64.125,15.555 C64.3963347,15.8556682 64.5869994,16.1893315 64.697,16.556 C64.8070005,16.9226685 64.862,17.3479976 64.862,17.832 C64.862,18.9760057 64.4330043,19.8413304 63.575,20.428 C62.7169957,21.0146696 61.5033412,21.308 59.934,21.308 C58.9073282,21.308 58.0530034,21.2200009 57.371,21.044 C56.6889966,20.8679991 56.2160013,20.7213339 55.952,20.604 L56.502,17.942 C57.0593361,18.1620011 57.6313304,18.3343327 58.218,18.459 C58.8046696,18.5836673 59.3839971,18.646 59.956,18.646 Z" fill="#001B3D" fill-rule="nonzero"></path>
            </g>
            <g id="Dividers" transform="translate(192.000000, 129.000000)" fill="url(#linearGradient-1)" fill-rule="nonzero">
                <polygon id="Line-3" points="0 0 0 293.5 2 293.5 2 0"></polygon>
                <polygon id="Line-3" points="300 0 300 293.5 302 293.5 302 0"></polygon>
            </g>
            <g id="Sink-Arrows" transform="translate(466.000000, 213.000000)">
                <ellipse id="Oval" fill="url(#linearGradient-2)" cx="28.5" cy="78.5" rx="7.5" ry="37.5"></ellipse>
                <ellipse id="Oval-Copy-3" fill="url(#linearGradient-2)" cx="28.5" cy="15.5" rx="7.5" ry="37.5"></ellipse>
                <ellipse id="Oval-Copy-4" fill="url(#linearGradient-2)" cx="28.5" cy="138.5" rx="7.5" ry="37.5"></ellipse>
                <path id="Line-2" d="M122.274956,84.2259684 L120,84.2259684 L120,82.2259684 L122.274956,82.2259684 L122.274956,76.2259684 L136.274956,83.2259684 L122.274956,90.2259684 L122.274956,84.2259684 Z M0,84.2259684 L0,82.2259684 L7,82.2259684 L7,84.2259684 L0,84.2259684 Z M10,84.2259684 L10,82.2259684 L17,82.2259684 L17,84.2259684 L10,84.2259684 Z M20,84.2259684 L20,82.2259684 L27,82.2259684 L27,84.2259684 L20,84.2259684 Z M30,84.2259684 L30,82.2259684 L37,82.2259684 L37,84.2259684 L30,84.2259684 Z M40,84.2259684 L40,82.2259684 L47,82.2259684 L47,84.2259684 L40,84.2259684 Z M50,84.2259684 L50,82.2259684 L57,82.2259684 L57,84.2259684 L50,84.2259684 Z M60,84.2259684 L60,82.2259684 L67,82.2259684 L67,84.2259684 L60,84.2259684 Z M70,84.2259684 L70,82.2259684 L77,82.2259684 L77,84.2259684 L70,84.2259684 Z M80,84.2259684 L80,82.2259684 L87,82.2259684 L87,84.2259684 L80,84.2259684 Z M90,84.2259684 L90,82.2259684 L97,82.2259684 L97,84.2259684 L90,84.2259684 Z M100,84.2259684 L100,82.2259684 L107,82.2259684 L107,84.2259684 L100,84.2259684 Z M110,84.2259684 L110,82.2259684 L117,82.2259684 L117,84.2259684 L110,84.2259684 Z" fill="#001B3D" fill-rule="nonzero"></path>
                <path id="Line-2" d="M53,143.225968 L39,150.225968 L39,136.225968 L53,143.225968 Z M-2.22044605e-16,144.225968 L-2.22044605e-16,142.225968 L7,142.225968 L7,144.225968 L-2.22044605e-16,144.225968 Z M10,144.225968 L10,142.225968 L17,142.225968 L17,144.225968 L10,144.225968 Z M20,144.225968 L20,142.225968 L27,142.225968 L27,144.225968 L20,144.225968 Z M30,144.225968 L30,142.225968 L37,142.225968 L37,144.225968 L30,144.225968 Z" fill="#001B3D" fill-rule="nonzero"></path>
                <path id="Line-2" d="M53,20.5 L39,27.5 L39,13.5 L53,20.5 Z M0,21.5 L0,19.5 L14,19.5 L14,21.5 L0,21.5 Z M24,21.5 L24,19.5 L38,19.5 L38,21.5 L24,21.5 Z" fill="#001B3D" fill-rule="nonzero"></path>
            </g>
            <g id="Transforms" transform="translate(224.721371, 131.000000)">
                <g id="Aggregate" transform="translate(28.278629, 197.000000)">
                    <polygon id="Fill-74" fill="#CB58EB" points="1.13686838e-13 43.0202204 99.9238736 59.9540001 199.84544 43.0202204 99.9238736 26.0846919"></polygon>
                    <polygon id="Fill-79" fill="#CB58EB" points="0.206736663 43.0174706 1.13686838e-13 17.4237163 99.7120786 0.476190476 199.84544 17.5940651 199.516959 42.9577539 99.7120786 59.9540001"></polygon>
                    <polygon id="Fill-75" fill="#CB58EB" points="5.68434189e-14 17.823885 5.68434189e-14 43.1880044 97.3605992 59.9540001 97.3605992 34.8063684"></polygon>
                    <polygon id="Fill-76" fill="#CB58EB" points="100.776761 34.6757847 199.84544 17.823885 199.36429 43.1020671 100.776761 59.9540001"></polygon>
                    <polygon id="Fill-77" fill="#CB58EB" points="100.776761 0.476190476 199.84544 17.437889 199.364396 42.6063057 100.981171 25.8281337"></polygon>
                    <polygon id="Fill-78" fill="#CB58EB" points="1.13686838e-13 17.2204794 1.13686838e-13 42.6063057 99.0686799 25.8051804 98.8616119 0.476190476"></polygon>
                    <polygon id="Fill-74-Copy" fill-opacity="0.33241368" fill="#FFFFFF" points="1.70530257e-13 17.3059347 99.9238736 34.2397144 199.84544 17.3059347 99.9238736 0.370406148"></polygon>
                </g>
                <g id="Sample" transform="translate(28.278629, 131.000000)">
                    <polygon id="Fill-74" fill="#3084FF" points="1.13686838e-13 51.6242645 99.9238736 71.9448002 199.84544 51.6242645 99.9238736 31.3016302"></polygon>
                    <polygon id="Fill-79" fill="#3084FF" points="0.206736663 51.6209648 1.13686838e-13 20.9084596 99.7120786 0.571428571 199.84544 21.1128781 199.516959 51.5493047 99.7120786 71.9448002"></polygon>
                    <polygon id="Fill-75" fill="#3084FF" points="5.68434189e-14 21.388662 5.68434189e-14 51.8256053 97.3605992 71.9448002 97.3605992 41.7676421"></polygon>
                    <polygon id="Fill-76" fill="#3084FF" points="100.776761 41.6109417 199.84544 21.388662 199.36429 51.7224806 100.776761 71.9448002"></polygon>
                    <polygon id="Fill-77" fill="#3084FF" points="100.776761 0.571428571 199.84544 20.9254668 199.364396 51.1275668 100.981171 30.9937605"></polygon>
                    <polygon id="Fill-78" fill="#3084FF" points="1.13686838e-13 20.6645753 1.13686838e-13 51.1275668 99.0686799 30.9662165 98.8616119 0.571428571"></polygon>
                    <polygon id="Fill-74-Copy" fill-opacity="0.33241368" fill="#FFFFFF" points="1.70530257e-13 20.7671217 99.9238736 41.0876573 199.84544 20.7671217 99.9238736 0.444487378"></polygon>
                </g>
                <g id="Parse" transform="translate(28.278629, 67.000000)">
                    <polygon id="Fill-74" fill-opacity="0.6" fill="#19E7FF" points="1.13686838e-13 52.4612587 99.9238736 72.9443586 199.84544 52.4612587 99.9238736 31.9760433"></polygon>
                    <polygon id="Fill-79" fill-opacity="0.6" fill="#19E7FF" points="0.206736663 52.4579325 1.13686838e-13 21.4997273 99.7120786 1 199.84544 21.7057811 199.516959 52.3856991 99.7120786 72.9443586"></polygon>
                    <polygon id="Fill-75" fill="#19E7FF" points="5.68434189e-14 21.9837713 5.68434189e-14 52.6642102 97.3605992 72.9443586 97.3605992 42.5257832"></polygon>
                    <polygon id="Fill-76" fill="#19E7FF" points="100.776761 42.3678292 199.84544 21.9837713 199.36429 52.5602604 100.776761 72.9443586"></polygon>
                    <polygon id="Fill-77" fill-opacity="0.6" fill="#19E7FF" points="100.776761 1 199.84544 21.5168705 199.364396 51.9605873 100.981171 31.6657106"></polygon>
                    <polygon id="Fill-78" fill-opacity="0.6" fill="#19E7FF" points="1.13686838e-13 21.2538919 1.13686838e-13 51.9605873 99.0686799 31.6379463 98.8616119 1"></polygon>
                    <polygon id="Fill-74-Copy" fill-opacity="0.33241368" fill="#FFFFFF" points="1.70530257e-13 21.3572587 99.9238736 41.8403586 199.84544 21.3572587 99.9238736 0.872043277"></polygon>
                </g>
                <path d="M141.724216,112.783248 L146.23819,112.783248 C148.465183,112.783248 149.475063,114.275409 148.702789,116.524897 C147.938238,118.751891 145.843823,120.244052 143.564341,120.244052 L141.427326,120.244052 L140.274064,123.603289 L138.009579,123.603289 L141.724216,112.783248 Z M143.350288,114.642825 L142.058017,118.40697 L143.700143,118.40697 C144.997349,118.40697 145.98121,117.74712 146.398238,116.532396 C146.820414,115.302675 146.304617,114.642825 144.999913,114.642825 L143.350288,114.642825 Z M151.344164,122.088633 C152.356434,122.088633 153.342646,121.443779 153.630961,120.60397 L153.839475,119.996608 L152.131316,120.101584 C151.17086,120.169069 150.597623,120.506492 150.394258,121.098858 C150.18317,121.713718 150.586836,122.088633 151.344164,122.088633 Z M150.060568,123.73076 C148.470929,123.73076 147.688335,122.755981 148.208333,121.241325 C148.723182,119.741666 150.169034,118.871864 152.264755,118.751891 L154.307988,118.631918 L154.53967,117.957072 C154.7765,117.267229 154.415474,116.877317 153.515678,116.877317 C152.728357,116.877317 152.110803,117.147256 151.760944,117.642143 L149.751401,117.642143 C150.419015,116.112491 152.150699,115.152709 154.227727,115.152709 C156.41723,115.152709 157.299203,116.187474 156.691681,117.957072 L154.753274,123.603289 L152.638754,123.603289 L153.009446,122.523534 L152.874476,122.523534 C152.187075,123.280862 151.132824,123.73076 150.060568,123.73076 Z M156.897786,123.603289 L159.737179,115.332668 L161.851699,115.332668 L161.398631,116.652368 L161.533601,116.652368 C162.034218,115.827556 163.105261,115.197699 164.155022,115.197699 C164.454954,115.197699 164.809499,115.23519 164.973788,115.302675 L164.291613,117.289723 C164.142321,117.222239 163.655605,117.154754 163.303185,117.154754 C162.110956,117.154754 161.051663,117.859594 160.652654,119.02183 L159.07979,123.603289 L156.897786,123.603289 Z M165.20919,117.762116 C165.747208,116.194972 167.484714,115.152709 169.546746,115.152709 C171.646269,115.152709 172.582301,116.03001 172.159108,117.61215 L170.142066,117.61215 C170.212363,117.079771 169.823244,116.749846 169.013428,116.749846 C168.233605,116.749846 167.535247,117.102266 167.35505,117.627147 C167.21604,118.032055 167.48351,118.279499 168.189129,118.451959 L169.625435,118.789383 C171.109081,119.141803 171.597235,119.816649 171.172484,121.053868 C170.60615,122.703493 168.758295,123.783248 166.591287,123.783248 C164.409283,123.783248 163.395918,122.89095 163.791693,121.301312 L165.921209,121.301312 C165.893103,121.863684 166.314789,122.186111 167.184591,122.186111 C168.031899,122.186111 168.737755,121.833691 168.920527,121.301312 C169.059536,120.896404 168.829558,120.64896 168.156282,120.491496 L166.772464,120.154073 C165.288818,119.801653 164.771569,119.036826 165.20919,117.762116 Z M177.993139,116.824829 C176.980869,116.824829 176.026552,117.529669 175.583452,118.601925 L179.107651,118.601925 C179.438501,117.507174 179.012907,116.824829 177.993139,116.824829 Z M178.243932,121.248824 L180.27597,121.248824 C179.420674,122.800971 177.651274,123.783248 175.626734,123.783248 C173.107306,123.783248 172.168384,122.193609 173.089964,119.509219 C174.014118,116.817331 176.100256,115.152709 178.559697,115.152709 C180.996643,115.152709 181.903447,116.704856 181.002461,119.32926 L180.773354,119.996608 L175.097144,119.996608 L175.05853,120.109083 C174.666347,121.338803 175.12361,122.103629 176.263351,122.103629 C177.125655,122.103629 177.823565,121.796199 178.243932,121.248824 Z" id="Parse" fill="#FFFFFF" fill-rule="nonzero" transform="translate(159.676624, 118.283248) rotate(-12.000000) translate(-159.676624, -118.283248) "></path>
                <path d="M137.906466,187.228116 L140.120295,186.795761 C140.019591,187.646949 140.781626,188.031151 142.0705,187.779438 C143.260812,187.546973 144.236733,186.816245 144.429437,186.003947 C144.592086,185.318337 144.13991,185.029974 142.865147,185.008865 L141.510521,184.989139 C139.613794,184.968679 138.877972,184.138723 139.266916,182.499221 C139.747792,180.4722 141.724623,178.813976 144.249299,178.320913 C146.660251,177.850061 148.051422,178.843417 147.665299,180.745327 L145.512122,181.165837 C145.607523,180.337006 144.938235,179.927584 143.83132,180.143761 C142.686497,180.367342 141.804582,181.037068 141.61011,181.856819 C141.452764,182.520072 141.885731,182.797973 143.103378,182.816022 L144.357164,182.83412 C146.447988,182.859316 147.174698,183.605768 146.778683,185.275079 C146.264216,187.443693 144.258826,189.100388 141.514284,189.63639 C138.90621,190.145739 137.514291,189.216493 137.906466,187.228116 Z M151.216708,186.042957 C152.240225,185.843067 153.165591,185.051143 153.363598,184.216487 L153.5068,183.612852 L151.791351,184.047373 C150.827738,184.299527 150.285703,184.725201 150.146037,185.313931 C150.001067,185.925018 150.450965,186.192505 151.216708,186.042957 Z M150.101698,187.817151 C148.494396,188.131053 147.594567,187.382875 147.951688,185.877514 C148.305273,184.387058 149.670339,183.296051 151.775987,182.771112 L153.828563,182.256537 L153.987676,181.585832 C154.150325,180.900222 153.741871,180.610427 152.832078,180.788107 C152.036009,180.943577 151.441651,181.315506 151.14301,181.842893 L149.111138,182.239712 C149.615846,180.691314 151.259901,179.460537 153.360007,179.050392 C155.573837,178.618037 156.580829,179.402142 156.163598,181.16088 L154.83235,186.772449 L152.694336,187.189997 L152.948917,186.116868 L152.812448,186.14352 C152.201736,186.980599 151.185868,187.605416 150.101698,187.817151 Z M157.00069,186.348978 L158.950712,178.129111 L161.088726,177.711562 L160.770499,179.052973 L160.906968,179.026321 C161.470899,178.020704 162.480683,177.269149 163.580016,177.054452 C164.755165,176.824949 165.424454,177.234371 165.53175,178.123114 L165.668219,178.096462 C166.272336,177.104317 167.378402,176.312638 168.54597,176.084615 C170.213924,175.758868 170.999791,176.621693 170.598472,178.313361 L169.260152,183.954738 L167.053904,184.385613 L168.256093,179.318061 C168.487692,178.341812 168.140129,177.947734 167.207591,178.129856 C166.312961,178.304575 165.588253,179.043098 165.381405,179.915015 L164.188055,184.945305 L162.065205,185.359892 L163.28861,180.202913 C163.495457,179.330996 163.098359,178.932378 162.234055,179.101174 C161.369752,179.26997 160.598296,180.053157 160.380841,180.969788 L159.206938,185.918103 L157.00069,186.348978 Z M178.209496,174.239997 C180.324764,173.826891 181.246419,175.15358 180.61527,177.814045 C179.985888,180.467057 178.328028,182.304626 176.235504,182.71329 C175.03761,182.947236 174.242222,182.612189 174.039662,181.820228 L173.903193,181.84688 L172.957353,185.833851 L170.751105,186.264725 L173.348188,175.317323 L175.486202,174.899775 L175.166207,176.248638 L175.302676,176.221986 C175.976795,175.209063 177.057091,174.465058 178.209496,174.239997 Z M175.876623,181.056375 C177.066935,180.82391 177.987712,179.77703 178.348369,178.256764 C178.70549,176.751403 178.210273,175.973956 177.035124,176.203459 C175.859975,176.432962 174.912917,177.49919 174.555796,179.00455 C174.198675,180.509911 174.709055,181.284398 175.876623,181.056375 Z M181.512032,181.56198 L184.206351,170.204702 L186.412599,169.773828 L183.71828,181.131105 L181.512032,181.56198 Z M191.222559,173.240803 C190.199042,173.440693 189.312604,174.281871 188.983974,175.362354 L192.54733,174.66644 C192.759958,173.587291 192.253658,173.039432 191.222559,173.240803 Z M191.968742,177.288211 L194.023358,176.886951 C193.331388,178.493242 191.651703,179.752298 189.604668,180.152078 C187.057248,180.649583 185.930889,179.362871 186.563807,176.694954 C187.198492,174.019585 189.122457,172.066083 191.609225,171.580424 C194.073248,171.099207 195.162956,172.357542 194.544182,174.96584 L194.386836,175.629093 L188.647558,176.749959 L188.621039,176.861743 C188.361426,178.077994 188.908932,178.695983 190.061337,178.470922 C190.933222,178.300645 191.604654,177.878129 191.968742,177.288211 Z" id="Sample" fill="#FFFFFF" fill-rule="nonzero"></path>
                <path id="Line" d="M13.379204,154.590782 C9.79299921,148.128919 8,140.926538 8,133 C8,120.153085 12.3775094,109.876139 21.1211537,102.246524 L21.8746297,101.589049 L23.1895806,103.096 L22.4361047,103.753476 C14.1415768,110.991197 10,120.714251 10,133 C10,140.470383 11.6548675,147.239403 14.964406,153.322645 L19.4991214,149.694941 L22.7786292,165 L8.56687739,158.440571 L13.379204,154.590782 Z" fill="url(#linearGradient-3)" fill-rule="nonzero"></path>
                <path id="Line" d="M13.3141739,218.644231 C3.76775209,204.063968 -1,186.174861 -1,165 C-1,138.12301 6.34863133,117.202725 21.0670751,102.297369 L21.7697064,101.585815 L23.1928146,102.991077 L22.4901833,103.702631 C8.17045481,118.204209 1,138.617256 1,165 C1,185.72483 5.63088086,203.179546 14.8818472,217.386978 L19.4804629,213.698951 L22.7786292,229 L8.55889027,222.457904 L13.3141739,218.644231 Z" fill="url(#linearGradient-4)" fill-rule="nonzero"></path>
                <path d="M144.190506,246.517035 L144.132342,243.999273 L140.407669,244.646141 L138.849604,247.444596 L136.623616,247.831186 L143.419262,236.047176 L146.027268,235.594241 L146.592809,246.099824 L144.190506,246.517035 Z M143.939735,238.161318 L141.388176,242.763668 L144.165151,242.281388 L144.071971,238.138352 L143.939735,238.161318 Z M151.87704,243.374389 C153.037786,243.172801 153.989564,242.118343 154.408358,240.620013 C154.827152,239.121682 154.392601,238.300642 153.239201,238.500954 C152.085801,238.701266 151.153905,239.75962 150.737269,241.250227 C150.316316,242.75628 150.716294,243.575977 151.87704,243.374389 Z M150.414255,248.507798 C148.261732,248.88163 147.114989,248.132837 147.401546,246.657472 L149.517337,246.29002 C149.48074,246.79607 149.990327,247.023553 150.915986,246.862792 C152.062039,246.663756 152.885999,245.99157 153.153682,245.033874 L153.594063,243.458311 L153.461826,243.481276 C152.763277,244.455013 151.777242,245.081863 150.638535,245.279623 C148.618249,245.630489 147.821809,244.203589 148.538508,241.639436 C149.276795,238.99805 151.010996,237.094909 153.068015,236.737664 C154.162643,236.547559 154.935901,236.957051 155.108138,237.8163 L155.240375,237.793334 L155.62247,236.426301 L157.694182,236.066504 L155.321734,244.554468 C154.762622,246.554816 152.860638,248.082932 150.414255,248.507798 Z M161.589107,241.687683 C162.749853,241.486095 163.70163,240.431637 164.120424,238.933307 C164.539219,237.434976 164.104667,236.613935 162.951267,236.814248 C161.797868,237.01456 160.865971,238.072914 160.449336,239.56352 C160.028383,241.069574 160.42836,241.889271 161.589107,241.687683 Z M160.126322,246.821092 C157.973799,247.194923 156.827055,246.446131 157.113613,244.970766 L159.229403,244.603314 C159.192807,245.109364 159.702394,245.336846 160.628052,245.176086 C161.774105,244.97705 162.598065,244.304864 162.865748,243.347168 L163.30613,241.771604 L163.173893,241.79457 C162.475344,242.768307 161.489309,243.395157 160.350602,243.592917 C158.330316,243.943783 157.533875,242.516883 158.250575,239.95273 C158.988862,237.311344 160.723063,235.408203 162.780081,235.050958 C163.874709,234.860853 164.647968,235.270345 164.820204,236.129594 L164.952441,236.106628 L165.334537,234.739594 L167.406248,234.379798 L165.0338,242.867762 C164.474689,244.86811 162.572705,246.396226 160.126322,246.821092 Z M167.170342,242.5261 L169.551425,234.007242 L171.623137,233.647446 L171.243199,235.006756 L171.375436,234.98379 C171.825945,234.097221 172.844779,233.30301 173.873289,233.124387 C174.167149,233.073352 174.516333,233.049451 174.680567,233.087065 L174.108503,235.133753 C173.958962,235.093588 173.478829,235.110837 173.133543,235.170803 C171.965451,235.373667 170.961762,236.238733 170.627158,237.435852 L169.308172,242.15482 L167.170342,242.5261 Z M178.98818,233.83069 C177.996403,234.002933 177.095565,234.850136 176.713401,235.967334 L180.166254,235.367673 C180.43735,234.247719 179.987303,233.657171 178.98818,233.83069 Z M179.4483,238.086361 L181.4392,237.740599 C180.676443,239.394196 178.990469,240.649647 177.006915,240.994133 C174.538493,241.422827 173.541538,240.0381 174.314364,237.273139 C175.08935,234.500456 177.052581,232.528145 179.462231,232.109658 C181.849842,231.694999 182.813511,233.048765 182.057954,235.751938 L181.865827,236.439317 L176.30453,237.405154 L176.272149,237.521004 C175.947503,238.78253 176.432576,239.447828 177.549243,239.253895 C178.39409,239.10717 179.062971,238.689718 179.4483,238.086361 Z M186.706773,237.325468 C187.867519,237.12388 188.819297,236.069422 189.238091,234.571092 C189.656885,233.072761 189.222334,232.25172 188.068934,232.452033 C186.915534,232.652345 185.983638,233.710698 185.567002,235.201305 C185.146049,236.707359 185.546027,237.527056 186.706773,237.325468 Z M185.243988,242.458877 C183.091465,242.832708 181.944722,242.083916 182.231279,240.608551 L184.34707,240.241099 C184.310473,240.747149 184.82006,240.974631 185.745719,240.813871 C186.891772,240.614835 187.715732,239.942649 187.983415,238.984953 L188.423796,237.409389 L188.291559,237.432355 C187.59301,238.406092 186.606975,239.032942 185.468269,239.230702 C183.447982,239.581568 182.651542,238.154668 183.368241,235.590515 C184.106528,232.949129 185.840729,231.045988 187.897748,230.688743 C188.992376,230.498637 189.765634,230.908129 189.937871,231.767378 L190.070108,231.744413 L190.452203,230.377379 L192.523915,230.017583 L190.151467,238.505547 C189.592355,240.505895 187.690371,242.034011 185.243988,242.458877 Z M195.647978,236.09597 C196.639755,235.923727 197.574748,235.129379 197.816526,234.264364 L197.991384,233.638772 L196.322893,234.031419 C195.385153,234.260414 194.839873,234.685793 194.669334,235.295938 C194.492317,235.929252 194.905982,236.224833 195.647978,236.09597 Z M194.469952,237.909868 C192.912495,238.180353 192.098502,237.366423 192.534567,235.806306 C192.966313,234.261635 194.34074,233.170517 196.388219,232.697354 L198.384273,232.233122 L198.578559,231.53802 C198.777163,230.827472 198.404548,230.510065 197.522969,230.66317 C196.751587,230.797137 196.159618,231.164489 195.840825,231.704851 L193.871965,232.046786 C194.45193,230.44698 196.102042,229.219803 198.137021,228.866385 C200.282198,228.49383 201.196464,229.349133 200.687003,231.171844 L199.061477,236.987528 L196.989766,237.347325 L197.300623,236.235162 L197.168386,236.258128 C196.531604,237.110912 195.520501,237.727418 194.469952,237.909868 Z M204.719005,225.974355 L206.856835,225.603076 L206.267501,227.711551 L207.949848,227.419376 L207.455498,229.188023 L205.773151,229.480198 L204.702419,233.310981 C204.495181,234.052423 204.723442,234.336112 205.450745,234.2098 C205.729912,234.161317 205.879001,234.128076 206.091179,234.069182 L205.61194,235.783766 C205.332355,235.883761 204.922692,235.998998 204.511288,236.070447 C202.542427,236.412381 201.951509,235.875693 202.415636,234.215172 L203.635321,229.851478 L202.371724,230.070928 L202.866073,228.302281 L204.129671,228.08283 L204.719005,225.974355 Z M212.767364,227.964219 C211.775587,228.136462 210.874749,228.983665 210.492586,230.100863 L213.945438,229.501202 C214.216534,228.381248 213.766488,227.7907 212.767364,227.964219 Z M213.227484,232.21989 L215.218385,231.874128 C214.455627,233.527725 212.769653,234.783176 210.786099,235.127662 C208.317677,235.556356 207.320722,234.171628 208.093549,231.406668 C208.868534,228.633985 210.831765,226.661674 213.241415,226.243187 C215.629026,225.828528 216.592695,227.182294 215.837139,229.885467 L215.645011,230.572846 L210.083715,231.538683 L210.051334,231.654533 C209.726687,232.916059 210.21176,233.581357 211.328427,233.387424 C212.173274,233.240699 212.842156,232.823247 213.227484,232.21989 Z" id="Aggregate" fill="#FFFFFF" fill-rule="nonzero"></path>
                <path d="M81.7326292,5.754 L81.7326292,8.68 L77.1346292,8.68 L77.1346292,21 L73.7026292,21 L73.7026292,8.68 L69.1046292,8.68 L69.1046292,5.754 L81.7326292,5.754 Z M89.1686292,12.332 C88.8752944,12.2586663 88.5306312,12.1816671 88.1346292,12.101 C87.7386272,12.0203329 87.3132982,11.98 86.8586292,11.98 C86.6532949,11.98 86.4076306,11.9983332 86.1216292,12.035 C85.8356278,12.0716668 85.6192966,12.1119998 85.4726292,12.156 L85.4726292,21 L82.1946292,21 L82.1946292,10.044 C82.7812988,9.83866564 83.4742919,9.64433425 84.2736292,9.461 C85.0729665,9.27766575 85.9639576,9.186 86.9466292,9.186 C87.1226301,9.186 87.3352946,9.19699989 87.5846292,9.219 C87.8339638,9.24100011 88.0832946,9.27033315 88.3326292,9.307 C88.5819638,9.34366685 88.8312946,9.38766641 89.0806292,9.439 C89.3299638,9.49033359 89.5426283,9.5526663 89.7186292,9.626 L89.1686292,12.332 Z M95.6806292,18.712 C96.0032975,18.712 96.3112944,18.7046667 96.6046292,18.69 C96.897964,18.6753333 97.1326283,18.6533335 97.3086292,18.624 L97.3086292,16.138 C97.1766286,16.1086665 96.9786305,16.0793335 96.7146292,16.05 C96.4506279,16.0206665 96.2086303,16.006 95.9886292,16.006 C95.6806277,16.006 95.3909639,16.0243332 95.1196292,16.061 C94.8482945,16.0976668 94.6099636,16.1673328 94.4046292,16.27 C94.1992949,16.3726672 94.0379631,16.5119991 93.9206292,16.688 C93.8032953,16.8640009 93.7446292,17.0839987 93.7446292,17.348 C93.7446292,17.8613359 93.9169608,18.216999 94.2616292,18.415 C94.6062976,18.613001 95.0792929,18.712 95.6806292,18.712 Z M95.4166292,9.12 C96.3846341,9.12 97.1912927,9.2299989 97.8366292,9.45 C98.4819658,9.6700011 98.9989606,9.98533128 99.3876292,10.396 C99.7762978,10.8066687 100.051295,11.3053304 100.212629,11.892 C100.373963,12.4786696 100.454629,13.1313297 100.454629,13.85 L100.454629,20.67 C99.9852935,20.7726672 99.3326334,20.893666 98.4966292,21.033 C97.660625,21.172334 96.6486352,21.242 95.4606292,21.242 C94.7126255,21.242 94.0342989,21.1760007 93.4256292,21.044 C92.8169595,20.9119993 92.2926314,20.6956682 91.8526292,20.395 C91.412627,20.0943318 91.0752971,19.7020024 90.8406292,19.218 C90.6059614,18.7339976 90.4886292,18.1400035 90.4886292,17.436 C90.4886292,16.76133 90.6242945,16.1893357 90.8956292,15.72 C91.1669639,15.2506643 91.5299603,14.8766681 91.9846292,14.598 C92.4392982,14.3193319 92.9599596,14.1176673 93.5466292,13.993 C94.1332988,13.8683327 94.7419594,13.806 95.3726292,13.806 C95.7979647,13.806 96.1756276,13.8243332 96.5056292,13.861 C96.8356309,13.8976669 97.1032949,13.945333 97.3086292,14.004 L97.3086292,13.696 C97.3086292,13.1386639 97.1399642,12.691335 96.8026292,12.354 C96.4652942,12.016665 95.8786334,11.848 95.0426292,11.848 C94.4852931,11.848 93.9352986,11.8883329 93.3926292,11.969 C92.8499598,12.0496671 92.3806312,12.1633326 91.9846292,12.31 L91.5666292,9.67 C91.7572968,9.61133304 91.9956278,9.54900033 92.2816292,9.483 C92.5676306,9.41699967 92.8792942,9.35833359 93.2166292,9.307 C93.5539642,9.25566641 93.9096273,9.21166685 94.2836292,9.175 C94.6576311,9.13833315 95.035294,9.12 95.4166292,9.12 Z M103.424629,9.824 C103.981965,9.66266586 104.700625,9.51233403 105.580629,9.373 C106.460634,9.23366597 107.384624,9.164 108.352629,9.164 C109.335301,9.164 110.152959,9.29233205 110.805629,9.549 C111.458299,9.80566795 111.975294,10.1686643 112.356629,10.638 C112.737964,11.1073357 113.009295,11.6646634 113.170629,12.31 C113.331963,12.9553366 113.412629,13.673996 113.412629,14.466 L113.412629,21 L110.134629,21 L110.134629,14.862 C110.134629,13.8059947 109.995297,13.0580022 109.716629,12.618 C109.437961,12.1779978 108.9173,11.958 108.154629,11.958 C107.919961,11.958 107.670631,11.9689999 107.406629,11.991 C107.142628,12.0130001 106.907964,12.0386665 106.702629,12.068 L106.702629,21 L103.424629,21 L103.424629,9.824 Z M119.704629,18.646 C120.305966,18.646 120.731295,18.5873339 120.980629,18.47 C121.229964,18.3526661 121.354629,18.125335 121.354629,17.788 C121.354629,17.5239987 121.193297,17.293001 120.870629,17.095 C120.547961,16.896999 120.056633,16.6733346 119.396629,16.424 C118.883293,16.2333324 118.417631,16.0353344 117.999629,15.83 C117.581627,15.6246656 117.225964,15.3790014 116.932629,15.093 C116.639294,14.8069986 116.411963,14.466002 116.250629,14.07 C116.089295,13.673998 116.008629,13.1973361 116.008629,12.64 C116.008629,11.5546612 116.411959,10.6966698 117.218629,10.066 C118.0253,9.43533018 119.132622,9.12 120.540629,9.12 C121.244633,9.12 121.919293,9.18233271 122.564629,9.307 C123.209966,9.43166729 123.723294,9.5673326 124.104629,9.714 L123.532629,12.266 C123.151294,12.1339993 122.736965,12.0166672 122.289629,11.914 C121.842294,11.8113328 121.339965,11.76 120.782629,11.76 C119.755957,11.76 119.242629,12.0459971 119.242629,12.618 C119.242629,12.7500007 119.264629,12.8673328 119.308629,12.97 C119.352629,13.0726672 119.440629,13.1716662 119.572629,13.267 C119.70463,13.3623338 119.884295,13.4649995 120.111629,13.575 C120.338964,13.6850005 120.628627,13.8059993 120.980629,13.938 C121.699299,14.2020013 122.293294,14.4623321 122.762629,14.719 C123.231965,14.975668 123.602295,15.2543318 123.873629,15.555 C124.144964,15.8556682 124.335629,16.1893315 124.445629,16.556 C124.55563,16.9226685 124.610629,17.3479976 124.610629,17.832 C124.610629,18.9760057 124.181634,19.8413304 123.323629,20.428 C122.465625,21.0146696 121.25197,21.308 119.682629,21.308 C118.655957,21.308 117.801633,21.2200009 117.119629,21.044 C116.437626,20.8679991 115.964631,20.7213339 115.700629,20.604 L116.250629,17.942 C116.807965,18.1620011 117.37996,18.3343327 117.966629,18.459 C118.553299,18.5836673 119.132626,18.646 119.704629,18.646 Z M132.068629,3.928 C132.684632,3.928 133.249293,3.99033271 133.762629,4.115 C134.275965,4.23966729 134.671961,4.36066608 134.950629,4.478 L134.312629,7.096 C134.019294,6.96399934 133.700298,6.86500033 133.355629,6.799 C133.010961,6.73299967 132.691964,6.7 132.398629,6.7 C132.002627,6.7 131.668964,6.75499945 131.397629,6.865 C131.126295,6.97500055 130.91363,7.12533238 130.759629,7.316 C130.605628,7.50666762 130.49563,7.73399868 130.429629,7.998 C130.363629,8.26200132 130.330629,8.54799846 130.330629,8.856 L130.330629,9.428 L134.378629,9.428 L134.378629,12.156 L130.330629,12.156 L130.330629,21 L127.052629,21 L127.052629,8.812 C127.052629,7.31599252 127.474292,6.1280044 128.317629,5.248 C129.160967,4.3679956 130.411288,3.928 132.068629,3.928 Z M146.984629,15.192 C146.984629,16.1013379 146.852631,16.9336629 146.588629,17.689 C146.324628,18.4443371 145.943298,19.089664 145.444629,19.625 C144.94596,20.160336 144.348299,20.5746652 143.651629,20.868 C142.954959,21.1613348 142.173967,21.308 141.308629,21.308 C140.457958,21.308 139.684299,21.1613348 138.987629,20.868 C138.290959,20.5746652 137.693298,20.160336 137.194629,19.625 C136.69596,19.089664 136.307297,18.4443371 136.028629,17.689 C135.749961,16.9336629 135.610629,16.1013379 135.610629,15.192 C135.610629,14.2826621 135.753628,13.4540037 136.039629,12.706 C136.325631,11.9579963 136.721627,11.3200026 137.227629,10.792 C137.733632,10.2639974 138.334959,9.8533348 139.031629,9.56 C139.728299,9.2666652 140.487292,9.12 141.308629,9.12 C142.144633,9.12 142.910959,9.2666652 143.607629,9.56 C144.304299,9.8533348 144.90196,10.2639974 145.400629,10.792 C145.899298,11.3200026 146.287961,11.9579963 146.566629,12.706 C146.845297,13.4540037 146.984629,14.2826621 146.984629,15.192 Z M143.640629,15.192 C143.640629,14.1799949 143.438965,13.3843362 143.035629,12.805 C142.632294,12.2256638 142.056633,11.936 141.308629,11.936 C140.560625,11.936 139.981298,12.2256638 139.570629,12.805 C139.15996,13.3843362 138.954629,14.1799949 138.954629,15.192 C138.954629,16.2040051 139.15996,17.006997 139.570629,17.601 C139.981298,18.195003 140.560625,18.492 141.308629,18.492 C142.056633,18.492 142.632294,18.195003 143.035629,17.601 C143.438965,17.006997 143.640629,16.2040051 143.640629,15.192 Z M156.488629,12.332 C156.195294,12.2586663 155.850631,12.1816671 155.454629,12.101 C155.058627,12.0203329 154.633298,11.98 154.178629,11.98 C153.973295,11.98 153.727631,11.9983332 153.441629,12.035 C153.155628,12.0716668 152.939297,12.1119998 152.792629,12.156 L152.792629,21 L149.514629,21 L149.514629,10.044 C150.101299,9.83866564 150.794292,9.64433425 151.593629,9.461 C152.392967,9.27766575 153.283958,9.186 154.266629,9.186 C154.44263,9.186 154.655295,9.19699989 154.904629,9.219 C155.153964,9.24100011 155.403295,9.27033315 155.652629,9.307 C155.901964,9.34366685 156.151295,9.38766641 156.400629,9.439 C156.649964,9.49033359 156.862628,9.5526663 157.038629,9.626 L156.488629,12.332 Z M165.156629,14.862 C165.156629,13.8059947 165.020964,13.0580022 164.749629,12.618 C164.478295,12.1779978 164.012633,11.958 163.352629,11.958 C163.147295,11.958 162.93463,11.9689999 162.714629,11.991 C162.494628,12.0130001 162.281964,12.0386665 162.076629,12.068 L162.076629,21 L158.798629,21 L158.798629,9.824 C159.077297,9.7506663 159.403627,9.67366707 159.777629,9.593 C160.151631,9.51233293 160.547627,9.43900033 160.965629,9.373 C161.383631,9.30699967 161.812627,9.25566685 162.252629,9.219 C162.692631,9.18233315 163.125294,9.164 163.550629,9.164 C164.386633,9.164 165.06496,9.27033227 165.585629,9.483 C166.106298,9.69566773 166.535294,9.9486652 166.872629,10.242 C167.341965,9.90466498 167.88096,9.64066762 168.489629,9.45 C169.098299,9.25933238 169.659293,9.164 170.172629,9.164 C171.096634,9.164 171.855626,9.29233205 172.449629,9.549 C173.043632,9.80566795 173.516627,10.1686643 173.868629,10.638 C174.220631,11.1073357 174.462629,11.6646634 174.594629,12.31 C174.72663,12.9553366 174.792629,13.673996 174.792629,14.466 L174.792629,21 L171.514629,21 L171.514629,14.862 C171.514629,13.8059947 171.378964,13.0580022 171.107629,12.618 C170.836295,12.1779978 170.370633,11.958 169.710629,11.958 C169.534628,11.958 169.288964,12.0019996 168.973629,12.09 C168.658294,12.1780004 168.397964,12.2879993 168.192629,12.42 C168.295296,12.757335 168.361296,13.1129981 168.390629,13.487 C168.419963,13.8610019 168.434629,14.2606645 168.434629,14.686 L168.434629,21 L165.156629,21 L165.156629,14.862 Z M181.084629,18.646 C181.685966,18.646 182.111295,18.5873339 182.360629,18.47 C182.609964,18.3526661 182.734629,18.125335 182.734629,17.788 C182.734629,17.5239987 182.573297,17.293001 182.250629,17.095 C181.927961,16.896999 181.436633,16.6733346 180.776629,16.424 C180.263293,16.2333324 179.797631,16.0353344 179.379629,15.83 C178.961627,15.6246656 178.605964,15.3790014 178.312629,15.093 C178.019294,14.8069986 177.791963,14.466002 177.630629,14.07 C177.469295,13.673998 177.388629,13.1973361 177.388629,12.64 C177.388629,11.5546612 177.791959,10.6966698 178.598629,10.066 C179.4053,9.43533018 180.512622,9.12 181.920629,9.12 C182.624633,9.12 183.299293,9.18233271 183.944629,9.307 C184.589966,9.43166729 185.103294,9.5673326 185.484629,9.714 L184.912629,12.266 C184.531294,12.1339993 184.116965,12.0166672 183.669629,11.914 C183.222294,11.8113328 182.719965,11.76 182.162629,11.76 C181.135957,11.76 180.622629,12.0459971 180.622629,12.618 C180.622629,12.7500007 180.644629,12.8673328 180.688629,12.97 C180.732629,13.0726672 180.820629,13.1716662 180.952629,13.267 C181.08463,13.3623338 181.264295,13.4649995 181.491629,13.575 C181.718964,13.6850005 182.008627,13.8059993 182.360629,13.938 C183.079299,14.2020013 183.673294,14.4623321 184.142629,14.719 C184.611965,14.975668 184.982295,15.2543318 185.253629,15.555 C185.524964,15.8556682 185.715629,16.1893315 185.825629,16.556 C185.93563,16.9226685 185.990629,17.3479976 185.990629,17.832 C185.990629,18.9760057 185.561634,19.8413304 184.703629,20.428 C183.845625,21.0146696 182.63197,21.308 181.062629,21.308 C180.035957,21.308 179.181633,21.2200009 178.499629,21.044 C177.817626,20.8679991 177.344631,20.7213339 177.080629,20.604 L177.630629,17.942 C178.187965,18.1620011 178.75996,18.3343327 179.346629,18.459 C179.933299,18.5836673 180.512626,18.646 181.084629,18.646 Z" fill="#001B3D" fill-rule="nonzero"></path>
            </g>
            <g id="Source-Arrows" transform="translate(86.500000, 153.638384)">
                <ellipse id="Oval-Copy-5" fill="url(#linearGradient-5)" cx="108" cy="71.3616164" rx="7.5" ry="60"></ellipse>
                <path id="Line-4" d="M133.231475,78.3572192 L79.0095209,78.8710475 L78.9905689,76.8711373 L133.212523,76.357309 L133.155668,70.3575784 L147.221371,77.2246006 L133.288331,84.3569498 L133.231475,78.3572192 Z" fill="#001B3D" fill-rule="nonzero"></path>
                <path id="Line-5" d="M132.966167,78.0323335 C108.504376,78.6553152 90.3526989,88.2782408 78.3993935,106.930527 C74.5373258,112.95701 72.1363463,116.712172 70.3695633,119.482819 C70.0373237,120.003928 70.0373237,120.003928 69.845901,120.304104 C69.7729377,120.418409 69.7729377,120.418409 69.7273462,120.489575 C69.7014243,120.531451 69.7014243,120.531451 69.6187869,120.645153 C69.6087059,120.657323 69.6087059,120.657323 69.5458669,120.724737 L69.4168931,120.83148 L69.3240426,120.815818 C68.2165116,122.435516 66.2669548,125.345097 63.3331136,129.764216 C52.470948,146.125428 31.2128344,150.428241 -0.23475072,142.833672 L-1.20680632,142.598921 L-0.737304886,140.65481 L0.23475072,140.889561 C30.9549174,148.308459 51.3634704,144.177603 61.6668864,128.658012 C65.4557398,122.951026 67.6069973,119.755454 68.4415074,118.577871 C68.6285185,118.313978 68.7507489,118.149082 68.8325537,118.052635 C68.8749631,118.002864 68.8749631,118.002864 68.9579373,117.922097 C68.9882688,117.894636 69.0038335,117.880545 69.03146,117.861551 C70.7650181,115.144249 73.1004443,111.492444 76.7155003,105.851405 C89.0615288,86.5863024 107.879043,76.6358087 133.055643,76.0295132 L133.326364,69.969732 L147,77.5875848 L132.701536,83.9557818 L132.966167,78.0323335 Z M70.354781,119.349926 L70.3551711,119.349728 C70.3561209,119.348574 70.3568782,119.347557 70.3577993,119.346322 C70.3568542,119.347436 70.3558479,119.348638 70.354781,119.349926 Z" fill="#001B3D" fill-rule="nonzero"></path>
                <path id="Line-6" d="M132.986475,78.1957525 C112.502722,79.1578022 96.5785493,85.5231292 85.1610844,97.2781533 C71.2435841,111.607127 63.6740952,133.968832 62.4992556,164.400194 L62.4606781,165.399449 L60.4621669,165.322295 L60.5007444,164.323039 C61.6930285,133.439818 69.419375,110.614726 83.7264219,95.8846887 C95.5447403,83.7169599 111.991893,77.1573824 133.014686,76.1922927 L133.099945,70.1373751 L147,77.3337957 L132.90283,84.1359874 L132.986475,78.1957525 Z" fill="#001B3D" fill-rule="nonzero"></path>
            </g>
            <g id="Sources" transform="translate(0.000000, 131.000000)">
                <g id="File" transform="translate(82.000000, 61.000000)">
                    <circle id="Oval-Copy-2" fill="#001B3D" cx="37.5" cy="37.5" r="37.5"></circle>
                    <path d="M13.455,49 L13.455,28.21 L27.375,28.21 L27.375,32.14 L18.135,32.14 L18.135,36.49 L26.355,36.49 L26.355,40.42 L18.135,40.42 L18.135,49 L13.455,49 Z M34.845,49 L30.375,49 L30.375,33.22 L34.845,33.22 L34.845,49 Z M35.265,28.66 C35.265,29.4800041 35.0000026,30.1249977 34.47,30.595 C33.9399973,31.0650024 33.3150036,31.3 32.595,31.3 C31.8749964,31.3 31.2500026,31.0650024 30.72,30.595 C30.1899973,30.1249977 29.925,29.4800041 29.925,28.66 C29.925,27.8399959 30.1899973,27.1950023 30.72,26.725 C31.2500026,26.2549976 31.8749964,26.02 32.595,26.02 C33.3150036,26.02 33.9399973,26.2549976 34.47,26.725 C35.0000026,27.1950023 35.265,27.8399959 35.265,28.66 Z M45.345,49.3 C44.0449935,49.2799999 42.9900041,49.1400013 42.18,48.88 C41.369996,48.6199987 40.7300023,48.2550023 40.26,47.785 C39.7899976,47.3149977 39.4700008,46.7450033 39.3,46.075 C39.1299992,45.4049967 39.045,44.6500042 39.045,43.81 L39.045,26.44 L43.515,25.72 L43.515,42.91 C43.515,43.310002 43.5449997,43.6699984 43.605,43.99 C43.6650003,44.3100016 43.7799992,44.5799989 43.95,44.8 C44.1200008,45.0200011 44.3649984,45.1999993 44.685,45.34 C45.0050016,45.4800007 45.4349973,45.5699998 45.975,45.61 L45.345,49.3 Z M47.775,41.23 C47.775,39.829993 47.9899979,38.6050052 48.42,37.555 C48.8500022,36.5049948 49.4149965,35.6300035 50.115,34.93 C50.8150035,34.2299965 51.6199955,33.7000018 52.53,33.34 C53.4400046,32.9799982 54.3749952,32.8 55.335,32.8 C57.5750112,32.8 59.3449935,33.4849932 60.645,34.855 C61.9450065,36.2250068 62.595,38.2399867 62.595,40.9 C62.595,41.1600013 62.5850001,41.4449984 62.565,41.755 C62.5449999,42.0650015 62.5250001,42.3399988 62.505,42.58 L52.365,42.58 C52.4650005,43.5000046 52.8949962,44.2299973 53.655,44.77 C54.4150038,45.3100027 55.4349936,45.58 56.715,45.58 C57.5350041,45.58 58.3399961,45.5050008 59.13,45.355 C59.920004,45.2049993 60.5649975,45.0200011 61.065,44.8 L61.665,48.43 C61.4249988,48.5500006 61.105002,48.6699994 60.705,48.79 C60.304998,48.9100006 59.8600025,49.0149995 59.37,49.105 C58.8799976,49.1950005 58.3550028,49.2699997 57.795,49.33 C57.2349972,49.3900003 56.6750028,49.42 56.115,49.42 C54.6949929,49.42 53.4600053,49.2100021 52.41,48.79 C51.3599948,48.3699979 50.4900035,47.7950036 49.8,47.065 C49.1099966,46.3349963 48.6000017,45.470005 48.27,44.47 C47.9399984,43.469995 47.775,42.3900058 47.775,41.23 Z M58.275,39.52 C58.2549999,39.1399981 58.1900006,38.7700018 58.08,38.41 C57.9699994,38.0499982 57.8000011,37.7300014 57.57,37.45 C57.3399988,37.1699986 57.0500017,36.9400009 56.7,36.76 C56.3499982,36.5799991 55.9150026,36.49 55.395,36.49 C54.8949975,36.49 54.4650018,36.5749992 54.105,36.745 C53.7449982,36.9150008 53.4450012,37.1399986 53.205,37.42 C52.9649988,37.7000014 52.7800006,38.0249982 52.65,38.395 C52.5199993,38.7650019 52.4250003,39.1399981 52.365,39.52 L58.275,39.52 Z" fill="#FFFFFF" fill-rule="nonzero"></path>
                </g>
                <g id="Syslog" transform="translate(0.000000, 127.000000)">
                    <circle id="Oval-Copy-2" fill="#001B3D" cx="37.5" cy="37.5" r="37.5"></circle>
                    <path d="M11.73,42.62 C12.1700022,42.62 12.5333319,42.5833337 12.82,42.51 C13.1066681,42.4366663 13.3366658,42.3366673 13.51,42.21 C13.6833342,42.0833327 13.803333,41.9333342 13.87,41.76 C13.936667,41.5866658 13.97,41.3933344 13.97,41.18 C13.97,40.7266644 13.7566688,40.3500015 13.33,40.05 C12.9033312,39.7499985 12.1700052,39.4266684 11.13,39.08 C10.6766644,38.9199992 10.2233356,38.7366677 9.77,38.53 C9.3166644,38.3233323 8.9100018,38.0633349 8.55,37.75 C8.1899982,37.4366651 7.8966678,37.0566689 7.67,36.61 C7.4433322,36.1633311 7.33,35.6200032 7.33,34.98 C7.33,34.3399968 7.4499988,33.7633359 7.69,33.25 C7.9300012,32.7366641 8.2699978,32.3000018 8.71,31.94 C9.1500022,31.5799982 9.6833302,31.3033343 10.31,31.11 C10.9366698,30.9166657 11.6433294,30.82 12.43,30.82 C13.363338,30.82 14.1699966,30.919999 14.85,31.12 C15.5300034,31.320001 16.0899978,31.5399988 16.53,31.78 L15.63,34.24 C15.2433314,34.039999 14.8133357,33.8633341 14.34,33.71 C13.8666643,33.5566659 13.29667,33.48 12.63,33.48 C11.8833296,33.48 11.3466683,33.5833323 11.02,33.79 C10.6933317,33.9966677 10.53,34.3133312 10.53,34.74 C10.53,34.9933346 10.5899994,35.2066658 10.71,35.38 C10.8300006,35.5533342 10.9999989,35.7099993 11.22,35.85 C11.4400011,35.9900007 11.6933319,36.1166661 11.98,36.23 C12.2666681,36.3433339 12.5833316,36.4599994 12.93,36.58 C13.6500036,36.846668 14.276664,37.1099987 14.81,37.37 C15.343336,37.6300013 15.7866649,37.9333316 16.14,38.28 C16.4933351,38.6266684 16.7566658,39.033331 16.93,39.5 C17.1033342,39.966669 17.19,40.53333 17.19,41.2 C17.19,42.4933398 16.7366712,43.4966631 15.83,44.21 C14.9233288,44.9233369 13.5566758,45.28 11.73,45.28 C11.1166636,45.28 10.5633358,45.2433337 10.07,45.17 C9.5766642,45.0966663 9.1400019,45.0066672 8.76,44.9 C8.3799981,44.7933328 8.0533347,44.6800006 7.78,44.56 C7.5066653,44.4399994 7.2766676,44.3266672 7.09,44.22 L7.97,41.74 C8.3833354,41.9666678 8.8933303,42.1699991 9.5,42.35 C10.1066697,42.5300009 10.8499956,42.62 11.73,42.62 Z M28.41,34.48 C27.809997,36.5066768 27.1833366,38.4066578 26.53,40.18 C25.8766634,41.9533422 25.1633372,43.673325 24.39,45.34 C24.1099986,45.940003 23.8300014,46.4499979 23.55,46.87 C23.2699986,47.2900021 22.963335,47.6366653 22.63,47.91 C22.296665,48.1833347 21.9200021,48.3833327 21.5,48.51 C21.0799979,48.6366673 20.5900028,48.7 20.03,48.7 C19.563331,48.7 19.1333353,48.6566671 18.74,48.57 C18.3466647,48.4833329 18.0233346,48.3866672 17.77,48.28 L18.29,45.9 C18.5966682,46.0066672 18.8699988,46.0799998 19.11,46.12 C19.3500012,46.1600002 19.603332,46.18 19.87,46.18 C20.403336,46.18 20.8133319,46.0366681 21.1,45.75 C21.3866681,45.4633319 21.629999,45.0666692 21.83,44.56 C21.1499966,43.22666 20.4700034,41.7300083 19.79,40.07 C19.1099966,38.4099917 18.470003,36.546677 17.87,34.48 L21.03,34.48 C21.163334,35.0000026 21.3199991,35.5633303 21.5,36.17 C21.6800009,36.7766697 21.869999,37.3899969 22.07,38.01 C22.270001,38.6300031 22.4733323,39.2333304 22.68,39.82 C22.8866677,40.4066696 23.0833324,40.9399976 23.27,41.42 C23.4433342,40.9399976 23.6233324,40.4066696 23.81,39.82 C23.9966676,39.2333304 24.1799991,38.6300031 24.36,38.01 C24.5400009,37.3899969 24.7133325,36.7766697 24.88,36.17 C25.0466675,35.5633303 25.196666,35.0000026 25.33,34.48 L28.41,34.48 Z M33.03,42.86 C33.5766694,42.86 33.9633322,42.8066672 34.19,42.7 C34.4166678,42.5933328 34.53,42.3866682 34.53,42.08 C34.53,41.8399988 34.3833348,41.6300009 34.09,41.45 C33.7966652,41.2699991 33.350003,41.0666678 32.75,40.84 C32.283331,40.6666658 31.8600019,40.4866676 31.48,40.3 C31.0999981,40.1133324 30.776668,39.8900013 30.51,39.63 C30.243332,39.3699987 30.0366674,39.0600018 29.89,38.7 C29.7433326,38.3399982 29.67,37.9066692 29.67,37.4 C29.67,36.4133284 30.036663,35.6333362 30.77,35.06 C31.503337,34.4866638 32.5099936,34.2 33.79,34.2 C34.4300032,34.2 35.0433304,34.2566661 35.63,34.37 C36.2166696,34.4833339 36.6833316,34.606666 37.03,34.74 L36.51,37.06 C36.1633316,36.9399994 35.7866687,36.8333338 35.38,36.74 C34.9733313,36.6466662 34.5166692,36.6 34.01,36.6 C33.076662,36.6 32.61,36.8599974 32.61,37.38 C32.61,37.5000006 32.6299998,37.6066662 32.67,37.7 C32.7100002,37.7933338 32.7899994,37.8833329 32.91,37.97 C33.0300006,38.0566671 33.1933323,38.1499995 33.4,38.25 C33.6066677,38.3500005 33.8699984,38.4599994 34.19,38.58 C34.8433366,38.8200012 35.3833312,39.0566655 35.81,39.29 C36.2366688,39.5233345 36.5733321,39.7766653 36.82,40.05 C37.0666679,40.3233347 37.2399995,40.626665 37.34,40.96 C37.4400005,41.293335 37.49,41.6799978 37.49,42.12 C37.49,43.1600052 37.1000039,43.946664 36.32,44.48 C35.5399961,45.013336 34.4366738,45.28 33.01,45.28 C32.076662,45.28 31.3000031,45.2000008 30.68,45.04 C30.0599969,44.8799992 29.6300012,44.7466672 29.39,44.64 L29.89,42.22 C30.3966692,42.420001 30.916664,42.5766661 31.45,42.69 C31.983336,42.8033339 32.5099974,42.86 33.03,42.86 Z M43.91,45.2 C43.043329,45.1866666 42.3400027,45.0933342 41.8,44.92 C41.2599973,44.7466658 40.8333349,44.5033349 40.52,44.19 C40.2066651,43.8766651 39.9933339,43.4966689 39.88,43.05 C39.7666661,42.6033311 39.71,42.1000028 39.71,41.54 L39.71,29.96 L42.69,29.48 L42.69,40.94 C42.69,41.206668 42.7099998,41.4466656 42.75,41.66 C42.7900002,41.8733344 42.8666661,42.0533326 42.98,42.2 C43.0933339,42.3466674 43.2566656,42.4666662 43.47,42.56 C43.6833344,42.6533338 43.9699982,42.7133332 44.33,42.74 L43.91,45.2 Z M55.87,39.72 C55.87,40.5466708 55.7500012,41.3033299 55.51,41.99 C55.2699988,42.6766701 54.9233356,43.2633309 54.47,43.75 C54.0166644,44.2366691 53.4733365,44.613332 52.84,44.88 C52.2066635,45.146668 51.4966706,45.28 50.71,45.28 C49.9366628,45.28 49.2333365,45.146668 48.6,44.88 C47.9666635,44.613332 47.4233356,44.2366691 46.97,43.75 C46.5166644,43.2633309 46.1633346,42.6766701 45.91,41.99 C45.6566654,41.3033299 45.53,40.5466708 45.53,39.72 C45.53,38.8933292 45.6599987,38.1400034 45.92,37.46 C46.1800013,36.7799966 46.5399977,36.2000024 47,35.72 C47.4600023,35.2399976 48.0066635,34.866668 48.64,34.6 C49.2733365,34.333332 49.9633296,34.2 50.71,34.2 C51.4700038,34.2 52.1666635,34.333332 52.8,34.6 C53.4333365,34.866668 53.9766644,35.2399976 54.43,35.72 C54.8833356,36.2000024 55.2366654,36.7799966 55.49,37.46 C55.7433346,38.1400034 55.87,38.8933292 55.87,39.72 Z M52.83,39.72 C52.83,38.7999954 52.6466685,38.0766693 52.28,37.55 C51.9133315,37.0233307 51.3900034,36.76 50.71,36.76 C50.0299966,36.76 49.5033352,37.0233307 49.13,37.55 C48.7566648,38.0766693 48.57,38.7999954 48.57,39.72 C48.57,40.6400046 48.7566648,41.3699973 49.13,41.91 C49.5033352,42.4500027 50.0299966,42.72 50.71,42.72 C51.3900034,42.72 51.9133315,42.4500027 52.28,41.91 C52.6466685,41.3699973 52.83,40.6400046 52.83,39.72 Z M60.71,39.4 C60.71,41.066675 61.3833266,41.9 62.73,41.9 C63.0366682,41.9 63.323332,41.8600004 63.59,41.78 C63.856668,41.6999996 64.0833324,41.6066672 64.27,41.5 L64.27,36.74 C64.1233326,36.7133332 63.950001,36.6900001 63.75,36.67 C63.549999,36.6499999 63.316668,36.64 63.05,36.64 C62.2633294,36.64 61.6766686,36.8999974 61.29,37.42 C60.9033314,37.9400026 60.71,38.599996 60.71,39.4 Z M67.25,43.68 C67.25,45.4000086 66.8133377,46.6766625 65.94,47.51 C65.0666623,48.3433375 63.7166758,48.76 61.89,48.76 C61.2499968,48.76 60.6100032,48.7033339 59.97,48.59 C59.3299968,48.4766661 58.7366694,48.3266676 58.19,48.14 L58.71,45.64 C59.176669,45.8266676 59.6666641,45.9733328 60.18,46.08 C60.6933359,46.1866672 61.2766634,46.24 61.93,46.24 C62.7833376,46.24 63.3866649,46.0533352 63.74,45.68 C64.0933351,45.3066648 64.27,44.8266696 64.27,44.24 L64.27,43.86 C63.9499984,44.0066674 63.6200017,44.1166663 63.28,44.19 C62.9399983,44.2633337 62.570002,44.3 62.17,44.3 C60.7166594,44.3 59.6033372,43.8700043 58.83,43.01 C58.0566628,42.1499957 57.67,40.9466744 57.67,39.4 C57.67,38.6266628 57.7899988,37.9233365 58.03,37.29 C58.2700012,36.6566635 58.6199977,36.1133356 59.08,35.66 C59.5400023,35.2066644 60.10333,34.8566679 60.77,34.61 C61.43667,34.3633321 62.1899958,34.24 63.03,34.24 C63.3900018,34.24 63.7599981,34.2566665 64.14,34.29 C64.5200019,34.3233335 64.8966648,34.3666664 65.27,34.42 C65.6433352,34.4733336 65.9999983,34.5366663 66.34,34.61 C66.6800017,34.6833337 66.983332,34.7599996 67.25,34.84 L67.25,43.68 Z" fill="#FFFFFF" fill-rule="nonzero"></path>
                </g>
                <g id="Statsd" transform="translate(82.000000, 187.000000)">
                    <circle id="Oval-Copy-2" fill="#001B3D" cx="37.5" cy="37.5" r="37.5"></circle>
                    <path d="M10.683,43.501 C11.1450023,43.501 11.5264985,43.4625004 11.8275,43.3855 C12.1285015,43.3084996 12.3699991,43.2035007 12.552,43.0705 C12.7340009,42.9374993 12.8599996,42.7800009 12.93,42.598 C13.0000004,42.4159991 13.035,42.2130011 13.035,41.989 C13.035,41.5129976 12.8110022,41.1175016 12.363,40.8025 C11.9149978,40.4874984 11.1450055,40.1480018 10.053,39.784 C9.57699762,39.6159992 9.10100238,39.4235011 8.625,39.2065 C8.14899762,38.9894989 7.72200189,38.7165016 7.344,38.3875 C6.96599811,38.0584984 6.65800119,37.6595023 6.42,37.1905 C6.18199881,36.7214977 6.063,36.1510034 6.063,35.479 C6.063,34.8069966 6.18899874,34.2015027 6.441,33.6625 C6.69300126,33.1234973 7.04999769,32.6650019 7.512,32.287 C7.97400231,31.9089981 8.53399671,31.618501 9.192,31.4155 C9.85000329,31.212499 10.5919959,31.111 11.418,31.111 C12.3980049,31.111 13.2449964,31.2159989 13.959,31.426 C14.6730036,31.6360011 15.2609977,31.8669987 15.723,32.119 L14.778,34.702 C14.371998,34.4919989 13.9205025,34.3065008 13.4235,34.1455 C12.9264975,33.9844992 12.3280035,33.904 11.628,33.904 C10.8439961,33.904 10.2805017,34.0124989 9.9375,34.2295 C9.59449829,34.4465011 9.423,34.7789978 9.423,35.227 C9.423,35.4930013 9.48599937,35.7169991 9.612,35.899 C9.73800063,36.0810009 9.91649884,36.2454993 10.1475,36.3925 C10.3785012,36.5395007 10.6444985,36.6724994 10.9455,36.7915 C11.2465015,36.9105006 11.5789982,37.0329994 11.943,37.159 C12.6990038,37.4390014 13.3569972,37.7154986 13.917,37.9885 C14.4770028,38.2615014 14.9424981,38.5799982 15.3135,38.944 C15.6845019,39.3080018 15.9609991,39.7349976 16.143,40.225 C16.3250009,40.7150025 16.416,41.3099965 16.416,42.01 C16.416,43.3680068 15.9400048,44.4214963 14.988,45.1705 C14.0359952,45.9195037 12.6010096,46.294 10.683,46.294 C10.0389968,46.294 9.45800259,46.2555004 8.94,46.1785 C8.42199741,46.1014996 7.96350199,46.0070006 7.5645,45.895 C7.165498,45.7829994 6.82250143,45.6640006 6.5355,45.538 C6.24849856,45.4119994 6.00700098,45.2930006 5.811,45.181 L6.735,42.577 C7.16900217,42.8150012 7.70449681,43.0284991 8.3415,43.2175 C8.97850318,43.4065009 9.75899538,43.501 10.683,43.501 Z M18.621,32.203 L21.75,31.699 L21.75,34.954 L25.509,34.954 L25.509,37.558 L21.75,37.558 L21.75,41.443 C21.75,42.1010033 21.8654988,42.625998 22.0965,43.018 C22.3275012,43.410002 22.7929965,43.606 23.493,43.606 C23.8290017,43.606 24.1754982,43.5745003 24.5325,43.5115 C24.8895018,43.4484997 25.2149985,43.3610006 25.509,43.249 L25.95,45.685 C25.5719981,45.8390008 25.1520023,45.9719994 24.69,46.084 C24.2279977,46.1960006 23.6610034,46.252 22.989,46.252 C22.1349957,46.252 21.4280028,46.1365012 20.868,45.9055 C20.3079972,45.6744988 19.8600017,45.3525021 19.524,44.9395 C19.1879983,44.5264979 18.9535007,44.0260029 18.8205,43.438 C18.6874993,42.8499971 18.621,42.199 18.621,41.485 L18.621,32.203 Z M31.851,43.816 C32.1590015,43.816 32.4529986,43.8090001 32.733,43.795 C33.0130014,43.7809999 33.2369992,43.7600001 33.405,43.732 L33.405,41.359 C33.2789994,41.3309999 33.0900013,41.3030001 32.838,41.275 C32.5859987,41.2469999 32.355001,41.233 32.145,41.233 C31.8509985,41.233 31.5745013,41.2504998 31.3155,41.2855 C31.0564987,41.3205002 30.829001,41.3869995 30.633,41.485 C30.436999,41.5830005 30.2830006,41.7159992 30.171,41.884 C30.0589994,42.0520008 30.003,42.2619987 30.003,42.514 C30.003,43.0040025 30.1674984,43.3434991 30.4965,43.5325 C30.8255016,43.7215009 31.2769971,43.816 31.851,43.816 Z M31.599,34.66 C32.5230046,34.66 33.2929969,34.7649989 33.909,34.975 C34.5250031,35.185001 35.0184981,35.485998 35.3895,35.878 C35.7605019,36.270002 36.0229992,36.7459972 36.177,37.306 C36.3310008,37.8660028 36.408,38.4889966 36.408,39.175 L36.408,45.685 C35.9599978,45.7830005 35.337004,45.8984993 34.539,46.0315 C33.740996,46.1645007 32.7750057,46.231 31.641,46.231 C30.9269964,46.231 30.2795029,46.1680006 29.6985,46.042 C29.1174971,45.9159994 28.6170021,45.7095014 28.197,45.4225 C27.7769979,45.1354986 27.4550011,44.7610023 27.231,44.299 C27.0069989,43.8369977 26.895,43.2700034 26.895,42.598 C26.895,41.9539968 27.0244987,41.4080022 27.2835,40.96 C27.5425013,40.5119978 27.8889978,40.1550013 28.323,39.889 C28.7570022,39.6229987 29.2539972,39.4305006 29.814,39.3115 C30.3740028,39.1924994 30.954997,39.133 31.557,39.133 C31.963002,39.133 32.3234984,39.1504998 32.6385,39.1855 C32.9535016,39.2205002 33.208999,39.2659997 33.405,39.322 L33.405,39.028 C33.405,38.4959973 33.2440016,38.0690016 32.922,37.747 C32.5999984,37.4249984 32.040004,37.264 31.242,37.264 C30.7099973,37.264 30.1850026,37.3024996 29.667,37.3795 C29.1489974,37.4565004 28.7010019,37.5649993 28.323,37.705 L27.924,35.185 C28.1060009,35.1289997 28.3334986,35.0695003 28.6065,35.0065 C28.8795014,34.9434997 29.1769984,34.8875002 29.499,34.8385 C29.8210016,34.7894998 30.1604982,34.7475002 30.5175,34.7125 C30.8745018,34.6774998 31.2349982,34.66 31.599,34.66 Z M39.138,32.203 L42.267,31.699 L42.267,34.954 L46.026,34.954 L46.026,37.558 L42.267,37.558 L42.267,41.443 C42.267,42.1010033 42.3824988,42.625998 42.6135,43.018 C42.8445012,43.410002 43.3099965,43.606 44.01,43.606 C44.3460017,43.606 44.6924982,43.5745003 45.0495,43.5115 C45.4065018,43.4484997 45.7319985,43.3610006 46.026,43.249 L46.467,45.685 C46.0889981,45.8390008 45.6690023,45.9719994 45.207,46.084 C44.7449977,46.1960006 44.1780034,46.252 43.506,46.252 C42.6519957,46.252 41.9450028,46.1365012 41.385,45.9055 C40.8249972,45.6744988 40.3770017,45.3525021 40.041,44.9395 C39.7049983,44.5264979 39.4705007,44.0260029 39.3375,43.438 C39.2044993,42.8499971 39.138,42.199 39.138,41.485 L39.138,32.203 Z M51.738,43.753 C52.3120029,43.753 52.7179988,43.6970006 52.956,43.585 C53.1940012,43.4729994 53.313,43.2560016 53.313,42.934 C53.313,42.6819987 53.1590015,42.4615009 52.851,42.2725 C52.5429985,42.0834991 52.0740032,41.8700012 51.444,41.632 C50.9539976,41.4499991 50.509502,41.261001 50.1105,41.065 C49.711498,40.868999 49.3720014,40.6345014 49.092,40.3615 C48.8119986,40.0884986 48.5950008,39.7630019 48.441,39.385 C48.2869992,39.0069981 48.21,38.5520027 48.21,38.02 C48.21,36.9839948 48.5949962,36.165003 49.365,35.563 C50.1350039,34.960997 51.1919933,34.66 52.536,34.66 C53.2080034,34.66 53.8519969,34.7194994 54.468,34.8385 C55.0840031,34.9575006 55.5739982,35.0869993 55.938,35.227 L55.392,37.663 C55.0279982,37.5369994 54.6325021,37.4250005 54.2055,37.327 C53.7784979,37.2289995 53.2990027,37.18 52.767,37.18 C51.7869951,37.18 51.297,37.4529973 51.297,37.999 C51.297,38.1250006 51.3179998,38.2369995 51.36,38.335 C51.4020002,38.4330005 51.4859994,38.5274995 51.612,38.6185 C51.7380006,38.7095005 51.9094989,38.8074995 52.1265,38.9125 C52.3435011,39.0175005 52.6199983,39.1329994 52.956,39.259 C53.6420034,39.5110013 54.2089978,39.7594988 54.657,40.0045 C55.1050022,40.2495012 55.4584987,40.5154986 55.7175,40.8025 C55.9765013,41.0895014 56.1584995,41.4079982 56.2635,41.758 C56.3685005,42.1080017 56.421,42.5139977 56.421,42.976 C56.421,44.0680055 56.0115041,44.8939972 55.1925,45.454 C54.3734959,46.0140028 53.2150075,46.294 51.717,46.294 C50.7369951,46.294 49.9215033,46.2100008 49.2705,46.042 C48.6194967,45.8739992 48.1680013,45.7340006 47.916,45.622 L48.441,43.081 C48.9730027,43.291001 49.5189972,43.4554994 50.079,43.5745 C50.6390028,43.6935006 51.1919973,43.753 51.738,43.753 Z M61.419,40.393 C61.419,41.3590048 61.6359978,42.1359971 62.07,42.724 C62.5040022,43.3120029 63.1479957,43.606 64.002,43.606 C64.2820014,43.606 64.5409988,43.5955001 64.779,43.5745 C65.0170012,43.5534999 65.2129992,43.5290001 65.367,43.501 L65.367,37.81 C65.170999,37.6839994 64.9155016,37.5790004 64.6005,37.495 C64.2854984,37.4109996 63.9670016,37.369 63.645,37.369 C62.1609926,37.369 61.419,38.3769899 61.419,40.393 Z M68.496,45.643 C68.2159986,45.7270004 67.8940018,45.8074996 67.53,45.8845 C67.1659982,45.9615004 66.784502,46.0279997 66.3855,46.084 C65.986498,46.1400003 65.5805021,46.1854998 65.1675,46.2205 C64.7544979,46.2555002 64.3590019,46.273 63.981,46.273 C63.0709954,46.273 62.2590036,46.1400013 61.545,45.874 C60.8309964,45.6079987 60.2290025,45.2265025 59.739,44.7295 C59.2489976,44.2324975 58.8745013,43.6305035 58.6155,42.9235 C58.3564987,42.2164965 58.227,41.4220044 58.227,40.54 C58.227,39.6439955 58.3389989,38.8355036 58.563,38.1145 C58.7870011,37.3934964 59.1089979,36.7810025 59.529,36.277 C59.9490021,35.7729975 60.463497,35.3880013 61.0725,35.122 C61.681503,34.8559987 62.3779961,34.723 63.162,34.723 C63.5960022,34.723 63.9844983,34.7649996 64.3275,34.849 C64.6705017,34.9330004 65.0169983,35.0519992 65.367,35.206 L65.367,30.208 L68.496,29.704 L68.496,45.643 Z" fill="#FFFFFF" fill-rule="nonzero"></path>
                </g>
                <path d="M73.344,18.382 C73.8280024,18.382 74.2276651,18.3416671 74.543,18.261 C74.8583349,18.1803329 75.1113324,18.070334 75.302,17.931 C75.4926676,17.791666 75.6246663,17.6266676 75.698,17.436 C75.7713337,17.2453324 75.808,17.0326678 75.808,16.798 C75.808,16.2993308 75.5733357,15.8850016 75.104,15.555 C74.6346643,15.2249983 73.8280057,14.8693352 72.684,14.488 C72.1853308,14.3119991 71.6866692,14.1103345 71.188,13.883 C70.6893308,13.6556655 70.242002,13.3696684 69.846,13.025 C69.449998,12.6803316 69.1273346,12.2623358 68.878,11.771 C68.6286654,11.2796642 68.504,10.6820035 68.504,9.978 C68.504,9.27399648 68.6359987,8.63966949 68.9,8.075 C69.1640013,7.51033051 69.5379976,7.03000198 70.022,6.634 C70.5060024,6.23799802 71.0926632,5.93366773 71.782,5.721 C72.4713368,5.50833227 73.2486623,5.402 74.114,5.402 C75.1406718,5.402 76.0279963,5.5119989 76.776,5.732 C77.5240037,5.9520011 78.1399976,6.19399868 78.624,6.458 L77.634,9.164 C77.2086645,8.9439989 76.7356693,8.74966751 76.215,8.581 C75.6943307,8.41233249 75.067337,8.328 74.334,8.328 C73.5126626,8.328 72.9223351,8.44166553 72.563,8.669 C72.2036649,8.89633447 72.024,9.24466432 72.024,9.714 C72.024,9.99266806 72.0899993,10.2273324 72.222,10.418 C72.3540007,10.6086676 72.5409988,10.7809992 72.783,10.935 C73.0250012,11.0890008 73.3036651,11.2283327 73.619,11.353 C73.9343349,11.4776673 74.2826648,11.6059993 74.664,11.738 C75.456004,12.0313348 76.1453304,12.3209986 76.732,12.607 C77.3186696,12.8930014 77.8063314,13.2266648 78.195,13.608 C78.5836686,13.9893352 78.8733324,14.4366641 79.064,14.95 C79.2546676,15.4633359 79.35,16.086663 79.35,16.82 C79.35,18.2426738 78.8513383,19.3463294 77.854,20.131 C76.8566617,20.9156706 75.3533434,21.308 73.344,21.308 C72.66933,21.308 72.0606694,21.2676671 71.518,21.187 C70.9753306,21.1063329 70.4950021,21.0073339 70.077,20.89 C69.6589979,20.7726661 69.2996682,20.6480007 68.999,20.516 C68.6983318,20.3839993 68.4453344,20.2593339 68.24,20.142 L69.208,17.414 C69.6626689,17.6633346 70.2236633,17.886999 70.891,18.085 C71.5583367,18.283001 72.3759952,18.382 73.344,18.382 Z M92.594,15.192 C92.594,16.1013379 92.4620013,16.9336629 92.198,17.689 C91.9339987,18.4443371 91.5526692,19.089664 91.054,19.625 C90.5553308,20.160336 89.9576701,20.5746652 89.261,20.868 C88.5643299,21.1613348 87.7833377,21.308 86.918,21.308 C86.0673291,21.308 85.2936701,21.1613348 84.597,20.868 C83.9003298,20.5746652 83.3026692,20.160336 82.804,19.625 C82.3053308,19.089664 81.9166681,18.4443371 81.638,17.689 C81.3593319,16.9336629 81.22,16.1013379 81.22,15.192 C81.22,14.2826621 81.3629986,13.4540037 81.649,12.706 C81.9350014,11.9579963 82.3309975,11.3200026 82.837,10.792 C83.3430025,10.2639974 83.9443299,9.8533348 84.641,9.56 C85.3376702,9.2666652 86.0966626,9.12 86.918,9.12 C87.7540042,9.12 88.5203298,9.2666652 89.217,9.56 C89.9136702,9.8533348 90.5113308,10.2639974 91.01,10.792 C91.5086692,11.3200026 91.8973319,11.9579963 92.176,12.706 C92.4546681,13.4540037 92.594,14.2826621 92.594,15.192 Z M89.25,15.192 C89.25,14.1799949 89.0483354,13.3843362 88.645,12.805 C88.2416646,12.2256638 87.6660037,11.936 86.918,11.936 C86.1699963,11.936 85.5906687,12.2256638 85.18,12.805 C84.7693313,13.3843362 84.564,14.1799949 84.564,15.192 C84.564,16.2040051 84.7693313,17.006997 85.18,17.601 C85.5906687,18.195003 86.1699963,18.492 86.918,18.492 C87.6660037,18.492 88.2416646,18.195003 88.645,17.601 C89.0483354,17.006997 89.25,16.2040051 89.25,15.192 Z M105.002,20.604 C104.444664,20.7653341 103.726004,20.915666 102.846,21.055 C101.965996,21.194334 101.042005,21.264 100.074,21.264 C99.0913284,21.264 98.2736699,21.1320013 97.621,20.868 C96.9683301,20.6039987 96.4513352,20.233669 96.07,19.757 C95.6886648,19.2803309 95.4173341,18.7120033 95.256,18.052 C95.0946659,17.3919967 95.014,16.666004 95.014,15.874 L95.014,9.428 L98.292,9.428 L98.292,15.478 C98.292,16.5340053 98.4313319,17.2966643 98.71,17.766 C98.9886681,18.2353357 99.5093295,18.47 100.272,18.47 C100.506668,18.47 100.755999,18.4590001 101.02,18.437 C101.284001,18.4149999 101.518666,18.3893335 101.724,18.36 L101.724,9.428 L105.002,9.428 L105.002,20.604 Z M115.056,12.332 C114.762665,12.2586663 114.418002,12.1816671 114.022,12.101 C113.625998,12.0203329 113.200669,11.98 112.746,11.98 C112.540666,11.98 112.295001,11.9983332 112.009,12.035 C111.722999,12.0716668 111.506667,12.1119998 111.36,12.156 L111.36,21 L108.082,21 L108.082,10.044 C108.66867,9.83866564 109.361663,9.64433425 110.161,9.461 C110.960337,9.27766575 111.851328,9.186 112.834,9.186 C113.010001,9.186 113.222665,9.19699989 113.472,9.219 C113.721335,9.24100011 113.970665,9.27033315 114.22,9.307 C114.469335,9.34366685 114.718665,9.38766641 114.968,9.439 C115.217335,9.49033359 115.429999,9.5526663 115.606,9.626 L115.056,12.332 Z M116.596,15.214 C116.596,14.3779958 116.731665,13.5896704 117.003,12.849 C117.274335,12.1083296 117.666664,11.4630028 118.18,10.913 C118.693336,10.3629972 119.316663,9.92666828 120.05,9.604 C120.783337,9.28133172 121.619329,9.12 122.558,9.12 C123.174003,9.12 123.738664,9.17499945 124.252,9.285 C124.765336,9.39500055 125.263998,9.55266564 125.748,9.758 L125.066,12.376 C124.757998,12.2586661 124.420669,12.1560004 124.054,12.068 C123.687331,11.9799996 123.276669,11.936 122.822,11.936 C121.853995,11.936 121.131669,12.2366637 120.655,12.838 C120.178331,13.4393363 119.94,14.2313284 119.94,15.214 C119.94,16.2553385 120.163664,17.0619971 120.611,17.634 C121.058336,18.2060029 121.839328,18.492 122.954,18.492 C123.350002,18.492 123.775331,18.4553337 124.23,18.382 C124.684669,18.3086663 125.102665,18.1913341 125.484,18.03 L125.946,20.714 C125.564665,20.8753341 125.088003,21.0146661 124.516,21.132 C123.943997,21.2493339 123.313337,21.308 122.624,21.308 C121.567995,21.308 120.65867,21.1503349 119.896,20.835 C119.13333,20.5196651 118.506336,20.0906694 118.015,19.548 C117.523664,19.0053306 117.164334,18.3636704 116.937,17.623 C116.709666,16.8823296 116.596,16.0793377 116.596,15.214 Z M127.046,15.302 C127.046,14.2753282 127.203665,13.3770039 127.519,12.607 C127.834335,11.8369962 128.248664,11.1953359 128.762,10.682 C129.275336,10.1686641 129.865663,9.78000132 130.533,9.516 C131.200337,9.25199868 131.885996,9.12 132.59,9.12 C134.232675,9.12 135.530662,9.62232831 136.484,10.627 C137.437338,11.6316717 137.914,13.1093236 137.914,15.06 C137.914,15.2506676 137.906667,15.4596655 137.892,15.687 C137.877333,15.9143345 137.862667,16.1159991 137.848,16.292 L130.412,16.292 C130.485334,16.96667 130.800664,17.501998 131.358,17.898 C131.915336,18.294002 132.663329,18.492 133.602,18.492 C134.203336,18.492 134.793664,18.4370006 135.373,18.327 C135.952336,18.2169995 136.425331,18.0813341 136.792,17.92 L137.232,20.582 C137.055999,20.6700004 136.821335,20.7579996 136.528,20.846 C136.234665,20.9340004 135.908335,21.0109997 135.549,21.077 C135.189665,21.1430003 134.804669,21.1979998 134.394,21.242 C133.983331,21.2860002 133.572669,21.308 133.162,21.308 C132.120661,21.308 131.215004,21.1540015 130.445,20.846 C129.674996,20.5379985 129.037003,20.116336 128.531,19.581 C128.024997,19.045664 127.651001,18.411337 127.409,17.678 C127.166999,16.944663 127.046,16.1526709 127.046,15.302 Z M134.746,14.048 C134.731333,13.7693319 134.683667,13.4980013 134.603,13.234 C134.522333,12.9699987 134.397668,12.7353344 134.229,12.53 C134.060332,12.3246656 133.847668,12.1560007 133.591,12.024 C133.334332,11.8919993 133.015335,11.826 132.634,11.826 C132.267332,11.826 131.952001,11.8883327 131.688,12.013 C131.423999,12.1376673 131.204001,12.3026656 131.028,12.508 C130.851999,12.7133344 130.716334,12.9516653 130.621,13.223 C130.525666,13.4943347 130.456,13.7693319 130.412,14.048 L134.746,14.048 Z M143.766,18.646 C144.367336,18.646 144.792665,18.5873339 145.042,18.47 C145.291335,18.3526661 145.416,18.125335 145.416,17.788 C145.416,17.5239987 145.254668,17.293001 144.932,17.095 C144.609332,16.896999 144.118003,16.6733346 143.458,16.424 C142.944664,16.2333324 142.479002,16.0353344 142.061,15.83 C141.642998,15.6246656 141.287335,15.3790014 140.994,15.093 C140.700665,14.8069986 140.473334,14.466002 140.312,14.07 C140.150666,13.673998 140.07,13.1973361 140.07,12.64 C140.07,11.5546612 140.473329,10.6966698 141.28,10.066 C142.086671,9.43533018 143.193993,9.12 144.602,9.12 C145.306004,9.12 145.980663,9.18233271 146.626,9.307 C147.271337,9.43166729 147.784665,9.5673326 148.166,9.714 L147.594,12.266 C147.212665,12.1339993 146.798336,12.0166672 146.351,11.914 C145.903664,11.8113328 145.401336,11.76 144.844,11.76 C143.817328,11.76 143.304,12.0459971 143.304,12.618 C143.304,12.7500007 143.326,12.8673328 143.37,12.97 C143.414,13.0726672 143.501999,13.1716662 143.634,13.267 C143.766001,13.3623338 143.945666,13.4649995 144.173,13.575 C144.400334,13.6850005 144.689998,13.8059993 145.042,13.938 C145.76067,14.2020013 146.354664,14.4623321 146.824,14.719 C147.293336,14.975668 147.663665,15.2543318 147.935,15.555 C148.206335,15.8556682 148.396999,16.1893315 148.507,16.556 C148.617001,16.9226685 148.672,17.3479976 148.672,17.832 C148.672,18.9760057 148.243004,19.8413304 147.385,20.428 C146.526996,21.0146696 145.313341,21.308 143.744,21.308 C142.717328,21.308 141.863003,21.2200009 141.181,21.044 C140.498997,20.8679991 140.026001,20.7213339 139.762,20.604 L140.312,17.942 C140.869336,18.1620011 141.44133,18.3343327 142.028,18.459 C142.61467,18.5836673 143.193997,18.646 143.766,18.646 Z" fill="#001B3D" fill-rule="nonzero"></path>
            </g>
            <g id="Group" transform="translate(189.000000, 0.000000)">
                <g id="Logo">
                    <path d="M123.20908,46.1498311 L130.211344,46.1498311 L136.139186,60.8445926 L142.141127,46.1498311 L149.106342,46.1498311 L138.584421,70.291225 L133.582804,70.291225 L123.20908,46.1498311 Z M174.562545,46.1498311 L174.562545,51.4703482 L166.930447,51.4703482 L166.930447,55.4878815 L174.155005,55.4878815 L174.155005,60.8083986 L166.930447,60.8083986 L166.930447,64.9707079 L174.562545,64.9707079 L174.562545,70.291225 L160.520968,70.291225 L160.520968,46.1498311 L174.562545,46.1498311 Z M205.20561,62.2199643 L205.20561,69.6397331 C202.649227,70.5445829 201.241365,70.8341349 199.648257,70.8341349 C195.350571,70.8341349 192.127307,69.1692112 190.089611,67.2147355 C187.681425,64.8621259 186.34766,61.5684725 186.34766,58.419595 C186.34766,54.9811656 187.86667,51.7237061 190.089611,49.5158725 C192.275503,47.3442329 195.572865,45.7516972 199.425963,45.7516972 C200.611532,45.7516972 202.53808,45.9326671 205.20561,46.982293 L205.20561,54.4744497 C203.130865,51.9770641 200.68563,51.8322881 199.611208,51.8322881 C197.758757,51.8322881 196.350895,52.375198 195.165326,53.4248239 C193.646317,54.8001956 193.016483,56.6822833 193.016483,58.383401 C193.016483,60.0483247 193.720415,61.8942184 195.01713,63.0886202 C196.091552,64.065858 197.795806,64.7535439 199.611208,64.7535439 C200.574483,64.7535439 202.94562,64.6449619 205.20561,62.2199643 Z M233.625734,51.4703482 L228.364773,51.4703482 L228.364773,70.291225 L221.955293,70.291225 L221.955293,51.4703482 L216.694333,51.4703482 L216.694333,46.1498311 L233.625734,46.1498311 L233.625734,51.4703482 Z M271.456308,58.238625 C271.456308,61.4236965 270.196641,64.7897379 267.566161,67.2509295 C265.046828,69.6035391 261.490122,70.8341349 257.82227,70.8341349 C254.154417,70.8341349 250.597711,69.6035391 248.078378,67.2509295 C245.447898,64.7897379 244.188232,61.4236965 244.188232,58.238625 C244.188232,55.0173596 245.447898,51.6151242 248.078378,49.1901266 C250.597711,46.837517 254.154417,45.6069212 257.82227,45.6069212 C261.490122,45.6069212 265.046828,46.837517 267.566161,49.1901266 C270.196641,51.6151242 271.456308,55.0173596 271.456308,58.238625 Z M257.82227,51.6875122 C256.043917,51.6875122 254.154417,52.30281 252.820652,53.6057938 C251.486888,54.8725836 250.857055,56.6460893 250.857055,58.347207 C250.857055,60.4826526 251.894427,61.9666064 252.820652,62.8352622 C254.006221,63.957276 255.673427,64.7535439 257.82227,64.7535439 C260.008162,64.7535439 261.638318,63.99347 262.786838,62.8714562 C263.935357,61.7494424 264.787485,60.0845187 264.787485,58.238625 C264.787485,56.3565374 263.935357,54.6916136 262.786838,53.6057938 C261.416024,52.339004 259.526524,51.6875122 257.82227,51.6875122 Z M284.352894,46.1498311 L294.356128,46.1498311 C296.208579,46.1498311 298.579716,46.4393831 300.395118,48.2852767 C301.80298,49.6968425 302.506912,51.7960941 302.506912,53.7143758 C302.506912,55.7774335 301.765931,57.5871331 300.543314,58.7453409 C299.580039,59.6501908 298.283324,60.1931007 297.134804,60.4102647 L304.878049,70.291225 L296.91251,70.291225 L290.762374,61.0255626 L290.762374,70.291225 L284.352894,70.291225 L284.352894,46.1498311 Z M290.762374,50.9998263 L290.762374,56.9718352 L291.984991,56.9718352 C292.948266,56.9718352 294.319079,56.7184773 295.097108,55.9945974 C295.578746,55.5240755 295.912187,54.7278076 295.912187,53.9677338 C295.912187,53.2438539 295.615795,52.447586 295.060059,51.9408701 C294.467275,51.3617662 293.392854,50.9998263 291.984991,50.9998263 L290.762374,50.9998263 Z" id="Words" fill="#001B3D"></path>
                    <g id="Group-16">
                        <g id="Group-15" transform="translate(20.842681, 0.000000)">
                            <polygon id="Triangle" fill="#10E7FF" transform="translate(47.173166, 42.864833) scale(1, -1) translate(-47.173166, -42.864833) " points="47.173166 11.3760149 84.9597473 74.3536506 9.38658457 74.3536506"></polygon>
                            <polygon id="Triangle" fill="#FFFFFF" transform="translate(38.223712, 31.661443) scale(1, -1) translate(-38.223712, -31.661443) " points="38.2237125 0.172625014 76.0102939 63.1502607 0.437131084 63.1502607"></polygon>
                        </g>
                        <g id="Symbol" transform="translate(0.000000, 9.917585)">
                            <polygon id="Triangle" fill="#10E7FF" transform="translate(37.587705, 32.781517) scale(1, -1) translate(-37.587705, -32.781517) " points="37.5877046 1.45842946 75.1754093 64.1046039 0 64.1046039"></polygon>
                            <mask id="mask-7" fill="white">
                                <use xlink:href="#path-6"></use>
                            </mask>
                            <use id="Mask" fill="#FFFFFF" transform="translate(37.972200, 16.075870) scale(1, -1) translate(-37.972200, -16.075870) " xlink:href="#path-6"></use>
                        </g>
                    </g>
                </g>
                <path d="M132.694683,29.0839366 L129.850933,29.0839366 L129.850933,13.3544444 L124.087261,13.3544444 L124.087261,10.7646007 L138.445659,10.7646007 L138.445659,13.3544444 L132.694683,13.3544444 L132.694683,29.0839366 Z M141.403667,29.0839366 L141.403667,15.2587413 L144.120464,15.2587413 L144.120464,29.0839366 L141.403667,29.0839366 Z M142.762066,12.8593272 C141.809917,12.8593272 141.035503,12.0595225 141.035503,11.0819835 C141.035503,10.0917491 141.809917,9.29194441 142.762066,9.29194441 C143.714214,9.29194441 144.488628,10.0917491 144.488628,11.0819835 C144.488628,12.0595225 143.714214,12.8593272 142.762066,12.8593272 Z M148.132183,29.0839366 L148.132183,15.2587413 L150.760112,15.2587413 L150.760112,17.480421 L150.963237,17.480421 C151.572612,15.9188975 152.969097,14.9921397 154.809917,14.9921397 C156.701519,14.9921397 158.009136,15.9696788 158.618511,17.480421 L158.834331,17.480421 C159.532573,15.9696788 161.119487,14.9921397 163.03648,14.9921397 C165.829448,14.9921397 167.454448,16.6806163 167.454448,19.5624522 L167.454448,29.0839366 L164.724956,29.0839366 L164.724956,20.2733897 C164.724956,18.4071788 163.836284,17.4931163 162.046245,17.4931163 C160.281597,17.4931163 159.126323,18.7626475 159.126323,20.3876475 L159.126323,29.0839366 L156.447612,29.0839366 L156.447612,20.0067882 C156.447612,18.4452647 155.406597,17.4931163 153.781597,17.4931163 C152.118511,17.4931163 150.861675,18.8515147 150.861675,20.6288585 L150.861675,29.0839366 L148.132183,29.0839366 Z M178.613628,29.3124522 C176.683941,29.3124522 175.071636,28.4237803 174.246441,26.9003428 L174.043316,26.9003428 L174.043316,29.0839366 L171.415386,29.0839366 L171.415386,9.86323347 L174.144878,9.86323347 L174.144878,17.4550303 L174.360698,17.4550303 C175.097027,15.9442882 176.722027,15.0302257 178.613628,15.0302257 C182.117534,15.0302257 184.326519,17.7724132 184.326519,22.1649913 C184.326519,26.5448741 182.104839,29.3124522 178.613628,29.3124522 Z M177.826519,17.480421 C175.541362,17.480421 174.106792,19.2831553 174.094097,22.1776866 C174.106792,25.0722178 175.528667,26.8622569 177.826519,26.8622569 C180.137066,26.8622569 181.520855,25.0976085 181.520855,22.1649913 C181.520855,19.2577647 180.137066,17.480421 177.826519,17.480421 Z M193.276714,17.3153819 C191.258159,17.3153819 189.84898,18.7372569 189.696636,20.89546 L196.679058,20.89546 C196.615581,18.7245616 195.295269,17.3153819 193.276714,17.3153819 Z M196.666362,25.3515147 L199.294292,25.3515147 C198.697612,27.8144053 196.463237,29.3505382 193.302105,29.3505382 C189.341167,29.3505382 186.916362,26.6337413 186.916362,22.2157725 C186.916362,17.7978038 189.391948,14.9921397 193.289409,14.9921397 C197.136089,14.9921397 199.459331,17.6200694 199.459331,21.9618663 L199.459331,22.9140147 L189.696636,22.9140147 L189.696636,23.0663585 C189.785503,25.4911632 191.194683,27.027296 193.378277,27.027296 C195.028667,27.027296 196.15855,26.4306163 196.666362,25.3515147 Z M202.734722,29.0839366 L202.734722,15.2587413 L205.362652,15.2587413 L205.362652,17.3788585 L205.565777,17.3788585 C205.959331,16.02046 207.495464,15.0302257 209.298198,15.0302257 C209.704448,15.0302257 210.224956,15.0683116 210.516948,15.1444835 L210.516948,17.8358897 C210.288433,17.7597178 209.475933,17.6708507 208.993511,17.6708507 C206.924175,17.6708507 205.464214,18.9784678 205.464214,20.9208507 L205.464214,29.0839366 L202.734722,29.0839366 Z M213.41148,29.2997569 C212.345073,29.2997569 211.545269,28.4745616 211.545269,27.4081553 C211.545269,26.3417491 212.345073,25.5165538 213.41148,25.5165538 C214.490581,25.5165538 215.277691,26.3417491 215.277691,27.4081553 C215.277691,28.4745616 214.490581,29.2997569 213.41148,29.2997569 Z M219.53062,29.0839366 L219.53062,15.2587413 L222.247417,15.2587413 L222.247417,29.0839366 L219.53062,29.0839366 Z M220.889019,12.8593272 C219.93687,12.8593272 219.162456,12.0595225 219.162456,11.0819835 C219.162456,10.0917491 219.93687,9.29194441 220.889019,9.29194441 C221.841167,9.29194441 222.615581,10.0917491 222.615581,11.0819835 C222.615581,12.0595225 221.841167,12.8593272 220.889019,12.8593272 Z M232.09898,29.3505382 C228.049175,29.3505382 225.573589,26.6464366 225.573589,22.1649913 C225.573589,17.7089366 228.06187,14.9921397 232.09898,14.9921397 C236.123394,14.9921397 238.611675,17.7089366 238.611675,22.1649913 C238.611675,26.6464366 236.136089,29.3505382 232.09898,29.3505382 Z M232.09898,26.9257335 C234.460308,26.9257335 235.806011,25.1737803 235.806011,22.1649913 C235.806011,19.1688975 234.460308,17.4169444 232.09898,17.4169444 C229.724956,17.4169444 228.391948,19.1688975 228.391948,22.1649913 C228.391948,25.1864757 229.724956,26.9257335 232.09898,26.9257335 Z" id="Timber.io" fill="#001B3D" fill-rule="nonzero"></path>
            </g>
        </g>
    </g>
</svg>