<svg width="453" height="298" viewBox="0 0 453 298" xmlns="http://www.w3.org/2000/svg">
  <g fill="none" fill-rule="evenodd">
    <g fill="#000000" fill-rule="nonzero">
      <path d="M311.519 228.238l-11.579-5.354.35 11.409 11.229-6.055zm-195.885-80.366l-.344-.833-1.665.689.344.833c1.446 3.498 3.331 7.085 5.655 10.76l.482.761 1.522-.964-.482-.761c-2.27-3.59-4.108-7.085-5.512-10.485zm8.859 15.414l-.529-.73-1.458 1.058.528.73c2.232 3.08 4.76 6.222 7.584 9.424l.596.676 1.35-1.192-.595-.676c-2.787-3.16-5.279-6.257-7.476-9.29zm11.51 13.693l-.62-.653-1.306 1.241.62.653a201.866 201.866 0 008.581 8.482l.659.615 1.229-1.317-.659-.615a200.07 200.07 0 01-8.504-8.406zm12.938 12.443l-.673-.599-1.197 1.347.674.599a293.794 293.794 0 009.174 7.81l.697.57 1.14-1.395-.697-.57a291.996 291.996 0 01-9.118-7.762zm13.778 11.504l-.708-.558-1.115 1.415.707.558.898.707c2.772 2.173 5.819 4.213 9.14 6.118l.781.448.896-1.563-.781-.448c-3.248-1.864-6.223-3.855-8.924-5.974-.3-.234-.598-.469-.894-.703zm15.071 9.463l-.808-.397-.793 1.618.809.397c3.462 1.698 7.177 3.272 11.147 4.724l.846.31.618-1.693-.846-.31c-3.911-1.43-7.569-2.98-10.973-4.65zm16.616 6.575l-.859-.273-.545 1.717.858.273a170.284 170.284 0 0011.634 3.232l.876.211.422-1.752-.875-.211c-4.033-.974-7.87-2.04-11.511-3.197zm17.35 4.513l-.881-.185-.37 1.764.88.185c3.797.798 7.75 1.522 11.856 2.17l.89.14.28-1.78-.889-.14c-4.077-.644-8-1.362-11.766-2.154zm17.676 3.021l-.892-.12-.243 1.785.893.121c3.86.525 7.848.988 11.964 1.39l.897.087.174-1.794-.896-.087c-4.094-.4-8.06-.86-11.897-1.382zm17.868 1.914l-.897-.072-.146 1.796.898.072c3.895.316 7.898.579 12.008.79l.9.047.093-1.8-.9-.046a408.82 408.82 0 01-11.956-.787zm17.952 1.056l-.9-.035-.069 1.8.9.035c3.916.15 7.925.256 12.027.317l.9.013.027-1.802-.9-.013a510.12 510.12 0 01-11.985-.315zm17.98.372l-.9-.004-.007 1.802.9.004c3.927.016 7.936-.006 12.027-.068l.9-.014-.027-1.802-.9.014c-4.08.062-8.077.084-11.992.068z"/>
      <path d="M300.087 227.621c-2.813.082-5.583.157-8.311.225l-.9.022.044 1.802.9-.023c2.733-.067 5.508-.142 8.325-.224l.153 4.806 11.22-6.07-11.584-5.338.153 4.8zm-185.581-21.145l-.848-.305-.61 1.696.848.305a383.777 383.777 0 0011.389 3.894l.856.278.556-1.715-.857-.278a381.976 381.976 0 01-11.334-3.875zm17.048 5.68l-.86-.264-.53 1.722.861.265a384.115 384.115 0 0011.561 3.354l.87.238.474-1.739-.869-.237a382.314 382.314 0 01-11.507-3.339zm17.302 4.874l-.872-.224-.447 1.746.872.224c3.883.996 7.784 1.932 11.705 2.809l.88.196.392-1.758-.879-.197a385.195 385.195 0 01-11.65-2.796zm17.514 4.06l-.882-.183-.366 1.764.882.183c3.922.814 7.863 1.568 11.823 2.264l.887.156.311-1.775-.887-.156a390.613 390.613 0 01-11.768-2.253zm17.67 3.243l-.89-.142-.284 1.78.889.142c.574.092 1.15.182 1.724.272 3.131.487 6.54.926 10.23 1.318l.895.095.19-1.792-.895-.096a211.853 211.853 0 01-11.86-1.577zm17.817 2.148l-.898-.078-.154 1.796.897.077c3.754.323 7.757.604 12.009.842l.9.05.1-1.799-.9-.05c-4.234-.238-8.219-.517-11.954-.838zm17.941 1.138l-.9-.04-.08 1.8.9.04c3.825.17 7.83.31 12.018.42l.9.023.047-1.801-.9-.024a648.911 648.911 0 01-11.985-.418zm17.977.551l-.9-.017-.034 1.802.9.017c3.864.071 7.87.118 12.02.141l.9.005.01-1.802-.9-.005c-4.142-.023-8.14-.07-11.996-.141zm17.996.157h-.9v1.802h.9c3.888 0 7.894-.02 12.017-.059l.9-.009-.017-1.802-.9.009c-4.118.04-8.118.06-12 .06zm17.998-.13l-.9.013.025 1.802.9-.013c3.905-.054 7.91-.125 12.014-.213l.9-.019-.038-1.802-.9.02c-4.1.087-8.1.158-12 .212z"/>
      <path d="M300.085 227.65c-.878.02-1.751.037-2.622.052l-.9.015.03 1.802.9-.015c.882-.015 1.767-.032 2.656-.052l.17 4.813 11.2-6.106-11.603-5.3.17 4.791zM113.827 114.218l-.358-.827-1.653.715.357.827a289.072 289.072 0 005.008 10.962l.392.812 1.622-.784-.392-.811a287.27 287.27 0 01-4.976-10.894zm7.639 16.257l-.41-.802-1.604.82.41.802a254.471 254.471 0 005.729 10.606l.447.783 1.563-.895-.447-.782a252.67 252.67 0 01-5.688-10.532zm8.726 15.695l-.467-.771-1.54.934.466.77a225.06 225.06 0 006.518 10.147l.507.745 1.489-1.015-.508-.745a223.259 223.259 0 01-6.465-10.065zm9.9 14.956l-.528-.73-1.46 1.057.529.73a201.078 201.078 0 007.36 9.56l.572.697 1.393-1.143-.571-.697a199.277 199.277 0 01-7.295-9.474zm11.162 14.045l-.593-.678-1.356 1.186.593.678c2.673 3.06 5.419 6.002 8.235 8.826l.636.638 1.275-1.273-.636-.638a180.894 180.894 0 01-8.154-8.739zm12.44 12.89l-.658-.615-1.23 1.316.657.615c2.96 2.77 5.994 5.415 9.103 7.936l.7.567 1.133-1.4-.7-.567a168.32 168.32 0 01-9.005-7.852zm13.718 11.533l-.72-.542-1.083 1.44.72.542c.896.674 1.798 1.338 2.706 1.992a99.701 99.701 0 007.318 4.793l.774.46.92-1.548-.773-.46a97.9 97.9 0 01-7.186-4.707c-.898-.647-1.79-1.304-2.676-1.97zm15.074 9.582l-.799-.417-.833 1.598.798.417c3.478 1.816 7.142 3.5 10.991 5.053l.836.337.673-1.671-.835-.337a121.887 121.887 0 01-10.831-4.98zm16.401 7.087l-.849-.3-.601 1.698.849.3a160.21 160.21 0 0011.53 3.59l.87.236.471-1.74-.87-.236a158.412 158.412 0 01-11.4-3.548zm17.204 5.02l-.877-.207-.414 1.754.877.207c3.808.9 7.747 1.706 11.817 2.42l.887.155.31-1.776-.886-.155a204.747 204.747 0 01-11.714-2.398zm17.605 3.352l-.891-.133-.265 1.783.89.132a261.77 261.77 0 0011.958 1.492l.896.092.183-1.793-.896-.092a259.97 259.97 0 01-11.875-1.481zm17.844 2.028l-.897-.073-.146 1.796.897.073c3.91.318 7.916.567 12.02.748l.9.04.079-1.8-.9-.04c-4.081-.18-8.066-.428-11.953-.744zm17.94.957l-.9-.025-.05 1.802.9.025c3.927.107 7.94.155 12.036.142l.9-.002-.005-1.803-.9.003c-4.08.012-8.073-.035-11.981-.142z"/>
      <path d="M300.084 227.876l-.54.017-.901.028.056 1.801.9-.028.553-.018.183 4.808 11.184-6.136-11.617-5.27.182 4.798zm-184.633-50.834l-.623-.65-1.3 1.248.624.65a150.69 150.69 0 008.706 8.377l.674.598 1.196-1.348-.674-.598a148.889 148.889 0 01-8.603-8.277zm13.152 12.155l-.697-.57-1.14 1.395.696.57a153.805 153.805 0 009.642 7.279l.74.514 1.028-1.48-.74-.514a152.004 152.004 0 01-9.53-7.194zm14.503 10.511l-.759-.485-.97 1.518.758.486a163.366 163.366 0 0010.409 6.125l.792.428.856-1.586-.792-.428a161.565 161.565 0 01-10.294-6.058zm15.593 8.8l-.807-.4-.8 1.615.808.4a179.235 179.235 0 0010.993 4.986l.832.345.69-1.666-.833-.344a177.435 177.435 0 01-10.883-4.936zm16.458 7.14l-.843-.318-.636 1.686.843.318c2.057.775 4.142 1.522 6.256 2.238 1.657.562 3.378 1.102 5.164 1.619l.865.25.501-1.731-.865-.25c-1.76-.51-3.456-1.041-5.087-1.594-2.094-.71-4.16-1.45-6.198-2.219zm17.05 5.346l-.875-.214-.427 1.75.875.215c3.699.904 7.638 1.725 11.815 2.463l.887.157.313-1.775-.887-.157c-4.14-.731-8.04-1.544-11.7-2.44zm17.603 3.402l-.891-.134-.268 1.782.891.134c3.804.571 7.787 1.08 11.95 1.528l.896.096.192-1.792-.896-.096a284.83 284.83 0 01-11.874-1.518zm17.833 2.105l-.897-.08-.16 1.794.896.08c3.86.347 7.86.644 12.004.892l.9.054.107-1.799-.9-.054c-4.126-.247-8.109-.542-11.95-.887zm17.945 1.207l-.9-.042-.084 1.8.9.042c3.89.183 7.897.325 12.022.426l.9.022.044-1.801-.9-.023a536.092 536.092 0 01-11.982-.424zm17.961.542l-.9-.014-.027 1.802.9.014c3.909.057 7.917.08 12.025.069l.9-.003-.005-1.802-.9.002c-4.098.012-8.095-.011-11.993-.068zm17.996.027l-.9.01.019 1.802.9-.01c3.92-.041 7.927-.113 12.02-.215l.901-.023-.045-1.801-.9.022c-4.086.102-8.084.174-11.995.215z"/>
      <path d="M300.1 227.908c-2.263.032-4.5.065-6.714.099l-.9.013.027 1.802.9-.013c2.213-.034 4.45-.067 6.71-.1l.067 4.805 11.329-5.862-11.486-5.55.066 4.806zm-186.627 9.2l-.892.128.255 1.784.892-.128c3.818-.546 7.78-1.064 11.888-1.554l.894-.106-.213-1.79-.894.107a514.866 514.866 0 00-11.93 1.559zm17.905-2.24l-.896.097.195 1.791.896-.097c3.858-.421 7.836-.819 11.934-1.193l.897-.082-.164-1.795-.897.082a685.9 685.9 0 00-11.965 1.196zm17.955-1.72l-.897.075.15 1.796.897-.075c3.886-.325 7.873-.63 11.962-.915l.899-.063-.126-1.798-.898.063a874.08 874.08 0 00-11.987.917zm17.982-1.316l-.899.057.114 1.798.9-.057c3.904-.248 7.897-.479 11.978-.692l.9-.047-.094-1.8-.9.047c-4.088.214-8.088.445-11.999.694zm17.999-.993l-.9.043.085 1.8.9-.043c3.742-.176 7.738-.348 11.99-.515l.9-.035-.071-1.8-.9.035c-4.256.166-8.257.338-12.004.515zm18.009-.741l-.9.032.065 1.801.9-.032a2417 2417 0 0111.997-.401l.9-.028-.056-1.802-.9.028c-4.186.13-8.188.264-12.006.402zm18.009-.582l-.9.026.052 1.802.9-.026c3.856-.112 7.857-.221 12.002-.327l.9-.024-.045-1.801-.9.023c-4.148.106-8.15.215-12.01.327zm18.01-.476l-.9.022.044 1.801.9-.021c3.882-.094 7.883-.185 12.003-.274l.9-.02-.039-1.801-.9.02c-4.121.088-8.123.18-12.007.273zm18.015-.4l-.9.019.036 1.802.9-.019c3.902-.08 7.903-.157 12.006-.233l.9-.016-.033-1.802-.9.017c-4.104.075-8.107.153-12.009.232zm18.013-.34l-.901.016.032 1.802.9-.016c3.914-.069 7.916-.135 12.006-.2l.9-.015-.028-1.802-.9.015c-4.091.065-8.094.131-12.01.2z"/>
    </g>
    <g fill="#000000" fill-rule="nonzero">
      <path d="M299.347 123.832l-1.638-.035-.9-.018.036-1.804.9.018 1.657.035.147-4.816 11.22 6.062-11.57 5.36.148-4.802zm-184.908 82.894l-.327.84-1.677-.654.326-.84a72.13 72.13 0 011.41-3.37l.37-.823 1.642.74-.37.823a70.324 70.324 0 00-1.374 3.284zm2.911-6.506l-.406.805-1.606-.816.407-.805a85.428 85.428 0 011.714-3.216l.44-.787 1.57.884-.44.787a83.623 83.623 0 00-1.679 3.148zm3.486-6.23l-.471.77-1.534-.945.471-.77c.625-1.02 1.278-2.042 1.958-3.067l.499-.751 1.498.999-.498.751a99.614 99.614 0 00-1.923 3.013zm3.953-5.964l-.523.734-1.465-1.048.523-.735c.693-.973 1.41-1.949 2.153-2.927l.544-.718 1.433 1.092-.545.718c-.73.964-1.438 1.925-2.12 2.884zm4.32-5.7l-.565.703-1.402-1.132.565-.702c.748-.931 1.518-1.864 2.31-2.8l.582-.688 1.372 1.168-.582.688a139.08 139.08 0 00-2.28 2.763zm4.631-5.473l-.598.674-1.344-1.2.598-.674a164.11 164.11 0 012.439-2.683l.613-.66 1.317 1.23-.613.66c-.824.886-1.628 1.77-2.412 2.653zm4.882-5.258l-.627.648-1.291-1.257.626-.647c.83-.858 1.678-1.717 2.545-2.578l.639-.636 1.267 1.281-.639.636c-.858.853-1.698 1.704-2.52 2.553zm5.093-5.066l-.65.624-1.245-1.303.65-.624a216.96 216.96 0 012.633-2.484l.66-.612 1.223 1.324-.66.613c-.887.822-1.757 1.643-2.611 2.462zm5.266-4.887l-.67.602-1.202-1.343.67-.602c.887-.798 1.79-1.598 2.707-2.399l.679-.592 1.182 1.36-.679.593c-.91.795-1.807 1.589-2.687 2.38zm5.394-4.71l-.687.582-1.163-1.377.686-.583c.91-.772 1.834-1.546 2.771-2.321l.695-.574 1.145 1.392-.694.574c-.932.77-1.85 1.539-2.753 2.306zm5.536-4.58l-.702.566-1.128-1.406.701-.565c.93-.75 1.872-1.5 2.827-2.252l.708-.557 1.111 1.419-.707.557c-.95.747-1.887 1.494-2.81 2.239zm5.658-4.377l-.734.522-1.042-1.471.734-.522a75.804 75.804 0 013.022-2.042l.758-.487.97 1.52-.757.486a74.005 74.005 0 00-2.951 1.994zm5.996-3.852l-.779.452-.902-1.561.779-.453a89.866 89.866 0 013.184-1.763l.797-.42.838 1.597-.796.42a88.067 88.067 0 00-3.12 1.728zm6.305-3.333l-.811.39-.78-1.626.812-.39a106.546 106.546 0 013.298-1.518l.824-.363.723 1.653-.824.362c-1.104.486-2.185.984-3.242 1.492zm6.55-2.884l-.835.336-.671-1.674.835-.337c1.106-.445 2.234-.88 3.384-1.306l.844-.312.623 1.693-.844.312c-1.134.42-2.246.848-3.336 1.288zm6.699-2.48l-.852.29-.578-1.71.852-.29a147.28 147.28 0 013.447-1.123l.859-.268.536 1.722-.86.269c-1.154.36-2.289.73-3.404 1.11zm6.837-2.14l-.865.249-.496-1.734.865-.25c1.145-.329 2.307-.65 3.487-.963l.87-.23.46 1.744-.87.23c-1.168.31-2.318.628-3.45.954zm6.929-1.838l-.875.214-.426-1.753.875-.214a196.97 196.97 0 013.52-.824l.878-.197.394 1.76-.878.198c-1.179.264-2.342.537-3.488.816zm7.004-1.574l-.881.182-.363-1.767.881-.182a224.94 224.94 0 013.546-.703l.885-.168.335 1.773-.885.168c-1.187.225-2.36.458-3.518.697zm7.02-1.335l-.887.155-.308-1.778.887-.154a254.69 254.69 0 013.565-.596l.889-.142.283 1.782-.888.142c-1.194.19-2.374.388-3.54.591zm7.091-1.134l-.89.13-.26-1.785.89-.13c1.18-.173 2.372-.34 3.577-.5l.892-.119.237 1.789-.892.119c-1.197.16-2.382.325-3.554.496zm7.118-.95l-.894.109-.216-1.791.894-.109c1.184-.143 2.379-.281 3.586-.413l.894-.099.196 1.794-.894.098c-1.2.132-2.39.269-3.566.412zm7.138-.783l-.896.088-.177-1.795.896-.089c1.187-.117 2.386-.23 3.594-.337l.897-.08.158 1.798-.896.08c-1.203.106-2.395.218-3.576.335zm7.158-.635l-.898.07-.14-1.798.896-.071c1.19-.094 2.39-.183 3.599-.267l.898-.063.124 1.8-.898.063c-1.204.084-2.397.172-3.581.266zm7.172-.5l-.899.054-.109-1.8.899-.055c1.19-.073 2.39-.14 3.6-.204l.9-.047.093 1.802-.899.047c-1.204.063-2.4.13-3.585.203zm7.174-.377l-.9.04-.08-1.803.9-.04c1.192-.053 2.394-.101 3.604-.146l.9-.033.065 1.803-.9.034c-1.205.044-2.402.092-3.59.145zm7.186-.264l-.9.026-.052-1.803.9-.027c1.193-.035 2.395-.066 3.605-.093l.9-.02.04 1.804-.9.02c-1.206.027-2.403.058-3.593.093zm7.193-.161l-.9.014-.028-1.804.9-.014c1.194-.019 2.396-.033 3.606-.044l.9-.009.016 1.805-.9.008c-1.206.01-2.404.025-3.594.044zm7.193-.065l-.9.002-.005-1.804.9-.003a599.83 599.83 0 013.606.001l.9.003-.006 1.804-.9-.003a598.039 598.039 0 00-3.595 0zm7.191.022l-.9-.008.016-1.804.9.008c1.195.011 2.397.025 3.605.043l.9.013-.026 1.804-.9-.013a643.91 643.91 0 00-3.595-.043z"/>
      <path d="M299.346 123.891l-.882-.025-.9-.026.052-1.804.9.026.887.026.154-4.812 11.212 6.076-11.576 5.346.153-4.807zm-184.168 24.148l-.817.379-.756-1.638.817-.378a264.582 264.582 0 013.291-1.498l.822-.367.733 1.648-.822.367c-1.092.488-2.182.984-3.268 1.487zm6.555-2.928l-.827.356-.71-1.658.827-.356c1.107-.477 2.217-.945 3.33-1.406l.832-.345.687 1.668-.832.344c-1.105.458-2.207.924-3.307 1.397zm6.63-2.746l-.837.333-.664-1.677.836-.333a261.7 261.7 0 013.367-1.313l.841-.322.641 1.686-.84.321c-1.118.428-2.232.862-3.344 1.305zm6.71-2.565l-.844.31-.618-1.695.845-.31c1.13-.414 2.264-.82 3.4-1.22l.85-.297.594 1.703-.849.298c-1.128.396-2.254.8-3.377 1.21zm6.769-2.374l-.854.286-.57-1.711.853-.287a261.21 261.21 0 013.433-1.125l.858-.274.547 1.719-.857.274c-1.14.365-2.276.737-3.41 1.118zm6.837-2.189l-.861.263-.524-1.726.86-.263c1.153-.351 2.307-.694 3.464-1.03l.865-.25.5 1.733-.865.25c-1.149.334-2.295.675-3.44 1.023zm6.897-1.999l-.868.239-.476-1.74.868-.239c1.16-.319 2.324-.63 3.49-.934l.871-.226.452 1.746-.87.227c-1.159.301-2.314.61-3.467.927zm6.941-1.806l-.874.214-.429-1.752.875-.215c1.168-.287 2.34-.566 3.514-.838l.877-.203.404 1.758-.877.203c-1.166.27-2.33.547-3.49.833zm6.992-1.618l-.88.191-.38-1.763.88-.191c1.175-.255 2.354-.503 3.535-.742l.882-.18.357 1.769-.882.179a265.6 265.6 0 00-3.512.737zm7.035-1.427l-.884.167-.334-1.773.885-.167a270.43 270.43 0 013.554-.647l.886-.156.31 1.778-.887.155c-1.179.207-2.356.42-3.53.643zm7.072-1.24l-.889.144-.286-1.781.889-.144c.497-.08.994-.159 1.492-.236.684-.107 1.377-.21 2.085-.312l.89-.128.256 1.786-.891.128a174.667 174.667 0 00-3.546.544zm7.097-1.02l-.893.112-.223-1.79.893-.112c1.164-.146 2.36-.287 3.587-.422l.894-.099.197 1.794-.895.098a237.1 237.1 0 00-3.56.419zm7.133-.788l-.896.087-.173-1.796.896-.087c1.172-.114 2.37-.223 3.595-.327l.896-.077.153 1.798-.896.076c-1.218.104-2.41.213-3.575.326zm7.157-.613l-.898.067-.135-1.799.898-.068a402.4 402.4 0 013.6-.254l.898-.06.119 1.8-.898.06c-1.217.081-2.412.165-3.584.254zm7.169-.477l-.899.053-.104-1.802.899-.052c1.18-.069 2.38-.134 3.599-.196l.899-.046.09 1.802-.898.046c-1.215.062-2.41.127-3.586.195zm7.177-.366l-.9.04-.079-1.803.9-.04c1.184-.052 2.385-.101 3.603-.148l.9-.034.068 1.803-.9.034c-1.214.047-2.412.096-3.592.148zm7.185-.275l-.9.03-.058-1.804.9-.03c1.185-.038 2.386-.074 3.602-.107l.9-.025.05 1.804-.9.025c-1.214.033-2.412.069-3.594.107zm7.189-.197l-.9.02-.04-1.804.9-.02a809.9 809.9 0 013.604-.074l.9-.016.033 1.804-.9.016c-1.213.022-2.412.047-3.597.074zm7.194-.131l-.9.012-.025-1.804.9-.013c1.188-.016 2.388-.03 3.602-.043l.9-.01.018 1.805-.9.01c-1.211.012-2.41.026-3.595.043zm7.19-.074l-.9.006-.012-1.804.9-.006c1.19-.008 2.39-.013 3.603-.017l.9-.003.006 1.805-.9.002c-1.21.004-2.41.01-3.597.017zm7.192-.022h-.9v-1.804h.9c1.19 0 2.391.002 3.603.006l.9.003-.006 1.805-.9-.003c-1.21-.004-2.409-.006-3.597-.007zm7.194.024l-.9-.006.01-1.804.9.005c1.191.008 2.392.017 3.603.028l.9.008-.016 1.804-.9-.008c-1.21-.011-2.408-.02-3.597-.027zm7.192.064l-.9-.01.02-1.805.9.01c1.191.014 2.391.03 3.601.047l.9.012-.025 1.804-.9-.012c-1.208-.017-2.407-.033-3.596-.046zm7.2.1l-.9-.014.029-1.804.9.015c1.191.02 2.392.04 3.601.063l.9.017-.033 1.804-.9-.017c-1.208-.023-2.408-.044-3.598-.063zm7.195.135l-.9-.019.037-1.804.9.02c1.192.024 2.392.05 3.601.078l.9.02-.041 1.805-.9-.02c-1.208-.029-2.407-.055-3.597-.08zm7.19.165l-.9-.022.044-1.804.9.022c1.192.03 2.392.061 3.6.094l.9.024-.048 1.804-.9-.025-3.597-.093z"/>
      <path d="M310.769 123.353l-11.594 5.307.402-11.42 11.192 6.113zM114.433 238.014l-.34.836-1.666-.68.34-.836c.455-1.122.916-2.236 1.382-3.342l.35-.831 1.658.702-.35.83c-.463 1.1-.92 2.207-1.374 3.321zm2.79-6.625l-.36.827-1.65-.723.361-.827c.485-1.11.974-2.213 1.47-3.307l.37-.822 1.64.745-.371.822a272.378 272.378 0 00-1.46 3.285zm2.964-6.553l-.383.816-1.63-.767.383-.816a260.04 260.04 0 011.56-3.27l.394-.81 1.618.789-.394.811a258.245 258.245 0 00-1.548 3.247zm3.144-6.474l-.406.806-1.607-.813.406-.806a246.751 246.751 0 011.65-3.22l.418-.8 1.595.837-.418.8a244.945 244.945 0 00-1.638 3.196zm3.325-6.37l-.43.793-1.581-.86.429-.793a234.33 234.33 0 011.749-3.173l.441-.786 1.569.885-.441.786c-.585 1.04-1.163 2.09-1.736 3.148zm3.516-6.263l-.453.78-1.555-.91.454-.78c.61-1.046 1.225-2.084 1.847-3.112l.466-.772 1.54.935-.467.772c-.616 1.02-1.227 2.049-1.832 3.087zm3.722-6.156l-.48.764-1.523-.96.48-.764a212.11 212.11 0 011.95-3.052l.492-.755 1.507.987-.492.755c-.65.999-1.295 2.007-1.934 3.025zm3.915-6.009l-.505.747-1.49-1.013.505-.746a202.37 202.37 0 012.056-2.98l.518-.738 1.472 1.04-.519.737c-.685.975-1.364 1.96-2.037 2.953zm4.13-5.874l-.531.728-1.452-1.066.532-.728a193.53 193.53 0 012.164-2.904l.545-.718 1.432 1.093-.545.718c-.721.949-1.436 1.908-2.144 2.877zm4.346-5.717l-.56.707-1.41-1.12.56-.707c.75-.951 1.51-1.892 2.274-2.821l.573-.696 1.388 1.148-.572.696c-.758.92-1.509 1.852-2.253 2.793zm4.562-5.544l-.586.684-1.366-1.175.587-.685c.788-.92 1.583-1.828 2.384-2.726l.6-.673 1.342 1.203-.6.673c-.794.889-1.58 1.788-2.36 2.699zm4.782-5.356l-.614.66-1.316-1.231.614-.66c.825-.887 1.657-1.762 2.496-2.627l.627-.647 1.29 1.258-.627.647c-.83.856-1.654 1.722-2.47 2.6zm4.98-5.132l-.641.633-1.264-1.285.642-.634c.86-.85 1.73-1.69 2.605-2.518l.654-.62 1.236 1.313-.655.62c-.866.819-1.725 1.649-2.577 2.49zm5.21-4.928l-.668.605-1.207-1.34.668-.604c.898-.812 1.802-1.613 2.713-2.402l.682-.59 1.176 1.366-.681.59c-.902.78-1.796 1.572-2.683 2.375zm5.422-4.694l-.694.575-1.146-1.392.694-.574c.932-.771 1.872-1.53 2.818-2.278l.707-.559 1.114 1.417-.707.559c-.936.74-1.865 1.49-2.786 2.252zm5.628-4.445l-.72.542-1.08-1.442.719-.542a158.446 158.446 0 012.92-2.149l.732-.524 1.046 1.469-.732.524-.316.227c-.862.623-1.718 1.254-2.569 1.895zm5.828-4.146l-.751.496-.99-1.506.75-.497a101.376 101.376 0 013.07-1.948l.769-.47.936 1.542-.77.47a99.577 99.577 0 00-3.014 1.913zm6.096-3.722l-.784.442-.883-1.572.785-.442a111.18 111.18 0 013.191-1.732l.799-.417.83 1.6-.798.417a109.382 109.382 0 00-3.14 1.704zm6.337-3.308l-.811.391-.781-1.626.81-.391c1.08-.522 2.178-1.032 3.292-1.53l.822-.367.733 1.648-.822.368c-1.098.49-2.179.993-3.243 1.507zm6.53-2.92l-.832.343-.687-1.668.832-.344c1.107-.457 2.229-.904 3.367-1.34l.84-.321.642 1.685-.84.322c-1.123.43-2.23.87-3.322 1.322zm6.677-2.558l-.849.3-.6-1.7.85-.301c1.127-.4 2.27-.789 3.427-1.168l.856-.28.558 1.716-.855.28c-1.144.374-2.273.758-3.387 1.153zm6.81-2.23l-.861.26-.52-1.727.862-.26c1.145-.347 2.303-.683 3.475-1.01l.867-.241.482 1.738-.867.242c-1.16.323-2.305.656-3.438.998zm6.903-1.925l-.872.224-.446-1.748.871-.224c1.16-.298 2.33-.586 3.515-.865l.876-.207.413 1.756-.877.207c-1.172.277-2.333.562-3.48.857zm6.981-1.649l-.88.19-.38-1.763.88-.19c1.169-.253 2.349-.498 3.54-.734l.883-.174.35 1.77-.884.175c-1.181.233-2.35.476-3.509.726zm7.038-1.394l-.886.16-.32-1.776.886-.16c1.176-.212 2.363-.417 3.56-.613l.89-.146.29 1.78-.888.146c-1.189.195-2.366.398-3.532.609zm7.056-1.16l-.89.133-.264-1.785.89-.132c1.182-.176 2.374-.344 3.577-.505l.892-.12.238 1.79-.892.118c-1.194.16-2.378.327-3.551.501zm7.112-.951l-.894.106-.213-1.791.894-.107c1.186-.142 2.383-.277 3.59-.405l.895-.095.19 1.794-.896.095c-1.198.127-2.387.262-3.566.403zm7.147-.76l-.897.084-.166-1.797.896-.083c1.19-.111 2.39-.216 3.598-.313l.897-.073.145 1.798-.897.073c-1.201.097-2.393.201-3.576.312zm7.152-.58l-.898.063-.124-1.8.897-.063c1.192-.082 2.393-.158 3.602-.229l.899-.052.104 1.801-.899.053c-1.202.07-2.396.145-3.581.228zm7.172-.416l-.899.042-.085-1.802.9-.043c1.193-.056 2.395-.107 3.605-.152l.9-.033.066 1.803-.9.034c-1.204.044-2.4.094-3.587.15zm7.176-.266l-.9.024-.048-1.804.9-.024c1.195-.032 2.397-.059 3.608-.08l.9-.016.031 1.804-.9.016c-1.205.021-2.402.048-3.59.08zm7.192-.127l-.9.008-.015-1.804.9-.008c1.195-.01 2.398-.015 3.608-.014h.9v1.805h-.9c-1.206-.001-2.403.003-3.593.013zm7.183.003l-.9-.008.016-1.804.9.008c1.195.01 2.398.027 3.607.047l.9.016-.03 1.804-.9-.016c-1.205-.02-2.403-.036-3.593-.047z"/>
      <path d="M310.769 123.164l-11.608 5.275.432-11.419 11.176 6.144zm-195.282 54.332l-.58.689-1.375-1.165.58-.689a147.41 147.41 0 012.373-2.742l.598-.675 1.345 1.199-.598.674c-.79.892-1.571 1.795-2.343 2.71zm4.754-5.36l-.614.658-1.316-1.232.615-.659c.826-.886 1.662-1.76 2.507-2.623l.63-.643 1.285 1.264-.631.644c-.835.852-1.66 1.715-2.476 2.59zm5.017-5.119l-.646.628-1.252-1.297.647-.628c.869-.842 1.747-1.672 2.635-2.49l.663-.611 1.218 1.328-.663.61c-.877.809-1.744 1.629-2.602 2.46zm5.267-4.852l-.678.594-1.184-1.36.678-.593c.91-.796 1.83-1.58 2.759-2.352l.693-.576 1.148 1.39-.693.575c-.917.762-1.825 1.537-2.723 2.322zm5.514-4.58l-.708.558-1.112-1.419.707-.557c.95-.748 1.909-1.485 2.878-2.209l.721-.54 1.076 1.447-.721.54c-.957.715-1.904 1.441-2.841 2.18zm5.744-4.293l-.735.52-1.038-1.473.735-.52c.985-.698 1.98-1.384 2.984-2.058l.748-.501 1.001 1.5-.748.5c-.992.666-1.974 1.343-2.947 2.032zm5.934-3.98l-.76.482-.963-1.524.76-.483a145.096 145.096 0 013.084-1.904l.772-.464.925 1.548-.772.464c-1.025.615-2.04 1.242-3.046 1.88zm6.144-3.69l-.783.445-.887-1.57.784-.444a148.583 148.583 0 013.173-1.75l.794-.424.848 1.591-.794.425c-1.054.565-2.1 1.14-3.135 1.728zm6.317-3.381l-.803.405-.81-1.611.804-.406c1.075-.543 2.16-1.074 3.254-1.594l.813-.387.771 1.63-.813.387c-1.081.514-2.153 1.04-3.216 1.576zm6.476-3.08l-.822.368-.733-1.648.822-.367c1.098-.491 2.206-.972 3.322-1.44l.83-.35.696 1.665-.83.349c-1.104.463-2.199.938-3.285 1.424zm6.613-2.778l-.837.33-.659-1.68.838-.33c1.119-.44 2.247-.87 3.383-1.29l.845-.31.622 1.693-.845.311c-1.124.415-2.24.84-3.347 1.276zm6.69-2.47l-.85.295-.586-1.707.85-.293.754-.258c.879-.299 1.776-.59 2.69-.877l.86-.268.535 1.722-.859.269a112.699 112.699 0 00-3.393 1.118zm6.823-2.134l-.867.244-.487-1.737.867-.244c1.141-.322 2.308-.634 3.5-.937l.873-.222.443 1.749-.873.222c-1.178.3-2.33.608-3.456.925zm6.937-1.768l-.877.202-.403-1.758.877-.202c1.156-.267 2.334-.525 3.535-.776l.881-.184.367 1.766-.88.184c-1.19.249-2.356.505-3.5.768zm7.015-1.467l-.884.167-.335-1.773.885-.167c1.167-.221 2.353-.436 3.56-.643l.886-.153.305 1.778-.887.153c-1.196.206-2.373.418-3.53.638zm7.075-1.22l-.89.14-.277-1.783.89-.14c1.173-.182 2.365-.36 3.574-.53l.89-.127.253 1.787-.891.126c-1.201.17-2.384.346-3.55.528zm7.098-1.006l-.893.115-.228-1.79.892-.115a296.7 296.7 0 013.583-.437l.894-.103.207 1.792-.894.104c-1.203.14-2.39.284-3.561.434zm7.132-.827l-.895.093-.187-1.794.895-.094c1.183-.123 2.38-.242 3.591-.356l.896-.084.168 1.797-.896.084a340.55 340.55 0 00-3.572.354zm7.152-.672l-.897.075-.15-1.798.897-.075c1.186-.1 2.385-.194 3.597-.285l.897-.067.134 1.8-.898.067c-1.206.09-2.4.184-3.58.283zm7.169-.535l-.898.06-.118-1.801.898-.06c1.188-.078 2.389-.152 3.601-.221l.899-.052.103 1.801-.899.052c-1.207.07-2.403.143-3.586.221zm7.177-.414l-.899.045-.09-1.802.9-.045c1.19-.06 2.39-.115 3.603-.166l.899-.039.076 1.803-.899.038c-1.208.052-2.404.107-3.59.166zm7.166-.305l-.9.032-.063-1.804.9-.032c1.19-.042 2.392-.081 3.604-.116l.9-.026.051 1.803-.9.026c-1.207.035-2.405.074-3.592.117zm7.192-.21l-.9.02-.041-1.803.9-.021c1.192-.027 2.393-.051 3.605-.072l.9-.015.03 1.804-.9.015c-1.208.02-2.406.045-3.594.072zm7.183-.122l-.9.01-.02-1.804.9-.01a667.37 667.37 0 013.604-.031l.9-.005.01 1.804-.9.005c-1.207.007-2.405.018-3.594.031zm7.196-.042h-.9v-1.804h.9c1.192-.002 2.394 0 3.604.006l.9.003-.008 1.805-.9-.004a727.54 727.54 0 00-3.596-.006zm7.19.03l-.9-.008.017-1.805.9.009c1.193.01 2.394.024 3.603.04l.9.012-.024 1.805-.9-.013c-1.207-.016-2.405-.03-3.596-.04zm7.194.097l-.9-.016.032-1.804.9.016c1.193.021 2.394.045 3.603.072l.9.02-.04 1.804-.9-.02c-1.206-.027-2.404-.05-3.595-.072zm7.19.159l-.9-.024.048-1.804.9.024c1.193.031 2.393.065 3.601.101l.9.027-.054 1.804-.9-.027c-1.205-.037-2.404-.07-3.595-.101z"/>
      <path d="M299.358 123.605l-.407-.006.025-1.804.407.005.065-4.81 11.321 5.87-11.477 5.556.066-4.811zm-186.485-9.212l-.891-.128.254-1.786.891.128c1.173.168 2.359.333 3.558.496l.892.12-.241 1.789-.892-.121c-1.204-.163-2.395-.33-3.571-.498zm7.15.97l-.894-.114.23-1.79.892.115c1.176.15 2.364.299 3.565.445l.893.109-.217 1.791-.893-.109a541.67 541.67 0 01-3.577-.447zm7.156.871l-.894-.103.205-1.792.894.103c1.18.136 2.37.27 3.572.4l.895.098-.195 1.794-.895-.098c-1.206-.131-2.4-.265-3.582-.402zm7.169.784l-.895-.093.185-1.794.895.092c1.181.123 2.374.243 3.577.361l.896.088-.176 1.796-.896-.088c-1.206-.118-2.402-.24-3.586-.362zm7.176.706l-.896-.084.166-1.797.896.084c1.184.11 2.377.218 3.581.325l.897.079-.158 1.797-.897-.079a751.869 751.869 0 01-3.59-.325zm7.182.634l-.897-.075.15-1.798.896.075c1.186.1 2.381.197 3.586.292l.897.072-.142 1.798-.897-.07a827.377 827.377 0 01-3.593-.294zm7.181.57l-.897-.067.134-1.8.898.068c1.186.09 2.382.177 3.587.262l.897.064-.127 1.8-.898-.064a905.388 905.388 0 01-3.594-.263zm7.188.512l-.898-.06.12-1.8.899.06c1.188.08 2.384.158 3.589.235l.898.057-.114 1.8-.898-.056a985.922 985.922 0 01-3.596-.236zm7.195.458l-.898-.054.107-1.8.899.053c1.189.072 2.385.142 3.59.21l.899.051-.102 1.801-.899-.05c-1.206-.069-2.405-.14-3.596-.21zm7.195.409l-.899-.048.096-1.802.899.048c1.19.064 2.387.126 3.592.187l.9.045-.091 1.802-.899-.045c-1.207-.061-2.406-.123-3.598-.187zm7.194.362l-.899-.042.085-1.803.899.043c1.174.056 2.372.11 3.596.165l.899.04-.08 1.803-.9-.04c-1.224-.055-2.425-.11-3.6-.166zm7.198.322l-.9-.038.076-1.803.9.038c1.176.05 2.375.099 3.595.147l.9.036-.072 1.803-.9-.036-3.6-.147zm7.2.287l-.9-.034.069-1.803.9.034c1.179.045 2.377.09 3.593.133l.9.033-.065 1.803-.9-.033a2000.66 2000.66 0 01-3.597-.133zm7.195.26l-.9-.03.063-1.804.9.031 3.595.121.9.03-.06 1.803-.899-.03-3.599-.12zm7.2.238l-.899-.028.057-1.804.9.029c1.184.037 2.384.074 3.598.11l.9.028-.054 1.804-.9-.028c-1.215-.036-2.416-.074-3.601-.111zm7.198.218l-.9-.026.053-1.804.9.026c1.184.035 2.383.07 3.596.103l.9.025-.05 1.804-.9-.025c-1.214-.034-2.413-.068-3.6-.103zm7.199.202l-.9-.025.049-1.803.9.024 3.595.095.9.023-.046 1.804-.9-.023-3.598-.095zm7.205.187l-.9-.023.046-1.804.9.023 3.597.088.9.022-.043 1.804-.9-.022-3.6-.088zm7.196.173l-.9-.02.043-1.804.9.02 3.599.083.9.02-.04 1.804-.9-.02a4632.15 4632.15 0 01-3.602-.083zm7.2.163l-.9-.02.04-1.804.899.02 3.6.077.9.02-.039 1.803-.9-.019-3.6-.077zm7.198.152l-.9-.018.037-1.804.9.018 3.597.072.9.018-.035 1.804-.9-.018a5659.27 5659.27 0 01-3.599-.072zm7.197.143l-.9-.018.035-1.804.9.018 3.599.068.9.016-.034 1.804-.9-.016a6197.81 6197.81 0 01-3.6-.068zm7.2.134l-.9-.017.033-1.804.9.017 3.599.064.9.015-.032 1.805-.9-.016-3.6-.064zm7.202.126l-.9-.015.03-1.804.9.015 3.6.06.9.015-.03 1.804-.9-.015-3.6-.06zm7.203.12l-.9-.015.03-1.804.9.014c1.191.02 2.391.038 3.598.057l.9.014-.028 1.804-.9-.014-3.6-.057zm7.2.111l-.9-.013.027-1.804.9.013 3.6.054.9.013-.027 1.805-.9-.014c-1.207-.018-2.407-.035-3.6-.054z"/>
    </g>
    <g fill="#CCCCCC">
      <path d="M52.7 269.5h30v19.404h-30z"/>
      <path d="M68 298l34.5-19.404h-69z"/>
    </g>
    <g fill="#CCCCCC">
      <path d="M52.7 82h30V62.596h-30z"/>
      <path d="M68 53.5l34.5 19.404h-69z"/>
    </g>
    <path fill="#000000" d="M25.848 229.328l42.278 15.244 42.282-15.244-42.282-15.242z"/>
    <path fill="#000000" d="M26.167 244.88v-15.625l42.284-15.24 42.112 15.24V244.5L68.45 259.743 26.17 244.88z"/>
    <path d="M70.595 233.068l8.457 3.048c1.171.422 1.171 1.103 0 1.525l-8.457 3.048c-1.17.422-3.058.422-4.228 0l-8.457-3.048c-1.171-.422-1.171-1.103 0-1.525l8.457-3.048c1.17-.422 3.058-.422 4.228 0z" fill="#10E7FF"/>
    <path fill="#000000" d="M26.167 229.252v15.242l42.198 15.243v-15.243z"/>
    <path fill="#000000" d="M68.365 244.5l42.198-15.244V244.5l-42.198 15.244z"/>
    <g>
      <path fill="#000000" d="M25.848 198.728l42.278 15.244 42.282-15.244-42.282-15.242z"/>
      <path fill="#000000" d="M26.167 214.28v-15.625l42.284-15.24 42.112 15.24V213.9L68.45 229.143 26.17 214.28z"/>
      <path d="M70.595 202.468l8.457 3.048c1.171.422 1.171 1.103 0 1.525l-8.457 3.048c-1.17.422-3.058.422-4.228 0l-8.457-3.048c-1.171-.422-1.171-1.103 0-1.525l8.457-3.048c1.17-.422 3.058-.422 4.228 0z" fill="#10E7FF"/>
      <path fill="#000000" d="M26.167 198.652v15.242l42.198 15.243v-15.243z"/>
      <path fill="#000000" d="M68.365 213.9l42.198-15.244V213.9l-42.198 15.244z"/>
    </g>
    <g>
      <path fill="#000000" d="M25.848 168.128l42.278 15.244 42.282-15.244-42.282-15.242z"/>
      <path fill="#000000" d="M26.167 183.68v-15.625l42.284-15.24 42.112 15.24V183.3L68.45 198.543 26.17 183.68z"/>
      <path d="M70.595 171.868l8.457 3.048c1.171.422 1.171 1.103 0 1.525l-8.457 3.048c-1.17.422-3.058.422-4.228 0l-8.457-3.048c-1.171-.422-1.171-1.103 0-1.525l8.457-3.048c1.17-.422 3.058-.422 4.228 0z" fill="#10E7FF"/>
      <path fill="#000000" d="M26.167 168.052v15.242l42.198 15.243v-15.243z"/>
      <path fill="#000000" d="M68.365 183.3l42.198-15.244V183.3l-42.198 15.244z"/>
    </g>
    <g>
      <path fill="#000000" d="M25.25 138.128l42.279 15.244 42.28-15.244-42.28-15.242z"/>
      <path fill="#000000" d="M25.57 153.68v-15.625l42.283-15.24 42.112 15.24V153.3l-42.112 15.244-42.28-14.863z"/>
      <path d="M69.997 141.868l8.457 3.048c1.171.422 1.171 1.103 0 1.525l-8.457 3.048c-1.17.422-3.058.422-4.228 0l-8.457-3.048c-1.17-.422-1.17-1.103 0-1.525l8.457-3.048c1.17-.422 3.058-.422 4.228 0z" fill="#10E7FF"/>
      <path fill="#000000" d="M25.57 138.052v15.242l42.197 15.243v-15.243zM67.767 153.3l42.198-15.244V153.3l-42.198 15.244z"/>
    </g>
    <g>
      <path fill="#000000" d="M25.823 107.813l42.279 15.245 42.28-15.245-42.28-15.241z"/>
      <path fill="#000000" d="M26.142 123.366v-15.625L68.426 92.5l42.112 15.241v15.244l-42.112 15.244-42.28-14.863z"/>
      <path d="M70.57 111.554l8.457 3.048c1.171.422 1.171 1.103 0 1.525l-8.457 3.048c-1.17.422-3.058.422-4.228 0l-8.457-3.048c-1.17-.422-1.17-1.103 0-1.525l8.457-3.048c1.17-.422 3.058-.422 4.228 0z" fill="#10E7FF"/>
      <path fill="#000000" d="M26.142 107.738v15.241l42.198 15.244v-15.244zM68.34 122.986l42.198-15.244v15.244L68.34 138.23z"/>
    </g>
    <g transform="translate(318.5 92.5)">
      <circle fill="#000000" cx="30" cy="30" r="30"/>
      <g fill-rule="nonzero">
        <path d="M55.792 31.604c0-4.389-2.727-8.18-6.775-9.672.17-.937.256-1.832.256-2.812 0-8.137-6.604-14.741-14.741-14.741-4.73 0-9.16 2.258-11.93 6.135-1.363-1.065-3.025-1.62-4.772-1.62-4.303 0-7.84 3.495-7.84 7.84 0 .938.171 1.875.47 2.727-4.09 1.406-6.86 5.326-6.86 9.672 0 4.388 2.727 8.222 6.817 9.714-.17.894-.256 1.832-.256 2.812 0 8.095 6.604 14.698 14.7 14.698 4.77 0 9.16-2.3 11.929-6.135a7.85 7.85 0 004.814 1.662c4.303 0 7.84-3.494 7.84-7.84 0-.937-.171-1.874-.47-2.726 4.006-1.449 6.818-5.369 6.818-9.714z" fill="#000000"/>
        <path d="M24.008 26.704l11.631 5.326L47.4 21.72c.17-.853.255-1.705.255-2.6 0-7.243-5.88-13.122-13.122-13.122-4.346 0-8.394 2.13-10.822 5.709l-1.96 10.14 2.258 4.857zM11.95 39.017c-.17.852-.255 1.747-.255 2.642 0 7.242 5.922 13.165 13.165 13.165 4.388 0 8.436-2.173 10.907-5.752l1.917-10.14-2.599-4.942-11.673-5.326L11.95 39.017zM11.865 18.865l7.968 1.874 1.79-9.075c-1.109-.852-2.43-1.278-3.835-1.278a6.31 6.31 0 00-5.922 8.478zM11.184 20.782c-3.58 1.15-6.05 4.601-6.05 8.35 0 3.665 2.258 6.945 5.666 8.223l11.206-10.14-2.046-4.388-8.776-2.045zM37.812 49.03c1.108.851 2.429 1.32 3.792 1.32 3.451 0 6.306-2.812 6.306-6.306 0-.766-.128-1.49-.384-2.172l-7.967-1.875-1.747 9.032zM39.431 37.91l8.777 2.044c3.579-1.193 6.05-4.601 6.05-8.35 0-3.664-2.258-6.902-5.667-8.223L37.088 33.436l2.343 4.473z" fill="#FFFFFF"/>
      </g>
    </g>
    <g transform="translate(318.5 200.5)">
      <circle fill="#000000" cx="30" cy="30" r="30"/>
      <path d="M20.67 36.63c.66 0 1.205-.055 1.635-.165.43-.11.775-.26 1.035-.45.26-.19.44-.415.54-.675.1-.26.15-.55.15-.87 0-.68-.32-1.245-.96-1.695-.64-.45-1.74-.935-3.3-1.455-.68-.24-1.36-.515-2.04-.825a7.52 7.52 0 01-1.83-1.17c-.54-.47-.98-1.04-1.32-1.71-.34-.67-.51-1.485-.51-2.445 0-.96.18-1.825.54-2.595a5.54 5.54 0 011.53-1.965c.66-.54 1.46-.955 2.4-1.245.94-.29 2-.435 3.18-.435 1.4 0 2.61.15 3.63.45 1.02.3 1.86.63 2.52.99l-1.35 3.69c-.58-.3-1.225-.565-1.935-.795-.71-.23-1.565-.345-2.565-.345-1.12 0-1.925.155-2.415.465-.49.31-.735.785-.735 1.425 0 .38.09.7.27.96.18.26.435.495.765.705.33.21.71.4 1.14.57.43.17.905.345 1.425.525 1.08.4 2.02.795 2.82 1.185.8.39 1.465.845 1.995 1.365s.925 1.13 1.185 1.83c.26.7.39 1.55.39 2.55 0 1.94-.68 3.445-2.04 4.515-1.36 1.07-3.41 1.605-6.15 1.605-.92 0-1.75-.055-2.49-.165a16.07 16.07 0 01-1.965-.405c-.57-.16-1.06-.33-1.47-.51-.41-.18-.755-.35-1.035-.51l1.32-3.72c.62.34 1.385.645 2.295.915.91.27 2.025.405 3.345.405zm16.23 4.02c-.54 0-1.11-.035-1.71-.105-.6-.07-1.18-.165-1.74-.285-.56-.12-1.07-.25-1.53-.39-.46-.14-.82-.27-1.08-.39l.87-3.72c.52.22 1.185.455 1.995.705.81.25 1.815.375 3.015.375 1.38 0 2.39-.26 3.03-.78.64-.52.96-1.22.96-2.1 0-.54-.115-.995-.345-1.365-.23-.37-.545-.67-.945-.9-.4-.23-.875-.39-1.425-.48a10.87 10.87 0 00-1.755-.135H34.5v-3.6h1.98c.44 0 .865-.04 1.275-.12.41-.08.775-.215 1.095-.405.32-.19.575-.45.765-.78.19-.33.285-.745.285-1.245 0-.38-.08-.71-.24-.99-.16-.28-.365-.51-.615-.69a2.68 2.68 0 00-.87-.405 3.803 3.803 0 00-1.005-.135c-.86 0-1.655.13-2.385.39-.73.26-1.395.58-1.995.96l-1.59-3.27c.32-.2.695-.41 1.125-.63.43-.22.905-.42 1.425-.6s1.075-.33 1.665-.45c.59-.12 1.215-.18 1.875-.18 1.22 0 2.275.145 3.165.435.89.29 1.625.7 2.205 1.23.58.53 1.01 1.15 1.29 1.86.28.71.42 1.485.42 2.325 0 .82-.23 1.615-.69 2.385a4.552 4.552 0 01-1.86 1.755c1.08.44 1.915 1.095 2.505 1.965.59.87.885 1.915.885 3.135 0 .96-.16 1.845-.48 2.655-.32.81-.82 1.51-1.5 2.1-.68.59-1.545 1.05-2.595 1.38-1.05.33-2.295.495-3.735.495z" stroke="#FFFFFF" fill="#FFFFFF" fill-rule="nonzero"/>
    </g>
    <g fill="#10E7FF">
      <path d="M28.348 2h5l-11.91 19.653-2.47-4.067zM11.848 21.55L23.695 2h-5.91l-5.816 9.557L6.149 2H0z"/>
    </g>
    <g transform="translate(37.25 .25)">
      <path fill="#10E7FF" fill-rule="nonzero" d="M31.107 115.786l-.487-67.607-.6.005.487 67.606z"/>
      <path d="M6.78 12.159H4.105L.528 1.584h2.5L5.43 9.667h.132l2.36-8.083h2.382L6.78 12.159zm7.732-6.625c-.99 0-1.685.689-1.759 1.737h3.445c-.044-1.07-.689-1.737-1.686-1.737zm1.73 4.324h1.986c-.315 1.517-1.715 2.477-3.694 2.477-2.462 0-3.914-1.554-3.914-4.178 0-2.63 1.481-4.258 3.885-4.258 2.382 0 3.79 1.517 3.79 4.083v.652h-5.549v.11c.03 1.202.733 1.95 1.847 1.95.843 0 1.422-.301 1.65-.836zm10.95-2.932H25.2c-.147-.77-.696-1.275-1.605-1.275-1.151 0-1.796.857-1.796 2.448 0 1.612.652 2.484 1.796 2.484.872 0 1.444-.425 1.605-1.224h1.993c-.175 1.81-1.495 2.976-3.598 2.976-2.522 0-3.95-1.525-3.95-4.236 0-2.683 1.421-4.2 3.95-4.2 2.14 0 3.423 1.188 3.598 3.027zm2.346-4.77h2.133v2h1.678v1.678h-1.678V9.47c0 .704.322 1.026 1.048 1.026.278 0 .425-.007.63-.029v1.627c-.264.051-.66.095-1.07.095-1.964 0-2.741-.637-2.741-2.213v-4.14h-1.26v-1.68h1.26v-2zm9.11 10.179c-2.484 0-3.98-1.576-3.98-4.222 0-2.616 1.518-4.214 3.98-4.214 2.463 0 3.98 1.59 3.98 4.214 0 2.646-1.495 4.222-3.98 4.222zm0-1.744c1.137 0 1.789-.91 1.789-2.478 0-1.553-.66-2.47-1.788-2.47-1.137 0-1.789.917-1.789 2.47 0 1.576.645 2.478 1.789 2.478zm5.718 1.568V4.075h2.066v1.29h.132c.213-.806 1.049-1.422 2.075-1.422.293 0 .652.037.835.103v1.942c-.168-.066-.667-.132-1.011-.132-1.166 0-1.965.69-1.965 1.825v4.478h-2.132zm13.317-1.48c.99 0 1.737-.63 1.737-1.452v-.593l-1.634.102c-.916.066-1.363.396-1.363.975 0 .601.52.968 1.26.968zm-.703 1.605c-1.554 0-2.646-.953-2.646-2.434 0-1.465 1.121-2.315 3.13-2.433L59.42 7.3v-.66c0-.674-.483-1.055-1.363-1.055-.77 0-1.283.264-1.459.748h-1.964c.14-1.495 1.51-2.434 3.54-2.434 2.14 0 3.35 1.012 3.35 2.741v5.519h-2.067v-1.055h-.132c-.418.74-1.297 1.18-2.345 1.18zm6.457-5.834c0-1.532 1.349-2.55 3.364-2.55 2.052 0 3.262.857 3.38 2.403h-1.973c-.11-.52-.6-.843-1.392-.843-.762 0-1.327.345-1.327.858 0 .396.345.638 1.092.806l1.517.33c1.569.344 2.273 1.004 2.273 2.213 0 1.613-1.444 2.668-3.563 2.668-2.132 0-3.422-.872-3.569-2.426h2.082c.16.55.681.865 1.531.865.829 0 1.4-.345 1.4-.865 0-.396-.307-.638-1.018-.791l-1.466-.33c-1.569-.345-2.331-1.092-2.331-2.338zm15.473 4.229c.989 0 1.737-.63 1.737-1.452v-.593l-1.635.102c-.916.066-1.363.396-1.363.975 0 .601.52.968 1.26.968zm-.704 1.605c-1.554 0-2.646-.953-2.646-2.434 0-1.465 1.121-2.315 3.13-2.433l1.957-.117v-.66c0-.674-.484-1.055-1.364-1.055-.77 0-1.282.264-1.458.748H75.86c.14-1.495 1.51-2.434 3.54-2.434 2.14 0 3.35 1.012 3.35 2.741v5.519h-2.067v-1.055h-.132c-.417.74-1.297 1.18-2.345 1.18zm13.406 0c-2.038 0-3.291-1.598-3.291-4.178 0-2.572 1.26-4.163 3.29-4.163 1.093 0 1.994.528 2.412 1.422h.125V.99h2.132v11.169h-2.066v-1.268h-.132c-.433.872-1.349 1.393-2.47 1.393zm.725-6.552c-1.136 0-1.825.901-1.825 2.381 0 1.496.682 2.39 1.825 2.39 1.144 0 1.833-.902 1.833-2.382 0-1.473-.697-2.39-1.833-2.39zm6.172 6.427V4.075h2.133v8.084h-2.133zm1.07-9.293c-.66 0-1.21-.542-1.21-1.224 0-.681.55-1.216 1.21-1.216.667 0 1.21.535 1.21 1.216 0 .682-.543 1.224-1.21 1.224zm3.034 3.584c0-1.532 1.349-2.55 3.364-2.55 2.053 0 3.262.857 3.38 2.403h-1.972c-.11-.52-.601-.843-1.393-.843-.762 0-1.327.345-1.327.858 0 .396.345.638 1.093.806l1.517.33c1.568.344 2.272 1.004 2.272 2.213 0 1.613-1.444 2.668-3.562 2.668-2.133 0-3.423-.872-3.57-2.426h2.082c.161.55.681.865 1.532.865.828 0 1.4-.345 1.4-.865 0-.396-.308-.638-1.02-.791l-1.465-.33c-1.569-.345-2.33-1.092-2.33-2.338zm9.257-4.295h2.133v2h1.679v1.68h-1.679v3.634c0 .704.323 1.026 1.048 1.026.279 0 .425-.007.63-.029v1.627c-.263.051-.659.095-1.07.095-1.964 0-2.74-.637-2.74-2.213v-4.14h-1.261v-1.68h1.26v-2zm5.585 10.004V4.075h2.067v1.29h.132c.213-.806 1.048-1.422 2.075-1.422.293 0 .652.037.835.103v1.942c-.168-.066-.667-.132-1.011-.132-1.166 0-1.965.69-1.965 1.825v4.478h-2.133zm6.546 0V4.075h2.133v8.084H124zm1.07-9.293c-.66 0-1.21-.542-1.21-1.224 0-.681.55-1.216 1.21-1.216.667 0 1.21.535 1.21 1.216 0 .682-.543 1.224-1.21 1.224zm7.982 9.418c-1.144 0-2.06-.513-2.492-1.393h-.132v1.268h-2.067V.989h2.133v4.376h.132c.41-.887 1.319-1.422 2.426-1.422 2.045 0 3.276 1.561 3.276 4.17 0 2.595-1.246 4.17-3.276 4.17zm-.74-6.552c-1.122 0-1.833.916-1.84 2.389.007 1.466.71 2.382 1.84 2.382 1.135 0 1.824-.91 1.824-2.39 0-1.473-.696-2.381-1.825-2.381zm13.068-1.657v8.084h-2.067v-1.297h-.132c-.381.938-1.136 1.473-2.36 1.473-1.745 0-2.83-1.114-2.83-2.99v-5.27h2.134v4.72c0 1.114.505 1.686 1.487 1.686 1.063 0 1.635-.667 1.635-1.745v-4.66h2.133zm2.748-1.92h2.133v2h1.679v1.68h-1.679v3.634c0 .704.323 1.026 1.048 1.026.279 0 .426-.007.63-.029v1.627c-.263.051-.659.095-1.07.095-1.964 0-2.74-.637-2.74-2.213v-4.14h-1.261v-1.68h1.26v-2zm9.023 3.379c-.99 0-1.686.689-1.759 1.737h3.445c-.044-1.07-.69-1.737-1.686-1.737zm1.73 4.324h1.986c-.315 1.517-1.715 2.477-3.694 2.477-2.463 0-3.914-1.554-3.914-4.178 0-2.63 1.48-4.258 3.885-4.258 2.382 0 3.79 1.517 3.79 4.083v.652h-5.55v.11c.03 1.202.734 1.95 1.848 1.95.843 0 1.422-.301 1.649-.836zm6.692 2.426c-2.038 0-3.291-1.598-3.291-4.178 0-2.572 1.26-4.163 3.29-4.163 1.093 0 1.994.528 2.412 1.422h.125V.99h2.133v11.169h-2.067v-1.268h-.132c-.433.872-1.349 1.393-2.47 1.393zm.725-6.552c-1.136 0-1.825.901-1.825 2.381 0 1.496.682 2.39 1.825 2.39 1.144 0 1.833-.902 1.833-2.382 0-1.473-.697-2.39-1.833-2.39zm12.944 4.947c.99 0 1.737-.63 1.737-1.452v-.593l-1.634.102c-.916.066-1.363.396-1.363.975 0 .601.52.968 1.26.968zm-.703 1.605c-1.554 0-2.646-.953-2.646-2.434 0-1.465 1.121-2.315 3.13-2.433l1.956-.117v-.66c0-.674-.483-1.055-1.363-1.055-.77 0-1.283.264-1.459.748h-1.964c.14-1.495 1.51-2.434 3.54-2.434 2.14 0 3.35 1.012 3.35 2.741v5.519h-2.067v-1.055h-.132c-.418.74-1.297 1.18-2.345 1.18zm10.232-1.928c1.158 0 1.847-.887 1.847-2.308 0-1.422-.697-2.316-1.847-2.316-1.151 0-1.818.894-1.818 2.308 0 1.43.66 2.316 1.818 2.316zm-.03 4.866c-2.147 0-3.57-.945-3.701-2.367h2.11c.11.499.712.814 1.635.814 1.144 0 1.81-.528 1.81-1.437v-1.495h-.131c-.447.85-1.298 1.305-2.434 1.305-2.015 0-3.269-1.561-3.269-3.994 0-2.507 1.261-4.105 3.313-4.105 1.092 0 2.023.543 2.456 1.43h.132V4.075h2.066v8.055c0 1.898-1.546 3.092-3.987 3.092zm9.624-9.688c-.99 0-1.686.689-1.76 1.737h3.446c-.044-1.07-.69-1.737-1.686-1.737zm1.73 4.324h1.986c-.315 1.517-1.715 2.477-3.694 2.477-2.463 0-3.914-1.554-3.914-4.178 0-2.63 1.48-4.258 3.885-4.258 2.382 0 3.789 1.517 3.789 4.083v.652h-5.549v.11c.03 1.202.733 1.95 1.848 1.95.842 0 1.421-.301 1.649-.836zm3.796 2.301V4.075h2.067v1.298h.132c.374-.91 1.195-1.474 2.39-1.474 1.795 0 2.763 1.1 2.763 3.035v5.225h-2.133v-4.72c0-1.114-.476-1.7-1.488-1.7-.99 0-1.598.696-1.598 1.759v4.661h-2.133zM213.92 2.155h2.133v2h1.678v1.68h-1.678v3.634c0 .704.322 1.026 1.048 1.026.279 0 .425-.007.63-.029v1.627c-.263.051-.66.095-1.07.095-1.964 0-2.74-.637-2.74-2.213v-4.14h-1.262v-1.68h1.261v-2zM4.568 27.168H3.524l-3.12-8.46h1.109l2.486 7.094h.094l2.486-7.094h1.108l-3.12 8.46zm6.409-5.54c-1.009 0-1.712.739-1.789 1.858h3.483c-.023-1.12-.692-1.858-1.694-1.858zm1.665 3.905h1.008c-.293 1.078-1.278 1.747-2.662 1.747-1.753 0-2.85-1.267-2.85-3.266 0-1.988 1.115-3.277 2.85-3.277 1.707 0 2.745 1.213 2.745 3.177v.387H9.188v.047c.053 1.249.75 2.04 1.824 2.04.815 0 1.366-.298 1.63-.855zm7.904-2.75h-1.02c-.164-.628-.721-1.138-1.63-1.138-1.138 0-1.853.91-1.853 2.34 0 1.46.727 2.386 1.853 2.386.85 0 1.442-.393 1.63-1.108h1.02c-.182 1.16-1.126 2.017-2.644 2.017-1.771 0-2.903-1.284-2.903-3.295 0-1.97 1.126-3.248 2.897-3.248 1.536 0 2.474.92 2.65 2.046zm2.029-3.57h1.008v1.635h1.408v.844h-1.408v3.577c0 .744.282 1.06.939 1.06.181 0 .281-.005.469-.023v.85c-.2.036-.393.06-.593.06-1.301 0-1.823-.482-1.823-1.69v-3.834h-1.02v-.844h1.02v-1.636zm6.45 8.067c-1.8 0-2.914-1.243-2.914-3.272 0-2.034 1.114-3.271 2.914-3.271s2.914 1.237 2.914 3.271c0 2.029-1.114 3.272-2.914 3.272zm0-.909c1.196 0 1.87-.868 1.87-2.363 0-1.5-.674-2.363-1.87-2.363-1.196 0-1.87.862-1.87 2.363 0 1.495.674 2.363 1.87 2.363zm4.497.797v-6.32h.962v.938h.094c.187-.616.914-1.05 1.753-1.05.164 0 .375.012.504.03v1.008a4.05 4.05 0 00-.645-.058c-.961 0-1.66.645-1.66 1.536v3.916h-1.008zm7.963 0v-6.32h.962v.938h.093c.188-.616.915-1.05 1.754-1.05.164 0 .375.012.504.03v1.008a4.05 4.05 0 00-.645-.058c-.962 0-1.66.645-1.66 1.536v3.916h-1.008zm4.597 0v-6.32h1.009v6.32h-1.009zm.504-7.54a.706.706 0 01-.703-.703c0-.387.316-.704.703-.704.387 0 .704.317.704.704a.706.706 0 01-.704.703zm4.767 7.652c-1.618 0-2.656-1.284-2.656-3.272 0-1.982 1.05-3.271 2.656-3.271.88 0 1.625.416 1.982 1.108h.088v-3.506h1.009v8.83h-.962v-1.01h-.094c-.398.704-1.149 1.12-2.023 1.12zm.235-5.635c-1.15 0-1.847.892-1.847 2.363 0 1.478.692 2.363 1.847 2.363 1.15 0 1.859-.903 1.859-2.363 0-1.448-.716-2.363-1.859-2.363zm7.324-.017c-1.009 0-1.712.739-1.789 1.858h3.483c-.023-1.12-.692-1.858-1.694-1.858zm1.665 3.905h1.008c-.293 1.078-1.278 1.747-2.662 1.747-1.753 0-2.85-1.267-2.85-3.266 0-1.988 1.115-3.277 2.85-3.277 1.707 0 2.745 1.213 2.745 3.177v.387h-4.545v.047c.053 1.249.75 2.04 1.824 2.04.815 0 1.366-.298 1.63-.855zm2.527-2.955c0-1.05 1.015-1.841 2.357-1.841 1.326 0 2.246.656 2.381 1.694h-.997c-.135-.504-.627-.838-1.39-.838-.75 0-1.336.38-1.336.944 0 .433.351.703 1.096.885l.973.234c1.19.288 1.765.804 1.765 1.712 0 1.132-1.096 1.912-2.533 1.912-1.407 0-2.374-.675-2.486-1.724h1.038c.17.534.674.874 1.483.874.85 0 1.46-.405 1.46-.985 0-.434-.328-.727-1.002-.892l-1.085-.263c-1.184-.288-1.724-.798-1.724-1.712zm11.768 3.816c1.038 0 1.806-.68 1.806-1.583v-.58l-1.7.111c-.962.065-1.384.399-1.384 1.032 0 .645.545 1.02 1.278 1.02zm-.187.886c-1.226 0-2.135-.727-2.135-1.882 0-1.132.833-1.783 2.305-1.87l1.823-.112v-.575c0-.78-.486-1.207-1.43-1.207-.757 0-1.284.287-1.425.785h-1.02c.134-1.014 1.131-1.682 2.48-1.682 1.542 0 2.404.791 2.404 2.104v4.327h-.962v-.932h-.093c-.411.674-1.103 1.044-1.947 1.044zm4.925-.112v-8.83h1.009v8.83H79.61zm5.565.112c-1.8 0-2.914-1.243-2.914-3.272 0-2.034 1.114-3.271 2.914-3.271s2.914 1.237 2.914 3.271c0 2.029-1.114 3.272-2.914 3.272zm0-.909c1.196 0 1.87-.868 1.87-2.363 0-1.5-.674-2.363-1.87-2.363-1.196 0-1.87.862-1.87 2.363 0 1.495.674 2.363 1.87 2.363zm4.497.797v-6.32h.962v.997h.094c.316-.698.932-1.108 1.9-1.108 1.418 0 2.21.838 2.21 2.339v4.092h-1.009v-3.846c0-1.137-.48-1.677-1.489-1.677-1.008 0-1.66.675-1.66 1.783v3.74h-1.008zm9.564-.985c1.172 0 1.876-.89 1.876-2.269 0-1.377-.71-2.269-1.876-2.269-1.173 0-1.83.892-1.83 2.27 0 1.377.657 2.268 1.83 2.268zm.047 3.413c-1.525 0-2.498-.686-2.65-1.73h1.066c.112.516.675.85 1.584.85 1.131 0 1.806-.557 1.806-1.489v-1.243h-.094c-.399.698-1.114 1.09-1.982 1.09-1.636 0-2.65-1.266-2.65-3.16 0-1.893 1.026-3.177 2.65-3.177.885 0 1.665.433 2.029 1.114h.094v-1.003h.961v6.432c0 1.413-1.09 2.316-2.814 2.316zm16.054-8.748l-1.77 6.32h-1.027l-1.413-4.89h-.094l-1.407 4.89h-1.02l-1.771-6.32h1.02l1.243 5.054h.094l1.413-5.054h.968l1.413 5.054h.094l1.243-5.054h1.014zm1.372 6.32v-6.32h1.009v6.32h-1.009zm.505-7.54a.706.706 0 01-.704-.703c0-.387.317-.704.704-.704.387 0 .703.317.703.704a.706.706 0 01-.703.703zm2.85-.416h1.008v1.636h1.407v.844h-1.407v3.577c0 .744.281 1.06.938 1.06.182 0 .281-.005.47-.023v.85c-.2.036-.394.06-.593.06-1.302 0-1.824-.482-1.824-1.69v-3.834h-1.02v-.844h1.02v-1.636zm3.998 7.956v-8.83h1.009v3.507h.094c.316-.698.979-1.108 1.946-1.108 1.337 0 2.182.856 2.182 2.339v4.092h-1.009v-3.846c0-1.12-.504-1.677-1.46-1.677-1.132 0-1.753.716-1.753 1.783v3.74h-1.009zm11 2.287c-.135 0-.31-.012-.451-.035v-.862c.123.023.281.03.422.03.58 0 .897-.276 1.161-1.039l.117-.375-2.34-6.326h1.091l1.736 5.2h.094l1.73-5.2h1.073l-2.469 6.707c-.54 1.466-1.044 1.9-2.164 1.9zm8.344-2.175c-1.8 0-2.914-1.243-2.914-3.272 0-2.034 1.114-3.271 2.914-3.271s2.914 1.237 2.914 3.271c0 2.029-1.114 3.272-2.914 3.272zm0-.909c1.196 0 1.87-.868 1.87-2.363 0-1.5-.674-2.363-1.87-2.363-1.196 0-1.87.862-1.87 2.363 0 1.495.674 2.363 1.87 2.363zm9.61-5.523v6.32h-.96v-.99h-.095c-.316.703-.99 1.102-1.958 1.102-1.42 0-2.158-.845-2.158-2.34v-4.092h1.009v3.846c0 1.138.422 1.665 1.43 1.665 1.114 0 1.724-.662 1.724-1.77v-3.741h1.009zm1.9 6.32v-6.32h.962v.938h.094c.188-.616.915-1.05 1.753-1.05.164 0 .375.012.504.03v1.008a4.05 4.05 0 00-.645-.058c-.961 0-1.659.645-1.659 1.536v3.916h-1.008zm9.91-.774c1.038 0 1.806-.68 1.806-1.583v-.58l-1.7.111c-.962.065-1.384.399-1.384 1.032 0 .645.545 1.02 1.278 1.02zm-.188.886c-1.225 0-2.134-.727-2.134-1.882 0-1.132.833-1.783 2.304-1.87l1.824-.112v-.575c0-.78-.487-1.207-1.43-1.207-.757 0-1.285.287-1.426.785h-1.02c.135-1.014 1.132-1.682 2.48-1.682 1.543 0 2.405.791 2.405 2.104v4.327h-.962v-.932h-.094c-.41.674-1.102 1.044-1.947 1.044zm7.946-6.543c1.612 0 2.656 1.284 2.656 3.271 0 1.976-1.05 3.272-2.656 3.272-.903 0-1.63-.393-1.976-1.061h-.094v3.06h-1.009v-8.431h.962v1.055h.094c.404-.727 1.16-1.166 2.023-1.166zm-.24 5.634c1.16 0 1.852-.885 1.852-2.363 0-1.477-.692-2.363-1.847-2.363-1.143 0-1.865.91-1.865 2.363 0 1.448.722 2.363 1.86 2.363zm7.557-5.634c1.613 0 2.657 1.284 2.657 3.271 0 1.976-1.05 3.272-2.657 3.272-.903 0-1.63-.393-1.976-1.061h-.093v3.06h-1.009v-8.431h.962v1.055h.093c.405-.727 1.161-1.166 2.023-1.166zm-.24 5.634c1.161 0 1.853-.885 1.853-2.363 0-1.477-.692-2.363-1.847-2.363-1.144 0-1.865.91-1.865 2.363 0 1.448.721 2.363 1.859 2.363zm5.002 2.95h-.757l.557-3.337h1.12l-.92 3.336zm11.545-6.538h-1.02c-.164-.628-.721-1.138-1.63-1.138-1.138 0-1.853.91-1.853 2.34 0 1.46.727 2.386 1.853 2.386.85 0 1.442-.393 1.63-1.108h1.02c-.182 1.16-1.126 2.017-2.644 2.017-1.771 0-2.903-1.284-2.903-3.295 0-1.97 1.126-3.248 2.897-3.248 1.536 0 2.474.92 2.65 2.046zm4.087 4.497c-1.8 0-2.914-1.243-2.914-3.272 0-2.034 1.114-3.271 2.914-3.271s2.914 1.237 2.914 3.271c0 2.029-1.114 3.272-2.914 3.272zm0-.909c1.196 0 1.87-.868 1.87-2.363 0-1.5-.674-2.363-1.87-2.363-1.196 0-1.87.862-1.87 2.363 0 1.495.674 2.363 1.87 2.363zm4.556.797v-8.83h1.009v8.83h-1.009zm3.026 0v-8.83h1.008v8.83h-1.008zm5.488-5.54c-1.009 0-1.712.739-1.788 1.858h3.483c-.024-1.12-.692-1.858-1.695-1.858zm1.665 3.905h1.009c-.293 1.078-1.278 1.747-2.662 1.747-1.754 0-2.85-1.267-2.85-3.266 0-1.988 1.114-3.277 2.85-3.277 1.706 0 2.744 1.213 2.744 3.177v.387h-4.544v.047c.052 1.249.75 2.04 1.823 2.04.815 0 1.366-.298 1.63-.855zm7.904-2.75h-1.02c-.164-.628-.721-1.138-1.63-1.138-1.137 0-1.853.91-1.853 2.34 0 1.46.727 2.386 1.853 2.386.85 0 1.442-.393 1.63-1.108h1.02c-.181 1.16-1.125 2.017-2.644 2.017-1.77 0-2.903-1.284-2.903-3.295 0-1.97 1.126-3.248 2.897-3.248 1.536 0 2.474.92 2.65 2.046zm2.03-3.57h1.008v1.635h1.407v.844h-1.407v3.577c0 .744.281 1.06.938 1.06.182 0 .281-.005.469-.023v.85c-.2.036-.393.06-.592.06-1.302 0-1.824-.482-1.824-1.69v-3.834h-1.02v-.844h1.02v-1.636zm3.963 7.955v-6.32h1.009v6.32h-1.009zm.504-7.54a.706.706 0 01-.703-.703c0-.387.316-.704.703-.704.387 0 .704.317.704.704a.706.706 0 01-.704.703zm2.428 7.54v-6.32h.961v.997h.094c.317-.698.933-1.108 1.9-1.108 1.42 0 2.21.838 2.21 2.339v4.092h-1.008v-3.846c0-1.137-.48-1.677-1.49-1.677-1.008 0-1.659.675-1.659 1.783v3.74h-1.008zm9.563-.985c1.173 0 1.877-.89 1.877-2.269 0-1.377-.71-2.269-1.877-2.269-1.172 0-1.83.892-1.83 2.27 0 1.377.658 2.268 1.83 2.268zm.047 3.413c-1.524 0-2.498-.686-2.65-1.73h1.067c.112.516.674.85 1.583.85 1.132 0 1.806-.557 1.806-1.489v-1.243h-.094c-.398.698-1.114 1.09-1.981 1.09-1.636 0-2.65-1.266-2.65-3.16 0-1.893 1.025-3.177 2.65-3.177.885 0 1.665.433 2.028 1.114h.094v-1.003h.962v6.432c0 1.413-1.09 2.316-2.815 2.316zm8.162-2.428v-8.83h1.009v8.83h-1.009zm5.565.112c-1.8 0-2.914-1.243-2.914-3.272 0-2.034 1.114-3.271 2.914-3.271s2.914 1.237 2.914 3.271c0 2.029-1.114 3.272-2.914 3.272zm0-.909c1.196 0 1.87-.868 1.87-2.363 0-1.5-.674-2.363-1.87-2.363-1.196 0-1.87.862-1.87 2.363 0 1.495.674 2.363 1.87 2.363zm7.054-.188c1.173 0 1.876-.89 1.876-2.269 0-1.377-.71-2.269-1.876-2.269-1.173 0-1.83.892-1.83 2.27 0 1.377.657 2.268 1.83 2.268zm.047 3.413c-1.525 0-2.498-.686-2.65-1.73h1.067c.111.516.674.85 1.583.85 1.131 0 1.806-.557 1.806-1.489v-1.243h-.094c-.399.698-1.114 1.09-1.982 1.09-1.636 0-2.65-1.266-2.65-3.16 0-1.893 1.026-3.177 2.65-3.177.885 0 1.665.433 2.029 1.114h.094v-1.003h.961v6.432c0 1.413-1.09 2.316-2.814 2.316zm4.568-7.018c0-1.05 1.014-1.841 2.357-1.841 1.325 0 2.245.656 2.38 1.694h-.996c-.135-.504-.628-.838-1.39-.838-.75 0-1.337.38-1.337.944 0 .433.352.703 1.096.885l.974.234c1.19.288 1.765.804 1.765 1.712 0 1.132-1.097 1.912-2.533 1.912-1.408 0-2.375-.675-2.486-1.724h1.037c.17.534.675.874 1.484.874.85 0 1.46-.405 1.46-.985 0-.434-.328-.727-1.003-.892l-1.085-.263c-1.184-.288-1.723-.798-1.723-1.712zm-259.811 19l-.78-.845c-.721.633-1.712 1.003-2.738 1.003-1.683 0-2.862-.997-2.862-2.416 0-1.003.546-1.765 1.677-2.363.077-.035.235-.117.329-.164-.78-.82-1.062-1.366-1.062-1.982 0-1.084.92-1.893 2.158-1.893 1.25 0 2.158.797 2.158 1.905 0 .868-.522 1.501-1.83 2.187l2.117 2.275c.264-.528.399-1.22.399-2.275v-.147h.985v.153c0 1.313-.234 2.269-.698 2.984l1.472 1.577H7.054zm-4.093-4c-.815.423-1.231 1.01-1.231 1.672 0 .95.768 1.594 1.9 1.594.768 0 1.56-.304 2.023-.791L3.26 37.438c-.064.023-.217.1-.299.14zm.575-1.166c1.032-.528 1.407-.95 1.407-1.554 0-.656-.475-1.102-1.161-1.102-.674 0-1.155.457-1.155 1.114 0 .469.24.88.909 1.542zm9.346 5.165v-6.32h.962v.997h.094c.287-.704.92-1.108 1.765-1.108.856 0 1.454.451 1.747 1.108h.094c.34-.669 1.061-1.108 1.935-1.108 1.29 0 2.011.738 2.011 2.063v4.368h-1.008v-4.133c0-.932-.44-1.39-1.331-1.39-.88 0-1.466.657-1.466 1.46v4.063h-1.009v-4.291c0-.75-.522-1.232-1.32-1.232-.826 0-1.465.716-1.465 1.607v3.916h-1.009zm12.97-5.54c-1.008 0-1.712.738-1.788 1.858h3.483c-.023-1.12-.692-1.858-1.694-1.858zm1.666 3.905h1.008c-.293 1.078-1.278 1.747-2.662 1.747-1.753 0-2.85-1.267-2.85-3.266 0-1.988 1.115-3.277 2.85-3.277 1.707 0 2.745 1.213 2.745 3.177v.387h-4.545v.047c.053 1.249.75 2.04 1.824 2.04.815 0 1.366-.298 1.63-.855zm3.096-6.32h1.008v1.635h1.408v.844h-1.408v3.577c0 .744.282 1.06.939 1.06.181 0 .281-.005.469-.023v.85c-.2.036-.393.06-.593.06-1.301 0-1.823-.482-1.823-1.69v-3.834h-1.02v-.844h1.02v-1.636zm3.94 7.955v-6.32h.962v.938h.094c.187-.616.914-1.05 1.753-1.05.164 0 .375.012.504.03v1.008a4.05 4.05 0 00-.645-.058c-.961 0-1.66.645-1.66 1.536v3.916h-1.008zm4.597 0v-6.32h1.009v6.32H39.15zm.505-7.54a.706.706 0 01-.704-.703c0-.387.317-.704.704-.704.387 0 .703.317.703.704a.706.706 0 01-.703.703zm7.657 3.155h-1.02c-.164-.628-.721-1.138-1.63-1.138-1.137 0-1.853.91-1.853 2.34 0 1.46.727 2.386 1.853 2.386.85 0 1.443-.393 1.63-1.108h1.02c-.181 1.16-1.125 2.017-2.644 2.017-1.77 0-2.903-1.284-2.903-3.295 0-1.97 1.126-3.248 2.897-3.248 1.536 0 2.475.92 2.65 2.046zm1.343-.205c0-1.05 1.015-1.841 2.357-1.841 1.326 0 2.246.656 2.381 1.694h-.997c-.135-.504-.627-.838-1.39-.838-.75 0-1.336.38-1.336.944 0 .433.351.703 1.096.885l.973.234c1.19.288 1.765.804 1.765 1.712 0 1.132-1.096 1.912-2.533 1.912-1.407 0-2.374-.675-2.486-1.724h1.038c.17.534.674.874 1.484.874.85 0 1.46-.405 1.46-.985 0-.434-.329-.727-1.003-.892L50.38 38.7c-1.184-.288-1.724-.798-1.724-1.712zm7.072 6.742h-.757l.557-3.336h1.12l-.92 3.336zm8.262-2.926c1.037 0 1.806-.68 1.806-1.583v-.58l-1.7.111c-.963.065-1.385.399-1.385 1.032 0 .645.546 1.02 1.279 1.02zm-.188.886c-1.226 0-2.134-.727-2.134-1.882 0-1.132.832-1.783 2.304-1.87l1.824-.112v-.575c0-.78-.487-1.207-1.431-1.207-.757 0-1.284.287-1.425.785h-1.02c.135-1.014 1.131-1.682 2.48-1.682 1.542 0 2.404.791 2.404 2.104v4.327h-.962v-.932h-.093c-.41.674-1.103 1.044-1.947 1.044zm4.867-.112v-6.32h.961v.997h.094c.317-.698.932-1.108 1.9-1.108 1.419 0 2.21.838 2.21 2.339v4.092h-1.008v-3.846c0-1.137-.48-1.677-1.49-1.677-1.008 0-1.659.675-1.659 1.783v3.74H68.67zm9.346.112c-1.618 0-2.656-1.284-2.656-3.272 0-1.982 1.05-3.271 2.656-3.271.88 0 1.625.416 1.982 1.108h.088v-3.506h1.009v8.83h-.962v-1.01h-.094c-.398.704-1.149 1.12-2.023 1.12zm.235-5.635c-1.15 0-1.847.892-1.847 2.363 0 1.478.692 2.363 1.847 2.363 1.15 0 1.859-.903 1.859-2.363 0-1.448-.716-2.363-1.86-2.363zm8.613 5.523v-5.476h-1.05v-.844h1.05v-.704c0-1.26.634-1.864 1.836-1.864.246 0 .469.018.68.059v.82a2.776 2.776 0 00-.475-.029c-.727 0-1.032.352-1.032 1.044v.674h1.448v.844h-1.448v5.476h-1.009zm6.257.112c-1.8 0-2.914-1.243-2.914-3.272 0-2.034 1.114-3.271 2.914-3.271s2.914 1.237 2.914 3.271c0 2.029-1.114 3.272-2.914 3.272zm0-.91c1.196 0 1.87-.867 1.87-2.362 0-1.5-.674-2.363-1.87-2.363-1.196 0-1.87.862-1.87 2.363 0 1.495.674 2.363 1.87 2.363zm4.497.798v-6.32h.962v.938h.094c.187-.616.915-1.05 1.753-1.05.164 0 .375.012.504.03v1.008a4.05 4.05 0 00-.645-.058c-.961 0-1.66.645-1.66 1.536v3.916h-1.008zm12.525-6.32l-1.77 6.32h-1.027l-1.413-4.89h-.094l-1.407 4.89h-1.02l-1.771-6.32h1.02l1.243 5.054h.094l1.413-5.054h.968l1.413 5.054h.094l1.243-5.054h1.014zm3.12 5.546c1.037 0 1.805-.68 1.805-1.583v-.58l-1.7.111c-.962.065-1.384.399-1.384 1.032 0 .645.546 1.02 1.278 1.02zm-.188.886c-1.226 0-2.135-.727-2.135-1.882 0-1.132.833-1.783 2.305-1.87l1.823-.112v-.575c0-.78-.486-1.207-1.43-1.207-.757 0-1.284.287-1.425.785h-1.02c.134-1.014 1.131-1.682 2.48-1.682 1.542 0 2.404.791 2.404 2.104v4.327h-.962v-.932h-.093c-.41.674-1.103 1.044-1.947 1.044zm4.867-.112v-6.32h.961v.938h.094c.188-.616.915-1.05 1.753-1.05.164 0 .376.012.505.03v1.008a4.05 4.05 0 00-.645-.058c-.962 0-1.66.645-1.66 1.536v3.916h-1.008zm6.737.112c-1.618 0-2.656-1.284-2.656-3.272 0-1.982 1.05-3.271 2.656-3.271.88 0 1.624.416 1.982 1.108h.088v-3.506h1.008v8.83h-.961v-1.01h-.094c-.399.704-1.15 1.12-2.023 1.12zm.234-5.635c-1.149 0-1.847.892-1.847 2.363 0 1.478.692 2.363 1.847 2.363 1.15 0 1.86-.903 1.86-2.363 0-1.448-.716-2.363-1.86-2.363zm4.826 5.523v-6.32h1.009v6.32h-1.009zm.504-7.54a.706.706 0 01-.703-.703c0-.387.316-.704.703-.704.387 0 .704.317.704.704a.706.706 0 01-.704.703zm2.428 7.54v-6.32h.962v.997h.093c.317-.698.933-1.108 1.9-1.108 1.42 0 2.21.838 2.21 2.339v4.092h-1.008v-3.846c0-1.137-.48-1.677-1.489-1.677-1.009 0-1.66.675-1.66 1.783v3.74h-1.008zm9.564-.985c1.172 0 1.876-.89 1.876-2.269 0-1.377-.71-2.269-1.876-2.269-1.173 0-1.83.892-1.83 2.27 0 1.377.657 2.268 1.83 2.268zm.046 3.413c-1.524 0-2.497-.686-2.65-1.73h1.067c.112.516.675.85 1.583.85 1.132 0 1.806-.557 1.806-1.49v-1.242h-.093c-.4.698-1.114 1.09-1.982 1.09-1.636 0-2.65-1.266-2.65-3.16 0-1.893 1.026-3.177 2.65-3.177.885 0 1.665.433 2.029 1.114h.093v-1.003h.962v6.432c0 1.413-1.09 2.316-2.815 2.316zm8.526-10.384h1.009v1.636h1.407v.844h-1.407v3.577c0 .744.281 1.06.938 1.06.182 0 .281-.005.469-.023v.85c-.2.036-.393.06-.592.06-1.302 0-1.824-.482-1.824-1.69v-3.834h-1.02v-.844h1.02v-1.636zm4 7.956v-8.83h1.008v3.507h.093c.317-.698.98-1.108 1.947-1.108 1.337 0 2.181.856 2.181 2.339v4.092h-1.008v-3.846c0-1.12-.504-1.677-1.46-1.677-1.132 0-1.753.716-1.753 1.783v3.74h-1.009zm9.592-5.54c-1.009 0-1.712.738-1.788 1.858h3.483c-.024-1.12-.692-1.858-1.695-1.858zm1.665 3.905h1.009c-.293 1.078-1.278 1.747-2.662 1.747-1.753 0-2.85-1.267-2.85-3.266 0-1.988 1.114-3.277 2.85-3.277 1.706 0 2.744 1.213 2.744 3.177v.387h-4.544v.047c.052 1.249.75 2.04 1.823 2.04.815 0 1.366-.298 1.63-.855zm2.674 1.635v-6.32h.962v.997h.094c.287-.704.92-1.108 1.764-1.108.857 0 1.455.451 1.748 1.108h.094c.34-.669 1.06-1.108 1.935-1.108 1.29 0 2.01.738 2.01 2.063v4.368h-1.008v-4.133c0-.932-.44-1.39-1.33-1.39-.88 0-1.467.657-1.467 1.46v4.063h-1.008v-4.291c0-.75-.522-1.232-1.32-1.232-.826 0-1.465.716-1.465 1.607v3.916h-1.009zm16.178.112c-1.619 0-2.656-1.284-2.656-3.272 0-1.982 1.05-3.271 2.656-3.271.88 0 1.624.416 1.982 1.108h.088v-3.506h1.008v8.83h-.961v-1.01h-.094c-.399.704-1.15 1.12-2.023 1.12zm.234-5.635c-1.149 0-1.847.892-1.847 2.363 0 1.478.692 2.363 1.847 2.363 1.15 0 1.86-.903 1.86-2.363 0-1.448-.716-2.363-1.86-2.363zm7.4 5.635c-1.8 0-2.914-1.243-2.914-3.272 0-2.034 1.114-3.271 2.914-3.271s2.914 1.237 2.914 3.271c0 2.029-1.114 3.272-2.914 3.272zm0-.91c1.196 0 1.87-.867 1.87-2.362 0-1.5-.674-2.363-1.87-2.363-1.196 0-1.87.862-1.87 2.363 0 1.495.674 2.363 1.87 2.363zm12.214-5.522l-1.77 6.32h-1.027l-1.413-4.89h-.094l-1.407 4.89h-1.02l-1.771-6.32h1.02l1.243 5.054h.094l1.413-5.054H201l1.413 5.054h.094l1.243-5.054h1.014zm1.349 6.32v-6.32h.961v.997h.094c.317-.698.932-1.108 1.9-1.108 1.419 0 2.21.838 2.21 2.339v4.092h-1.008v-3.846c0-1.137-.48-1.677-1.49-1.677-1.008 0-1.659.675-1.659 1.783v3.74h-1.008zm10.812-2.925h-3.846v-.956h3.846v.956zm1.712-1.665c0-1.05 1.015-1.841 2.358-1.841 1.325 0 2.245.656 2.38 1.694h-.997c-.135-.504-.627-.838-1.39-.838-.75 0-1.336.38-1.336.944 0 .433.352.703 1.096.885l.974.234c1.19.288 1.765.804 1.765 1.712 0 1.132-1.097 1.912-2.533 1.912-1.408 0-2.375-.675-2.487-1.724h1.038c.17.534.675.874 1.484.874.85 0 1.46-.405 1.46-.985 0-.434-.329-.727-1.003-.892l-1.085-.263c-1.184-.288-1.724-.798-1.724-1.712zm6.796-3.366h1.009v1.636h1.407v.844h-1.407v3.577c0 .744.281 1.06.938 1.06.182 0 .281-.005.47-.023v.85c-.2.036-.394.06-.593.06-1.302 0-1.824-.482-1.824-1.69v-3.834h-1.02v-.844h1.02v-1.636zm3.94 7.956v-6.32h.962v.938h.094c.188-.616.915-1.05 1.753-1.05.164 0 .376.012.505.03v1.008a4.05 4.05 0 00-.645-.058c-.962 0-1.66.645-1.66 1.536v3.916h-1.008zm6.92-5.54c-1.009 0-1.712.738-1.789 1.858h3.483c-.023-1.12-.692-1.858-1.694-1.858zm1.665 3.905h1.009c-.294 1.078-1.279 1.747-2.663 1.747-1.753 0-2.85-1.267-2.85-3.266 0-1.988 1.115-3.277 2.85-3.277 1.707 0 2.745 1.213 2.745 3.177v.387h-4.545v.047c.053 1.249.75 2.04 1.824 2.04.815 0 1.366-.298 1.63-.855zm4.62.861c1.038 0 1.806-.68 1.806-1.583v-.58l-1.7.111c-.962.065-1.384.399-1.384 1.032 0 .645.546 1.02 1.278 1.02zm-.187.886c-1.226 0-2.134-.727-2.134-1.882 0-1.132.832-1.783 2.304-1.87l1.823-.112v-.575c0-.78-.486-1.207-1.43-1.207-.757 0-1.284.287-1.425.785h-1.02c.134-1.014 1.131-1.682 2.48-1.682 1.542 0 2.404.791 2.404 2.104v4.327h-.962v-.932h-.093c-.41.674-1.103 1.044-1.947 1.044zm4.867-.112v-6.32h.961v.997h.094c.287-.704.92-1.108 1.765-1.108.856 0 1.454.451 1.747 1.108h.094c.34-.669 1.062-1.108 1.935-1.108 1.29 0 2.011.738 2.011 2.063v4.368h-1.008v-4.133c0-.932-.44-1.39-1.331-1.39-.88 0-1.466.657-1.466 1.46v4.063h-1.009v-4.291c0-.75-.521-1.232-1.319-1.232-.827 0-1.466.716-1.466 1.607v3.916h-1.008zm11.281.059a.768.768 0 01-.762-.762c0-.422.346-.762.762-.762a.76.76 0 01.763.762c0 .416-.34.762-.763.762zM376.323 123.134h1.16c.136 1 1.065 1.606 2.4 1.606 1.264 0 2.18-.665 2.18-1.58 0-.78-.516-1.297-1.806-1.58l-1.032-.226c-1.864-.407-2.67-1.251-2.67-2.574 0-1.534 1.355-2.611 3.283-2.611 1.858 0 3.2 1.109 3.25 2.689h-1.16c-.103-1.02-.91-1.645-2.122-1.645-1.161 0-2.058.568-2.058 1.516 0 .735.497 1.238 1.768 1.515l1.032.226c1.941.426 2.709 1.2 2.709 2.515 0 1.722-1.355 2.8-3.438 2.8-2.032 0-3.386-1.045-3.496-2.651zm10.804-3.354c-1.052 0-1.787.806-1.858 1.922h3.644c-.026-1.122-.729-1.922-1.786-1.922zm1.76 3.928h1.103c-.193 1.174-1.328 2.038-2.792 2.038-1.923 0-3.09-1.335-3.09-3.444 0-2.083 1.187-3.496 3.038-3.496 1.812 0 2.928 1.316 2.928 3.347v.426h-4.811v.065c0 1.283.754 2.128 1.96 2.128.852 0 1.477-.432 1.664-1.064zm4.528 1.083c1.058 0 1.87-.741 1.87-1.709v-.548l-1.792.11c-.903.058-1.42.458-1.42 1.09 0 .638.536 1.057 1.342 1.057zm-.251.955c-1.335 0-2.232-.806-2.232-2.012 0-1.148.884-1.87 2.432-1.961l1.922-.11v-.56c0-.82-.542-1.31-1.47-1.31-.865 0-1.407.406-1.549 1.064h-1.083c.077-1.16 1.07-2.05 2.657-2.05 1.574 0 2.567.85 2.567 2.186v4.637h-1.064v-1.155h-.026c-.4.768-1.251 1.27-2.154 1.27zm4.67-.116v-6.708h1.057v1.097h.026c.22-.742.839-1.213 1.626-1.213.193 0 .36.033.451.045v1.09c-.09-.032-.329-.064-.6-.064-.87 0-1.438.625-1.438 1.574v4.179h-1.122zm9.32-4.508h-1.097c-.161-.73-.729-1.329-1.715-1.329-1.161 0-1.948.961-1.948 2.483 0 1.56.8 2.483 1.96 2.483.916 0 1.516-.484 1.71-1.29h1.103c-.175 1.335-1.297 2.277-2.819 2.277-1.858 0-3.096-1.31-3.096-3.47 0-2.115 1.232-3.47 3.083-3.47 1.677 0 2.677 1.11 2.819 2.316zm1.103 4.508v-9.307h1.122v3.67h.026c.374-.748 1.11-1.187 2.128-1.187 1.47 0 2.361.993 2.361 2.49v4.334h-1.122v-4.128c0-1.064-.536-1.703-1.587-1.703-1.116 0-1.806.762-1.806 1.922v3.909h-1.122z" fill="#000000" fill-rule="nonzero"/>
      <ellipse fill="#000000" cx="362.662" cy="121.127" rx="7.806" ry="8.105"/>
      <path fill="#000000" fill-rule="nonzero" d="M361.467 120.674l-20.723.205.004.795 20.724-.205zM381.023 235.498l-.935-2.663h-3.702l-.936 2.663h-1.219l3.432-9.306h1.148l3.431 9.306h-1.219zm-2.806-7.894l-1.49 4.244h3.02l-1.49-4.244h-.04zm4.915 7.894v-6.707h1.058v1.096h.026c.22-.741.838-1.212 1.625-1.212.194 0 .361.032.452.045v1.09c-.09-.032-.33-.065-.6-.065-.87 0-1.438.626-1.438 1.574v4.18h-1.123zm9.32-4.508h-1.096c-.161-.729-.729-1.329-1.716-1.329-1.16 0-1.948.961-1.948 2.483 0 1.561.8 2.483 1.961 2.483.916 0 1.516-.483 1.71-1.29h1.102c-.174 1.336-1.296 2.277-2.818 2.277-1.858 0-3.096-1.309-3.096-3.47 0-2.115 1.232-3.47 3.083-3.47 1.677 0 2.677 1.11 2.818 2.316zm1.103 4.508v-9.306h1.123v3.67h.026c.374-.749 1.109-1.187 2.128-1.187 1.47 0 2.36.993 2.36 2.49v4.333h-1.122v-4.127c0-1.065-.535-1.703-1.586-1.703-1.116 0-1.806.761-1.806 1.922v3.908h-1.123zm7.121 0v-6.707h1.123v6.707h-1.123zm.561-7.9a.705.705 0 01-.703-.703.7.7 0 01.703-.703c.394 0 .703.31.703.703a.7.7 0 01-.703.703zm7.58 1.193l-2.465 6.707h-1.148l-2.47-6.707h1.18l1.851 5.514h.026l1.858-5.514h1.167zm3.372.858c-1.05 0-1.786.806-1.857 1.921h3.644c-.026-1.122-.729-1.921-1.787-1.921zm1.761 3.927h1.103c-.193 1.174-1.329 2.038-2.793 2.038-1.922 0-3.09-1.335-3.09-3.444 0-2.083 1.188-3.495 3.039-3.495 1.812 0 2.928 1.315 2.928 3.347v.426h-4.812v.064c0 1.284.755 2.128 1.961 2.128.852 0 1.477-.432 1.664-1.064z"/>
      <ellipse fill="#000000" cx="361.461" cy="230.395" rx="7.806" ry="8.105"/>
      <path fill="#000000" fill-rule="nonzero" d="M361.47 230.095h-21.033v1h21.032z"/>
    </g>
  </g>
</svg>