<svg width="1516" height="506" viewBox="0 0 1516 506" xmlns="http://www.w3.org/2000/svg">
  <g fill="none" fill-rule="evenodd">
    <path d="M894.299 324.9s34.325 23.621 119.922 33.85c57.645 6.89 120.288 5.522 155.054 3.896" stroke="#000000" stroke-width="4" stroke-linecap="round" stroke-linejoin="round" stroke-dasharray="32,20"/>
    <path fill="#000000" d="M1187.667 361.536l-18.819-5.79.833 13.802z"/>
    <path stroke="#000000" stroke-width="4" d="M1187.667 361.536l-18.819-5.79.833 13.802z"/>
    <g transform="translate(1210 309)">
      <circle fill="#000000" cx="50" cy="50" r="50"/>
      <path d="M34.45 61.05c1.1 0 2.008-.092 2.725-.275.717-.183 1.292-.433 1.725-.75.433-.317.733-.692.9-1.125a4.01 4.01 0 00.25-1.45c0-1.133-.533-2.075-1.6-2.825-1.067-.75-2.9-1.558-5.5-2.425a41.47 41.47 0 01-3.4-1.375 12.532 12.532 0 01-3.05-1.95 9.328 9.328 0 01-2.2-2.85c-.567-1.117-.85-2.475-.85-4.075s.3-3.042.9-4.325a9.233 9.233 0 012.55-3.275c1.1-.9 2.433-1.592 4-2.075 1.567-.483 3.333-.725 5.3-.725 2.333 0 4.35.25 6.05.75 1.7.5 3.1 1.05 4.2 1.65L44.2 40.1a21.31 21.31 0 00-3.225-1.325c-1.183-.383-2.608-.575-4.275-.575-1.867 0-3.208.258-4.025.775-.817.517-1.225 1.308-1.225 2.375 0 .633.15 1.167.45 1.6.3.433.725.825 1.275 1.175.55.35 1.183.667 1.9.95.717.283 1.508.575 2.375.875 1.8.667 3.367 1.325 4.7 1.975 1.333.65 2.442 1.408 3.325 2.275a8.24 8.24 0 011.975 3.05c.433 1.167.65 2.583.65 4.25 0 3.233-1.133 5.742-3.4 7.525-2.267 1.783-5.683 2.675-10.25 2.675-1.533 0-2.917-.092-4.15-.275a26.784 26.784 0 01-3.275-.675c-.95-.267-1.767-.55-2.45-.85-.683-.3-1.258-.583-1.725-.85l2.2-6.2c1.033.567 2.308 1.075 3.825 1.525 1.517.45 3.375.675 5.575.675zm27.05 6.7c-.9 0-1.85-.058-2.85-.175a30.96 30.96 0 01-2.9-.475c-.933-.2-1.783-.417-2.55-.65-.767-.233-1.367-.45-1.8-.65l1.45-6.2c.867.367 1.975.758 3.325 1.175 1.35.417 3.025.625 5.025.625 2.3 0 3.983-.433 5.05-1.3 1.067-.867 1.6-2.033 1.6-3.5 0-.9-.192-1.658-.575-2.275a4.395 4.395 0 00-1.575-1.5c-.667-.383-1.458-.65-2.375-.8A18.115 18.115 0 0060.4 51.8h-2.9v-6h3.3c.733 0 1.442-.067 2.125-.2a5.672 5.672 0 001.825-.675c.533-.317.958-.75 1.275-1.3.317-.55.475-1.242.475-2.075 0-.633-.133-1.183-.4-1.65a3.59 3.59 0 00-1.025-1.15c-.417-.3-.9-.525-1.45-.675a6.338 6.338 0 00-1.675-.225c-1.433 0-2.758.217-3.975.65a16.597 16.597 0 00-3.325 1.6L52 34.65a25.362 25.362 0 011.875-1.05c.717-.367 1.508-.7 2.375-1 .867-.3 1.792-.55 2.775-.75.983-.2 2.025-.3 3.125-.3 2.033 0 3.792.242 5.275.725 1.483.483 2.708 1.167 3.675 2.05a8.262 8.262 0 012.15 3.1c.467 1.183.7 2.475.7 3.875 0 1.367-.383 2.692-1.15 3.975-.767 1.283-1.8 2.258-3.1 2.925 1.8.733 3.192 1.825 4.175 3.275.983 1.45 1.475 3.192 1.475 5.225 0 1.6-.267 3.075-.8 4.425a8.923 8.923 0 01-2.5 3.5c-1.133.983-2.575 1.75-4.325 2.3-1.75.55-3.825.825-6.225.825z" stroke="#FFFFFF" fill="#FFFFFF" fill-rule="nonzero"/>
    </g>
    <path fill="#000000" fill-rule="nonzero" d="M1343 362.466h54v3h-54v8l-19-9.5 19-9.5v8z"/>
    <g transform="translate(1416 310)">
      <circle fill="#000000" cx="50" cy="50" r="50"/>
      <path d="M19.56 57l-1.503-4.785h-6.932L9.621 57H5.383l6.85-19.729h4.853L23.949 57h-4.388zm-5.017-15.955l-2.53 8.08h5.155l-2.53-8.08h-.095zm11.184-2.078h3.992v3.377h2.707v3.008h-2.707v7.013c0 1.121.547 1.655 1.722 1.655.356 0 .725-.028.971-.069v2.94c-.41.095-1.094.164-1.9.164-3.446 0-4.785-1.149-4.785-4.006v-7.697h-2.065v-3.008h2.065v-3.377zM34.709 57V37.271h3.924v7.684h.082c.78-1.846 2.379-2.885 4.607-2.885 3.254 0 5.114 2.106 5.114 5.496V57h-3.993v-8.586c0-1.887-.93-3.035-2.748-3.035-1.886 0-2.994 1.326-2.994 3.254V57H34.71zm22.846-12.018c-1.75 0-3.008 1.327-3.145 3.159h6.22c-.081-1.873-1.298-3.159-3.075-3.159zm3.13 7.534h3.665c-.438 2.87-3.063 4.798-6.686 4.798-4.512 0-7.219-2.884-7.219-7.574 0-4.676 2.735-7.71 7.069-7.71 4.265 0 6.959 2.884 6.959 7.341v1.217H54.369v.246c0 2.092 1.326 3.527 3.363 3.527 1.463 0 2.584-.724 2.954-1.845zM66.524 57V42.344h3.856v2.611h.082c.78-1.818 2.324-2.885 4.58-2.885 3.254 0 5.086 2.051 5.086 5.483V57h-3.992v-8.613c0-1.914-.903-3.008-2.694-3.008-1.79 0-2.925 1.312-2.925 3.213V57h-3.993zm21.793-2.652c1.737 0 3.172-1.135 3.172-2.721v-1.066l-3.09.191c-1.49.11-2.337.78-2.337 1.818 0 1.094.902 1.778 2.255 1.778zm-1.312 2.884c-2.79 0-4.908-1.804-4.908-4.443 0-2.666 2.05-4.21 5.7-4.43l3.692-.218v-.971c0-1.367-.957-2.16-2.46-2.16-1.49 0-2.434.738-2.626 1.818h-3.65c.15-2.844 2.57-4.799 6.453-4.799 3.76 0 6.207 1.942 6.207 4.895V57h-3.855v-2.242h-.082c-.82 1.558-2.64 2.474-4.471 2.474z" fill="#FFFFFF" fill-rule="nonzero"/>
    </g>
    <path d="M896.085 221.25s23.013-23.398 109.906-38.973c60.23-10.797 131.522-14.316 169.601-15.46" stroke="#000000" stroke-width="4" stroke-linecap="round" stroke-linejoin="round" stroke-dasharray="4,13"/>
    <path fill="#000000" d="M1194.012 166.448l-18.571-6.542.278 13.824z"/>
    <path stroke="#000000" stroke-width="4" d="M1194.012 166.448l-18.571-6.542.278 13.824z"/>
    <g transform="translate(1210 118)">
      <circle fill="#000000" cx="50" cy="50" r="50"/>
      <path d="M14.667 45.135V28.642h11.138v3.118h-7.426v3.236h6.593v3.047h-6.593v3.974h7.973v3.118H14.667zm19.182.238c-1.032-.016-1.869-.127-2.511-.334-.643-.206-1.15-.495-1.523-.868a2.882 2.882 0 01-.762-1.357 7.32 7.32 0 01-.202-1.797v-13.78l3.546-.57v13.636c0 .318.024.603.071.857.048.254.14.468.274.643.135.174.33.317.583.428.254.111.595.183 1.023.214l-.5 2.928zm7.663-2.713c.349 0 .682-.008 1-.024.317-.016.57-.04.761-.072v-2.689a6.547 6.547 0 00-.643-.095 7.028 7.028 0 00-1.725.012c-.294.04-.551.115-.773.226a1.327 1.327 0 00-.524.452c-.127.19-.19.428-.19.714 0 .555.186.94.559 1.154.373.214.884.322 1.535.322zm-.286-10.377c1.047 0 1.92.12 2.618.357.698.238 1.258.58 1.678 1.024.42.444.718.983.892 1.618.175.635.262 1.34.262 2.118v7.378c-.508.11-1.214.242-2.118.392-.904.151-1.999.226-3.284.226-.81 0-1.543-.071-2.202-.214-.658-.143-1.225-.377-1.701-.702a3.213 3.213 0 01-1.095-1.273c-.254-.524-.38-1.166-.38-1.928 0-.73.146-1.348.44-1.856a3.388 3.388 0 011.178-1.214 5.323 5.323 0 011.69-.654 9.479 9.479 0 011.975-.203c.46 0 .868.02 1.225.06.357.04.647.091.869.155v-.334c0-.603-.182-1.086-.547-1.451-.365-.365-1-.548-1.904-.548-.603 0-1.198.044-1.785.131a7.657 7.657 0 00-1.523.37l-.453-2.857a13.637 13.637 0 011.785-.393c.365-.055.75-.103 1.155-.142.404-.04.813-.06 1.225-.06zm12.257 10.305c.65 0 1.11-.063 1.38-.19.27-.127.405-.373.405-.738 0-.286-.175-.535-.524-.75-.349-.214-.88-.456-1.594-.726a16.34 16.34 0 01-1.512-.642 4.442 4.442 0 01-1.154-.797 3.225 3.225 0 01-.738-1.107c-.174-.428-.262-.944-.262-1.547 0-1.174.437-2.102 1.31-2.784.872-.683 2.07-1.024 3.593-1.024.762 0 1.491.068 2.19.203.698.134 1.253.281 1.665.44l-.618 2.76a13.02 13.02 0 00-1.345-.38 7.308 7.308 0 00-1.63-.167c-1.11 0-1.666.31-1.666.928 0 .143.024.27.071.381a.813.813 0 00.286.321c.143.103.337.214.583.333.246.12.56.25.94.393.777.286 1.42.567 1.928.845.507.278.908.58 1.202.904.293.326.5.687.618 1.083.12.397.179.857.179 1.38 0 1.238-.464 2.174-1.392 2.809-.929.634-2.241.952-3.94.952-1.11 0-2.034-.095-2.772-.286-.737-.19-1.25-.349-1.535-.476l.595-2.88c.603.239 1.222.425 1.857.56a9.027 9.027 0 001.88.202zm7.83-13.09l3.546-.57v3.688h4.26v2.951h-4.26v4.403c0 .746.13 1.34.392 1.785.262.444.79.667 1.583.667.38 0 .773-.036 1.178-.108.405-.07.773-.17 1.107-.297l.5 2.76c-.429.175-.905.326-1.429.453-.523.127-1.166.19-1.927.19-.968 0-1.77-.13-2.404-.392-.635-.262-1.142-.627-1.523-1.095-.38-.468-.647-1.035-.797-1.702a10.045 10.045 0 01-.226-2.213v-10.52zm14.231 15.637h-3.546V32.616h3.546v12.519zm.333-16.136c0 .65-.21 1.162-.63 1.535-.42.373-.916.56-1.488.56a2.169 2.169 0 01-1.487-.56c-.42-.373-.63-.885-.63-1.535 0-.65.21-1.162.63-1.535.42-.373.916-.56 1.487-.56.572 0 1.067.187 1.488.56.42.373.63.884.63 1.535zm2.404 9.877c0-.905.147-1.758.44-2.559.294-.801.718-1.5 1.274-2.094a6.076 6.076 0 012.023-1.416c.793-.35 1.697-.524 2.713-.524.666 0 1.277.06 1.832.179a8.92 8.92 0 011.619.511l-.738 2.832a8.937 8.937 0 00-1.095-.333 5.722 5.722 0 00-1.333-.143c-1.047 0-1.828.326-2.344.976-.516.65-.773 1.507-.773 2.57 0 1.127.242 2 .725 2.618.484.62 1.33.929 2.535.929.428 0 .889-.04 1.38-.12.492-.079.944-.206 1.357-.38l.5 2.903c-.413.175-.928.325-1.547.452-.619.127-1.301.19-2.047.19-1.142 0-2.126-.17-2.951-.51-.825-.342-1.503-.806-2.035-1.393a5.431 5.431 0 01-1.166-2.083 8.842 8.842 0 01-.369-2.605zM19.034 67.787c.65 0 1.11-.063 1.38-.19.27-.127.405-.373.405-.738 0-.286-.175-.536-.524-.75-.349-.214-.88-.456-1.594-.726a16.34 16.34 0 01-1.512-.642 4.442 4.442 0 01-1.154-.798 3.225 3.225 0 01-.738-1.106c-.174-.429-.261-.944-.261-1.547 0-1.174.436-2.102 1.308-2.785.873-.682 2.071-1.023 3.594-1.023.762 0 1.492.067 2.19.202s1.253.282 1.666.44l-.62 2.761a13.02 13.02 0 00-1.344-.38 7.308 7.308 0 00-1.63-.167c-1.11 0-1.666.31-1.666.928 0 .143.024.27.071.38a.813.813 0 00.286.322c.143.103.337.214.583.333.246.12.56.25.94.393.778.286 1.42.567 1.928.845s.908.579 1.202.904c.293.326.5.686.618 1.083.12.397.179.857.179 1.38 0 1.238-.464 2.174-1.392 2.809-.928.634-2.241.952-3.939.952-1.11 0-2.035-.096-2.773-.286-.737-.19-1.249-.349-1.535-.476l.595-2.88c.603.238 1.222.425 1.857.56a9.027 9.027 0 001.88.202zm7.354-3.617c0-1.111.17-2.083.511-2.916.341-.833.79-1.527 1.345-2.082a5.594 5.594 0 011.916-1.262 5.998 5.998 0 012.225-.428c1.777 0 3.181.543 4.212 1.63 1.032 1.087 1.547 2.686 1.547 4.796 0 .206-.008.432-.023.678a35.49 35.49 0 01-.048.655h-8.044c.08.73.42 1.308 1.023 1.737.603.428 1.412.642 2.428.642.65 0 1.289-.06 1.916-.178.626-.12 1.138-.266 1.535-.44l.476 2.88c-.19.094-.445.19-.762.285-.317.095-.67.178-1.06.25-.388.071-.804.13-1.249.178-.444.048-.888.072-1.332.072-1.127 0-2.106-.167-2.94-.5-.832-.333-1.523-.79-2.07-1.369a5.431 5.431 0 01-1.214-2.058 8.155 8.155 0 01-.392-2.57zm8.33-1.357a3.66 3.66 0 00-.155-.88 2.199 2.199 0 00-.405-.762 2.154 2.154 0 00-.69-.547c-.278-.143-.623-.215-1.035-.215-.397 0-.738.068-1.024.203a2.115 2.115 0 00-.714.535c-.19.222-.337.48-.44.774a5.076 5.076 0 00-.226.892h4.688zm10.947 5.045c.349 0 .682-.008 1-.023.317-.016.57-.04.76-.072v-2.69a6.547 6.547 0 00-.642-.094 7.028 7.028 0 00-1.725.012c-.294.04-.551.115-.774.226a1.327 1.327 0 00-.523.452c-.127.19-.19.428-.19.714 0 .555.186.94.559 1.154.373.214.884.321 1.535.321zm-.286-10.376c1.047 0 1.92.12 2.618.357.698.238 1.257.58 1.678 1.023.42.445.718.984.892 1.619.175.634.262 1.34.262 2.118v7.377c-.508.112-1.214.242-2.118.393-.904.15-2 .226-3.284.226-.81 0-1.543-.071-2.202-.214-.658-.143-1.225-.377-1.701-.702a3.213 3.213 0 01-1.095-1.273c-.254-.524-.38-1.166-.38-1.928 0-.73.146-1.349.44-1.856a3.388 3.388 0 011.178-1.214 5.323 5.323 0 011.69-.654 9.479 9.479 0 011.975-.203c.46 0 .868.02 1.225.06.357.04.647.091.869.154v-.333c0-.603-.183-1.087-.547-1.451-.365-.365-1-.548-1.904-.548-.603 0-1.198.044-1.785.131a7.657 7.657 0 00-1.523.369l-.453-2.856A13.637 13.637 0 0143 57.684c.365-.055.75-.103 1.155-.142.404-.04.813-.06 1.225-.06zm16.207 3.475c-.317-.08-.69-.163-1.118-.25a6.912 6.912 0 00-1.38-.131c-.223 0-.489.02-.798.06-.31.04-.543.083-.702.13v9.567h-3.546V58.482a21.301 21.301 0 012.249-.631c.865-.198 1.829-.298 2.892-.298.19 0 .42.012.69.036a14.045 14.045 0 011.618.238c.27.056.5.123.69.202l-.595 2.928zm1.666 3.117c0-.904.147-1.757.44-2.558.294-.801.718-1.5 1.274-2.094a6.076 6.076 0 012.023-1.416c.793-.35 1.697-.524 2.713-.524.666 0 1.277.06 1.832.179a8.92 8.92 0 011.619.511l-.738 2.832a8.937 8.937 0 00-1.095-.333 5.722 5.722 0 00-1.333-.143c-1.047 0-1.828.326-2.344.976-.516.65-.773 1.507-.773 2.57 0 1.127.242 2 .725 2.618.484.619 1.33.928 2.535.928.428 0 .889-.04 1.38-.119.492-.079.944-.206 1.357-.38l.5 2.903c-.413.175-.928.325-1.547.452-.619.127-1.301.19-2.047.19-1.142 0-2.126-.17-2.951-.511-.825-.341-1.503-.805-2.035-1.392a5.431 5.431 0 01-1.166-2.083 8.842 8.842 0 01-.369-2.606zm12.495 6.26V52.436l3.546-.571v5.997a7.35 7.35 0 01.916-.226 5.755 5.755 0 011.083-.107c1.015 0 1.86.138 2.534.416.675.278 1.214.67 1.619 1.178.404.508.69 1.11.856 1.809.167.698.25 1.475.25 2.332v7.068h-3.546v-6.64c0-1.142-.146-1.95-.44-2.427-.294-.476-.837-.714-1.63-.714-.318 0-.615.028-.893.083a9.598 9.598 0 00-.75.179v9.52h-3.545z" fill="#FFFFFF" fill-rule="nonzero"/>
    </g>
    <g>
      <path stroke-opacity=".096" stroke="#000000" stroke-linecap="round" stroke-linejoin="round" d="M764 296.002L834 325l70-28.998L834 267z"/>
      <path stroke-opacity=".096" stroke="#000000" stroke-linecap="round" stroke-linejoin="round" d="M833 224l71 28.987-.345 43.013-70.509-28.674z"/>
      <path stroke-opacity=".096" stroke="#000000" stroke-linecap="round" stroke-linejoin="round" d="M765 252.616V296l70-28.713-.146-43.287z"/>
      <path fill-opacity=".099" fill="#000000" d="M764.145 295.67L764 251.35 833.852 222 904 251.644l-.23 43.923L833.852 325z"/>
      <path stroke-opacity=".096" stroke="#000000" stroke-linecap="round" stroke-linejoin="round" d="M764.145 295.67L764 251.35 833.852 222 904 251.644l-.23 43.923L833.852 325z"/>
      <path fill="#10E7FF" d="M788 290.02l45.01 17.851 45.01-17.851-45.01-17.853z"/>
      <path fill="#10E7FF" d="M788 262.852v27.104l46.184 17.915V281zM834.184 280.86l44.618-18.008-.22 27.012-44.398 18.007z"/>
      <path fill="#10E7FF" d="M833.401 245l45.401 18.125-.22 26.894-45.087-17.929zM788 262.892v27.127l45.401-17.953-.094-27.066z"/>
      <path fill="#10E7FF" d="M788.094 289.968L788 262.914 833.305 245l45.497 18.095-.15 26.81-45.347 17.966z"/>
      <path fill-opacity=".307" fill="#FFFFFF" d="M788 262.853l45.01 17.852 45.01-17.852L833.01 245z"/>
      <path stroke-opacity=".096" stroke="#000000" stroke-linecap="round" stroke-linejoin="round" d="M765 253v43.347L835 325v-42.977z"/>
      <path stroke-opacity=".096" stroke="#000000" stroke-linecap="round" stroke-linejoin="round" d="M833 281.8l71-28.8-.346 43.2L833 325z"/>
    </g>
    <g>
      <g transform="translate(780)">
        <circle fill="#000000" cx="50" cy="50" r="50"/>
        <path d="M21.635 26.667c2.53 0 4.472.444 5.826 1.334 1.355.89 2.032 2.346 2.032 4.37 0 2.04-.685 3.513-2.056 4.419-1.371.906-3.33 1.359-5.876 1.359h-1.2v5.68h-3.819V27.107a21.607 21.607 0 012.644-.342c.93-.066 1.747-.098 2.449-.098zm.244 3.256c-.277 0-.55.008-.82.024-.269.017-.502.033-.697.05v4.896h1.2c1.321 0 2.317-.18 2.986-.539.67-.36 1.004-1.028 1.004-2.008 0-.473-.086-.865-.257-1.175a1.954 1.954 0 00-.735-.746c-.318-.188-.706-.319-1.163-.392a9.604 9.604 0 00-1.518-.11zm17.946 4.26c-.327-.082-.71-.168-1.15-.257a7.11 7.11 0 00-1.42-.135c-.23 0-.503.02-.821.061-.318.04-.559.086-.722.135v9.842h-3.648V31.637a21.912 21.912 0 012.313-.65c.89-.203 1.882-.305 2.975-.305.196 0 .433.012.71.036a14.448 14.448 0 011.665.245c.277.057.514.127.71.208l-.612 3.012zm14.37 3.182c0 1.012-.146 1.938-.44 2.779-.294.84-.718 1.559-1.273 2.154a5.73 5.73 0 01-1.995 1.384c-.776.326-1.645.49-2.608.49-.946 0-1.807-.164-2.583-.49a5.73 5.73 0 01-1.995-1.384c-.555-.595-.987-1.313-1.297-2.154-.31-.84-.466-1.767-.466-2.779s.16-1.934.478-2.766a6.274 6.274 0 011.322-2.13 5.937 5.937 0 012.007-1.371 6.463 6.463 0 012.534-.49c.93 0 1.783.163 2.559.49.775.326 1.44.783 1.995 1.37.555.588.987 1.298 1.297 2.13.31.833.466 1.755.466 2.767zm-3.72 0c0-1.126-.225-2.011-.674-2.656-.449-.645-1.09-.967-1.922-.967-.832 0-1.477.322-1.934.967-.457.645-.685 1.53-.685 2.656 0 1.126.228 2.02.685 2.681.457.661 1.102.992 1.934.992.833 0 1.473-.33 1.922-.992.449-.66.673-1.555.673-2.68zm13.611-.367c0-1.175-.15-2.007-.453-2.497-.301-.49-.82-.735-1.554-.735-.229 0-.465.013-.71.037-.245.025-.482.053-.71.086v9.94H57.01V31.392a25.312 25.312 0 012.412-.502c.465-.074.942-.13 1.432-.172.49-.04.97-.06 1.444-.06.93 0 1.685.118 2.265.354.58.237 1.057.518 1.432.845a6.267 6.267 0 011.8-.882c.677-.212 1.301-.318 1.872-.318 1.029 0 1.873.143 2.534.429.661.285 1.188.69 1.58 1.212.39.522.66 1.142.807 1.86.147.718.22 1.518.22 2.4v7.27h-3.647v-6.83c0-1.175-.151-2.007-.453-2.497-.302-.49-.82-.735-1.555-.735-.196 0-.47.05-.82.147a3.2 3.2 0 00-.87.368c.115.375.189.77.221 1.187.033.416.05.86.05 1.334v7.027h-3.649v-6.83zm12.927-2.13h7.1v3.305h-7.1v-3.305zM10.667 62.65c0-1.143.175-2.142.526-3 .35-.856.812-1.57 1.383-2.141a5.754 5.754 0 011.971-1.298 6.17 6.17 0 012.29-.44c1.827 0 3.272.558 4.332 1.676 1.061 1.118 1.592 2.763 1.592 4.933 0 .213-.008.445-.025.698a36.51 36.51 0 01-.049.673h-8.275c.082.751.433 1.347 1.053 1.788.62.44 1.453.66 2.497.66.67 0 1.326-.06 1.971-.183.645-.122 1.171-.273 1.58-.453l.489 2.962a5.038 5.038 0 01-.784.294c-.326.098-.69.184-1.089.257-.4.074-.828.135-1.285.184a12.86 12.86 0 01-1.371.073c-1.16 0-2.167-.171-3.024-.514-.857-.343-1.567-.812-2.13-1.408a5.587 5.587 0 01-1.248-2.117 8.389 8.389 0 01-.404-2.644zm8.568-1.396a3.765 3.765 0 00-.159-.906 2.262 2.262 0 00-.416-.783 2.216 2.216 0 00-.71-.563c-.286-.147-.64-.22-1.065-.22-.408 0-.759.069-1.053.208a2.175 2.175 0 00-.734.55 2.464 2.464 0 00-.453.796 5.221 5.221 0 00-.233.918h4.823zm6.219-8.348l3.648-.588v3.795h4.382v3.036h-4.382v4.529c0 .767.134 1.38.404 1.836.269.457.812.686 1.628.686a6.97 6.97 0 001.211-.11 6.246 6.246 0 001.139-.307l.514 2.84c-.44.18-.93.335-1.469.466-.539.13-1.2.195-1.983.195-.996 0-1.82-.134-2.473-.404-.652-.269-1.175-.644-1.566-1.126-.392-.481-.666-1.065-.82-1.75a10.334 10.334 0 01-.233-2.277V52.906zM36.446 68.99V50.58l3.648-.588v6.169a7.56 7.56 0 01.943-.233 5.92 5.92 0 011.114-.11c1.044 0 1.913.143 2.607.429.693.285 1.248.69 1.665 1.212.416.522.71 1.142.881 1.86.171.718.257 1.518.257 2.4v7.27h-3.648v-6.83c0-1.175-.15-2.007-.453-2.497-.302-.49-.86-.735-1.677-.735-.326 0-.632.03-.918.086a9.874 9.874 0 00-.771.184v9.793h-3.648zm13.808-6.341c0-1.143.175-2.142.526-3 .351-.856.812-1.57 1.384-2.141a5.754 5.754 0 011.97-1.298 6.17 6.17 0 012.29-.44c1.828 0 3.272.558 4.333 1.676 1.06 1.118 1.591 2.763 1.591 4.933 0 .213-.008.445-.024.698a36.51 36.51 0 01-.05.673H54c.081.751.432 1.347 1.053 1.788.62.44 1.452.66 2.497.66.669 0 1.326-.06 1.97-.183.645-.122 1.172-.273 1.58-.453l.49 2.962a5.038 5.038 0 01-.784.294c-.327.098-.69.184-1.09.257-.4.074-.828.135-1.285.184a12.86 12.86 0 01-1.371.073c-1.159 0-2.167-.171-3.023-.514-.857-.343-1.567-.812-2.13-1.408a5.587 5.587 0 01-1.249-2.117 8.389 8.389 0 01-.404-2.644zm8.569-1.396a3.765 3.765 0 00-.16-.906 2.262 2.262 0 00-.416-.783 2.216 2.216 0 00-.71-.563c-.285-.147-.64-.22-1.065-.22-.408 0-.758.069-1.052.208a2.175 2.175 0 00-.735.55 2.464 2.464 0 00-.453.796 5.221 5.221 0 00-.232.918h4.823zm17.333 7.296c-.62.18-1.42.347-2.4.502-.979.155-2.007.232-3.084.232-1.094 0-2.003-.147-2.73-.44-.726-.294-1.301-.706-1.726-1.237-.424-.53-.726-1.163-.906-1.897-.18-.734-.269-1.542-.269-2.424v-7.173h3.648v6.733c0 1.175.155 2.023.465 2.546.31.522.89.783 1.738.783.262 0 .539-.012.833-.037.294-.024.555-.053.783-.085v-9.94h3.648V68.55zm7.124-2.179c.67 0 1.143-.065 1.42-.196.278-.13.416-.383.416-.759 0-.294-.18-.55-.538-.771-.36-.22-.906-.47-1.64-.747a16.81 16.81 0 01-1.555-.66 4.57 4.57 0 01-1.187-.82 3.317 3.317 0 01-.76-1.14c-.179-.44-.269-.97-.269-1.59 0-1.208.45-2.163 1.347-2.865.897-.702 2.13-1.053 3.697-1.053.783 0 1.534.07 2.252.208.718.14 1.29.29 1.714.453l-.637 2.84a13.394 13.394 0 00-1.383-.391 7.517 7.517 0 00-1.677-.172c-1.143 0-1.714.318-1.714.955 0 .147.025.277.074.392a.836.836 0 00.293.33c.147.106.347.22.6.343.253.122.575.257.967.404.8.294 1.461.583 1.983.869.523.286.935.596 1.237.93.302.335.514.706.636 1.114.123.408.184.882.184 1.42 0 1.273-.478 2.236-1.432 2.89-.955.652-2.306.978-4.052.978-1.143 0-2.093-.098-2.852-.293-.76-.196-1.286-.36-1.58-.49l.613-2.962c.62.244 1.256.436 1.91.575a9.286 9.286 0 001.933.208z" fill="#FFFFFF" fill-rule="nonzero"/>
      </g>
      <path fill="#000000" fill-rule="nonzero" d="M833.167 131.537l-.78 81.477-3-.028.78-81.478-8-.076 9.681-18.908 9.318 19.09-8-.077z"/>
    </g>
    <g>
      <path d="M204.353 194.771c39.288 15.224 96.073 36.486 145.557 52.161 85.97 27.234 109.473 24.798 109.473 24.798" stroke="#000000" stroke-width="4" stroke-linecap="round" stroke-linejoin="round"/>
      <path d="M287.048 357.53c9.495-15.444 27.834-39.68 57.55-57.743 47.135-28.65 100.732-28.297 100.732-28.297" stroke="#000000" stroke-width="4" stroke-linecap="round" stroke-linejoin="round"/>
      <path d="M194.138 390.873c3.119-21.73 15.727-66.689 66.54-94.272 68.935-37.42 175.766-25.264 175.766-25.264" stroke="#000000" stroke-width="4" stroke-linecap="round" stroke-linejoin="round"/>
      <path stroke="#000000" stroke-width="4" d="M754.054 271.571l-17.676-6.628V278.2z"/>
      <path stroke="#000000" stroke-width="4" stroke-linecap="round" stroke-linejoin="round" d="M436.444 271.337l52.802.905"/>
      <path fill="#000000" d="M506.92 272.546l-17.56-6.93-.227 13.254z"/>
      <path stroke="#000000" stroke-width="4" d="M506.92 272.546l-17.559-6.93-.228 13.254z"/>
      <g>
        <path fill="#000000" d="M87 333.095v-24.449l68.316-24.355 68.398 24.355v24.359l-68.398 24.359-67.797-24.269z"/>
        <path fill="#000000" d="M87 308.64v24.356l67.667 24.358v-24.358zM154.667 333.006l67.666-24.36v24.36l-67.666 24.36z"/>
        <path fill-opacity=".203" fill="#FFFFFF" d="M87 307.761l68.998 24.36L225 307.761l-69.002-24.355z"/>
        <path d="M158.756 314.739l13.56 4.87c1.879.675 1.879 1.763 0 2.437l-13.56 4.87c-1.877.675-4.904.675-6.78 0l-13.562-4.87c-1.878-.674-1.878-1.762 0-2.437l13.561-4.87c1.877-.675 4.904-.675 6.78 0z" fill="#10E7FF"/>
        <g>
          <path fill="#000000" d="M87 296.095v-24.449l68.316-24.355 68.398 24.355v24.359l-68.398 24.359-67.797-24.269z"/>
          <path fill="#000000" d="M87 271.64v24.356l67.667 24.358v-24.358zM154.667 296.006l67.666-24.36v24.36l-67.666 24.36z"/>
          <path fill-opacity=".203" fill="#FFFFFF" d="M87 270.761l68.998 24.36L225 270.761l-69.002-24.355z"/>
          <path d="M158.756 277.739l13.56 4.87c1.879.675 1.879 1.763 0 2.437l-13.56 4.87c-1.877.675-4.904.675-6.78 0l-13.562-4.87c-1.878-.674-1.878-1.762 0-2.437l13.561-4.87c1.877-.675 4.904-.675 6.78 0z" fill="#10E7FF"/>
        </g>
        <g>
          <path fill="#000000" d="M87 259.095v-24.449l68.316-24.355 68.398 24.355v24.359l-68.398 24.359-67.797-24.269z"/>
          <path fill="#000000" d="M87 234.64v24.356l67.667 24.358v-24.358zM154.667 259.006l67.666-24.36v24.36l-67.666 24.36z"/>
          <path fill-opacity=".203" fill="#FFFFFF" d="M87 233.761l68.998 24.36L225 233.761l-69.002-24.355z"/>
          <path d="M158.756 240.739l13.56 4.87c1.879.675 1.879 1.763 0 2.437l-13.56 4.87c-1.877.675-4.904.675-6.78 0l-13.562-4.87c-1.878-.674-1.878-1.762 0-2.437l13.561-4.87c1.877-.675 4.904-.675 6.78 0z" fill="#10E7FF"/>
        </g>
        <g>
          <path fill="#000000" d="M87 222.095v-24.449l68.316-24.355 68.398 24.355v24.359l-68.398 24.359-67.797-24.269z"/>
          <path fill="#000000" d="M87 197.64v24.356l67.667 24.358v-24.358zM154.667 222.006l67.666-24.36v24.36l-67.666 24.36z"/>
          <path fill-opacity=".203" fill="#FFFFFF" d="M87 196.761l68.998 24.36L225 196.761l-69.002-24.355z"/>
          <path d="M158.756 203.739l13.56 4.87c1.879.675 1.879 1.763 0 2.437l-13.56 4.87c-1.877.675-4.904.675-6.78 0l-13.562-4.87c-1.878-.674-1.878-1.762 0-2.437l13.561-4.87c1.877-.675 4.904-.675 6.78 0z" fill="#10E7FF"/>
        </g>
        <g>
          <path fill="#000000" d="M87 185.095v-24.449l68.316-24.355 68.398 24.355v24.359l-68.398 24.359-67.797-24.269z"/>
          <path fill="#000000" d="M87 160.64v24.356l67.667 24.358v-24.358zM154.667 185.006l67.666-24.36v24.36l-67.666 24.36z"/>
          <path fill-opacity=".203" fill="#FFFFFF" d="M87 159.761l68.998 24.36L225 159.761l-69.002-24.355z"/>
          <path d="M158.756 166.739l13.56 4.87c1.879.675 1.879 1.763 0 2.437l-13.56 4.87c-1.877.675-4.904.675-6.78 0l-13.562-4.87c-1.878-.674-1.878-1.762 0-2.437l13.561-4.87c1.877-.675 4.904-.675 6.78 0z" fill="#10E7FF"/>
        </g>
      </g>
      <g>
        <path fill="#000000" d="M172 366.095v-24.449l68.316-24.355 68.398 24.355v24.359l-68.398 24.359-67.797-24.269z"/>
        <path fill="#000000" d="M172 341.64v24.356l67.667 24.358v-24.358z"/>
        <path fill="#000000" d="M239.667 366.006l67.666-24.36v24.36l-67.666 24.36z"/>
        <path fill-opacity=".203" fill="#FFFFFF" d="M172 340.761l68.998 24.36L310 340.761l-69.002-24.355z"/>
        <path d="M243.756 347.739l13.56 4.87c1.879.675 1.879 1.763 0 2.437l-13.56 4.87c-1.877.675-4.904.675-6.78 0l-13.562-4.87c-1.878-.674-1.878-1.762 0-2.437l13.561-4.87c1.877-.675 4.904-.675 6.78 0z" fill="#10E7FF"/>
        <g>
          <path fill="#000000" d="M172 329.095v-24.449l68.316-24.355 68.398 24.355v24.359l-68.398 24.359-67.797-24.269z"/>
          <path fill="#000000" d="M172 304.64v24.356l67.667 24.358v-24.358z"/>
          <path fill="#000000" d="M239.667 329.006l67.666-24.36v24.36l-67.666 24.36z"/>
          <path fill-opacity=".203" fill="#FFFFFF" d="M172 303.761l68.998 24.36L310 303.761l-69.002-24.355z"/>
          <path d="M243.756 310.739l13.56 4.87c1.879.675 1.879 1.763 0 2.437l-13.56 4.87c-1.877.675-4.904.675-6.78 0l-13.562-4.87c-1.878-.674-1.878-1.762 0-2.437l13.561-4.87c1.877-.675 4.904-.675 6.78 0z" fill="#10E7FF"/>
        </g>
        <g>
          <path fill="#000000" d="M172 292.095v-24.449l68.316-24.355 68.398 24.355v24.359l-68.398 24.359-67.797-24.269z"/>
          <path fill="#000000" d="M172 267.64v24.356l67.667 24.358v-24.358z"/>
          <path fill="#000000" d="M239.667 292.006l67.666-24.36v24.36l-67.666 24.36z"/>
          <path fill-opacity=".203" fill="#FFFFFF" d="M172 266.761l68.998 24.36L310 266.761l-69.002-24.355z"/>
          <path d="M243.756 273.739l13.56 4.87c1.879.675 1.879 1.763 0 2.437l-13.56 4.87c-1.877.675-4.904.675-6.78 0l-13.562-4.87c-1.878-.674-1.878-1.762 0-2.437l13.561-4.87c1.877-.675 4.904-.675 6.78 0z" fill="#10E7FF"/>
        </g>
        <g>
          <path fill="#000000" d="M172 255.095v-24.449l68.316-24.355 68.398 24.355v24.359l-68.398 24.359-67.797-24.269z"/>
          <path fill="#000000" d="M172 230.64v24.356l67.667 24.358v-24.358z"/>
          <path fill="#000000" d="M239.667 255.006l67.666-24.36v24.36l-67.666 24.36z"/>
          <path fill-opacity=".203" fill="#FFFFFF" d="M172 229.761l68.998 24.36L310 229.761l-69.002-24.355z"/>
          <path d="M243.756 236.739l13.56 4.87c1.879.675 1.879 1.763 0 2.437l-13.56 4.87c-1.877.675-4.904.675-6.78 0l-13.562-4.87c-1.878-.674-1.878-1.762 0-2.437l13.561-4.87c1.877-.675 4.904-.675 6.78 0z" fill="#10E7FF"/>
        </g>
        <g>
          <path fill="#000000" d="M172 218.095v-24.449l68.316-24.355 68.398 24.355v24.359l-68.398 24.359-67.797-24.269z"/>
          <path fill="#000000" d="M172 193.64v24.356l67.667 24.358v-24.358z"/>
          <path fill="#000000" d="M239.667 218.006l67.666-24.36v24.36l-67.666 24.36z"/>
          <path fill-opacity=".203" fill="#FFFFFF" d="M172 192.761l68.998 24.36L310 192.761l-69.002-24.355z"/>
          <path d="M243.756 199.739l13.56 4.87c1.879.675 1.879 1.763 0 2.437l-13.56 4.87c-1.877.675-4.904.675-6.78 0l-13.562-4.87c-1.878-.674-1.878-1.762 0-2.437l13.561-4.87c1.877-.675 4.904-.675 6.78 0z" fill="#10E7FF"/>
        </g>
      </g>
      <g>
        <path fill="#000000" d="M0 367.095v-24.449l68.316-24.355 68.398 24.355v24.359l-68.398 24.359L.52 367.095z"/>
        <path fill="#000000" d="M0 342.64v24.356l67.667 24.358v-24.358zM67.667 367.006l67.666-24.36v24.36l-67.666 24.36z"/>
        <path fill-opacity=".203" fill="#FFFFFF" d="M0 341.761l68.998 24.36L138 341.761l-69.002-24.355z"/>
        <path d="M71.756 348.739l13.56 4.87c1.879.675 1.879 1.763 0 2.437l-13.56 4.87c-1.877.675-4.904.675-6.78 0l-13.562-4.87c-1.878-.674-1.878-1.762 0-2.437l13.561-4.87c1.877-.675 4.904-.675 6.78 0z" fill="#10E7FF"/>
        <g>
          <path fill="#000000" d="M0 330.095v-24.449l68.316-24.355 68.398 24.355v24.359l-68.398 24.359L.52 330.095z"/>
          <path fill="#000000" d="M0 305.64v24.356l67.667 24.358v-24.358zM67.667 330.006l67.666-24.36v24.36l-67.666 24.36z"/>
          <path fill-opacity=".203" fill="#FFFFFF" d="M0 304.761l68.998 24.36L138 304.761l-69.002-24.355z"/>
          <path d="M71.756 311.739l13.56 4.87c1.879.675 1.879 1.763 0 2.437l-13.56 4.87c-1.877.675-4.904.675-6.78 0l-13.562-4.87c-1.878-.674-1.878-1.762 0-2.437l13.561-4.87c1.877-.675 4.904-.675 6.78 0z" fill="#10E7FF"/>
        </g>
        <g>
          <path fill="#000000" d="M0 293.095v-24.449l68.316-24.355 68.398 24.355v24.359l-68.398 24.359L.52 293.095z"/>
          <path fill="#000000" d="M0 268.64v24.356l67.667 24.358v-24.358zM67.667 293.006l67.666-24.36v24.36l-67.666 24.36z"/>
          <path fill-opacity=".203" fill="#FFFFFF" d="M0 267.761l68.998 24.36L138 267.761l-69.002-24.355z"/>
          <path d="M71.756 274.739l13.56 4.87c1.879.675 1.879 1.763 0 2.437l-13.56 4.87c-1.877.675-4.904.675-6.78 0l-13.562-4.87c-1.878-.674-1.878-1.762 0-2.437l13.561-4.87c1.877-.675 4.904-.675 6.78 0z" fill="#10E7FF"/>
        </g>
        <g>
          <path fill="#000000" d="M0 256.095v-24.449l68.316-24.355 68.398 24.355v24.359l-68.398 24.359L.52 256.095z"/>
          <path fill="#000000" d="M0 231.64v24.356l67.667 24.358v-24.358zM67.667 256.006l67.666-24.36v24.36l-67.666 24.36z"/>
          <path fill-opacity=".203" fill="#FFFFFF" d="M0 230.761l68.998 24.36L138 230.761l-69.002-24.355z"/>
          <path d="M71.756 237.739l13.56 4.87c1.879.675 1.879 1.763 0 2.437l-13.56 4.87c-1.877.675-4.904.675-6.78 0l-13.562-4.87c-1.878-.674-1.878-1.762 0-2.437l13.561-4.87c1.877-.675 4.904-.675 6.78 0z" fill="#10E7FF"/>
        </g>
        <g>
          <path fill="#000000" d="M0 219.095v-24.449l68.316-24.355 68.398 24.355v24.359l-68.398 24.359L.52 219.095z"/>
          <path fill="#000000" d="M0 194.64v24.356l67.667 24.358v-24.358zM67.667 219.006l67.666-24.36v24.36l-67.666 24.36z"/>
          <path fill-opacity=".203" fill="#FFFFFF" d="M0 193.761l68.998 24.36L138 193.761l-69.002-24.355z"/>
          <path d="M71.756 200.739l13.56 4.87c1.879.675 1.879 1.763 0 2.437l-13.56 4.87c-1.877.675-4.904.675-6.78 0l-13.562-4.87c-1.878-.674-1.878-1.762 0-2.437l13.561-4.87c1.877-.675 4.904-.675 6.78 0z" fill="#10E7FF"/>
        </g>
      </g>
      <g>
        <path fill="#000000" d="M87 399.095v-24.449l68.316-24.355 68.398 24.355v24.359l-68.398 24.359-67.797-24.269z"/>
        <path fill="#000000" d="M87 374.64v24.356l67.667 24.358v-24.358zM154.667 399.006l67.666-24.36v24.36l-67.666 24.36z"/>
        <path fill-opacity=".203" fill="#FFFFFF" d="M87 373.761l68.998 24.36L225 373.761l-69.002-24.355z"/>
        <path d="M158.756 380.739l13.56 4.87c1.879.675 1.879 1.763 0 2.437l-13.56 4.87c-1.877.675-4.904.675-6.78 0l-13.562-4.87c-1.878-.674-1.878-1.762 0-2.437l13.561-4.87c1.877-.675 4.904-.675 6.78 0z" fill="#10E7FF"/>
        <g>
          <path fill="#000000" d="M87 362.095v-24.449l68.316-24.355 68.398 24.355v24.359l-68.398 24.359-67.797-24.269z"/>
          <path fill="#000000" d="M87 337.64v24.356l67.667 24.358v-24.358zM154.667 362.006l67.666-24.36v24.36l-67.666 24.36z"/>
          <path fill-opacity=".203" fill="#FFFFFF" d="M87 336.761l68.998 24.36L225 336.761l-69.002-24.355z"/>
          <path d="M158.756 343.739l13.56 4.87c1.879.675 1.879 1.763 0 2.437l-13.56 4.87c-1.877.675-4.904.675-6.78 0l-13.562-4.87c-1.878-.674-1.878-1.762 0-2.437l13.561-4.87c1.877-.675 4.904-.675 6.78 0z" fill="#10E7FF"/>
        </g>
        <g>
          <path fill="#000000" d="M87 325.095v-24.449l68.316-24.355 68.398 24.355v24.359l-68.398 24.359-67.797-24.269z"/>
          <path fill="#000000" d="M87 300.64v24.356l67.667 24.358v-24.358zM154.667 325.006l67.666-24.36v24.36l-67.666 24.36z"/>
          <path fill-opacity=".203" fill="#FFFFFF" d="M87 299.761l68.998 24.36L225 299.761l-69.002-24.355z"/>
          <path d="M158.756 306.739l13.56 4.87c1.879.675 1.879 1.763 0 2.437l-13.56 4.87c-1.877.675-4.904.675-6.78 0l-13.562-4.87c-1.878-.674-1.878-1.762 0-2.437l13.561-4.87c1.877-.675 4.904-.675 6.78 0z" fill="#10E7FF"/>
        </g>
        <g>
          <path fill="#000000" d="M87 288.095v-24.449l68.316-24.355 68.398 24.355v24.359l-68.398 24.359-67.797-24.269z"/>
          <path fill="#000000" d="M87 263.64v24.356l67.667 24.358v-24.358zM154.667 288.006l67.666-24.36v24.36l-67.666 24.36z"/>
          <path fill-opacity=".203" fill="#FFFFFF" d="M87 262.761l68.998 24.36L225 262.761l-69.002-24.355z"/>
          <path d="M158.756 269.739l13.56 4.87c1.879.675 1.879 1.763 0 2.437l-13.56 4.87c-1.877.675-4.904.675-6.78 0l-13.562-4.87c-1.878-.674-1.878-1.762 0-2.437l13.561-4.87c1.877-.675 4.904-.675 6.78 0z" fill="#10E7FF"/>
        </g>
        <g>
          <path fill="#000000" d="M87 251.095v-24.449l68.316-24.355 68.398 24.355v24.359l-68.398 24.359-67.797-24.269z"/>
          <path fill="#000000" d="M87 226.64v24.356l67.667 24.358v-24.358zM154.667 251.006l67.666-24.36v24.36l-67.666 24.36z"/>
          <path fill-opacity=".203" fill="#FFFFFF" d="M87 225.761l68.998 24.36L225 225.761l-69.002-24.355z"/>
          <path d="M158.756 232.739l13.56 4.87c1.879.675 1.879 1.763 0 2.437l-13.56 4.87c-1.877.675-4.904.675-6.78 0l-13.562-4.87c-1.878-.674-1.878-1.762 0-2.437l13.561-4.87c1.877-.675 4.904-.675 6.78 0z" fill="#10E7FF"/>
        </g>
      </g>
    </g>
    <g transform="translate(521.146 160.353)">
      <path d="M16.71 80.737h133.677c9.224 0 16.71 14.539 16.71 32.452 0 17.914-7.486 32.453-16.71 32.453H16.71C7.486 145.642 0 131.103 0 113.189c0-17.913 7.486-32.452 16.71-32.452" fill="#000000"/>
      <path d="M162.355 89.523c7.55 12.943 7.55 33.928 0 46.87-7.55 12.944-19.791 12.944-27.341 0-7.55-12.942-7.55-33.927 0-46.87 7.55-12.943 19.79-12.943 27.341 0" fill-opacity=".34" fill="#FFFFFF"/>
      <path d="M17.715 15.647h-1.846V.851h1.846V8.04h.164l6.48-7.188h2.318L20.76 7.24l6.46 8.408h-2.389l-5.342-7.126-1.774 1.958v5.168zm14.96-1.353c1.815 0 3.158-1.19 3.158-2.769V10.51l-2.973.195c-1.682.113-2.42.697-2.42 1.805 0 1.128.953 1.784 2.235 1.784zm-.328 1.548c-2.143 0-3.732-1.271-3.732-3.291 0-1.98 1.456-3.117 4.03-3.271l3.188-.195V8.08c0-1.364-.85-2.112-2.502-2.112-1.322 0-2.245.502-2.491 1.374h-1.784c.235-1.774 1.979-2.943 4.337-2.943 2.697 0 4.204 1.384 4.204 3.681v7.567h-1.682v-1.63h-.164c-.717 1.18-1.927 1.825-3.404 1.825zm9.25-.195V6.07H39.76V4.594h1.835v-1.23c0-2.205 1.108-3.261 3.21-3.261.43 0 .82.03 1.189.102v1.436a4.854 4.854 0 00-.83-.052c-1.272 0-1.805.616-1.805 1.826v1.179h2.532V6.07H43.36v9.577h-1.764zm8.89-6.224l4.798-4.83h2.164L52.69 9.332l5.076 6.316H55.52l-4.143-5.178-1.056.985v4.193h-1.764V.205h1.764v9.218h.164zm12.468 4.87c1.815 0 3.158-1.189 3.158-2.768V10.51l-2.973.195c-1.682.113-2.42.697-2.42 1.805 0 1.128.953 1.784 2.235 1.784zm-.328 1.55c-2.143 0-3.733-1.272-3.733-3.292 0-1.98 1.456-3.117 4.03-3.271l3.19-.195V8.08c0-1.364-.852-2.112-2.503-2.112-1.323 0-2.245.502-2.491 1.374h-1.785c.236-1.774 1.98-2.943 4.338-2.943 2.697 0 4.204 1.384 4.204 3.681v7.567h-1.682v-1.63h-.164c-.718 1.18-1.928 1.825-3.404 1.825zm14.355 2.952h-1.497L80.817.205h1.497l-5.332 18.59zm15.074-3.148H90.21V.851h1.846V8.04h.164L98.7.851h2.317L95.101 7.24l6.46 8.408h-2.39L93.83 8.521l-1.773 1.958v5.168zm11.802 0V4.594h1.763v11.053h-1.763zm.882-13.186c-.677 0-1.23-.554-1.23-1.23 0-.677.553-1.231 1.23-1.231.676 0 1.23.554 1.23 1.23 0 .677-.554 1.23-1.23 1.23zm4.245 13.186V4.594h1.681v1.743h.164c.554-1.22 1.63-1.938 3.323-1.938 2.481 0 3.865 1.466 3.865 4.091v7.157h-1.763V8.921c0-1.99-.841-2.933-2.605-2.933-1.763 0-2.902 1.18-2.902 3.117v6.542h-1.763zm16.662-9.69c-1.763 0-2.994 1.293-3.127 3.251h6.09c-.04-1.958-1.21-3.25-2.963-3.25zm2.912 6.83h1.764c-.513 1.886-2.235 3.055-4.655 3.055-3.066 0-4.984-2.215-4.984-5.711 0-3.476 1.949-5.732 4.984-5.732 2.984 0 4.799 2.122 4.799 5.558v.676h-7.947v.082c.092 2.184 1.312 3.569 3.189 3.569 1.425 0 2.389-.523 2.85-1.497zm4.42-5.168c0-1.836 1.774-3.22 4.122-3.22 2.317 0 3.927 1.148 4.163 2.963h-1.743c-.236-.882-1.097-1.466-2.43-1.466-1.313 0-2.338.667-2.338 1.65 0 .76.615 1.231 1.917 1.55l1.702.41c2.082.502 3.087 1.404 3.087 2.994 0 1.979-1.918 3.342-4.43 3.342-2.46 0-4.153-1.179-4.347-3.014h1.814c.298.933 1.18 1.527 2.595 1.527 1.487 0 2.553-.707 2.553-1.722 0-.759-.574-1.272-1.753-1.559l-1.897-.461c-2.072-.503-3.015-1.395-3.015-2.994zm11.29 8.028V4.594h1.763v11.053h-1.764zm.881-13.186c-.676 0-1.23-.554-1.23-1.23 0-.677.554-1.231 1.23-1.231.677 0 1.23.554 1.23 1.23 0 .677-.553 1.23-1.23 1.23zm3.99 5.158c0-1.836 1.773-3.22 4.121-3.22 2.318 0 3.927 1.148 4.163 2.963h-1.743c-.236-.882-1.097-1.466-2.43-1.466-1.313 0-2.338.667-2.338 1.65 0 .76.615 1.231 1.917 1.55l1.703.41c2.081.502 3.086 1.404 3.086 2.994 0 1.979-1.917 3.342-4.43 3.342-2.46 0-4.152-1.179-4.347-3.014h1.815c.297.933 1.179 1.527 2.594 1.527 1.487 0 2.553-.707 2.553-1.722 0-.759-.574-1.272-1.753-1.559l-1.897-.461c-2.072-.503-3.015-1.395-3.015-2.994z" fill="#000000" fill-rule="nonzero"/>
      <ellipse fill="#000000" cx="84.854" cy="42.147" rx="13" ry="13.5"/>
      <path fill="#000000" fill-rule="nonzero" d="M84.354 41.647v45h1v-45z"/>
      <path stroke="#000000" stroke-width="4" stroke-linecap="round" stroke-linejoin="round" d="M178.039 111.219h37.193"/>
      <path fill="#000000" d="M232.909 111.219l-17.677-6.629v13.257z"/>
    </g>
    <g>
      <path d="M443.082 441h-4.456l-5.957-17.615h4.163l4.003 13.465h.22l3.93-13.465h3.968L443.082 441zm12.878-11.035c-1.648 0-2.808 1.147-2.93 2.893h5.738c-.074-1.782-1.148-2.893-2.808-2.893zm2.88 7.202h3.309c-.525 2.527-2.857 4.126-6.152 4.126-4.102 0-6.519-2.588-6.519-6.958 0-4.382 2.466-7.092 6.47-7.092 3.967 0 6.31 2.527 6.31 6.799v1.086h-9.24v.184c.049 2.001 1.22 3.247 3.076 3.247 1.404 0 2.368-.5 2.747-1.392zm18.238-4.883h-3.32c-.244-1.282-1.16-2.124-2.674-2.124-1.916 0-2.99 1.428-2.99 4.077 0 2.686 1.086 4.138 2.99 4.138 1.453 0 2.405-.708 2.674-2.038h3.32c-.293 3.015-2.49 4.956-5.994 4.956-4.199 0-6.58-2.54-6.58-7.056 0-4.467 2.369-6.994 6.58-6.994 3.565 0 5.701 1.977 5.994 5.041zm3.906-7.947h3.553v3.333h2.795v2.795h-2.795v6.055c0 1.172.537 1.709 1.745 1.709.464 0 .708-.012 1.05-.049v2.71a9.918 9.918 0 01-1.782.159c-3.272 0-4.566-1.062-4.566-3.687v-6.897h-2.1v-2.795h2.1v-3.333zm15.174 16.956c-4.138 0-6.629-2.625-6.629-7.031 0-4.358 2.527-7.02 6.629-7.02 4.101 0 6.628 2.65 6.628 7.02 0 4.406-2.49 7.031-6.628 7.031zm0-2.905c1.892 0 2.978-1.514 2.978-4.126 0-2.588-1.098-4.114-2.978-4.114-1.892 0-2.979 1.526-2.979 4.114 0 2.624 1.074 4.126 2.979 4.126zm9.521 2.612v-13.464h3.443v2.148h.22c.353-1.343 1.745-2.368 3.454-2.368.488 0 1.086.061 1.392.17v3.236c-.281-.11-1.111-.22-1.685-.22-1.941 0-3.272 1.147-3.272 3.04V441h-3.552zm22.18-2.466c1.648 0 2.893-1.05 2.893-2.417v-.989l-2.722.171c-1.526.11-2.27.66-2.27 1.624 0 1 .866 1.611 2.1 1.611zm-1.172 2.674c-2.587 0-4.406-1.587-4.406-4.053 0-2.442 1.867-3.858 5.212-4.053l3.26-.195v-1.099c0-1.123-.806-1.758-2.271-1.758-1.282 0-2.136.44-2.43 1.245h-3.27c.231-2.49 2.514-4.052 5.895-4.052 3.565 0 5.579 1.684 5.579 4.565V441h-3.443v-1.758h-.22c-.695 1.233-2.16 1.966-3.906 1.966zm10.755-9.717c0-2.552 2.246-4.248 5.603-4.248 3.418 0 5.432 1.428 5.627 4.004h-3.283c-.183-.867-1.001-1.404-2.32-1.404-1.27 0-2.21.574-2.21 1.428 0 .66.575 1.062 1.82 1.343l2.527.55c2.612.573 3.784 1.671 3.784 3.686 0 2.685-2.405 4.443-5.933 4.443-3.552 0-5.7-1.453-5.945-4.04h3.467c.269.915 1.135 1.44 2.551 1.44 1.38 0 2.332-.574 2.332-1.44 0-.66-.513-1.063-1.697-1.319l-2.441-.55c-2.613-.573-3.882-1.818-3.882-3.893zm25.769 7.043c1.648 0 2.893-1.05 2.893-2.417v-.989l-2.722.171c-1.526.11-2.27.66-2.27 1.624 0 1 .866 1.611 2.099 1.611zm-1.172 2.674c-2.588 0-4.407-1.587-4.407-4.053 0-2.442 1.868-3.858 5.213-4.053l3.259-.195v-1.099c0-1.123-.806-1.758-2.27-1.758-1.282 0-2.137.44-2.43 1.245h-3.271c.232-2.49 2.514-4.052 5.896-4.052 3.564 0 5.578 1.684 5.578 4.565V441h-3.442v-1.758h-.22c-.695 1.233-2.16 1.966-3.906 1.966zm17.2-9.717c0-2.552 2.246-4.248 5.603-4.248 3.418 0 5.432 1.428 5.627 4.004h-3.283c-.184-.867-1.001-1.404-2.32-1.404-1.27 0-2.21.574-2.21 1.428 0 .66.574 1.062 1.82 1.343l2.526.55c2.613.573 3.785 1.671 3.785 3.686 0 2.685-2.405 4.443-5.933 4.443-3.552 0-5.7-1.453-5.945-4.04h3.467c.269.915 1.135 1.44 2.551 1.44 1.38 0 2.332-.574 2.332-1.44 0-.66-.513-1.063-1.697-1.319l-2.441-.55c-2.613-.573-3.882-1.818-3.882-3.893zm15.417-7.154h3.552v3.333h2.796v2.795h-2.796v6.055c0 1.172.538 1.709 1.746 1.709.464 0 .708-.012 1.05-.049v2.71a9.918 9.918 0 01-1.782.159c-3.272 0-4.566-1.062-4.566-3.687v-6.897h-2.1v-2.795h2.1v-3.333zM603.958 441v-13.464h3.442v2.148h.22c.354-1.343 1.746-2.368 3.455-2.368.488 0 1.086.061 1.391.17v3.236c-.28-.11-1.11-.22-1.684-.22-1.941 0-3.272 1.147-3.272 3.04V441h-3.552zm16.394-11.035c-1.648 0-2.808 1.147-2.93 2.893h5.738c-.074-1.782-1.148-2.893-2.808-2.893zm2.88 7.202h3.309c-.525 2.527-2.856 4.126-6.152 4.126-4.102 0-6.519-2.588-6.519-6.958 0-4.382 2.466-7.092 6.47-7.092 3.967 0 6.31 2.527 6.31 6.799v1.086h-9.24v.184c.049 2.001 1.22 3.247 3.076 3.247 1.404 0 2.368-.5 2.747-1.392zm11.183 1.367c1.648 0 2.893-1.05 2.893-2.417v-.989l-2.723.171c-1.525.11-2.27.66-2.27 1.624 0 1 .867 1.611 2.1 1.611zm-1.172 2.674c-2.588 0-4.407-1.587-4.407-4.053 0-2.442 1.868-3.858 5.212-4.053l3.26-.195v-1.099c0-1.123-.806-1.758-2.27-1.758-1.283 0-2.137.44-2.43 1.245h-3.272c.232-2.49 2.515-4.052 5.896-4.052 3.565 0 5.579 1.684 5.579 4.565V441h-3.442v-1.758h-.22c-.696 1.233-2.16 1.966-3.906 1.966zm11.06-.208v-13.464h3.442v2.197h.22c.549-1.538 1.952-2.49 3.722-2.49 1.893 0 3.187.927 3.724 2.49h.22c.622-1.502 2.172-2.49 4.052-2.49 2.686 0 4.358 1.745 4.358 4.516V441h-3.552v-8.3c0-1.6-.745-2.393-2.246-2.393-1.44 0-2.368 1.025-2.368 2.453V441h-3.418v-8.447c0-1.428-.83-2.246-2.222-2.246s-2.38 1.086-2.38 2.588V441h-3.553zm41.54-8.716h-3.32c-.245-1.282-1.16-2.124-2.674-2.124-1.916 0-2.99 1.428-2.99 4.077 0 2.686 1.086 4.138 2.99 4.138 1.453 0 2.405-.708 2.673-2.038h3.32c-.292 3.015-2.49 4.956-5.993 4.956-4.2 0-6.58-2.54-6.58-7.056 0-4.467 2.369-6.994 6.58-6.994 3.565 0 5.7 1.977 5.994 5.041zm8.74 9.009c-4.138 0-6.628-2.625-6.628-7.031 0-4.358 2.526-7.02 6.628-7.02s6.628 2.65 6.628 7.02c0 4.406-2.49 7.031-6.628 7.031zm0-2.905c1.892 0 2.979-1.514 2.979-4.126 0-2.588-1.1-4.114-2.979-4.114-1.892 0-2.979 1.526-2.979 4.114 0 2.624 1.075 4.126 2.979 4.126zm9.521 2.612v-13.464h3.443v2.16h.22c.622-1.513 1.99-2.453 3.98-2.453 2.99 0 4.601 1.83 4.601 5.053V441h-3.552v-7.861c0-1.856-.794-2.832-2.478-2.832-1.648 0-2.661 1.16-2.661 2.93V441h-3.553zm15.381-9.51c0-2.55 2.246-4.247 5.603-4.247 3.418 0 5.433 1.428 5.628 4.004h-3.284c-.183-.867-1-1.404-2.32-1.404-1.269 0-2.209.574-2.209 1.428 0 .66.574 1.062 1.82 1.343l2.526.55c2.612.573 3.784 1.671 3.784 3.686 0 2.685-2.405 4.443-5.932 4.443-3.553 0-5.701-1.453-5.945-4.04h3.467c.268.915 1.135 1.44 2.55 1.44 1.38 0 2.332-.574 2.332-1.44 0-.66-.512-1.063-1.696-1.319l-2.442-.55c-2.612-.573-3.882-1.818-3.882-3.893zm26.648-3.954V441h-3.442v-2.16h-.22c-.635 1.562-1.892 2.453-3.93 2.453-2.906 0-4.712-1.856-4.712-4.98v-8.777h3.552v7.861c0 1.855.842 2.808 2.478 2.808 1.77 0 2.722-1.111 2.722-2.906v-7.763h3.552zM749.698 441v-13.464h3.442v2.197h.22c.55-1.538 1.953-2.49 3.723-2.49 1.892 0 3.186.927 3.723 2.49h.22c.622-1.502 2.173-2.49 4.053-2.49 2.685 0 4.358 1.745 4.358 4.516V441h-3.553v-8.3c0-1.6-.744-2.393-2.246-2.393-1.44 0-2.368 1.025-2.368 2.453V441h-3.418v-8.447c0-1.428-.83-2.246-2.222-2.246-1.391 0-2.38 1.086-2.38 2.588V441h-3.552zm29.004-11.035c-1.648 0-2.808 1.147-2.93 2.893h5.737c-.073-1.782-1.147-2.893-2.807-2.893zm2.88 7.202h3.309c-.525 2.527-2.857 4.126-6.153 4.126-4.101 0-6.518-2.588-6.518-6.958 0-4.382 2.466-7.092 6.47-7.092 3.967 0 6.31 2.527 6.31 6.799v1.086h-9.24v.184c.049 2.001 1.22 3.247 3.076 3.247 1.404 0 2.368-.5 2.747-1.392zm6.324 3.833v-13.464h3.442v2.148h.22c.354-1.343 1.745-2.368 3.454-2.368.489 0 1.087.061 1.392.17v3.236c-.28-.11-1.11-.22-1.685-.22-1.94 0-3.271 1.147-3.271 3.04V441h-3.552zm-410.404 30h-1.825l-5.455-14.796h1.938l4.348 12.407h.164l4.348-12.407h1.938L377.502 471zm11.208-9.69c-1.764 0-2.994 1.292-3.127 3.25h6.09c-.04-1.958-1.21-3.25-2.963-3.25zm2.912 6.83h1.764c-.513 1.886-2.236 3.055-4.656 3.055-3.065 0-4.983-2.215-4.983-5.712 0-3.476 1.948-5.732 4.983-5.732 2.984 0 4.8 2.123 4.8 5.558v.677h-7.947v.082c.092 2.184 1.312 3.568 3.188 3.568 1.426 0 2.39-.523 2.851-1.497zm13.822-4.81h-1.784c-.287-1.097-1.261-1.99-2.85-1.99-1.99 0-3.24 1.59-3.24 4.092 0 2.553 1.27 4.173 3.24 4.173 1.486 0 2.522-.687 2.85-1.938h1.784c-.318 2.03-1.968 3.528-4.624 3.528-3.097 0-5.076-2.246-5.076-5.763 0-3.445 1.969-5.68 5.066-5.68 2.686 0 4.327 1.61 4.634 3.578zm3.548-6.245h1.764v2.861h2.46v1.477h-2.46v6.255c0 1.302.492 1.856 1.64 1.856.318 0 .493-.01.82-.041v1.486a5.908 5.908 0 01-1.035.103c-2.276 0-3.189-.84-3.189-2.953v-6.706h-1.784v-1.477h1.784v-2.86zm11.28 14.11c-3.148 0-5.097-2.174-5.097-5.722 0-3.558 1.949-5.722 5.096-5.722 3.148 0 5.097 2.164 5.097 5.722 0 3.548-1.949 5.722-5.097 5.722zm0-1.59c2.091 0 3.27-1.517 3.27-4.132 0-2.625-1.179-4.132-3.27-4.132-2.092 0-3.272 1.507-3.272 4.132 0 2.615 1.18 4.132 3.271 4.132zm7.864 1.395v-11.054h1.682v1.64h.164c.328-1.076 1.6-1.835 3.066-1.835.287 0 .656.021.882.052v1.763c-.144-.04-.78-.102-1.128-.102-1.682 0-2.902 1.128-2.902 2.686V471h-1.764zm13.669-8.029c0-1.835 1.774-3.22 4.122-3.22 2.317 0 3.927 1.149 4.163 2.964h-1.743c-.236-.882-1.097-1.466-2.43-1.466-1.313 0-2.338.666-2.338 1.65 0 .76.615 1.23 1.917 1.549l1.702.41c2.082.502 3.087 1.405 3.087 2.994 0 1.98-1.918 3.343-4.43 3.343-2.461 0-4.153-1.18-4.348-3.015h1.815c.298.933 1.18 1.528 2.595 1.528 1.486 0 2.553-.708 2.553-1.723 0-.758-.574-1.271-1.754-1.558l-1.897-.462c-2.071-.502-3.014-1.394-3.014-2.994zm11.29 8.029v-11.054h1.763V471h-1.764zm.881-13.187c-.677 0-1.23-.553-1.23-1.23 0-.677.553-1.23 1.23-1.23.677 0 1.23.553 1.23 1.23 0 .677-.553 1.23-1.23 1.23zm4.983-.728h1.764v2.861h2.461v1.477h-2.46v6.255c0 1.302.491 1.856 1.64 1.856.318 0 .492-.01.82-.041v1.486a5.908 5.908 0 01-1.036.103c-2.276 0-3.189-.84-3.189-2.953v-6.706h-1.784v-1.477h1.784v-2.86zm6.43 5.886c0-1.835 1.774-3.22 4.122-3.22 2.317 0 3.927 1.149 4.163 2.964h-1.743c-.236-.882-1.098-1.466-2.43-1.466-1.313 0-2.338.666-2.338 1.65 0 .76.615 1.23 1.917 1.549l1.702.41c2.082.502 3.087 1.405 3.087 2.994 0 1.98-1.918 3.343-4.43 3.343-2.461 0-4.153-1.18-4.348-3.015h1.815c.298.933 1.18 1.528 2.594 1.528 1.487 0 2.554-.708 2.554-1.723 0-.758-.575-1.271-1.754-1.558l-1.897-.462c-2.071-.502-3.014-1.394-3.014-2.994zm22.671 8.224c-1.538 0-2.85-.728-3.548-1.959h-.164V471h-1.681v-15.442h1.763v6.131h.164c.605-1.189 1.948-1.938 3.466-1.938 2.81 0 4.635 2.246 4.635 5.722 0 3.456-1.836 5.722-4.635 5.722zm-.41-9.854c-2.01 0-3.26 1.579-3.26 4.132s1.25 4.132 3.26 4.132c2.02 0 3.22-1.548 3.22-4.132 0-2.584-1.2-4.132-3.22-4.132zm12.223-.03c-1.764 0-2.995 1.291-3.128 3.25h6.09c-.04-1.959-1.209-3.25-2.962-3.25zm2.912 6.828h1.763c-.512 1.887-2.235 3.056-4.655 3.056-3.066 0-4.983-2.215-4.983-5.712 0-3.476 1.948-5.732 4.983-5.732 2.984 0 4.799 2.123 4.799 5.558v.677h-7.947v.082c.092 2.184 1.313 3.568 3.19 3.568 1.424 0 2.388-.523 2.85-1.497zm4.778 2.861v-15.442h1.764v6.131h.164c.553-1.22 1.712-1.938 3.404-1.938 2.338 0 3.814 1.498 3.814 4.092V471h-1.763v-6.727c0-1.958-.882-2.932-2.553-2.932-1.98 0-3.066 1.25-3.066 3.117V471h-1.764zm12.407 0v-11.054h1.764V471h-1.764zm.882-13.187c-.677 0-1.23-.553-1.23-1.23 0-.677.553-1.23 1.23-1.23.677 0 1.23.553 1.23 1.23 0 .677-.553 1.23-1.23 1.23zM525.097 471v-11.054h1.682v1.743h.164c.554-1.22 1.63-1.938 3.322-1.938 2.482 0 3.866 1.467 3.866 4.092V471h-1.764v-6.727c0-1.989-.84-2.932-2.604-2.932-1.764 0-2.902 1.179-2.902 3.117V471h-1.764zm16.345.195c-2.83 0-4.645-2.246-4.645-5.722 0-3.466 1.835-5.722 4.645-5.722 1.538 0 2.84.728 3.466 1.938h.154v-6.131h1.763V471h-1.681v-1.764h-.165c-.697 1.23-2.01 1.959-3.537 1.959zm.41-9.854c-2.01 0-3.23 1.558-3.23 4.132 0 2.584 1.21 4.132 3.23 4.132 2.01 0 3.25-1.579 3.25-4.132 0-2.533-1.25-4.132-3.25-4.132zm17.73 8.305c1.814 0 3.157-1.189 3.157-2.768v-1.015l-2.973.195c-1.682.112-2.42.697-2.42 1.804 0 1.128.953 1.784 2.235 1.784zm-.33 1.549c-2.142 0-3.731-1.272-3.731-3.292 0-1.979 1.456-3.117 4.03-3.27l3.188-.196v-1.004c0-1.364-.85-2.113-2.502-2.113-1.322 0-2.245.503-2.491 1.374h-1.785c.236-1.774 1.98-2.943 4.338-2.943 2.697 0 4.204 1.385 4.204 3.682V471h-1.682v-1.63h-.164c-.718 1.179-1.928 1.825-3.404 1.825zm16.51-.195h-1.846v-14.796h1.846v7.188h.164l6.48-7.188h2.318l-5.917 6.388 6.46 8.408h-2.39l-5.341-7.126-1.774 1.958V471zm14.96-1.354c1.815 0 3.158-1.189 3.158-2.768v-1.015l-2.973.195c-1.682.112-2.42.697-2.42 1.804 0 1.128.953 1.784 2.235 1.784zm-.328 1.549c-2.143 0-3.732-1.272-3.732-3.292 0-1.979 1.456-3.117 4.03-3.27l3.188-.196v-1.004c0-1.364-.85-2.113-2.502-2.113-1.322 0-2.245.503-2.491 1.374h-1.784c.235-1.774 1.979-2.943 4.337-2.943 2.697 0 4.204 1.385 4.204 3.682V471h-1.682v-1.63h-.164c-.717 1.179-1.927 1.825-3.404 1.825zm9.25-.195v-9.577h-1.836v-1.477h1.835v-1.23c0-2.205 1.107-3.26 3.21-3.26.43 0 .82.03 1.189.102v1.435a4.854 4.854 0 00-.83-.051c-1.272 0-1.805.615-1.805 1.825v1.18h2.532v1.476h-2.532V471h-1.764zm8.89-6.224l4.798-4.83h2.164l-4.758 4.738 5.075 6.316h-2.245l-4.143-5.178-1.056.984V471h-1.764v-15.442h1.764v9.218h.164zm12.468 4.87c1.815 0 3.158-1.189 3.158-2.768v-1.015l-2.973.195c-1.682.112-2.42.697-2.42 1.804 0 1.128.953 1.784 2.235 1.784zm-.328 1.549c-2.143 0-3.733-1.272-3.733-3.292 0-1.979 1.456-3.117 4.03-3.27l3.19-.196v-1.004c0-1.364-.852-2.113-2.503-2.113-1.323 0-2.245.503-2.491 1.374h-1.785c.236-1.774 1.98-2.943 4.338-2.943 2.697 0 4.204 1.385 4.204 3.682V471h-1.682v-1.63h-.164c-.718 1.179-1.928 1.825-3.404 1.825zm14.355 2.953h-1.497l5.332-18.59h1.497l-5.332 18.59zM650.103 471h-1.846v-14.796h1.846v7.188h.164l6.48-7.188h2.317l-5.916 6.388 6.46 8.408h-2.39l-5.342-7.126-1.773 1.958V471zm11.802 0v-11.054h1.763V471h-1.763zm.882-13.187c-.677 0-1.23-.553-1.23-1.23 0-.677.553-1.23 1.23-1.23.676 0 1.23.553 1.23 1.23 0 .677-.554 1.23-1.23 1.23zM667.032 471v-11.054h1.681v1.743h.164c.554-1.22 1.63-1.938 3.323-1.938 2.481 0 3.865 1.467 3.865 4.092V471h-1.763v-6.727c0-1.989-.841-2.932-2.605-2.932-1.763 0-2.902 1.179-2.902 3.117V471h-1.763zm16.662-9.69c-1.763 0-2.994 1.292-3.127 3.25h6.09c-.04-1.958-1.21-3.25-2.963-3.25zm2.912 6.83h1.764c-.513 1.886-2.235 3.055-4.655 3.055-3.066 0-4.984-2.215-4.984-5.712 0-3.476 1.949-5.732 4.984-5.732 2.984 0 4.799 2.123 4.799 5.558v.677h-7.947v.082c.092 2.184 1.312 3.568 3.189 3.568 1.425 0 2.389-.523 2.85-1.497zm4.42-5.169c0-1.835 1.774-3.22 4.122-3.22 2.317 0 3.927 1.149 4.163 2.964h-1.743c-.236-.882-1.097-1.466-2.43-1.466-1.313 0-2.338.666-2.338 1.65 0 .76.615 1.23 1.917 1.549l1.702.41c2.082.502 3.087 1.405 3.087 2.994 0 1.98-1.918 3.343-4.43 3.343-2.46 0-4.153-1.18-4.347-3.015h1.814c.298.933 1.18 1.528 2.595 1.528 1.487 0 2.553-.708 2.553-1.723 0-.758-.574-1.271-1.753-1.558l-1.897-.462c-2.072-.502-3.015-1.394-3.015-2.994zm11.29 8.029v-11.054h1.763V471h-1.764zm.881-13.187c-.676 0-1.23-.553-1.23-1.23 0-.677.554-1.23 1.23-1.23.677 0 1.23.553 1.23 1.23 0 .677-.553 1.23-1.23 1.23zm3.989 5.158c0-1.835 1.774-3.22 4.122-3.22 2.317 0 3.927 1.149 4.163 2.964h-1.743c-.236-.882-1.097-1.466-2.43-1.466-1.313 0-2.338.666-2.338 1.65 0 .76.615 1.23 1.917 1.549l1.703.41c2.081.502 3.086 1.405 3.086 2.994 0 1.98-1.917 3.343-4.43 3.343-2.46 0-4.153-1.18-4.347-3.015h1.815c.297.933 1.179 1.528 2.594 1.528 1.487 0 2.553-.708 2.553-1.723 0-.758-.574-1.271-1.753-1.558l-1.897-.462c-2.072-.502-3.015-1.394-3.015-2.994zm16.919 0c0-1.835 1.774-3.22 4.122-3.22 2.317 0 3.927 1.149 4.163 2.964h-1.743c-.236-.882-1.097-1.466-2.43-1.466-1.313 0-2.338.666-2.338 1.65 0 .76.615 1.23 1.917 1.549l1.703.41c2.081.502 3.086 1.405 3.086 2.994 0 1.98-1.918 3.343-4.43 3.343-2.46 0-4.153-1.18-4.347-3.015h1.815c.297.933 1.179 1.528 2.594 1.528 1.487 0 2.553-.708 2.553-1.723 0-.758-.574-1.271-1.753-1.558l-1.897-.462c-2.072-.502-3.015-1.394-3.015-2.994zm11.884-5.886h1.764v2.861h2.46v1.477h-2.46v6.255c0 1.302.492 1.856 1.64 1.856.318 0 .493-.01.82-.041v1.486a5.908 5.908 0 01-1.035.103c-2.276 0-3.189-.84-3.189-2.953v-6.706h-1.784v-1.477h1.784v-2.86zM742.88 471v-11.054h1.683v1.64h.164c.328-1.076 1.6-1.835 3.066-1.835.287 0 .656.021.881.052v1.763c-.143-.04-.779-.102-1.128-.102-1.681 0-2.901 1.128-2.901 2.686V471h-1.764zm12.1-9.69c-1.763 0-2.994 1.292-3.127 3.25h6.09c-.04-1.958-1.21-3.25-2.963-3.25zm2.913 6.83h1.763c-.512 1.886-2.235 3.055-4.655 3.055-3.066 0-4.983-2.215-4.983-5.712 0-3.476 1.948-5.732 4.983-5.732 2.984 0 4.799 2.123 4.799 5.558v.677h-7.947v.082c.092 2.184 1.313 3.568 3.189 3.568 1.425 0 2.39-.523 2.85-1.497zm8.08 1.506c1.815 0 3.158-1.189 3.158-2.768v-1.015l-2.974.195c-1.681.112-2.42.697-2.42 1.804 0 1.128.954 1.784 2.236 1.784zm-.328 1.549c-2.144 0-3.733-1.272-3.733-3.292 0-1.979 1.456-3.117 4.03-3.27l3.189-.195v-1.005c0-1.364-.851-2.113-2.502-2.113-1.323 0-2.246.503-2.492 1.374h-1.784c.236-1.774 1.98-2.943 4.337-2.943 2.697 0 4.205 1.385 4.205 3.682V471h-1.682v-1.63h-.164c-.718 1.179-1.928 1.825-3.404 1.825zm8.51-.195v-11.054h1.682v1.743H776c.502-1.23 1.61-1.938 3.086-1.938 1.497 0 2.543.79 3.056 1.938h.164c.595-1.168 1.856-1.938 3.384-1.938 2.256 0 3.517 1.292 3.517 3.61V471h-1.764v-7.229c0-1.63-.769-2.43-2.327-2.43-1.538 0-2.564 1.148-2.564 2.553V471h-1.763v-7.506c0-1.312-.913-2.153-2.308-2.153-1.445 0-2.563 1.25-2.563 2.81V471h-1.764zm19.39 3.763h-1.322l.974-5.834h1.958l-1.61 5.834zM423.081 491.31c-1.764 0-2.994 1.292-3.127 3.25h6.09c-.04-1.958-1.21-3.25-2.963-3.25zm2.912 6.83h1.764c-.513 1.886-2.236 3.055-4.655 3.055-3.066 0-4.984-2.215-4.984-5.712 0-3.476 1.948-5.732 4.984-5.732 2.983 0 4.798 2.123 4.798 5.558v.677h-7.946v.082c.092 2.184 1.312 3.568 3.189 3.568 1.425 0 2.389-.523 2.85-1.497zm5.414 2.86v-9.577h-1.835v-1.477h1.835v-1.23c0-2.205 1.108-3.26 3.21-3.26.43 0 .82.03 1.19.102v1.435a4.854 4.854 0 00-.831-.051c-1.272 0-1.805.615-1.805 1.825v1.18h2.533v1.476h-2.533V501h-1.764zm7.598 0v-9.577h-1.835v-1.477h1.835v-1.23c0-2.205 1.108-3.26 3.21-3.26.43 0 .82.03 1.19.102v1.435a4.854 4.854 0 00-.831-.051c-1.272 0-1.805.615-1.805 1.825v1.18h2.533v1.476h-2.533V501h-1.764zm6.901 0v-11.054h1.764V501h-1.764zm.882-13.187c-.677 0-1.23-.553-1.23-1.23 0-.677.553-1.23 1.23-1.23.677 0 1.23.553 1.23 1.23 0 .677-.553 1.23-1.23 1.23zm13.392 5.517h-1.784c-.288-1.097-1.262-1.99-2.851-1.99-1.99 0-3.24 1.59-3.24 4.092 0 2.553 1.271 4.173 3.24 4.173 1.487 0 2.522-.687 2.85-1.938h1.785c-.318 2.03-1.97 3.528-4.625 3.528-3.097 0-5.076-2.246-5.076-5.763 0-3.445 1.97-5.68 5.066-5.68 2.686 0 4.327 1.61 4.635 3.578zm2.645 7.67v-11.054h1.764V501h-1.764zm.882-13.187c-.677 0-1.23-.553-1.23-1.23 0-.677.553-1.23 1.23-1.23.677 0 1.23.553 1.23 1.23 0 .677-.553 1.23-1.23 1.23zm8.654 3.497c-1.763 0-2.994 1.292-3.127 3.25h6.09c-.04-1.958-1.21-3.25-2.963-3.25zm2.912 6.83h1.764c-.513 1.886-2.235 3.055-4.655 3.055-3.066 0-4.984-2.215-4.984-5.712 0-3.476 1.949-5.732 4.984-5.732 2.984 0 4.799 2.123 4.799 5.558v.677h-7.947v.082c.092 2.184 1.312 3.568 3.189 3.568 1.425 0 2.389-.523 2.85-1.497zm4.676 2.86v-11.054h1.682v1.743h.164c.554-1.22 1.63-1.938 3.322-1.938 2.482 0 3.866 1.467 3.866 4.092V501h-1.764v-6.727c0-1.989-.84-2.932-2.604-2.932-1.764 0-2.902 1.179-2.902 3.117V501h-1.764zm12.992-13.915h1.764v2.861h2.46v1.477h-2.46v6.255c0 1.302.492 1.856 1.64 1.856.318 0 .492-.01.82-.041v1.486a5.908 5.908 0 01-1.035.103c-2.276 0-3.19-.84-3.19-2.953v-6.706h-1.783v-1.477h1.784v-2.86zM499.934 501v-15.442h1.764V501h-1.764zm6.132 3.999a5.22 5.22 0 01-.79-.062v-1.507c.216.041.493.051.739.051 1.015 0 1.568-.481 2.03-1.814l.205-.657-4.091-11.064h1.907l3.035 9.096h.164l3.025-9.096h1.877l-4.317 11.73c-.944 2.564-1.826 3.323-3.784 3.323zm21.769-15.248c2.82 0 4.645 2.246 4.645 5.722 0 3.456-1.835 5.722-4.645 5.722-1.58 0-2.85-.687-3.456-1.856h-.164v5.352h-1.763v-14.745h1.681v1.846h.164c.708-1.271 2.03-2.04 3.538-2.04zm-.42 9.854c2.03 0 3.24-1.548 3.24-4.132 0-2.584-1.21-4.132-3.23-4.132-2 0-3.26 1.59-3.26 4.132 0 2.533 1.26 4.132 3.25 4.132zm16.775-9.659V501h-1.682v-1.733h-.164c-.553 1.23-1.733 1.928-3.425 1.928-2.481 0-3.773-1.477-3.773-4.091v-7.158h1.764v6.727c0 1.99.738 2.912 2.502 2.912 1.948 0 3.014-1.159 3.014-3.097v-6.542h1.764zM547.615 501v-15.442h1.763V501h-1.763zm5.29 0v-15.442h1.764V501h-1.763zm5.23 0v-11.054h1.764V501h-1.764zm.882-13.187c-.677 0-1.23-.553-1.23-1.23 0-.677.553-1.23 1.23-1.23.677 0 1.23.553 1.23 1.23 0 .677-.553 1.23-1.23 1.23zM563.262 501v-11.054h1.682v1.743h.164c.554-1.22 1.63-1.938 3.322-1.938 2.482 0 3.866 1.467 3.866 4.092V501h-1.764v-6.727c0-1.989-.84-2.932-2.604-2.932-1.764 0-2.902 1.179-2.902 3.117V501h-1.764zm16.724-1.723c2.051 0 3.282-1.558 3.282-3.968s-1.241-3.968-3.282-3.968c-2.05 0-3.199 1.558-3.199 3.968s1.149 3.968 3.2 3.968zm.082 5.968c-2.666 0-4.368-1.2-4.634-3.025h1.866c.195.903 1.179 1.487 2.768 1.487 1.98 0 3.159-.974 3.159-2.604v-2.174h-.164c-.698 1.22-1.949 1.907-3.466 1.907-2.861 0-4.635-2.215-4.635-5.527 0-3.312 1.794-5.558 4.635-5.558 1.548 0 2.912.76 3.548 1.949h.164v-1.754h1.681v11.249c0 2.471-1.907 4.05-4.922 4.05zm17.576-5.599c1.814 0 3.158-1.189 3.158-2.768v-1.015l-2.974.195c-1.682.112-2.42.697-2.42 1.804 0 1.128.954 1.784 2.236 1.784zm-.329 1.549c-2.143 0-3.732-1.272-3.732-3.292 0-1.979 1.456-3.117 4.03-3.27l3.189-.196v-1.004c0-1.364-.851-2.113-2.502-2.113-1.323 0-2.246.503-2.492 1.374h-1.784c.236-1.774 1.979-2.943 4.337-2.943 2.697 0 4.204 1.385 4.204 3.682V501h-1.681v-1.63h-.164c-.718 1.179-1.928 1.825-3.405 1.825zm8.511-.195v-11.054h1.682v1.743h.164c.554-1.22 1.63-1.938 3.322-1.938 2.482 0 3.866 1.467 3.866 4.092V501h-1.764v-6.727c0-1.989-.84-2.932-2.604-2.932-1.764 0-2.902 1.179-2.902 3.117V501h-1.764zm16.345.195c-2.83 0-4.645-2.246-4.645-5.722 0-3.466 1.835-5.722 4.645-5.722 1.538 0 2.84.728 3.466 1.938h.154v-6.131h1.763V501h-1.681v-1.764h-.165c-.697 1.23-2.01 1.959-3.537 1.959zm.41-9.854c-2.01 0-3.23 1.558-3.23 4.132 0 2.584 1.21 4.132 3.23 4.132 2.01 0 3.25-1.579 3.25-4.132 0-2.533-1.25-4.132-3.25-4.132zM637.644 501v-9.577h-1.835v-1.477h1.835v-1.23c0-2.205 1.107-3.26 3.21-3.26.43 0 .82.03 1.189.102v1.435a4.854 4.854 0 00-.83-.051c-1.272 0-1.805.615-1.805 1.825v1.18h2.532v1.476h-2.532V501h-1.764zm10.941.195c-3.148 0-5.096-2.174-5.096-5.722 0-3.558 1.948-5.722 5.096-5.722s5.096 2.164 5.096 5.722c0 3.548-1.948 5.722-5.096 5.722zm0-1.59c2.092 0 3.271-1.517 3.271-4.132 0-2.625-1.18-4.132-3.271-4.132-2.092 0-3.271 1.507-3.271 4.132 0 2.615 1.18 4.132 3.271 4.132zM656.45 501v-11.054h1.681v1.64h.164c.329-1.076 1.6-1.835 3.066-1.835.287 0 .657.021.882.052v1.763c-.143-.04-.78-.102-1.128-.102-1.681 0-2.902 1.128-2.902 2.686V501h-1.763zm21.902-11.054L675.255 501h-1.794l-2.471-8.552h-.164L668.365 501h-1.784l-3.097-11.054h1.784l2.174 8.84h.164l2.471-8.84h1.692l2.471 8.84h.164l2.174-8.84h1.774zm5.455 9.7c1.815 0 3.158-1.189 3.158-2.768v-1.015l-2.973.195c-1.682.112-2.42.697-2.42 1.804 0 1.128.953 1.784 2.235 1.784zm-.328 1.549c-2.143 0-3.732-1.272-3.732-3.292 0-1.979 1.456-3.117 4.03-3.27l3.188-.196v-1.004c0-1.364-.85-2.113-2.502-2.113-1.322 0-2.245.503-2.491 1.374h-1.784c.235-1.774 1.979-2.943 4.337-2.943 2.697 0 4.204 1.385 4.204 3.682V501h-1.682v-1.63h-.164c-.717 1.179-1.927 1.825-3.404 1.825zm8.51-.195v-11.054h1.682v1.64h.164c.329-1.076 1.6-1.835 3.066-1.835.287 0 .657.021.882.052v1.763c-.143-.04-.78-.102-1.128-.102-1.681 0-2.902 1.128-2.902 2.686V501h-1.763zm11.782.195c-2.83 0-4.645-2.246-4.645-5.722 0-3.466 1.836-5.722 4.645-5.722 1.539 0 2.84.728 3.466 1.938h.154v-6.131h1.764V501h-1.682v-1.764h-.164c-.697 1.23-2.01 1.959-3.538 1.959zm.41-9.854c-2.01 0-3.23 1.558-3.23 4.132 0 2.584 1.21 4.132 3.23 4.132 2.01 0 3.251-1.579 3.251-4.132 0-2.533-1.25-4.132-3.25-4.132zm8.44 9.659v-11.054h1.763V501h-1.763zm.881-13.187c-.676 0-1.23-.553-1.23-1.23 0-.677.554-1.23 1.23-1.23.677 0 1.23.553 1.23 1.23 0 .677-.553 1.23-1.23 1.23zM717.748 501v-11.054h1.681v1.743h.164c.554-1.22 1.63-1.938 3.323-1.938 2.481 0 3.865 1.467 3.865 4.092V501h-1.763v-6.727c0-1.989-.841-2.932-2.605-2.932s-2.902 1.179-2.902 3.117V501h-1.763zm16.724-1.723c2.05 0 3.28-1.558 3.28-3.968s-1.24-3.968-3.28-3.968c-2.051 0-3.2 1.558-3.2 3.968s1.149 3.968 3.2 3.968zm.082 5.968c-2.666 0-4.368-1.2-4.635-3.025h1.866c.195.903 1.18 1.487 2.769 1.487 1.979 0 3.158-.974 3.158-2.604v-2.174h-.164c-.697 1.22-1.948 1.907-3.466 1.907-2.86 0-4.635-2.215-4.635-5.527 0-3.312 1.795-5.558 4.635-5.558 1.548 0 2.912.76 3.548 1.949h.164v-1.754h1.682v11.249c0 2.471-1.908 4.05-4.922 4.05zm18.262-4.05c-2.83 0-4.645-2.246-4.645-5.722 0-3.466 1.835-5.722 4.645-5.722 1.538 0 2.84.728 3.466 1.938h.154v-6.131h1.763V501h-1.681v-1.764h-.164c-.698 1.23-2.01 1.959-3.538 1.959zm.41-9.854c-2.01 0-3.23 1.558-3.23 4.132 0 2.584 1.21 4.132 3.23 4.132 2.01 0 3.25-1.579 3.25-4.132 0-2.533-1.25-4.132-3.25-4.132zm11.802 8.305c1.815 0 3.159-1.189 3.159-2.768v-1.015l-2.974.195c-1.682.112-2.42.697-2.42 1.804 0 1.128.954 1.784 2.235 1.784zm-.328 1.549c-2.143 0-3.732-1.272-3.732-3.292 0-1.979 1.456-3.117 4.03-3.27l3.189-.196v-1.004c0-1.364-.852-2.113-2.502-2.113-1.323 0-2.246.503-2.492 1.374h-1.784c.236-1.774 1.979-2.943 4.337-2.943 2.697 0 4.204 1.385 4.204 3.682V501h-1.681v-1.63h-.165c-.717 1.179-1.927 1.825-3.404 1.825zm9.25-14.11h1.763v2.861h2.46v1.477h-2.46v6.255c0 1.302.492 1.856 1.64 1.856.318 0 .493-.01.82-.041v1.486a5.908 5.908 0 01-1.035.103c-2.276 0-3.189-.84-3.189-2.953v-6.706h-1.784v-1.477h1.784v-2.86zm10.294 12.561c1.815 0 3.158-1.189 3.158-2.768v-1.015l-2.973.195c-1.682.112-2.42.697-2.42 1.804 0 1.128.953 1.784 2.235 1.784zm-.328 1.549c-2.143 0-3.732-1.272-3.732-3.292 0-1.979 1.456-3.117 4.03-3.27l3.188-.196v-1.004c0-1.364-.85-2.113-2.502-2.113-1.322 0-2.245.503-2.491 1.374h-1.784c.235-1.774 1.979-2.943 4.337-2.943 2.697 0 4.204 1.385 4.204 3.682V501h-1.682v-1.63h-.164c-.717 1.179-1.927 1.825-3.404 1.825zm9.967-.092a1.344 1.344 0 01-1.333-1.333c0-.739.605-1.333 1.333-1.333a1.33 1.33 0 011.333 1.333c0 .728-.595 1.333-1.333 1.333z" fill="#000000" fill-rule="nonzero"/>
      <path fill="#10E7FF" fill-rule="nonzero" d="M833 407v-66h-1v66z"/>
      <g fill="#10E7FF">
        <path d="M848.521 415h7.502l-17.865 29.479-3.707-6.1zM823.771 444.324L841.543 415h-8.865l-8.725 14.336-8.73-14.336H806z"/>
      </g>
    </g>
    <g>
      <path fill="#10E7FF" fill-rule="nonzero" d="M156.002 171.998l-.504-126-1 .004.504 126z"/>
      <path d="M196.292 33h-4.456l-5.957-17.615h4.163l4.003 13.465h.22l3.93-13.465h3.968L196.292 33zm12.878-11.035c-1.648 0-2.808 1.147-2.93 2.893h5.738c-.074-1.782-1.148-2.893-2.808-2.893zm2.88 7.202h3.309c-.525 2.527-2.857 4.126-6.152 4.126-4.102 0-6.519-2.588-6.519-6.958 0-4.382 2.466-7.092 6.47-7.092 3.967 0 6.31 2.527 6.31 6.799v1.086h-9.24v.184c.049 2.001 1.22 3.247 3.076 3.247 1.404 0 2.368-.5 2.747-1.392zm18.238-4.883h-3.32c-.244-1.282-1.16-2.124-2.674-2.124-1.916 0-2.99 1.428-2.99 4.077 0 2.686 1.086 4.138 2.99 4.138 1.453 0 2.405-.708 2.674-2.038h3.32c-.293 3.015-2.49 4.956-5.994 4.956-4.199 0-6.58-2.54-6.58-7.056 0-4.467 2.369-6.994 6.58-6.994 3.565 0 5.701 1.977 5.994 5.041zm3.906-7.947h3.553v3.333h2.795v2.795h-2.795v6.055c0 1.172.537 1.709 1.745 1.709.464 0 .708-.012 1.05-.049v2.71a9.918 9.918 0 01-1.782.159c-3.272 0-4.566-1.062-4.566-3.687v-6.897h-2.1V19.67h2.1v-3.333zm15.174 16.956c-4.139 0-6.629-2.625-6.629-7.031 0-4.358 2.527-7.02 6.629-7.02 4.101 0 6.628 2.65 6.628 7.02 0 4.406-2.49 7.031-6.628 7.031zm0-2.905c1.892 0 2.978-1.514 2.978-4.126 0-2.588-1.098-4.114-2.978-4.114-1.892 0-2.979 1.526-2.979 4.114 0 2.624 1.074 4.126 2.979 4.126zM258.889 33V19.536h3.443v2.148h.22c.353-1.343 1.745-2.368 3.454-2.368.488 0 1.086.061 1.391.17v3.236c-.28-.11-1.11-.22-1.684-.22-1.941 0-3.272 1.147-3.272 3.04V33h-3.552zm22.18-2.466c1.648 0 2.893-1.05 2.893-2.417v-.989l-2.722.171c-1.526.11-2.27.66-2.27 1.624 0 1 .866 1.611 2.1 1.611zm-1.172 2.674c-2.587 0-4.406-1.587-4.406-4.053 0-2.442 1.867-3.858 5.212-4.053l3.26-.195v-1.099c0-1.123-.806-1.758-2.271-1.758-1.282 0-2.136.44-2.43 1.245h-3.27c.231-2.49 2.514-4.052 5.895-4.052 3.565 0 5.579 1.684 5.579 4.565V33h-3.443v-1.758h-.22c-.695 1.233-2.16 1.966-3.906 1.966zm10.755-9.717c0-2.552 2.246-4.248 5.603-4.248 3.418 0 5.432 1.428 5.627 4.004H298.6c-.183-.867-1.001-1.404-2.32-1.404-1.27 0-2.21.574-2.21 1.428 0 .66.575 1.062 1.82 1.343l2.527.55c2.612.573 3.784 1.671 3.784 3.686 0 2.685-2.405 4.443-5.933 4.443-3.552 0-5.7-1.453-5.945-4.04h3.467c.269.915 1.135 1.44 2.551 1.44 1.38 0 2.332-.574 2.332-1.44 0-.66-.513-1.063-1.697-1.319l-2.441-.55c-2.613-.573-3.882-1.818-3.882-3.893zm25.769 7.043c1.648 0 2.893-1.05 2.893-2.417v-.989l-2.722.171c-1.526.11-2.27.66-2.27 1.624 0 1 .866 1.611 2.099 1.611zm-1.172 2.674c-2.588 0-4.407-1.587-4.407-4.053 0-2.442 1.868-3.858 5.213-4.053l3.259-.195v-1.099c0-1.123-.806-1.758-2.27-1.758-1.282 0-2.137.44-2.43 1.245h-3.271c.232-2.49 2.514-4.052 5.896-4.052 3.564 0 5.578 1.684 5.578 4.565V33h-3.442v-1.758h-.22c-.696 1.233-2.16 1.966-3.906 1.966zm11.06-.208V19.536h3.442v2.16h.22c.622-1.513 1.99-2.453 3.98-2.453 2.99 0 4.601 1.83 4.601 5.053V33H335v-7.861c0-1.856-.793-2.832-2.478-2.832-1.648 0-2.661 1.16-2.661 2.93V33h-3.552zm26.99-2.466c1.647 0 2.892-1.05 2.892-2.417v-.989l-2.722.171c-1.526.11-2.27.66-2.27 1.624 0 1 .866 1.611 2.1 1.611zm-1.173 2.674c-2.587 0-4.406-1.587-4.406-4.053 0-2.442 1.867-3.858 5.212-4.053l3.26-.195v-1.099c0-1.123-.806-1.758-2.271-1.758-1.282 0-2.136.44-2.43 1.245h-3.27c.231-2.49 2.514-4.052 5.895-4.052 3.565 0 5.579 1.684 5.579 4.565V33h-3.443v-1.758h-.22c-.695 1.233-2.16 1.966-3.906 1.966zm17.041-3.21c1.93 0 3.077-1.478 3.077-3.846 0-2.368-1.16-3.858-3.077-3.858-1.916 0-3.027 1.49-3.027 3.846 0 2.38 1.099 3.857 3.027 3.857zm-.048 8.105c-3.577 0-5.945-1.575-6.165-3.943h3.516c.183.83 1.184 1.355 2.722 1.355 1.904 0 3.015-.88 3.015-2.393v-2.49h-.22c-.744 1.416-2.16 2.173-4.052 2.173-3.357 0-5.445-2.6-5.445-6.653 0-4.175 2.1-6.836 5.518-6.836 1.819 0 3.369.903 4.09 2.38h.219v-2.16h3.442V32.95c0 3.162-2.575 5.152-6.64 5.152zm16.027-16.138c-1.647 0-2.807 1.147-2.93 2.893h5.738c-.073-1.782-1.147-2.893-2.808-2.893zm2.881 7.202h3.308c-.524 2.527-2.856 4.126-6.152 4.126-4.101 0-6.518-2.588-6.518-6.958 0-4.382 2.465-7.092 6.47-7.092 3.967 0 6.31 2.527 6.31 6.799v1.086h-9.24v.184c.048 2.001 1.22 3.247 3.076 3.247 1.404 0 2.368-.5 2.746-1.392zM394.351 33V19.536h3.442v2.16h.22c.622-1.513 1.99-2.453 3.98-2.453 2.99 0 4.601 1.83 4.601 5.053V33h-3.552v-7.861c0-1.856-.793-2.832-2.478-2.832-1.648 0-2.661 1.16-2.661 2.93V33h-3.552zm16.699-16.663h3.552v3.333h2.795v2.795h-2.795v6.055c0 1.172.537 1.709 1.746 1.709.464 0 .708-.012 1.05-.049v2.71a9.918 9.918 0 01-1.783.159c-3.271 0-4.565-1.062-4.565-3.687v-6.897h-2.1V19.67h2.1v-3.333zM192.988 63h-1.825l-5.455-14.796h1.938l4.347 12.407h.164l4.348-12.407h1.938L192.988 63zm11.207-9.69c-1.763 0-2.994 1.292-3.127 3.25h6.09c-.04-1.958-1.21-3.25-2.963-3.25zm2.912 6.83h1.764c-.513 1.886-2.235 3.055-4.655 3.055-3.066 0-4.984-2.215-4.984-5.712 0-3.476 1.949-5.732 4.984-5.732 2.984 0 4.799 2.123 4.799 5.558v.677h-7.947v.082c.092 2.184 1.312 3.568 3.189 3.568 1.425 0 2.389-.523 2.85-1.497zm13.823-4.81h-1.784c-.288-1.097-1.262-1.99-2.851-1.99-1.99 0-3.24 1.59-3.24 4.092 0 2.553 1.271 4.173 3.24 4.173 1.487 0 2.522-.687 2.85-1.938h1.785c-.318 2.03-1.97 3.528-4.625 3.528-3.097 0-5.076-2.246-5.076-5.763 0-3.445 1.97-5.68 5.066-5.68 2.686 0 4.327 1.61 4.635 3.578zm3.548-6.245h1.763v2.861h2.461v1.477h-2.46v6.255c0 1.302.491 1.856 1.64 1.856.318 0 .492-.01.82-.041v1.486a5.908 5.908 0 01-1.035.103c-2.277 0-3.19-.84-3.19-2.953v-6.706h-1.784v-1.477h1.785v-2.86zm11.279 14.11c-3.148 0-5.096-2.174-5.096-5.722 0-3.558 1.948-5.722 5.096-5.722s5.096 2.164 5.096 5.722c0 3.548-1.948 5.722-5.096 5.722zm0-1.59c2.092 0 3.27-1.517 3.27-4.132 0-2.625-1.178-4.132-3.27-4.132s-3.271 1.507-3.271 4.132c0 2.615 1.179 4.132 3.27 4.132zM243.622 63V51.946h1.681v1.64h.164c.328-1.076 1.6-1.835 3.066-1.835.287 0 .656.021.882.052v1.763c-.144-.04-.78-.102-1.128-.102-1.682 0-2.902 1.128-2.902 2.686V63h-1.763zm13.924 0V51.946h1.682v1.64h.164c.328-1.076 1.6-1.835 3.066-1.835.287 0 .656.021.882.052v1.763c-.144-.04-.78-.102-1.128-.102-1.682 0-2.902 1.128-2.902 2.686V63h-1.764zm8.04 0V51.946h1.763V63h-1.764zm.881-13.187c-.676 0-1.23-.553-1.23-1.23 0-.677.554-1.23 1.23-1.23.677 0 1.23.553 1.23 1.23 0 .677-.553 1.23-1.23 1.23zm8.337 13.382c-2.83 0-4.645-2.246-4.645-5.722 0-3.466 1.835-5.722 4.645-5.722 1.538 0 2.84.728 3.466 1.938h.153v-6.131h1.764V63h-1.682v-1.764h-.164c-.697 1.23-2.01 1.959-3.537 1.959zm.41-9.854c-2.01 0-3.23 1.558-3.23 4.132 0 2.584 1.21 4.132 3.23 4.132 2.01 0 3.25-1.579 3.25-4.132 0-2.533-1.25-4.132-3.25-4.132zm12.807-.03c-1.764 0-2.994 1.291-3.127 3.25h6.09c-.04-1.959-1.21-3.25-2.963-3.25zm2.912 6.828h1.764c-.513 1.887-2.236 3.056-4.655 3.056-3.066 0-4.984-2.215-4.984-5.712 0-3.476 1.948-5.732 4.984-5.732 2.983 0 4.798 2.123 4.798 5.558v.677h-7.946v.082c.092 2.184 1.312 3.568 3.189 3.568 1.425 0 2.389-.523 2.85-1.497zm4.42-5.168c0-1.835 1.773-3.22 4.122-3.22 2.317 0 3.927 1.149 4.163 2.964h-1.743c-.236-.882-1.098-1.466-2.43-1.466-1.313 0-2.339.666-2.339 1.65 0 .76.616 1.23 1.918 1.549l1.702.41c2.082.502 3.087 1.405 3.087 2.994 0 1.98-1.918 3.343-4.43 3.343-2.461 0-4.153-1.18-4.348-3.015h1.815c.297.933 1.18 1.528 2.594 1.528 1.487 0 2.554-.708 2.554-1.723 0-.758-.575-1.271-1.754-1.558l-1.897-.462c-2.071-.502-3.014-1.394-3.014-2.994zm20.58 6.675c1.814 0 3.157-1.189 3.157-2.768v-1.015l-2.973.195c-1.682.112-2.42.697-2.42 1.804 0 1.128.953 1.784 2.235 1.784zm-.329 1.549c-2.143 0-3.732-1.272-3.732-3.292 0-1.979 1.456-3.117 4.03-3.27l3.188-.196v-1.004c0-1.364-.85-2.113-2.502-2.113-1.322 0-2.245.503-2.491 1.374h-1.784c.235-1.774 1.979-2.943 4.337-2.943 2.697 0 4.204 1.385 4.204 3.682V63h-1.682v-1.63h-.164c-.717 1.179-1.927 1.825-3.404 1.825zm8.613-.195V47.558h1.764V63h-1.764zm9.731.195c-3.148 0-5.096-2.174-5.096-5.722 0-3.558 1.948-5.722 5.096-5.722s5.096 2.164 5.096 5.722c0 3.548-1.948 5.722-5.096 5.722zm0-1.59c2.092 0 3.271-1.517 3.271-4.132 0-2.625-1.179-4.132-3.27-4.132-2.093 0-3.272 1.507-3.272 4.132 0 2.615 1.18 4.132 3.271 4.132zM341.813 63V51.946h1.682v1.743h.164c.553-1.22 1.63-1.938 3.322-1.938 2.481 0 3.866 1.467 3.866 4.092V63h-1.764v-6.727c0-1.989-.84-2.932-2.604-2.932-1.764 0-2.902 1.179-2.902 3.117V63h-1.764zm16.724-1.723c2.05 0 3.281-1.558 3.281-3.968s-1.24-3.968-3.28-3.968c-2.052 0-3.2 1.558-3.2 3.968s1.148 3.968 3.2 3.968zm.082 5.968c-2.666 0-4.368-1.2-4.635-3.025h1.867c.194.903 1.179 1.487 2.768 1.487 1.98 0 3.158-.974 3.158-2.604v-2.174h-.164c-.697 1.22-1.948 1.907-3.466 1.907-2.86 0-4.634-2.215-4.634-5.527 0-3.312 1.794-5.558 4.634-5.558 1.549 0 2.913.76 3.548 1.949h.164v-1.754h1.682v11.249c0 2.471-1.907 4.05-4.922 4.05zm28.075-15.299L383.598 63h-1.795l-2.471-8.552h-.164L376.707 63h-1.784l-3.097-11.054h1.784l2.174 8.84h.164l2.471-8.84h1.692l2.472 8.84h.164l2.173-8.84h1.774zm2.4 11.054V51.946h1.763V63h-1.763zm.882-13.187c-.677 0-1.23-.553-1.23-1.23 0-.677.553-1.23 1.23-1.23.676 0 1.23.553 1.23 1.23 0 .677-.554 1.23-1.23 1.23zm4.983-.728h1.764v2.861h2.46v1.477h-2.46v6.255c0 1.302.492 1.856 1.64 1.856.318 0 .492-.01.82-.041v1.486a5.908 5.908 0 01-1.035.103c-2.276 0-3.189-.84-3.189-2.953v-6.706h-1.784v-1.477h1.784v-2.86zM401.952 63V47.558h1.764v6.131h.164c.554-1.22 1.712-1.938 3.404-1.938 2.338 0 3.815 1.498 3.815 4.092V63h-1.764v-6.727c0-1.958-.882-2.932-2.553-2.932-1.98 0-3.066 1.25-3.066 3.117V63h-1.764zm19.236 3.999a5.22 5.22 0 01-.79-.061V65.43c.216.041.493.051.74.051 1.014 0 1.568-.481 2.03-1.814l.205-.657-4.092-11.064h1.907l3.036 9.096h.164l3.025-9.096h1.876l-4.317 11.73C424.03 66.24 423.147 67 421.188 67zm14.592-3.804c-3.148 0-5.096-2.174-5.096-5.722 0-3.558 1.948-5.722 5.096-5.722s5.096 2.164 5.096 5.722c0 3.548-1.948 5.722-5.096 5.722zm0-1.59c2.092 0 3.27-1.517 3.27-4.132 0-2.625-1.178-4.132-3.27-4.132s-3.271 1.507-3.271 4.132c0 2.615 1.179 4.132 3.27 4.132zm16.806-9.659V63h-1.682v-1.733h-.164c-.553 1.23-1.733 1.928-3.425 1.928-2.481 0-3.773-1.477-3.773-4.091v-7.158h1.764v6.727c0 1.99.738 2.912 2.502 2.912 1.948 0 3.014-1.159 3.014-3.097v-6.542h1.764zM455.908 63V51.946h1.682v1.64h.164c.328-1.076 1.6-1.835 3.066-1.835.287 0 .656.021.882.052v1.763c-.144-.04-.78-.102-1.128-.102-1.682 0-2.902 1.128-2.902 2.686V63h-1.764zm17.33-1.354c1.814 0 3.158-1.189 3.158-2.768v-1.015l-2.974.195c-1.682.112-2.42.697-2.42 1.804 0 1.128.954 1.784 2.235 1.784zm-.329 1.549c-2.143 0-3.732-1.272-3.732-3.292 0-1.979 1.456-3.117 4.03-3.27l3.189-.196v-1.004c0-1.364-.852-2.113-2.502-2.113-1.323 0-2.246.503-2.492 1.374h-1.784c.236-1.774 1.979-2.943 4.337-2.943 2.697 0 4.204 1.385 4.204 3.682V63h-1.681v-1.63h-.165c-.717 1.179-1.927 1.825-3.404 1.825zm13.894-11.444c2.82 0 4.645 2.246 4.645 5.722 0 3.456-1.835 5.722-4.645 5.722-1.579 0-2.85-.687-3.455-1.856h-.164v5.352h-1.764V51.946h1.682v1.846h.164c.707-1.271 2.03-2.04 3.537-2.04zm-.42 9.854c2.03 0 3.24-1.548 3.24-4.132 0-2.584-1.21-4.132-3.23-4.132-2 0-3.26 1.59-3.26 4.132 0 2.533 1.26 4.132 3.25 4.132zm13.217-9.854c2.82 0 4.645 2.246 4.645 5.722 0 3.456-1.835 5.722-4.645 5.722-1.579 0-2.85-.687-3.455-1.856h-.165v5.352h-1.763V51.946h1.681v1.846h.164c.708-1.271 2.03-2.04 3.538-2.04zm-.42 9.854c2.03 0 3.24-1.548 3.24-4.132 0-2.584-1.21-4.132-3.23-4.132-2 0-3.26 1.59-3.26 4.132 0 2.533 1.26 4.132 3.25 4.132zm14.499-12.52h1.763v2.861h2.461v1.477h-2.46v6.255c0 1.302.492 1.856 1.64 1.856.318 0 .492-.01.82-.041v1.486a5.908 5.908 0 01-1.035.103c-2.277 0-3.19-.84-3.19-2.953v-6.706h-1.783v-1.477h1.784v-2.86zm11.279 14.11c-3.148 0-5.096-2.174-5.096-5.722 0-3.558 1.948-5.722 5.096-5.722s5.096 2.164 5.096 5.722c0 3.548-1.948 5.722-5.096 5.722zm0-1.59c2.092 0 3.271-1.517 3.271-4.132 0-2.625-1.18-4.132-3.271-4.132-2.092 0-3.271 1.507-3.271 4.132 0 2.615 1.18 4.132 3.271 4.132zM191.07 83.31c-1.763 0-2.994 1.292-3.127 3.25h6.09c-.04-1.958-1.21-3.25-2.963-3.25zm2.912 6.83h1.764c-.513 1.886-2.235 3.055-4.655 3.055-3.066 0-4.984-2.215-4.984-5.712 0-3.476 1.949-5.732 4.984-5.732 2.984 0 4.799 2.123 4.799 5.558v.677h-7.947v.082c.092 2.184 1.312 3.568 3.189 3.568 1.425 0 2.389-.523 2.85-1.497zm5.414 2.86v-9.577h-1.835v-1.477h1.835v-1.23c0-2.205 1.108-3.26 3.21-3.26.43 0 .82.03 1.19.102v1.435a4.854 4.854 0 00-.831-.051c-1.272 0-1.805.615-1.805 1.825v1.18h2.533v1.476h-2.533V93h-1.764zm7.599 0v-9.577h-1.836v-1.477h1.836v-1.23c0-2.205 1.107-3.26 3.21-3.26.43 0 .82.03 1.189.102v1.435a4.854 4.854 0 00-.831-.051c-1.271 0-1.805.615-1.805 1.825v1.18h2.533v1.476h-2.533V93h-1.763zm6.9 0V81.946h1.764V93h-1.763zm.882-13.187c-.676 0-1.23-.553-1.23-1.23 0-.677.554-1.23 1.23-1.23.677 0 1.23.553 1.23 1.23 0 .677-.553 1.23-1.23 1.23zm13.392 5.517h-1.784c-.287-1.097-1.261-1.99-2.85-1.99-1.99 0-3.241 1.59-3.241 4.092 0 2.553 1.271 4.173 3.24 4.173 1.487 0 2.523-.687 2.85-1.938h1.785c-.318 2.03-1.969 3.528-4.625 3.528-3.096 0-5.075-2.246-5.075-5.763 0-3.445 1.969-5.68 5.065-5.68 2.687 0 4.327 1.61 4.635 3.578zm2.645 7.67V81.946h1.764V93h-1.764zm.882-13.187c-.676 0-1.23-.553-1.23-1.23 0-.677.554-1.23 1.23-1.23.677 0 1.23.553 1.23 1.23 0 .677-.553 1.23-1.23 1.23zm8.655 3.497c-1.764 0-2.995 1.292-3.128 3.25h6.091c-.041-1.958-1.21-3.25-2.963-3.25zm2.912 6.83h1.763c-.512 1.886-2.235 3.055-4.655 3.055-3.066 0-4.983-2.215-4.983-5.712 0-3.476 1.948-5.732 4.983-5.732 2.984 0 4.799 2.123 4.799 5.558v.677h-7.947v.082c.092 2.184 1.313 3.568 3.19 3.568 1.424 0 2.388-.523 2.85-1.497zm4.675 2.86V81.946h1.682v1.743h.164c.554-1.22 1.63-1.938 3.322-1.938 2.482 0 3.866 1.467 3.866 4.092V93h-1.764v-6.727c0-1.989-.84-2.932-2.604-2.932-1.764 0-2.902 1.179-2.902 3.117V93h-1.764zm12.992-13.915h1.764v2.861h2.46v1.477h-2.46v6.255c0 1.302.492 1.856 1.64 1.856.318 0 .493-.01.82-.041v1.486a5.908 5.908 0 01-1.035.103c-2.276 0-3.189-.84-3.189-2.953v-6.706h-1.784v-1.477h1.784v-2.86zM267.923 93V77.558h1.764V93h-1.764zm6.132 3.999a5.22 5.22 0 01-.79-.061V95.43c.216.041.493.051.739.051 1.015 0 1.569-.481 2.03-1.814l.205-.657-4.091-11.064h1.907l3.035 9.096h.164l3.025-9.096h1.877l-4.317 11.73c-.943 2.564-1.825 3.323-3.784 3.323zm16.13-12.028c0-1.835 1.773-3.22 4.122-3.22 2.317 0 3.927 1.149 4.163 2.964h-1.743c-.236-.882-1.098-1.466-2.43-1.466-1.313 0-2.339.666-2.339 1.65 0 .76.616 1.23 1.918 1.549l1.702.41c2.082.502 3.087 1.405 3.087 2.994 0 1.98-1.918 3.343-4.43 3.343-2.461 0-4.153-1.18-4.348-3.015h1.815c.298.933 1.18 1.528 2.594 1.528 1.487 0 2.554-.708 2.554-1.723 0-.758-.575-1.271-1.754-1.558l-1.897-.462c-2.071-.502-3.014-1.394-3.014-2.994zm15.657-1.66c-1.763 0-2.994 1.291-3.127 3.25h6.09c-.04-1.959-1.21-3.25-2.963-3.25zm2.912 6.828h1.764c-.513 1.887-2.235 3.056-4.655 3.056-3.066 0-4.984-2.215-4.984-5.712 0-3.476 1.949-5.732 4.984-5.732 2.984 0 4.799 2.123 4.799 5.558v.677h-7.947v.082c.092 2.184 1.312 3.568 3.189 3.568 1.425 0 2.389-.523 2.85-1.497zM313.43 93V81.946h1.682v1.743h.164c.554-1.22 1.63-1.938 3.322-1.938 2.482 0 3.866 1.467 3.866 4.092V93H320.7v-6.727c0-1.989-.84-2.932-2.604-2.932-1.764 0-2.902 1.179-2.902 3.117V93h-1.764zm16.345.195c-2.83 0-4.645-2.246-4.645-5.722 0-3.466 1.835-5.722 4.645-5.722 1.538 0 2.84.728 3.466 1.938h.154v-6.131h1.763V93h-1.681v-1.764h-.164c-.698 1.23-2.01 1.959-3.538 1.959zm.41-9.854c-2.01 0-3.23 1.558-3.23 4.132 0 2.584 1.21 4.132 3.23 4.132 2.01 0 3.25-1.579 3.25-4.132 0-2.533-1.25-4.132-3.25-4.132zM344.612 93V77.558h1.764V93h-1.764zm9.731.195c-3.148 0-5.096-2.174-5.096-5.722 0-3.558 1.948-5.722 5.096-5.722s5.096 2.164 5.096 5.722c0 3.548-1.948 5.722-5.096 5.722zm0-1.59c2.092 0 3.271-1.517 3.271-4.132 0-2.625-1.179-4.132-3.27-4.132-2.093 0-3.272 1.507-3.272 4.132 0 2.615 1.18 4.132 3.271 4.132zm12.336-.328c2.05 0 3.281-1.558 3.281-3.968s-1.24-3.968-3.281-3.968c-2.051 0-3.2 1.558-3.2 3.968s1.149 3.968 3.2 3.968zm.082 5.968c-2.666 0-4.368-1.2-4.635-3.025h1.866c.195.903 1.18 1.487 2.769 1.487 1.979 0 3.158-.974 3.158-2.604v-2.174h-.164c-.697 1.22-1.948 1.907-3.466 1.907-2.86 0-4.635-2.215-4.635-5.527 0-3.312 1.795-5.558 4.635-5.558 1.548 0 2.912.76 3.548 1.949H370v-1.754h1.682v11.249c0 2.471-1.908 4.05-4.922 4.05zm17.575-5.599c1.815 0 3.158-1.189 3.158-2.768v-1.015l-2.973.195c-1.682.112-2.42.697-2.42 1.804 0 1.128.953 1.784 2.235 1.784zm-.328 1.549c-2.143 0-3.733-1.272-3.733-3.292 0-1.979 1.456-3.117 4.03-3.27l3.19-.195v-1.005c0-1.364-.852-2.113-2.503-2.113-1.323 0-2.245.503-2.492 1.374h-1.784c.236-1.774 1.98-2.943 4.338-2.943 2.696 0 4.204 1.385 4.204 3.682V93h-1.682v-1.63h-.164c-.718 1.179-1.928 1.825-3.404 1.825zm8.51-.195V81.946h1.682v1.743h.164c.554-1.22 1.63-1.938 3.323-1.938 2.481 0 3.865 1.467 3.865 4.092V93h-1.763v-6.727c0-1.989-.841-2.932-2.605-2.932s-2.902 1.179-2.902 3.117V93h-1.763zm16.345.195c-2.83 0-4.645-2.246-4.645-5.722 0-3.466 1.836-5.722 4.645-5.722 1.538 0 2.84.728 3.466 1.938h.154v-6.131h1.764V93h-1.682v-1.764h-.164c-.697 1.23-2.01 1.959-3.538 1.959zm.41-9.854c-2.01 0-3.23 1.558-3.23 4.132 0 2.584 1.21 4.132 3.23 4.132 2.01 0 3.25-1.579 3.25-4.132 0-2.533-1.25-4.132-3.25-4.132zM423.598 93V81.946h1.682v1.743h.164c.502-1.23 1.61-1.938 3.086-1.938 1.497 0 2.543.79 3.056 1.938h.164c.595-1.168 1.856-1.938 3.384-1.938 2.256 0 3.517 1.292 3.517 3.61V93h-1.764v-7.229c0-1.63-.769-2.43-2.327-2.43-1.539 0-2.564 1.148-2.564 2.553V93h-1.764v-7.506c0-1.312-.912-2.153-2.307-2.153-1.446 0-2.563 1.25-2.563 2.81V93h-1.764zm22.682-9.69c-1.764 0-2.994 1.292-3.128 3.25h6.091c-.04-1.958-1.21-3.25-2.963-3.25zm2.912 6.83h1.764c-.513 1.886-2.236 3.055-4.656 3.055-3.066 0-4.983-2.215-4.983-5.712 0-3.476 1.948-5.732 4.983-5.732 2.984 0 4.8 2.123 4.8 5.558v.677h-7.948v.082c.093 2.184 1.313 3.568 3.19 3.568 1.425 0 2.388-.523 2.85-1.497zm5.414-11.055h1.764v2.861h2.46v1.477h-2.46v6.255c0 1.302.492 1.856 1.64 1.856.318 0 .492-.01.82-.041v1.486a5.908 5.908 0 01-1.035.103c-2.276 0-3.189-.84-3.189-2.953v-6.706h-1.784v-1.477h1.784v-2.86zM461.496 93V81.946h1.682v1.64h.164c.328-1.076 1.6-1.835 3.066-1.835.287 0 .656.021.882.052v1.763c-.144-.04-.78-.102-1.128-.102-1.682 0-2.902 1.128-2.902 2.686V93h-1.763zm8.04 0V81.946h1.763V93h-1.763zm.881-13.187c-.676 0-1.23-.553-1.23-1.23 0-.677.554-1.23 1.23-1.23.677 0 1.23.553 1.23 1.23 0 .677-.553 1.23-1.23 1.23zm13.392 5.517h-1.784c-.287-1.097-1.261-1.99-2.85-1.99-1.99 0-3.24 1.59-3.24 4.092 0 2.553 1.27 4.173 3.24 4.173 1.486 0 2.522-.687 2.85-1.938h1.784c-.318 2.03-1.969 3.528-4.624 3.528-3.097 0-5.076-2.246-5.076-5.763 0-3.445 1.969-5.68 5.065-5.68 2.687 0 4.327 1.61 4.635 3.578zm2.348-.359c0-1.835 1.774-3.22 4.122-3.22 2.318 0 3.928 1.149 4.163 2.964H492.7c-.236-.882-1.097-1.466-2.43-1.466-1.312 0-2.338.666-2.338 1.65 0 .76.615 1.23 1.918 1.549l1.702.41c2.081.502 3.086 1.405 3.086 2.994 0 1.98-1.917 3.343-4.43 3.343-2.46 0-4.152-1.18-4.347-3.015h1.815c.297.933 1.179 1.528 2.594 1.528 1.487 0 2.553-.708 2.553-1.723 0-.758-.574-1.271-1.753-1.558l-1.897-.462c-2.071-.502-3.015-1.394-3.015-2.994zm21.267 8.224c-2.83 0-4.645-2.246-4.645-5.722 0-3.466 1.835-5.722 4.645-5.722 1.538 0 2.84.728 3.466 1.938h.153v-6.131h1.764V93h-1.682v-1.764h-.164c-.697 1.23-2.01 1.959-3.537 1.959zm.41-9.854c-2.01 0-3.23 1.558-3.23 4.132 0 2.584 1.21 4.132 3.23 4.132 2.01 0 3.25-1.579 3.25-4.132 0-2.533-1.25-4.132-3.25-4.132zm11.802 8.305c1.815 0 3.158-1.189 3.158-2.768v-1.015l-2.973.195c-1.682.112-2.42.697-2.42 1.804 0 1.128.953 1.784 2.235 1.784zm-.328 1.549c-2.143 0-3.732-1.272-3.732-3.292 0-1.979 1.456-3.117 4.03-3.27l3.188-.195v-1.005c0-1.364-.85-2.113-2.502-2.113-1.322 0-2.245.503-2.491 1.374h-1.784c.235-1.774 1.979-2.943 4.337-2.943 2.697 0 4.204 1.385 4.204 3.682V93h-1.682v-1.63h-.164c-.717 1.179-1.927 1.825-3.404 1.825zm9.25-14.11h1.763v2.861h2.46v1.477h-2.46v6.255c0 1.302.492 1.856 1.64 1.856.318 0 .493-.01.82-.041v1.486a5.908 5.908 0 01-1.035.103c-2.276 0-3.189-.84-3.189-2.953v-6.706h-1.784v-1.477h1.784v-2.86zm10.294 12.561c1.815 0 3.158-1.189 3.158-2.768v-1.015l-2.973.195c-1.682.112-2.42.697-2.42 1.804 0 1.128.953 1.784 2.235 1.784zm-.328 1.549c-2.143 0-3.732-1.272-3.732-3.292 0-1.979 1.456-3.117 4.03-3.27l3.188-.195v-1.005c0-1.364-.85-2.113-2.502-2.113-1.322 0-2.245.503-2.491 1.374h-1.785c.236-1.774 1.98-2.943 4.338-2.943 2.697 0 4.204 1.385 4.204 3.682V93h-1.682v-1.63h-.164c-.718 1.179-1.928 1.825-3.404 1.825zm9.967-.092a1.344 1.344 0 01-1.333-1.333c0-.739.605-1.333 1.333-1.333a1.33 1.33 0 011.333 1.333c0 .728-.595 1.333-1.333 1.333z" fill="#000000" fill-rule="nonzero"/>
      <g fill="#10E7FF">
        <path d="M170.521 12h7.502l-17.865 29.479-3.707-6.1zM145.771 41.324L163.543 12h-8.865l-8.725 14.336L137.223 12H128z"/>
      </g>
    </g>
  </g>
</svg>