<?xml version="1.0" encoding="UTF-8"?>
<svg width="744px" height="190px" viewBox="0 0 744 190" version="1.1" xmlns="http://www.w3.org/2000/svg" xmlns:xlink="http://www.w3.org/1999/xlink">
    <!-- Generator: Sketch 54.1 (76490) - https://sketchapp.com -->
    <title>Group</title>
    <desc>Created with Sketch.</desc>
    <defs>
        <rect id="path-1" x="0" y="0" width="755" height="269"></rect>
        <linearGradient x1="-1.11022302e-14%" y1="50%" x2="100%" y2="50%" id="linearGradient-3">
            <stop stop-color="#00DEFF" offset="0%"></stop>
            <stop stop-color="#001B3D" offset="100%"></stop>
        </linearGradient>
    </defs>
    <g id="Sink" stroke="none" stroke-width="1" fill="none" fill-rule="evenodd">
        <g id="Group" transform="translate(0.000000, -43.000000)">
            <mask id="mask-2" fill="white">
                <use xlink:href="#path-1"></use>
            </mask>
            <g id="Mask"></g>
            <g id="File" mask="url(#mask-2)">
                <g transform="translate(111.000000, 86.000000)">
                    <circle id="Oval-Copy-2" fill="#10E7FF" fill-rule="evenodd" cx="583" cy="50" r="50"></circle>
                    <path d="M557.953516,38.2510699 L562.787843,38.2510699 L562.787843,60 L557.953516,60 L557.953516,50.7731812 L549.834327,50.7731812 L549.834327,60 L545,60 L545,38.2510699 L549.834327,38.2510699 L549.834327,46.5677603 L557.953516,46.5677603 L557.953516,38.2510699 Z M583.674613,38.2510699 L583.674613,42.425107 L577.197855,42.425107 L577.197855,60 L572.363528,60 L572.363528,42.425107 L565.88677,42.425107 L565.88677,38.2510699 L583.674613,38.2510699 Z M603.507747,38.2510699 L603.507747,42.425107 L597.030989,42.425107 L597.030989,60 L592.196663,60 L592.196663,42.425107 L585.719905,42.425107 L585.719905,38.2510699 L603.507747,38.2510699 Z M613.052443,38 C616.254684,38 618.713142,38.5701322 620.42789,39.7104137 C622.142639,40.8506952 623,42.7180089 623,45.3124108 C623,47.9277354 622.132309,49.8159714 620.396901,50.9771755 C618.661493,52.1383796 616.182376,52.7189729 612.959476,52.7189729 L611.441001,52.7189729 L611.441001,60 L606.606675,60 L606.606675,38.5649073 C607.660315,38.3556813 608.775918,38.2092253 609.953516,38.125535 C611.131114,38.0418446 612.16408,38 613.052443,38 Z M613.362336,42.1740371 C613.011123,42.1740371 612.665079,42.1844982 612.324195,42.2054208 C611.983312,42.2263434 611.688917,42.2472657 611.441001,42.2681883 L611.441001,48.5449358 L612.959476,48.5449358 C614.632905,48.5449358 615.893123,48.3147907 616.740167,47.8544936 C617.587211,47.3941965 618.010727,46.5363829 618.010727,45.2810271 C618.010727,44.6742718 617.902266,44.172137 617.68534,43.7746077 C617.468414,43.3770784 617.158524,43.0580136 616.755662,42.8174037 C616.352799,42.5767939 615.86214,42.4094156 615.283671,42.3152639 C614.705202,42.2211122 614.064763,42.1740371 613.362336,42.1740371 Z" id="HTTP" fill="#FFFFFF" fill-rule="nonzero"></path>
                    <polygon id="Line-2" fill="url(#linearGradient-3)" fill-rule="nonzero" points="475.990125 55.1914801 -4.00999998 53.989975 -3.98997496 45.99 476.01015 47.1915052 476.055207 29.1915616 520 51.3016302 475.945069 73.1914237"></polygon>
                </g>
            </g>
            <g id="Aggregate" mask="url(#mask-2)">
                <g transform="translate(-99.000000, 173.000000)">
                    <polygon id="Fill-74" fill="#001B3D" points="1.13686838e-13 43.0202204 99.9238736 59.9540001 199.84544 43.0202204 99.9238736 26.0846919"></polygon>
                    <polygon id="Fill-79" fill="#001B3D" points="0.206736663 43.0174706 1.13686838e-13 17.4237163 99.7120786 0.476190476 199.84544 17.5940651 199.516959 42.9577539 99.7120786 59.9540001"></polygon>
                    <polygon id="Fill-76" fill="#001B3D" points="100.776761 34.6757847 199.84544 17.823885 199.36429 43.1020671 100.776761 59.9540001"></polygon>
                    <polygon id="Fill-77" fill="#001B3D" points="100.776761 0.476190476 199.84544 17.437889 199.364396 42.6063057 100.981171 25.8281337"></polygon>
                    <polygon id="Fill-78" fill="#001B3D" points="1.13686838e-13 17.2204794 1.13686838e-13 42.6063057 99.0686799 25.8051804 98.8616119 0.476190476"></polygon>
                    <polygon id="Fill-74-Copy" fill-opacity="0.33241368" fill="#FFFFFF" points="1.70530257e-13 17.3059347 99.9238736 34.2397144 199.84544 17.3059347 99.9238736 0.370406148"></polygon>
                </g>
            </g>
            <g id="Sample" mask="url(#mask-2)">
                <g transform="translate(-99.000000, 107.000000)">
                    <polygon id="Fill-74" fill="#001B3D" points="1.13686838e-13 51.6242645 99.9238736 71.9448002 199.84544 51.6242645 99.9238736 31.3016302"></polygon>
                    <polygon id="Fill-79" fill="#001B3D" points="0.206736663 51.6209648 1.13686838e-13 20.9084596 99.7120786 0.571428571 199.84544 21.1128781 199.516959 51.5493047 99.7120786 71.9448002"></polygon>
                    <polygon id="Fill-76" fill="#001B3D" points="100.776761 41.6109417 199.84544 21.388662 199.36429 51.7224806 100.776761 71.9448002"></polygon>
                    <polygon id="Fill-77" fill="#001B3D" points="100.776761 0.571428571 199.84544 20.9254668 199.364396 51.1275668 100.981171 30.9937605"></polygon>
                    <polygon id="Fill-78" fill="#001B3D" points="1.13686838e-13 20.6645753 1.13686838e-13 51.1275668 99.0686799 30.9662165 98.8616119 0.571428571"></polygon>
                    <polygon id="Fill-74-Copy" fill-opacity="0.33241368" fill="#FFFFFF" points="1.70530257e-13 20.7671217 99.9238736 41.0876573 199.84544 20.7671217 99.9238736 0.444487378"></polygon>
                </g>
            </g>
            <g id="Parse" mask="url(#mask-2)">
                <g transform="translate(-99.000000, 43.000000)">
                    <polygon id="Fill-74" fill="#001B3D" points="1.13686838e-13 52.4612587 99.9238736 72.9443586 199.84544 52.4612587 99.9238736 31.9760433"></polygon>
                    <polygon id="Fill-79" fill="#001B3D" points="0.206736663 52.4579325 1.13686838e-13 21.4997273 99.7120786 1 199.84544 21.7057811 199.516959 52.3856991 99.7120786 72.9443586"></polygon>
                    <polygon id="Fill-76" fill="#001B3D" points="100.776761 42.3678292 199.84544 21.9837713 199.36429 52.5602604 100.776761 72.9443586"></polygon>
                    <polygon id="Fill-77" fill="#001B3D" points="100.776761 1 199.84544 21.5168705 199.364396 51.9605873 100.981171 31.6657106"></polygon>
                    <polygon id="Fill-78" fill="#001B3D" points="1.13686838e-13 21.2538919 1.13686838e-13 51.9605873 99.0686799 31.6379463 98.8616119 1"></polygon>
                    <polygon id="Fill-74-Copy" fill-opacity="0.33241368" fill="#FFFFFF" points="1.70530257e-13 21.3572587 99.9238736 41.8403586 199.84544 21.3572587 99.9238736 0.872043277"></polygon>
                </g>
            </g>
        </g>
    </g>
</svg>