<?xml version="1.0" encoding="UTF-8"?>
<svg width="834px" height="450px" viewBox="0 0 834 450" version="1.1" xmlns="http://www.w3.org/2000/svg" xmlns:xlink="http://www.w3.org/1999/xlink">
    <!-- Generator: Sketch 54.1 (76490) - https://sketchapp.com -->
    <title>Lock-In</title>
    <desc>Created with Sketch.</desc>
    <defs>
        <linearGradient x1="-1.11022302e-14%" y1="50%" x2="100%" y2="50%" id="linearGradient-1">
            <stop stop-color="#347BFF" offset="0%"></stop>
            <stop stop-color="#6054EB" offset="100%"></stop>
        </linearGradient>
        <rect id="path-2" x="0" y="0" width="834" height="450"></rect>
        <linearGradient x1="-1.11022302e-14%" y1="50%" x2="100%" y2="50%" id="linearGradient-4">
            <stop stop-color="#4968F5" offset="0%"></stop>
            <stop stop-color="#4B67F5" offset="100%"></stop>
        </linearGradient>
        <linearGradient x1="-1.11022302e-14%" y1="50%" x2="100%" y2="50%" id="linearGradient-5">
            <stop stop-color="#4968F5" offset="0%"></stop>
            <stop stop-color="#4B67F5" offset="100%"></stop>
        </linearGradient>
        <polygon id="path-6" points="15.6899945 0.0280701476 23.6281237 13.5859514 7.75186529 13.5859514"></polygon>
    </defs>
    <g id="Use-Cases:-Lock-In" stroke="none" stroke-width="1" fill="none" fill-rule="evenodd">
        <g id="Custom-Preset">
            <g id="Lock-In">
                <mask id="mask-3" fill="white">
                    <use xlink:href="#path-2"></use>
                </mask>
                <use id="Rectangle" fill="url(#linearGradient-1)" xlink:href="#path-2"></use>
                <g id="Connectors" mask="url(#mask-3)" fill="#FFFFFF" fill-rule="nonzero">
                    <g transform="translate(34.500000, 229.000000)">
                        <path d="M168.720224,111.483746 C251.9974,99.1233905 307.892625,85.6534615 336.509784,71.0121242 C365.390166,56.2361151 381.584916,32.566797 384.991781,0.156812663 L385.148593,-1.33496808 L382.165032,-1.64859341 L382.008219,-0.156812663 C378.707219,31.2460607 363.119683,54.0279106 335.143357,68.3413797 C306.903809,82.7895206 251.247987,96.201757 168.279776,108.516254 L166.79603,108.736478 L167.236478,111.70397 L168.720224,111.483746 Z" id="Line-14"></path>
                        <polygon id="Line-15" points="372.32419 112.308207 384.98335 -1.00807678 382.001897 -1.34115065 369.342737 111.975133"></polygon>
                        <path d="M423.598816,108.978921 C407.809394,91.9874115 397.589918,76.7249754 392.927022,63.2265919 C388.25245,49.6944053 385.932804,28.6035466 386.001482,0.00360199309 L386.005084,-1.49639368 L383.005093,-1.50359767 L383.001491,-0.00360199309 C382.932076,28.9033423 385.28426,50.2900538 390.09144,64.2061184 C394.910296,78.1559862 405.351332,93.7493133 421.401184,111.021079 L422.422263,112.119895 L424.619895,110.077737 L423.598816,108.978921 Z" id="Line-16"></path>
                        <path d="M472.173974,108.659941 C439.118324,92.0348169 416.419725,76.7025618 404.104994,62.7247659 C391.902218,48.8740446 385.511996,27.9719795 384.999749,-0.0274377998 L384.972311,-1.52718683 L381.972813,-1.47231123 L382.000251,0.0274377998 C382.524436,28.6793779 389.120544,50.2548829 401.853994,64.7079444 C414.475489,79.0339313 437.457227,94.5574394 470.826026,111.340059 L472.166085,112.014033 L473.514033,109.333915 L472.173974,108.659941 Z" id="Line-17"></path>
                        <path d="M382.013066,0.197551771 C386.013758,30.3099956 399.360509,51.9639774 422.023914,65.0161997 C444.438662,77.9252168 495.105586,93.3808868 574.165578,111.462246 L575.627824,111.796667 L576.296667,108.872176 L574.834422,108.537754 C496.070827,90.5241832 445.586095,75.1240899 423.521117,62.4165107 C401.704794,49.8521365 388.869869,29.0285482 384.986934,-0.197551771 L384.789382,-1.68448597 L381.815514,-1.28938242 L382.013066,0.197551771 Z" id="Line-18"></path>
                        <path d="M382.001713,0.0716740577 C383.566079,32.7734336 415.8532,59.035263 478.491591,79.064981 C540.756885,98.9753947 623.745775,109.78133 727.475153,111.499794 L728.974947,111.524641 L729.024641,108.525053 L727.524847,108.500206 C624.064947,106.786206 541.352805,96.0163059 479.405316,76.2075157 C417.830923,56.5180298 386.485743,31.0223602 384.998287,-0.0716740577 L384.926613,-1.56996069 L381.930039,-1.42661257 L382.001713,0.0716740577 Z" id="Line-19"></path>
                        <path d="M381.037218,0.332068057 C388.520137,33.294825 418.149403,57.4703871 469.68064,72.9220806 C520.88735,88.2764648 622.761158,101.124494 775.398306,111.496549 L776.894855,111.598243 L777.098243,108.605145 L775.601694,108.503451 C623.184065,98.1463136 521.465516,85.3178648 470.54229,70.048484 C419.943591,54.8764125 391.165213,31.3951198 383.962782,-0.332068057 L383.630714,-1.79484993 L380.70515,-1.13071382 L381.037218,0.332068057 Z" id="Line-20"></path>
                        <path d="M0.603734831,111.496409 C142.428069,101.664788 241.746653,88.5711869 298.620065,72.1936829 C355.940784,55.6873705 384.560443,31.6634351 383.991746,-0.026913812 L383.964833,-1.52667234 L380.965316,-1.47284472 L380.992229,0.026913812 C381.529968,29.9921132 353.958293,53.1363489 297.789907,69.3108305 C241.174215,85.6141205 142.022808,98.6856818 0.396265169,108.503591 L-1.10014356,108.607326 L-0.892673898,111.600144 L0.603734831,111.496409 Z" id="Line-13"></path>
                    </g>
                </g>
                <g id="Box" mask="url(#mask-3)">
                    <g transform="translate(356.000000, 159.000000)">
                        <polygon id="Stroke-1" stroke-opacity="0.352190778" stroke="#FFFFFF" stroke-width="1" fill="none" stroke-linecap="round" stroke-linejoin="round" points="0 64.5665634 61.0440999 90 122.086957 64.5665634 61.0440999 39.1304348"></polygon>
                        <polygon id="Stroke-7" stroke-opacity="0.352190778" stroke="#FFFFFF" stroke-width="1" fill="none" stroke-linecap="round" stroke-linejoin="round" points="60.2608696 1.56521739 122.086957 26.7716012 121.786824 64.173913 60.388426 39.2402113"></polygon>
                        <polygon id="Stroke-9" stroke-opacity="0.352190778" stroke="#FFFFFF" stroke-width="1" fill="none" stroke-linecap="round" stroke-linejoin="round" points="0.782608696 26.4486004 0.782608696 64.173913 61.826087 39.2060842 61.6988148 1.56521739"></polygon>
                        <polygon id="Fill-11" stroke="none" fill-opacity="0.6" fill="#E6E6E6" fill-rule="evenodd" points="0.126286605 64.3722076 0 25.6443392 60.9147154 0 122.086957 25.9021814 121.886186 64.2817875 60.9147154 90"></polygon>
                        <polygon id="Stroke-13" stroke-opacity="0.352190778" stroke="#FFFFFF" stroke-width="1" fill="none" stroke-linecap="round" stroke-linejoin="round" points="0.126286605 64.3722128 0 25.6443522 60.9147154 0 122.086957 25.9021943 121.886136 64.2817926 60.9147154 90"></polygon>
                        <g id="Vector" stroke="none" stroke-width="1" fill="none" fill-rule="evenodd" transform="translate(21.130435, 19.565217)">
                            <polygon id="Fill-21" fill="#001B3D" points="0 39.3030676 39.5694222 54.8875928 79.137931 39.3030676 39.5694222 23.7168611"></polygon>
                            <polygon id="Fill-22" fill="#001B3D" points="0 15.5853659 0 39.2469312 40.6011994 54.8875928 40.6011994 31.4279428"></polygon>
                            <polygon id="Fill-23" fill="#001B3D" points="40.6011994 31.3061243 79.826087 15.5853659 79.6330593 39.166793 40.6011994 54.8875928"></polygon>
                            <polygon id="Fill-24" fill="#001B3D" points="39.9130435 0 79.826087 15.8230925 79.6322828 39.3022269 39.9953965 23.6502703"></polygon>
                            <polygon id="Fill-25" fill="#001B3D" points="0 15.6203871 0 39.3022269 39.9130435 23.62887 39.8304836 0"></polygon>
                            <polygon id="Fill-26" fill="#001B3D" points="0.0825787106 39.258183 0 15.6394958 39.8289049 0 79.826087 15.7968007 79.6947868 39.2030337 39.8289049 54.8875928"></polygon>
                            <polygon id="Fill-21-Copy" fill-opacity="0.30736451" fill="#FFFFFF" points="0 15.5862065 39.5694222 31.1707317 79.137931 15.5862065 39.5694222 0"></polygon>
                        </g>
                        <polygon id="Stroke-3" stroke-opacity="0.352190778" stroke="#FFFFFF" stroke-width="1" fill="none" stroke-linecap="round" stroke-linejoin="round" points="0.782608696 27.3913043 0.782608696 65.0843125 61.826087 90 61.826087 52.628666"></polygon>
                        <polygon id="Stroke-5" stroke-opacity="0.352190778" stroke="#FFFFFF" stroke-width="1" fill="none" stroke-linecap="round" stroke-linejoin="round" points="60.2608696 52.4346059 122.086957 27.3913043 121.785733 64.9566984 60.2608696 90"></polygon>
                    </g>
                </g>
                <g id="Timeline" mask="url(#mask-3)">
                    <g transform="translate(-17.000000, 263.000000)">
                        <polygon id="Line-11" fill="#001B3D" fill-rule="nonzero" points="0 78 949 78 949 75 0 75"></polygon>
                        <polygon id="Line-21" fill="#FFFFFF" fill-rule="nonzero" points="52 78.5 52 106 53 106 53 78.5"></polygon>
                        <polygon id="Line-21-Copy" fill="#FFFFFF" fill-rule="nonzero" points="421 78.5 421 106 422 106 422 78.5"></polygon>
                        <polygon id="Line-21-Copy" fill="#FFFFFF" fill-rule="nonzero" points="521 78.5 521 106 522 106 522 78.5"></polygon>
                        <polygon id="Line-21-Copy" fill="#FFFFFF" fill-rule="nonzero" points="777 78.5 777 106 778 106 778 78.5"></polygon>
                        <polygon id="Line-21-Copy" fill="#FFFFFF" fill-rule="nonzero" points="625 37.5 625 67 626 67 626 37.5"></polygon>
                        <polygon id="Line-21-Copy" fill="#FFFFFF" fill-rule="nonzero" points="826 37.5 826 67 827 67 827 37.5"></polygon>
                        <polygon id="Line-21-Copy" fill="#FFFFFF" fill-rule="nonzero" points="471 78.5 471 133 472 133 472 78.5"></polygon>
                        <polygon id="Line-21" fill="#FFFFFF" fill-rule="nonzero" points="218 37.5 218 65 219 65 219 37.5"></polygon>
                        <circle id="Oval" fill="#FFFFFF" fill-rule="evenodd" cx="218.5" cy="76.5" r="12.5"></circle>
                        <circle id="Oval-Copy-4" fill="#FFFFFF" fill-rule="evenodd" cx="421.5" cy="76.5" r="12.5"></circle>
                        <circle id="Oval-Copy-4" fill="#FFFFFF" fill-rule="evenodd" cx="471.5" cy="76.5" r="12.5"></circle>
                        <circle id="Oval-Copy-5" fill="#FFFFFF" fill-rule="evenodd" cx="521.5" cy="76.5" r="12.5"></circle>
                        <circle id="Oval-Copy-5" fill="#FFFFFF" fill-rule="evenodd" cx="625.5" cy="76.5" r="12.5"></circle>
                        <circle id="Oval-Copy-5" fill="#FFFFFF" fill-rule="evenodd" cx="778.5" cy="76.5" r="12.5"></circle>
                        <circle id="Oval-Copy-5" fill="#FFFFFF" fill-rule="evenodd" cx="826.5" cy="76.5" r="12.5"></circle>
                        <circle id="Oval-Copy-3" fill="#FFFFFF" fill-rule="evenodd" cx="52.5" cy="76.5" r="12.5"></circle>
                        <path d="M535.882812,0.7265625 L540.585938,0.7265625 C542.90625,0.7265625 544.492188,2.28125 544.492188,4.625 C544.492188,6.9453125 542.84375,8.5 540.46875,8.5 L538.242188,8.5 L538.242188,12 L535.882812,12 L535.882812,0.7265625 Z M538.242188,2.6640625 L538.242188,6.5859375 L539.953125,6.5859375 C541.304688,6.5859375 542.09375,5.8984375 542.09375,4.6328125 C542.09375,3.3515625 541.320312,2.6640625 539.960938,2.6640625 L538.242188,2.6640625 Z M546.4375,12 L546.4375,3.3828125 L548.640625,3.3828125 L548.640625,4.7578125 L548.78125,4.7578125 C549.007812,3.8984375 549.898438,3.2421875 550.992188,3.2421875 C551.304688,3.2421875 551.6875,3.28125 551.882812,3.3515625 L551.882812,5.421875 C551.703125,5.3515625 551.171875,5.28125 550.804688,5.28125 C549.5625,5.28125 548.710938,6.015625 548.710938,7.2265625 L548.710938,12 L546.4375,12 Z M557.023438,12.1875 C554.375,12.1875 552.78125,10.5078125 552.78125,7.6875 C552.78125,4.8984375 554.398438,3.1953125 557.023438,3.1953125 C559.648438,3.1953125 561.265625,4.890625 561.265625,7.6875 C561.265625,10.5078125 559.671875,12.1875 557.023438,12.1875 Z M557.023438,10.328125 C558.234375,10.328125 558.929688,9.359375 558.929688,7.6875 C558.929688,6.03125 558.226562,5.0546875 557.023438,5.0546875 C555.8125,5.0546875 555.117188,6.03125 555.117188,7.6875 C555.117188,9.3671875 555.804688,10.328125 557.023438,10.328125 Z M563.117188,12 L563.117188,3.3828125 L565.320312,3.3828125 L565.320312,4.7890625 L565.460938,4.7890625 C565.8125,3.8046875 566.710938,3.1953125 567.84375,3.1953125 C569.054688,3.1953125 569.882812,3.7890625 570.226562,4.7890625 L570.367188,4.7890625 C570.765625,3.828125 571.757812,3.1953125 572.960938,3.1953125 C574.679688,3.1953125 575.75,4.3125 575.75,6.0859375 L575.75,12 L573.476562,12 L573.476562,6.6875 C573.476562,5.6640625 573,5.15625 572.039062,5.15625 C571.117188,5.15625 570.523438,5.8125 570.523438,6.7265625 L570.523438,12 L568.335938,12 L568.335938,6.59375 C568.335938,5.6796875 567.804688,5.15625 566.914062,5.15625 C566.023438,5.15625 565.390625,5.8515625 565.390625,6.8125 L565.390625,12 L563.117188,12 Z M581.679688,4.9375 C580.625,4.9375 579.882812,5.671875 579.804688,6.7890625 L583.476562,6.7890625 C583.429688,5.6484375 582.742188,4.9375 581.679688,4.9375 Z M583.523438,9.546875 L585.640625,9.546875 C585.304688,11.1640625 583.8125,12.1875 581.703125,12.1875 C579.078125,12.1875 577.53125,10.53125 577.53125,7.734375 C577.53125,4.9296875 579.109375,3.1953125 581.671875,3.1953125 C584.210938,3.1953125 585.710938,4.8125 585.710938,7.546875 L585.710938,8.2421875 L579.796875,8.2421875 L579.796875,8.359375 C579.828125,9.640625 580.578125,10.4375 581.765625,10.4375 C582.664062,10.4375 583.28125,10.1171875 583.523438,9.546875 Z M588.21875,1.3359375 L590.492188,1.3359375 L590.492188,3.46875 L592.28125,3.46875 L592.28125,5.2578125 L590.492188,5.2578125 L590.492188,9.1328125 C590.492188,9.8828125 590.835938,10.2265625 591.609375,10.2265625 C591.90625,10.2265625 592.0625,10.21875 592.28125,10.1953125 L592.28125,11.9296875 C592,11.984375 591.578125,12.03125 591.140625,12.03125 C589.046875,12.03125 588.21875,11.3515625 588.21875,9.671875 L588.21875,5.2578125 L586.875,5.2578125 L586.875,3.46875 L588.21875,3.46875 L588.21875,1.3359375 Z M594.25,12 L594.25,0.09375 L596.484375,0.09375 L596.484375,4.796875 L596.625,4.796875 C597.023438,3.8125 597.960938,3.21875 599.226562,3.21875 C601.078125,3.21875 602.179688,4.3828125 602.179688,6.453125 L602.179688,12 L599.90625,12 L599.90625,6.9921875 C599.90625,5.796875 599.351562,5.1796875 598.320312,5.1796875 C597.179688,5.1796875 596.523438,5.9375 596.523438,7.0546875 L596.523438,12 L594.25,12 Z M608.109375,4.9375 C607.054688,4.9375 606.3125,5.671875 606.234375,6.7890625 L609.90625,6.7890625 C609.859375,5.6484375 609.171875,4.9375 608.109375,4.9375 Z M609.953125,9.546875 L612.070312,9.546875 C611.734375,11.1640625 610.242188,12.1875 608.132812,12.1875 C605.507812,12.1875 603.960938,10.53125 603.960938,7.734375 C603.960938,4.9296875 605.539062,3.1953125 608.101562,3.1953125 C610.640625,3.1953125 612.140625,4.8125 612.140625,7.546875 L612.140625,8.2421875 L606.226562,8.2421875 L606.226562,8.359375 C606.257812,9.640625 607.007812,10.4375 608.195312,10.4375 C609.09375,10.4375 609.710938,10.1171875 609.953125,9.546875 Z M621.796875,3.3828125 L621.796875,12 L619.59375,12 L619.59375,10.6171875 L619.453125,10.6171875 C619.046875,11.6171875 618.242188,12.1875 616.9375,12.1875 C615.078125,12.1875 613.921875,11 613.921875,9 L613.921875,3.3828125 L616.195312,3.3828125 L616.195312,8.4140625 C616.195312,9.6015625 616.734375,10.2109375 617.78125,10.2109375 C618.914062,10.2109375 619.523438,9.5 619.523438,8.3515625 L619.523438,3.3828125 L621.796875,3.3828125 Z M623.882812,5.9140625 C623.882812,4.28125 625.320312,3.1953125 627.46875,3.1953125 C629.65625,3.1953125 630.945312,4.109375 631.070312,5.7578125 L628.96875,5.7578125 C628.851562,5.203125 628.328125,4.859375 627.484375,4.859375 C626.671875,4.859375 626.070312,5.2265625 626.070312,5.7734375 C626.070312,6.1953125 626.4375,6.453125 627.234375,6.6328125 L628.851562,6.984375 C630.523438,7.3515625 631.273438,8.0546875 631.273438,9.34375 C631.273438,11.0625 629.734375,12.1875 627.476562,12.1875 C625.203125,12.1875 623.828125,11.2578125 623.671875,9.6015625 L625.890625,9.6015625 C626.0625,10.1875 626.617188,10.5234375 627.523438,10.5234375 C628.40625,10.5234375 629.015625,10.15625 629.015625,9.6015625 C629.015625,9.1796875 628.6875,8.921875 627.929688,8.7578125 L626.367188,8.40625 C624.695312,8.0390625 623.882812,7.2421875 623.882812,5.9140625 Z M592.53125,23.171875 C592.53125,20.9609375 594.25,19.4375 596.71875,19.4375 C599.109375,19.4375 600.640625,20.8203125 600.640625,22.7265625 C600.640625,24.046875 600.0625,24.953125 598.1875,26.7109375 L595.84375,28.8984375 L595.84375,29.0390625 L600.796875,29.0390625 L600.796875,31 L592.664062,31 L592.664062,29.3515625 L596.617188,25.5703125 C598.023438,24.21875 598.328125,23.703125 598.328125,22.9453125 C598.328125,22.046875 597.6875,21.3359375 596.585938,21.3359375 C595.4375,21.3359375 594.71875,22.09375 594.71875,23.171875 L592.53125,23.171875 Z M607.296875,31.2890625 C604.507812,31.2890625 602.820312,29.0859375 602.820312,25.34375 C602.820312,21.609375 604.523438,19.4375 607.296875,19.4375 C610.0625,19.4375 611.773438,21.609375 611.773438,25.3515625 C611.773438,29.078125 610.085938,31.2890625 607.296875,31.2890625 Z M607.296875,29.3671875 C608.59375,29.3671875 609.382812,28.015625 609.382812,25.34375 C609.382812,22.6875 608.585938,21.3671875 607.296875,21.3671875 C606.015625,21.3671875 605.210938,22.6953125 605.210938,25.34375 C605.210938,28.015625 606.007812,29.3671875 607.296875,29.3671875 Z M616.640625,31 L616.640625,22.0234375 L616.5,22.0234375 L613.734375,23.9296875 L613.734375,21.734375 L616.648438,19.7265625 L619,19.7265625 L619,31 L616.640625,31 Z M627.390625,31 L627.390625,28.9609375 L621.875,28.9609375 L621.875,27.046875 C623.296875,24.515625 624.828125,22.0390625 626.335938,19.7265625 L629.640625,19.7265625 L629.640625,27 L631.117188,27 L631.117188,28.9609375 L629.640625,28.9609375 L629.640625,31 L627.390625,31 Z M623.992188,26.9453125 L623.992188,27.078125 L627.445312,27.078125 L627.445312,21.5625 L627.320312,21.5625 C626.21875,23.2265625 625.015625,25.1484375 623.992188,26.9453125 Z" id="Prometheus2014" fill="#FFFFFF" fill-rule="nonzero"></path>
                        <path d="M746.867188,114.171875 C746.867188,111.960938 748.585938,110.4375 751.054688,110.4375 C753.445312,110.4375 754.976562,111.820312 754.976562,113.726562 C754.976562,115.046875 754.398438,115.953125 752.523438,117.710938 L750.179688,119.898438 L750.179688,120.039062 L755.132812,120.039062 L755.132812,122 L747,122 L747,120.351562 L750.953125,116.570312 C752.359375,115.21875 752.664062,114.703125 752.664062,113.945312 C752.664062,113.046875 752.023438,112.335938 750.921875,112.335938 C749.773438,112.335938 749.054688,113.09375 749.054688,114.171875 L746.867188,114.171875 Z M761.632812,122.289062 C758.84375,122.289062 757.15625,120.085938 757.15625,116.34375 C757.15625,112.609375 758.859375,110.4375 761.632812,110.4375 C764.398438,110.4375 766.109375,112.609375 766.109375,116.351562 C766.109375,120.078125 764.421875,122.289062 761.632812,122.289062 Z M761.632812,120.367188 C762.929688,120.367188 763.71875,119.015625 763.71875,116.34375 C763.71875,113.6875 762.921875,112.367188 761.632812,112.367188 C760.351562,112.367188 759.546875,113.695312 759.546875,116.34375 C759.546875,119.015625 760.34375,120.367188 761.632812,120.367188 Z M770.976562,122 L770.976562,113.023438 L770.835938,113.023438 L768.070312,114.929688 L768.070312,112.734375 L770.984375,110.726562 L773.335938,110.726562 L773.335938,122 L770.976562,122 Z M776.960938,122 L781.765625,112.796875 L781.765625,112.664062 L776.078125,112.664062 L776.078125,110.71875 L784.140625,110.71875 L784.140625,112.6875 L779.429688,122 L776.960938,122 Z M736.453125,141 L735.601562,138.3125 L731.640625,138.3125 L730.773438,141 L728.40625,141 L732.320312,129.726562 L735.09375,129.726562 L739.007812,141 L736.453125,141 Z M733.5625,132.070312 L732.148438,136.492188 L735.101562,136.492188 L733.703125,132.070312 L733.5625,132.070312 Z M740.882812,130.335938 L743.15625,130.335938 L743.15625,132.46875 L744.945312,132.46875 L744.945312,134.257812 L743.15625,134.257812 L743.15625,138.132812 C743.15625,138.882812 743.5,139.226562 744.273438,139.226562 C744.570312,139.226562 744.726562,139.21875 744.945312,139.195312 L744.945312,140.929688 C744.664062,140.984375 744.242188,141.03125 743.804688,141.03125 C741.710938,141.03125 740.882812,140.351562 740.882812,138.671875 L740.882812,134.257812 L739.539062,134.257812 L739.539062,132.46875 L740.882812,132.46875 L740.882812,130.335938 Z M746.914062,141 L746.914062,129.09375 L749.148438,129.09375 L749.148438,133.796875 L749.289062,133.796875 C749.6875,132.8125 750.625,132.21875 751.890625,132.21875 C753.742188,132.21875 754.84375,133.382812 754.84375,135.453125 L754.84375,141 L752.570312,141 L752.570312,135.992188 C752.570312,134.796875 752.015625,134.179688 750.984375,134.179688 C749.84375,134.179688 749.1875,134.9375 749.1875,136.054688 L749.1875,141 L746.914062,141 Z M760.773438,133.9375 C759.71875,133.9375 758.976562,134.671875 758.898438,135.789062 L762.570312,135.789062 C762.523438,134.648438 761.835938,133.9375 760.773438,133.9375 Z M762.617188,138.546875 L764.734375,138.546875 C764.398438,140.164062 762.90625,141.1875 760.796875,141.1875 C758.171875,141.1875 756.625,139.53125 756.625,136.734375 C756.625,133.929688 758.203125,132.195312 760.765625,132.195312 C763.304688,132.195312 764.804688,133.8125 764.804688,136.546875 L764.804688,137.242188 L758.890625,137.242188 L758.890625,137.359375 C758.921875,138.640625 759.671875,139.4375 760.859375,139.4375 C761.757812,139.4375 762.375,139.117188 762.617188,138.546875 Z M766.664062,141 L766.664062,132.382812 L768.867188,132.382812 L768.867188,133.765625 L769.007812,133.765625 C769.40625,132.796875 770.28125,132.195312 771.554688,132.195312 C773.46875,132.195312 774.5,133.367188 774.5,135.429688 L774.5,141 L772.226562,141 L772.226562,135.96875 C772.226562,134.78125 771.71875,134.15625 770.640625,134.15625 C769.585938,134.15625 768.9375,134.898438 768.9375,136.03125 L768.9375,141 L766.664062,141 Z M779.8125,139.421875 C780.867188,139.421875 781.664062,138.75 781.664062,137.875 L781.664062,137.242188 L779.921875,137.351562 C778.945312,137.421875 778.46875,137.773438 778.46875,138.390625 C778.46875,139.03125 779.023438,139.421875 779.8125,139.421875 Z M779.0625,141.132812 C777.40625,141.132812 776.242188,140.117188 776.242188,138.539062 C776.242188,136.976562 777.4375,136.070312 779.578125,135.945312 L781.664062,135.820312 L781.664062,135.117188 C781.664062,134.398438 781.148438,133.992188 780.210938,133.992188 C779.390625,133.992188 778.84375,134.273438 778.65625,134.789062 L776.5625,134.789062 C776.710938,133.195312 778.171875,132.195312 780.335938,132.195312 C782.617188,132.195312 783.90625,133.273438 783.90625,135.117188 L783.90625,141 L781.703125,141 L781.703125,139.875 L781.5625,139.875 C781.117188,140.664062 780.179688,141.132812 779.0625,141.132812 Z" id="2017Athena" fill="#FFFFFF" fill-rule="nonzero"></path>
                        <path d="M799.445312,4.171875 C799.445312,1.9609375 801.164062,0.4375 803.632812,0.4375 C806.023438,0.4375 807.554688,1.8203125 807.554688,3.7265625 C807.554688,5.046875 806.976562,5.953125 805.101562,7.7109375 L802.757812,9.8984375 L802.757812,10.0390625 L807.710938,10.0390625 L807.710938,12 L799.578125,12 L799.578125,10.3515625 L803.53125,6.5703125 C804.9375,5.21875 805.242188,4.703125 805.242188,3.9453125 C805.242188,3.046875 804.601562,2.3359375 803.5,2.3359375 C802.351562,2.3359375 801.632812,3.09375 801.632812,4.171875 L799.445312,4.171875 Z M814.210938,12.2890625 C811.421875,12.2890625 809.734375,10.0859375 809.734375,6.34375 C809.734375,2.609375 811.4375,0.4375 814.210938,0.4375 C816.976562,0.4375 818.6875,2.609375 818.6875,6.3515625 C818.6875,10.078125 817,12.2890625 814.210938,12.2890625 Z M814.210938,10.3671875 C815.507812,10.3671875 816.296875,9.015625 816.296875,6.34375 C816.296875,3.6875 815.5,2.3671875 814.210938,2.3671875 C812.929688,2.3671875 812.125,3.6953125 812.125,6.34375 C812.125,9.015625 812.921875,10.3671875 814.210938,10.3671875 Z M823.554688,12 L823.554688,3.0234375 L823.414062,3.0234375 L820.648438,4.9296875 L820.648438,2.734375 L823.5625,0.7265625 L825.914062,0.7265625 L825.914062,12 L823.554688,12 Z M833.445312,12.2890625 C830.734375,12.2890625 828.898438,10.953125 828.898438,8.9921875 C828.898438,7.578125 829.875,6.4453125 831.382812,6.109375 L831.382812,5.96875 C830.15625,5.6875 829.351562,4.7109375 829.351562,3.515625 C829.351562,1.71875 831.054688,0.4375 833.453125,0.4375 C835.84375,0.4375 837.546875,1.71875 837.546875,3.515625 C837.546875,4.71875 836.75,5.6796875 835.515625,5.96875 L835.515625,6.109375 C837.015625,6.390625 838.007812,7.53125 838.007812,8.96875 C838.007812,10.9453125 836.15625,12.2890625 833.445312,12.2890625 Z M833.445312,10.5078125 C834.6875,10.5078125 835.546875,9.796875 835.546875,8.7734375 C835.546875,7.7421875 834.6875,7.03125 833.445312,7.03125 C832.210938,7.03125 831.351562,7.7421875 831.351562,8.7734375 C831.351562,9.796875 832.210938,10.5078125 833.445312,10.5078125 Z M833.445312,5.2890625 C834.492188,5.2890625 835.21875,4.6484375 835.21875,3.7421875 C835.21875,2.828125 834.492188,2.1875 833.445312,2.1875 C832.398438,2.1875 831.679688,2.828125 831.679688,3.7421875 C831.679688,4.6484375 832.40625,5.2890625 833.445312,5.2890625 Z M748.117188,31.2890625 C744.851562,31.2890625 742.828125,29.03125 742.828125,25.359375 C742.828125,21.6953125 744.84375,19.4375 748.117188,19.4375 C750.789062,19.4375 752.835938,21.2109375 753.007812,23.6640625 L750.710938,23.6640625 C750.484375,22.3671875 749.460938,21.515625 748.117188,21.515625 C746.34375,21.515625 745.242188,22.984375 745.242188,25.359375 C745.242188,27.734375 746.34375,29.2109375 748.125,29.2109375 C749.476562,29.2109375 750.492188,28.4140625 750.71875,27.171875 L753.015625,27.171875 C752.820312,29.609375 750.835938,31.2890625 748.117188,31.2890625 Z M761.828125,23.5390625 L759.71875,31 L757.492188,31 L754.507812,19.7265625 L756.960938,19.7265625 L758.71875,27.671875 L758.84375,27.671875 L760.898438,19.7265625 L762.890625,19.7265625 L764.984375,27.671875 L765.109375,27.671875 L766.851562,19.7265625 L769.289062,19.7265625 L766.296875,31 L764.085938,31 L761.953125,23.5390625 L761.828125,23.5390625 Z M777.820312,31 L775.460938,31 L775.460938,19.7265625 L777.820312,19.7265625 L777.820312,31 Z M780.328125,31 L780.328125,22.3828125 L782.53125,22.3828125 L782.53125,23.765625 L782.671875,23.765625 C783.070312,22.796875 783.945312,22.1953125 785.21875,22.1953125 C787.132812,22.1953125 788.164062,23.3671875 788.164062,25.4296875 L788.164062,31 L785.890625,31 L785.890625,25.96875 C785.890625,24.78125 785.382812,24.15625 784.304688,24.15625 C783.25,24.15625 782.601562,24.8984375 782.601562,26.03125 L782.601562,31 L780.328125,31 Z M790.171875,24.9140625 C790.171875,23.28125 791.609375,22.1953125 793.757812,22.1953125 C795.945312,22.1953125 797.234375,23.109375 797.359375,24.7578125 L795.257812,24.7578125 C795.140625,24.203125 794.617188,23.859375 793.773438,23.859375 C792.960938,23.859375 792.359375,24.2265625 792.359375,24.7734375 C792.359375,25.1953125 792.726562,25.453125 793.523438,25.6328125 L795.140625,25.984375 C796.8125,26.3515625 797.5625,27.0546875 797.5625,28.34375 C797.5625,30.0625 796.023438,31.1875 793.765625,31.1875 C791.492188,31.1875 790.117188,30.2578125 789.960938,28.6015625 L792.179688,28.6015625 C792.351562,29.1875 792.90625,29.5234375 793.8125,29.5234375 C794.695312,29.5234375 795.304688,29.15625 795.304688,28.6015625 C795.304688,28.1796875 794.976562,27.921875 794.21875,27.7578125 L792.65625,27.40625 C790.984375,27.0390625 790.171875,26.2421875 790.171875,24.9140625 Z M799.445312,31 L799.445312,22.3828125 L801.71875,22.3828125 L801.71875,31 L799.445312,31 Z M800.585938,21.09375 C799.882812,21.09375 799.296875,20.515625 799.296875,19.7890625 C799.296875,19.0625 799.882812,18.4921875 800.585938,18.4921875 C801.296875,18.4921875 801.875,19.0625 801.875,19.7890625 C801.875,20.515625 801.296875,21.09375 800.585938,21.09375 Z M807.84375,29.078125 C809.078125,29.078125 809.8125,28.1328125 809.8125,26.6171875 C809.8125,25.1015625 809.070312,24.1484375 807.84375,24.1484375 C806.617188,24.1484375 805.90625,25.1015625 805.90625,26.609375 C805.90625,28.1328125 806.609375,29.078125 807.84375,29.078125 Z M807.8125,34.265625 C805.523438,34.265625 804.007812,33.2578125 803.867188,31.7421875 L806.117188,31.7421875 C806.234375,32.2734375 806.875,32.609375 807.859375,32.609375 C809.078125,32.609375 809.789062,32.046875 809.789062,31.078125 L809.789062,29.484375 L809.648438,29.484375 C809.171875,30.390625 808.265625,30.875 807.054688,30.875 C804.90625,30.875 803.570312,29.2109375 803.570312,26.6171875 C803.570312,23.9453125 804.914062,22.2421875 807.101562,22.2421875 C808.265625,22.2421875 809.257812,22.8203125 809.71875,23.765625 L809.859375,23.765625 L809.859375,22.3828125 L812.0625,22.3828125 L812.0625,30.96875 C812.0625,32.9921875 810.414062,34.265625 807.8125,34.265625 Z M814.421875,31 L814.421875,19.09375 L816.65625,19.09375 L816.65625,23.796875 L816.796875,23.796875 C817.195312,22.8125 818.132812,22.21875 819.398438,22.21875 C821.25,22.21875 822.351562,23.3828125 822.351562,25.453125 L822.351562,31 L820.078125,31 L820.078125,25.9921875 C820.078125,24.796875 819.523438,24.1796875 818.492188,24.1796875 C817.351562,24.1796875 816.695312,24.9375 816.695312,26.0546875 L816.695312,31 L814.421875,31 Z M825.203125,20.3359375 L827.476562,20.3359375 L827.476562,22.46875 L829.265625,22.46875 L829.265625,24.2578125 L827.476562,24.2578125 L827.476562,28.1328125 C827.476562,28.8828125 827.820312,29.2265625 828.59375,29.2265625 C828.890625,29.2265625 829.046875,29.21875 829.265625,29.1953125 L829.265625,30.9296875 C828.984375,30.984375 828.5625,31.03125 828.125,31.03125 C826.03125,31.03125 825.203125,30.3515625 825.203125,28.671875 L825.203125,24.2578125 L823.859375,24.2578125 L823.859375,22.46875 L825.203125,22.46875 L825.203125,20.3359375 Z M830.882812,24.9140625 C830.882812,23.28125 832.320312,22.1953125 834.46875,22.1953125 C836.65625,22.1953125 837.945312,23.109375 838.070312,24.7578125 L835.96875,24.7578125 C835.851562,24.203125 835.328125,23.859375 834.484375,23.859375 C833.671875,23.859375 833.070312,24.2265625 833.070312,24.7734375 C833.070312,25.1953125 833.4375,25.453125 834.234375,25.6328125 L835.851562,25.984375 C837.523438,26.3515625 838.273438,27.0546875 838.273438,28.34375 C838.273438,30.0625 836.734375,31.1875 834.476562,31.1875 C832.203125,31.1875 830.828125,30.2578125 830.671875,28.6015625 L832.890625,28.6015625 C833.0625,29.1875 833.617188,29.5234375 834.523438,29.5234375 C835.40625,29.5234375 836.015625,29.15625 836.015625,28.6015625 C836.015625,28.1796875 835.6875,27.921875 834.929688,27.7578125 L833.367188,27.40625 C831.695312,27.0390625 830.882812,26.2421875 830.882812,24.9140625 Z" id="2018CWInsights" fill="#FFFFFF" fill-rule="nonzero"></path>
                        <path d="M209.859375,8.8671875 L212.140625,8.8671875 C212.25,9.78125 213.171875,10.3671875 214.5,10.3671875 C215.726562,10.3671875 216.59375,9.7734375 216.59375,8.921875 C216.59375,8.203125 216.03125,7.7890625 214.648438,7.4921875 L213.179688,7.1796875 C211.125,6.75 210.117188,5.6796875 210.117188,3.9609375 C210.117188,1.8359375 211.828125,0.4375 214.429688,0.4375 C216.914062,0.4375 218.671875,1.828125 218.742188,3.8359375 L216.523438,3.8359375 C216.414062,2.9453125 215.585938,2.3515625 214.445312,2.3515625 C213.265625,2.3515625 212.484375,2.8984375 212.484375,3.7578125 C212.484375,4.453125 213.023438,4.8515625 214.34375,5.1328125 L215.703125,5.421875 C217.96875,5.8984375 218.945312,6.875 218.945312,8.625 C218.945312,10.8984375 217.203125,12.2890625 214.375,12.2890625 C211.6875,12.2890625 209.945312,10.96875 209.859375,8.8671875 Z M223.664062,7.0859375 L223.664062,5.359375 L225.070312,5.359375 C226.140625,5.359375 226.867188,4.7265625 226.867188,3.8046875 C226.867188,2.9609375 226.203125,2.3203125 225.101562,2.3203125 C223.960938,2.3203125 223.257812,2.90625 223.179688,3.9140625 L221,3.9140625 C221.078125,1.8359375 222.679688,0.4375 225.21875,0.4375 C227.71875,0.4375 229.109375,1.8203125 229.101562,3.46875 C229.09375,4.8359375 228.234375,5.734375 227.023438,6.03125 L227.023438,6.1796875 C228.59375,6.40625 229.546875,7.40625 229.546875,8.9140625 C229.546875,10.890625 227.6875,12.2890625 225.140625,12.2890625 C222.59375,12.2890625 220.859375,10.8984375 220.757812,8.765625 L223.015625,8.765625 C223.085938,9.71875 223.898438,10.328125 225.109375,10.328125 C226.304688,10.328125 227.140625,9.6796875 227.140625,8.703125 C227.140625,7.703125 226.359375,7.0859375 225.09375,7.0859375 L223.664062,7.0859375 Z M210.007812,23.171875 C210.007812,20.9609375 211.726562,19.4375 214.195312,19.4375 C216.585938,19.4375 218.117188,20.8203125 218.117188,22.7265625 C218.117188,24.046875 217.539062,24.953125 215.664062,26.7109375 L213.320312,28.8984375 L213.320312,29.0390625 L218.273438,29.0390625 L218.273438,31 L210.140625,31 L210.140625,29.3515625 L214.09375,25.5703125 C215.5,24.21875 215.804688,23.703125 215.804688,22.9453125 C215.804688,22.046875 215.164062,21.3359375 214.0625,21.3359375 C212.914062,21.3359375 212.195312,22.09375 212.195312,23.171875 L210.007812,23.171875 Z M224.773438,31.2890625 C221.984375,31.2890625 220.296875,29.0859375 220.296875,25.34375 C220.296875,21.609375 222,19.4375 224.773438,19.4375 C227.539062,19.4375 229.25,21.609375 229.25,25.3515625 C229.25,29.078125 227.5625,31.2890625 224.773438,31.2890625 Z M224.773438,29.3671875 C226.070312,29.3671875 226.859375,28.015625 226.859375,25.34375 C226.859375,22.6875 226.0625,21.3671875 224.773438,21.3671875 C223.492188,21.3671875 222.6875,22.6953125 222.6875,25.34375 C222.6875,28.015625 223.484375,29.3671875 224.773438,29.3671875 Z M235.726562,31.2890625 C232.9375,31.2890625 231.25,29.0859375 231.25,25.34375 C231.25,21.609375 232.953125,19.4375 235.726562,19.4375 C238.492188,19.4375 240.203125,21.609375 240.203125,25.3515625 C240.203125,29.078125 238.515625,31.2890625 235.726562,31.2890625 Z M235.726562,29.3671875 C237.023438,29.3671875 237.8125,28.015625 237.8125,25.34375 C237.8125,22.6875 237.015625,21.3671875 235.726562,21.3671875 C234.445312,21.3671875 233.640625,22.6953125 233.640625,25.34375 C233.640625,28.015625 234.4375,29.3671875 235.726562,29.3671875 Z M246.84375,31.2890625 C244.140625,31.2890625 242.179688,29.359375 242.179688,25.4453125 C242.179688,21.703125 243.984375,19.4375 246.867188,19.4375 C249.085938,19.4375 250.734375,20.7265625 251.007812,22.609375 L248.671875,22.609375 C248.492188,21.84375 247.8125,21.375 246.898438,21.375 C245.335938,21.375 244.429688,22.765625 244.429688,25.203125 L244.570312,25.203125 C245.085938,24.1484375 246.132812,23.5546875 247.445312,23.5546875 C249.585938,23.5546875 251.15625,25.1328125 251.15625,27.28125 C251.15625,29.625 249.367188,31.2890625 246.84375,31.2890625 Z M246.820312,29.3515625 C247.992188,29.3515625 248.867188,28.4765625 248.867188,27.3359375 C248.867188,26.1640625 248.039062,25.328125 246.828125,25.328125 C245.617188,25.328125 244.78125,26.171875 244.78125,27.3046875 C244.78125,28.4609375 245.648438,29.3515625 246.820312,29.3515625 Z" id="S32006" fill="#FFFFFF" fill-rule="nonzero"></path>
                        <path d="M389.59375,114.171875 C389.59375,111.960938 391.3125,110.4375 393.78125,110.4375 C396.171875,110.4375 397.703125,111.820312 397.703125,113.726562 C397.703125,115.046875 397.125,115.953125 395.25,117.710938 L392.90625,119.898438 L392.90625,120.039062 L397.859375,120.039062 L397.859375,122 L389.726562,122 L389.726562,120.351562 L393.679688,116.570312 C395.085938,115.21875 395.390625,114.703125 395.390625,113.945312 C395.390625,113.046875 394.75,112.335938 393.648438,112.335938 C392.5,112.335938 391.78125,113.09375 391.78125,114.171875 L389.59375,114.171875 Z M404.359375,122.289062 C401.570312,122.289062 399.882812,120.085938 399.882812,116.34375 C399.882812,112.609375 401.585938,110.4375 404.359375,110.4375 C407.125,110.4375 408.835938,112.609375 408.835938,116.351562 C408.835938,120.078125 407.148438,122.289062 404.359375,122.289062 Z M404.359375,120.367188 C405.65625,120.367188 406.445312,119.015625 406.445312,116.34375 C406.445312,113.6875 405.648438,112.367188 404.359375,112.367188 C403.078125,112.367188 402.273438,113.695312 402.273438,116.34375 C402.273438,119.015625 403.070312,120.367188 404.359375,120.367188 Z M413.703125,122 L413.703125,113.023438 L413.5625,113.023438 L410.796875,114.929688 L410.796875,112.734375 L413.710938,110.726562 L416.0625,110.726562 L416.0625,122 L413.703125,122 Z M423.523438,122.289062 C420.734375,122.289062 419.046875,120.085938 419.046875,116.34375 C419.046875,112.609375 420.75,110.4375 423.523438,110.4375 C426.289062,110.4375 428,112.609375 428,116.351562 C428,120.078125 426.3125,122.289062 423.523438,122.289062 Z M423.523438,120.367188 C424.820312,120.367188 425.609375,119.015625 425.609375,116.34375 C425.609375,113.6875 424.8125,112.367188 423.523438,112.367188 C422.242188,112.367188 421.4375,113.695312 421.4375,116.34375 C421.4375,119.015625 422.234375,120.367188 423.523438,120.367188 Z M329.632812,138.984375 L329.632812,141 L322.164062,141 L322.164062,129.726562 L329.632812,129.726562 L329.632812,131.742188 L324.523438,131.742188 L324.523438,134.375 L329.34375,134.375 L329.34375,136.242188 L324.523438,136.242188 L324.523438,138.984375 L329.632812,138.984375 Z M331.96875,141 L331.96875,129.09375 L334.242188,129.09375 L334.242188,141 L331.96875,141 Z M339.710938,139.421875 C340.765625,139.421875 341.5625,138.75 341.5625,137.875 L341.5625,137.242188 L339.820312,137.351562 C338.84375,137.421875 338.367188,137.773438 338.367188,138.390625 C338.367188,139.03125 338.921875,139.421875 339.710938,139.421875 Z M338.960938,141.132812 C337.304688,141.132812 336.140625,140.117188 336.140625,138.539062 C336.140625,136.976562 337.335938,136.070312 339.476562,135.945312 L341.5625,135.820312 L341.5625,135.117188 C341.5625,134.398438 341.046875,133.992188 340.109375,133.992188 C339.289062,133.992188 338.742188,134.273438 338.554688,134.789062 L336.460938,134.789062 C336.609375,133.195312 338.070312,132.195312 340.234375,132.195312 C342.515625,132.195312 343.804688,133.273438 343.804688,135.117188 L343.804688,141 L341.601562,141 L341.601562,139.875 L341.460938,139.875 C341.015625,140.664062 340.078125,141.132812 338.960938,141.132812 Z M345.84375,134.914062 C345.84375,133.28125 347.28125,132.195312 349.429688,132.195312 C351.617188,132.195312 352.90625,133.109375 353.03125,134.757812 L350.929688,134.757812 C350.8125,134.203125 350.289062,133.859375 349.445312,133.859375 C348.632812,133.859375 348.03125,134.226562 348.03125,134.773438 C348.03125,135.195312 348.398438,135.453125 349.195312,135.632812 L350.8125,135.984375 C352.484375,136.351562 353.234375,137.054688 353.234375,138.34375 C353.234375,140.0625 351.695312,141.1875 349.4375,141.1875 C347.164062,141.1875 345.789062,140.257812 345.632812,138.601562 L347.851562,138.601562 C348.023438,139.1875 348.578125,139.523438 349.484375,139.523438 C350.367188,139.523438 350.976562,139.15625 350.976562,138.601562 C350.976562,138.179688 350.648438,137.921875 349.890625,137.757812 L348.328125,137.40625 C346.65625,137.039062 345.84375,136.242188 345.84375,134.914062 Z M355.710938,130.335938 L357.984375,130.335938 L357.984375,132.46875 L359.773438,132.46875 L359.773438,134.257812 L357.984375,134.257812 L357.984375,138.132812 C357.984375,138.882812 358.328125,139.226562 359.101562,139.226562 C359.398438,139.226562 359.554688,139.21875 359.773438,139.195312 L359.773438,140.929688 C359.492188,140.984375 359.070312,141.03125 358.632812,141.03125 C356.539062,141.03125 355.710938,140.351562 355.710938,138.671875 L355.710938,134.257812 L354.367188,134.257812 L354.367188,132.46875 L355.710938,132.46875 L355.710938,130.335938 Z M361.679688,141 L361.679688,132.382812 L363.953125,132.382812 L363.953125,141 L361.679688,141 Z M362.820312,131.09375 C362.117188,131.09375 361.53125,130.515625 361.53125,129.789062 C361.53125,129.0625 362.117188,128.492188 362.820312,128.492188 C363.53125,128.492188 364.109375,129.0625 364.109375,129.789062 C364.109375,130.515625 363.53125,131.09375 362.820312,131.09375 Z M373.875,135.421875 L371.75,135.421875 C371.59375,134.601562 371.007812,134.0625 370.039062,134.0625 C368.8125,134.0625 368.125,134.976562 368.125,136.671875 C368.125,138.390625 368.820312,139.320312 370.039062,139.320312 C370.96875,139.320312 371.578125,138.867188 371.75,138.015625 L373.875,138.015625 C373.6875,139.945312 372.28125,141.1875 370.039062,141.1875 C367.351562,141.1875 365.828125,139.5625 365.828125,136.671875 C365.828125,133.8125 367.34375,132.195312 370.039062,132.195312 C372.320312,132.195312 373.6875,133.460938 373.875,135.421875 Z M375.453125,134.914062 C375.453125,133.28125 376.890625,132.195312 379.039062,132.195312 C381.226562,132.195312 382.515625,133.109375 382.640625,134.757812 L380.539062,134.757812 C380.421875,134.203125 379.898438,133.859375 379.054688,133.859375 C378.242188,133.859375 377.640625,134.226562 377.640625,134.773438 C377.640625,135.195312 378.007812,135.453125 378.804688,135.632812 L380.421875,135.984375 C382.09375,136.351562 382.84375,137.054688 382.84375,138.34375 C382.84375,140.0625 381.304688,141.1875 379.046875,141.1875 C376.773438,141.1875 375.398438,140.257812 375.242188,138.601562 L377.460938,138.601562 C377.632812,139.1875 378.1875,139.523438 379.09375,139.523438 C379.976562,139.523438 380.585938,139.15625 380.585938,138.601562 C380.585938,138.179688 380.257812,137.921875 379.5,137.757812 L377.9375,137.40625 C376.265625,137.039062 375.453125,136.242188 375.453125,134.914062 Z M388.4375,133.9375 C387.382812,133.9375 386.640625,134.671875 386.5625,135.789062 L390.234375,135.789062 C390.1875,134.648438 389.5,133.9375 388.4375,133.9375 Z M390.28125,138.546875 L392.398438,138.546875 C392.0625,140.164062 390.570312,141.1875 388.460938,141.1875 C385.835938,141.1875 384.289062,139.53125 384.289062,136.734375 C384.289062,133.929688 385.867188,132.195312 388.429688,132.195312 C390.96875,132.195312 392.46875,133.8125 392.46875,136.546875 L392.46875,137.242188 L386.554688,137.242188 L386.554688,137.359375 C386.585938,138.640625 387.335938,139.4375 388.523438,139.4375 C389.421875,139.4375 390.039062,139.117188 390.28125,138.546875 Z M397.4375,139.421875 C398.492188,139.421875 399.289062,138.75 399.289062,137.875 L399.289062,137.242188 L397.546875,137.351562 C396.570312,137.421875 396.09375,137.773438 396.09375,138.390625 C396.09375,139.03125 396.648438,139.421875 397.4375,139.421875 Z M396.6875,141.132812 C395.03125,141.132812 393.867188,140.117188 393.867188,138.539062 C393.867188,136.976562 395.0625,136.070312 397.203125,135.945312 L399.289062,135.820312 L399.289062,135.117188 C399.289062,134.398438 398.773438,133.992188 397.835938,133.992188 C397.015625,133.992188 396.46875,134.273438 396.28125,134.789062 L394.1875,134.789062 C394.335938,133.195312 395.796875,132.195312 397.960938,132.195312 C400.242188,132.195312 401.53125,133.273438 401.53125,135.117188 L401.53125,141 L399.328125,141 L399.328125,139.875 L399.1875,139.875 C398.742188,140.664062 397.804688,141.132812 396.6875,141.132812 Z M403.765625,141 L403.765625,132.382812 L405.96875,132.382812 L405.96875,133.757812 L406.109375,133.757812 C406.335938,132.898438 407.226562,132.242188 408.320312,132.242188 C408.632812,132.242188 409.015625,132.28125 409.210938,132.351562 L409.210938,134.421875 C409.03125,134.351562 408.5,134.28125 408.132812,134.28125 C406.890625,134.28125 406.039062,135.015625 406.039062,136.226562 L406.039062,141 L403.765625,141 Z M418.15625,135.421875 L416.03125,135.421875 C415.875,134.601562 415.289062,134.0625 414.320312,134.0625 C413.09375,134.0625 412.40625,134.976562 412.40625,136.671875 C412.40625,138.390625 413.101562,139.320312 414.320312,139.320312 C415.25,139.320312 415.859375,138.867188 416.03125,138.015625 L418.15625,138.015625 C417.96875,139.945312 416.5625,141.1875 414.320312,141.1875 C411.632812,141.1875 410.109375,139.5625 410.109375,136.671875 C410.109375,133.8125 411.625,132.195312 414.320312,132.195312 C416.601562,132.195312 417.96875,133.460938 418.15625,135.421875 Z M420.007812,141 L420.007812,129.09375 L422.242188,129.09375 L422.242188,133.796875 L422.382812,133.796875 C422.78125,132.8125 423.71875,132.21875 424.984375,132.21875 C426.835938,132.21875 427.9375,133.382812 427.9375,135.453125 L427.9375,141 L425.664062,141 L425.664062,135.992188 C425.664062,134.796875 425.109375,134.179688 424.078125,134.179688 C422.9375,134.179688 422.28125,134.9375 422.28125,136.054688 L422.28125,141 L420.007812,141 Z" id="2010Elasticsearch" fill="#FFFFFF" fill-rule="nonzero"></path>
                        <path d="M453.671875,144.171875 C453.671875,141.960938 455.390625,140.4375 457.859375,140.4375 C460.25,140.4375 461.78125,141.820312 461.78125,143.726562 C461.78125,145.046875 461.203125,145.953125 459.328125,147.710938 L456.984375,149.898438 L456.984375,150.039062 L461.9375,150.039062 L461.9375,152 L453.804688,152 L453.804688,150.351562 L457.757812,146.570312 C459.164062,145.21875 459.46875,144.703125 459.46875,143.945312 C459.46875,143.046875 458.828125,142.335938 457.726562,142.335938 C456.578125,142.335938 455.859375,143.09375 455.859375,144.171875 L453.671875,144.171875 Z M468.4375,152.289062 C465.648438,152.289062 463.960938,150.085938 463.960938,146.34375 C463.960938,142.609375 465.664062,140.4375 468.4375,140.4375 C471.203125,140.4375 472.914062,142.609375 472.914062,146.351562 C472.914062,150.078125 471.226562,152.289062 468.4375,152.289062 Z M468.4375,150.367188 C469.734375,150.367188 470.523438,149.015625 470.523438,146.34375 C470.523438,143.6875 469.726562,142.367188 468.4375,142.367188 C467.15625,142.367188 466.351562,143.695312 466.351562,146.34375 C466.351562,149.015625 467.148438,150.367188 468.4375,150.367188 Z M477.78125,152 L477.78125,143.023438 L477.640625,143.023438 L474.875,144.929688 L474.875,142.734375 L477.789062,140.726562 L480.140625,140.726562 L480.140625,152 L477.78125,152 Z M485.992188,152 L485.992188,143.023438 L485.851562,143.023438 L483.085938,144.929688 L483.085938,142.734375 L486,140.726562 L488.351562,140.726562 L488.351562,152 L485.992188,152 Z M451.382812,171 L449.023438,171 L449.023438,166.289062 L443.945312,166.289062 L443.945312,171 L441.585938,171 L441.585938,159.726562 L443.945312,159.726562 L443.945312,164.273438 L449.023438,164.273438 L449.023438,159.726562 L451.382812,159.726562 L451.382812,171 Z M457,169.421875 C458.054688,169.421875 458.851562,168.75 458.851562,167.875 L458.851562,167.242188 L457.109375,167.351562 C456.132812,167.421875 455.65625,167.773438 455.65625,168.390625 C455.65625,169.03125 456.210938,169.421875 457,169.421875 Z M456.25,171.132812 C454.59375,171.132812 453.429688,170.117188 453.429688,168.539062 C453.429688,166.976562 454.625,166.070312 456.765625,165.945312 L458.851562,165.820312 L458.851562,165.117188 C458.851562,164.398438 458.335938,163.992188 457.398438,163.992188 C456.578125,163.992188 456.03125,164.273438 455.84375,164.789062 L453.75,164.789062 C453.898438,163.195312 455.359375,162.195312 457.523438,162.195312 C459.804688,162.195312 461.09375,163.273438 461.09375,165.117188 L461.09375,171 L458.890625,171 L458.890625,169.875 L458.75,169.875 C458.304688,170.664062 457.367188,171.132812 456.25,171.132812 Z M466.414062,171.132812 C464.242188,171.132812 462.90625,169.429688 462.90625,166.679688 C462.90625,163.9375 464.25,162.242188 466.414062,162.242188 C467.578125,162.242188 468.539062,162.804688 468.984375,163.757812 L469.117188,163.757812 L469.117188,159.09375 L471.390625,159.09375 L471.390625,171 L469.1875,171 L469.1875,169.648438 L469.046875,169.648438 C468.585938,170.578125 467.609375,171.132812 466.414062,171.132812 Z M467.1875,164.148438 C465.976562,164.148438 465.242188,165.109375 465.242188,166.6875 C465.242188,168.28125 465.96875,169.234375 467.1875,169.234375 C468.40625,169.234375 469.140625,168.273438 469.140625,166.695312 C469.140625,165.125 468.398438,164.148438 467.1875,164.148438 Z M477.570312,171.1875 C474.921875,171.1875 473.328125,169.507812 473.328125,166.6875 C473.328125,163.898438 474.945312,162.195312 477.570312,162.195312 C480.195312,162.195312 481.8125,163.890625 481.8125,166.6875 C481.8125,169.507812 480.21875,171.1875 477.570312,171.1875 Z M477.570312,169.328125 C478.78125,169.328125 479.476562,168.359375 479.476562,166.6875 C479.476562,165.03125 478.773438,164.054688 477.570312,164.054688 C476.359375,164.054688 475.664062,165.03125 475.664062,166.6875 C475.664062,168.367188 476.351562,169.328125 477.570312,169.328125 Z M487.484375,171.1875 C484.835938,171.1875 483.242188,169.507812 483.242188,166.6875 C483.242188,163.898438 484.859375,162.195312 487.484375,162.195312 C490.109375,162.195312 491.726562,163.890625 491.726562,166.6875 C491.726562,169.507812 490.132812,171.1875 487.484375,171.1875 Z M487.484375,169.328125 C488.695312,169.328125 489.390625,168.359375 489.390625,166.6875 C489.390625,165.03125 488.6875,164.054688 487.484375,164.054688 C486.273438,164.054688 485.578125,165.03125 485.578125,166.6875 C485.578125,168.367188 486.265625,169.328125 487.484375,169.328125 Z M498.554688,162.242188 C500.734375,162.242188 502.070312,163.898438 502.070312,166.6875 C502.070312,169.46875 500.75,171.132812 498.59375,171.132812 C497.359375,171.132812 496.414062,170.59375 495.992188,169.679688 L495.851562,169.679688 L495.851562,173.859375 L493.578125,173.859375 L493.578125,162.382812 L495.78125,162.382812 L495.78125,163.796875 L495.921875,163.796875 C496.390625,162.828125 497.367188,162.242188 498.554688,162.242188 Z M497.78125,169.234375 C499.007812,169.234375 499.734375,168.28125 499.734375,166.6875 C499.734375,165.109375 499,164.148438 497.789062,164.148438 C496.578125,164.148438 495.828125,165.117188 495.828125,166.695312 C495.828125,168.273438 496.578125,169.234375 497.78125,169.234375 Z" id="2011Hadoop" fill="#FFFFFF" fill-rule="nonzero"></path>
                        <path d="M512.007812,114.171875 C512.007812,111.960938 513.726562,110.4375 516.195312,110.4375 C518.585938,110.4375 520.117188,111.820312 520.117188,113.726562 C520.117188,115.046875 519.539062,115.953125 517.664062,117.710938 L515.320312,119.898438 L515.320312,120.039062 L520.273438,120.039062 L520.273438,122 L512.140625,122 L512.140625,120.351562 L516.09375,116.570312 C517.5,115.21875 517.804688,114.703125 517.804688,113.945312 C517.804688,113.046875 517.164062,112.335938 516.0625,112.335938 C514.914062,112.335938 514.195312,113.09375 514.195312,114.171875 L512.007812,114.171875 Z M526.773438,122.289062 C523.984375,122.289062 522.296875,120.085938 522.296875,116.34375 C522.296875,112.609375 524,110.4375 526.773438,110.4375 C529.539062,110.4375 531.25,112.609375 531.25,116.351562 C531.25,120.078125 529.5625,122.289062 526.773438,122.289062 Z M526.773438,120.367188 C528.070312,120.367188 528.859375,119.015625 528.859375,116.34375 C528.859375,113.6875 528.0625,112.367188 526.773438,112.367188 C525.492188,112.367188 524.6875,113.695312 524.6875,116.34375 C524.6875,119.015625 525.484375,120.367188 526.773438,120.367188 Z M536.117188,122 L536.117188,113.023438 L535.976562,113.023438 L533.210938,114.929688 L533.210938,112.734375 L536.125,110.726562 L538.476562,110.726562 L538.476562,122 L536.117188,122 Z M541.46875,114.171875 C541.46875,111.960938 543.1875,110.4375 545.65625,110.4375 C548.046875,110.4375 549.578125,111.820312 549.578125,113.726562 C549.578125,115.046875 549,115.953125 547.125,117.710938 L544.78125,119.898438 L544.78125,120.039062 L549.734375,120.039062 L549.734375,122 L541.601562,122 L541.601562,120.351562 L545.554688,116.570312 C546.960938,115.21875 547.265625,114.703125 547.265625,113.945312 C547.265625,113.046875 546.625,112.335938 545.523438,112.335938 C544.375,112.335938 543.65625,113.09375 543.65625,114.171875 L541.46875,114.171875 Z M514.726562,141 L512.367188,141 L512.367188,129.726562 L514.726562,129.726562 L514.726562,134.75 L514.867188,134.75 L519.03125,129.726562 L521.65625,129.726562 L517.546875,134.671875 L521.945312,141 L519.117188,141 L515.84375,136.28125 L514.726562,137.601562 L514.726562,141 Z M526.25,139.421875 C527.304688,139.421875 528.101562,138.75 528.101562,137.875 L528.101562,137.242188 L526.359375,137.351562 C525.382812,137.421875 524.90625,137.773438 524.90625,138.390625 C524.90625,139.03125 525.460938,139.421875 526.25,139.421875 Z M525.5,141.132812 C523.84375,141.132812 522.679688,140.117188 522.679688,138.539062 C522.679688,136.976562 523.875,136.070312 526.015625,135.945312 L528.101562,135.820312 L528.101562,135.117188 C528.101562,134.398438 527.585938,133.992188 526.648438,133.992188 C525.828125,133.992188 525.28125,134.273438 525.09375,134.789062 L523,134.789062 C523.148438,133.195312 524.609375,132.195312 526.773438,132.195312 C529.054688,132.195312 530.34375,133.273438 530.34375,135.117188 L530.34375,141 L528.140625,141 L528.140625,139.875 L528,139.875 C527.554688,140.664062 526.617188,141.132812 525.5,141.132812 Z M533.242188,141 L533.242188,134.257812 L531.851562,134.257812 L531.851562,132.46875 L533.242188,132.46875 L533.242188,131.59375 C533.242188,129.882812 534.117188,129.015625 536.195312,129.015625 C536.65625,129.015625 537.039062,129.046875 537.367188,129.101562 L537.367188,130.710938 C537.21875,130.695312 536.984375,130.671875 536.6875,130.671875 C535.796875,130.671875 535.46875,131.023438 535.46875,131.757812 L535.46875,132.46875 L537.296875,132.46875 L537.296875,134.257812 L535.515625,134.257812 L535.515625,141 L533.242188,141 Z M541.601562,135.75 L544.484375,132.382812 L547.070312,132.382812 L543.789062,136.078125 L547.296875,141 L544.601562,141 L542.085938,137.5 L541.460938,138.140625 L541.460938,141 L539.1875,141 L539.1875,129.09375 L541.460938,129.09375 L541.460938,135.75 L541.601562,135.75 Z M551.53125,139.421875 C552.585938,139.421875 553.382812,138.75 553.382812,137.875 L553.382812,137.242188 L551.640625,137.351562 C550.664062,137.421875 550.1875,137.773438 550.1875,138.390625 C550.1875,139.03125 550.742188,139.421875 551.53125,139.421875 Z M550.78125,141.132812 C549.125,141.132812 547.960938,140.117188 547.960938,138.539062 C547.960938,136.976562 549.15625,136.070312 551.296875,135.945312 L553.382812,135.820312 L553.382812,135.117188 C553.382812,134.398438 552.867188,133.992188 551.929688,133.992188 C551.109375,133.992188 550.5625,134.273438 550.375,134.789062 L548.28125,134.789062 C548.429688,133.195312 549.890625,132.195312 552.054688,132.195312 C554.335938,132.195312 555.625,133.273438 555.625,135.117188 L555.625,141 L553.421875,141 L553.421875,139.875 L553.28125,139.875 C552.835938,140.664062 551.898438,141.132812 550.78125,141.132812 Z" id="2012Kafka" fill="#FFFFFF" fill-rule="nonzero"></path>
                        <path d="M41.0078125,114.171875 C41.0078125,111.960938 42.7265625,110.4375 45.1953125,110.4375 C47.5859375,110.4375 49.1171875,111.820312 49.1171875,113.726562 C49.1171875,115.046875 48.5390625,115.953125 46.6640625,117.710938 L44.3203125,119.898438 L44.3203125,120.039062 L49.2734375,120.039062 L49.2734375,122 L41.140625,122 L41.140625,120.351562 L45.09375,116.570312 C46.5,115.21875 46.8046875,114.703125 46.8046875,113.945312 C46.8046875,113.046875 46.1640625,112.335938 45.0625,112.335938 C43.9140625,112.335938 43.1953125,113.09375 43.1953125,114.171875 L41.0078125,114.171875 Z M55.7734375,122.289062 C52.984375,122.289062 51.296875,120.085938 51.296875,116.34375 C51.296875,112.609375 53,110.4375 55.7734375,110.4375 C58.5390625,110.4375 60.25,112.609375 60.25,116.351562 C60.25,120.078125 58.5625,122.289062 55.7734375,122.289062 Z M55.7734375,120.367188 C57.0703125,120.367188 57.859375,119.015625 57.859375,116.34375 C57.859375,113.6875 57.0625,112.367188 55.7734375,112.367188 C54.4921875,112.367188 53.6875,113.695312 53.6875,116.34375 C53.6875,119.015625 54.484375,120.367188 55.7734375,120.367188 Z M66.7265625,122.289062 C63.9375,122.289062 62.25,120.085938 62.25,116.34375 C62.25,112.609375 63.953125,110.4375 66.7265625,110.4375 C69.4921875,110.4375 71.203125,112.609375 71.203125,116.351562 C71.203125,120.078125 69.515625,122.289062 66.7265625,122.289062 Z M66.7265625,120.367188 C68.0234375,120.367188 68.8125,119.015625 68.8125,116.34375 C68.8125,113.6875 68.015625,112.367188 66.7265625,112.367188 C65.4453125,112.367188 64.640625,113.695312 64.640625,116.34375 C64.640625,119.015625 65.4375,120.367188 66.7265625,120.367188 Z M75.9453125,117.085938 L75.9453125,115.359375 L77.3515625,115.359375 C78.421875,115.359375 79.1484375,114.726562 79.1484375,113.804688 C79.1484375,112.960938 78.484375,112.320312 77.3828125,112.320312 C76.2421875,112.320312 75.5390625,112.90625 75.4609375,113.914062 L73.28125,113.914062 C73.359375,111.835938 74.9609375,110.4375 77.5,110.4375 C80,110.4375 81.390625,111.820312 81.3828125,113.46875 C81.375,114.835938 80.515625,115.734375 79.3046875,116.03125 L79.3046875,116.179688 C80.875,116.40625 81.828125,117.40625 81.828125,118.914062 C81.828125,120.890625 79.96875,122.289062 77.421875,122.289062 C74.875,122.289062 73.140625,120.898438 73.0390625,118.765625 L75.296875,118.765625 C75.3671875,119.71875 76.1796875,120.328125 77.390625,120.328125 C78.5859375,120.328125 79.421875,119.679688 79.421875,118.703125 C79.421875,117.703125 78.640625,117.085938 77.375,117.085938 L75.9453125,117.085938 Z M40.859375,137.867188 L43.140625,137.867188 C43.25,138.78125 44.171875,139.367188 45.5,139.367188 C46.7265625,139.367188 47.59375,138.773438 47.59375,137.921875 C47.59375,137.203125 47.03125,136.789062 45.6484375,136.492188 L44.1796875,136.179688 C42.125,135.75 41.1171875,134.679688 41.1171875,132.960938 C41.1171875,130.835938 42.828125,129.4375 45.4296875,129.4375 C47.9140625,129.4375 49.671875,130.828125 49.7421875,132.835938 L47.5234375,132.835938 C47.4140625,131.945312 46.5859375,131.351562 45.4453125,131.351562 C44.265625,131.351562 43.484375,131.898438 43.484375,132.757812 C43.484375,133.453125 44.0234375,133.851562 45.34375,134.132812 L46.703125,134.421875 C48.96875,134.898438 49.9453125,135.875 49.9453125,137.625 C49.9453125,139.898438 48.203125,141.289062 45.375,141.289062 C42.6875,141.289062 40.9453125,139.96875 40.859375,137.867188 Z M56.921875,132.242188 C59.1015625,132.242188 60.4375,133.898438 60.4375,136.6875 C60.4375,139.46875 59.1171875,141.132812 56.9609375,141.132812 C55.7265625,141.132812 54.78125,140.59375 54.359375,139.679688 L54.21875,139.679688 L54.21875,143.859375 L51.9453125,143.859375 L51.9453125,132.382812 L54.1484375,132.382812 L54.1484375,133.796875 L54.2890625,133.796875 C54.7578125,132.828125 55.734375,132.242188 56.921875,132.242188 Z M56.1484375,139.234375 C57.375,139.234375 58.1015625,138.28125 58.1015625,136.6875 C58.1015625,135.109375 57.3671875,134.148438 56.15625,134.148438 C54.9453125,134.148438 54.1953125,135.117188 54.1953125,136.695312 C54.1953125,138.273438 54.9453125,139.234375 56.1484375,139.234375 Z M62.3671875,141 L62.3671875,129.09375 L64.640625,129.09375 L64.640625,141 L62.3671875,141 Z M74.796875,132.382812 L74.796875,141 L72.59375,141 L72.59375,139.617188 L72.453125,139.617188 C72.046875,140.617188 71.2421875,141.1875 69.9375,141.1875 C68.078125,141.1875 66.921875,140 66.921875,138 L66.921875,132.382812 L69.1953125,132.382812 L69.1953125,137.414062 C69.1953125,138.601562 69.734375,139.210938 70.78125,139.210938 C71.9140625,139.210938 72.5234375,138.5 72.5234375,137.351562 L72.5234375,132.382812 L74.796875,132.382812 Z M77.078125,141 L77.078125,132.382812 L79.28125,132.382812 L79.28125,133.765625 L79.421875,133.765625 C79.8203125,132.796875 80.6953125,132.195312 81.96875,132.195312 C83.8828125,132.195312 84.9140625,133.367188 84.9140625,135.429688 L84.9140625,141 L82.640625,141 L82.640625,135.96875 C82.640625,134.78125 82.1328125,134.15625 81.0546875,134.15625 C80,134.15625 79.3515625,134.898438 79.3515625,136.03125 L79.3515625,141 L77.078125,141 Z M89.609375,135.75 L92.4921875,132.382812 L95.078125,132.382812 L91.796875,136.078125 L95.3046875,141 L92.609375,141 L90.09375,137.5 L89.46875,138.140625 L89.46875,141 L87.1953125,141 L87.1953125,129.09375 L89.46875,129.09375 L89.46875,135.75 L89.609375,135.75 Z M97.078125,138.492188 L102.632812,136.554688 L102.632812,136.46875 L97.078125,134.492188 L97.078125,132.140625 L105.1875,135.429688 L105.1875,137.507812 L97.078125,140.804688 L97.078125,138.492188 Z" id="2003Splunk&gt;" fill="#FFFFFF" fill-rule="nonzero"></path>
                    </g>
                </g>
                <path d="M197.805664,50.5175781 L201.797852,50.5175781 C201.989258,52.1171875 203.602539,53.1425781 205.926758,53.1425781 C208.073242,53.1425781 209.59082,52.1035156 209.59082,50.6132812 C209.59082,49.3554688 208.606445,48.6308594 206.186523,48.1113281 L203.616211,47.5644531 C200.020508,46.8125 198.256836,44.9394531 198.256836,41.9316406 C198.256836,38.2128906 201.250977,35.765625 205.803711,35.765625 C210.151367,35.765625 213.227539,38.1992188 213.350586,41.7128906 L209.467773,41.7128906 C209.276367,40.1542969 207.827148,39.1152344 205.831055,39.1152344 C203.766602,39.1152344 202.399414,40.0722656 202.399414,41.5761719 C202.399414,42.7929688 203.342773,43.4902344 205.65332,43.9824219 L208.032227,44.4882812 C211.99707,45.3222656 213.706055,47.03125 213.706055,50.09375 C213.706055,54.0722656 210.657227,56.5058594 205.708008,56.5058594 C201.004883,56.5058594 197.956055,54.1953125 197.805664,50.5175781 Z M223.727539,43.640625 C221.881836,43.640625 220.583008,44.9257812 220.446289,46.8808594 L226.87207,46.8808594 C226.790039,44.8847656 225.586914,43.640625 223.727539,43.640625 Z M226.954102,51.7070312 L230.65918,51.7070312 C230.071289,54.5371094 227.459961,56.328125 223.768555,56.328125 C219.174805,56.328125 216.467773,53.4296875 216.467773,48.5351562 C216.467773,43.6269531 219.229492,40.5917969 223.713867,40.5917969 C228.157227,40.5917969 230.782227,43.421875 230.782227,48.2070312 L230.782227,49.4238281 L220.432617,49.4238281 L220.432617,49.6289062 C220.487305,51.8710938 221.799805,53.265625 223.87793,53.265625 C225.450195,53.265625 226.530273,52.7050781 226.954102,51.7070312 Z M239.477539,53.2382812 C241.323242,53.2382812 242.717773,52.0625 242.717773,50.53125 L242.717773,49.4238281 L239.668945,49.6152344 C237.959961,49.7382812 237.125977,50.3535156 237.125977,51.4335938 C237.125977,52.5546875 238.09668,53.2382812 239.477539,53.2382812 Z M238.165039,56.2324219 C235.266602,56.2324219 233.229492,54.4550781 233.229492,51.6933594 C233.229492,48.9589844 235.321289,47.3730469 239.067383,47.1542969 L242.717773,46.9355469 L242.717773,45.7050781 C242.717773,44.4472656 241.81543,43.7363281 240.174805,43.7363281 C238.739258,43.7363281 237.782227,44.2285156 237.454102,45.1308594 L233.790039,45.1308594 C234.049805,42.3417969 236.606445,40.5917969 240.393555,40.5917969 C244.385742,40.5917969 246.641602,42.4785156 246.641602,45.7050781 L246.641602,56 L242.786133,56 L242.786133,54.03125 L242.540039,54.03125 C241.760742,55.4121094 240.120117,56.2324219 238.165039,56.2324219 Z M250.551758,56 L250.551758,40.9199219 L254.407227,40.9199219 L254.407227,43.3808594 L254.65332,43.3808594 C255.268555,41.6582031 256.84082,40.5917969 258.823242,40.5917969 C260.942383,40.5917969 262.391602,41.6308594 262.993164,43.3808594 L263.239258,43.3808594 C263.936523,41.6992188 265.672852,40.5917969 267.77832,40.5917969 C270.786133,40.5917969 272.65918,42.546875 272.65918,45.6503906 L272.65918,56 L268.680664,56 L268.680664,46.703125 C268.680664,44.9121094 267.84668,44.0234375 266.165039,44.0234375 C264.551758,44.0234375 263.512695,45.171875 263.512695,46.7714844 L263.512695,56 L259.68457,56 L259.68457,46.5390625 C259.68457,44.9394531 258.754883,44.0234375 257.196289,44.0234375 C255.637695,44.0234375 254.530273,45.2402344 254.530273,46.921875 L254.530273,56 L250.551758,56 Z M276.651367,56 L276.651367,35.1640625 L280.629883,35.1640625 L280.629883,56 L276.651367,56 Z M291.280273,43.640625 C289.43457,43.640625 288.135742,44.9257812 287.999023,46.8808594 L294.424805,46.8808594 C294.342773,44.8847656 293.139648,43.640625 291.280273,43.640625 Z M294.506836,51.7070312 L298.211914,51.7070312 C297.624023,54.5371094 295.012695,56.328125 291.321289,56.328125 C286.727539,56.328125 284.020508,53.4296875 284.020508,48.5351562 C284.020508,43.6269531 286.782227,40.5917969 291.266602,40.5917969 C295.709961,40.5917969 298.334961,43.421875 298.334961,48.2070312 L298.334961,49.4238281 L287.985352,49.4238281 L287.985352,49.6289062 C288.040039,51.8710938 289.352539,53.265625 291.430664,53.265625 C293.00293,53.265625 294.083008,52.7050781 294.506836,51.7070312 Z M301.24707,45.3496094 C301.24707,42.4921875 303.762695,40.5917969 307.522461,40.5917969 C311.350586,40.5917969 313.606445,42.1914062 313.825195,45.0761719 L310.147461,45.0761719 C309.942383,44.1054688 309.026367,43.5039062 307.549805,43.5039062 C306.12793,43.5039062 305.075195,44.1464844 305.075195,45.1035156 C305.075195,45.8417969 305.717773,46.2929688 307.112305,46.6074219 L309.942383,47.2226562 C312.868164,47.8652344 314.180664,49.0957031 314.180664,51.3515625 C314.180664,54.359375 311.487305,56.328125 307.536133,56.328125 C303.557617,56.328125 301.151367,54.7011719 300.87793,51.8027344 L304.760742,51.8027344 C305.061523,52.828125 306.032227,53.4160156 307.618164,53.4160156 C309.163086,53.4160156 310.229492,52.7734375 310.229492,51.8027344 C310.229492,51.0644531 309.655273,50.6132812 308.329102,50.3261719 L305.594727,49.7109375 C302.668945,49.0683594 301.24707,47.6738281 301.24707,45.3496094 Z M316.833008,45.3496094 C316.833008,42.4921875 319.348633,40.5917969 323.108398,40.5917969 C326.936523,40.5917969 329.192383,42.1914062 329.411133,45.0761719 L325.733398,45.0761719 C325.52832,44.1054688 324.612305,43.5039062 323.135742,43.5039062 C321.713867,43.5039062 320.661133,44.1464844 320.661133,45.1035156 C320.661133,45.8417969 321.303711,46.2929688 322.698242,46.6074219 L325.52832,47.2226562 C328.454102,47.8652344 329.766602,49.0957031 329.766602,51.3515625 C329.766602,54.359375 327.073242,56.328125 323.12207,56.328125 C319.143555,56.328125 316.737305,54.7011719 316.463867,51.8027344 L320.34668,51.8027344 C320.647461,52.828125 321.618164,53.4160156 323.204102,53.4160156 C324.749023,53.4160156 325.81543,52.7734375 325.81543,51.8027344 C325.81543,51.0644531 325.241211,50.6132812 323.915039,50.3261719 L321.180664,49.7109375 C318.254883,49.0683594 316.833008,47.6738281 316.833008,45.3496094 Z M333.170898,56 L333.170898,35.1640625 L337.149414,35.1640625 L337.149414,56 L333.170898,56 Z M343.151367,61.4824219 C343.000977,61.4824219 341.797852,61.46875 341.633789,61.4414062 L341.633789,58.2421875 C341.770508,58.2695312 342.37207,58.2695312 342.536133,58.2695312 C344.026367,58.2695312 344.874023,57.7910156 345.202148,56.6425781 L345.338867,56.0957031 L340.047852,40.9199219 L344.436523,40.9199219 L347.608398,52.3496094 L347.854492,52.3496094 L351.026367,40.9199219 L355.237305,40.9199219 L350.041992,56.2324219 C348.756836,60.1152344 346.911133,61.4824219 343.151367,61.4824219 Z M374.52832,56 L370.399414,56 L370.399414,39.7988281 L364.479492,39.7988281 L364.479492,36.2714844 L380.448242,36.2714844 L380.448242,39.7988281 L374.52832,39.7988281 L374.52832,56 Z M382.129883,56 L382.129883,40.9199219 L385.985352,40.9199219 L385.985352,43.3261719 L386.231445,43.3261719 C386.62793,41.8222656 388.186523,40.6738281 390.100586,40.6738281 C390.647461,40.6738281 391.317383,40.7421875 391.65918,40.8652344 L391.65918,44.4882812 C391.344727,44.3652344 390.415039,44.2421875 389.772461,44.2421875 C387.598633,44.2421875 386.108398,45.5273438 386.108398,47.6464844 L386.108398,56 L382.129883,56 Z M399.479492,53.2382812 C401.325195,53.2382812 402.719727,52.0625 402.719727,50.53125 L402.719727,49.4238281 L399.670898,49.6152344 C397.961914,49.7382812 397.12793,50.3535156 397.12793,51.4335938 C397.12793,52.5546875 398.098633,53.2382812 399.479492,53.2382812 Z M398.166992,56.2324219 C395.268555,56.2324219 393.231445,54.4550781 393.231445,51.6933594 C393.231445,48.9589844 395.323242,47.3730469 399.069336,47.1542969 L402.719727,46.9355469 L402.719727,45.7050781 C402.719727,44.4472656 401.817383,43.7363281 400.176758,43.7363281 C398.741211,43.7363281 397.78418,44.2285156 397.456055,45.1308594 L393.791992,45.1308594 C394.051758,42.3417969 396.608398,40.5917969 400.395508,40.5917969 C404.387695,40.5917969 406.643555,42.4785156 406.643555,45.7050781 L406.643555,56 L402.788086,56 L402.788086,54.03125 L402.541992,54.03125 C401.762695,55.4121094 400.12207,56.2324219 398.166992,56.2324219 Z M410.553711,56 L410.553711,40.9199219 L414.40918,40.9199219 L414.40918,43.3398438 L414.655273,43.3398438 C415.352539,41.6445312 416.883789,40.5917969 419.112305,40.5917969 C422.461914,40.5917969 424.266602,42.6425781 424.266602,46.2519531 L424.266602,56 L420.288086,56 L420.288086,47.1953125 C420.288086,45.1171875 419.399414,44.0234375 417.512695,44.0234375 C415.666992,44.0234375 414.532227,45.3222656 414.532227,47.3046875 L414.532227,56 L410.553711,56 Z M427.780273,45.3496094 C427.780273,42.4921875 430.295898,40.5917969 434.055664,40.5917969 C437.883789,40.5917969 440.139648,42.1914062 440.358398,45.0761719 L436.680664,45.0761719 C436.475586,44.1054688 435.55957,43.5039062 434.083008,43.5039062 C432.661133,43.5039062 431.608398,44.1464844 431.608398,45.1035156 C431.608398,45.8417969 432.250977,46.2929688 433.645508,46.6074219 L436.475586,47.2226562 C439.401367,47.8652344 440.713867,49.0957031 440.713867,51.3515625 C440.713867,54.359375 438.020508,56.328125 434.069336,56.328125 C430.09082,56.328125 427.68457,54.7011719 427.411133,51.8027344 L431.293945,51.8027344 C431.594727,52.828125 432.56543,53.4160156 434.151367,53.4160156 C435.696289,53.4160156 436.762695,52.7734375 436.762695,51.8027344 C436.762695,51.0644531 436.188477,50.6132812 434.862305,50.3261719 L432.12793,49.7109375 C429.202148,49.0683594 427.780273,47.6738281 427.780273,45.3496094 Z M444.008789,56 L444.008789,40.9199219 L447.987305,40.9199219 L447.987305,56 L444.008789,56 Z M446.004883,38.6640625 C444.774414,38.6640625 443.749023,37.6523438 443.749023,36.3808594 C443.749023,35.109375 444.774414,34.1113281 446.004883,34.1113281 C447.249023,34.1113281 448.260742,35.109375 448.260742,36.3808594 C448.260742,37.6523438 447.249023,38.6640625 446.004883,38.6640625 Z M453.141602,37.3378906 L457.120117,37.3378906 L457.120117,41.0703125 L460.250977,41.0703125 L460.250977,44.2011719 L457.120117,44.2011719 L457.120117,50.9824219 C457.120117,52.2949219 457.72168,52.8964844 459.075195,52.8964844 C459.594727,52.8964844 459.868164,52.8828125 460.250977,52.8417969 L460.250977,55.8769531 C459.758789,55.9726562 459.020508,56.0546875 458.254883,56.0546875 C454.59082,56.0546875 453.141602,54.8652344 453.141602,51.9257812 L453.141602,44.2011719 L450.790039,44.2011719 L450.790039,41.0703125 L453.141602,41.0703125 L453.141602,37.3378906 Z M463.586914,56 L463.586914,40.9199219 L467.56543,40.9199219 L467.56543,56 L463.586914,56 Z M465.583008,38.6640625 C464.352539,38.6640625 463.327148,37.6523438 463.327148,36.3808594 C463.327148,35.109375 464.352539,34.1113281 465.583008,34.1113281 C466.827148,34.1113281 467.838867,35.109375 467.838867,36.3808594 C467.838867,37.6523438 466.827148,38.6640625 465.583008,38.6640625 Z M478.270508,56.328125 C473.635742,56.328125 470.84668,53.3886719 470.84668,48.453125 C470.84668,43.5722656 473.676758,40.5917969 478.270508,40.5917969 C482.864258,40.5917969 485.694336,43.5585938 485.694336,48.453125 C485.694336,53.3886719 482.905273,56.328125 478.270508,56.328125 Z M478.270508,53.0742188 C480.389648,53.0742188 481.606445,51.3789062 481.606445,48.453125 C481.606445,45.5546875 480.375977,43.8457031 478.270508,43.8457031 C476.151367,43.8457031 474.93457,45.5546875 474.93457,48.453125 C474.93457,51.3925781 476.137695,53.0742188 478.270508,53.0742188 Z M488.93457,56 L488.93457,40.9199219 L492.790039,40.9199219 L492.790039,43.3398438 L493.036133,43.3398438 C493.733398,41.6445312 495.264648,40.5917969 497.493164,40.5917969 C500.842773,40.5917969 502.647461,42.6425781 502.647461,46.2519531 L502.647461,56 L498.668945,56 L498.668945,47.1953125 C498.668945,45.1171875 497.780273,44.0234375 495.893555,44.0234375 C494.047852,44.0234375 492.913086,45.3222656 492.913086,47.3046875 L492.913086,56 L488.93457,56 Z M524.37207,56 L519.381836,56 L512.709961,36.2714844 L517.37207,36.2714844 L521.856445,51.3515625 L522.102539,51.3515625 L526.504883,36.2714844 L530.948242,36.2714844 L524.37207,56 Z M538.795898,43.640625 C536.950195,43.640625 535.651367,44.9257812 535.514648,46.8808594 L541.94043,46.8808594 C541.858398,44.8847656 540.655273,43.640625 538.795898,43.640625 Z M542.022461,51.7070312 L545.727539,51.7070312 C545.139648,54.5371094 542.52832,56.328125 538.836914,56.328125 C534.243164,56.328125 531.536133,53.4296875 531.536133,48.5351562 C531.536133,43.6269531 534.297852,40.5917969 538.782227,40.5917969 C543.225586,40.5917969 545.850586,43.421875 545.850586,48.2070312 L545.850586,49.4238281 L535.500977,49.4238281 L535.500977,49.6289062 C535.555664,51.8710938 536.868164,53.265625 538.946289,53.265625 C540.518555,53.265625 541.598633,52.7050781 542.022461,51.7070312 Z M549.104492,56 L549.104492,40.9199219 L552.959961,40.9199219 L552.959961,43.3398438 L553.206055,43.3398438 C553.90332,41.6445312 555.43457,40.5917969 557.663086,40.5917969 C561.012695,40.5917969 562.817383,42.6425781 562.817383,46.2519531 L562.817383,56 L558.838867,56 L558.838867,47.1953125 C558.838867,45.1171875 557.950195,44.0234375 556.063477,44.0234375 C554.217773,44.0234375 553.083008,45.3222656 553.083008,47.3046875 L553.083008,56 L549.104492,56 Z M572.073242,56.2324219 C568.272461,56.2324219 565.93457,53.2519531 565.93457,48.4394531 C565.93457,43.640625 568.286133,40.6738281 572.073242,40.6738281 C574.110352,40.6738281 575.791992,41.6582031 576.571289,43.3261719 L576.803711,43.3261719 L576.803711,35.1640625 L580.782227,35.1640625 L580.782227,56 L576.926758,56 L576.926758,53.6347656 L576.680664,53.6347656 C575.874023,55.2617188 574.165039,56.2324219 572.073242,56.2324219 Z M573.426758,44.0097656 C571.307617,44.0097656 570.022461,45.6914062 570.022461,48.453125 C570.022461,51.2421875 571.293945,52.9101562 573.426758,52.9101562 C575.55957,52.9101562 576.844727,51.2285156 576.844727,48.4667969 C576.844727,45.71875 575.545898,44.0097656 573.426758,44.0097656 Z M591.59668,56.328125 C586.961914,56.328125 584.172852,53.3886719 584.172852,48.453125 C584.172852,43.5722656 587.00293,40.5917969 591.59668,40.5917969 C596.19043,40.5917969 599.020508,43.5585938 599.020508,48.453125 C599.020508,53.3886719 596.231445,56.328125 591.59668,56.328125 Z M591.59668,53.0742188 C593.71582,53.0742188 594.932617,51.3789062 594.932617,48.453125 C594.932617,45.5546875 593.702148,43.8457031 591.59668,43.8457031 C589.477539,43.8457031 588.260742,45.5546875 588.260742,48.453125 C588.260742,51.3925781 589.463867,53.0742188 591.59668,53.0742188 Z M602.260742,56 L602.260742,40.9199219 L606.116211,40.9199219 L606.116211,43.3261719 L606.362305,43.3261719 C606.758789,41.8222656 608.317383,40.6738281 610.231445,40.6738281 C610.77832,40.6738281 611.448242,40.7421875 611.790039,40.8652344 L611.790039,44.4882812 C611.475586,44.3652344 610.545898,44.2421875 609.90332,44.2421875 C607.729492,44.2421875 606.239258,45.5273438 606.239258,47.6464844 L606.239258,56 L602.260742,56 Z M613.758789,45.3496094 C613.758789,42.4921875 616.274414,40.5917969 620.03418,40.5917969 C623.862305,40.5917969 626.118164,42.1914062 626.336914,45.0761719 L622.65918,45.0761719 C622.454102,44.1054688 621.538086,43.5039062 620.061523,43.5039062 C618.639648,43.5039062 617.586914,44.1464844 617.586914,45.1035156 C617.586914,45.8417969 618.229492,46.2929688 619.624023,46.6074219 L622.454102,47.2226562 C625.379883,47.8652344 626.692383,49.0957031 626.692383,51.3515625 C626.692383,54.359375 623.999023,56.328125 620.047852,56.328125 C616.069336,56.328125 613.663086,54.7011719 613.389648,51.8027344 L617.272461,51.8027344 C617.573242,52.828125 618.543945,53.4160156 620.129883,53.4160156 C621.674805,53.4160156 622.741211,52.7734375 622.741211,51.8027344 C622.741211,51.0644531 622.166992,50.6132812 620.84082,50.3261719 L618.106445,49.7109375 C615.180664,49.0683594 613.758789,47.6738281 613.758789,45.3496094 Z M632.831055,56.3691406 C631.368164,56.3691406 630.411133,55.3710938 630.411133,53.9902344 C630.411133,52.609375 631.368164,51.625 632.831055,51.625 C634.307617,51.625 635.250977,52.609375 635.250977,53.9902344 C635.250977,55.3710938 634.307617,56.3691406 632.831055,56.3691406 Z M269.248047,86.4726562 L269.248047,90 L256.177734,90 L256.177734,70.2714844 L269.248047,70.2714844 L269.248047,73.7988281 L260.306641,73.7988281 L260.306641,78.40625 L268.742188,78.40625 L268.742188,81.6738281 L260.306641,81.6738281 L260.306641,86.4726562 L269.248047,86.4726562 Z M286.830078,74.9199219 L281.621094,90 L277.136719,90 L271.900391,74.9199219 L276.179688,74.9199219 L279.296875,86.1582031 L279.542969,86.1582031 L282.632812,74.9199219 L286.830078,74.9199219 Z M295.59375,90.328125 C290.958984,90.328125 288.169922,87.3886719 288.169922,82.453125 C288.169922,77.5722656 291,74.5917969 295.59375,74.5917969 C300.1875,74.5917969 303.017578,77.5585938 303.017578,82.453125 C303.017578,87.3886719 300.228516,90.328125 295.59375,90.328125 Z M295.59375,87.0742188 C297.712891,87.0742188 298.929688,85.3789062 298.929688,82.453125 C298.929688,79.5546875 297.699219,77.8457031 295.59375,77.8457031 C293.474609,77.8457031 292.257812,79.5546875 292.257812,82.453125 C292.257812,85.3925781 293.460938,87.0742188 295.59375,87.0742188 Z M306.394531,90 L306.394531,69.1640625 L310.373047,69.1640625 L310.373047,90 L306.394531,90 Z M328.132812,74.9199219 L322.923828,90 L318.439453,90 L313.203125,74.9199219 L317.482422,74.9199219 L320.599609,86.1582031 L320.845703,86.1582031 L323.935547,74.9199219 L328.132812,74.9199219 Z M336.732422,77.640625 C334.886719,77.640625 333.587891,78.9257812 333.451172,80.8808594 L339.876953,80.8808594 C339.794922,78.8847656 338.591797,77.640625 336.732422,77.640625 Z M339.958984,85.7070312 L343.664062,85.7070312 C343.076172,88.5371094 340.464844,90.328125 336.773438,90.328125 C332.179688,90.328125 329.472656,87.4296875 329.472656,82.5351562 C329.472656,77.6269531 332.234375,74.5917969 336.71875,74.5917969 C341.162109,74.5917969 343.787109,77.421875 343.787109,82.2070312 L343.787109,83.4238281 L333.4375,83.4238281 L333.4375,83.6289062 C333.492188,85.8710938 334.804688,87.265625 336.882812,87.265625 C338.455078,87.265625 339.535156,86.7050781 339.958984,85.7070312 Z M366.277344,76.9433594 L362.585938,90 L358.689453,90 L353.466797,70.2714844 L357.759766,70.2714844 L360.835938,84.1757812 L361.054688,84.1757812 L364.650391,70.2714844 L368.136719,70.2714844 L371.800781,84.1757812 L372.019531,84.1757812 L375.068359,70.2714844 L379.333984,70.2714844 L374.097656,90 L370.228516,90 L366.496094,76.9433594 L366.277344,76.9433594 Z M382.546875,90 L382.546875,74.9199219 L386.525391,74.9199219 L386.525391,90 L382.546875,90 Z M384.542969,72.6640625 C383.3125,72.6640625 382.287109,71.6523438 382.287109,70.3808594 C382.287109,69.109375 383.3125,68.1113281 384.542969,68.1113281 C385.787109,68.1113281 386.798828,69.109375 386.798828,70.3808594 C386.798828,71.6523438 385.787109,72.6640625 384.542969,72.6640625 Z M391.679688,71.3378906 L395.658203,71.3378906 L395.658203,75.0703125 L398.789062,75.0703125 L398.789062,78.2011719 L395.658203,78.2011719 L395.658203,84.9824219 C395.658203,86.2949219 396.259766,86.8964844 397.613281,86.8964844 C398.132812,86.8964844 398.40625,86.8828125 398.789062,86.8417969 L398.789062,89.8769531 C398.296875,89.9726562 397.558594,90.0546875 396.792969,90.0546875 C393.128906,90.0546875 391.679688,88.8652344 391.679688,85.9257812 L391.679688,78.2011719 L389.328125,78.2011719 L389.328125,75.0703125 L391.679688,75.0703125 L391.679688,71.3378906 Z M402.234375,90 L402.234375,69.1640625 L406.144531,69.1640625 L406.144531,77.3945312 L406.390625,77.3945312 C407.087891,75.671875 408.728516,74.6328125 410.943359,74.6328125 C414.183594,74.6328125 416.111328,76.6699219 416.111328,80.2929688 L416.111328,90 L412.132812,90 L412.132812,81.2363281 C412.132812,79.1445312 411.162109,78.0644531 409.357422,78.0644531 C407.361328,78.0644531 406.212891,79.390625 406.212891,81.3457031 L406.212891,90 L402.234375,90 Z M436.496094,90 L432.367188,90 L432.367188,73.7988281 L426.447266,73.7988281 L426.447266,70.2714844 L442.416016,70.2714844 L442.416016,73.7988281 L436.496094,73.7988281 L436.496094,90 Z M445.806641,90 L445.806641,69.1640625 L449.716797,69.1640625 L449.716797,77.3945312 L449.962891,77.3945312 C450.660156,75.671875 452.300781,74.6328125 454.515625,74.6328125 C457.755859,74.6328125 459.683594,76.6699219 459.683594,80.2929688 L459.683594,90 L455.705078,90 L455.705078,81.2363281 C455.705078,79.1445312 454.734375,78.0644531 452.929688,78.0644531 C450.933594,78.0644531 449.785156,79.390625 449.785156,81.3457031 L449.785156,90 L445.806641,90 Z M470.060547,77.640625 C468.214844,77.640625 466.916016,78.9257812 466.779297,80.8808594 L473.205078,80.8808594 C473.123047,78.8847656 471.919922,77.640625 470.060547,77.640625 Z M473.287109,85.7070312 L476.992188,85.7070312 C476.404297,88.5371094 473.792969,90.328125 470.101562,90.328125 C465.507812,90.328125 462.800781,87.4296875 462.800781,82.5351562 C462.800781,77.6269531 465.5625,74.5917969 470.046875,74.5917969 C474.490234,74.5917969 477.115234,77.421875 477.115234,82.2070312 L477.115234,83.4238281 L466.765625,83.4238281 L466.765625,83.6289062 C466.820312,85.8710938 468.132812,87.265625 470.210938,87.265625 C471.783203,87.265625 472.863281,86.7050781 473.287109,85.7070312 Z M496.898438,90 L492.769531,90 L492.769531,73.7988281 L486.849609,73.7988281 L486.849609,70.2714844 L502.818359,70.2714844 L502.818359,73.7988281 L496.898438,73.7988281 L496.898438,90 Z M505.826172,90 L505.826172,74.9199219 L509.804688,74.9199219 L509.804688,90 L505.826172,90 Z M507.822266,72.6640625 C506.591797,72.6640625 505.566406,71.6523438 505.566406,70.3808594 C505.566406,69.109375 506.591797,68.1113281 507.822266,68.1113281 C509.066406,68.1113281 510.078125,69.109375 510.078125,70.3808594 C510.078125,71.6523438 509.066406,72.6640625 507.822266,72.6640625 Z M513.824219,90 L513.824219,74.9199219 L517.679688,74.9199219 L517.679688,77.3808594 L517.925781,77.3808594 C518.541016,75.6582031 520.113281,74.5917969 522.095703,74.5917969 C524.214844,74.5917969 525.664062,75.6308594 526.265625,77.3808594 L526.511719,77.3808594 C527.208984,75.6992188 528.945312,74.5917969 531.050781,74.5917969 C534.058594,74.5917969 535.931641,76.546875 535.931641,79.6503906 L535.931641,90 L531.953125,90 L531.953125,80.703125 C531.953125,78.9121094 531.119141,78.0234375 529.4375,78.0234375 C527.824219,78.0234375 526.785156,79.171875 526.785156,80.7714844 L526.785156,90 L522.957031,90 L522.957031,80.5390625 C522.957031,78.9394531 522.027344,78.0234375 520.46875,78.0234375 C518.910156,78.0234375 517.802734,79.2402344 517.802734,80.921875 L517.802734,90 L513.824219,90 Z M546.308594,77.640625 C544.462891,77.640625 543.164062,78.9257812 543.027344,80.8808594 L549.453125,80.8808594 C549.371094,78.8847656 548.167969,77.640625 546.308594,77.640625 Z M549.535156,85.7070312 L553.240234,85.7070312 C552.652344,88.5371094 550.041016,90.328125 546.349609,90.328125 C541.755859,90.328125 539.048828,87.4296875 539.048828,82.5351562 C539.048828,77.6269531 541.810547,74.5917969 546.294922,74.5917969 C550.738281,74.5917969 553.363281,77.421875 553.363281,82.2070312 L553.363281,83.4238281 L543.013672,83.4238281 L543.013672,83.6289062 C543.068359,85.8710938 544.380859,87.265625 546.458984,87.265625 C548.03125,87.265625 549.111328,86.7050781 549.535156,85.7070312 Z M556.275391,79.3496094 C556.275391,76.4921875 558.791016,74.5917969 562.550781,74.5917969 C566.378906,74.5917969 568.634766,76.1914062 568.853516,79.0761719 L565.175781,79.0761719 C564.970703,78.1054688 564.054688,77.5039062 562.578125,77.5039062 C561.15625,77.5039062 560.103516,78.1464844 560.103516,79.1035156 C560.103516,79.8417969 560.746094,80.2929688 562.140625,80.6074219 L564.970703,81.2226562 C567.896484,81.8652344 569.208984,83.0957031 569.208984,85.3515625 C569.208984,88.359375 566.515625,90.328125 562.564453,90.328125 C558.585938,90.328125 556.179688,88.7011719 555.90625,85.8027344 L559.789062,85.8027344 C560.089844,86.828125 561.060547,87.4160156 562.646484,87.4160156 C564.191406,87.4160156 565.257812,86.7734375 565.257812,85.8027344 C565.257812,85.0644531 564.683594,84.6132812 563.357422,84.3261719 L560.623047,83.7109375 C557.697266,83.0683594 556.275391,81.6738281 556.275391,79.3496094 Z M575.347656,90.3691406 C573.884766,90.3691406 572.927734,89.3710938 572.927734,87.9902344 C572.927734,86.609375 573.884766,85.625 575.347656,85.625 C576.824219,85.625 577.767578,86.609375 577.767578,87.9902344 C577.767578,89.3710938 576.824219,90.3691406 575.347656,90.3691406 Z" id="SeamlesslyTransitionVendors.EvolveWithTheTimes." fill="#FFFFFF" fill-rule="nonzero" mask="url(#mask-3)"></path>
                <g id="Logo" mask="url(#mask-3)">
                    <g transform="translate(395.000000, 115.000000)" id="Group-16">
                        <g>
                            <g id="Group-15" transform="translate(8.612131, -0.000000)">
                                <polygon id="Triangle" fill="#001B3D" transform="translate(19.491805, 18.150270) scale(1, -1) translate(-19.491805, -18.150270) " points="19.491805 4.81694961 35.1051026 31.4835898 3.87850747 31.4835898"></polygon>
                                <polygon id="Triangle" fill="url(#linearGradient-4)" transform="translate(15.793919, 13.406415) scale(1, -1) translate(-15.793919, -13.406415) " points="15.7939188 0.0730946643 31.4072164 26.7397349 0.1806212 26.7397349"></polygon>
                            </g>
                            <g id="Symbol" transform="translate(0.000000, 4.199406)">
                                <polygon id="Triangle" fill="#001B3D" transform="translate(15.531122, 13.880688) scale(1, -1) translate(-15.531122, -13.880688) " points="15.5311223 0.617543247 31.0622447 27.1438327 0 27.1438327"></polygon>
                                <mask id="mask-7" fill="white">
                                    <use xlink:href="#path-6"></use>
                                </mask>
                                <use id="Mask" fill="url(#linearGradient-5)" transform="translate(15.689994, 6.807011) scale(1, -1) translate(-15.689994, -6.807011) " xlink:href="#path-6"></use>
                            </g>
                        </g>
                    </g>
                </g>
            </g>
        </g>
    </g>
</svg>