<?xml version="1.0" encoding="UTF-8"?>
<svg width="1514px" height="508px" viewBox="0 0 1514 508" version="1.1" xmlns="http://www.w3.org/2000/svg" xmlns:xlink="http://www.w3.org/1999/xlink">
    <!-- Generator: Sketch 54.1 (76490) - https://sketchapp.com -->
    <title>Centralized (Black)</title>
    <desc>Created with Sketch.</desc>
    <defs>
        <polygon id="path-1" points="20.3924776 0.0353558656 30.7097611 17.112239 10.0751941 17.112239"></polygon>
        <polygon id="path-3" points="20.2518398 0.0353558656 30.4979697 17.112239 10.00571 17.112239"></polygon>
    </defs>
    <g id="Deployment:-Centralized-(No-Text)" stroke="none" stroke-width="1" fill="none" fill-rule="evenodd">
        <g id="Diagram" transform="translate(-20.000000, -293.000000)">
            <g id="Centralized-(Black)" transform="translate(13.000000, 23.000000)">
                <g id="Diagram" transform="translate(7.000000, 290.000000)">
                    <g id="Group-55" transform="translate(0.000000, 76.000000)">
                        <polygon id="Line-2" fill="#001B3D" fill-rule="nonzero" points="793.166601 37.5370608 792.387239 119.014279 789.387376 118.985584 790.166738 37.5083659 782.167104 37.4318462 791.848404 18.5235825 801.166235 37.6135805 793.166601 37.5370608"></polygon>
                        <g id="S3-Arrow" transform="translate(869.298615, 259.899588)">
                            <path d="M1.70530257e-13,-1.0658141e-14 C1.70530257e-13,-1.0658141e-14 34.3250833,23.6213992 119.922545,33.8506173 C177.567084,40.7397119 240.210027,39.3728395 274.976261,37.7467078" id="Stroke-12" stroke="#001B3D" stroke-width="4" stroke-linecap="round" stroke-linejoin="round" stroke-dasharray="32,20"></path>
                            <polygon id="Fill-13" fill="#001B3D" points="293.368833 36.6365597 274.549636 30.8460185 275.382578 44.6480741"></polygon>
                            <polygon id="Stroke-14" stroke="#001B3D" stroke-width="4" points="293.368833 36.636214 274.549636 30.8460905 275.382578 44.6487654"></polygon>
                        </g>
                        <g id="Search-Arrow" transform="translate(861.085214, 84.905556)">
                            <path d="M0,61.3450617 C0,61.3450617 23.0126296,37.9469136 109.905488,22.3711934 C170.136498,11.5744856 241.428099,8.05576132 279.507235,6.91213992" id="Stroke-15" stroke="#001B3D" stroke-width="4" stroke-linecap="round" stroke-linejoin="round" stroke-dasharray="4,13"></path>
                            <polygon id="Fill-16" fill="#001B3D" points="297.927173 6.54211934 279.355712 0.000288065844 279.633551 13.8247119"></polygon>
                            <polygon id="Stroke-17" stroke="#001B3D" stroke-width="4" points="297.927173 6.54197531 279.355712 1.90070182e-13 279.633551 13.8242798"></polygon>
                        </g>
                        <g id="Incoming-Arrows" transform="translate(113.668230, 76.008642)">
                            <path d="M30.9742798,204.984774 C50.9758436,189.296708 84.8199794,170.14465 140.521543,155.610288 C253.540576,126.119547 403.398333,129.505761 403.398333,129.505761" id="Stroke-1" stroke="#001B3D" stroke-width="4" stroke-linecap="round" stroke-linejoin="round"></path>
                            <path d="M-5.68434189e-14,20.2769547 C37.9760082,39.3872428 96.6973663,67.073251 158.371255,89.0872428 C263.415329,126.580453 327.629239,129.985391 327.629239,129.985391" id="Stroke-3" stroke="#001B3D" stroke-width="4" stroke-linecap="round" stroke-linejoin="round"></path>
                            <path d="M161.960988,6.39488462e-13 C164.792819,22.2617284 174.160144,50.6506173 200.437366,74.5644033 C252.517654,121.958436 346.532263,129.482716 346.532263,129.482716" id="Stroke-18" stroke="#001B3D" stroke-width="4" stroke-linecap="round" stroke-linejoin="round"></path>
                            <path d="M96.3423251,119.387449 C124.614259,120.810494 159.413045,122.475514 197.071605,124.085802 C291.906337,128.138889 360.282942,129.927778 360.282942,129.927778" id="Stroke-19" stroke="#001B3D" stroke-width="4" stroke-linecap="round" stroke-linejoin="round"></path>
                            <path d="M196.43714,196.930453 C198.726687,182.411934 206.455062,166.262963 226.349321,153.853086 C273.46249,124.463169 366.650782,129.865844 366.650782,129.865844" id="Stroke-20" stroke="#001B3D" stroke-width="4" stroke-linecap="round" stroke-linejoin="round"></path>
                            <path d="M348.56428,130.043004 L551.470658,128.053909" id="Stroke-27" stroke="#001B3D" stroke-width="4" stroke-linecap="round" stroke-linejoin="round"></path>
                            <polygon id="Fill-28" fill="#001B3D" points="569.906008 127.873436 551.402963 121.140905 551.538498 134.967418"></polygon>
                            <polygon id="Stroke-29" stroke="#001B3D" stroke-width="4" points="569.906008 127.873868 551.402963 121.140329 551.538498 134.96749"></polygon>
                        </g>
                        <g id="Box" transform="translate(705.000000, 141.000000)">
                            <polygon id="Stroke-1" stroke-opacity="0.0961538462" stroke="#001B3D" stroke-linecap="round" stroke-linejoin="round" points="0 89.6757825 84.7834721 125 169.565217 89.6757825 84.7834721 54.3478261"></polygon>
                            <polygon id="Stroke-7" stroke-opacity="0.0961538462" stroke="#001B3D" stroke-linecap="round" stroke-linejoin="round" points="83.6956522 2.17391304 169.565217 37.1827795 169.148366 89.1304348 83.8728138 54.5002935"></polygon>
                            <polygon id="Stroke-9" stroke-opacity="0.0961538462" stroke="#001B3D" stroke-linecap="round" stroke-linejoin="round" points="1.08695652 36.7341672 1.08695652 89.1304348 85.8695652 54.4528947 85.6927983 2.17391304"></polygon>
                            <polygon id="Fill-11" fill-opacity="0.6" fill="#E6E6E6" points="0.175398063 89.405844 0 35.6171378 84.6037715 0 169.565217 35.975252 169.286369 89.2802604 84.6037715 125"></polygon>
                            <polygon id="Stroke-13" stroke-opacity="0.0961538462" stroke="#001B3D" stroke-linecap="round" stroke-linejoin="round" points="0.175398063 89.4058511 0 35.6171558 84.6037715 0 169.565217 35.9752699 169.2863 89.2802675 84.6037715 125"></polygon>
                            <g id="Vector" transform="translate(29.347826, 27.173913)">
                                <polygon id="Fill-21" fill="#10E7FF" points="0 54.5875939 54.9575309 76.2327678 109.913793 54.5875939 54.9575309 32.9400848"></polygon>
                                <polygon id="Fill-22" fill="#10E7FF" points="0 21.6463415 0 54.5096267 56.3905547 76.2327678 56.3905547 43.6499206"></polygon>
                                <polygon id="Fill-23" fill="#10E7FF" points="56.3905547 43.4807282 110.869565 21.6463415 110.601471 54.3983236 56.3905547 76.2327678"></polygon>
                                <polygon id="Fill-24" fill="#10E7FF" points="55.4347826 0 110.869565 21.9765174 110.600393 54.5864263 55.5491618 32.8475976"></polygon>
                                <polygon id="Fill-25" fill="#10E7FF" points="0 21.6949821 0 54.5864263 55.4347826 32.817875 55.3201161 0"></polygon>
                                <polygon id="Fill-26" fill="#10E7FF" points="0.114692654 54.5252541 0 21.721522 55.3179235 0 110.869565 21.940001 110.687204 54.448658 55.3179235 76.2327678"></polygon>
                                <polygon id="Fill-21-Copy" fill-opacity="0.30736451" fill="#FFFFFF" points="0 21.647509 54.9575309 43.2926829 109.913793 21.647509 54.9575309 0"></polygon>
                            </g>
                            <polygon id="Stroke-3" stroke-opacity="0.0961538462" stroke="#001B3D" stroke-linecap="round" stroke-linejoin="round" points="1.08695652 38.0434783 1.08695652 90.3948785 85.8695652 125 85.8695652 73.0953695"></polygon>
                            <polygon id="Stroke-5" stroke-opacity="0.0961538462" stroke="#001B3D" stroke-linecap="round" stroke-linejoin="round" points="83.6956522 72.8258416 169.565217 38.0434783 169.146851 90.2176367 83.6956522 125"></polygon>
                        </g>
                        <g id="Client-3-Copy" transform="translate(0.041755, 35.523560)">
                            <polygon id="Fill-50" fill="#001B3D" points="-1.42108547e-14 25.5223457 70.7115226 50.9298971 141.427381 25.5223457 70.7115226 0.119259259"></polygon>
                            <polygon id="Fill-51" fill-opacity="0.1015" fill="#000000" points="0.534376543 51.4435185 0.534376543 25.4022222 71.2536626 5.54223334e-13 141.68664 25.4022222 141.68664 50.8079012 71.2536626 76.2145165 0.541419753 51.4435185"></polygon>
                            <path d="M74.8408169,31.7566667 L88.9848498,36.8365638 C90.9436975,37.5401646 90.9436975,38.6747119 88.9848498,39.3783128 L74.8408169,44.4582099 C72.8834095,45.1618107 69.7261646,45.1618107 67.768786,44.4582099 L53.6247531,39.3783128 C51.6658909,38.6747119 51.6658909,37.5401646 53.6247531,36.8365638 L67.768786,31.7566667 C69.7261646,31.0532099 72.8834095,31.0532099 74.8408169,31.7566667 Z" id="Fill-52" fill="#1AE7FF"></path>
                            <polygon id="Fill-53" fill="#3E4145" points="0.534376543 25.3958848 0.534376543 50.7989712 71.1105082 76.2046646 71.1105082 50.7989712"></polygon>
                            <polygon id="Fill-54" fill="#3E4145" points="71.1105082 50.8091975 141.68664 25.4026543 141.68664 50.8091975 71.1105082 76.2158704"></polygon>
                        </g>
                        <g id="Client-3-Copy-5" transform="translate(243.041755, 271.523560)">
                            <polygon id="Fill-50" fill="#001B3D" points="-1.42108547e-14 25.5223457 70.7115226 50.9298971 141.427381 25.5223457 70.7115226 0.119259259"></polygon>
                            <polygon id="Fill-51" fill-opacity="0.1015" fill="#000000" points="0.534376543 51.4435185 0.534376543 25.4022222 71.2536626 5.54223334e-13 141.68664 25.4022222 141.68664 50.8079012 71.2536626 76.2145165 0.541419753 51.4435185"></polygon>
                            <path d="M74.8408169,31.7566667 L88.9848498,36.8365638 C90.9436975,37.5401646 90.9436975,38.6747119 88.9848498,39.3783128 L74.8408169,44.4582099 C72.8834095,45.1618107 69.7261646,45.1618107 67.768786,44.4582099 L53.6247531,39.3783128 C51.6658909,38.6747119 51.6658909,37.5401646 53.6247531,36.8365638 L67.768786,31.7566667 C69.7261646,31.0532099 72.8834095,31.0532099 74.8408169,31.7566667 Z" id="Fill-52" fill="#1AE7FF"></path>
                            <polygon id="Fill-53" fill="#3E4145" points="0.534376543 25.3958848 0.534376543 50.7989712 71.1105082 76.2046646 71.1105082 50.7989712"></polygon>
                            <polygon id="Fill-54" fill="#3E4145" points="71.1105082 50.8091975 141.68664 25.4026543 141.68664 50.8091975 71.1105082 76.2158704"></polygon>
                        </g>
                        <g id="Client-3-Copy-3" transform="translate(70.041755, 155.523560)">
                            <polygon id="Fill-50" fill="#001B3D" points="-1.42108547e-14 25.5223457 70.7115226 50.9298971 141.427381 25.5223457 70.7115226 0.119259259"></polygon>
                            <polygon id="Fill-51" fill-opacity="0.1015" fill="#000000" points="0.534376543 51.4435185 0.534376543 25.4022222 71.2536626 5.54223334e-13 141.68664 25.4022222 141.68664 50.8079012 71.2536626 76.2145165 0.541419753 51.4435185"></polygon>
                            <path d="M74.8408169,31.7566667 L88.9848498,36.8365638 C90.9436975,37.5401646 90.9436975,38.6747119 88.9848498,39.3783128 L74.8408169,44.4582099 C72.8834095,45.1618107 69.7261646,45.1618107 67.768786,44.4582099 L53.6247531,39.3783128 C51.6658909,38.6747119 51.6658909,37.5401646 53.6247531,36.8365638 L67.768786,31.7566667 C69.7261646,31.0532099 72.8834095,31.0532099 74.8408169,31.7566667 Z" id="Fill-52" fill="#1AE7FF"></path>
                            <polygon id="Fill-53" fill="#3E4145" points="0.534376543 25.3958848 0.534376543 50.7989712 71.1105082 76.2046646 71.1105082 50.7989712"></polygon>
                            <polygon id="Fill-54" fill="#3E4145" points="71.1105082 50.8091975 141.68664 25.4026543 141.68664 50.8091975 71.1105082 76.2158704"></polygon>
                        </g>
                        <g id="Client-3-Copy-4" transform="translate(48.041755, 271.523560)">
                            <polygon id="Fill-50" fill="#001B3D" points="-1.42108547e-14 25.5223457 70.7115226 50.9298971 141.427381 25.5223457 70.7115226 0.119259259"></polygon>
                            <polygon id="Fill-51" fill-opacity="0.1015" fill="#000000" points="0.534376543 51.4435185 0.534376543 25.4022222 71.2536626 5.54223334e-13 141.68664 25.4022222 141.68664 50.8079012 71.2536626 76.2145165 0.541419753 51.4435185"></polygon>
                            <path d="M74.8408169,31.7566667 L88.9848498,36.8365638 C90.9436975,37.5401646 90.9436975,38.6747119 88.9848498,39.3783128 L74.8408169,44.4582099 C72.8834095,45.1618107 69.7261646,45.1618107 67.768786,44.4582099 L53.6247531,39.3783128 C51.6658909,38.6747119 51.6658909,37.5401646 53.6247531,36.8365638 L67.768786,31.7566667 C69.7261646,31.0532099 72.8834095,31.0532099 74.8408169,31.7566667 Z" id="Fill-52" fill="#1AE7FF"></path>
                            <polygon id="Fill-53" fill="#3E4145" points="0.534376543 25.3958848 0.534376543 50.7989712 71.1105082 76.2046646 71.1105082 50.7989712"></polygon>
                            <polygon id="Fill-54" fill="#3E4145" points="71.1105082 50.8091975 141.68664 25.4026543 141.68664 50.8091975 71.1105082 76.2158704"></polygon>
                        </g>
                        <g id="Client-3-Copy-2" transform="translate(205.041755, 0.523560)">
                            <polygon id="Fill-50" fill="#001B3D" points="-1.42108547e-14 25.5223457 70.7115226 50.9298971 141.427381 25.5223457 70.7115226 0.119259259"></polygon>
                            <polygon id="Fill-51" fill-opacity="0.1015" fill="#000000" points="0.534376543 51.4435185 0.534376543 25.4022222 71.2536626 5.54223334e-13 141.68664 25.4022222 141.68664 50.8079012 71.2536626 76.2145165 0.541419753 51.4435185"></polygon>
                            <path d="M74.8408169,31.7566667 L88.9848498,36.8365638 C90.9436975,37.5401646 90.9436975,38.6747119 88.9848498,39.3783128 L74.8408169,44.4582099 C72.8834095,45.1618107 69.7261646,45.1618107 67.768786,44.4582099 L53.6247531,39.3783128 C51.6658909,38.6747119 51.6658909,37.5401646 53.6247531,36.8365638 L67.768786,31.7566667 C69.7261646,31.0532099 72.8834095,31.0532099 74.8408169,31.7566667 Z" id="Fill-52" fill="#1AE7FF"></path>
                            <polygon id="Fill-53" fill="#3E4145" points="0.534376543 25.3958848 0.534376543 50.7989712 71.1105082 76.2046646 71.1105082 50.7989712"></polygon>
                            <polygon id="Fill-54" fill="#3E4145" points="71.1105082 50.8091975 141.68664 25.4026543 141.68664 50.8091975 71.1105082 76.2158704"></polygon>
                        </g>
                    </g>
                    <g id="Search" transform="translate(1175.000000, 120.000000)">
                        <circle id="Oval-Copy" fill="#001B3D" cx="50" cy="50" r="50"></circle>
                        <g id="elasticsearch" transform="translate(6.000000, 7.000000)" fill-rule="nonzero">
                            <path d="M86.986131,45.6727115 C86.986131,38.3587758 82.4415494,32.038967 75.6956863,29.553649 C75.9797226,27.9914491 76.1217409,26.5002582 76.1217409,24.8670493 C76.1217409,11.3043137 65.1153325,0.297905309 51.552597,0.297905309 C43.6705883,0.297905309 36.2856433,4.06138688 31.6700526,10.5232138 C29.3977618,8.74798662 26.6284074,7.8248685 23.7170349,7.8248685 C16.5451172,7.8248685 10.651363,13.6476136 10.651363,20.8905404 C10.651363,22.4527403 10.9353993,24.0149402 11.4324629,25.4351219 C4.61559064,27.7784218 0,34.3112578 0,41.5541845 C0,48.8681206 4.54458155,55.2589384 11.3614538,57.7442565 C11.0774175,59.235447 10.9353993,60.7976472 10.9353993,62.4308561 C10.9353993,75.9225826 21.9418077,86.928991 35.4335343,86.928991 C43.386552,86.928991 50.7004877,83.0945003 55.3160783,76.7036825 C57.5883691,78.4789097 60.4287326,79.473037 63.3401053,79.473037 C70.512023,79.473037 76.4057772,73.6502918 76.4057772,66.4073647 C76.4057772,64.8451649 76.1217409,63.282965 75.6246773,61.8627835 C82.2995314,59.4484743 86.986131,52.9156386 86.986131,45.6727115 L86.986131,45.6727115 Z" id="Path" fill="#001B3D"></path>
                            <path d="M34.0133525,37.5066665 L53.3988332,46.3828024 L72.9973408,29.1986036 C73.2813775,27.7784218 73.4233955,26.3582401 73.4233955,24.8670493 C73.4233955,12.7955045 63.6241416,2.9962506 51.552597,2.9962506 C44.3096699,2.9962506 37.5638068,6.54670494 33.5162889,12.5114682 L30.2498709,29.4116308 L34.0133525,37.5066665 L34.0133525,37.5066665 Z" id="Path" fill="#FFFFFF"></path>
                            <path d="M13.917781,58.0282928 C13.6337446,59.4484743 13.4917265,60.9396652 13.4917265,62.4308561 C13.4917265,74.5024007 23.3619895,84.3726639 35.4335343,84.3726639 C42.7474701,84.3726639 49.4933335,80.7512005 53.6118605,74.786437 L56.8072692,57.8862745 L52.4757149,49.6492205 L33.0192252,40.7730846 L13.917781,58.0282928 L13.917781,58.0282928 Z" id="Path" fill="#FFFFFF"></path>
                            <path d="M13.7757628,24.4409947 L27.054462,27.5653946 L30.0368436,12.4404591 C28.1906073,11.0202774 25.9893257,10.3101865 23.6460258,10.3101865 C17.8942898,10.3101865 13.136681,14.9967862 13.136681,20.8195313 C13.136681,22.0266858 13.3497083,23.3048494 13.7757628,24.4409947 L13.7757628,24.4409947 Z" id="Path" fill="#FFFFFF"></path>
                            <path d="M12.6396174,27.6364036 C6.67485414,29.553649 2.55632712,35.305385 2.55632712,41.5541845 C2.55632712,47.660966 6.3198087,53.1286659 12.0005356,55.2589384 L30.6759254,38.3587758 L27.2674892,31.0448398 L12.6396174,27.6364036 L12.6396174,27.6364036 Z" id="Path" fill="#FFFFFF"></path>
                            <path d="M57.0202965,74.715428 C58.8665327,76.1356099 61.0678145,76.9167099 63.3401053,76.9167099 C69.0918412,76.9167099 73.8494501,72.2301099 73.8494501,66.4073647 C73.8494501,65.1292012 73.6364228,63.922047 73.2103681,62.7859014 L59.9316689,59.6615016 L57.0202965,74.715428 L57.0202965,74.715428 Z" id="Path" fill="#FFFFFF"></path>
                            <path d="M59.718642,56.1820563 L74.3465137,59.5904927 C80.3112769,57.6022382 84.4298039,51.9215113 84.4298039,45.6727115 C84.4298039,39.56593 80.6663222,34.1692395 74.9855953,31.9679579 L55.8131419,48.7261022 L59.718642,56.1820563 L59.718642,56.1820563 Z" id="Path" fill="#FFFFFF"></path>
                        </g>
                    </g>
                    <g id="Archive" transform="translate(1175.000000, 320.000000)">
                        <circle id="Oval-Copy-2" fill="#001B3D" cx="50" cy="50" r="50"></circle>
                        <path d="M34.45,61.05 C35.5500055,61.05 36.4583298,60.9583343 37.175,60.775 C37.8916703,60.5916658 38.4666645,60.3416683 38.9,60.025 C39.3333355,59.7083318 39.6333325,59.3333355 39.8,58.9 C39.9666675,58.4666645 40.05,57.983336 40.05,57.45 C40.05,56.316661 39.516672,55.3750038 38.45,54.625 C37.383328,53.8749963 35.550013,53.066671 32.95,52.2 C31.816661,51.799998 30.683339,51.3416693 29.55,50.825 C28.416661,50.3083308 27.4000045,49.6583373 26.5,48.875 C25.5999955,48.0916628 24.8666695,47.1416723 24.3,46.025 C23.7333305,44.9083278 23.45,43.550008 23.45,41.95 C23.45,40.349992 23.749997,38.9083398 24.35,37.625 C24.950003,36.3416603 25.7999945,35.2500045 26.9,34.35 C28.0000055,33.4499955 29.3333255,32.7583358 30.9,32.275 C32.4666745,31.7916643 34.2333235,31.55 36.2,31.55 C38.533345,31.55 40.5499915,31.7999975 42.25,32.3 C43.9500085,32.8000025 45.3499945,33.349997 46.45,33.95 L44.2,40.1 C43.2333285,39.5999975 42.1583392,39.1583353 40.975,38.775 C39.7916607,38.3916648 38.366675,38.2 36.7,38.2 C34.833324,38.2 33.4916707,38.4583308 32.675,38.975 C31.8583293,39.4916693 31.45,40.283328 31.45,41.35 C31.45,41.9833365 31.5999985,42.5166645 31.9,42.95 C32.2000015,43.3833355 32.6249972,43.7749983 33.175,44.125 C33.7250028,44.4750018 34.3583298,44.7916653 35.075,45.075 C35.7916703,45.3583348 36.583329,45.6499985 37.45,45.95 C39.250009,46.61667 40.81666,47.2749968 42.15,47.925 C43.48334,48.5750033 44.5916622,49.333329 45.475,50.2 C46.3583378,51.066671 47.0166645,52.0833275 47.45,53.25 C47.8833355,54.4166725 48.1,55.833325 48.1,57.5 C48.1,60.7333495 46.966678,63.2416578 44.7,65.025 C42.433322,66.8083423 39.0166895,67.7 34.45,67.7 C32.916659,67.7 31.5333395,67.6083343 30.3,67.425 C29.0666605,67.2416658 27.9750048,67.016668 27.025,66.75 C26.0749953,66.483332 25.2583367,66.2000015 24.575,65.9 C23.8916633,65.5999985 23.316669,65.316668 22.85,65.05 L25.05,58.85 C26.0833385,59.4166695 27.3583257,59.9249978 28.875,60.375 C30.3916743,60.8250023 32.249989,61.05 34.45,61.05 Z M61.5,67.75 C60.5999955,67.75 59.650005,67.6916672 58.65,67.575 C57.649995,67.4583327 56.683338,67.300001 55.75,67.1 C54.816662,66.899999 53.9666705,66.6833345 53.2,66.45 C52.4333295,66.2166655 51.8333355,66.000001 51.4,65.8 L52.85,59.6 C53.716671,59.9666685 54.8249932,60.3583313 56.175,60.775 C57.5250067,61.1916688 59.19999,61.4 61.2,61.4 C63.5000115,61.4 65.183328,60.966671 66.25,60.1 C67.316672,59.233329 67.85,58.066674 67.85,56.6 C67.85,55.6999955 67.6583352,54.9416698 67.275,54.325 C66.8916647,53.7083303 66.36667,53.2083353 65.7,52.825 C65.03333,52.4416648 64.2416712,52.1750007 63.325,52.025 C62.4083287,51.8749993 61.4333385,51.8 60.4,51.8 L57.5,51.8 L57.5,45.8 L60.8,45.8 C61.533337,45.8 62.2416632,45.733334 62.925,45.6 C63.6083367,45.466666 64.216664,45.2416683 64.75,44.925 C65.283336,44.6083318 65.7083317,44.1750028 66.025,43.625 C66.3416682,43.0749972 66.5,42.3833375 66.5,41.55 C66.5,40.9166635 66.366668,40.366669 66.1,39.9 C65.833332,39.433331 65.4916688,39.0500015 65.075,38.75 C64.6583313,38.4499985 64.1750028,38.2250008 63.625,38.075 C63.0749972,37.9249992 62.5166695,37.85 61.95,37.85 C60.5166595,37.85 59.1916727,38.0666645 57.975,38.5 C56.7583273,38.9333355 55.650005,39.4666635 54.65,40.1 L52,34.65 C52.533336,34.316665 53.1583297,33.9666685 53.875,33.6 C54.5916702,33.2333315 55.383329,32.9000015 56.25,32.6 C57.116671,32.2999985 58.0416617,32.050001 59.025,31.85 C60.0083382,31.649999 61.0499945,31.55 62.15,31.55 C64.1833435,31.55 65.9416592,31.7916643 67.425,32.275 C68.9083408,32.7583358 70.1333285,33.4416623 71.1,34.325 C72.0666715,35.2083377 72.783331,36.2416607 73.25,37.425 C73.716669,38.6083393 73.95,39.899993 73.95,41.3 C73.95,42.6666735 73.5666705,43.9916602 72.8,45.275 C72.0333295,46.5583398 71.0000065,47.53333 69.7,48.2 C71.500009,48.933337 72.8916617,50.0249928 73.875,51.475 C74.8583383,52.9250073 75.35,54.6666565 75.35,56.7 C75.35,58.300008 75.083336,59.7749933 74.55,61.125 C74.016664,62.4750068 73.183339,63.6416617 72.05,64.625 C70.916661,65.6083383 69.4750088,66.3749973 67.725,66.925 C65.9749912,67.4750028 63.900012,67.75 61.5,67.75 Z" id="S3" stroke="#FFFFFF" fill="#FFFFFF" fill-rule="nonzero"></path>
                    </g>
                    <g id="Aggregate" transform="translate(727.000000, 0.273437)" fill="#001B3D" fill-rule="nonzero">
                        <g id="prometheus-logo" transform="translate(19.000000, -20.000000)">
                            <path d="M49.0214706,5.68434189e-14 C21.9479107,5.68434189e-14 -5.68434189e-14,22.3830688 -5.68434189e-14,50.0018995 C-5.68434189e-14,77.6150308 21.9479107,100 49.0214706,100 C76.093168,100 98.0429413,77.6150308 98.0429413,49.9980999 C98.0429413,22.3868684 76.0913055,0.00379951535 49.0214706,0.00379951535 L49.0214706,5.68434189e-14 Z M49.0214706,93.5825829 C41.3180967,93.5825829 35.0712117,88.3335232 35.0712117,81.8610129 L62.9717296,81.8610129 C62.9717296,88.3316235 56.7285696,93.5825829 49.0251957,93.5825829 L49.0214706,93.5825829 Z M72.0608168,77.9797863 L25.9821244,77.9797863 L25.9821244,69.4555263 L72.0608168,69.4555263 L72.0608168,77.9778866 L72.0608168,77.9797863 Z M71.8931902,65.0708612 L26.1125007,65.0708612 C25.9634993,64.8922829 25.8051852,64.7156045 25.6580463,64.5332267 C20.9421511,58.6914394 19.8283654,55.6423114 18.75183,52.5342905 C18.7332049,52.4355026 24.4697599,53.7311445 28.5393615,54.6677303 C28.5393615,54.6677303 30.6328316,55.16167 33.6929485,55.7316005 C30.7557578,52.2170293 29.0105785,47.7525739 29.0105785,43.185531 C29.0105785,33.160454 36.5463259,24.4025225 33.8270498,17.3220868 C36.4718252,17.5424599 39.3028523,23.021391 39.4965542,31.5817466 C42.3089562,27.6188301 43.4860675,20.3769136 43.4860675,15.9371558 C43.4860675,11.3397166 46.4567835,6.00136787 49.4274995,5.81709035 C46.7789991,10.2682473 50.1129061,14.0848817 53.0780346,23.5514263 C54.1880952,27.1077924 54.0465439,33.0920624 54.9033021,36.8877993 C55.1901299,29.0037611 56.5181051,17.5044646 61.4221147,13.5339489 C59.2578689,18.5341389 61.7387427,24.791975 63.4392216,27.8012078 C66.1827104,32.6513162 67.8422138,36.3311672 67.8422138,43.284319 C67.8422138,47.9463502 66.1547726,52.3348149 63.3088453,55.7657963 C66.5440389,55.1464719 68.7790603,54.58794 68.7790603,54.58794 L79.2911113,52.4981949 C79.2966988,52.4981949 77.7638466,58.9042135 71.8969153,65.0746607 L71.8931902,65.0708612 Z" id="path4181"></path>
                        </g>
                    </g>
                </g>
                <g id="Text" transform="translate(74.000000, 291.000000)">
                    <path d="M723.5,382.5 L723.5,317.5" id="Line-4" stroke="#1AE7FF" stroke-linecap="square"></path>
                    <path d="M2,151.308374 L2,43" id="Line-4" stroke="#1AE7FF" stroke-linecap="square"></path>
                    <path d="M872.057129,36 L870.499512,31.5634766 L864.333496,31.5634766 L862.775879,36 L860.745605,36 L866.460449,20.4990234 L868.372559,20.4990234 L874.087402,36 L872.057129,36 Z M867.384277,22.8515625 L864.902832,29.9199219 L869.930176,29.9199219 L867.44873,22.8515625 L867.384277,22.8515625 Z M879.898926,34.4423828 C881.843262,34.4423828 883.143066,32.8310547 883.143066,30.3710938 C883.143066,27.9111328 881.843262,26.2783203 879.898926,26.2783203 C877.976074,26.2783203 876.719238,27.8681641 876.719238,30.3710938 C876.719238,32.8740234 877.976074,34.4423828 879.898926,34.4423828 Z M879.963379,40.2109375 C877.503418,40.2109375 875.559082,38.8251953 875.247559,36.9238281 L877.17041,36.9238281 C877.535645,37.9443359 878.64209,38.6210938 880.038574,38.6210938 C881.972168,38.6210938 883.143066,37.5039062 883.143066,35.8388672 L883.143066,34.0771484 L883.100098,34.0771484 C882.412598,35.2910156 881.091309,36.0859375 879.522949,36.0859375 C876.67627,36.0859375 874.807129,33.8408203 874.807129,30.3710938 C874.807129,26.8691406 876.67627,24.6347656 879.565918,24.6347656 C881.14502,24.6347656 882.455566,25.4082031 883.196777,26.7080078 L883.229004,26.7080078 L883.229004,24.828125 L885.012207,24.828125 L885.012207,35.7744141 C885.012207,38.4384766 883.046387,40.2109375 879.963379,40.2109375 Z M891.983887,34.4423828 C893.928223,34.4423828 895.228027,32.8310547 895.228027,30.3710938 C895.228027,27.9111328 893.928223,26.2783203 891.983887,26.2783203 C890.061035,26.2783203 888.804199,27.8681641 888.804199,30.3710938 C888.804199,32.8740234 890.061035,34.4423828 891.983887,34.4423828 Z M892.04834,40.2109375 C889.588379,40.2109375 887.644043,38.8251953 887.33252,36.9238281 L889.255371,36.9238281 C889.620605,37.9443359 890.727051,38.6210938 892.123535,38.6210938 C894.057129,38.6210938 895.228027,37.5039062 895.228027,35.8388672 L895.228027,34.0771484 L895.185059,34.0771484 C894.497559,35.2910156 893.17627,36.0859375 891.60791,36.0859375 C888.76123,36.0859375 886.89209,33.8408203 886.89209,30.3710938 C886.89209,26.8691406 888.76123,24.6347656 891.650879,24.6347656 C893.22998,24.6347656 894.540527,25.4082031 895.281738,26.7080078 L895.313965,26.7080078 L895.313965,24.828125 L897.097168,24.828125 L897.097168,35.7744141 C897.097168,38.4384766 895.131348,40.2109375 892.04834,40.2109375 Z M899.524902,36 L899.524902,24.828125 L901.286621,24.828125 L901.286621,26.6542969 L901.32959,26.6542969 C901.694824,25.4189453 902.726074,24.6347656 904.036621,24.6347656 C904.358887,24.6347656 904.638184,24.6884766 904.788574,24.7099609 L904.788574,26.5253906 C904.638184,26.4716797 904.240723,26.4179688 903.789551,26.4179688 C902.339355,26.4179688 901.394043,27.4599609 901.394043,29.0390625 L901.394043,36 L899.524902,36 Z M910.245605,26.2568359 C908.494629,26.2568359 907.27002,27.5996094 907.151855,29.4580078 L913.221191,29.4580078 C913.178223,27.5888672 912.007324,26.2568359 910.245605,26.2568359 Z M913.178223,32.7988281 L915.015137,32.7988281 C914.692871,34.7539062 912.802246,36.1933594 910.36377,36.1933594 C907.162598,36.1933594 905.218262,33.9697266 905.218262,30.4570312 C905.218262,26.9873047 907.194824,24.6347656 910.277832,24.6347656 C913.296387,24.6347656 915.154785,26.8261719 915.154785,30.2099609 L915.154785,30.9189453 L907.141113,30.9189453 L907.141113,31.0263672 C907.141113,33.1640625 908.397949,34.5712891 910.406738,34.5712891 C911.824707,34.5712891 912.866699,33.8515625 913.178223,32.7988281 Z M921.578613,34.4423828 C923.522949,34.4423828 924.822754,32.8310547 924.822754,30.3710938 C924.822754,27.9111328 923.522949,26.2783203 921.578613,26.2783203 C919.655762,26.2783203 918.398926,27.8681641 918.398926,30.3710938 C918.398926,32.8740234 919.655762,34.4423828 921.578613,34.4423828 Z M921.643066,40.2109375 C919.183105,40.2109375 917.23877,38.8251953 916.927246,36.9238281 L918.850098,36.9238281 C919.215332,37.9443359 920.321777,38.6210938 921.718262,38.6210938 C923.651855,38.6210938 924.822754,37.5039062 924.822754,35.8388672 L924.822754,34.0771484 L924.779785,34.0771484 C924.092285,35.2910156 922.770996,36.0859375 921.202637,36.0859375 C918.355957,36.0859375 916.486816,33.8408203 916.486816,30.3710938 C916.486816,26.8691406 918.355957,24.6347656 921.245605,24.6347656 C922.824707,24.6347656 924.135254,25.4082031 924.876465,26.7080078 L924.908691,26.7080078 L924.908691,24.828125 L926.691895,24.828125 L926.691895,35.7744141 C926.691895,38.4384766 924.726074,40.2109375 921.643066,40.2109375 Z M932.804199,34.6035156 C934.565918,34.6035156 935.919434,33.3681641 935.919434,31.7568359 L935.919434,30.84375 L932.933105,31.0263672 C931.429199,31.1230469 930.569824,31.7890625 930.569824,32.8417969 C930.569824,33.9052734 931.461426,34.6035156 932.804199,34.6035156 Z M932.385254,36.1933594 C930.161621,36.1933594 928.668457,34.8505859 928.668457,32.8417969 C928.668457,30.9296875 930.140137,29.7265625 932.718262,29.5761719 L935.919434,29.3935547 L935.919434,28.4589844 C935.919434,27.0947266 935.01709,26.2783203 933.470215,26.2783203 C932.030762,26.2783203 931.128418,26.9550781 930.89209,28.0507812 L929.087402,28.0507812 C929.216309,26.1171875 930.870605,24.6347656 933.513184,24.6347656 C936.134277,24.6347656 937.788574,26.0527344 937.788574,28.2763672 L937.788574,36 L936.016113,36 L936.016113,34.0771484 L935.973145,34.0771484 C935.307129,35.3554688 933.88916,36.1933594 932.385254,36.1933594 Z M940.76416,22.1318359 L942.633301,22.1318359 L942.633301,24.828125 L944.803223,24.828125 L944.803223,26.3642578 L942.633301,26.3642578 L942.633301,33.0029297 C942.633301,34.0234375 943.062988,34.4853516 944.019043,34.4853516 C944.233887,34.4853516 944.663574,34.453125 944.79248,34.4316406 L944.79248,36 C944.566895,36.0537109 944.05127,36.0859375 943.61084,36.0859375 C941.559082,36.0859375 940.76416,35.2480469 940.76416,33.0996094 L940.76416,26.3642578 L939.099121,26.3642578 L939.099121,24.828125 L940.76416,24.828125 L940.76416,22.1318359 Z M950.947754,26.2568359 C949.196777,26.2568359 947.972168,27.5996094 947.854004,29.4580078 L953.92334,29.4580078 C953.880371,27.5888672 952.709473,26.2568359 950.947754,26.2568359 Z M953.880371,32.7988281 L955.717285,32.7988281 C955.39502,34.7539062 953.504395,36.1933594 951.065918,36.1933594 C947.864746,36.1933594 945.92041,33.9697266 945.92041,30.4570312 C945.92041,26.9873047 947.896973,24.6347656 950.97998,24.6347656 C953.998535,24.6347656 955.856934,26.8261719 955.856934,30.2099609 L955.856934,30.9189453 L947.843262,30.9189453 L947.843262,31.0263672 C947.843262,33.1640625 949.100098,34.5712891 951.108887,34.5712891 C952.526855,34.5712891 953.568848,33.8515625 953.880371,32.7988281 Z" id="Aggregate" fill="#001B3D" fill-rule="nonzero"></path>
                    <path d="M1073.12305,57.3183594 L1074.90039,57.3183594 C1075.11523,58.7929688 1076.52148,59.7304688 1078.52344,59.7304688 C1080.41797,59.7304688 1081.81445,58.7050781 1081.81445,57.3085938 C1081.81445,56.1074219 1080.93555,55.3457031 1078.99219,54.8574219 L1077.18555,54.3886719 C1074.63672,53.7441406 1073.5332,52.5917969 1073.5332,50.5898438 C1073.5332,48.1972656 1075.53516,46.5761719 1078.51367,46.5761719 C1081.23828,46.5761719 1083.26953,48.1972656 1083.41602,50.4726562 L1081.64844,50.4726562 C1081.4043,49.0273438 1080.21289,48.1679688 1078.45508,48.1679688 C1076.58008,48.1679688 1075.33984,49.1054688 1075.33984,50.53125 C1075.33984,51.6347656 1076.11133,52.2695312 1078.05469,52.7675781 L1079.5293,53.1582031 C1082.44922,53.890625 1083.62109,55.0234375 1083.62109,57.09375 C1083.62109,59.6816406 1081.58008,61.3320312 1078.35742,61.3320312 C1075.36914,61.3320312 1073.30859,59.75 1073.12305,57.3183594 Z M1086.42383,61 L1086.42383,46.2929688 L1088.10352,46.2929688 L1088.10352,52.1328125 L1088.25977,52.1328125 C1088.78711,50.9707031 1089.89062,50.2871094 1091.50195,50.2871094 C1093.72852,50.2871094 1095.13477,51.7128906 1095.13477,54.1835938 L1095.13477,61 L1093.45508,61 L1093.45508,54.59375 C1093.45508,52.7285156 1092.61523,51.8007812 1091.02344,51.8007812 C1089.13867,51.8007812 1088.10352,52.9921875 1088.10352,54.7695312 L1088.10352,61 L1086.42383,61 Z M1102.52734,61.1855469 C1099.5293,61.1855469 1097.67383,59.1152344 1097.67383,55.7363281 C1097.67383,52.3476562 1099.5293,50.2871094 1102.52734,50.2871094 C1105.52539,50.2871094 1107.38086,52.3476562 1107.38086,55.7363281 C1107.38086,59.1152344 1105.52539,61.1855469 1102.52734,61.1855469 Z M1102.52734,59.671875 C1104.51953,59.671875 1105.64258,58.2265625 1105.64258,55.7363281 C1105.64258,53.2363281 1104.51953,51.8007812 1102.52734,51.8007812 C1100.53516,51.8007812 1099.41211,53.2363281 1099.41211,55.7363281 C1099.41211,58.2265625 1100.53516,59.671875 1102.52734,59.671875 Z M1110.01758,61 L1110.01758,50.4726562 L1111.61914,50.4726562 L1111.61914,52.0351562 L1111.77539,52.0351562 C1112.08789,51.0097656 1113.29883,50.2871094 1114.69531,50.2871094 C1114.96875,50.2871094 1115.32031,50.3066406 1115.53516,50.3359375 L1115.53516,52.015625 C1115.39844,51.9765625 1114.79297,51.9179688 1114.46094,51.9179688 C1112.85938,51.9179688 1111.69727,52.9921875 1111.69727,54.4765625 L1111.69727,61 L1110.01758,61 Z M1118.92383,47.7480469 L1120.60352,47.7480469 L1120.60352,50.4726562 L1122.94727,50.4726562 L1122.94727,51.8789062 L1120.60352,51.8789062 L1120.60352,57.8359375 C1120.60352,59.0761719 1121.07227,59.6035156 1122.16602,59.6035156 C1122.46875,59.6035156 1122.63477,59.59375 1122.94727,59.5644531 L1122.94727,60.9804688 C1122.61523,61.0390625 1122.29297,61.078125 1121.96094,61.078125 C1119.79297,61.078125 1118.92383,60.2773438 1118.92383,58.265625 L1118.92383,51.8789062 L1117.22461,51.8789062 L1117.22461,50.4726562 L1118.92383,50.4726562 L1118.92383,47.7480469 Z M1131.43359,56.1269531 L1125.02734,56.1269531 L1125.02734,54.5351562 L1131.43359,54.5351562 L1131.43359,56.1269531 Z M1134.8418,47.7480469 L1136.52148,47.7480469 L1136.52148,50.4726562 L1138.86523,50.4726562 L1138.86523,51.8789062 L1136.52148,51.8789062 L1136.52148,57.8359375 C1136.52148,59.0761719 1136.99023,59.6035156 1138.08398,59.6035156 C1138.38672,59.6035156 1138.55273,59.59375 1138.86523,59.5644531 L1138.86523,60.9804688 C1138.5332,61.0390625 1138.21094,61.078125 1137.87891,61.078125 C1135.71094,61.078125 1134.8418,60.2773438 1134.8418,58.265625 L1134.8418,51.8789062 L1133.14258,51.8789062 L1133.14258,50.4726562 L1134.8418,50.4726562 L1134.8418,47.7480469 Z M1145.45703,51.7714844 C1143.77734,51.7714844 1142.60547,53.0019531 1142.47852,54.8671875 L1148.2793,54.8671875 C1148.24023,53.0019531 1147.12695,51.7714844 1145.45703,51.7714844 Z M1148.23047,58.2753906 L1149.91016,58.2753906 C1149.42188,60.0722656 1147.78125,61.1855469 1145.47656,61.1855469 C1142.55664,61.1855469 1140.73047,59.0761719 1140.73047,55.7460938 C1140.73047,52.4355469 1142.58594,50.2871094 1145.47656,50.2871094 C1148.31836,50.2871094 1150.04688,52.3085938 1150.04688,55.5800781 L1150.04688,56.2246094 L1142.47852,56.2246094 L1142.47852,56.3027344 C1142.56641,58.3828125 1143.72852,59.7011719 1145.51562,59.7011719 C1146.87305,59.7011719 1147.79102,59.203125 1148.23047,58.2753906 Z M1152.68359,61 L1152.68359,50.4726562 L1154.28516,50.4726562 L1154.28516,52.0351562 L1154.44141,52.0351562 C1154.75391,51.0097656 1155.96484,50.2871094 1157.36133,50.2871094 C1157.63477,50.2871094 1157.98633,50.3066406 1158.20117,50.3359375 L1158.20117,52.015625 C1158.06445,51.9765625 1157.45898,51.9179688 1157.12695,51.9179688 C1155.52539,51.9179688 1154.36328,52.9921875 1154.36328,54.4765625 L1154.36328,61 L1152.68359,61 Z M1160.49609,61 L1160.49609,50.4726562 L1162.09766,50.4726562 L1162.09766,52.1328125 L1162.25391,52.1328125 C1162.73242,50.9609375 1163.78711,50.2871094 1165.19336,50.2871094 C1166.61914,50.2871094 1167.61523,51.0390625 1168.10352,52.1328125 L1168.25977,52.1328125 C1168.82617,51.0195312 1170.02734,50.2871094 1171.48242,50.2871094 C1173.63086,50.2871094 1174.83203,51.5175781 1174.83203,53.7246094 L1174.83203,61 L1173.15234,61 L1173.15234,54.1152344 C1173.15234,52.5625 1172.41992,51.8007812 1170.93555,51.8007812 C1169.4707,51.8007812 1168.49414,52.8945312 1168.49414,54.2324219 L1168.49414,61 L1166.81445,61 L1166.81445,53.8515625 C1166.81445,52.6015625 1165.94531,51.8007812 1164.61719,51.8007812 C1163.24023,51.8007812 1162.17578,52.9921875 1162.17578,54.4765625 L1162.17578,61 L1160.49609,61 Z M1183.08398,57.3183594 L1184.86133,57.3183594 C1185.07617,58.7929688 1186.48242,59.7304688 1188.48438,59.7304688 C1190.37891,59.7304688 1191.77539,58.7050781 1191.77539,57.3085938 C1191.77539,56.1074219 1190.89648,55.3457031 1188.95312,54.8574219 L1187.14648,54.3886719 C1184.59766,53.7441406 1183.49414,52.5917969 1183.49414,50.5898438 C1183.49414,48.1972656 1185.49609,46.5761719 1188.47461,46.5761719 C1191.19922,46.5761719 1193.23047,48.1972656 1193.37695,50.4726562 L1191.60938,50.4726562 C1191.36523,49.0273438 1190.17383,48.1679688 1188.41602,48.1679688 C1186.54102,48.1679688 1185.30078,49.1054688 1185.30078,50.53125 C1185.30078,51.6347656 1186.07227,52.2695312 1188.01562,52.7675781 L1189.49023,53.1582031 C1192.41016,53.890625 1193.58203,55.0234375 1193.58203,57.09375 C1193.58203,59.6816406 1191.54102,61.3320312 1188.31836,61.3320312 C1185.33008,61.3320312 1183.26953,59.75 1183.08398,57.3183594 Z M1200.48633,51.7714844 C1198.80664,51.7714844 1197.63477,53.0019531 1197.50781,54.8671875 L1203.30859,54.8671875 C1203.26953,53.0019531 1202.15625,51.7714844 1200.48633,51.7714844 Z M1203.25977,58.2753906 L1204.93945,58.2753906 C1204.45117,60.0722656 1202.81055,61.1855469 1200.50586,61.1855469 C1197.58594,61.1855469 1195.75977,59.0761719 1195.75977,55.7460938 C1195.75977,52.4355469 1197.61523,50.2871094 1200.50586,50.2871094 C1203.34766,50.2871094 1205.07617,52.3085938 1205.07617,55.5800781 L1205.07617,56.2246094 L1197.50781,56.2246094 L1197.50781,56.3027344 C1197.5957,58.3828125 1198.75781,59.7011719 1200.54492,59.7011719 C1201.90234,59.7011719 1202.82031,59.203125 1203.25977,58.2753906 Z M1210.95508,59.7109375 C1212.68359,59.7109375 1213.96289,58.578125 1213.96289,57.0742188 L1213.96289,56.1074219 L1211.13086,56.2929688 C1209.5293,56.4003906 1208.82617,56.9570312 1208.82617,58.0117188 C1208.82617,59.0859375 1209.73438,59.7109375 1210.95508,59.7109375 Z M1210.64258,61.1855469 C1208.60156,61.1855469 1207.08789,59.9746094 1207.08789,58.0507812 C1207.08789,56.1660156 1208.47461,55.0820312 1210.92578,54.9355469 L1213.96289,54.75 L1213.96289,53.7929688 C1213.96289,52.4941406 1213.15234,51.78125 1211.58008,51.78125 C1210.32031,51.78125 1209.44141,52.2597656 1209.20703,53.0898438 L1207.50781,53.0898438 C1207.73242,51.4003906 1209.39258,50.2871094 1211.63867,50.2871094 C1214.20703,50.2871094 1215.64258,51.6054688 1215.64258,53.7929688 L1215.64258,61 L1214.04102,61 L1214.04102,59.4472656 L1213.88477,59.4472656 C1213.20117,60.5703125 1212.04883,61.1855469 1210.64258,61.1855469 Z M1218.74805,61 L1218.74805,50.4726562 L1220.34961,50.4726562 L1220.34961,52.0351562 L1220.50586,52.0351562 C1220.81836,51.0097656 1222.0293,50.2871094 1223.42578,50.2871094 C1223.69922,50.2871094 1224.05078,50.3066406 1224.26562,50.3359375 L1224.26562,52.015625 C1224.12891,51.9765625 1223.52344,51.9179688 1223.19141,51.9179688 C1221.58984,51.9179688 1220.42773,52.9921875 1220.42773,54.4765625 L1220.42773,61 L1218.74805,61 Z M1234.7832,53.6953125 L1233.08398,53.6953125 C1232.81055,52.6503906 1231.88281,51.8007812 1230.36914,51.8007812 C1228.47461,51.8007812 1227.2832,53.3144531 1227.2832,55.6972656 C1227.2832,58.1289062 1228.49414,59.671875 1230.36914,59.671875 C1231.78516,59.671875 1232.77148,59.0175781 1233.08398,57.8261719 L1234.7832,57.8261719 C1234.48047,59.7597656 1232.9082,61.1855469 1230.37891,61.1855469 C1227.42969,61.1855469 1225.54492,59.046875 1225.54492,55.6972656 C1225.54492,52.4160156 1227.41992,50.2871094 1230.36914,50.2871094 C1232.92773,50.2871094 1234.49023,51.8203125 1234.7832,53.6953125 Z M1237.36133,61 L1237.36133,46.2929688 L1239.04102,46.2929688 L1239.04102,52.1328125 L1239.19727,52.1328125 C1239.72461,50.9707031 1240.82812,50.2871094 1242.43945,50.2871094 C1244.66602,50.2871094 1246.07227,51.7128906 1246.07227,54.1835938 L1246.07227,61 L1244.39258,61 L1244.39258,54.59375 C1244.39258,52.7285156 1243.55273,51.8007812 1241.96094,51.8007812 C1240.07617,51.8007812 1239.04102,52.9921875 1239.04102,54.7695312 L1239.04102,61 L1237.36133,61 Z" id="Short-termSearch" fill="#001B3D" fill-rule="nonzero"></path>
                    <path d="M1134.31152,486.500977 L1132.75391,482.064453 L1126.58789,482.064453 L1125.03027,486.500977 L1123,486.500977 L1128.71484,471 L1130.62695,471 L1136.3418,486.500977 L1134.31152,486.500977 Z M1129.63867,473.352539 L1127.15723,480.420898 L1132.18457,480.420898 L1129.70312,473.352539 L1129.63867,473.352539 Z M1137.82422,486.500977 L1137.82422,475.329102 L1139.58594,475.329102 L1139.58594,477.155273 L1139.62891,477.155273 C1139.99414,475.919922 1141.02539,475.135742 1142.33594,475.135742 C1142.6582,475.135742 1142.9375,475.189453 1143.08789,475.210938 L1143.08789,477.026367 C1142.9375,476.972656 1142.54004,476.918945 1142.08887,476.918945 C1140.63867,476.918945 1139.69336,477.960938 1139.69336,479.540039 L1139.69336,486.500977 L1137.82422,486.500977 Z M1153.34668,478.992188 L1151.52051,478.992188 C1151.25195,477.77832 1150.30664,476.779297 1148.66309,476.779297 C1146.72949,476.779297 1145.41895,478.379883 1145.41895,480.915039 C1145.41895,483.514648 1146.75098,485.050781 1148.68457,485.050781 C1150.20996,485.050781 1151.20898,484.245117 1151.53125,482.902344 L1153.36816,482.902344 C1153.07812,485.125977 1151.20898,486.694336 1148.67383,486.694336 C1145.58008,486.694336 1143.51758,484.513672 1143.51758,480.915039 C1143.51758,477.391602 1145.56934,475.135742 1148.65234,475.135742 C1151.44531,475.135742 1153.11035,476.983398 1153.34668,478.992188 Z M1155.18359,486.500977 L1155.18359,471 L1157.05273,471 L1157.05273,477.112305 L1157.0957,477.112305 C1157.71875,475.866211 1158.94336,475.135742 1160.64062,475.135742 C1163.08984,475.135742 1164.57227,476.790039 1164.57227,479.282227 L1164.57227,486.500977 L1162.70312,486.500977 L1162.70312,479.625977 C1162.70312,477.853516 1161.81152,476.790039 1160.06055,476.790039 C1158.20215,476.790039 1157.05273,478.057617 1157.05273,479.991211 L1157.05273,486.500977 L1155.18359,486.500977 Z M1167.04297,486.500977 L1167.04297,475.329102 L1168.91211,475.329102 L1168.91211,486.500977 L1167.04297,486.500977 Z M1167.97754,473.341797 C1167.33301,473.341797 1166.80664,472.81543 1166.80664,472.170898 C1166.80664,471.515625 1167.33301,471 1167.97754,471 C1168.63281,471 1169.14844,471.515625 1169.14844,472.170898 C1169.14844,472.81543 1168.63281,473.341797 1167.97754,473.341797 Z M1180.59961,475.329102 L1176.49609,486.500977 L1174.58398,486.500977 L1170.46973,475.329102 L1172.43555,475.329102 L1175.51855,484.513672 L1175.56152,484.513672 L1178.65527,475.329102 L1180.59961,475.329102 Z M1186.21777,476.757812 C1184.4668,476.757812 1183.24219,478.100586 1183.12402,479.958984 L1189.19336,479.958984 C1189.15039,478.089844 1187.97949,476.757812 1186.21777,476.757812 Z M1189.15039,483.299805 L1190.9873,483.299805 C1190.66504,485.254883 1188.77441,486.694336 1186.33594,486.694336 C1183.13477,486.694336 1181.19043,484.470703 1181.19043,480.958008 C1181.19043,477.488281 1183.16699,475.135742 1186.25,475.135742 C1189.26855,475.135742 1191.12695,477.327148 1191.12695,480.710938 L1191.12695,481.419922 L1183.11328,481.419922 L1183.11328,481.527344 C1183.11328,483.665039 1184.37012,485.072266 1186.37891,485.072266 C1187.79688,485.072266 1188.83887,484.352539 1189.15039,483.299805 Z" id="Archive" fill="#001B3D" fill-rule="nonzero"></path>
                    <ellipse id="Oval" fill="#001B3D" cx="838" cy="28.5" rx="13" ry="13.5"></ellipse>
                    <path d="M823.508065,29.5 L763.491935,29.5" id="Line-4" stroke="#001B3D" stroke-linecap="square"></path>
                    <ellipse id="Oval" fill="#001B3D" cx="1160" cy="87.5" rx="13" ry="13.5"></ellipse>
                    <path d="M1160,97.1541872 L1160.06348,121.5" id="Line-4" stroke="#001B3D" stroke-linecap="square"></path>
                    <ellipse id="Oval" fill="#001B3D" cx="1158" cy="447.5" rx="13" ry="13.5"></ellipse>
                    <path d="M1158.06348,442 L1158,415.5" id="Line-4" stroke="#001B3D" stroke-linecap="square"></path>
                    <path d="M51.1435547,36 L46.3564453,36 L46.3564453,9.22558594 L63.4267578,9.22558594 L63.4267578,13.2705078 L51.1435547,13.2705078 L51.1435547,21.1748047 L62.3691406,21.1748047 L62.3691406,25.0712891 L51.1435547,25.0712891 L51.1435547,36 Z M66.5439453,36 L66.5439453,16.3320312 L71.1640625,16.3320312 L71.1640625,36 L66.5439453,36 Z M68.8261719,13.3632812 C67.4345703,13.3632812 66.3027344,12.2314453 66.3027344,10.8583984 C66.3027344,9.46679688 67.4345703,8.35351562 68.8261719,8.35351562 C70.2548828,8.35351562 71.3681641,9.46679688 71.3681641,10.8583984 C71.3681641,12.2314453 70.2548828,13.3632812 68.8261719,13.3632812 Z M75.0419922,36 L75.0419922,16.3320312 L79.4765625,16.3320312 L79.4765625,19.7089844 L79.5693359,19.7089844 C80.6269531,17.3710938 82.7236328,15.9609375 85.7480469,15.9609375 C90.0898438,15.9609375 92.5576172,18.7441406 92.5576172,23.2900391 L92.5576172,36 L87.9375,36 L87.9375,24.2177734 C87.9375,21.4345703 86.6386719,19.8759766 84.0039062,19.8759766 C81.3505859,19.8759766 79.6621094,21.7871094 79.6621094,24.6074219 L79.6621094,36 L75.0419922,36 Z M96.3613281,36 L96.3613281,16.3320312 L100.981445,16.3320312 L100.981445,36 L96.3613281,36 Z M98.6435547,13.3632812 C97.2519531,13.3632812 96.1201172,12.2314453 96.1201172,10.8583984 C96.1201172,9.46679688 97.2519531,8.35351562 98.6435547,8.35351562 C100.072266,8.35351562 101.185547,9.46679688 101.185547,10.8583984 C101.185547,12.2314453 100.072266,13.3632812 98.6435547,13.3632812 Z M104.506836,21.9726562 C104.506836,18.3730469 107.642578,15.9238281 112.392578,15.9238281 C117.179688,15.9238281 120.222656,18.5029297 120.333984,22.2324219 L116.029297,22.2324219 C115.84375,20.4511719 114.526367,19.3193359 112.392578,19.3193359 C110.351562,19.3193359 108.99707,20.2841797 108.99707,21.7314453 C108.99707,22.8632812 109.813477,23.6425781 111.873047,24.1064453 L115.138672,24.8300781 C119.220703,25.7392578 120.797852,27.3164062 120.797852,30.1738281 C120.797852,33.8847656 117.383789,36.3896484 112.55957,36.3896484 C107.419922,36.3896484 104.376953,33.9404297 104.005859,30.1367188 L108.551758,30.1367188 C108.904297,32.0478516 110.22168,33.0126953 112.55957,33.0126953 C114.804688,33.0126953 116.196289,32.0849609 116.196289,30.6191406 C116.196289,29.4316406 115.491211,28.7636719 113.431641,28.2998047 L110.166016,27.5761719 C106.399414,26.7412109 104.506836,24.8857422 104.506836,21.9726562 Z M123.859375,36 L123.859375,9.22558594 L128.423828,9.22558594 L128.423828,19.7089844 L128.516602,19.7089844 C129.574219,17.3154297 131.745117,15.9609375 134.732422,15.9609375 C139.074219,15.9609375 141.616211,18.8183594 141.616211,23.3271484 L141.616211,36 L136.996094,36 L136.996094,24.2734375 C136.996094,21.5273438 135.623047,19.8759766 132.951172,19.8759766 C130.167969,19.8759766 128.479492,21.8056641 128.479492,24.7001953 L128.479492,36 L123.859375,36 Z M175.960938,36 L171.192383,36 L171.192383,24.3847656 L158.166992,24.3847656 L158.166992,36 L153.379883,36 L153.379883,9.22558594 L158.166992,9.22558594 L158.166992,20.3583984 L171.192383,20.3583984 L171.192383,9.22558594 L175.960938,9.22558594 L175.960938,36 Z M188.689453,19.5048828 C186.091797,19.5048828 184.217773,21.4902344 184.032227,24.2363281 L193.216797,24.2363281 C193.124023,21.453125 191.342773,19.5048828 188.689453,19.5048828 Z M193.235352,30.1181641 L197.558594,30.1181641 C196.964844,33.8291016 193.513672,36.3896484 188.856445,36.3896484 C182.956055,36.3896484 179.393555,32.5117188 179.393555,26.2402344 C179.393555,20.0244141 182.993164,15.9238281 188.670898,15.9238281 C194.255859,15.9238281 197.744141,19.8017578 197.744141,25.7763672 L197.744141,27.2792969 L183.995117,27.2792969 L183.995117,27.5576172 C183.995117,30.7119141 185.924805,32.8271484 188.949219,32.8271484 C191.101562,32.8271484 192.734375,31.7509766 193.235352,30.1181641 Z M200.712891,36 L200.712891,16.3320312 L205.147461,16.3320312 L205.147461,19.7646484 L205.240234,19.7646484 C205.908203,17.3710938 207.633789,15.9980469 209.953125,15.9980469 C210.546875,15.9980469 211.066406,16.109375 211.400391,16.1835938 L211.400391,20.3583984 C211.010742,20.2099609 210.305664,20.0986328 209.526367,20.0986328 C206.910156,20.0986328 205.333008,21.7871094 205.333008,24.5517578 L205.333008,36 L200.712891,36 Z M221.512695,19.5048828 C218.915039,19.5048828 217.041016,21.4902344 216.855469,24.2363281 L226.040039,24.2363281 C225.947266,21.453125 224.166016,19.5048828 221.512695,19.5048828 Z M226.058594,30.1181641 L230.381836,30.1181641 C229.788086,33.8291016 226.336914,36.3896484 221.679688,36.3896484 C215.779297,36.3896484 212.216797,32.5117188 212.216797,26.2402344 C212.216797,20.0244141 215.816406,15.9238281 221.494141,15.9238281 C227.079102,15.9238281 230.567383,19.8017578 230.567383,25.7763672 L230.567383,27.2792969 L216.818359,27.2792969 L216.818359,27.5576172 C216.818359,30.7119141 218.748047,32.8271484 221.772461,32.8271484 C223.924805,32.8271484 225.557617,31.7509766 226.058594,30.1181641 Z" id="FinishHere" fill="#1E375A" fill-rule="nonzero"></path>
                    <path d="M639.243164,463.522461 L643.826172,463.522461 C644.178711,465.990234 646.59082,467.474609 649.930664,467.474609 C653.15918,467.474609 655.404297,465.878906 655.404297,463.652344 C655.404297,461.722656 654.068359,460.535156 650.580078,459.811523 L647.704102,459.217773 C642.341797,458.123047 639.836914,455.599609 639.836914,451.68457 C639.836914,446.97168 643.974609,443.780273 649.782227,443.780273 C655.701172,443.780273 659.616211,447.008789 659.727539,451.795898 L655.144531,451.795898 C654.921875,449.272461 652.806641,447.750977 649.745117,447.750977 C646.776367,447.750977 644.661133,449.161133 644.661133,451.40625 C644.661133,453.224609 645.99707,454.393555 649.336914,455.098633 L652.231445,455.692383 C657.87207,456.861328 660.228516,459.125 660.228516,463.095703 C660.228516,468.216797 656.202148,471.445312 649.763672,471.445312 C643.566406,471.445312 639.46582,468.420898 639.243164,463.522461 Z M664.625977,446.730469 L669.246094,446.730469 L669.246094,451.332031 L672.957031,451.332031 L672.957031,454.894531 L669.246094,454.894531 L669.246094,465.118164 C669.246094,466.732422 669.988281,467.474609 671.621094,467.474609 C672.047852,467.474609 672.641602,467.4375 672.938477,467.381836 L672.938477,470.907227 C672.4375,471.018555 671.52832,471.092773 670.544922,471.092773 C666.295898,471.092773 664.625977,469.589844 664.625977,465.767578 L664.625977,454.894531 L661.805664,454.894531 L661.805664,451.332031 L664.625977,451.332031 L664.625977,446.730469 Z M683.013672,467.827148 C685.629883,467.827148 687.726562,466.083008 687.726562,463.708008 L687.726562,462.205078 L683.180664,462.483398 C680.954102,462.631836 679.673828,463.633789 679.673828,465.192383 C679.673828,466.806641 681.009766,467.827148 683.013672,467.827148 Z M681.62207,471.31543 C677.818359,471.31543 675.053711,468.921875 675.053711,465.37793 C675.053711,461.889648 677.744141,459.792969 682.53125,459.496094 L687.726562,459.199219 L687.726562,457.789062 C687.726562,455.729492 686.334961,454.541992 684.052734,454.541992 C681.863281,454.541992 680.47168,455.599609 680.174805,457.232422 L675.888672,457.232422 C676.092773,453.558594 679.228516,450.923828 684.238281,450.923828 C689.118164,450.923828 692.291016,453.50293 692.291016,457.455078 L692.291016,471 L687.837891,471 L687.837891,467.864258 L687.745117,467.864258 C686.613281,469.998047 684.145508,471.31543 681.62207,471.31543 Z M696.001953,471 L696.001953,451.332031 L700.436523,451.332031 L700.436523,454.764648 L700.529297,454.764648 C701.197266,452.371094 702.922852,450.998047 705.242188,450.998047 C705.835938,450.998047 706.355469,451.109375 706.689453,451.183594 L706.689453,455.358398 C706.299805,455.209961 705.594727,455.098633 704.81543,455.098633 C702.199219,455.098633 700.62207,456.787109 700.62207,459.551758 L700.62207,471 L696.001953,471 Z M710.344727,446.730469 L714.964844,446.730469 L714.964844,451.332031 L718.675781,451.332031 L718.675781,454.894531 L714.964844,454.894531 L714.964844,465.118164 C714.964844,466.732422 715.707031,467.474609 717.339844,467.474609 C717.766602,467.474609 718.360352,467.4375 718.657227,467.381836 L718.657227,470.907227 C718.15625,471.018555 717.24707,471.092773 716.263672,471.092773 C712.014648,471.092773 710.344727,469.589844 710.344727,465.767578 L710.344727,454.894531 L707.524414,454.894531 L707.524414,451.332031 L710.344727,451.332031 L710.344727,446.730469 Z M752.463867,471 L747.695312,471 L747.695312,459.384766 L734.669922,459.384766 L734.669922,471 L729.882812,471 L729.882812,444.225586 L734.669922,444.225586 L734.669922,455.358398 L747.695312,455.358398 L747.695312,444.225586 L752.463867,444.225586 L752.463867,471 Z M765.192383,454.504883 C762.594727,454.504883 760.720703,456.490234 760.535156,459.236328 L769.719727,459.236328 C769.626953,456.453125 767.845703,454.504883 765.192383,454.504883 Z M769.738281,465.118164 L774.061523,465.118164 C773.467773,468.829102 770.016602,471.389648 765.359375,471.389648 C759.458984,471.389648 755.896484,467.511719 755.896484,461.240234 C755.896484,455.024414 759.496094,450.923828 765.173828,450.923828 C770.758789,450.923828 774.24707,454.801758 774.24707,460.776367 L774.24707,462.279297 L760.498047,462.279297 L760.498047,462.557617 C760.498047,465.711914 762.427734,467.827148 765.452148,467.827148 C767.604492,467.827148 769.237305,466.750977 769.738281,465.118164 Z M777.21582,471 L777.21582,451.332031 L781.650391,451.332031 L781.650391,454.764648 L781.743164,454.764648 C782.411133,452.371094 784.136719,450.998047 786.456055,450.998047 C787.049805,450.998047 787.569336,451.109375 787.90332,451.183594 L787.90332,455.358398 C787.513672,455.209961 786.808594,455.098633 786.029297,455.098633 C783.413086,455.098633 781.835938,456.787109 781.835938,459.551758 L781.835938,471 L777.21582,471 Z M798.015625,454.504883 C795.417969,454.504883 793.543945,456.490234 793.358398,459.236328 L802.542969,459.236328 C802.450195,456.453125 800.668945,454.504883 798.015625,454.504883 Z M802.561523,465.118164 L806.884766,465.118164 C806.291016,468.829102 802.839844,471.389648 798.182617,471.389648 C792.282227,471.389648 788.719727,467.511719 788.719727,461.240234 C788.719727,455.024414 792.319336,450.923828 797.99707,450.923828 C803.582031,450.923828 807.070312,454.801758 807.070312,460.776367 L807.070312,462.279297 L793.321289,462.279297 L793.321289,462.557617 C793.321289,465.711914 795.250977,467.827148 798.275391,467.827148 C800.427734,467.827148 802.060547,466.750977 802.561523,465.118164 Z" id="StartHere" fill="#1E375A" fill-rule="nonzero"></path>
                </g>
                <g id="Logo" transform="translate(767.000000, 674.000000)">
                    <g id="Group-16">
                        <g id="Group-15" transform="translate(11.193291, 0.000000)">
                            <polygon id="Triangle" fill="#10E7FF" transform="translate(25.333737, 22.861244) scale(1, -1) translate(-25.333737, -22.861244) " points="25.3337373 6.06720796 45.626531 39.6552803 5.04094357 39.6552803"></polygon>
                            <polygon id="Triangle" fill="#FFFFFF" transform="translate(20.527549, 16.886103) scale(1, -1) translate(-20.527549, -16.886103) " points="20.5275493 0.0920666741 40.820343 33.680139 0.234755582 33.680139"></polygon>
                        </g>
                        <g id="Symbol" transform="translate(0.000000, 5.289379)">
                            <polygon id="Triangle" fill="#10E7FF" transform="translate(20.185990, 17.483476) scale(1, -1) translate(-20.185990, -17.483476) " points="20.1859895 0.777829044 40.3719791 34.1891221 0 34.1891221"></polygon>
                            <mask id="mask-2" fill="white">
                                <use xlink:href="#path-1"></use>
                            </mask>
                            <use id="Mask" fill="#FFFFFF" transform="translate(20.392478, 8.573797) scale(1, -1) translate(-20.392478, -8.573797) " xlink:href="#path-1"></use>
                        </g>
                    </g>
                </g>
                <g id="Logo" transform="translate(50.000000, 288.000000)">
                    <g id="Group-16">
                        <g id="Group-15" transform="translate(11.116096, 0.000000)">
                            <polygon id="Triangle" fill="#10E7FF" transform="translate(25.159022, 22.861244) scale(1, -1) translate(-25.159022, -22.861244) " points="25.1590218 6.06720796 45.3118653 39.6552803 5.00617844 39.6552803"></polygon>
                            <polygon id="Triangle" fill="#FFFFFF" transform="translate(20.385980, 16.886103) scale(1, -1) translate(-20.385980, -16.886103) " points="20.38598 0.0920666741 40.5388234 33.680139 0.233136578 33.680139"></polygon>
                        </g>
                        <g id="Symbol" transform="translate(0.000000, 5.289379)">
                            <polygon id="Triangle" fill="#10E7FF" transform="translate(20.046776, 17.483476) scale(1, -1) translate(-20.046776, -17.483476) " points="20.0467758 0.777829044 40.0935516 34.1891221 0 34.1891221"></polygon>
                            <mask id="mask-4" fill="white">
                                <use xlink:href="#path-3"></use>
                            </mask>
                            <use id="Mask" fill="#FFFFFF" transform="translate(20.251840, 8.573797) scale(1, -1) translate(-20.251840, -8.573797) " xlink:href="#path-3"></use>
                        </g>
                    </g>
                </g>
                <path d="M1356.5061,542.78125 L1356.5061,544.442383 L1347.52368,544.442383 L1347.52368,529.645996 L1349.36938,529.645996 L1349.36938,542.78125 L1356.5061,542.78125 Z M1363.25317,544.637207 C1360.10522,544.637207 1358.15698,542.463379 1358.15698,538.915527 C1358.15698,535.357422 1360.10522,533.193848 1363.25317,533.193848 C1366.40112,533.193848 1368.34937,535.357422 1368.34937,538.915527 C1368.34937,542.463379 1366.40112,544.637207 1363.25317,544.637207 Z M1363.25317,543.047852 C1365.34497,543.047852 1366.52417,541.530273 1366.52417,538.915527 C1366.52417,536.290527 1365.34497,534.783203 1363.25317,534.783203 C1361.16138,534.783203 1359.98218,536.290527 1359.98218,538.915527 C1359.98218,541.530273 1361.16138,543.047852 1363.25317,543.047852 Z M1371.11792,544.442383 L1371.11792,533.388672 L1372.79956,533.388672 L1372.79956,535.131836 L1372.96362,535.131836 C1373.51733,533.911621 1374.59399,533.193848 1376.28589,533.193848 C1378.76733,533.193848 1380.15161,534.660156 1380.15161,537.285156 L1380.15161,544.442383 L1378.38794,544.442383 L1378.38794,537.71582 C1378.38794,535.726562 1377.54712,534.783203 1375.78345,534.783203 C1374.01978,534.783203 1372.88159,535.962402 1372.88159,537.900391 L1372.88159,544.442383 L1371.11792,544.442383 Z M1387.84204,542.719727 C1389.89282,542.719727 1391.12329,541.161133 1391.12329,538.751465 C1391.12329,536.341797 1389.88257,534.783203 1387.84204,534.783203 C1385.79126,534.783203 1384.64282,536.341797 1384.64282,538.751465 C1384.64282,541.161133 1385.79126,542.719727 1387.84204,542.719727 Z M1387.92407,548.6875 C1385.25806,548.6875 1383.55591,547.487793 1383.28931,545.662598 L1385.15552,545.662598 C1385.35034,546.564941 1386.33472,547.149414 1387.92407,547.149414 C1389.90308,547.149414 1391.08228,546.175293 1391.08228,544.544922 L1391.08228,542.371094 L1390.91821,542.371094 C1390.22095,543.591309 1388.96997,544.27832 1387.45239,544.27832 C1384.59155,544.27832 1382.81763,542.063477 1382.81763,538.751465 C1382.81763,535.439453 1384.61206,533.193848 1387.45239,533.193848 C1389.00073,533.193848 1390.3645,533.952637 1391.00024,535.14209 L1391.16431,535.14209 L1391.16431,533.388672 L1392.84595,533.388672 L1392.84595,544.637207 C1392.84595,547.108398 1390.93872,548.6875 1387.92407,548.6875 Z M1402.823,539.325684 L1396.09644,539.325684 L1396.09644,537.654297 L1402.823,537.654297 L1402.823,539.325684 Z M1406.40161,530.527832 L1408.16528,530.527832 L1408.16528,533.388672 L1410.62622,533.388672 L1410.62622,534.865234 L1408.16528,534.865234 L1408.16528,541.120117 C1408.16528,542.422363 1408.65747,542.976074 1409.80591,542.976074 C1410.12378,542.976074 1410.2981,542.96582 1410.62622,542.935059 L1410.62622,544.421875 C1410.27759,544.483398 1409.93921,544.524414 1409.59058,544.524414 C1407.31421,544.524414 1406.40161,543.683594 1406.40161,541.571289 L1406.40161,534.865234 L1404.61743,534.865234 L1404.61743,533.388672 L1406.40161,533.388672 L1406.40161,530.527832 Z M1417.54761,534.752441 C1415.78394,534.752441 1414.55347,536.044434 1414.42017,538.00293 L1420.51099,538.00293 C1420.46997,536.044434 1419.30103,534.752441 1417.54761,534.752441 Z M1420.45972,541.581543 L1422.22339,541.581543 C1421.71069,543.468262 1419.98804,544.637207 1417.56812,544.637207 C1414.5022,544.637207 1412.58472,542.422363 1412.58472,538.925781 C1412.58472,535.449707 1414.53296,533.193848 1417.56812,533.193848 C1420.552,533.193848 1422.36694,535.316406 1422.36694,538.751465 L1422.36694,539.428223 L1414.42017,539.428223 L1414.42017,539.510254 C1414.51245,541.694336 1415.73267,543.078613 1417.60913,543.078613 C1419.03442,543.078613 1419.99829,542.555664 1420.45972,541.581543 Z M1425.1355,544.442383 L1425.1355,533.388672 L1426.81714,533.388672 L1426.81714,535.029297 L1426.9812,535.029297 C1427.30933,533.952637 1428.58081,533.193848 1430.04712,533.193848 C1430.33423,533.193848 1430.70337,533.214355 1430.92896,533.245117 L1430.92896,535.008789 C1430.7854,534.967773 1430.14966,534.90625 1429.80103,534.90625 C1428.11938,534.90625 1426.89917,536.03418 1426.89917,537.592773 L1426.89917,544.442383 L1425.1355,544.442383 Z M1433.33862,544.442383 L1433.33862,533.388672 L1435.02026,533.388672 L1435.02026,535.131836 L1435.18433,535.131836 C1435.68677,533.901367 1436.79419,533.193848 1438.27075,533.193848 C1439.76782,533.193848 1440.81372,533.983398 1441.32642,535.131836 L1441.49048,535.131836 C1442.08521,533.962891 1443.34644,533.193848 1444.87427,533.193848 C1447.13013,533.193848 1448.39136,534.48584 1448.39136,536.803223 L1448.39136,544.442383 L1446.62769,544.442383 L1446.62769,537.213379 C1446.62769,535.583008 1445.85864,534.783203 1444.30005,534.783203 C1442.76196,534.783203 1441.73657,535.931641 1441.73657,537.336426 L1441.73657,544.442383 L1439.9729,544.442383 L1439.9729,536.936523 C1439.9729,535.624023 1439.0603,534.783203 1437.66577,534.783203 C1436.21997,534.783203 1435.10229,536.03418 1435.10229,537.592773 L1435.10229,544.442383 L1433.33862,544.442383 Z M1457.28149,536.413574 C1457.28149,534.578125 1459.05542,533.193848 1461.40356,533.193848 C1463.72095,533.193848 1465.33081,534.342285 1465.56665,536.157227 L1463.82349,536.157227 C1463.58765,535.275391 1462.72632,534.690918 1461.39331,534.690918 C1460.08081,534.690918 1459.05542,535.357422 1459.05542,536.341797 C1459.05542,537.100586 1459.67065,537.572266 1460.9729,537.890137 L1462.67505,538.300293 C1464.75659,538.802734 1465.76147,539.705078 1465.76147,541.294434 C1465.76147,543.273438 1463.84399,544.637207 1461.33179,544.637207 C1458.87085,544.637207 1457.17896,543.458008 1456.98413,541.622559 L1458.79907,541.622559 C1459.09644,542.555664 1459.97827,543.150391 1461.39331,543.150391 C1462.88013,543.150391 1463.94653,542.442871 1463.94653,541.427734 C1463.94653,540.668945 1463.37231,540.15625 1462.19312,539.869141 L1460.29614,539.407715 C1458.22485,538.905273 1457.28149,538.013184 1457.28149,536.413574 Z M1472.93921,534.752441 C1471.17554,534.752441 1469.94507,536.044434 1469.81177,538.00293 L1475.90259,538.00293 C1475.86157,536.044434 1474.69263,534.752441 1472.93921,534.752441 Z M1475.85132,541.581543 L1477.61499,541.581543 C1477.10229,543.468262 1475.37964,544.637207 1472.95972,544.637207 C1469.8938,544.637207 1467.97632,542.422363 1467.97632,538.925781 C1467.97632,535.449707 1469.92456,533.193848 1472.95972,533.193848 C1475.9436,533.193848 1477.75854,535.316406 1477.75854,538.751465 L1477.75854,539.428223 L1469.81177,539.428223 L1469.81177,539.510254 C1469.90405,541.694336 1471.12427,543.078613 1473.00073,543.078613 C1474.42603,543.078613 1475.38989,542.555664 1475.85132,541.581543 Z M1483.9314,543.088867 C1485.74634,543.088867 1487.0896,541.899414 1487.0896,540.320312 L1487.0896,539.305176 L1484.11597,539.5 C1482.43433,539.612793 1481.69604,540.197266 1481.69604,541.304688 C1481.69604,542.432617 1482.64966,543.088867 1483.9314,543.088867 Z M1483.60327,544.637207 C1481.46021,544.637207 1479.87085,543.365723 1479.87085,541.345703 C1479.87085,539.366699 1481.3269,538.228516 1483.90063,538.074707 L1487.0896,537.879883 L1487.0896,536.875 C1487.0896,535.51123 1486.23853,534.762695 1484.58765,534.762695 C1483.26489,534.762695 1482.34204,535.265137 1482.09595,536.136719 L1480.31177,536.136719 C1480.54761,534.362793 1482.29077,533.193848 1484.64917,533.193848 C1487.34595,533.193848 1488.85327,534.578125 1488.85327,536.875 L1488.85327,544.442383 L1487.17163,544.442383 L1487.17163,542.812012 L1487.00757,542.812012 C1486.28979,543.991211 1485.07983,544.637207 1483.60327,544.637207 Z M1492.11401,544.442383 L1492.11401,533.388672 L1493.79565,533.388672 L1493.79565,535.029297 L1493.95972,535.029297 C1494.28784,533.952637 1495.55933,533.193848 1497.02563,533.193848 C1497.31274,533.193848 1497.68188,533.214355 1497.90747,533.245117 L1497.90747,535.008789 C1497.76392,534.967773 1497.12817,534.90625 1496.77954,534.90625 C1495.0979,534.90625 1493.87769,536.03418 1493.87769,537.592773 L1493.87769,544.442383 L1492.11401,544.442383 Z M1508.95093,536.772461 L1507.16675,536.772461 C1506.87964,535.675293 1505.90552,534.783203 1504.31616,534.783203 C1502.3269,534.783203 1501.07593,536.372559 1501.07593,538.874512 C1501.07593,541.427734 1502.34741,543.047852 1504.31616,543.047852 C1505.80298,543.047852 1506.83862,542.36084 1507.16675,541.109863 L1508.95093,541.109863 C1508.63306,543.140137 1506.98218,544.637207 1504.32642,544.637207 C1501.22974,544.637207 1499.25073,542.391602 1499.25073,538.874512 C1499.25073,535.429199 1501.21948,533.193848 1504.31616,533.193848 C1507.00269,533.193848 1508.64331,534.803711 1508.95093,536.772461 Z M1511.65796,544.442383 L1511.65796,529 L1513.42163,529 L1513.42163,535.131836 L1513.58569,535.131836 C1514.1394,533.911621 1515.2981,533.193848 1516.98999,533.193848 C1519.32788,533.193848 1520.80444,534.690918 1520.80444,537.285156 L1520.80444,544.442383 L1519.04077,544.442383 L1519.04077,537.71582 C1519.04077,535.757324 1518.15894,534.783203 1516.48755,534.783203 C1514.50854,534.783203 1513.42163,536.03418 1513.42163,537.900391 L1513.42163,544.442383 L1511.65796,544.442383 Z" id="Long-termsearch" fill="#001B3D" fill-rule="nonzero"></path>
                <ellipse id="Oval" fill="#001B3D" cx="1438" cy="569.942383" rx="13" ry="13.5"></ellipse>
                <polygon id="Line-4" fill="#001B3D" fill-rule="nonzero" points="1437 582.442383 1437 622.442383 1438 622.442383 1438 582.442383"></polygon>
                <g id="Athnea" transform="translate(1510.000000, 600.442383)">
                    <circle id="Oval-Copy-2" fill="#001B3D" cx="-70" cy="50" r="50"></circle>
                    <path d="M-100.439453,57 L-101.943359,52.2148438 L-108.875,52.2148438 L-110.378906,57 L-114.617188,57 L-107.767578,37.2714844 L-102.914062,37.2714844 L-96.0507812,57 L-100.439453,57 Z M-105.457031,41.0449219 L-107.986328,49.125 L-102.832031,49.125 L-105.361328,41.0449219 L-105.457031,41.0449219 Z M-94.2734375,38.9667969 L-90.28125,38.9667969 L-90.28125,42.34375 L-87.5742188,42.34375 L-87.5742188,45.3515625 L-90.28125,45.3515625 L-90.28125,52.3652344 C-90.28125,53.4863281 -89.734375,54.0195312 -88.5585938,54.0195312 C-88.203125,54.0195312 -87.8339844,53.9921875 -87.5878906,53.9511719 L-87.5878906,56.890625 C-87.9980469,56.9863281 -88.6816406,57.0546875 -89.4882812,57.0546875 C-92.9335938,57.0546875 -94.2734375,55.90625 -94.2734375,53.0488281 L-94.2734375,45.3515625 L-96.3378906,45.3515625 L-96.3378906,42.34375 L-94.2734375,42.34375 L-94.2734375,38.9667969 Z M-85.2910156,57 L-85.2910156,37.2714844 L-81.3671875,37.2714844 L-81.3671875,44.9550781 L-81.2851562,44.9550781 C-80.5058594,43.109375 -78.90625,42.0703125 -76.6777344,42.0703125 C-73.4238281,42.0703125 -71.5644531,44.1757812 -71.5644531,47.5664062 L-71.5644531,57 L-75.5566406,57 L-75.5566406,48.4140625 C-75.5566406,46.5273438 -76.4863281,45.3789062 -78.3046875,45.3789062 C-80.1914062,45.3789062 -81.2988281,46.7050781 -81.2988281,48.6328125 L-81.2988281,57 L-85.2910156,57 Z M-62.4453125,44.9824219 C-64.1953125,44.9824219 -65.453125,46.3085938 -65.5898438,48.140625 L-59.3691406,48.140625 C-59.4511719,46.2675781 -60.6679688,44.9824219 -62.4453125,44.9824219 Z M-59.3144531,52.515625 L-55.6503906,52.515625 C-56.0878906,55.3867188 -58.7128906,57.3144531 -62.3359375,57.3144531 C-66.8476562,57.3144531 -69.5546875,54.4296875 -69.5546875,49.7402344 C-69.5546875,45.0644531 -66.8203125,42.0292969 -62.4863281,42.0292969 C-58.2207031,42.0292969 -55.5273438,44.9140625 -55.5273438,49.3710938 L-55.5273438,50.5878906 L-65.6308594,50.5878906 L-65.6308594,50.8339844 C-65.6308594,52.9257812 -64.3046875,54.3613281 -62.2675781,54.3613281 C-60.8046875,54.3613281 -59.6835938,53.6367188 -59.3144531,52.515625 Z M-53.4765625,57 L-53.4765625,42.34375 L-49.6210938,42.34375 L-49.6210938,44.9550781 L-49.5390625,44.9550781 C-48.7597656,43.1367188 -47.2148438,42.0703125 -44.9589844,42.0703125 C-41.7050781,42.0703125 -39.8730469,44.1210938 -39.8730469,47.5527344 L-39.8730469,57 L-43.8652344,57 L-43.8652344,48.3867188 C-43.8652344,46.4726562 -44.7675781,45.3789062 -46.5585938,45.3789062 C-48.3496094,45.3789062 -49.484375,46.6914062 -49.484375,48.5917969 L-49.484375,57 L-53.4765625,57 Z M-31.6835938,54.3476562 C-29.9472656,54.3476562 -28.5117188,53.2128906 -28.5117188,51.6269531 L-28.5117188,50.5605469 L-31.6015625,50.7519531 C-33.0917969,50.8613281 -33.9394531,51.53125 -33.9394531,52.5703125 C-33.9394531,53.6640625 -33.0371094,54.3476562 -31.6835938,54.3476562 Z M-32.9960938,57.2324219 C-35.7851562,57.2324219 -37.9042969,55.4277344 -37.9042969,52.7890625 C-37.9042969,50.1230469 -35.8535156,48.578125 -32.203125,48.359375 L-28.5117188,48.140625 L-28.5117188,47.1699219 C-28.5117188,45.8027344 -29.46875,45.0097656 -30.9726562,45.0097656 C-32.4628906,45.0097656 -33.40625,45.7480469 -33.5976562,46.828125 L-37.2480469,46.828125 C-37.0976562,43.984375 -34.6777344,42.0292969 -30.7949219,42.0292969 C-27.0351562,42.0292969 -24.5878906,43.9707031 -24.5878906,46.9238281 L-24.5878906,57 L-28.4433594,57 L-28.4433594,54.7578125 L-28.5253906,54.7578125 C-29.3457031,56.3164062 -31.1640625,57.2324219 -32.9960938,57.2324219 Z" id="Athena" fill="#FFFFFF" fill-rule="nonzero"></path>
                </g>
                <polygon id="Line" fill="#001B3D" fill-rule="nonzero" points="1317 652.907946 1371 652.907946 1371 655.907946 1317 655.907946 1317 663.907946 1298 654.407946 1317 644.907946 1317 652.907946"></polygon>
            </g>
        </g>
    </g>
</svg>