<?xml version="1.0" encoding="UTF-8"?>
<svg width="850px" height="500px" viewBox="0 0 850 500" version="1.1" xmlns="http://www.w3.org/2000/svg" xmlns:xlink="http://www.w3.org/1999/xlink">
    <!-- Generator: Sketch 54.1 (76490) - https://sketchapp.com -->
    <title>Use Cases</title>
    <desc>Created with Sketch.</desc>
    <defs>
        <polygon id="path-1" points="53.9398856 107.075495 682.580662 107.075495 682.580662 510.473554 53.9398856 510.473554"></polygon>
        <linearGradient x1="63.8736917%" y1="51.9915334%" x2="30.4315548%" y2="32.0242746%" id="linearGradient-3">
            <stop stop-color="#337AFF" offset="0%"></stop>
            <stop stop-color="#3023C8" offset="100%"></stop>
        </linearGradient>
        <polygon id="path-4" points="48.568252 97.1657596 619.927475 97.1657596 619.927475 460.915198 48.568252 460.915198"></polygon>
        <linearGradient x1="87.5830293%" y1="75.6334092%" x2="40.6464204%" y2="50%" id="linearGradient-6">
            <stop stop-color="#4D23E1" offset="0%"></stop>
            <stop stop-color="#8D00FF" offset="100%"></stop>
        </linearGradient>
        <polygon id="path-7" points="47.2797228 104.952879 656.753516 104.952879 656.753516 468.702317 47.2797228 468.702317"></polygon>
        <linearGradient x1="20.3532635%" y1="37.8644606%" x2="76.4080252%" y2="37.8644606%" id="linearGradient-9">
            <stop stop-color="#EA02EB" offset="0%"></stop>
            <stop stop-color="#BA39DD" offset="100%"></stop>
        </linearGradient>
        <polygon id="path-10" points="49.1246892 94.5830527 605.920806 94.5830527 605.920806 458.332491 49.1246892 458.332491"></polygon>
        <linearGradient x1="89.7648644%" y1="87.5924884%" x2="39.5662917%" y2="57.403384%" id="linearGradient-12">
            <stop stop-color="#C100C8" offset="0%"></stop>
            <stop stop-color="#7200FF" offset="100%"></stop>
        </linearGradient>
        <polygon id="path-13" points="49.6877506 91.1788082 589.008139 91.1788082 589.008139 454.928247 49.6877506 454.928247"></polygon>
        <linearGradient x1="20.349116%" y1="41.3714373%" x2="89.4309952%" y2="77.6177735%" id="linearGradient-15">
            <stop stop-color="#00B8DF" offset="0%"></stop>
            <stop stop-color="#A3FFB0" offset="100%"></stop>
        </linearGradient>
        <polygon id="path-16" points="50.2367544 90.4086446 586.159084 90.4086446 586.159084 454.158083 50.2367544 454.158083"></polygon>
        <linearGradient x1="79.5687085%" y1="81.2024101%" x2="62.0544478%" y2="40.701487%" id="linearGradient-18">
            <stop stop-color="#26DAFF" offset="0%"></stop>
            <stop stop-color="#258BFF" offset="100%"></stop>
        </linearGradient>
        <polygon id="path-19" points="19.3170334 0.0334888616 29.0902113 16.208609 9.54385553 16.208609"></polygon>
    </defs>
    <g id="Use-Cases:-High-level-(colors)" stroke="none" stroke-width="1" fill="none" fill-rule="evenodd">
        <g id="Custom-Preset">
            <g id="Use-Cases" transform="translate(-204.000000, -442.000000)">
                <g id="Group" transform="translate(16.680029, 436.267837)">
                    <mask id="mask-2" fill="white">
                        <use xlink:href="#path-1"></use>
                    </mask>
                    <use id="Mask" fill="#D8D8D8" transform="translate(368.260274, 308.774525) rotate(23.000000) translate(-368.260274, -308.774525) " xlink:href="#path-1"></use>
                    <rect id="Rectangle" fill="url(#linearGradient-3)" mask="url(#mask-2)" x="171.531283" y="61.9838994" width="439.805825" height="377.669903"></rect>
                </g>
                <g id="Group-Copy" transform="translate(433.729929, 965.870307) rotate(135.000000) translate(-433.729929, -965.870307) translate(99.506628, 686.744093)">
                    <mask id="mask-5" fill="white">
                        <use xlink:href="#path-4"></use>
                    </mask>
                    <use id="Mask" fill="#D8D8D8" transform="translate(334.247864, 279.040479) rotate(23.000000) translate(-334.247864, -279.040479) " xlink:href="#path-4"></use>
                    <rect id="Rectangle" fill="url(#linearGradient-6)" mask="url(#mask-5)" x="13.2661" y="92.7195111" width="540.776699" height="432.038835"></rect>
                </g>
                <g id="Group-Copy-3" transform="translate(926.494822, 751.129170) rotate(-45.000000) translate(-926.494822, -751.129170) translate(574.553074, 464.235967)">
                    <mask id="mask-8" fill="white">
                        <use xlink:href="#path-7"></use>
                    </mask>
                    <use id="Mask" fill="#D8D8D8" transform="translate(352.016619, 286.827598) rotate(23.000000) translate(-352.016619, -286.827598) " xlink:href="#path-7"></use>
                    <rect id="Rectangle" fill="url(#linearGradient-9)" mask="url(#mask-8)" x="188.918907" y="-21.7721038" width="435.92233" height="516.019417"></rect>
                </g>
                <g id="Group-Copy-2" transform="translate(812.678198, 963.371972) rotate(180.000000) translate(-812.678198, -963.371972) translate(485.251013, 686.915662)">
                    <mask id="mask-11" fill="white">
                        <use xlink:href="#path-10"></use>
                    </mask>
                    <use id="Mask" fill="#D8D8D8" transform="translate(327.522747, 276.457772) rotate(23.000000) translate(-327.522747, -276.457772) " xlink:href="#path-10"></use>
                    <rect id="Rectangle" fill="url(#linearGradient-12)" mask="url(#mask-11)" x="71.3706223" y="133.070172" width="442.23301" height="418.892306"></rect>
                </g>
                <g id="Group-Copy-4" transform="translate(807.619471, 419.279409) rotate(135.000000) translate(-807.619471, -419.279409) translate(488.201995, 146.221157)">
                    <mask id="mask-14" fill="white">
                        <use xlink:href="#path-13"></use>
                    </mask>
                    <use id="Mask" fill="#D8D8D8" transform="translate(319.347945, 273.053528) rotate(23.000000) translate(-319.347945, -273.053528) " xlink:href="#path-13"></use>
                    <rect id="Rectangle" fill="url(#linearGradient-15)" mask="url(#mask-14)" x="102.115849" y="7.05332716" width="525.242718" height="443.68932"></rect>
                </g>
                <g id="Group-Copy-5" transform="translate(132.378125, 144.155754)">
                    <mask id="mask-17" fill="white">
                        <use xlink:href="#path-16"></use>
                    </mask>
                    <use id="Mask" fill="#D8D8D8" transform="translate(318.197919, 272.283364) rotate(23.000000) translate(-318.197919, -272.283364) " xlink:href="#path-16"></use>
                    <rect id="Rectangle" fill="url(#linearGradient-18)" mask="url(#mask-17)" x="35.1477014" y="124.817745" width="459.523892" height="418.892306"></rect>
                </g>
                <g id="Box" transform="translate(545.302837, 619.179076)"></g>
                <g id="Multi-Cloud" transform="translate(388.104205, 499.232975)">
                    <circle id="Oval" fill="#FFFFFF" cx="134.948001" cy="47.389697" r="33.8596552"></circle>
                    <path d="M13.5109715,13.5300418 L11.4287538,13.5300418 L11.4287538,4.33956397 L11.3659283,4.33956397 L7.62332159,13.5300418 L6.04370822,13.5300418 L2.30110152,4.33956397 L2.23827599,4.33956397 L2.23827599,13.5300418 L0.147083276,13.5300418 L0.147083276,0.579007122 L2.830631,0.579007122 L6.7976146,10.4605658 L6.86941521,10.4605658 L10.8363988,0.579007122 L13.5109715,0.579007122 L13.5109715,13.5300418 Z M24.0118104,4.01646123 L24.0118104,13.5300418 L21.8577921,13.5300418 L21.8577921,11.8786278 L21.8129168,11.8786278 C21.3103125,13.0364126 20.3499794,13.7005683 18.9049921,13.7005683 C16.8407247,13.7005683 15.5303636,12.3632819 15.5303636,10.1643883 L15.5303636,4.01646123 L17.7651575,4.01646123 L17.7651575,9.7156345 C17.7651575,11.0798461 18.4293131,11.8158023 19.6858238,11.8158023 C20.9782347,11.8158023 21.7770165,10.9003445 21.7770165,9.51818283 L21.7770165,4.01646123 L24.0118104,4.01646123 Z M25.8965764,13.5300418 L25.8965764,0.579007122 L28.1313703,0.579007122 L28.1313703,13.5300418 L25.8965764,13.5300418 Z M30.6533666,1.79064238 L32.8881606,1.79064238 L32.8881606,4.01646123 L34.6831758,4.01646123 L34.6831758,5.73967583 L32.8881606,5.73967583 L32.8881606,10.6849427 C32.8881606,11.4657743 33.2471636,11.8247774 34.0369703,11.8247774 C34.243397,11.8247774 34.5305995,11.8068272 34.6742007,11.779902 L34.6742007,13.4851664 C34.4318736,13.5390169 33.9920949,13.5749172 33.5164159,13.5749172 C31.4611235,13.5749172 30.6533666,12.847936 30.6533666,10.9990704 L30.6533666,5.73967583 L29.2891551,5.73967583 L29.2891551,4.01646123 L30.6533666,4.01646123 L30.6533666,1.79064238 Z M36.2538141,13.5300418 L36.2538141,4.01646123 L38.488608,4.01646123 L38.488608,13.5300418 L36.2538141,13.5300418 Z M37.3577484,2.58044907 C36.6846177,2.58044907 36.1371381,2.03296944 36.1371381,1.36881381 C36.1371381,0.69568311 36.6846177,0.157178549 37.3577484,0.157178549 C38.0488293,0.157178549 38.5873338,0.69568311 38.5873338,1.36881381 C38.5873338,2.03296944 38.0488293,2.58044907 37.3577484,2.58044907 Z M46.4136001,9.2668807 L40.5169752,9.2668807 L40.5169752,7.27441383 L46.4136001,7.27441383 L46.4136001,9.2668807 Z M54.2039661,13.7454436 C50.5062348,13.7454436 48.1816901,11.2054971 48.1816901,7.05003693 C48.1816901,2.92150196 50.5241849,0.363605297 54.2039661,0.363605297 C57.2106166,0.363605297 59.4992609,2.23939618 59.7864634,5.02166975 L57.5067941,5.02166975 C57.2016415,3.39718099 55.8823053,2.32914694 54.2039661,2.32914694 C51.9781472,2.32914694 50.5511102,4.16006245 50.5511102,7.05003693 C50.5511102,9.95796155 51.9691722,11.779902 54.2129412,11.779902 C55.9271807,11.779902 57.1567661,10.8554692 57.5157691,9.29380593 L59.7864634,9.29380593 C59.382585,12.0671044 57.264467,13.7454436 54.2039661,13.7454436 Z M61.3750518,13.5300418 L61.3750518,0.579007122 L63.6098458,0.579007122 L63.6098458,13.5300418 L61.3750518,13.5300418 Z M69.7218725,13.7185184 C66.9306239,13.7185184 65.1176585,11.8606777 65.1176585,8.77325152 C65.1176585,5.70377552 66.948574,3.81900956 69.7218725,3.81900956 C72.495171,3.81900956 74.3260865,5.69480045 74.3260865,8.77325152 C74.3260865,11.8606777 72.5131212,13.7185184 69.7218725,13.7185184 Z M69.7218725,11.9504284 C71.1399345,11.9504284 72.0553923,10.8016187 72.0553923,8.77325152 C72.0553923,6.75385942 71.1399345,5.59607461 69.7218725,5.59607461 C68.3127856,5.59607461 67.3883528,6.75385942 67.3883528,8.77325152 C67.3883528,10.8016187 68.3038105,11.9504284 69.7218725,11.9504284 Z M84.1986701,4.01646123 L84.1986701,13.5300418 L82.0446519,13.5300418 L82.0446519,11.8786278 L81.9997765,11.8786278 C81.4971722,13.0364126 80.5368391,13.7005683 79.0918519,13.7005683 C77.0275844,13.7005683 75.7172233,12.3632819 75.7172233,10.1643883 L75.7172233,4.01646123 L77.9520172,4.01646123 L77.9520172,9.7156345 C77.9520172,11.0798461 78.6161728,11.8158023 79.8726835,11.8158023 C81.1650944,11.8158023 81.9638762,10.9003445 81.9638762,9.51818283 L81.9638762,4.01646123 L84.1986701,4.01646123 Z M89.5747407,13.6826181 C87.1783954,13.6826181 85.6257072,11.7888771 85.6257072,8.76427644 C85.6257072,5.75762598 87.1783954,3.85490987 89.5747407,3.85490987 C90.9389522,3.85490987 92.0159613,4.56394087 92.5185656,5.61402476 L92.572416,5.61402476 L92.572416,0.579007122 L94.80721,0.579007122 L94.80721,13.5300418 L92.6172914,13.5300418 L92.6172914,11.905553 L92.5813911,11.905553 C92.0608367,12.9735871 90.9658774,13.6826181 89.5747407,13.6826181 Z M90.2478714,5.69480045 C88.8118592,5.69480045 87.9143516,6.88848556 87.9143516,8.77325152 C87.9143516,10.6669926 88.8028841,11.8517026 90.2478714,11.8517026 C91.6569583,11.8517026 92.5813911,10.6580175 92.5813911,8.77325152 C92.5813911,6.90643571 91.6569583,5.69480045 90.2478714,5.69480045 Z" fill="#FFFFFF" fill-rule="nonzero"></path>
                    <g id="cloud-computing" transform="translate(114.148499, 26.106485)" fill="#258BFF" fill-rule="nonzero">
                        <path d="M38.1230416,25.5641211 C38.1334599,25.426322 38.1387505,25.2870579 38.1387505,25.1466543 C38.1387505,22.123622 35.6880766,19.6728666 32.6649628,19.6728666 C31.7838793,19.6728666 30.9518759,19.8820477 30.2145331,20.2519807 L26.6926406,14.1519522 C28.7243013,13.8905166 30.3078913,12.143977 30.3078913,10.0441086 C30.3078913,7.96662339 28.7580795,6.23392065 26.7575111,5.94424153 C26.7679295,5.8064425 26.77322,5.66717839 26.77322,5.52677477 C26.77322,2.50366104 24.3225461,0.0529871046 21.2994324,0.0529871046 C18.4049202,0.0529871046 16.0356397,2.29977057 15.839156,5.14422579 C13.3740754,5.17027167 11.3654491,7.19444419 11.3654491,9.66530369 C11.3654491,11.8525072 12.9393533,13.6891493 15.0104898,14.1004302 L11.6364891,19.944395 C11.1005135,19.7690736 10.5286435,19.6730294 9.93398331,19.6730294 C7.03947115,19.6730294 4.67019061,21.9198129 4.47370694,24.7642681 C2.00862637,24.7900698 0,26.8143237 0,29.2851832 C0,31.7721586 2.03467226,33.8069123 4.52164765,33.8069123 L14.7996809,33.8069123 C16.9464318,33.8069123 18.7247149,32.1517774 18.9234776,30.0547578 L22.7982919,30.0547578 C23.1665156,32.1783117 25.0279827,33.8069123 27.2526272,33.8069123 L37.5306604,33.8069123 C39.8092687,33.8069123 41.6735032,31.9425964 41.6735032,29.6640695 C41.6734218,27.5865843 40.12361,25.8538002 38.1230416,25.5641211 Z M27.2046051,24.7640239 C25.4834602,24.7821746 23.985903,25.7751741 23.2380604,27.2133956 L18.1338802,27.2133956 C17.489163,26.3401258 16.5113027,25.7260939 15.3919807,25.5640397 C15.402399,25.4262406 15.407771,25.2869765 15.407771,25.1465729 C15.407771,23.7470134 14.881644,22.470602 14.0174089,21.5026717 L18.2413195,14.1867886 L23.4320209,14.1867886 L28.0558987,22.1955737 C27.5741311,22.9465093 27.2696384,23.8221395 27.2046051,24.7640239 Z" id="Shape"></path>
                    </g>
                </g>
                <g id="Lock-In" transform="translate(242.984487, 594.026189)">
                    <circle id="Oval" fill="#FFFFFF" cx="176.553916" cy="86.100266" r="33.8596552"></circle>
                    <g id="lock" transform="translate(161.558926, 68.686729)" fill="#3124C8" fill-rule="nonzero">
                        <path d="M10.7700912,7.93585668 L10.7700912,11.6770463 L15.8717134,11.6770463 L15.8717134,7.93585668 C15.8717134,3.56002531 12.3116881,0 7.93585668,0 C3.56002531,0 0,3.56002531 0,7.93585668 L0,16.7786684 L5.10162215,16.7786684 L5.10162215,7.93585668 C5.10162215,6.37305976 6.37305976,5.10162215 7.93585668,5.10162215 C9.4986536,5.10162215 10.7700912,6.37305976 10.7700912,7.93585668 Z" id="Path"></path>
                        <path d="M9.0695505,13.377587 L9.0695505,29.0225616 L29.0225616,29.0225616 L29.0225616,13.377587 L9.0695505,13.377587 Z M19.8963264,22.300891 L19.8963264,25.0546332 L18.1957857,25.0546332 L18.1957857,22.300891 C17.2061277,21.9498994 16.495245,21.0047955 16.495245,19.8963264 C16.495245,18.4898092 17.6395388,17.3455153 19.046056,17.3455153 C20.4525733,17.3455153 21.5968671,18.4898092 21.5968671,19.8963264 C21.5968671,21.0047955 20.8859844,21.9498994 19.8963264,22.300891 Z" id="Shape"></path>
                        <path d="M19.046056,19.046056 C18.577217,19.046056 18.1957857,19.4274873 18.1957857,19.8963264 C18.1957857,20.3651655 18.577217,20.7465968 19.046056,20.7465968 C19.5148951,20.7465968 19.8963264,20.3651655 19.8963264,19.8963264 C19.8963264,19.4274873 19.5148951,19.046056 19.046056,19.046056 Z" id="Path"></path>
                    </g>
                    <path d="M3.97784816,78.8946971 L3.97784816,83.3194096 L6.58959528,83.3194096 C8.06150775,83.3194096 8.91413997,82.5026777 8.91413997,81.1025658 C8.91413997,79.7383543 8.00765729,78.8946971 6.5447199,78.8946971 L3.97784816,78.8946971 Z M3.97784816,85.0964746 L3.97784816,89.9699409 L1.66227855,89.9699409 L1.66227855,77.0189062 L6.80499711,77.0189062 C9.60522082,77.0189062 11.28356,78.5715944 11.28356,81.0487154 C11.28356,82.7629549 10.3860524,84.189992 8.84233936,84.7464467 L11.6694883,89.9699409 L9.03081596,89.9699409 L6.48189437,85.0964746 L3.97784816,85.0964746 Z M16.9737582,81.9910983 C15.7172476,81.9910983 14.8107649,82.9514315 14.7210141,84.2797427 L19.1636768,84.2797427 C19.1188014,82.9334813 18.2571941,81.9910983 16.9737582,81.9910983 Z M19.1726519,87.1248418 L21.2638446,87.1248418 C20.9766421,88.919857 19.307278,90.1584175 17.0545339,90.1584175 C14.2004597,90.1584175 12.4772451,88.2826266 12.4772451,85.2490509 C12.4772451,82.2424005 14.2184099,80.2589087 16.9647832,80.2589087 C19.666281,80.2589087 21.3535953,82.1346996 21.3535953,85.024674 L21.3535953,85.7516552 L14.703064,85.7516552 L14.703064,85.8862813 C14.703064,87.4120443 15.6364719,88.4352029 17.0994093,88.4352029 C18.1405181,88.4352029 18.9303248,87.9146485 19.1726519,87.1248418 Z M26.3437376,90.1225172 C23.9473923,90.1225172 22.3947041,88.2287762 22.3947041,85.2041756 C22.3947041,82.1975251 23.9473923,80.294809 26.3437376,80.294809 C27.7079491,80.294809 28.7849583,81.00384 29.2875625,82.0539239 L29.341413,82.0539239 L29.341413,77.0189062 L31.5762069,77.0189062 L31.5762069,89.9699409 L29.3862884,89.9699409 L29.3862884,88.3454522 L29.350388,88.3454522 C28.8298336,89.4134862 27.7348744,90.1225172 26.3437376,90.1225172 Z M27.0168683,82.1346996 C25.5808561,82.1346996 24.6833485,83.3283847 24.6833485,85.2131506 C24.6833485,87.1068917 25.571881,88.2916017 27.0168683,88.2916017 C28.4259552,88.2916017 29.350388,87.0979166 29.350388,85.2131506 C29.350388,83.3463348 28.4259552,82.1346996 27.0168683,82.1346996 Z M41.8885692,80.4563603 L41.8885692,89.9699409 L39.734551,89.9699409 L39.734551,88.3185269 L39.6896756,88.3185269 C39.1870714,89.4763117 38.2267382,90.1404674 36.781751,90.1404674 C34.7174835,90.1404674 33.4071224,88.803181 33.4071224,86.6042874 L33.4071224,80.4563603 L35.6419163,80.4563603 L35.6419163,86.1555336 C35.6419163,87.5197452 36.306072,88.2557014 37.5625826,88.2557014 C38.8549935,88.2557014 39.6537753,87.3402436 39.6537753,85.9580819 L39.6537753,80.4563603 L41.8885692,80.4563603 Z M52.0932307,83.8489391 L49.9840878,83.8489391 C49.8045863,82.8347555 49.0955553,82.071874 47.9018702,82.071874 C46.4927832,82.071874 45.5863006,83.2565841 45.5863006,85.2131506 C45.5863006,87.2056175 46.5017583,88.3544272 47.9198203,88.3544272 C49.0506799,88.3544272 49.7866361,87.7082218 49.9930629,86.6312126 L52.1022057,86.6312126 C51.9227042,88.7583057 50.2802653,90.1584175 47.8928951,90.1584175 C45.1106215,90.1584175 43.3156063,88.3005768 43.3156063,85.2131506 C43.3156063,82.1705999 45.1106215,80.2589087 47.8749449,80.2589087 C50.3879662,80.2589087 51.9406544,81.8474971 52.0932307,83.8489391 Z M57.5321267,81.9910983 C56.2756161,81.9910983 55.3691334,82.9514315 55.2793826,84.2797427 L59.7220453,84.2797427 C59.6771699,82.9334813 58.8155626,81.9910983 57.5321267,81.9910983 Z M59.7310203,87.1248418 L61.8222131,87.1248418 C61.5350106,88.919857 59.8656465,90.1584175 57.6129024,90.1584175 C54.7588282,90.1584175 53.0356136,88.2826266 53.0356136,85.2490509 C53.0356136,82.2424005 54.7767784,80.2589087 57.5231516,80.2589087 C60.2246495,80.2589087 61.9119638,82.1346996 61.9119638,85.024674 L61.9119638,85.7516552 L55.2614325,85.7516552 L55.2614325,85.8862813 C55.2614325,87.4120443 56.1948404,88.4352029 57.6577778,88.4352029 C58.6988866,88.4352029 59.4886933,87.9146485 59.7310203,87.1248418 Z M75.4463784,88.0133743 L75.4463784,89.9699409 L67.252134,89.9699409 L67.252134,77.0189062 L69.5677037,77.0189062 L69.5677037,88.0133743 L75.4463784,88.0133743 Z M80.9121997,90.1584175 C78.1209511,90.1584175 76.3079857,88.3005768 76.3079857,85.2131506 C76.3079857,82.1436746 78.1389012,80.2589087 80.9121997,80.2589087 C83.6854982,80.2589087 85.5164137,82.1346996 85.5164137,85.2131506 C85.5164137,88.3005768 83.7034484,90.1584175 80.9121997,90.1584175 Z M80.9121997,88.3903275 C82.3302617,88.3903275 83.2457195,87.2415178 83.2457195,85.2131506 C83.2457195,83.1937585 82.3302617,82.0359737 80.9121997,82.0359737 C79.5031128,82.0359737 78.57868,83.1937585 78.57868,85.2131506 C78.57868,87.2415178 79.4941377,88.3903275 80.9121997,88.3903275 Z M95.3351469,83.8489391 L93.226004,83.8489391 C93.0465025,82.8347555 92.3374715,82.071874 91.1437864,82.071874 C89.7346995,82.071874 88.8282168,83.2565841 88.8282168,85.2131506 C88.8282168,87.2056175 89.7436745,88.3544272 91.1617365,88.3544272 C92.2925961,88.3544272 93.0285523,87.7082218 93.2349791,86.6312126 L95.344122,86.6312126 C95.1646204,88.7583057 93.5221815,90.1584175 91.1348113,90.1584175 C88.3525377,90.1584175 86.5575225,88.3005768 86.5575225,85.2131506 C86.5575225,82.1705999 88.3525377,80.2589087 91.1168612,80.2589087 C93.6298824,80.2589087 95.1825706,81.8474971 95.3351469,83.8489391 Z M98.9969779,84.4233439 L102.578033,80.4563603 L105.15388,80.4563603 L101.348448,84.548995 L105.315431,89.9699409 L102.73061,89.9699409 L99.7239591,85.9042315 L98.9700527,86.6671129 L98.9700527,89.9699409 L96.7352587,89.9699409 L96.7352587,77.0189062 L98.9700527,77.0189062 L98.9700527,84.4233439 L98.9969779,84.4233439 Z M111.777486,85.7067798 L105.880861,85.7067798 L105.880861,83.7143129 L111.777486,83.7143129 L111.777486,85.7067798 Z M116.300924,89.9699409 L113.985355,89.9699409 L113.985355,77.0189062 L116.300924,77.0189062 L116.300924,89.9699409 Z M118.356217,89.9699409 L118.356217,80.4563603 L120.50126,80.4563603 L120.50126,82.0898242 L120.546135,82.0898242 C121.057715,80.9589646 122.071898,80.2768588 123.534836,80.2768588 C125.635003,80.2768588 126.828689,81.6231202 126.828689,83.8220139 L126.828689,89.9699409 L124.593895,89.9699409 L124.593895,84.2707677 C124.593895,82.9245062 123.965639,82.1705999 122.691179,82.1705999 C121.407743,82.1705999 120.591011,83.0950327 120.591011,84.4592442 L120.591011,89.9699409 L118.356217,89.9699409 Z" id="ReduceLock-In" fill="#FFFFFF" fill-rule="nonzero"></path>
                </g>
                <g id="Backup" transform="translate(350.855129, 680.611892)">
                    <circle id="Oval" fill="#FFFFFF" cx="170.26224" cy="127.213834" r="33.8596552"></circle>
                    <g id="database-(1)" transform="translate(155.750959, 108.832878)" fill="#6516EC" fill-rule="nonzero">
                        <path d="M15.9008384,18.9786237 C15.401552,18.9941188 14.9022655,19.0027272 14.4052747,19.0027272 C13.9065621,19.0027272 13.405554,18.9946927 12.9051198,18.9786237 C8.69217521,18.8632713 5.33490432,18.2681448 2.91766927,17.4193579 C1.7813622,17.0359977 0.808614477,16.5849182 0.0573892461,16.0689889 L0.0573892461,20.1499382 L0.0573892461,20.4368844 L0.0573892461,20.7238307 L0.0573892461,21.463578 C1.69068719,23.1686125 7.1702124,24.7410779 14.4047008,24.7410779 C21.6391891,24.7410779 27.1187143,23.1686125 28.7520123,21.463578 L28.7520123,20.7238307 L28.7520123,20.4368844 L28.7520123,20.1499382 L28.7520123,16.0689889 C27.995622,16.5883616 27.0142659,17.0428844 25.8682027,17.4273924 C23.4521154,18.2721621 20.1017312,18.8638452 15.9008384,18.9786237 Z" id="Path"></path>
                        <path d="M0.0573892461,8.54468485 L0.0573892461,12.6256341 L0.0573892461,12.9125804 L0.0573892461,13.1995266 L0.0573892461,13.939274 C1.57131756,15.5197738 6.38914477,16.9866429 12.8471566,17.1920964 C12.9131543,17.194392 12.9808736,17.1949659 13.0474451,17.1966876 C13.234534,17.2018526 13.4210491,17.2070177 13.6110075,17.2098871 C13.8732763,17.2144783 14.1378408,17.2167738 14.4047008,17.2167738 C14.6715608,17.2167738 14.9361252,17.2144783 15.198394,17.210461 C15.3877786,17.2075915 15.5748675,17.2024265 15.7619564,17.1972615 C15.828528,17.1955398 15.8962473,17.194392 15.9622449,17.1926703 C22.4202568,16.9866429 27.238084,15.5197738 28.7520123,13.9398479 L28.7520123,13.1995266 L28.7520123,12.9125804 L28.7520123,12.6256341 L28.7520123,8.54468485 C25.9588777,10.4632073 20.0540981,11.4778492 14.4047008,11.4778492 C8.75530338,11.4778492 2.85109775,10.4632073 0.0573892461,8.54468485 Z" id="Path"></path>
                        <path d="M28.6745368,4.9021894 C28.0306295,2.43387793 23.0790853,0 14.4047008,0 C5.75212413,0 0.805745015,2.42182618 0.141751438,4.88382484 C0.0929705786,4.96818703 0.0573892461,5.06058372 0.0573892461,5.16503215 L0.0573892461,5.45197838 L0.0573892461,6.48842816 C1.68552216,8.18772374 7.12602269,9.75617183 14.4047008,9.75617183 C21.6833788,9.75617183 27.1244533,8.18772374 28.7520123,6.48842816 L28.7520123,5.45197838 L28.7520123,5.16503215 C28.7520123,5.06861821 28.7198743,4.98196045 28.6745368,4.9021894 Z" id="Path"></path>
                        <path d="M0.0573892461,23.5295909 L0.0573892461,28.236083 C0.0573892461,28.3290535 0.0820666219,28.4168591 0.124534664,28.4949085 C0.80230166,31.3041121 6.8660494,33.4011151 14.4047008,33.4011151 C21.9261354,33.4011151 27.9801269,31.3127204 28.6802757,28.5138469 C28.7261871,28.4312064 28.7520123,28.3365141 28.7520123,28.236083 L28.7520123,23.5307387 C26.378967,25.2013396 21.4894032,26.5144056 14.4047008,26.5144056 C7.31942444,26.5144056 2.42986068,25.2001918 0.0573892461,23.5295909 Z" id="Path"></path>
                    </g>
                    <path d="M13.5871719,178.487026 L11.5049542,178.487026 L11.5049542,169.296548 L11.4421287,169.296548 L7.69952201,178.487026 L6.11990864,178.487026 L2.37730194,169.296548 L2.31447641,169.296548 L2.31447641,178.487026 L0.223283696,178.487026 L0.223283696,165.535992 L2.90683142,165.535992 L6.87381502,175.41755 L6.94561563,175.41755 L10.9125992,165.535992 L13.5871719,165.535992 L13.5871719,178.487026 Z M19.86075,178.675503 C17.0695014,178.675503 15.256536,176.817662 15.256536,173.730236 C15.256536,170.66076 17.0874515,168.775994 19.86075,168.775994 C22.6340485,168.775994 24.464964,170.651785 24.464964,173.730236 C24.464964,176.817662 22.6519986,178.675503 19.86075,178.675503 Z M19.86075,176.907413 C21.278812,176.907413 22.1942698,175.758603 22.1942698,173.730236 C22.1942698,171.710844 21.278812,170.553059 19.86075,170.553059 C18.4516631,170.553059 17.5272302,171.710844 17.5272302,173.730236 C17.5272302,175.758603 18.442688,176.907413 19.86075,176.907413 Z M29.4551063,178.639603 C27.058761,178.639603 25.5060728,176.745861 25.5060728,173.721261 C25.5060728,170.71461 27.058761,168.811894 29.4551063,168.811894 C30.8193178,168.811894 31.8963269,169.520925 32.3989312,170.571009 L32.4527817,170.571009 L32.4527817,165.535992 L34.6875756,165.535992 L34.6875756,178.487026 L32.497657,178.487026 L32.497657,176.862537 L32.4617567,176.862537 C31.9412023,177.930572 30.846243,178.639603 29.4551063,178.639603 Z M30.128237,170.651785 C28.6922248,170.651785 27.7947172,171.84547 27.7947172,173.730236 C27.7947172,175.623977 28.6832497,176.808687 30.128237,176.808687 C31.5373239,176.808687 32.4617567,175.615002 32.4617567,173.730236 C32.4617567,171.86342 31.5373239,170.651785 30.128237,170.651785 Z M40.6649762,170.508184 C39.4084656,170.508184 38.5019829,171.468517 38.4122321,172.796828 L42.8548948,172.796828 C42.8100194,171.450567 41.9484121,170.508184 40.6649762,170.508184 Z M42.8638698,175.641927 L44.9550625,175.641927 C44.6678601,177.436942 42.998496,178.675503 40.7457519,178.675503 C37.8916777,178.675503 36.1684631,176.799712 36.1684631,173.766136 C36.1684631,170.759486 37.9096279,168.775994 40.6560011,168.775994 C43.357499,168.775994 45.0448133,170.651785 45.0448133,173.541759 L45.0448133,174.26874 L38.394282,174.26874 L38.394282,174.403367 C38.394282,175.92913 39.3276899,176.952288 40.7906273,176.952288 C41.8317361,176.952288 42.6215428,176.431734 42.8638698,175.641927 Z M46.4808255,178.487026 L46.4808255,168.973446 L48.6258686,168.973446 L48.6258686,170.633835 L48.670744,170.633835 C48.9938467,169.47605 49.8285288,168.811894 50.9504133,168.811894 C51.2376157,168.811894 51.4889179,168.865745 51.6504692,168.901645 L51.6504692,170.921037 C51.4619926,170.849237 51.1209398,170.795386 50.7439866,170.795386 C49.4785008,170.795386 48.7156194,171.612118 48.7156194,172.949404 L48.7156194,178.487026 L46.4808255,178.487026 Z M52.799279,178.487026 L52.799279,168.973446 L54.9443221,168.973446 L54.9443221,170.606909 L54.9891975,170.606909 C55.5007769,169.47605 56.5149604,168.793944 57.9778978,168.793944 C60.0780656,168.793944 61.2717507,170.140206 61.2717507,172.339099 L61.2717507,178.487026 L59.0369568,178.487026 L59.0369568,172.787853 C59.0369568,171.441592 58.4087015,170.687685 57.1342407,170.687685 C55.8508048,170.687685 55.0340729,171.612118 55.0340729,172.97633 L55.0340729,178.487026 L52.799279,178.487026 Z M72.3918699,178.487026 L66.9619489,178.487026 L66.9619489,165.535992 L72.3380194,165.535992 C74.6894894,165.535992 76.2062772,166.801477 76.2062772,168.767019 C76.2062772,170.158156 75.1741435,171.369791 73.8458322,171.585193 L73.8458322,171.656993 C75.6049471,171.82752 76.8345325,173.093006 76.8345325,174.807245 C76.8345325,177.086914 75.1561933,178.487026 72.3918699,178.487026 Z M69.2775185,167.339982 L69.2775185,170.992838 L71.3956365,170.992838 C73.0111501,170.992838 73.9176328,170.310732 73.9176328,169.108072 C73.9176328,167.977212 73.1368012,167.339982 71.7546395,167.339982 L69.2775185,167.339982 Z M69.2775185,176.683036 L71.8623404,176.683036 C73.5676049,176.683036 74.4740875,175.974005 74.4740875,174.645694 C74.4740875,173.326358 73.5406796,172.635277 71.7636146,172.635277 L69.2775185,172.635277 L69.2775185,176.683036 Z M81.734924,176.952288 C83.0004097,176.952288 84.0145933,176.108631 84.0145933,174.959821 L84.0145933,174.23284 L81.8156997,174.367466 C80.7386906,174.439267 80.1194103,174.923921 80.1194103,175.677827 C80.1194103,176.458659 80.7656158,176.952288 81.734924,176.952288 Z M81.0617933,178.639603 C79.2219027,178.639603 77.8846164,177.481818 77.8846164,175.767578 C77.8846164,174.080264 79.1860024,173.06608 81.5015721,172.922479 L84.0145933,172.778878 L84.0145933,172.096772 C84.0145933,171.100539 83.3414626,170.526134 82.2375283,170.526134 C81.1784693,170.526134 80.5053386,171.037713 80.3617374,171.82752 L78.2884948,171.82752 C78.3872207,170.050455 79.9040085,168.775994 82.327279,168.775994 C84.687724,168.775994 86.222462,170.02353 86.222462,171.935221 L86.222462,178.487026 L84.0684438,178.487026 L84.0684438,176.970238 L84.0235684,176.970238 C83.4760888,178.002372 82.2824037,178.639603 81.0617933,178.639603 Z M96.4001982,172.366024 L94.2910554,172.366024 C94.1115539,171.351841 93.4025228,170.588959 92.2088377,170.588959 C90.7997508,170.588959 89.8932681,171.773669 89.8932681,173.730236 C89.8932681,175.722703 90.8087259,176.871513 92.2267879,176.871513 C93.3576475,176.871513 94.0936037,176.225307 94.3000304,175.148298 L96.4091733,175.148298 C96.2296718,177.275391 94.5872329,178.675503 92.1998627,178.675503 C89.4175891,178.675503 87.6225739,176.817662 87.6225739,173.730236 C87.6225739,170.687685 89.4175891,168.775994 92.1819125,168.775994 C94.6949338,168.775994 96.2476219,170.364582 96.4001982,172.366024 Z M100.062029,172.940429 L103.643085,168.973446 L106.218931,168.973446 L102.413499,173.06608 L106.380483,178.487026 L103.795661,178.487026 L100.78901,174.421317 L100.035104,175.184198 L100.035104,178.487026 L97.8003101,178.487026 L97.8003101,165.535992 L100.035104,165.535992 L100.035104,172.940429 L100.062029,172.940429 Z M115.705587,168.973446 L115.705587,178.487026 L113.551568,178.487026 L113.551568,176.835612 L113.506693,176.835612 C113.004089,177.993397 112.043756,178.657553 110.598768,178.657553 C108.534501,178.657553 107.22414,177.320266 107.22414,175.121373 L107.22414,168.973446 L109.458934,168.973446 L109.458934,174.672619 C109.458934,176.03683 110.123089,176.772787 111.3796,176.772787 C112.672011,176.772787 113.470793,175.857329 113.470793,174.475167 L113.470793,168.973446 L115.705587,168.973446 Z M122.751021,168.811894 C125.165317,168.811894 126.700055,170.687685 126.700055,173.730236 C126.700055,176.763812 125.174292,178.639603 122.786922,178.639603 C121.40476,178.639603 120.327751,177.975447 119.807196,176.907413 L119.762321,176.907413 L119.762321,181.619328 L117.527527,181.619328 L117.527527,168.973446 L119.708471,168.973446 L119.708471,170.615885 L119.753346,170.615885 C120.291851,169.51195 121.36886,168.811894 122.751021,168.811894 Z M122.068916,176.808687 C123.513903,176.808687 124.41141,175.615002 124.41141,173.730236 C124.41141,171.854445 123.513903,170.651785 122.068916,170.651785 C120.677779,170.651785 119.753346,171.88137 119.744371,173.730236 C119.753346,175.597052 120.677779,176.808687 122.068916,176.808687 Z M127.965541,171.701869 C127.965541,169.960704 129.482328,168.775994 131.779948,168.775994 C134.095517,168.775994 135.56743,170.02353 135.62128,171.82752 L133.539063,171.82752 C133.449312,170.965913 132.812082,170.418433 131.779948,170.418433 C130.79269,170.418433 130.137509,170.885137 130.137509,171.585193 C130.137509,172.132672 130.532412,172.509626 131.528646,172.734003 L133.108259,173.08403 C135.082776,173.523809 135.845657,174.286691 135.845657,175.668852 C135.845657,177.463868 134.194243,178.675503 131.860724,178.675503 C129.374628,178.675503 127.902715,177.490793 127.723214,175.650902 L129.922107,175.650902 C130.092634,176.575335 130.729864,177.042039 131.860724,177.042039 C132.946708,177.042039 133.619838,176.593285 133.619838,175.884254 C133.619838,175.309849 133.278786,174.986747 132.282552,174.76237 L130.702939,174.412342 C128.880998,174.008463 127.965541,173.110956 127.965541,171.701869 Z" id="ModernBackups" fill="#FFFFFF" fill-rule="nonzero"></path>
                </g>
                <g id="Security" transform="translate(620.761497, 715.920948)">
                    <circle id="Oval" fill="#FFFFFF" cx="108.350897" cy="91.9047784" r="33.8596552"></circle>
                    <path d="M142.811882,139.561015 L145.028726,139.561015 C145.199252,140.7547 146.366012,141.472706 147.981526,141.472706 C149.543189,141.472706 150.629173,140.70085 150.629173,139.62384 C150.629173,138.690432 149.982968,138.116028 148.295653,137.766 L146.904517,137.478797 C144.31072,136.949268 143.099084,135.728657 143.099084,133.834916 C143.099084,131.555247 145.100526,130.011534 147.909725,130.011534 C150.772774,130.011534 152.666515,131.573197 152.720366,133.888767 L150.503522,133.888767 C150.395821,132.668156 149.372662,131.9322 147.891775,131.9322 C146.455763,131.9322 145.432604,132.614306 145.432604,133.70029 C145.432604,134.579848 146.07881,135.145277 147.694323,135.48633 L149.094435,135.773533 C151.822858,136.338963 152.962693,137.433922 152.962693,139.354588 C152.962693,141.831709 151.015101,143.393372 147.90075,143.393372 C144.903075,143.393372 142.919583,141.930435 142.811882,139.561015 Z M158.572115,135.199128 C157.315605,135.199128 156.409122,136.159461 156.319371,137.487772 L160.762034,137.487772 C160.717159,136.141511 159.855551,135.199128 158.572115,135.199128 Z M160.771009,140.332871 L162.862202,140.332871 C162.574999,142.127887 160.905635,143.366447 158.652891,143.366447 C155.798817,143.366447 154.075602,141.490656 154.075602,138.457081 C154.075602,135.45043 155.816767,133.466938 158.56314,133.466938 C161.264638,133.466938 162.951952,135.342729 162.951952,138.232704 L162.951952,138.959685 L156.301421,138.959685 L156.301421,139.094311 C156.301421,140.620074 157.234829,141.643232 158.697766,141.643232 C159.738875,141.643232 160.528682,141.122678 160.771009,140.332871 Z M172.770686,137.056969 L170.661543,137.056969 C170.482041,136.042785 169.77301,135.279904 168.579325,135.279904 C167.170238,135.279904 166.263755,136.464614 166.263755,138.42118 C166.263755,140.413647 167.179213,141.562457 168.597275,141.562457 C169.728135,141.562457 170.464091,140.916251 170.670518,139.839242 L172.779661,139.839242 C172.600159,141.966335 170.95772,143.366447 168.57035,143.366447 C165.788076,143.366447 163.993061,141.508606 163.993061,138.42118 C163.993061,135.378629 165.788076,133.466938 168.5524,133.466938 C171.065421,133.466938 172.618109,135.055527 172.770686,137.056969 Z M182.544543,133.66439 L182.544543,143.17797 L180.390525,143.17797 L180.390525,141.526557 L180.34565,141.526557 C179.843045,142.684341 178.882712,143.348497 177.437725,143.348497 C175.373458,143.348497 174.063097,142.011211 174.063097,139.812317 L174.063097,133.66439 L176.29789,133.66439 L176.29789,139.363563 C176.29789,140.727775 176.962046,141.463731 178.218557,141.463731 C179.510968,141.463731 180.309749,140.548273 180.309749,139.166112 L180.309749,133.66439 L182.544543,133.66439 Z M184.366484,143.17797 L184.366484,133.66439 L186.511527,133.66439 L186.511527,135.324779 L186.556402,135.324779 C186.879505,134.166994 187.714187,133.502839 188.836072,133.502839 C189.123274,133.502839 189.374576,133.556689 189.536128,133.592589 L189.536128,135.611981 C189.347651,135.540181 189.006598,135.48633 188.629645,135.48633 C187.364159,135.48633 186.601278,136.303062 186.601278,137.640349 L186.601278,143.17797 L184.366484,143.17797 Z M190.738788,143.17797 L190.738788,133.66439 L192.973582,133.66439 L192.973582,143.17797 L190.738788,143.17797 Z M191.842722,132.228378 C191.169591,132.228378 190.622112,131.680898 190.622112,131.016742 C190.622112,130.343612 191.169591,129.805107 191.842722,129.805107 C192.533803,129.805107 193.072308,130.343612 193.072308,131.016742 C193.072308,131.680898 192.533803,132.228378 191.842722,132.228378 Z M195.468653,131.438571 L197.703447,131.438571 L197.703447,133.66439 L199.498462,133.66439 L199.498462,135.387605 L197.703447,135.387605 L197.703447,140.332871 C197.703447,141.113703 198.06245,141.472706 198.852256,141.472706 C199.058683,141.472706 199.345886,141.454756 199.489487,141.427831 L199.489487,143.133095 C199.24716,143.186946 198.807381,143.222846 198.331702,143.222846 C196.27641,143.222846 195.468653,142.495865 195.468653,140.646999 L195.468653,135.387605 L194.104441,135.387605 L194.104441,133.66439 L195.468653,133.66439 L195.468653,131.438571 Z M202.083284,146.71415 C201.948658,146.71415 201.320402,146.705175 201.203726,146.67825 L201.203726,144.91016 C201.320402,144.937085 201.715306,144.94606 201.849932,144.94606 C202.774365,144.94606 203.250044,144.596033 203.492371,143.716475 C203.492371,143.68955 203.635972,143.213871 203.626997,143.186946 L200.243393,133.66439 L202.684614,133.66439 L204.919408,141.275254 L204.964283,141.275254 L207.208052,133.66439 L209.559522,133.66439 L206.113093,143.554924 C205.305336,145.915369 204.255252,146.71415 202.083284,146.71415 Z M223.623466,143.17797 L222.546457,142.020186 C221.532274,142.899743 220.051386,143.402347 218.489723,143.402347 C215.81515,143.402347 214.038085,141.948385 214.038085,139.767442 C214.038085,138.277579 214.809942,137.173645 216.488281,136.267162 C216.667782,136.177411 216.990885,135.99791 217.03576,135.97996 C215.869001,134.759349 215.429222,133.942617 215.429222,133.000234 C215.429222,131.303945 216.92806,130.038459 218.956427,130.038459 C220.993769,130.038459 222.438756,131.25907 222.438756,132.973309 C222.438756,134.30162 221.622024,135.324779 219.764184,136.321012 L222.492607,139.273812 C222.85161,138.627607 223.013161,137.74805 223.013161,136.464614 L223.013161,135.890209 L224.951778,135.890209 L224.951778,136.563339 C224.951778,138.286554 224.565849,139.677691 223.865793,140.691874 L226.226238,143.17797 L223.623466,143.17797 Z M217.735816,137.406997 C216.622907,138.098077 216.174153,138.726333 216.174153,139.596915 C216.174153,140.853426 217.197312,141.706058 218.7141,141.706058 C219.728283,141.706058 220.760417,141.311155 221.325847,140.691874 L218.11277,137.20057 C218.005069,137.245445 217.807617,137.353146 217.735816,137.406997 Z M218.678199,135.217078 C219.98856,134.543947 220.509115,133.942617 220.509115,133.107935 C220.509115,132.228378 219.88086,131.609098 218.965402,131.609098 C218.058919,131.609098 217.412714,132.246328 217.412714,133.11691 C217.412714,133.754141 217.753767,134.310595 218.678199,135.217078 Z M148.932884,165.644003 C145.235152,165.644003 142.910608,163.104056 142.910608,158.948596 C142.910608,154.820061 145.253103,152.262165 148.932884,152.262165 C151.939534,152.262165 154.228179,154.137955 154.515381,156.920229 L152.235712,156.920229 C151.930559,155.29574 150.611223,154.227706 148.932884,154.227706 C146.707065,154.227706 145.280028,156.058622 145.280028,158.948596 C145.280028,161.856521 146.69809,163.678461 148.941859,163.678461 C150.656098,163.678461 151.885684,162.754028 152.244687,161.192365 L154.515381,161.192365 C154.111503,163.965664 151.993385,165.644003 148.932884,165.644003 Z M160.250455,165.617078 C157.459206,165.617078 155.646241,163.759237 155.646241,160.671811 C155.646241,157.602335 157.477156,155.717569 160.250455,155.717569 C163.023753,155.717569 164.854669,157.59336 164.854669,160.671811 C164.854669,163.759237 163.041703,165.617078 160.250455,165.617078 Z M160.250455,163.848988 C161.668517,163.848988 162.583974,162.700178 162.583974,160.671811 C162.583974,158.652419 161.668517,157.494634 160.250455,157.494634 C158.841368,157.494634 157.916935,158.652419 157.916935,160.671811 C157.916935,162.700178 158.832393,163.848988 160.250455,163.848988 Z M166.290681,165.428601 L166.290681,155.91502 L168.435724,155.91502 L168.435724,157.566434 L168.480599,157.566434 C168.893453,156.4625 169.898661,155.735519 171.191072,155.735519 C172.537334,155.735519 173.497667,156.4266 173.847695,157.64721 L173.901545,157.64721 C174.359274,156.471475 175.490134,155.735519 176.86332,155.735519 C178.739111,155.735519 179.968697,157.001005 179.968697,158.903721 L179.968697,165.428601 L177.733903,165.428601 L177.733903,159.4512 C177.733903,158.284441 177.123597,157.620285 176.028638,157.620285 C174.951629,157.620285 174.215673,158.410092 174.215673,159.549926 L174.215673,165.428601 L172.043704,165.428601 L172.043704,159.334524 C172.043704,158.275465 171.397499,157.620285 170.35639,157.620285 C169.279381,157.620285 168.525475,158.454967 168.525475,159.603777 L168.525475,165.428601 L166.290681,165.428601 Z M186.978231,155.753469 C189.392526,155.753469 190.927264,157.62926 190.927264,160.671811 C190.927264,163.705386 189.401501,165.581177 187.014131,165.581177 C185.63197,165.581177 184.55496,164.917022 184.034406,163.848988 L183.989531,163.848988 L183.989531,168.560903 L181.754737,168.560903 L181.754737,155.91502 L183.93568,155.91502 L183.93568,157.557459 L183.980556,157.557459 C184.51906,156.453525 185.596069,155.753469 186.978231,155.753469 Z M186.296125,163.750262 C187.741112,163.750262 188.63862,162.556577 188.63862,160.671811 C188.63862,158.79602 187.741112,157.59336 186.296125,157.59336 C184.904988,157.59336 183.980556,158.822945 183.97158,160.671811 C183.980556,162.538627 184.904988,163.750262 186.296125,163.750262 Z M192.426102,165.428601 L192.426102,152.477566 L194.660896,152.477566 L194.660896,165.428601 L192.426102,165.428601 Z M200.036967,163.893863 C201.302452,163.893863 202.316636,163.050206 202.316636,161.901396 L202.316636,161.174415 L200.117742,161.309041 C199.040733,161.380842 198.421453,161.865496 198.421453,162.619402 C198.421453,163.400234 199.067658,163.893863 200.036967,163.893863 Z M199.363836,165.581177 C197.523945,165.581177 196.186659,164.423393 196.186659,162.709153 C196.186659,161.021839 197.488045,160.007655 199.803615,159.864054 L202.316636,159.720453 L202.316636,159.038347 C202.316636,158.042113 201.643505,157.467709 200.539571,157.467709 C199.480512,157.467709 198.807381,157.979288 198.66378,158.769095 L196.590537,158.769095 C196.689263,156.99203 198.206051,155.717569 200.629322,155.717569 C202.989767,155.717569 204.524505,156.965104 204.524505,158.876796 L204.524505,165.428601 L202.370486,165.428601 L202.370486,163.911813 L202.325611,163.911813 C201.778131,164.943947 200.584446,165.581177 199.363836,165.581177 Z M206.37337,165.428601 L206.37337,155.91502 L208.608164,155.91502 L208.608164,165.428601 L206.37337,165.428601 Z M207.477305,154.479008 C206.804174,154.479008 206.256694,153.931529 206.256694,153.267373 C206.256694,152.594242 206.804174,152.055738 207.477305,152.055738 C208.168385,152.055738 208.70689,152.594242 208.70689,153.267373 C208.70689,153.931529 208.168385,154.479008 207.477305,154.479008 Z M210.483955,165.428601 L210.483955,155.91502 L212.628998,155.91502 L212.628998,157.548484 L212.673874,157.548484 C213.185453,156.417625 214.199636,155.735519 215.662574,155.735519 C217.762742,155.735519 218.956427,157.08178 218.956427,159.280674 L218.956427,165.428601 L216.721633,165.428601 L216.721633,159.729428 C216.721633,158.383166 216.093378,157.62926 214.818917,157.62926 C213.535481,157.62926 212.718749,158.553693 212.718749,159.917904 L212.718749,165.428601 L210.483955,165.428601 Z M229.125188,159.307599 L227.016045,159.307599 C226.836543,158.293416 226.127512,157.530534 224.933827,157.530534 C223.52474,157.530534 222.618258,158.715244 222.618258,160.671811 C222.618258,162.664278 223.533716,163.813087 224.951778,163.813087 C226.082637,163.813087 226.818593,163.166882 227.02502,162.089873 L229.134163,162.089873 C228.954661,164.216966 227.312223,165.617078 224.924852,165.617078 C222.142579,165.617078 220.347564,163.759237 220.347564,160.671811 C220.347564,157.62926 222.142579,155.717569 224.906902,155.717569 C227.419923,155.717569 228.972612,157.306157 229.125188,159.307599 Z M234.564084,157.449758 C233.307573,157.449758 232.401091,158.410092 232.31134,159.738403 L236.754002,159.738403 C236.709127,158.392141 235.84752,157.449758 234.564084,157.449758 Z M236.762978,162.583502 L238.85417,162.583502 C238.566968,164.378517 236.897604,165.617078 234.64486,165.617078 C231.790785,165.617078 230.067571,163.741287 230.067571,160.707711 C230.067571,157.701061 231.808736,155.717569 234.555109,155.717569 C237.256607,155.717569 238.943921,157.59336 238.943921,160.483334 L238.943921,161.210315 L232.29339,161.210315 L232.29339,161.344941 C232.29339,162.870704 233.226798,163.893863 234.689735,163.893863 C235.730844,163.893863 236.520651,163.373309 236.762978,162.583502 Z" id="Security&amp;Complaince" fill="#FFFFFF" fill-rule="nonzero"></path>
                    <g id="shield-(1)" transform="translate(91.421069, 76.426079)" fill="#A800CF" fill-rule="nonzero">
                        <path d="M27.5918194,0 L16.9824336,0 L6.37304774,0 C6.37304774,3.1672004 3.54329509,5.73471457 0.0526059879,5.73471457 L0.0526059879,11.7127954 C0.0526059879,21.5763378 6.80052815,30.4037219 16.9824336,33.8596552 C27.1642661,30.4037219 33.9122612,21.5763378 33.9122612,11.7128615 L33.9122612,5.73471457 C30.4215721,5.73471457 27.5918194,3.1672004 27.5918194,0 Z M14.6240391,24.3032304 L7.46547338,17.8080624 L12.1039091,13.5994131 L14.6240391,15.8859979 L21.8610309,9.31960556 L26.4994667,13.5282549 L14.6240391,24.3032304 Z" id="Shape"></path>
                    </g>
                </g>
                <g id="Cost" transform="translate(727.177556, 646.266800)">
                    <circle id="Oval" fill="#FFFFFF" cx="109.318315" cy="33.8596552" r="33.8596552"></circle>
                    <g id="loss" transform="translate(95.774453, 11.609025)" fill="#CD23CE" fill-rule="nonzero">
                        <path d="M14.0294609,28.1439489 C21.7652605,28.1439489 28.0589218,21.8502876 28.0589218,14.114488 C28.0589218,6.37868836 21.7652605,0 14.0294609,0 C6.29366132,0 0,6.37868836 0,14.114488 C0,21.8502876 6.29366132,28.1439489 14.0294609,28.1439489 Z M14.0430785,15.0162396 C11.9333452,15.0162396 10.2168619,13.2997563 10.2168619,11.1900229 C10.2168619,9.53465283 11.2796998,8.13502807 12.7540554,7.60294486 L12.7540554,6.46205473 C12.7540554,5.75726036 13.3246666,5.18664919 14.0294609,5.18664919 C14.7345875,5.18664919 15.3048665,5.75726036 15.3048665,6.46205473 L15.3048665,7.59464137 C16.7931717,8.11875338 17.8692951,9.52435657 17.8692951,11.1900229 C17.8692951,11.8948173 17.2990162,12.4654285 16.5938896,12.4654285 C15.8890952,12.4654285 15.3184841,11.8948173 15.3184841,11.1900229 C15.3184841,10.4862249 14.7468765,9.9146174 14.0430785,9.9146174 C13.3396127,9.9146174 12.767673,10.4862249 12.767673,11.1900229 C12.767673,11.8938209 13.3396127,12.4654285 14.0430785,12.4654285 C16.153144,12.4654285 17.8692951,14.1815796 17.8692951,16.2916451 C17.8692951,17.9573114 16.7931717,19.3625824 15.3048665,19.8870266 L15.3048665,21.7669212 C15.3048665,22.4717156 14.7345875,23.0423267 14.0294609,23.0423267 C13.3246666,23.0423267 12.7540554,22.4717156 12.7540554,21.7669212 L12.7540554,19.878391 C11.2796998,19.3466399 10.2168619,17.9470152 10.2168619,16.2916451 C10.2168619,15.5865185 10.7874731,15.0162396 11.4922674,15.0162396 C12.197394,15.0162396 12.767673,15.5865185 12.767673,16.2916451 C12.767673,16.995443 13.3396127,17.5670506 14.0430785,17.5670506 C14.7468765,17.5670506 15.3184841,16.995443 15.3184841,16.2916451 C15.3184841,15.5878471 14.7468765,15.0162396 14.0430785,15.0162396 Z" id="Shape"></path>
                        <path d="M20.3091725,36.6685735 C20.1122153,36.191625 19.6465595,35.8814091 19.130751,35.8814091 L16.580272,35.8814091 L16.580272,30.4775424 C15.7466084,30.6074079 14.8989952,30.69476 14.0294609,30.69476 C13.1599267,30.69476 12.3123134,30.6074079 11.4786498,30.4775424 L11.4786498,35.8814091 L8.92817088,35.8814091 C8.41269448,35.8814091 7.94670653,36.191625 7.75008151,36.6685735 C7.55212786,37.1455221 7.66173306,37.6935479 8.02641938,38.0585663 L13.1277093,43.1601884 C13.376812,43.409291 13.7033025,43.5338424 14.0294609,43.5338424 C14.3556194,43.5338424 14.6821098,43.409291 14.9312125,43.1601884 L20.0325025,38.0585663 C20.3975209,37.6935479 20.5071261,37.1455221 20.3091725,36.6685735 Z" id="Path"></path>
                    </g>
                    <path d="M160.177237,26.6540863 L160.177237,31.0787987 L162.788984,31.0787987 C164.260896,31.0787987 165.113529,30.2620668 165.113529,28.861955 C165.113529,27.4977434 164.207046,26.6540863 162.744109,26.6540863 L160.177237,26.6540863 Z M160.177237,32.8558638 L160.177237,37.7293301 L157.861667,37.7293301 L157.861667,24.7782954 L163.004386,24.7782954 C165.804609,24.7782954 167.482949,26.3309835 167.482949,28.8081045 C167.482949,30.522344 166.585441,31.9493811 165.041728,32.5058358 L167.868877,37.7293301 L165.230205,37.7293301 L162.681283,32.8558638 L160.177237,32.8558638 Z M173.173147,29.7504875 C171.916636,29.7504875 171.010154,30.7108206 170.920403,32.0391319 L175.363065,32.0391319 C175.31819,30.6928705 174.456583,29.7504875 173.173147,29.7504875 Z M175.372041,34.884231 L177.463233,34.884231 C177.176031,36.6792462 175.506667,37.9178067 173.253923,37.9178067 C170.399848,37.9178067 168.676634,36.0420158 168.676634,33.0084401 C168.676634,30.0017896 170.417799,28.0182978 173.164172,28.0182978 C175.86567,28.0182978 177.552984,29.8940887 177.552984,32.7840632 L177.552984,33.5110443 L170.902453,33.5110443 L170.902453,33.6456705 C170.902453,35.1714334 171.835861,36.1945921 173.298798,36.1945921 C174.339907,36.1945921 175.129713,35.6740377 175.372041,34.884231 Z M182.543126,37.8819064 C180.146781,37.8819064 178.594093,35.9881653 178.594093,32.9635647 C178.594093,29.9569142 180.146781,28.0541981 182.543126,28.0541981 C183.907338,28.0541981 184.984347,28.7632291 185.486951,29.813313 L185.540802,29.813313 L185.540802,24.7782954 L187.775596,24.7782954 L187.775596,37.7293301 L185.585677,37.7293301 L185.585677,36.1048413 L185.549777,36.1048413 C185.029222,37.1728753 183.934263,37.8819064 182.543126,37.8819064 Z M183.216257,29.8940887 C181.780245,29.8940887 180.882737,31.0877738 180.882737,32.9725398 C180.882737,34.8662808 181.77127,36.0509908 183.216257,36.0509908 C184.625344,36.0509908 185.549777,34.8573057 185.549777,32.9725398 C185.549777,31.105724 184.625344,29.8940887 183.216257,29.8940887 Z M198.087958,28.2157495 L198.087958,37.7293301 L195.93394,37.7293301 L195.93394,36.0779161 L195.889064,36.0779161 C195.38646,37.2357009 194.426127,37.8998565 192.98114,37.8998565 C190.916872,37.8998565 189.606511,36.5625702 189.606511,34.3636766 L189.606511,28.2157495 L191.841305,28.2157495 L191.841305,33.9149228 C191.841305,35.2791343 192.505461,36.0150905 193.761971,36.0150905 C195.054382,36.0150905 195.853164,35.0996328 195.853164,33.7174711 L195.853164,28.2157495 L198.087958,28.2157495 Z M208.292619,31.6083282 L206.183476,31.6083282 C206.003975,30.5941446 205.294944,29.8312632 204.101259,29.8312632 C202.692172,29.8312632 201.785689,31.0159732 201.785689,32.9725398 C201.785689,34.9650067 202.701147,36.1138164 204.119209,36.1138164 C205.250069,36.1138164 205.986025,35.4676109 206.192452,34.3906018 L208.301594,34.3906018 C208.122093,36.5176948 206.479654,37.9178067 204.092284,37.9178067 C201.31001,37.9178067 199.514995,36.0599659 199.514995,32.9725398 C199.514995,29.929989 201.31001,28.0182978 204.074334,28.0182978 C206.587355,28.0182978 208.140043,29.6068863 208.292619,31.6083282 Z M213.731515,29.7504875 C212.475005,29.7504875 211.568522,30.7108206 211.478771,32.0391319 L215.921434,32.0391319 C215.876559,30.6928705 215.014951,29.7504875 213.731515,29.7504875 Z M215.930409,34.884231 L218.021602,34.884231 C217.734399,36.6792462 216.065035,37.9178067 213.812291,37.9178067 C210.958217,37.9178067 209.235002,36.0420158 209.235002,33.0084401 C209.235002,30.0017896 210.976167,28.0182978 213.72254,28.0182978 C216.424038,28.0182978 218.111352,29.8940887 218.111352,32.7840632 L218.111352,33.5110443 L211.460821,33.5110443 L211.460821,33.6456705 C211.460821,35.1714334 212.394229,36.1945921 213.857166,36.1945921 C214.898275,36.1945921 215.688082,35.6740377 215.930409,34.884231 Z M229.03402,37.9447319 C225.336289,37.9447319 223.011744,35.4047854 223.011744,31.2493252 C223.011744,27.1207902 225.354239,24.5628936 229.03402,24.5628936 C232.04067,24.5628936 234.329315,26.4386844 234.616517,29.220958 L232.336848,29.220958 C232.031695,27.5964692 230.712359,26.5284352 229.03402,26.5284352 C226.808201,26.5284352 225.381164,28.3593507 225.381164,31.2493252 C225.381164,34.1572498 226.799226,35.9791902 229.042995,35.9791902 C230.757235,35.9791902 231.98682,35.0547574 232.345823,33.4930942 L234.616517,33.4930942 C234.212639,36.2663927 232.094521,37.9447319 229.03402,37.9447319 Z M240.351591,37.9178067 C237.560342,37.9178067 235.747377,36.0599659 235.747377,32.9725398 C235.747377,29.9030638 237.578292,28.0182978 240.351591,28.0182978 C243.124889,28.0182978 244.955805,29.8940887 244.955805,32.9725398 C244.955805,36.0599659 243.142839,37.9178067 240.351591,37.9178067 Z M240.351591,36.1497167 C241.769653,36.1497167 242.685111,35.000907 242.685111,32.9725398 C242.685111,30.9531477 241.769653,29.7953629 240.351591,29.7953629 C238.942504,29.7953629 238.018071,30.9531477 238.018071,32.9725398 C238.018071,35.000907 238.933529,36.1497167 240.351591,36.1497167 Z M246.221291,30.9441726 C246.221291,29.2030079 247.738078,28.0182978 250.035698,28.0182978 C252.351267,28.0182978 253.82318,29.2658334 253.87703,31.0698237 L251.794813,31.0698237 C251.705062,30.2082164 251.067832,29.6607367 250.035698,29.6607367 C249.048439,29.6607367 248.393259,30.1274407 248.393259,30.8274966 C248.393259,31.3749762 248.788162,31.7519294 249.784396,31.9763063 L251.364009,32.3263343 C253.338526,32.766113 254.101407,33.5289945 254.101407,34.9111562 C254.101407,36.7061714 252.449993,37.9178067 250.116474,37.9178067 C247.630377,37.9178067 246.158465,36.7330966 245.978964,34.893206 L248.177857,34.893206 C248.348384,35.8176389 248.985614,36.2843428 250.116474,36.2843428 C251.202458,36.2843428 251.875588,35.835589 251.875588,35.126558 C251.875588,34.5521532 251.534536,34.2290504 250.538302,34.0046735 L248.958689,33.6546456 C247.136748,33.2507671 246.221291,32.3532595 246.221291,30.9441726 Z M256.13875,25.9899306 L258.373543,25.9899306 L258.373543,28.2157495 L260.168559,28.2157495 L260.168559,29.9389641 L258.373543,29.9389641 L258.373543,34.884231 C258.373543,35.6650626 258.732547,36.0240656 259.522353,36.0240656 C259.72878,36.0240656 260.015982,36.0061155 260.159584,35.9791902 L260.159584,37.6844547 C259.917257,37.7383051 259.477478,37.7742054 259.001799,37.7742054 C256.946506,37.7742054 256.13875,37.0472243 256.13875,35.1983586 L256.13875,29.9389641 L254.774538,29.9389641 L254.774538,28.2157495 L256.13875,28.2157495 L256.13875,25.9899306 Z" id="ReduceCost" fill="#FFFFFF" fill-rule="nonzero"></path>
                </g>
                <g id="Governance" transform="translate(693.801610, 495.363300)">
                    <circle id="Oval" fill="#FFFFFF" cx="34.3433645" cy="52.2267906" r="33.8596552"></circle>
                    <g id="speech" transform="translate(17.413537, 30.943579)" fill="#28CAD3" fill-rule="nonzero">
                        <path d="M19.918339,6.08395839 C20.3894643,5.44935439 20.6687403,4.6641675 20.6687403,3.81489857 C20.6687403,1.71136749 18.9573728,0 16.8538418,0 C14.7503107,0 13.0389432,1.71136749 13.0389432,3.81489857 C13.0389432,4.66615147 13.3194096,5.45312392 13.7925189,6.08852151 C12.2516401,6.76174669 11.0886403,8.14159377 10.714134,9.81645632 L23.006776,9.81645632 C22.6314761,8.1379565 21.4641777,6.75553027 19.918339,6.08395839 Z" id="Path"></path>
                        <path d="M7.58429823,11.8022061 L7.58429823,15.948625 L11.2250048,15.948625 L11.2250048,24.298006 C11.853723,21.7748004 14.1387868,19.8995574 16.8538418,19.8995574 C19.561027,19.8995574 21.8408664,21.7638886 22.4773221,24.275984 L22.4773221,15.948625 L26.1499043,15.948625 L26.1499043,11.8022061 L7.58429823,11.8022061 Z" id="Path"></path>
                        <path d="M30.4844692,27.9692656 C30.9555946,27.3346616 31.2348045,26.5494747 31.2348045,25.7002057 C31.2348045,23.5966747 29.5235031,21.8853072 27.4199059,21.8853072 C25.3163087,21.8853072 23.6050073,23.5966747 23.6050073,25.7002057 C23.6050073,26.5514586 23.8854737,27.3384311 24.358583,27.9738287 C24.0903511,28.0910148 23.8339568,28.2297601 23.5907889,28.3876836 C23.026285,28.7541218 22.53532,29.2239906 22.144479,29.7706389 C21.7671952,29.2426399 21.2911099,28.7795827 20.7307723,28.4095733 L20.4915062,28.2515175 L20.4915062,28.2611728 C20.3070637,28.1529806 20.1158757,28.0551051 19.9182067,27.9692656 C20.095044,27.7310576 20.2447672,27.4716873 20.3629453,27.1955857 L20.3647309,27.1913532 C20.5664339,26.7189052 20.6686081,26.2171607 20.6686081,25.7001396 C20.6686081,23.5966085 18.9572406,21.885241 16.8537095,21.885241 C14.7501784,21.885241 13.0388109,23.5966085 13.0388109,25.7001396 C13.0388109,26.2189462 13.1418448,26.7224102 13.3450689,27.1965776 L13.3472512,27.201736 C13.4656939,27.4772424 13.6154832,27.7361498 13.7923867,27.9737625 C13.5916756,28.0614538 13.3975117,28.1611149 13.21049,28.2718201 L13.21049,28.2630245 L12.9812098,28.4151284 C12.4263612,28.7830877 11.9544422,29.2426399 11.5796053,29.7661419 C11.1883014,29.2199566 10.6969396,28.7505507 10.132105,28.3847738 C9.88721771,28.2261228 9.62890558,28.0866501 9.35868966,27.9691994 C9.82981501,27.3345954 10.1090249,26.5494085 10.1090249,25.7001396 C10.1090249,23.5966085 8.39765741,21.885241 6.29412633,21.885241 C4.19059525,21.885241 2.47922776,23.5966085 2.47922776,25.7001396 C2.47922776,26.5513925 2.75969416,27.338365 3.23280348,27.9737625 C1.34671488,28.797769 0.0247995521,30.6803526 0.0247995521,32.8666811 L0.0247995521,33.8595229 L33.7025252,33.8595229 L33.7023268,32.8667472 L33.7025252,32.8667472 C33.7025252,30.6765169 32.3759145,28.7910235 30.4844692,27.9692656 Z" id="Path"></path>
                    </g>
                    <path d="M81.3777228,8.12704605 C81.3777228,11.6363008 79.277555,13.7454436 75.7323999,13.7454436 C71.9538929,13.7454436 69.602423,11.1785719 69.602423,7.00516155 C69.602423,2.89457673 71.9449179,0.363605297 75.6875246,0.363605297 C78.6313495,0.363605297 80.8571683,2.10477004 81.2789969,4.69856701 L78.927527,4.69856701 C78.4877483,3.20870439 77.2850881,2.32914694 75.6964996,2.32914694 C73.3629799,2.32914694 71.9718431,4.06133661 71.9718431,6.97823632 C71.9718431,9.95796155 73.4258054,11.779902 75.7593252,11.779902 C77.7158917,11.779902 79.0711282,10.5413415 79.1070285,8.72837614 L79.1160036,8.51297432 L75.9926771,8.51297432 L75.9926771,6.74488434 L81.3777228,6.74488434 L81.3777228,8.12704605 Z M87.2474225,13.7185184 C84.4561738,13.7185184 82.6432085,11.8606777 82.6432085,8.77325152 C82.6432085,5.70377552 84.474124,3.81900956 87.2474225,3.81900956 C90.020721,3.81900956 91.8516365,5.69480045 91.8516365,8.77325152 C91.8516365,11.8606777 90.0386711,13.7185184 87.2474225,13.7185184 Z M87.2474225,11.9504284 C88.6654845,11.9504284 89.5809422,10.8016187 89.5809422,8.77325152 C89.5809422,6.75385942 88.6654845,5.59607461 87.2474225,5.59607461 C85.8383355,5.59607461 84.9139027,6.75385942 84.9139027,8.77325152 C84.9139027,10.8016187 85.8293605,11.9504284 87.2474225,11.9504284 Z M101.419067,4.01646123 L98.0713641,13.5300418 L95.6121933,13.5300418 L92.2375647,4.01646123 L94.6249349,4.01646123 L96.8328036,11.4567992 L96.877679,11.4567992 L99.0855477,4.01646123 L101.419067,4.01646123 Z M106.274584,5.55119923 C105.018073,5.55119923 104.11159,6.51153237 104.02184,7.83984362 L108.464502,7.83984362 C108.419627,6.49358221 107.558019,5.55119923 106.274584,5.55119923 Z M108.473477,10.6849427 L110.56467,10.6849427 C110.277468,12.4799579 108.608103,13.7185184 106.355359,13.7185184 C103.501285,13.7185184 101.778071,11.8427275 101.778071,8.80915182 C101.778071,5.80250136 103.519235,3.81900956 106.265609,3.81900956 C108.967106,3.81900956 110.654421,5.69480045 110.654421,8.58477492 L110.654421,9.31175608 L104.003889,9.31175608 L104.003889,9.44638222 C104.003889,10.9721451 104.937297,11.9953038 106.400235,11.9953038 C107.441343,11.9953038 108.23115,11.4747494 108.473477,10.6849427 Z M112.090433,13.5300418 L112.090433,4.01646123 L114.235476,4.01646123 L114.235476,5.6768503 L114.280351,5.6768503 C114.603454,4.51906549 115.438136,3.85490987 116.560021,3.85490987 C116.847223,3.85490987 117.098525,3.90876032 117.260077,3.94466063 L117.260077,5.96405273 C117.0716,5.89225212 116.730547,5.83840166 116.353594,5.83840166 C115.088108,5.83840166 114.325227,6.65513358 114.325227,7.99241991 L114.325227,13.5300418 L112.090433,13.5300418 Z M118.408886,13.5300418 L118.408886,4.01646123 L120.55393,4.01646123 L120.55393,5.64992507 L120.598805,5.64992507 C121.110384,4.51906549 122.124568,3.83695971 123.587505,3.83695971 C125.687673,3.83695971 126.881358,5.18322112 126.881358,7.38211474 L126.881358,13.5300418 L124.646564,13.5300418 L124.646564,7.83086854 C124.646564,6.48460714 124.018309,5.73070075 122.743848,5.73070075 C121.460412,5.73070075 120.64368,6.65513358 120.64368,8.01934514 L120.64368,13.5300418 L118.408886,13.5300418 Z M132.140753,11.9953038 C133.406238,11.9953038 134.420422,11.1516467 134.420422,10.0028369 L134.420422,9.27585578 L132.221528,9.41048192 C131.144519,9.48228253 130.525239,9.96693663 130.525239,10.720843 C130.525239,11.5016746 131.171444,11.9953038 132.140753,11.9953038 Z M131.467622,13.6826181 C129.627731,13.6826181 128.290445,12.5248333 128.290445,10.8105938 C128.290445,9.12327948 129.591831,8.1090959 131.907401,7.96549468 L134.420422,7.82189346 L134.420422,7.13978769 C134.420422,6.14355425 133.747291,5.56914938 132.643357,5.56914938 C131.584298,5.56914938 130.911167,6.08072872 130.767566,6.87053541 L128.694323,6.87053541 C128.793049,5.09347036 130.309837,3.81900956 132.733108,3.81900956 C135.093553,3.81900956 136.628291,5.06654513 136.628291,6.97823632 L136.628291,13.5300418 L134.474272,13.5300418 L134.474272,12.013254 L134.429397,12.013254 C133.881917,13.0453877 132.688232,13.6826181 131.467622,13.6826181 Z M138.423306,13.5300418 L138.423306,4.01646123 L140.568349,4.01646123 L140.568349,5.64992507 L140.613224,5.64992507 C141.124804,4.51906549 142.138987,3.83695971 143.601925,3.83695971 C145.702093,3.83695971 146.895778,5.18322112 146.895778,7.38211474 L146.895778,13.5300418 L144.660984,13.5300418 L144.660984,7.83086854 C144.660984,6.48460714 144.032728,5.73070075 142.758268,5.73070075 C141.474832,5.73070075 140.6581,6.65513358 140.6581,8.01934514 L140.6581,13.5300418 L138.423306,13.5300418 Z M157.064539,7.40903997 L154.955396,7.40903997 C154.775894,6.39485638 154.066863,5.63197492 152.873178,5.63197492 C151.464091,5.63197492 150.557609,6.81668495 150.557609,8.77325152 C150.557609,10.7657184 151.473066,11.9145281 152.891128,11.9145281 C154.021988,11.9145281 154.757944,11.2683227 154.964371,10.1913135 L157.073514,10.1913135 C156.894012,12.3184065 155.251573,13.7185184 152.864203,13.7185184 C150.08193,13.7185184 148.286914,11.8606777 148.286914,8.77325152 C148.286914,5.73070075 150.08193,3.81900956 152.846253,3.81900956 C155.359274,3.81900956 156.911962,5.40759802 157.064539,7.40903997 Z M162.503435,5.55119923 C161.246924,5.55119923 160.340442,6.51153237 160.250691,7.83984362 L164.693353,7.83984362 C164.648478,6.49358221 163.786871,5.55119923 162.503435,5.55119923 Z M164.702328,10.6849427 L166.793521,10.6849427 C166.506319,12.4799579 164.836955,13.7185184 162.584211,13.7185184 C159.730136,13.7185184 158.006922,11.8427275 158.006922,8.80915182 C158.006922,5.80250136 159.748086,3.81900956 162.49446,3.81900956 C165.195958,3.81900956 166.883272,5.69480045 166.883272,8.58477492 L166.883272,9.31175608 L160.232741,9.31175608 L160.232741,9.44638222 C160.232741,10.9721451 161.166148,11.9953038 162.629086,11.9953038 C163.670195,11.9953038 164.460001,11.4747494 164.702328,10.6849427 Z M181.324169,13.5300418 L180.24716,12.372257 C179.232977,13.2518144 177.752089,13.7544187 176.190426,13.7544187 C173.515853,13.7544187 171.738788,12.3004564 171.738788,10.1195129 C171.738788,8.6296503 172.510645,7.52571595 174.188984,6.61923328 C174.368485,6.52948252 174.691588,6.349981 174.736463,6.33203085 C173.569704,5.11142051 173.129925,4.29468859 173.129925,3.35230561 C173.129925,1.65601624 174.628763,0.390530526 176.65713,0.390530526 C178.694472,0.390530526 180.139459,1.61114086 180.139459,3.32538038 C180.139459,4.65369163 179.322727,5.6768503 177.464887,6.67308373 L180.19331,9.62588374 C180.552313,8.97967827 180.713864,8.10012082 180.713864,6.81668495 L180.713864,6.24228008 L182.65248,6.24228008 L182.65248,6.91541079 C182.65248,8.63862538 182.266552,10.0297622 181.566496,11.0439458 L183.926941,13.5300418 L181.324169,13.5300418 Z M175.436519,7.75906793 C174.32361,8.45014878 173.874856,9.0784041 173.874856,9.94898648 C173.874856,11.2054971 174.898015,12.0581293 176.414803,12.0581293 C177.428986,12.0581293 178.46112,11.663226 179.02655,11.0439458 L175.813473,7.55264118 C175.705772,7.59751656 175.50832,7.70521747 175.436519,7.75906793 Z M176.378902,5.56914938 C177.689263,4.89601868 178.209818,4.29468859 178.209818,3.46000652 C178.209818,2.58044907 177.581563,1.96116883 176.666105,1.96116883 C175.759622,1.96116883 175.113417,2.59839922 175.113417,3.4689816 C175.113417,4.10621199 175.45447,4.66266671 176.378902,5.56914938 Z M194.167503,13.7454436 C190.469772,13.7454436 188.145227,11.2054971 188.145227,7.05003693 C188.145227,2.92150196 190.487722,0.363605297 194.167503,0.363605297 C197.174153,0.363605297 199.462798,2.23939618 199.75,5.02166975 L197.470331,5.02166975 C197.165178,3.39718099 195.845842,2.32914694 194.167503,2.32914694 C191.941684,2.32914694 190.514647,4.16006245 190.514647,7.05003693 C190.514647,9.95796155 191.932709,11.779902 194.176478,11.779902 C195.890718,11.779902 197.120303,10.8554692 197.479306,9.29380593 L199.75,9.29380593 C199.346122,12.0671044 197.228004,13.7454436 194.167503,13.7454436 Z M205.485074,13.7185184 C202.693825,13.7185184 200.88086,11.8606777 200.88086,8.77325152 C200.88086,5.70377552 202.711775,3.81900956 205.485074,3.81900956 C208.258372,3.81900956 210.089288,5.69480045 210.089288,8.77325152 C210.089288,11.8606777 208.276322,13.7185184 205.485074,13.7185184 Z M205.485074,11.9504284 C206.903136,11.9504284 207.818594,10.8016187 207.818594,8.77325152 C207.818594,6.75385942 206.903136,5.59607461 205.485074,5.59607461 C204.075987,5.59607461 203.151554,6.75385942 203.151554,8.77325152 C203.151554,10.8016187 204.067012,11.9504284 205.485074,11.9504284 Z M211.5253,13.5300418 L211.5253,4.01646123 L213.670343,4.01646123 L213.670343,5.64992507 L213.715219,5.64992507 C214.226798,4.51906549 215.240981,3.83695971 216.703919,3.83695971 C218.804087,3.83695971 219.997772,5.18322112 219.997772,7.38211474 L219.997772,13.5300418 L217.762978,13.5300418 L217.762978,7.83086854 C217.762978,6.48460714 217.134723,5.73070075 215.860262,5.73070075 C214.576826,5.73070075 213.760094,6.65513358 213.760094,8.01934514 L213.760094,13.5300418 L211.5253,13.5300418 Z M222.403092,1.79064238 L224.637886,1.79064238 L224.637886,4.01646123 L226.432901,4.01646123 L226.432901,5.73967583 L224.637886,5.73967583 L224.637886,10.6849427 C224.637886,11.4657743 224.996889,11.8247774 225.786696,11.8247774 C225.993123,11.8247774 226.280325,11.8068272 226.423926,11.779902 L226.423926,13.4851664 C226.181599,13.5390169 225.74182,13.5749172 225.266141,13.5749172 C223.210849,13.5749172 222.403092,12.847936 222.403092,10.9990704 L222.403092,5.73967583 L221.038881,5.73967583 L221.038881,4.01646123 L222.403092,4.01646123 L222.403092,1.79064238 Z M227.949689,13.5300418 L227.949689,4.01646123 L230.094732,4.01646123 L230.094732,5.6768503 L230.139608,5.6768503 C230.46271,4.51906549 231.297392,3.85490987 232.419277,3.85490987 C232.706479,3.85490987 232.957782,3.90876032 233.119333,3.94466063 L233.119333,5.96405273 C232.930856,5.89225212 232.589803,5.83840166 232.21285,5.83840166 C230.947364,5.83840166 230.184483,6.65513358 230.184483,7.99241991 L230.184483,13.5300418 L227.949689,13.5300418 Z M238.11845,13.7185184 C235.327202,13.7185184 233.514236,11.8606777 233.514236,8.77325152 C233.514236,5.70377552 235.345152,3.81900956 238.11845,3.81900956 C240.891749,3.81900956 242.722664,5.69480045 242.722664,8.77325152 C242.722664,11.8606777 240.909699,13.7185184 238.11845,13.7185184 Z M238.11845,11.9504284 C239.536512,11.9504284 240.45197,10.8016187 240.45197,8.77325152 C240.45197,6.75385942 239.536512,5.59607461 238.11845,5.59607461 C236.709363,5.59607461 235.78493,6.75385942 235.78493,8.77325152 C235.78493,10.8016187 236.700388,11.9504284 238.11845,11.9504284 Z M244.221502,13.5300418 L244.221502,0.579007122 L246.456296,0.579007122 L246.456296,13.5300418 L244.221502,13.5300418 Z" id="Governance&amp;Control" fill="#FFFFFF" fill-rule="nonzero"></path>
                </g>
                <g id="Vector" transform="translate(573.694473, 645.467628)">
                    <polygon id="Fill-21" fill="#FFFFFF" points="0 52.8090602 53.1669442 73.7490066 106.332661 52.8090602 53.1669442 31.8668547"></polygon>
                    <polygon id="Fill-22" fill="#FFFFFF" points="0 20.9410759 0 52.7336333 54.5532782 73.7490066 54.5532782 42.2277503"></polygon>
                    <polygon id="Fill-23" fill="#FFFFFF" points="54.5532782 42.0640704 107.257293 20.9410759 106.997934 52.6259566 54.5532782 73.7490066"></polygon>
                    <polygon id="Fill-24" fill="#FFFFFF" points="53.6286464 0 107.257293 21.2604943 106.99689 52.8079306 53.739299 31.7773808"></polygon>
                    <polygon id="Fill-25" fill="#FFFFFF" points="0 20.9881318 0 52.8079306 53.6286464 31.7486266 53.5177158 0"></polygon>
                    <polygon id="Fill-26" fill="#FFFFFF" points="0.11095582 52.7487515 0 21.013807 53.5155948 0 107.257293 21.2251676 107.080873 52.674651 53.5155948 73.7490066"></polygon>
                    <polygon id="Fill-21-Copy" fill-opacity="0.0789991259" fill="#001B3D" points="0 20.9422055 53.1669442 41.8821519 106.332661 20.9422055 53.1669442 0"></polygon>
                </g>
                <g id="Logo" transform="translate(600.919048, 664.637391)">
                    <g id="Group-16">
                        <g id="Group-15" transform="translate(10.602987, -0.000000)">
                            <polygon id="Triangle" fill="#001B3D" transform="translate(23.997704, 21.654032) scale(1, -1) translate(-23.997704, -21.654032) " points="23.9977044 5.7468226 43.2203109 37.5612411 4.77509781 37.5612411"></polygon>
                            <polygon id="Triangle" fill="#EBEDF0" transform="translate(19.444982, 15.994414) scale(1, -1) translate(-19.444982, -15.994414) " points="19.4449818 0.0872049956 38.6675883 31.9016235 0.222375206 31.9016235"></polygon>
                        </g>
                        <g id="Symbol" transform="translate(0.000000, 5.010068)">
                            <polygon id="Triangle" fill="#001B3D" transform="translate(19.121435, 16.560242) scale(1, -1) translate(-19.121435, -16.560242) " points="19.1214349 0.736754955 38.2428699 32.3837292 0 32.3837292"></polygon>
                            <mask id="mask-20" fill="white">
                                <use xlink:href="#path-19"></use>
                            </mask>
                            <use id="Mask" fill="#EBEDF0" transform="translate(19.317033, 8.121049) scale(1, -1) translate(-19.317033, -8.121049) " xlink:href="#path-19"></use>
                        </g>
                    </g>
                </g>
            </g>
        </g>
    </g>
</svg>