<svg width="900" height="278" viewBox="0 0 900 278" xmlns="http://www.w3.org/2000/svg">
  <defs>
    <linearGradient x1="100%" y1="50%" x2="0%" y2="50%" id="a">
      <stop stop-color="#00DEFF" offset="0%"/>
      <stop stop-color="#000000" offset="100%"/>
    </linearGradient>
    <linearGradient x1="100%" y1="50%" x2="0%" y2="50%" id="b">
      <stop stop-color="#00DEFF" offset="0%"/>
      <stop stop-color="#000000" offset="100%"/>
    </linearGradient>
    <linearGradient x1="100%" y1="50%" x2="0%" y2="50%" id="c">
      <stop stop-color="#00DEFF" offset="0%"/>
      <stop stop-color="#000000" offset="100%"/>
    </linearGradient>
    <linearGradient x1="100%" y1="50%" x2="0%" y2="50%" id="d">
      <stop stop-color="#00DEFF" offset="0%"/>
      <stop stop-color="#000000" offset="100%"/>
    </linearGradient>
    <linearGradient x1="100%" y1="50%" x2="0%" y2="50%" id="e">
      <stop stop-color="#00DEFF" offset="0%"/>
      <stop stop-color="#000000" offset="100%"/>
    </linearGradient>
    <linearGradient x1="100%" y1="50%" x2="0%" y2="50%" id="f">
      <stop stop-color="#00DEFF" offset="0%"/>
      <stop stop-color="#000000" offset="100%"/>
    </linearGradient>
    <linearGradient x1="100%" y1="50%" x2="0%" y2="50%" id="g">
      <stop stop-color="#00DEFF" offset="0%"/>
      <stop stop-color="#000000" offset="100%"/>
    </linearGradient>
    <linearGradient x1="100%" y1="50%" x2="0%" y2="50%" id="h">
      <stop stop-color="#00DEFF" offset="0%"/>
      <stop stop-color="#000000" offset="100%"/>
    </linearGradient>
  </defs>
  <g fill="none" fill-rule="evenodd">
    <path stroke-opacity=".153" stroke="#000000" stroke-linecap="round" stroke-linejoin="round" d="M346.596 165.875l96.271 39.562 96.269-39.562-96.269-39.566z"/>
    <path stroke-opacity=".153" stroke="#000000" stroke-linecap="round" stroke-linejoin="round" d="M442.667 66.525l96.94 39.998-.471 59.352-96.269-39.566z"/>
    <path stroke-opacity=".153" stroke="#000000" stroke-linecap="round" stroke-linejoin="round" d="M346.941 106.01v59.862l95.926-39.619-.2-59.728z"/>
    <path fill-opacity=".074" fill="#000000" d="M346.596 165.875l-.2-59.784 96.471-39.587 96.878 39.985-.317 59.247-96.56 39.7z"/>
    <path stroke-opacity=".153" stroke="#000000" stroke-linecap="round" stroke-linejoin="round" d="M346.596 165.875l-.2-59.784 96.471-39.587 96.878 39.985-.318 59.247-96.56 39.7z"/>
    <g fill-opacity=".6">
      <path fill="#10E7FF" d="M380.276 158.552l62.393 25.09 62.39-25.09-62.39-25.093z"/>
      <path fill="#10E7FF" d="M380 120.584v37.966l63.374 25.095v-37.641zM443.374 146.004l61.992-25.093-.305 37.64-61.687 25.094z"/>
      <path fill="#10E7FF" d="M442.539 95.543l62.826 25.367-.305 37.641-62.391-25.093z"/>
      <path fill="#10E7FF" d="M380 120.584v37.966l62.669-25.127-.13-37.88z"/>
      <path fill="#10E7FF" d="M380.276 158.552l-.13-37.916 62.523-25.107 62.786 25.36-.206 37.574-62.58 25.179z"/>
      <path fill="#00C1D8" d="M380.276 120.736l62.393 25.09 62.39-25.09-62.39-25.093z"/>
    </g>
    <path stroke-opacity=".153" stroke="#000000" stroke-linecap="round" stroke-linejoin="round" d="M346.941 106.01v59.862l96.079 39.57V146.09z"/>
    <path stroke-opacity=".153" stroke="#000000" stroke-linecap="round" stroke-linejoin="round" d="M443.02 146.091l96.588-39.567-.47 59.351-96.118 39.567z"/>
    <g fill="#10E7FF">
      <path d="M465.725 7h10.008L451.9 46.305l-4.945-8.133zM432.708 46.098L456.415 7H444.59l-11.64 19.115L421.305 7H409z"/>
    </g>
    <g fill-rule="nonzero">
      <path d="M520.69 138.905C386.62 113.548 295.122 88.362 246.163 63.31c-51.24-26.218-78.583-46.69-82-61.514l-.164-.71 2.85-.163.164.71c3.324 14.416 30.382 34.675 81.206 60.68 48.6 24.869 139.77 49.965 273.474 75.253l3.012-4.011L540 141.742l-22.328 1.181 3.017-4.018z" fill="url(#a)" transform="translate(-168 -4)"/>
      <path d="M520.148 139.77c-143.128-18.287-244.88-41.517-305.27-69.72C152.083 40.722 106.515 22.204 78.26 14.516L77 14.173l1.38-1.25 1.26.343c28.532 7.763 74.24 26.338 137.207 55.746 59.97 28.007 161.307 51.143 303.999 69.374l2.092-4.145L540 141.508l-21.949 2.415 2.097-4.154z" fill="url(#b)" transform="translate(-168 -4)"/>
      <path d="M519.933 141.707c-147.229-12.68-257.095-31.939-329.61-57.795-75.499-26.92-120.555-42.728-135.118-47.408L54 36.117l1.563-1.194 1.205.387C71.388 40.008 116.449 55.818 192 82.757c72.105 25.71 181.578 44.9 328.408 57.546l1.421-4.206L540 142.655l-21.492 3.268 1.425-4.216z" fill="url(#c)" transform="translate(-168 -4)"/>
      <path d="M519.865 142.65c-151.348-6.373-265.224-21.143-341.648-44.334-79.912-24.25-120.991-45.06-123.13-62.594L55 35.009l2.864-.086.087.712c2.062 16.902 42.613 37.444 121.76 61.462 75.98 23.056 189.444 37.774 340.378 44.13l.673-4.264L540 142.725l-20.81 4.198.675-4.273z" fill="url(#d)" transform="translate(-168 -4)"/>
      <path d="M519.932 142.647c-187.468 1.359-317.752-11.01-390.907-37.167C54.423 78.807 12.966 85.143 3.027 124.596l-.178.706L0 125.126l.178-.707c10.233-40.62 54.285-47.354 130.526-20.094 72.533 25.933 202.274 38.252 389.171 36.898l-.172-4.268L540 141.74l-19.895 5.183-.173-4.276z" fill="url(#e)" transform="translate(-168 -4)"/>
      <path d="M520.593 280.88c-134.013-24.036-225.478-48.555-274.43-73.593-51.238-26.209-78.582-46.673-82-61.492l-.163-.71 2.85-.162.164.71c3.324 14.41 30.382 34.662 81.206 60.657 48.579 24.848 139.7 49.275 273.331 73.244l2.872-4.036L540 283.55l-22.284 1.373 2.877-4.043z" fill="url(#f)" transform="matrix(1 0 0 -1 -168 425.846)"/>
      <path d="M520.148 269.77c-143.128-18.287-244.88-41.517-305.27-69.72-62.796-29.328-108.364-47.846-136.619-55.534L77 144.173l1.38-1.25 1.26.343c28.532 7.763 74.24 26.338 137.207 55.746 59.97 28.007 161.307 51.143 303.999 69.374l2.092-4.145L540 271.508l-21.949 2.415 2.097-4.154z" fill="url(#b)" transform="matrix(1 0 0 -1 -168 412.846)"/>
      <path d="M519.912 246.688c-147.216-11.842-257.075-30.714-329.59-56.642-75.498-26.994-120.554-42.845-135.117-47.537L54 142.12l1.563-1.197 1.205.388c14.62 4.711 59.681 20.564 135.232 47.577 72.094 25.776 181.548 44.58 328.353 56.39l1.322-4.227 18.325 6.47-21.413 3.402 1.325-4.235z" fill="url(#g)" transform="matrix(1 0 0 -1 -168 387.846)"/>
      <path d="M519.865 245.646c-151.343-5.057-265.22-19.166-341.648-42.35-79.912-24.243-120.991-45.046-123.13-62.575L55 140.01l2.864-.086.087.712c2.062 16.896 42.613 37.432 121.76 61.442 75.967 23.045 189.415 37.101 340.328 42.145l.523-4.268 19.438 5.59-20.658 4.379.523-4.277z" fill="url(#h)" transform="matrix(1 0 0 -1 -168 385.846)"/>
      <path d="M519.932 194.647c-187.468 1.359-317.752-11.01-390.907-37.167-74.602-26.673-116.059-20.337-125.998 19.116l-.178.706L0 177.126l.178-.707c10.233-40.62 54.285-47.354 130.526-20.094 72.533 25.933 202.274 38.252 389.171 36.898l-.172-4.268L540 193.74l-19.895 5.183-.173-4.276z" fill="url(#e)" transform="matrix(1 0 0 -1 -168 334.846)"/>
      <path fill="#10E7FF" d="M862 123l39 19.5-39 19.5v-16H511v-7h351z"/>
    </g>
  </g>
</svg>