<?xml version="1.0" encoding="UTF-8" standalone="no"?>
<svg
   xmlns:dc="http://purl.org/dc/elements/1.1/"
   xmlns:cc="http://creativecommons.org/ns#"
   xmlns:rdf="http://www.w3.org/1999/02/22-rdf-syntax-ns#"
   xmlns:svg="http://www.w3.org/2000/svg"
   xmlns="http://www.w3.org/2000/svg"
   xmlns:xlink="http://www.w3.org/1999/xlink"
   xmlns:sodipodi="http://sodipodi.sourceforge.net/DTD/sodipodi-0.dtd"
   xmlns:inkscape="http://www.inkscape.org/namespaces/inkscape"
   width="683px"
   height="300px"
   viewBox="0 0 683 300"
   version="1.1"
   id="svg136"
   sodipodi:docname="journald-source.svg"
   inkscape:version="0.92.4 5da689c313, 2019-01-14">
  <metadata
     id="metadata140">
    <rdf:RDF>
      <cc:Work
         rdf:about="">
        <dc:format>image/svg+xml</dc:format>
        <dc:type
           rdf:resource="http://purl.org/dc/dcmitype/StillImage" />
        <dc:title>Group 2</dc:title>
      </cc:Work>
    </rdf:RDF>
  </metadata>
  <sodipodi:namedview
     pagecolor="#ffffff"
     bordercolor="#666666"
     borderopacity="1"
     objecttolerance="10"
     gridtolerance="10"
     guidetolerance="10"
     inkscape:pageopacity="0"
     inkscape:pageshadow="2"
     inkscape:window-width="1910"
     inkscape:window-height="1006"
     id="namedview138"
     showgrid="false"
     inkscape:zoom="2.0087848"
     inkscape:cx="367.3863"
     inkscape:cy="150"
     inkscape:window-x="0"
     inkscape:window-y="211"
     inkscape:window-maximized="1"
     inkscape:current-layer="svg136" />
  <!-- Generator: Sketch 54.1 (76490) - https://sketchapp.com -->
  <title
     id="title10">Group 2</title>
  <desc
     id="desc12">Created with Sketch.</desc>
  <defs
     id="defs25">
    <polygon
       id="path-1"
       points="15.1888799 0.0265168992 22.8734773 12.8341792 7.50428248 12.8341792" />
    <linearGradient
       x1="35.779912"
       y1="0.78872454"
       x2="66.686034"
       y2="0.78872454"
       id="linearGradient-3"
       gradientTransform="matrix(2.2076792,0,0,0.45296436,86.5,105.63838)"
       gradientUnits="userSpaceOnUse">
      <stop
         stop-color="#10E7FF"
         offset="0%"
         id="stop15" />
      <stop
         stop-color="#001B3D"
         offset="100%"
         id="stop17" />
    </linearGradient>
    <linearGradient
       x1="16.494116"
       y1="52.465718"
       x2="83.304427"
       y2="31.903128"
       id="linearGradient-4"
       gradientTransform="matrix(1.3919336,0,0,0.71842506,86.5,105.63838)"
       gradientUnits="userSpaceOnUse">
      <stop
         stop-color="#001B3D"
         offset="0%"
         id="stop20" />
      <stop
         stop-color="#001B3D"
         offset="100%"
         id="stop22" />
    </linearGradient>
  </defs>
  <g
     style="fill:none;fill-rule:evenodd;stroke:none;stroke-width:1"
     transform="translate(528,193)"
     id="Sink-3">
    <circle
       style="fill:#001b3d"
       r="37.5"
       cy="37.5"
       cx="37.5"
       id="Oval-Copy" />
    <path
       style="fill:#ffffff;fill-rule:nonzero"
       inkscape:connector-curvature="0"
       id="sink"
       d="m 23.652344,37.085937 c 0,-1.59375 1.375,-2.640625 3.507812,-2.640625 2.148438,0 3.476563,1.101563 3.523438,2.742188 h -2.101563 c -0.07031,-0.679688 -0.578125,-1.140625 -1.421875,-1.140625 -0.789062,0 -1.3125,0.359375 -1.3125,0.914062 0,0.429688 0.3125,0.71875 1.15625,0.898438 l 1.429688,0.304687 c 1.75,0.367188 2.46875,1.054688 2.46875,2.28125 0,1.648438 -1.507813,2.734375 -3.664063,2.734375 -2.3125,0 -3.648437,-1.078125 -3.796875,-2.726562 h 2.226563 c 0.140625,0.734375 0.664062,1.125 1.570312,1.125 0.859375,0 1.390625,-0.351563 1.390625,-0.898438 0,-0.445312 -0.289062,-0.695312 -1.109375,-0.882812 L 26.089844,39.5 c -1.617188,-0.34375 -2.4375,-1.15625 -2.4375,-2.414063 z M 32.066406,43 v -8.375 h 2.28125 V 43 Z m 1.132813,-9.507813 c -0.664063,0 -1.1875,-0.53125 -1.1875,-1.171875 0,-0.648437 0.523437,-1.171875 1.1875,-1.171875 0.664062,0 1.1875,0.523438 1.1875,1.171875 0,0.640625 -0.523438,1.171875 -1.1875,1.171875 z M 35.863281,43 v -8.375 h 2.203125 v 1.492187 h 0.04687 c 0.445313,-1.039062 1.328125,-1.648437 2.617188,-1.648437 1.859375,0 2.90625,1.171875 2.90625,3.132812 V 43 h -2.28125 v -4.921875 c 0,-1.09375 -0.515625,-1.71875 -1.539063,-1.71875 -1.023437,0 -1.671875,0.75 -1.671875,1.835937 V 43 Z M 47.449219,37.984375 50.292969,34.625 h 2.585937 L 49.683594,38.21875 53.035156,43 h -2.625 l -2.398437,-3.40625 -0.59375,0.640625 V 43 h -2.28125 V 31.726562 h 2.28125 v 6.257813 z" />
  </g>
  <g
     style="fill:none;fill-rule:evenodd;stroke:none;stroke-width:1"
     transform="translate(608,133)"
     id="Sink-2">
    <circle
       style="fill:#001b3d"
       r="37.5"
       cy="37.5"
       cx="37.5"
       id="circle30" />
    <path
       style="fill:#ffffff;fill-rule:nonzero"
       inkscape:connector-curvature="0"
       id="path32"
       d="m 23.652344,37.085937 c 0,-1.59375 1.375,-2.640625 3.507812,-2.640625 2.148438,0 3.476563,1.101563 3.523438,2.742188 h -2.101563 c -0.07031,-0.679688 -0.578125,-1.140625 -1.421875,-1.140625 -0.789062,0 -1.3125,0.359375 -1.3125,0.914062 0,0.429688 0.3125,0.71875 1.15625,0.898438 l 1.429688,0.304687 c 1.75,0.367188 2.46875,1.054688 2.46875,2.28125 0,1.648438 -1.507813,2.734375 -3.664063,2.734375 -2.3125,0 -3.648437,-1.078125 -3.796875,-2.726562 h 2.226563 c 0.140625,0.734375 0.664062,1.125 1.570312,1.125 0.859375,0 1.390625,-0.351563 1.390625,-0.898438 0,-0.445312 -0.289062,-0.695312 -1.109375,-0.882812 L 26.089844,39.5 c -1.617188,-0.34375 -2.4375,-1.15625 -2.4375,-2.414063 z M 32.066406,43 v -8.375 h 2.28125 V 43 Z m 1.132813,-9.507813 c -0.664063,0 -1.1875,-0.53125 -1.1875,-1.171875 0,-0.648437 0.523437,-1.171875 1.1875,-1.171875 0.664062,0 1.1875,0.523438 1.1875,1.171875 0,0.640625 -0.523438,1.171875 -1.1875,1.171875 z M 35.863281,43 v -8.375 h 2.203125 v 1.492187 h 0.04687 c 0.445313,-1.039062 1.328125,-1.648437 2.617188,-1.648437 1.859375,0 2.90625,1.171875 2.90625,3.132812 V 43 h -2.28125 v -4.921875 c 0,-1.09375 -0.515625,-1.71875 -1.539063,-1.71875 -1.023437,0 -1.671875,0.75 -1.671875,1.835937 V 43 Z M 47.449219,37.984375 50.292969,34.625 h 2.585937 L 49.683594,38.21875 53.035156,43 h -2.625 l -2.398437,-3.40625 -0.59375,0.640625 V 43 h -2.28125 V 31.726562 h 2.28125 v 6.257813 z" />
  </g>
  <g
     style="fill:none;fill-rule:evenodd;stroke:none;stroke-width:1"
     transform="translate(528,67)"
     id="Sink-1">
    <circle
       style="fill:#001b3d"
       r="37.5"
       cy="37.5"
       cx="37.5"
       id="Oval-Copy-2" />
    <path
       style="fill:#ffffff;fill-rule:nonzero"
       inkscape:connector-curvature="0"
       id="path36"
       d="m 23.652344,38.085937 c 0,-1.59375 1.375,-2.640625 3.507812,-2.640625 2.148438,0 3.476563,1.101563 3.523438,2.742188 h -2.101563 c -0.07031,-0.679688 -0.578125,-1.140625 -1.421875,-1.140625 -0.789062,0 -1.3125,0.359375 -1.3125,0.914062 0,0.429688 0.3125,0.71875 1.15625,0.898438 l 1.429688,0.304687 c 1.75,0.367188 2.46875,1.054688 2.46875,2.28125 0,1.648438 -1.507813,2.734375 -3.664063,2.734375 -2.3125,0 -3.648437,-1.078125 -3.796875,-2.726562 h 2.226563 c 0.140625,0.734375 0.664062,1.125 1.570312,1.125 0.859375,0 1.390625,-0.351563 1.390625,-0.898438 0,-0.445312 -0.289062,-0.695312 -1.109375,-0.882812 L 26.089844,40.5 c -1.617188,-0.34375 -2.4375,-1.15625 -2.4375,-2.414063 z M 32.066406,44 v -8.375 h 2.28125 V 44 Z m 1.132813,-9.507813 c -0.664063,0 -1.1875,-0.53125 -1.1875,-1.171875 0,-0.648437 0.523437,-1.171875 1.1875,-1.171875 0.664062,0 1.1875,0.523438 1.1875,1.171875 0,0.640625 -0.523438,1.171875 -1.1875,1.171875 z M 35.863281,44 v -8.375 h 2.203125 v 1.492187 h 0.04687 c 0.445313,-1.039062 1.328125,-1.648437 2.617188,-1.648437 1.859375,0 2.90625,1.171875 2.90625,3.132812 V 44 h -2.28125 v -4.921875 c 0,-1.09375 -0.515625,-1.71875 -1.539063,-1.71875 -1.023437,0 -1.671875,0.75 -1.671875,1.835937 V 44 Z M 47.449219,38.984375 50.292969,35.625 h 2.585937 L 49.683594,39.21875 53.035156,44 h -2.625 l -2.398437,-3.40625 -0.59375,0.640625 V 44 h -2.28125 V 32.726562 h 2.28125 v 6.257813 z" />
  </g>
  <path
     style="fill:#001b3d;fill-rule:nonzero;stroke:none;stroke-width:1"
     inkscape:connector-curvature="0"
     id="path39"
     d="m 544.154,24.382 c 0.484,0 0.88366,-0.04033 1.199,-0.121 0.31533,-0.08067 0.56833,-0.190666 0.759,-0.33 0.19067,-0.139334 0.32267,-0.304332 0.396,-0.495 0.0733,-0.190668 0.11,-0.403332 0.11,-0.638 0,-0.498669 -0.23466,-0.912998 -0.704,-1.243 -0.46934,-0.330002 -1.27599,-0.685665 -2.42,-1.067 -0.49867,-0.176001 -0.99733,-0.377665 -1.496,-0.605 -0.49867,-0.227334 -0.946,-0.513332 -1.342,-0.858 -0.396,-0.344668 -0.71867,-0.762664 -0.968,-1.254 -0.24933,-0.491336 -0.374,-1.088997 -0.374,-1.793 0,-0.704004 0.132,-1.33833 0.396,-1.903 0.264,-0.56467 0.638,-1.044998 1.122,-1.441 0.484,-0.396002 1.07066,-0.700332 1.76,-0.913 0.68934,-0.212668 1.46666,-0.319 2.332,-0.319 1.02667,0 1.914,0.109999 2.662,0.33 0.748,0.220001 1.364,0.461999 1.848,0.726 l -0.99,2.706 c -0.42534,-0.220001 -0.89833,-0.414332 -1.419,-0.583 -0.52067,-0.168667 -1.14766,-0.253 -1.881,-0.253 -0.82134,0 -1.41166,0.113665 -1.771,0.341 -0.35934,0.227335 -0.539,0.575664 -0.539,1.045 0,0.278668 0.066,0.513332 0.198,0.704 0.132,0.190668 0.319,0.362999 0.561,0.517 0.242,0.154001 0.52066,0.293333 0.836,0.418 0.31533,0.124667 0.66366,0.252999 1.045,0.385 0.792,0.293335 1.48133,0.582999 2.068,0.869 0.58667,0.286001 1.07433,0.619665 1.463,1.001 0.38867,0.381335 0.67833,0.828664 0.869,1.342 0.19067,0.513336 0.286,1.136663 0.286,1.87 0,1.422674 -0.49866,2.526329 -1.496,3.311 -0.99734,0.784671 -2.50066,1.177 -4.51,1.177 -0.67467,0 -1.28333,-0.04033 -1.826,-0.121 -0.54267,-0.08067 -1.023,-0.179666 -1.441,-0.297 -0.418,-0.117334 -0.77733,-0.241999 -1.078,-0.374 -0.30067,-0.132001 -0.55367,-0.256666 -0.759,-0.374 l 0.968,-2.728 c 0.45467,0.249335 1.01566,0.472999 1.683,0.671 0.66734,0.198001 1.485,0.297 2.453,0.297 z M 555.858,27 H 552.58 V 15.428 h 3.278 z m 0.308,-14.916 c 0,0.601336 -0.19433,1.074332 -0.583,1.419 -0.38867,0.344668 -0.847,0.517 -1.375,0.517 -0.528,0 -0.98633,-0.172332 -1.375,-0.517 -0.38867,-0.344668 -0.583,-0.817664 -0.583,-1.419 0,-0.601336 0.19433,-1.074332 0.583,-1.419 0.38867,-0.344668 0.847,-0.517 1.375,-0.517 0.528,0 0.98633,0.172332 1.375,0.517 0.38867,0.344668 0.583,0.817664 0.583,1.419 z m 2.772,3.74 c 0.55734,-0.161334 1.276,-0.311666 2.156,-0.451 0.88,-0.139334 1.804,-0.209 2.772,-0.209 0.98267,0 1.80033,0.128332 2.453,0.385 0.65267,0.256668 1.16966,0.619664 1.551,1.089 0.38134,0.469336 0.65267,1.026663 0.814,1.672 0.16133,0.645337 0.242,1.363996 0.242,2.156 V 27 h -3.278 v -6.138 c 0,-1.056005 -0.13933,-1.803998 -0.418,-2.244 -0.27867,-0.440002 -0.79933,-0.66 -1.562,-0.66 -0.23467,0 -0.484,0.011 -0.748,0.033 -0.264,0.022 -0.49867,0.04767 -0.704,0.077 V 27 h -3.278 z m 16.236,3.784 c 0.32267,-0.352002 0.65633,-0.718665 1.001,-1.1 0.34467,-0.381335 0.67833,-0.758998 1.001,-1.133 0.32267,-0.374002 0.627,-0.729665 0.913,-1.067 0.286,-0.337335 0.53167,-0.630665 0.737,-0.88 h 3.894 c -0.77734,0.894671 -1.53633,1.748996 -2.277,2.563 -0.74067,0.814004 -1.551,1.653662 -2.431,2.519 0.44,0.396002 0.89466,0.868997 1.364,1.419 0.46934,0.550003 0.924,1.11833 1.364,1.705 0.44,0.58667 0.84333,1.17333 1.21,1.76 0.36667,0.58667 0.67466,1.121998 0.924,1.606 h -3.762 c -0.23467,-0.381335 -0.50233,-0.802998 -0.803,-1.265 -0.30067,-0.462002 -0.61966,-0.923998 -0.957,-1.386 -0.33733,-0.462002 -0.693,-0.905664 -1.067,-1.331 -0.374,-0.425335 -0.74433,-0.784665 -1.111,-1.078 V 27 h -3.278 V 10.456 l 3.278,-0.528 z m 12.782,5.038 c 0.60134,0 1.02666,-0.05867 1.276,-0.176 0.24934,-0.117334 0.374,-0.344665 0.374,-0.682 0,-0.264001 -0.16133,-0.494999 -0.484,-0.693 -0.32267,-0.198001 -0.814,-0.421665 -1.474,-0.671 -0.51334,-0.190668 -0.979,-0.388666 -1.397,-0.594 -0.418,-0.205334 -0.77366,-0.450999 -1.067,-0.737 -0.29333,-0.286001 -0.52067,-0.626998 -0.682,-1.023 -0.16133,-0.396002 -0.242,-0.872664 -0.242,-1.43 0,-1.085339 0.40333,-1.94333 1.21,-2.574 0.80667,-0.63067 1.91399,-0.946 3.322,-0.946 0.704,0 1.37866,0.06233 2.024,0.187 0.64534,0.124667 1.15866,0.260333 1.54,0.407 l -0.572,2.552 c -0.38134,-0.132001 -0.79566,-0.249333 -1.243,-0.352 -0.44734,-0.102667 -0.94966,-0.154 -1.507,-0.154 -1.02667,0 -1.54,0.285997 -1.54,0.858 0,0.132001 0.022,0.249333 0.066,0.352 0.044,0.102667 0.132,0.201666 0.264,0.297 0.132,0.09533 0.31167,0.197999 0.539,0.308 0.22733,0.11 0.517,0.230999 0.869,0.363 0.71867,0.264001 1.31266,0.524332 1.782,0.781 0.46934,0.256668 0.83966,0.535332 1.111,0.836 0.27134,0.300668 0.462,0.634332 0.572,1.001 0.11,0.366669 0.165,0.791998 0.165,1.276 0,1.144006 -0.429,2.00933 -1.287,2.596 -0.858,0.58667 -2.07166,0.88 -3.641,0.88 -1.02667,0 -1.881,-0.088 -2.563,-0.264 -0.682,-0.176001 -1.155,-0.322666 -1.419,-0.44 l 0.55,-2.662 c 0.55734,0.220001 1.12933,0.392333 1.716,0.517 0.58667,0.124667 1.166,0.187 1.738,0.187 z" />
  <polygon
     style="fill:#000000;fill-rule:nonzero;stroke:none;stroke-width:1"
     points="2,297.5 2,4 0,4 0,297.5 "
     id="Line-3"
     transform="translate(192)" />
  <polygon
     style="fill:#000000;fill-rule:nonzero;stroke:none;stroke-width:1"
     points="302,300 302,0 300,0 300,300 "
     id="polygon43"
     transform="translate(192)" />
  <path
     style="fill:#001b3d;fill-rule:nonzero;stroke:none;stroke-width:1"
     inkscape:connector-curvature="0"
     d="M 588.27496,172.22597 H 586 v -2 h 2.27496 v -6 l 14,7 -14,7 z m -122.27496,0 v -2 h 7 v 2 z m 10,0 v -2 h 7 v 2 z m 10,0 v -2 h 7 v 2 z m 10,0 v -2 h 7 v 2 z m 10,0 v -2 h 7 v 2 z m 10,0 v -2 h 7 v 2 z m 10,0 v -2 h 7 v 2 z m 10,0 v -2 h 7 v 2 z m 10,0 v -2 h 7 v 2 z m 10,0 v -2 h 7 v 2 z m 10,0 v -2 h 7 v 2 z m 10,0 v -2 h 7 v 2 z"
     id="Line-2" />
  <path
     style="fill:#001b3d;fill-rule:nonzero;stroke:none;stroke-width:1"
     inkscape:connector-curvature="0"
     d="m 519,231.22597 -14,7 v -14 z m -53,1 v -2 h 7 v 2 z m 10,0 v -2 h 7 v 2 z m 10,0 v -2 h 7 v 2 z m 10,0 v -2 h 7 v 2 z"
     id="path47" />
  <path
     style="fill:#001b3d;fill-rule:nonzero;stroke:none;stroke-width:1"
     inkscape:connector-curvature="0"
     d="m 519,108.5 -14,7 v -14 z m -53,1 v -2 h 14 v 2 z m 24,0 v -2 h 14 v 2 z"
     id="path49" />
  <g
     style="fill:none;fill-rule:evenodd;stroke:none;stroke-width:1"
     transform="translate(253,213)"
     id="Aggregate">
    <polygon
       style="fill:#001b3d"
       points="199.84544,43.02022 99.923874,26.084692 1.1368684e-13,43.02022 99.923874,59.954 "
       id="Fill-74" />
    <polygon
       style="fill:#001b3d"
       points="0.20673666,43.017471 1.1368684e-13,17.423716 99.712079,0.47619048 199.84544,17.594065 199.51696,42.957754 99.712079,59.954 "
       id="Fill-79" />
    <polygon
       style="fill:#001b3d"
       points="97.360599,59.954 97.360599,34.806368 5.6843419e-14,17.823885 5.6843419e-14,43.188004 "
       id="Fill-75" />
    <polygon
       style="fill:#001b3d"
       points="199.36429,43.102067 100.77676,59.954 100.77676,34.675785 199.84544,17.823885 "
       id="Fill-76" />
    <polygon
       style="fill:#001b3d"
       points="199.3644,42.606306 100.98117,25.828134 100.77676,0.47619048 199.84544,17.437889 "
       id="Fill-77" />
    <polygon
       style="fill:#001b3d"
       points="99.06868,25.80518 98.861612,0.47619048 1.1368684e-13,17.220479 1.1368684e-13,42.606306 "
       id="Fill-78" />
    <polygon
       style="fill:#ffffff;fill-opacity:0.33241368"
       points="199.84544,17.305935 99.923874,0.37040615 1.7053026e-13,17.305935 99.923874,34.239714 "
       id="Fill-74-Copy" />
  </g>
  <g
     style="fill:none;fill-rule:evenodd;stroke:none;stroke-width:1"
     transform="translate(253,147)"
     id="Sample">
    <polygon
       style="fill:#001b3d"
       points="199.84544,51.624265 99.923874,31.30163 1.1368684e-13,51.624265 99.923874,71.9448 "
       id="polygon60" />
    <polygon
       style="fill:#001b3d"
       points="0.20673666,51.620965 1.1368684e-13,20.90846 99.712079,0.57142857 199.84544,21.112878 199.51696,51.549305 99.712079,71.9448 "
       id="polygon62" />
    <polygon
       style="fill:#001b3d"
       points="97.360599,71.9448 97.360599,41.767642 5.6843419e-14,21.388662 5.6843419e-14,51.825605 "
       id="polygon64" />
    <polygon
       style="fill:#001b3d"
       points="199.36429,51.722481 100.77676,71.9448 100.77676,41.610942 199.84544,21.388662 "
       id="polygon66" />
    <polygon
       style="fill:#001b3d"
       points="199.3644,51.127567 100.98117,30.993761 100.77676,0.57142857 199.84544,20.925467 "
       id="polygon68" />
    <polygon
       style="fill:#001b3d"
       points="99.06868,30.966217 98.861612,0.57142857 1.1368684e-13,20.664575 1.1368684e-13,51.127567 "
       id="polygon70" />
    <polygon
       style="fill:#ffffff;fill-opacity:0.33241368"
       points="199.84544,20.767122 99.923874,0.44448738 1.7053026e-13,20.767122 99.923874,41.087657 "
       id="polygon72" />
  </g>
  <g
     style="fill:none;fill-rule:evenodd;stroke:none;stroke-width:1"
     transform="translate(253,83)"
     id="Parse">
    <polygon
       style="fill:#001b3d"
       points="199.84544,52.461259 99.923874,31.976043 1.1368684e-13,52.461259 99.923874,72.944359 "
       id="polygon75" />
    <polygon
       style="fill:#001b3d"
       points="0.20673666,52.457932 1.1368684e-13,21.499727 99.712079,1 199.84544,21.705781 199.51696,52.385699 99.712079,72.944359 "
       id="polygon77" />
    <polygon
       style="fill:#001b3d"
       points="97.360599,72.944359 97.360599,42.525783 5.6843419e-14,21.983771 5.6843419e-14,52.66421 "
       id="polygon79" />
    <polygon
       style="fill:#001b3d"
       points="199.36429,52.56026 100.77676,72.944359 100.77676,42.367829 199.84544,21.983771 "
       id="polygon81" />
    <polygon
       style="fill:#001b3d"
       points="199.3644,51.960587 100.98117,31.665711 100.77676,1 199.84544,21.51687 "
       id="polygon83" />
    <polygon
       style="fill:#001b3d"
       points="99.06868,31.637946 98.861612,1 1.1368684e-13,21.253892 1.1368684e-13,51.960587 "
       id="polygon85" />
    <polygon
       style="fill:#ffffff;fill-opacity:0.33241368"
       points="199.84544,21.357259 99.923874,0.87204328 1.7053026e-13,21.357259 99.923874,41.840359 "
       id="polygon87" />
  </g>
  <path
     style="fill:#ffffff;fill-rule:nonzero;stroke:none;stroke-width:1"
     inkscape:connector-curvature="0"
     id="path90"
     d="m 365.69438,132.63595 4.41533,-0.9385 c 2.17832,-0.46302 3.47637,0.78657 3.18867,3.14746 -0.28482,2.33729 -2.02324,4.23229 -4.2529,4.70622 l -2.09032,0.44431 -0.42964,3.52561 -2.21499,0.47082 z m 1.97716,1.48087 -0.48142,3.95056 1.60624,-0.34142 c 1.26886,-0.2697 2.09403,-1.11969 2.24939,-2.39457 0.15727,-1.29063 -0.48442,-1.82882 -1.76063,-1.55755 z m 9.36726,5.62107 c 0.99015,-0.21046 1.82074,-1.04627 1.92815,-1.92767 l 0.0777,-0.63744 -1.64899,0.45782 c -0.92544,0.26572 -1.416,0.71494 -1.49176,1.33664 -0.0786,0.64532 0.39416,0.92811 1.13493,0.77065 z m -0.91412,1.87312 c -1.55491,0.3305 -2.52307,-0.46026 -2.32935,-2.04994 0.1918,-1.57392 1.42521,-2.72533 3.45019,-3.27841 l 1.97365,-0.54216 0.0863,-0.70827 c 0.0882,-0.724 -0.34598,-1.03033 -1.22611,-0.84325 -0.77011,0.16369 -1.31805,0.55613 -1.55738,1.11293 l -1.96562,0.41781 c 0.33499,-1.63503 1.82928,-2.93387 3.86093,-3.36571 2.14165,-0.45522 3.21949,0.37355 2.99316,2.23079 l -0.72213,5.92586 -2.06832,0.43963 0.13811,-1.13324 -0.13202,0.0281 c -0.51493,0.8837 -1.45261,1.54296 -2.50142,1.76589 z m 6.6613,-1.54622 1.05779,-8.68023 2.06831,-0.43964 -0.16879,1.38506 0.13202,-0.0281 c 0.31819,-0.91087 1.23487,-1.74965 2.26169,-1.9679 0.29338,-0.0624 0.64798,-0.0994 0.82271,-0.0676 l -0.25414,2.08546 c -0.16007,-0.035 -0.65018,2.1e-4 -0.99489,0.0735 -1.16617,0.24787 -2.05578,1.15755 -2.20443,2.37735 l -0.58595,4.80836 z m 6.91533,-7.44157 c 0.20044,-1.64476 1.68327,-3.02549 3.70025,-3.45421 2.05364,-0.43652 3.15162,0.227 3.06662,1.86255 l -1.97296,0.41937 c -0.0419,-0.53537 -0.49115,-0.77717 -1.28326,-0.6088 -0.76279,0.16213 -1.37261,0.65205 -1.43974,1.20292 -0.0518,0.42497 0.26128,0.61139 0.98734,0.63337 l 1.47507,0.0314 c 1.5245,0.0363 2.14229,0.59486 1.98405,1.89335 -0.21098,1.73132 -1.79396,3.17168 -3.91361,3.62222 -2.13433,0.45367 -3.31106,-0.20844 -3.25444,-1.84563 l 2.08298,-0.44275 c 0.0894,0.55592 0.56894,0.78363 1.41973,0.60279 0.8288,-0.17617 1.44595,-0.66764 1.51405,-1.22639 0.0518,-0.42496 -0.22464,-0.61917 -0.91592,-0.63322 l -1.42374,-0.0423 c -1.52449,-0.0362 -2.18945,-0.67682 -2.02642,-2.01466 z m 12.30972,-3.57474 c -0.99015,0.21047 -1.77707,1.09832 -1.98756,2.23926 l 3.44719,-0.73272 c 0.096,-1.13962 -0.46211,-1.71857 -1.45963,-1.50654 z m 1.16511,4.27518 1.98763,-0.42249 c -0.5139,1.69606 -2.0404,3.02475 -4.0207,3.44568 -2.46437,0.52382 -3.71328,-0.83587 -3.36996,-3.65321 0.34429,-2.82521 2.03875,-4.88719 4.44444,-5.39853 2.38369,-0.50667 3.5934,0.82302 3.25774,3.5774 l -0.0854,0.7004 -5.55217,1.18015 -0.0144,0.11804 c -0.12794,1.28439 0.47837,1.93743 1.59318,1.70047 0.84346,-0.17928 1.4622,-0.6251 1.75958,-1.24792 z" />
  <path
     style="fill:#ffffff;fill-rule:nonzero;stroke:none;stroke-width:1"
     inkscape:connector-curvature="0"
     id="path92"
     d="m 362.62784,203.22812 2.21382,-0.43236 c -0.1007,0.85119 0.66134,1.23539 1.95021,0.98368 1.19031,-0.23247 2.16623,-0.9632 2.35894,-1.77549 0.16265,-0.68561 -0.28953,-0.97398 -1.56429,-0.99509 l -1.35463,-0.0197 c -1.89673,-0.0205 -2.63255,-0.85042 -2.2436,-2.48992 0.48087,-2.02702 2.4577,-3.68524 4.98238,-4.17831 2.41095,-0.47085 3.80212,0.52251 3.416,2.42442 l -2.15318,0.42051 c 0.0954,-0.82883 -0.57389,-1.23826 -1.6808,-1.02208 -1.14482,0.22358 -2.02674,0.89331 -2.22121,1.71306 -0.15735,0.66325 0.27562,0.94115 1.49327,0.9592 l 1.25378,0.0181 c 2.09083,0.0252 2.81754,0.77165 2.42152,2.44096 -0.51446,2.16861 -2.51985,3.82531 -5.2644,4.36131 -2.60807,0.50935 -3.99999,-0.4199 -3.60781,-2.40827 z m 13.31024,-1.18516 c 1.02351,-0.19989 1.94888,-0.99182 2.14689,-1.82647 l 0.1432,-0.60364 -1.71545,0.43452 c -0.96361,0.25216 -1.50565,0.67783 -1.64531,1.26656 -0.14497,0.61109 0.30492,0.87857 1.07067,0.72903 z m -1.11501,1.77419 c -1.6073,0.3139 -2.50713,-0.43427 -2.15001,-1.93964 0.35358,-1.49045 1.71865,-2.58146 3.8243,-3.1064 l 2.05257,-0.51457 0.15912,-0.67071 c 0.16264,-0.68561 -0.24581,-0.9754 -1.1556,-0.79772 -0.79607,0.15547 -1.39043,0.5274 -1.68907,1.05478 l -2.03187,0.39682 c 0.50471,-1.5484 2.14876,-2.77917 4.24887,-3.18932 2.21383,-0.43235 3.22082,0.35175 2.80359,2.11049 l -1.33125,5.61157 -2.13801,0.41755 0.25458,-1.07313 -0.13647,0.0266 c -0.61071,0.83708 -1.62658,1.4619 -2.71075,1.67363 z m 6.89899,-1.46817 1.95002,-8.21987 2.13802,-0.41755 -0.31823,1.34141 0.13647,-0.0266 c 0.56393,-1.00562 1.57371,-1.75717 2.67305,-1.97187 1.17514,-0.2295 1.84443,0.17992 1.95173,1.06866 l 0.13647,-0.0266 c 0.60412,-0.99214 1.71018,-1.78382 2.87775,-2.01184 1.66795,-0.32575 2.45382,0.53707 2.0525,2.22874 l -1.33832,5.64138 -2.20625,0.43087 1.20219,-5.06755 c 0.2316,-0.97625 -0.11596,-1.37033 -1.0485,-1.1882 -0.89463,0.17471 -1.61934,0.91324 -1.82619,1.78515 l -1.19335,5.03029 -2.12285,0.41459 1.22341,-5.15698 c 0.20685,-0.87191 -0.19025,-1.27053 -1.05456,-1.10174 -0.8643,0.1688 -1.63575,0.95199 -1.85321,1.86862 l -1.1739,4.94831 z M 402.93087,190.24 c 2.11526,-0.41311 3.03692,0.91358 2.40577,3.57404 -0.62938,2.65302 -2.28724,4.49059 -4.37977,4.89925 -1.19789,0.23395 -1.99328,-0.1011 -2.19584,-0.89306 l -0.13647,0.0266 -0.94584,3.98697 -2.20625,0.43087 2.59709,-10.9474 2.13801,-0.41755 -0.31999,1.34887 0.13647,-0.0266 c 0.67411,-1.01293 1.75441,-1.75693 2.90682,-1.98199 z m -2.33288,6.81637 c 1.19031,-0.23246 2.11109,-1.27934 2.47175,-2.79961 0.35712,-1.50536 -0.1381,-2.2828 -1.31325,-2.0533 -1.17515,0.2295 -2.1222,1.29573 -2.47932,2.80109 -0.35713,1.50536 0.15325,2.27985 1.32082,2.05182 z m 5.63541,0.50561 2.69432,-11.35728 2.20625,-0.43087 -2.69432,11.35727 z m 9.71053,-8.32118 c -1.02352,0.19989 -1.90996,1.04107 -2.23859,2.12155 l 3.56336,-0.69591 c 0.21263,-1.07915 -0.29367,-1.62701 -1.32477,-1.42564 z m 0.74618,4.04741 2.05462,-0.40126 c -0.69197,1.60629 -2.37166,2.86535 -4.41869,3.26513 -2.54742,0.4975 -3.67378,-0.78921 -3.04086,-3.45713 0.63468,-2.67537 2.55865,-4.62887 5.04541,-5.11453 2.46403,-0.48121 3.55374,0.77712 2.93496,3.38542 l -0.15734,0.66325 -5.73928,1.12087 -0.0265,0.11178 c -0.25961,1.21625 0.28789,1.83424 1.4403,1.60918 0.87188,-0.17028 1.54331,-0.59279 1.9074,-1.18271 z" />
  <path
     style="fill:#001b3d;fill-rule:nonzero;stroke:none;stroke-width:1"
     inkscape:connector-curvature="0"
     d="m 238.10057,170.59078 c -3.5862,-6.46186 -5.3792,-13.66424 -5.3792,-21.59078 0,-12.84691 4.37751,-23.12386 13.12115,-30.75348 l 0.75348,-0.65747 1.31495,1.50695 -0.75348,0.65748 c -8.29452,7.23772 -12.4361,16.96077 -12.4361,29.24652 0,7.47038 1.65487,14.2394 4.96441,20.32264 l 4.53471,-3.6277 L 247.5,181 233.28825,174.44057 Z"
     id="Line" />
  <path
     style="fill:#001b3d;fill-rule:nonzero;stroke:none;stroke-width:1"
     inkscape:connector-curvature="0"
     d="M 238.03554,234.64423 C 228.48912,220.06397 223.72137,202.17486 223.72137,181 c 0,-26.87699 7.34863,-47.79727 22.06707,-62.70263 l 0.70264,-0.71156 1.4231,1.40527 -0.70263,0.71155 C 232.89182,134.20421 225.72137,154.61726 225.72137,181 c 0,20.72483 4.63088,38.17955 13.88185,52.38698 l 4.59861,-3.68803 L 247.5,245 233.28026,238.4579 Z"
     id="path95" />
  <path
     style="fill:#ffffff;fill-rule:nonzero;stroke:none;stroke-width:1"
     inkscape:connector-curvature="0"
     id="path97"
     d="m 368.91188,262.51703 -0.0582,-2.51776 -3.72467,0.64687 -1.55807,2.79846 -2.22598,0.38659 6.79564,-11.78401 2.60801,-0.45294 0.56554,10.50558 z m -0.25077,-8.35571 -2.55156,4.60235 2.77697,-0.48228 -0.0932,-4.14304 z m 7.9373,5.21307 c 1.16075,-0.20159 2.11252,-1.25605 2.53132,-2.75438 0.41879,-1.49833 -0.0158,-2.31937 -1.16916,-2.11906 -1.1534,0.20032 -2.0853,1.25867 -2.50193,2.74928 -0.42095,1.50605 -0.021,2.32575 1.13977,2.12416 z m -1.46279,5.13341 c -2.15252,0.37383 -3.29926,-0.37496 -3.0127,-1.85033 l 2.11579,-0.36745 c -0.0366,0.50605 0.47299,0.73353 1.39865,0.57277 1.14605,-0.19903 1.97001,-0.87122 2.23769,-1.82892 l 0.44038,-1.57556 -0.13223,0.023 c -0.69855,0.97373 -1.68459,1.60058 -2.8233,1.79834 -2.02028,0.35087 -2.81672,-1.07603 -2.10002,-3.64018 0.73828,-2.64139 2.47249,-4.54453 4.5295,-4.90178 1.09463,-0.1901 1.86789,0.21939 2.04013,1.07864 l 0.13223,-0.023 0.3821,-1.36703 2.07171,-0.3598 -2.37245,8.48797 c -0.55911,2.00035 -2.46109,3.52846 -4.90748,3.95333 z m 11.17486,-6.82012 c 1.16074,-0.20159 2.11252,-1.25604 2.53131,-2.75437 0.4188,-1.49833 -0.0157,-2.31938 -1.16915,-2.11906 -1.1534,0.20031 -2.0853,1.25866 -2.50193,2.74927 -0.42096,1.50605 -0.021,2.32575 1.13977,2.12416 z m -1.46279,5.13341 c -2.15252,0.37383 -3.29927,-0.37496 -3.01271,-1.85032 l 2.11579,-0.36746 c -0.0366,0.50605 0.47299,0.73354 1.39865,0.57278 1.14605,-0.19904 1.97001,-0.87123 2.2377,-1.82892 l 0.44038,-1.57557 -0.13224,0.023 c -0.69855,0.97374 -1.68458,1.60059 -2.82329,1.79835 -2.02028,0.35086 -2.81673,-1.07604 -2.10003,-3.64019 0.73829,-2.64139 2.47249,-4.54453 4.52951,-4.90177 1.09463,-0.19011 1.86789,0.21938 2.04012,1.07863 l 0.13224,-0.023 0.3821,-1.36704 2.07171,-0.35979 -2.37245,8.48796 c -0.55911,2.00035 -2.46109,3.52847 -4.90748,3.95333 z m 7.04402,-4.29499 2.38108,-8.51886 2.07172,-0.35979 -0.37994,1.35931 0.13224,-0.023 c 0.4505,-0.88657 1.46934,-1.68078 2.49785,-1.8594 0.29386,-0.051 0.64304,-0.0749 0.80728,-0.0373 l -0.57207,2.04669 c -0.14954,-0.0402 -0.62967,-0.0229 -0.97496,0.0371 -1.16809,0.20287 -2.17178,1.06793 -2.50638,2.26505 l -1.31899,4.71897 z m 11.81784,-8.69541 c -0.99178,0.17224 -1.89262,1.01945 -2.27478,2.13664 l 3.45285,-0.59966 c 0.2711,-1.11995 -0.17895,-1.7105 -1.17807,-1.53698 z m 0.46012,4.25567 1.9909,-0.34576 c -0.76276,1.6536 -2.44873,2.90905 -4.43229,3.25353 -2.46842,0.4287 -3.46537,-0.95603 -2.69255,-3.72099 0.77499,-2.77268 2.73822,-4.745 5.14787,-5.16348 2.38761,-0.41466 3.35128,0.9391 2.59572,3.64228 l -0.19212,0.68738 -5.5613,0.96583 -0.0324,0.11585 c -0.32465,1.26153 0.16043,1.92683 1.27709,1.73289 0.84485,-0.14672 1.51373,-0.56417 1.89906,-1.16753 z m 7.25847,-0.76089 c 1.16075,-0.20159 2.11253,-1.25605 2.53132,-2.75438 0.41879,-1.49833 -0.0158,-2.31937 -1.16916,-2.11906 -1.1534,0.20031 -2.08529,1.25867 -2.50193,2.74927 -0.42095,1.50606 -0.021,2.32576 1.13977,2.12417 z m -1.46278,5.13341 c -2.15253,0.37383 -3.29927,-0.37496 -3.01271,-1.85033 l 2.11579,-0.36745 c -0.0366,0.50605 0.47299,0.73353 1.39865,0.57277 1.14605,-0.19904 1.97001,-0.87122 2.23769,-1.82892 l 0.44039,-1.57556 -0.13224,0.023 c -0.69855,0.97374 -1.68459,1.60059 -2.82329,1.79835 -2.02029,0.35087 -2.81673,-1.07603 -2.10003,-3.64019 0.73829,-2.64138 2.47249,-4.54452 4.52951,-4.90177 1.09463,-0.1901 1.86788,0.21939 2.04012,1.07864 l 0.13224,-0.023 0.38209,-1.36703 2.07171,-0.3598 -2.37244,8.48797 c -0.55912,2.00034 -2.4611,3.52846 -4.90748,3.95333 z m 10.40399,-6.36291 c 0.99177,-0.17224 1.92677,-0.96659 2.16855,-1.83161 l 0.17485,-0.62559 -1.66849,0.39265 c -0.93774,0.22899 -1.48302,0.65437 -1.65356,1.26452 -0.17701,0.63331 0.23665,0.92889 0.97865,0.80003 z m -1.17803,1.8139 c -1.55746,0.27048 -2.37145,-0.54345 -1.93538,-2.10356 0.43174,-1.54468 1.80617,-2.63579 3.85365,-3.10896 l 1.99605,-0.46423 0.19429,-0.6951 c 0.1986,-0.71055 -0.17401,-1.02796 -1.05559,-0.87485 -0.77138,0.13397 -1.36335,0.50132 -1.68215,1.04168 l -1.96886,0.34194 c 0.57997,-1.59981 2.23008,-2.82699 4.26506,-3.18041 2.14518,-0.37255 3.05944,0.48275 2.54998,2.30546 l -1.62552,5.81569 -2.07171,0.35979 0.31085,-1.11216 -0.13223,0.023 c -0.63679,0.85278 -1.64789,1.46929 -2.69844,1.65174 z m 10.24905,-11.93552 2.13783,-0.37127 -0.58933,2.10847 1.68235,-0.29217 -0.49435,1.76864 -1.68235,0.29218 -1.07073,3.83078 c -0.20724,0.74144 0.021,1.02513 0.74832,0.89882 0.27917,-0.0485 0.42826,-0.0817 0.64044,-0.14062 l -0.47924,1.71459 c -0.27959,0.1 -0.68925,0.21523 -1.10065,0.28668 -1.96886,0.34193 -2.55978,-0.19476 -2.09565,-1.85528 l 1.21968,-4.36369 -1.2636,0.21945 0.49435,-1.76865 1.2636,-0.21945 z m 8.04836,1.98987 c -0.99177,0.17224 -1.89261,1.01944 -2.27477,2.13664 l 3.45285,-0.59966 c 0.27109,-1.11995 -0.17895,-1.7105 -1.17808,-1.53698 z m 0.46012,4.25567 1.9909,-0.34576 c -0.76275,1.65359 -2.44873,2.90905 -4.43228,3.25353 -2.46842,0.4287 -3.46538,-0.95603 -2.69255,-3.72099 0.77498,-2.77269 2.73821,-4.745 5.14786,-5.16348 2.38762,-0.41466 3.35128,0.9391 2.59573,3.64228 l -0.19213,0.68738 -5.5613,0.96583 -0.0324,0.11585 c -0.32464,1.26153 0.16043,1.92683 1.2771,1.73289 0.84484,-0.14672 1.51373,-0.56417 1.89905,-1.16753 z" />
  <path
     style="fill:#001b3d;fill-rule:nonzero;stroke:none;stroke-width:1"
     inkscape:connector-curvature="0"
     id="path99"
     d="m 306.454,11.754 v 2.926 h -4.598 V 27 h -3.432 V 14.68 h -4.598 v -2.926 z m 7.436,6.578 c -0.29334,-0.07333 -0.638,-0.150333 -1.034,-0.231 -0.396,-0.08067 -0.82133,-0.121 -1.276,-0.121 -0.20533,0 -0.451,0.01833 -0.737,0.055 -0.286,0.03667 -0.50233,0.077 -0.649,0.121 V 27 h -3.278 V 16.044 c 0.58667,-0.205334 1.27966,-0.399666 2.079,-0.583 0.79934,-0.183334 1.69033,-0.275 2.673,-0.275 0.176,0 0.38866,0.011 0.638,0.033 0.24933,0.022 0.49866,0.05133 0.748,0.088 0.24933,0.03667 0.49867,0.08067 0.748,0.132 0.24933,0.05133 0.462,0.113666 0.638,0.187 z m 6.512,6.38 c 0.32267,0 0.63066,-0.0073 0.924,-0.022 0.29333,-0.01467 0.528,-0.03667 0.704,-0.066 v -2.486 c -0.132,-0.02933 -0.33,-0.05867 -0.594,-0.088 -0.264,-0.02933 -0.506,-0.044 -0.726,-0.044 -0.308,0 -0.59767,0.01833 -0.869,0.055 -0.27134,0.03667 -0.50967,0.106333 -0.715,0.209 -0.20533,0.102667 -0.36667,0.241999 -0.484,0.418 -0.11733,0.176001 -0.176,0.395999 -0.176,0.66 0,0.513336 0.17233,0.868999 0.517,1.067 0.34467,0.198001 0.81766,0.297 1.419,0.297 z m -0.264,-9.592 c 0.968,0 1.77466,0.109999 2.42,0.33 0.64534,0.220001 1.16233,0.535331 1.551,0.946 0.38867,0.410669 0.66366,0.90933 0.825,1.496 0.16133,0.58667 0.242,1.23933 0.242,1.958 v 6.82 c -0.46934,0.102667 -1.122,0.223666 -1.958,0.363 -0.836,0.139334 -1.84799,0.209 -3.036,0.209 -0.748,0 -1.42633,-0.066 -2.035,-0.198 -0.60867,-0.132001 -1.133,-0.348332 -1.573,-0.649 -0.44,-0.300668 -0.77733,-0.692998 -1.012,-1.177 -0.23467,-0.484002 -0.352,-1.077996 -0.352,-1.782 0,-0.67467 0.13567,-1.246664 0.407,-1.716 0.27133,-0.469336 0.63433,-0.843332 1.089,-1.122 0.45467,-0.278668 0.97533,-0.480333 1.562,-0.605 0.58667,-0.124667 1.19533,-0.187 1.826,-0.187 0.42533,0 0.803,0.01833 1.133,0.055 0.33,0.03667 0.59767,0.08433 0.803,0.143 v -0.308 c 0,-0.557336 -0.16867,-1.004665 -0.506,-1.342 -0.33734,-0.337335 -0.924,-0.506 -1.76,-0.506 -0.55734,0 -1.10733,0.04033 -1.65,0.121 -0.54267,0.08067 -1.012,0.194333 -1.408,0.341 l -0.418,-2.64 c 0.19067,-0.05867 0.429,-0.121 0.715,-0.187 0.286,-0.066 0.59766,-0.124666 0.935,-0.176 0.33733,-0.05133 0.693,-0.09533 1.067,-0.132 0.374,-0.03667 0.75166,-0.055 1.133,-0.055 z m 8.008,0.704 c 0.55734,-0.161334 1.276,-0.311666 2.156,-0.451 0.88,-0.139334 1.80399,-0.209 2.772,-0.209 0.98267,0 1.80033,0.128332 2.453,0.385 0.65267,0.256668 1.16966,0.619664 1.551,1.089 0.38133,0.469336 0.65266,1.026663 0.814,1.672 0.16133,0.645337 0.242,1.363996 0.242,2.156 V 27 h -3.278 v -6.138 c 0,-1.056005 -0.13933,-1.803998 -0.418,-2.244 -0.27867,-0.440002 -0.79933,-0.66 -1.562,-0.66 -0.23467,0 -0.484,0.011 -0.748,0.033 -0.264,0.022 -0.49867,0.04767 -0.704,0.077 V 27 h -3.278 z m 16.28,8.822 c 0.60134,0 1.02667,-0.05867 1.276,-0.176 0.24933,-0.117334 0.374,-0.344665 0.374,-0.682 0,-0.264001 -0.16133,-0.494999 -0.484,-0.693 -0.32267,-0.198001 -0.814,-0.421665 -1.474,-0.671 -0.51334,-0.190668 -0.979,-0.388666 -1.397,-0.594 -0.418,-0.205334 -0.77367,-0.450999 -1.067,-0.737 -0.29334,-0.286001 -0.52067,-0.626998 -0.682,-1.023 -0.16133,-0.396002 -0.242,-0.872664 -0.242,-1.43 0,-1.085339 0.40333,-1.94333 1.21,-2.574 0.80667,-0.63067 1.91399,-0.946 3.322,-0.946 0.704,0 1.37866,0.06233 2.024,0.187 0.64534,0.124667 1.15866,0.260333 1.54,0.407 l -0.572,2.552 c -0.38134,-0.132001 -0.79567,-0.249333 -1.243,-0.352 -0.44734,-0.102667 -0.94966,-0.154 -1.507,-0.154 -1.02667,0 -1.54,0.285997 -1.54,0.858 0,0.132001 0.022,0.249333 0.066,0.352 0.044,0.102667 0.132,0.201666 0.264,0.297 0.132,0.09533 0.31166,0.197999 0.539,0.308 0.22733,0.11 0.517,0.230999 0.869,0.363 0.71867,0.264001 1.31266,0.524332 1.782,0.781 0.46934,0.256668 0.83966,0.535332 1.111,0.836 0.27133,0.300668 0.462,0.634332 0.572,1.001 0.11,0.366669 0.165,0.791998 0.165,1.276 0,1.144006 -0.429,2.00933 -1.287,2.596 -0.858,0.58667 -2.07166,0.88 -3.641,0.88 -1.02667,0 -1.881,-0.088 -2.563,-0.264 -0.682,-0.176001 -1.155,-0.322666 -1.419,-0.44 l 0.55,-2.662 c 0.55733,0.220001 1.12933,0.392333 1.716,0.517 0.58667,0.124667 1.166,0.187 1.738,0.187 z M 356.79,9.928 c 0.616,0 1.18066,0.062333 1.694,0.187 0.51334,0.124667 0.90933,0.245666 1.188,0.363 l -0.638,2.618 c -0.29334,-0.132001 -0.61233,-0.231 -0.957,-0.297 -0.34467,-0.066 -0.66367,-0.099 -0.957,-0.099 -0.396,0 -0.72967,0.055 -1.001,0.165 -0.27134,0.11 -0.484,0.260332 -0.638,0.451 -0.154,0.190668 -0.264,0.417999 -0.33,0.682 -0.066,0.264001 -0.099,0.549998 -0.099,0.858 v 0.572 h 4.048 v 2.728 h -4.048 V 27 h -3.278 V 14.812 c 0,-1.496007 0.42166,-2.683996 1.265,-3.564 0.84334,-0.880004 2.09366,-1.32 3.751,-1.32 z m 14.916,11.264 c 0,0.909338 -0.132,1.741663 -0.396,2.497 -0.264,0.755337 -0.64533,1.400664 -1.144,1.936 -0.49867,0.535336 -1.09633,0.949665 -1.793,1.243 -0.69667,0.293335 -1.47766,0.44 -2.343,0.44 -0.85067,0 -1.62433,-0.146665 -2.321,-0.44 -0.69667,-0.293335 -1.29433,-0.707664 -1.793,-1.243 -0.49867,-0.535336 -0.88733,-1.180663 -1.166,-1.936 -0.27867,-0.755337 -0.418,-1.587662 -0.418,-2.497 0,-0.909338 0.143,-1.737996 0.429,-2.486 0.286,-0.748004 0.682,-1.385997 1.188,-1.914 0.506,-0.528003 1.10733,-0.938665 1.804,-1.232 0.69667,-0.293335 1.45566,-0.44 2.277,-0.44 0.836,0 1.60233,0.146665 2.299,0.44 0.69667,0.293335 1.29433,0.703997 1.793,1.232 0.49867,0.528003 0.88733,1.165996 1.166,1.914 0.27867,0.748004 0.418,1.576662 0.418,2.486 z m -3.344,0 c 0,-1.012005 -0.20167,-1.807664 -0.605,-2.387 -0.40334,-0.579336 -0.979,-0.869 -1.727,-0.869 -0.74801,0 -1.32733,0.289664 -1.738,0.869 -0.41067,0.579336 -0.616,1.374995 -0.616,2.387 0,1.012005 0.20533,1.814997 0.616,2.409 0.41067,0.594003 0.98999,0.891 1.738,0.891 0.748,0 1.32366,-0.296997 1.727,-0.891 0.40333,-0.594003 0.605,-1.396995 0.605,-2.409 z m 12.848,-2.86 c -0.29334,-0.07333 -0.638,-0.150333 -1.034,-0.231 -0.396,-0.08067 -0.82133,-0.121 -1.276,-0.121 -0.20534,0 -0.451,0.01833 -0.737,0.055 -0.286,0.03667 -0.50233,0.077 -0.649,0.121 V 27 h -3.278 V 16.044 c 0.58667,-0.205334 1.27966,-0.399666 2.079,-0.583 0.79934,-0.183334 1.69033,-0.275 2.673,-0.275 0.176,0 0.38866,0.011 0.638,0.033 0.24933,0.022 0.49867,0.05133 0.748,0.088 0.24933,0.03667 0.49866,0.08067 0.748,0.132 0.24933,0.05133 0.462,0.113666 0.638,0.187 z m 8.668,2.53 c 0,-1.056005 -0.13567,-1.803998 -0.407,-2.244 -0.27134,-0.440002 -0.737,-0.66 -1.397,-0.66 -0.20533,0 -0.418,0.011 -0.638,0.033 -0.22,0.022 -0.43267,0.04767 -0.638,0.077 V 27 H 383.52 V 15.824 c 0.27867,-0.07333 0.605,-0.150333 0.979,-0.231 0.374,-0.08067 0.77,-0.154 1.188,-0.22 0.418,-0.066 0.847,-0.117333 1.287,-0.154 0.44,-0.03667 0.87266,-0.055 1.298,-0.055 0.836,0 1.51433,0.106332 2.035,0.319 0.52067,0.212668 0.94966,0.465665 1.287,0.759 0.46933,-0.337335 1.00833,-0.601332 1.617,-0.792 0.60867,-0.190668 1.16966,-0.286 1.683,-0.286 0.924,0 1.683,0.128332 2.277,0.385 0.594,0.256668 1.067,0.619664 1.419,1.089 0.352,0.469336 0.594,1.026663 0.726,1.672 0.132,0.645337 0.198,1.363996 0.198,2.156 V 27 h -3.278 v -6.138 c 0,-1.056005 -0.13567,-1.803998 -0.407,-2.244 -0.27134,-0.440002 -0.737,-0.66 -1.397,-0.66 -0.176,0 -0.42167,0.044 -0.737,0.132 -0.31534,0.088 -0.57567,0.197999 -0.781,0.33 0.10267,0.337335 0.16867,0.692998 0.198,1.067 0.0293,0.374002 0.044,0.773665 0.044,1.199 V 27 h -3.278 z m 15.928,3.784 c 0.60134,0 1.02666,-0.05867 1.276,-0.176 0.24933,-0.117334 0.374,-0.344665 0.374,-0.682 0,-0.264001 -0.16133,-0.494999 -0.484,-0.693 -0.32267,-0.198001 -0.814,-0.421665 -1.474,-0.671 -0.51334,-0.190668 -0.979,-0.388666 -1.397,-0.594 -0.418,-0.205334 -0.77367,-0.450999 -1.067,-0.737 -0.29334,-0.286001 -0.52067,-0.626998 -0.682,-1.023 -0.16134,-0.396002 -0.242,-0.872664 -0.242,-1.43 0,-1.085339 0.40333,-1.94333 1.21,-2.574 0.80667,-0.63067 1.91399,-0.946 3.322,-0.946 0.704,0 1.37866,0.06233 2.024,0.187 0.64534,0.124667 1.15866,0.260333 1.54,0.407 l -0.572,2.552 c -0.38134,-0.132001 -0.79567,-0.249333 -1.243,-0.352 -0.44734,-0.102667 -0.94967,-0.154 -1.507,-0.154 -1.02667,0 -1.54,0.285997 -1.54,0.858 0,0.132001 0.022,0.249333 0.066,0.352 0.044,0.102667 0.132,0.201666 0.264,0.297 0.132,0.09533 0.31166,0.197999 0.539,0.308 0.22733,0.11 0.517,0.230999 0.869,0.363 0.71867,0.264001 1.31266,0.524332 1.782,0.781 0.46933,0.256668 0.83966,0.535332 1.111,0.836 0.27133,0.300668 0.462,0.634332 0.572,1.001 0.11,0.366669 0.165,0.791998 0.165,1.276 0,1.144006 -0.429,2.00933 -1.287,2.596 -0.85801,0.58667 -2.07166,0.88 -3.641,0.88 -1.02667,0 -1.881,-0.088 -2.563,-0.264 -0.682,-0.176001 -1.155,-0.322666 -1.419,-0.44 l 0.55,-2.662 c 0.55733,0.220001 1.12933,0.392333 1.716,0.517 0.58667,0.124667 1.166,0.187 1.738,0.187 z" />
  <g
     style="fill:none;fill-rule:evenodd;stroke:none;stroke-width:1"
     transform="translate(341.33707,42)"
     id="Group-15">
    <polygon
       style="fill:#001b3d"
       points="18.869266,4.550406 33.983899,29.74146 3.7546338,29.74146 "
       transform="matrix(1,0,0,-1,0,34.291866)"
       id="Triangle" />
    <polygon
       style="fill:#ffffff"
       points="15.289485,0.069050006 30.404118,25.260104 0.17485243,25.260104 "
       transform="matrix(1,0,0,-1,0,25.329154)"
       id="polygon103" />
  </g>
  <g
     style="fill:none;fill-rule:evenodd;stroke:none;stroke-width:1"
     transform="translate(333,45.967034)"
     id="Symbol">
    <polygon
       style="fill:#001b3d"
       points="15.035082,0.58337178 30.070164,25.641842 0,25.641842 "
       transform="matrix(1,0,0,-1,0,26.225214)"
       id="polygon106" />
    <mask
       fill="white"
       id="mask-2">
      <use
         height="100%"
         width="100%"
         y="0"
         x="0"
         id="use108"
         xlink:href="#path-1" />
    </mask>
    <use
       height="100%"
       width="100%"
       y="0"
       x="0"
       style="fill:#ffffff"
       xlink:href="#path-1"
       transform="matrix(1,0,0,-1,0,12.860696)"
       id="Mask" />
  </g>
  <path
     inkscape:connector-curvature="0"
     style="fill:url(#linearGradient-3);fill-rule:nonzero;stroke:none;stroke-width:1"
     d="m 219.73147,106.9956 -54.22195,0.51383 -0.019,-1.99991 54.22195,-0.51383 -0.0569,-5.999732 14.0657,6.867022 -13.93304,7.13235 z"
     id="Line-4" />
  <path
     inkscape:connector-curvature="0"
     style="fill:url(#linearGradient-4);fill-rule:nonzero;stroke:none;stroke-width:1"
     d="m 219.46617,106.67071 c -24.46179,0.62299 -42.61347,10.24591 -54.56678,28.8982 -3.86206,6.02648 -6.26304,9.78164 -8.02983,12.55229 -0.33224,0.52111 -0.33224,0.52111 -0.52366,0.82128 -0.073,0.11431 -0.073,0.11431 -0.11855,0.18547 -0.0259,0.0419 -0.0259,0.0419 -0.10856,0.15558 -0.0101,0.0122 -0.0101,0.0122 -0.0729,0.0796 l -0.12898,0.10675 -0.0928,-0.0157 c -1.10753,1.61969 -3.05709,4.52928 -5.99093,8.94839 -10.86216,16.36122 -32.12028,20.66403 -63.567861,13.06946 l -0.972055,-0.23475 0.469501,-1.94411 0.972056,0.23475 c 30.720169,7.4189 51.128719,3.28804 61.432139,-12.23155 3.78885,-5.70698 5.94011,-8.90256 6.77462,-10.08014 0.18701,-0.26389 0.30924,-0.42879 0.39104,-0.52524 0.0424,-0.0498 0.0424,-0.0498 0.12539,-0.13053 0.0303,-0.0275 0.0459,-0.0416 0.0735,-0.0606 1.73355,-2.71731 4.06898,-6.36911 7.68404,-12.01015 12.34603,-19.2651 31.16354,-29.21559 56.34014,-29.82189 l 0.27072,-6.059778 13.67364,7.617848 -14.29846,6.3682 z m -62.61139,41.3176 3.9e-4,-2e-4 c 9.5e-4,-0.001 0.002,-0.002 0.003,-0.003 -9.4e-4,0.001 -0.002,0.002 -0.003,0.004 z"
     id="Line-5" />
  <path
     style="fill:#001b3d;fill-rule:nonzero;stroke:none;stroke-width:1"
     inkscape:connector-curvature="0"
     d="m 219.48648,106.83413 c -20.48376,0.96205 -36.40793,7.32738 -47.8254,19.0824 -13.9175,14.32898 -21.48699,36.69068 -22.66182,67.12204 l -0.0386,0.99926 -1.99852,-0.0772 0.0386,-0.99926 c 1.19229,-30.88321 8.91863,-53.7083 23.22568,-68.43834 11.81832,-12.16773 28.26547,-18.72731 49.28827,-19.6924 l 0.0853,-6.054915 13.90006,7.196425 -14.09717,6.80219 z"
     id="Line-6" />
  <g
     style="fill:none;fill-rule:evenodd;stroke:none;stroke-width:1"
     transform="translate(0,133)"
     id="Source-2">
    <circle
       style="fill:#001b3d"
       r="37.5"
       cy="37.5"
       cx="37.5"
       id="circle118" />
    <path
       style="fill:#ffffff;fill-rule:nonzero"
       inkscape:connector-curvature="0"
       id="source"
       d="m 13.71875,36.085937 c 0,-1.59375 1.375,-2.640625 3.507812,-2.640625 2.148438,0 3.476563,1.101563 3.523438,2.742188 h -2.101563 c -0.07031,-0.679688 -0.578125,-1.140625 -1.421875,-1.140625 -0.789062,0 -1.312499,0.359375 -1.312499,0.914062 0,0.429688 0.312499,0.71875 1.156249,0.898438 L 18.5,37.164062 c 1.75,0.367188 2.46875,1.054688 2.46875,2.28125 0,1.648438 -1.507813,2.734375 -3.664063,2.734375 -2.312499,0 -3.648437,-1.078125 -3.796874,-2.726562 h 2.226562 c 0.140625,0.734375 0.664062,1.125 1.570312,1.125 0.859375,0 1.390625,-0.351563 1.390625,-0.898438 0,-0.445312 -0.289062,-0.695312 -1.109375,-0.882812 L 16.15625,38.5 c -1.617187,-0.34375 -2.4375,-1.15625 -2.4375,-2.414063 z m 12.21875,6.09375 c -2.53125,0 -4.148438,-1.625 -4.148438,-4.375 0,-2.710937 1.640625,-4.359375 4.148438,-4.359375 2.507812,0 4.148437,1.640625 4.148437,4.359375 0,2.757813 -1.617187,4.375 -4.148437,4.375 z m 0,-1.742187 c 1.117187,0 1.828125,-0.945313 1.828125,-2.625 0,-1.664063 -0.71875,-2.625 -1.828125,-2.625 -1.109375,0 -1.835938,0.960937 -1.835938,2.625 0,1.679687 0.710938,2.625 1.835938,2.625 z M 38.992187,33.625 V 42 h -2.203125 v -1.507813 h -0.04687 C 36.328125,41.546875 35.5,42.15625 34.234375,42.15625 c -1.8125,0 -3.015625,-1.179688 -3.015625,-3.132813 V 33.625 H 33.5 v 4.921875 c 0,1.117187 0.554687,1.710937 1.5625,1.710937 1.015625,0 1.648437,-0.726562 1.648437,-1.835937 V 33.625 Z M 40.476562,42 v -8.375 h 2.203125 v 1.507812 h 0.04687 c 0.296875,-1.0625 1.007813,-1.640625 1.992188,-1.640625 0.265625,0 0.492187,0.03906 0.648437,0.08594 v 2.007812 c -0.1875,-0.07813 -0.5,-0.132812 -0.828125,-0.132812 -1.125,0 -1.78125,0.6875 -1.78125,1.867187 V 42 Z m 13.15625,-5.257813 h -2.117187 c -0.132813,-0.882812 -0.71875,-1.507812 -1.65625,-1.507812 -1.125,0 -1.828125,0.953125 -1.828125,2.570312 0,1.648438 0.703125,2.585938 1.835937,2.585938 0.914063,0 1.507813,-0.546875 1.648438,-1.460938 h 2.125 c -0.117188,1.976563 -1.59375,3.25 -3.796875,3.25 -2.523438,0 -4.125,-1.640625 -4.125,-4.375 0,-2.6875 1.601562,-4.359375 4.109375,-4.359375 2.265625,0 3.703125,1.398438 3.804687,3.296875 z M 58.5,35.132812 c -1,0 -1.71875,0.757813 -1.796875,1.804688 h 3.554687 C 60.210937,35.867187 59.515625,35.132812 58.5,35.132812 Z m 1.789062,4.304688 h 2.09375 c -0.25,1.640625 -1.75,2.742187 -3.820312,2.742187 -2.578125,0 -4.125,-1.648437 -4.125,-4.328125 0,-2.671875 1.5625,-4.40625 4.039062,-4.40625 2.4375,0 3.976563,1.648438 3.976563,4.195313 v 0.695312 h -5.773438 v 0.140625 c 0,1.195313 0.757813,2.015625 1.921875,2.015625 0.835938,0 1.476563,-0.414062 1.6875,-1.054687 z" />
  </g>
  <g
     style="fill:none;fill-rule:evenodd;stroke:none;stroke-width:1"
     transform="translate(82,193)"
     id="Source-3">
    <circle
       style="fill:#001b3d"
       r="37.5"
       cy="37.5"
       cx="37.5"
       id="circle122" />
    <path
       style="fill:#ffffff;fill-rule:nonzero"
       inkscape:connector-curvature="0"
       id="path124"
       d="m 13.71875,36.085937 c 0,-1.59375 1.375,-2.640625 3.507812,-2.640625 2.148438,0 3.476563,1.101563 3.523438,2.742188 h -2.101563 c -0.07031,-0.679688 -0.578125,-1.140625 -1.421875,-1.140625 -0.789062,0 -1.312499,0.359375 -1.312499,0.914062 0,0.429688 0.312499,0.71875 1.156249,0.898438 L 18.5,37.164062 c 1.75,0.367188 2.46875,1.054688 2.46875,2.28125 0,1.648438 -1.507813,2.734375 -3.664063,2.734375 -2.312499,0 -3.648437,-1.078125 -3.796874,-2.726562 h 2.226562 c 0.140625,0.734375 0.664062,1.125 1.570312,1.125 0.859375,0 1.390625,-0.351563 1.390625,-0.898438 0,-0.445312 -0.289062,-0.695312 -1.109375,-0.882812 L 16.15625,38.5 c -1.617187,-0.34375 -2.4375,-1.15625 -2.4375,-2.414063 z m 12.21875,6.09375 c -2.53125,0 -4.148438,-1.625 -4.148438,-4.375 0,-2.710937 1.640625,-4.359375 4.148438,-4.359375 2.507812,0 4.148437,1.640625 4.148437,4.359375 0,2.757813 -1.617187,4.375 -4.148437,4.375 z m 0,-1.742187 c 1.117187,0 1.828125,-0.945313 1.828125,-2.625 0,-1.664063 -0.71875,-2.625 -1.828125,-2.625 -1.109375,0 -1.835938,0.960937 -1.835938,2.625 0,1.679687 0.710938,2.625 1.835938,2.625 z M 38.992187,33.625 V 42 h -2.203125 v -1.507813 h -0.04687 C 36.328125,41.546875 35.5,42.15625 34.234375,42.15625 c -1.8125,0 -3.015625,-1.179688 -3.015625,-3.132813 V 33.625 H 33.5 v 4.921875 c 0,1.117187 0.554687,1.710937 1.5625,1.710937 1.015625,0 1.648437,-0.726562 1.648437,-1.835937 V 33.625 Z M 40.476562,42 v -8.375 h 2.203125 v 1.507812 h 0.04687 c 0.296875,-1.0625 1.007813,-1.640625 1.992188,-1.640625 0.265625,0 0.492187,0.03906 0.648437,0.08594 v 2.007812 c -0.1875,-0.07813 -0.5,-0.132812 -0.828125,-0.132812 -1.125,0 -1.78125,0.6875 -1.78125,1.867187 V 42 Z m 13.15625,-5.257813 h -2.117187 c -0.132813,-0.882812 -0.71875,-1.507812 -1.65625,-1.507812 -1.125,0 -1.828125,0.953125 -1.828125,2.570312 0,1.648438 0.703125,2.585938 1.835937,2.585938 0.914063,0 1.507813,-0.546875 1.648438,-1.460938 h 2.125 c -0.117188,1.976563 -1.59375,3.25 -3.796875,3.25 -2.523438,0 -4.125,-1.640625 -4.125,-4.375 0,-2.6875 1.601562,-4.359375 4.109375,-4.359375 2.265625,0 3.703125,1.398438 3.804687,3.296875 z M 58.5,35.132812 c -1,0 -1.71875,0.757813 -1.796875,1.804688 h 3.554687 C 60.210937,35.867187 59.515625,35.132812 58.5,35.132812 Z m 1.789062,4.304688 h 2.09375 c -0.25,1.640625 -1.75,2.742187 -3.820312,2.742187 -2.578125,0 -4.125,-1.648437 -4.125,-4.328125 0,-2.671875 1.5625,-4.40625 4.039062,-4.40625 2.4375,0 3.976563,1.648438 3.976563,4.195313 v 0.695312 h -5.773438 v 0.140625 c 0,1.195313 0.757813,2.015625 1.921875,2.015625 0.835938,0 1.476563,-0.414062 1.6875,-1.054687 z" />
  </g>
  <path
     style="fill:#001b3d;fill-rule:nonzero;stroke:none;stroke-width:1"
     inkscape:connector-curvature="0"
     id="path131"
     d="m 73.344,24.382 c 0.484002,0 0.883665,-0.04033 1.199,-0.121 0.315335,-0.08067 0.568332,-0.190666 0.759,-0.33 0.190668,-0.139334 0.322666,-0.304332 0.396,-0.495 0.07333,-0.190668 0.11,-0.403332 0.11,-0.638 0,-0.498669 -0.234664,-0.912998 -0.704,-1.243 -0.469336,-0.330002 -1.275994,-0.685665 -2.42,-1.067 -0.498669,-0.176001 -0.997331,-0.377666 -1.496,-0.605 -0.498669,-0.227335 -0.945998,-0.513332 -1.342,-0.858 -0.396002,-0.344668 -0.718665,-0.762664 -0.968,-1.254 -0.249335,-0.491336 -0.374,-1.088997 -0.374,-1.793 0,-0.704004 0.131999,-1.33833 0.396,-1.903 0.264001,-0.564669 0.637998,-1.044998 1.122,-1.441 0.484002,-0.396002 1.070663,-0.700332 1.76,-0.913 0.689337,-0.212668 1.466662,-0.319 2.332,-0.319 1.026672,0 1.913996,0.109999 2.662,0.33 0.748004,0.220001 1.363998,0.461999 1.848,0.726 l -0.99,2.706 c -0.425336,-0.220001 -0.898331,-0.414332 -1.419,-0.583 -0.520669,-0.168667 -1.147663,-0.253 -1.881,-0.253 -0.821337,0 -1.411665,0.113665 -1.771,0.341 -0.359335,0.227335 -0.539,0.575664 -0.539,1.045 0,0.278668 0.066,0.513332 0.198,0.704 0.132001,0.190668 0.318999,0.362999 0.561,0.517 0.242001,0.154001 0.520665,0.293333 0.836,0.418 0.315335,0.124667 0.663665,0.252999 1.045,0.385 0.792004,0.293335 1.48133,0.582999 2.068,0.869 0.58667,0.286001 1.074331,0.619665 1.463,1.001 0.388669,0.381335 0.678332,0.828664 0.869,1.342 0.190668,0.513336 0.286,1.136663 0.286,1.87 0,1.422674 -0.498662,2.526329 -1.496,3.311 -0.997338,0.784671 -2.500657,1.177 -4.51,1.177 -0.67467,0 -1.283331,-0.04033 -1.826,-0.121 -0.542669,-0.08067 -1.022998,-0.179666 -1.441,-0.297 -0.418002,-0.117334 -0.777332,-0.241999 -1.078,-0.374 -0.300668,-0.132001 -0.553666,-0.256666 -0.759,-0.374 l 0.968,-2.728 c 0.454669,0.249335 1.015663,0.472999 1.683,0.671 0.667337,0.198001 1.484995,0.297 2.453,0.297 z m 19.25,-3.19 c 0,0.909338 -0.131999,1.741663 -0.396,2.497 -0.264001,0.755337 -0.645331,1.400664 -1.144,1.936 -0.498669,0.535336 -1.09633,0.949665 -1.793,1.243 -0.69667,0.293335 -1.477662,0.44 -2.343,0.44 -0.850671,0 -1.62433,-0.146665 -2.321,-0.44 -0.69667,-0.293335 -1.294331,-0.707664 -1.793,-1.243 -0.498669,-0.535336 -0.887332,-1.180663 -1.166,-1.936 -0.278668,-0.755337 -0.418,-1.587662 -0.418,-2.497 0,-0.909338 0.142999,-1.737996 0.429,-2.486 0.286001,-0.748004 0.681997,-1.385997 1.188,-1.914 0.506002,-0.528003 1.10733,-0.938665 1.804,-1.232 0.69667,-0.293335 1.455663,-0.44 2.277,-0.44 0.836004,0 1.60233,0.146665 2.299,0.44 0.69667,0.293335 1.294331,0.703997 1.793,1.232 0.498669,0.528003 0.887332,1.165996 1.166,1.914 0.278668,0.748004 0.418,1.576662 0.418,2.486 z m -3.344,0 c 0,-1.012005 -0.201665,-1.807664 -0.605,-2.387 -0.403335,-0.579336 -0.978996,-0.869 -1.727,-0.869 -0.748004,0 -1.327331,0.289664 -1.738,0.869 -0.410669,0.579336 -0.616,1.374995 -0.616,2.387 0,1.012005 0.205331,1.814997 0.616,2.409 0.410669,0.594003 0.989996,0.891 1.738,0.891 0.748004,0 1.323665,-0.296997 1.727,-0.891 0.403335,-0.594003 0.605,-1.396995 0.605,-2.409 z m 15.752,5.412 c -0.55734,0.161334 -1.276,0.311666 -2.156,0.451 -0.88,0.139334 -1.80399,0.209 -2.772,0.209 -0.982672,0 -1.80033,-0.131999 -2.453,-0.396 -0.65267,-0.264001 -1.169665,-0.634331 -1.551,-1.111 -0.381335,-0.476669 -0.652666,-1.044997 -0.814,-1.705 -0.161334,-0.660003 -0.242,-1.385996 -0.242,-2.178 v -6.446 h 3.278 v 6.05 c 0,1.056005 0.139332,1.818664 0.418,2.288 0.278668,0.469336 0.79933,0.704 1.562,0.704 0.23467,0 0.484,-0.011 0.748,-0.033 0.264,-0.022 0.49867,-0.04767 0.704,-0.077 v -8.932 h 3.278 z m 10.054,-8.272 c -0.29334,-0.07333 -0.638,-0.150333 -1.034,-0.231 -0.396,-0.08067 -0.82133,-0.121 -1.276,-0.121 -0.20533,0 -0.451,0.01833 -0.737,0.055 -0.286,0.03667 -0.50233,0.077 -0.649,0.121 V 27 h -3.278 V 16.044 c 0.58667,-0.205334 1.27966,-0.399666 2.079,-0.583 0.79934,-0.183334 1.69033,-0.275 2.673,-0.275 0.176,0 0.38867,0.011 0.638,0.033 0.24933,0.022 0.49866,0.05133 0.748,0.088 0.24934,0.03667 0.49867,0.08067 0.748,0.132 0.24934,0.05133 0.462,0.113666 0.638,0.187 z m 1.54,2.882 c 0,-0.836004 0.13567,-1.62433 0.407,-2.365 0.27133,-0.74067 0.66366,-1.385997 1.177,-1.936 0.51334,-0.550003 1.13666,-0.986332 1.87,-1.309 0.73334,-0.322668 1.56933,-0.484 2.508,-0.484 0.616,0 1.18066,0.055 1.694,0.165 0.51334,0.11 1.012,0.267666 1.496,0.473 l -0.682,2.618 c -0.308,-0.117334 -0.64533,-0.22 -1.012,-0.308 -0.36667,-0.088 -0.77733,-0.132 -1.232,-0.132 -0.96801,0 -1.69033,0.300664 -2.167,0.902 -0.47667,0.601336 -0.715,1.393328 -0.715,2.376 0,1.041339 0.22366,1.847997 0.671,2.42 0.44734,0.572003 1.22833,0.858 2.343,0.858 0.396,0 0.82133,-0.03667 1.276,-0.11 0.45467,-0.07333 0.87267,-0.190666 1.254,-0.352 l 0.462,2.684 c -0.38133,0.161334 -0.858,0.300666 -1.43,0.418 -0.572,0.117334 -1.20266,0.176 -1.892,0.176 -1.05601,0 -1.96533,-0.157665 -2.728,-0.473 -0.76267,-0.315335 -1.38966,-0.744331 -1.881,-1.287 -0.49134,-0.542669 -0.85067,-1.18433 -1.078,-1.925 -0.22733,-0.74067 -0.341,-1.543662 -0.341,-2.409 z m 10.45,0.088 c 0,-1.026672 0.15767,-1.924996 0.473,-2.695 0.31533,-0.770004 0.72966,-1.411664 1.243,-1.925 0.51334,-0.513336 1.10366,-0.901999 1.771,-1.166 0.66734,-0.264001 1.353,-0.396 2.057,-0.396 1.64267,0 2.94066,0.502328 3.894,1.507 0.95334,1.004672 1.43,2.482324 1.43,4.433 0,0.190668 -0.007,0.399666 -0.022,0.627 -0.0147,0.227335 -0.0293,0.428999 -0.044,0.605 h -7.436 c 0.0733,0.67467 0.38866,1.209998 0.946,1.606 0.55734,0.396002 1.30533,0.594 2.244,0.594 0.60134,0 1.19166,-0.055 1.771,-0.165 0.57934,-0.11 1.05233,-0.245666 1.419,-0.407 l 0.44,2.662 c -0.176,0.088 -0.41067,0.176 -0.704,0.264 -0.29334,0.088 -0.61967,0.165 -0.979,0.231 -0.35934,0.066 -0.74433,0.121 -1.155,0.165 -0.41067,0.044 -0.82133,0.066 -1.232,0.066 -1.04134,0 -1.947,-0.153999 -2.717,-0.462 -0.77,-0.308001 -1.408,-0.729664 -1.914,-1.265 -0.506,-0.535336 -0.88,-1.169663 -1.122,-1.903 -0.242,-0.733337 -0.363,-1.525329 -0.363,-2.376 z m 7.7,-1.254 c -0.0147,-0.278668 -0.0623,-0.549999 -0.143,-0.814 -0.0807,-0.264001 -0.20533,-0.498666 -0.374,-0.704 -0.16867,-0.205334 -0.38133,-0.373999 -0.638,-0.506 -0.25667,-0.132001 -0.57567,-0.198 -0.957,-0.198 -0.36667,0 -0.682,0.06233 -0.946,0.187 -0.264,0.124667 -0.484,0.289666 -0.66,0.495 -0.176,0.205334 -0.31167,0.443665 -0.407,0.715 -0.0953,0.271335 -0.165,0.546332 -0.209,0.825 z m 9.02,4.598 c 0.60134,0 1.02666,-0.05867 1.276,-0.176 0.24933,-0.117334 0.374,-0.344665 0.374,-0.682 0,-0.264001 -0.16133,-0.494999 -0.484,-0.693 -0.32267,-0.198001 -0.814,-0.421665 -1.474,-0.671 -0.51334,-0.190668 -0.979,-0.388666 -1.397,-0.594 -0.418,-0.205334 -0.77366,-0.450999 -1.067,-0.737 -0.29334,-0.286001 -0.52067,-0.626998 -0.682,-1.023 -0.16133,-0.396002 -0.242,-0.872664 -0.242,-1.43 0,-1.085339 0.40333,-1.94333 1.21,-2.574 0.80667,-0.63067 1.91399,-0.946 3.322,-0.946 0.704,0 1.37866,0.06233 2.024,0.187 0.64534,0.124667 1.15866,0.260333 1.54,0.407 l -0.572,2.552 c -0.38134,-0.132001 -0.79566,-0.249333 -1.243,-0.352 -0.44734,-0.102667 -0.94966,-0.154 -1.507,-0.154 -1.02667,0 -1.54,0.285997 -1.54,0.858 0,0.132001 0.022,0.249333 0.066,0.352 0.044,0.102667 0.132,0.201666 0.264,0.297 0.132,0.09533 0.31167,0.197999 0.539,0.308 0.22733,0.110001 0.517,0.230999 0.869,0.363 0.71867,0.264001 1.31266,0.524332 1.782,0.781 0.46934,0.256668 0.83966,0.535332 1.111,0.836 0.27133,0.300668 0.462,0.634332 0.572,1.001 0.11,0.366669 0.165,0.791998 0.165,1.276 0,1.144006 -0.429,2.00933 -1.287,2.596 -0.858,0.58667 -2.07166,0.88 -3.641,0.88 -1.02667,0 -1.881,-0.088 -2.563,-0.264 -0.682,-0.176001 -1.155,-0.322666 -1.419,-0.44 l 0.55,-2.662 c 0.55734,0.220001 1.12933,0.392333 1.716,0.517 0.58667,0.124667 1.166,0.187 1.738,0.187 z" />
  <g
     id="g4919">
    <circle
       style="fill:#1be6ff;fill-rule:evenodd;stroke:none;stroke-width:1"
       r="37.5"
       cy="104.5"
       cx="119.5"
       id="circle127" />
    <g
       id="Journald"
       style="font-style:normal;font-variant:normal;font-weight:bold;font-stretch:normal;font-size:16px;line-height:125%;font-family:Ubuntu;-inkscape-font-specification:'Ubuntu, Bold';font-variant-ligatures:normal;font-variant-caps:normal;font-variant-numeric:normal;font-feature-settings:normal;text-align:center;letter-spacing:0px;word-spacing:0px;writing-mode:lr-tb;text-anchor:middle;fill:#ffffff;fill-opacity:1;stroke:none;stroke-width:1.00000003pt;stroke-linecap:butt;stroke-linejoin:miter;stroke-opacity:1"
       aria-label="Journald">
      <path
         id="path4892"
         style=""
         d="m 93.632628,106.868 q 0,0.816 -0.192,1.536 -0.176,0.72 -0.64,1.264 -0.448,0.528 -1.232,0.848 -0.768,0.304 -1.952,0.304 -1.088,0 -1.872,-0.256 -0.784,-0.272 -1.296,-0.624 l 0.832,-1.936 q 0.464,0.272 0.992,0.48 0.528,0.208 1.152,0.208 0.912,0 1.312,-0.448 0.4,-0.448 0.4,-1.504 v -7.231999 h 2.496 z" />
      <path
         id="path4894"
         style=""
         d="m 103.74938,106.372 q 0,0.992 -0.288,1.824 -0.288,0.816 -0.832,1.408 -0.544,0.576 -1.312,0.896 -0.752,0.32 -1.696002,0.32 -0.928,0 -1.696,-0.32 -0.752,-0.32 -1.296,-0.896 -0.544,-0.592 -0.848,-1.408 -0.304,-0.832 -0.304,-1.824 0,-0.992 0.304,-1.808 0.32,-0.816 0.864,-1.392 0.56,-0.576 1.312,-0.896 0.768,-0.32 1.664,-0.32 0.912002,0 1.664002,0.32 0.768,0.32 1.312,0.896 0.544,0.576 0.848,1.392 0.304,0.816 0.304,1.808 z m -2.432,0 q 0,-1.104 -0.448,-1.728 -0.432,-0.64 -1.248002,-0.64 -0.816,0 -1.264,0.64 -0.448,0.624 -0.448,1.728 0,1.104 0.448,1.76 0.448,0.64 1.264,0.64 0.816002,0 1.248002,-0.64 0.448,-0.656 0.448,-1.76 z" />
      <path
         id="path4896"
         style=""
         d="m 112.78013,110.308 q -0.608,0.176 -1.568,0.32 -0.96,0.16 -2.016,0.16 -1.072,0 -1.792,-0.288 -0.704,-0.288 -1.12,-0.8 -0.416,-0.528 -0.592,-1.248 -0.176,-0.72 -0.176,-1.584 v -4.688 h 2.384 v 4.4 q 0,1.152 0.304,1.664 0.304,0.512 1.136,0.512 0.256,0 0.544,-0.016 0.288,-0.032 0.512,-0.064 v -6.496 h 2.384 z" />
      <path
         id="path4898"
         style=""
         d="m 120.10563,104.292 q -0.32,-0.08 -0.752,-0.16 -0.432,-0.096 -0.928,-0.096 -0.224,0 -0.544,0.048 -0.304,0.032 -0.464,0.08 v 6.432 h -2.384 v -7.968 q 0.64,-0.224 1.504,-0.416 0.88,-0.208 1.952,-0.208 0.192,0 0.464,0.032 0.272,0.016 0.544,0.064 0.272,0.032 0.544,0.096 0.272,0.048 0.464,0.128 z" />
      <path
         id="path4900"
         style=""
         d="m 121.78363,102.468 q 0.608,-0.176 1.568,-0.32 0.96,-0.16 2.016,-0.16 1.072,0 1.776,0.288 0.72,0.272 1.136,0.784 0.416,0.512 0.592,1.216 0.176,0.704 0.176,1.568 v 4.752 h -2.384 v -4.464 q 0,-1.152 -0.304,-1.632 -0.304,-0.48 -1.136,-0.48 -0.256,0 -0.544,0.032 -0.288,0.016 -0.512,0.048 v 6.496 h -2.384 z" />
      <path
         id="path4902"
         style=""
         d="m 134.43713,108.932 q 0.352,0 0.672,-0.016 0.32,-0.016 0.512,-0.048 v -1.808 q -0.144,-0.032 -0.432,-0.064 -0.288,-0.032 -0.528,-0.032 -0.336,0 -0.64,0.048 -0.288,0.032 -0.512,0.144 -0.224,0.112 -0.352,0.304 -0.128,0.192 -0.128,0.48 0,0.56 0.368,0.784 0.384,0.208 1.04,0.208 z m -0.192,-6.976 q 1.056,0 1.76,0.24 0.704,0.24 1.12,0.688 0.432,0.448 0.608,1.088 0.176,0.64 0.176,1.424 v 4.96 q -0.512,0.112 -1.424,0.256 -0.912,0.16 -2.208,0.16 -0.816,0 -1.488,-0.144 -0.656,-0.144 -1.136,-0.464 -0.48,-0.336 -0.736,-0.864 -0.256,-0.528 -0.256,-1.296 0,-0.736 0.288,-1.248 0.304,-0.512 0.8,-0.816 0.496,-0.304 1.136,-0.432 0.64,-0.144 1.328,-0.144 0.464,0 0.816,0.048 0.368,0.032 0.592,0.096 v -0.224 q 0,-0.608 -0.368,-0.976 -0.368,-0.368 -1.28,-0.368 -0.608,0 -1.2,0.096 -0.592,0.08 -1.024,0.24 l -0.304,-1.92 q 0.208,-0.064 0.512,-0.128 0.32,-0.08 0.688,-0.128 0.368,-0.064 0.768,-0.096 0.416,-0.048 0.832,-0.048 z" />
      <path
         id="path4904"
         style=""
         d="m 143.42488,110.756 q -1.04,-0.016 -1.696,-0.224 -0.64,-0.208 -1.024,-0.576 -0.368,-0.384 -0.512,-0.912 -0.128,-0.544 -0.128,-1.216 v -9.263999 l 2.384,-0.384 V 107.348 q 0,0.32 0.048,0.576 0.048,0.256 0.176,0.432 0.144,0.176 0.4,0.288 0.256,0.112 0.688,0.144 z" />
      <path
         id="path4906"
         style=""
         d="m 147.15938,106.324 q 0,1.104 0.496,1.776 0.496,0.672 1.472,0.672 0.32,0 0.592,-0.016 0.272,-0.032 0.448,-0.064 v -4.336 q -0.224,-0.144 -0.592,-0.24 -0.352,-0.096 -0.72,-0.096 -1.696,0 -1.696,2.304 z m 5.392,4 q -0.32,0.096 -0.736,0.192 -0.416,0.08 -0.88,0.144 -0.448,0.064 -0.928,0.096 -0.464,0.048 -0.896,0.048 -1.04,0 -1.856,-0.304 -0.816,-0.304 -1.376,-0.864 -0.56,-0.576 -0.864,-1.376 -0.288,-0.816 -0.288,-1.824 0,-1.024 0.256,-1.84 0.256,-0.832 0.736,-1.408 0.48,-0.576 1.168,-0.88 0.704,-0.304 1.6,-0.304 0.496,0 0.88,0.096 0.4,0.096 0.8,0.272 v -3.807999 l 2.384,-0.384 z" />
    </g>
  </g>
</svg>
