<?xml version="1.0" encoding="UTF-8"?>
<svg width="683px" height="308px" viewBox="0 0 683 308" version="1.1" xmlns="http://www.w3.org/2000/svg" xmlns:xlink="http://www.w3.org/1999/xlink">
    <!-- Generator: Sketch 54.1 (76490) - https://sketchapp.com -->
    <title>Group 2</title>
    <desc>Created with Sketch.</desc>
    <defs>
        <linearGradient x1="50%" y1="100%" x2="50%" y2="3.061617e-15%" id="linearGradient-1">
            <stop stop-color="#00DEFF" offset="0%"></stop>
            <stop stop-color="#001B3D" offset="100%"></stop>
        </linearGradient>
        <polygon id="path-2" points="15.1888799 0.0265168992 22.8734773 12.8341792 7.50428248 12.8341792"></polygon>
        <linearGradient x1="16.3052721%" y1="58.4654615%" x2="79.0524022%" y2="39.1534187%" id="linearGradient-4">
            <stop stop-color="#001B3D" offset="0%"></stop>
            <stop stop-color="#001B3D" offset="100%"></stop>
        </linearGradient>
    </defs>
    <g id="Components-(transform-highlighted)" stroke="none" stroke-width="1" fill="none" fill-rule="evenodd">
        <g id="Group-2" transform="translate(-18.000000, -125.000000)">
            <g id="Sinks" transform="translate(546.000000, 134.000000)">
                <g id="Sink-3" transform="translate(0.000000, 184.000000)">
                    <circle id="Oval-Copy" fill="#001B3D" cx="37.5" cy="37.5" r="37.5"></circle>
                    <path d="M23.6523438,37.0859375 C23.6523438,35.4921875 25.0273438,34.4453125 27.1601562,34.4453125 C29.3085938,34.4453125 30.6367188,35.546875 30.6835938,37.1875 L28.5820312,37.1875 C28.5117188,36.5078125 28.0039062,36.046875 27.1601562,36.046875 C26.3710938,36.046875 25.8476562,36.40625 25.8476562,36.9609375 C25.8476562,37.390625 26.1601562,37.6796875 27.0039062,37.859375 L28.4335938,38.1640625 C30.1835938,38.53125 30.9023438,39.21875 30.9023438,40.4453125 C30.9023438,42.09375 29.3945312,43.1796875 27.2382812,43.1796875 C24.9257812,43.1796875 23.5898438,42.1015625 23.4414062,40.453125 L25.6679688,40.453125 C25.8085938,41.1875 26.3320312,41.578125 27.2382812,41.578125 C28.0976562,41.578125 28.6289062,41.2265625 28.6289062,40.6796875 C28.6289062,40.234375 28.3398438,39.984375 27.5195312,39.796875 L26.0898438,39.5 C24.4726562,39.15625 23.6523438,38.34375 23.6523438,37.0859375 Z M32.0664062,43 L32.0664062,34.625 L34.3476562,34.625 L34.3476562,43 L32.0664062,43 Z M33.1992188,33.4921875 C32.5351562,33.4921875 32.0117188,32.9609375 32.0117188,32.3203125 C32.0117188,31.671875 32.5351562,31.1484375 33.1992188,31.1484375 C33.8632812,31.1484375 34.3867188,31.671875 34.3867188,32.3203125 C34.3867188,32.9609375 33.8632812,33.4921875 33.1992188,33.4921875 Z M35.8632812,43 L35.8632812,34.625 L38.0664062,34.625 L38.0664062,36.1171875 L38.1132812,36.1171875 C38.5585938,35.078125 39.4414062,34.46875 40.7304688,34.46875 C42.5898438,34.46875 43.6367188,35.640625 43.6367188,37.6015625 L43.6367188,43 L41.3554688,43 L41.3554688,38.078125 C41.3554688,36.984375 40.8398438,36.359375 39.8164062,36.359375 C38.7929688,36.359375 38.1445312,37.109375 38.1445312,38.1953125 L38.1445312,43 L35.8632812,43 Z M47.4492188,37.984375 L50.2929688,34.625 L52.8789062,34.625 L49.6835938,38.21875 L53.0351562,43 L50.4101562,43 L48.0117188,39.59375 L47.4179688,40.234375 L47.4179688,43 L45.1367188,43 L45.1367188,31.7265625 L47.4179688,31.7265625 L47.4179688,37.984375 L47.4492188,37.984375 Z" id="sink" fill="#FFFFFF" fill-rule="nonzero"></path>
                </g>
                <g id="Sink-2" transform="translate(80.000000, 124.000000)">
                    <circle id="Oval-Copy" fill="#001B3D" cx="37.5" cy="37.5" r="37.5"></circle>
                    <path d="M23.6523438,37.0859375 C23.6523438,35.4921875 25.0273438,34.4453125 27.1601562,34.4453125 C29.3085938,34.4453125 30.6367188,35.546875 30.6835938,37.1875 L28.5820312,37.1875 C28.5117188,36.5078125 28.0039062,36.046875 27.1601562,36.046875 C26.3710938,36.046875 25.8476562,36.40625 25.8476562,36.9609375 C25.8476562,37.390625 26.1601562,37.6796875 27.0039062,37.859375 L28.4335938,38.1640625 C30.1835938,38.53125 30.9023438,39.21875 30.9023438,40.4453125 C30.9023438,42.09375 29.3945312,43.1796875 27.2382812,43.1796875 C24.9257812,43.1796875 23.5898438,42.1015625 23.4414062,40.453125 L25.6679688,40.453125 C25.8085938,41.1875 26.3320312,41.578125 27.2382812,41.578125 C28.0976562,41.578125 28.6289062,41.2265625 28.6289062,40.6796875 C28.6289062,40.234375 28.3398438,39.984375 27.5195312,39.796875 L26.0898438,39.5 C24.4726562,39.15625 23.6523438,38.34375 23.6523438,37.0859375 Z M32.0664062,43 L32.0664062,34.625 L34.3476562,34.625 L34.3476562,43 L32.0664062,43 Z M33.1992188,33.4921875 C32.5351562,33.4921875 32.0117188,32.9609375 32.0117188,32.3203125 C32.0117188,31.671875 32.5351562,31.1484375 33.1992188,31.1484375 C33.8632812,31.1484375 34.3867188,31.671875 34.3867188,32.3203125 C34.3867188,32.9609375 33.8632812,33.4921875 33.1992188,33.4921875 Z M35.8632812,43 L35.8632812,34.625 L38.0664062,34.625 L38.0664062,36.1171875 L38.1132812,36.1171875 C38.5585938,35.078125 39.4414062,34.46875 40.7304688,34.46875 C42.5898438,34.46875 43.6367188,35.640625 43.6367188,37.6015625 L43.6367188,43 L41.3554688,43 L41.3554688,38.078125 C41.3554688,36.984375 40.8398438,36.359375 39.8164062,36.359375 C38.7929688,36.359375 38.1445312,37.109375 38.1445312,38.1953125 L38.1445312,43 L35.8632812,43 Z M47.4492188,37.984375 L50.2929688,34.625 L52.8789062,34.625 L49.6835938,38.21875 L53.0351562,43 L50.4101562,43 L48.0117188,39.59375 L47.4179688,40.234375 L47.4179688,43 L45.1367188,43 L45.1367188,31.7265625 L47.4179688,31.7265625 L47.4179688,37.984375 L47.4492188,37.984375 Z" id="sink" fill="#FFFFFF" fill-rule="nonzero"></path>
                </g>
                <g id="Sink-1" transform="translate(0.000000, 58.000000)">
                    <circle id="Oval-Copy-2" fill="#001B3D" cx="37.5" cy="37.5" r="37.5"></circle>
                    <path d="M23.6523438,38.0859375 C23.6523438,36.4921875 25.0273438,35.4453125 27.1601562,35.4453125 C29.3085938,35.4453125 30.6367188,36.546875 30.6835938,38.1875 L28.5820312,38.1875 C28.5117188,37.5078125 28.0039062,37.046875 27.1601562,37.046875 C26.3710938,37.046875 25.8476562,37.40625 25.8476562,37.9609375 C25.8476562,38.390625 26.1601562,38.6796875 27.0039062,38.859375 L28.4335938,39.1640625 C30.1835938,39.53125 30.9023438,40.21875 30.9023438,41.4453125 C30.9023438,43.09375 29.3945312,44.1796875 27.2382812,44.1796875 C24.9257812,44.1796875 23.5898438,43.1015625 23.4414062,41.453125 L25.6679688,41.453125 C25.8085938,42.1875 26.3320312,42.578125 27.2382812,42.578125 C28.0976562,42.578125 28.6289062,42.2265625 28.6289062,41.6796875 C28.6289062,41.234375 28.3398438,40.984375 27.5195312,40.796875 L26.0898438,40.5 C24.4726562,40.15625 23.6523438,39.34375 23.6523438,38.0859375 Z M32.0664062,44 L32.0664062,35.625 L34.3476562,35.625 L34.3476562,44 L32.0664062,44 Z M33.1992188,34.4921875 C32.5351562,34.4921875 32.0117188,33.9609375 32.0117188,33.3203125 C32.0117188,32.671875 32.5351562,32.1484375 33.1992188,32.1484375 C33.8632812,32.1484375 34.3867188,32.671875 34.3867188,33.3203125 C34.3867188,33.9609375 33.8632812,34.4921875 33.1992188,34.4921875 Z M35.8632812,44 L35.8632812,35.625 L38.0664062,35.625 L38.0664062,37.1171875 L38.1132812,37.1171875 C38.5585938,36.078125 39.4414062,35.46875 40.7304688,35.46875 C42.5898438,35.46875 43.6367188,36.640625 43.6367188,38.6015625 L43.6367188,44 L41.3554688,44 L41.3554688,39.078125 C41.3554688,37.984375 40.8398438,37.359375 39.8164062,37.359375 C38.7929688,37.359375 38.1445312,38.109375 38.1445312,39.1953125 L38.1445312,44 L35.8632812,44 Z M47.4492188,38.984375 L50.2929688,35.625 L52.8789062,35.625 L49.6835938,39.21875 L53.0351562,44 L50.4101562,44 L48.0117188,40.59375 L47.4179688,41.234375 L47.4179688,44 L45.1367188,44 L45.1367188,32.7265625 L47.4179688,32.7265625 L47.4179688,38.984375 L47.4492188,38.984375 Z" id="sink" fill="#FFFFFF" fill-rule="nonzero"></path>
                </g>
                <path d="M16.154,15.382 C16.6380024,15.382 17.0376651,15.3416671 17.353,15.261 C17.6683349,15.1803329 17.9213324,15.070334 18.112,14.931 C18.3026676,14.791666 18.4346663,14.6266676 18.508,14.436 C18.5813337,14.2453324 18.618,14.0326678 18.618,13.798 C18.618,13.2993308 18.3833357,12.8850016 17.914,12.555 C17.4446643,12.2249983 16.6380057,11.8693352 15.494,11.488 C14.9953308,11.3119991 14.4966692,11.1103345 13.998,10.883 C13.4993308,10.6556655 13.052002,10.3696684 12.656,10.025 C12.259998,9.68033161 11.9373346,9.26233579 11.688,8.771 C11.4386654,8.27966421 11.314,7.68200352 11.314,6.978 C11.314,6.27399648 11.4459987,5.63966949 11.71,5.075 C11.9740013,4.51033051 12.3479976,4.03000198 12.832,3.634 C13.3160024,3.23799802 13.9026632,2.93366773 14.592,2.721 C15.2813368,2.50833227 16.0586623,2.402 16.924,2.402 C17.9506718,2.402 18.8379963,2.5119989 19.586,2.732 C20.3340037,2.9520011 20.9499976,3.19399868 21.434,3.458 L20.444,6.164 C20.0186645,5.9439989 19.5456693,5.74966751 19.025,5.581 C18.5043307,5.41233249 17.877337,5.328 17.144,5.328 C16.3226626,5.328 15.7323351,5.44166553 15.373,5.669 C15.0136649,5.89633447 14.834,6.24466432 14.834,6.714 C14.834,6.99266806 14.8999993,7.22733238 15.032,7.418 C15.1640007,7.60866762 15.3509988,7.78099923 15.593,7.935 C15.8350012,8.08900077 16.1136651,8.22833271 16.429,8.353 C16.7443349,8.47766729 17.0926648,8.60599934 17.474,8.738 C18.266004,9.0313348 18.9553304,9.32099857 19.542,9.607 C20.1286696,9.89300143 20.6163314,10.2266648 21.005,10.608 C21.3936686,10.9893352 21.6833324,11.4366641 21.874,11.95 C22.0646676,12.4633359 22.16,13.086663 22.16,13.82 C22.16,15.2426738 21.6613383,16.3463294 20.664,17.131 C19.6666617,17.9156706 18.1633434,18.308 16.154,18.308 C15.47933,18.308 14.8706694,18.2676671 14.328,18.187 C13.7853306,18.1063329 13.3050021,18.0073339 12.887,17.89 C12.4689979,17.7726661 12.1096682,17.6480007 11.809,17.516 C11.5083318,17.3839993 11.2553344,17.2593339 11.05,17.142 L12.018,14.414 C12.4726689,14.6633346 13.0336633,14.886999 13.701,15.085 C14.3683367,15.283001 15.1859952,15.382 16.154,15.382 Z M27.858,18 L24.58,18 L24.58,6.428 L27.858,6.428 L27.858,18 Z M28.166,3.084 C28.166,3.68533634 27.9716686,4.15833161 27.583,4.503 C27.1943314,4.84766839 26.7360026,5.02 26.208,5.02 C25.6799974,5.02 25.2216686,4.84766839 24.833,4.503 C24.4443314,4.15833161 24.25,3.68533634 24.25,3.084 C24.25,2.48266366 24.4443314,2.00966839 24.833,1.665 C25.2216686,1.32033161 25.6799974,1.148 26.208,1.148 C26.7360026,1.148 27.1943314,1.32033161 27.583,1.665 C27.9716686,2.00966839 28.166,2.48266366 28.166,3.084 Z M30.938,6.824 C31.4953361,6.66266586 32.2139956,6.51233403 33.094,6.373 C33.9740044,6.23366597 34.8979952,6.164 35.866,6.164 C36.8486716,6.164 37.6663301,6.29233205 38.319,6.549 C38.9716699,6.80566795 39.4886648,7.16866432 39.87,7.638 C40.2513352,8.10733568 40.5226659,8.66466344 40.684,9.31 C40.8453341,9.95533656 40.926,10.673996 40.926,11.466 L40.926,18 L37.648,18 L37.648,11.862 C37.648,10.8059947 37.5086681,10.0580022 37.23,9.618 C36.9513319,9.1779978 36.4306705,8.958 35.668,8.958 C35.4333322,8.958 35.1840013,8.96899989 34.92,8.991 C34.6559987,9.01300011 34.4213344,9.03866652 34.216,9.068 L34.216,18 L30.938,18 L30.938,6.824 Z M47.174,10.608 C47.4966683,10.2559982 47.8303316,9.88933524 48.175,9.508 C48.5196684,9.12666476 48.8533317,8.74900187 49.176,8.375 C49.4986683,8.00099813 49.8029986,7.64533502 50.089,7.308 C50.3750014,6.97066498 50.6206656,6.67733458 50.826,6.428 L54.72,6.428 C53.9426628,7.32267114 53.1836704,8.17699593 52.443,8.991 C51.7023296,9.80500407 50.8920044,10.6446623 50.012,11.51 C50.4520022,11.906002 50.9066643,12.3789972 51.376,12.929 C51.8453357,13.4790027 52.2999978,14.0473304 52.74,14.634 C53.1800022,15.2206696 53.5833315,15.8073304 53.95,16.394 C54.3166685,16.9806696 54.6246654,17.5159976 54.874,18 L51.112,18 C50.8773322,17.6186648 50.6096682,17.1970023 50.309,16.735 C50.0083318,16.2729977 49.689335,15.8110023 49.352,15.349 C49.014665,14.8869977 48.6590019,14.4433355 48.285,14.018 C47.9109981,13.5926645 47.5406685,13.2333348 47.174,12.94 L47.174,18 L43.896,18 L43.896,1.456 L47.174,0.928 L47.174,10.608 Z M59.956,15.646 C60.5573363,15.646 60.9826654,15.5873339 61.232,15.47 C61.4813346,15.3526661 61.606,15.125335 61.606,14.788 C61.606,14.5239987 61.4446683,14.293001 61.122,14.095 C60.7993317,13.896999 60.3080033,13.6733346 59.648,13.424 C59.1346641,13.2333324 58.6690021,13.0353344 58.251,12.83 C57.8329979,12.6246656 57.4773348,12.3790014 57.184,12.093 C56.8906652,11.8069986 56.6633341,11.466002 56.502,11.07 C56.3406659,10.673998 56.26,10.1973361 56.26,9.64 C56.26,8.55466124 56.6633293,7.69666982 57.47,7.066 C58.2766707,6.43533018 59.383993,6.12 60.792,6.12 C61.4960035,6.12 62.1706634,6.18233271 62.816,6.307 C63.4613366,6.43166729 63.9746648,6.5673326 64.356,6.714 L63.784,9.266 C63.4026648,9.13399934 62.9883356,9.01666718 62.541,8.914 C62.0936644,8.81133282 61.5913361,8.76 61.034,8.76 C60.0073282,8.76 59.494,9.04599714 59.494,9.618 C59.494,9.75000066 59.5159998,9.86733282 59.56,9.97 C59.6040002,10.0726672 59.6919993,10.1716662 59.824,10.267 C59.9560007,10.3623338 60.1356655,10.4649994 60.363,10.575 C60.5903345,10.6850005 60.8799982,10.8059993 61.232,10.938 C61.9506703,11.2020013 62.5446643,11.462332 63.014,11.719 C63.4833357,11.9756679 63.8536653,12.2543318 64.125,12.555 C64.3963347,12.8556682 64.5869995,13.1893315 64.697,13.556 C64.8070006,13.9226685 64.862,14.3479976 64.862,14.832 C64.862,15.9760057 64.4330043,16.8413304 63.575,17.428 C62.7169957,18.0146696 61.5033412,18.308 59.934,18.308 C58.9073282,18.308 58.0530034,18.2200009 57.371,18.044 C56.6889966,17.8679991 56.2160013,17.7213339 55.952,17.604 L56.502,14.942 C57.0593361,15.1620011 57.6313304,15.3343327 58.218,15.459 C58.8046696,15.5836673 59.3839971,15.646 59.956,15.646 Z" fill="#001B3D" fill-rule="nonzero"></path>
            </g>
            <g id="Sinks" transform="translate(546.000000, 134.000000)">
                <g id="Sink-3" transform="translate(0.000000, 184.000000)">
                    <circle id="Oval-Copy" fill="#001B3D" cx="37.5" cy="37.5" r="37.5"></circle>
                    <path d="M23.6523438,37.0859375 C23.6523438,35.4921875 25.0273438,34.4453125 27.1601562,34.4453125 C29.3085938,34.4453125 30.6367188,35.546875 30.6835938,37.1875 L28.5820312,37.1875 C28.5117188,36.5078125 28.0039062,36.046875 27.1601562,36.046875 C26.3710938,36.046875 25.8476562,36.40625 25.8476562,36.9609375 C25.8476562,37.390625 26.1601562,37.6796875 27.0039062,37.859375 L28.4335938,38.1640625 C30.1835938,38.53125 30.9023438,39.21875 30.9023438,40.4453125 C30.9023438,42.09375 29.3945312,43.1796875 27.2382812,43.1796875 C24.9257812,43.1796875 23.5898438,42.1015625 23.4414062,40.453125 L25.6679688,40.453125 C25.8085938,41.1875 26.3320312,41.578125 27.2382812,41.578125 C28.0976562,41.578125 28.6289062,41.2265625 28.6289062,40.6796875 C28.6289062,40.234375 28.3398438,39.984375 27.5195312,39.796875 L26.0898438,39.5 C24.4726562,39.15625 23.6523438,38.34375 23.6523438,37.0859375 Z M32.0664062,43 L32.0664062,34.625 L34.3476562,34.625 L34.3476562,43 L32.0664062,43 Z M33.1992188,33.4921875 C32.5351562,33.4921875 32.0117188,32.9609375 32.0117188,32.3203125 C32.0117188,31.671875 32.5351562,31.1484375 33.1992188,31.1484375 C33.8632812,31.1484375 34.3867188,31.671875 34.3867188,32.3203125 C34.3867188,32.9609375 33.8632812,33.4921875 33.1992188,33.4921875 Z M35.8632812,43 L35.8632812,34.625 L38.0664062,34.625 L38.0664062,36.1171875 L38.1132812,36.1171875 C38.5585938,35.078125 39.4414062,34.46875 40.7304688,34.46875 C42.5898438,34.46875 43.6367188,35.640625 43.6367188,37.6015625 L43.6367188,43 L41.3554688,43 L41.3554688,38.078125 C41.3554688,36.984375 40.8398438,36.359375 39.8164062,36.359375 C38.7929688,36.359375 38.1445312,37.109375 38.1445312,38.1953125 L38.1445312,43 L35.8632812,43 Z M47.4492188,37.984375 L50.2929688,34.625 L52.8789062,34.625 L49.6835938,38.21875 L53.0351562,43 L50.4101562,43 L48.0117188,39.59375 L47.4179688,40.234375 L47.4179688,43 L45.1367188,43 L45.1367188,31.7265625 L47.4179688,31.7265625 L47.4179688,37.984375 L47.4492188,37.984375 Z" id="sink" fill="#FFFFFF" fill-rule="nonzero"></path>
                </g>
                <g id="Sink-2" transform="translate(80.000000, 124.000000)">
                    <circle id="Oval-Copy" fill="#001B3D" cx="37.5" cy="37.5" r="37.5"></circle>
                    <path d="M23.6523438,37.0859375 C23.6523438,35.4921875 25.0273438,34.4453125 27.1601562,34.4453125 C29.3085938,34.4453125 30.6367188,35.546875 30.6835938,37.1875 L28.5820312,37.1875 C28.5117188,36.5078125 28.0039062,36.046875 27.1601562,36.046875 C26.3710938,36.046875 25.8476562,36.40625 25.8476562,36.9609375 C25.8476562,37.390625 26.1601562,37.6796875 27.0039062,37.859375 L28.4335938,38.1640625 C30.1835938,38.53125 30.9023438,39.21875 30.9023438,40.4453125 C30.9023438,42.09375 29.3945312,43.1796875 27.2382812,43.1796875 C24.9257812,43.1796875 23.5898438,42.1015625 23.4414062,40.453125 L25.6679688,40.453125 C25.8085938,41.1875 26.3320312,41.578125 27.2382812,41.578125 C28.0976562,41.578125 28.6289062,41.2265625 28.6289062,40.6796875 C28.6289062,40.234375 28.3398438,39.984375 27.5195312,39.796875 L26.0898438,39.5 C24.4726562,39.15625 23.6523438,38.34375 23.6523438,37.0859375 Z M32.0664062,43 L32.0664062,34.625 L34.3476562,34.625 L34.3476562,43 L32.0664062,43 Z M33.1992188,33.4921875 C32.5351562,33.4921875 32.0117188,32.9609375 32.0117188,32.3203125 C32.0117188,31.671875 32.5351562,31.1484375 33.1992188,31.1484375 C33.8632812,31.1484375 34.3867188,31.671875 34.3867188,32.3203125 C34.3867188,32.9609375 33.8632812,33.4921875 33.1992188,33.4921875 Z M35.8632812,43 L35.8632812,34.625 L38.0664062,34.625 L38.0664062,36.1171875 L38.1132812,36.1171875 C38.5585938,35.078125 39.4414062,34.46875 40.7304688,34.46875 C42.5898438,34.46875 43.6367188,35.640625 43.6367188,37.6015625 L43.6367188,43 L41.3554688,43 L41.3554688,38.078125 C41.3554688,36.984375 40.8398438,36.359375 39.8164062,36.359375 C38.7929688,36.359375 38.1445312,37.109375 38.1445312,38.1953125 L38.1445312,43 L35.8632812,43 Z M47.4492188,37.984375 L50.2929688,34.625 L52.8789062,34.625 L49.6835938,38.21875 L53.0351562,43 L50.4101562,43 L48.0117188,39.59375 L47.4179688,40.234375 L47.4179688,43 L45.1367188,43 L45.1367188,31.7265625 L47.4179688,31.7265625 L47.4179688,37.984375 L47.4492188,37.984375 Z" id="sink" fill="#FFFFFF" fill-rule="nonzero"></path>
                </g>
                <g id="Sink-1" transform="translate(0.000000, 58.000000)">
                    <circle id="Oval-Copy-2" fill="#001B3D" cx="37.5" cy="37.5" r="37.5"></circle>
                    <path d="M23.6523438,38.0859375 C23.6523438,36.4921875 25.0273438,35.4453125 27.1601562,35.4453125 C29.3085938,35.4453125 30.6367188,36.546875 30.6835938,38.1875 L28.5820312,38.1875 C28.5117188,37.5078125 28.0039062,37.046875 27.1601562,37.046875 C26.3710938,37.046875 25.8476562,37.40625 25.8476562,37.9609375 C25.8476562,38.390625 26.1601562,38.6796875 27.0039062,38.859375 L28.4335938,39.1640625 C30.1835938,39.53125 30.9023438,40.21875 30.9023438,41.4453125 C30.9023438,43.09375 29.3945312,44.1796875 27.2382812,44.1796875 C24.9257812,44.1796875 23.5898438,43.1015625 23.4414062,41.453125 L25.6679688,41.453125 C25.8085938,42.1875 26.3320312,42.578125 27.2382812,42.578125 C28.0976562,42.578125 28.6289062,42.2265625 28.6289062,41.6796875 C28.6289062,41.234375 28.3398438,40.984375 27.5195312,40.796875 L26.0898438,40.5 C24.4726562,40.15625 23.6523438,39.34375 23.6523438,38.0859375 Z M32.0664062,44 L32.0664062,35.625 L34.3476562,35.625 L34.3476562,44 L32.0664062,44 Z M33.1992188,34.4921875 C32.5351562,34.4921875 32.0117188,33.9609375 32.0117188,33.3203125 C32.0117188,32.671875 32.5351562,32.1484375 33.1992188,32.1484375 C33.8632812,32.1484375 34.3867188,32.671875 34.3867188,33.3203125 C34.3867188,33.9609375 33.8632812,34.4921875 33.1992188,34.4921875 Z M35.8632812,44 L35.8632812,35.625 L38.0664062,35.625 L38.0664062,37.1171875 L38.1132812,37.1171875 C38.5585938,36.078125 39.4414062,35.46875 40.7304688,35.46875 C42.5898438,35.46875 43.6367188,36.640625 43.6367188,38.6015625 L43.6367188,44 L41.3554688,44 L41.3554688,39.078125 C41.3554688,37.984375 40.8398438,37.359375 39.8164062,37.359375 C38.7929688,37.359375 38.1445312,38.109375 38.1445312,39.1953125 L38.1445312,44 L35.8632812,44 Z M47.4492188,38.984375 L50.2929688,35.625 L52.8789062,35.625 L49.6835938,39.21875 L53.0351562,44 L50.4101562,44 L48.0117188,40.59375 L47.4179688,41.234375 L47.4179688,44 L45.1367188,44 L45.1367188,32.7265625 L47.4179688,32.7265625 L47.4179688,38.984375 L47.4492188,38.984375 Z" id="sink" fill="#FFFFFF" fill-rule="nonzero"></path>
                </g>
                <path d="M16.154,15.382 C16.6380024,15.382 17.0376651,15.3416671 17.353,15.261 C17.6683349,15.1803329 17.9213324,15.070334 18.112,14.931 C18.3026676,14.791666 18.4346663,14.6266676 18.508,14.436 C18.5813337,14.2453324 18.618,14.0326678 18.618,13.798 C18.618,13.2993308 18.3833357,12.8850016 17.914,12.555 C17.4446643,12.2249983 16.6380057,11.8693352 15.494,11.488 C14.9953308,11.3119991 14.4966692,11.1103345 13.998,10.883 C13.4993308,10.6556655 13.052002,10.3696684 12.656,10.025 C12.259998,9.68033161 11.9373346,9.26233579 11.688,8.771 C11.4386654,8.27966421 11.314,7.68200352 11.314,6.978 C11.314,6.27399648 11.4459987,5.63966949 11.71,5.075 C11.9740013,4.51033051 12.3479976,4.03000198 12.832,3.634 C13.3160024,3.23799802 13.9026632,2.93366773 14.592,2.721 C15.2813368,2.50833227 16.0586623,2.402 16.924,2.402 C17.9506718,2.402 18.8379963,2.5119989 19.586,2.732 C20.3340037,2.9520011 20.9499976,3.19399868 21.434,3.458 L20.444,6.164 C20.0186645,5.9439989 19.5456693,5.74966751 19.025,5.581 C18.5043307,5.41233249 17.877337,5.328 17.144,5.328 C16.3226626,5.328 15.7323351,5.44166553 15.373,5.669 C15.0136649,5.89633447 14.834,6.24466432 14.834,6.714 C14.834,6.99266806 14.8999993,7.22733238 15.032,7.418 C15.1640007,7.60866762 15.3509988,7.78099923 15.593,7.935 C15.8350012,8.08900077 16.1136651,8.22833271 16.429,8.353 C16.7443349,8.47766729 17.0926648,8.60599934 17.474,8.738 C18.266004,9.0313348 18.9553304,9.32099857 19.542,9.607 C20.1286696,9.89300143 20.6163314,10.2266648 21.005,10.608 C21.3936686,10.9893352 21.6833324,11.4366641 21.874,11.95 C22.0646676,12.4633359 22.16,13.086663 22.16,13.82 C22.16,15.2426738 21.6613383,16.3463294 20.664,17.131 C19.6666617,17.9156706 18.1633434,18.308 16.154,18.308 C15.47933,18.308 14.8706694,18.2676671 14.328,18.187 C13.7853306,18.1063329 13.3050021,18.0073339 12.887,17.89 C12.4689979,17.7726661 12.1096682,17.6480007 11.809,17.516 C11.5083318,17.3839993 11.2553344,17.2593339 11.05,17.142 L12.018,14.414 C12.4726689,14.6633346 13.0336633,14.886999 13.701,15.085 C14.3683367,15.283001 15.1859952,15.382 16.154,15.382 Z M27.858,18 L24.58,18 L24.58,6.428 L27.858,6.428 L27.858,18 Z M28.166,3.084 C28.166,3.68533634 27.9716686,4.15833161 27.583,4.503 C27.1943314,4.84766839 26.7360026,5.02 26.208,5.02 C25.6799974,5.02 25.2216686,4.84766839 24.833,4.503 C24.4443314,4.15833161 24.25,3.68533634 24.25,3.084 C24.25,2.48266366 24.4443314,2.00966839 24.833,1.665 C25.2216686,1.32033161 25.6799974,1.148 26.208,1.148 C26.7360026,1.148 27.1943314,1.32033161 27.583,1.665 C27.9716686,2.00966839 28.166,2.48266366 28.166,3.084 Z M30.938,6.824 C31.4953361,6.66266586 32.2139956,6.51233403 33.094,6.373 C33.9740044,6.23366597 34.8979952,6.164 35.866,6.164 C36.8486716,6.164 37.6663301,6.29233205 38.319,6.549 C38.9716699,6.80566795 39.4886648,7.16866432 39.87,7.638 C40.2513352,8.10733568 40.5226659,8.66466344 40.684,9.31 C40.8453341,9.95533656 40.926,10.673996 40.926,11.466 L40.926,18 L37.648,18 L37.648,11.862 C37.648,10.8059947 37.5086681,10.0580022 37.23,9.618 C36.9513319,9.1779978 36.4306705,8.958 35.668,8.958 C35.4333322,8.958 35.1840013,8.96899989 34.92,8.991 C34.6559987,9.01300011 34.4213344,9.03866652 34.216,9.068 L34.216,18 L30.938,18 L30.938,6.824 Z M47.174,10.608 C47.4966683,10.2559982 47.8303316,9.88933524 48.175,9.508 C48.5196684,9.12666476 48.8533317,8.74900187 49.176,8.375 C49.4986683,8.00099813 49.8029986,7.64533502 50.089,7.308 C50.3750014,6.97066498 50.6206656,6.67733458 50.826,6.428 L54.72,6.428 C53.9426628,7.32267114 53.1836704,8.17699593 52.443,8.991 C51.7023296,9.80500407 50.8920044,10.6446623 50.012,11.51 C50.4520022,11.906002 50.9066643,12.3789972 51.376,12.929 C51.8453357,13.4790027 52.2999978,14.0473304 52.74,14.634 C53.1800022,15.2206696 53.5833315,15.8073304 53.95,16.394 C54.3166685,16.9806696 54.6246654,17.5159976 54.874,18 L51.112,18 C50.8773322,17.6186648 50.6096682,17.1970023 50.309,16.735 C50.0083318,16.2729977 49.689335,15.8110023 49.352,15.349 C49.014665,14.8869977 48.6590019,14.4433355 48.285,14.018 C47.9109981,13.5926645 47.5406685,13.2333348 47.174,12.94 L47.174,18 L43.896,18 L43.896,1.456 L47.174,0.928 L47.174,10.608 Z M59.956,15.646 C60.5573363,15.646 60.9826654,15.5873339 61.232,15.47 C61.4813346,15.3526661 61.606,15.125335 61.606,14.788 C61.606,14.5239987 61.4446683,14.293001 61.122,14.095 C60.7993317,13.896999 60.3080033,13.6733346 59.648,13.424 C59.1346641,13.2333324 58.6690021,13.0353344 58.251,12.83 C57.8329979,12.6246656 57.4773348,12.3790014 57.184,12.093 C56.8906652,11.8069986 56.6633341,11.466002 56.502,11.07 C56.3406659,10.673998 56.26,10.1973361 56.26,9.64 C56.26,8.55466124 56.6633293,7.69666982 57.47,7.066 C58.2766707,6.43533018 59.383993,6.12 60.792,6.12 C61.4960035,6.12 62.1706634,6.18233271 62.816,6.307 C63.4613366,6.43166729 63.9746648,6.5673326 64.356,6.714 L63.784,9.266 C63.4026648,9.13399934 62.9883356,9.01666718 62.541,8.914 C62.0936644,8.81133282 61.5913361,8.76 61.034,8.76 C60.0073282,8.76 59.494,9.04599714 59.494,9.618 C59.494,9.75000066 59.5159998,9.86733282 59.56,9.97 C59.6040002,10.0726672 59.6919993,10.1716662 59.824,10.267 C59.9560007,10.3623338 60.1356655,10.4649994 60.363,10.575 C60.5903345,10.6850005 60.8799982,10.8059993 61.232,10.938 C61.9506703,11.2020013 62.5446643,11.462332 63.014,11.719 C63.4833357,11.9756679 63.8536653,12.2543318 64.125,12.555 C64.3963347,12.8556682 64.5869995,13.1893315 64.697,13.556 C64.8070006,13.9226685 64.862,14.3479976 64.862,14.832 C64.862,15.9760057 64.4330043,16.8413304 63.575,17.428 C62.7169957,18.0146696 61.5033412,18.308 59.934,18.308 C58.9073282,18.308 58.0530034,18.2200009 57.371,18.044 C56.6889966,17.8679991 56.2160013,17.7213339 55.952,17.604 L56.502,14.942 C57.0593361,15.1620011 57.6313304,15.3343327 58.218,15.459 C58.8046696,15.5836673 59.3839971,15.646 59.956,15.646 Z" fill="#001B3D" fill-rule="nonzero"></path>
            </g>
            <g id="Dividers" transform="translate(210.000000, 125.000000)" fill="#000000" fill-rule="nonzero">
                <polygon id="Line-3" points="0 4 0 297.5 2 297.5 2 4"></polygon>
                <polygon id="Line-3" points="300 0 300 300 302 300 302 0"></polygon>
            </g>
            <g id="Sink-Arrows" transform="translate(484.000000, 233.000000)" fill="#001B3D" fill-rule="nonzero">
                <path id="Line-2" d="M122.274956,64.2259684 L120,64.2259684 L120,62.2259684 L122.274956,62.2259684 L122.274956,56.2259684 L136.274956,63.2259684 L122.274956,70.2259684 L122.274956,64.2259684 Z M0,64.2259684 L0,62.2259684 L7,62.2259684 L7,64.2259684 L0,64.2259684 Z M10,64.2259684 L10,62.2259684 L17,62.2259684 L17,64.2259684 L10,64.2259684 Z M20,64.2259684 L20,62.2259684 L27,62.2259684 L27,64.2259684 L20,64.2259684 Z M30,64.2259684 L30,62.2259684 L37,62.2259684 L37,64.2259684 L30,64.2259684 Z M40,64.2259684 L40,62.2259684 L47,62.2259684 L47,64.2259684 L40,64.2259684 Z M50,64.2259684 L50,62.2259684 L57,62.2259684 L57,64.2259684 L50,64.2259684 Z M60,64.2259684 L60,62.2259684 L67,62.2259684 L67,64.2259684 L60,64.2259684 Z M70,64.2259684 L70,62.2259684 L77,62.2259684 L77,64.2259684 L70,64.2259684 Z M80,64.2259684 L80,62.2259684 L87,62.2259684 L87,64.2259684 L80,64.2259684 Z M90,64.2259684 L90,62.2259684 L97,62.2259684 L97,64.2259684 L90,64.2259684 Z M100,64.2259684 L100,62.2259684 L107,62.2259684 L107,64.2259684 L100,64.2259684 Z M110,64.2259684 L110,62.2259684 L117,62.2259684 L117,64.2259684 L110,64.2259684 Z"></path>
                <path id="Line-2" d="M53,123.225968 L39,130.225968 L39,116.225968 L53,123.225968 Z M-2.22044605e-16,124.225968 L-2.22044605e-16,122.225968 L7,122.225968 L7,124.225968 L-2.22044605e-16,124.225968 Z M10,124.225968 L10,122.225968 L17,122.225968 L17,124.225968 L10,124.225968 Z M20,124.225968 L20,122.225968 L27,122.225968 L27,124.225968 L20,124.225968 Z M30,124.225968 L30,122.225968 L37,122.225968 L37,124.225968 L30,124.225968 Z"></path>
                <path id="Line-2" d="M53,0.5 L39,7.5 L39,-6.5 L53,0.5 Z M0,1.5 L0,-0.5 L14,-0.5 L14,1.5 L0,1.5 Z M24,1.5 L24,-0.5 L38,-0.5 L38,1.5 L24,1.5 Z"></path>
            </g>
            <path d="M252.139,412.578 C254.427011,412.578 256.179661,412.984996 257.397,413.799 C258.614339,414.613004 259.223,415.877991 259.223,417.594 C259.223,418.664672 258.977336,419.533663 258.486,420.201 C257.994664,420.868337 257.287005,421.392665 256.363,421.774 C256.671002,422.155335 256.993665,422.591664 257.331,423.083 C257.668335,423.574336 258.001998,424.087664 258.332,424.623 C258.662002,425.158336 258.980998,425.715664 259.289,426.295 C259.597002,426.874336 259.882999,427.442664 260.147,428 L256.297,428 C256.018332,427.501331 255.736001,426.995336 255.45,426.482 C255.163999,425.968664 254.870668,425.470002 254.57,424.986 C254.269332,424.501998 253.972335,424.043669 253.679,423.611 C253.385665,423.178331 253.092335,422.786002 252.799,422.434 L251.105,422.434 L251.105,428 L247.673,428 L247.673,412.974 C248.421004,412.827333 249.194663,412.724667 249.994,412.666 C250.793337,412.607333 251.50833,412.578 252.139,412.578 Z M252.337,415.504 C252.087665,415.504 251.864001,415.511333 251.666,415.526 C251.467999,415.540667 251.281001,415.555333 251.105,415.57 L251.105,419.706 L252.073,419.706 C253.363673,419.706 254.287664,419.544668 254.845,419.222 C255.402336,418.899332 255.681,418.349337 255.681,417.572 C255.681,416.823996 255.398669,416.292335 254.834,415.977 C254.269331,415.661665 253.437005,415.504 252.337,415.504 Z M261.027,422.302 C261.027,421.275328 261.184665,420.377004 261.5,419.607 C261.815335,418.836996 262.229664,418.195336 262.743,417.682 C263.256336,417.168664 263.846663,416.780001 264.514,416.516 C265.181337,416.251999 265.866996,416.12 266.571,416.12 C268.213675,416.12 269.511662,416.622328 270.465,417.627 C271.418338,418.631672 271.895,420.109324 271.895,422.06 C271.895,422.250668 271.887667,422.459666 271.873,422.687 C271.858333,422.914334 271.843667,423.115999 271.829,423.292 L264.393,423.292 C264.466334,423.96667 264.781664,424.501998 265.339,424.898 C265.896336,425.294002 266.644329,425.492 267.583,425.492 C268.184336,425.492 268.774664,425.437001 269.354,425.327 C269.933336,425.216999 270.406332,425.081334 270.773,424.92 L271.213,427.582 C271.036999,427.67 270.802335,427.758 270.509,427.846 C270.215665,427.934 269.889335,428.011 269.53,428.077 C269.170665,428.143 268.785669,428.198 268.375,428.242 C267.964331,428.286 267.553669,428.308 267.143,428.308 C266.101661,428.308 265.196004,428.154002 264.426,427.846 C263.655996,427.537998 263.018003,427.116336 262.512,426.581 C262.005997,426.045664 261.632001,425.411337 261.39,424.678 C261.147999,423.944663 261.027,423.152671 261.027,422.302 Z M268.727,421.048 C268.712333,420.769332 268.664667,420.498001 268.584,420.234 C268.503333,419.969999 268.378668,419.735334 268.21,419.53 C268.041332,419.324666 267.828668,419.156001 267.572,419.024 C267.315332,418.891999 266.996335,418.826 266.615,418.826 C266.248332,418.826 265.933001,418.888333 265.669,419.013 C265.404999,419.137667 265.185001,419.302666 265.009,419.508 C264.832999,419.713334 264.697334,419.951665 264.602,420.223 C264.506666,420.494335 264.437,420.769332 264.393,421.048 L268.727,421.048 Z M277.219,421.84 C277.219,423.673342 277.959659,424.59 279.441,424.59 C279.778335,424.59 280.093665,424.546 280.387,424.458 C280.680335,424.37 280.929666,424.267334 281.135,424.15 L281.135,418.914 C280.973666,418.884667 280.783001,418.859 280.563,418.837 C280.342999,418.815 280.086335,418.804 279.793,418.804 C278.927662,418.804 278.282335,419.089997 277.857,419.662 C277.431665,420.234003 277.219,420.959996 277.219,421.84 Z M284.413,426.548 C284.413,428.440009 283.932671,429.844329 282.972,430.761 C282.011329,431.677671 280.526343,432.136 278.517,432.136 C277.812996,432.136 277.109004,432.073667 276.405,431.949 C275.700996,431.824333 275.048336,431.659334 274.447,431.454 L275.019,428.704 C275.532336,428.909334 276.071331,429.070666 276.636,429.188 C277.200669,429.305334 277.84233,429.364 278.561,429.364 C279.499671,429.364 280.163331,429.158669 280.552,428.748 C280.940669,428.337331 281.135,427.809337 281.135,427.164 L281.135,426.746 C280.782998,426.907334 280.420002,427.028333 280.046,427.109 C279.671998,427.189667 279.265002,427.23 278.825,427.23 C277.226325,427.23 276.001671,426.757005 275.151,425.811 C274.300329,424.864995 273.875,423.541342 273.875,421.84 C273.875,420.989329 274.006999,420.21567 274.271,419.519 C274.535001,418.82233 274.919997,418.224669 275.426,417.726 C275.932003,417.227331 276.551663,416.842335 277.285,416.571 C278.018337,416.299665 278.846995,416.164 279.771,416.164 C280.167002,416.164 280.573998,416.182333 280.992,416.219 C281.410002,416.255667 281.824331,416.303333 282.235,416.362 C282.645669,416.420667 283.037998,416.490333 283.412,416.571 C283.786002,416.651667 284.119665,416.736 284.413,416.824 L284.413,426.548 Z M286.943,422.302 C286.943,421.275328 287.100665,420.377004 287.416,419.607 C287.731335,418.836996 288.145664,418.195336 288.659,417.682 C289.172336,417.168664 289.762663,416.780001 290.43,416.516 C291.097337,416.251999 291.782996,416.12 292.487,416.12 C294.129675,416.12 295.427662,416.622328 296.381,417.627 C297.334338,418.631672 297.811,420.109324 297.811,422.06 C297.811,422.250668 297.803667,422.459666 297.789,422.687 C297.774333,422.914334 297.759667,423.115999 297.745,423.292 L290.309,423.292 C290.382334,423.96667 290.697664,424.501998 291.255,424.898 C291.812336,425.294002 292.560329,425.492 293.499,425.492 C294.100336,425.492 294.690664,425.437001 295.27,425.327 C295.849336,425.216999 296.322332,425.081334 296.689,424.92 L297.129,427.582 C296.952999,427.67 296.718335,427.758 296.425,427.846 C296.131665,427.934 295.805335,428.011 295.446,428.077 C295.086665,428.143 294.701669,428.198 294.291,428.242 C293.880331,428.286 293.469669,428.308 293.059,428.308 C292.017661,428.308 291.112004,428.154002 290.342,427.846 C289.571996,427.537998 288.934003,427.116336 288.428,426.581 C287.921997,426.045664 287.548001,425.411337 287.306,424.678 C287.063999,423.944663 286.943,423.152671 286.943,422.302 Z M294.643,421.048 C294.628333,420.769332 294.580667,420.498001 294.5,420.234 C294.419333,419.969999 294.294668,419.735334 294.126,419.53 C293.957332,419.324666 293.744668,419.156001 293.488,419.024 C293.231332,418.891999 292.912335,418.826 292.531,418.826 C292.164332,418.826 291.849001,418.888333 291.585,419.013 C291.320999,419.137667 291.101001,419.302666 290.925,419.508 C290.748999,419.713334 290.613334,419.951665 290.518,420.223 C290.422666,420.494335 290.353,420.769332 290.309,421.048 L294.643,421.048 Z M304.939,419.948 L307.227,416.428 L310.615,416.428 L306.655,421.994 C307.535004,423.094005 308.33433,424.164661 309.053,425.206 C309.77167,426.247339 310.343665,427.178663 310.769,428 L307.249,428 L306.809,427.175 C306.632999,426.844998 306.435001,426.500335 306.215,426.141 C305.994999,425.781665 305.764001,425.422335 305.522,425.063 C305.279999,424.703665 305.041668,424.377335 304.807,424.084 C304.586999,424.362668 304.363334,424.670665 304.136,425.008 C303.908666,425.345335 303.692334,425.686332 303.487,426.031 C303.281666,426.375668 303.080001,426.716665 302.882,427.054 C302.683999,427.391335 302.511667,427.706665 302.365,428 L299.021,428 C299.197001,427.633331 299.438998,427.200669 299.747,426.702 C300.055002,426.203331 300.388665,425.686336 300.748,425.151 C301.107335,424.615664 301.484998,424.080336 301.881,423.545 C302.277002,423.009664 302.665665,422.507336 303.047,422.038 C302.386997,421.113995 301.727003,420.179005 301.067,419.233 C300.406997,418.286995 299.754337,417.352005 299.109,416.428 L302.651,416.428 L304.939,419.948 Z M322.605,412.578 C324.878345,412.578 326.623661,412.977663 327.841,413.777 C329.058339,414.576337 329.667,415.885324 329.667,417.704 C329.667,419.537343 329.051006,420.860996 327.819,421.675 C326.586994,422.489004 324.827011,422.896 322.539,422.896 L321.461,422.896 L321.461,428 L318.029,428 L318.029,412.974 C318.777004,412.827333 319.568996,412.724667 320.405,412.666 C321.241004,412.607333 321.97433,412.578 322.605,412.578 Z M322.825,415.504 C322.575665,415.504 322.330001,415.511333 322.088,415.526 C321.845999,415.540667 321.637001,415.555333 321.461,415.57 L321.461,419.97 L322.539,419.97 C323.727006,419.97 324.621664,419.808668 325.223,419.486 C325.824336,419.163332 326.125,418.562004 326.125,417.682 C326.125,417.256665 326.048001,416.904668 325.894,416.626 C325.739999,416.347332 325.520001,416.123668 325.234,415.955 C324.947999,415.786332 324.599669,415.669 324.189,415.603 C323.778331,415.537 323.323669,415.504 322.825,415.504 Z M335.959,425.712 C336.281668,425.712 336.589665,425.704667 336.883,425.69 C337.176335,425.675333 337.410999,425.653333 337.587,425.624 L337.587,423.138 C337.454999,423.108667 337.257001,423.079333 336.993,423.05 C336.728999,423.020667 336.487001,423.006 336.267,423.006 C335.958998,423.006 335.669335,423.024333 335.398,423.061 C335.126665,423.097667 334.888334,423.167333 334.683,423.27 C334.477666,423.372667 334.316334,423.511999 334.199,423.688 C334.081666,423.864001 334.023,424.083999 334.023,424.348 C334.023,424.861336 334.195332,425.216999 334.54,425.415 C334.884668,425.613001 335.357664,425.712 335.959,425.712 Z M335.695,416.12 C336.663005,416.12 337.469663,416.229999 338.115,416.45 C338.760337,416.670001 339.277331,416.985331 339.666,417.396 C340.054669,417.806669 340.329666,418.30533 340.491,418.892 C340.652334,419.47867 340.733,420.13133 340.733,420.85 L340.733,427.67 C340.263664,427.772667 339.611004,427.893666 338.775,428.033 C337.938996,428.172334 336.927006,428.242 335.739,428.242 C334.990996,428.242 334.31267,428.176001 333.704,428.044 C333.09533,427.911999 332.571002,427.695668 332.131,427.395 C331.690998,427.094332 331.353668,426.702002 331.119,426.218 C330.884332,425.733998 330.767,425.140004 330.767,424.436 C330.767,423.76133 330.902665,423.189336 331.174,422.72 C331.445335,422.250664 331.808331,421.876668 332.263,421.598 C332.717669,421.319332 333.23833,421.117667 333.825,420.993 C334.41167,420.868333 335.02033,420.806 335.651,420.806 C336.076335,420.806 336.453998,420.824333 336.784,420.861 C337.114002,420.897667 337.381666,420.945333 337.587,421.004 L337.587,420.696 C337.587,420.138664 337.418335,419.691335 337.081,419.354 C336.743665,419.016665 336.157004,418.848 335.321,418.848 C334.763664,418.848 334.213669,418.888333 333.671,418.969 C333.128331,419.049667 332.659002,419.163333 332.263,419.31 L331.845,416.67 C332.035668,416.611333 332.273999,416.549 332.56,416.483 C332.846001,416.417 333.157665,416.358334 333.495,416.307 C333.832335,416.255666 334.187998,416.211667 334.562,416.175 C334.936002,416.138333 335.313665,416.12 335.695,416.12 Z M350.677,419.332 C350.383665,419.258666 350.039002,419.181667 349.643,419.101 C349.246998,419.020333 348.821669,418.98 348.367,418.98 C348.161666,418.98 347.916001,418.998333 347.63,419.035 C347.343999,419.071667 347.127667,419.112 346.981,419.156 L346.981,428 L343.703,428 L343.703,417.044 C344.28967,416.838666 344.982663,416.644334 345.782,416.461 C346.581337,416.277666 347.472328,416.186 348.455,416.186 C348.631001,416.186 348.843665,416.197 349.093,416.219 C349.342335,416.241 349.591665,416.270333 349.841,416.307 C350.090335,416.343667 350.339665,416.387666 350.589,416.439 C350.838335,416.490334 351.050999,416.552666 351.227,416.626 L350.677,419.332 Z M356.309,425.646 C356.910336,425.646 357.335665,425.587334 357.585,425.47 C357.834335,425.352666 357.959,425.125335 357.959,424.788 C357.959,424.523999 357.797668,424.293001 357.475,424.095 C357.152332,423.896999 356.661003,423.673335 356.001,423.424 C355.487664,423.233332 355.022002,423.035334 354.604,422.83 C354.185998,422.624666 353.830335,422.379001 353.537,422.093 C353.243665,421.806999 353.016334,421.466002 352.855,421.07 C352.693666,420.673998 352.613,420.197336 352.613,419.64 C352.613,418.554661 353.016329,417.69667 353.823,417.066 C354.629671,416.43533 355.736993,416.12 357.145,416.12 C357.849004,416.12 358.523663,416.182333 359.169,416.307 C359.814337,416.431667 360.327665,416.567333 360.709,416.714 L360.137,419.266 C359.755665,419.133999 359.341336,419.016667 358.894,418.914 C358.446664,418.811333 357.944336,418.76 357.387,418.76 C356.360328,418.76 355.847,419.045997 355.847,419.618 C355.847,419.750001 355.869,419.867333 355.913,419.97 C355.957,420.072667 356.044999,420.171666 356.177,420.267 C356.309001,420.362334 356.488666,420.464999 356.716,420.575 C356.943334,420.685001 357.232998,420.805999 357.585,420.938 C358.30367,421.202001 358.897664,421.462332 359.367,421.719 C359.836336,421.975668 360.206665,422.254332 360.478,422.555 C360.749335,422.855668 360.939999,423.189331 361.05,423.556 C361.160001,423.922668 361.215,424.347998 361.215,424.832 C361.215,425.976006 360.786004,426.84133 359.928,427.428 C359.069996,428.01467 357.856341,428.308 356.287,428.308 C355.260328,428.308 354.406003,428.220001 353.724,428.044 C353.041997,427.867999 352.569001,427.721334 352.305,427.604 L352.855,424.942 C353.412336,425.162001 353.98433,425.334333 354.571,425.459 C355.15767,425.583667 355.736997,425.646 356.309,425.646 Z M363.107,422.302 C363.107,421.275328 363.264665,420.377004 363.58,419.607 C363.895335,418.836996 364.309664,418.195336 364.823,417.682 C365.336336,417.168664 365.926663,416.780001 366.594,416.516 C367.261337,416.251999 367.946996,416.12 368.651,416.12 C370.293675,416.12 371.591662,416.622328 372.545,417.627 C373.498338,418.631672 373.975,420.109324 373.975,422.06 C373.975,422.250668 373.967667,422.459666 373.953,422.687 C373.938333,422.914334 373.923667,423.115999 373.909,423.292 L366.473,423.292 C366.546334,423.96667 366.861664,424.501998 367.419,424.898 C367.976336,425.294002 368.724329,425.492 369.663,425.492 C370.264336,425.492 370.854664,425.437001 371.434,425.327 C372.013336,425.216999 372.486332,425.081334 372.853,424.92 L373.293,427.582 C373.116999,427.67 372.882335,427.758 372.589,427.846 C372.295665,427.934 371.969335,428.011 371.61,428.077 C371.250665,428.143 370.865669,428.198 370.455,428.242 C370.044331,428.286 369.633669,428.308 369.223,428.308 C368.181661,428.308 367.276004,428.154002 366.506,427.846 C365.735996,427.537998 365.098003,427.116336 364.592,426.581 C364.085997,426.045664 363.712001,425.411337 363.47,424.678 C363.227999,423.944663 363.107,423.152671 363.107,422.302 Z M370.807,421.048 C370.792333,420.769332 370.744667,420.498001 370.664,420.234 C370.583333,419.969999 370.458668,419.735334 370.29,419.53 C370.121332,419.324666 369.908668,419.156001 369.652,419.024 C369.395332,418.891999 369.076335,418.826 368.695,418.826 C368.328331,418.826 368.013001,418.888333 367.749,419.013 C367.484999,419.137667 367.265001,419.302666 367.089,419.508 C366.912999,419.713334 366.777334,419.951665 366.682,420.223 C366.586666,420.494335 366.517,420.769332 366.473,421.048 L370.807,421.048 Z M383.479,419.332 C383.185665,419.258666 382.841002,419.181667 382.445,419.101 C382.048998,419.020333 381.623669,418.98 381.169,418.98 C380.963666,418.98 380.718001,418.998333 380.432,419.035 C380.145999,419.071667 379.929667,419.112 379.783,419.156 L379.783,428 L376.505,428 L376.505,417.044 C377.09167,416.838666 377.784663,416.644334 378.584,416.461 C379.383337,416.277666 380.274328,416.186 381.257,416.186 C381.433001,416.186 381.645665,416.197 381.895,416.219 C382.144335,416.241 382.393665,416.270333 382.643,416.307 C382.892335,416.343667 383.141665,416.387666 383.391,416.439 C383.640335,416.490334 383.852999,416.552666 384.029,416.626 L383.479,419.332 Z M402.597,412.754 L402.597,415.68 L397.999,415.68 L397.999,428 L394.567,428 L394.567,415.68 L389.969,415.68 L389.969,412.754 L402.597,412.754 Z M410.033,419.332 C409.739665,419.258666 409.395002,419.181667 408.999,419.101 C408.602998,419.020333 408.177669,418.98 407.723,418.98 C407.517666,418.98 407.272001,418.998333 406.986,419.035 C406.699999,419.071667 406.483667,419.112 406.337,419.156 L406.337,428 L403.059,428 L403.059,417.044 C403.64567,416.838666 404.338663,416.644334 405.138,416.461 C405.937337,416.277666 406.828328,416.186 407.811,416.186 C407.987001,416.186 408.199665,416.197 408.449,416.219 C408.698335,416.241 408.947665,416.270333 409.197,416.307 C409.446335,416.343667 409.695665,416.387666 409.945,416.439 C410.194335,416.490334 410.406999,416.552666 410.583,416.626 L410.033,419.332 Z M416.545,425.712 C416.867668,425.712 417.175665,425.704667 417.469,425.69 C417.762335,425.675333 417.996999,425.653333 418.173,425.624 L418.173,423.138 C418.040999,423.108667 417.843001,423.079333 417.579,423.05 C417.314999,423.020667 417.073001,423.006 416.853,423.006 C416.544998,423.006 416.255335,423.024333 415.984,423.061 C415.712665,423.097667 415.474334,423.167333 415.269,423.27 C415.063666,423.372667 414.902334,423.511999 414.785,423.688 C414.667666,423.864001 414.609,424.083999 414.609,424.348 C414.609,424.861336 414.781332,425.216999 415.126,425.415 C415.470668,425.613001 415.943664,425.712 416.545,425.712 Z M416.281,416.12 C417.249005,416.12 418.055663,416.229999 418.701,416.45 C419.346337,416.670001 419.863331,416.985331 420.252,417.396 C420.640669,417.806669 420.915666,418.30533 421.077,418.892 C421.238334,419.47867 421.319,420.13133 421.319,420.85 L421.319,427.67 C420.849664,427.772667 420.197004,427.893666 419.361,428.033 C418.524996,428.172334 417.513006,428.242 416.325,428.242 C415.576996,428.242 414.89867,428.176001 414.29,428.044 C413.68133,427.911999 413.157002,427.695668 412.717,427.395 C412.276998,427.094332 411.939668,426.702002 411.705,426.218 C411.470332,425.733998 411.353,425.140004 411.353,424.436 C411.353,423.76133 411.488665,423.189336 411.76,422.72 C412.031335,422.250664 412.394331,421.876668 412.849,421.598 C413.303669,421.319332 413.82433,421.117667 414.411,420.993 C414.99767,420.868333 415.60633,420.806 416.237,420.806 C416.662335,420.806 417.039998,420.824333 417.37,420.861 C417.700002,420.897667 417.967666,420.945333 418.173,421.004 L418.173,420.696 C418.173,420.138664 418.004335,419.691335 417.667,419.354 C417.329665,419.016665 416.743004,418.848 415.907,418.848 C415.349664,418.848 414.799669,418.888333 414.257,418.969 C413.714331,419.049667 413.245002,419.163333 412.849,419.31 L412.431,416.67 C412.621668,416.611333 412.859999,416.549 413.146,416.483 C413.432001,416.417 413.743665,416.358334 414.081,416.307 C414.418335,416.255666 414.773998,416.211667 415.148,416.175 C415.522002,416.138333 415.899665,416.12 416.281,416.12 Z M424.289,416.824 C424.846336,416.662666 425.564996,416.512334 426.445,416.373 C427.325004,416.233666 428.248995,416.164 429.217,416.164 C430.199672,416.164 431.01733,416.292332 431.67,416.549 C432.32267,416.805668 432.839665,417.168664 433.221,417.638 C433.602335,418.107336 433.873666,418.664663 434.035,419.31 C434.196334,419.955337 434.277,420.673996 434.277,421.466 L434.277,428 L430.999,428 L430.999,421.862 C430.999,420.805995 430.859668,420.058002 430.581,419.618 C430.302332,419.177998 429.78167,418.958 429.019,418.958 C428.784332,418.958 428.535001,418.969 428.271,418.991 C428.006999,419.013 427.772334,419.038667 427.567,419.068 L427.567,428 L424.289,428 L424.289,416.824 Z M440.569,425.646 C441.170336,425.646 441.595665,425.587334 441.845,425.47 C442.094335,425.352666 442.219,425.125335 442.219,424.788 C442.219,424.523999 442.057668,424.293001 441.735,424.095 C441.412332,423.896999 440.921003,423.673335 440.261,423.424 C439.747664,423.233332 439.282002,423.035334 438.864,422.83 C438.445998,422.624666 438.090335,422.379001 437.797,422.093 C437.503665,421.806999 437.276334,421.466002 437.115,421.07 C436.953666,420.673998 436.873,420.197336 436.873,419.64 C436.873,418.554661 437.276329,417.69667 438.083,417.066 C438.889671,416.43533 439.996993,416.12 441.405,416.12 C442.109004,416.12 442.783663,416.182333 443.429,416.307 C444.074337,416.431667 444.587665,416.567333 444.969,416.714 L444.397,419.266 C444.015665,419.133999 443.601336,419.016667 443.154,418.914 C442.706664,418.811333 442.204336,418.76 441.647,418.76 C440.620328,418.76 440.107,419.045997 440.107,419.618 C440.107,419.750001 440.129,419.867333 440.173,419.97 C440.217,420.072667 440.304999,420.171666 440.437,420.267 C440.569001,420.362334 440.748666,420.464999 440.976,420.575 C441.203334,420.685001 441.492998,420.805999 441.845,420.938 C442.56367,421.202001 443.157664,421.462332 443.627,421.719 C444.096336,421.975668 444.466665,422.254332 444.738,422.555 C445.009335,422.855668 445.199999,423.189331 445.31,423.556 C445.420001,423.922668 445.475,424.347998 445.475,424.832 C445.475,425.976006 445.046004,426.84133 444.188,427.428 C443.329996,428.01467 442.116341,428.308 440.547,428.308 C439.520328,428.308 438.666003,428.220001 437.984,428.044 C437.301997,427.867999 436.829001,427.721334 436.565,427.604 L437.115,424.942 C437.672336,425.162001 438.24433,425.334333 438.831,425.459 C439.41767,425.583667 439.996997,425.646 440.569,425.646 Z M452.933,410.928 C453.549003,410.928 454.113664,410.990333 454.627,411.115 C455.140336,411.239667 455.536332,411.360666 455.815,411.478 L455.177,414.096 C454.883665,413.963999 454.564668,413.865 454.22,413.799 C453.875332,413.733 453.556335,413.7 453.263,413.7 C452.866998,413.7 452.533335,413.754999 452.262,413.865 C451.990665,413.975001 451.778001,414.125332 451.624,414.316 C451.469999,414.506668 451.36,414.733999 451.294,414.998 C451.228,415.262001 451.195,415.547998 451.195,415.856 L451.195,416.428 L455.243,416.428 L455.243,419.156 L451.195,419.156 L451.195,428 L447.917,428 L447.917,415.812 C447.917,414.315993 448.338662,413.128004 449.182,412.248 C450.025338,411.367996 451.275658,410.928 452.933,410.928 Z M467.849,422.192 C467.849,423.101338 467.717001,423.933663 467.453,424.689 C467.188999,425.444337 466.807669,426.089664 466.309,426.625 C465.810331,427.160336 465.21267,427.574665 464.516,427.868 C463.81933,428.161335 463.038338,428.308 462.173,428.308 C461.322329,428.308 460.54867,428.161335 459.852,427.868 C459.15533,427.574665 458.557669,427.160336 458.059,426.625 C457.560331,426.089664 457.171668,425.444337 456.893,424.689 C456.614332,423.933663 456.475,423.101338 456.475,422.192 C456.475,421.282662 456.617999,420.454004 456.904,419.706 C457.190001,418.957996 457.585997,418.320003 458.092,417.792 C458.598003,417.263997 459.19933,416.853335 459.896,416.56 C460.59267,416.266665 461.351663,416.12 462.173,416.12 C463.009004,416.12 463.77533,416.266665 464.472,416.56 C465.16867,416.853335 465.766331,417.263997 466.265,417.792 C466.763669,418.320003 467.152332,418.957996 467.431,419.706 C467.709668,420.454004 467.849,421.282662 467.849,422.192 Z M464.505,422.192 C464.505,421.179995 464.303335,420.384336 463.9,419.805 C463.496665,419.225664 462.921004,418.936 462.173,418.936 C461.424996,418.936 460.845669,419.225664 460.435,419.805 C460.024331,420.384336 459.819,421.179995 459.819,422.192 C459.819,423.204005 460.024331,424.006997 460.435,424.601 C460.845669,425.195003 461.424996,425.492 462.173,425.492 C462.921004,425.492 463.496665,425.195003 463.9,424.601 C464.303335,424.006997 464.505,423.204005 464.505,422.192 Z M477.353,419.332 C477.059665,419.258666 476.715002,419.181667 476.319,419.101 C475.922998,419.020333 475.497669,418.98 475.043,418.98 C474.837666,418.98 474.592001,418.998333 474.306,419.035 C474.019999,419.071667 473.803667,419.112 473.657,419.156 L473.657,428 L470.379,428 L470.379,417.044 C470.96567,416.838666 471.658663,416.644334 472.458,416.461 C473.257337,416.277666 474.148328,416.186 475.131,416.186 C475.307001,416.186 475.519665,416.197 475.769,416.219 C476.018335,416.241 476.267665,416.270333 476.517,416.307 C476.766335,416.343667 477.015665,416.387666 477.265,416.439 C477.514335,416.490334 477.726999,416.552666 477.903,416.626 L477.353,419.332 Z M486.021,421.862 C486.021,420.805995 485.885335,420.058002 485.614,419.618 C485.342665,419.177998 484.877003,418.958 484.217,418.958 C484.011666,418.958 483.799001,418.969 483.579,418.991 C483.358999,419.013 483.146334,419.038667 482.941,419.068 L482.941,428 L479.663,428 L479.663,416.824 C479.941668,416.750666 480.267998,416.673667 480.642,416.593 C481.016002,416.512333 481.411998,416.439 481.83,416.373 C482.248002,416.307 482.676998,416.255667 483.117,416.219 C483.557002,416.182333 483.989665,416.164 484.415,416.164 C485.251004,416.164 485.929331,416.270332 486.45,416.483 C486.970669,416.695668 487.399665,416.948665 487.737,417.242 C488.206336,416.904665 488.74533,416.640668 489.354,416.45 C489.96267,416.259332 490.523664,416.164 491.037,416.164 C491.961005,416.164 492.719997,416.292332 493.314,416.549 C493.908003,416.805668 494.380998,417.168664 494.733,417.638 C495.085002,418.107336 495.326999,418.664663 495.459,419.31 C495.591001,419.955337 495.657,420.673996 495.657,421.466 L495.657,428 L492.379,428 L492.379,421.862 C492.379,420.805995 492.243335,420.058002 491.972,419.618 C491.700665,419.177998 491.235003,418.958 490.575,418.958 C490.398999,418.958 490.153335,419.002 489.838,419.09 C489.522665,419.178 489.262334,419.287999 489.057,419.42 C489.159667,419.757335 489.225667,420.112998 489.255,420.487 C489.284333,420.861002 489.299,421.260665 489.299,421.686 L489.299,428 L486.021,428 L486.021,421.862 Z" id="RegexParserTransform" fill="#001B3D" fill-rule="nonzero"></path>
            <g id="Transforms" transform="translate(242.721371, 134.000000)">
                <g id="Aggregate" transform="translate(28.278629, 204.000000)">
                    <polygon id="Fill-74" fill="#001B3D" points="1.13686838e-13 43.0202204 99.9238736 59.9540001 199.84544 43.0202204 99.9238736 26.0846919"></polygon>
                    <polygon id="Fill-79" fill="#001B3D" points="0.206736663 43.0174706 1.13686838e-13 17.4237163 99.7120786 0.476190476 199.84544 17.5940651 199.516959 42.9577539 99.7120786 59.9540001"></polygon>
                    <polygon id="Fill-75" fill="#001B3D" points="5.68434189e-14 17.823885 5.68434189e-14 43.1880044 97.3605992 59.9540001 97.3605992 34.8063684"></polygon>
                    <polygon id="Fill-76" fill="#001B3D" points="100.776761 34.6757847 199.84544 17.823885 199.36429 43.1020671 100.776761 59.9540001"></polygon>
                    <polygon id="Fill-77" fill="#001B3D" points="100.776761 0.476190476 199.84544 17.437889 199.364396 42.6063057 100.981171 25.8281337"></polygon>
                    <polygon id="Fill-78" fill="#001B3D" points="1.13686838e-13 17.2204794 1.13686838e-13 42.6063057 99.0686799 25.8051804 98.8616119 0.476190476"></polygon>
                    <polygon id="Fill-74-Copy" fill-opacity="0.33241368" fill="#FFFFFF" points="1.70530257e-13 17.3059347 99.9238736 34.2397144 199.84544 17.3059347 99.9238736 0.370406148"></polygon>
                </g>
                <g id="Sample" transform="translate(28.278629, 138.000000)">
                    <polygon id="Fill-74" fill="#10E7FF" points="1.13686838e-13 51.6242645 99.9238736 71.9448002 199.84544 51.6242645 99.9238736 31.3016302"></polygon>
                    <polygon id="Fill-79" fill="#10E7FF" points="0.206736663 51.6209648 1.13686838e-13 20.9084596 99.7120786 0.571428571 199.84544 21.1128781 199.516959 51.5493047 99.7120786 71.9448002"></polygon>
                    <polygon id="Fill-75" fill="#10E7FF" points="5.68434189e-14 21.388662 5.68434189e-14 51.8256053 97.3605992 71.9448002 97.3605992 41.7676421"></polygon>
                    <polygon id="Fill-76" fill="#10E7FF" points="100.776761 41.6109417 199.84544 21.388662 199.36429 51.7224806 100.776761 71.9448002"></polygon>
                    <polygon id="Fill-77" fill="#10E7FF" points="100.776761 0.571428571 199.84544 20.9254668 199.364396 51.1275668 100.981171 30.9937605"></polygon>
                    <polygon id="Fill-78" fill="#10E7FF" points="1.13686838e-13 20.6645753 1.13686838e-13 51.1275668 99.0686799 30.9662165 98.8616119 0.571428571"></polygon>
                    <polygon id="Fill-74-Copy" fill-opacity="0.33241368" fill="#FFFFFF" points="1.70530257e-13 20.7671217 99.9238736 41.0876573 199.84544 20.7671217 99.9238736 0.444487378"></polygon>
                </g>
                <g id="Parse" transform="translate(28.278629, 74.000000)">
                    <polygon id="Fill-74" fill="#001B3D" points="1.13686838e-13 52.4612587 99.9238736 72.9443586 199.84544 52.4612587 99.9238736 31.9760433"></polygon>
                    <polygon id="Fill-79" fill="#001B3D" points="0.206736663 52.4579325 1.13686838e-13 21.4997273 99.7120786 1 199.84544 21.7057811 199.516959 52.3856991 99.7120786 72.9443586"></polygon>
                    <polygon id="Fill-75" fill="#001B3D" points="5.68434189e-14 21.9837713 5.68434189e-14 52.6642102 97.3605992 72.9443586 97.3605992 42.5257832"></polygon>
                    <polygon id="Fill-76" fill="#001B3D" points="100.776761 42.3678292 199.84544 21.9837713 199.36429 52.5602604 100.776761 72.9443586"></polygon>
                    <polygon id="Fill-77" fill="#001B3D" points="100.776761 1 199.84544 21.5168705 199.364396 51.9605873 100.981171 31.6657106"></polygon>
                    <polygon id="Fill-78" fill="#001B3D" points="1.13686838e-13 21.2538919 1.13686838e-13 51.9605873 99.0686799 31.6379463 98.8616119 1"></polygon>
                    <polygon id="Fill-74-Copy" fill-opacity="0.33241368" fill="#FFFFFF" points="1.70530257e-13 21.3572587 99.9238736 41.8403586 199.84544 21.3572587 99.9238736 0.872043277"></polygon>
                </g>
                <path id="Line" d="M13.379204,161.590782 C9.79299921,155.128919 8,147.926538 8,140 C8,127.153085 12.3775094,116.876139 21.1211537,109.246524 L21.8746297,108.589049 L23.1895806,110.096 L22.4361047,110.753476 C14.1415768,117.991197 10,127.714251 10,140 C10,147.470383 11.6548675,154.239403 14.964406,160.322645 L19.4991214,156.694941 L22.7786292,172 L8.56687739,165.440571 L13.379204,161.590782 Z" fill="url(#linearGradient-1)" fill-rule="nonzero"></path>
                <path id="Line" d="M13.3141739,225.644231 C3.76775209,211.063968 -1,193.174861 -1,172 C-1,145.12301 6.34863133,124.202725 21.0670751,109.297369 L21.7697064,108.585815 L23.1928146,109.991077 L22.4901833,110.702631 C8.17045481,125.204209 1,145.617256 1,172 C1,192.72483 5.63088086,210.179546 14.8818472,224.386978 L19.4804629,220.698951 L22.7786292,236 L8.55889027,229.457904 L13.3141739,225.644231 Z" fill="#001B3D" fill-rule="nonzero"></path>
                <path d="M81.7326292,2.754 L81.7326292,5.68 L77.1346292,5.68 L77.1346292,18 L73.7026292,18 L73.7026292,5.68 L69.1046292,5.68 L69.1046292,2.754 L81.7326292,2.754 Z M89.1686292,9.332 C88.8752944,9.2586663 88.5306312,9.18166707 88.1346292,9.101 C87.7386272,9.02033293 87.3132982,8.98 86.8586292,8.98 C86.6532949,8.98 86.4076306,8.99833315 86.1216292,9.035 C85.8356278,9.07166685 85.6192966,9.11199978 85.4726292,9.156 L85.4726292,18 L82.1946292,18 L82.1946292,7.044 C82.7812988,6.83866564 83.4742919,6.64433425 84.2736292,6.461 C85.0729665,6.27766575 85.9639576,6.186 86.9466292,6.186 C87.1226301,6.186 87.3352946,6.19699989 87.5846292,6.219 C87.8339638,6.24100011 88.0832946,6.27033315 88.3326292,6.307 C88.5819638,6.34366685 88.8312946,6.38766641 89.0806292,6.439 C89.3299638,6.49033359 89.5426283,6.5526663 89.7186292,6.626 L89.1686292,9.332 Z M95.6806292,15.712 C96.0032975,15.712 96.3112944,15.7046667 96.6046292,15.69 C96.897964,15.6753333 97.1326283,15.6533335 97.3086292,15.624 L97.3086292,13.138 C97.1766286,13.1086665 96.9786305,13.0793335 96.7146292,13.05 C96.4506279,13.0206665 96.2086303,13.006 95.9886292,13.006 C95.6806277,13.006 95.3909639,13.0243331 95.1196292,13.061 C94.8482945,13.0976668 94.6099636,13.1673328 94.4046292,13.27 C94.1992949,13.3726672 94.0379631,13.5119991 93.9206292,13.688 C93.8032953,13.8640009 93.7446292,14.0839987 93.7446292,14.348 C93.7446292,14.8613359 93.9169608,15.216999 94.2616292,15.415 C94.6062976,15.613001 95.0792929,15.712 95.6806292,15.712 Z M95.4166292,6.12 C96.3846341,6.12 97.1912927,6.2299989 97.8366292,6.45 C98.4819658,6.6700011 98.9989606,6.98533128 99.3876292,7.396 C99.7762978,7.80666872 100.051295,8.3053304 100.212629,8.892 C100.373963,9.4786696 100.454629,10.1313297 100.454629,10.85 L100.454629,17.67 C99.9852935,17.7726672 99.3326334,17.893666 98.4966292,18.033 C97.660625,18.172334 96.6486352,18.242 95.4606292,18.242 C94.7126255,18.242 94.0342989,18.1760007 93.4256292,18.044 C92.8169595,17.9119993 92.2926314,17.6956682 91.8526292,17.395 C91.412627,17.0943318 91.0752971,16.7020024 90.8406292,16.218 C90.6059614,15.7339976 90.4886292,15.1400035 90.4886292,14.436 C90.4886292,13.76133 90.6242945,13.1893357 90.8956292,12.72 C91.1669639,12.2506643 91.5299603,11.8766681 91.9846292,11.598 C92.4392982,11.3193319 92.9599596,11.1176673 93.5466292,10.993 C94.1332988,10.8683327 94.7419594,10.806 95.3726292,10.806 C95.7979647,10.806 96.1756276,10.8243331 96.5056292,10.861 C96.8356309,10.8976668 97.1032949,10.945333 97.3086292,11.004 L97.3086292,10.696 C97.3086292,10.1386639 97.1399642,9.69133502 96.8026292,9.354 C96.4652942,9.01666498 95.8786334,8.848 95.0426292,8.848 C94.4852931,8.848 93.9352986,8.88833293 93.3926292,8.969 C92.8499598,9.04966707 92.3806312,9.1633326 91.9846292,9.31 L91.5666292,6.67 C91.7572968,6.61133304 91.9956278,6.54900033 92.2816292,6.483 C92.5676306,6.41699967 92.8792942,6.35833359 93.2166292,6.307 C93.5539642,6.25566641 93.9096273,6.21166685 94.2836292,6.175 C94.6576311,6.13833315 95.035294,6.12 95.4166292,6.12 Z M103.424629,6.824 C103.981965,6.66266586 104.700625,6.51233403 105.580629,6.373 C106.460634,6.23366597 107.384624,6.164 108.352629,6.164 C109.335301,6.164 110.152959,6.29233205 110.805629,6.549 C111.458299,6.80566795 111.975294,7.16866432 112.356629,7.638 C112.737964,8.10733568 113.009295,8.66466344 113.170629,9.31 C113.331963,9.95533656 113.412629,10.673996 113.412629,11.466 L113.412629,18 L110.134629,18 L110.134629,11.862 C110.134629,10.8059947 109.995297,10.0580022 109.716629,9.618 C109.437961,9.1779978 108.9173,8.958 108.154629,8.958 C107.919961,8.958 107.670631,8.96899989 107.406629,8.991 C107.142628,9.01300011 106.907964,9.03866652 106.702629,9.068 L106.702629,18 L103.424629,18 L103.424629,6.824 Z M119.704629,15.646 C120.305966,15.646 120.731295,15.5873339 120.980629,15.47 C121.229964,15.3526661 121.354629,15.125335 121.354629,14.788 C121.354629,14.5239987 121.193297,14.293001 120.870629,14.095 C120.547961,13.896999 120.056633,13.6733346 119.396629,13.424 C118.883293,13.2333324 118.417631,13.0353344 117.999629,12.83 C117.581627,12.6246656 117.225964,12.3790014 116.932629,12.093 C116.639294,11.8069986 116.411963,11.466002 116.250629,11.07 C116.089295,10.673998 116.008629,10.1973361 116.008629,9.64 C116.008629,8.55466124 116.411959,7.69666982 117.218629,7.066 C118.0253,6.43533018 119.132622,6.12 120.540629,6.12 C121.244633,6.12 121.919293,6.18233271 122.564629,6.307 C123.209966,6.43166729 123.723294,6.5673326 124.104629,6.714 L123.532629,9.266 C123.151294,9.13399934 122.736965,9.01666718 122.289629,8.914 C121.842294,8.81133282 121.339965,8.76 120.782629,8.76 C119.755957,8.76 119.242629,9.04599714 119.242629,9.618 C119.242629,9.75000066 119.264629,9.86733282 119.308629,9.97 C119.352629,10.0726672 119.440629,10.1716662 119.572629,10.267 C119.70463,10.3623338 119.884295,10.4649994 120.111629,10.575 C120.338964,10.6850005 120.628627,10.8059993 120.980629,10.938 C121.699299,11.2020013 122.293294,11.462332 122.762629,11.719 C123.231965,11.9756679 123.602295,12.2543318 123.873629,12.555 C124.144964,12.8556682 124.335629,13.1893315 124.445629,13.556 C124.55563,13.9226685 124.610629,14.3479976 124.610629,14.832 C124.610629,15.9760057 124.181634,16.8413304 123.323629,17.428 C122.465625,18.0146696 121.25197,18.308 119.682629,18.308 C118.655957,18.308 117.801633,18.2200009 117.119629,18.044 C116.437626,17.8679991 115.964631,17.7213339 115.700629,17.604 L116.250629,14.942 C116.807965,15.1620011 117.37996,15.3343327 117.966629,15.459 C118.553299,15.5836673 119.132626,15.646 119.704629,15.646 Z M132.068629,0.928 C132.684632,0.928 133.249293,0.99033271 133.762629,1.115 C134.275965,1.23966729 134.671961,1.36066608 134.950629,1.478 L134.312629,4.096 C134.019294,3.96399934 133.700298,3.86500033 133.355629,3.799 C133.010961,3.73299967 132.691964,3.7 132.398629,3.7 C132.002627,3.7 131.668964,3.75499945 131.397629,3.865 C131.126295,3.97500055 130.91363,4.12533238 130.759629,4.316 C130.605628,4.50666762 130.49563,4.73399868 130.429629,4.998 C130.363629,5.26200132 130.330629,5.54799846 130.330629,5.856 L130.330629,6.428 L134.378629,6.428 L134.378629,9.156 L130.330629,9.156 L130.330629,18 L127.052629,18 L127.052629,5.812 C127.052629,4.31599252 127.474292,3.1280044 128.317629,2.248 C129.160967,1.3679956 130.411288,0.928 132.068629,0.928 Z M146.984629,12.192 C146.984629,13.1013379 146.852631,13.9336629 146.588629,14.689 C146.324628,15.4443371 145.943298,16.089664 145.444629,16.625 C144.94596,17.160336 144.348299,17.5746652 143.651629,17.868 C142.954959,18.1613348 142.173967,18.308 141.308629,18.308 C140.457958,18.308 139.684299,18.1613348 138.987629,17.868 C138.290959,17.5746652 137.693298,17.160336 137.194629,16.625 C136.69596,16.089664 136.307297,15.4443371 136.028629,14.689 C135.749961,13.9336629 135.610629,13.1013379 135.610629,12.192 C135.610629,11.2826621 135.753628,10.4540037 136.039629,9.706 C136.325631,8.95799626 136.721627,8.32000264 137.227629,7.792 C137.733632,7.26399736 138.334959,6.8533348 139.031629,6.56 C139.728299,6.2666652 140.487292,6.12 141.308629,6.12 C142.144633,6.12 142.910959,6.2666652 143.607629,6.56 C144.304299,6.8533348 144.90196,7.26399736 145.400629,7.792 C145.899298,8.32000264 146.287961,8.95799626 146.566629,9.706 C146.845297,10.4540037 146.984629,11.2826621 146.984629,12.192 Z M143.640629,12.192 C143.640629,11.1799949 143.438965,10.3843362 143.035629,9.805 C142.632294,9.22566377 142.056633,8.936 141.308629,8.936 C140.560625,8.936 139.981298,9.22566377 139.570629,9.805 C139.15996,10.3843362 138.954629,11.1799949 138.954629,12.192 C138.954629,13.2040051 139.15996,14.006997 139.570629,14.601 C139.981298,15.195003 140.560625,15.492 141.308629,15.492 C142.056633,15.492 142.632294,15.195003 143.035629,14.601 C143.438965,14.006997 143.640629,13.2040051 143.640629,12.192 Z M156.488629,9.332 C156.195294,9.2586663 155.850631,9.18166707 155.454629,9.101 C155.058627,9.02033293 154.633298,8.98 154.178629,8.98 C153.973295,8.98 153.727631,8.99833315 153.441629,9.035 C153.155628,9.07166685 152.939297,9.11199978 152.792629,9.156 L152.792629,18 L149.514629,18 L149.514629,7.044 C150.101299,6.83866564 150.794292,6.64433425 151.593629,6.461 C152.392967,6.27766575 153.283958,6.186 154.266629,6.186 C154.44263,6.186 154.655295,6.19699989 154.904629,6.219 C155.153964,6.24100011 155.403295,6.27033315 155.652629,6.307 C155.901964,6.34366685 156.151295,6.38766641 156.400629,6.439 C156.649964,6.49033359 156.862628,6.5526663 157.038629,6.626 L156.488629,9.332 Z M165.156629,11.862 C165.156629,10.8059947 165.020964,10.0580022 164.749629,9.618 C164.478295,9.1779978 164.012633,8.958 163.352629,8.958 C163.147295,8.958 162.93463,8.96899989 162.714629,8.991 C162.494628,9.01300011 162.281964,9.03866652 162.076629,9.068 L162.076629,18 L158.798629,18 L158.798629,6.824 C159.077297,6.7506663 159.403627,6.67366707 159.777629,6.593 C160.151631,6.51233293 160.547627,6.43900033 160.965629,6.373 C161.383631,6.30699967 161.812627,6.25566685 162.252629,6.219 C162.692631,6.18233315 163.125294,6.164 163.550629,6.164 C164.386633,6.164 165.06496,6.27033227 165.585629,6.483 C166.106298,6.69566773 166.535294,6.9486652 166.872629,7.242 C167.341965,6.90466498 167.88096,6.64066762 168.489629,6.45 C169.098299,6.25933238 169.659293,6.164 170.172629,6.164 C171.096634,6.164 171.855626,6.29233205 172.449629,6.549 C173.043632,6.80566795 173.516627,7.16866432 173.868629,7.638 C174.220631,8.10733568 174.462629,8.66466344 174.594629,9.31 C174.72663,9.95533656 174.792629,10.673996 174.792629,11.466 L174.792629,18 L171.514629,18 L171.514629,11.862 C171.514629,10.8059947 171.378964,10.0580022 171.107629,9.618 C170.836295,9.1779978 170.370633,8.958 169.710629,8.958 C169.534628,8.958 169.288964,9.00199956 168.973629,9.09 C168.658294,9.17800044 168.397964,9.28799934 168.192629,9.42 C168.295296,9.75733502 168.361296,10.1129981 168.390629,10.487 C168.419963,10.8610019 168.434629,11.2606645 168.434629,11.686 L168.434629,18 L165.156629,18 L165.156629,11.862 Z M181.084629,15.646 C181.685966,15.646 182.111295,15.5873339 182.360629,15.47 C182.609964,15.3526661 182.734629,15.125335 182.734629,14.788 C182.734629,14.5239987 182.573297,14.293001 182.250629,14.095 C181.927961,13.896999 181.436633,13.6733346 180.776629,13.424 C180.263293,13.2333324 179.797631,13.0353344 179.379629,12.83 C178.961627,12.6246656 178.605964,12.3790014 178.312629,12.093 C178.019294,11.8069986 177.791963,11.466002 177.630629,11.07 C177.469295,10.673998 177.388629,10.1973361 177.388629,9.64 C177.388629,8.55466124 177.791959,7.69666982 178.598629,7.066 C179.4053,6.43533018 180.512622,6.12 181.920629,6.12 C182.624633,6.12 183.299293,6.18233271 183.944629,6.307 C184.589966,6.43166729 185.103294,6.5673326 185.484629,6.714 L184.912629,9.266 C184.531294,9.13399934 184.116965,9.01666718 183.669629,8.914 C183.222294,8.81133282 182.719965,8.76 182.162629,8.76 C181.135957,8.76 180.622629,9.04599714 180.622629,9.618 C180.622629,9.75000066 180.644629,9.86733282 180.688629,9.97 C180.732629,10.0726672 180.820629,10.1716662 180.952629,10.267 C181.08463,10.3623338 181.264295,10.4649994 181.491629,10.575 C181.718964,10.6850005 182.008627,10.8059993 182.360629,10.938 C183.079299,11.2020013 183.673294,11.462332 184.142629,11.719 C184.611965,11.9756679 184.982295,12.2543318 185.253629,12.555 C185.524964,12.8556682 185.715629,13.1893315 185.825629,13.556 C185.93563,13.9226685 185.990629,14.3479976 185.990629,14.832 C185.990629,15.9760057 185.561634,16.8413304 184.703629,17.428 C183.845625,18.0146696 182.63197,18.308 181.062629,18.308 C180.035957,18.308 179.181633,18.2200009 178.499629,18.044 C177.817626,17.8679991 177.344631,17.7213339 177.080629,17.604 L177.630629,14.942 C178.187965,15.1620011 178.75996,15.3343327 179.346629,15.459 C179.933299,15.5836673 180.512626,15.646 181.084629,15.646 Z" fill="#001B3D" fill-rule="nonzero"></path>
            </g>
            <g id="Group-16" transform="translate(351.000000, 167.000000)">
                <g id="Group-15" transform="translate(8.337072, 0.000000)">
                    <polygon id="Triangle" fill="#001B3D" transform="translate(18.869266, 17.145933) scale(1, -1) translate(-18.869266, -17.145933) " points="18.8692664 4.55040597 33.9838989 29.7414602 3.75463383 29.7414602"></polygon>
                    <polygon id="Triangle" fill="#FFFFFF" transform="translate(15.289485, 12.664577) scale(1, -1) translate(-15.289485, -12.664577) " points="15.289485 0.0690500056 30.4041175 25.2601043 0.174852433 25.2601043"></polygon>
                </g>
                <g id="Symbol" transform="translate(0.000000, 3.967034)">
                    <polygon id="Triangle" fill="#001B3D" transform="translate(15.035082, 13.112607) scale(1, -1) translate(-15.035082, -13.112607) " points="15.0350819 0.583371783 30.0701637 25.6418415 0 25.6418415"></polygon>
                    <mask id="mask-3" fill="white">
                        <use xlink:href="#path-2"></use>
                    </mask>
                    <use id="Mask" fill="#FFFFFF" transform="translate(15.188880, 6.430348) scale(1, -1) translate(-15.188880, -6.430348) " xlink:href="#path-2"></use>
                </g>
            </g>
            <g id="Source-Arrows" transform="translate(104.500000, 230.638384)" fill-rule="nonzero">
                <path id="Line-4" d="M133.231475,1.3572192 L79.0095209,1.87104747 L78.9905689,-0.128862732 L133.212523,-0.642691001 L133.155668,-6.64242161 L147.221371,0.224600628 L133.288331,7.35694982 L133.231475,1.3572192 Z" fill="#001B3D"></path>
                <path id="Line-5" d="M132.966167,1.03233353 C108.504376,1.65531525 90.3526989,11.2782408 78.3993935,29.9305268 C74.5373258,35.9570097 72.1363463,39.7121723 70.3695633,42.482819 C70.0373237,43.0039276 70.0373237,43.0039276 69.845901,43.3041043 C69.7729377,43.4184094 69.7729377,43.4184094 69.7273462,43.4895749 C69.7014243,43.531451 69.7014243,43.531451 69.6187869,43.6451529 C69.6087059,43.6573233 69.6087059,43.6573233 69.5458669,43.724737 L69.4168931,43.8314804 L69.3240426,43.815818 C68.2165116,45.4355163 66.2669548,48.3450975 63.3331136,52.764216 C52.470948,69.1254278 31.2128344,73.4282409 -0.23475072,65.833672 L-1.20680632,65.5989213 L-0.737304886,63.6548101 L0.23475072,63.8895608 C30.9549174,71.3084586 51.3634704,67.1776035 61.6668864,51.6580122 C65.4557398,45.9510256 67.6069973,42.7554536 68.4415074,41.5778706 C68.6285185,41.313978 68.7507489,41.1490819 68.8325537,41.0526347 C68.8749631,41.002864 68.8749631,41.002864 68.9579373,40.9220972 C68.9882688,40.8946364 69.0038335,40.8805448 69.03146,40.861551 C70.7650181,38.144249 73.1004443,34.4924437 76.7155003,28.8514049 C89.0615288,9.5863024 107.879043,-0.364191256 133.055643,-0.970486784 L133.326364,-7.03026802 L147,0.587584848 L132.701536,6.95578182 L132.966167,1.03233353 Z M70.354781,42.3499259 L70.3551711,42.3497278 C70.3561209,42.3485736 70.3568782,42.3475575 70.3577993,42.3463217 C70.3568542,42.347436 70.3558479,42.3486375 70.354781,42.3499259 Z" fill="url(#linearGradient-4)"></path>
                <path id="Line-6" d="M132.986475,1.19575249 C112.502722,2.15780217 96.5785493,8.52312923 85.1610844,20.2781533 C71.2435841,34.6071267 63.6740952,56.9688315 62.4992556,87.4001939 L62.4606781,88.3994495 L60.4621669,88.3222945 L60.5007444,87.3230389 C61.6930285,56.4398177 69.419375,33.6147256 83.7264219,18.8846887 C95.5447403,6.71695992 111.991893,0.157382433 133.014686,-0.807707284 L133.099945,-6.86262491 L147,0.333795697 L132.90283,7.13598737 L132.986475,1.19575249 Z" fill="#001B3D"></path>
            </g>
            <g id="Sources" transform="translate(18.000000, 136.000000)">
                <g id="Source-2" transform="translate(0.000000, 122.000000)">
                    <circle id="Oval-Copy-2" fill="#001B3D" cx="37.5" cy="37.5" r="37.5"></circle>
                    <path d="M13.71875,36.0859375 C13.71875,34.4921875 15.09375,33.4453125 17.2265625,33.4453125 C19.375,33.4453125 20.703125,34.546875 20.75,36.1875 L18.6484375,36.1875 C18.578125,35.5078125 18.0703125,35.046875 17.2265625,35.046875 C16.4375,35.046875 15.9140625,35.40625 15.9140625,35.9609375 C15.9140625,36.390625 16.2265625,36.6796875 17.0703125,36.859375 L18.5,37.1640625 C20.25,37.53125 20.96875,38.21875 20.96875,39.4453125 C20.96875,41.09375 19.4609375,42.1796875 17.3046875,42.1796875 C14.9921875,42.1796875 13.65625,41.1015625 13.5078125,39.453125 L15.734375,39.453125 C15.875,40.1875 16.3984375,40.578125 17.3046875,40.578125 C18.1640625,40.578125 18.6953125,40.2265625 18.6953125,39.6796875 C18.6953125,39.234375 18.40625,38.984375 17.5859375,38.796875 L16.15625,38.5 C14.5390625,38.15625 13.71875,37.34375 13.71875,36.0859375 Z M25.9375,42.1796875 C23.40625,42.1796875 21.7890625,40.5546875 21.7890625,37.8046875 C21.7890625,35.09375 23.4296875,33.4453125 25.9375,33.4453125 C28.4453125,33.4453125 30.0859375,35.0859375 30.0859375,37.8046875 C30.0859375,40.5625 28.46875,42.1796875 25.9375,42.1796875 Z M25.9375,40.4375 C27.0546875,40.4375 27.765625,39.4921875 27.765625,37.8125 C27.765625,36.1484375 27.046875,35.1875 25.9375,35.1875 C24.828125,35.1875 24.1015625,36.1484375 24.1015625,37.8125 C24.1015625,39.4921875 24.8125,40.4375 25.9375,40.4375 Z M38.9921875,33.625 L38.9921875,42 L36.7890625,42 L36.7890625,40.4921875 L36.7421875,40.4921875 C36.328125,41.546875 35.5,42.15625 34.234375,42.15625 C32.421875,42.15625 31.21875,40.9765625 31.21875,39.0234375 L31.21875,33.625 L33.5,33.625 L33.5,38.546875 C33.5,39.6640625 34.0546875,40.2578125 35.0625,40.2578125 C36.078125,40.2578125 36.7109375,39.53125 36.7109375,38.421875 L36.7109375,33.625 L38.9921875,33.625 Z M40.4765625,42 L40.4765625,33.625 L42.6796875,33.625 L42.6796875,35.1328125 L42.7265625,35.1328125 C43.0234375,34.0703125 43.734375,33.4921875 44.71875,33.4921875 C44.984375,33.4921875 45.2109375,33.53125 45.3671875,33.578125 L45.3671875,35.5859375 C45.1796875,35.5078125 44.8671875,35.453125 44.5390625,35.453125 C43.4140625,35.453125 42.7578125,36.140625 42.7578125,37.3203125 L42.7578125,42 L40.4765625,42 Z M53.6328125,36.7421875 L51.515625,36.7421875 C51.3828125,35.859375 50.796875,35.234375 49.859375,35.234375 C48.734375,35.234375 48.03125,36.1875 48.03125,37.8046875 C48.03125,39.453125 48.734375,40.390625 49.8671875,40.390625 C50.78125,40.390625 51.375,39.84375 51.515625,38.9296875 L53.640625,38.9296875 C53.5234375,40.90625 52.046875,42.1796875 49.84375,42.1796875 C47.3203125,42.1796875 45.71875,40.5390625 45.71875,37.8046875 C45.71875,35.1171875 47.3203125,33.4453125 49.828125,33.4453125 C52.09375,33.4453125 53.53125,34.84375 53.6328125,36.7421875 Z M58.5,35.1328125 C57.5,35.1328125 56.78125,35.890625 56.703125,36.9375 L60.2578125,36.9375 C60.2109375,35.8671875 59.515625,35.1328125 58.5,35.1328125 Z M60.2890625,39.4375 L62.3828125,39.4375 C62.1328125,41.078125 60.6328125,42.1796875 58.5625,42.1796875 C55.984375,42.1796875 54.4375,40.53125 54.4375,37.8515625 C54.4375,35.1796875 56,33.4453125 58.4765625,33.4453125 C60.9140625,33.4453125 62.453125,35.09375 62.453125,37.640625 L62.453125,38.3359375 L56.6796875,38.3359375 L56.6796875,38.4765625 C56.6796875,39.671875 57.4375,40.4921875 58.6015625,40.4921875 C59.4375,40.4921875 60.078125,40.078125 60.2890625,39.4375 Z" id="source" fill="#FFFFFF" fill-rule="nonzero"></path>
                </g>
                <g id="Source-3" transform="translate(82.000000, 182.000000)">
                    <circle id="Oval-Copy-2" fill="#001B3D" cx="37.5" cy="37.5" r="37.5"></circle>
                    <path d="M13.71875,36.0859375 C13.71875,34.4921875 15.09375,33.4453125 17.2265625,33.4453125 C19.375,33.4453125 20.703125,34.546875 20.75,36.1875 L18.6484375,36.1875 C18.578125,35.5078125 18.0703125,35.046875 17.2265625,35.046875 C16.4375,35.046875 15.9140625,35.40625 15.9140625,35.9609375 C15.9140625,36.390625 16.2265625,36.6796875 17.0703125,36.859375 L18.5,37.1640625 C20.25,37.53125 20.96875,38.21875 20.96875,39.4453125 C20.96875,41.09375 19.4609375,42.1796875 17.3046875,42.1796875 C14.9921875,42.1796875 13.65625,41.1015625 13.5078125,39.453125 L15.734375,39.453125 C15.875,40.1875 16.3984375,40.578125 17.3046875,40.578125 C18.1640625,40.578125 18.6953125,40.2265625 18.6953125,39.6796875 C18.6953125,39.234375 18.40625,38.984375 17.5859375,38.796875 L16.15625,38.5 C14.5390625,38.15625 13.71875,37.34375 13.71875,36.0859375 Z M25.9375,42.1796875 C23.40625,42.1796875 21.7890625,40.5546875 21.7890625,37.8046875 C21.7890625,35.09375 23.4296875,33.4453125 25.9375,33.4453125 C28.4453125,33.4453125 30.0859375,35.0859375 30.0859375,37.8046875 C30.0859375,40.5625 28.46875,42.1796875 25.9375,42.1796875 Z M25.9375,40.4375 C27.0546875,40.4375 27.765625,39.4921875 27.765625,37.8125 C27.765625,36.1484375 27.046875,35.1875 25.9375,35.1875 C24.828125,35.1875 24.1015625,36.1484375 24.1015625,37.8125 C24.1015625,39.4921875 24.8125,40.4375 25.9375,40.4375 Z M38.9921875,33.625 L38.9921875,42 L36.7890625,42 L36.7890625,40.4921875 L36.7421875,40.4921875 C36.328125,41.546875 35.5,42.15625 34.234375,42.15625 C32.421875,42.15625 31.21875,40.9765625 31.21875,39.0234375 L31.21875,33.625 L33.5,33.625 L33.5,38.546875 C33.5,39.6640625 34.0546875,40.2578125 35.0625,40.2578125 C36.078125,40.2578125 36.7109375,39.53125 36.7109375,38.421875 L36.7109375,33.625 L38.9921875,33.625 Z M40.4765625,42 L40.4765625,33.625 L42.6796875,33.625 L42.6796875,35.1328125 L42.7265625,35.1328125 C43.0234375,34.0703125 43.734375,33.4921875 44.71875,33.4921875 C44.984375,33.4921875 45.2109375,33.53125 45.3671875,33.578125 L45.3671875,35.5859375 C45.1796875,35.5078125 44.8671875,35.453125 44.5390625,35.453125 C43.4140625,35.453125 42.7578125,36.140625 42.7578125,37.3203125 L42.7578125,42 L40.4765625,42 Z M53.6328125,36.7421875 L51.515625,36.7421875 C51.3828125,35.859375 50.796875,35.234375 49.859375,35.234375 C48.734375,35.234375 48.03125,36.1875 48.03125,37.8046875 C48.03125,39.453125 48.734375,40.390625 49.8671875,40.390625 C50.78125,40.390625 51.375,39.84375 51.515625,38.9296875 L53.640625,38.9296875 C53.5234375,40.90625 52.046875,42.1796875 49.84375,42.1796875 C47.3203125,42.1796875 45.71875,40.5390625 45.71875,37.8046875 C45.71875,35.1171875 47.3203125,33.4453125 49.828125,33.4453125 C52.09375,33.4453125 53.53125,34.84375 53.6328125,36.7421875 Z M58.5,35.1328125 C57.5,35.1328125 56.78125,35.890625 56.703125,36.9375 L60.2578125,36.9375 C60.2109375,35.8671875 59.515625,35.1328125 58.5,35.1328125 Z M60.2890625,39.4375 L62.3828125,39.4375 C62.1328125,41.078125 60.6328125,42.1796875 58.5625,42.1796875 C55.984375,42.1796875 54.4375,40.53125 54.4375,37.8515625 C54.4375,35.1796875 56,33.4453125 58.4765625,33.4453125 C60.9140625,33.4453125 62.453125,35.09375 62.453125,37.640625 L62.453125,38.3359375 L56.6796875,38.3359375 L56.6796875,38.4765625 C56.6796875,39.671875 57.4375,40.4921875 58.6015625,40.4921875 C59.4375,40.4921875 60.078125,40.078125 60.2890625,39.4375 Z" id="source" fill="#FFFFFF" fill-rule="nonzero"></path>
                </g>
                <g id="Source-1" transform="translate(82.000000, 56.000000)">
                    <circle id="Oval-Copy-2" fill="#001B3D" cx="37.5" cy="37.5" r="37.5"></circle>
                    <path d="M13.71875,35.0859375 C13.71875,33.4921875 15.09375,32.4453125 17.2265625,32.4453125 C19.375,32.4453125 20.703125,33.546875 20.75,35.1875 L18.6484375,35.1875 C18.578125,34.5078125 18.0703125,34.046875 17.2265625,34.046875 C16.4375,34.046875 15.9140625,34.40625 15.9140625,34.9609375 C15.9140625,35.390625 16.2265625,35.6796875 17.0703125,35.859375 L18.5,36.1640625 C20.25,36.53125 20.96875,37.21875 20.96875,38.4453125 C20.96875,40.09375 19.4609375,41.1796875 17.3046875,41.1796875 C14.9921875,41.1796875 13.65625,40.1015625 13.5078125,38.453125 L15.734375,38.453125 C15.875,39.1875 16.3984375,39.578125 17.3046875,39.578125 C18.1640625,39.578125 18.6953125,39.2265625 18.6953125,38.6796875 C18.6953125,38.234375 18.40625,37.984375 17.5859375,37.796875 L16.15625,37.5 C14.5390625,37.15625 13.71875,36.34375 13.71875,35.0859375 Z M25.9375,41.1796875 C23.40625,41.1796875 21.7890625,39.5546875 21.7890625,36.8046875 C21.7890625,34.09375 23.4296875,32.4453125 25.9375,32.4453125 C28.4453125,32.4453125 30.0859375,34.0859375 30.0859375,36.8046875 C30.0859375,39.5625 28.46875,41.1796875 25.9375,41.1796875 Z M25.9375,39.4375 C27.0546875,39.4375 27.765625,38.4921875 27.765625,36.8125 C27.765625,35.1484375 27.046875,34.1875 25.9375,34.1875 C24.828125,34.1875 24.1015625,35.1484375 24.1015625,36.8125 C24.1015625,38.4921875 24.8125,39.4375 25.9375,39.4375 Z M38.9921875,32.625 L38.9921875,41 L36.7890625,41 L36.7890625,39.4921875 L36.7421875,39.4921875 C36.328125,40.546875 35.5,41.15625 34.234375,41.15625 C32.421875,41.15625 31.21875,39.9765625 31.21875,38.0234375 L31.21875,32.625 L33.5,32.625 L33.5,37.546875 C33.5,38.6640625 34.0546875,39.2578125 35.0625,39.2578125 C36.078125,39.2578125 36.7109375,38.53125 36.7109375,37.421875 L36.7109375,32.625 L38.9921875,32.625 Z M40.4765625,41 L40.4765625,32.625 L42.6796875,32.625 L42.6796875,34.1328125 L42.7265625,34.1328125 C43.0234375,33.0703125 43.734375,32.4921875 44.71875,32.4921875 C44.984375,32.4921875 45.2109375,32.53125 45.3671875,32.578125 L45.3671875,34.5859375 C45.1796875,34.5078125 44.8671875,34.453125 44.5390625,34.453125 C43.4140625,34.453125 42.7578125,35.140625 42.7578125,36.3203125 L42.7578125,41 L40.4765625,41 Z M53.6328125,35.7421875 L51.515625,35.7421875 C51.3828125,34.859375 50.796875,34.234375 49.859375,34.234375 C48.734375,34.234375 48.03125,35.1875 48.03125,36.8046875 C48.03125,38.453125 48.734375,39.390625 49.8671875,39.390625 C50.78125,39.390625 51.375,38.84375 51.515625,37.9296875 L53.640625,37.9296875 C53.5234375,39.90625 52.046875,41.1796875 49.84375,41.1796875 C47.3203125,41.1796875 45.71875,39.5390625 45.71875,36.8046875 C45.71875,34.1171875 47.3203125,32.4453125 49.828125,32.4453125 C52.09375,32.4453125 53.53125,33.84375 53.6328125,35.7421875 Z M58.5,34.1328125 C57.5,34.1328125 56.78125,34.890625 56.703125,35.9375 L60.2578125,35.9375 C60.2109375,34.8671875 59.515625,34.1328125 58.5,34.1328125 Z M60.2890625,38.4375 L62.3828125,38.4375 C62.1328125,40.078125 60.6328125,41.1796875 58.5625,41.1796875 C55.984375,41.1796875 54.4375,39.53125 54.4375,36.8515625 C54.4375,34.1796875 56,32.4453125 58.4765625,32.4453125 C60.9140625,32.4453125 62.453125,34.09375 62.453125,36.640625 L62.453125,37.3359375 L56.6796875,37.3359375 L56.6796875,37.4765625 C56.6796875,38.671875 57.4375,39.4921875 58.6015625,39.4921875 C59.4375,39.4921875 60.078125,39.078125 60.2890625,38.4375 Z" id="source-copy" fill="#FFFFFF" fill-rule="nonzero"></path>
                </g>
                <path d="M73.344,13.382 C73.8280024,13.382 74.2276651,13.3416671 74.543,13.261 C74.8583349,13.1803329 75.1113324,13.070334 75.302,12.931 C75.4926676,12.791666 75.6246663,12.6266676 75.698,12.436 C75.7713337,12.2453324 75.808,12.0326678 75.808,11.798 C75.808,11.2993308 75.5733357,10.8850017 75.104,10.555 C74.6346643,10.2249984 73.8280057,9.86933524 72.684,9.488 C72.1853308,9.31199912 71.6866692,9.11033447 71.188,8.883 C70.6893308,8.65566553 70.242002,8.36966839 69.846,8.025 C69.449998,7.68033161 69.1273346,7.26233579 68.878,6.771 C68.6286654,6.27966421 68.504,5.68200352 68.504,4.978 C68.504,4.27399648 68.6359987,3.63966949 68.9,3.075 C69.1640013,2.51033051 69.5379976,2.03000198 70.022,1.634 C70.5060024,1.23799802 71.0926632,0.93366773 71.782,0.721 C72.4713368,0.50833227 73.2486623,0.402 74.114,0.402 C75.1406718,0.402 76.0279963,0.5119989 76.776,0.732 C77.5240037,0.9520011 78.1399976,1.19399868 78.624,1.458 L77.634,4.164 C77.2086645,3.9439989 76.7356693,3.74966751 76.215,3.581 C75.6943307,3.41233249 75.067337,3.328 74.334,3.328 C73.5126626,3.328 72.9223351,3.44166553 72.563,3.669 C72.2036649,3.89633447 72.024,4.24466432 72.024,4.714 C72.024,4.99266806 72.0899993,5.22733238 72.222,5.418 C72.3540007,5.60866762 72.5409988,5.78099923 72.783,5.935 C73.0250012,6.08900077 73.3036651,6.22833271 73.619,6.353 C73.9343349,6.47766729 74.2826648,6.60599934 74.664,6.738 C75.456004,7.0313348 76.1453304,7.32099857 76.732,7.607 C77.3186696,7.89300143 77.8063314,8.22666476 78.195,8.608 C78.5836686,8.98933524 78.8733324,9.4366641 79.064,9.95 C79.2546676,10.4633359 79.35,11.086663 79.35,11.82 C79.35,13.2426738 78.8513383,14.3463294 77.854,15.131 C76.8566617,15.9156706 75.3533434,16.308 73.344,16.308 C72.66933,16.308 72.0606694,16.2676671 71.518,16.187 C70.9753306,16.1063329 70.4950021,16.0073339 70.077,15.89 C69.6589979,15.7726661 69.2996682,15.6480007 68.999,15.516 C68.6983318,15.3839993 68.4453344,15.2593339 68.24,15.142 L69.208,12.414 C69.6626689,12.6633346 70.2236633,12.886999 70.891,13.085 C71.5583367,13.283001 72.3759952,13.382 73.344,13.382 Z M92.594,10.192 C92.594,11.1013379 92.4620013,11.9336629 92.198,12.689 C91.9339987,13.4443371 91.5526692,14.089664 91.054,14.625 C90.5553308,15.160336 89.9576702,15.5746652 89.261,15.868 C88.5643299,16.1613348 87.7833377,16.308 86.918,16.308 C86.0673291,16.308 85.2936701,16.1613348 84.597,15.868 C83.9003298,15.5746652 83.3026692,15.160336 82.804,14.625 C82.3053308,14.089664 81.9166681,13.4443371 81.638,12.689 C81.3593319,11.9336629 81.22,11.1013379 81.22,10.192 C81.22,9.28266212 81.3629986,8.45400374 81.649,7.706 C81.9350014,6.95799626 82.3309975,6.32000264 82.837,5.792 C83.3430025,5.26399736 83.9443299,4.8533348 84.641,4.56 C85.3376702,4.2666652 86.0966626,4.12 86.918,4.12 C87.7540042,4.12 88.5203298,4.2666652 89.217,4.56 C89.9136702,4.8533348 90.5113308,5.26399736 91.01,5.792 C91.5086692,6.32000264 91.8973319,6.95799626 92.176,7.706 C92.4546681,8.45400374 92.594,9.28266212 92.594,10.192 Z M89.25,10.192 C89.25,9.17999494 89.0483354,8.38433623 88.645,7.805 C88.2416646,7.22566377 87.6660037,6.936 86.918,6.936 C86.1699963,6.936 85.5906687,7.22566377 85.18,7.805 C84.7693313,8.38433623 84.564,9.17999494 84.564,10.192 C84.564,11.2040051 84.7693313,12.006997 85.18,12.601 C85.5906687,13.195003 86.1699963,13.492 86.918,13.492 C87.6660037,13.492 88.2416646,13.195003 88.645,12.601 C89.0483354,12.006997 89.25,11.2040051 89.25,10.192 Z M105.002,15.604 C104.444664,15.7653341 103.726004,15.915666 102.846,16.055 C101.965996,16.194334 101.042005,16.264 100.074,16.264 C99.0913284,16.264 98.2736699,16.1320013 97.621,15.868 C96.9683301,15.6039987 96.4513352,15.2336691 96.07,14.757 C95.6886648,14.280331 95.4173341,13.7120033 95.256,13.052 C95.0946659,12.3919967 95.014,11.666004 95.014,10.874 L95.014,4.428 L98.292,4.428 L98.292,10.478 C98.292,11.5340053 98.4313319,12.2966643 98.71,12.766 C98.9886681,13.2353357 99.5093295,13.47 100.272,13.47 C100.506668,13.47 100.755999,13.4590001 101.02,13.437 C101.284001,13.4149999 101.518666,13.3893335 101.724,13.36 L101.724,4.428 L105.002,4.428 L105.002,15.604 Z M115.056,7.332 C114.762665,7.2586663 114.418002,7.18166707 114.022,7.101 C113.625998,7.02033293 113.200669,6.98 112.746,6.98 C112.540666,6.98 112.295001,6.99833315 112.009,7.035 C111.722999,7.07166685 111.506667,7.11199978 111.36,7.156 L111.36,16 L108.082,16 L108.082,5.044 C108.66867,4.83866564 109.361663,4.64433425 110.161,4.461 C110.960337,4.27766575 111.851328,4.186 112.834,4.186 C113.010001,4.186 113.222665,4.19699989 113.472,4.219 C113.721335,4.24100011 113.970665,4.27033315 114.22,4.307 C114.469335,4.34366685 114.718665,4.38766641 114.968,4.439 C115.217335,4.49033359 115.429999,4.5526663 115.606,4.626 L115.056,7.332 Z M116.596,10.214 C116.596,9.37799582 116.731665,8.58967037 117.003,7.849 C117.274335,7.10832963 117.666664,6.46300275 118.18,5.913 C118.693336,5.36299725 119.316663,4.92666828 120.05,4.604 C120.783337,4.28133172 121.619329,4.12 122.558,4.12 C123.174003,4.12 123.738664,4.17499945 124.252,4.285 C124.765336,4.39500055 125.263998,4.55266564 125.748,4.758 L125.066,7.376 C124.757998,7.25866608 124.420669,7.15600044 124.054,7.068 C123.687331,6.97999956 123.276669,6.936 122.822,6.936 C121.853995,6.936 121.131669,7.23666366 120.655,7.838 C120.178331,8.43933634 119.94,9.23132842 119.94,10.214 C119.94,11.2553385 120.163664,12.0619971 120.611,12.634 C121.058336,13.2060029 121.839328,13.492 122.954,13.492 C123.350002,13.492 123.775331,13.4553337 124.23,13.382 C124.684669,13.3086663 125.102665,13.1913341 125.484,13.03 L125.946,15.714 C125.564665,15.8753341 125.088003,16.0146661 124.516,16.132 C123.943997,16.2493339 123.313337,16.308 122.624,16.308 C121.567995,16.308 120.65867,16.1503349 119.896,15.835 C119.13333,15.5196651 118.506336,15.0906694 118.015,14.548 C117.523664,14.0053306 117.164334,13.3636704 116.937,12.623 C116.709666,11.8823296 116.596,11.0793377 116.596,10.214 Z M127.046,10.302 C127.046,9.2753282 127.203665,8.37700385 127.519,7.607 C127.834335,6.83699615 128.248664,6.1953359 128.762,5.682 C129.275336,5.1686641 129.865663,4.78000132 130.533,4.516 C131.200337,4.25199868 131.885996,4.12 132.59,4.12 C134.232675,4.12 135.530662,4.62232831 136.484,5.627 C137.437338,6.63167169 137.914,8.10932358 137.914,10.06 C137.914,10.2506676 137.906667,10.4596655 137.892,10.687 C137.877333,10.9143345 137.862667,11.1159991 137.848,11.292 L130.412,11.292 C130.485334,11.96667 130.800664,12.501998 131.358,12.898 C131.915336,13.294002 132.663329,13.492 133.602,13.492 C134.203336,13.492 134.793664,13.4370006 135.373,13.327 C135.952336,13.2169995 136.425331,13.0813341 136.792,12.92 L137.232,15.582 C137.055999,15.6700004 136.821335,15.7579996 136.528,15.846 C136.234665,15.9340004 135.908335,16.0109997 135.549,16.077 C135.189665,16.1430003 134.804669,16.1979998 134.394,16.242 C133.983331,16.2860002 133.572669,16.308 133.162,16.308 C132.120661,16.308 131.215004,16.1540015 130.445,15.846 C129.674996,15.5379985 129.037003,15.116336 128.531,14.581 C128.024997,14.045664 127.651001,13.411337 127.409,12.678 C127.166999,11.944663 127.046,11.1526709 127.046,10.302 Z M134.746,9.048 C134.731333,8.76933194 134.683667,8.49800132 134.603,8.234 C134.522333,7.96999868 134.397668,7.73533436 134.229,7.53 C134.060332,7.32466564 133.847668,7.15600066 133.591,7.024 C133.334332,6.89199934 133.015335,6.826 132.634,6.826 C132.267332,6.826 131.952001,6.88833271 131.688,7.013 C131.423999,7.13766729 131.204001,7.30266564 131.028,7.508 C130.851999,7.71333436 130.716334,7.95166531 130.621,8.223 C130.525666,8.49433469 130.456,8.76933194 130.412,9.048 L134.746,9.048 Z M143.766,13.646 C144.367336,13.646 144.792665,13.5873339 145.042,13.47 C145.291335,13.3526661 145.416,13.125335 145.416,12.788 C145.416,12.5239987 145.254668,12.293001 144.932,12.095 C144.609332,11.896999 144.118003,11.6733346 143.458,11.424 C142.944664,11.2333324 142.479002,11.0353344 142.061,10.83 C141.642998,10.6246656 141.287335,10.3790014 140.994,10.093 C140.700665,9.80699857 140.473334,9.46600198 140.312,9.07 C140.150666,8.67399802 140.07,8.19733612 140.07,7.64 C140.07,6.55466124 140.473329,5.69666982 141.28,5.066 C142.086671,4.43533018 143.193993,4.12 144.602,4.12 C145.306004,4.12 145.980663,4.18233271 146.626,4.307 C147.271337,4.43166729 147.784665,4.5673326 148.166,4.714 L147.594,7.266 C147.212665,7.13399934 146.798336,7.01666718 146.351,6.914 C145.903664,6.81133282 145.401336,6.76 144.844,6.76 C143.817328,6.76 143.304,7.04599714 143.304,7.618 C143.304,7.75000066 143.326,7.86733282 143.37,7.97 C143.414,8.07266718 143.501999,8.17166619 143.634,8.267 C143.766001,8.36233381 143.945666,8.46499945 144.173,8.575 C144.400334,8.68500055 144.689998,8.80599934 145.042,8.938 C145.76067,9.20200132 146.354664,9.46233205 146.824,9.719 C147.293336,9.97566795 147.663665,10.2543318 147.935,10.555 C148.206335,10.8556682 148.396999,11.1893315 148.507,11.556 C148.617001,11.9226685 148.672,12.3479976 148.672,12.832 C148.672,13.9760057 148.243004,14.8413304 147.385,15.428 C146.526996,16.0146696 145.313341,16.308 143.744,16.308 C142.717328,16.308 141.863003,16.2200009 141.181,16.044 C140.498997,15.8679991 140.026001,15.7213339 139.762,15.604 L140.312,12.942 C140.869336,13.1620011 141.44133,13.3343327 142.028,13.459 C142.61467,13.5836673 143.193997,13.646 143.766,13.646 Z" fill="#001B3D" fill-rule="nonzero"></path>
            </g>
        </g>
    </g>
</svg>