<?xml version="1.0" encoding="UTF-8"?>
<svg width="538px" height="160px" viewBox="0 0 538 160" version="1.1" xmlns="http://www.w3.org/2000/svg" xmlns:xlink="http://www.w3.org/1999/xlink">
    <!-- Generator: Sketch 54.1 (76490) - https://sketchapp.com -->
    <title>Group 2</title>
    <desc>Created with Sketch.</desc>
    <g id="Buffers-&amp;-Batching-(serial)" stroke="none" stroke-width="1" fill="none" fill-rule="evenodd">
        <g id="Group-2">
            <path d="M108,40.5263158 L108,44.4736842 L108,45 L110,45 L110,44.4736842 L110,40.5263158 L110,40 L108,40 L108,40.5263158 Z M108,48.5263158 L108,52.4736842 L108,53 L110,53 L110,52.4736842 L110,48.5263158 L110,48 L108,48 L108,48.5263158 Z M108,55.5263158 L108,59.4736842 L108,60 L110,60 L110,59.4736842 L110,55.5263158 L110,55 L108,55 L108,55.5263158 Z M108,63.5263158 L108,67.4736842 L108,68 L110,68 L110,67.4736842 L110,63.5263158 L110,63 L108,63 L108,63.5263158 Z M108,71.5263158 L108,75.4736842 L108,76 L110,76 L110,75.4736842 L110,71.5263158 L110,71 L108,71 L108,71.5263158 Z M108,79.5263158 L108,83.4736842 L108,84 L110,84 L110,83.4736842 L110,79.5263158 L110,79 L108,79 L108,79.5263158 Z M108,87.5263158 L108,91.4736842 L108,92 L110,92 L110,91.4736842 L110,87.5263158 L110,87 L108,87 L108,87.5263158 Z M108,94.5263158 L108,98.4736842 L108,99 L110,99 L110,98.4736842 L110,94.5263158 L110,94 L108,94 L108,94.5263158 Z M108,102.526316 L108,106.473684 L108,107 L110,107 L110,106.473684 L110,102.526316 L110,102 L108,102 L108,102.526316 Z M108,110.526316 L108,114.473684 L108,115 L110,115 L110,114.473684 L110,110.526316 L110,110 L108,110 L108,110.526316 Z M108,118.526316 L108,122.473684 L108,123 L110,123 L110,122.473684 L110,118.526316 L110,118 L108,118 L108,118.526316 Z M108,125.526316 L108,129.473684 L108,130 L110,130 L110,129.473684 L110,125.526316 L110,125 L108,125 L108,125.526316 Z M108,133.526316 L108,137.473684 L108,138 L110,138 L110,137.473684 L110,133.526316 L110,133 L108,133 L108,133.526316 Z M108,140.526316 L108,144.473684 L108,145 L110,145 L110,144.473684 L110,140.526316 L110,140 L108,140 L108,140.526316 Z M108,148.526316 L108,152.473684 L108,153 L110,153 L110,152.473684 L110,148.526316 L110,148 L108,148 L108,148.526316 Z" id="Line-2" fill="#E1E6EA" fill-rule="nonzero"></path>
            <path d="M438,40.5263158 L438,44.4736842 L438,45 L440,45 L440,44.4736842 L440,40.5263158 L440,40 L438,40 L438,40.5263158 Z M438,47.5263158 L438,51.4736842 L438,52 L440,52 L440,51.4736842 L440,47.5263158 L440,47 L438,47 L438,47.5263158 Z M438,55.5263158 L438,59.4736842 L438,60 L440,60 L440,59.4736842 L440,55.5263158 L440,55 L438,55 L438,55.5263158 Z M438,63.5263158 L438,67.4736842 L438,68 L440,68 L440,67.4736842 L440,63.5263158 L440,63 L438,63 L438,63.5263158 Z M438,70.5263158 L438,74.4736842 L438,75 L440,75 L440,74.4736842 L440,70.5263158 L440,70 L438,70 L438,70.5263158 Z M438,79.5263158 L438,83.4736842 L438,84 L440,84 L440,83.4736842 L440,79.5263158 L440,79 L438,79 L438,79.5263158 Z M438,86.5263158 L438,90.4736842 L438,91 L440,91 L440,90.4736842 L440,86.5263158 L440,86 L438,86 L438,86.5263158 Z M438,94.5263158 L438,98.4736842 L438,99 L440,99 L440,98.4736842 L440,94.5263158 L440,94 L438,94 L438,94.5263158 Z M438,102.526316 L438,106.473684 L438,107 L440,107 L440,106.473684 L440,102.526316 L440,102 L438,102 L438,102.526316 Z M438,109.526316 L438,113.473684 L438,114 L440,114 L440,113.473684 L440,109.526316 L440,109 L438,109 L438,109.526316 Z M438,117.526316 L438,121.473684 L438,122 L440,122 L440,121.473684 L440,117.526316 L440,117 L438,117 L438,117.526316 Z M438,125.526316 L438,129.473684 L438,130 L440,130 L440,129.473684 L440,125.526316 L440,125 L438,125 L438,125.526316 Z M438,132.526316 L438,136.473684 L438,137 L440,137 L440,136.473684 L440,132.526316 L440,132 L438,132 L438,132.526316 Z M438,140.526316 L438,144.473684 L438,145 L440,145 L440,144.473684 L440,140.526316 L440,140 L438,140 L438,140.526316 Z M438,148.526316 L438,152.473684 L438,153 L440,153 L440,152.473684 L440,148.526316 L440,148 L438,148 L438,148.526316 Z" id="Line-2" fill="#E1E6EA" fill-rule="nonzero"></path>
            <g id="Incoming-events" transform="translate(0.000000, 86.804183)" fill="#001B3D">
                <circle id="Oval" cx="70.0570342" cy="7.31939163" r="7.31939163"></circle>
                <circle id="Oval" cx="90.9695817" cy="7.31939163" r="7.31939163"></circle>
                <circle id="Oval" cx="49.1444867" cy="7.31939163" r="7.31939163"></circle>
                <circle id="Oval" cx="28.2319392" cy="7.31939163" r="7.31939163"></circle>
                <circle id="Oval" cx="7.31939163" cy="7.31939163" r="7.31939163"></circle>
                <polygon id="Line-7" fill-rule="nonzero" points="121.920152 8.57414449 7.52851711 8.57414449 7.52851711 6.06463878 121.920152 6.06463878 121.920152 0.209125475 136.140684 7.31939163 121.920152 14.4296578"></polygon>
                <path d="M29.9218333,52.6927342 C29.9218333,52.1366203 30.0072353,51.6500279 30.1780417,51.2329425 C30.3488481,50.8158571 30.5732764,50.4682911 30.8513333,50.1902342 C31.1293903,49.9121772 31.449151,49.7016515 31.810625,49.5586508 C32.172099,49.4156501 32.5434981,49.3441508 32.9248333,49.3441508 C33.8146156,49.3441508 34.5176919,49.6162453 35.0340833,50.1604425 C35.5504748,50.7046397 35.8086667,51.5050344 35.8086667,52.5616508 C35.8086667,52.6649291 35.8046945,52.7781363 35.79675,52.9012758 C35.7888055,53.0244153 35.7808612,53.1336503 35.7729167,53.2289842 L31.7450833,53.2289842 C31.7848058,53.5944304 31.9556096,53.8843998 32.2575,54.0989008 C32.5593904,54.3134019 32.964553,54.4206508 33.473,54.4206508 C33.7987239,54.4206508 34.1184845,54.3908595 34.4322917,54.3312758 C34.7460988,54.2716922 35.0023046,54.1982068 35.2009167,54.1108175 L35.43925,55.5527342 C35.3439162,55.6004011 35.2168064,55.6480673 35.0579167,55.6957342 C34.899027,55.7434011 34.7222649,55.785109 34.527625,55.8208592 C34.3329851,55.8566093 34.1244456,55.8864007 33.902,55.9102342 C33.6795544,55.9340676 33.4571122,55.9459842 33.2346667,55.9459842 C32.6706083,55.9459842 32.1800438,55.8625683 31.7629583,55.6957342 C31.3458729,55.5289 31.000293,55.3004995 30.7262083,55.0105258 C30.4521236,54.7205522 30.2495423,54.3769584 30.1184583,53.9797342 C29.9873743,53.5825099 29.9218333,53.1535142 29.9218333,52.6927342 Z M34.0926667,52.0134842 C34.0847222,51.862539 34.058903,51.7155682 34.0152083,51.5725675 C33.9715137,51.4295668 33.9039866,51.3024569 33.812625,51.1912342 C33.7212634,51.0800114 33.6060701,50.9886512 33.4670417,50.9171508 C33.3280132,50.8456505 33.1552233,50.8099008 32.9486667,50.8099008 C32.7500546,50.8099008 32.5792507,50.8436644 32.43625,50.9111925 C32.2932493,50.9787206 32.1740838,51.0680947 32.07875,51.1793175 C31.9834162,51.2905403 31.9099308,51.4196362 31.8582917,51.5666092 C31.8066525,51.7135821 31.7689168,51.862539 31.7450833,52.0134842 L34.0926667,52.0134842 Z M38.8831667,55.7791508 C38.477998,54.9847024 38.0668771,54.0552117 37.6497917,52.9906508 C37.2327062,51.9260899 36.8374741,50.7662127 36.4640833,49.5109842 L38.3469167,49.5109842 C38.4263615,49.820819 38.5197078,50.1564685 38.6269583,50.5179425 C38.7342089,50.8794165 38.84543,51.2448573 38.960625,51.6142758 C39.07582,51.9836943 39.1910133,52.3431769 39.3062083,52.6927342 C39.4214034,53.0422915 39.5346106,53.3600661 39.6458333,53.6460675 C39.7491116,53.3600661 39.8603327,53.0422915 39.9795,52.6927342 C40.0986673,52.3431769 40.2158466,51.9836943 40.3310417,51.6142758 C40.4462367,51.2448573 40.5574578,50.8794165 40.6647083,50.5179425 C40.7719589,50.1564685 40.8653052,49.820819 40.94475,49.5109842 L42.7799167,49.5109842 C42.4065259,50.7662127 42.0112938,51.9260899 41.5942083,52.9906508 C41.1771229,54.0552117 40.766002,54.9847024 40.3608333,55.7791508 L38.8831667,55.7791508 Z M43.2685,52.6927342 C43.2685,52.1366203 43.3539019,51.6500279 43.5247083,51.2329425 C43.6955147,50.8158571 43.9199431,50.4682911 44.198,50.1902342 C44.4760569,49.9121772 44.7958176,49.7016515 45.1572917,49.5586508 C45.5187657,49.4156501 45.8901648,49.3441508 46.2715,49.3441508 C47.1612822,49.3441508 47.8643585,49.6162453 48.38075,50.1604425 C48.8971415,50.7046397 49.1553333,51.5050344 49.1553333,52.5616508 C49.1553333,52.6649291 49.1513612,52.7781363 49.1434167,52.9012758 C49.1354722,53.0244153 49.1275278,53.1336503 49.1195833,53.2289842 L45.09175,53.2289842 C45.1314724,53.5944304 45.3022763,53.8843998 45.6041667,54.0989008 C45.9060571,54.3134019 46.3112197,54.4206508 46.8196667,54.4206508 C47.1453905,54.4206508 47.4651512,54.3908595 47.7789583,54.3312758 C48.0927655,54.2716922 48.3489712,54.1982068 48.5475833,54.1108175 L48.7859167,55.5527342 C48.6905829,55.6004011 48.563473,55.6480673 48.4045833,55.6957342 C48.2456937,55.7434011 48.0689315,55.785109 47.8742917,55.8208592 C47.6796518,55.8566093 47.4711122,55.8864007 47.2486667,55.9102342 C47.0262211,55.9340676 46.8037789,55.9459842 46.5813333,55.9459842 C46.017275,55.9459842 45.5267104,55.8625683 45.109625,55.6957342 C44.6925396,55.5289 44.3469597,55.3004995 44.072875,55.0105258 C43.7987903,54.7205522 43.596209,54.3769584 43.465125,53.9797342 C43.334041,53.5825099 43.2685,53.1535142 43.2685,52.6927342 Z M47.4393333,52.0134842 C47.4313888,51.862539 47.4055697,51.7155682 47.361875,51.5725675 C47.3181803,51.4295668 47.2506532,51.3024569 47.1592917,51.1912342 C47.0679301,51.0800114 46.9527368,50.9886512 46.8137083,50.9171508 C46.6746799,50.8456505 46.5018899,50.8099008 46.2953333,50.8099008 C46.0967212,50.8099008 45.9259174,50.8436644 45.7829167,50.9111925 C45.639916,50.9787206 45.5207505,51.0680947 45.4254167,51.1793175 C45.3300829,51.2905403 45.2565975,51.4196362 45.2049583,51.5666092 C45.1533192,51.7135821 45.1155835,51.862539 45.09175,52.0134842 L47.4393333,52.0134842 Z M50.52575,49.7254842 C50.8276404,49.6380948 51.2169143,49.5566651 51.6935833,49.4811925 C52.1702524,49.4057199 52.6707474,49.3679842 53.1950833,49.3679842 C53.7273638,49.3679842 54.1702621,49.4374974 54.5237917,49.5765258 C54.8773212,49.7155543 55.1573601,49.9121773 55.3639167,50.1664008 C55.5704733,50.4206243 55.717444,50.7225102 55.8048333,51.0720675 C55.8922227,51.4216248 55.9359167,51.8108987 55.9359167,52.2399008 L55.9359167,55.7791508 L54.1603333,55.7791508 L54.1603333,52.4544008 C54.1603333,51.882398 54.0848619,51.4772353 53.9339167,51.2389008 C53.7829715,51.0005663 53.5009465,50.8814008 53.0878333,50.8814008 C52.9607216,50.8814008 52.8256674,50.8873591 52.6826667,50.8992758 C52.539666,50.9111926 52.4125561,50.9250952 52.3013333,50.9409842 L52.3013333,55.7791508 L50.52575,55.7791508 L50.52575,49.7254842 Z M57.4850833,47.9499008 L59.2606667,47.6639008 L59.2606667,49.5109842 L61.39375,49.5109842 L61.39375,50.9886508 L59.2606667,50.9886508 L59.2606667,53.1932342 C59.2606667,53.5666249 59.3262077,53.8645386 59.4572917,54.0869842 C59.5883757,54.3094297 59.8525258,54.4206508 60.24975,54.4206508 C60.4404176,54.4206508 60.6370407,54.402776 60.839625,54.3670258 C61.0422093,54.3312756 61.2269158,54.2816234 61.39375,54.2180675 L61.644,55.6004008 C61.4294989,55.6877901 61.191168,55.7632616 60.929,55.8268175 C60.666832,55.8903734 60.3450852,55.9221508 59.96375,55.9221508 C59.4791365,55.9221508 59.077946,55.8566098 58.7601667,55.7255258 C58.4423873,55.5944418 58.1881676,55.4117214 57.9975,55.1773592 C57.8068324,54.9429969 57.6737643,54.6589858 57.5982917,54.3253175 C57.5228191,53.9916492 57.4850833,53.6222342 57.4850833,53.2170675 L57.4850833,47.9499008 Z M64.6350833,54.5040675 C64.9608072,54.5040675 65.1911938,54.47229 65.32625,54.4087342 C65.4613062,54.3451783 65.5288333,54.2220406 65.5288333,54.0393175 C65.5288333,53.8963168 65.4414453,53.771193 65.2666667,53.6639425 C65.091888,53.556692 64.8257518,53.4355404 64.46825,53.3004842 C64.1901931,53.1972059 63.9379595,53.0899569 63.7115417,52.9787342 C63.4851239,52.8675114 63.292473,52.7344433 63.1335833,52.5795258 C62.9746937,52.4246084 62.851556,52.2399019 62.7641667,52.0254008 C62.6767773,51.8108998 62.6330833,51.5527079 62.6330833,51.2508175 C62.6330833,50.6629257 62.8515534,50.1981803 63.2885,49.8565675 C63.7254466,49.5149547 64.3252462,49.3441508 65.0879167,49.3441508 C65.4692519,49.3441508 65.8346927,49.3779144 66.18425,49.4454425 C66.5338073,49.5129706 66.8118601,49.586456 67.0184167,49.6659008 L66.7085833,51.0482342 C66.5020267,50.9767338 66.2775984,50.9131789 66.0352917,50.8575675 C65.7929849,50.8019561 65.5208904,50.7741508 65.219,50.7741508 C64.6628861,50.7741508 64.3848333,50.9290659 64.3848333,51.2389008 C64.3848333,51.3104012 64.3967499,51.3739561 64.4205833,51.4295675 C64.4444168,51.4851789 64.492083,51.5388033 64.5635833,51.5904425 C64.6350837,51.6420816 64.7324022,51.6976922 64.8555417,51.7572758 C64.9786812,51.8168595 65.1355824,51.8824005 65.32625,51.9539008 C65.7155297,52.0969015 66.0372765,52.237914 66.2915,52.3769425 C66.5457235,52.515971 66.7463187,52.6669139 66.8932917,52.8297758 C67.0402646,52.9926377 67.1435414,53.1733721 67.203125,53.3719842 C67.2627086,53.5705963 67.2925,53.8009828 67.2925,54.0631508 C67.2925,54.6828206 67.0601273,55.1515381 66.595375,55.4693175 C66.1306227,55.7870969 65.4732265,55.9459842 64.6231667,55.9459842 C64.0670528,55.9459842 63.6042935,55.898318 63.234875,55.8029842 C62.8654565,55.7076503 62.6092507,55.6282067 62.46625,55.5646508 L62.7641667,54.1227342 C63.0660571,54.2419014 63.3758873,54.3352477 63.6936667,54.4027758 C64.011446,54.4703039 64.3252485,54.5040675 64.6350833,54.5040675 Z" id="events" fill-rule="nonzero"></path>
            </g>
            <g id="Buffer" transform="translate(143.041825, 81.785171)">
                <rect id="Rectangle" fill="#E1E6EA" x="0" y="0" width="124.220532" height="25.095057" rx="6"></rect>
                <circle id="Oval" fill="#001B3D" cx="98.0798479" cy="12.338403" r="7.31939163"></circle>
                <circle id="Oval" fill="#001B3D" cx="83.4410646" cy="12.338403" r="7.31939163"></circle>
                <circle id="Oval" fill="#001B3D" cx="112.718631" cy="12.338403" r="7.31939163"></circle>
                <path d="M57.3259249,55.7830789 C57.3259249,54.6390732 56.9048736,54.0670789 56.0627582,54.0670789 C55.8800351,54.0670789 55.6993008,54.090912 55.5205499,54.1385789 C55.341799,54.1862458 55.1968143,54.2458285 55.0855916,54.3173289 L55.0855916,57.5467456 C55.1729809,57.5626345 55.284202,57.5765372 55.4192582,57.5884539 C55.5543145,57.6003706 55.7012852,57.6063289 55.8601749,57.6063289 C56.3447884,57.6063289 56.7102292,57.4394972 56.9565082,57.1058289 C57.2027872,56.7721606 57.3259249,56.3312483 57.3259249,55.7830789 Z M59.1372582,55.8307456 C59.1372582,56.3312481 59.0637729,56.7840769 58.9167999,57.1892456 C58.7698269,57.5944143 58.5573152,57.9399941 58.2792582,58.2259956 C58.0012013,58.511997 57.6595936,58.7324531 57.2544249,58.8873706 C56.8492562,59.042288 56.388483,59.1197456 55.8720916,59.1197456 C55.6575905,59.1197456 55.4331622,59.1098151 55.1987999,59.0899539 C54.9644376,59.0700927 54.734051,59.0442735 54.5076332,59.0124956 C54.2812154,58.9807176 54.0647315,58.9429819 53.8581749,58.8992872 C53.6516183,58.8555926 53.4688979,58.8099125 53.3100082,58.7622456 L53.3100082,50.0034956 L55.0855916,49.7174956 L55.0855916,52.8396622 C55.2842037,52.7522729 55.4907572,52.6847458 55.7052582,52.6370789 C55.9197593,52.589412 56.1501459,52.5655789 56.3964249,52.5655789 C56.841316,52.5655789 57.2345621,52.6430365 57.5761749,52.7979539 C57.9177877,52.9528713 58.2037849,53.1733275 58.4341749,53.4593289 C58.6645649,53.7453303 58.839341,54.0889241 58.9585082,54.4901206 C59.0776755,54.891317 59.1372582,55.3381875 59.1372582,55.8307456 Z M65.8582582,58.7503289 C65.5563678,58.8377182 65.167094,58.919148 64.6904249,58.9946206 C64.2137559,59.0700932 63.7132609,59.1078289 63.1889249,59.1078289 C62.6566445,59.1078289 62.2137461,59.0363296 61.8602166,58.8933289 C61.506687,58.7503282 61.2266482,58.549733 61.0200916,58.2915372 C60.813535,58.0333415 60.6665642,57.7254974 60.5791749,57.3679956 C60.4917856,57.0104938 60.4480916,56.6172477 60.4480916,56.1882456 L60.4480916,52.6966622 L62.2236749,52.6966622 L62.2236749,55.9737456 C62.2236749,56.5457484 62.2991464,56.9588554 62.4500916,57.2130789 C62.6010368,57.4673024 62.8830617,57.5944122 63.2961749,57.5944122 C63.4232867,57.5944122 63.5583409,57.588454 63.7013416,57.5765372 C63.8443423,57.5646205 63.9714521,57.5507179 64.0826749,57.5348289 L64.0826749,52.6966622 L65.8582582,52.6966622 L65.8582582,58.7503289 Z M70.2435916,49.7174956 C70.5772599,49.7174956 70.883118,49.7512591 71.1611749,49.8187872 C71.4392319,49.8863153 71.6537297,49.9518564 71.8046749,50.0154122 L71.4590916,51.4334956 C71.3002019,51.3619952 71.1274119,51.3083707 70.9407166,51.2726206 C70.7540212,51.2368704 70.5812313,51.2189956 70.4223416,51.2189956 C70.2078405,51.2189956 70.0271062,51.2487869 69.8801332,51.3083706 C69.7331603,51.3679542 69.617967,51.4493839 69.5345499,51.5526622 C69.4511328,51.6559405 69.3915501,51.7790782 69.3557999,51.9220789 C69.3200497,52.0650796 69.3021749,52.2199947 69.3021749,52.3868289 L69.3021749,52.6966622 L71.4948416,52.6966622 L71.4948416,54.1743289 L69.3021749,54.1743289 L69.3021749,58.9648289 L67.5265916,58.9648289 L67.5265916,52.3629956 C67.5265916,51.5526582 67.7549921,50.9091646 68.2117999,50.4324956 C68.6686077,49.9558265 69.3458649,49.7174956 70.2435916,49.7174956 Z M75.2366749,49.7174956 C75.5703432,49.7174956 75.8762013,49.7512591 76.1542582,49.8187872 C76.4323152,49.8863153 76.646813,49.9518564 76.7977582,50.0154122 L76.4521749,51.4334956 C76.2932852,51.3619952 76.1204953,51.3083707 75.9337999,51.2726206 C75.7471045,51.2368704 75.5743146,51.2189956 75.4154249,51.2189956 C75.2009238,51.2189956 75.0201895,51.2487869 74.8732166,51.3083706 C74.7262436,51.3679542 74.6110503,51.4493839 74.5276332,51.5526622 C74.4442162,51.6559405 74.3846334,51.7790782 74.3488832,51.9220789 C74.3131331,52.0650796 74.2952582,52.2199947 74.2952582,52.3868289 L74.2952582,52.6966622 L76.4879249,52.6966622 L76.4879249,54.1743289 L74.2952582,54.1743289 L74.2952582,58.9648289 L72.5196749,58.9648289 L72.5196749,52.3629956 C72.5196749,51.5526582 72.7480754,50.9091646 73.2048832,50.4324956 C73.6616911,49.9558265 74.3389482,49.7174956 75.2366749,49.7174956 Z M77.1552582,55.8784122 C77.1552582,55.3222983 77.2406602,54.835706 77.4114666,54.4186206 C77.582273,54.0015351 77.8067013,53.6539692 78.0847582,53.3759122 C78.3628152,53.0978553 78.6825759,52.8873296 79.0440499,52.7443289 C79.4055239,52.6013282 79.776923,52.5298289 80.1582582,52.5298289 C81.0480405,52.5298289 81.7511168,52.8019234 82.2675082,53.3461206 C82.7838997,53.8903177 83.0420916,54.6907125 83.0420916,55.7473289 C83.0420916,55.8506072 83.0381194,55.9638144 83.0301749,56.0869539 C83.0222304,56.2100934 83.0142861,56.3193284 83.0063416,56.4146622 L78.9785082,56.4146622 C79.0182307,56.7801085 79.1890345,57.0700778 79.4909249,57.2845789 C79.7928153,57.49908 80.1979779,57.6063289 80.7064249,57.6063289 C81.0321488,57.6063289 81.3519094,57.5765375 81.6657166,57.5169539 C81.9795237,57.4573703 82.2357295,57.3838849 82.4343416,57.2964956 L82.6726749,58.7384122 C82.5773411,58.7860791 82.4502313,58.8337453 82.2913416,58.8814122 C82.1324519,58.9290791 81.9556898,58.9707871 81.7610499,59.0065372 C81.56641,59.0422874 81.3578705,59.0720788 81.1354249,59.0959122 C80.9129793,59.1197457 80.6905371,59.1316622 80.4680916,59.1316622 C79.9040332,59.1316622 79.4134687,59.0482464 78.9963832,58.8814122 C78.5792978,58.7145781 78.2337179,58.4861776 77.9596332,58.1962039 C77.6855485,57.9062302 77.4829672,57.5626364 77.3518832,57.1654122 C77.2207992,56.768188 77.1552582,56.3391923 77.1552582,55.8784122 Z M81.3260916,55.1991622 C81.3181471,55.048217 81.2923279,54.9012463 81.2486332,54.7582456 C81.2049386,54.6152448 81.1374115,54.488135 81.0460499,54.3769122 C80.9546883,54.2656895 80.839495,54.1743293 80.7004666,54.1028289 C80.5614381,54.0313285 80.3886482,53.9955789 80.1820916,53.9955789 C79.9834795,53.9955789 79.8126756,54.0293424 79.6696749,54.0968706 C79.5266742,54.1643987 79.4075087,54.2537728 79.3121749,54.3649956 C79.2168411,54.4762183 79.1433557,54.6053143 79.0917166,54.7522872 C79.0400774,54.8992602 79.0023417,55.048217 78.9785082,55.1991622 L81.3260916,55.1991622 Z M88.1900916,54.2696622 C88.0312019,54.2299398 87.8445093,54.1882319 87.6300082,54.1445372 C87.4155072,54.1008426 87.1851206,54.0789956 86.9388416,54.0789956 C86.8276188,54.0789956 86.6945507,54.088926 86.5396332,54.1087872 C86.3847158,54.1286484 86.2675364,54.1504954 86.1880916,54.1743289 L86.1880916,58.9648289 L84.4125082,58.9648289 L84.4125082,53.0303289 C84.7302876,52.9191061 85.1056589,52.8138433 85.5386332,52.7145372 C85.9716076,52.6152312 86.4542278,52.5655789 86.9865082,52.5655789 C87.081842,52.5655789 87.1970353,52.5715372 87.3320916,52.5834539 C87.4671478,52.5953706 87.602202,52.6112594 87.7372582,52.6311206 C87.8723145,52.6509818 88.0073687,52.6748149 88.1424249,52.7026206 C88.2774811,52.7304263 88.3926744,52.7641898 88.4880082,52.8039122 L88.1900916,54.2696622 Z M26.8728832,71.9017456 C26.8728832,72.9186395 27.019854,73.8600468 27.3137999,74.7259956 C27.6077458,75.5919443 28.0407137,76.3943252 28.6127166,77.1331622 L27.8262166,77.6694122 C27.2065468,76.9146862 26.7080379,76.0467644 26.3306749,75.0656206 C25.9533119,74.0844768 25.7646332,73.0298623 25.7646332,71.9017456 C25.7646332,70.7736288 25.9533119,69.7190144 26.3306749,68.7378706 C26.7080379,67.7567268 27.2065468,66.8888049 27.8262166,66.1340789 L28.6127166,66.6703289 C28.0407137,67.4091659 27.6077458,68.2115468 27.3137999,69.0774956 C27.019854,69.9434443 26.8728832,70.8848516 26.8728832,71.9017456 Z M29.6494666,69.4469122 C29.9036901,69.3833564 30.2393395,69.3158293 30.6564249,69.2443289 C31.0735103,69.1728285 31.5561305,69.1370789 32.1042999,69.1370789 C32.5015241,69.1370789 32.8351874,69.1907034 33.1052999,69.2979539 C33.3754124,69.4052044 33.6018268,69.5621056 33.7845499,69.7686622 C33.8401613,69.7289398 33.9275493,69.6733293 34.0467166,69.6018289 C34.1658838,69.5303285 34.3128546,69.4608153 34.4876332,69.3932872 C34.6624119,69.3257591 34.8570488,69.2661764 35.0715499,69.2145372 C35.286051,69.1628981 35.5164376,69.1370789 35.7627166,69.1370789 C36.2393856,69.1370789 36.6286595,69.2065921 36.9305499,69.3456206 C37.2324403,69.484649 37.4687852,69.6812721 37.6395916,69.9354956 C37.810398,70.1897191 37.9255913,70.4916049 37.9851749,70.8411622 C38.0447585,71.1907195 38.0745499,71.5720491 38.0745499,71.9851622 L38.0745499,75.4648289 L36.9662999,75.4648289 L36.9662999,72.2234956 C36.9662999,71.8580493 36.9484251,71.5442469 36.9126749,71.2820789 C36.8769247,71.0199109 36.8093976,70.8014409 36.7100916,70.6266622 C36.6107855,70.4518836 36.4757313,70.3227876 36.3049249,70.2393706 C36.1341185,70.1559535 35.9136624,70.1142456 35.6435499,70.1142456 C35.2701591,70.1142456 34.962315,70.1638978 34.7200082,70.2632039 C34.4777015,70.3625099 34.3128559,70.4518841 34.2254666,70.5313289 C34.2890224,70.7378855 34.3366886,70.9642999 34.3684666,71.2105789 C34.4002445,71.4568579 34.4161332,71.7150498 34.4161332,71.9851622 L34.4161332,75.4648289 L33.3078832,75.4648289 L33.3078832,72.2234956 C33.3078832,71.8580493 33.2880223,71.5442469 33.2482999,71.2820789 C33.2085775,71.0199109 33.1390643,70.8014409 33.0397582,70.6266622 C32.9404522,70.4518836 32.805398,70.3227876 32.6345916,70.2393706 C32.4637852,70.1559535 32.2473012,70.1142456 31.9851332,70.1142456 C31.8739105,70.1142456 31.754745,70.1182177 31.6276332,70.1261622 C31.5005215,70.1341067 31.3793699,70.1440372 31.2641749,70.1559539 C31.1489799,70.1678706 31.043717,70.1817733 30.9483832,70.1976622 C30.8530494,70.2135512 30.7894945,70.2254677 30.7577166,70.2334122 L30.7577166,75.4648289 L29.6494666,75.4648289 L29.6494666,69.4469122 Z M39.5641332,72.3784122 C39.5641332,71.8302428 39.6435769,71.3515948 39.8024666,70.9424539 C39.9613563,70.533313 40.1718819,70.1936914 40.4340499,69.9235789 C40.6962179,69.6534664 40.9981038,69.4508851 41.3397166,69.3158289 C41.6813294,69.1807727 42.0308815,69.1132456 42.3883832,69.1132456 C43.2225541,69.1132456 43.8620755,69.3734235 44.3069666,69.8937872 C44.7518577,70.4141509 44.9742999,71.2066014 44.9742999,72.2711622 L44.9742999,72.4558706 C44.9742999,72.5313432 44.9703277,72.6008564 44.9623832,72.6644122 L40.7200499,72.6644122 C40.7677168,73.3079154 40.9544094,73.7964939 41.2801332,74.1301622 C41.6058571,74.4638306 42.1142964,74.6306622 42.8054666,74.6306622 C43.1947463,74.6306622 43.5224514,74.5968987 43.7885916,74.5293706 C44.0547318,74.4618424 44.255327,74.3963014 44.3903832,74.3327456 L44.5452999,75.2622456 C44.4102437,75.3337459 44.1738988,75.4092174 43.8362582,75.4886622 C43.4986177,75.5681071 43.115302,75.6078289 42.6862999,75.6078289 C42.146075,75.6078289 41.6793435,75.5263992 41.2860916,75.3635372 C40.8928396,75.2006753 40.5691067,74.976247 40.3148832,74.6902456 C40.0606597,74.4042441 39.8719811,74.0646225 39.7488416,73.6713706 C39.6257021,73.2781186 39.5641332,72.8471368 39.5641332,72.3784122 Z M43.8183832,71.7706622 C43.8263277,71.2701597 43.701204,70.8590388 43.4430082,70.5372872 C43.1848125,70.2155356 42.8293022,70.0546622 42.3764666,70.0546622 C42.1222431,70.0546622 41.8978148,70.1043145 41.7031749,70.2036206 C41.508535,70.3029266 41.3436895,70.4320225 41.2086332,70.5909122 C41.073577,70.7498019 40.9683142,70.9325223 40.8928416,71.1390789 C40.817369,71.3456355 40.7677167,71.5561612 40.7438832,71.7706622 L43.8183832,71.7706622 Z M46.5711332,69.4469122 C46.8253567,69.3833564 47.1610062,69.3158293 47.5780916,69.2443289 C47.995177,69.1728285 48.4777972,69.1370789 49.0259666,69.1370789 C49.4231908,69.1370789 49.7568541,69.1907034 50.0269666,69.2979539 C50.297079,69.4052044 50.5234934,69.5621056 50.7062166,69.7686622 C50.761828,69.7289398 50.849216,69.6733293 50.9683832,69.6018289 C51.0875505,69.5303285 51.2345213,69.4608153 51.4092999,69.3932872 C51.5840786,69.3257591 51.7787155,69.2661764 51.9932166,69.2145372 C52.2077176,69.1628981 52.4381042,69.1370789 52.6843832,69.1370789 C53.1610523,69.1370789 53.5503262,69.2065921 53.8522166,69.3456206 C54.154107,69.484649 54.3904518,69.6812721 54.5612582,69.9354956 C54.7320646,70.1897191 54.8472579,70.4916049 54.9068416,70.8411622 C54.9664252,71.1907195 54.9962166,71.5720491 54.9962166,71.9851622 L54.9962166,75.4648289 L53.8879666,75.4648289 L53.8879666,72.2234956 C53.8879666,71.8580493 53.8700918,71.5442469 53.8343416,71.2820789 C53.7985914,71.0199109 53.7310643,70.8014409 53.6317582,70.6266622 C53.5324522,70.4518836 53.397398,70.3227876 53.2265916,70.2393706 C53.0557852,70.1559535 52.835329,70.1142456 52.5652166,70.1142456 C52.1918258,70.1142456 51.8839817,70.1638978 51.6416749,70.2632039 C51.3993681,70.3625099 51.2345226,70.4518841 51.1471332,70.5313289 C51.2106891,70.7378855 51.2583553,70.9642999 51.2901332,71.2105789 C51.3219112,71.4568579 51.3377999,71.7150498 51.3377999,71.9851622 L51.3377999,75.4648289 L50.2295499,75.4648289 L50.2295499,72.2234956 C50.2295499,71.8580493 50.209689,71.5442469 50.1699666,71.2820789 C50.1302442,71.0199109 50.060731,70.8014409 49.9614249,70.6266622 C49.8621189,70.4518836 49.7270646,70.3227876 49.5562582,70.2393706 C49.3854518,70.1559535 49.1689679,70.1142456 48.9067999,70.1142456 C48.7955771,70.1142456 48.6764117,70.1182177 48.5492999,70.1261622 C48.4221882,70.1341067 48.3010366,70.1440372 48.1858416,70.1559539 C48.0706466,70.1678706 47.9653837,70.1817733 47.8700499,70.1976622 C47.7747161,70.2135512 47.7111612,70.2254677 47.6793832,70.2334122 L47.6793832,75.4648289 L46.5711332,75.4648289 L46.5711332,69.4469122 Z M62.3011332,72.3664956 C62.3011332,72.8590536 62.229634,73.303938 62.0866332,73.7011622 C61.9436325,74.0983864 61.7430373,74.4399941 61.4848416,74.7259956 C61.2266458,75.011997 60.9188017,75.2324531 60.5612999,75.3873706 C60.2037981,75.542288 59.8145242,75.6197456 59.3934666,75.6197456 C58.9724089,75.6197456 58.583135,75.542288 58.2256332,75.3873706 C57.8681315,75.2324531 57.5602873,75.011997 57.3020916,74.7259956 C57.0438958,74.4399941 56.8433006,74.0983864 56.7002999,73.7011622 C56.5572992,73.303938 56.4857999,72.8590536 56.4857999,72.3664956 C56.4857999,71.881882 56.5572992,71.4389837 56.7002999,71.0377872 C56.8433006,70.6365908 57.0438958,70.292997 57.3020916,70.0069956 C57.5602873,69.7209941 57.8681315,69.500538 58.2256332,69.3456206 C58.583135,69.1907031 58.9724089,69.1132456 59.3934666,69.1132456 C59.8145242,69.1132456 60.2037981,69.1907031 60.5612999,69.3456206 C60.9188017,69.500538 61.2266458,69.7209941 61.4848416,70.0069956 C61.7430373,70.292997 61.9436325,70.6365908 62.0866332,71.0377872 C62.229634,71.4389837 62.3011332,71.881882 62.3011332,72.3664956 Z M61.1452166,72.3664956 C61.1452166,71.667381 60.9883154,71.1132615 60.6745082,70.7041206 C60.3607011,70.2949796 59.9336915,70.0904122 59.3934666,70.0904122 C58.8532416,70.0904122 58.426232,70.2949796 58.1124249,70.7041206 C57.7986178,71.1132615 57.6417166,71.667381 57.6417166,72.3664956 C57.6417166,73.0656102 57.7986178,73.6197296 58.1124249,74.0288706 C58.426232,74.4380115 58.8532416,74.6425789 59.3934666,74.6425789 C59.9336915,74.6425789 60.3607011,74.4380115 60.6745082,74.0288706 C60.9883154,73.6197296 61.1452166,73.0656102 61.1452166,72.3664956 Z M66.1502166,69.1370789 C66.2455504,69.1370789 66.3547854,69.1430372 66.4779249,69.1549539 C66.6010644,69.1668706 66.722216,69.1827594 66.8413832,69.2026206 C66.9605505,69.2224818 67.0697855,69.2423427 67.1690916,69.2622039 C67.2683976,69.2820651 67.341883,69.2999399 67.3895499,69.3158289 L67.1988832,70.2810789 C67.1114939,70.249301 66.9665093,70.2115652 66.7639249,70.1678706 C66.5613406,70.1241759 66.3011626,70.1023289 65.9833832,70.1023289 C65.7768266,70.1023289 65.5722593,70.1241759 65.3696749,70.1678706 C65.1670906,70.2115652 65.0340224,70.2413566 64.9704666,70.2572456 L64.9704666,75.4648289 L63.8622166,75.4648289 L63.8622166,69.5303289 C64.1243845,69.4349951 64.4501035,69.345621 64.8393832,69.2622039 C65.228663,69.1787868 65.665603,69.1370789 66.1502166,69.1370789 Z M67.9853832,76.6207456 C68.0727726,76.660468 68.1859798,76.6982037 68.3250082,76.7339539 C68.4640367,76.7697041 68.601077,76.7875789 68.7361332,76.7875789 C69.1730799,76.7875789 69.5146876,76.6902604 69.7609666,76.4956206 C70.0072456,76.3009807 70.2296878,75.9851922 70.4282999,75.5482456 C69.9277974,74.5949075 69.461066,73.583987 69.0280916,72.5154539 C68.5951172,71.4469208 68.2356347,70.364501 67.9496332,69.2681622 L69.1412999,69.2681622 C69.2286892,69.625664 69.3339521,70.0109657 69.4570916,70.4240789 C69.5802311,70.8371921 69.7172714,71.2622156 69.8682166,71.6991622 C70.0191618,72.1361089 70.1820213,72.5730489 70.3567999,73.0099956 C70.5315786,73.4469422 70.714299,73.8679935 70.9049666,74.2731622 C71.206857,73.4389914 71.469021,72.6127774 71.6914666,71.7944956 C71.9139121,70.9762137 72.1244378,70.134111 72.3230499,69.2681622 L73.4670499,69.2681622 C73.1810485,70.4360014 72.8632739,71.558143 72.5137166,72.6346206 C72.1641593,73.7110982 71.7868019,74.7180464 71.3816332,75.6554956 C71.2227436,76.0129974 71.057898,76.3208415 70.8870916,76.5790372 C70.7162852,76.837233 70.5276065,77.0497447 70.3210499,77.2165789 C70.1144933,77.3834131 69.8821206,77.5065507 69.6239249,77.5859956 C69.3657292,77.6654404 69.0737738,77.7051622 68.7480499,77.7051622 C68.6606606,77.7051622 68.5693004,77.699204 68.4739666,77.6872872 C68.3786328,77.6753705 68.2852865,77.6594818 68.1939249,77.6396206 C68.1025633,77.6197594 68.0191475,77.5979123 67.9436749,77.5740789 C67.8682023,77.5502454 67.8145778,77.5303845 67.7827999,77.5144956 L67.9853832,76.6207456 Z M82.8573832,72.3664956 C82.8573832,72.8590536 82.785884,73.303938 82.6428832,73.7011622 C82.4998825,74.0983864 82.2992873,74.4399941 82.0410916,74.7259956 C81.7828958,75.011997 81.4750517,75.2324531 81.1175499,75.3873706 C80.7600481,75.542288 80.3707742,75.6197456 79.9497166,75.6197456 C79.5286589,75.6197456 79.139385,75.542288 78.7818832,75.3873706 C78.4243815,75.2324531 78.1165373,75.011997 77.8583416,74.7259956 C77.6001458,74.4399941 77.3995506,74.0983864 77.2565499,73.7011622 C77.1135492,73.303938 77.0420499,72.8590536 77.0420499,72.3664956 C77.0420499,71.881882 77.1135492,71.4389837 77.2565499,71.0377872 C77.3995506,70.6365908 77.6001458,70.292997 77.8583416,70.0069956 C78.1165373,69.7209941 78.4243815,69.500538 78.7818832,69.3456206 C79.139385,69.1907031 79.5286589,69.1132456 79.9497166,69.1132456 C80.3707742,69.1132456 80.7600481,69.1907031 81.1175499,69.3456206 C81.4750517,69.500538 81.7828958,69.7209941 82.0410916,70.0069956 C82.2992873,70.292997 82.4998825,70.6365908 82.6428832,71.0377872 C82.785884,71.4389837 82.8573832,71.881882 82.8573832,72.3664956 Z M81.7014666,72.3664956 C81.7014666,71.667381 81.5445654,71.1132615 81.2307582,70.7041206 C80.9169511,70.2949796 80.4899415,70.0904122 79.9497166,70.0904122 C79.4094916,70.0904122 78.982482,70.2949796 78.6686749,70.7041206 C78.3548678,71.1132615 78.1979666,71.667381 78.1979666,72.3664956 C78.1979666,73.0656102 78.3548678,73.6197296 78.6686749,74.0288706 C78.982482,74.4380115 79.4094916,74.6425789 79.9497166,74.6425789 C80.4899415,74.6425789 80.9169511,74.4380115 81.2307582,74.0288706 C81.5445654,73.6197296 81.7014666,73.0656102 81.7014666,72.3664956 Z M86.7064666,69.1370789 C86.8018004,69.1370789 86.9110354,69.1430372 87.0341749,69.1549539 C87.1573144,69.1668706 87.278466,69.1827594 87.3976332,69.2026206 C87.5168005,69.2224818 87.6260355,69.2423427 87.7253416,69.2622039 C87.8246476,69.2820651 87.898133,69.2999399 87.9457999,69.3158289 L87.7551332,70.2810789 C87.6677439,70.249301 87.5227593,70.2115652 87.3201749,70.1678706 C87.1175906,70.1241759 86.8574126,70.1023289 86.5396332,70.1023289 C86.3330766,70.1023289 86.1285093,70.1241759 85.9259249,70.1678706 C85.7233406,70.2115652 85.5902724,70.2413566 85.5267166,70.2572456 L85.5267166,75.4648289 L84.4184666,75.4648289 L84.4184666,69.5303289 C84.6806345,69.4349951 85.0063535,69.345621 85.3956332,69.2622039 C85.784913,69.1787868 86.221853,69.1370789 86.7064666,69.1370789 Z M95.7750499,70.5789956 C95.6399937,70.4677728 95.4453567,70.3605239 95.1911332,70.2572456 C94.9369097,70.1539673 94.658857,70.1023289 94.3569666,70.1023289 C94.0391872,70.1023289 93.7670927,70.1599255 93.5406749,70.2751206 C93.3142571,70.3903156 93.1295506,70.5492029 92.9865499,70.7517872 C92.8435492,70.9543716 92.7402724,71.1946886 92.6767166,71.4727456 C92.6131607,71.7508025 92.5813832,72.0487162 92.5813832,72.3664956 C92.5813832,73.0894436 92.7601315,73.6475353 93.1176332,74.0407872 C93.475135,74.4340392 93.9517969,74.6306622 94.5476332,74.6306622 C94.8495236,74.6306622 95.1017572,74.6167596 95.3043416,74.5889539 C95.5069259,74.5611482 95.6638271,74.5313568 95.7750499,74.4995789 L95.7750499,70.5789956 Z M95.7750499,66.4081622 L96.8832999,66.2174956 L96.8832999,75.2860789 C96.6290764,75.3575793 96.3033574,75.4290785 95.9061332,75.5005789 C95.508909,75.5720793 95.052108,75.6078289 94.5357166,75.6078289 C94.0590475,75.6078289 93.6300518,75.5323574 93.2487166,75.3814122 C92.8673813,75.230467 92.5416624,75.0159692 92.2715499,74.7379122 C92.0014374,74.4598553 91.7928979,74.1202337 91.6459249,73.7190372 C91.4989519,73.3178408 91.4254666,72.8669981 91.4254666,72.3664956 C91.4254666,71.8898265 91.4870354,71.4528864 91.6101749,71.0556622 C91.7333144,70.658438 91.9140487,70.3168303 92.1523832,70.0308289 C92.3907178,69.7448275 92.6826732,69.5223852 93.0282582,69.3634956 C93.3738433,69.2046059 93.7690755,69.1251622 94.2139666,69.1251622 C94.5714684,69.1251622 94.8872569,69.1728284 95.1613416,69.2681622 C95.4354263,69.363496 95.6399937,69.4548562 95.7750499,69.5422456 L95.7750499,66.4081622 Z M99.8982166,75.4648289 L98.7899666,75.4648289 L98.7899666,69.2681622 L99.8982166,69.2681622 L99.8982166,75.4648289 Z M99.3381332,68.1479956 C99.1395211,68.1479956 98.9707034,68.0824546 98.8316749,67.9513706 C98.6926464,67.8202866 98.6231332,67.6435245 98.6231332,67.4210789 C98.6231332,67.1986333 98.6926464,67.0218712 98.8316749,66.8907872 C98.9707034,66.7597032 99.1395211,66.6941622 99.3381332,66.6941622 C99.5367453,66.6941622 99.7055631,66.7597032 99.8445916,66.8907872 C99.98362,67.0218712 100.053133,67.1986333 100.053133,67.4210789 C100.053133,67.6435245 99.98362,67.8202866 99.8445916,67.9513706 C99.7055631,68.0824546 99.5367453,68.1479956 99.3381332,68.1479956 Z M103.2468,74.6664122 C103.699636,74.6664122 104.035285,74.6068295 104.253758,74.4876622 C104.472232,74.368495 104.581467,74.1778302 104.581467,73.9156622 C104.581467,73.6455498 104.474218,73.4310519 104.259717,73.2721622 C104.045215,73.1132725 103.691691,72.9345243 103.199133,72.7359122 C102.960799,72.6405784 102.732398,72.5432599 102.513925,72.4439539 C102.295452,72.3446478 102.106773,72.2274685 101.947883,72.0924122 C101.788994,71.957356 101.661884,71.7944965 101.56655,71.6038289 C101.471216,71.4131613 101.42355,71.1788025 101.42355,70.9007456 C101.42355,70.3525762 101.626131,69.9176222 102.0313,69.5958706 C102.436469,69.274119 102.988602,69.1132456 103.687717,69.1132456 C103.862495,69.1132456 104.037271,69.123176 104.21205,69.1430372 C104.386829,69.1628984 104.549688,69.1867315 104.700633,69.2145372 C104.851578,69.2423429 104.984647,69.2721343 105.099842,69.3039122 C105.215037,69.3356902 105.304411,69.3634954 105.367967,69.3873289 L105.165383,70.3406622 C105.046216,70.2771064 104.859523,70.2115653 104.6053,70.1440372 C104.351076,70.0765091 104.045218,70.0427456 103.687717,70.0427456 C103.377882,70.0427456 103.107773,70.1043144 102.877383,70.2274539 C102.646993,70.3505934 102.5318,70.5432443 102.5318,70.8054122 C102.5318,70.9404685 102.557619,71.0596339 102.609258,71.1629122 C102.660897,71.2661905 102.740341,71.3595368 102.847592,71.4429539 C102.954842,71.526371 103.08791,71.6038285 103.2468,71.6753289 C103.40569,71.7468293 103.596354,71.8223007 103.8188,71.9017456 C104.112746,72.0129683 104.37491,72.1222034 104.6053,72.2294539 C104.83569,72.3367044 105.032313,72.4618282 105.195175,72.6048289 C105.358037,72.7478296 105.483161,72.9206196 105.57055,73.1232039 C105.657939,73.3257882 105.701633,73.5740496 105.701633,73.8679956 C105.701633,74.4399984 105.489121,74.8729663 105.064092,75.1669122 C104.639062,75.4608581 104.033304,75.6078289 103.2468,75.6078289 C102.69863,75.6078289 102.269635,75.5621488 101.9598,75.4707872 C101.649965,75.3794257 101.439439,75.3099125 101.328217,75.2622456 L101.5308,74.3089122 C101.657912,74.3565791 101.860493,74.4280784 102.13855,74.5234122 C102.416607,74.618746 102.78602,74.6664122 103.2468,74.6664122 Z M109.36005,72.0566622 C109.598384,72.2393854 109.850618,72.4657998 110.116758,72.7359122 C110.382898,73.0060247 110.645063,73.2979801 110.903258,73.6117872 C111.161454,73.9255944 111.405743,74.243369 111.636133,74.5651206 C111.866523,74.8868722 112.06116,75.186772 112.22005,75.4648289 L110.921133,75.4648289 C110.754299,75.186772 110.561648,74.9027609 110.343175,74.6127872 C110.124702,74.3228136 109.896301,74.0447608 109.657967,73.7786206 C109.419632,73.5124803 109.177329,73.2681911 108.93105,73.0457456 C108.684771,72.8233 108.450412,72.6366074 108.227967,72.4856622 L108.227967,75.4648289 L107.119717,75.4648289 L107.119717,66.4081622 L108.227967,66.2174956 L108.227967,71.8659956 L108.85955,71.2344122 C109.08994,71.0040222 109.316354,70.7696634 109.5388,70.5313289 C109.761245,70.2929944 109.971771,70.0645939 110.170383,69.8461206 C110.368995,69.6276472 110.539799,69.4349964 110.6828,69.2681622 L111.981717,69.2681622 C111.798993,69.4667743 111.600384,69.6852444 111.385883,69.9235789 C111.171382,70.1619134 110.94894,70.4022305 110.71855,70.6445372 C110.48816,70.886844 110.255787,71.1291471 110.021425,71.3714539 C109.787063,71.6137607 109.566606,71.8421612 109.36005,72.0566622 Z M114.210133,71.9017456 C114.210133,70.8848516 114.063162,69.9434443 113.769217,69.0774956 C113.475271,68.2115468 113.042303,67.4091659 112.4703,66.6703289 L113.2568,66.1340789 C113.87647,66.8888049 114.374979,67.7567268 114.752342,68.7378706 C115.129705,69.7190144 115.318383,70.7736288 115.318383,71.9017456 C115.318383,73.0298623 115.129705,74.0844768 114.752342,75.0656206 C114.374979,76.0467644 113.87647,76.9146862 113.2568,77.6694122 L112.4703,77.1331622 C113.042303,76.3943252 113.475271,75.5919443 113.769217,74.7259956 C114.063162,73.8600468 114.210133,72.9186395 114.210133,71.9017456 Z" id="bufer(memoryordisk)" fill="#001B3D" fill-rule="nonzero"></path>
            </g>
            <g id="Batches" transform="translate(273.536122, 75.157795)" fill-rule="nonzero">
                <g id="rotate" transform="translate(98.946768, 19.353612) scale(-1, 1) translate(-98.946768, -19.353612) translate(79.946768, 0.353612)">
                    <path d="M37.6425856,18.8212928 C37.6425856,29.2161398 29.2161398,37.6425856 18.8212928,37.6425856 C8.42644577,37.6425856 0,29.2161398 0,18.8212928 C0,8.42644577 8.42644577,0 18.8212928,0 C29.2161398,0 37.6425856,8.42644577 37.6425856,18.8212928 Z" id="Path" fill="#000000"></path>
                    <g id="Group" transform="translate(6.543340, 6.690381)" fill="#E1E6EA">
                        <path d="M25.1233931,12.642397 C25.1233931,5.68090807 19.4600036,0.0175185799 12.4985147,0.0175185799 C9.3503365,0.0175185799 6.33282971,1.20562423 4.03214951,3.28057295 L4.03214951,0.14388224 L1.82652927,0.14388224 L1.82652927,7.10537114 L8.78801817,7.10537114 L8.78801817,4.8997509 L5.53013327,4.8997509 C7.42673693,3.19757501 9.90920846,2.22313883 12.4985147,2.22313883 C18.2437534,2.22313883 22.9177729,6.89715831 22.9177729,12.642397 L23.0441365,12.642397 C23.0441365,12.9660603 23.0294898,13.2925954 23.0001965,13.6125253 L24.9450481,13.7894344 C24.9795109,13.4109178 24.9970295,13.0249342 24.9973166,12.642397 L24.1653268,12.642397 L25.1233931,12.642397 Z" id="Path"></path>
                        <path d="M4.28286648,19.2546627 L2.76219469,20.480103 C3.20389316,21.0280618 3.69556267,21.5424193 4.22313094,22.0088161 L5.51663531,20.5458695 C5.07120339,20.1518447 4.65592649,19.717326 4.28286648,19.2546627 Z" id="Path"></path>
                        <path d="M2.54938682,16.1484142 L0.707636496,16.7974639 C0.941696475,17.4614475 1.23463041,18.1104972 1.57868416,18.7268072 L3.28373198,17.7747719 C2.99366998,17.255245 2.74668646,16.7081477 2.54938682,16.1484142 L2.54938682,16.1484142 Z" id="Path"></path>
                        <path d="M1.95289293,12.642397 L0,12.642397 C0,13.3488847 0.0594483766,14.0573828 0.176909124,14.7486495 L2.1022318,14.4218271 C2.00315122,13.8382567 1.95289293,13.2394653 1.95289293,12.642397 Z" id="Path"></path>
                        <path d="M5.91956309,23.2710168 C6.51864168,23.6426408 7.15304474,23.9651553 7.80496632,24.2293703 L8.53873713,22.419498 C7.98905518,22.1966384 7.45430718,21.9249566 6.94885254,21.611345 L5.91956309,23.2710168 Z" id="Path"></path>
                        <path d="M22.0834856,17.0467449 L23.857459,17.8635137 C24.152116,17.2230797 24.393643,16.5533523 24.5754343,15.8727116 L22.6885951,15.3689802 C22.5355228,15.9424988 22.331905,16.5071147 22.0834856,17.0467449 Z" id="Path"></path>
                        <path d="M9.82707205,24.8545832 C10.5131693,25.003922 11.2187955,25.0958229 11.9241345,25.127701 L12.0123019,23.1768184 C11.4166695,23.1501097 10.8213243,23.0722811 10.2426362,22.9462047 L9.82707205,24.8545832 Z" id="Path"></path>
                        <path d="M20.072293,19.9803922 L21.4746425,21.3393759 C21.964876,20.8336341 22.4151901,20.2828034 22.8132357,19.7026793 L21.2026734,18.5981461 C20.8666609,19.0880924 20.4864212,19.5530532 20.072293,19.9803922 Z" id="Path"></path>
                        <path d="M17.2021148,22.0837727 L18.0745984,23.8310375 C18.7041192,23.5165643 19.3118135,23.1458018 19.88045,22.7288018 L18.7259457,21.153851 C18.2460509,21.505659 17.7331294,21.8186962 17.2021148,22.0837727 Z" id="Path"></path>
                        <path d="M13.7980501,23.1087543 L14.0358435,25.0470006 C14.7360131,24.9611307 15.4327363,24.8146637 16.1064844,24.6119075 L15.5435918,22.7420125 C14.9755296,22.9128907 14.3882258,23.0363824 13.7980501,23.1087543 Z" id="Path"></path>
                    </g>
                </g>
                <polygon id="Line-3" fill="#E1E6EA" points="63.9948335 19.8310401 0.211525753 20.0138003 0.206732065 18.3408033 63.9900398 18.1580431 63.9780556 13.9755508 74.0304183 18.9657795 64.0068177 24.0135324 63.9948335 19.8310401"></polygon>
                <path d="M87.8278783,61.6382053 C87.8278783,60.4861996 87.4038826,59.9102053 86.5558783,59.9102053 C86.3718774,59.9102053 86.1898792,59.9342051 86.0098783,59.9822053 C85.8298774,60.0302056 85.6838789,60.090205 85.5718783,60.1622053 L85.5718783,63.4142053 C85.6598788,63.4302054 85.7718776,63.4442053 85.9078783,63.4562053 C86.043879,63.4682054 86.1918775,63.4742053 86.3518783,63.4742053 C86.8398808,63.4742053 87.2078771,63.306207 87.4558783,62.9702053 C87.7038796,62.6342036 87.8278783,62.1902081 87.8278783,61.6382053 Z M89.6518783,61.6862053 C89.6518783,62.1902078 89.5778791,62.6462033 89.4298783,63.0542053 C89.2818776,63.4622074 89.0678797,63.8102039 88.7878783,64.0982053 C88.5078769,64.3862068 88.1638804,64.6082045 87.7558783,64.7642053 C87.3478763,64.9202061 86.8838809,64.9982053 86.3638783,64.9982053 C86.1478772,64.9982053 85.9218795,64.9882054 85.6858783,64.9682053 C85.4498771,64.9482052 85.2178795,64.9222055 84.9898783,64.8902053 C84.7618772,64.8582052 84.5438794,64.8202055 84.3358783,64.7762053 C84.1278773,64.7322051 83.9438791,64.6862056 83.7838783,64.6382053 L83.7838783,55.8182053 L85.5718783,55.5302053 L85.5718783,58.6742053 C85.7718793,58.5862049 85.9798772,58.5182056 86.1958783,58.4702053 C86.4118794,58.4222051 86.6438771,58.3982053 86.8918783,58.3982053 C87.3398806,58.3982053 87.7358766,58.4762045 88.0798783,58.6322053 C88.42388,58.7882061 88.7118772,59.0102039 88.9438783,59.2982053 C89.1758795,59.5862068 89.3518777,59.9322033 89.4718783,60.3362053 C89.5918789,60.7402073 89.6518783,61.1902028 89.6518783,61.6862053 Z M93.4438783,63.5942053 C93.6198792,63.5942053 93.7878775,63.5902054 93.9478783,63.5822053 C94.1078791,63.5742053 94.2358778,63.5622054 94.3318783,63.5462053 L94.3318783,62.1902053 C94.259878,62.1742052 94.151879,62.1582054 94.0078783,62.1422053 C93.8638776,62.1262052 93.7318789,62.1182053 93.6118783,62.1182053 C93.4438775,62.1182053 93.2858791,62.1282052 93.1378783,62.1482053 C92.9898776,62.1682054 92.8598789,62.206205 92.7478783,62.2622053 C92.6358778,62.3182056 92.5478786,62.3942048 92.4838783,62.4902053 C92.419878,62.5862058 92.3878783,62.7062046 92.3878783,62.8502053 C92.3878783,63.1302067 92.4818774,63.3242048 92.6698783,63.4322053 C92.8578793,63.5402059 93.1158767,63.5942053 93.4438783,63.5942053 Z M93.2998783,58.3622053 C93.827881,58.3622053 94.2678766,58.4222047 94.6198783,58.5422053 C94.9718801,58.6622059 95.2538773,58.8342042 95.4658783,59.0582053 C95.6778794,59.2822064 95.8278779,59.5542037 95.9158783,59.8742053 C96.0038788,60.1942069 96.0478783,60.5502034 96.0478783,60.9422053 L96.0478783,64.6622053 C95.791877,64.7182056 95.4358806,64.7842049 94.9798783,64.8602053 C94.523876,64.9362057 93.9718816,64.9742053 93.3238783,64.9742053 C92.9158763,64.9742053 92.54588,64.9382057 92.2138783,64.8662053 C91.8818767,64.794205 91.5958795,64.6762061 91.3558783,64.5122053 C91.1158771,64.3482045 90.931879,64.1342066 90.8038783,63.8702053 C90.6758777,63.606204 90.6118783,63.2822072 90.6118783,62.8982053 C90.6118783,62.5302035 90.6858776,62.2182066 90.8338783,61.9622053 C90.9818791,61.706204 91.1798771,61.5022061 91.4278783,61.3502053 C91.6758796,61.1982046 91.9598767,61.0882057 92.2798783,61.0202053 C92.5998799,60.952205 92.9318766,60.9182053 93.2758783,60.9182053 C93.5078795,60.9182053 93.7138774,60.9282052 93.8938783,60.9482053 C94.0738792,60.9682054 94.2198778,60.9942052 94.3318783,61.0262053 L94.3318783,60.8582053 C94.3318783,60.5542038 94.2398792,60.3102062 94.0558783,60.1262053 C93.8718774,59.9422044 93.5518806,59.8502053 93.0958783,59.8502053 C92.7918768,59.8502053 92.4918798,59.8722051 92.1958783,59.9162053 C91.8998768,59.9602055 91.6438794,60.0222049 91.4278783,60.1022053 L91.1998783,58.6622053 C91.3038788,58.6302052 91.4338775,58.5962055 91.5898783,58.5602053 C91.7458791,58.5242051 91.9158774,58.4922055 92.0998783,58.4642053 C92.2838792,58.4362052 92.4778773,58.4122054 92.6818783,58.3922053 C92.8858793,58.3722052 93.0918773,58.3622053 93.2998783,58.3622053 Z M97.6078783,56.9582053 L99.3958783,56.6702053 L99.3958783,58.5302053 L101.543878,58.5302053 L101.543878,60.0182053 L99.3958783,60.0182053 L99.3958783,62.2382053 C99.3958783,62.6142072 99.4618777,62.9142042 99.5938783,63.1382053 C99.725879,63.3622064 99.9918763,63.4742053 100.391878,63.4742053 C100.583879,63.4742053 100.781877,63.4562055 100.985878,63.4202053 C101.189879,63.3842051 101.375877,63.3342056 101.543878,63.2702053 L101.795878,64.6622053 C101.579877,64.7502058 101.33988,64.826205 101.075878,64.8902053 C100.811877,64.9542056 100.48788,64.9862053 100.103878,64.9862053 C99.6158759,64.9862053 99.2118799,64.920206 98.8918783,64.7882053 C98.5718767,64.6562047 98.3158793,64.4722065 98.1238783,64.2362053 C97.9318774,64.0002041 97.7978787,63.714207 97.7218783,63.3782053 C97.6458779,63.0422036 97.6078783,62.6702053 97.6078783,62.2622053 L97.6078783,56.9582053 Z M102.455878,61.6862053 C102.455878,61.230203 102.529878,60.8002073 102.677878,60.3962053 C102.825879,59.9922033 103.039877,59.6402068 103.319878,59.3402053 C103.59988,59.0402038 103.939876,58.8022062 104.339878,58.6262053 C104.73988,58.4502044 105.195876,58.3622053 105.707878,58.3622053 C106.04388,58.3622053 106.351877,58.392205 106.631878,58.4522053 C106.91188,58.5122056 107.183877,58.5982048 107.447878,58.7102053 L107.075878,60.1382053 C106.907877,60.074205 106.723879,60.0182056 106.523878,59.9702053 C106.323877,59.9222051 106.09988,59.8982053 105.851878,59.8982053 C105.323876,59.8982053 104.92988,60.0622037 104.669878,60.3902053 C104.409877,60.718207 104.279878,61.1502026 104.279878,61.6862053 C104.279878,62.2542082 104.401877,62.6942038 104.645878,63.0062053 C104.88988,63.3182069 105.315875,63.4742053 105.923878,63.4742053 C106.139879,63.4742053 106.371877,63.4542055 106.619878,63.4142053 C106.86788,63.3742051 107.095877,63.3102058 107.303878,63.2222053 L107.555878,64.6862053 C107.347877,64.7742058 107.08788,64.850205 106.775878,64.9142053 C106.463877,64.9782056 106.11988,65.0102053 105.743878,65.0102053 C105.167875,65.0102053 104.67188,64.9242062 104.255878,64.7522053 C103.839876,64.5802045 103.49788,64.3462068 103.229878,64.0502053 C102.961877,63.7542038 102.765879,63.4042073 102.641878,63.0002053 C102.517878,62.5962033 102.455878,62.1582077 102.455878,61.6862053 Z M108.755878,64.8422053 L108.755878,55.8182053 L110.543878,55.5302053 L110.543878,58.5542053 C110.663879,58.5142051 110.817877,58.4762055 111.005878,58.4402053 C111.193879,58.4042051 111.375877,58.3862053 111.551878,58.3862053 C112.063881,58.3862053 112.489877,58.4562046 112.829878,58.5962053 C113.16988,58.736206 113.441877,58.934204 113.645878,59.1902053 C113.849879,59.4462066 113.993878,59.7502036 114.077878,60.1022053 C114.161879,60.4542071 114.203878,60.8462032 114.203878,61.2782053 L114.203878,64.8422053 L112.415878,64.8422053 L112.415878,61.4942053 C112.415878,60.9182024 112.341879,60.5102065 112.193878,60.2702053 C112.045878,60.0302041 111.77188,59.9102053 111.371878,59.9102053 C111.211878,59.9102053 111.061879,59.9242052 110.921878,59.9522053 C110.781878,59.9802055 110.655879,60.0102052 110.543878,60.0422053 L110.543878,64.8422053 L108.755878,64.8422053 Z" id="batch" fill="#001B3D"></path>
            </g>
            <g id="Service" transform="translate(403.193916, 77.907795)" fill-rule="nonzero">
                <polygon id="Line-3" fill="#E1E6EA" points="63.9948335 17.0810401 0.211525753 17.2638003 0.206732065 15.5908033 63.9900398 15.4080431 63.9780556 11.2255508 74.0304183 16.2157795 64.0068177 21.2635324 63.9948335 17.0810401"></polygon>
                <path d="M92.8538337,61.567122 C93.1795575,61.567122 93.4099441,61.5353445 93.5450003,61.4717887 C93.6800565,61.4082328 93.7475837,61.2850951 93.7475837,61.102372 C93.7475837,60.9593713 93.6601956,60.8342475 93.485417,60.726997 C93.3106383,60.6197465 93.0445021,60.4985949 92.6870003,60.3635387 C92.4089434,60.2602604 92.1567098,60.1530114 91.930292,60.0417887 C91.7038742,59.9305659 91.5112233,59.7974978 91.3523337,59.6425803 C91.193444,59.4876629 91.0703063,59.3029564 90.982917,59.0884553 C90.8955277,58.8739543 90.8518337,58.6157624 90.8518337,58.313872 C90.8518337,57.7259802 91.0703037,57.2612348 91.5072503,56.919622 C91.9441969,56.5780092 92.5439965,56.4072053 93.306667,56.4072053 C93.6880022,56.4072053 94.053443,56.4409689 94.4030003,56.508497 C94.7525576,56.5760251 95.0306104,56.6495105 95.237167,56.7289553 L94.9273337,58.1112887 C94.7207771,58.0397883 94.4963488,57.9762334 94.254042,57.920622 C94.0117352,57.8650106 93.7396407,57.8372053 93.4377503,57.8372053 C92.8816364,57.8372053 92.6035837,57.9921204 92.6035837,58.3019553 C92.6035837,58.3734557 92.6155002,58.4370106 92.6393337,58.492622 C92.6631671,58.5482334 92.7108333,58.6018578 92.7823337,58.653497 C92.853834,58.7051361 92.9511525,58.7607467 93.074292,58.8203303 C93.1974315,58.879914 93.3543327,58.945455 93.5450003,59.0169553 C93.93428,59.159956 94.2560268,59.3009685 94.5102503,59.439997 C94.7644738,59.5790255 94.965069,59.7299684 95.112042,59.8928303 C95.2590149,60.0556922 95.3622917,60.2364266 95.4218753,60.4350387 C95.4814589,60.6336508 95.5112503,60.8640373 95.5112503,61.1262053 C95.5112503,61.7458751 95.2788776,62.2145926 94.8141253,62.532372 C94.349373,62.8501514 93.6919768,63.0090387 92.841917,63.0090387 C92.2858031,63.0090387 91.8230438,62.9613725 91.4536253,62.8660387 C91.0842068,62.7707048 90.828001,62.6912612 90.6850003,62.6277053 L90.982917,61.1857887 C91.2848074,61.3049559 91.5946376,61.3983022 91.912417,61.4658303 C92.2301964,61.5333584 92.5439988,61.567122 92.8538337,61.567122 Z M96.5360837,59.7557887 C96.5360837,59.1996748 96.6214856,58.7130824 96.792292,58.295997 C96.9630984,57.8789116 97.1875267,57.5313456 97.4655837,57.2532887 C97.7436406,56.9752317 98.0634013,56.764706 98.4248753,56.6217053 C98.7863493,56.4787046 99.1577484,56.4072053 99.5390837,56.4072053 C100.428866,56.4072053 101.131942,56.6792998 101.648334,57.223497 C102.164725,57.7676942 102.422917,58.5680889 102.422917,59.6247053 C102.422917,59.7279836 102.418945,59.8411908 102.411,59.9643303 C102.403056,60.0874698 102.395111,60.1967048 102.387167,60.2920387 L98.3593337,60.2920387 C98.3990561,60.6574849 98.5698599,60.9474543 98.8717503,61.1619553 C99.1736407,61.3764564 99.5788033,61.4837053 100.08725,61.4837053 C100.412974,61.4837053 100.732735,61.453914 101.046542,61.3943303 C101.360349,61.3347467 101.616555,61.2612613 101.815167,61.173872 L102.0535,62.6157887 C101.958167,62.6634556 101.831057,62.7111218 101.672167,62.7587887 C101.513277,62.8064556 101.336515,62.8481635 101.141875,62.8839137 C100.947235,62.9196638 100.738696,62.9494552 100.51625,62.9732887 C100.293805,62.9971221 100.071363,63.0090387 99.848917,63.0090387 C99.2848586,63.0090387 98.7942941,62.9256228 98.3772087,62.7587887 C97.9601232,62.5919545 97.6145434,62.363554 97.3404587,62.0735803 C97.0663739,61.7836067 96.8637926,61.4400129 96.7327087,61.0427887 C96.6016247,60.6455644 96.5360837,60.2165687 96.5360837,59.7557887 Z M100.706917,59.0765387 C100.698972,58.9255935 100.673153,58.7786227 100.629459,58.635622 C100.585764,58.4926213 100.518237,58.3655114 100.426875,58.2542887 C100.335514,58.1430659 100.22032,58.0517057 100.081292,57.9802053 C99.9422635,57.908705 99.7694736,57.8729553 99.562917,57.8729553 C99.3643049,57.8729553 99.193501,57.9067189 99.0505003,57.974247 C98.9074996,58.0417751 98.7883341,58.1311492 98.6930003,58.242372 C98.5976665,58.3535948 98.5241811,58.4826907 98.472542,58.6296637 C98.4209028,58.7766366 98.3831671,58.9255935 98.3593337,59.0765387 L100.706917,59.0765387 Z M107.570917,58.1470387 C107.412027,58.1073162 107.225335,58.0656083 107.010834,58.0219137 C106.796333,57.978219 106.565946,57.956372 106.319667,57.956372 C106.208444,57.956372 106.075376,57.9663024 105.920459,57.9861637 C105.765541,58.0060249 105.648362,58.0278719 105.568917,58.0517053 L105.568917,62.8422053 L103.793334,62.8422053 L103.793334,56.9077053 C104.111113,56.7964825 104.486484,56.6912197 104.919459,56.5919137 C105.352433,56.4926076 105.835053,56.4429553 106.367334,56.4429553 C106.462667,56.4429553 106.577861,56.4489136 106.712917,56.4608303 C106.847973,56.472747 106.983027,56.4886358 107.118084,56.508497 C107.25314,56.5283582 107.388194,56.5521913 107.52325,56.579997 C107.658307,56.6078027 107.7735,56.6415662 107.868834,56.6812887 L107.570917,58.1470387 Z M110.895667,62.8422053 C110.490498,62.0477569 110.079377,61.1182662 109.662292,60.0537053 C109.245207,58.9891444 108.849974,57.8292672 108.476584,56.5740387 L110.359417,56.5740387 C110.438862,56.8838735 110.532208,57.219523 110.639459,57.580997 C110.746709,57.942471 110.85793,58.3079118 110.973125,58.6773303 C111.08832,59.0467488 111.203514,59.4062314 111.318709,59.7557887 C111.433904,60.105346 111.547111,60.4231206 111.658334,60.709122 C111.761612,60.4231206 111.872833,60.105346 111.992,59.7557887 C112.111168,59.4062314 112.228347,59.0467488 112.343542,58.6773303 C112.458737,58.3079118 112.569958,57.942471 112.677209,57.580997 C112.784459,57.219523 112.877805,56.8838735 112.95725,56.5740387 L114.792417,56.5740387 C114.419026,57.8292672 114.023794,58.9891444 113.606709,60.0537053 C113.189623,61.1182662 112.778502,62.0477569 112.373334,62.8422053 L110.895667,62.8422053 Z M117.521334,62.8422053 L115.74575,62.8422053 L115.74575,56.5740387 L117.521334,56.5740387 L117.521334,62.8422053 Z M117.688167,54.7627053 C117.688167,55.0884292 117.582904,55.3446349 117.372375,55.5313303 C117.161846,55.7180257 116.913585,55.811372 116.627584,55.811372 C116.341582,55.811372 116.093321,55.7180257 115.882792,55.5313303 C115.672263,55.3446349 115.567,55.0884292 115.567,54.7627053 C115.567,54.4369815 115.672263,54.1807757 115.882792,53.9940803 C116.093321,53.8073849 116.341582,53.7140387 116.627584,53.7140387 C116.913585,53.7140387 117.161846,53.8073849 117.372375,53.9940803 C117.582904,54.1807757 117.688167,54.4369815 117.688167,54.7627053 Z M118.89175,59.708122 C118.89175,59.2552864 118.965236,58.8282768 119.112209,58.4270803 C119.259182,58.0258839 119.471693,57.6763318 119.74975,57.3784137 C120.027807,57.0804955 120.365443,56.8441506 120.762667,56.669372 C121.159891,56.4945933 121.61272,56.4072053 122.121167,56.4072053 C122.454835,56.4072053 122.760693,56.4369967 123.03875,56.4965803 C123.316807,56.556164 123.586916,56.6415659 123.849084,56.7527887 L123.479667,58.170872 C123.312833,58.1073161 123.130112,58.0517056 122.9315,58.0040387 C122.732888,57.9563718 122.510446,57.9325387 122.264167,57.9325387 C121.739831,57.9325387 121.348571,58.0953981 121.090375,58.421122 C120.83218,58.7468458 120.703084,59.1758416 120.703084,59.708122 C120.703084,60.2721804 120.824235,60.7091204 121.066542,61.0189553 C121.308849,61.3287902 121.731886,61.4837053 122.335667,61.4837053 C122.550168,61.4837053 122.780555,61.4638444 123.026834,61.424122 C123.273113,61.3843996 123.499527,61.3208446 123.706084,61.2334553 L123.956334,62.6872887 C123.749777,62.774678 123.491585,62.8501494 123.18175,62.9137053 C122.871915,62.9772612 122.530308,63.0090387 122.156917,63.0090387 C121.584914,63.0090387 121.092363,62.9236367 120.67925,62.7528303 C120.266137,62.5820239 119.926516,62.3496512 119.660375,62.0557053 C119.394235,61.7617594 119.199598,61.4141934 119.076459,61.012997 C118.953319,60.6118005 118.89175,60.1768466 118.89175,59.708122 Z M124.552167,59.7557887 C124.552167,59.1996748 124.637569,58.7130824 124.808375,58.295997 C124.979182,57.8789116 125.20361,57.5313456 125.481667,57.2532887 C125.759724,56.9752317 126.079485,56.764706 126.440959,56.6217053 C126.802433,56.4787046 127.173832,56.4072053 127.555167,56.4072053 C128.444949,56.4072053 129.148026,56.6792998 129.664417,57.223497 C130.180808,57.7676942 130.439,58.5680889 130.439,59.6247053 C130.439,59.7279836 130.435028,59.8411908 130.427084,59.9643303 C130.419139,60.0874698 130.411195,60.1967048 130.40325,60.2920387 L126.375417,60.2920387 C126.415139,60.6574849 126.585943,60.9474543 126.887834,61.1619553 C127.189724,61.3764564 127.594887,61.4837053 128.103334,61.4837053 C128.429058,61.4837053 128.748818,61.453914 129.062625,61.3943303 C129.376432,61.3347467 129.632638,61.2612613 129.83125,61.173872 L130.069584,62.6157887 C129.97425,62.6634556 129.84714,62.7111218 129.68825,62.7587887 C129.529361,62.8064556 129.352599,62.8481635 129.157959,62.8839137 C128.963319,62.9196638 128.754779,62.9494552 128.532334,62.9732887 C128.309888,62.9971221 128.087446,63.0090387 127.865,63.0090387 C127.300942,63.0090387 126.810377,62.9256228 126.393292,62.7587887 C125.976207,62.5919545 125.630627,62.363554 125.356542,62.0735803 C125.082457,61.7836067 124.879876,61.4400129 124.748792,61.0427887 C124.617708,60.6455644 124.552167,60.2165687 124.552167,59.7557887 Z M128.723,59.0765387 C128.715056,58.9255935 128.689237,58.7786227 128.645542,58.635622 C128.601847,58.4926213 128.53432,58.3655114 128.442959,58.2542887 C128.351597,58.1430659 128.236404,58.0517057 128.097375,57.9802053 C127.958347,57.908705 127.785557,57.8729553 127.579,57.8729553 C127.380388,57.8729553 127.209584,57.9067189 127.066584,57.974247 C126.923583,58.0417751 126.804417,58.1311492 126.709084,58.242372 C126.61375,58.3535948 126.540264,58.4826907 126.488625,58.6296637 C126.436986,58.7766366 126.39925,58.9255935 126.375417,59.0765387 L128.723,59.0765387 Z" id="service" fill="#001B3D"></path>
                <g id="mobileme-logo-of-black-cloud" transform="translate(87.083333, 0.500000)" fill="#000000">
                    <path d="M47.2588599,22.7164284 C47.2588599,27.8786587 43.104288,32.0635559 37.9813927,32.0635559 L9.27581906,32.0635559 C4.15303368,32.0635559 0,27.8786587 0,22.7164284 C0,18.0541267 3.38698916,14.1918208 7.81822489,13.4851084 C7.76207905,13.1579024 7.73109446,12.8212471 7.73109446,12.4747032 C7.73109446,9.20385131 10.3628068,6.55269121 13.6100357,6.55269121 C15.0581807,6.55269121 16.385244,7.08030822 17.4090539,7.95820491 C19.234288,3.81429081 21.5741738,0.0325228311 28.1385117,0.0325228311 C36.0995733,0.0325228311 39.8727711,6.21878282 39.8727711,12.7466424 C39.8727711,13.0196804 39.8613442,13.2901912 39.8429951,13.5578453 C44.0744792,14.4266224 47.2588599,18.1966338 47.2588599,22.7164284 Z" id="MobileMe"></path>
                </g>
            </g>
            <g id="Sink" transform="translate(107.954373, 0.724968)" fill-rule="nonzero">
                <polygon id="Line-4" fill="#000000" points="1.04562738 22.2750317 331.045627 22.2750317 331.045627 20.2750317 1.04562738 20.2750317"></polygon>
                <polygon id="Line-5" fill="#000000" points="0.372623574 20.5589354 0.372623574 34.7794677 2.04562738 34.7794677 2.04562738 20.5589354"></polygon>
                <polygon id="Line-5" fill="#000000" points="329.790875 20.5589354 329.790875 34.7794677 331.463878 34.7794677 331.463878 20.5589354"></polygon>
                <path d="M149.220562,6.71488831 C149.220562,5.00757486 150.723651,3.87208888 152.970116,3.87208888 C155.257426,3.87208888 156.605305,4.82785765 156.736009,6.55150903 L154.538558,6.55150903 C154.416023,5.9715126 153.868702,5.61207818 152.986454,5.61207818 C152.136882,5.61207818 151.507872,5.99601949 151.507872,6.56784696 C151.507872,7.00897101 151.891813,7.27854682 152.725048,7.46643298 L154.416023,7.83403636 C156.164181,8.21797766 156.948402,8.95318441 156.948402,10.3010635 C156.948402,12.0982355 155.339116,13.2745663 152.978285,13.2745663 C150.601117,13.2745663 149.163379,12.3024596 149,10.5706393 L151.319986,10.5706393 C151.499703,11.1833115 152.079699,11.534577 153.027299,11.534577 C153.950392,11.534577 154.587571,11.1506357 154.587571,10.5706393 C154.587571,10.1295152 154.244475,9.8599394 153.452085,9.68839116 L151.818293,9.32078779 C150.070134,8.93684648 149.220562,8.10361217 149.220562,6.71488831 Z M158.917122,13.0785112 L158.917122,4.06814401 L161.294291,4.06814401 L161.294291,13.0785112 L158.917122,13.0785112 Z M160.109791,2.72026497 C159.374584,2.72026497 158.761912,2.11576164 158.761912,1.356048 C158.761912,0.596334363 159.374584,8.8817842e-16 160.109791,8.8817842e-16 C160.853167,8.8817842e-16 161.45767,0.596334363 161.45767,1.356048 C161.45767,2.11576164 160.853167,2.72026497 160.109791,2.72026497 Z M163.695966,13.0785112 L163.695966,4.06814401 L165.999614,4.06814401 L165.999614,5.51405062 L166.146655,5.51405062 C166.563272,4.5010991 167.478196,3.87208888 168.809737,3.87208888 C170.811134,3.87208888 171.889437,5.09743346 171.889437,7.25403992 L171.889437,13.0785112 L169.512268,13.0785112 L169.512268,7.81769843 C169.512268,6.57601592 168.981286,5.92249881 167.853969,5.92249881 C166.751159,5.92249881 166.073135,6.69855038 166.073135,7.88305014 L166.073135,13.0785112 L163.695966,13.0785112 Z M176.798984,7.58896744 L179.813332,4.06814401 L182.517259,4.06814401 L179.086294,7.93206393 L182.754159,13.0785112 L179.935866,13.0785112 L177.30546,9.41881535 L176.651943,10.0886704 L176.651943,13.0785112 L174.274774,13.0785112 L174.274774,0.629010219 L176.651943,0.629010219 L176.651943,7.58896744 L176.798984,7.58896744 Z" id="sink" fill="#001B3D"></path>
            </g>
        </g>
    </g>
</svg>