<?xml version="1.0" encoding="UTF-8"?>
<svg width="650px" height="200px" viewBox="0 0 650 200" version="1.1" xmlns="http://www.w3.org/2000/svg" xmlns:xlink="http://www.w3.org/1999/xlink">
    <!-- Generator: Sketch 61.2 (89653) - https://sketch.com -->
    <title>Custom Preset</title>
    <desc>Created with Sketch.</desc>
    <g id="Custom-Preset" stroke="none" stroke-width="1" fill="none" fill-rule="evenodd">
        <g id="Logo" transform="translate(44.000000, 41.000000)">
            <path d="M228.640877,66.4502468 L241.489899,66.4502468 L252.367378,93.4005645 L263.380826,66.4502468 L276.161864,66.4502468 L256.854338,110.725769 L247.676465,110.725769 L228.640877,66.4502468 Z M322.873514,66.4502468 L322.873514,76.2081205 L308.86876,76.2081205 L308.86876,83.5763107 L322.125687,83.5763107 L322.125687,93.3341844 L308.86876,93.3341844 L308.86876,100.967895 L322.873514,100.967895 L322.873514,110.725769 L297.107486,110.725769 L297.107486,66.4502468 L322.873514,66.4502468 Z M379.102959,95.923008 L379.102959,109.530927 C374.412046,111.190429 371.828645,111.72147 368.905322,111.72147 C361.01915,111.72147 355.104521,108.667986 351.365387,105.083461 C346.946411,100.768755 344.498978,94.7281663 344.498978,88.9530982 C344.498978,82.6469894 347.286332,76.6727811 351.365387,72.6235955 C355.376458,68.6407899 361.427055,65.7200658 368.497417,65.7200658 C370.672913,65.7200658 374.208093,66.0519663 379.102959,67.976989 L379.102959,81.7176681 C375.295841,77.1374418 370.808881,76.8719214 368.837338,76.8719214 C365.438126,76.8719214 362.854724,77.8676228 360.679229,79.7926455 C357.891875,82.315089 356.736142,85.7668538 356.736142,88.8867182 C356.736142,91.9402024 358.027843,95.3255871 360.407292,97.5161302 C362.378835,99.3083927 365.50611,100.569614 368.837338,100.569614 C370.604928,100.569614 374.95592,100.370474 379.102959,95.923008 Z M431.253349,76.2081205 L421.599586,76.2081205 L421.599586,110.725769 L409.838312,110.725769 L409.838312,76.2081205 L400.184549,76.2081205 L400.184549,66.4502468 L431.253349,66.4502468 L431.253349,76.2081205 Z M500.671737,88.6211978 C500.671737,94.4626459 498.360273,100.635995 493.533391,105.149841 C488.910463,109.464547 482.383975,111.72147 475.653535,111.72147 C468.923095,111.72147 462.396607,109.464547 457.773679,105.149841 C452.946797,100.635995 450.635333,94.4626459 450.635333,88.6211978 C450.635333,82.7133695 452.946797,76.4736408 457.773679,72.0261746 C462.396607,67.7114686 468.923095,65.4545455 475.653535,65.4545455 C482.383975,65.4545455 488.910463,67.7114686 493.533391,72.0261746 C498.360273,76.4736408 500.671737,82.7133695 500.671737,88.6211978 Z M475.653535,76.606401 C472.390291,76.606401 468.923095,77.7348626 466.475662,80.1245459 C464.028229,82.4478492 462.872497,85.7004737 462.872497,88.8203381 C462.872497,92.7367635 464.776056,95.4583473 466.475662,97.0514695 C468.651158,99.1092524 471.710449,100.569614 475.653535,100.569614 C479.664605,100.569614 482.655912,99.1756325 484.763424,97.1178496 C486.870935,95.0600668 488.434573,92.0065825 488.434573,88.6211978 C488.434573,85.169433 486.870935,82.1159487 484.763424,80.1245459 C482.248007,77.8012427 478.78081,76.606401 475.653535,76.606401 Z M524.336729,66.4502468 L542.692475,66.4502468 C546.091687,66.4502468 550.442678,66.9812876 553.773906,70.3666723 C556.357308,72.9554959 557.649008,76.8055413 557.649008,80.3236862 C557.649008,84.1073515 556.289323,87.4263561 554.045843,89.5505191 C552.278253,91.2100214 549.898805,92.2057228 547.791293,92.6040033 L562,110.725769 L547.383387,110.725769 L536.098003,93.7324649 L536.098003,110.725769 L524.336729,110.725769 L524.336729,66.4502468 Z M536.098003,75.3451793 L536.098003,86.2978945 L538.341483,86.2978945 C540.109073,86.2978945 542.62449,85.8332339 544.05216,84.505632 C544.935955,83.6426908 545.547813,82.1823288 545.547813,80.7883469 C545.547813,79.460745 545.003939,78.000383 543.984175,77.0710617 C542.896427,76.0089802 540.924884,75.3451793 538.341483,75.3451793 L536.098003,75.3451793 Z" id="Words" fill="#000000"></path>
            <path d="M238.263752,38.2978723 L234.352104,38.2978723 L234.352104,16.6730386 L226.424032,16.6730386 L226.424032,13.1125332 L246.174361,13.1125332 L246.174361,16.6730386 L238.263752,16.6730386 L238.263752,38.2978723 Z M250.243173,38.2978723 L250.243173,19.2910572 L253.980194,19.2910572 L253.980194,38.2978723 L250.243173,38.2978723 Z M252.111683,15.9923537 C250.80198,15.9923537 249.736754,14.8927859 249.736754,13.5488697 C249.736754,12.1875 250.80198,11.0879322 252.111683,11.0879322 C253.421387,11.0879322 254.486612,12.1875 254.486612,13.5488697 C254.486612,14.8927859 253.421387,15.9923537 252.111683,15.9923537 Z M259.498411,38.2978723 L259.498411,19.2910572 L263.113192,19.2910572 L263.113192,22.3454122 L263.392596,22.3454122 C264.230806,20.198637 266.151705,18.9245346 268.683798,18.9245346 C271.285742,18.9245346 273.084402,20.2684508 273.922612,22.3454122 L274.219478,22.3454122 C275.179927,20.2684508 277.362766,18.9245346 279.999636,18.9245346 C283.841433,18.9245346 286.07666,21.2458444 286.07666,25.2077793 L286.07666,38.2978723 L282.322177,38.2978723 L282.322177,26.1851729 C282.322177,23.6195146 281.099787,22.3628657 278.637544,22.3628657 C276.210227,22.3628657 274.62112,24.1082114 274.62112,26.342254 L274.62112,38.2978723 L270.936488,38.2978723 L270.936488,25.8186503 C270.936488,23.671875 269.504545,22.3628657 267.269318,22.3628657 C264.981703,22.3628657 263.252894,24.2303856 263.252894,26.6738697 L263.252894,38.2978723 L259.498411,38.2978723 Z M301.426385,38.6120346 C298.772053,38.6120346 296.554288,37.3902926 295.419212,35.2958777 L295.139808,35.2958777 L295.139808,38.2978723 L291.525027,38.2978723 L291.525027,11.8733378 L295.27951,11.8733378 L295.27951,22.3105053 L295.576376,22.3105053 C296.589213,20.2335439 298.824441,18.9768949 301.426385,18.9768949 C306.246094,18.9768949 309.284606,22.7468418 309.284606,28.785738 C309.284606,34.8071809 306.228631,38.6120346 301.426385,38.6120346 Z M300.343697,22.3454122 C297.200408,22.3454122 295.227122,24.8238032 295.209659,28.8031915 C295.227122,32.7825798 297.182946,35.2435173 300.343697,35.2435173 C303.521911,35.2435173 305.425346,32.8174867 305.425346,28.785738 C305.425346,24.7888963 303.521911,22.3454122 300.343697,22.3454122 Z M321.595819,22.1185173 C318.819247,22.1185173 316.880886,24.0733045 316.671333,27.0403923 L326.275826,27.0403923 C326.188512,24.0558511 324.37239,22.1185173 321.595819,22.1185173 Z M326.258363,33.1665559 L329.873145,33.1665559 C329.052397,36.5525266 325.97896,38.6643949 321.630744,38.6643949 C316.182377,38.6643949 312.846999,34.9293551 312.846999,28.8555519 C312.846999,22.7817487 316.252228,18.9245346 321.613281,18.9245346 C326.904483,18.9245346 330.10016,22.5374003 330.10016,28.5064827 L330.10016,29.815492 L316.671333,29.815492 L316.671333,30.0249335 C316.793572,33.3585439 318.731934,35.4704122 321.73552,35.4704122 C324.005673,35.4704122 325.559854,34.6500997 326.258363,33.1665559 Z M334.60554,38.2978723 L334.60554,19.2910572 L338.220321,19.2910572 L338.220321,22.2057846 L338.499725,22.2057846 C339.041069,20.3382646 341.154057,18.9768949 343.633762,18.9768949 C344.192569,18.9768949 344.90854,19.0292553 345.310183,19.1339761 L345.310183,22.834109 C344.995854,22.7293883 343.87824,22.6072141 343.214657,22.6072141 C340.368235,22.6072141 338.360023,24.4049202 338.360023,27.0752992 L338.360023,38.2978723 L334.60554,38.2978723 Z M349.291681,38.5945811 C347.824814,38.5945811 346.724663,37.4601064 346.724663,35.994016 C346.724663,34.5279255 347.824814,33.3934508 349.291681,33.3934508 C350.776012,33.3934508 351.8587,34.5279255 351.8587,35.994016 C351.8587,37.4601064 350.776012,38.5945811 349.291681,38.5945811 Z M357.708709,38.2978723 L357.708709,19.2910572 L361.44573,19.2910572 L361.44573,38.2978723 L357.708709,38.2978723 Z M359.577219,15.9923537 C358.267516,15.9923537 357.20229,14.8927859 357.20229,13.5488697 C357.20229,12.1875 358.267516,11.0879322 359.577219,11.0879322 C360.886923,11.0879322 361.952148,12.1875 361.952148,13.5488697 C361.952148,14.8927859 360.886923,15.9923537 359.577219,15.9923537 Z M374.996795,38.6643949 C369.42619,38.6643949 366.020961,34.9468085 366.020961,28.785738 C366.020961,22.6595745 369.443652,18.9245346 374.996795,18.9245346 C380.532475,18.9245346 383.955167,22.6595745 383.955167,28.785738 C383.955167,34.9468085 380.549938,38.6643949 374.996795,38.6643949 Z M374.996795,35.3307846 C378.24486,35.3307846 380.095907,32.9222074 380.095907,28.785738 C380.095907,24.6667221 378.24486,22.2581449 374.996795,22.2581449 C371.731268,22.2581449 369.897683,24.6667221 369.897683,28.785738 C369.897683,32.9396609 371.731268,35.3307846 374.996795,35.3307846 Z" id="Timber.io" fill="#000000" fill-rule="nonzero"></path>
            <g fill="#10E7FF">
                <polygon id="Rectangle" points="170.175817 0 200.198318 1.66903243e-12 128.698919 117.915573 113.864676 93.5145339"></polygon>
                <polygon id="Triangle-Copy" transform="translate(71.123087, 58.647482) scale(1, -1) translate(-71.123087, -58.647482) " points="71.1230868 9.09494702e-13 142.246174 117.294965 106.769909 117.294965 71.8506246 59.9507598 36.914437 117.294965 0 117.294965"></polygon>
            </g>
        </g>
    </g>
</svg>