<svg width="1564" height="502" viewBox="0 0 1564 502" xmlns="http://www.w3.org/2000/svg">
  <g fill="none" fill-rule="evenodd">
    <path fill="#000000" fill-rule="nonzero" d="M793.167 133.537l-.78 81.477-3-.028.78-81.478-8-.076 9.681-18.908 9.318 19.09-8-.077z"/>
    <g fill="#000000">
      <path d="M867.974 357.717l.549.315c.234.13.52.287.859.468l.43.228a109.49 109.49 0 004.935 2.422l.53.244c6.103 2.795 13.618 5.755 22.612 8.75a2 2 0 101.264-3.794l-1.811-.61c-8.058-2.741-14.84-5.436-20.4-7.983l-1.012-.469a105.606 105.606 0 01-3.89-1.91l-.365-.19c-.299-.157-.57-.302-.813-.435l-.836-.47a2 2 0 00-2.052 3.434zm49.174 18.209c9.651 2.612 20.079 5.048 31.303 7.267a2 2 0 10.776-3.924c-11.134-2.202-21.472-4.616-31.034-7.204a2 2 0 00-1.045 3.86zm51.071 10.808a671.984 671.984 0 0031.8 4.335 2 2 0 00.447-3.975 667.988 667.988 0 01-31.609-4.309 2 2 0 10-.638 3.95zm51.739 6.32a958.714 958.714 0 0031.99 2.223 2 2 0 00.213-3.995 954.727 954.727 0 01-31.857-2.213 2 2 0 00-.346 3.985zm52.001 3.11c10.527.376 21.22.62 32.038.743a2 2 0 00.046-4 1311.14 1311.14 0 01-31.941-.74 2 2 0 00-.143 3.997zm52.068.832c10.77-.025 21.47-.163 32.035-.4a2 2 0 00-.09-4c-10.54.238-21.213.375-31.955.4a2 2 0 00.01 4zm52.06-.975l3.635-.131c1.805-.067 3.59-.137 5.357-.209a2 2 0 10-.162-3.996l-3.55.14c-1.788.068-3.595.135-5.42.198a2 2 0 10.14 3.998z" fill-rule="nonzero"/>
      <path d="M1207 392.874L1185 387l.974 14z"/>
      <path d="M1213.449 392.524l-29.282 11.319-1.356-19.498 30.638 8.18zm-25.668 5.633l12.77-4.936-13.362-3.566.592 8.502z" fill-rule="nonzero"/>
    </g>
    <g fill="#000000">
      <path d="M862.31 243.51l.153-.125c.07-.055.158-.125.266-.208l.242-.183a42.852 42.852 0 012.371-1.637 2 2 0 00-2.173-3.358l-.572.374c-1.46.967-2.41 1.685-2.908 2.116a2 2 0 102.622 3.022zm14.205-8.28a161.237 161.237 0 013.583-1.665 2 2 0 00-1.643-3.647c-1.27.572-2.494 1.14-3.671 1.706a2 2 0 101.73 3.606zM892 228.667c1.214-.459 2.455-.917 3.723-1.374a2 2 0 00-1.357-3.763c-1.287.464-2.547.93-3.78 1.396a2 2 0 101.414 3.741zm15.973-5.49a354.34 354.34 0 013.8-1.167 2 2 0 10-1.153-3.83c-1.3.392-2.582.785-3.844 1.18a2 2 0 101.197 3.818zm16.245-4.69c1.27-.339 2.554-.675 3.854-1.009a2 2 0 00-.996-3.874 453.94 453.94 0 00-3.888 1.017 2 2 0 001.03 3.865zm16.446-4.065l2.585-.586 1.304-.29a2 2 0 00-.865-3.906c-1.318.293-2.624.587-3.918.883a2 2 0 00.894 3.9zm16.563-3.538c1.294-.257 2.598-.512 3.913-.766a2 2 0 10-.756-3.927c-1.323.254-2.635.511-3.937.77a2 2 0 00.78 3.923zm16.665-3.095c1.302-.225 2.612-.449 3.932-.67a2 2 0 10-.661-3.945c-1.327.223-2.645.447-3.954.674a2 2 0 00.683 3.941zm16.735-2.709c1.305-.197 2.619-.392 3.941-.585a2 2 0 10-.579-3.958c-1.328.194-2.648.39-3.96.588a2 2 0 10.598 3.955zm16.796-2.373c1.314-.174 2.635-.346 3.963-.516a2 2 0 10-.509-3.968c-1.333.171-2.66.344-3.978.518a2 2 0 00.524 3.966zm16.836-2.09c1.315-.152 2.637-.303 3.964-.453a2 2 0 10-.45-3.975c-1.33.15-2.656.302-3.976.456a2 2 0 10.462 3.973zm16.88-1.844c1.318-.135 2.641-.269 3.97-.401a2 2 0 10-.397-3.98l-3.981.402a2 2 0 00.408 3.98zm16.9-1.63l3.979-.355a2 2 0 10-.35-3.984l-3.99.356a2 2 0 00.36 3.983zm16.908-1.438c1.324-.106 2.652-.21 3.983-.313a2 2 0 00-.31-3.988l-3.991.313a2 2 0 10.318 3.988zm16.936-1.268c1.327-.093 2.656-.185 3.987-.275a2 2 0 10-.27-3.991l-3.997.276a2 2 0 10.28 3.99zm16.942-1.111l3.99-.24a2 2 0 00-.236-3.993l-3.999.24a2 2 0 10.245 3.993zm16.965-.967l3.992-.207a2 2 0 10-.204-3.995l-3.999.208a2 2 0 00.211 3.994zm16.96-.83l3.993-.175a2 2 0 10-.173-3.996l-4 .176a2 2 0 00.18 3.996zm16.969-.698l3.993-.146a2 2 0 00-.142-3.998l-4 .147a2 2 0 00.149 3.997zm16.984-.572l3.994-.116a2 2 0 00-.112-3.998l-4.002.116a2 2 0 10.12 3.998z" fill-rule="nonzero"/>
      <path d="M1207 187.625L1185 181l.33 14z"/>
      <path d="M1213.55 187.509l-30.156 10.262-.458-19.481 30.614 9.219zm-26.285 4.72l13.185-4.488-13.386-4.03.2 8.518z" fill-rule="nonzero"/>
    </g>
    <g fill="#000000">
      <path d="M145.877 378.567c24.636-19.323 60.236-36.336 108.818-49.013 21.126-5.513 44.434-10.108 69.56-13.853 37.873-5.644 78.384-9.166 119.446-10.966l5.277-.222 3.896-.152c21.927-.827 41.25-1.066 56.81-.942l4.476.047 2.861.048a2 2 0 00.09-4l-2.477-.041-1.312-.018c-18.26-.219-42.218.074-69.796 1.283-41.191 1.807-81.836 5.34-119.86 11.007-25.26 3.765-48.706 8.387-69.981 13.939-49.095 12.81-85.192 30.06-110.277 49.736a2 2 0 002.469 3.147z" fill-rule="nonzero"/>
      <path d="M112.77 194.072c51.535 25.934 105.886 50.093 158.597 68.907l3.58 1.27c44.638 15.749 85.11 26.56 120.74 33.32l2.46.463 2.423.444c10.81 1.96 20.437 3.396 28.818 4.386l1.419.165 1.512.169c1.725.188 3.311.346 4.757.476l1.088.095c.62.053 1.18.097 1.68.134l1.2.082.148.008a2.004 2.004 0 002.106-1.891 2.004 2.004 0 00-1.895-2.103l-1.267-.085-1.634-.13-1.069-.094-1.885-.178a285.475 285.475 0 01-4.222-.45l-1.469-.17-1.865-.225c-9.113-1.124-19.658-2.767-31.56-5.025-36.379-6.903-77.863-18.06-123.72-34.428-52.536-18.752-106.744-42.847-158.145-68.713a2 2 0 10-1.798 3.573z" fill-rule="nonzero"/>
      <path d="M273.645 172.261c3.61 28.374 15.774 54.55 39.114 75.791 15.023 13.67 34.282 24.851 56.78 33.805 19.803 7.882 41 13.622 62.195 17.565a355.126 355.126 0 0019.453 3.08l1.037.132c1.734.218 3.313.4 4.727.55l1.37.142 1.72.159a2 2 0 00.467-3.97l-.286-.029-.896-.081-.944-.093a234.567 234.567 0 01-5.027-.568l-.633-.079a348.772 348.772 0 01-20.256-3.176c-20.957-3.898-41.91-9.572-61.448-17.348-22.083-8.79-40.937-19.734-55.566-33.047-22.586-20.554-34.343-45.854-37.839-73.338a2 2 0 10-3.968.505z" fill-rule="nonzero"/>
      <path d="M209.91 293.394c31.053 1.563 63.029 3.07 95.086 4.455l13.93.594 12.263.51c29.478 1.21 57.799 2.266 84.469 3.173l17.532.583c6.144.2 11.953.383 17.405.55l23.304.677a2.001 2.001 0 00.254-3.99l-.214-.01-12.095-.342c-9.863-.288-21.207-.64-33.87-1.058l-9.725-.324-13.797-.475c-27.877-.975-57.425-2.109-88.108-3.406l-5.519-.235c-33.94-1.451-67.844-3.043-100.714-4.697a2.004 2.004 0 00-2.1 1.897 2.004 2.004 0 001.899 2.098z" fill-rule="nonzero"/>
      <path d="M312.081 369.25c2.62-16.61 11.705-30.906 28.995-41.691 14.043-8.76 33.183-14.965 56.13-18.928 26.017-4.492 53.352-5.678 76.952-4.995l2.341.075 2.129.083 1.575.077a2 2 0 10.232-3.993l-1.245-.062-2.085-.086-1.434-.05c-24.16-.778-52.305.375-79.145 5.01-23.414 4.043-43.014 10.396-57.567 19.475-18.298 11.414-28.033 26.731-30.83 44.463a2 2 0 103.952.623z" fill-rule="nonzero"/>
      <path d="M462.252 304.052l202.906-1.99a2 2 0 00-.039-4l-202.906 1.99a2 2 0 00.04 4z" fill-rule="nonzero"/>
      <path d="M683.574 299.882l-18.503-6.732.136 13.826z"/>
      <path d="M689.27 299.827l-26.035 10.055-.192-19.6 26.227 9.545zm-22.092 4.244l10.7-4.133-10.779-3.923.08 8.056z" fill-rule="nonzero"/>
    </g>
    <path stroke-opacity=".096" stroke="#000000" stroke-linecap="round" stroke-linejoin="round" d="M705 326.676L789.783 362l84.782-35.324-84.782-35.328z"/>
    <path stroke-opacity=".096" stroke="#000000" stroke-linecap="round" stroke-linejoin="round" d="M788.696 239.174l85.87 35.009-.418 51.947-85.275-34.63z"/>
    <path stroke-opacity=".096" stroke="#000000" stroke-linecap="round" stroke-linejoin="round" d="M706.087 273.734v52.396l84.783-34.677-.177-52.28z"/>
    <path fill-opacity=".099" fill="#000000" d="M705.175 326.406L705 272.617 789.604 237l84.961 35.975-.279 53.305L789.604 362z"/>
    <path stroke-opacity=".096" stroke="#000000" stroke-linecap="round" stroke-linejoin="round" d="M705.175 326.406L705 272.617 789.604 237l84.961 35.975-.279 53.305L789.604 362z"/>
    <path fill="#10E7FF" d="M734.348 318.762l54.957 21.645 54.957-21.645-54.957-21.648z"/>
    <path fill="#10E7FF" d="M734.348 285.82v32.864l56.39 21.723v-32.583zM790.738 307.655l54.48-21.835-.269 32.752-54.21 21.835z"/>
    <path fill="#10E7FF" d="M789.783 264.174l55.434 21.976-.269 32.61-55.051-21.738zM734.348 285.869v32.891l55.435-21.768-.115-32.818z"/>
    <path fill="#10E7FF" d="M734.463 318.7l-.115-32.805 55.318-21.721 55.551 21.94-.182 32.509-55.37 21.784z"/>
    <path fill-opacity=".307" fill="#FFFFFF" d="M734.348 285.821l54.957 21.646 54.957-21.646-54.957-21.647z"/>
    <path stroke-opacity=".096" stroke="#000000" stroke-linecap="round" stroke-linejoin="round" d="M706.087 275.043v52.352L790.87 362v-51.905z"/>
    <path stroke-opacity=".096" stroke="#000000" stroke-linecap="round" stroke-linejoin="round" d="M788.696 309.826l85.87-34.783-.42 52.175L788.697 362z"/>
    <path fill="#000000" d="M.042 157.046l70.711 25.407 70.716-25.407-70.716-25.403z"/>
    <path fill-opacity=".102" fill="#000000" d="M.576 182.967v-26.041l70.72-25.402 70.432 25.402v25.405l-70.433 25.407-70.712-24.77z"/>
    <path d="M74.883 163.28l14.144 5.08c1.958.704 1.958 1.838 0 2.542l-14.144 5.08c-1.958.703-5.115.703-7.072 0l-14.144-5.08c-1.96-.704-1.96-1.838 0-2.542l14.144-5.08c1.957-.703 5.114-.703 7.072 0z" fill="#10E7FF"/>
    <path fill="#000000" d="M.576 156.92v25.403l70.576 25.405v-25.405zM71.152 182.333l70.576-25.407v25.407l-70.576 25.406z"/>
    <g>
      <path fill="#000000" d="M243.042 393.046l70.711 25.407 70.716-25.407-70.716-25.403z"/>
      <path fill-opacity=".102" fill="#000000" d="M243.576 418.967v-26.041l70.72-25.402 70.432 25.402v25.405l-70.433 25.407-70.712-24.77z"/>
      <path d="M317.883 399.28l14.144 5.08c1.958.704 1.958 1.838 0 2.542l-14.144 5.08c-1.958.703-5.115.703-7.072 0l-14.144-5.08c-1.96-.704-1.96-1.838 0-2.542l14.144-5.08c1.957-.703 5.114-.703 7.072 0z" fill="#10E7FF"/>
      <path fill="#000000" d="M243.576 392.92v25.403l70.576 25.405v-25.405z"/>
      <path fill="#000000" d="M314.152 418.333l70.576-25.407v25.407l-70.576 25.406z"/>
    </g>
    <g>
      <path fill="#000000" d="M70.042 277.046l70.711 25.407 70.716-25.407-70.716-25.403z"/>
      <path fill-opacity=".102" fill="#000000" d="M70.576 302.967v-26.041l70.72-25.402 70.432 25.402v25.405l-70.433 25.407-70.712-24.77z"/>
      <path d="M144.883 283.28l14.144 5.08c1.958.704 1.958 1.838 0 2.542l-14.144 5.08c-1.958.703-5.115.703-7.072 0l-14.144-5.08c-1.96-.704-1.96-1.838 0-2.542l14.144-5.08c1.957-.703 5.114-.703 7.072 0z" fill="#10E7FF"/>
      <path fill="#000000" d="M70.576 276.92v25.403l70.576 25.405v-25.405zM141.152 302.333l70.576-25.407v25.407l-70.576 25.406z"/>
    </g>
    <g>
      <path fill="#000000" d="M48.042 393.046l70.711 25.407 70.716-25.407-70.716-25.403z"/>
      <path fill-opacity=".102" fill="#000000" d="M48.576 418.967v-26.041l70.72-25.402 70.432 25.402v25.405l-70.433 25.407-70.712-24.77z"/>
      <path d="M122.883 399.28l14.144 5.08c1.958.704 1.958 1.838 0 2.542l-14.144 5.08c-1.958.703-5.115.703-7.072 0l-14.144-5.08c-1.96-.704-1.96-1.838 0-2.542l14.144-5.08c1.957-.703 5.114-.703 7.072 0z" fill="#10E7FF"/>
      <path fill="#000000" d="M48.576 392.92v25.403l70.576 25.405v-25.405zM119.152 418.333l70.576-25.407v25.407l-70.576 25.406z"/>
    </g>
    <g>
      <path fill="#000000" d="M205.042 122.046l70.711 25.407 70.716-25.407-70.716-25.403z"/>
      <path fill-opacity=".102" fill="#000000" d="M205.576 147.967v-26.041l70.72-25.402 70.432 25.402v25.405l-70.433 25.407-70.712-24.77z"/>
      <path d="M279.883 128.28l14.144 5.08c1.958.704 1.958 1.838 0 2.542l-14.144 5.08c-1.958.703-5.115.703-7.072 0l-14.144-5.08c-1.96-.704-1.96-1.838 0-2.542l14.144-5.08c1.957-.703 5.114-.703 7.072 0z" fill="#10E7FF"/>
      <path fill="#000000" d="M205.576 121.92v25.403l70.576 25.405v-25.405z"/>
      <path fill="#000000" d="M276.152 147.333l70.576-25.407v25.407l-70.576 25.406z"/>
    </g>
    <g transform="translate(1225 340)">
      <circle fill="#000000" cx="50" cy="50" r="50"/>
      <path d="M34.45 61.05c1.1 0 2.008-.092 2.725-.275.717-.183 1.292-.433 1.725-.75.433-.317.733-.692.9-1.125a4.01 4.01 0 00.25-1.45c0-1.133-.533-2.075-1.6-2.825-1.067-.75-2.9-1.558-5.5-2.425a41.47 41.47 0 01-3.4-1.375 12.532 12.532 0 01-3.05-1.95 9.328 9.328 0 01-2.2-2.85c-.567-1.117-.85-2.475-.85-4.075s.3-3.042.9-4.325a9.233 9.233 0 012.55-3.275c1.1-.9 2.433-1.592 4-2.075 1.567-.483 3.333-.725 5.3-.725 2.333 0 4.35.25 6.05.75 1.7.5 3.1 1.05 4.2 1.65L44.2 40.1a21.31 21.31 0 00-3.225-1.325c-1.183-.383-2.608-.575-4.275-.575-1.867 0-3.208.258-4.025.775-.817.517-1.225 1.308-1.225 2.375 0 .633.15 1.167.45 1.6.3.433.725.825 1.275 1.175.55.35 1.183.667 1.9.95.717.283 1.508.575 2.375.875 1.8.667 3.367 1.325 4.7 1.975 1.333.65 2.442 1.408 3.325 2.275a8.24 8.24 0 011.975 3.05c.433 1.167.65 2.583.65 4.25 0 3.233-1.133 5.742-3.4 7.525-2.267 1.783-5.683 2.675-10.25 2.675-1.533 0-2.917-.092-4.15-.275a26.784 26.784 0 01-3.275-.675c-.95-.267-1.767-.55-2.45-.85-.683-.3-1.258-.583-1.725-.85l2.2-6.2c1.033.567 2.308 1.075 3.825 1.525 1.517.45 3.375.675 5.575.675zm27.05 6.7c-.9 0-1.85-.058-2.85-.175a30.96 30.96 0 01-2.9-.475c-.933-.2-1.783-.417-2.55-.65-.767-.233-1.367-.45-1.8-.65l1.45-6.2c.867.367 1.975.758 3.325 1.175 1.35.417 3.025.625 5.025.625 2.3 0 3.983-.433 5.05-1.3 1.067-.867 1.6-2.033 1.6-3.5 0-.9-.192-1.658-.575-2.275a4.395 4.395 0 00-1.575-1.5c-.667-.383-1.458-.65-2.375-.8A18.115 18.115 0 0060.4 51.8h-2.9v-6h3.3c.733 0 1.442-.067 2.125-.2a5.672 5.672 0 001.825-.675c.533-.317.958-.75 1.275-1.3.317-.55.475-1.242.475-2.075 0-.633-.133-1.183-.4-1.65a3.59 3.59 0 00-1.025-1.15c-.417-.3-.9-.525-1.45-.675a6.338 6.338 0 00-1.675-.225c-1.433 0-2.758.217-3.975.65a16.597 16.597 0 00-3.325 1.6L52 34.65a25.362 25.362 0 011.875-1.05c.717-.367 1.508-.7 2.375-1 .867-.3 1.792-.55 2.775-.75.983-.2 2.025-.3 3.125-.3 2.033 0 3.792.242 5.275.725 1.483.483 2.708 1.167 3.675 2.05a8.262 8.262 0 012.15 3.1c.467 1.183.7 2.475.7 3.875 0 1.367-.383 2.692-1.15 3.975-.767 1.283-1.8 2.258-3.1 2.925 1.8.733 3.192 1.825 4.175 3.275.983 1.45 1.475 3.192 1.475 5.225 0 1.6-.267 3.075-.8 4.425a8.923 8.923 0 01-2.5 3.5c-1.133.983-2.575 1.75-4.325 2.3-1.75.55-3.825.825-6.225.825z" stroke="#FFFFFF" fill="#FFFFFF" fill-rule="nonzero"/>
    </g>
    <g>
      <g transform="translate(740)">
        <circle fill="#000000" cx="50" cy="50" r="50"/>
        <path d="M21.635 26.667c2.53 0 4.472.444 5.826 1.334 1.355.89 2.032 2.346 2.032 4.37 0 2.04-.685 3.513-2.056 4.419-1.371.906-3.33 1.359-5.876 1.359h-1.2v5.68h-3.819V27.107a21.607 21.607 0 012.644-.342c.93-.066 1.747-.098 2.449-.098zm.244 3.256c-.277 0-.55.008-.82.024-.269.017-.502.033-.697.05v4.896h1.2c1.321 0 2.317-.18 2.986-.539.67-.36 1.004-1.028 1.004-2.008 0-.473-.086-.865-.257-1.175a1.954 1.954 0 00-.735-.746c-.318-.188-.706-.319-1.163-.392a9.604 9.604 0 00-1.518-.11zm17.946 4.26c-.327-.082-.71-.168-1.15-.257a7.11 7.11 0 00-1.42-.135c-.23 0-.503.02-.821.061-.318.04-.559.086-.722.135v9.842h-3.648V31.637a21.912 21.912 0 012.313-.65c.89-.203 1.882-.305 2.975-.305.196 0 .433.012.71.036a14.448 14.448 0 011.665.245c.277.057.514.127.71.208l-.612 3.012zm14.37 3.182c0 1.012-.146 1.938-.44 2.779-.294.84-.718 1.559-1.273 2.154a5.73 5.73 0 01-1.995 1.384c-.776.326-1.645.49-2.608.49-.946 0-1.807-.164-2.583-.49a5.73 5.73 0 01-1.995-1.384c-.555-.595-.987-1.313-1.297-2.154-.31-.84-.466-1.767-.466-2.779s.16-1.934.478-2.766a6.274 6.274 0 011.322-2.13 5.937 5.937 0 012.007-1.371 6.463 6.463 0 012.534-.49c.93 0 1.783.163 2.559.49.775.326 1.44.783 1.995 1.37.555.588.987 1.298 1.297 2.13.31.833.466 1.755.466 2.767zm-3.72 0c0-1.126-.225-2.011-.674-2.656-.449-.645-1.09-.967-1.922-.967-.832 0-1.477.322-1.934.967-.457.645-.685 1.53-.685 2.656 0 1.126.228 2.02.685 2.681.457.661 1.102.992 1.934.992.833 0 1.473-.33 1.922-.992.449-.66.673-1.555.673-2.68zm13.611-.367c0-1.175-.15-2.007-.453-2.497-.301-.49-.82-.735-1.554-.735-.229 0-.465.013-.71.037-.245.025-.482.053-.71.086v9.94H57.01V31.392a25.312 25.312 0 012.412-.502c.465-.074.942-.13 1.432-.172.49-.04.97-.06 1.444-.06.93 0 1.685.118 2.265.354.58.237 1.057.518 1.432.845a6.267 6.267 0 011.8-.882c.677-.212 1.301-.318 1.872-.318 1.029 0 1.873.143 2.534.429.661.285 1.188.69 1.58 1.212.39.522.66 1.142.807 1.86.147.718.22 1.518.22 2.4v7.27h-3.647v-6.83c0-1.175-.151-2.007-.453-2.497-.302-.49-.82-.735-1.555-.735-.196 0-.47.05-.82.147a3.2 3.2 0 00-.87.368c.115.375.189.77.221 1.187.033.416.05.86.05 1.334v7.027h-3.649v-6.83zm12.927-2.13h7.1v3.305h-7.1v-3.305zM10.667 62.65c0-1.143.175-2.142.526-3 .35-.856.812-1.57 1.383-2.141a5.754 5.754 0 011.971-1.298 6.17 6.17 0 012.29-.44c1.827 0 3.272.558 4.332 1.676 1.061 1.118 1.592 2.763 1.592 4.933 0 .213-.008.445-.025.698a36.51 36.51 0 01-.049.673h-8.275c.082.751.433 1.347 1.053 1.788.62.44 1.453.66 2.497.66.67 0 1.326-.06 1.971-.183.645-.122 1.171-.273 1.58-.453l.489 2.962a5.038 5.038 0 01-.784.294c-.326.098-.69.184-1.089.257-.4.074-.828.135-1.285.184a12.86 12.86 0 01-1.371.073c-1.16 0-2.167-.171-3.024-.514-.857-.343-1.567-.812-2.13-1.408a5.587 5.587 0 01-1.248-2.117 8.389 8.389 0 01-.404-2.644zm8.568-1.396a3.765 3.765 0 00-.159-.906 2.262 2.262 0 00-.416-.783 2.216 2.216 0 00-.71-.563c-.286-.147-.64-.22-1.065-.22-.408 0-.759.069-1.053.208a2.175 2.175 0 00-.734.55 2.464 2.464 0 00-.453.796 5.221 5.221 0 00-.233.918h4.823zm6.219-8.348l3.648-.588v3.795h4.382v3.036h-4.382v4.529c0 .767.134 1.38.404 1.836.269.457.812.686 1.628.686a6.97 6.97 0 001.211-.11 6.246 6.246 0 001.139-.307l.514 2.84c-.44.18-.93.335-1.469.466-.539.13-1.2.195-1.983.195-.996 0-1.82-.134-2.473-.404-.652-.269-1.175-.644-1.566-1.126-.392-.481-.666-1.065-.82-1.75a10.334 10.334 0 01-.233-2.277V52.906zM36.446 68.99V50.58l3.648-.588v6.169a7.56 7.56 0 01.943-.233 5.92 5.92 0 011.114-.11c1.044 0 1.913.143 2.607.429.693.285 1.248.69 1.665 1.212.416.522.71 1.142.881 1.86.171.718.257 1.518.257 2.4v7.27h-3.648v-6.83c0-1.175-.15-2.007-.453-2.497-.302-.49-.86-.735-1.677-.735-.326 0-.632.03-.918.086a9.874 9.874 0 00-.771.184v9.793h-3.648zm13.808-6.341c0-1.143.175-2.142.526-3 .351-.856.812-1.57 1.384-2.141a5.754 5.754 0 011.97-1.298 6.17 6.17 0 012.29-.44c1.828 0 3.272.558 4.333 1.676 1.06 1.118 1.591 2.763 1.591 4.933 0 .213-.008.445-.024.698a36.51 36.51 0 01-.05.673H54c.081.751.432 1.347 1.053 1.788.62.44 1.452.66 2.497.66.669 0 1.326-.06 1.97-.183.645-.122 1.172-.273 1.58-.453l.49 2.962a5.038 5.038 0 01-.784.294c-.327.098-.69.184-1.09.257-.4.074-.828.135-1.285.184a12.86 12.86 0 01-1.371.073c-1.159 0-2.167-.171-3.023-.514-.857-.343-1.567-.812-2.13-1.408a5.587 5.587 0 01-1.249-2.117 8.389 8.389 0 01-.404-2.644zm8.569-1.396a3.765 3.765 0 00-.16-.906 2.262 2.262 0 00-.416-.783 2.216 2.216 0 00-.71-.563c-.285-.147-.64-.22-1.065-.22-.408 0-.758.069-1.052.208a2.175 2.175 0 00-.735.55 2.464 2.464 0 00-.453.796 5.221 5.221 0 00-.232.918h4.823zm17.333 7.296c-.62.18-1.42.347-2.4.502-.979.155-2.007.232-3.084.232-1.094 0-2.003-.147-2.73-.44-.726-.294-1.301-.706-1.726-1.237-.424-.53-.726-1.163-.906-1.897-.18-.734-.269-1.542-.269-2.424v-7.173h3.648v6.733c0 1.175.155 2.023.465 2.546.31.522.89.783 1.738.783.262 0 .539-.012.833-.037.294-.024.555-.053.783-.085v-9.94h3.648V68.55zm7.124-2.179c.67 0 1.143-.065 1.42-.196.278-.13.416-.383.416-.759 0-.294-.18-.55-.538-.771-.36-.22-.906-.47-1.64-.747a16.81 16.81 0 01-1.555-.66 4.57 4.57 0 01-1.187-.82 3.317 3.317 0 01-.76-1.14c-.179-.44-.269-.97-.269-1.59 0-1.208.45-2.163 1.347-2.865.897-.702 2.13-1.053 3.697-1.053.783 0 1.534.07 2.252.208.718.14 1.29.29 1.714.453l-.637 2.84a13.394 13.394 0 00-1.383-.391 7.517 7.517 0 00-1.677-.172c-1.143 0-1.714.318-1.714.955 0 .147.025.277.074.392a.836.836 0 00.293.33c.147.106.347.22.6.343.253.122.575.257.967.404.8.294 1.461.583 1.983.869.523.286.935.596 1.237.93.302.335.514.706.636 1.114.123.408.184.882.184 1.42 0 1.273-.478 2.236-1.432 2.89-.955.652-2.306.978-4.052.978-1.143 0-2.093-.098-2.852-.293-.76-.196-1.286-.36-1.58-.49l.613-2.962c.62.244 1.256.436 1.91.575a9.286 9.286 0 001.933.208z" fill="#FFFFFF" fill-rule="nonzero"/>
      </g>
    </g>
    <path fill="#10E7FF" fill-rule="nonzero" d="M790 404h1v-66h-1zM68.5 172.808h1V63.5h-1z"/>
    <path d="M123.706 42h-4.444l-5.92-17.615h4.126l4.028 13.819h.086l4.028-13.819h4.016L123.706 42zm11.572-10.73c-1.563 0-2.686 1.184-2.808 2.82h5.554c-.073-1.673-1.16-2.82-2.746-2.82zm2.795 6.726h3.272c-.39 2.564-2.735 4.285-5.97 4.285-4.028 0-6.445-2.576-6.445-6.763 0-4.175 2.442-6.885 6.311-6.885 3.809 0 6.214 2.576 6.214 6.555v1.087h-9.021v.22c0 1.867 1.184 3.149 3.003 3.149 1.306 0 2.307-.647 2.636-1.648zm17.102-4.211h-3.308c-.207-1.38-1.123-2.356-2.588-2.356-1.758 0-2.856 1.489-2.856 4.016 0 2.576 1.098 4.04 2.869 4.04 1.428 0 2.355-.854 2.575-2.282h3.32c-.183 3.088-2.49 5.078-5.932 5.078-3.943 0-6.445-2.564-6.445-6.836 0-4.2 2.502-6.812 6.42-6.812 3.54 0 5.787 2.185 5.945 5.152zm2.686-7.886h3.564v3.015h2.417V31.6h-2.417v6.262c0 1 .489 1.477 1.538 1.477.318 0 .647-.025.867-.061v2.624c-.366.086-.976.147-1.697.147-3.076 0-4.272-1.026-4.272-3.577V31.6h-1.843v-2.686h1.843V25.9zm13.757 16.382c-3.955 0-6.482-2.54-6.482-6.836 0-4.236 2.564-6.812 6.482-6.812 3.919 0 6.482 2.564 6.482 6.812 0 4.309-2.527 6.836-6.482 6.836zm0-2.722c1.746 0 2.857-1.477 2.857-4.102 0-2.6-1.123-4.102-2.857-4.102-1.733 0-2.868 1.502-2.868 4.102 0 2.625 1.11 4.102 2.868 4.102zM179.931 42V28.914h3.443v2.356h.073c.464-1.66 1.574-2.563 3.113-2.563.415 0 .769.06 1.013.134v3.137c-.293-.122-.781-.207-1.294-.207-1.758 0-2.783 1.074-2.783 2.917V42h-3.565zm19.092-2.368c1.55 0 2.832-1.013 2.832-2.43v-.952l-2.759.171c-1.33.098-2.087.696-2.087 1.624 0 .976.805 1.587 2.014 1.587zm-1.172 2.576c-2.49 0-4.382-1.612-4.382-3.968 0-2.38 1.83-3.76 5.09-3.955l3.296-.195v-.867c0-1.22-.855-1.929-2.197-1.929-1.33 0-2.173.66-2.344 1.624h-3.26c.135-2.54 2.296-4.285 5.762-4.285 3.357 0 5.542 1.734 5.542 4.37V42h-3.442v-2.002h-.073c-.733 1.392-2.356 2.21-3.992 2.21zm9.583-9.449c0-2.49 2.148-4.126 5.48-4.126 3.357 0 5.433 1.721 5.506 4.285h-3.284c-.11-1.062-.903-1.782-2.221-1.782-1.233 0-2.051.561-2.051 1.428 0 .671.488 1.123 1.806 1.404l2.234.476c2.735.574 3.858 1.648 3.858 3.564 0 2.576-2.356 4.273-5.725 4.273-3.614 0-5.701-1.685-5.933-4.26h3.479c.22 1.147 1.038 1.757 2.454 1.757 1.342 0 2.172-.549 2.172-1.403 0-.696-.451-1.087-1.733-1.38l-2.234-.464c-2.527-.537-3.808-1.806-3.808-3.772zm23.083 6.873c1.55 0 2.832-1.013 2.832-2.43v-.952l-2.759.171c-1.33.098-2.087.696-2.087 1.624 0 .976.806 1.587 2.014 1.587zm-1.172 2.576c-2.49 0-4.382-1.612-4.382-3.968 0-2.38 1.83-3.76 5.09-3.955l3.296-.195v-.867c0-1.22-.854-1.929-2.197-1.929-1.33 0-2.173.66-2.344 1.624h-3.26c.135-2.54 2.296-4.285 5.763-4.285 3.356 0 5.542 1.734 5.542 4.37V42h-3.443v-2.002h-.073c-.733 1.392-2.356 2.21-3.992 2.21zm9.802-.208V28.914h3.443v2.332h.073c.696-1.624 2.075-2.576 4.09-2.576 2.905 0 4.54 1.831 4.54 4.895V42h-3.564v-7.69c0-1.71-.806-2.686-2.405-2.686-1.599 0-2.612 1.172-2.612 2.869V42h-3.565zm24.402-2.368c1.55 0 2.832-1.013 2.832-2.43v-.952l-2.758.171c-1.331.098-2.088.696-2.088 1.624 0 .976.806 1.587 2.014 1.587zm-1.172 2.576c-2.49 0-4.382-1.612-4.382-3.968 0-2.38 1.831-3.76 5.09-3.955l3.296-.195v-.867c0-1.22-.854-1.929-2.197-1.929-1.33 0-2.173.66-2.344 1.624h-3.259c.134-2.54 2.295-4.285 5.762-4.285 3.357 0 5.542 1.734 5.542 4.37V42h-3.443v-2.002h-.073c-.732 1.392-2.356 2.21-3.992 2.21zm15.845-2.991c1.782 0 2.918-1.416 2.918-3.784 0-2.356-1.136-3.87-2.918-3.87-1.758 0-2.868 1.49-2.868 3.87 0 2.392 1.098 3.784 2.868 3.784zm-.06 7.715c-3.443 0-5.775-1.673-6.056-4.004h3.492c.28.903 1.306 1.526 2.66 1.526 1.844 0 2.87-1.026 2.87-2.54V39.62h-.074c-.61 1.391-2.148 2.343-4.04 2.343-3.199 0-5.31-2.465-5.31-6.555 0-4.15 2.05-6.701 5.37-6.701 1.88 0 3.358.988 4.041 2.49h.061v-2.283h3.516v12.903c0 3.125-2.612 5.115-6.53 5.115zm14.72-15.662c-1.562 0-2.685 1.184-2.807 2.82h5.554c-.073-1.673-1.16-2.82-2.746-2.82zm2.796 6.726h3.272c-.39 2.564-2.735 4.285-5.97 4.285-4.028 0-6.445-2.576-6.445-6.763 0-4.175 2.442-6.885 6.311-6.885 3.809 0 6.214 2.576 6.214 6.555v1.087h-9.021v.22c0 1.867 1.184 3.149 3.003 3.149 1.306 0 2.307-.647 2.636-1.648zM300.891 42V28.914h3.442v2.332h.073c.696-1.624 2.075-2.576 4.09-2.576 2.905 0 4.54 1.831 4.54 4.895V42h-3.564v-7.69c0-1.71-.805-2.686-2.405-2.686-1.599 0-2.612 1.172-2.612 2.869V42h-3.564zm15.356-16.101h3.565v3.015h2.417V31.6h-2.417v6.262c0 1 .488 1.477 1.538 1.477.317 0 .647-.025.866-.061v2.624c-.366.086-.976.147-1.696.147-3.077 0-4.273-1.026-4.273-3.577V31.6h-1.843v-2.686h1.843V25.9zm-194.16 37.677V65h-7.857V52.317h7.858v1.424h-6.275v4.07h5.95v1.406h-5.95v4.36h6.275zM124.427 65v-7.884h-1.275V55.86h1.275v-1.02c0-1.757.817-2.592 2.505-2.592.342 0 .712.035.931.07v1.24a5.09 5.09 0 00-.694-.053c-.826 0-1.222.44-1.222 1.345v1.01h1.872v1.257h-1.863V65h-1.53zm5.467 0v-7.884h-1.275V55.86h1.275v-1.02c0-1.757.817-2.592 2.504-2.592.343 0 .712.035.932.07v1.24a5.09 5.09 0 00-.694-.053c-.826 0-1.222.44-1.222 1.345v1.01h1.872v1.257h-1.863V65h-1.53zm5.053 0v-9.14h1.53V65h-1.53zm.765-10.767a.96.96 0 01-.958-.958c0-.536.43-.958.958-.958a.95.95 0 01.958.958.955.955 0 01-.958.958zm10.424 4.623h-1.494c-.22-.993-.994-1.81-2.338-1.81-1.582 0-2.655 1.31-2.655 3.384 0 2.127 1.09 3.383 2.672 3.383 1.248 0 2.066-.659 2.33-1.757h1.502c-.237 1.819-1.766 3.102-3.84 3.102-2.532 0-4.22-1.784-4.22-4.728 0-2.883 1.68-4.729 4.202-4.729 2.285 0 3.647 1.512 3.84 3.155zM147.638 65v-9.14h1.529V65h-1.53zm.764-10.767a.96.96 0 01-.958-.958c0-.536.431-.958.958-.958a.95.95 0 01.958.958.955.955 0 01-.958.958zm6.495 2.795c-1.432 0-2.434 1.099-2.53 2.62h4.965c-.035-1.53-.993-2.62-2.435-2.62zm2.4 5.353h1.503c-.264 1.6-1.81 2.777-3.806 2.777-2.619 0-4.21-1.82-4.21-4.693 0-2.839 1.617-4.764 4.14-4.764 2.47 0 3.99 1.793 3.99 4.562v.58h-6.557v.088c0 1.749 1.029 2.9 2.672 2.9 1.16 0 2.013-.589 2.268-1.45zM160.452 65v-9.14h1.442v1.458h.035c.51-.984 1.485-1.617 2.9-1.617 2.004 0 3.164 1.292 3.164 3.366V65h-1.53v-5.66c0-1.477-.693-2.285-2.1-2.285-1.441 0-2.382 1.02-2.382 2.566V65h-1.529zm9.976-11.347h1.529v2.206h1.775v1.257h-1.775v5.432c0 .835.352 1.213 1.134 1.213.176 0 .527-.027.633-.044V65c-.185.044-.607.07-.967.07-1.679 0-2.33-.685-2.33-2.443v-5.51h-1.362v-1.258h1.363v-2.206zM175.438 65V52.317h1.529V65h-1.53zm4.359 3.419c-.185 0-.492-.018-.66-.053v-1.283c.168.035.405.044.598.044.853 0 1.327-.413 1.68-1.477l.21-.641-3.375-9.15h1.635l2.531 7.612h.026l2.532-7.612h1.608l-3.595 9.783c-.782 2.135-1.538 2.777-3.19 2.777zm19.274-9.563h-1.494c-.22-.993-.993-1.81-2.338-1.81-1.582 0-2.654 1.31-2.654 3.384 0 2.127 1.09 3.383 2.672 3.383 1.248 0 2.065-.659 2.329-1.757h1.503c-.237 1.819-1.767 3.102-3.841 3.102-2.531 0-4.219-1.784-4.219-4.728 0-2.883 1.679-4.729 4.201-4.729 2.286 0 3.648 1.512 3.841 3.155zm5.212 6.302c-2.531 0-4.236-1.82-4.236-4.728 0-2.918 1.705-4.729 4.236-4.729 2.523 0 4.228 1.81 4.228 4.729 0 2.909-1.705 4.728-4.228 4.728zm0-1.345c1.617 0 2.672-1.23 2.672-3.383 0-2.154-1.055-3.384-2.672-3.384-1.617 0-2.68 1.23-2.68 3.384 0 2.153 1.063 3.383 2.68 3.383zM210.128 65V52.317h1.53V65h-1.53zm3.674 0V52.317h1.53V65h-1.53zm7.26-7.972c-1.433 0-2.435 1.099-2.532 2.62h4.966c-.035-1.53-.993-2.62-2.434-2.62zm2.399 5.353h1.503c-.264 1.6-1.81 2.777-3.806 2.777-2.619 0-4.21-1.82-4.21-4.693 0-2.839 1.617-4.764 4.14-4.764 2.47 0 3.99 1.793 3.99 4.562v.58h-6.557v.088c0 1.749 1.029 2.9 2.672 2.9 1.16 0 2.013-.589 2.268-1.45zm10.749-3.525h-1.494c-.22-.993-.993-1.81-2.338-1.81-1.582 0-2.654 1.31-2.654 3.384 0 2.127 1.09 3.383 2.672 3.383 1.248 0 2.065-.659 2.329-1.757h1.503c-.238 1.819-1.767 3.102-3.841 3.102-2.532 0-4.219-1.784-4.219-4.728 0-2.883 1.679-4.729 4.201-4.729 2.285 0 3.648 1.512 3.841 3.155zm1.916-5.203h1.53v2.206h1.775v1.257h-1.776v5.432c0 .835.352 1.213 1.134 1.213.176 0 .527-.027.633-.044V65c-.185.044-.607.07-.967.07-1.679 0-2.329-.685-2.329-2.443v-5.51h-1.362v-1.258h1.362v-2.206zm4.772 4.729c0-1.565 1.38-2.68 3.358-2.68 2.004 0 3.34 1.177 3.401 2.794h-1.459c-.114-.958-.817-1.547-1.942-1.547-1.116 0-1.855.554-1.855 1.354 0 .633.466 1.063 1.486 1.31l1.45.35c1.846.45 2.514 1.17 2.514 2.48 0 1.59-1.503 2.715-3.542 2.715-2.145 0-3.48-1.08-3.657-2.795h1.53c.184 1.046.887 1.547 2.127 1.547 1.239 0 2.004-.527 2.004-1.353 0-.66-.36-1.037-1.407-1.292l-1.45-.352c-1.723-.413-2.558-1.213-2.558-2.531zM253.203 65V52.317h1.53V65h-1.53zm7.383.158c-2.531 0-4.236-1.82-4.236-4.728 0-2.918 1.705-4.729 4.236-4.729 2.522 0 4.227 1.81 4.227 4.729 0 2.909-1.705 4.728-4.227 4.728zm0-1.345c1.617 0 2.672-1.23 2.672-3.383 0-2.154-1.055-3.384-2.672-3.384-1.617 0-2.68 1.23-2.68 3.384 0 2.153 1.063 3.383 2.68 3.383zm9.483-.087c1.591 0 2.655-1.319 2.655-3.331 0-2.013-1.064-3.35-2.655-3.35-1.573 0-2.601 1.302-2.601 3.35 0 2.047 1.028 3.33 2.601 3.33zm.053 4.72c-2.013 0-3.603-1.134-3.858-2.69h1.573c.299.835 1.204 1.389 2.347 1.389 1.582 0 2.54-.915 2.54-2.277v-1.441h-.036c-.562.993-1.643 1.643-2.926 1.643-2.33 0-3.859-1.837-3.859-4.675 0-2.866 1.53-4.694 3.894-4.694 1.292 0 2.364.633 2.97 1.696h.027V55.86h1.459v8.956c0 2.18-1.608 3.63-4.13 3.63zm5.96-10.064c0-1.565 1.379-2.68 3.356-2.68 2.004 0 3.34 1.177 3.402 2.794h-1.46c-.113-.958-.817-1.547-1.942-1.547-1.116 0-1.854.554-1.854 1.354 0 .633.466 1.063 1.485 1.31l1.45.35c1.846.45 2.514 1.17 2.514 2.48 0 1.59-1.503 2.715-3.542 2.715-2.144 0-3.48-1.08-3.656-2.795h1.53c.184 1.046.887 1.547 2.126 1.547 1.24 0 2.004-.527 2.004-1.353 0-.66-.36-1.037-1.406-1.292l-1.45-.352c-1.723-.413-2.558-1.213-2.558-2.531zM297.517 65l-1.178-1.274c-1.072.949-2.549 1.485-4.052 1.485-2.505 0-4.254-1.477-4.254-3.586 0-1.485.809-2.628 2.487-3.516.255-.131.414-.22.484-.246-1.134-1.204-1.573-2.021-1.573-2.944 0-1.608 1.37-2.813 3.199-2.813 1.863 0 3.208 1.187 3.208 2.83 0 1.293-.782 2.233-2.716 3.252l3.138 3.384c.413-.773.606-1.81.606-3.375v-.378h1.46v.387c0 1.934-.352 3.34-1.047 4.43L299.504 65h-1.986zm-6.091-5.968c-1.31.8-1.828 1.512-1.828 2.488 0 1.415 1.142 2.373 2.83 2.373 1.134 0 2.311-.457 2.988-1.178l-3.568-3.911a4.575 4.575 0 00-.422.228zm.852-1.731c1.52-.774 2.083-1.406 2.083-2.312 0-.967-.694-1.643-1.722-1.643-1.002 0-1.714.694-1.714 1.66 0 .695.369 1.31 1.353 2.295zM304.04 65v-9.14h1.441v1.458h.036c.43-.966 1.362-1.617 2.592-1.617 1.248 0 2.171.633 2.567 1.74h.035c.51-1.09 1.582-1.74 2.865-1.74 1.81 0 2.98 1.178 2.98 2.988V65h-1.53v-5.959c0-1.248-.694-1.986-1.898-1.986-1.213 0-2.065.896-2.065 2.135V65h-1.53v-6.126c0-1.099-.738-1.82-1.872-1.82-1.213 0-2.092.95-2.092 2.216V65h-1.529zm18.123-7.972c-1.433 0-2.434 1.099-2.531 2.62h4.966c-.035-1.53-.993-2.62-2.435-2.62zm2.4 5.353h1.502c-.263 1.6-1.81 2.777-3.805 2.777-2.62 0-4.21-1.82-4.21-4.693 0-2.839 1.617-4.764 4.14-4.764 2.47 0 3.99 1.793 3.99 4.562v.58h-6.557v.088c0 1.749 1.028 2.9 2.672 2.9 1.16 0 2.013-.589 2.268-1.45zm3.647-8.728h1.53v2.206h1.775v1.257h-1.776v5.432c0 .835.352 1.213 1.134 1.213.176 0 .527-.027.633-.044V65c-.185.044-.607.07-.967.07-1.679 0-2.329-.685-2.329-2.443v-5.51h-1.362v-1.258h1.362v-2.206zM333.139 65v-9.14h1.442v1.494h.035c.299-1.011 1.143-1.653 2.215-1.653.264 0 .492.044.615.062v1.485c-.123-.044-.448-.088-.817-.088-1.187 0-1.96.853-1.96 2.145V65h-1.53zm5.626 0v-9.14h1.529V65h-1.53zm.764-10.767a.96.96 0 01-.958-.958c0-.536.431-.958.958-.958a.95.95 0 01.958.958.955.955 0 01-.958.958zm10.424 4.623h-1.494c-.22-.993-.993-1.81-2.338-1.81-1.582 0-2.654 1.31-2.654 3.384 0 2.127 1.09 3.383 2.672 3.383 1.248 0 2.065-.659 2.329-1.757h1.503c-.238 1.819-1.767 3.102-3.841 3.102-2.531 0-4.219-1.784-4.219-4.728 0-2.883 1.679-4.729 4.201-4.729 2.285 0 3.648 1.512 3.841 3.155zm1.266-.474c0-1.565 1.38-2.68 3.357-2.68 2.004 0 3.34 1.177 3.402 2.794h-1.46c-.114-.958-.817-1.547-1.942-1.547-1.116 0-1.854.554-1.854 1.354 0 .633.466 1.063 1.485 1.31l1.45.35c1.846.45 2.514 1.17 2.514 2.48 0 1.59-1.503 2.715-3.542 2.715-2.145 0-3.48-1.08-3.656-2.795h1.529c.185 1.046.888 1.547 2.127 1.547 1.24 0 2.004-.527 2.004-1.353 0-.66-.36-1.037-1.406-1.292l-1.45-.352c-1.723-.413-2.558-1.213-2.558-2.531zm15.688 6.776c-2.329 0-3.91-1.863-3.91-4.728 0-2.866 1.572-4.729 3.875-4.729 1.31 0 2.364.642 2.91 1.644h.034v-5.028h1.53V65h-1.46v-1.547h-.026c-.589 1.055-1.634 1.705-2.953 1.705zm.29-8.112c-1.617 0-2.636 1.318-2.636 3.384 0 2.074 1.02 3.383 2.636 3.383 1.574 0 2.628-1.335 2.628-3.383 0-2.04-1.054-3.384-2.628-3.384zm9.229 6.811c1.441 0 2.549-1.01 2.549-2.329v-.747l-2.444.15c-1.23.079-1.933.624-1.933 1.485 0 .87.73 1.441 1.828 1.441zm-.343 1.301c-1.82 0-3.041-1.098-3.041-2.742 0-1.564 1.204-2.549 3.313-2.672l2.62-.15v-.764c0-1.116-.739-1.784-2.004-1.784-1.178 0-1.916.554-2.11 1.45h-1.476c.105-1.582 1.459-2.795 3.62-2.795 2.145 0 3.499 1.16 3.499 2.98V65h-1.45v-1.573h-.035c-.545 1.046-1.706 1.731-2.936 1.731zm6.855-11.505h1.53v2.206h1.775v1.257h-1.775v5.432c0 .835.351 1.213 1.134 1.213.175 0 .527-.027.632-.044V65c-.184.044-.606.07-.966.07-1.68 0-2.33-.685-2.33-2.443v-5.51h-1.362v-1.258h1.362v-2.206zm7.77 10.204c1.441 0 2.549-1.01 2.549-2.329v-.747l-2.444.15c-1.23.079-1.933.624-1.933 1.485 0 .87.73 1.441 1.828 1.441zm-.343 1.301c-1.82 0-3.04-1.098-3.04-2.742 0-1.564 1.203-2.549 3.313-2.672l2.619-.15v-.764c0-1.116-.738-1.784-2.004-1.784-1.178 0-1.916.554-2.11 1.45h-1.476c.105-1.582 1.459-2.795 3.621-2.795 2.145 0 3.498 1.16 3.498 2.98V65h-1.45v-1.573h-.035c-.545 1.046-1.705 1.731-2.936 1.731zM652.841 475h-4.443l-5.92-17.615h4.126l4.028 13.819h.085l4.029-13.819h4.016L652.842 475zm11.573-10.73c-1.563 0-2.686 1.184-2.808 2.82h5.554c-.073-1.673-1.16-2.82-2.746-2.82zm2.795 6.726h3.271c-.39 2.564-2.734 4.285-5.969 4.285-4.028 0-6.445-2.576-6.445-6.763 0-4.175 2.441-6.885 6.311-6.885 3.809 0 6.213 2.576 6.213 6.555v1.087h-9.02v.22c0 1.867 1.183 3.149 3.002 3.149 1.306 0 2.307-.647 2.637-1.648zm17.102-4.211h-3.308c-.208-1.38-1.123-2.356-2.588-2.356-1.758 0-2.856 1.489-2.856 4.016 0 2.576 1.098 4.04 2.868 4.04 1.428 0 2.356-.854 2.576-2.282h3.32c-.183 3.088-2.49 5.078-5.932 5.078-3.943 0-6.446-2.564-6.446-6.836 0-4.2 2.503-6.812 6.421-6.812 3.54 0 5.786 2.185 5.945 5.152zm2.686-7.886h3.564v3.015h2.417v2.686h-2.417v6.262c0 1 .488 1.477 1.538 1.477.318 0 .647-.025.867-.061v2.624c-.366.086-.977.147-1.697.147-3.076 0-4.272-1.026-4.272-3.577V464.6h-1.844v-2.686h1.844V458.9zm13.757 16.382c-3.955 0-6.482-2.54-6.482-6.836 0-4.236 2.563-6.812 6.482-6.812 3.918 0 6.482 2.564 6.482 6.812 0 4.309-2.527 6.836-6.482 6.836zm0-2.722c1.746 0 2.856-1.477 2.856-4.102 0-2.6-1.123-4.102-2.856-4.102-1.733 0-2.869 1.502-2.869 4.102 0 2.625 1.111 4.102 2.869 4.102zm8.313 2.441v-13.086h3.442v2.356h.074c.463-1.66 1.574-2.563 3.112-2.563.415 0 .77.06 1.013.134v3.137c-.292-.122-.78-.207-1.293-.207-1.758 0-2.784 1.074-2.784 2.917V475h-3.564zm19.092-2.368c1.55 0 2.832-1.013 2.832-2.43v-.952l-2.76.171c-1.33.098-2.086.696-2.086 1.624 0 .976.805 1.587 2.014 1.587zm-1.172 2.576c-2.49 0-4.383-1.612-4.383-3.968 0-2.38 1.832-3.76 5.09-3.955l3.297-.195v-.867c0-1.22-.855-1.929-2.198-1.929-1.33 0-2.172.66-2.343 1.624h-3.26c.135-2.54 2.295-4.285 5.762-4.285 3.357 0 5.542 1.734 5.542 4.37V475h-3.442v-2.002h-.073c-.733 1.392-2.356 2.21-3.992 2.21zm9.582-9.449c0-2.49 2.149-4.126 5.481-4.126 3.357 0 5.432 1.721 5.506 4.285h-3.284c-.11-1.062-.903-1.782-2.222-1.782-1.233 0-2.05.561-2.05 1.428 0 .671.488 1.123 1.806 1.404l2.234.476c2.734.574 3.857 1.648 3.857 3.564 0 2.576-2.355 4.273-5.725 4.273-3.613 0-5.7-1.685-5.932-4.26h3.479c.22 1.147 1.037 1.757 2.453 1.757 1.343 0 2.173-.549 2.173-1.403 0-.696-.451-1.087-1.733-1.38l-2.234-.464c-2.527-.537-3.809-1.806-3.809-3.772zm23.084 6.873c1.55 0 2.832-1.013 2.832-2.43v-.952l-2.759.171c-1.33.098-2.087.696-2.087 1.624 0 .976.805 1.587 2.014 1.587zm-1.172 2.576c-2.49 0-4.382-1.612-4.382-3.968 0-2.38 1.83-3.76 5.09-3.955l3.296-.195v-.867c0-1.22-.855-1.929-2.197-1.929-1.331 0-2.173.66-2.344 1.624h-3.26c.135-2.54 2.295-4.285 5.762-4.285 3.357 0 5.542 1.734 5.542 4.37V475h-3.442v-2.002h-.073c-.733 1.392-2.356 2.21-3.992 2.21zm26.636-8.423h-3.308c-.208-1.38-1.123-2.356-2.588-2.356-1.758 0-2.857 1.489-2.857 4.016 0 2.576 1.099 4.04 2.869 4.04 1.428 0 2.356-.854 2.576-2.282h3.32c-.183 3.088-2.49 5.078-5.933 5.078-3.943 0-6.445-2.564-6.445-6.836 0-4.2 2.502-6.812 6.42-6.812 3.54 0 5.787 2.185 5.946 5.152zm7.605-2.515c-1.563 0-2.686 1.184-2.808 2.82h5.554c-.073-1.673-1.16-2.82-2.746-2.82zm2.795 6.726h3.272c-.391 2.564-2.735 4.285-5.97 4.285-4.028 0-6.445-2.576-6.445-6.763 0-4.175 2.441-6.885 6.311-6.885 3.809 0 6.213 2.576 6.213 6.555v1.087h-9.02v.22c0 1.867 1.184 3.149 3.002 3.149 1.307 0 2.308-.647 2.637-1.648zM800.73 475v-13.086h3.443v2.332h.073c.696-1.624 2.075-2.576 4.09-2.576 2.905 0 4.54 1.831 4.54 4.895V475h-3.564v-7.69c0-1.71-.806-2.686-2.405-2.686-1.599 0-2.612 1.172-2.612 2.869V475h-3.565zm15.357-16.101h3.564v3.015h2.417v2.686h-2.417v6.262c0 1 .489 1.477 1.538 1.477.318 0 .647-.025.867-.061v2.624c-.366.086-.976.147-1.697.147-3.076 0-4.272-1.026-4.272-3.577V464.6h-1.843v-2.686h1.843V458.9zM824.02 475v-13.086h3.442v2.356h.073c.464-1.66 1.575-2.563 3.113-2.563.415 0 .769.06 1.013.134v3.137c-.293-.122-.781-.207-1.294-.207-1.758 0-2.783 1.074-2.783 2.917V475h-3.564zm13.842-2.368c1.55 0 2.832-1.013 2.832-2.43v-.952l-2.758.171c-1.331.098-2.088.696-2.088 1.624 0 .976.806 1.587 2.014 1.587zm-1.172 2.576c-2.49 0-4.382-1.612-4.382-3.968 0-2.38 1.831-3.76 5.09-3.955l3.296-.195v-.867c0-1.22-.854-1.929-2.197-1.929-1.33 0-2.173.66-2.344 1.624h-3.259c.134-2.54 2.295-4.285 5.762-4.285 3.357 0 5.542 1.734 5.542 4.37V475h-3.443v-2.002h-.073c-.732 1.392-2.356 2.21-3.992 2.21zm9.888-.208v-17.615h3.565V475h-3.565zm10.693-9.24c0-2.491 2.149-4.127 5.481-4.127 3.357 0 5.433 1.721 5.506 4.285h-3.284c-.11-1.062-.903-1.782-2.222-1.782-1.232 0-2.05.561-2.05 1.428 0 .671.488 1.123 1.806 1.404l2.234.476c2.735.574 3.858 1.648 3.858 3.564 0 2.576-2.356 4.273-5.726 4.273-3.613 0-5.7-1.685-5.932-4.26h3.479c.22 1.147 1.037 1.757 2.453 1.757 1.343 0 2.173-.549 2.173-1.403 0-.696-.451-1.087-1.733-1.38l-2.234-.464c-2.527-.537-3.809-1.806-3.809-3.772zm18.958-1.49c-1.563 0-2.686 1.184-2.808 2.82h5.555c-.074-1.673-1.16-2.82-2.747-2.82zm2.795 6.726h3.272c-.39 2.564-2.735 4.285-5.97 4.285-4.028 0-6.445-2.576-6.445-6.763 0-4.175 2.442-6.885 6.311-6.885 3.809 0 6.214 2.576 6.214 6.555v1.087h-9.021v.22c0 1.867 1.184 3.149 3.003 3.149 1.306 0 2.307-.647 2.636-1.648zm5.213 4.004v-13.086h3.442v2.356h.073c.464-1.66 1.575-2.563 3.113-2.563.415 0 .77.06 1.013.134v3.137c-.293-.122-.78-.207-1.294-.207-1.757 0-2.783 1.074-2.783 2.917V475h-3.564zm21.057-13.086L900.803 475h-4.029l-4.528-13.086h3.82l2.723 9.937h.073l2.71-9.937h3.723zM906.589 475v-13.086h3.564V475h-3.564zm1.77-14.856a1.842 1.842 0 01-1.856-1.831c0-1.013.818-1.831 1.856-1.831 1.037 0 1.855.818 1.855 1.831a1.842 1.842 0 01-1.855 1.831zm16.052 6.64h-3.308c-.207-1.379-1.123-2.355-2.588-2.355-1.758 0-2.856 1.489-2.856 4.016 0 2.576 1.098 4.04 2.868 4.04 1.429 0 2.356-.854 2.576-2.282h3.32c-.183 3.088-2.49 5.078-5.932 5.078-3.943 0-6.446-2.564-6.446-6.836 0-4.2 2.503-6.812 6.421-6.812 3.54 0 5.786 2.185 5.945 5.152zm7.605-2.514c-1.562 0-2.685 1.184-2.808 2.82h5.555c-.074-1.673-1.16-2.82-2.747-2.82zm2.796 6.726h3.271c-.39 2.564-2.734 4.285-5.97 4.285-4.028 0-6.445-2.576-6.445-6.763 0-4.175 2.442-6.885 6.311-6.885 3.81 0 6.214 2.576 6.214 6.555v1.087h-9.021v.22c0 1.867 1.184 3.149 3.003 3.149 1.306 0 2.307-.647 2.637-1.648zm-308.33 25.58V498h-7.857v-12.683h7.858v1.424h-6.275v4.07h5.95v1.406h-5.95v4.36h6.275zm2.339 1.424v-7.884h-1.275v-1.257h1.275v-1.02c0-1.757.817-2.592 2.505-2.592.342 0 .712.035.931.07v1.24a5.09 5.09 0 00-.694-.053c-.826 0-1.222.44-1.222 1.345v1.01h1.872v1.257h-1.863V498h-1.53zm5.467 0v-7.884h-1.275v-1.257h1.275v-1.02c0-1.757.817-2.592 2.504-2.592.343 0 .712.035.932.07v1.24a5.09 5.09 0 00-.694-.053c-.826 0-1.222.44-1.222 1.345v1.01h1.872v1.257h-1.863V498h-1.53zm5.053 0v-9.14h1.53V498h-1.53zm.765-10.767a.96.96 0 01-.958-.958c0-.536.43-.958.958-.958a.95.95 0 01.958.958.955.955 0 01-.958.958zm10.424 4.623h-1.494c-.22-.993-.994-1.81-2.338-1.81-1.582 0-2.655 1.31-2.655 3.384 0 2.127 1.09 3.383 2.672 3.383 1.248 0 2.066-.659 2.33-1.757h1.502c-.237 1.819-1.766 3.102-3.84 3.102-2.532 0-4.22-1.784-4.22-4.728 0-2.883 1.68-4.729 4.202-4.729 2.285 0 3.647 1.512 3.84 3.155zm1.503 6.144v-9.14h1.529V498h-1.53zm.764-10.767a.96.96 0 01-.958-.958c0-.536.431-.958.958-.958a.95.95 0 01.958.958.955.955 0 01-.958.958zm6.495 2.795c-1.432 0-2.434 1.099-2.53 2.62h4.965c-.035-1.53-.993-2.62-2.435-2.62zm2.4 5.353h1.503c-.264 1.6-1.81 2.777-3.806 2.777-2.619 0-4.21-1.82-4.21-4.693 0-2.839 1.617-4.764 4.14-4.764 2.47 0 3.99 1.793 3.99 4.562v.58h-6.557v.088c0 1.749 1.029 2.9 2.672 2.9 1.16 0 2.013-.589 2.268-1.45zm3.155 2.619v-9.14h1.442v1.458h.035c.51-.984 1.485-1.617 2.9-1.617 2.004 0 3.164 1.292 3.164 3.366V498h-1.53v-5.66c0-1.477-.693-2.285-2.1-2.285-1.441 0-2.382 1.02-2.382 2.566V498h-1.529zm9.976-11.347h1.53v2.206h1.774v1.257h-1.775v5.432c0 .835.352 1.213 1.134 1.213.176 0 .527-.027.633-.044V498c-.185.044-.607.07-.967.07-1.679 0-2.33-.685-2.33-2.443v-5.51h-1.362v-1.258h1.363v-2.206zm5.01 11.347v-12.683h1.529V498h-1.53zm4.359 3.419c-.185 0-.492-.018-.66-.053v-1.283c.168.035.405.044.598.044.853 0 1.328-.413 1.68-1.477l.21-.641-3.375-9.15h1.635l2.531 7.612h.026l2.532-7.612h1.608l-3.595 9.783c-.782 2.135-1.538 2.777-3.19 2.777zm14.695-4.562c1.442 0 2.549-1.01 2.549-2.329v-.747l-2.443.15c-1.23.079-1.934.624-1.934 1.485 0 .87.73 1.441 1.828 1.441zm-.343 1.301c-1.819 0-3.04-1.098-3.04-2.742 0-1.564 1.204-2.549 3.313-2.672l2.619-.15v-.764c0-1.116-.738-1.784-2.004-1.784-1.178 0-1.916.554-2.11 1.45h-1.476c.106-1.582 1.46-2.795 3.621-2.795 2.145 0 3.498 1.16 3.498 2.98V498h-1.45v-1.573h-.035c-.545 1.046-1.705 1.731-2.936 1.731zm10.081-1.432c1.591 0 2.655-1.319 2.655-3.331 0-2.013-1.064-3.35-2.655-3.35-1.573 0-2.601 1.302-2.601 3.35 0 2.047 1.028 3.33 2.601 3.33zm.053 4.72c-2.012 0-3.603-1.134-3.858-2.69h1.573c.299.835 1.204 1.389 2.347 1.389 1.582 0 2.54-.915 2.54-2.277v-1.441h-.035c-.563.993-1.644 1.643-2.927 1.643-2.33 0-3.859-1.837-3.859-4.675 0-2.866 1.53-4.694 3.894-4.694 1.292 0 2.364.633 2.97 1.696h.027v-1.538h1.46v8.956c0 2.18-1.61 3.63-4.132 3.63zm9.835-4.72c1.591 0 2.654-1.319 2.654-3.331 0-2.013-1.063-3.35-2.654-3.35-1.573 0-2.601 1.302-2.601 3.35 0 2.047 1.028 3.33 2.601 3.33zm.053 4.72c-2.013 0-3.604-1.134-3.858-2.69h1.573c.299.835 1.204 1.389 2.346 1.389 1.582 0 2.54-.915 2.54-2.277v-1.441h-.035c-.562.993-1.643 1.643-2.926 1.643-2.33 0-3.859-1.837-3.859-4.675 0-2.866 1.53-4.694 3.894-4.694 1.292 0 2.364.633 2.97 1.696h.027v-1.538h1.459v8.956c0 2.18-1.609 3.63-4.131 3.63zm6.117-3.446v-9.14h1.442v1.494h.035c.298-1.011 1.142-1.653 2.215-1.653.263 0 .492.044.615.062v1.485c-.123-.044-.448-.088-.818-.088-1.186 0-1.96.853-1.96 2.145V498h-1.529zm8.772-7.972c-1.433 0-2.435 1.099-2.532 2.62h4.966c-.035-1.53-.993-2.62-2.434-2.62zm2.399 5.353h1.503c-.264 1.6-1.81 2.777-3.806 2.777-2.619 0-4.21-1.82-4.21-4.693 0-2.839 1.617-4.764 4.14-4.764 2.47 0 3.99 1.793 3.99 4.562v.58h-6.556v.088c0 1.749 1.028 2.9 2.671 2.9 1.16 0 2.013-.589 2.268-1.45zm6.873 1.345c1.59 0 2.654-1.319 2.654-3.331 0-2.013-1.063-3.35-2.654-3.35-1.573 0-2.602 1.302-2.602 3.35 0 2.047 1.029 3.33 2.602 3.33zm.053 4.72c-2.013 0-3.604-1.134-3.859-2.69h1.574c.298.835 1.204 1.389 2.346 1.389 1.582 0 2.54-.915 2.54-2.277v-1.441h-.035c-.562.993-1.643 1.643-2.927 1.643-2.329 0-3.858-1.837-3.858-4.675 0-2.866 1.53-4.694 3.894-4.694 1.292 0 2.364.633 2.97 1.696h.027v-1.538h1.459v8.956c0 2.18-1.609 3.63-4.131 3.63zm9.132-4.589c1.441 0 2.548-1.01 2.548-2.329v-.747l-2.443.15c-1.23.079-1.934.624-1.934 1.485 0 .87.73 1.441 1.829 1.441zm-.343 1.301c-1.82 0-3.041-1.098-3.041-2.742 0-1.564 1.204-2.549 3.313-2.672l2.62-.15v-.764c0-1.116-.739-1.784-2.004-1.784-1.178 0-1.916.554-2.11 1.45h-1.476c.105-1.582 1.459-2.795 3.62-2.795 2.145 0 3.499 1.16 3.499 2.98V498h-1.45v-1.573h-.036c-.545 1.046-1.705 1.731-2.935 1.731zm6.855-11.505h1.53v2.206h1.775v1.257h-1.775v5.432c0 .835.351 1.213 1.133 1.213.176 0 .528-.027.633-.044V498c-.184.044-.606.07-.967.07-1.678 0-2.329-.685-2.329-2.443v-5.51h-1.362v-1.258h1.362v-2.206zm8.332 3.375c-1.432 0-2.434 1.099-2.53 2.62h4.965c-.035-1.53-.993-2.62-2.435-2.62zm2.4 5.353h1.503c-.264 1.6-1.81 2.777-3.806 2.777-2.62 0-4.21-1.82-4.21-4.693 0-2.839 1.617-4.764 4.14-4.764 2.47 0 3.99 1.793 3.99 4.562v.58h-6.557v.088c0 1.749 1.029 2.9 2.672 2.9 1.16 0 2.013-.589 2.268-1.45zm2.997-4c0-1.564 1.38-2.68 3.357-2.68 2.004 0 3.34 1.178 3.402 2.795h-1.46c-.114-.958-.817-1.547-1.942-1.547-1.116 0-1.854.554-1.854 1.354 0 .633.466 1.063 1.485 1.31l1.45.35c1.846.45 2.514 1.17 2.514 2.48 0 1.59-1.503 2.715-3.542 2.715-2.145 0-3.48-1.08-3.656-2.795h1.529c.185 1.046.888 1.547 2.127 1.547 1.24 0 2.004-.527 2.004-1.353 0-.66-.36-1.037-1.406-1.292l-1.45-.352c-1.723-.413-2.558-1.213-2.558-2.531zm9.58 9.141h-1.275l.853-4.473h1.626l-1.204 4.473zm10.88-2.364c-1.335 0-2.381-.65-2.97-1.705h-.035V498h-1.46v-12.683h1.53v5.072h.035c.572-1.046 1.635-1.688 2.927-1.688 2.303 0 3.859 1.863 3.859 4.729 0 2.874-1.547 4.728-3.885 4.728zm-.298-8.112c-1.547 0-2.646 1.353-2.646 3.384 0 2.039 1.1 3.383 2.646 3.383 1.617 0 2.62-1.292 2.62-3.383 0-2.075-1.003-3.384-2.62-3.384zm13.236-1.187V498h-1.45v-1.485h-.035c-.545 1.054-1.494 1.643-2.9 1.643-1.996 0-3.165-1.292-3.165-3.366v-5.933h1.53v5.66c0 1.486.694 2.286 2.11 2.286 1.484 0 2.381-1.02 2.381-2.576v-5.37h1.53zm2.47 9.141v-7.884h-1.274v-1.257h1.274v-1.02c0-1.757.817-2.592 2.505-2.592.343 0 .712.035.932.07v1.24a5.09 5.09 0 00-.695-.053c-.826 0-1.221.44-1.221 1.345v1.01h1.872v1.257h-1.864V498h-1.529zm5.467 0v-7.884h-1.275v-1.257h1.275v-1.02c0-1.757.817-2.592 2.505-2.592.342 0 .712.035.931.07v1.24a5.09 5.09 0 00-.694-.053c-.826 0-1.222.44-1.222 1.345v1.01h1.872v1.257h-1.863V498h-1.53zm8.2-7.972c-1.433 0-2.435 1.099-2.531 2.62h4.966c-.036-1.53-.994-2.62-2.435-2.62zm2.4 5.353h1.502c-.263 1.6-1.81 2.777-3.805 2.777-2.62 0-4.21-1.82-4.21-4.693 0-2.839 1.617-4.764 4.14-4.764 2.47 0 3.99 1.793 3.99 4.562v.58h-6.557v.088c0 1.749 1.028 2.9 2.672 2.9 1.16 0 2.013-.589 2.267-1.45zm3.155 2.619v-9.14h1.441v1.494h.035c.3-1.011 1.143-1.653 2.215-1.653.264 0 .492.044.615.062v1.485c-.123-.044-.448-.088-.817-.088-1.187 0-1.96.853-1.96 2.145V498h-1.53zm5.387-6.618c0-1.565 1.38-2.68 3.358-2.68 2.004 0 3.34 1.177 3.401 2.794h-1.459c-.114-.958-.817-1.547-1.942-1.547-1.116 0-1.855.554-1.855 1.354 0 .633.466 1.063 1.486 1.31l1.45.35c1.846.45 2.514 1.17 2.514 2.48 0 1.59-1.503 2.715-3.542 2.715-2.145 0-3.48-1.08-3.657-2.795h1.53c.184 1.046.887 1.547 2.127 1.547 1.239 0 2.003-.527 2.003-1.353 0-.66-.36-1.037-1.406-1.292l-1.45-.352c-1.723-.413-2.558-1.213-2.558-2.531zm9.58 9.14h-1.274l.853-4.473h1.626l-1.205 4.473zm9.352-3.665c1.441 0 2.549-1.01 2.549-2.329v-.747l-2.444.15c-1.23.079-1.933.624-1.933 1.485 0 .87.73 1.441 1.828 1.441zm-.343 1.301c-1.82 0-3.04-1.098-3.04-2.742 0-1.564 1.203-2.549 3.313-2.672l2.619-.15v-.764c0-1.116-.738-1.784-2.004-1.784-1.178 0-1.916.554-2.11 1.45h-1.476c.105-1.582 1.459-2.795 3.621-2.795 2.145 0 3.498 1.16 3.498 2.98V498h-1.45v-1.573h-.035c-.545 1.046-1.705 1.731-2.936 1.731zm6.364-.158v-9.14h1.44v1.458h.036c.51-.984 1.485-1.617 2.9-1.617 2.004 0 3.165 1.292 3.165 3.366V498h-1.53v-5.66c0-1.477-.694-2.285-2.1-2.285-1.442 0-2.382 1.02-2.382 2.566V498h-1.53zm12.946.158c-2.33 0-3.911-1.863-3.911-4.728 0-2.866 1.573-4.729 3.876-4.729 1.31 0 2.364.642 2.909 1.644h.035v-5.028h1.53V498h-1.46v-1.547h-.026c-.589 1.055-1.635 1.705-2.953 1.705zm.29-8.112c-1.617 0-2.637 1.318-2.637 3.384 0 2.074 1.02 3.383 2.637 3.383 1.573 0 2.628-1.335 2.628-3.383 0-2.04-1.055-3.384-2.628-3.384zm9.905 7.954v-9.14h1.442v1.494h.035c.299-1.011 1.142-1.653 2.215-1.653.263 0 .492.044.615.062v1.485c-.123-.044-.448-.088-.818-.088-1.186 0-1.96.853-1.96 2.145V498h-1.529zm8.895.158c-2.532 0-4.237-1.82-4.237-4.728 0-2.918 1.705-4.729 4.237-4.729 2.522 0 4.227 1.81 4.227 4.729 0 2.909-1.705 4.728-4.227 4.728zm0-1.345c1.617 0 2.672-1.23 2.672-3.383 0-2.154-1.055-3.384-2.672-3.384-1.618 0-2.681 1.23-2.681 3.384 0 2.153 1.063 3.383 2.68 3.383zm13.271-7.954V498h-1.45v-1.485h-.035c-.545 1.054-1.494 1.643-2.9 1.643-1.996 0-3.165-1.292-3.165-3.366v-5.933h1.53v5.66c0 1.486.694 2.286 2.109 2.286 1.485 0 2.382-1.02 2.382-2.576v-5.37h1.53zm2.47-2.206h1.53v2.206h1.775v1.257h-1.776v5.432c0 .835.352 1.213 1.134 1.213.176 0 .527-.027.633-.044V498c-.185.044-.607.07-.967.07-1.679 0-2.33-.685-2.33-2.443v-5.51h-1.361v-1.258h1.362v-2.206zm8.332 3.375c-1.433 0-2.435 1.099-2.531 2.62h4.965c-.035-1.53-.993-2.62-2.434-2.62zm2.4 5.353h1.502c-.263 1.6-1.81 2.777-3.805 2.777-2.62 0-4.21-1.82-4.21-4.693 0-2.839 1.617-4.764 4.14-4.764 2.469 0 3.99 1.793 3.99 4.562v.58h-6.557v.088c0 1.749 1.028 2.9 2.672 2.9 1.16 0 2.012-.589 2.267-1.45zm2.996-4c0-1.564 1.38-2.68 3.358-2.68 2.004 0 3.34 1.178 3.401 2.795h-1.459c-.114-.958-.817-1.547-1.942-1.547-1.116 0-1.855.554-1.855 1.354 0 .633.466 1.063 1.486 1.31l1.45.35c1.846.45 2.514 1.17 2.514 2.48 0 1.59-1.503 2.715-3.542 2.715-2.145 0-3.48-1.08-3.657-2.795h1.53c.184 1.046.887 1.547 2.127 1.547 1.239 0 2.003-.527 2.003-1.353 0-.66-.36-1.037-1.406-1.292l-1.45-.352c-1.723-.413-2.558-1.213-2.558-2.531zm15.689 6.777c-2.33 0-3.911-1.863-3.911-4.728 0-2.866 1.573-4.729 3.876-4.729 1.31 0 2.364.642 2.909 1.644h.035v-5.028h1.53V498h-1.46v-1.547h-.026c-.589 1.055-1.635 1.705-2.953 1.705zm.29-8.112c-1.617 0-2.637 1.318-2.637 3.384 0 2.074 1.02 3.383 2.637 3.383 1.573 0 2.628-1.335 2.628-3.383 0-2.04-1.055-3.384-2.628-3.384zm9.228 6.811c1.442 0 2.55-1.01 2.55-2.329v-.747l-2.444.15c-1.23.079-1.934.624-1.934 1.485 0 .87.73 1.441 1.828 1.441zm-.342 1.301c-1.82 0-3.041-1.098-3.041-2.742 0-1.564 1.204-2.549 3.313-2.672l2.62-.15v-.764c0-1.116-.739-1.784-2.005-1.784-1.177 0-1.916.554-2.109 1.45h-1.477c.106-1.582 1.46-2.795 3.621-2.795 2.145 0 3.499 1.16 3.499 2.98V498h-1.45v-1.573h-.036c-.545 1.046-1.705 1.731-2.935 1.731zm6.855-11.505h1.53v2.206h1.775v1.257h-1.776v5.432c0 .835.352 1.213 1.134 1.213.176 0 .528-.027.633-.044V498c-.185.044-.606.07-.967.07-1.679 0-2.329-.685-2.329-2.443v-5.51h-1.362v-1.258h1.362v-2.206zm7.77 10.204c1.441 0 2.548-1.01 2.548-2.329v-.747l-2.443.15c-1.23.079-1.933.624-1.933 1.485 0 .87.729 1.441 1.828 1.441zm-.343 1.301c-1.82 0-3.041-1.098-3.041-2.742 0-1.564 1.204-2.549 3.313-2.672l2.62-.15v-.764c0-1.116-.739-1.784-2.004-1.784-1.178 0-1.916.554-2.11 1.45h-1.476c.105-1.582 1.459-2.795 3.62-2.795 2.145 0 3.499 1.16 3.499 2.98V498h-1.45v-1.573h-.036c-.545 1.046-1.705 1.731-2.935 1.731z" fill="#000000" fill-rule="nonzero"/>
    <g transform="translate(1224 140)">
      <circle fill="#000000" cx="50" cy="50" r="50"/>
      <path d="M14.667 45.135V28.642h11.138v3.118h-7.426v3.236h6.593v3.047h-6.593v3.974h7.973v3.118H14.667zm19.182.238c-1.032-.016-1.869-.127-2.511-.334-.643-.206-1.15-.495-1.523-.868a2.882 2.882 0 01-.762-1.357 7.32 7.32 0 01-.202-1.797v-13.78l3.546-.57v13.636c0 .318.024.603.071.857.048.254.14.468.274.643.135.174.33.317.583.428.254.111.595.183 1.023.214l-.5 2.928zm7.663-2.713c.349 0 .682-.008 1-.024.317-.016.57-.04.761-.072v-2.689a6.547 6.547 0 00-.643-.095 7.028 7.028 0 00-1.725.012c-.294.04-.551.115-.773.226a1.327 1.327 0 00-.524.452c-.127.19-.19.428-.19.714 0 .555.186.94.559 1.154.373.214.884.322 1.535.322zm-.286-10.377c1.047 0 1.92.12 2.618.357.698.238 1.258.58 1.678 1.024.42.444.718.983.892 1.618.175.635.262 1.34.262 2.118v7.378c-.508.11-1.214.242-2.118.392-.904.151-1.999.226-3.284.226-.81 0-1.543-.071-2.202-.214-.658-.143-1.225-.377-1.701-.702a3.213 3.213 0 01-1.095-1.273c-.254-.524-.38-1.166-.38-1.928 0-.73.146-1.348.44-1.856a3.388 3.388 0 011.178-1.214 5.323 5.323 0 011.69-.654 9.479 9.479 0 011.975-.203c.46 0 .868.02 1.225.06.357.04.647.091.869.155v-.334c0-.603-.182-1.086-.547-1.451-.365-.365-1-.548-1.904-.548-.603 0-1.198.044-1.785.131a7.657 7.657 0 00-1.523.37l-.453-2.857a13.637 13.637 0 011.785-.393c.365-.055.75-.103 1.155-.142.404-.04.813-.06 1.225-.06zm12.257 10.305c.65 0 1.11-.063 1.38-.19.27-.127.405-.373.405-.738 0-.286-.175-.535-.524-.75-.349-.214-.88-.456-1.594-.726a16.34 16.34 0 01-1.512-.642 4.442 4.442 0 01-1.154-.797 3.225 3.225 0 01-.738-1.107c-.174-.428-.262-.944-.262-1.547 0-1.174.437-2.102 1.31-2.784.872-.683 2.07-1.024 3.593-1.024.762 0 1.491.068 2.19.203.698.134 1.253.281 1.665.44l-.618 2.76a13.02 13.02 0 00-1.345-.38 7.308 7.308 0 00-1.63-.167c-1.11 0-1.666.31-1.666.928 0 .143.024.27.071.381a.813.813 0 00.286.321c.143.103.337.214.583.333.246.12.56.25.94.393.777.286 1.42.567 1.928.845.507.278.908.58 1.202.904.293.326.5.687.618 1.083.12.397.179.857.179 1.38 0 1.238-.464 2.174-1.392 2.809-.929.634-2.241.952-3.94.952-1.11 0-2.034-.095-2.772-.286-.737-.19-1.25-.349-1.535-.476l.595-2.88c.603.239 1.222.425 1.857.56a9.027 9.027 0 001.88.202zm7.83-13.09l3.546-.57v3.688h4.26v2.951h-4.26v4.403c0 .746.13 1.34.392 1.785.262.444.79.667 1.583.667.38 0 .773-.036 1.178-.108.405-.07.773-.17 1.107-.297l.5 2.76c-.429.175-.905.326-1.429.453-.523.127-1.166.19-1.927.19-.968 0-1.77-.13-2.404-.392-.635-.262-1.142-.627-1.523-1.095-.38-.468-.647-1.035-.797-1.702a10.045 10.045 0 01-.226-2.213v-10.52zm14.231 15.637h-3.546V32.616h3.546v12.519zm.333-16.136c0 .65-.21 1.162-.63 1.535-.42.373-.916.56-1.488.56a2.169 2.169 0 01-1.487-.56c-.42-.373-.63-.885-.63-1.535 0-.65.21-1.162.63-1.535.42-.373.916-.56 1.487-.56.572 0 1.067.187 1.488.56.42.373.63.884.63 1.535zm2.404 9.877c0-.905.147-1.758.44-2.559.294-.801.718-1.5 1.274-2.094a6.076 6.076 0 012.023-1.416c.793-.35 1.697-.524 2.713-.524.666 0 1.277.06 1.832.179a8.92 8.92 0 011.619.511l-.738 2.832a8.937 8.937 0 00-1.095-.333 5.722 5.722 0 00-1.333-.143c-1.047 0-1.828.326-2.344.976-.516.65-.773 1.507-.773 2.57 0 1.127.242 2 .725 2.618.484.62 1.33.929 2.535.929.428 0 .889-.04 1.38-.12.492-.079.944-.206 1.357-.38l.5 2.903c-.413.175-.928.325-1.547.452-.619.127-1.301.19-2.047.19-1.142 0-2.126-.17-2.951-.51-.825-.342-1.503-.806-2.035-1.393a5.431 5.431 0 01-1.166-2.083 8.842 8.842 0 01-.369-2.605zM19.034 67.787c.65 0 1.11-.063 1.38-.19.27-.127.405-.373.405-.738 0-.286-.175-.536-.524-.75-.349-.214-.88-.456-1.594-.726a16.34 16.34 0 01-1.512-.642 4.442 4.442 0 01-1.154-.798 3.225 3.225 0 01-.738-1.106c-.174-.429-.261-.944-.261-1.547 0-1.174.436-2.102 1.308-2.785.873-.682 2.071-1.023 3.594-1.023.762 0 1.492.067 2.19.202s1.253.282 1.666.44l-.62 2.761a13.02 13.02 0 00-1.344-.38 7.308 7.308 0 00-1.63-.167c-1.11 0-1.666.31-1.666.928 0 .143.024.27.071.38a.813.813 0 00.286.322c.143.103.337.214.583.333.246.12.56.25.94.393.778.286 1.42.567 1.928.845s.908.579 1.202.904c.293.326.5.686.618 1.083.12.397.179.857.179 1.38 0 1.238-.464 2.174-1.392 2.809-.928.634-2.241.952-3.939.952-1.11 0-2.035-.096-2.773-.286-.737-.19-1.249-.349-1.535-.476l.595-2.88c.603.238 1.222.425 1.857.56a9.027 9.027 0 001.88.202zm7.354-3.617c0-1.111.17-2.083.511-2.916.341-.833.79-1.527 1.345-2.082a5.594 5.594 0 011.916-1.262 5.998 5.998 0 012.225-.428c1.777 0 3.181.543 4.212 1.63 1.032 1.087 1.547 2.686 1.547 4.796 0 .206-.008.432-.023.678a35.49 35.49 0 01-.048.655h-8.044c.08.73.42 1.308 1.023 1.737.603.428 1.412.642 2.428.642.65 0 1.289-.06 1.916-.178.626-.12 1.138-.266 1.535-.44l.476 2.88c-.19.094-.445.19-.762.285-.317.095-.67.178-1.06.25-.388.071-.804.13-1.249.178-.444.048-.888.072-1.332.072-1.127 0-2.106-.167-2.94-.5-.832-.333-1.523-.79-2.07-1.369a5.431 5.431 0 01-1.214-2.058 8.155 8.155 0 01-.392-2.57zm8.33-1.357a3.66 3.66 0 00-.155-.88 2.199 2.199 0 00-.405-.762 2.154 2.154 0 00-.69-.547c-.278-.143-.623-.215-1.035-.215-.397 0-.738.068-1.024.203a2.115 2.115 0 00-.714.535c-.19.222-.337.48-.44.774a5.076 5.076 0 00-.226.892h4.688zm10.947 5.045c.349 0 .682-.008 1-.023.317-.016.57-.04.76-.072v-2.69a6.547 6.547 0 00-.642-.094 7.028 7.028 0 00-1.725.012c-.294.04-.551.115-.774.226a1.327 1.327 0 00-.523.452c-.127.19-.19.428-.19.714 0 .555.186.94.559 1.154.373.214.884.321 1.535.321zm-.286-10.376c1.047 0 1.92.12 2.618.357.698.238 1.257.58 1.678 1.023.42.445.718.984.892 1.619.175.634.262 1.34.262 2.118v7.377c-.508.112-1.214.242-2.118.393-.904.15-2 .226-3.284.226-.81 0-1.543-.071-2.202-.214-.658-.143-1.225-.377-1.701-.702a3.213 3.213 0 01-1.095-1.273c-.254-.524-.38-1.166-.38-1.928 0-.73.146-1.349.44-1.856a3.388 3.388 0 011.178-1.214 5.323 5.323 0 011.69-.654 9.479 9.479 0 011.975-.203c.46 0 .868.02 1.225.06.357.04.647.091.869.154v-.333c0-.603-.183-1.087-.547-1.451-.365-.365-1-.548-1.904-.548-.603 0-1.198.044-1.785.131a7.657 7.657 0 00-1.523.369l-.453-2.856A13.637 13.637 0 0143 57.684c.365-.055.75-.103 1.155-.142.404-.04.813-.06 1.225-.06zm16.207 3.475c-.317-.08-.69-.163-1.118-.25a6.912 6.912 0 00-1.38-.131c-.223 0-.489.02-.798.06-.31.04-.543.083-.702.13v9.567h-3.546V58.482a21.301 21.301 0 012.249-.631c.865-.198 1.829-.298 2.892-.298.19 0 .42.012.69.036a14.045 14.045 0 011.618.238c.27.056.5.123.69.202l-.595 2.928zm1.666 3.117c0-.904.147-1.757.44-2.558.294-.801.718-1.5 1.274-2.094a6.076 6.076 0 012.023-1.416c.793-.35 1.697-.524 2.713-.524.666 0 1.277.06 1.832.179a8.92 8.92 0 011.619.511l-.738 2.832a8.937 8.937 0 00-1.095-.333 5.722 5.722 0 00-1.333-.143c-1.047 0-1.828.326-2.344.976-.516.65-.773 1.507-.773 2.57 0 1.127.242 2 .725 2.618.484.619 1.33.928 2.535.928.428 0 .889-.04 1.38-.119.492-.079.944-.206 1.357-.38l.5 2.903c-.413.175-.928.325-1.547.452-.619.127-1.301.19-2.047.19-1.142 0-2.126-.17-2.951-.511-.825-.341-1.503-.805-2.035-1.392a5.431 5.431 0 01-1.166-2.083 8.842 8.842 0 01-.369-2.606zm12.495 6.26V52.436l3.546-.571v5.997a7.35 7.35 0 01.916-.226 5.755 5.755 0 011.083-.107c1.015 0 1.86.138 2.534.416.675.278 1.214.67 1.619 1.178.404.508.69 1.11.856 1.809.167.698.25 1.475.25 2.332v7.068h-3.546v-6.64c0-1.142-.146-1.95-.44-2.427-.294-.476-.837-.714-1.63-.714-.318 0-.615.028-.893.083a9.598 9.598 0 00-.75.179v9.52h-3.545z" fill="#FFFFFF" fill-rule="nonzero"/>
    </g>
    <g fill="#10E7FF">
      <path d="M808.608 413h8.752l-20.843 34.392-4.324-7.117zM779.733 447.211L800.466 413h-10.341l-10.18 16.725L769.761 413H759z"/>
    </g>
    <g fill="#10E7FF">
      <path d="M88.608 21h8.752L76.517 55.392l-4.324-7.117zM59.733 55.211L80.466 21H70.125l-10.18 16.725L49.761 21H39z"/>
    </g>
    <g transform="translate(1334 339.442)">
      <circle fill="#000000" cx="180" cy="50" r="50"/>
      <path d="M149.56 57l-1.503-4.785h-6.932L139.621 57h-4.238l6.85-19.729h4.853L153.949 57h-4.388zm-5.017-15.955l-2.53 8.08h5.155l-2.53-8.08h-.095zm11.184-2.078h3.992v3.377h2.707v3.008h-2.707v7.013c0 1.121.547 1.655 1.722 1.655.356 0 .725-.028.971-.069v2.94c-.41.095-1.094.164-1.9.164-3.446 0-4.785-1.149-4.785-4.006v-7.697h-2.065v-3.008h2.065v-3.377zM164.709 57V37.271h3.924v7.684h.082c.78-1.846 2.379-2.885 4.607-2.885 3.254 0 5.114 2.106 5.114 5.496V57h-3.993v-8.586c0-1.887-.93-3.035-2.748-3.035-1.886 0-2.994 1.326-2.994 3.254V57h-3.992zm22.846-12.018c-1.75 0-3.008 1.327-3.145 3.159h6.22c-.081-1.873-1.298-3.159-3.075-3.159zm3.13 7.534h3.665c-.438 2.87-3.063 4.798-6.686 4.798-4.512 0-7.219-2.884-7.219-7.574 0-4.676 2.735-7.71 7.069-7.71 4.265 0 6.959 2.884 6.959 7.341v1.217h-10.104v.246c0 2.092 1.326 3.527 3.363 3.527 1.463 0 2.584-.724 2.954-1.845zM196.524 57V42.344h3.856v2.611h.082c.78-1.818 2.324-2.885 4.58-2.885 3.254 0 5.086 2.051 5.086 5.483V57h-3.992v-8.613c0-1.914-.903-3.008-2.694-3.008-1.79 0-2.925 1.312-2.925 3.213V57h-3.993zm21.793-2.652c1.737 0 3.172-1.135 3.172-2.721v-1.066l-3.09.191c-1.49.11-2.337.78-2.337 1.818 0 1.094.902 1.778 2.255 1.778zm-1.312 2.884c-2.79 0-4.908-1.804-4.908-4.443 0-2.666 2.05-4.21 5.7-4.43l3.692-.218v-.971c0-1.367-.957-2.16-2.46-2.16-1.49 0-2.434.738-2.626 1.818h-3.65c.15-2.844 2.57-4.799 6.453-4.799 3.76 0 6.207 1.942 6.207 4.895V57h-3.855v-2.242h-.082c-.82 1.558-2.64 2.474-4.471 2.474z" fill="#FFFFFF" fill-rule="nonzero"/>
      <path fill="#000000" fill-rule="nonzero" d="M30.973 52.466H119v3H30.973v8L0 53.966l30.973-9.5v8z"/>
    </g>
  </g>
</svg>