<?xml version="1.0" encoding="UTF-8"?>
<svg width="683px" height="300px" viewBox="0 0 683 300" version="1.1" xmlns="http://www.w3.org/2000/svg" xmlns:xlink="http://www.w3.org/1999/xlink">
    <!-- Generator: Sketch 57.1 (83088) - https://sketch.com -->
    <title>Untitled</title>
    <desc>Created with Sketch.</desc>
    <defs>
        <linearGradient x1="-1.11022302e-14%" y1="50%" x2="100%" y2="50%" id="linearGradient-1">
            <stop stop-color="#001B3D" offset="0%"></stop>
            <stop stop-color="#1BE6FF" offset="100%"></stop>
        </linearGradient>
        <linearGradient x1="-1.11022302e-14%" y1="50%" x2="100%" y2="50%" id="linearGradient-2">
            <stop stop-color="#001B3D" offset="0%"></stop>
            <stop stop-color="#001B3D" offset="100%"></stop>
        </linearGradient>
        <linearGradient x1="-1.11022302e-14%" y1="50%" x2="100%" y2="50%" id="linearGradient-3">
            <stop stop-color="#001B3D" offset="0%"></stop>
            <stop stop-color="#001B3D" offset="100%"></stop>
        </linearGradient>
        <linearGradient x1="-1.11022302e-14%" y1="50%" x2="100%" y2="50%" id="linearGradient-4">
            <stop stop-color="#001B3D" offset="0%"></stop>
            <stop stop-color="#001B3D" offset="100%"></stop>
        </linearGradient>
    </defs>
    <g id="Page-1" stroke="none" stroke-width="1" fill="none" fill-rule="evenodd">
        <g id="aws_cloudwatch_metrics-sink" fill-rule="nonzero">
            <g id="Sinks" transform="translate(528.000000, 9.000000)">
                <g id="Sink-3" transform="translate(0.000000, 184.000000)">
                    <circle id="Oval-Copy" fill="#001B3D" cx="37.5" cy="37.5" r="37.5"></circle>
                    <path d="M23.6523438,37.0859375 C23.6523438,35.4921875 25.0273438,34.4453125 27.1601562,34.4453125 C29.3085938,34.4453125 30.6367188,35.546875 30.6835938,37.1875 L28.5820312,37.1875 C28.5117188,36.5078125 28.0039062,36.046875 27.1601562,36.046875 C26.3710938,36.046875 25.8476562,36.40625 25.8476562,36.9609375 C25.8476562,37.390625 26.1601562,37.6796875 27.0039062,37.859375 L28.4335938,38.1640625 C30.1835938,38.53125 30.9023438,39.21875 30.9023438,40.4453125 C30.9023438,42.09375 29.3945312,43.1796875 27.2382812,43.1796875 C24.9257812,43.1796875 23.5898438,42.1015625 23.4414062,40.453125 L25.6679688,40.453125 C25.8085938,41.1875 26.3320312,41.578125 27.2382812,41.578125 C28.0976562,41.578125 28.6289062,41.2265625 28.6289062,40.6796875 C28.6289062,40.234375 28.3398438,39.984375 27.5195312,39.796875 L26.0898438,39.5 C24.4726562,39.15625 23.6523438,38.34375 23.6523438,37.0859375 Z M32.0664062,43 L32.0664062,34.625 L34.3476562,34.625 L34.3476562,43 L32.0664062,43 Z M33.1992188,33.4921875 C32.5351562,33.4921875 32.0117188,32.9609375 32.0117188,32.3203125 C32.0117188,31.671875 32.5351562,31.1484375 33.1992188,31.1484375 C33.8632812,31.1484375 34.3867188,31.671875 34.3867188,32.3203125 C34.3867188,32.9609375 33.8632812,33.4921875 33.1992188,33.4921875 Z M35.8632812,43 L35.8632812,34.625 L38.0664062,34.625 L38.0664062,36.1171875 L38.1132812,36.1171875 C38.5585938,35.078125 39.4414062,34.46875 40.7304688,34.46875 C42.5898438,34.46875 43.6367188,35.640625 43.6367188,37.6015625 L43.6367188,43 L41.3554688,43 L41.3554688,38.078125 C41.3554688,36.984375 40.8398438,36.359375 39.8164062,36.359375 C38.7929688,36.359375 38.1445312,37.109375 38.1445312,38.1953125 L38.1445312,43 L35.8632812,43 Z M47.4492188,37.984375 L50.2929688,34.625 L52.8789062,34.625 L49.6835938,38.21875 L53.0351562,43 L50.4101562,43 L48.0117188,39.59375 L47.4179688,40.234375 L47.4179688,43 L45.1367188,43 L45.1367188,31.7265625 L47.4179688,31.7265625 L47.4179688,37.984375 L47.4492188,37.984375 Z" id="sink" fill="#FFFFFF"></path>
                </g>
                <g id="Sink-2" transform="translate(80.000000, 124.000000)">
                    <circle id="Oval-Copy" fill="#001B3D" cx="37.5" cy="37.5" r="37.5"></circle>
                    <path d="M23.6523438,37.0859375 C23.6523438,35.4921875 25.0273438,34.4453125 27.1601562,34.4453125 C29.3085938,34.4453125 30.6367188,35.546875 30.6835938,37.1875 L28.5820312,37.1875 C28.5117188,36.5078125 28.0039062,36.046875 27.1601562,36.046875 C26.3710938,36.046875 25.8476562,36.40625 25.8476562,36.9609375 C25.8476562,37.390625 26.1601562,37.6796875 27.0039062,37.859375 L28.4335938,38.1640625 C30.1835938,38.53125 30.9023438,39.21875 30.9023438,40.4453125 C30.9023438,42.09375 29.3945312,43.1796875 27.2382812,43.1796875 C24.9257812,43.1796875 23.5898438,42.1015625 23.4414062,40.453125 L25.6679688,40.453125 C25.8085938,41.1875 26.3320312,41.578125 27.2382812,41.578125 C28.0976562,41.578125 28.6289062,41.2265625 28.6289062,40.6796875 C28.6289062,40.234375 28.3398438,39.984375 27.5195312,39.796875 L26.0898438,39.5 C24.4726562,39.15625 23.6523438,38.34375 23.6523438,37.0859375 Z M32.0664062,43 L32.0664062,34.625 L34.3476562,34.625 L34.3476562,43 L32.0664062,43 Z M33.1992188,33.4921875 C32.5351562,33.4921875 32.0117188,32.9609375 32.0117188,32.3203125 C32.0117188,31.671875 32.5351562,31.1484375 33.1992188,31.1484375 C33.8632812,31.1484375 34.3867188,31.671875 34.3867188,32.3203125 C34.3867188,32.9609375 33.8632812,33.4921875 33.1992188,33.4921875 Z M35.8632812,43 L35.8632812,34.625 L38.0664062,34.625 L38.0664062,36.1171875 L38.1132812,36.1171875 C38.5585938,35.078125 39.4414062,34.46875 40.7304688,34.46875 C42.5898438,34.46875 43.6367188,35.640625 43.6367188,37.6015625 L43.6367188,43 L41.3554688,43 L41.3554688,38.078125 C41.3554688,36.984375 40.8398438,36.359375 39.8164062,36.359375 C38.7929688,36.359375 38.1445312,37.109375 38.1445312,38.1953125 L38.1445312,43 L35.8632812,43 Z M47.4492188,37.984375 L50.2929688,34.625 L52.8789062,34.625 L49.6835938,38.21875 L53.0351562,43 L50.4101562,43 L48.0117188,39.59375 L47.4179688,40.234375 L47.4179688,43 L45.1367188,43 L45.1367188,31.7265625 L47.4179688,31.7265625 L47.4179688,37.984375 L47.4492188,37.984375 Z" id="sink" fill="#FFFFFF"></path>
                </g>
                <g id="Archive" transform="translate(0.000000, 58.000000)">
                    <circle id="Oval-Copy-2" fill="#1BE6FF" cx="37.5" cy="37.5" r="37.5"></circle>
                    <!-- <path d="M28.447,30.308 C25.9683209,30.308 24.0800065,29.6186736 22.782,28.24 C21.4839935,26.8613264 20.835,24.903346 20.835,22.366 C20.835,21.1046604 21.032998,19.979005 21.429,18.989 C21.825002,17.9989951 22.3676632,17.1630034 23.057,16.481 C23.7463368,15.7989966 24.5676619,15.2820018 25.521,14.93 C26.4743381,14.5779982 27.5083278,14.402 28.623,14.402 C29.2683366,14.402 29.8549974,14.4496662 30.383,14.545 C30.9110026,14.6403338 31.372998,14.7503327 31.769,14.875 C32.165002,14.9996673 32.4949987,15.1279993 32.759,15.26 C33.0230013,15.3920007 33.2136661,15.4946663 33.331,15.568 L32.341,18.34 C31.8716643,18.0906654 31.3253365,17.8780009 30.702,17.702 C30.0786636,17.5259991 29.371004,17.438 28.579,17.438 C28.0509974,17.438 27.5340025,17.5259991 27.028,17.702 C26.5219975,17.8780009 26.0746686,18.1603314 25.686,18.549 C25.2973314,18.9376686 24.9856678,19.4399969 24.751,20.056 C24.5163322,20.6720031 24.399,21.4199956 24.399,22.3 C24.399,23.0040035 24.4759992,23.6603303 24.63,24.269 C24.7840008,24.8776697 25.0333316,25.402 25.378,25.842 C25.7226684,26.2820022 26.1736639,26.630332 26.731,26.887 C27.2883361,27.1436679 27.962996,27.272 28.755,27.272 C29.2536692,27.272 29.700998,27.242667 30.097,27.184 C30.493002,27.125333 30.8449985,27.0556671 31.153,26.975 C31.4610015,26.8943329 31.7323322,26.8026672 31.967,26.7 C32.2016678,26.5973328 32.4143324,26.5020004 32.605,26.414 L33.551,29.164 C33.0669976,29.4573348 32.3850044,29.7213322 31.505,29.956 C30.6249956,30.1906678 29.6056725,30.308 28.447,30.308 Z M46.399,16.382 C46.5750009,16.9833363 46.7693323,17.6616629 46.982,18.417 C47.1946677,19.1723371 47.4219988,19.9533293 47.664,20.76 C47.9060012,21.5666707 48.1516654,22.3733293 48.401,23.18 C48.6503346,23.9866707 48.8923322,24.7346632 49.127,25.424 C49.3176676,24.6759963 49.511999,23.8620044 49.71,22.982 C49.908001,22.1019956 50.0949991,21.1926714 50.271,20.254 C50.4470009,19.3153286 50.6193325,18.380338 50.788,17.449 C50.9566675,16.517662 51.1143326,15.6193377 51.261,14.754 L54.825,14.754 C54.3116641,17.3060128 53.7213367,19.8946535 53.054,22.52 C52.3866633,25.1453465 51.6643372,27.6386549 50.887,30 L47.741,30 C47.2276641,28.591993 46.7290024,27.1143411 46.245,25.567 C45.7609976,24.0196589 45.2843357,22.4686744 44.815,20.914 C44.3456643,22.4686744 43.8763357,24.0196589 43.407,25.567 C42.9376643,27.1143411 42.4463359,28.591993 41.933,30 L38.787,30 C38.0096628,27.6386549 37.2873367,25.1453465 36.62,22.52 C35.9526633,19.8946535 35.3623359,17.3060128 34.849,14.754 L38.567,14.754 C38.7136674,15.6193377 38.8749991,16.517662 39.051,17.449 C39.2270009,18.380338 39.4103324,19.3153286 39.601,20.254 C39.7916676,21.1926714 39.985999,22.1019956 40.184,22.982 C40.382001,23.8620044 40.5836656,24.6759963 40.789,25.424 C41.0530013,24.7053297 41.3096654,23.9426707 41.559,23.136 C41.8083346,22.3293293 42.0503322,21.5226707 42.285,20.716 C42.5196678,19.9093293 42.735999,19.1320037 42.934,18.384 C43.132001,17.6359963 43.3116659,16.9686696 43.473,16.382 L46.399,16.382 Z" id="CWMetrics" fill="#FFFFFF"></path> -->
                </g>
                <path d="M16.154,15.382 C16.6380024,15.382 17.0376651,15.3416671 17.353,15.261 C17.6683349,15.1803329 17.9213324,15.070334 18.112,14.931 C18.3026676,14.791666 18.4346663,14.6266676 18.508,14.436 C18.5813337,14.2453324 18.618,14.0326678 18.618,13.798 C18.618,13.2993308 18.3833357,12.8850016 17.914,12.555 C17.4446643,12.2249983 16.6380057,11.8693352 15.494,11.488 C14.9953308,11.3119991 14.4966692,11.1103345 13.998,10.883 C13.4993308,10.6556655 13.052002,10.3696684 12.656,10.025 C12.259998,9.68033161 11.9373346,9.26233579 11.688,8.771 C11.4386654,8.27966421 11.314,7.68200352 11.314,6.978 C11.314,6.27399648 11.4459987,5.63966949 11.71,5.075 C11.9740013,4.51033051 12.3479976,4.03000198 12.832,3.634 C13.3160024,3.23799802 13.9026632,2.93366773 14.592,2.721 C15.2813368,2.50833227 16.0586623,2.402 16.924,2.402 C17.9506718,2.402 18.8379963,2.5119989 19.586,2.732 C20.3340037,2.9520011 20.9499976,3.19399868 21.434,3.458 L20.444,6.164 C20.0186645,5.9439989 19.5456693,5.74966751 19.025,5.581 C18.5043307,5.41233249 17.877337,5.328 17.144,5.328 C16.3226626,5.328 15.7323351,5.44166553 15.373,5.669 C15.0136649,5.89633447 14.834,6.24466432 14.834,6.714 C14.834,6.99266806 14.8999993,7.22733238 15.032,7.418 C15.1640007,7.60866762 15.3509988,7.78099923 15.593,7.935 C15.8350012,8.08900077 16.1136651,8.22833271 16.429,8.353 C16.7443349,8.47766729 17.0926648,8.60599934 17.474,8.738 C18.266004,9.0313348 18.9553304,9.32099857 19.542,9.607 C20.1286696,9.89300143 20.6163314,10.2266648 21.005,10.608 C21.3936686,10.9893352 21.6833324,11.4366641 21.874,11.95 C22.0646676,12.4633359 22.16,13.086663 22.16,13.82 C22.16,15.2426738 21.6613383,16.3463294 20.664,17.131 C19.6666617,17.9156706 18.1633434,18.308 16.154,18.308 C15.47933,18.308 14.8706694,18.2676671 14.328,18.187 C13.7853306,18.1063329 13.3050021,18.0073339 12.887,17.89 C12.4689979,17.7726661 12.1096682,17.6480007 11.809,17.516 C11.5083318,17.3839993 11.2553344,17.2593339 11.05,17.142 L12.018,14.414 C12.4726689,14.6633346 13.0336633,14.886999 13.701,15.085 C14.3683367,15.283001 15.1859952,15.382 16.154,15.382 Z M27.858,18 L24.58,18 L24.58,6.428 L27.858,6.428 L27.858,18 Z M28.166,3.084 C28.166,3.68533634 27.9716686,4.15833161 27.583,4.503 C27.1943314,4.84766839 26.7360026,5.02 26.208,5.02 C25.6799974,5.02 25.2216686,4.84766839 24.833,4.503 C24.4443314,4.15833161 24.25,3.68533634 24.25,3.084 C24.25,2.48266366 24.4443314,2.00966839 24.833,1.665 C25.2216686,1.32033161 25.6799974,1.148 26.208,1.148 C26.7360026,1.148 27.1943314,1.32033161 27.583,1.665 C27.9716686,2.00966839 28.166,2.48266366 28.166,3.084 Z M30.938,6.824 C31.4953361,6.66266586 32.2139956,6.51233403 33.094,6.373 C33.9740044,6.23366597 34.8979952,6.164 35.866,6.164 C36.8486716,6.164 37.6663301,6.29233205 38.319,6.549 C38.9716699,6.80566795 39.4886648,7.16866432 39.87,7.638 C40.2513352,8.10733568 40.5226659,8.66466344 40.684,9.31 C40.8453341,9.95533656 40.926,10.673996 40.926,11.466 L40.926,18 L37.648,18 L37.648,11.862 C37.648,10.8059947 37.5086681,10.0580022 37.23,9.618 C36.9513319,9.1779978 36.4306705,8.958 35.668,8.958 C35.4333322,8.958 35.1840013,8.96899989 34.92,8.991 C34.6559987,9.01300011 34.4213344,9.03866652 34.216,9.068 L34.216,18 L30.938,18 L30.938,6.824 Z M47.174,10.608 C47.4966683,10.2559982 47.8303316,9.88933524 48.175,9.508 C48.5196684,9.12666476 48.8533317,8.74900187 49.176,8.375 C49.4986683,8.00099813 49.8029986,7.64533502 50.089,7.308 C50.3750014,6.97066498 50.6206656,6.67733458 50.826,6.428 L54.72,6.428 C53.9426628,7.32267114 53.1836704,8.17699593 52.443,8.991 C51.7023296,9.80500407 50.8920044,10.6446623 50.012,11.51 C50.4520022,11.906002 50.9066643,12.3789972 51.376,12.929 C51.8453357,13.4790027 52.2999978,14.0473304 52.74,14.634 C53.1800022,15.2206696 53.5833315,15.8073304 53.95,16.394 C54.3166685,16.9806696 54.6246654,17.5159976 54.874,18 L51.112,18 C50.8773322,17.6186648 50.6096682,17.1970023 50.309,16.735 C50.0083318,16.2729977 49.689335,15.8110023 49.352,15.349 C49.014665,14.8869977 48.6590019,14.4433355 48.285,14.018 C47.9109981,13.5926645 47.5406685,13.2333348 47.174,12.94 L47.174,18 L43.896,18 L43.896,1.456 L47.174,0.928 L47.174,10.608 Z M59.956,15.646 C60.5573363,15.646 60.9826654,15.5873339 61.232,15.47 C61.4813346,15.3526661 61.606,15.125335 61.606,14.788 C61.606,14.5239987 61.4446683,14.293001 61.122,14.095 C60.7993317,13.896999 60.3080033,13.6733346 59.648,13.424 C59.1346641,13.2333324 58.6690021,13.0353344 58.251,12.83 C57.8329979,12.6246656 57.4773348,12.3790014 57.184,12.093 C56.8906652,11.8069986 56.6633341,11.466002 56.502,11.07 C56.3406659,10.673998 56.26,10.1973361 56.26,9.64 C56.26,8.55466124 56.6633293,7.69666982 57.47,7.066 C58.2766707,6.43533018 59.383993,6.12 60.792,6.12 C61.4960035,6.12 62.1706634,6.18233271 62.816,6.307 C63.4613366,6.43166729 63.9746648,6.5673326 64.356,6.714 L63.784,9.266 C63.4026648,9.13399934 62.9883356,9.01666718 62.541,8.914 C62.0936644,8.81133282 61.5913361,8.76 61.034,8.76 C60.0073282,8.76 59.494,9.04599714 59.494,9.618 C59.494,9.75000066 59.5159998,9.86733282 59.56,9.97 C59.6040002,10.0726672 59.6919993,10.1716662 59.824,10.267 C59.9560007,10.3623338 60.1356655,10.4649994 60.363,10.575 C60.5903345,10.6850005 60.8799982,10.8059993 61.232,10.938 C61.9506703,11.2020013 62.5446643,11.462332 63.014,11.719 C63.4833357,11.9756679 63.8536653,12.2543318 64.125,12.555 C64.3963347,12.8556682 64.5869995,13.1893315 64.697,13.556 C64.8070006,13.9226685 64.862,14.3479976 64.862,14.832 C64.862,15.9760057 64.4330043,16.8413304 63.575,17.428 C62.7169957,18.0146696 61.5033412,18.308 59.934,18.308 C58.9073282,18.308 58.0530034,18.2200009 57.371,18.044 C56.6889966,17.8679991 56.2160013,17.7213339 55.952,17.604 L56.502,14.942 C57.0593361,15.1620011 57.6313304,15.3343327 58.218,15.459 C58.8046696,15.5836673 59.3839971,15.646 59.956,15.646 Z" id="Shape" fill="#001B3D"></path>
            </g>
            <g id="Dividers" transform="translate(192.000000, 0.000000)" fill="#000000">
                <polygon id="Line-3" points="0 4 0 297.5 2 297.5 2 4"></polygon>
                <polygon id="Line-3" points="300 0 300 300 302 300 302 0"></polygon>
            </g>
            <g id="Sink-Arrows" transform="translate(466.000000, 101.000000)">
                <path d="M122.274956,71.2259684 L120,71.2259684 L120,69.2259684 L122.274956,69.2259684 L122.274956,63.2259684 L136.274956,70.2259684 L122.274956,77.2259684 L122.274956,71.2259684 Z M0,71.2259684 L0,69.2259684 L7,69.2259684 L7,71.2259684 L0,71.2259684 Z M10,71.2259684 L10,69.2259684 L17,69.2259684 L17,71.2259684 L10,71.2259684 Z M20,71.2259684 L20,69.2259684 L27,69.2259684 L27,71.2259684 L20,71.2259684 Z M30,71.2259684 L30,69.2259684 L37,69.2259684 L37,71.2259684 L30,71.2259684 Z M40,71.2259684 L40,69.2259684 L47,69.2259684 L47,71.2259684 L40,71.2259684 Z M50,71.2259684 L50,69.2259684 L57,69.2259684 L57,71.2259684 L50,71.2259684 Z M60,71.2259684 L60,69.2259684 L67,69.2259684 L67,71.2259684 L60,71.2259684 Z M70,71.2259684 L70,69.2259684 L77,69.2259684 L77,71.2259684 L70,71.2259684 Z M80,71.2259684 L80,69.2259684 L87,69.2259684 L87,71.2259684 L80,71.2259684 Z M90,71.2259684 L90,69.2259684 L97,69.2259684 L97,71.2259684 L90,71.2259684 Z M100,71.2259684 L100,69.2259684 L107,69.2259684 L107,71.2259684 L100,71.2259684 Z M110,71.2259684 L110,69.2259684 L117,69.2259684 L117,71.2259684 L110,71.2259684 Z" id="Line-2" fill="#001B3D"></path>
                <path d="M53,130.225968 L39,137.225968 L39,123.225968 L53,130.225968 Z M-2.22044605e-16,131.225968 L-2.22044605e-16,129.225968 L7,129.225968 L7,131.225968 L-2.22044605e-16,131.225968 Z M10,131.225968 L10,129.225968 L17,129.225968 L17,131.225968 L10,131.225968 Z M20,131.225968 L20,129.225968 L27,129.225968 L27,131.225968 L20,131.225968 Z M30,131.225968 L30,129.225968 L37,129.225968 L37,131.225968 L30,131.225968 Z" id="Line-2" fill="#001B3D"></path>
                <path d="M53,7.5 L39,14.5 L39,0.5 L53,7.5 Z M0,8.5 L0,6.5 L14,6.5 L14,8.5 L0,8.5 Z M24,8.5 L24,6.5 L38,6.5 L38,8.5 L24,8.5 Z" id="Line-2" fill="url(#linearGradient-1)"></path>
            </g>
            <g id="Transforms" transform="translate(223.721371, 9.000000)">
                <g id="Aggregate" transform="translate(29.278629, 204.000000)">
                    <polygon id="Fill-74" fill="#001B3D" points="1.13686838e-13 43.0202204 99.9238736 59.9540001 199.84544 43.0202204 99.9238736 26.0846919"></polygon>
                    <polygon id="Fill-79" fill="#001B3D" points="0.206736663 43.0174706 1.13686838e-13 17.4237163 99.7120786 0.476190476 199.84544 17.5940651 199.516959 42.9577539 99.7120786 59.9540001"></polygon>
                    <polygon id="Fill-75" fill="#001B3D" points="5.68434189e-14 17.823885 5.68434189e-14 43.1880044 97.3605992 59.9540001 97.3605992 34.8063684"></polygon>
                    <polygon id="Fill-76" fill="#001B3D" points="100.776761 34.6757847 199.84544 17.823885 199.36429 43.1020671 100.776761 59.9540001"></polygon>
                    <polygon id="Fill-77" fill="#001B3D" points="100.776761 0.476190476 199.84544 17.437889 199.364396 42.6063057 100.981171 25.8281337"></polygon>
                    <polygon id="Fill-78" fill="#001B3D" points="1.13686838e-13 17.2204794 1.13686838e-13 42.6063057 99.0686799 25.8051804 98.8616119 0.476190476"></polygon>
                    <polygon id="Fill-74-Copy" fill-opacity="0.33241368" fill="#FFFFFF" points="1.70530257e-13 17.3059347 99.9238736 34.2397144 199.84544 17.3059347 99.9238736 0.370406148"></polygon>
                </g>
                <g id="Sample" transform="translate(29.278629, 138.000000)">
                    <polygon id="Fill-74" fill="#001B3D" points="1.13686838e-13 51.6242645 99.9238736 71.9448002 199.84544 51.6242645 99.9238736 31.3016302"></polygon>
                    <polygon id="Fill-79" fill="#001B3D" points="0.206736663 51.6209648 1.13686838e-13 20.9084596 99.7120786 0.571428571 199.84544 21.1128781 199.516959 51.5493047 99.7120786 71.9448002"></polygon>
                    <polygon id="Fill-75" fill="#001B3D" points="5.68434189e-14 21.388662 5.68434189e-14 51.8256053 97.3605992 71.9448002 97.3605992 41.7676421"></polygon>
                    <polygon id="Fill-76" fill="#001B3D" points="100.776761 41.6109417 199.84544 21.388662 199.36429 51.7224806 100.776761 71.9448002"></polygon>
                    <polygon id="Fill-77" fill="#001B3D" points="100.776761 0.571428571 199.84544 20.9254668 199.364396 51.1275668 100.981171 30.9937605"></polygon>
                    <polygon id="Fill-78" fill="#001B3D" points="1.13686838e-13 20.6645753 1.13686838e-13 51.1275668 99.0686799 30.9662165 98.8616119 0.571428571"></polygon>
                    <polygon id="Fill-74-Copy" fill-opacity="0.33241368" fill="#FFFFFF" points="1.70530257e-13 20.7671217 99.9238736 41.0876573 199.84544 20.7671217 99.9238736 0.444487378"></polygon>
                </g>
                <g id="Parse" transform="translate(29.278629, 74.000000)">
                    <polygon id="Fill-74" fill="#001B3D" points="1.13686838e-13 52.4612587 99.9238736 72.9443586 199.84544 52.4612587 99.9238736 31.9760433"></polygon>
                    <polygon id="Fill-79" fill="#001B3D" points="0.206736663 52.4579325 1.13686838e-13 21.4997273 99.7120786 1 199.84544 21.7057811 199.516959 52.3856991 99.7120786 72.9443586"></polygon>
                    <polygon id="Fill-75" fill="#001B3D" points="5.68434189e-14 21.9837713 5.68434189e-14 52.6642102 97.3605992 72.9443586 97.3605992 42.5257832"></polygon>
                    <polygon id="Fill-76" fill="#001B3D" points="100.776761 42.3678292 199.84544 21.9837713 199.36429 52.5602604 100.776761 72.9443586"></polygon>
                    <polygon id="Fill-77" fill="#001B3D" points="100.776761 1 199.84544 21.5168705 199.364396 51.9605873 100.981171 31.6657106"></polygon>
                    <polygon id="Fill-78" fill="#001B3D" points="1.13686838e-13 21.2538919 1.13686838e-13 51.9605873 99.0686799 31.6379463 98.8616119 1"></polygon>
                    <polygon id="Fill-74-Copy" fill-opacity="0.33241368" fill="#FFFFFF" points="1.70530257e-13 21.3572587 99.9238736 41.8403586 199.84544 21.3572587 99.9238736 0.872043277"></polygon>
                </g>
                <path d="M142.724216,119.783248 L147.23819,119.783248 C149.465183,119.783248 150.475063,121.275409 149.702789,123.524897 C148.938238,125.751891 146.843823,127.244052 144.564341,127.244052 L142.427326,127.244052 L141.274064,130.603289 L139.009579,130.603289 L142.724216,119.783248 Z M144.350288,121.642825 L143.058017,125.40697 L144.700143,125.40697 C145.997349,125.40697 146.98121,124.74712 147.398238,123.532396 C147.820414,122.302675 147.304617,121.642825 145.999913,121.642825 L144.350288,121.642825 Z M152.344164,129.088633 C153.356434,129.088633 154.342646,128.443779 154.630961,127.60397 L154.839475,126.996608 L153.131316,127.101584 C152.17086,127.169069 151.597623,127.506492 151.394258,128.098858 C151.18317,128.713718 151.586836,129.088633 152.344164,129.088633 Z M151.060568,130.73076 C149.470929,130.73076 148.688335,129.755981 149.208333,128.241325 C149.723182,126.741666 151.169034,125.871864 153.264755,125.751891 L155.307988,125.631918 L155.53967,124.957072 C155.7765,124.267229 155.415474,123.877317 154.515678,123.877317 C153.728357,123.877317 153.110803,124.147256 152.760944,124.642143 L150.751401,124.642143 C151.419015,123.112491 153.150699,122.152709 155.227727,122.152709 C157.41723,122.152709 158.299203,123.187474 157.691681,124.957072 L155.753274,130.603289 L153.638754,130.603289 L154.009446,129.523534 L153.874476,129.523534 C153.187075,130.280862 152.132824,130.73076 151.060568,130.73076 Z M157.897786,130.603289 L160.737179,122.332668 L162.851699,122.332668 L162.398631,123.652368 L162.533601,123.652368 C163.034218,122.827556 164.105261,122.197699 165.155022,122.197699 C165.454954,122.197699 165.809499,122.23519 165.973788,122.302675 L165.291613,124.289723 C165.142321,124.222239 164.655605,124.154754 164.303185,124.154754 C163.110956,124.154754 162.051663,124.859594 161.652654,126.02183 L160.07979,130.603289 L157.897786,130.603289 Z M166.20919,124.762116 C166.747208,123.194972 168.484714,122.152709 170.546746,122.152709 C172.646269,122.152709 173.582301,123.03001 173.159108,124.61215 L171.142066,124.61215 C171.212363,124.079771 170.823244,123.749846 170.013428,123.749846 C169.233605,123.749846 168.535247,124.102266 168.35505,124.627147 C168.21604,125.032055 168.48351,125.279499 169.189129,125.451959 L170.625435,125.789383 C172.109081,126.141803 172.597235,126.816649 172.172484,128.053868 C171.60615,129.703493 169.758295,130.783248 167.591287,130.783248 C165.409283,130.783248 164.395918,129.89095 164.791693,128.301312 L166.921209,128.301312 C166.893103,128.863684 167.314789,129.186111 168.184591,129.186111 C169.031899,129.186111 169.737755,128.833691 169.920527,128.301312 C170.059536,127.896404 169.829558,127.64896 169.156282,127.491496 L167.772464,127.154073 C166.288818,126.801653 165.771569,126.036826 166.20919,124.762116 Z M178.993139,123.824829 C177.980869,123.824829 177.026552,124.529669 176.583452,125.601925 L180.107651,125.601925 C180.438501,124.507174 180.012907,123.824829 178.993139,123.824829 Z M179.243932,128.248824 L181.27597,128.248824 C180.420674,129.800971 178.651274,130.783248 176.626734,130.783248 C174.107306,130.783248 173.168384,129.193609 174.089964,126.509219 C175.014118,123.817331 177.100256,122.152709 179.559697,122.152709 C181.996643,122.152709 182.903447,123.704856 182.002461,126.32926 L181.773354,126.996608 L176.097144,126.996608 L176.05853,127.109083 C175.666347,128.338803 176.12361,129.103629 177.263351,129.103629 C178.125655,129.103629 178.823565,128.796199 179.243932,128.248824 Z" id="Parse" fill="#FFFFFF" transform="translate(160.676624, 125.283248) rotate(-12.000000) translate(-160.676624, -125.283248) "></path>
                <path d="M138.906466,194.228116 L141.120295,193.795761 C141.019591,194.646949 141.781626,195.031151 143.0705,194.779438 C144.260812,194.546973 145.236733,193.816245 145.429437,193.003947 C145.592086,192.318337 145.13991,192.029974 143.865147,192.008865 L142.510521,191.989139 C140.613794,191.968679 139.877972,191.138723 140.266916,189.499221 C140.747792,187.4722 142.724623,185.813976 145.249299,185.320913 C147.660251,184.850061 149.051422,185.843417 148.665299,187.745327 L146.512122,188.165837 C146.607523,187.337006 145.938235,186.927584 144.83132,187.143761 C143.686497,187.367342 142.804582,188.037068 142.61011,188.856819 C142.452764,189.520072 142.885731,189.797973 144.103378,189.816022 L145.357164,189.83412 C147.447988,189.859316 148.174698,190.605768 147.778683,192.275079 C147.264216,194.443693 145.258826,196.100388 142.514284,196.63639 C139.90621,197.145739 138.514291,196.216493 138.906466,194.228116 Z M152.216708,193.042957 C153.240225,192.843067 154.165591,192.051143 154.363598,191.216487 L154.5068,190.612852 L152.791351,191.047373 C151.827738,191.299527 151.285703,191.725201 151.146037,192.313931 C151.001067,192.925018 151.450965,193.192505 152.216708,193.042957 Z M151.101698,194.817151 C149.494396,195.131053 148.594567,194.382875 148.951688,192.877514 C149.305273,191.387058 150.670339,190.296051 152.775987,189.771112 L154.828563,189.256537 L154.987676,188.585832 C155.150325,187.900222 154.741871,187.610427 153.832078,187.788107 C153.036009,187.943577 152.441651,188.315506 152.14301,188.842893 L150.111138,189.239712 C150.615846,187.691314 152.259901,186.460537 154.360007,186.050392 C156.573837,185.618037 157.580829,186.402142 157.163598,188.16088 L155.83235,193.772449 L153.694336,194.189997 L153.948917,193.116868 L153.812448,193.14352 C153.201736,193.980599 152.185868,194.605416 151.101698,194.817151 Z M158.00069,193.348978 L159.950712,185.129111 L162.088726,184.711562 L161.770499,186.052973 L161.906968,186.026321 C162.470899,185.020704 163.480683,184.269149 164.580016,184.054452 C165.755165,183.824949 166.424454,184.234371 166.53175,185.123114 L166.668219,185.096462 C167.272336,184.104317 168.378402,183.312638 169.54597,183.084615 C171.213924,182.758868 171.999791,183.621693 171.598472,185.313361 L170.260152,190.954738 L168.053904,191.385613 L169.256093,186.318061 C169.487692,185.341812 169.140129,184.947734 168.207591,185.129856 C167.312961,185.304575 166.588253,186.043098 166.381405,186.915015 L165.188055,191.945305 L163.065205,192.359892 L164.28861,187.202913 C164.495457,186.330996 164.098359,185.932378 163.234055,186.101174 C162.369752,186.26997 161.598296,187.053157 161.380841,187.969788 L160.206938,192.918103 L158.00069,193.348978 Z M179.209496,181.239997 C181.324764,180.826891 182.246419,182.15358 181.61527,184.814045 C180.985888,187.467057 179.328028,189.304626 177.235504,189.71329 C176.03761,189.947236 175.242222,189.612189 175.039662,188.820228 L174.903193,188.84688 L173.957353,192.833851 L171.751105,193.264725 L174.348188,182.317323 L176.486202,181.899775 L176.166207,183.248638 L176.302676,183.221986 C176.976795,182.209063 178.057091,181.465058 179.209496,181.239997 Z M176.876623,188.056375 C178.066935,187.82391 178.987712,186.77703 179.348369,185.256764 C179.70549,183.751403 179.210273,182.973956 178.035124,183.203459 C176.859975,183.432962 175.912917,184.49919 175.555796,186.00455 C175.198675,187.509911 175.709055,188.284398 176.876623,188.056375 Z M182.512032,188.56198 L185.206351,177.204702 L187.412599,176.773828 L184.71828,188.131105 L182.512032,188.56198 Z M192.222559,180.240803 C191.199042,180.440693 190.312604,181.281871 189.983974,182.362354 L193.54733,181.66644 C193.759958,180.587291 193.253658,180.039432 192.222559,180.240803 Z M192.968742,184.288211 L195.023358,183.886951 C194.331388,185.493242 192.651703,186.752298 190.604668,187.152078 C188.057248,187.649583 186.930889,186.362871 187.563807,183.694954 C188.198492,181.019585 190.122457,179.066083 192.609225,178.580424 C195.073248,178.099207 196.162956,179.357542 195.544182,181.96584 L195.386836,182.629093 L189.647558,183.749959 L189.621039,183.861743 C189.361426,185.077994 189.908932,185.695983 191.061337,185.470922 C191.933222,185.300645 192.604654,184.878129 192.968742,184.288211 Z" id="Sample" fill="#FFFFFF"></path>
                <path d="M14.379204,161.590782 C10.7929992,155.128919 9,147.926538 9,140 C9,127.153085 13.3775094,116.876139 22.1211537,109.246524 L22.8746297,108.589049 L24.1895806,110.096 L23.4361047,110.753476 C15.1415768,117.991197 11,127.714251 11,140 C11,147.470383 12.6548675,154.239403 15.964406,160.322645 L20.4991214,156.694941 L23.7786292,172 L9.56687739,165.440571 L14.379204,161.590782 Z" id="Line" fill="#001B3D"></path>
                <path d="M14.3141739,225.644231 C4.76775209,211.063968 0,193.174861 0,172 C0,145.12301 7.34863133,124.202725 22.0670751,109.297369 L22.7697064,108.585815 L24.1928146,109.991077 L23.4901833,110.702631 C9.17045481,125.204209 2,145.617256 2,172 C2,192.72483 6.63088086,210.179546 15.8818472,224.386978 L20.4804629,220.698951 L23.7786292,236 L9.55889027,229.457904 L14.3141739,225.644231 Z" id="Line" fill="#001B3D"></path>
                <path d="M145.190506,253.517035 L145.132342,250.999273 L141.407669,251.646141 L139.849604,254.444596 L137.623616,254.831186 L144.419262,243.047176 L147.027268,242.594241 L147.592809,253.099824 L145.190506,253.517035 Z M144.939735,245.161318 L142.388176,249.763668 L145.165151,249.281388 L145.071971,245.138352 L144.939735,245.161318 Z M152.87704,250.374389 C154.037786,250.172801 154.989564,249.118343 155.408358,247.620013 C155.827152,246.121682 155.392601,245.300642 154.239201,245.500954 C153.085801,245.701266 152.153905,246.75962 151.737269,248.250227 C151.316316,249.75628 151.716294,250.575977 152.87704,250.374389 Z M151.414255,255.507798 C149.261732,255.88163 148.114989,255.132837 148.401546,253.657472 L150.517337,253.29002 C150.48074,253.79607 150.990327,254.023553 151.915986,253.862792 C153.062039,253.663756 153.885999,252.99157 154.153682,252.033874 L154.594063,250.458311 L154.461826,250.481276 C153.763277,251.455013 152.777242,252.081863 151.638535,252.279623 C149.618249,252.630489 148.821809,251.203589 149.538508,248.639436 C150.276795,245.99805 152.010996,244.094909 154.068015,243.737664 C155.162643,243.547559 155.935901,243.957051 156.108138,244.8163 L156.240375,244.793334 L156.62247,243.426301 L158.694182,243.066504 L156.321734,251.554468 C155.762622,253.554816 153.860638,255.082932 151.414255,255.507798 Z M162.589107,248.687683 C163.749853,248.486095 164.70163,247.431637 165.120424,245.933307 C165.539219,244.434976 165.104667,243.613935 163.951267,243.814248 C162.797868,244.01456 161.865971,245.072914 161.449336,246.56352 C161.028383,248.069574 161.42836,248.889271 162.589107,248.687683 Z M161.126322,253.821092 C158.973799,254.194923 157.827055,253.446131 158.113613,251.970766 L160.229403,251.603314 C160.192807,252.109364 160.702394,252.336846 161.628052,252.176086 C162.774105,251.97705 163.598065,251.304864 163.865748,250.347168 L164.30613,248.771604 L164.173893,248.79457 C163.475344,249.768307 162.489309,250.395157 161.350602,250.592917 C159.330316,250.943783 158.533875,249.516883 159.250575,246.95273 C159.988862,244.311344 161.723063,242.408203 163.780081,242.050958 C164.874709,241.860853 165.647968,242.270345 165.820204,243.129594 L165.952441,243.106628 L166.334537,241.739594 L168.406248,241.379798 L166.0338,249.867762 C165.474689,251.86811 163.572705,253.396226 161.126322,253.821092 Z M168.170342,249.5261 L170.551425,241.007242 L172.623137,240.647446 L172.243199,242.006756 L172.375436,241.98379 C172.825945,241.097221 173.844779,240.30301 174.873289,240.124387 C175.167149,240.073352 175.516333,240.049451 175.680567,240.087065 L175.108503,242.133753 C174.958962,242.093588 174.478829,242.110837 174.133543,242.170803 C172.965451,242.373667 171.961762,243.238733 171.627158,244.435852 L170.308172,249.15482 L168.170342,249.5261 Z M179.98818,240.83069 C178.996403,241.002933 178.095565,241.850136 177.713401,242.967334 L181.166254,242.367673 C181.43735,241.247719 180.987303,240.657171 179.98818,240.83069 Z M180.4483,245.086361 L182.4392,244.740599 C181.676443,246.394196 179.990469,247.649647 178.006915,247.994133 C175.538493,248.422827 174.541538,247.0381 175.314364,244.273139 C176.08935,241.500456 178.052581,239.528145 180.462231,239.109658 C182.849842,238.694999 183.813511,240.048765 183.057954,242.751938 L182.865827,243.439317 L177.30453,244.405154 L177.272149,244.521004 C176.947503,245.78253 177.432576,246.447828 178.549243,246.253895 C179.39409,246.10717 180.062971,245.689718 180.4483,245.086361 Z M187.706773,244.325468 C188.867519,244.12388 189.819297,243.069422 190.238091,241.571092 C190.656885,240.072761 190.222334,239.25172 189.068934,239.452033 C187.915534,239.652345 186.983638,240.710698 186.567002,242.201305 C186.146049,243.707359 186.546027,244.527056 187.706773,244.325468 Z M186.243988,249.458877 C184.091465,249.832708 182.944722,249.083916 183.231279,247.608551 L185.34707,247.241099 C185.310473,247.747149 185.82006,247.974631 186.745719,247.813871 C187.891772,247.614835 188.715732,246.942649 188.983415,245.984953 L189.423796,244.409389 L189.291559,244.432355 C188.59301,245.406092 187.606975,246.032942 186.468269,246.230702 C184.447982,246.581568 183.651542,245.154668 184.368241,242.590515 C185.106528,239.949129 186.840729,238.045988 188.897748,237.688743 C189.992376,237.498637 190.765634,237.908129 190.937871,238.767378 L191.070108,238.744413 L191.452203,237.377379 L193.523915,237.017583 L191.151467,245.505547 C190.592355,247.505895 188.690371,249.034011 186.243988,249.458877 Z M196.647978,243.09597 C197.639755,242.923727 198.574748,242.129379 198.816526,241.264364 L198.991384,240.638772 L197.322893,241.031419 C196.385153,241.260414 195.839873,241.685793 195.669334,242.295938 C195.492317,242.929252 195.905982,243.224833 196.647978,243.09597 Z M195.469952,244.909868 C193.912495,245.180353 193.098502,244.366423 193.534567,242.806306 C193.966313,241.261635 195.34074,240.170517 197.388219,239.697354 L199.384273,239.233122 L199.578559,238.53802 C199.777163,237.827472 199.404548,237.510065 198.522969,237.66317 C197.751587,237.797137 197.159618,238.164489 196.840825,238.704851 L194.871965,239.046786 C195.45193,237.44698 197.102042,236.219803 199.137021,235.866385 C201.282198,235.49383 202.196464,236.349133 201.687003,238.171844 L200.061477,243.987528 L197.989766,244.347325 L198.300623,243.235162 L198.168386,243.258128 C197.531604,244.110912 196.520501,244.727418 195.469952,244.909868 Z M205.719005,232.974355 L207.856835,232.603076 L207.267501,234.711551 L208.949848,234.419376 L208.455498,236.188023 L206.773151,236.480198 L205.702419,240.310981 C205.495181,241.052423 205.723442,241.336112 206.450745,241.2098 C206.729912,241.161317 206.879001,241.128076 207.091179,241.069182 L206.61194,242.783766 C206.332355,242.883761 205.922692,242.998998 205.511288,243.070447 C203.542427,243.412381 202.951509,242.875693 203.415636,241.215172 L204.635321,236.851478 L203.371724,237.070928 L203.866073,235.302281 L205.129671,235.08283 L205.719005,232.974355 Z M213.767364,234.964219 C212.775587,235.136462 211.874749,235.983665 211.492586,237.100863 L214.945438,236.501202 C215.216534,235.381248 214.766488,234.7907 213.767364,234.964219 Z M214.227484,239.21989 L216.218385,238.874128 C215.455627,240.527725 213.769653,241.783176 211.786099,242.127662 C209.317677,242.556356 208.320722,241.171628 209.093549,238.406668 C209.868534,235.633985 211.831765,233.661674 214.241415,233.243187 C216.629026,232.828528 217.592695,234.182294 216.837139,236.885467 L216.645011,237.572846 L211.083715,238.538683 L211.051334,238.654533 C210.726687,239.916059 211.21176,240.581357 212.328427,240.387424 C213.173274,240.240699 213.842156,239.823247 214.227484,239.21989 Z" id="Aggregate" fill="#FFFFFF"></path>
                <path d="M82.7326292,2.754 L82.7326292,5.68 L78.1346292,5.68 L78.1346292,18 L74.7026292,18 L74.7026292,5.68 L70.1046292,5.68 L70.1046292,2.754 L82.7326292,2.754 Z M90.1686292,9.332 C89.8752944,9.2586663 89.5306312,9.18166707 89.1346292,9.101 C88.7386272,9.02033293 88.3132982,8.98 87.8586292,8.98 C87.6532949,8.98 87.4076306,8.99833315 87.1216292,9.035 C86.8356278,9.07166685 86.6192966,9.11199978 86.4726292,9.156 L86.4726292,18 L83.1946292,18 L83.1946292,7.044 C83.7812988,6.83866564 84.4742919,6.64433425 85.2736292,6.461 C86.0729665,6.27766575 86.9639576,6.186 87.9466292,6.186 C88.1226301,6.186 88.3352946,6.19699989 88.5846292,6.219 C88.8339638,6.24100011 89.0832946,6.27033315 89.3326292,6.307 C89.5819638,6.34366685 89.8312946,6.38766641 90.0806292,6.439 C90.3299638,6.49033359 90.5426283,6.5526663 90.7186292,6.626 L90.1686292,9.332 Z M96.6806292,15.712 C97.0032975,15.712 97.3112944,15.7046667 97.6046292,15.69 C97.897964,15.6753333 98.1326283,15.6533335 98.3086292,15.624 L98.3086292,13.138 C98.1766286,13.1086665 97.9786305,13.0793335 97.7146292,13.05 C97.4506279,13.0206665 97.2086303,13.006 96.9886292,13.006 C96.6806277,13.006 96.3909639,13.0243331 96.1196292,13.061 C95.8482945,13.0976668 95.6099636,13.1673328 95.4046292,13.27 C95.1992949,13.3726672 95.0379631,13.5119991 94.9206292,13.688 C94.8032953,13.8640009 94.7446292,14.0839987 94.7446292,14.348 C94.7446292,14.8613359 94.9169608,15.216999 95.2616292,15.415 C95.6062976,15.613001 96.0792929,15.712 96.6806292,15.712 Z M96.4166292,6.12 C97.3846341,6.12 98.1912927,6.2299989 98.8366292,6.45 C99.4819658,6.6700011 99.9989606,6.98533128 100.387629,7.396 C100.776298,7.80666872 101.051295,8.3053304 101.212629,8.892 C101.373963,9.4786696 101.454629,10.1313297 101.454629,10.85 L101.454629,17.67 C100.985293,17.7726672 100.332633,17.893666 99.4966292,18.033 C98.660625,18.172334 97.6486352,18.242 96.4606292,18.242 C95.7126255,18.242 95.0342989,18.1760007 94.4256292,18.044 C93.8169595,17.9119993 93.2926314,17.6956682 92.8526292,17.395 C92.412627,17.0943318 92.0752971,16.7020024 91.8406292,16.218 C91.6059614,15.7339976 91.4886292,15.1400035 91.4886292,14.436 C91.4886292,13.76133 91.6242945,13.1893357 91.8956292,12.72 C92.1669639,12.2506643 92.5299603,11.8766681 92.9846292,11.598 C93.4392982,11.3193319 93.9599596,11.1176673 94.5466292,10.993 C95.1332988,10.8683327 95.7419594,10.806 96.3726292,10.806 C96.7979647,10.806 97.1756276,10.8243331 97.5056292,10.861 C97.8356309,10.8976668 98.1032949,10.945333 98.3086292,11.004 L98.3086292,10.696 C98.3086292,10.1386639 98.1399642,9.69133502 97.8026292,9.354 C97.4652942,9.01666498 96.8786334,8.848 96.0426292,8.848 C95.4852931,8.848 94.9352986,8.88833293 94.3926292,8.969 C93.8499598,9.04966707 93.3806312,9.1633326 92.9846292,9.31 L92.5666292,6.67 C92.7572968,6.61133304 92.9956278,6.54900033 93.2816292,6.483 C93.5676306,6.41699967 93.8792942,6.35833359 94.2166292,6.307 C94.5539642,6.25566641 94.9096273,6.21166685 95.2836292,6.175 C95.6576311,6.13833315 96.035294,6.12 96.4166292,6.12 Z M104.424629,6.824 C104.981965,6.66266586 105.700625,6.51233403 106.580629,6.373 C107.460634,6.23366597 108.384624,6.164 109.352629,6.164 C110.335301,6.164 111.152959,6.29233205 111.805629,6.549 C112.458299,6.80566795 112.975294,7.16866432 113.356629,7.638 C113.737964,8.10733568 114.009295,8.66466344 114.170629,9.31 C114.331963,9.95533656 114.412629,10.673996 114.412629,11.466 L114.412629,18 L111.134629,18 L111.134629,11.862 C111.134629,10.8059947 110.995297,10.0580022 110.716629,9.618 C110.437961,9.1779978 109.9173,8.958 109.154629,8.958 C108.919961,8.958 108.670631,8.96899989 108.406629,8.991 C108.142628,9.01300011 107.907964,9.03866652 107.702629,9.068 L107.702629,18 L104.424629,18 L104.424629,6.824 Z M120.704629,15.646 C121.305966,15.646 121.731295,15.5873339 121.980629,15.47 C122.229964,15.3526661 122.354629,15.125335 122.354629,14.788 C122.354629,14.5239987 122.193297,14.293001 121.870629,14.095 C121.547961,13.896999 121.056633,13.6733346 120.396629,13.424 C119.883293,13.2333324 119.417631,13.0353344 118.999629,12.83 C118.581627,12.6246656 118.225964,12.3790014 117.932629,12.093 C117.639294,11.8069986 117.411963,11.466002 117.250629,11.07 C117.089295,10.673998 117.008629,10.1973361 117.008629,9.64 C117.008629,8.55466124 117.411959,7.69666982 118.218629,7.066 C119.0253,6.43533018 120.132622,6.12 121.540629,6.12 C122.244633,6.12 122.919293,6.18233271 123.564629,6.307 C124.209966,6.43166729 124.723294,6.5673326 125.104629,6.714 L124.532629,9.266 C124.151294,9.13399934 123.736965,9.01666718 123.289629,8.914 C122.842294,8.81133282 122.339965,8.76 121.782629,8.76 C120.755957,8.76 120.242629,9.04599714 120.242629,9.618 C120.242629,9.75000066 120.264629,9.86733282 120.308629,9.97 C120.352629,10.0726672 120.440629,10.1716662 120.572629,10.267 C120.70463,10.3623338 120.884295,10.4649994 121.111629,10.575 C121.338964,10.6850005 121.628627,10.8059993 121.980629,10.938 C122.699299,11.2020013 123.293294,11.462332 123.762629,11.719 C124.231965,11.9756679 124.602295,12.2543318 124.873629,12.555 C125.144964,12.8556682 125.335629,13.1893315 125.445629,13.556 C125.55563,13.9226685 125.610629,14.3479976 125.610629,14.832 C125.610629,15.9760057 125.181634,16.8413304 124.323629,17.428 C123.465625,18.0146696 122.25197,18.308 120.682629,18.308 C119.655957,18.308 118.801633,18.2200009 118.119629,18.044 C117.437626,17.8679991 116.964631,17.7213339 116.700629,17.604 L117.250629,14.942 C117.807965,15.1620011 118.37996,15.3343327 118.966629,15.459 C119.553299,15.5836673 120.132626,15.646 120.704629,15.646 Z M133.068629,0.928 C133.684632,0.928 134.249293,0.99033271 134.762629,1.115 C135.275965,1.23966729 135.671961,1.36066608 135.950629,1.478 L135.312629,4.096 C135.019294,3.96399934 134.700298,3.86500033 134.355629,3.799 C134.010961,3.73299967 133.691964,3.7 133.398629,3.7 C133.002627,3.7 132.668964,3.75499945 132.397629,3.865 C132.126295,3.97500055 131.91363,4.12533238 131.759629,4.316 C131.605628,4.50666762 131.49563,4.73399868 131.429629,4.998 C131.363629,5.26200132 131.330629,5.54799846 131.330629,5.856 L131.330629,6.428 L135.378629,6.428 L135.378629,9.156 L131.330629,9.156 L131.330629,18 L128.052629,18 L128.052629,5.812 C128.052629,4.31599252 128.474292,3.1280044 129.317629,2.248 C130.160967,1.3679956 131.411288,0.928 133.068629,0.928 Z M147.984629,12.192 C147.984629,13.1013379 147.852631,13.9336629 147.588629,14.689 C147.324628,15.4443371 146.943298,16.089664 146.444629,16.625 C145.94596,17.160336 145.348299,17.5746652 144.651629,17.868 C143.954959,18.1613348 143.173967,18.308 142.308629,18.308 C141.457958,18.308 140.684299,18.1613348 139.987629,17.868 C139.290959,17.5746652 138.693298,17.160336 138.194629,16.625 C137.69596,16.089664 137.307297,15.4443371 137.028629,14.689 C136.749961,13.9336629 136.610629,13.1013379 136.610629,12.192 C136.610629,11.2826621 136.753628,10.4540037 137.039629,9.706 C137.325631,8.95799626 137.721627,8.32000264 138.227629,7.792 C138.733632,7.26399736 139.334959,6.8533348 140.031629,6.56 C140.728299,6.2666652 141.487292,6.12 142.308629,6.12 C143.144633,6.12 143.910959,6.2666652 144.607629,6.56 C145.304299,6.8533348 145.90196,7.26399736 146.400629,7.792 C146.899298,8.32000264 147.287961,8.95799626 147.566629,9.706 C147.845297,10.4540037 147.984629,11.2826621 147.984629,12.192 Z M144.640629,12.192 C144.640629,11.1799949 144.438965,10.3843362 144.035629,9.805 C143.632294,9.22566377 143.056633,8.936 142.308629,8.936 C141.560625,8.936 140.981298,9.22566377 140.570629,9.805 C140.15996,10.3843362 139.954629,11.1799949 139.954629,12.192 C139.954629,13.2040051 140.15996,14.006997 140.570629,14.601 C140.981298,15.195003 141.560625,15.492 142.308629,15.492 C143.056633,15.492 143.632294,15.195003 144.035629,14.601 C144.438965,14.006997 144.640629,13.2040051 144.640629,12.192 Z M157.488629,9.332 C157.195294,9.2586663 156.850631,9.18166707 156.454629,9.101 C156.058627,9.02033293 155.633298,8.98 155.178629,8.98 C154.973295,8.98 154.727631,8.99833315 154.441629,9.035 C154.155628,9.07166685 153.939297,9.11199978 153.792629,9.156 L153.792629,18 L150.514629,18 L150.514629,7.044 C151.101299,6.83866564 151.794292,6.64433425 152.593629,6.461 C153.392967,6.27766575 154.283958,6.186 155.266629,6.186 C155.44263,6.186 155.655295,6.19699989 155.904629,6.219 C156.153964,6.24100011 156.403295,6.27033315 156.652629,6.307 C156.901964,6.34366685 157.151295,6.38766641 157.400629,6.439 C157.649964,6.49033359 157.862628,6.5526663 158.038629,6.626 L157.488629,9.332 Z M166.156629,11.862 C166.156629,10.8059947 166.020964,10.0580022 165.749629,9.618 C165.478295,9.1779978 165.012633,8.958 164.352629,8.958 C164.147295,8.958 163.93463,8.96899989 163.714629,8.991 C163.494628,9.01300011 163.281964,9.03866652 163.076629,9.068 L163.076629,18 L159.798629,18 L159.798629,6.824 C160.077297,6.7506663 160.403627,6.67366707 160.777629,6.593 C161.151631,6.51233293 161.547627,6.43900033 161.965629,6.373 C162.383631,6.30699967 162.812627,6.25566685 163.252629,6.219 C163.692631,6.18233315 164.125294,6.164 164.550629,6.164 C165.386633,6.164 166.06496,6.27033227 166.585629,6.483 C167.106298,6.69566773 167.535294,6.9486652 167.872629,7.242 C168.341965,6.90466498 168.88096,6.64066762 169.489629,6.45 C170.098299,6.25933238 170.659293,6.164 171.172629,6.164 C172.096634,6.164 172.855626,6.29233205 173.449629,6.549 C174.043632,6.80566795 174.516627,7.16866432 174.868629,7.638 C175.220631,8.10733568 175.462629,8.66466344 175.594629,9.31 C175.72663,9.95533656 175.792629,10.673996 175.792629,11.466 L175.792629,18 L172.514629,18 L172.514629,11.862 C172.514629,10.8059947 172.378964,10.0580022 172.107629,9.618 C171.836295,9.1779978 171.370633,8.958 170.710629,8.958 C170.534628,8.958 170.288964,9.00199956 169.973629,9.09 C169.658294,9.17800044 169.397964,9.28799934 169.192629,9.42 C169.295296,9.75733502 169.361296,10.1129981 169.390629,10.487 C169.419963,10.8610019 169.434629,11.2606645 169.434629,11.686 L169.434629,18 L166.156629,18 L166.156629,11.862 Z M182.084629,15.646 C182.685966,15.646 183.111295,15.5873339 183.360629,15.47 C183.609964,15.3526661 183.734629,15.125335 183.734629,14.788 C183.734629,14.5239987 183.573297,14.293001 183.250629,14.095 C182.927961,13.896999 182.436633,13.6733346 181.776629,13.424 C181.263293,13.2333324 180.797631,13.0353344 180.379629,12.83 C179.961627,12.6246656 179.605964,12.3790014 179.312629,12.093 C179.019294,11.8069986 178.791963,11.466002 178.630629,11.07 C178.469295,10.673998 178.388629,10.1973361 178.388629,9.64 C178.388629,8.55466124 178.791959,7.69666982 179.598629,7.066 C180.4053,6.43533018 181.512622,6.12 182.920629,6.12 C183.624633,6.12 184.299293,6.18233271 184.944629,6.307 C185.589966,6.43166729 186.103294,6.5673326 186.484629,6.714 L185.912629,9.266 C185.531294,9.13399934 185.116965,9.01666718 184.669629,8.914 C184.222294,8.81133282 183.719965,8.76 183.162629,8.76 C182.135957,8.76 181.622629,9.04599714 181.622629,9.618 C181.622629,9.75000066 181.644629,9.86733282 181.688629,9.97 C181.732629,10.0726672 181.820629,10.1716662 181.952629,10.267 C182.08463,10.3623338 182.264295,10.4649994 182.491629,10.575 C182.718964,10.6850005 183.008627,10.8059993 183.360629,10.938 C184.079299,11.2020013 184.673294,11.462332 185.142629,11.719 C185.611965,11.9756679 185.982295,12.2543318 186.253629,12.555 C186.524964,12.8556682 186.715629,13.1893315 186.825629,13.556 C186.93563,13.9226685 186.990629,14.3479976 186.990629,14.832 C186.990629,15.9760057 186.561634,16.8413304 185.703629,17.428 C184.845625,18.0146696 183.63197,18.308 182.062629,18.308 C181.035957,18.308 180.181633,18.2200009 179.499629,18.044 C178.817626,17.8679991 178.344631,17.7213339 178.080629,17.604 L178.630629,14.942 C179.187965,15.1620011 179.75996,15.3343327 180.346629,15.459 C180.933299,15.5836673 181.512626,15.646 182.084629,15.646 Z" id="Shape" fill="#001B3D"></path>
            </g>
            <g id="Group-16" transform="translate(333.000000, 42.000000)">
                <g id="Group-15" transform="translate(8.337072, 0.000000)">
                    <polygon id="Triangle" fill="#001B3D" transform="translate(18.869266, 17.145933) scale(-1, 1) rotate(-180.000000) translate(-18.869266, -17.145933) " points="18.8692664 4.5504058 33.9838989 29.74146 3.75463383 29.74146"></polygon>
                    <polygon id="Triangle" fill="#FFFFFF" transform="translate(15.289485, 12.664577) scale(-1, 1) rotate(-180.000000) translate(-15.289485, -12.664577) " points="15.289485 0.0690497 30.4041175 25.260104 0.174852433 25.260104"></polygon>
                </g>
                <g id="Symbol" transform="translate(0.000000, 2.967034)">
                    <polygon id="Triangle" fill="#001B3D" transform="translate(15.035082, 14.112607) scale(-1, 1) rotate(-180.000000) translate(-15.035082, -14.112607) " points="15.0350819 1.5833725 30.0701637 26.6418422 0 26.6418422"></polygon>
                    <g id="Mask" transform="translate(15.000000, 7.360696) scale(-1, 1) rotate(-180.000000) translate(-15.000000, -7.360696) translate(7.000000, 0.860696)" fill="#FFFFFF">
                        <polygon id="path-2" points="8.1888799 0.0265168992 15.8734773 12.8341792 0.50428248 12.8341792"></polygon>
                    </g>
                </g>
            </g>
            <g id="Source-Arrows" transform="translate(84.500000, 97.638384)">
                <polygon id="Line-4" fill="url(#linearGradient-2)" points="135.231475 9.3572192 81.0095209 9.87104747 80.9905689 7.87113727 135.212523 7.357309 135.155668 1.35757839 149.221371 8.22460063 135.288331 15.3569498"></polygon>
                <path d="M134.966167,9.03233353 C110.504376,9.65531525 92.3526989,19.2782408 80.3993935,37.9305268 C76.5373258,43.9570097 74.1363463,47.7121723 72.3695633,50.482819 C72.0373237,51.0039276 72.0373237,51.0039276 71.845901,51.3041043 C71.7729377,51.4184094 71.7729377,51.4184094 71.7273462,51.4895749 C71.7014243,51.531451 71.7014243,51.531451 71.6187869,51.6451529 C71.6087059,51.6573233 71.6087059,51.6573233 71.5458669,51.724737 L71.4168931,51.8314804 L71.3240426,51.815818 C70.2165116,53.4355163 68.2669548,56.3450975 65.3331136,60.764216 C54.470948,77.1254278 33.2128344,81.4282409 1.76524928,73.833672 L0.79319368,73.5989213 L1.26269511,71.6548101 L2.23475072,71.8895608 C32.9549174,79.3084586 53.3634704,75.1776035 63.6668864,59.6580122 C67.4557398,53.9510256 69.6069973,50.7554536 70.4415074,49.5778706 C70.6285185,49.313978 70.7507489,49.1490819 70.8325537,49.0526347 C70.8749631,49.002864 70.8749631,49.002864 70.9579373,48.9220972 C70.9882688,48.8946364 71.0038335,48.8805448 71.03146,48.861551 C72.7650181,46.144249 75.1004443,42.4924437 78.7155003,36.8514049 C91.0615288,17.5863024 109.879043,7.63580874 135.055643,7.02951322 L135.326364,0.96973198 L149,8.58758485 L134.701536,14.9557818 L134.966167,9.03233353 Z" id="Line-5" fill="url(#linearGradient-3)"></path>
                <path d="M134.986475,9.19575249 C114.502722,10.1578022 98.5785493,16.5231292 87.1610844,28.2781533 C73.2435841,42.6071267 65.6740952,64.9688315 64.4992556,95.4001939 L64.4606781,96.3994495 L62.4621669,96.3222945 L62.5007444,95.3230389 C63.6930285,64.4398177 71.419375,41.6147256 85.7264219,26.8846887 C97.5447403,14.7169599 113.991893,8.15738243 135.014686,7.19229272 L135.099945,1.13737509 L149,8.3337957 L134.90283,15.1359874 L134.986475,9.19575249 Z" id="Line-6" fill="url(#linearGradient-4)"></path>
            </g>
            <g id="Sources" transform="translate(0.000000, 11.000000)">
                <g id="Source-2" transform="translate(0.000000, 122.000000)">
                    <circle id="Oval-Copy-2" fill="#001B3D" cx="37.5" cy="37.5" r="37.5"></circle>
                    <path d="M13.71875,36.0859375 C13.71875,34.4921875 15.09375,33.4453125 17.2265625,33.4453125 C19.375,33.4453125 20.703125,34.546875 20.75,36.1875 L18.6484375,36.1875 C18.578125,35.5078125 18.0703125,35.046875 17.2265625,35.046875 C16.4375,35.046875 15.9140625,35.40625 15.9140625,35.9609375 C15.9140625,36.390625 16.2265625,36.6796875 17.0703125,36.859375 L18.5,37.1640625 C20.25,37.53125 20.96875,38.21875 20.96875,39.4453125 C20.96875,41.09375 19.4609375,42.1796875 17.3046875,42.1796875 C14.9921875,42.1796875 13.65625,41.1015625 13.5078125,39.453125 L15.734375,39.453125 C15.875,40.1875 16.3984375,40.578125 17.3046875,40.578125 C18.1640625,40.578125 18.6953125,40.2265625 18.6953125,39.6796875 C18.6953125,39.234375 18.40625,38.984375 17.5859375,38.796875 L16.15625,38.5 C14.5390625,38.15625 13.71875,37.34375 13.71875,36.0859375 Z M25.9375,42.1796875 C23.40625,42.1796875 21.7890625,40.5546875 21.7890625,37.8046875 C21.7890625,35.09375 23.4296875,33.4453125 25.9375,33.4453125 C28.4453125,33.4453125 30.0859375,35.0859375 30.0859375,37.8046875 C30.0859375,40.5625 28.46875,42.1796875 25.9375,42.1796875 Z M25.9375,40.4375 C27.0546875,40.4375 27.765625,39.4921875 27.765625,37.8125 C27.765625,36.1484375 27.046875,35.1875 25.9375,35.1875 C24.828125,35.1875 24.1015625,36.1484375 24.1015625,37.8125 C24.1015625,39.4921875 24.8125,40.4375 25.9375,40.4375 Z M38.9921875,33.625 L38.9921875,42 L36.7890625,42 L36.7890625,40.4921875 L36.7421875,40.4921875 C36.328125,41.546875 35.5,42.15625 34.234375,42.15625 C32.421875,42.15625 31.21875,40.9765625 31.21875,39.0234375 L31.21875,33.625 L33.5,33.625 L33.5,38.546875 C33.5,39.6640625 34.0546875,40.2578125 35.0625,40.2578125 C36.078125,40.2578125 36.7109375,39.53125 36.7109375,38.421875 L36.7109375,33.625 L38.9921875,33.625 Z M40.4765625,42 L40.4765625,33.625 L42.6796875,33.625 L42.6796875,35.1328125 L42.7265625,35.1328125 C43.0234375,34.0703125 43.734375,33.4921875 44.71875,33.4921875 C44.984375,33.4921875 45.2109375,33.53125 45.3671875,33.578125 L45.3671875,35.5859375 C45.1796875,35.5078125 44.8671875,35.453125 44.5390625,35.453125 C43.4140625,35.453125 42.7578125,36.140625 42.7578125,37.3203125 L42.7578125,42 L40.4765625,42 Z M53.6328125,36.7421875 L51.515625,36.7421875 C51.3828125,35.859375 50.796875,35.234375 49.859375,35.234375 C48.734375,35.234375 48.03125,36.1875 48.03125,37.8046875 C48.03125,39.453125 48.734375,40.390625 49.8671875,40.390625 C50.78125,40.390625 51.375,39.84375 51.515625,38.9296875 L53.640625,38.9296875 C53.5234375,40.90625 52.046875,42.1796875 49.84375,42.1796875 C47.3203125,42.1796875 45.71875,40.5390625 45.71875,37.8046875 C45.71875,35.1171875 47.3203125,33.4453125 49.828125,33.4453125 C52.09375,33.4453125 53.53125,34.84375 53.6328125,36.7421875 Z M58.5,35.1328125 C57.5,35.1328125 56.78125,35.890625 56.703125,36.9375 L60.2578125,36.9375 C60.2109375,35.8671875 59.515625,35.1328125 58.5,35.1328125 Z M60.2890625,39.4375 L62.3828125,39.4375 C62.1328125,41.078125 60.6328125,42.1796875 58.5625,42.1796875 C55.984375,42.1796875 54.4375,40.53125 54.4375,37.8515625 C54.4375,35.1796875 56,33.4453125 58.4765625,33.4453125 C60.9140625,33.4453125 62.453125,35.09375 62.453125,37.640625 L62.453125,38.3359375 L56.6796875,38.3359375 L56.6796875,38.4765625 C56.6796875,39.671875 57.4375,40.4921875 58.6015625,40.4921875 C59.4375,40.4921875 60.078125,40.078125 60.2890625,39.4375 Z" id="source" fill="#FFFFFF"></path>
                </g>
                <g id="Source-3" transform="translate(82.000000, 182.000000)">
                    <circle id="Oval-Copy-2" fill="#001B3D" cx="37.5" cy="37.5" r="37.5"></circle>
                    <path d="M13.71875,36.0859375 C13.71875,34.4921875 15.09375,33.4453125 17.2265625,33.4453125 C19.375,33.4453125 20.703125,34.546875 20.75,36.1875 L18.6484375,36.1875 C18.578125,35.5078125 18.0703125,35.046875 17.2265625,35.046875 C16.4375,35.046875 15.9140625,35.40625 15.9140625,35.9609375 C15.9140625,36.390625 16.2265625,36.6796875 17.0703125,36.859375 L18.5,37.1640625 C20.25,37.53125 20.96875,38.21875 20.96875,39.4453125 C20.96875,41.09375 19.4609375,42.1796875 17.3046875,42.1796875 C14.9921875,42.1796875 13.65625,41.1015625 13.5078125,39.453125 L15.734375,39.453125 C15.875,40.1875 16.3984375,40.578125 17.3046875,40.578125 C18.1640625,40.578125 18.6953125,40.2265625 18.6953125,39.6796875 C18.6953125,39.234375 18.40625,38.984375 17.5859375,38.796875 L16.15625,38.5 C14.5390625,38.15625 13.71875,37.34375 13.71875,36.0859375 Z M25.9375,42.1796875 C23.40625,42.1796875 21.7890625,40.5546875 21.7890625,37.8046875 C21.7890625,35.09375 23.4296875,33.4453125 25.9375,33.4453125 C28.4453125,33.4453125 30.0859375,35.0859375 30.0859375,37.8046875 C30.0859375,40.5625 28.46875,42.1796875 25.9375,42.1796875 Z M25.9375,40.4375 C27.0546875,40.4375 27.765625,39.4921875 27.765625,37.8125 C27.765625,36.1484375 27.046875,35.1875 25.9375,35.1875 C24.828125,35.1875 24.1015625,36.1484375 24.1015625,37.8125 C24.1015625,39.4921875 24.8125,40.4375 25.9375,40.4375 Z M38.9921875,33.625 L38.9921875,42 L36.7890625,42 L36.7890625,40.4921875 L36.7421875,40.4921875 C36.328125,41.546875 35.5,42.15625 34.234375,42.15625 C32.421875,42.15625 31.21875,40.9765625 31.21875,39.0234375 L31.21875,33.625 L33.5,33.625 L33.5,38.546875 C33.5,39.6640625 34.0546875,40.2578125 35.0625,40.2578125 C36.078125,40.2578125 36.7109375,39.53125 36.7109375,38.421875 L36.7109375,33.625 L38.9921875,33.625 Z M40.4765625,42 L40.4765625,33.625 L42.6796875,33.625 L42.6796875,35.1328125 L42.7265625,35.1328125 C43.0234375,34.0703125 43.734375,33.4921875 44.71875,33.4921875 C44.984375,33.4921875 45.2109375,33.53125 45.3671875,33.578125 L45.3671875,35.5859375 C45.1796875,35.5078125 44.8671875,35.453125 44.5390625,35.453125 C43.4140625,35.453125 42.7578125,36.140625 42.7578125,37.3203125 L42.7578125,42 L40.4765625,42 Z M53.6328125,36.7421875 L51.515625,36.7421875 C51.3828125,35.859375 50.796875,35.234375 49.859375,35.234375 C48.734375,35.234375 48.03125,36.1875 48.03125,37.8046875 C48.03125,39.453125 48.734375,40.390625 49.8671875,40.390625 C50.78125,40.390625 51.375,39.84375 51.515625,38.9296875 L53.640625,38.9296875 C53.5234375,40.90625 52.046875,42.1796875 49.84375,42.1796875 C47.3203125,42.1796875 45.71875,40.5390625 45.71875,37.8046875 C45.71875,35.1171875 47.3203125,33.4453125 49.828125,33.4453125 C52.09375,33.4453125 53.53125,34.84375 53.6328125,36.7421875 Z M58.5,35.1328125 C57.5,35.1328125 56.78125,35.890625 56.703125,36.9375 L60.2578125,36.9375 C60.2109375,35.8671875 59.515625,35.1328125 58.5,35.1328125 Z M60.2890625,39.4375 L62.3828125,39.4375 C62.1328125,41.078125 60.6328125,42.1796875 58.5625,42.1796875 C55.984375,42.1796875 54.4375,40.53125 54.4375,37.8515625 C54.4375,35.1796875 56,33.4453125 58.4765625,33.4453125 C60.9140625,33.4453125 62.453125,35.09375 62.453125,37.640625 L62.453125,38.3359375 L56.6796875,38.3359375 L56.6796875,38.4765625 C56.6796875,39.671875 57.4375,40.4921875 58.6015625,40.4921875 C59.4375,40.4921875 60.078125,40.078125 60.2890625,39.4375 Z" id="source" fill="#FFFFFF"></path>
                </g>
                <g id="Source-1" transform="translate(82.000000, 56.000000)">
                    <circle id="Oval-Copy-2" fill="#001B3D" cx="37.5" cy="37.5" r="37.5"></circle>
                    <path d="M13.71875,35.0859375 C13.71875,33.4921875 15.09375,32.4453125 17.2265625,32.4453125 C19.375,32.4453125 20.703125,33.546875 20.75,35.1875 L18.6484375,35.1875 C18.578125,34.5078125 18.0703125,34.046875 17.2265625,34.046875 C16.4375,34.046875 15.9140625,34.40625 15.9140625,34.9609375 C15.9140625,35.390625 16.2265625,35.6796875 17.0703125,35.859375 L18.5,36.1640625 C20.25,36.53125 20.96875,37.21875 20.96875,38.4453125 C20.96875,40.09375 19.4609375,41.1796875 17.3046875,41.1796875 C14.9921875,41.1796875 13.65625,40.1015625 13.5078125,38.453125 L15.734375,38.453125 C15.875,39.1875 16.3984375,39.578125 17.3046875,39.578125 C18.1640625,39.578125 18.6953125,39.2265625 18.6953125,38.6796875 C18.6953125,38.234375 18.40625,37.984375 17.5859375,37.796875 L16.15625,37.5 C14.5390625,37.15625 13.71875,36.34375 13.71875,35.0859375 Z M25.9375,41.1796875 C23.40625,41.1796875 21.7890625,39.5546875 21.7890625,36.8046875 C21.7890625,34.09375 23.4296875,32.4453125 25.9375,32.4453125 C28.4453125,32.4453125 30.0859375,34.0859375 30.0859375,36.8046875 C30.0859375,39.5625 28.46875,41.1796875 25.9375,41.1796875 Z M25.9375,39.4375 C27.0546875,39.4375 27.765625,38.4921875 27.765625,36.8125 C27.765625,35.1484375 27.046875,34.1875 25.9375,34.1875 C24.828125,34.1875 24.1015625,35.1484375 24.1015625,36.8125 C24.1015625,38.4921875 24.8125,39.4375 25.9375,39.4375 Z M38.9921875,32.625 L38.9921875,41 L36.7890625,41 L36.7890625,39.4921875 L36.7421875,39.4921875 C36.328125,40.546875 35.5,41.15625 34.234375,41.15625 C32.421875,41.15625 31.21875,39.9765625 31.21875,38.0234375 L31.21875,32.625 L33.5,32.625 L33.5,37.546875 C33.5,38.6640625 34.0546875,39.2578125 35.0625,39.2578125 C36.078125,39.2578125 36.7109375,38.53125 36.7109375,37.421875 L36.7109375,32.625 L38.9921875,32.625 Z M40.4765625,41 L40.4765625,32.625 L42.6796875,32.625 L42.6796875,34.1328125 L42.7265625,34.1328125 C43.0234375,33.0703125 43.734375,32.4921875 44.71875,32.4921875 C44.984375,32.4921875 45.2109375,32.53125 45.3671875,32.578125 L45.3671875,34.5859375 C45.1796875,34.5078125 44.8671875,34.453125 44.5390625,34.453125 C43.4140625,34.453125 42.7578125,35.140625 42.7578125,36.3203125 L42.7578125,41 L40.4765625,41 Z M53.6328125,35.7421875 L51.515625,35.7421875 C51.3828125,34.859375 50.796875,34.234375 49.859375,34.234375 C48.734375,34.234375 48.03125,35.1875 48.03125,36.8046875 C48.03125,38.453125 48.734375,39.390625 49.8671875,39.390625 C50.78125,39.390625 51.375,38.84375 51.515625,37.9296875 L53.640625,37.9296875 C53.5234375,39.90625 52.046875,41.1796875 49.84375,41.1796875 C47.3203125,41.1796875 45.71875,39.5390625 45.71875,36.8046875 C45.71875,34.1171875 47.3203125,32.4453125 49.828125,32.4453125 C52.09375,32.4453125 53.53125,33.84375 53.6328125,35.7421875 Z M58.5,34.1328125 C57.5,34.1328125 56.78125,34.890625 56.703125,35.9375 L60.2578125,35.9375 C60.2109375,34.8671875 59.515625,34.1328125 58.5,34.1328125 Z M60.2890625,38.4375 L62.3828125,38.4375 C62.1328125,40.078125 60.6328125,41.1796875 58.5625,41.1796875 C55.984375,41.1796875 54.4375,39.53125 54.4375,36.8515625 C54.4375,34.1796875 56,32.4453125 58.4765625,32.4453125 C60.9140625,32.4453125 62.453125,34.09375 62.453125,36.640625 L62.453125,37.3359375 L56.6796875,37.3359375 L56.6796875,37.4765625 C56.6796875,38.671875 57.4375,39.4921875 58.6015625,39.4921875 C59.4375,39.4921875 60.078125,39.078125 60.2890625,38.4375 Z" id="source-copy" fill="#FFFFFF"></path>
                </g>
                <path d="M73.344,13.382 C73.8280024,13.382 74.2276651,13.3416671 74.543,13.261 C74.8583349,13.1803329 75.1113324,13.070334 75.302,12.931 C75.4926676,12.791666 75.6246663,12.6266676 75.698,12.436 C75.7713337,12.2453324 75.808,12.0326678 75.808,11.798 C75.808,11.2993308 75.5733357,10.8850017 75.104,10.555 C74.6346643,10.2249984 73.8280057,9.86933524 72.684,9.488 C72.1853308,9.31199912 71.6866692,9.11033447 71.188,8.883 C70.6893308,8.65566553 70.242002,8.36966839 69.846,8.025 C69.449998,7.68033161 69.1273346,7.26233579 68.878,6.771 C68.6286654,6.27966421 68.504,5.68200352 68.504,4.978 C68.504,4.27399648 68.6359987,3.63966949 68.9,3.075 C69.1640013,2.51033051 69.5379976,2.03000198 70.022,1.634 C70.5060024,1.23799802 71.0926632,0.93366773 71.782,0.721 C72.4713368,0.50833227 73.2486623,0.402 74.114,0.402 C75.1406718,0.402 76.0279963,0.5119989 76.776,0.732 C77.5240037,0.9520011 78.1399976,1.19399868 78.624,1.458 L77.634,4.164 C77.2086645,3.9439989 76.7356693,3.74966751 76.215,3.581 C75.6943307,3.41233249 75.067337,3.328 74.334,3.328 C73.5126626,3.328 72.9223351,3.44166553 72.563,3.669 C72.2036649,3.89633447 72.024,4.24466432 72.024,4.714 C72.024,4.99266806 72.0899993,5.22733238 72.222,5.418 C72.3540007,5.60866762 72.5409988,5.78099923 72.783,5.935 C73.0250012,6.08900077 73.3036651,6.22833271 73.619,6.353 C73.9343349,6.47766729 74.2826648,6.60599934 74.664,6.738 C75.456004,7.0313348 76.1453304,7.32099857 76.732,7.607 C77.3186696,7.89300143 77.8063314,8.22666476 78.195,8.608 C78.5836686,8.98933524 78.8733324,9.4366641 79.064,9.95 C79.2546676,10.4633359 79.35,11.086663 79.35,11.82 C79.35,13.2426738 78.8513383,14.3463294 77.854,15.131 C76.8566617,15.9156706 75.3533434,16.308 73.344,16.308 C72.66933,16.308 72.0606694,16.2676671 71.518,16.187 C70.9753306,16.1063329 70.4950021,16.0073339 70.077,15.89 C69.6589979,15.7726661 69.2996682,15.6480007 68.999,15.516 C68.6983318,15.3839993 68.4453344,15.2593339 68.24,15.142 L69.208,12.414 C69.6626689,12.6633346 70.2236633,12.886999 70.891,13.085 C71.5583367,13.283001 72.3759952,13.382 73.344,13.382 Z M92.594,10.192 C92.594,11.1013379 92.4620013,11.9336629 92.198,12.689 C91.9339987,13.4443371 91.5526692,14.089664 91.054,14.625 C90.5553308,15.160336 89.9576702,15.5746652 89.261,15.868 C88.5643299,16.1613348 87.7833377,16.308 86.918,16.308 C86.0673291,16.308 85.2936701,16.1613348 84.597,15.868 C83.9003298,15.5746652 83.3026692,15.160336 82.804,14.625 C82.3053308,14.089664 81.9166681,13.4443371 81.638,12.689 C81.3593319,11.9336629 81.22,11.1013379 81.22,10.192 C81.22,9.28266212 81.3629986,8.45400374 81.649,7.706 C81.9350014,6.95799626 82.3309975,6.32000264 82.837,5.792 C83.3430025,5.26399736 83.9443299,4.8533348 84.641,4.56 C85.3376702,4.2666652 86.0966626,4.12 86.918,4.12 C87.7540042,4.12 88.5203298,4.2666652 89.217,4.56 C89.9136702,4.8533348 90.5113308,5.26399736 91.01,5.792 C91.5086692,6.32000264 91.8973319,6.95799626 92.176,7.706 C92.4546681,8.45400374 92.594,9.28266212 92.594,10.192 Z M89.25,10.192 C89.25,9.17999494 89.0483354,8.38433623 88.645,7.805 C88.2416646,7.22566377 87.6660037,6.936 86.918,6.936 C86.1699963,6.936 85.5906687,7.22566377 85.18,7.805 C84.7693313,8.38433623 84.564,9.17999494 84.564,10.192 C84.564,11.2040051 84.7693313,12.006997 85.18,12.601 C85.5906687,13.195003 86.1699963,13.492 86.918,13.492 C87.6660037,13.492 88.2416646,13.195003 88.645,12.601 C89.0483354,12.006997 89.25,11.2040051 89.25,10.192 Z M105.002,15.604 C104.444664,15.7653341 103.726004,15.915666 102.846,16.055 C101.965996,16.194334 101.042005,16.264 100.074,16.264 C99.0913284,16.264 98.2736699,16.1320013 97.621,15.868 C96.9683301,15.6039987 96.4513352,15.2336691 96.07,14.757 C95.6886648,14.280331 95.4173341,13.7120033 95.256,13.052 C95.0946659,12.3919967 95.014,11.666004 95.014,10.874 L95.014,4.428 L98.292,4.428 L98.292,10.478 C98.292,11.5340053 98.4313319,12.2966643 98.71,12.766 C98.9886681,13.2353357 99.5093295,13.47 100.272,13.47 C100.506668,13.47 100.755999,13.4590001 101.02,13.437 C101.284001,13.4149999 101.518666,13.3893335 101.724,13.36 L101.724,4.428 L105.002,4.428 L105.002,15.604 Z M115.056,7.332 C114.762665,7.2586663 114.418002,7.18166707 114.022,7.101 C113.625998,7.02033293 113.200669,6.98 112.746,6.98 C112.540666,6.98 112.295001,6.99833315 112.009,7.035 C111.722999,7.07166685 111.506667,7.11199978 111.36,7.156 L111.36,16 L108.082,16 L108.082,5.044 C108.66867,4.83866564 109.361663,4.64433425 110.161,4.461 C110.960337,4.27766575 111.851328,4.186 112.834,4.186 C113.010001,4.186 113.222665,4.19699989 113.472,4.219 C113.721335,4.24100011 113.970665,4.27033315 114.22,4.307 C114.469335,4.34366685 114.718665,4.38766641 114.968,4.439 C115.217335,4.49033359 115.429999,4.5526663 115.606,4.626 L115.056,7.332 Z M116.596,10.214 C116.596,9.37799582 116.731665,8.58967037 117.003,7.849 C117.274335,7.10832963 117.666664,6.46300275 118.18,5.913 C118.693336,5.36299725 119.316663,4.92666828 120.05,4.604 C120.783337,4.28133172 121.619329,4.12 122.558,4.12 C123.174003,4.12 123.738664,4.17499945 124.252,4.285 C124.765336,4.39500055 125.263998,4.55266564 125.748,4.758 L125.066,7.376 C124.757998,7.25866608 124.420669,7.15600044 124.054,7.068 C123.687331,6.97999956 123.276669,6.936 122.822,6.936 C121.853995,6.936 121.131669,7.23666366 120.655,7.838 C120.178331,8.43933634 119.94,9.23132842 119.94,10.214 C119.94,11.2553385 120.163664,12.0619971 120.611,12.634 C121.058336,13.2060029 121.839328,13.492 122.954,13.492 C123.350002,13.492 123.775331,13.4553337 124.23,13.382 C124.684669,13.3086663 125.102665,13.1913341 125.484,13.03 L125.946,15.714 C125.564665,15.8753341 125.088003,16.0146661 124.516,16.132 C123.943997,16.2493339 123.313337,16.308 122.624,16.308 C121.567995,16.308 120.65867,16.1503349 119.896,15.835 C119.13333,15.5196651 118.506336,15.0906694 118.015,14.548 C117.523664,14.0053306 117.164334,13.3636704 116.937,12.623 C116.709666,11.8823296 116.596,11.0793377 116.596,10.214 Z M127.046,10.302 C127.046,9.2753282 127.203665,8.37700385 127.519,7.607 C127.834335,6.83699615 128.248664,6.1953359 128.762,5.682 C129.275336,5.1686641 129.865663,4.78000132 130.533,4.516 C131.200337,4.25199868 131.885996,4.12 132.59,4.12 C134.232675,4.12 135.530662,4.62232831 136.484,5.627 C137.437338,6.63167169 137.914,8.10932358 137.914,10.06 C137.914,10.2506676 137.906667,10.4596655 137.892,10.687 C137.877333,10.9143345 137.862667,11.1159991 137.848,11.292 L130.412,11.292 C130.485334,11.96667 130.800664,12.501998 131.358,12.898 C131.915336,13.294002 132.663329,13.492 133.602,13.492 C134.203336,13.492 134.793664,13.4370006 135.373,13.327 C135.952336,13.2169995 136.425331,13.0813341 136.792,12.92 L137.232,15.582 C137.055999,15.6700004 136.821335,15.7579996 136.528,15.846 C136.234665,15.9340004 135.908335,16.0109997 135.549,16.077 C135.189665,16.1430003 134.804669,16.1979998 134.394,16.242 C133.983331,16.2860002 133.572669,16.308 133.162,16.308 C132.120661,16.308 131.215004,16.1540015 130.445,15.846 C129.674996,15.5379985 129.037003,15.116336 128.531,14.581 C128.024997,14.045664 127.651001,13.411337 127.409,12.678 C127.166999,11.944663 127.046,11.1526709 127.046,10.302 Z M134.746,9.048 C134.731333,8.76933194 134.683667,8.49800132 134.603,8.234 C134.522333,7.96999868 134.397668,7.73533436 134.229,7.53 C134.060332,7.32466564 133.847668,7.15600066 133.591,7.024 C133.334332,6.89199934 133.015335,6.826 132.634,6.826 C132.267332,6.826 131.952001,6.88833271 131.688,7.013 C131.423999,7.13766729 131.204001,7.30266564 131.028,7.508 C130.851999,7.71333436 130.716334,7.95166531 130.621,8.223 C130.525666,8.49433469 130.456,8.76933194 130.412,9.048 L134.746,9.048 Z M143.766,13.646 C144.367336,13.646 144.792665,13.5873339 145.042,13.47 C145.291335,13.3526661 145.416,13.125335 145.416,12.788 C145.416,12.5239987 145.254668,12.293001 144.932,12.095 C144.609332,11.896999 144.118003,11.6733346 143.458,11.424 C142.944664,11.2333324 142.479002,11.0353344 142.061,10.83 C141.642998,10.6246656 141.287335,10.3790014 140.994,10.093 C140.700665,9.80699857 140.473334,9.46600198 140.312,9.07 C140.150666,8.67399802 140.07,8.19733612 140.07,7.64 C140.07,6.55466124 140.473329,5.69666982 141.28,5.066 C142.086671,4.43533018 143.193993,4.12 144.602,4.12 C145.306004,4.12 145.980663,4.18233271 146.626,4.307 C147.271337,4.43166729 147.784665,4.5673326 148.166,4.714 L147.594,7.266 C147.212665,7.13399934 146.798336,7.01666718 146.351,6.914 C145.903664,6.81133282 145.401336,6.76 144.844,6.76 C143.817328,6.76 143.304,7.04599714 143.304,7.618 C143.304,7.75000066 143.326,7.86733282 143.37,7.97 C143.414,8.07266718 143.501999,8.17166619 143.634,8.267 C143.766001,8.36233381 143.945666,8.46499945 144.173,8.575 C144.400334,8.68500055 144.689998,8.80599934 145.042,8.938 C145.76067,9.20200132 146.354664,9.46233205 146.824,9.719 C147.293336,9.97566795 147.663665,10.2543318 147.935,10.555 C148.206335,10.8556682 148.396999,11.1893315 148.507,11.556 C148.617001,11.9226685 148.672,12.3479976 148.672,12.832 C148.672,13.9760057 148.243004,14.8413304 147.385,15.428 C146.526996,16.0146696 145.313341,16.308 143.744,16.308 C142.717328,16.308 141.863003,16.2200009 141.181,16.044 C140.498997,15.8679991 140.026001,15.7213339 139.762,15.604 L140.312,12.942 C140.869336,13.1620011 141.44133,13.3343327 142.028,13.459 C142.61467,13.5836673 143.193997,13.646 143.766,13.646 Z" id="Shape" fill="#001B3D"></path>
            </g>
        </g>
        <text id="Datadog" font-family="Ubuntu-Bold, Ubuntu" font-size="18" font-weight="bold" line-spacing="20" fill="#FFFFFF">
            <tspan x="533" y="103">Datadog</tspan>
        </text>
        <text id="Metrics" font-family="Ubuntu-Bold, Ubuntu" font-size="18" font-weight="bold" line-spacing="20" fill="#FFFFFF">
            <tspan x="537" y="123">Metrics</tspan>
        </text>
    </g>
</svg>