<?xml version="1.0" encoding="UTF-8"?>
<svg width="683px" height="300px" viewBox="0 0 683 300" version="1.1" xmlns="http://www.w3.org/2000/svg" xmlns:xlink="http://www.w3.org/1999/xlink">
    <!-- Generator: Sketch 58 (84663) - https://sketch.com -->
    <title>Group 2</title>
    <desc>Created with Sketch.</desc>
    <defs>
        <polygon id="path-1" points="15.1888799 0.0265168992 22.8734773 12.8341792 7.50428248 12.8341792"></polygon>
        <linearGradient x1="-1.11022302e-14%" y1="50%" x2="100%" y2="50%" id="linearGradient-3">
            <stop stop-color="#10E7FF" offset="0%"></stop>
            <stop stop-color="#001B3D" offset="100%"></stop>
        </linearGradient>
        <linearGradient x1="16.3052721%" y1="58.4654615%" x2="79.0524022%" y2="39.1534187%" id="linearGradient-4">
            <stop stop-color="#001B3D" offset="0%"></stop>
            <stop stop-color="#001B3D" offset="100%"></stop>
        </linearGradient>
    </defs>
    <g id="Components-(source-highlighted)" stroke="none" stroke-width="1" fill="none" fill-rule="evenodd">
        <g id="Group-2" transform="translate(-18.000000, -125.000000)">
            <g id="Sinks" transform="translate(546.000000, 134.000000)">
                <g id="Sink-3" transform="translate(0.000000, 184.000000)">
                    <circle id="Oval-Copy" fill="#001B3D" cx="37.5" cy="37.5" r="37.5"></circle>
                    <path d="M23.6523438,37.0859375 C23.6523438,35.4921875 25.0273438,34.4453125 27.1601562,34.4453125 C29.3085938,34.4453125 30.6367188,35.546875 30.6835938,37.1875 L28.5820312,37.1875 C28.5117188,36.5078125 28.0039062,36.046875 27.1601562,36.046875 C26.3710938,36.046875 25.8476562,36.40625 25.8476562,36.9609375 C25.8476562,37.390625 26.1601562,37.6796875 27.0039062,37.859375 L28.4335938,38.1640625 C30.1835938,38.53125 30.9023438,39.21875 30.9023438,40.4453125 C30.9023438,42.09375 29.3945312,43.1796875 27.2382812,43.1796875 C24.9257812,43.1796875 23.5898438,42.1015625 23.4414062,40.453125 L25.6679688,40.453125 C25.8085938,41.1875 26.3320312,41.578125 27.2382812,41.578125 C28.0976562,41.578125 28.6289062,41.2265625 28.6289062,40.6796875 C28.6289062,40.234375 28.3398438,39.984375 27.5195312,39.796875 L26.0898438,39.5 C24.4726562,39.15625 23.6523438,38.34375 23.6523438,37.0859375 Z M32.0664062,43 L32.0664062,34.625 L34.3476562,34.625 L34.3476562,43 L32.0664062,43 Z M33.1992188,33.4921875 C32.5351562,33.4921875 32.0117188,32.9609375 32.0117188,32.3203125 C32.0117188,31.671875 32.5351562,31.1484375 33.1992188,31.1484375 C33.8632812,31.1484375 34.3867188,31.671875 34.3867188,32.3203125 C34.3867188,32.9609375 33.8632812,33.4921875 33.1992188,33.4921875 Z M35.8632812,43 L35.8632812,34.625 L38.0664062,34.625 L38.0664062,36.1171875 L38.1132812,36.1171875 C38.5585938,35.078125 39.4414062,34.46875 40.7304688,34.46875 C42.5898438,34.46875 43.6367188,35.640625 43.6367188,37.6015625 L43.6367188,43 L41.3554688,43 L41.3554688,38.078125 C41.3554688,36.984375 40.8398438,36.359375 39.8164062,36.359375 C38.7929688,36.359375 38.1445312,37.109375 38.1445312,38.1953125 L38.1445312,43 L35.8632812,43 Z M47.4492188,37.984375 L50.2929688,34.625 L52.8789062,34.625 L49.6835938,38.21875 L53.0351562,43 L50.4101562,43 L48.0117188,39.59375 L47.4179688,40.234375 L47.4179688,43 L45.1367188,43 L45.1367188,31.7265625 L47.4179688,31.7265625 L47.4179688,37.984375 L47.4492188,37.984375 Z" id="sink" fill="#FFFFFF" fill-rule="nonzero"></path>
                </g>
                <g id="Sink-2" transform="translate(80.000000, 124.000000)">
                    <circle id="Oval-Copy" fill="#001B3D" cx="37.5" cy="37.5" r="37.5"></circle>
                    <path d="M23.6523438,37.0859375 C23.6523438,35.4921875 25.0273438,34.4453125 27.1601562,34.4453125 C29.3085938,34.4453125 30.6367188,35.546875 30.6835938,37.1875 L28.5820312,37.1875 C28.5117188,36.5078125 28.0039062,36.046875 27.1601562,36.046875 C26.3710938,36.046875 25.8476562,36.40625 25.8476562,36.9609375 C25.8476562,37.390625 26.1601562,37.6796875 27.0039062,37.859375 L28.4335938,38.1640625 C30.1835938,38.53125 30.9023438,39.21875 30.9023438,40.4453125 C30.9023438,42.09375 29.3945312,43.1796875 27.2382812,43.1796875 C24.9257812,43.1796875 23.5898438,42.1015625 23.4414062,40.453125 L25.6679688,40.453125 C25.8085938,41.1875 26.3320312,41.578125 27.2382812,41.578125 C28.0976562,41.578125 28.6289062,41.2265625 28.6289062,40.6796875 C28.6289062,40.234375 28.3398438,39.984375 27.5195312,39.796875 L26.0898438,39.5 C24.4726562,39.15625 23.6523438,38.34375 23.6523438,37.0859375 Z M32.0664062,43 L32.0664062,34.625 L34.3476562,34.625 L34.3476562,43 L32.0664062,43 Z M33.1992188,33.4921875 C32.5351562,33.4921875 32.0117188,32.9609375 32.0117188,32.3203125 C32.0117188,31.671875 32.5351562,31.1484375 33.1992188,31.1484375 C33.8632812,31.1484375 34.3867188,31.671875 34.3867188,32.3203125 C34.3867188,32.9609375 33.8632812,33.4921875 33.1992188,33.4921875 Z M35.8632812,43 L35.8632812,34.625 L38.0664062,34.625 L38.0664062,36.1171875 L38.1132812,36.1171875 C38.5585938,35.078125 39.4414062,34.46875 40.7304688,34.46875 C42.5898438,34.46875 43.6367188,35.640625 43.6367188,37.6015625 L43.6367188,43 L41.3554688,43 L41.3554688,38.078125 C41.3554688,36.984375 40.8398438,36.359375 39.8164062,36.359375 C38.7929688,36.359375 38.1445312,37.109375 38.1445312,38.1953125 L38.1445312,43 L35.8632812,43 Z M47.4492188,37.984375 L50.2929688,34.625 L52.8789062,34.625 L49.6835938,38.21875 L53.0351562,43 L50.4101562,43 L48.0117188,39.59375 L47.4179688,40.234375 L47.4179688,43 L45.1367188,43 L45.1367188,31.7265625 L47.4179688,31.7265625 L47.4179688,37.984375 L47.4492188,37.984375 Z" id="sink" fill="#FFFFFF" fill-rule="nonzero"></path>
                </g>
                <g id="Sink-1" transform="translate(0.000000, 58.000000)">
                    <circle id="Oval-Copy-2" fill="#001B3D" cx="37.5" cy="37.5" r="37.5"></circle>
                    <path d="M23.6523438,38.0859375 C23.6523438,36.4921875 25.0273438,35.4453125 27.1601562,35.4453125 C29.3085938,35.4453125 30.6367188,36.546875 30.6835938,38.1875 L28.5820312,38.1875 C28.5117188,37.5078125 28.0039062,37.046875 27.1601562,37.046875 C26.3710938,37.046875 25.8476562,37.40625 25.8476562,37.9609375 C25.8476562,38.390625 26.1601562,38.6796875 27.0039062,38.859375 L28.4335938,39.1640625 C30.1835938,39.53125 30.9023438,40.21875 30.9023438,41.4453125 C30.9023438,43.09375 29.3945312,44.1796875 27.2382812,44.1796875 C24.9257812,44.1796875 23.5898438,43.1015625 23.4414062,41.453125 L25.6679688,41.453125 C25.8085938,42.1875 26.3320312,42.578125 27.2382812,42.578125 C28.0976562,42.578125 28.6289062,42.2265625 28.6289062,41.6796875 C28.6289062,41.234375 28.3398438,40.984375 27.5195312,40.796875 L26.0898438,40.5 C24.4726562,40.15625 23.6523438,39.34375 23.6523438,38.0859375 Z M32.0664062,44 L32.0664062,35.625 L34.3476562,35.625 L34.3476562,44 L32.0664062,44 Z M33.1992188,34.4921875 C32.5351562,34.4921875 32.0117188,33.9609375 32.0117188,33.3203125 C32.0117188,32.671875 32.5351562,32.1484375 33.1992188,32.1484375 C33.8632812,32.1484375 34.3867188,32.671875 34.3867188,33.3203125 C34.3867188,33.9609375 33.8632812,34.4921875 33.1992188,34.4921875 Z M35.8632812,44 L35.8632812,35.625 L38.0664062,35.625 L38.0664062,37.1171875 L38.1132812,37.1171875 C38.5585938,36.078125 39.4414062,35.46875 40.7304688,35.46875 C42.5898438,35.46875 43.6367188,36.640625 43.6367188,38.6015625 L43.6367188,44 L41.3554688,44 L41.3554688,39.078125 C41.3554688,37.984375 40.8398438,37.359375 39.8164062,37.359375 C38.7929688,37.359375 38.1445312,38.109375 38.1445312,39.1953125 L38.1445312,44 L35.8632812,44 Z M47.4492188,38.984375 L50.2929688,35.625 L52.8789062,35.625 L49.6835938,39.21875 L53.0351562,44 L50.4101562,44 L48.0117188,40.59375 L47.4179688,41.234375 L47.4179688,44 L45.1367188,44 L45.1367188,32.7265625 L47.4179688,32.7265625 L47.4179688,38.984375 L47.4492188,38.984375 Z" id="sink" fill="#FFFFFF" fill-rule="nonzero"></path>
                </g>
                <path d="M16.154,15.382 C16.6380024,15.382 17.0376651,15.3416671 17.353,15.261 C17.6683349,15.1803329 17.9213324,15.070334 18.112,14.931 C18.3026676,14.791666 18.4346663,14.6266676 18.508,14.436 C18.5813337,14.2453324 18.618,14.0326678 18.618,13.798 C18.618,13.2993308 18.3833357,12.8850016 17.914,12.555 C17.4446643,12.2249983 16.6380057,11.8693352 15.494,11.488 C14.9953308,11.3119991 14.4966692,11.1103345 13.998,10.883 C13.4993308,10.6556655 13.052002,10.3696684 12.656,10.025 C12.259998,9.68033161 11.9373346,9.26233579 11.688,8.771 C11.4386654,8.27966421 11.314,7.68200352 11.314,6.978 C11.314,6.27399648 11.4459987,5.63966949 11.71,5.075 C11.9740013,4.51033051 12.3479976,4.03000198 12.832,3.634 C13.3160024,3.23799802 13.9026632,2.93366773 14.592,2.721 C15.2813368,2.50833227 16.0586623,2.402 16.924,2.402 C17.9506718,2.402 18.8379963,2.5119989 19.586,2.732 C20.3340037,2.9520011 20.9499976,3.19399868 21.434,3.458 L20.444,6.164 C20.0186645,5.9439989 19.5456693,5.74966751 19.025,5.581 C18.5043307,5.41233249 17.877337,5.328 17.144,5.328 C16.3226626,5.328 15.7323351,5.44166553 15.373,5.669 C15.0136649,5.89633447 14.834,6.24466432 14.834,6.714 C14.834,6.99266806 14.8999993,7.22733238 15.032,7.418 C15.1640007,7.60866762 15.3509988,7.78099923 15.593,7.935 C15.8350012,8.08900077 16.1136651,8.22833271 16.429,8.353 C16.7443349,8.47766729 17.0926648,8.60599934 17.474,8.738 C18.266004,9.0313348 18.9553304,9.32099857 19.542,9.607 C20.1286696,9.89300143 20.6163314,10.2266648 21.005,10.608 C21.3936686,10.9893352 21.6833324,11.4366641 21.874,11.95 C22.0646676,12.4633359 22.16,13.086663 22.16,13.82 C22.16,15.2426738 21.6613383,16.3463294 20.664,17.131 C19.6666617,17.9156706 18.1633434,18.308 16.154,18.308 C15.47933,18.308 14.8706694,18.2676671 14.328,18.187 C13.7853306,18.1063329 13.3050021,18.0073339 12.887,17.89 C12.4689979,17.7726661 12.1096682,17.6480007 11.809,17.516 C11.5083318,17.3839993 11.2553344,17.2593339 11.05,17.142 L12.018,14.414 C12.4726689,14.6633346 13.0336633,14.886999 13.701,15.085 C14.3683367,15.283001 15.1859952,15.382 16.154,15.382 Z M27.858,18 L24.58,18 L24.58,6.428 L27.858,6.428 L27.858,18 Z M28.166,3.084 C28.166,3.68533634 27.9716686,4.15833161 27.583,4.503 C27.1943314,4.84766839 26.7360026,5.02 26.208,5.02 C25.6799974,5.02 25.2216686,4.84766839 24.833,4.503 C24.4443314,4.15833161 24.25,3.68533634 24.25,3.084 C24.25,2.48266366 24.4443314,2.00966839 24.833,1.665 C25.2216686,1.32033161 25.6799974,1.148 26.208,1.148 C26.7360026,1.148 27.1943314,1.32033161 27.583,1.665 C27.9716686,2.00966839 28.166,2.48266366 28.166,3.084 Z M30.938,6.824 C31.4953361,6.66266586 32.2139956,6.51233403 33.094,6.373 C33.9740044,6.23366597 34.8979952,6.164 35.866,6.164 C36.8486716,6.164 37.6663301,6.29233205 38.319,6.549 C38.9716699,6.80566795 39.4886648,7.16866432 39.87,7.638 C40.2513352,8.10733568 40.5226659,8.66466344 40.684,9.31 C40.8453341,9.95533656 40.926,10.673996 40.926,11.466 L40.926,18 L37.648,18 L37.648,11.862 C37.648,10.8059947 37.5086681,10.0580022 37.23,9.618 C36.9513319,9.1779978 36.4306705,8.958 35.668,8.958 C35.4333322,8.958 35.1840013,8.96899989 34.92,8.991 C34.6559987,9.01300011 34.4213344,9.03866652 34.216,9.068 L34.216,18 L30.938,18 L30.938,6.824 Z M47.174,10.608 C47.4966683,10.2559982 47.8303316,9.88933524 48.175,9.508 C48.5196684,9.12666476 48.8533317,8.74900187 49.176,8.375 C49.4986683,8.00099813 49.8029986,7.64533502 50.089,7.308 C50.3750014,6.97066498 50.6206656,6.67733458 50.826,6.428 L54.72,6.428 C53.9426628,7.32267114 53.1836704,8.17699593 52.443,8.991 C51.7023296,9.80500407 50.8920044,10.6446623 50.012,11.51 C50.4520022,11.906002 50.9066643,12.3789972 51.376,12.929 C51.8453357,13.4790027 52.2999978,14.0473304 52.74,14.634 C53.1800022,15.2206696 53.5833315,15.8073304 53.95,16.394 C54.3166685,16.9806696 54.6246654,17.5159976 54.874,18 L51.112,18 C50.8773322,17.6186648 50.6096682,17.1970023 50.309,16.735 C50.0083318,16.2729977 49.689335,15.8110023 49.352,15.349 C49.014665,14.8869977 48.6590019,14.4433355 48.285,14.018 C47.9109981,13.5926645 47.5406685,13.2333348 47.174,12.94 L47.174,18 L43.896,18 L43.896,1.456 L47.174,0.928 L47.174,10.608 Z M59.956,15.646 C60.5573363,15.646 60.9826654,15.5873339 61.232,15.47 C61.4813346,15.3526661 61.606,15.125335 61.606,14.788 C61.606,14.5239987 61.4446683,14.293001 61.122,14.095 C60.7993317,13.896999 60.3080033,13.6733346 59.648,13.424 C59.1346641,13.2333324 58.6690021,13.0353344 58.251,12.83 C57.8329979,12.6246656 57.4773348,12.3790014 57.184,12.093 C56.8906652,11.8069986 56.6633341,11.466002 56.502,11.07 C56.3406659,10.673998 56.26,10.1973361 56.26,9.64 C56.26,8.55466124 56.6633293,7.69666982 57.47,7.066 C58.2766707,6.43533018 59.383993,6.12 60.792,6.12 C61.4960035,6.12 62.1706634,6.18233271 62.816,6.307 C63.4613366,6.43166729 63.9746648,6.5673326 64.356,6.714 L63.784,9.266 C63.4026648,9.13399934 62.9883356,9.01666718 62.541,8.914 C62.0936644,8.81133282 61.5913361,8.76 61.034,8.76 C60.0073282,8.76 59.494,9.04599714 59.494,9.618 C59.494,9.75000066 59.5159998,9.86733282 59.56,9.97 C59.6040002,10.0726672 59.6919993,10.1716662 59.824,10.267 C59.9560007,10.3623338 60.1356655,10.4649994 60.363,10.575 C60.5903345,10.6850005 60.8799982,10.8059993 61.232,10.938 C61.9506703,11.2020013 62.5446643,11.462332 63.014,11.719 C63.4833357,11.9756679 63.8536653,12.2543318 64.125,12.555 C64.3963347,12.8556682 64.5869995,13.1893315 64.697,13.556 C64.8070006,13.9226685 64.862,14.3479976 64.862,14.832 C64.862,15.9760057 64.4330043,16.8413304 63.575,17.428 C62.7169957,18.0146696 61.5033412,18.308 59.934,18.308 C58.9073282,18.308 58.0530034,18.2200009 57.371,18.044 C56.6889966,17.8679991 56.2160013,17.7213339 55.952,17.604 L56.502,14.942 C57.0593361,15.1620011 57.6313304,15.3343327 58.218,15.459 C58.8046696,15.5836673 59.3839971,15.646 59.956,15.646 Z" fill="#001B3D" fill-rule="nonzero"></path>
            </g>
            <g id="Dividers" transform="translate(210.000000, 125.000000)" fill="#000000" fill-rule="nonzero">
                <polygon id="Line-3" points="0 4 0 297.5 2 297.5 2 4"></polygon>
                <polygon id="Line-3" points="300 0 300 300 302 300 302 0"></polygon>
            </g>
            <g id="Sink-Arrows" transform="translate(484.000000, 233.000000)" fill="#001B3D" fill-rule="nonzero">
                <path id="Line-2" d="M122.274956,56.2259684 L136.274956,63.2259684 L122.274956,70.2259684 L122.274,64.225 L120,64.2259684 L120,62.2259684 L122.274,62.225 L122.274956,56.2259684 Z M7,62.2259684 L7,64.2259684 L0,64.2259684 L0,62.2259684 L7,62.2259684 Z M17,62.2259684 L17,64.2259684 L10,64.2259684 L10,62.2259684 L17,62.2259684 Z M27,62.2259684 L27,64.2259684 L20,64.2259684 L20,62.2259684 L27,62.2259684 Z M37,62.2259684 L37,64.2259684 L30,64.2259684 L30,62.2259684 L37,62.2259684 Z M47,62.2259684 L47,64.2259684 L40,64.2259684 L40,62.2259684 L47,62.2259684 Z M57,62.2259684 L57,64.2259684 L50,64.2259684 L50,62.2259684 L57,62.2259684 Z M67,62.2259684 L67,64.2259684 L60,64.2259684 L60,62.2259684 L67,62.2259684 Z M77,62.2259684 L77,64.2259684 L70,64.2259684 L70,62.2259684 L77,62.2259684 Z M87,62.2259684 L87,64.2259684 L80,64.2259684 L80,62.2259684 L87,62.2259684 Z M97,62.2259684 L97,64.2259684 L90,64.2259684 L90,62.2259684 L97,62.2259684 Z M107,62.2259684 L107,64.2259684 L100,64.2259684 L100,62.2259684 L107,62.2259684 Z M117,62.2259684 L117,64.2259684 L110,64.2259684 L110,62.2259684 L117,62.2259684 Z"></path>
                <path id="Line-2" d="M39,116.225968 L53,123.225968 L39,130.225968 L39,116.225968 Z M7,122.225968 L7,124.225968 L0,124.225968 L0,122.225968 L7,122.225968 Z M17,122.225968 L17,124.225968 L10,124.225968 L10,122.225968 L17,122.225968 Z M27,122.225968 L27,124.225968 L20,124.225968 L20,122.225968 L27,122.225968 Z M37,122.225968 L37,124.225968 L30,124.225968 L30,122.225968 L37,122.225968 Z"></path>
                <path id="Line-2" d="M39,-6.5 L53,0.5 L39,7.5 L39,-6.5 Z M14,-0.5 L14,1.5 L0,1.5 L0,-0.5 L14,-0.5 Z M38,-0.5 L38,1.5 L24,1.5 L24,-0.5 L38,-0.5 Z"></path>
            </g>
            <g id="Transforms" transform="translate(242.721371, 134.000000)">
                <g id="Aggregate" transform="translate(28.278629, 204.000000)">
                    <polygon id="Fill-74" fill="#001B3D" points="1.13686838e-13 43.0202204 99.9238736 59.9540001 199.84544 43.0202204 99.9238736 26.0846919"></polygon>
                    <polygon id="Fill-79" fill="#001B3D" points="0.206736663 43.0174706 1.13686838e-13 17.4237163 99.7120786 0.476190476 199.84544 17.5940651 199.516959 42.9577539 99.7120786 59.9540001"></polygon>
                    <polygon id="Fill-75" fill="#001B3D" points="5.68434189e-14 17.823885 5.68434189e-14 43.1880044 97.3605992 59.9540001 97.3605992 34.8063684"></polygon>
                    <polygon id="Fill-76" fill="#001B3D" points="100.776761 34.6757847 199.84544 17.823885 199.36429 43.1020671 100.776761 59.9540001"></polygon>
                    <polygon id="Fill-77" fill="#001B3D" points="100.776761 0.476190476 199.84544 17.437889 199.364396 42.6063057 100.981171 25.8281337"></polygon>
                    <polygon id="Fill-78" fill="#001B3D" points="1.13686838e-13 17.2204794 1.13686838e-13 42.6063057 99.0686799 25.8051804 98.8616119 0.476190476"></polygon>
                    <polygon id="Fill-74-Copy" fill-opacity="0.33241368" fill="#FFFFFF" points="1.70530257e-13 17.3059347 99.9238736 34.2397144 199.84544 17.3059347 99.9238736 0.370406148"></polygon>
                </g>
                <g id="Sample" transform="translate(28.278629, 138.000000)">
                    <polygon id="Fill-74" fill="#001B3D" points="1.13686838e-13 51.6242645 99.9238736 71.9448002 199.84544 51.6242645 99.9238736 31.3016302"></polygon>
                    <polygon id="Fill-79" fill="#001B3D" points="0.206736663 51.6209648 1.13686838e-13 20.9084596 99.7120786 0.571428571 199.84544 21.1128781 199.516959 51.5493047 99.7120786 71.9448002"></polygon>
                    <polygon id="Fill-75" fill="#001B3D" points="5.68434189e-14 21.388662 5.68434189e-14 51.8256053 97.3605992 71.9448002 97.3605992 41.7676421"></polygon>
                    <polygon id="Fill-76" fill="#001B3D" points="100.776761 41.6109417 199.84544 21.388662 199.36429 51.7224806 100.776761 71.9448002"></polygon>
                    <polygon id="Fill-77" fill="#001B3D" points="100.776761 0.571428571 199.84544 20.9254668 199.364396 51.1275668 100.981171 30.9937605"></polygon>
                    <polygon id="Fill-78" fill="#001B3D" points="1.13686838e-13 20.6645753 1.13686838e-13 51.1275668 99.0686799 30.9662165 98.8616119 0.571428571"></polygon>
                    <polygon id="Fill-74-Copy" fill-opacity="0.33241368" fill="#FFFFFF" points="1.70530257e-13 20.7671217 99.9238736 41.0876573 199.84544 20.7671217 99.9238736 0.444487378"></polygon>
                </g>
                <g id="Parse" transform="translate(28.278629, 74.000000)">
                    <polygon id="Fill-74" fill="#001B3D" points="1.13686838e-13 52.4612587 99.9238736 72.9443586 199.84544 52.4612587 99.9238736 31.9760433"></polygon>
                    <polygon id="Fill-79" fill="#001B3D" points="0.206736663 52.4579325 1.13686838e-13 21.4997273 99.7120786 1 199.84544 21.7057811 199.516959 52.3856991 99.7120786 72.9443586"></polygon>
                    <polygon id="Fill-75" fill="#001B3D" points="5.68434189e-14 21.9837713 5.68434189e-14 52.6642102 97.3605992 72.9443586 97.3605992 42.5257832"></polygon>
                    <polygon id="Fill-76" fill="#001B3D" points="100.776761 42.3678292 199.84544 21.9837713 199.36429 52.5602604 100.776761 72.9443586"></polygon>
                    <polygon id="Fill-77" fill="#001B3D" points="100.776761 1 199.84544 21.5168705 199.364396 51.9605873 100.981171 31.6657106"></polygon>
                    <polygon id="Fill-78" fill="#001B3D" points="1.13686838e-13 21.2538919 1.13686838e-13 51.9605873 99.0686799 31.6379463 98.8616119 1"></polygon>
                    <polygon id="Fill-74-Copy" fill-opacity="0.33241368" fill="#FFFFFF" points="1.70530257e-13 21.3572587 99.9238736 41.8403586 199.84544 21.3572587 99.9238736 0.872043277"></polygon>
                </g>
                <path d="M141.724216,119.783248 L146.23819,119.783248 C148.465183,119.783248 149.475063,121.275409 148.702789,123.524897 C147.938238,125.751891 145.843823,127.244052 143.564341,127.244052 L141.427326,127.244052 L140.274064,130.603289 L138.009579,130.603289 L141.724216,119.783248 Z M143.350288,121.642825 L142.058017,125.40697 L143.700143,125.40697 C144.997349,125.40697 145.98121,124.74712 146.398238,123.532396 C146.820414,122.302675 146.304617,121.642825 144.999913,121.642825 L143.350288,121.642825 Z M151.344164,129.088633 C152.356434,129.088633 153.342646,128.443779 153.630961,127.60397 L153.839475,126.996608 L152.131316,127.101584 C151.17086,127.169069 150.597623,127.506492 150.394258,128.098858 C150.18317,128.713718 150.586836,129.088633 151.344164,129.088633 Z M150.060568,130.73076 C148.470929,130.73076 147.688335,129.755981 148.208333,128.241325 C148.723182,126.741666 150.169034,125.871864 152.264755,125.751891 L154.307988,125.631918 L154.53967,124.957072 C154.7765,124.267229 154.415474,123.877317 153.515678,123.877317 C152.728357,123.877317 152.110803,124.147256 151.760944,124.642143 L149.751401,124.642143 C150.419015,123.112491 152.150699,122.152709 154.227727,122.152709 C156.41723,122.152709 157.299203,123.187474 156.691681,124.957072 L154.753274,130.603289 L152.638754,130.603289 L153.009446,129.523534 L152.874476,129.523534 C152.187075,130.280862 151.132824,130.73076 150.060568,130.73076 Z M156.897786,130.603289 L159.737179,122.332668 L161.851699,122.332668 L161.398631,123.652368 L161.533601,123.652368 C162.034218,122.827556 163.105261,122.197699 164.155022,122.197699 C164.454954,122.197699 164.809499,122.23519 164.973788,122.302675 L164.291613,124.289723 C164.142321,124.222239 163.655605,124.154754 163.303185,124.154754 C162.110956,124.154754 161.051663,124.859594 160.652654,126.02183 L159.07979,130.603289 L156.897786,130.603289 Z M165.20919,124.762116 C165.747208,123.194972 167.484714,122.152709 169.546746,122.152709 C171.646269,122.152709 172.582301,123.03001 172.159108,124.61215 L170.142066,124.61215 C170.212363,124.079771 169.823244,123.749846 169.013428,123.749846 C168.233605,123.749846 167.535247,124.102266 167.35505,124.627147 C167.21604,125.032055 167.48351,125.279499 168.189129,125.451959 L169.625435,125.789383 C171.109081,126.141803 171.597235,126.816649 171.172484,128.053868 C170.60615,129.703493 168.758295,130.783248 166.591287,130.783248 C164.409283,130.783248 163.395918,129.89095 163.791693,128.301312 L165.921209,128.301312 C165.893103,128.863684 166.314789,129.186111 167.184591,129.186111 C168.031899,129.186111 168.737755,128.833691 168.920527,128.301312 C169.059536,127.896404 168.829558,127.64896 168.156282,127.491496 L166.772464,127.154073 C165.288818,126.801653 164.771569,126.036826 165.20919,124.762116 Z M177.993139,123.824829 C176.980869,123.824829 176.026552,124.529669 175.583452,125.601925 L179.107651,125.601925 C179.438501,124.507174 179.012907,123.824829 177.993139,123.824829 Z M178.243932,128.248824 L180.27597,128.248824 C179.420674,129.800971 177.651274,130.783248 175.626734,130.783248 C173.107306,130.783248 172.168384,129.193609 173.089964,126.509219 C174.014118,123.817331 176.100256,122.152709 178.559697,122.152709 C180.996643,122.152709 181.903447,123.704856 181.002461,126.32926 L180.773354,126.996608 L175.097144,126.996608 L175.05853,127.109083 C174.666347,128.338803 175.12361,129.103629 176.263351,129.103629 C177.125655,129.103629 177.823565,128.796199 178.243932,128.248824 Z" id="Parse" fill="#FFFFFF" fill-rule="nonzero" transform="translate(159.676624, 125.283248) rotate(-12.000000) translate(-159.676624, -125.283248) "></path>
                <path d="M137.906466,194.228116 L140.120295,193.795761 C140.019591,194.646949 140.781626,195.031151 142.0705,194.779438 C143.260812,194.546973 144.236733,193.816245 144.429437,193.003947 C144.592086,192.318337 144.13991,192.029974 142.865147,192.008865 L141.510521,191.989139 C139.613794,191.968679 138.877972,191.138723 139.266916,189.499221 C139.747792,187.4722 141.724623,185.813976 144.249299,185.320913 C146.660251,184.850061 148.051422,185.843417 147.665299,187.745327 L145.512122,188.165837 C145.607523,187.337006 144.938235,186.927584 143.83132,187.143761 C142.686497,187.367342 141.804582,188.037068 141.61011,188.856819 C141.452764,189.520072 141.885731,189.797973 143.103378,189.816022 L144.357164,189.83412 C146.447988,189.859316 147.174698,190.605768 146.778683,192.275079 C146.264216,194.443693 144.258826,196.100388 141.514284,196.63639 C138.90621,197.145739 137.514291,196.216493 137.906466,194.228116 Z M151.216708,193.042957 C152.240225,192.843067 153.165591,192.051143 153.363598,191.216487 L153.5068,190.612852 L151.791351,191.047373 C150.827738,191.299527 150.285703,191.725201 150.146037,192.313931 C150.001067,192.925018 150.450965,193.192505 151.216708,193.042957 Z M150.101698,194.817151 C148.494396,195.131053 147.594567,194.382875 147.951688,192.877514 C148.305273,191.387058 149.670339,190.296051 151.775987,189.771112 L153.828563,189.256537 L153.987676,188.585832 C154.150325,187.900222 153.741871,187.610427 152.832078,187.788107 C152.036009,187.943577 151.441651,188.315506 151.14301,188.842893 L149.111138,189.239712 C149.615846,187.691314 151.259901,186.460537 153.360007,186.050392 C155.573837,185.618037 156.580829,186.402142 156.163598,188.16088 L154.83235,193.772449 L152.694336,194.189997 L152.948917,193.116868 L152.812448,193.14352 C152.201736,193.980599 151.185868,194.605416 150.101698,194.817151 Z M157.00069,193.348978 L158.950712,185.129111 L161.088726,184.711562 L160.770499,186.052973 L160.906968,186.026321 C161.470899,185.020704 162.480683,184.269149 163.580016,184.054452 C164.755165,183.824949 165.424454,184.234371 165.53175,185.123114 L165.668219,185.096462 C166.272336,184.104317 167.378402,183.312638 168.54597,183.084615 C170.213924,182.758868 170.999791,183.621693 170.598472,185.313361 L169.260152,190.954738 L167.053904,191.385613 L168.256093,186.318061 C168.487692,185.341812 168.140129,184.947734 167.207591,185.129856 C166.312961,185.304575 165.588253,186.043098 165.381405,186.915015 L164.188055,191.945305 L162.065205,192.359892 L163.28861,187.202913 C163.495457,186.330996 163.098359,185.932378 162.234055,186.101174 C161.369752,186.26997 160.598296,187.053157 160.380841,187.969788 L159.206938,192.918103 L157.00069,193.348978 Z M178.209496,181.239997 C180.324764,180.826891 181.246419,182.15358 180.61527,184.814045 C179.985888,187.467057 178.328028,189.304626 176.235504,189.71329 C175.03761,189.947236 174.242222,189.612189 174.039662,188.820228 L173.903193,188.84688 L172.957353,192.833851 L170.751105,193.264725 L173.348188,182.317323 L175.486202,181.899775 L175.166207,183.248638 L175.302676,183.221986 C175.976795,182.209063 177.057091,181.465058 178.209496,181.239997 Z M175.876623,188.056375 C177.066935,187.82391 177.987712,186.77703 178.348369,185.256764 C178.70549,183.751403 178.210273,182.973956 177.035124,183.203459 C175.859975,183.432962 174.912917,184.49919 174.555796,186.00455 C174.198675,187.509911 174.709055,188.284398 175.876623,188.056375 Z M181.512032,188.56198 L184.206351,177.204702 L186.412599,176.773828 L183.71828,188.131105 L181.512032,188.56198 Z M191.222559,180.240803 C190.199042,180.440693 189.312604,181.281871 188.983974,182.362354 L192.54733,181.66644 C192.759958,180.587291 192.253658,180.039432 191.222559,180.240803 Z M191.968742,184.288211 L194.023358,183.886951 C193.331388,185.493242 191.651703,186.752298 189.604668,187.152078 C187.057248,187.649583 185.930889,186.362871 186.563807,183.694954 C187.198492,181.019585 189.122457,179.066083 191.609225,178.580424 C194.073248,178.099207 195.162956,179.357542 194.544182,181.96584 L194.386836,182.629093 L188.647558,183.749959 L188.621039,183.861743 C188.361426,185.077994 188.908932,185.695983 190.061337,185.470922 C190.933222,185.300645 191.604654,184.878129 191.968742,184.288211 Z" id="Sample" fill="#FFFFFF" fill-rule="nonzero"></path>
                <path id="Line" d="M21.8746297,108.589049 L23.1895806,110.096 L22.4361047,110.753476 C14.1415768,117.991197 10,127.714251 10,140 C10,147.470536 11.654935,154.239679 14.9646084,160.323017 L19.4991214,156.694941 L22.7786292,172 L8.56687739,165.440571 L13.3787598,161.589982 C9.79285116,155.128324 8,147.926211 8,140 C8,127.153085 12.3775094,116.876139 21.1211537,109.246524 L21.1211537,109.246524 L21.8746297,108.589049 Z" fill="#001B3D" fill-rule="nonzero"></path>
                <path id="Line" d="M21.7697064,108.585815 L23.1928146,109.991077 L22.4901833,110.702631 C8.17045481,125.204209 1,145.617256 1,172 C1,192.724747 5.63084388,210.179407 14.8817363,224.386808 L19.4804629,220.698951 L22.7786292,236 L8.55889027,229.457904 L13.3142492,225.644346 C3.76777717,211.064062 -1,193.174917 -1,172 C-1,145.12301 6.34863133,124.202725 21.0670751,109.297369 L21.0670751,109.297369 L21.7697064,108.585815 Z" fill="#001B3D" fill-rule="nonzero"></path>
                <path d="M144.190506,253.517035 L144.132342,250.999273 L140.407669,251.646141 L138.849604,254.444596 L136.623616,254.831186 L143.419262,243.047176 L146.027268,242.594241 L146.592809,253.099824 L144.190506,253.517035 Z M143.939735,245.161318 L141.388176,249.763668 L144.165151,249.281388 L144.071971,245.138352 L143.939735,245.161318 Z M151.87704,250.374389 C153.037786,250.172801 153.989564,249.118343 154.408358,247.620013 C154.827152,246.121682 154.392601,245.300642 153.239201,245.500954 C152.085801,245.701266 151.153905,246.75962 150.737269,248.250227 C150.316316,249.75628 150.716294,250.575977 151.87704,250.374389 Z M150.414255,255.507798 C148.261732,255.88163 147.114989,255.132837 147.401546,253.657472 L149.517337,253.29002 C149.48074,253.79607 149.990327,254.023553 150.915986,253.862792 C152.062039,253.663756 152.885999,252.99157 153.153682,252.033874 L153.594063,250.458311 L153.461826,250.481276 C152.763277,251.455013 151.777242,252.081863 150.638535,252.279623 C148.618249,252.630489 147.821809,251.203589 148.538508,248.639436 C149.276795,245.99805 151.010996,244.094909 153.068015,243.737664 C154.162643,243.547559 154.935901,243.957051 155.108138,244.8163 L155.240375,244.793334 L155.62247,243.426301 L157.694182,243.066504 L155.321734,251.554468 C154.762622,253.554816 152.860638,255.082932 150.414255,255.507798 Z M161.589107,248.687683 C162.749853,248.486095 163.70163,247.431637 164.120424,245.933307 C164.539219,244.434976 164.104667,243.613935 162.951267,243.814248 C161.797868,244.01456 160.865971,245.072914 160.449336,246.56352 C160.028383,248.069574 160.42836,248.889271 161.589107,248.687683 Z M160.126322,253.821092 C157.973799,254.194923 156.827055,253.446131 157.113613,251.970766 L159.229403,251.603314 C159.192807,252.109364 159.702394,252.336846 160.628052,252.176086 C161.774105,251.97705 162.598065,251.304864 162.865748,250.347168 L163.30613,248.771604 L163.173893,248.79457 C162.475344,249.768307 161.489309,250.395157 160.350602,250.592917 C158.330316,250.943783 157.533875,249.516883 158.250575,246.95273 C158.988862,244.311344 160.723063,242.408203 162.780081,242.050958 C163.874709,241.860853 164.647968,242.270345 164.820204,243.129594 L164.952441,243.106628 L165.334537,241.739594 L167.406248,241.379798 L165.0338,249.867762 C164.474689,251.86811 162.572705,253.396226 160.126322,253.821092 Z M167.170342,249.5261 L169.551425,241.007242 L171.623137,240.647446 L171.243199,242.006756 L171.375436,241.98379 C171.825945,241.097221 172.844779,240.30301 173.873289,240.124387 C174.167149,240.073352 174.516333,240.049451 174.680567,240.087065 L174.108503,242.133753 C173.958962,242.093588 173.478829,242.110837 173.133543,242.170803 C171.965451,242.373667 170.961762,243.238733 170.627158,244.435852 L169.308172,249.15482 L167.170342,249.5261 Z M178.98818,240.83069 C177.996403,241.002933 177.095565,241.850136 176.713401,242.967334 L180.166254,242.367673 C180.43735,241.247719 179.987303,240.657171 178.98818,240.83069 Z M179.4483,245.086361 L181.4392,244.740599 C180.676443,246.394196 178.990469,247.649647 177.006915,247.994133 C174.538493,248.422827 173.541538,247.0381 174.314364,244.273139 C175.08935,241.500456 177.052581,239.528145 179.462231,239.109658 C181.849842,238.694999 182.813511,240.048765 182.057954,242.751938 L181.865827,243.439317 L176.30453,244.405154 L176.272149,244.521004 C175.947503,245.78253 176.432576,246.447828 177.549243,246.253895 C178.39409,246.10717 179.062971,245.689718 179.4483,245.086361 Z M186.706773,244.325468 C187.867519,244.12388 188.819297,243.069422 189.238091,241.571092 C189.656885,240.072761 189.222334,239.25172 188.068934,239.452033 C186.915534,239.652345 185.983638,240.710698 185.567002,242.201305 C185.146049,243.707359 185.546027,244.527056 186.706773,244.325468 Z M185.243988,249.458877 C183.091465,249.832708 181.944722,249.083916 182.231279,247.608551 L184.34707,247.241099 C184.310473,247.747149 184.82006,247.974631 185.745719,247.813871 C186.891772,247.614835 187.715732,246.942649 187.983415,245.984953 L188.423796,244.409389 L188.291559,244.432355 C187.59301,245.406092 186.606975,246.032942 185.468269,246.230702 C183.447982,246.581568 182.651542,245.154668 183.368241,242.590515 C184.106528,239.949129 185.840729,238.045988 187.897748,237.688743 C188.992376,237.498637 189.765634,237.908129 189.937871,238.767378 L190.070108,238.744413 L190.452203,237.377379 L192.523915,237.017583 L190.151467,245.505547 C189.592355,247.505895 187.690371,249.034011 185.243988,249.458877 Z M195.647978,243.09597 C196.639755,242.923727 197.574748,242.129379 197.816526,241.264364 L197.991384,240.638772 L196.322893,241.031419 C195.385153,241.260414 194.839873,241.685793 194.669334,242.295938 C194.492317,242.929252 194.905982,243.224833 195.647978,243.09597 Z M194.469952,244.909868 C192.912495,245.180353 192.098502,244.366423 192.534567,242.806306 C192.966313,241.261635 194.34074,240.170517 196.388219,239.697354 L198.384273,239.233122 L198.578559,238.53802 C198.777163,237.827472 198.404548,237.510065 197.522969,237.66317 C196.751587,237.797137 196.159618,238.164489 195.840825,238.704851 L193.871965,239.046786 C194.45193,237.44698 196.102042,236.219803 198.137021,235.866385 C200.282198,235.49383 201.196464,236.349133 200.687003,238.171844 L199.061477,243.987528 L196.989766,244.347325 L197.300623,243.235162 L197.168386,243.258128 C196.531604,244.110912 195.520501,244.727418 194.469952,244.909868 Z M204.719005,232.974355 L206.856835,232.603076 L206.267501,234.711551 L207.949848,234.419376 L207.455498,236.188023 L205.773151,236.480198 L204.702419,240.310981 C204.495181,241.052423 204.723442,241.336112 205.450745,241.2098 C205.729912,241.161317 205.879001,241.128076 206.091179,241.069182 L205.61194,242.783766 C205.332355,242.883761 204.922692,242.998998 204.511288,243.070447 C202.542427,243.412381 201.951509,242.875693 202.415636,241.215172 L203.635321,236.851478 L202.371724,237.070928 L202.866073,235.302281 L204.129671,235.08283 L204.719005,232.974355 Z M212.767364,234.964219 C211.775587,235.136462 210.874749,235.983665 210.492586,237.100863 L213.945438,236.501202 C214.216534,235.381248 213.766488,234.7907 212.767364,234.964219 Z M213.227484,239.21989 L215.218385,238.874128 C214.455627,240.527725 212.769653,241.783176 210.786099,242.127662 C208.317677,242.556356 207.320722,241.171628 208.093549,238.406668 C208.868534,235.633985 210.831765,233.661674 213.241415,233.243187 C215.629026,232.828528 216.592695,234.182294 215.837139,236.885467 L215.645011,237.572846 L210.083715,238.538683 L210.051334,238.654533 C209.726687,239.916059 210.21176,240.581357 211.328427,240.387424 C212.173274,240.240699 212.842156,239.823247 213.227484,239.21989 Z" id="Aggregate" fill="#FFFFFF" fill-rule="nonzero"></path>
                <path d="M81.7326292,2.754 L81.7326292,5.68 L77.1346292,5.68 L77.1346292,18 L73.7026292,18 L73.7026292,5.68 L69.1046292,5.68 L69.1046292,2.754 L81.7326292,2.754 Z M89.1686292,9.332 C88.8752944,9.2586663 88.5306312,9.18166707 88.1346292,9.101 C87.7386272,9.02033293 87.3132982,8.98 86.8586292,8.98 C86.6532949,8.98 86.4076306,8.99833315 86.1216292,9.035 C85.8356278,9.07166685 85.6192966,9.11199978 85.4726292,9.156 L85.4726292,18 L82.1946292,18 L82.1946292,7.044 C82.7812988,6.83866564 83.4742919,6.64433425 84.2736292,6.461 C85.0729665,6.27766575 85.9639576,6.186 86.9466292,6.186 C87.1226301,6.186 87.3352946,6.19699989 87.5846292,6.219 C87.8339638,6.24100011 88.0832946,6.27033315 88.3326292,6.307 C88.5819638,6.34366685 88.8312946,6.38766641 89.0806292,6.439 C89.3299638,6.49033359 89.5426283,6.5526663 89.7186292,6.626 L89.1686292,9.332 Z M95.6806292,15.712 C96.0032975,15.712 96.3112944,15.7046667 96.6046292,15.69 C96.897964,15.6753333 97.1326283,15.6533335 97.3086292,15.624 L97.3086292,13.138 C97.1766286,13.1086665 96.9786305,13.0793335 96.7146292,13.05 C96.4506279,13.0206665 96.2086303,13.006 95.9886292,13.006 C95.6806277,13.006 95.3909639,13.0243331 95.1196292,13.061 C94.8482945,13.0976668 94.6099636,13.1673328 94.4046292,13.27 C94.1992949,13.3726672 94.0379631,13.5119991 93.9206292,13.688 C93.8032953,13.8640009 93.7446292,14.0839987 93.7446292,14.348 C93.7446292,14.8613359 93.9169608,15.216999 94.2616292,15.415 C94.6062976,15.613001 95.0792929,15.712 95.6806292,15.712 Z M95.4166292,6.12 C96.3846341,6.12 97.1912927,6.2299989 97.8366292,6.45 C98.4819658,6.6700011 98.9989606,6.98533128 99.3876292,7.396 C99.7762978,7.80666872 100.051295,8.3053304 100.212629,8.892 C100.373963,9.4786696 100.454629,10.1313297 100.454629,10.85 L100.454629,17.67 C99.9852935,17.7726672 99.3326334,17.893666 98.4966292,18.033 C97.660625,18.172334 96.6486352,18.242 95.4606292,18.242 C94.7126255,18.242 94.0342989,18.1760007 93.4256292,18.044 C92.8169595,17.9119993 92.2926314,17.6956682 91.8526292,17.395 C91.412627,17.0943318 91.0752971,16.7020024 90.8406292,16.218 C90.6059614,15.7339976 90.4886292,15.1400035 90.4886292,14.436 C90.4886292,13.76133 90.6242945,13.1893357 90.8956292,12.72 C91.1669639,12.2506643 91.5299603,11.8766681 91.9846292,11.598 C92.4392982,11.3193319 92.9599596,11.1176673 93.5466292,10.993 C94.1332988,10.8683327 94.7419594,10.806 95.3726292,10.806 C95.7979647,10.806 96.1756276,10.8243331 96.5056292,10.861 C96.8356309,10.8976668 97.1032949,10.945333 97.3086292,11.004 L97.3086292,10.696 C97.3086292,10.1386639 97.1399642,9.69133502 96.8026292,9.354 C96.4652942,9.01666498 95.8786334,8.848 95.0426292,8.848 C94.4852931,8.848 93.9352986,8.88833293 93.3926292,8.969 C92.8499598,9.04966707 92.3806312,9.1633326 91.9846292,9.31 L91.5666292,6.67 C91.7572968,6.61133304 91.9956278,6.54900033 92.2816292,6.483 C92.5676306,6.41699967 92.8792942,6.35833359 93.2166292,6.307 C93.5539642,6.25566641 93.9096273,6.21166685 94.2836292,6.175 C94.6576311,6.13833315 95.035294,6.12 95.4166292,6.12 Z M103.424629,6.824 C103.981965,6.66266586 104.700625,6.51233403 105.580629,6.373 C106.460634,6.23366597 107.384624,6.164 108.352629,6.164 C109.335301,6.164 110.152959,6.29233205 110.805629,6.549 C111.458299,6.80566795 111.975294,7.16866432 112.356629,7.638 C112.737964,8.10733568 113.009295,8.66466344 113.170629,9.31 C113.331963,9.95533656 113.412629,10.673996 113.412629,11.466 L113.412629,18 L110.134629,18 L110.134629,11.862 C110.134629,10.8059947 109.995297,10.0580022 109.716629,9.618 C109.437961,9.1779978 108.9173,8.958 108.154629,8.958 C107.919961,8.958 107.670631,8.96899989 107.406629,8.991 C107.142628,9.01300011 106.907964,9.03866652 106.702629,9.068 L106.702629,18 L103.424629,18 L103.424629,6.824 Z M119.704629,15.646 C120.305966,15.646 120.731295,15.5873339 120.980629,15.47 C121.229964,15.3526661 121.354629,15.125335 121.354629,14.788 C121.354629,14.5239987 121.193297,14.293001 120.870629,14.095 C120.547961,13.896999 120.056633,13.6733346 119.396629,13.424 C118.883293,13.2333324 118.417631,13.0353344 117.999629,12.83 C117.581627,12.6246656 117.225964,12.3790014 116.932629,12.093 C116.639294,11.8069986 116.411963,11.466002 116.250629,11.07 C116.089295,10.673998 116.008629,10.1973361 116.008629,9.64 C116.008629,8.55466124 116.411959,7.69666982 117.218629,7.066 C118.0253,6.43533018 119.132622,6.12 120.540629,6.12 C121.244633,6.12 121.919293,6.18233271 122.564629,6.307 C123.209966,6.43166729 123.723294,6.5673326 124.104629,6.714 L123.532629,9.266 C123.151294,9.13399934 122.736965,9.01666718 122.289629,8.914 C121.842294,8.81133282 121.339965,8.76 120.782629,8.76 C119.755957,8.76 119.242629,9.04599714 119.242629,9.618 C119.242629,9.75000066 119.264629,9.86733282 119.308629,9.97 C119.352629,10.0726672 119.440629,10.1716662 119.572629,10.267 C119.70463,10.3623338 119.884295,10.4649994 120.111629,10.575 C120.338964,10.6850005 120.628627,10.8059993 120.980629,10.938 C121.699299,11.2020013 122.293294,11.462332 122.762629,11.719 C123.231965,11.9756679 123.602295,12.2543318 123.873629,12.555 C124.144964,12.8556682 124.335629,13.1893315 124.445629,13.556 C124.55563,13.9226685 124.610629,14.3479976 124.610629,14.832 C124.610629,15.9760057 124.181634,16.8413304 123.323629,17.428 C122.465625,18.0146696 121.25197,18.308 119.682629,18.308 C118.655957,18.308 117.801633,18.2200009 117.119629,18.044 C116.437626,17.8679991 115.964631,17.7213339 115.700629,17.604 L116.250629,14.942 C116.807965,15.1620011 117.37996,15.3343327 117.966629,15.459 C118.553299,15.5836673 119.132626,15.646 119.704629,15.646 Z M132.068629,0.928 C132.684632,0.928 133.249293,0.99033271 133.762629,1.115 C134.275965,1.23966729 134.671961,1.36066608 134.950629,1.478 L134.312629,4.096 C134.019294,3.96399934 133.700298,3.86500033 133.355629,3.799 C133.010961,3.73299967 132.691964,3.7 132.398629,3.7 C132.002627,3.7 131.668964,3.75499945 131.397629,3.865 C131.126295,3.97500055 130.91363,4.12533238 130.759629,4.316 C130.605628,4.50666762 130.49563,4.73399868 130.429629,4.998 C130.363629,5.26200132 130.330629,5.54799846 130.330629,5.856 L130.330629,6.428 L134.378629,6.428 L134.378629,9.156 L130.330629,9.156 L130.330629,18 L127.052629,18 L127.052629,5.812 C127.052629,4.31599252 127.474292,3.1280044 128.317629,2.248 C129.160967,1.3679956 130.411288,0.928 132.068629,0.928 Z M146.984629,12.192 C146.984629,13.1013379 146.852631,13.9336629 146.588629,14.689 C146.324628,15.4443371 145.943298,16.089664 145.444629,16.625 C144.94596,17.160336 144.348299,17.5746652 143.651629,17.868 C142.954959,18.1613348 142.173967,18.308 141.308629,18.308 C140.457958,18.308 139.684299,18.1613348 138.987629,17.868 C138.290959,17.5746652 137.693298,17.160336 137.194629,16.625 C136.69596,16.089664 136.307297,15.4443371 136.028629,14.689 C135.749961,13.9336629 135.610629,13.1013379 135.610629,12.192 C135.610629,11.2826621 135.753628,10.4540037 136.039629,9.706 C136.325631,8.95799626 136.721627,8.32000264 137.227629,7.792 C137.733632,7.26399736 138.334959,6.8533348 139.031629,6.56 C139.728299,6.2666652 140.487292,6.12 141.308629,6.12 C142.144633,6.12 142.910959,6.2666652 143.607629,6.56 C144.304299,6.8533348 144.90196,7.26399736 145.400629,7.792 C145.899298,8.32000264 146.287961,8.95799626 146.566629,9.706 C146.845297,10.4540037 146.984629,11.2826621 146.984629,12.192 Z M143.640629,12.192 C143.640629,11.1799949 143.438965,10.3843362 143.035629,9.805 C142.632294,9.22566377 142.056633,8.936 141.308629,8.936 C140.560625,8.936 139.981298,9.22566377 139.570629,9.805 C139.15996,10.3843362 138.954629,11.1799949 138.954629,12.192 C138.954629,13.2040051 139.15996,14.006997 139.570629,14.601 C139.981298,15.195003 140.560625,15.492 141.308629,15.492 C142.056633,15.492 142.632294,15.195003 143.035629,14.601 C143.438965,14.006997 143.640629,13.2040051 143.640629,12.192 Z M156.488629,9.332 C156.195294,9.2586663 155.850631,9.18166707 155.454629,9.101 C155.058627,9.02033293 154.633298,8.98 154.178629,8.98 C153.973295,8.98 153.727631,8.99833315 153.441629,9.035 C153.155628,9.07166685 152.939297,9.11199978 152.792629,9.156 L152.792629,18 L149.514629,18 L149.514629,7.044 C150.101299,6.83866564 150.794292,6.64433425 151.593629,6.461 C152.392967,6.27766575 153.283958,6.186 154.266629,6.186 C154.44263,6.186 154.655295,6.19699989 154.904629,6.219 C155.153964,6.24100011 155.403295,6.27033315 155.652629,6.307 C155.901964,6.34366685 156.151295,6.38766641 156.400629,6.439 C156.649964,6.49033359 156.862628,6.5526663 157.038629,6.626 L156.488629,9.332 Z M165.156629,11.862 C165.156629,10.8059947 165.020964,10.0580022 164.749629,9.618 C164.478295,9.1779978 164.012633,8.958 163.352629,8.958 C163.147295,8.958 162.93463,8.96899989 162.714629,8.991 C162.494628,9.01300011 162.281964,9.03866652 162.076629,9.068 L162.076629,18 L158.798629,18 L158.798629,6.824 C159.077297,6.7506663 159.403627,6.67366707 159.777629,6.593 C160.151631,6.51233293 160.547627,6.43900033 160.965629,6.373 C161.383631,6.30699967 161.812627,6.25566685 162.252629,6.219 C162.692631,6.18233315 163.125294,6.164 163.550629,6.164 C164.386633,6.164 165.06496,6.27033227 165.585629,6.483 C166.106298,6.69566773 166.535294,6.9486652 166.872629,7.242 C167.341965,6.90466498 167.88096,6.64066762 168.489629,6.45 C169.098299,6.25933238 169.659293,6.164 170.172629,6.164 C171.096634,6.164 171.855626,6.29233205 172.449629,6.549 C173.043632,6.80566795 173.516627,7.16866432 173.868629,7.638 C174.220631,8.10733568 174.462629,8.66466344 174.594629,9.31 C174.72663,9.95533656 174.792629,10.673996 174.792629,11.466 L174.792629,18 L171.514629,18 L171.514629,11.862 C171.514629,10.8059947 171.378964,10.0580022 171.107629,9.618 C170.836295,9.1779978 170.370633,8.958 169.710629,8.958 C169.534628,8.958 169.288964,9.00199956 168.973629,9.09 C168.658294,9.17800044 168.397964,9.28799934 168.192629,9.42 C168.295296,9.75733502 168.361296,10.1129981 168.390629,10.487 C168.419963,10.8610019 168.434629,11.2606645 168.434629,11.686 L168.434629,18 L165.156629,18 L165.156629,11.862 Z M181.084629,15.646 C181.685966,15.646 182.111295,15.5873339 182.360629,15.47 C182.609964,15.3526661 182.734629,15.125335 182.734629,14.788 C182.734629,14.5239987 182.573297,14.293001 182.250629,14.095 C181.927961,13.896999 181.436633,13.6733346 180.776629,13.424 C180.263293,13.2333324 179.797631,13.0353344 179.379629,12.83 C178.961627,12.6246656 178.605964,12.3790014 178.312629,12.093 C178.019294,11.8069986 177.791963,11.466002 177.630629,11.07 C177.469295,10.673998 177.388629,10.1973361 177.388629,9.64 C177.388629,8.55466124 177.791959,7.69666982 178.598629,7.066 C179.4053,6.43533018 180.512622,6.12 181.920629,6.12 C182.624633,6.12 183.299293,6.18233271 183.944629,6.307 C184.589966,6.43166729 185.103294,6.5673326 185.484629,6.714 L184.912629,9.266 C184.531294,9.13399934 184.116965,9.01666718 183.669629,8.914 C183.222294,8.81133282 182.719965,8.76 182.162629,8.76 C181.135957,8.76 180.622629,9.04599714 180.622629,9.618 C180.622629,9.75000066 180.644629,9.86733282 180.688629,9.97 C180.732629,10.0726672 180.820629,10.1716662 180.952629,10.267 C181.08463,10.3623338 181.264295,10.4649994 181.491629,10.575 C181.718964,10.6850005 182.008627,10.8059993 182.360629,10.938 C183.079299,11.2020013 183.673294,11.462332 184.142629,11.719 C184.611965,11.9756679 184.982295,12.2543318 185.253629,12.555 C185.524964,12.8556682 185.715629,13.1893315 185.825629,13.556 C185.93563,13.9226685 185.990629,14.3479976 185.990629,14.832 C185.990629,15.9760057 185.561634,16.8413304 184.703629,17.428 C183.845625,18.0146696 182.63197,18.308 181.062629,18.308 C180.035957,18.308 179.181633,18.2200009 178.499629,18.044 C177.817626,17.8679991 177.344631,17.7213339 177.080629,17.604 L177.630629,14.942 C178.187965,15.1620011 178.75996,15.3343327 179.346629,15.459 C179.933299,15.5836673 180.512626,15.646 181.084629,15.646 Z" fill="#001B3D" fill-rule="nonzero"></path>
            </g>
            <g id="Group-16" transform="translate(351.000000, 167.000000)">
                <g id="Group-15" transform="translate(8.337072, 0.000000)">
                    <polygon id="Triangle" fill="#001B3D" transform="translate(18.869266, 17.145933) scale(1, -1) translate(-18.869266, -17.145933) " points="18.8692664 4.55040597 33.9838989 29.7414602 3.75463383 29.7414602"></polygon>
                    <polygon id="Triangle" fill="#FFFFFF" transform="translate(15.289485, 12.664577) scale(1, -1) translate(-15.289485, -12.664577) " points="15.289485 0.0690500056 30.4041175 25.2601043 0.174852433 25.2601043"></polygon>
                </g>
                <g id="Symbol" transform="translate(0.000000, 3.967034)">
                    <polygon id="Triangle" fill="#001B3D" transform="translate(15.035082, 13.112607) scale(1, -1) translate(-15.035082, -13.112607) " points="15.0350819 0.583371783 30.0701637 25.6418415 0 25.6418415"></polygon>
                    <mask id="mask-2" fill="white">
                        <use xlink:href="#path-1"></use>
                    </mask>
                    <use id="Mask" fill="#FFFFFF" transform="translate(15.188880, 6.430348) scale(1, -1) translate(-15.188880, -6.430348) " xlink:href="#path-1"></use>
                </g>
            </g>
            <g id="Source-Arrows" transform="translate(104.500000, 230.638384)" fill-rule="nonzero">
                <path id="Line-4" d="M133.155668,-6.64242161 L147.221371,0.224600628 L133.288331,7.35694982 L133.231,1.357 L79.0095209,1.87104747 L78.9905689,-0.128862732 L133.212,-0.642 L133.155668,-6.64242161 Z" fill="url(#linearGradient-3)"></path>
                <path id="Line-5" d="M133.326364,-7.03026802 L147,0.587584848 L132.701536,6.95578182 L132.965891,1.03234055 C108.504239,1.65538762 90.3526539,11.2783109 78.3993935,29.9305268 L78.3993935,29.9305268 L69.7273462,43.4895749 L69.6187869,43.6451529 L69.5458669,43.724737 L69.4168931,43.8314804 L69.3240426,43.815818 L67.1087866,47.0978826 L63.3331136,52.764216 C52.470948,69.1254278 31.2128344,73.4282409 -0.23475072,65.833672 L-0.23475072,65.833672 L-1.20680632,65.5989213 L-0.737304886,63.6548101 L0.23475072,63.8895608 C30.9549174,71.3084586 51.3634704,67.1776035 61.6668864,51.6580122 C64.6807471,47.1183638 66.6584223,44.1678077 67.7614023,42.5579921 L67.7614023,42.5579921 L68.607827,41.3458454 C68.6566703,41.2787491 68.6992179,41.2215209 68.7363717,41.1730296 L68.7363717,41.1730296 L68.8539133,41.0277005 L68.995713,40.888649 L69.03146,40.861551 L77.0927923,28.268647 C89.4433616,9.38586562 108.133644,-0.370070055 133.054629,-0.970462358 L133.326364,-7.03026802 Z" fill="url(#linearGradient-4)"></path>
                <path id="Line-6" d="M133.099945,-6.86262491 L147,0.333795697 L132.90283,7.13598737 L132.986229,1.19576402 C112.502595,2.15785305 96.5785037,8.52317621 85.1610844,20.2781533 C71.2435841,34.6071267 63.6740952,56.9688315 62.4992556,87.4001939 L62.4992556,87.4001939 L62.4606781,88.3994495 L60.4621669,88.3222945 L60.5007444,87.3230389 C61.6930285,56.4398177 69.419375,33.6147256 83.7264219,18.8846887 C95.544694,6.71700753 111.991765,0.157433767 133.014439,-0.807695954 L133.099945,-6.86262491 Z" fill="#001B3D"></path>
            </g>
            <g id="Sources" transform="translate(18.000000, 136.000000)">
                <g id="Source-2" transform="translate(0.000000, 122.000000)">
                    <circle id="Oval-Copy-2" fill="#001B3D" cx="37.5" cy="37.5" r="37.5"></circle>
                    <path d="M13.71875,36.0859375 C13.71875,34.4921875 15.09375,33.4453125 17.2265625,33.4453125 C19.375,33.4453125 20.703125,34.546875 20.75,36.1875 L18.6484375,36.1875 C18.578125,35.5078125 18.0703125,35.046875 17.2265625,35.046875 C16.4375,35.046875 15.9140625,35.40625 15.9140625,35.9609375 C15.9140625,36.390625 16.2265625,36.6796875 17.0703125,36.859375 L18.5,37.1640625 C20.25,37.53125 20.96875,38.21875 20.96875,39.4453125 C20.96875,41.09375 19.4609375,42.1796875 17.3046875,42.1796875 C14.9921875,42.1796875 13.65625,41.1015625 13.5078125,39.453125 L15.734375,39.453125 C15.875,40.1875 16.3984375,40.578125 17.3046875,40.578125 C18.1640625,40.578125 18.6953125,40.2265625 18.6953125,39.6796875 C18.6953125,39.234375 18.40625,38.984375 17.5859375,38.796875 L16.15625,38.5 C14.5390625,38.15625 13.71875,37.34375 13.71875,36.0859375 Z M25.9375,42.1796875 C23.40625,42.1796875 21.7890625,40.5546875 21.7890625,37.8046875 C21.7890625,35.09375 23.4296875,33.4453125 25.9375,33.4453125 C28.4453125,33.4453125 30.0859375,35.0859375 30.0859375,37.8046875 C30.0859375,40.5625 28.46875,42.1796875 25.9375,42.1796875 Z M25.9375,40.4375 C27.0546875,40.4375 27.765625,39.4921875 27.765625,37.8125 C27.765625,36.1484375 27.046875,35.1875 25.9375,35.1875 C24.828125,35.1875 24.1015625,36.1484375 24.1015625,37.8125 C24.1015625,39.4921875 24.8125,40.4375 25.9375,40.4375 Z M38.9921875,33.625 L38.9921875,42 L36.7890625,42 L36.7890625,40.4921875 L36.7421875,40.4921875 C36.328125,41.546875 35.5,42.15625 34.234375,42.15625 C32.421875,42.15625 31.21875,40.9765625 31.21875,39.0234375 L31.21875,33.625 L33.5,33.625 L33.5,38.546875 C33.5,39.6640625 34.0546875,40.2578125 35.0625,40.2578125 C36.078125,40.2578125 36.7109375,39.53125 36.7109375,38.421875 L36.7109375,33.625 L38.9921875,33.625 Z M40.4765625,42 L40.4765625,33.625 L42.6796875,33.625 L42.6796875,35.1328125 L42.7265625,35.1328125 C43.0234375,34.0703125 43.734375,33.4921875 44.71875,33.4921875 C44.984375,33.4921875 45.2109375,33.53125 45.3671875,33.578125 L45.3671875,35.5859375 C45.1796875,35.5078125 44.8671875,35.453125 44.5390625,35.453125 C43.4140625,35.453125 42.7578125,36.140625 42.7578125,37.3203125 L42.7578125,42 L40.4765625,42 Z M53.6328125,36.7421875 L51.515625,36.7421875 C51.3828125,35.859375 50.796875,35.234375 49.859375,35.234375 C48.734375,35.234375 48.03125,36.1875 48.03125,37.8046875 C48.03125,39.453125 48.734375,40.390625 49.8671875,40.390625 C50.78125,40.390625 51.375,39.84375 51.515625,38.9296875 L53.640625,38.9296875 C53.5234375,40.90625 52.046875,42.1796875 49.84375,42.1796875 C47.3203125,42.1796875 45.71875,40.5390625 45.71875,37.8046875 C45.71875,35.1171875 47.3203125,33.4453125 49.828125,33.4453125 C52.09375,33.4453125 53.53125,34.84375 53.6328125,36.7421875 Z M58.5,35.1328125 C57.5,35.1328125 56.78125,35.890625 56.703125,36.9375 L60.2578125,36.9375 C60.2109375,35.8671875 59.515625,35.1328125 58.5,35.1328125 Z M60.2890625,39.4375 L62.3828125,39.4375 C62.1328125,41.078125 60.6328125,42.1796875 58.5625,42.1796875 C55.984375,42.1796875 54.4375,40.53125 54.4375,37.8515625 C54.4375,35.1796875 56,33.4453125 58.4765625,33.4453125 C60.9140625,33.4453125 62.453125,35.09375 62.453125,37.640625 L62.453125,38.3359375 L56.6796875,38.3359375 L56.6796875,38.4765625 C56.6796875,39.671875 57.4375,40.4921875 58.6015625,40.4921875 C59.4375,40.4921875 60.078125,40.078125 60.2890625,39.4375 Z" id="source" fill="#FFFFFF" fill-rule="nonzero"></path>
                </g>
                <g id="Source-3" transform="translate(82.000000, 182.000000)">
                    <circle id="Oval-Copy-2" fill="#001B3D" cx="37.5" cy="37.5" r="37.5"></circle>
                    <path d="M13.71875,36.0859375 C13.71875,34.4921875 15.09375,33.4453125 17.2265625,33.4453125 C19.375,33.4453125 20.703125,34.546875 20.75,36.1875 L18.6484375,36.1875 C18.578125,35.5078125 18.0703125,35.046875 17.2265625,35.046875 C16.4375,35.046875 15.9140625,35.40625 15.9140625,35.9609375 C15.9140625,36.390625 16.2265625,36.6796875 17.0703125,36.859375 L18.5,37.1640625 C20.25,37.53125 20.96875,38.21875 20.96875,39.4453125 C20.96875,41.09375 19.4609375,42.1796875 17.3046875,42.1796875 C14.9921875,42.1796875 13.65625,41.1015625 13.5078125,39.453125 L15.734375,39.453125 C15.875,40.1875 16.3984375,40.578125 17.3046875,40.578125 C18.1640625,40.578125 18.6953125,40.2265625 18.6953125,39.6796875 C18.6953125,39.234375 18.40625,38.984375 17.5859375,38.796875 L16.15625,38.5 C14.5390625,38.15625 13.71875,37.34375 13.71875,36.0859375 Z M25.9375,42.1796875 C23.40625,42.1796875 21.7890625,40.5546875 21.7890625,37.8046875 C21.7890625,35.09375 23.4296875,33.4453125 25.9375,33.4453125 C28.4453125,33.4453125 30.0859375,35.0859375 30.0859375,37.8046875 C30.0859375,40.5625 28.46875,42.1796875 25.9375,42.1796875 Z M25.9375,40.4375 C27.0546875,40.4375 27.765625,39.4921875 27.765625,37.8125 C27.765625,36.1484375 27.046875,35.1875 25.9375,35.1875 C24.828125,35.1875 24.1015625,36.1484375 24.1015625,37.8125 C24.1015625,39.4921875 24.8125,40.4375 25.9375,40.4375 Z M38.9921875,33.625 L38.9921875,42 L36.7890625,42 L36.7890625,40.4921875 L36.7421875,40.4921875 C36.328125,41.546875 35.5,42.15625 34.234375,42.15625 C32.421875,42.15625 31.21875,40.9765625 31.21875,39.0234375 L31.21875,33.625 L33.5,33.625 L33.5,38.546875 C33.5,39.6640625 34.0546875,40.2578125 35.0625,40.2578125 C36.078125,40.2578125 36.7109375,39.53125 36.7109375,38.421875 L36.7109375,33.625 L38.9921875,33.625 Z M40.4765625,42 L40.4765625,33.625 L42.6796875,33.625 L42.6796875,35.1328125 L42.7265625,35.1328125 C43.0234375,34.0703125 43.734375,33.4921875 44.71875,33.4921875 C44.984375,33.4921875 45.2109375,33.53125 45.3671875,33.578125 L45.3671875,35.5859375 C45.1796875,35.5078125 44.8671875,35.453125 44.5390625,35.453125 C43.4140625,35.453125 42.7578125,36.140625 42.7578125,37.3203125 L42.7578125,42 L40.4765625,42 Z M53.6328125,36.7421875 L51.515625,36.7421875 C51.3828125,35.859375 50.796875,35.234375 49.859375,35.234375 C48.734375,35.234375 48.03125,36.1875 48.03125,37.8046875 C48.03125,39.453125 48.734375,40.390625 49.8671875,40.390625 C50.78125,40.390625 51.375,39.84375 51.515625,38.9296875 L53.640625,38.9296875 C53.5234375,40.90625 52.046875,42.1796875 49.84375,42.1796875 C47.3203125,42.1796875 45.71875,40.5390625 45.71875,37.8046875 C45.71875,35.1171875 47.3203125,33.4453125 49.828125,33.4453125 C52.09375,33.4453125 53.53125,34.84375 53.6328125,36.7421875 Z M58.5,35.1328125 C57.5,35.1328125 56.78125,35.890625 56.703125,36.9375 L60.2578125,36.9375 C60.2109375,35.8671875 59.515625,35.1328125 58.5,35.1328125 Z M60.2890625,39.4375 L62.3828125,39.4375 C62.1328125,41.078125 60.6328125,42.1796875 58.5625,42.1796875 C55.984375,42.1796875 54.4375,40.53125 54.4375,37.8515625 C54.4375,35.1796875 56,33.4453125 58.4765625,33.4453125 C60.9140625,33.4453125 62.453125,35.09375 62.453125,37.640625 L62.453125,38.3359375 L56.6796875,38.3359375 L56.6796875,38.4765625 C56.6796875,39.671875 57.4375,40.4921875 58.6015625,40.4921875 C59.4375,40.4921875 60.078125,40.078125 60.2890625,39.4375 Z" id="source" fill="#FFFFFF" fill-rule="nonzero"></path>
                </g>
                <g id="Source-1" transform="translate(82.000000, 56.000000)">
                    <circle id="Oval-Copy-2" fill="#1BE6FF" cx="37.5" cy="37.5" r="37.5"></circle>
                    <path d="M8.79,43.46 C8.9366674,43.4733334 9.1066657,43.4833333 9.3,43.49 L9.79687457,43.499375 C9.85895789,43.4997917 9.923333,43.5 9.99,43.5 C11.5500078,43.5 12.7066629,43.1066706 13.46,42.32 C14.2133371,41.5333294 14.59,40.4466736 14.59,39.06 C14.59,37.6066594 14.2300036,36.5066704 13.51,35.76 C12.79,35.0133296 11.6500078,34.64 10.09,34.64 C9.8766656,34.64 9.6566678,34.6433333 9.43,34.65 C9.2033322,34.6566667 8.990001,34.6733332 8.79,34.7 L8.79,43.46 Z M17.81,39.06 C17.81,40.260006 17.6233352,41.3066622 17.25,42.2 C16.8766648,43.0933378 16.3466701,43.8333304 15.66,44.42 C14.9733299,45.0066696 14.1366716,45.4466652 13.15,45.74 C12.1633284,46.0333348 11.0566728,46.18 9.83,46.18 C9.2699972,46.18 8.6166704,46.1566669 7.87,46.11 C7.1233296,46.0633331 6.3900036,45.9666674 5.67,45.82 L5.67,32.32 C6.3900036,32.186666 7.1399961,32.0966669 7.92,32.05 C8.7000039,32.0033331 9.3699972,31.98 9.93,31.98 C11.1166726,31.98 12.1933285,32.113332 13.16,32.38 C14.1266715,32.646668 14.9566632,33.0666638 15.65,33.64 C16.3433368,34.2133362 16.8766648,34.9466622 17.25,35.84 C17.6233352,36.7333378 17.81,37.8066604 17.81,39.06 Z M30.05,40.72 C30.05,41.5466708 29.9300012,42.3033299 29.69,42.99 C29.4499988,43.6766701 29.1033356,44.2633309 28.65,44.75 C28.1966644,45.2366691 27.6533365,45.613332 27.02,45.88 C26.3866635,46.146668 25.6766706,46.28 24.89,46.28 C24.1166628,46.28 23.4133365,46.146668 22.78,45.88 C22.1466635,45.613332 21.6033356,45.2366691 21.15,44.75 C20.6966644,44.2633309 20.3433346,43.6766701 20.09,42.99 C19.8366654,42.3033299 19.71,41.5466708 19.71,40.72 C19.71,39.8933292 19.8399987,39.1400034 20.1,38.46 C20.3600013,37.7799966 20.7199977,37.2 21.18,36.72 C21.6400023,36.2399976 22.1866635,35.866668 22.82,35.6 C23.4533365,35.333332 24.1433296,35.2 24.89,35.2 C25.6500038,35.2 26.3466635,35.333332 26.98,35.6 C27.6133365,35.866668 28.1566644,36.2399976 28.61,36.72 C29.0633356,37.2 29.4166654,37.7799966 29.67,38.46 C29.9233346,39.1400034 30.05,39.8933292 30.05,40.72 Z M27.01,40.72 C27.01,39.7999954 26.8266685,39.0766693 26.46,38.55 C26.0933315,38.0233307 25.5700034,37.76 24.89,37.76 C24.2099966,37.76 23.6833352,38.0233307 23.31,38.55 C22.9366648,39.0766693 22.75,39.7999954 22.75,40.72 C22.75,41.6400046 22.9366648,42.3699973 23.31,42.91 C23.6833352,43.4500027 24.2099966,43.72 24.89,43.72 C25.5700034,43.72 26.0933315,43.4500027 26.46,42.91 C26.8266685,42.3699973 27.01,41.6400046 27.01,40.72 Z M31.85,40.74 C31.85,39.9799962 31.9733321,39.2633367 32.22,38.59 C32.4666679,37.9166633 32.823331,37.3300025 33.29,36.83 C33.756669,36.3299975 34.32333,35.9333348 34.99,35.64 C35.65667,35.3466652 36.4166624,35.2 37.27,35.2 C37.8300028,35.2 38.343331,35.2499995 38.81,35.35 C39.276669,35.4500005 39.7299978,35.5933324 40.17,35.78 L39.55,38.16 C39.2699986,38.0533328 38.963335,37.9600004 38.63,37.88 C38.296665,37.7999996 37.9233354,37.76 37.51,37.76 C36.6299956,37.76 35.9733355,38.0333306 35.54,38.58 C35.1066645,39.1266694 34.89,39.8466622 34.89,40.74 C34.89,41.6866714 35.0933313,42.4199974 35.5,42.94 C35.9066687,43.4600026 36.6166616,43.72 37.63,43.72 C37.9900018,43.72 38.3766646,43.686667 38.79,43.62 C39.2033354,43.553333 39.5833316,43.4466674 39.93,43.3 L40.35,45.74 C40.0033316,45.8866674 39.5700026,46.0133328 39.05,46.12 C38.5299974,46.2266672 37.9566698,46.28 37.33,46.28 C36.3699952,46.28 35.5433368,46.1366681 34.85,45.85 C34.1566632,45.5633319 33.5866689,45.1733358 33.14,44.68 C32.6933311,44.1866642 32.3666677,43.6033367 32.16,42.93 C31.9533323,42.2566633 31.85,41.5266706 31.85,40.74 Z M45.33,30.48 L45.33,39.28 L46.24,38.28 L46.24,38.28 C46.5533349,37.9333316 46.8566652,37.5900017 47.15,37.25 L47.98,36.28 L47.98,36.28 L48.65,35.48 L48.65,35.48 L52.19,35.48 C51.4833298,36.2933374 50.7933367,37.0699963 50.12,37.81 C49.4466633,38.5500037 48.710004,39.3133294 47.91,40.1 C48.310002,40.4600018 48.7233312,40.8899975 49.15,41.39 C49.5766688,41.8900025 49.989998,42.406664 50.39,42.94 C50.790002,43.473336 51.156665,44.006664 51.49,44.54 C51.823335,45.073336 52.1033322,45.5599978 52.33,46 L48.91,46 L48.5675001,45.4525001 C48.4458338,45.2608339 48.3166674,45.060001 48.18,44.85 C47.9066653,44.4299979 47.6166682,44.0100021 47.31,43.59 C47.0033318,43.1699979 46.6800017,42.7666686 46.34,42.38 C45.9999983,41.9933314 45.663335,41.666668 45.33,41.4 L45.33,46 L42.35,46 L42.35,30.96 L45.33,30.48 Z M52.71,40.82 C52.71,39.886662 52.8533319,39.0700035 53.14,38.37 C53.4266681,37.6699965 53.803331,37.086669 54.27,36.62 C54.736669,36.153331 55.2733303,35.8000012 55.88,35.56 C56.4866697,35.3199988 57.1099968,35.2 57.75,35.2 C59.2433408,35.2 60.423329,35.6566621 61.29,36.57 C62.156671,37.4833379 62.59,38.8266578 62.59,40.6 L62.5811111,40.9688886 C62.5781482,41.0340737 62.5744445,41.1011108 62.57,41.17 L62.53,41.72 L62.53,41.72 L55.77,41.72 C55.836667,42.3333364 56.1233308,42.8199982 56.63,43.18 C57.1366692,43.5400018 57.8166624,43.72 58.67,43.72 C59.2166694,43.72 59.7533307,43.6700005 60.28,43.57 C60.8066693,43.4699995 61.236665,43.3466674 61.57,43.2 L61.97,45.62 C61.8099992,45.7 61.596668,45.7799996 61.33,45.86 C61.063332,45.9400004 60.7666683,46.0099997 60.44,46.07 C60.1133317,46.1300003 59.7633352,46.1799998 59.39,46.22 C59.0166648,46.2600002 58.6433352,46.28 58.27,46.28 C57.3233286,46.28 56.5000035,46.1400014 55.8,45.86 C55.0999965,45.5799986 54.5200023,45.1966691 54.06,44.71 C53.5999977,44.2233309 53.2600011,43.64667 53.04,42.98 C52.8199989,42.31333 52.71,41.5933372 52.71,40.82 Z M59.71,39.68 C59.6966666,39.4266654 59.6533337,39.1800012 59.58,38.94 C59.5066663,38.6999988 59.3933341,38.4866676 59.24,38.3 C59.0866659,38.1133324 58.8933345,37.9600006 58.66,37.84 C58.4266655,37.7199994 58.1366684,37.66 57.79,37.66 C57.456665,37.66 57.1700012,37.7166661 56.93,37.83 C56.6899988,37.9433339 56.4900008,38.0933324 56.33,38.28 C56.1699992,38.4666676 56.0466671,38.6833321 55.96,38.93 C55.8733329,39.1766679 55.8100002,39.4266654 55.77,39.68 L59.71,39.68 Z M71.23,38.12 C70.963332,38.053333 70.6500018,37.9833337 70.29,37.91 C69.9299982,37.8366663 69.5433354,37.8 69.13,37.8 C68.9433324,37.8 68.7200013,37.8166665 68.46,37.85 C68.1999987,37.8833335 68.003334,37.9199998 67.87,37.96 L67.87,46 L64.89,46 L64.89,36.04 C65.423336,35.8533324 66.0533297,35.6766675 66.78,35.51 C67.5066703,35.3433325 68.3166622,35.26 69.21,35.26 C69.3700008,35.26 69.5633322,35.2699999 69.79,35.29 C70.0166678,35.3100001 70.2433322,35.3366665 70.47,35.37 C70.6966678,35.4033335 70.9233322,35.4433331 71.15,35.49 C71.3766678,35.5366669 71.5699992,35.593333 71.73,35.66 L71.23,38.12 Z" id="Docker" fill="#FFFFFF" fill-rule="nonzero"></path>
                </g>
                <path d="M73.344,13.382 C73.8280024,13.382 74.2276651,13.3416671 74.543,13.261 C74.8583349,13.1803329 75.1113324,13.070334 75.302,12.931 C75.4926676,12.791666 75.6246663,12.6266676 75.698,12.436 C75.7713337,12.2453324 75.808,12.0326678 75.808,11.798 C75.808,11.2993308 75.5733357,10.8850017 75.104,10.555 C74.6346643,10.2249984 73.8280057,9.86933524 72.684,9.488 C72.1853308,9.31199912 71.6866692,9.11033447 71.188,8.883 C70.6893308,8.65566553 70.242002,8.36966839 69.846,8.025 C69.449998,7.68033161 69.1273346,7.26233579 68.878,6.771 C68.6286654,6.27966421 68.504,5.68200352 68.504,4.978 C68.504,4.27399648 68.6359987,3.63966949 68.9,3.075 C69.1640013,2.51033051 69.5379976,2.03000198 70.022,1.634 C70.5060024,1.23799802 71.0926632,0.93366773 71.782,0.721 C72.4713368,0.50833227 73.2486623,0.402 74.114,0.402 C75.1406718,0.402 76.0279963,0.5119989 76.776,0.732 C77.5240037,0.9520011 78.1399976,1.19399868 78.624,1.458 L77.634,4.164 C77.2086645,3.9439989 76.7356693,3.74966751 76.215,3.581 C75.6943307,3.41233249 75.067337,3.328 74.334,3.328 C73.5126626,3.328 72.9223351,3.44166553 72.563,3.669 C72.2036649,3.89633447 72.024,4.24466432 72.024,4.714 C72.024,4.99266806 72.0899993,5.22733238 72.222,5.418 C72.3540007,5.60866762 72.5409988,5.78099923 72.783,5.935 C73.0250012,6.08900077 73.3036651,6.22833271 73.619,6.353 C73.9343349,6.47766729 74.2826648,6.60599934 74.664,6.738 C75.456004,7.0313348 76.1453304,7.32099857 76.732,7.607 C77.3186696,7.89300143 77.8063314,8.22666476 78.195,8.608 C78.5836686,8.98933524 78.8733324,9.4366641 79.064,9.95 C79.2546676,10.4633359 79.35,11.086663 79.35,11.82 C79.35,13.2426738 78.8513383,14.3463294 77.854,15.131 C76.8566617,15.9156706 75.3533434,16.308 73.344,16.308 C72.66933,16.308 72.0606694,16.2676671 71.518,16.187 C70.9753306,16.1063329 70.4950021,16.0073339 70.077,15.89 C69.6589979,15.7726661 69.2996682,15.6480007 68.999,15.516 C68.6983318,15.3839993 68.4453344,15.2593339 68.24,15.142 L69.208,12.414 C69.6626689,12.6633346 70.2236633,12.886999 70.891,13.085 C71.5583367,13.283001 72.3759952,13.382 73.344,13.382 Z M92.594,10.192 C92.594,11.1013379 92.4620013,11.9336629 92.198,12.689 C91.9339987,13.4443371 91.5526692,14.089664 91.054,14.625 C90.5553308,15.160336 89.9576702,15.5746652 89.261,15.868 C88.5643299,16.1613348 87.7833377,16.308 86.918,16.308 C86.0673291,16.308 85.2936701,16.1613348 84.597,15.868 C83.9003298,15.5746652 83.3026692,15.160336 82.804,14.625 C82.3053308,14.089664 81.9166681,13.4443371 81.638,12.689 C81.3593319,11.9336629 81.22,11.1013379 81.22,10.192 C81.22,9.28266212 81.3629986,8.45400374 81.649,7.706 C81.9350014,6.95799626 82.3309975,6.32000264 82.837,5.792 C83.3430025,5.26399736 83.9443299,4.8533348 84.641,4.56 C85.3376702,4.2666652 86.0966626,4.12 86.918,4.12 C87.7540042,4.12 88.5203298,4.2666652 89.217,4.56 C89.9136702,4.8533348 90.5113308,5.26399736 91.01,5.792 C91.5086692,6.32000264 91.8973319,6.95799626 92.176,7.706 C92.4546681,8.45400374 92.594,9.28266212 92.594,10.192 Z M89.25,10.192 C89.25,9.17999494 89.0483354,8.38433623 88.645,7.805 C88.2416646,7.22566377 87.6660037,6.936 86.918,6.936 C86.1699963,6.936 85.5906687,7.22566377 85.18,7.805 C84.7693313,8.38433623 84.564,9.17999494 84.564,10.192 C84.564,11.2040051 84.7693313,12.006997 85.18,12.601 C85.5906687,13.195003 86.1699963,13.492 86.918,13.492 C87.6660037,13.492 88.2416646,13.195003 88.645,12.601 C89.0483354,12.006997 89.25,11.2040051 89.25,10.192 Z M105.002,15.604 C104.444664,15.7653341 103.726004,15.915666 102.846,16.055 C101.965996,16.194334 101.042005,16.264 100.074,16.264 C99.0913284,16.264 98.2736699,16.1320013 97.621,15.868 C96.9683301,15.6039987 96.4513352,15.2336691 96.07,14.757 C95.6886648,14.280331 95.4173341,13.7120033 95.256,13.052 C95.0946659,12.3919967 95.014,11.666004 95.014,10.874 L95.014,4.428 L98.292,4.428 L98.292,10.478 C98.292,11.5340053 98.4313319,12.2966643 98.71,12.766 C98.9886681,13.2353357 99.5093295,13.47 100.272,13.47 C100.506668,13.47 100.755999,13.4590001 101.02,13.437 C101.284001,13.4149999 101.518666,13.3893335 101.724,13.36 L101.724,4.428 L105.002,4.428 L105.002,15.604 Z M115.056,7.332 C114.762665,7.2586663 114.418002,7.18166707 114.022,7.101 C113.625998,7.02033293 113.200669,6.98 112.746,6.98 C112.540666,6.98 112.295001,6.99833315 112.009,7.035 C111.722999,7.07166685 111.506667,7.11199978 111.36,7.156 L111.36,16 L108.082,16 L108.082,5.044 C108.66867,4.83866564 109.361663,4.64433425 110.161,4.461 C110.960337,4.27766575 111.851328,4.186 112.834,4.186 C113.010001,4.186 113.222665,4.19699989 113.472,4.219 C113.721335,4.24100011 113.970665,4.27033315 114.22,4.307 C114.469335,4.34366685 114.718665,4.38766641 114.968,4.439 C115.217335,4.49033359 115.429999,4.5526663 115.606,4.626 L115.056,7.332 Z M116.596,10.214 C116.596,9.37799582 116.731665,8.58967037 117.003,7.849 C117.274335,7.10832963 117.666664,6.46300275 118.18,5.913 C118.693336,5.36299725 119.316663,4.92666828 120.05,4.604 C120.783337,4.28133172 121.619329,4.12 122.558,4.12 C123.174003,4.12 123.738664,4.17499945 124.252,4.285 C124.765336,4.39500055 125.263998,4.55266564 125.748,4.758 L125.066,7.376 C124.757998,7.25866608 124.420669,7.15600044 124.054,7.068 C123.687331,6.97999956 123.276669,6.936 122.822,6.936 C121.853995,6.936 121.131669,7.23666366 120.655,7.838 C120.178331,8.43933634 119.94,9.23132842 119.94,10.214 C119.94,11.2553385 120.163664,12.0619971 120.611,12.634 C121.058336,13.2060029 121.839328,13.492 122.954,13.492 C123.350002,13.492 123.775331,13.4553337 124.23,13.382 C124.684669,13.3086663 125.102665,13.1913341 125.484,13.03 L125.946,15.714 C125.564665,15.8753341 125.088003,16.0146661 124.516,16.132 C123.943997,16.2493339 123.313337,16.308 122.624,16.308 C121.567995,16.308 120.65867,16.1503349 119.896,15.835 C119.13333,15.5196651 118.506336,15.0906694 118.015,14.548 C117.523664,14.0053306 117.164334,13.3636704 116.937,12.623 C116.709666,11.8823296 116.596,11.0793377 116.596,10.214 Z M127.046,10.302 C127.046,9.2753282 127.203665,8.37700385 127.519,7.607 C127.834335,6.83699615 128.248664,6.1953359 128.762,5.682 C129.275336,5.1686641 129.865663,4.78000132 130.533,4.516 C131.200337,4.25199868 131.885996,4.12 132.59,4.12 C134.232675,4.12 135.530662,4.62232831 136.484,5.627 C137.437338,6.63167169 137.914,8.10932358 137.914,10.06 C137.914,10.2506676 137.906667,10.4596655 137.892,10.687 C137.877333,10.9143345 137.862667,11.1159991 137.848,11.292 L130.412,11.292 C130.485334,11.96667 130.800664,12.501998 131.358,12.898 C131.915336,13.294002 132.663329,13.492 133.602,13.492 C134.203336,13.492 134.793664,13.4370006 135.373,13.327 C135.952336,13.2169995 136.425331,13.0813341 136.792,12.92 L137.232,15.582 C137.055999,15.6700004 136.821335,15.7579996 136.528,15.846 C136.234665,15.9340004 135.908335,16.0109997 135.549,16.077 C135.189665,16.1430003 134.804669,16.1979998 134.394,16.242 C133.983331,16.2860002 133.572669,16.308 133.162,16.308 C132.120661,16.308 131.215004,16.1540015 130.445,15.846 C129.674996,15.5379985 129.037003,15.116336 128.531,14.581 C128.024997,14.045664 127.651001,13.411337 127.409,12.678 C127.166999,11.944663 127.046,11.1526709 127.046,10.302 Z M134.746,9.048 C134.731333,8.76933194 134.683667,8.49800132 134.603,8.234 C134.522333,7.96999868 134.397668,7.73533436 134.229,7.53 C134.060332,7.32466564 133.847668,7.15600066 133.591,7.024 C133.334332,6.89199934 133.015335,6.826 132.634,6.826 C132.267332,6.826 131.952001,6.88833271 131.688,7.013 C131.423999,7.13766729 131.204001,7.30266564 131.028,7.508 C130.851999,7.71333436 130.716334,7.95166531 130.621,8.223 C130.525666,8.49433469 130.456,8.76933194 130.412,9.048 L134.746,9.048 Z M143.766,13.646 C144.367336,13.646 144.792665,13.5873339 145.042,13.47 C145.291335,13.3526661 145.416,13.125335 145.416,12.788 C145.416,12.5239987 145.254668,12.293001 144.932,12.095 C144.609332,11.896999 144.118003,11.6733346 143.458,11.424 C142.944664,11.2333324 142.479002,11.0353344 142.061,10.83 C141.642998,10.6246656 141.287335,10.3790014 140.994,10.093 C140.700665,9.80699857 140.473334,9.46600198 140.312,9.07 C140.150666,8.67399802 140.07,8.19733612 140.07,7.64 C140.07,6.55466124 140.473329,5.69666982 141.28,5.066 C142.086671,4.43533018 143.193993,4.12 144.602,4.12 C145.306004,4.12 145.980663,4.18233271 146.626,4.307 C147.271337,4.43166729 147.784665,4.5673326 148.166,4.714 L147.594,7.266 C147.212665,7.13399934 146.798336,7.01666718 146.351,6.914 C145.903664,6.81133282 145.401336,6.76 144.844,6.76 C143.817328,6.76 143.304,7.04599714 143.304,7.618 C143.304,7.75000066 143.326,7.86733282 143.37,7.97 C143.414,8.07266718 143.501999,8.17166619 143.634,8.267 C143.766001,8.36233381 143.945666,8.46499945 144.173,8.575 C144.400334,8.68500055 144.689998,8.80599934 145.042,8.938 C145.76067,9.20200132 146.354664,9.46233205 146.824,9.719 C147.293336,9.97566795 147.663665,10.2543318 147.935,10.555 C148.206335,10.8556682 148.396999,11.1893315 148.507,11.556 C148.617001,11.9226685 148.672,12.3479976 148.672,12.832 C148.672,13.9760057 148.243004,14.8413304 147.385,15.428 C146.526996,16.0146696 145.313341,16.308 143.744,16.308 C142.717328,16.308 141.863003,16.2200009 141.181,16.044 C140.498997,15.8679991 140.026001,15.7213339 139.762,15.604 L140.312,12.942 C140.869336,13.1620011 141.44133,13.3343327 142.028,13.459 C142.61467,13.5836673 143.193997,13.646 143.766,13.646 Z" fill="#001B3D" fill-rule="nonzero"></path>
            </g>
        </g>
    </g>
</svg>