<svg width="683" height="308" viewBox="0 0 683 308" fill="none" xmlns="http://www.w3.org/2000/svg">
<path d="M565.5 268C586.211 268 603 251.211 603 230.5C603 209.789 586.211 193 565.5 193C544.789 193 528 209.789 528 230.5C528 251.211 544.789 268 565.5 268Z" fill="#001B3D"/>
<path d="M551.652 230.086C551.652 228.492 553.027 227.445 555.16 227.445C557.309 227.445 558.637 228.547 558.684 230.188H556.582C556.512 229.508 556.004 229.047 555.16 229.047C554.371 229.047 553.848 229.406 553.848 229.961C553.848 230.391 554.16 230.68 555.004 230.859L556.434 231.164C558.184 231.531 558.902 232.219 558.902 233.445C558.902 235.094 557.395 236.18 555.238 236.18C552.926 236.18 551.59 235.102 551.441 233.453H553.668C553.809 234.188 554.332 234.578 555.238 234.578C556.098 234.578 556.629 234.227 556.629 233.68C556.629 233.234 556.34 232.984 555.52 232.797L554.09 232.5C552.473 232.156 551.652 231.344 551.652 230.086ZM560.066 236V227.625H562.348V236H560.066ZM561.199 226.492C560.535 226.492 560.012 225.961 560.012 225.32C560.012 224.672 560.535 224.148 561.199 224.148C561.863 224.148 562.387 224.672 562.387 225.32C562.387 225.961 561.863 226.492 561.199 226.492ZM563.863 236V227.625H566.066V229.117H566.113C566.559 228.078 567.441 227.469 568.73 227.469C570.59 227.469 571.637 228.641 571.637 230.602V236H569.355V231.078C569.355 229.984 568.84 229.359 567.816 229.359C566.793 229.359 566.145 230.109 566.145 231.195V236H563.863ZM575.449 230.984L578.293 227.625H580.879L577.684 231.219L581.035 236H578.41L576.012 232.594L575.418 233.234V236H573.137V224.727H575.418V230.984H575.449Z" fill="white"/>
<path d="M645.5 208C666.211 208 683 191.211 683 170.5C683 149.789 666.211 133 645.5 133C624.789 133 608 149.789 608 170.5C608 191.211 624.789 208 645.5 208Z" fill="#001B3D"/>
<path d="M631.652 170.086C631.652 168.492 633.027 167.445 635.16 167.445C637.309 167.445 638.637 168.547 638.684 170.187H636.582C636.512 169.508 636.004 169.047 635.16 169.047C634.371 169.047 633.848 169.406 633.848 169.961C633.848 170.391 634.16 170.68 635.004 170.859L636.434 171.164C638.184 171.531 638.902 172.219 638.902 173.445C638.902 175.094 637.395 176.18 635.238 176.18C632.926 176.18 631.59 175.102 631.441 173.453H633.668C633.809 174.187 634.332 174.578 635.238 174.578C636.098 174.578 636.629 174.227 636.629 173.68C636.629 173.234 636.34 172.984 635.52 172.797L634.09 172.5C632.473 172.156 631.652 171.344 631.652 170.086ZM640.066 176V167.625H642.348V176H640.066ZM641.199 166.492C640.535 166.492 640.012 165.961 640.012 165.32C640.012 164.672 640.535 164.148 641.199 164.148C641.863 164.148 642.387 164.672 642.387 165.32C642.387 165.961 641.863 166.492 641.199 166.492ZM643.863 176V167.625H646.066V169.117H646.113C646.559 168.078 647.441 167.469 648.73 167.469C650.59 167.469 651.637 168.641 651.637 170.602V176H649.355V171.078C649.355 169.984 648.84 169.359 647.816 169.359C646.793 169.359 646.145 170.109 646.145 171.195V176H643.863ZM655.449 170.984L658.293 167.625H660.879L657.684 171.219L661.035 176H658.41L656.012 172.594L655.418 173.234V176H653.137V164.727H655.418V170.984H655.449Z" fill="white"/>
<path d="M565.5 142C586.211 142 603 125.211 603 104.5C603 83.7893 586.211 67 565.5 67C544.789 67 528 83.7893 528 104.5C528 125.211 544.789 142 565.5 142Z" fill="#001B3D"/>
<path d="M551.652 105.086C551.652 103.492 553.027 102.445 555.16 102.445C557.309 102.445 558.637 103.547 558.684 105.187H556.582C556.512 104.508 556.004 104.047 555.16 104.047C554.371 104.047 553.848 104.406 553.848 104.961C553.848 105.391 554.16 105.68 555.004 105.859L556.434 106.164C558.184 106.531 558.902 107.219 558.902 108.445C558.902 110.094 557.395 111.18 555.238 111.18C552.926 111.18 551.59 110.102 551.441 108.453H553.668C553.809 109.187 554.332 109.578 555.238 109.578C556.098 109.578 556.629 109.227 556.629 108.68C556.629 108.234 556.34 107.984 555.52 107.797L554.09 107.5C552.473 107.156 551.652 106.344 551.652 105.086ZM560.066 111V102.625H562.348V111H560.066ZM561.199 101.492C560.535 101.492 560.012 100.961 560.012 100.32C560.012 99.6718 560.535 99.1484 561.199 99.1484C561.863 99.1484 562.387 99.6718 562.387 100.32C562.387 100.961 561.863 101.492 561.199 101.492ZM563.863 111V102.625H566.066V104.117H566.113C566.559 103.078 567.441 102.469 568.73 102.469C570.59 102.469 571.637 103.641 571.637 105.602V111H569.355V106.078C569.355 104.984 568.84 104.359 567.816 104.359C566.793 104.359 566.145 105.109 566.145 106.195V111H563.863ZM575.449 105.984L578.293 102.625H580.879L577.684 106.219L581.035 111H578.41L576.012 107.594L575.418 108.234V111H573.137V99.7265H575.418V105.984H575.449Z" fill="white"/>
<path d="M544.154 24.382C544.638 24.382 545.038 24.3416 545.353 24.261C545.668 24.1803 545.921 24.0703 546.112 23.931C546.303 23.7916 546.435 23.6266 546.508 23.436C546.581 23.2453 546.618 23.0326 546.618 22.798C546.618 22.2993 546.383 21.885 545.914 21.555C545.445 21.225 544.638 20.8693 543.494 20.488C542.995 20.312 542.497 20.1103 541.998 19.883C541.499 19.6556 541.052 19.3696 540.656 19.025C540.26 18.6803 539.937 18.2623 539.688 17.771C539.439 17.2796 539.314 16.682 539.314 15.978C539.314 15.274 539.446 14.6396 539.71 14.075C539.974 13.5103 540.348 13.03 540.832 12.634C541.316 12.238 541.903 11.9336 542.592 11.721C543.281 11.5083 544.059 11.402 544.924 11.402C545.951 11.402 546.838 11.512 547.586 11.732C548.334 11.952 548.95 12.194 549.434 12.458L548.444 15.164C548.019 14.944 547.546 14.7496 547.025 14.581C546.504 14.4123 545.877 14.328 545.144 14.328C544.323 14.328 543.732 14.4416 543.373 14.669C543.014 14.8963 542.834 15.2446 542.834 15.714C542.834 15.9926 542.9 16.2273 543.032 16.418C543.164 16.6086 543.351 16.781 543.593 16.935C543.835 17.089 544.114 17.2283 544.429 17.353C544.744 17.4776 545.093 17.606 545.474 17.738C546.266 18.0313 546.955 18.321 547.542 18.607C548.129 18.893 548.616 19.2266 549.005 19.608C549.394 19.9893 549.683 20.4366 549.874 20.95C550.065 21.4633 550.16 22.0866 550.16 22.82C550.16 24.2427 549.661 25.3463 548.664 26.131C547.667 26.9157 546.163 27.308 544.154 27.308C543.479 27.308 542.871 27.2676 542.328 27.187C541.785 27.1063 541.305 27.0073 540.887 26.89C540.469 26.7726 540.11 26.648 539.809 26.516C539.508 26.384 539.255 26.2593 539.05 26.142L540.018 23.414C540.473 23.6633 541.034 23.887 541.701 24.085C542.368 24.283 543.186 24.382 544.154 24.382ZM555.858 27H552.58V15.428H555.858V27ZM556.166 12.084C556.166 12.6853 555.972 13.1583 555.583 13.503C555.194 13.8476 554.736 14.02 554.208 14.02C553.68 14.02 553.222 13.8476 552.833 13.503C552.444 13.1583 552.25 12.6853 552.25 12.084C552.25 11.4826 552.444 11.0096 552.833 10.665C553.222 10.3203 553.68 10.148 554.208 10.148C554.736 10.148 555.194 10.3203 555.583 10.665C555.972 11.0096 556.166 11.4826 556.166 12.084ZM558.938 15.824C559.495 15.6626 560.214 15.5123 561.094 15.373C561.974 15.2336 562.898 15.164 563.866 15.164C564.849 15.164 565.666 15.2923 566.319 15.549C566.972 15.8056 567.489 16.1686 567.87 16.638C568.251 17.1073 568.523 17.6646 568.684 18.31C568.845 18.9553 568.926 19.674 568.926 20.466V27H565.648V20.862C565.648 19.806 565.509 19.058 565.23 18.618C564.951 18.178 564.431 17.958 563.668 17.958C563.433 17.958 563.184 17.969 562.92 17.991C562.656 18.013 562.421 18.0386 562.216 18.068V27H558.938V15.824ZM575.174 19.608C575.497 19.256 575.83 18.8893 576.175 18.508C576.52 18.1266 576.853 17.749 577.176 17.375C577.499 17.001 577.803 16.6453 578.089 16.308C578.375 15.9706 578.621 15.6773 578.826 15.428H582.72C581.943 16.3226 581.184 17.177 580.443 17.991C579.702 18.805 578.892 19.6446 578.012 20.51C578.452 20.906 578.907 21.379 579.376 21.929C579.845 22.479 580.3 23.0473 580.74 23.634C581.18 24.2206 581.583 24.8073 581.95 25.394C582.317 25.9806 582.625 26.516 582.874 27H579.112C578.877 26.6186 578.61 26.197 578.309 25.735C578.008 25.273 577.689 24.811 577.352 24.349C577.015 23.887 576.659 23.4433 576.285 23.018C575.911 22.5926 575.541 22.2333 575.174 21.94V27H571.896V10.456L575.174 9.92798V19.608ZM587.956 24.646C588.557 24.646 588.983 24.5873 589.232 24.47C589.481 24.3526 589.606 24.1253 589.606 23.788C589.606 23.524 589.445 23.293 589.122 23.095C588.799 22.897 588.308 22.6733 587.648 22.424C587.135 22.2333 586.669 22.0353 586.251 21.83C585.833 21.6246 585.477 21.379 585.184 21.093C584.891 20.807 584.663 20.466 584.502 20.07C584.341 19.674 584.26 19.1973 584.26 18.64C584.26 17.5546 584.663 16.6966 585.47 16.066C586.277 15.4353 587.384 15.12 588.792 15.12C589.496 15.12 590.171 15.1823 590.816 15.307C591.461 15.4316 591.975 15.5673 592.356 15.714L591.784 18.266C591.403 18.134 590.988 18.0166 590.541 17.914C590.094 17.8113 589.591 17.76 589.034 17.76C588.007 17.76 587.494 18.046 587.494 18.618C587.494 18.75 587.516 18.8673 587.56 18.97C587.604 19.0726 587.692 19.1716 587.824 19.267C587.956 19.3623 588.136 19.465 588.363 19.575C588.59 19.685 588.88 19.806 589.232 19.938C589.951 20.202 590.545 20.4623 591.014 20.719C591.483 20.9756 591.854 21.2543 592.125 21.555C592.396 21.8556 592.587 22.1893 592.697 22.556C592.807 22.9226 592.862 23.348 592.862 23.832C592.862 24.976 592.433 25.8413 591.575 26.428C590.717 27.0146 589.503 27.308 587.934 27.308C586.907 27.308 586.053 27.22 585.371 27.044C584.689 26.868 584.216 26.7213 583.952 26.604L584.502 23.942C585.059 24.162 585.631 24.3343 586.218 24.459C586.805 24.5836 587.384 24.646 587.956 24.646Z" fill="#001B3D"/>
<path d="M565.5 268C586.211 268 603 251.211 603 230.5C603 209.789 586.211 193 565.5 193C544.789 193 528 209.789 528 230.5C528 251.211 544.789 268 565.5 268Z" fill="#001B3D"/>
<path d="M551.652 230.086C551.652 228.492 553.027 227.445 555.16 227.445C557.309 227.445 558.637 228.547 558.684 230.188H556.582C556.512 229.508 556.004 229.047 555.16 229.047C554.371 229.047 553.848 229.406 553.848 229.961C553.848 230.391 554.16 230.68 555.004 230.859L556.434 231.164C558.184 231.531 558.902 232.219 558.902 233.445C558.902 235.094 557.395 236.18 555.238 236.18C552.926 236.18 551.59 235.102 551.441 233.453H553.668C553.809 234.188 554.332 234.578 555.238 234.578C556.098 234.578 556.629 234.227 556.629 233.68C556.629 233.234 556.34 232.984 555.52 232.797L554.09 232.5C552.473 232.156 551.652 231.344 551.652 230.086ZM560.066 236V227.625H562.348V236H560.066ZM561.199 226.492C560.535 226.492 560.012 225.961 560.012 225.32C560.012 224.672 560.535 224.148 561.199 224.148C561.863 224.148 562.387 224.672 562.387 225.32C562.387 225.961 561.863 226.492 561.199 226.492ZM563.863 236V227.625H566.066V229.117H566.113C566.559 228.078 567.441 227.469 568.73 227.469C570.59 227.469 571.637 228.641 571.637 230.602V236H569.355V231.078C569.355 229.984 568.84 229.359 567.816 229.359C566.793 229.359 566.145 230.109 566.145 231.195V236H563.863ZM575.449 230.984L578.293 227.625H580.879L577.684 231.219L581.035 236H578.41L576.012 232.594L575.418 233.234V236H573.137V224.727H575.418V230.984H575.449Z" fill="white"/>
<path d="M645.5 208C666.211 208 683 191.211 683 170.5C683 149.789 666.211 133 645.5 133C624.789 133 608 149.789 608 170.5C608 191.211 624.789 208 645.5 208Z" fill="#001B3D"/>
<path d="M631.652 170.086C631.652 168.492 633.027 167.445 635.16 167.445C637.309 167.445 638.637 168.547 638.684 170.187H636.582C636.512 169.508 636.004 169.047 635.16 169.047C634.371 169.047 633.848 169.406 633.848 169.961C633.848 170.391 634.16 170.68 635.004 170.859L636.434 171.164C638.184 171.531 638.902 172.219 638.902 173.445C638.902 175.094 637.395 176.18 635.238 176.18C632.926 176.18 631.59 175.102 631.441 173.453H633.668C633.809 174.187 634.332 174.578 635.238 174.578C636.098 174.578 636.629 174.227 636.629 173.68C636.629 173.234 636.34 172.984 635.52 172.797L634.09 172.5C632.473 172.156 631.652 171.344 631.652 170.086ZM640.066 176V167.625H642.348V176H640.066ZM641.199 166.492C640.535 166.492 640.012 165.961 640.012 165.32C640.012 164.672 640.535 164.148 641.199 164.148C641.863 164.148 642.387 164.672 642.387 165.32C642.387 165.961 641.863 166.492 641.199 166.492ZM643.863 176V167.625H646.066V169.117H646.113C646.559 168.078 647.441 167.469 648.73 167.469C650.59 167.469 651.637 168.641 651.637 170.602V176H649.355V171.078C649.355 169.984 648.84 169.359 647.816 169.359C646.793 169.359 646.145 170.109 646.145 171.195V176H643.863ZM655.449 170.984L658.293 167.625H660.879L657.684 171.219L661.035 176H658.41L656.012 172.594L655.418 173.234V176H653.137V164.727H655.418V170.984H655.449Z" fill="white"/>
<path d="M565.5 142C586.211 142 603 125.211 603 104.5C603 83.7893 586.211 67 565.5 67C544.789 67 528 83.7893 528 104.5C528 125.211 544.789 142 565.5 142Z" fill="#001B3D"/>
<path d="M551.652 105.086C551.652 103.492 553.027 102.445 555.16 102.445C557.309 102.445 558.637 103.547 558.684 105.187H556.582C556.512 104.508 556.004 104.047 555.16 104.047C554.371 104.047 553.848 104.406 553.848 104.961C553.848 105.391 554.16 105.68 555.004 105.859L556.434 106.164C558.184 106.531 558.902 107.219 558.902 108.445C558.902 110.094 557.395 111.18 555.238 111.18C552.926 111.18 551.59 110.102 551.441 108.453H553.668C553.809 109.187 554.332 109.578 555.238 109.578C556.098 109.578 556.629 109.227 556.629 108.68C556.629 108.234 556.34 107.984 555.52 107.797L554.09 107.5C552.473 107.156 551.652 106.344 551.652 105.086ZM560.066 111V102.625H562.348V111H560.066ZM561.199 101.492C560.535 101.492 560.012 100.961 560.012 100.32C560.012 99.6718 560.535 99.1484 561.199 99.1484C561.863 99.1484 562.387 99.6718 562.387 100.32C562.387 100.961 561.863 101.492 561.199 101.492ZM563.863 111V102.625H566.066V104.117H566.113C566.559 103.078 567.441 102.469 568.73 102.469C570.59 102.469 571.637 103.641 571.637 105.602V111H569.355V106.078C569.355 104.984 568.84 104.359 567.816 104.359C566.793 104.359 566.145 105.109 566.145 106.195V111H563.863ZM575.449 105.984L578.293 102.625H580.879L577.684 106.219L581.035 111H578.41L576.012 107.594L575.418 108.234V111H573.137V99.7265H575.418V105.984H575.449Z" fill="white"/>
<path d="M544.154 24.382C544.638 24.382 545.038 24.3416 545.353 24.261C545.668 24.1803 545.921 24.0703 546.112 23.931C546.303 23.7916 546.435 23.6266 546.508 23.436C546.581 23.2453 546.618 23.0326 546.618 22.798C546.618 22.2993 546.383 21.885 545.914 21.555C545.445 21.225 544.638 20.8693 543.494 20.488C542.995 20.312 542.497 20.1103 541.998 19.883C541.499 19.6556 541.052 19.3696 540.656 19.025C540.26 18.6803 539.937 18.2623 539.688 17.771C539.439 17.2796 539.314 16.682 539.314 15.978C539.314 15.274 539.446 14.6396 539.71 14.075C539.974 13.5103 540.348 13.03 540.832 12.634C541.316 12.238 541.903 11.9336 542.592 11.721C543.281 11.5083 544.059 11.402 544.924 11.402C545.951 11.402 546.838 11.512 547.586 11.732C548.334 11.952 548.95 12.194 549.434 12.458L548.444 15.164C548.019 14.944 547.546 14.7496 547.025 14.581C546.504 14.4123 545.877 14.328 545.144 14.328C544.323 14.328 543.732 14.4416 543.373 14.669C543.014 14.8963 542.834 15.2446 542.834 15.714C542.834 15.9926 542.9 16.2273 543.032 16.418C543.164 16.6086 543.351 16.781 543.593 16.935C543.835 17.089 544.114 17.2283 544.429 17.353C544.744 17.4776 545.093 17.606 545.474 17.738C546.266 18.0313 546.955 18.321 547.542 18.607C548.129 18.893 548.616 19.2266 549.005 19.608C549.394 19.9893 549.683 20.4366 549.874 20.95C550.065 21.4633 550.16 22.0866 550.16 22.82C550.16 24.2427 549.661 25.3463 548.664 26.131C547.667 26.9157 546.163 27.308 544.154 27.308C543.479 27.308 542.871 27.2676 542.328 27.187C541.785 27.1063 541.305 27.0073 540.887 26.89C540.469 26.7726 540.11 26.648 539.809 26.516C539.508 26.384 539.255 26.2593 539.05 26.142L540.018 23.414C540.473 23.6633 541.034 23.887 541.701 24.085C542.368 24.283 543.186 24.382 544.154 24.382ZM555.858 27H552.58V15.428H555.858V27ZM556.166 12.084C556.166 12.6853 555.972 13.1583 555.583 13.503C555.194 13.8476 554.736 14.02 554.208 14.02C553.68 14.02 553.222 13.8476 552.833 13.503C552.444 13.1583 552.25 12.6853 552.25 12.084C552.25 11.4826 552.444 11.0096 552.833 10.665C553.222 10.3203 553.68 10.148 554.208 10.148C554.736 10.148 555.194 10.3203 555.583 10.665C555.972 11.0096 556.166 11.4826 556.166 12.084ZM558.938 15.824C559.495 15.6626 560.214 15.5123 561.094 15.373C561.974 15.2336 562.898 15.164 563.866 15.164C564.849 15.164 565.666 15.2923 566.319 15.549C566.972 15.8056 567.489 16.1686 567.87 16.638C568.251 17.1073 568.523 17.6646 568.684 18.31C568.845 18.9553 568.926 19.674 568.926 20.466V27H565.648V20.862C565.648 19.806 565.509 19.058 565.23 18.618C564.951 18.178 564.431 17.958 563.668 17.958C563.433 17.958 563.184 17.969 562.92 17.991C562.656 18.013 562.421 18.0386 562.216 18.068V27H558.938V15.824ZM575.174 19.608C575.497 19.256 575.83 18.8893 576.175 18.508C576.52 18.1266 576.853 17.749 577.176 17.375C577.499 17.001 577.803 16.6453 578.089 16.308C578.375 15.9706 578.621 15.6773 578.826 15.428H582.72C581.943 16.3226 581.184 17.177 580.443 17.991C579.702 18.805 578.892 19.6446 578.012 20.51C578.452 20.906 578.907 21.379 579.376 21.929C579.845 22.479 580.3 23.0473 580.74 23.634C581.18 24.2206 581.583 24.8073 581.95 25.394C582.317 25.9806 582.625 26.516 582.874 27H579.112C578.877 26.6186 578.61 26.197 578.309 25.735C578.008 25.273 577.689 24.811 577.352 24.349C577.015 23.887 576.659 23.4433 576.285 23.018C575.911 22.5926 575.541 22.2333 575.174 21.94V27H571.896V10.456L575.174 9.92798V19.608ZM587.956 24.646C588.557 24.646 588.983 24.5873 589.232 24.47C589.481 24.3526 589.606 24.1253 589.606 23.788C589.606 23.524 589.445 23.293 589.122 23.095C588.799 22.897 588.308 22.6733 587.648 22.424C587.135 22.2333 586.669 22.0353 586.251 21.83C585.833 21.6246 585.477 21.379 585.184 21.093C584.891 20.807 584.663 20.466 584.502 20.07C584.341 19.674 584.26 19.1973 584.26 18.64C584.26 17.5546 584.663 16.6966 585.47 16.066C586.277 15.4353 587.384 15.12 588.792 15.12C589.496 15.12 590.171 15.1823 590.816 15.307C591.461 15.4316 591.975 15.5673 592.356 15.714L591.784 18.266C591.403 18.134 590.988 18.0166 590.541 17.914C590.094 17.8113 589.591 17.76 589.034 17.76C588.007 17.76 587.494 18.046 587.494 18.618C587.494 18.75 587.516 18.8673 587.56 18.97C587.604 19.0726 587.692 19.1716 587.824 19.267C587.956 19.3623 588.136 19.465 588.363 19.575C588.59 19.685 588.88 19.806 589.232 19.938C589.951 20.202 590.545 20.4623 591.014 20.719C591.483 20.9756 591.854 21.2543 592.125 21.555C592.396 21.8556 592.587 22.1893 592.697 22.556C592.807 22.9226 592.862 23.348 592.862 23.832C592.862 24.976 592.433 25.8413 591.575 26.428C590.717 27.0146 589.503 27.308 587.934 27.308C586.907 27.308 586.053 27.22 585.371 27.044C584.689 26.868 584.216 26.7213 583.952 26.604L584.502 23.942C585.059 24.162 585.631 24.3343 586.218 24.459C586.805 24.5836 587.384 24.646 587.956 24.646Z" fill="#001B3D"/>
<path d="M192 4V297.5H194V4H192Z" fill="black"/>
<path d="M492 0V300H494V0H492Z" fill="black"/>
<path d="M588.275 172.226H586V170.226H588.275V164.226L602.275 171.226L588.275 178.226V172.226ZM466 172.226V170.226H473V172.226H466ZM476 172.226V170.226H483V172.226H476ZM486 172.226V170.226H493V172.226H486ZM496 172.226V170.226H503V172.226H496ZM506 172.226V170.226H513V172.226H506ZM516 172.226V170.226H523V172.226H516ZM526 172.226V170.226H533V172.226H526ZM536 172.226V170.226H543V172.226H536ZM546 172.226V170.226H553V172.226H546ZM556 172.226V170.226H563V172.226H556ZM566 172.226V170.226H573V172.226H566ZM576 172.226V170.226H583V172.226H576Z" fill="#001B3D"/>
<path d="M519 231.226L505 238.226V224.226L519 231.226ZM466 232.226V230.226H473V232.226H466ZM476 232.226V230.226H483V232.226H476ZM486 232.226V230.226H493V232.226H486ZM496 232.226V230.226H503V232.226H496Z" fill="#001B3D"/>
<path d="M519 108.5L505 115.5V101.5L519 108.5ZM466 109.5V107.5H480V109.5H466ZM490 109.5V107.5H504V109.5H490Z" fill="#001B3D"/>
<path fill-rule="evenodd" clip-rule="evenodd" d="M253 256.02L352.924 272.954L452.845 256.02L352.924 239.085L253 256.02Z" fill="#001B3D"/>
<path fill-rule="evenodd" clip-rule="evenodd" d="M253.207 256.017L253 230.424L352.712 213.476L452.845 230.594L452.517 255.958L352.712 272.954L253.207 256.017Z" fill="#001B3D"/>
<path fill-rule="evenodd" clip-rule="evenodd" d="M253 230.824V256.188L350.361 272.954V247.806L253 230.824Z" fill="#001B3D"/>
<path fill-rule="evenodd" clip-rule="evenodd" d="M353.777 247.676L452.845 230.824L452.364 256.102L353.777 272.954V247.676Z" fill="#001B3D"/>
<path fill-rule="evenodd" clip-rule="evenodd" d="M353.777 213.476L452.845 230.438L452.364 255.606L353.981 238.828L353.777 213.476Z" fill="#001B3D"/>
<path fill-rule="evenodd" clip-rule="evenodd" d="M253 230.22V255.606L352.069 238.805L351.862 213.476L253 230.22Z" fill="#001B3D"/>
<path fill-rule="evenodd" clip-rule="evenodd" d="M253 230.306L352.924 247.24L452.845 230.306L352.924 213.37L253 230.306Z" fill="white" fill-opacity="0.332414"/>
<path fill-rule="evenodd" clip-rule="evenodd" d="M253 198.624L352.924 218.945L452.845 198.624L352.924 178.302L253 198.624Z" fill="#10E7FF"/>
<path fill-rule="evenodd" clip-rule="evenodd" d="M253.207 198.621L253 167.908L352.712 147.571L452.845 168.113L452.517 198.549L352.712 218.945L253.207 198.621Z" fill="#10E7FF"/>
<path fill-rule="evenodd" clip-rule="evenodd" d="M253 168.389V198.826L350.361 218.945V188.768L253 168.389Z" fill="#10E7FF"/>
<path fill-rule="evenodd" clip-rule="evenodd" d="M353.777 188.611L452.845 168.389L452.364 198.722L353.777 218.945V188.611Z" fill="#10E7FF"/>
<path fill-rule="evenodd" clip-rule="evenodd" d="M353.777 147.571L452.845 167.925L452.364 198.128L353.981 177.994L353.777 147.571Z" fill="#10E7FF"/>
<path fill-rule="evenodd" clip-rule="evenodd" d="M253 167.665V198.128L352.069 177.966L351.862 147.571L253 167.665Z" fill="#10E7FF"/>
<path fill-rule="evenodd" clip-rule="evenodd" d="M253 167.767L352.924 188.088L452.845 167.767L352.924 147.444L253 167.767Z" fill="white" fill-opacity="0.332414"/>
<path fill-rule="evenodd" clip-rule="evenodd" d="M253 135.461L352.924 155.944L452.845 135.461L352.924 114.976L253 135.461Z" fill="#001B3D"/>
<path fill-rule="evenodd" clip-rule="evenodd" d="M253.207 135.458L253 104.5L352.712 84L452.845 104.706L452.517 135.386L352.712 155.944L253.207 135.458Z" fill="#001B3D"/>
<path fill-rule="evenodd" clip-rule="evenodd" d="M253 104.984V135.664L350.361 155.944V125.526L253 104.984Z" fill="#001B3D"/>
<path fill-rule="evenodd" clip-rule="evenodd" d="M353.777 125.368L452.845 104.984L452.364 135.56L353.777 155.944V125.368Z" fill="#001B3D"/>
<path fill-rule="evenodd" clip-rule="evenodd" d="M353.777 84L452.845 104.517L452.364 134.961L353.981 114.666L353.777 84Z" fill="#001B3D"/>
<path fill-rule="evenodd" clip-rule="evenodd" d="M253 104.254V134.961L352.069 114.638L351.862 84L253 104.254Z" fill="#001B3D"/>
<path fill-rule="evenodd" clip-rule="evenodd" d="M253 104.357L352.924 124.84L452.845 104.357L352.924 83.872L253 104.357Z" fill="white" fill-opacity="0.332414"/>
<path d="M238.101 170.591C234.514 164.129 232.721 156.927 232.721 149C232.721 136.153 237.099 125.876 245.843 118.246L246.596 117.589L247.911 119.096L247.157 119.753C238.863 126.991 234.721 136.714 234.721 149C234.721 156.47 236.376 163.239 239.686 169.323L244.22 165.695L247.5 181L233.288 174.441L238.101 170.591Z" fill="url(#paint0_linear)"/>
<path d="M238.036 234.644C228.489 220.064 223.721 202.175 223.721 181C223.721 154.123 231.07 133.203 245.788 118.297L246.491 117.586L247.914 118.991L247.212 119.703C232.892 134.204 225.721 154.617 225.721 181C225.721 201.725 230.352 219.18 239.603 233.387L244.202 229.699L247.5 245L233.28 238.458L238.036 234.644Z" fill="#001B3D"/>
<path d="M306.454 11.754V14.68H301.856V27H298.424V14.68H293.826V11.754H306.454ZM313.89 18.332C313.597 18.2586 313.252 18.1816 312.856 18.101C312.46 18.0203 312.035 17.98 311.58 17.98C311.375 17.98 311.129 17.9983 310.843 18.035C310.557 18.0716 310.341 18.112 310.194 18.156V27H306.916V16.044C307.503 15.8386 308.196 15.6443 308.995 15.461C309.794 15.2776 310.685 15.186 311.668 15.186C311.844 15.186 312.057 15.197 312.306 15.219C312.555 15.241 312.805 15.2703 313.054 15.307C313.303 15.3436 313.553 15.3876 313.802 15.439C314.051 15.4903 314.264 15.5526 314.44 15.626L313.89 18.332ZM320.402 24.712C320.725 24.712 321.033 24.7046 321.326 24.69C321.619 24.6753 321.854 24.6533 322.03 24.624V22.138C321.898 22.1086 321.7 22.0793 321.436 22.05C321.172 22.0206 320.93 22.006 320.71 22.006C320.402 22.006 320.112 22.0243 319.841 22.061C319.57 22.0976 319.331 22.1673 319.126 22.27C318.921 22.3726 318.759 22.512 318.642 22.688C318.525 22.864 318.466 23.084 318.466 23.348C318.466 23.8613 318.638 24.217 318.983 24.415C319.328 24.613 319.801 24.712 320.402 24.712ZM320.138 15.12C321.106 15.12 321.913 15.23 322.558 15.45C323.203 15.67 323.72 15.9853 324.109 16.396C324.498 16.8066 324.773 17.3053 324.934 17.892C325.095 18.4786 325.176 19.1313 325.176 19.85V26.67C324.707 26.7726 324.054 26.8936 323.218 27.033C322.382 27.1723 321.37 27.242 320.182 27.242C319.434 27.242 318.756 27.176 318.147 27.044C317.538 26.912 317.014 26.6956 316.574 26.395C316.134 26.0943 315.797 25.702 315.562 25.218C315.327 24.734 315.21 24.14 315.21 23.436C315.21 22.7613 315.346 22.1893 315.617 21.72C315.888 21.2506 316.251 20.8766 316.706 20.598C317.161 20.3193 317.681 20.1176 318.268 19.993C318.855 19.8683 319.463 19.806 320.094 19.806C320.519 19.806 320.897 19.8243 321.227 19.861C321.557 19.8976 321.825 19.9453 322.03 20.004V19.696C322.03 19.1386 321.861 18.6913 321.524 18.354C321.187 18.0166 320.6 17.848 319.764 17.848C319.207 17.848 318.657 17.8883 318.114 17.969C317.571 18.0496 317.102 18.1633 316.706 18.31L316.288 15.67C316.479 15.6113 316.717 15.549 317.003 15.483C317.289 15.417 317.601 15.3583 317.938 15.307C318.275 15.2556 318.631 15.2116 319.005 15.175C319.379 15.1383 319.757 15.12 320.138 15.12ZM328.146 15.824C328.703 15.6626 329.422 15.5123 330.302 15.373C331.182 15.2336 332.106 15.164 333.074 15.164C334.057 15.164 334.874 15.2923 335.527 15.549C336.18 15.8056 336.697 16.1686 337.078 16.638C337.459 17.1073 337.731 17.6646 337.892 18.31C338.053 18.9553 338.134 19.674 338.134 20.466V27H334.856V20.862C334.856 19.806 334.717 19.058 334.438 18.618C334.159 18.178 333.639 17.958 332.876 17.958C332.641 17.958 332.392 17.969 332.128 17.991C331.864 18.013 331.629 18.0386 331.424 18.068V27H328.146V15.824ZM344.426 24.646C345.027 24.646 345.453 24.5873 345.702 24.47C345.951 24.3526 346.076 24.1253 346.076 23.788C346.076 23.524 345.915 23.293 345.592 23.095C345.269 22.897 344.778 22.6733 344.118 22.424C343.605 22.2333 343.139 22.0353 342.721 21.83C342.303 21.6246 341.947 21.379 341.654 21.093C341.361 20.807 341.133 20.466 340.972 20.07C340.811 19.674 340.73 19.1973 340.73 18.64C340.73 17.5546 341.133 16.6966 341.94 16.066C342.747 15.4353 343.854 15.12 345.262 15.12C345.966 15.12 346.641 15.1823 347.286 15.307C347.931 15.4316 348.445 15.5673 348.826 15.714L348.254 18.266C347.873 18.134 347.458 18.0166 347.011 17.914C346.564 17.8113 346.061 17.76 345.504 17.76C344.477 17.76 343.964 18.046 343.964 18.618C343.964 18.75 343.986 18.8673 344.03 18.97C344.074 19.0726 344.162 19.1716 344.294 19.267C344.426 19.3623 344.606 19.465 344.833 19.575C345.06 19.685 345.35 19.806 345.702 19.938C346.421 20.202 347.015 20.4623 347.484 20.719C347.953 20.9756 348.324 21.2543 348.595 21.555C348.866 21.8556 349.057 22.1893 349.167 22.556C349.277 22.9226 349.332 23.348 349.332 23.832C349.332 24.976 348.903 25.8413 348.045 26.428C347.187 27.0146 345.973 27.308 344.404 27.308C343.377 27.308 342.523 27.22 341.841 27.044C341.159 26.868 340.686 26.7213 340.422 26.604L340.972 23.942C341.529 24.162 342.101 24.3343 342.688 24.459C343.275 24.5836 343.854 24.646 344.426 24.646ZM356.79 9.92798C357.406 9.92798 357.971 9.99031 358.484 10.115C358.997 10.2396 359.393 10.3606 359.672 10.478L359.034 13.096C358.741 12.964 358.422 12.865 358.077 12.799C357.732 12.733 357.413 12.7 357.12 12.7C356.724 12.7 356.39 12.755 356.119 12.865C355.848 12.975 355.635 13.1253 355.481 13.316C355.327 13.5066 355.217 13.734 355.151 13.998C355.085 14.262 355.052 14.548 355.052 14.856V15.428H359.1V18.156H355.052V27H351.774V14.812C351.774 13.316 352.196 12.128 353.039 11.248C353.882 10.368 355.133 9.92798 356.79 9.92798ZM371.706 21.192C371.706 22.1013 371.574 22.9336 371.31 23.689C371.046 24.4443 370.665 25.0896 370.166 25.625C369.667 26.1603 369.07 26.5746 368.373 26.868C367.676 27.1613 366.895 27.308 366.03 27.308C365.179 27.308 364.406 27.1613 363.709 26.868C363.012 26.5746 362.415 26.1603 361.916 25.625C361.417 25.0896 361.029 24.4443 360.75 23.689C360.471 22.9336 360.332 22.1013 360.332 21.192C360.332 20.2826 360.475 19.454 360.761 18.706C361.047 17.958 361.443 17.32 361.949 16.792C362.455 16.264 363.056 15.8533 363.753 15.56C364.45 15.2666 365.209 15.12 366.03 15.12C366.866 15.12 367.632 15.2666 368.329 15.56C369.026 15.8533 369.623 16.264 370.122 16.792C370.621 17.32 371.009 17.958 371.288 18.706C371.567 19.454 371.706 20.2826 371.706 21.192ZM368.362 21.192C368.362 20.18 368.16 19.3843 367.757 18.805C367.354 18.2256 366.778 17.936 366.03 17.936C365.282 17.936 364.703 18.2256 364.292 18.805C363.881 19.3843 363.676 20.18 363.676 21.192C363.676 22.204 363.881 23.007 364.292 23.601C364.703 24.195 365.282 24.492 366.03 24.492C366.778 24.492 367.354 24.195 367.757 23.601C368.16 23.007 368.362 22.204 368.362 21.192ZM381.21 18.332C380.917 18.2586 380.572 18.1816 380.176 18.101C379.78 18.0203 379.355 17.98 378.9 17.98C378.695 17.98 378.449 17.9983 378.163 18.035C377.877 18.0716 377.661 18.112 377.514 18.156V27H374.236V16.044C374.823 15.8386 375.516 15.6443 376.315 15.461C377.114 15.2776 378.005 15.186 378.988 15.186C379.164 15.186 379.377 15.197 379.626 15.219C379.875 15.241 380.125 15.2703 380.374 15.307C380.623 15.3436 380.873 15.3876 381.122 15.439C381.371 15.4903 381.584 15.5526 381.76 15.626L381.21 18.332ZM389.878 20.862C389.878 19.806 389.742 19.058 389.471 18.618C389.2 18.178 388.734 17.958 388.074 17.958C387.869 17.958 387.656 17.969 387.436 17.991C387.216 18.013 387.003 18.0386 386.798 18.068V27H383.52V15.824C383.799 15.7506 384.125 15.6736 384.499 15.593C384.873 15.5123 385.269 15.439 385.687 15.373C386.105 15.307 386.534 15.2556 386.974 15.219C387.414 15.1823 387.847 15.164 388.272 15.164C389.108 15.164 389.786 15.2703 390.307 15.483C390.828 15.6956 391.257 15.9486 391.594 16.242C392.063 15.9046 392.602 15.6406 393.211 15.45C393.82 15.2593 394.381 15.164 394.894 15.164C395.818 15.164 396.577 15.2923 397.171 15.549C397.765 15.8056 398.238 16.1686 398.59 16.638C398.942 17.1073 399.184 17.6646 399.316 18.31C399.448 18.9553 399.514 19.674 399.514 20.466V27H396.236V20.862C396.236 19.806 396.1 19.058 395.829 18.618C395.558 18.178 395.092 17.958 394.432 17.958C394.256 17.958 394.01 18.002 393.695 18.09C393.38 18.178 393.119 18.288 392.914 18.42C393.017 18.7573 393.083 19.113 393.112 19.487C393.141 19.861 393.156 20.2606 393.156 20.686V27H389.878V20.862ZM405.806 24.646C406.407 24.646 406.833 24.5873 407.082 24.47C407.331 24.3526 407.456 24.1253 407.456 23.788C407.456 23.524 407.295 23.293 406.972 23.095C406.649 22.897 406.158 22.6733 405.498 22.424C404.985 22.2333 404.519 22.0353 404.101 21.83C403.683 21.6246 403.327 21.379 403.034 21.093C402.741 20.807 402.513 20.466 402.352 20.07C402.191 19.674 402.11 19.1973 402.11 18.64C402.11 17.5546 402.513 16.6966 403.32 16.066C404.127 15.4353 405.234 15.12 406.642 15.12C407.346 15.12 408.021 15.1823 408.666 15.307C409.311 15.4316 409.825 15.5673 410.206 15.714L409.634 18.266C409.253 18.134 408.838 18.0166 408.391 17.914C407.944 17.8113 407.441 17.76 406.884 17.76C405.857 17.76 405.344 18.046 405.344 18.618C405.344 18.75 405.366 18.8673 405.41 18.97C405.454 19.0726 405.542 19.1716 405.674 19.267C405.806 19.3623 405.986 19.465 406.213 19.575C406.44 19.685 406.73 19.806 407.082 19.938C407.801 20.202 408.395 20.4623 408.864 20.719C409.333 20.9756 409.704 21.2543 409.975 21.555C410.246 21.8556 410.437 22.1893 410.547 22.556C410.657 22.9226 410.712 23.348 410.712 23.832C410.712 24.976 410.283 25.8413 409.425 26.428C408.567 27.0146 407.353 27.308 405.784 27.308C404.757 27.308 403.903 27.22 403.221 27.044C402.539 26.868 402.066 26.7213 401.802 26.604L402.352 23.942C402.909 24.162 403.481 24.3343 404.068 24.459C404.655 24.5836 405.234 24.646 405.806 24.646Z" fill="#001B3D"/>
<path fill-rule="evenodd" clip-rule="evenodd" d="M360.206 71.7415L375.321 46.5504H345.092L360.206 71.7415Z" fill="#001B3D"/>
<path fill-rule="evenodd" clip-rule="evenodd" d="M356.627 67.2601L371.741 42.069H341.512L356.627 67.2601Z" fill="white"/>
<path fill-rule="evenodd" clip-rule="evenodd" d="M348.035 71.6089L363.07 46.5504H333L348.035 71.6089Z" fill="#001B3D"/>
<mask id="mask0" mask-type="alpha" maskUnits="userSpaceOnUse" x="340" y="45" width="16" height="14">
<path d="M348.189 45.9935L355.873 58.8012H340.504L348.189 45.9935Z" fill="white"/>
</mask>
<g mask="url(#mask0)">
<path d="M348.189 58.8012L355.873 45.9935H340.504L348.189 58.8012Z" fill="white"/>
</g>
<path d="M219.731 106.996L165.51 107.509L165.491 105.51L219.713 104.996L219.656 98.9959L233.721 105.863L219.788 112.995L219.731 106.996Z" fill="#001B3D"/>
<path d="M219.466 106.671C195.004 107.294 176.853 116.917 164.899 135.569C161.037 141.595 158.636 145.351 156.87 148.121C156.537 148.642 156.537 148.642 156.346 148.942C156.273 149.057 156.273 149.057 156.227 149.128C156.201 149.17 156.201 149.17 156.119 149.284C156.109 149.296 156.109 149.296 156.046 149.363L155.917 149.47L155.824 149.454C154.717 151.074 152.767 153.983 149.833 158.403C138.971 174.764 117.713 179.067 86.2652 171.472L85.2932 171.237L85.7627 169.293L86.7347 169.528C117.455 176.947 137.863 172.816 148.167 157.296C151.956 151.589 154.107 148.394 154.941 147.216C155.129 146.952 155.251 146.787 155.333 146.691C155.375 146.641 155.375 146.641 155.458 146.56C155.488 146.533 155.504 146.519 155.531 146.5C157.265 143.783 159.6 140.131 163.215 134.49C175.562 115.225 194.379 105.274 219.556 104.668L219.826 98.6081L233.5 106.226L219.202 112.594L219.466 106.671ZM156.855 147.988L156.855 147.988C156.856 147.987 156.857 147.986 156.858 147.985C156.857 147.986 156.856 147.987 156.855 147.988Z" fill="url(#paint1_linear)"/>
<path d="M219.486 106.834C199.003 107.796 183.079 114.161 171.661 125.917C157.744 140.245 150.174 162.607 148.999 193.039L148.961 194.038L146.962 193.961L147.001 192.961C148.193 162.078 155.919 139.253 170.226 124.523C182.045 112.355 198.492 105.796 219.515 104.831L219.6 98.7757L233.5 105.972L219.403 112.774L219.486 106.834Z" fill="#001B3D"/>
<path d="M37.5 208C58.2107 208 75 191.211 75 170.5C75 149.789 58.2107 133 37.5 133C16.7893 133 0 149.789 0 170.5C0 191.211 16.7893 208 37.5 208Z" fill="#001B3D"/>
<path d="M13.7188 169.086C13.7188 167.492 15.0938 166.445 17.2266 166.445C19.375 166.445 20.7031 167.547 20.75 169.187H18.6484C18.5781 168.508 18.0703 168.047 17.2266 168.047C16.4375 168.047 15.9141 168.406 15.9141 168.961C15.9141 169.391 16.2266 169.68 17.0703 169.859L18.5 170.164C20.25 170.531 20.9688 171.219 20.9688 172.445C20.9688 174.094 19.4609 175.18 17.3047 175.18C14.9922 175.18 13.6562 174.102 13.5078 172.453H15.7344C15.875 173.187 16.3984 173.578 17.3047 173.578C18.1641 173.578 18.6953 173.227 18.6953 172.68C18.6953 172.234 18.4062 171.984 17.5859 171.797L16.1562 171.5C14.5391 171.156 13.7188 170.344 13.7188 169.086ZM25.9375 175.18C23.4062 175.18 21.7891 173.555 21.7891 170.805C21.7891 168.094 23.4297 166.445 25.9375 166.445C28.4453 166.445 30.0859 168.086 30.0859 170.805C30.0859 173.562 28.4688 175.18 25.9375 175.18ZM25.9375 173.437C27.0547 173.437 27.7656 172.492 27.7656 170.812C27.7656 169.148 27.0469 168.187 25.9375 168.187C24.8281 168.187 24.1016 169.148 24.1016 170.812C24.1016 172.492 24.8125 173.437 25.9375 173.437ZM38.9922 166.625V175H36.7891V173.492H36.7422C36.3281 174.547 35.5 175.156 34.2344 175.156C32.4219 175.156 31.2188 173.977 31.2188 172.023V166.625H33.5V171.547C33.5 172.664 34.0547 173.258 35.0625 173.258C36.0781 173.258 36.7109 172.531 36.7109 171.422V166.625H38.9922ZM40.4766 175V166.625H42.6797V168.133H42.7266C43.0234 167.07 43.7344 166.492 44.7188 166.492C44.9844 166.492 45.2109 166.531 45.3672 166.578V168.586C45.1797 168.508 44.8672 168.453 44.5391 168.453C43.4141 168.453 42.7578 169.141 42.7578 170.32V175H40.4766ZM53.6328 169.742H51.5156C51.3828 168.859 50.7969 168.234 49.8594 168.234C48.7344 168.234 48.0312 169.187 48.0312 170.805C48.0312 172.453 48.7344 173.391 49.8672 173.391C50.7812 173.391 51.375 172.844 51.5156 171.93H53.6406C53.5234 173.906 52.0469 175.18 49.8438 175.18C47.3203 175.18 45.7188 173.539 45.7188 170.805C45.7188 168.117 47.3203 166.445 49.8281 166.445C52.0938 166.445 53.5312 167.844 53.6328 169.742ZM58.5 168.133C57.5 168.133 56.7812 168.891 56.7031 169.937H60.2578C60.2109 168.867 59.5156 168.133 58.5 168.133ZM60.2891 172.437H62.3828C62.1328 174.078 60.6328 175.18 58.5625 175.18C55.9844 175.18 54.4375 173.531 54.4375 170.852C54.4375 168.18 56 166.445 58.4766 166.445C60.9141 166.445 62.4531 168.094 62.4531 170.641V171.336H56.6797V171.477C56.6797 172.672 57.4375 173.492 58.6016 173.492C59.4375 173.492 60.0781 173.078 60.2891 172.437Z" fill="white"/>
<path d="M119.5 268C140.211 268 157 251.211 157 230.5C157 209.789 140.211 193 119.5 193C98.7893 193 82 209.789 82 230.5C82 251.211 98.7893 268 119.5 268Z" fill="#001B3D"/>
<path d="M95.7188 229.086C95.7188 227.492 97.0938 226.445 99.2266 226.445C101.375 226.445 102.703 227.547 102.75 229.188H100.648C100.578 228.508 100.07 228.047 99.2266 228.047C98.4375 228.047 97.9141 228.406 97.9141 228.961C97.9141 229.391 98.2266 229.68 99.0703 229.859L100.5 230.164C102.25 230.531 102.969 231.219 102.969 232.445C102.969 234.094 101.461 235.18 99.3047 235.18C96.9922 235.18 95.6562 234.102 95.5078 232.453H97.7344C97.875 233.188 98.3984 233.578 99.3047 233.578C100.164 233.578 100.695 233.227 100.695 232.68C100.695 232.234 100.406 231.984 99.5859 231.797L98.1562 231.5C96.5391 231.156 95.7188 230.344 95.7188 229.086ZM107.938 235.18C105.406 235.18 103.789 233.555 103.789 230.805C103.789 228.094 105.43 226.445 107.938 226.445C110.445 226.445 112.086 228.086 112.086 230.805C112.086 233.562 110.469 235.18 107.938 235.18ZM107.938 233.438C109.055 233.438 109.766 232.492 109.766 230.812C109.766 229.148 109.047 228.188 107.938 228.188C106.828 228.188 106.102 229.148 106.102 230.812C106.102 232.492 106.812 233.438 107.938 233.438ZM120.992 226.625V235H118.789V233.492H118.742C118.328 234.547 117.5 235.156 116.234 235.156C114.422 235.156 113.219 233.977 113.219 232.023V226.625H115.5V231.547C115.5 232.664 116.055 233.258 117.062 233.258C118.078 233.258 118.711 232.531 118.711 231.422V226.625H120.992ZM122.477 235V226.625H124.68V228.133H124.727C125.023 227.07 125.734 226.492 126.719 226.492C126.984 226.492 127.211 226.531 127.367 226.578V228.586C127.18 228.508 126.867 228.453 126.539 228.453C125.414 228.453 124.758 229.141 124.758 230.32V235H122.477ZM135.633 229.742H133.516C133.383 228.859 132.797 228.234 131.859 228.234C130.734 228.234 130.031 229.188 130.031 230.805C130.031 232.453 130.734 233.391 131.867 233.391C132.781 233.391 133.375 232.844 133.516 231.93H135.641C135.523 233.906 134.047 235.18 131.844 235.18C129.32 235.18 127.719 233.539 127.719 230.805C127.719 228.117 129.32 226.445 131.828 226.445C134.094 226.445 135.531 227.844 135.633 229.742ZM140.5 228.133C139.5 228.133 138.781 228.891 138.703 229.938H142.258C142.211 228.867 141.516 228.133 140.5 228.133ZM142.289 232.438H144.383C144.133 234.078 142.633 235.18 140.562 235.18C137.984 235.18 136.438 233.531 136.438 230.852C136.438 228.18 138 226.445 140.477 226.445C142.914 226.445 144.453 228.094 144.453 230.641V231.336H138.68V231.477C138.68 232.672 139.438 233.492 140.602 233.492C141.438 233.492 142.078 233.078 142.289 232.438Z" fill="white"/>
<path d="M119.5 142C140.211 142 157 125.211 157 104.5C157 83.7893 140.211 67 119.5 67C98.7893 67 82 83.7893 82 104.5C82 125.211 98.7893 142 119.5 142Z" fill="#001B3D"/>
<path d="M95.7188 102.086C95.7188 100.492 97.0938 99.4453 99.2266 99.4453C101.375 99.4453 102.703 100.547 102.75 102.187H100.648C100.578 101.508 100.07 101.047 99.2266 101.047C98.4375 101.047 97.9141 101.406 97.9141 101.961C97.9141 102.391 98.2266 102.68 99.0703 102.859L100.5 103.164C102.25 103.531 102.969 104.219 102.969 105.445C102.969 107.094 101.461 108.18 99.3047 108.18C96.9922 108.18 95.6562 107.102 95.5078 105.453H97.7344C97.875 106.187 98.3984 106.578 99.3047 106.578C100.164 106.578 100.695 106.227 100.695 105.68C100.695 105.234 100.406 104.984 99.5859 104.797L98.1562 104.5C96.5391 104.156 95.7188 103.344 95.7188 102.086ZM107.938 108.18C105.406 108.18 103.789 106.555 103.789 103.805C103.789 101.094 105.43 99.4453 107.938 99.4453C110.445 99.4453 112.086 101.086 112.086 103.805C112.086 106.562 110.469 108.18 107.938 108.18ZM107.938 106.437C109.055 106.437 109.766 105.492 109.766 103.812C109.766 102.148 109.047 101.187 107.938 101.187C106.828 101.187 106.102 102.148 106.102 103.812C106.102 105.492 106.812 106.437 107.938 106.437ZM120.992 99.625V108H118.789V106.492H118.742C118.328 107.547 117.5 108.156 116.234 108.156C114.422 108.156 113.219 106.977 113.219 105.023V99.625H115.5V104.547C115.5 105.664 116.055 106.258 117.062 106.258C118.078 106.258 118.711 105.531 118.711 104.422V99.625H120.992ZM122.477 108V99.625H124.68V101.133H124.727C125.023 100.07 125.734 99.4922 126.719 99.4922C126.984 99.4922 127.211 99.5312 127.367 99.5781V101.586C127.18 101.508 126.867 101.453 126.539 101.453C125.414 101.453 124.758 102.141 124.758 103.32V108H122.477ZM135.633 102.742H133.516C133.383 101.859 132.797 101.234 131.859 101.234C130.734 101.234 130.031 102.187 130.031 103.805C130.031 105.453 130.734 106.391 131.867 106.391C132.781 106.391 133.375 105.844 133.516 104.93H135.641C135.523 106.906 134.047 108.18 131.844 108.18C129.32 108.18 127.719 106.539 127.719 103.805C127.719 101.117 129.32 99.4453 131.828 99.4453C134.094 99.4453 135.531 100.844 135.633 102.742ZM140.5 101.133C139.5 101.133 138.781 101.891 138.703 102.937H142.258C142.211 101.867 141.516 101.133 140.5 101.133ZM142.289 105.437H144.383C144.133 107.078 142.633 108.18 140.562 108.18C137.984 108.18 136.438 106.531 136.438 103.852C136.438 101.18 138 99.4453 140.477 99.4453C142.914 99.4453 144.453 101.094 144.453 103.641V104.336H138.68V104.477C138.68 105.672 139.438 106.492 140.602 106.492C141.438 106.492 142.078 106.078 142.289 105.437Z" fill="white"/>
<path d="M73.344 24.382C73.828 24.382 74.2277 24.3416 74.543 24.261C74.8583 24.1803 75.1113 24.0703 75.302 23.931C75.4927 23.7916 75.6247 23.6266 75.698 23.436C75.7713 23.2453 75.808 23.0326 75.808 22.798C75.808 22.2993 75.5733 21.885 75.104 21.555C74.6347 21.225 73.828 20.8693 72.684 20.488C72.1853 20.312 71.6867 20.1103 71.188 19.883C70.6893 19.6556 70.242 19.3696 69.846 19.025C69.45 18.6803 69.1273 18.2623 68.878 17.771C68.6287 17.2796 68.504 16.682 68.504 15.978C68.504 15.274 68.636 14.6396 68.9 14.075C69.164 13.5103 69.538 13.03 70.022 12.634C70.506 12.238 71.0927 11.9336 71.782 11.721C72.4713 11.5083 73.2487 11.402 74.114 11.402C75.1407 11.402 76.028 11.512 76.776 11.732C77.524 11.952 78.14 12.194 78.624 12.458L77.634 15.164C77.2087 14.944 76.7357 14.7496 76.215 14.581C75.6943 14.4123 75.0673 14.328 74.334 14.328C73.5127 14.328 72.9223 14.4416 72.563 14.669C72.2037 14.8963 72.024 15.2446 72.024 15.714C72.024 15.9926 72.09 16.2273 72.222 16.418C72.354 16.6086 72.541 16.781 72.783 16.935C73.025 17.089 73.3037 17.2283 73.619 17.353C73.9343 17.4776 74.2827 17.606 74.664 17.738C75.456 18.0313 76.1453 18.321 76.732 18.607C77.3187 18.893 77.8063 19.2266 78.195 19.608C78.5837 19.9893 78.8733 20.4366 79.064 20.95C79.2547 21.4633 79.35 22.0866 79.35 22.82C79.35 24.2427 78.8513 25.3463 77.854 26.131C76.8567 26.9156 75.3533 27.308 73.344 27.308C72.6693 27.308 72.0607 27.2676 71.518 27.187C70.9753 27.1063 70.495 27.0073 70.077 26.89C69.659 26.7726 69.2997 26.648 68.999 26.516C68.6983 26.384 68.4453 26.2593 68.24 26.142L69.208 23.414C69.6627 23.6633 70.2237 23.887 70.891 24.085C71.5583 24.283 72.376 24.382 73.344 24.382ZM92.594 21.192C92.594 22.1013 92.462 22.9336 92.198 23.689C91.934 24.4443 91.5527 25.0896 91.054 25.625C90.5553 26.1603 89.9577 26.5746 89.261 26.868C88.5643 27.1613 87.7833 27.308 86.918 27.308C86.0673 27.308 85.2937 27.1613 84.597 26.868C83.9003 26.5746 83.3027 26.1603 82.804 25.625C82.3053 25.0896 81.9167 24.4443 81.638 23.689C81.3593 22.9336 81.22 22.1013 81.22 21.192C81.22 20.2826 81.363 19.454 81.649 18.706C81.935 17.958 82.331 17.32 82.837 16.792C83.343 16.264 83.9443 15.8533 84.641 15.56C85.3377 15.2666 86.0967 15.12 86.918 15.12C87.754 15.12 88.5203 15.2666 89.217 15.56C89.9137 15.8533 90.5113 16.264 91.01 16.792C91.5087 17.32 91.8973 17.958 92.176 18.706C92.4547 19.454 92.594 20.2826 92.594 21.192ZM89.25 21.192C89.25 20.18 89.0483 19.3843 88.645 18.805C88.2417 18.2256 87.666 17.936 86.918 17.936C86.17 17.936 85.5907 18.2256 85.18 18.805C84.7693 19.3843 84.564 20.18 84.564 21.192C84.564 22.204 84.7693 23.007 85.18 23.601C85.5907 24.195 86.17 24.492 86.918 24.492C87.666 24.492 88.2417 24.195 88.645 23.601C89.0483 23.007 89.25 22.204 89.25 21.192ZM105.002 26.604C104.445 26.7653 103.726 26.9156 102.846 27.055C101.966 27.1943 101.042 27.264 100.074 27.264C99.0913 27.264 98.2737 27.132 97.621 26.868C96.9683 26.604 96.4513 26.2336 96.07 25.757C95.6887 25.2803 95.4173 24.712 95.256 24.052C95.0947 23.392 95.014 22.666 95.014 21.874V15.428H98.292V21.478C98.292 22.534 98.4313 23.2966 98.71 23.766C98.9887 24.2353 99.5093 24.47 100.272 24.47C100.507 24.47 100.756 24.459 101.02 24.437C101.284 24.415 101.519 24.3893 101.724 24.36V15.428H105.002V26.604ZM115.056 18.332C114.763 18.2586 114.418 18.1816 114.022 18.101C113.626 18.0203 113.201 17.98 112.746 17.98C112.541 17.98 112.295 17.9983 112.009 18.035C111.723 18.0716 111.507 18.112 111.36 18.156V27H108.082V16.044C108.669 15.8386 109.362 15.6443 110.161 15.461C110.96 15.2776 111.851 15.186 112.834 15.186C113.01 15.186 113.223 15.197 113.472 15.219C113.721 15.241 113.971 15.2703 114.22 15.307C114.469 15.3436 114.719 15.3876 114.968 15.439C115.217 15.4903 115.43 15.5526 115.606 15.626L115.056 18.332ZM116.596 21.214C116.596 20.378 116.732 19.5896 117.003 18.849C117.274 18.1083 117.667 17.463 118.18 16.913C118.693 16.363 119.317 15.9266 120.05 15.604C120.783 15.2813 121.619 15.12 122.558 15.12C123.174 15.12 123.739 15.175 124.252 15.285C124.765 15.395 125.264 15.5526 125.748 15.758L125.066 18.376C124.758 18.2586 124.421 18.156 124.054 18.068C123.687 17.98 123.277 17.936 122.822 17.936C121.854 17.936 121.132 18.2366 120.655 18.838C120.178 19.4393 119.94 20.2313 119.94 21.214C119.94 22.2553 120.164 23.062 120.611 23.634C121.058 24.206 121.839 24.492 122.954 24.492C123.35 24.492 123.775 24.4553 124.23 24.382C124.685 24.3086 125.103 24.1913 125.484 24.03L125.946 26.714C125.565 26.8753 125.088 27.0146 124.516 27.132C123.944 27.2493 123.313 27.308 122.624 27.308C121.568 27.308 120.659 27.1503 119.896 26.835C119.133 26.5196 118.506 26.0906 118.015 25.548C117.524 25.0053 117.164 24.3636 116.937 23.623C116.71 22.8823 116.596 22.0793 116.596 21.214ZM127.046 21.302C127.046 20.2753 127.204 19.377 127.519 18.607C127.834 17.837 128.249 17.1953 128.762 16.682C129.275 16.1686 129.866 15.78 130.533 15.516C131.2 15.252 131.886 15.12 132.59 15.12C134.233 15.12 135.531 15.6223 136.484 16.627C137.437 17.6316 137.914 19.1093 137.914 21.06C137.914 21.2506 137.907 21.4596 137.892 21.687C137.877 21.9143 137.863 22.116 137.848 22.292H130.412C130.485 22.9666 130.801 23.502 131.358 23.898C131.915 24.294 132.663 24.492 133.602 24.492C134.203 24.492 134.794 24.437 135.373 24.327C135.952 24.217 136.425 24.0813 136.792 23.92L137.232 26.582C137.056 26.67 136.821 26.758 136.528 26.846C136.235 26.934 135.908 27.011 135.549 27.077C135.19 27.143 134.805 27.198 134.394 27.242C133.983 27.286 133.573 27.308 133.162 27.308C132.121 27.308 131.215 27.154 130.445 26.846C129.675 26.538 129.037 26.1163 128.531 25.581C128.025 25.0456 127.651 24.4113 127.409 23.678C127.167 22.9446 127.046 22.1526 127.046 21.302ZM134.746 20.048C134.731 19.7693 134.684 19.498 134.603 19.234C134.522 18.97 134.398 18.7353 134.229 18.53C134.06 18.3246 133.848 18.156 133.591 18.024C133.334 17.892 133.015 17.826 132.634 17.826C132.267 17.826 131.952 17.8883 131.688 18.013C131.424 18.1376 131.204 18.3026 131.028 18.508C130.852 18.7133 130.716 18.9516 130.621 19.223C130.526 19.4943 130.456 19.7693 130.412 20.048H134.746ZM143.766 24.646C144.367 24.646 144.793 24.5873 145.042 24.47C145.291 24.3526 145.416 24.1253 145.416 23.788C145.416 23.524 145.255 23.293 144.932 23.095C144.609 22.897 144.118 22.6733 143.458 22.424C142.945 22.2333 142.479 22.0353 142.061 21.83C141.643 21.6246 141.287 21.379 140.994 21.093C140.701 20.807 140.473 20.466 140.312 20.07C140.151 19.674 140.07 19.1973 140.07 18.64C140.07 17.5546 140.473 16.6966 141.28 16.066C142.087 15.4353 143.194 15.12 144.602 15.12C145.306 15.12 145.981 15.1823 146.626 15.307C147.271 15.4316 147.785 15.5673 148.166 15.714L147.594 18.266C147.213 18.134 146.798 18.0166 146.351 17.914C145.904 17.8113 145.401 17.76 144.844 17.76C143.817 17.76 143.304 18.046 143.304 18.618C143.304 18.75 143.326 18.8673 143.37 18.97C143.414 19.0726 143.502 19.1716 143.634 19.267C143.766 19.3623 143.946 19.465 144.173 19.575C144.4 19.685 144.69 19.806 145.042 19.938C145.761 20.202 146.355 20.4623 146.824 20.719C147.293 20.9756 147.664 21.2543 147.935 21.555C148.206 21.8556 148.397 22.1893 148.507 22.556C148.617 22.9226 148.672 23.348 148.672 23.832C148.672 24.976 148.243 25.8413 147.385 26.428C146.527 27.0146 145.313 27.308 143.744 27.308C142.717 27.308 141.863 27.22 141.181 27.044C140.499 26.868 140.026 26.7213 139.762 26.604L140.312 23.942C140.869 24.162 141.441 24.3343 142.028 24.459C142.615 24.5836 143.194 24.646 143.766 24.646Z" fill="#001B3D"/>
<path d="M223.557 297.641C223.557 298.423 223.465 299.159 223.281 299.849C223.112 300.539 222.806 301.145 222.361 301.666C221.932 302.172 221.341 302.578 220.59 302.885C219.854 303.176 218.919 303.322 217.784 303.322C216.741 303.322 215.844 303.199 215.093 302.954C214.342 302.693 213.721 302.394 213.23 302.057L214.426 299.274C214.871 299.535 215.346 299.765 215.852 299.964C216.358 300.163 216.91 300.263 217.508 300.263C218.382 300.263 219.011 300.048 219.394 299.619C219.777 299.19 219.969 298.469 219.969 297.457V287.061H223.557V297.641ZM231.407 300.608C231.744 300.608 232.066 300.6 232.373 300.585C232.679 300.57 232.925 300.547 233.109 300.516V297.917C232.971 297.886 232.764 297.856 232.488 297.825C232.212 297.794 231.959 297.779 231.729 297.779C231.407 297.779 231.1 297.802 230.809 297.848C230.533 297.879 230.287 297.948 230.073 298.055C229.858 298.162 229.689 298.308 229.567 298.492C229.444 298.676 229.383 298.906 229.383 299.182C229.383 299.719 229.559 300.094 229.912 300.309C230.28 300.508 230.778 300.608 231.407 300.608ZM231.131 290.58C232.143 290.58 232.986 290.695 233.661 290.925C234.335 291.155 234.872 291.485 235.271 291.914C235.685 292.343 235.976 292.865 236.145 293.478C236.313 294.091 236.398 294.774 236.398 295.525V302.655C235.907 302.762 235.225 302.885 234.351 303.023C233.477 303.176 232.419 303.253 231.177 303.253C230.395 303.253 229.682 303.184 229.038 303.046C228.409 302.908 227.865 302.686 227.405 302.379C226.945 302.057 226.592 301.643 226.347 301.137C226.101 300.631 225.979 300.01 225.979 299.274C225.979 298.569 226.117 297.971 226.393 297.48C226.684 296.989 227.067 296.598 227.543 296.307C228.018 296.016 228.562 295.809 229.176 295.686C229.789 295.548 230.425 295.479 231.085 295.479C231.529 295.479 231.92 295.502 232.258 295.548C232.61 295.579 232.894 295.625 233.109 295.686V295.364C233.109 294.781 232.932 294.314 232.58 293.961C232.227 293.608 231.614 293.432 230.74 293.432C230.157 293.432 229.582 293.478 229.015 293.57C228.447 293.647 227.957 293.762 227.543 293.915L227.106 291.155C227.305 291.094 227.55 291.032 227.842 290.971C228.148 290.894 228.478 290.833 228.831 290.787C229.183 290.726 229.551 290.68 229.935 290.649C230.333 290.603 230.732 290.58 231.131 290.58ZM242.494 303C241.712 301.467 240.914 299.673 240.102 297.618C239.304 295.563 238.545 293.325 237.825 290.902H241.459C241.612 291.5 241.788 292.152 241.988 292.857C242.202 293.547 242.417 294.252 242.632 294.973C242.862 295.678 243.084 296.368 243.299 297.043C243.529 297.718 243.751 298.331 243.966 298.883C244.165 298.331 244.38 297.718 244.61 297.043C244.84 296.368 245.062 295.678 245.277 294.973C245.507 294.252 245.721 293.547 245.921 292.857C246.135 292.152 246.319 291.5 246.473 290.902H250.015C249.294 293.325 248.527 295.563 247.715 297.618C246.917 299.673 246.128 301.467 245.346 303H242.494ZM256.249 300.608C256.586 300.608 256.908 300.6 257.215 300.585C257.521 300.57 257.767 300.547 257.951 300.516V297.917C257.813 297.886 257.606 297.856 257.33 297.825C257.054 297.794 256.801 297.779 256.571 297.779C256.249 297.779 255.942 297.802 255.651 297.848C255.375 297.879 255.129 297.948 254.915 298.055C254.7 298.162 254.531 298.308 254.409 298.492C254.286 298.676 254.225 298.906 254.225 299.182C254.225 299.719 254.401 300.094 254.754 300.309C255.122 300.508 255.62 300.608 256.249 300.608ZM255.973 290.58C256.985 290.58 257.828 290.695 258.503 290.925C259.177 291.155 259.714 291.485 260.113 291.914C260.527 292.343 260.818 292.865 260.987 293.478C261.155 294.091 261.24 294.774 261.24 295.525V302.655C260.749 302.762 260.067 302.885 259.193 303.023C258.319 303.176 257.261 303.253 256.019 303.253C255.237 303.253 254.524 303.184 253.88 303.046C253.251 302.908 252.707 302.686 252.247 302.379C251.787 302.057 251.434 301.643 251.189 301.137C250.943 300.631 250.821 300.01 250.821 299.274C250.821 298.569 250.959 297.971 251.235 297.48C251.526 296.989 251.909 296.598 252.385 296.307C252.86 296.016 253.404 295.809 254.018 295.686C254.631 295.548 255.267 295.479 255.927 295.479C256.371 295.479 256.762 295.502 257.1 295.548C257.452 295.579 257.736 295.625 257.951 295.686V295.364C257.951 294.781 257.774 294.314 257.422 293.961C257.069 293.608 256.456 293.432 255.582 293.432C254.999 293.432 254.424 293.478 253.857 293.57C253.289 293.647 252.799 293.762 252.385 293.915L251.948 291.155C252.147 291.094 252.392 291.032 252.684 290.971C252.99 290.894 253.32 290.833 253.673 290.787C254.025 290.726 254.393 290.68 254.777 290.649C255.175 290.603 255.574 290.58 255.973 290.58ZM268.916 300.263C269.422 300.263 269.836 300.225 270.158 300.148C270.495 300.056 270.763 299.941 270.963 299.803C271.162 299.65 271.3 299.473 271.377 299.274C271.453 299.075 271.492 298.852 271.492 298.607C271.492 298.086 271.246 297.656 270.756 297.319C270.265 296.966 269.422 296.591 268.226 296.192C267.704 296.008 267.183 295.801 266.662 295.571C266.14 295.326 265.673 295.027 265.259 294.674C264.845 294.306 264.507 293.869 264.247 293.363C263.986 292.842 263.856 292.213 263.856 291.477C263.856 290.741 263.994 290.082 264.27 289.499C264.546 288.901 264.937 288.395 265.443 287.981C265.949 287.567 266.562 287.253 267.283 287.038C268.003 286.808 268.816 286.693 269.721 286.693C270.794 286.693 271.722 286.808 272.504 287.038C273.286 287.268 273.93 287.521 274.436 287.797L273.401 290.626C272.956 290.396 272.458 290.197 271.906 290.028C271.369 289.844 270.717 289.752 269.951 289.752C269.092 289.752 268.471 289.875 268.088 290.12C267.72 290.35 267.536 290.71 267.536 291.201C267.536 291.492 267.605 291.738 267.743 291.937C267.881 292.136 268.072 292.32 268.318 292.489C268.578 292.642 268.87 292.788 269.192 292.926C269.529 293.049 269.897 293.179 270.296 293.317C271.124 293.624 271.844 293.93 272.458 294.237C273.071 294.528 273.577 294.873 273.976 295.272C274.39 295.671 274.696 296.138 274.896 296.675C275.095 297.212 275.195 297.863 275.195 298.63C275.195 300.117 274.673 301.275 273.631 302.103C272.588 302.916 271.016 303.322 268.916 303.322C268.21 303.322 267.574 303.276 267.007 303.184C266.439 303.107 265.933 303.008 265.489 302.885C265.059 302.762 264.684 302.632 264.362 302.494C264.055 302.356 263.794 302.226 263.58 302.103L264.592 299.251C265.067 299.512 265.65 299.749 266.34 299.964C267.045 300.163 267.904 300.263 268.916 300.263ZM277.15 296.951C277.15 296.077 277.288 295.257 277.564 294.49C277.856 293.708 278.27 293.033 278.806 292.466C279.343 291.883 279.995 291.423 280.761 291.086C281.528 290.749 282.402 290.58 283.383 290.58C284.027 290.58 284.618 290.641 285.154 290.764C285.691 290.871 286.212 291.032 286.718 291.247L286.005 293.984C285.683 293.861 285.331 293.754 284.947 293.662C284.564 293.57 284.135 293.524 283.659 293.524C282.647 293.524 281.888 293.838 281.382 294.467C280.892 295.096 280.646 295.924 280.646 296.951C280.646 298.04 280.876 298.883 281.336 299.481C281.812 300.079 282.632 300.378 283.797 300.378C284.211 300.378 284.656 300.34 285.131 300.263C285.607 300.186 286.044 300.064 286.442 299.895L286.925 302.701C286.527 302.87 286.028 303.015 285.43 303.138C284.832 303.261 284.173 303.322 283.452 303.322C282.348 303.322 281.398 303.161 280.6 302.839C279.803 302.502 279.144 302.049 278.622 301.482C278.116 300.915 277.741 300.248 277.495 299.481C277.265 298.699 277.15 297.856 277.15 296.951ZM296.516 293.938C296.21 293.861 295.849 293.785 295.435 293.708C295.021 293.616 294.577 293.57 294.101 293.57C293.887 293.57 293.626 293.593 293.319 293.639C293.028 293.67 292.806 293.708 292.652 293.754V303H289.225V291.546C289.839 291.331 290.559 291.132 291.387 290.948C292.231 290.749 293.166 290.649 294.193 290.649C294.377 290.649 294.6 290.664 294.86 290.695C295.121 290.71 295.382 290.741 295.642 290.787C295.903 290.818 296.164 290.864 296.424 290.925C296.685 290.971 296.907 291.032 297.091 291.109L296.516 293.938ZM302.355 303H298.928V290.902H302.355V303ZM302.677 287.406C302.677 288.035 302.47 288.533 302.056 288.901C301.658 289.254 301.182 289.43 300.63 289.43C300.078 289.43 299.595 289.254 299.181 288.901C298.783 288.533 298.583 288.035 298.583 287.406C298.583 286.777 298.783 286.287 299.181 285.934C299.595 285.566 300.078 285.382 300.63 285.382C301.182 285.382 301.658 285.566 302.056 285.934C302.47 286.287 302.677 286.777 302.677 287.406ZM313.328 297.043C313.328 295.985 313.09 295.142 312.615 294.513C312.139 293.869 311.434 293.547 310.499 293.547C310.192 293.547 309.908 293.562 309.648 293.593C309.387 293.608 309.172 293.631 309.004 293.662V299.849C309.218 299.987 309.494 300.102 309.832 300.194C310.184 300.286 310.537 300.332 310.89 300.332C312.515 300.332 313.328 299.236 313.328 297.043ZM316.824 296.951C316.824 297.886 316.709 298.737 316.479 299.504C316.249 300.271 315.911 300.93 315.467 301.482C315.022 302.034 314.47 302.463 313.811 302.77C313.151 303.077 312.392 303.23 311.534 303.23C311.058 303.23 310.614 303.184 310.2 303.092C309.786 303 309.387 302.87 309.004 302.701V307.255H305.577V291.316C305.883 291.224 306.236 291.14 306.635 291.063C307.033 290.971 307.447 290.894 307.877 290.833C308.321 290.772 308.766 290.726 309.211 290.695C309.671 290.649 310.108 290.626 310.522 290.626C311.518 290.626 312.408 290.779 313.19 291.086C313.972 291.377 314.631 291.799 315.168 292.351C315.704 292.888 316.111 293.547 316.387 294.329C316.678 295.111 316.824 295.985 316.824 296.951ZM319.343 287.889L322.77 287.337V290.902H326.887V293.754H322.77V298.009C322.77 298.73 322.892 299.305 323.138 299.734C323.398 300.163 323.912 300.378 324.679 300.378C325.047 300.378 325.422 300.347 325.806 300.286C326.204 300.209 326.565 300.11 326.887 299.987L327.37 302.655C326.956 302.824 326.496 302.969 325.99 303.092C325.484 303.215 324.863 303.276 324.127 303.276C323.191 303.276 322.417 303.153 321.804 302.908C321.19 302.647 320.7 302.295 320.332 301.85C319.964 301.39 319.703 300.838 319.55 300.194C319.412 299.55 319.343 298.837 319.343 298.055V287.889ZM347.255 287.061V290.12H342.448V303H338.86V290.12H334.053V287.061H347.255ZM355.027 293.938C354.72 293.861 354.36 293.785 353.946 293.708C353.532 293.616 353.087 293.57 352.612 293.57C352.397 293.57 352.137 293.593 351.83 293.639C351.539 293.67 351.316 293.708 351.163 293.754V303H347.736V291.546C348.349 291.331 349.07 291.132 349.898 290.948C350.741 290.749 351.677 290.649 352.704 290.649C352.888 290.649 353.11 290.664 353.371 290.695C353.632 290.71 353.892 290.741 354.153 290.787C354.414 290.818 354.674 290.864 354.935 290.925C355.196 290.971 355.418 291.032 355.602 291.109L355.027 293.938ZM361.837 300.608C362.175 300.608 362.497 300.6 362.803 300.585C363.11 300.57 363.355 300.547 363.539 300.516V297.917C363.401 297.886 363.194 297.856 362.918 297.825C362.642 297.794 362.389 297.779 362.159 297.779C361.837 297.779 361.531 297.802 361.239 297.848C360.963 297.879 360.718 297.948 360.503 298.055C360.289 298.162 360.12 298.308 359.997 298.492C359.875 298.676 359.813 298.906 359.813 299.182C359.813 299.719 359.99 300.094 360.342 300.309C360.71 300.508 361.209 300.608 361.837 300.608ZM361.561 290.58C362.573 290.58 363.417 290.695 364.091 290.925C364.766 291.155 365.303 291.485 365.701 291.914C366.115 292.343 366.407 292.865 366.575 293.478C366.744 294.091 366.828 294.774 366.828 295.525V302.655C366.338 302.762 365.655 302.885 364.781 303.023C363.907 303.176 362.849 303.253 361.607 303.253C360.825 303.253 360.112 303.184 359.468 303.046C358.84 302.908 358.295 302.686 357.835 302.379C357.375 302.057 357.023 301.643 356.777 301.137C356.532 300.631 356.409 300.01 356.409 299.274C356.409 298.569 356.547 297.971 356.823 297.48C357.115 296.989 357.498 296.598 357.973 296.307C358.449 296.016 358.993 295.809 359.606 295.686C360.22 295.548 360.856 295.479 361.515 295.479C361.96 295.479 362.351 295.502 362.688 295.548C363.041 295.579 363.325 295.625 363.539 295.686V295.364C363.539 294.781 363.363 294.314 363.01 293.961C362.658 293.608 362.044 293.432 361.17 293.432C360.588 293.432 360.013 293.478 359.445 293.57C358.878 293.647 358.387 293.762 357.973 293.915L357.536 291.155C357.736 291.094 357.981 291.032 358.272 290.971C358.579 290.894 358.909 290.833 359.261 290.787C359.614 290.726 359.982 290.68 360.365 290.649C360.764 290.603 361.163 290.58 361.561 290.58ZM369.927 291.316C370.51 291.147 371.261 290.994 372.181 290.856C373.101 290.703 374.067 290.626 375.079 290.626C376.107 290.626 376.958 290.764 377.632 291.04C378.322 291.301 378.867 291.676 379.265 292.167C379.664 292.658 379.948 293.24 380.116 293.915C380.285 294.59 380.369 295.341 380.369 296.169V303H376.942V296.583C376.942 295.479 376.797 294.697 376.505 294.237C376.214 293.777 375.67 293.547 374.872 293.547C374.627 293.547 374.366 293.562 374.09 293.593C373.814 293.608 373.569 293.631 373.354 293.662V303H369.927V291.316ZM386.944 300.539C387.573 300.539 388.018 300.478 388.278 300.355C388.539 300.232 388.669 299.995 388.669 299.642C388.669 299.366 388.501 299.128 388.163 298.929C387.826 298.714 387.312 298.477 386.622 298.216C386.086 298.017 385.595 297.81 385.15 297.595C384.721 297.38 384.353 297.127 384.046 296.836C383.74 296.529 383.502 296.169 383.333 295.755C383.165 295.341 383.08 294.843 383.08 294.26C383.08 293.125 383.502 292.228 384.345 291.569C385.189 290.91 386.346 290.58 387.818 290.58C388.554 290.58 389.26 290.649 389.934 290.787C390.609 290.91 391.146 291.048 391.544 291.201L390.946 293.869C390.548 293.731 390.111 293.608 389.635 293.501C389.175 293.394 388.654 293.34 388.071 293.34C386.998 293.34 386.461 293.639 386.461 294.237C386.461 294.375 386.484 294.498 386.53 294.605C386.576 294.712 386.668 294.82 386.806 294.927C386.944 295.019 387.128 295.126 387.358 295.249C387.604 295.356 387.91 295.479 388.278 295.617C389.03 295.893 389.651 296.169 390.141 296.445C390.632 296.706 391.015 296.997 391.291 297.319C391.583 297.626 391.782 297.971 391.889 298.354C392.012 298.737 392.073 299.182 392.073 299.688C392.073 300.884 391.621 301.789 390.716 302.402C389.827 303.015 388.562 303.322 386.921 303.322C385.848 303.322 384.951 303.23 384.23 303.046C383.525 302.862 383.034 302.709 382.758 302.586L383.333 299.803C383.916 300.033 384.514 300.217 385.127 300.355C385.741 300.478 386.346 300.539 386.944 300.539ZM399.878 285.152C400.522 285.152 401.113 285.221 401.649 285.359C402.186 285.482 402.6 285.604 402.891 285.727L402.224 288.464C401.918 288.326 401.58 288.226 401.212 288.165C400.86 288.088 400.53 288.05 400.223 288.05C399.809 288.05 399.457 288.111 399.165 288.234C398.889 288.341 398.667 288.495 398.498 288.694C398.345 288.893 398.23 289.131 398.153 289.407C398.092 289.683 398.061 289.982 398.061 290.304V290.902H402.293V293.754H398.061V303H394.634V290.258C394.634 288.694 395.071 287.452 395.945 286.532C396.835 285.612 398.146 285.152 399.878 285.152ZM415.474 296.928C415.474 297.879 415.336 298.753 415.06 299.55C414.784 300.332 414.385 301.007 413.864 301.574C413.343 302.126 412.714 302.555 411.978 302.862C411.257 303.169 410.445 303.322 409.54 303.322C408.651 303.322 407.838 303.169 407.102 302.862C406.381 302.555 405.76 302.126 405.239 301.574C404.718 301.007 404.311 300.332 404.02 299.55C403.729 298.753 403.583 297.879 403.583 296.928C403.583 295.977 403.729 295.111 404.02 294.329C404.327 293.547 404.741 292.88 405.262 292.328C405.799 291.776 406.427 291.347 407.148 291.04C407.884 290.733 408.681 290.58 409.54 290.58C410.414 290.58 411.211 290.733 411.932 291.04C412.668 291.347 413.297 291.776 413.818 292.328C414.339 292.88 414.746 293.547 415.037 294.329C415.328 295.111 415.474 295.977 415.474 296.928ZM411.978 296.928C411.978 295.87 411.763 295.042 411.334 294.444C410.92 293.831 410.322 293.524 409.54 293.524C408.758 293.524 408.152 293.831 407.723 294.444C407.294 295.042 407.079 295.87 407.079 296.928C407.079 297.986 407.294 298.829 407.723 299.458C408.152 300.071 408.758 300.378 409.54 300.378C410.322 300.378 410.92 300.071 411.334 299.458C411.763 298.829 411.978 297.986 411.978 296.928ZM425.42 293.938C425.113 293.861 424.753 293.785 424.339 293.708C423.925 293.616 423.48 293.57 423.005 293.57C422.79 293.57 422.529 293.593 422.223 293.639C421.931 293.67 421.709 293.708 421.556 293.754V303H418.129V291.546C418.742 291.331 419.463 291.132 420.291 290.948C421.134 290.749 422.069 290.649 423.097 290.649C423.281 290.649 423.503 290.664 423.764 290.695C424.024 290.71 424.285 290.741 424.546 290.787C424.806 290.818 425.067 290.864 425.328 290.925C425.588 290.971 425.811 291.032 425.995 291.109L425.42 293.938ZM434.479 296.583C434.479 295.479 434.333 294.697 434.042 294.237C433.766 293.777 433.283 293.547 432.593 293.547C432.378 293.547 432.156 293.562 431.926 293.593C431.696 293.608 431.473 293.631 431.259 293.662V303H427.832V291.316C428.123 291.239 428.46 291.163 428.844 291.086C429.242 290.994 429.656 290.917 430.086 290.856C430.53 290.779 430.983 290.726 431.443 290.695C431.903 290.649 432.355 290.626 432.8 290.626C433.674 290.626 434.379 290.741 434.916 290.971C435.468 291.186 435.92 291.446 436.273 291.753C436.763 291.4 437.323 291.124 437.952 290.925C438.596 290.726 439.186 290.626 439.723 290.626C440.689 290.626 441.478 290.764 442.092 291.04C442.72 291.301 443.219 291.676 443.587 292.167C443.955 292.658 444.208 293.24 444.346 293.915C444.484 294.59 444.553 295.341 444.553 296.169V303H441.126V296.583C441.126 295.479 440.98 294.697 440.689 294.237C440.413 293.777 439.93 293.547 439.24 293.547C439.056 293.547 438.795 293.593 438.458 293.685C438.136 293.777 437.867 293.892 437.653 294.03C437.76 294.383 437.829 294.758 437.86 295.157C437.89 295.54 437.906 295.954 437.906 296.399V303H434.479V296.583ZM447.09 297.043C447.09 295.97 447.251 295.034 447.573 294.237C447.91 293.424 448.347 292.75 448.884 292.213C449.42 291.676 450.034 291.27 450.724 290.994C451.429 290.718 452.15 290.58 452.886 290.58C454.603 290.58 455.96 291.109 456.957 292.167C457.953 293.21 458.452 294.751 458.452 296.79C458.452 296.989 458.444 297.212 458.429 297.457C458.413 297.687 458.398 297.894 458.383 298.078H450.609C450.685 298.783 451.015 299.343 451.598 299.757C452.18 300.171 452.962 300.378 453.944 300.378C454.572 300.378 455.186 300.324 455.784 300.217C456.397 300.094 456.895 299.949 457.279 299.78L457.739 302.563C457.555 302.655 457.309 302.747 457.003 302.839C456.696 302.931 456.351 303.008 455.968 303.069C455.6 303.146 455.201 303.207 454.772 303.253C454.342 303.299 453.913 303.322 453.484 303.322C452.395 303.322 451.444 303.161 450.632 302.839C449.834 302.517 449.167 302.08 448.631 301.528C448.109 300.961 447.718 300.294 447.458 299.527C447.212 298.76 447.09 297.932 447.09 297.043ZM455.14 295.732C455.124 295.441 455.071 295.157 454.979 294.881C454.902 294.605 454.772 294.36 454.588 294.145C454.419 293.93 454.197 293.754 453.921 293.616C453.66 293.478 453.33 293.409 452.932 293.409C452.548 293.409 452.219 293.478 451.943 293.616C451.667 293.739 451.437 293.907 451.253 294.122C451.069 294.337 450.923 294.59 450.816 294.881C450.724 295.157 450.655 295.441 450.609 295.732H455.14ZM468.387 293.938C468.081 293.861 467.72 293.785 467.306 293.708C466.892 293.616 466.448 293.57 465.972 293.57C465.758 293.57 465.497 293.593 465.19 293.639C464.899 293.67 464.677 293.708 464.523 293.754V303H461.096V291.546C461.71 291.331 462.43 291.132 463.258 290.948C464.102 290.749 465.037 290.649 466.064 290.649C466.248 290.649 466.471 290.664 466.731 290.695C466.992 290.71 467.253 290.741 467.513 290.787C467.774 290.818 468.035 290.864 468.295 290.925C468.556 290.971 468.778 291.032 468.962 291.109L468.387 293.938Z" fill="#001B3D"/>
<defs>
<linearGradient id="paint0_linear" x1="240.316" y1="181" x2="240.316" y2="117.589" gradientUnits="userSpaceOnUse">
<stop stop-color="#00DEFF"/>
<stop offset="1" stop-color="#001B3D"/>
</linearGradient>
<linearGradient id="paint1_linear" x1="109.459" y1="143.331" x2="184.559" y2="98.5482" gradientUnits="userSpaceOnUse">
<stop stop-color="#001B3D"/>
<stop offset="1" stop-color="#001B3D"/>
</linearGradient>
</defs>
</svg>
