<?xml version="1.0" encoding="UTF-8"?>
<svg width="683px" height="308px" viewBox="0 0 683 308" version="1.1" xmlns="http://www.w3.org/2000/svg" xmlns:xlink="http://www.w3.org/1999/xlink">
    <!-- Generator: Sketch 54.1 (76490) - https://sketchapp.com -->
    <title>Group 2</title>
    <desc>Created with Sketch.</desc>
    <defs>
        <linearGradient x1="50%" y1="100%" x2="50%" y2="3.061617e-15%" id="linearGradient-1">
            <stop stop-color="#00DEFF" offset="0%"></stop>
            <stop stop-color="#001B3D" offset="100%"></stop>
        </linearGradient>
        <polygon id="path-2" points="15.1888799 0.0265168992 22.8734773 12.8341792 7.50428248 12.8341792"></polygon>
        <linearGradient x1="16.3052721%" y1="58.4654615%" x2="79.0524022%" y2="39.1534187%" id="linearGradient-4">
            <stop stop-color="#001B3D" offset="0%"></stop>
            <stop stop-color="#001B3D" offset="100%"></stop>
        </linearGradient>
    </defs>
    <g id="Components-(transform-highlighted)" stroke="none" stroke-width="1" fill="none" fill-rule="evenodd">
        <g id="Group-2" transform="translate(-18.000000, -125.000000)">
            <g id="Sinks" transform="translate(546.000000, 134.000000)">
                <g id="Sink-3" transform="translate(0.000000, 184.000000)">
                    <circle id="Oval-Copy" fill="#001B3D" cx="37.5" cy="37.5" r="37.5"></circle>
                    <path d="M23.6523438,37.0859375 C23.6523438,35.4921875 25.0273438,34.4453125 27.1601562,34.4453125 C29.3085938,34.4453125 30.6367188,35.546875 30.6835938,37.1875 L28.5820312,37.1875 C28.5117188,36.5078125 28.0039062,36.046875 27.1601562,36.046875 C26.3710938,36.046875 25.8476562,36.40625 25.8476562,36.9609375 C25.8476562,37.390625 26.1601562,37.6796875 27.0039062,37.859375 L28.4335938,38.1640625 C30.1835938,38.53125 30.9023438,39.21875 30.9023438,40.4453125 C30.9023438,42.09375 29.3945312,43.1796875 27.2382812,43.1796875 C24.9257812,43.1796875 23.5898438,42.1015625 23.4414062,40.453125 L25.6679688,40.453125 C25.8085938,41.1875 26.3320312,41.578125 27.2382812,41.578125 C28.0976562,41.578125 28.6289062,41.2265625 28.6289062,40.6796875 C28.6289062,40.234375 28.3398438,39.984375 27.5195312,39.796875 L26.0898438,39.5 C24.4726562,39.15625 23.6523438,38.34375 23.6523438,37.0859375 Z M32.0664062,43 L32.0664062,34.625 L34.3476562,34.625 L34.3476562,43 L32.0664062,43 Z M33.1992188,33.4921875 C32.5351562,33.4921875 32.0117188,32.9609375 32.0117188,32.3203125 C32.0117188,31.671875 32.5351562,31.1484375 33.1992188,31.1484375 C33.8632812,31.1484375 34.3867188,31.671875 34.3867188,32.3203125 C34.3867188,32.9609375 33.8632812,33.4921875 33.1992188,33.4921875 Z M35.8632812,43 L35.8632812,34.625 L38.0664062,34.625 L38.0664062,36.1171875 L38.1132812,36.1171875 C38.5585938,35.078125 39.4414062,34.46875 40.7304688,34.46875 C42.5898438,34.46875 43.6367188,35.640625 43.6367188,37.6015625 L43.6367188,43 L41.3554688,43 L41.3554688,38.078125 C41.3554688,36.984375 40.8398438,36.359375 39.8164062,36.359375 C38.7929688,36.359375 38.1445312,37.109375 38.1445312,38.1953125 L38.1445312,43 L35.8632812,43 Z M47.4492188,37.984375 L50.2929688,34.625 L52.8789062,34.625 L49.6835938,38.21875 L53.0351562,43 L50.4101562,43 L48.0117188,39.59375 L47.4179688,40.234375 L47.4179688,43 L45.1367188,43 L45.1367188,31.7265625 L47.4179688,31.7265625 L47.4179688,37.984375 L47.4492188,37.984375 Z" id="sink" fill="#FFFFFF" fill-rule="nonzero"></path>
                </g>
                <g id="Sink-2" transform="translate(80.000000, 124.000000)">
                    <circle id="Oval-Copy" fill="#001B3D" cx="37.5" cy="37.5" r="37.5"></circle>
                    <path d="M23.6523438,37.0859375 C23.6523438,35.4921875 25.0273438,34.4453125 27.1601562,34.4453125 C29.3085938,34.4453125 30.6367188,35.546875 30.6835938,37.1875 L28.5820312,37.1875 C28.5117188,36.5078125 28.0039062,36.046875 27.1601562,36.046875 C26.3710938,36.046875 25.8476562,36.40625 25.8476562,36.9609375 C25.8476562,37.390625 26.1601562,37.6796875 27.0039062,37.859375 L28.4335938,38.1640625 C30.1835938,38.53125 30.9023438,39.21875 30.9023438,40.4453125 C30.9023438,42.09375 29.3945312,43.1796875 27.2382812,43.1796875 C24.9257812,43.1796875 23.5898438,42.1015625 23.4414062,40.453125 L25.6679688,40.453125 C25.8085938,41.1875 26.3320312,41.578125 27.2382812,41.578125 C28.0976562,41.578125 28.6289062,41.2265625 28.6289062,40.6796875 C28.6289062,40.234375 28.3398438,39.984375 27.5195312,39.796875 L26.0898438,39.5 C24.4726562,39.15625 23.6523438,38.34375 23.6523438,37.0859375 Z M32.0664062,43 L32.0664062,34.625 L34.3476562,34.625 L34.3476562,43 L32.0664062,43 Z M33.1992188,33.4921875 C32.5351562,33.4921875 32.0117188,32.9609375 32.0117188,32.3203125 C32.0117188,31.671875 32.5351562,31.1484375 33.1992188,31.1484375 C33.8632812,31.1484375 34.3867188,31.671875 34.3867188,32.3203125 C34.3867188,32.9609375 33.8632812,33.4921875 33.1992188,33.4921875 Z M35.8632812,43 L35.8632812,34.625 L38.0664062,34.625 L38.0664062,36.1171875 L38.1132812,36.1171875 C38.5585938,35.078125 39.4414062,34.46875 40.7304688,34.46875 C42.5898438,34.46875 43.6367188,35.640625 43.6367188,37.6015625 L43.6367188,43 L41.3554688,43 L41.3554688,38.078125 C41.3554688,36.984375 40.8398438,36.359375 39.8164062,36.359375 C38.7929688,36.359375 38.1445312,37.109375 38.1445312,38.1953125 L38.1445312,43 L35.8632812,43 Z M47.4492188,37.984375 L50.2929688,34.625 L52.8789062,34.625 L49.6835938,38.21875 L53.0351562,43 L50.4101562,43 L48.0117188,39.59375 L47.4179688,40.234375 L47.4179688,43 L45.1367188,43 L45.1367188,31.7265625 L47.4179688,31.7265625 L47.4179688,37.984375 L47.4492188,37.984375 Z" id="sink" fill="#FFFFFF" fill-rule="nonzero"></path>
                </g>
                <g id="Sink-1" transform="translate(0.000000, 58.000000)">
                    <circle id="Oval-Copy-2" fill="#001B3D" cx="37.5" cy="37.5" r="37.5"></circle>
                    <path d="M23.6523438,38.0859375 C23.6523438,36.4921875 25.0273438,35.4453125 27.1601562,35.4453125 C29.3085938,35.4453125 30.6367188,36.546875 30.6835938,38.1875 L28.5820312,38.1875 C28.5117188,37.5078125 28.0039062,37.046875 27.1601562,37.046875 C26.3710938,37.046875 25.8476562,37.40625 25.8476562,37.9609375 C25.8476562,38.390625 26.1601562,38.6796875 27.0039062,38.859375 L28.4335938,39.1640625 C30.1835938,39.53125 30.9023438,40.21875 30.9023438,41.4453125 C30.9023438,43.09375 29.3945312,44.1796875 27.2382812,44.1796875 C24.9257812,44.1796875 23.5898438,43.1015625 23.4414062,41.453125 L25.6679688,41.453125 C25.8085938,42.1875 26.3320312,42.578125 27.2382812,42.578125 C28.0976562,42.578125 28.6289062,42.2265625 28.6289062,41.6796875 C28.6289062,41.234375 28.3398438,40.984375 27.5195312,40.796875 L26.0898438,40.5 C24.4726562,40.15625 23.6523438,39.34375 23.6523438,38.0859375 Z M32.0664062,44 L32.0664062,35.625 L34.3476562,35.625 L34.3476562,44 L32.0664062,44 Z M33.1992188,34.4921875 C32.5351562,34.4921875 32.0117188,33.9609375 32.0117188,33.3203125 C32.0117188,32.671875 32.5351562,32.1484375 33.1992188,32.1484375 C33.8632812,32.1484375 34.3867188,32.671875 34.3867188,33.3203125 C34.3867188,33.9609375 33.8632812,34.4921875 33.1992188,34.4921875 Z M35.8632812,44 L35.8632812,35.625 L38.0664062,35.625 L38.0664062,37.1171875 L38.1132812,37.1171875 C38.5585938,36.078125 39.4414062,35.46875 40.7304688,35.46875 C42.5898438,35.46875 43.6367188,36.640625 43.6367188,38.6015625 L43.6367188,44 L41.3554688,44 L41.3554688,39.078125 C41.3554688,37.984375 40.8398438,37.359375 39.8164062,37.359375 C38.7929688,37.359375 38.1445312,38.109375 38.1445312,39.1953125 L38.1445312,44 L35.8632812,44 Z M47.4492188,38.984375 L50.2929688,35.625 L52.8789062,35.625 L49.6835938,39.21875 L53.0351562,44 L50.4101562,44 L48.0117188,40.59375 L47.4179688,41.234375 L47.4179688,44 L45.1367188,44 L45.1367188,32.7265625 L47.4179688,32.7265625 L47.4179688,38.984375 L47.4492188,38.984375 Z" id="sink" fill="#FFFFFF" fill-rule="nonzero"></path>
                </g>
                <path d="M16.154,15.382 C16.6380024,15.382 17.0376651,15.3416671 17.353,15.261 C17.6683349,15.1803329 17.9213324,15.070334 18.112,14.931 C18.3026676,14.791666 18.4346663,14.6266676 18.508,14.436 C18.5813337,14.2453324 18.618,14.0326678 18.618,13.798 C18.618,13.2993308 18.3833357,12.8850016 17.914,12.555 C17.4446643,12.2249983 16.6380057,11.8693352 15.494,11.488 C14.9953308,11.3119991 14.4966692,11.1103345 13.998,10.883 C13.4993308,10.6556655 13.052002,10.3696684 12.656,10.025 C12.259998,9.68033161 11.9373346,9.26233579 11.688,8.771 C11.4386654,8.27966421 11.314,7.68200352 11.314,6.978 C11.314,6.27399648 11.4459987,5.63966949 11.71,5.075 C11.9740013,4.51033051 12.3479976,4.03000198 12.832,3.634 C13.3160024,3.23799802 13.9026632,2.93366773 14.592,2.721 C15.2813368,2.50833227 16.0586623,2.402 16.924,2.402 C17.9506718,2.402 18.8379963,2.5119989 19.586,2.732 C20.3340037,2.9520011 20.9499976,3.19399868 21.434,3.458 L20.444,6.164 C20.0186645,5.9439989 19.5456693,5.74966751 19.025,5.581 C18.5043307,5.41233249 17.877337,5.328 17.144,5.328 C16.3226626,5.328 15.7323351,5.44166553 15.373,5.669 C15.0136649,5.89633447 14.834,6.24466432 14.834,6.714 C14.834,6.99266806 14.8999993,7.22733238 15.032,7.418 C15.1640007,7.60866762 15.3509988,7.78099923 15.593,7.935 C15.8350012,8.08900077 16.1136651,8.22833271 16.429,8.353 C16.7443349,8.47766729 17.0926648,8.60599934 17.474,8.738 C18.266004,9.0313348 18.9553304,9.32099857 19.542,9.607 C20.1286696,9.89300143 20.6163314,10.2266648 21.005,10.608 C21.3936686,10.9893352 21.6833324,11.4366641 21.874,11.95 C22.0646676,12.4633359 22.16,13.086663 22.16,13.82 C22.16,15.2426738 21.6613383,16.3463294 20.664,17.131 C19.6666617,17.9156706 18.1633434,18.308 16.154,18.308 C15.47933,18.308 14.8706694,18.2676671 14.328,18.187 C13.7853306,18.1063329 13.3050021,18.0073339 12.887,17.89 C12.4689979,17.7726661 12.1096682,17.6480007 11.809,17.516 C11.5083318,17.3839993 11.2553344,17.2593339 11.05,17.142 L12.018,14.414 C12.4726689,14.6633346 13.0336633,14.886999 13.701,15.085 C14.3683367,15.283001 15.1859952,15.382 16.154,15.382 Z M27.858,18 L24.58,18 L24.58,6.428 L27.858,6.428 L27.858,18 Z M28.166,3.084 C28.166,3.68533634 27.9716686,4.15833161 27.583,4.503 C27.1943314,4.84766839 26.7360026,5.02 26.208,5.02 C25.6799974,5.02 25.2216686,4.84766839 24.833,4.503 C24.4443314,4.15833161 24.25,3.68533634 24.25,3.084 C24.25,2.48266366 24.4443314,2.00966839 24.833,1.665 C25.2216686,1.32033161 25.6799974,1.148 26.208,1.148 C26.7360026,1.148 27.1943314,1.32033161 27.583,1.665 C27.9716686,2.00966839 28.166,2.48266366 28.166,3.084 Z M30.938,6.824 C31.4953361,6.66266586 32.2139956,6.51233403 33.094,6.373 C33.9740044,6.23366597 34.8979952,6.164 35.866,6.164 C36.8486716,6.164 37.6663301,6.29233205 38.319,6.549 C38.9716699,6.80566795 39.4886648,7.16866432 39.87,7.638 C40.2513352,8.10733568 40.5226659,8.66466344 40.684,9.31 C40.8453341,9.95533656 40.926,10.673996 40.926,11.466 L40.926,18 L37.648,18 L37.648,11.862 C37.648,10.8059947 37.5086681,10.0580022 37.23,9.618 C36.9513319,9.1779978 36.4306705,8.958 35.668,8.958 C35.4333322,8.958 35.1840013,8.96899989 34.92,8.991 C34.6559987,9.01300011 34.4213344,9.03866652 34.216,9.068 L34.216,18 L30.938,18 L30.938,6.824 Z M47.174,10.608 C47.4966683,10.2559982 47.8303316,9.88933524 48.175,9.508 C48.5196684,9.12666476 48.8533317,8.74900187 49.176,8.375 C49.4986683,8.00099813 49.8029986,7.64533502 50.089,7.308 C50.3750014,6.97066498 50.6206656,6.67733458 50.826,6.428 L54.72,6.428 C53.9426628,7.32267114 53.1836704,8.17699593 52.443,8.991 C51.7023296,9.80500407 50.8920044,10.6446623 50.012,11.51 C50.4520022,11.906002 50.9066643,12.3789972 51.376,12.929 C51.8453357,13.4790027 52.2999978,14.0473304 52.74,14.634 C53.1800022,15.2206696 53.5833315,15.8073304 53.95,16.394 C54.3166685,16.9806696 54.6246654,17.5159976 54.874,18 L51.112,18 C50.8773322,17.6186648 50.6096682,17.1970023 50.309,16.735 C50.0083318,16.2729977 49.689335,15.8110023 49.352,15.349 C49.014665,14.8869977 48.6590019,14.4433355 48.285,14.018 C47.9109981,13.5926645 47.5406685,13.2333348 47.174,12.94 L47.174,18 L43.896,18 L43.896,1.456 L47.174,0.928 L47.174,10.608 Z M59.956,15.646 C60.5573363,15.646 60.9826654,15.5873339 61.232,15.47 C61.4813346,15.3526661 61.606,15.125335 61.606,14.788 C61.606,14.5239987 61.4446683,14.293001 61.122,14.095 C60.7993317,13.896999 60.3080033,13.6733346 59.648,13.424 C59.1346641,13.2333324 58.6690021,13.0353344 58.251,12.83 C57.8329979,12.6246656 57.4773348,12.3790014 57.184,12.093 C56.8906652,11.8069986 56.6633341,11.466002 56.502,11.07 C56.3406659,10.673998 56.26,10.1973361 56.26,9.64 C56.26,8.55466124 56.6633293,7.69666982 57.47,7.066 C58.2766707,6.43533018 59.383993,6.12 60.792,6.12 C61.4960035,6.12 62.1706634,6.18233271 62.816,6.307 C63.4613366,6.43166729 63.9746648,6.5673326 64.356,6.714 L63.784,9.266 C63.4026648,9.13399934 62.9883356,9.01666718 62.541,8.914 C62.0936644,8.81133282 61.5913361,8.76 61.034,8.76 C60.0073282,8.76 59.494,9.04599714 59.494,9.618 C59.494,9.75000066 59.5159998,9.86733282 59.56,9.97 C59.6040002,10.0726672 59.6919993,10.1716662 59.824,10.267 C59.9560007,10.3623338 60.1356655,10.4649994 60.363,10.575 C60.5903345,10.6850005 60.8799982,10.8059993 61.232,10.938 C61.9506703,11.2020013 62.5446643,11.462332 63.014,11.719 C63.4833357,11.9756679 63.8536653,12.2543318 64.125,12.555 C64.3963347,12.8556682 64.5869995,13.1893315 64.697,13.556 C64.8070006,13.9226685 64.862,14.3479976 64.862,14.832 C64.862,15.9760057 64.4330043,16.8413304 63.575,17.428 C62.7169957,18.0146696 61.5033412,18.308 59.934,18.308 C58.9073282,18.308 58.0530034,18.2200009 57.371,18.044 C56.6889966,17.8679991 56.2160013,17.7213339 55.952,17.604 L56.502,14.942 C57.0593361,15.1620011 57.6313304,15.3343327 58.218,15.459 C58.8046696,15.5836673 59.3839971,15.646 59.956,15.646 Z" fill="#001B3D" fill-rule="nonzero"></path>
            </g>
            <g id="Sinks" transform="translate(546.000000, 134.000000)">
                <g id="Sink-3" transform="translate(0.000000, 184.000000)">
                    <circle id="Oval-Copy" fill="#001B3D" cx="37.5" cy="37.5" r="37.5"></circle>
                    <path d="M23.6523438,37.0859375 C23.6523438,35.4921875 25.0273438,34.4453125 27.1601562,34.4453125 C29.3085938,34.4453125 30.6367188,35.546875 30.6835938,37.1875 L28.5820312,37.1875 C28.5117188,36.5078125 28.0039062,36.046875 27.1601562,36.046875 C26.3710938,36.046875 25.8476562,36.40625 25.8476562,36.9609375 C25.8476562,37.390625 26.1601562,37.6796875 27.0039062,37.859375 L28.4335938,38.1640625 C30.1835938,38.53125 30.9023438,39.21875 30.9023438,40.4453125 C30.9023438,42.09375 29.3945312,43.1796875 27.2382812,43.1796875 C24.9257812,43.1796875 23.5898438,42.1015625 23.4414062,40.453125 L25.6679688,40.453125 C25.8085938,41.1875 26.3320312,41.578125 27.2382812,41.578125 C28.0976562,41.578125 28.6289062,41.2265625 28.6289062,40.6796875 C28.6289062,40.234375 28.3398438,39.984375 27.5195312,39.796875 L26.0898438,39.5 C24.4726562,39.15625 23.6523438,38.34375 23.6523438,37.0859375 Z M32.0664062,43 L32.0664062,34.625 L34.3476562,34.625 L34.3476562,43 L32.0664062,43 Z M33.1992188,33.4921875 C32.5351562,33.4921875 32.0117188,32.9609375 32.0117188,32.3203125 C32.0117188,31.671875 32.5351562,31.1484375 33.1992188,31.1484375 C33.8632812,31.1484375 34.3867188,31.671875 34.3867188,32.3203125 C34.3867188,32.9609375 33.8632812,33.4921875 33.1992188,33.4921875 Z M35.8632812,43 L35.8632812,34.625 L38.0664062,34.625 L38.0664062,36.1171875 L38.1132812,36.1171875 C38.5585938,35.078125 39.4414062,34.46875 40.7304688,34.46875 C42.5898438,34.46875 43.6367188,35.640625 43.6367188,37.6015625 L43.6367188,43 L41.3554688,43 L41.3554688,38.078125 C41.3554688,36.984375 40.8398438,36.359375 39.8164062,36.359375 C38.7929688,36.359375 38.1445312,37.109375 38.1445312,38.1953125 L38.1445312,43 L35.8632812,43 Z M47.4492188,37.984375 L50.2929688,34.625 L52.8789062,34.625 L49.6835938,38.21875 L53.0351562,43 L50.4101562,43 L48.0117188,39.59375 L47.4179688,40.234375 L47.4179688,43 L45.1367188,43 L45.1367188,31.7265625 L47.4179688,31.7265625 L47.4179688,37.984375 L47.4492188,37.984375 Z" id="sink" fill="#FFFFFF" fill-rule="nonzero"></path>
                </g>
                <g id="Sink-2" transform="translate(80.000000, 124.000000)">
                    <circle id="Oval-Copy" fill="#001B3D" cx="37.5" cy="37.5" r="37.5"></circle>
                    <path d="M23.6523438,37.0859375 C23.6523438,35.4921875 25.0273438,34.4453125 27.1601562,34.4453125 C29.3085938,34.4453125 30.6367188,35.546875 30.6835938,37.1875 L28.5820312,37.1875 C28.5117188,36.5078125 28.0039062,36.046875 27.1601562,36.046875 C26.3710938,36.046875 25.8476562,36.40625 25.8476562,36.9609375 C25.8476562,37.390625 26.1601562,37.6796875 27.0039062,37.859375 L28.4335938,38.1640625 C30.1835938,38.53125 30.9023438,39.21875 30.9023438,40.4453125 C30.9023438,42.09375 29.3945312,43.1796875 27.2382812,43.1796875 C24.9257812,43.1796875 23.5898438,42.1015625 23.4414062,40.453125 L25.6679688,40.453125 C25.8085938,41.1875 26.3320312,41.578125 27.2382812,41.578125 C28.0976562,41.578125 28.6289062,41.2265625 28.6289062,40.6796875 C28.6289062,40.234375 28.3398438,39.984375 27.5195312,39.796875 L26.0898438,39.5 C24.4726562,39.15625 23.6523438,38.34375 23.6523438,37.0859375 Z M32.0664062,43 L32.0664062,34.625 L34.3476562,34.625 L34.3476562,43 L32.0664062,43 Z M33.1992188,33.4921875 C32.5351562,33.4921875 32.0117188,32.9609375 32.0117188,32.3203125 C32.0117188,31.671875 32.5351562,31.1484375 33.1992188,31.1484375 C33.8632812,31.1484375 34.3867188,31.671875 34.3867188,32.3203125 C34.3867188,32.9609375 33.8632812,33.4921875 33.1992188,33.4921875 Z M35.8632812,43 L35.8632812,34.625 L38.0664062,34.625 L38.0664062,36.1171875 L38.1132812,36.1171875 C38.5585938,35.078125 39.4414062,34.46875 40.7304688,34.46875 C42.5898438,34.46875 43.6367188,35.640625 43.6367188,37.6015625 L43.6367188,43 L41.3554688,43 L41.3554688,38.078125 C41.3554688,36.984375 40.8398438,36.359375 39.8164062,36.359375 C38.7929688,36.359375 38.1445312,37.109375 38.1445312,38.1953125 L38.1445312,43 L35.8632812,43 Z M47.4492188,37.984375 L50.2929688,34.625 L52.8789062,34.625 L49.6835938,38.21875 L53.0351562,43 L50.4101562,43 L48.0117188,39.59375 L47.4179688,40.234375 L47.4179688,43 L45.1367188,43 L45.1367188,31.7265625 L47.4179688,31.7265625 L47.4179688,37.984375 L47.4492188,37.984375 Z" id="sink" fill="#FFFFFF" fill-rule="nonzero"></path>
                </g>
                <g id="Sink-1" transform="translate(0.000000, 58.000000)">
                    <circle id="Oval-Copy-2" fill="#001B3D" cx="37.5" cy="37.5" r="37.5"></circle>
                    <path d="M23.6523438,38.0859375 C23.6523438,36.4921875 25.0273438,35.4453125 27.1601562,35.4453125 C29.3085938,35.4453125 30.6367188,36.546875 30.6835938,38.1875 L28.5820312,38.1875 C28.5117188,37.5078125 28.0039062,37.046875 27.1601562,37.046875 C26.3710938,37.046875 25.8476562,37.40625 25.8476562,37.9609375 C25.8476562,38.390625 26.1601562,38.6796875 27.0039062,38.859375 L28.4335938,39.1640625 C30.1835938,39.53125 30.9023438,40.21875 30.9023438,41.4453125 C30.9023438,43.09375 29.3945312,44.1796875 27.2382812,44.1796875 C24.9257812,44.1796875 23.5898438,43.1015625 23.4414062,41.453125 L25.6679688,41.453125 C25.8085938,42.1875 26.3320312,42.578125 27.2382812,42.578125 C28.0976562,42.578125 28.6289062,42.2265625 28.6289062,41.6796875 C28.6289062,41.234375 28.3398438,40.984375 27.5195312,40.796875 L26.0898438,40.5 C24.4726562,40.15625 23.6523438,39.34375 23.6523438,38.0859375 Z M32.0664062,44 L32.0664062,35.625 L34.3476562,35.625 L34.3476562,44 L32.0664062,44 Z M33.1992188,34.4921875 C32.5351562,34.4921875 32.0117188,33.9609375 32.0117188,33.3203125 C32.0117188,32.671875 32.5351562,32.1484375 33.1992188,32.1484375 C33.8632812,32.1484375 34.3867188,32.671875 34.3867188,33.3203125 C34.3867188,33.9609375 33.8632812,34.4921875 33.1992188,34.4921875 Z M35.8632812,44 L35.8632812,35.625 L38.0664062,35.625 L38.0664062,37.1171875 L38.1132812,37.1171875 C38.5585938,36.078125 39.4414062,35.46875 40.7304688,35.46875 C42.5898438,35.46875 43.6367188,36.640625 43.6367188,38.6015625 L43.6367188,44 L41.3554688,44 L41.3554688,39.078125 C41.3554688,37.984375 40.8398438,37.359375 39.8164062,37.359375 C38.7929688,37.359375 38.1445312,38.109375 38.1445312,39.1953125 L38.1445312,44 L35.8632812,44 Z M47.4492188,38.984375 L50.2929688,35.625 L52.8789062,35.625 L49.6835938,39.21875 L53.0351562,44 L50.4101562,44 L48.0117188,40.59375 L47.4179688,41.234375 L47.4179688,44 L45.1367188,44 L45.1367188,32.7265625 L47.4179688,32.7265625 L47.4179688,38.984375 L47.4492188,38.984375 Z" id="sink" fill="#FFFFFF" fill-rule="nonzero"></path>
                </g>
                <path d="M16.154,15.382 C16.6380024,15.382 17.0376651,15.3416671 17.353,15.261 C17.6683349,15.1803329 17.9213324,15.070334 18.112,14.931 C18.3026676,14.791666 18.4346663,14.6266676 18.508,14.436 C18.5813337,14.2453324 18.618,14.0326678 18.618,13.798 C18.618,13.2993308 18.3833357,12.8850016 17.914,12.555 C17.4446643,12.2249983 16.6380057,11.8693352 15.494,11.488 C14.9953308,11.3119991 14.4966692,11.1103345 13.998,10.883 C13.4993308,10.6556655 13.052002,10.3696684 12.656,10.025 C12.259998,9.68033161 11.9373346,9.26233579 11.688,8.771 C11.4386654,8.27966421 11.314,7.68200352 11.314,6.978 C11.314,6.27399648 11.4459987,5.63966949 11.71,5.075 C11.9740013,4.51033051 12.3479976,4.03000198 12.832,3.634 C13.3160024,3.23799802 13.9026632,2.93366773 14.592,2.721 C15.2813368,2.50833227 16.0586623,2.402 16.924,2.402 C17.9506718,2.402 18.8379963,2.5119989 19.586,2.732 C20.3340037,2.9520011 20.9499976,3.19399868 21.434,3.458 L20.444,6.164 C20.0186645,5.9439989 19.5456693,5.74966751 19.025,5.581 C18.5043307,5.41233249 17.877337,5.328 17.144,5.328 C16.3226626,5.328 15.7323351,5.44166553 15.373,5.669 C15.0136649,5.89633447 14.834,6.24466432 14.834,6.714 C14.834,6.99266806 14.8999993,7.22733238 15.032,7.418 C15.1640007,7.60866762 15.3509988,7.78099923 15.593,7.935 C15.8350012,8.08900077 16.1136651,8.22833271 16.429,8.353 C16.7443349,8.47766729 17.0926648,8.60599934 17.474,8.738 C18.266004,9.0313348 18.9553304,9.32099857 19.542,9.607 C20.1286696,9.89300143 20.6163314,10.2266648 21.005,10.608 C21.3936686,10.9893352 21.6833324,11.4366641 21.874,11.95 C22.0646676,12.4633359 22.16,13.086663 22.16,13.82 C22.16,15.2426738 21.6613383,16.3463294 20.664,17.131 C19.6666617,17.9156706 18.1633434,18.308 16.154,18.308 C15.47933,18.308 14.8706694,18.2676671 14.328,18.187 C13.7853306,18.1063329 13.3050021,18.0073339 12.887,17.89 C12.4689979,17.7726661 12.1096682,17.6480007 11.809,17.516 C11.5083318,17.3839993 11.2553344,17.2593339 11.05,17.142 L12.018,14.414 C12.4726689,14.6633346 13.0336633,14.886999 13.701,15.085 C14.3683367,15.283001 15.1859952,15.382 16.154,15.382 Z M27.858,18 L24.58,18 L24.58,6.428 L27.858,6.428 L27.858,18 Z M28.166,3.084 C28.166,3.68533634 27.9716686,4.15833161 27.583,4.503 C27.1943314,4.84766839 26.7360026,5.02 26.208,5.02 C25.6799974,5.02 25.2216686,4.84766839 24.833,4.503 C24.4443314,4.15833161 24.25,3.68533634 24.25,3.084 C24.25,2.48266366 24.4443314,2.00966839 24.833,1.665 C25.2216686,1.32033161 25.6799974,1.148 26.208,1.148 C26.7360026,1.148 27.1943314,1.32033161 27.583,1.665 C27.9716686,2.00966839 28.166,2.48266366 28.166,3.084 Z M30.938,6.824 C31.4953361,6.66266586 32.2139956,6.51233403 33.094,6.373 C33.9740044,6.23366597 34.8979952,6.164 35.866,6.164 C36.8486716,6.164 37.6663301,6.29233205 38.319,6.549 C38.9716699,6.80566795 39.4886648,7.16866432 39.87,7.638 C40.2513352,8.10733568 40.5226659,8.66466344 40.684,9.31 C40.8453341,9.95533656 40.926,10.673996 40.926,11.466 L40.926,18 L37.648,18 L37.648,11.862 C37.648,10.8059947 37.5086681,10.0580022 37.23,9.618 C36.9513319,9.1779978 36.4306705,8.958 35.668,8.958 C35.4333322,8.958 35.1840013,8.96899989 34.92,8.991 C34.6559987,9.01300011 34.4213344,9.03866652 34.216,9.068 L34.216,18 L30.938,18 L30.938,6.824 Z M47.174,10.608 C47.4966683,10.2559982 47.8303316,9.88933524 48.175,9.508 C48.5196684,9.12666476 48.8533317,8.74900187 49.176,8.375 C49.4986683,8.00099813 49.8029986,7.64533502 50.089,7.308 C50.3750014,6.97066498 50.6206656,6.67733458 50.826,6.428 L54.72,6.428 C53.9426628,7.32267114 53.1836704,8.17699593 52.443,8.991 C51.7023296,9.80500407 50.8920044,10.6446623 50.012,11.51 C50.4520022,11.906002 50.9066643,12.3789972 51.376,12.929 C51.8453357,13.4790027 52.2999978,14.0473304 52.74,14.634 C53.1800022,15.2206696 53.5833315,15.8073304 53.95,16.394 C54.3166685,16.9806696 54.6246654,17.5159976 54.874,18 L51.112,18 C50.8773322,17.6186648 50.6096682,17.1970023 50.309,16.735 C50.0083318,16.2729977 49.689335,15.8110023 49.352,15.349 C49.014665,14.8869977 48.6590019,14.4433355 48.285,14.018 C47.9109981,13.5926645 47.5406685,13.2333348 47.174,12.94 L47.174,18 L43.896,18 L43.896,1.456 L47.174,0.928 L47.174,10.608 Z M59.956,15.646 C60.5573363,15.646 60.9826654,15.5873339 61.232,15.47 C61.4813346,15.3526661 61.606,15.125335 61.606,14.788 C61.606,14.5239987 61.4446683,14.293001 61.122,14.095 C60.7993317,13.896999 60.3080033,13.6733346 59.648,13.424 C59.1346641,13.2333324 58.6690021,13.0353344 58.251,12.83 C57.8329979,12.6246656 57.4773348,12.3790014 57.184,12.093 C56.8906652,11.8069986 56.6633341,11.466002 56.502,11.07 C56.3406659,10.673998 56.26,10.1973361 56.26,9.64 C56.26,8.55466124 56.6633293,7.69666982 57.47,7.066 C58.2766707,6.43533018 59.383993,6.12 60.792,6.12 C61.4960035,6.12 62.1706634,6.18233271 62.816,6.307 C63.4613366,6.43166729 63.9746648,6.5673326 64.356,6.714 L63.784,9.266 C63.4026648,9.13399934 62.9883356,9.01666718 62.541,8.914 C62.0936644,8.81133282 61.5913361,8.76 61.034,8.76 C60.0073282,8.76 59.494,9.04599714 59.494,9.618 C59.494,9.75000066 59.5159998,9.86733282 59.56,9.97 C59.6040002,10.0726672 59.6919993,10.1716662 59.824,10.267 C59.9560007,10.3623338 60.1356655,10.4649994 60.363,10.575 C60.5903345,10.6850005 60.8799982,10.8059993 61.232,10.938 C61.9506703,11.2020013 62.5446643,11.462332 63.014,11.719 C63.4833357,11.9756679 63.8536653,12.2543318 64.125,12.555 C64.3963347,12.8556682 64.5869995,13.1893315 64.697,13.556 C64.8070006,13.9226685 64.862,14.3479976 64.862,14.832 C64.862,15.9760057 64.4330043,16.8413304 63.575,17.428 C62.7169957,18.0146696 61.5033412,18.308 59.934,18.308 C58.9073282,18.308 58.0530034,18.2200009 57.371,18.044 C56.6889966,17.8679991 56.2160013,17.7213339 55.952,17.604 L56.502,14.942 C57.0593361,15.1620011 57.6313304,15.3343327 58.218,15.459 C58.8046696,15.5836673 59.3839971,15.646 59.956,15.646 Z" fill="#001B3D" fill-rule="nonzero"></path>
            </g>
            <g id="Dividers" transform="translate(210.000000, 125.000000)" fill="#000000" fill-rule="nonzero">
                <polygon id="Line-3" points="0 4 0 297.5 2 297.5 2 4"></polygon>
                <polygon id="Line-3" points="300 0 300 300 302 300 302 0"></polygon>
            </g>
            <g id="Sink-Arrows" transform="translate(484.000000, 233.000000)" fill="#001B3D" fill-rule="nonzero">
                <path id="Line-2" d="M122.274956,64.2259684 L120,64.2259684 L120,62.2259684 L122.274956,62.2259684 L122.274956,56.2259684 L136.274956,63.2259684 L122.274956,70.2259684 L122.274956,64.2259684 Z M0,64.2259684 L0,62.2259684 L7,62.2259684 L7,64.2259684 L0,64.2259684 Z M10,64.2259684 L10,62.2259684 L17,62.2259684 L17,64.2259684 L10,64.2259684 Z M20,64.2259684 L20,62.2259684 L27,62.2259684 L27,64.2259684 L20,64.2259684 Z M30,64.2259684 L30,62.2259684 L37,62.2259684 L37,64.2259684 L30,64.2259684 Z M40,64.2259684 L40,62.2259684 L47,62.2259684 L47,64.2259684 L40,64.2259684 Z M50,64.2259684 L50,62.2259684 L57,62.2259684 L57,64.2259684 L50,64.2259684 Z M60,64.2259684 L60,62.2259684 L67,62.2259684 L67,64.2259684 L60,64.2259684 Z M70,64.2259684 L70,62.2259684 L77,62.2259684 L77,64.2259684 L70,64.2259684 Z M80,64.2259684 L80,62.2259684 L87,62.2259684 L87,64.2259684 L80,64.2259684 Z M90,64.2259684 L90,62.2259684 L97,62.2259684 L97,64.2259684 L90,64.2259684 Z M100,64.2259684 L100,62.2259684 L107,62.2259684 L107,64.2259684 L100,64.2259684 Z M110,64.2259684 L110,62.2259684 L117,62.2259684 L117,64.2259684 L110,64.2259684 Z"></path>
                <path id="Line-2" d="M53,123.225968 L39,130.225968 L39,116.225968 L53,123.225968 Z M-2.22044605e-16,124.225968 L-2.22044605e-16,122.225968 L7,122.225968 L7,124.225968 L-2.22044605e-16,124.225968 Z M10,124.225968 L10,122.225968 L17,122.225968 L17,124.225968 L10,124.225968 Z M20,124.225968 L20,122.225968 L27,122.225968 L27,124.225968 L20,124.225968 Z M30,124.225968 L30,122.225968 L37,122.225968 L37,124.225968 L30,124.225968 Z"></path>
                <path id="Line-2" d="M53,0.5 L39,7.5 L39,-6.5 L53,0.5 Z M0,1.5 L0,-0.5 L14,-0.5 L14,1.5 L0,1.5 Z M24,1.5 L24,-0.5 L38,-0.5 L38,1.5 L24,1.5 Z"></path>
            </g>
            <path d="M260.322,426.874 C260.322,427.622004 260.237668,428.325997 260.069,428.986 C259.900332,429.646003 259.607002,430.221664 259.189,430.713 C258.770998,431.204336 258.206337,431.592999 257.495,431.879 C256.783663,432.165001 255.885339,432.308 254.8,432.308 C253.802662,432.308 252.94467,432.187001 252.226,431.945 C251.50733,431.702999 250.913336,431.420668 250.444,431.098 L251.588,428.436 C252.013335,428.685335 252.467998,428.905332 252.952,429.096 C253.436002,429.286668 253.963997,429.382 254.536,429.382 C255.372004,429.382 255.973332,429.176669 256.34,428.766 C256.706668,428.355331 256.89,427.666005 256.89,426.698 L256.89,416.754 L260.322,416.754 L260.322,426.874 Z M267.78,429.382 C268.264002,429.382 268.663665,429.341667 268.979,429.261 C269.294335,429.180333 269.547332,429.070334 269.738,428.931 C269.928668,428.791666 270.060666,428.626668 270.134,428.436 C270.207334,428.245332 270.244,428.032668 270.244,427.798 C270.244,427.299331 270.009336,426.885002 269.54,426.555 C269.070664,426.224998 268.264006,425.869335 267.12,425.488 C266.621331,425.311999 266.122669,425.110334 265.624,424.883 C265.125331,424.655666 264.678002,424.369668 264.282,424.025 C263.885998,423.680332 263.563335,423.262336 263.314,422.771 C263.064665,422.279664 262.94,421.682004 262.94,420.978 C262.94,420.273996 263.071999,419.639669 263.336,419.075 C263.600001,418.510331 263.973998,418.030002 264.458,417.634 C264.942002,417.237998 265.528663,416.933668 266.218,416.721 C266.907337,416.508332 267.684662,416.402 268.55,416.402 C269.576672,416.402 270.463996,416.511999 271.212,416.732 C271.960004,416.952001 272.575998,417.193999 273.06,417.458 L272.07,420.164 C271.644665,419.943999 271.171669,419.749668 270.651,419.581 C270.130331,419.412332 269.503337,419.328 268.77,419.328 C267.948663,419.328 267.358335,419.441666 266.999,419.669 C266.639665,419.896334 266.46,420.244664 266.46,420.714 C266.46,420.992668 266.525999,421.227332 266.658,421.418 C266.790001,421.608668 266.976999,421.780999 267.219,421.935 C267.461001,422.089001 267.739665,422.228333 268.055,422.353 C268.370335,422.477667 268.718665,422.605999 269.1,422.738 C269.892004,423.031335 270.58133,423.320999 271.168,423.607 C271.75467,423.893001 272.242331,424.226665 272.631,424.608 C273.019669,424.989335 273.309332,425.436664 273.5,425.95 C273.690668,426.463336 273.786,427.086663 273.786,427.82 C273.786,429.242674 273.287338,430.346329 272.29,431.131 C271.292662,431.915671 269.789343,432.308 267.78,432.308 C267.10533,432.308 266.496669,432.267667 265.954,432.187 C265.411331,432.106333 264.931002,432.007334 264.513,431.89 C264.094998,431.772666 263.735668,431.648001 263.435,431.516 C263.134332,431.383999 262.881334,431.259334 262.676,431.142 L263.644,428.414 C264.098669,428.663335 264.659663,428.886999 265.327,429.085 C265.994337,429.283001 266.811995,429.382 267.78,429.382 Z M279.308,424.366 C279.308,425.114004 279.399666,425.788664 279.583,426.39 C279.766334,426.991336 280.030332,427.508331 280.375,427.941 C280.719668,428.373669 281.141331,428.707332 281.64,428.942 C282.138669,429.176668 282.710663,429.294 283.356,429.294 C283.98667,429.294 284.554997,429.176668 285.061,428.942 C285.567003,428.707332 285.992332,428.373669 286.337,427.941 C286.681668,427.508331 286.945666,426.991336 287.129,426.39 C287.312334,425.788664 287.404,425.114004 287.404,424.366 C287.404,423.617996 287.312334,422.93967 287.129,422.331 C286.945666,421.72233 286.681668,421.201669 286.337,420.769 C285.992332,420.336331 285.567003,420.002668 285.061,419.768 C284.554997,419.533332 283.98667,419.416 283.356,419.416 C282.710663,419.416 282.138669,419.536999 281.64,419.779 C281.141331,420.021001 280.719668,420.358331 280.375,420.791 C280.030332,421.223669 279.766334,421.74433 279.583,422.353 C279.399666,422.96167 279.308,423.632663 279.308,424.366 Z M290.946,424.366 C290.946,425.67134 290.751669,426.818995 290.363,427.809 C289.974331,428.799005 289.44267,429.627663 288.768,430.295 C288.09333,430.962337 287.290338,431.464665 286.359,431.802 C285.427662,432.139335 284.426672,432.308 283.356,432.308 C282.314661,432.308 281.332005,432.139335 280.408,431.802 C279.483995,431.464665 278.677337,430.962337 277.988,430.295 C277.298663,429.627663 276.756002,428.799005 276.36,427.809 C275.963998,426.818995 275.766,425.67134 275.766,424.366 C275.766,423.06066 275.971331,421.913005 276.382,420.923 C276.792669,419.932995 277.34633,419.10067 278.043,418.426 C278.73967,417.75133 279.546329,417.245335 280.463,416.908 C281.379671,416.570665 282.343995,416.402 283.356,416.402 C284.397339,416.402 285.379995,416.570665 286.304,416.908 C287.228005,417.245335 288.034663,417.75133 288.724,418.426 C289.413337,419.10067 289.955998,419.932995 290.352,420.923 C290.748002,421.913005 290.946,423.06066 290.946,424.366 Z M304.036,432 C303.053328,430.254658 301.990006,428.531342 300.846,426.83 C299.701994,425.128658 298.484673,423.522674 297.194,422.012 L297.194,432 L293.806,432 L293.806,416.754 L296.6,416.754 C297.084002,417.238002 297.61933,417.831996 298.206,418.536 C298.79267,419.240004 299.39033,419.991663 299.999,420.791 C300.60767,421.590337 301.212664,422.418996 301.814,423.277 C302.415336,424.135004 302.979997,424.959996 303.508,425.752 L303.508,416.754 L306.918,416.754 L306.918,432 L304.036,432 Z M320.294,416.578 C322.567345,416.578 324.312661,416.977663 325.53,417.777 C326.747339,418.576337 327.356,419.885324 327.356,421.704 C327.356,423.537343 326.740006,424.860996 325.508,425.675 C324.275994,426.489004 322.516011,426.896 320.228,426.896 L319.15,426.896 L319.15,432 L315.718,432 L315.718,416.974 C316.466004,416.827333 317.257996,416.724667 318.094,416.666 C318.930004,416.607333 319.66333,416.578 320.294,416.578 Z M320.514,419.504 C320.264665,419.504 320.019001,419.511333 319.777,419.526 C319.534999,419.540667 319.326001,419.555333 319.15,419.57 L319.15,423.97 L320.228,423.97 C321.416006,423.97 322.310664,423.808668 322.912,423.486 C323.513336,423.163332 323.814,422.562004 323.814,421.682 C323.814,421.256665 323.737001,420.904668 323.583,420.626 C323.428999,420.347332 323.209001,420.123668 322.923,419.955 C322.636999,419.786332 322.288669,419.669 321.878,419.603 C321.467331,419.537 321.012669,419.504 320.514,419.504 Z M333.648,429.712 C333.970668,429.712 334.278665,429.704667 334.572,429.69 C334.865335,429.675333 335.099999,429.653333 335.276,429.624 L335.276,427.138 C335.143999,427.108667 334.946001,427.079333 334.682,427.05 C334.417999,427.020667 334.176001,427.006 333.956,427.006 C333.647998,427.006 333.358335,427.024333 333.087,427.061 C332.815665,427.097667 332.577334,427.167333 332.372,427.27 C332.166666,427.372667 332.005334,427.511999 331.888,427.688 C331.770666,427.864001 331.712,428.083999 331.712,428.348 C331.712,428.861336 331.884332,429.216999 332.229,429.415 C332.573668,429.613001 333.046664,429.712 333.648,429.712 Z M333.384,420.12 C334.352005,420.12 335.158663,420.229999 335.804,420.45 C336.449337,420.670001 336.966331,420.985331 337.355,421.396 C337.743669,421.806669 338.018666,422.30533 338.18,422.892 C338.341334,423.47867 338.422,424.13133 338.422,424.85 L338.422,431.67 C337.952664,431.772667 337.300004,431.893666 336.464,432.033 C335.627996,432.172334 334.616006,432.242 333.428,432.242 C332.679996,432.242 332.00167,432.176001 331.393,432.044 C330.78433,431.911999 330.260002,431.695668 329.82,431.395 C329.379998,431.094332 329.042668,430.702002 328.808,430.218 C328.573332,429.733998 328.456,429.140004 328.456,428.436 C328.456,427.76133 328.591665,427.189336 328.863,426.72 C329.134335,426.250664 329.497331,425.876668 329.952,425.598 C330.406669,425.319332 330.92733,425.117667 331.514,424.993 C332.10067,424.868333 332.70933,424.806 333.34,424.806 C333.765335,424.806 334.142998,424.824333 334.473,424.861 C334.803002,424.897667 335.070666,424.945333 335.276,425.004 L335.276,424.696 C335.276,424.138664 335.107335,423.691335 334.77,423.354 C334.432665,423.016665 333.846004,422.848 333.01,422.848 C332.452664,422.848 331.902669,422.888333 331.36,422.969 C330.817331,423.049667 330.348002,423.163333 329.952,423.31 L329.534,420.67 C329.724668,420.611333 329.962999,420.549 330.249,420.483 C330.535001,420.417 330.846665,420.358334 331.184,420.307 C331.521335,420.255666 331.876998,420.211667 332.251,420.175 C332.625002,420.138333 333.002665,420.12 333.384,420.12 Z M348.366,423.332 C348.072665,423.258666 347.728002,423.181667 347.332,423.101 C346.935998,423.020333 346.510669,422.98 346.056,422.98 C345.850666,422.98 345.605001,422.998333 345.319,423.035 C345.032999,423.071667 344.816667,423.112 344.67,423.156 L344.67,432 L341.392,432 L341.392,421.044 C341.97867,420.838666 342.671663,420.644334 343.471,420.461 C344.270337,420.277666 345.161328,420.186 346.144,420.186 C346.320001,420.186 346.532665,420.197 346.782,420.219 C347.031335,420.241 347.280665,420.270333 347.53,420.307 C347.779335,420.343667 348.028665,420.387666 348.278,420.439 C348.527335,420.490334 348.739999,420.552666 348.916,420.626 L348.366,423.332 Z M353.998,429.646 C354.599336,429.646 355.024665,429.587334 355.274,429.47 C355.523335,429.352666 355.648,429.125335 355.648,428.788 C355.648,428.523999 355.486668,428.293001 355.164,428.095 C354.841332,427.896999 354.350003,427.673335 353.69,427.424 C353.176664,427.233332 352.711002,427.035334 352.293,426.83 C351.874998,426.624666 351.519335,426.379001 351.226,426.093 C350.932665,425.806999 350.705334,425.466002 350.544,425.07 C350.382666,424.673998 350.302,424.197336 350.302,423.64 C350.302,422.554661 350.705329,421.69667 351.512,421.066 C352.318671,420.43533 353.425993,420.12 354.834,420.12 C355.538004,420.12 356.212663,420.182333 356.858,420.307 C357.503337,420.431667 358.016665,420.567333 358.398,420.714 L357.826,423.266 C357.444665,423.133999 357.030336,423.016667 356.583,422.914 C356.135664,422.811333 355.633336,422.76 355.076,422.76 C354.049328,422.76 353.536,423.045997 353.536,423.618 C353.536,423.750001 353.558,423.867333 353.602,423.97 C353.646,424.072667 353.733999,424.171666 353.866,424.267 C353.998001,424.362334 354.177666,424.464999 354.405,424.575 C354.632334,424.685001 354.921998,424.805999 355.274,424.938 C355.99267,425.202001 356.586664,425.462332 357.056,425.719 C357.525336,425.975668 357.895665,426.254332 358.167,426.555 C358.438335,426.855668 358.628999,427.189331 358.739,427.556 C358.849001,427.922668 358.904,428.347998 358.904,428.832 C358.904,429.976006 358.475004,430.84133 357.617,431.428 C356.758996,432.01467 355.545341,432.308 353.976,432.308 C352.949328,432.308 352.095003,432.220001 351.413,432.044 C350.730997,431.867999 350.258001,431.721334 349.994,431.604 L350.544,428.942 C351.101336,429.162001 351.67333,429.334333 352.26,429.459 C352.84667,429.583667 353.425997,429.646 353.998,429.646 Z M360.796,426.302 C360.796,425.275328 360.953665,424.377004 361.269,423.607 C361.584335,422.836996 361.998664,422.195336 362.512,421.682 C363.025336,421.168664 363.615663,420.780001 364.283,420.516 C364.950337,420.251999 365.635996,420.12 366.34,420.12 C367.982675,420.12 369.280662,420.622328 370.234,421.627 C371.187338,422.631672 371.664,424.109324 371.664,426.06 C371.664,426.250668 371.656667,426.459666 371.642,426.687 C371.627333,426.914334 371.612667,427.115999 371.598,427.292 L364.162,427.292 C364.235334,427.96667 364.550664,428.501998 365.108,428.898 C365.665336,429.294002 366.413329,429.492 367.352,429.492 C367.953336,429.492 368.543664,429.437001 369.123,429.327 C369.702336,429.216999 370.175331,429.081334 370.542,428.92 L370.982,431.582 C370.805999,431.67 370.571335,431.758 370.278,431.846 C369.984665,431.934 369.658335,432.011 369.299,432.077 C368.939665,432.143 368.554669,432.198 368.144,432.242 C367.733331,432.286 367.322669,432.308 366.912,432.308 C365.870661,432.308 364.965004,432.154002 364.195,431.846 C363.424996,431.537998 362.787003,431.116336 362.281,430.581 C361.774997,430.045664 361.401001,429.411337 361.159,428.678 C360.916999,427.944663 360.796,427.152671 360.796,426.302 Z M368.496,425.048 C368.481333,424.769332 368.433667,424.498001 368.353,424.234 C368.272333,423.969999 368.147668,423.735334 367.979,423.53 C367.810332,423.324666 367.597668,423.156001 367.341,423.024 C367.084332,422.891999 366.765335,422.826 366.384,422.826 C366.017332,422.826 365.702001,422.888333 365.438,423.013 C365.173999,423.137667 364.954001,423.302666 364.778,423.508 C364.601999,423.713334 364.466334,423.951665 364.371,424.223 C364.275666,424.494335 364.206,424.769332 364.162,425.048 L368.496,425.048 Z M381.168,423.332 C380.874665,423.258666 380.530002,423.181667 380.134,423.101 C379.737998,423.020333 379.312669,422.98 378.858,422.98 C378.652666,422.98 378.407001,422.998333 378.121,423.035 C377.834999,423.071667 377.618667,423.112 377.472,423.156 L377.472,432 L374.194,432 L374.194,421.044 C374.78067,420.838666 375.473663,420.644334 376.273,420.461 C377.072337,420.277666 377.963328,420.186 378.946,420.186 C379.122001,420.186 379.334665,420.197 379.584,420.219 C379.833335,420.241 380.082665,420.270333 380.332,420.307 C380.581335,420.343667 380.830665,420.387666 381.08,420.439 C381.329335,420.490334 381.541999,420.552666 381.718,420.626 L381.168,423.332 Z M400.286,416.754 L400.286,419.68 L395.688,419.68 L395.688,432 L392.256,432 L392.256,419.68 L387.658,419.68 L387.658,416.754 L400.286,416.754 Z M407.722,423.332 C407.428665,423.258666 407.084002,423.181667 406.688,423.101 C406.291998,423.020333 405.866669,422.98 405.412,422.98 C405.206666,422.98 404.961001,422.998333 404.675,423.035 C404.388999,423.071667 404.172667,423.112 404.026,423.156 L404.026,432 L400.748,432 L400.748,421.044 C401.33467,420.838666 402.027663,420.644334 402.827,420.461 C403.626337,420.277666 404.517328,420.186 405.5,420.186 C405.676001,420.186 405.888665,420.197 406.138,420.219 C406.387335,420.241 406.636665,420.270333 406.886,420.307 C407.135335,420.343667 407.384665,420.387666 407.634,420.439 C407.883335,420.490334 408.095999,420.552666 408.272,420.626 L407.722,423.332 Z M414.234,429.712 C414.556668,429.712 414.864665,429.704667 415.158,429.69 C415.451335,429.675333 415.685999,429.653333 415.862,429.624 L415.862,427.138 C415.729999,427.108667 415.532001,427.079333 415.268,427.05 C415.003999,427.020667 414.762001,427.006 414.542,427.006 C414.233998,427.006 413.944335,427.024333 413.673,427.061 C413.401665,427.097667 413.163334,427.167333 412.958,427.27 C412.752666,427.372667 412.591334,427.511999 412.474,427.688 C412.356666,427.864001 412.298,428.083999 412.298,428.348 C412.298,428.861336 412.470332,429.216999 412.815,429.415 C413.159668,429.613001 413.632664,429.712 414.234,429.712 Z M413.97,420.12 C414.938005,420.12 415.744663,420.229999 416.39,420.45 C417.035337,420.670001 417.552331,420.985331 417.941,421.396 C418.329669,421.806669 418.604666,422.30533 418.766,422.892 C418.927334,423.47867 419.008,424.13133 419.008,424.85 L419.008,431.67 C418.538664,431.772667 417.886004,431.893666 417.05,432.033 C416.213996,432.172334 415.202006,432.242 414.014,432.242 C413.265996,432.242 412.58767,432.176001 411.979,432.044 C411.37033,431.911999 410.846002,431.695668 410.406,431.395 C409.965998,431.094332 409.628668,430.702002 409.394,430.218 C409.159332,429.733998 409.042,429.140004 409.042,428.436 C409.042,427.76133 409.177665,427.189336 409.449,426.72 C409.720335,426.250664 410.083331,425.876668 410.538,425.598 C410.992669,425.319332 411.51333,425.117667 412.1,424.993 C412.68667,424.868333 413.29533,424.806 413.926,424.806 C414.351335,424.806 414.728998,424.824333 415.059,424.861 C415.389002,424.897667 415.656666,424.945333 415.862,425.004 L415.862,424.696 C415.862,424.138664 415.693335,423.691335 415.356,423.354 C415.018665,423.016665 414.432004,422.848 413.596,422.848 C413.038664,422.848 412.488669,422.888333 411.946,422.969 C411.403331,423.049667 410.934002,423.163333 410.538,423.31 L410.12,420.67 C410.310668,420.611333 410.548999,420.549 410.835,420.483 C411.121001,420.417 411.432665,420.358334 411.77,420.307 C412.107335,420.255666 412.462998,420.211667 412.837,420.175 C413.211002,420.138333 413.588665,420.12 413.97,420.12 Z M421.978,420.824 C422.535336,420.662666 423.253996,420.512334 424.134,420.373 C425.014004,420.233666 425.937995,420.164 426.906,420.164 C427.888672,420.164 428.70633,420.292332 429.359,420.549 C430.01167,420.805668 430.528665,421.168664 430.91,421.638 C431.291335,422.107336 431.562666,422.664663 431.724,423.31 C431.885334,423.955337 431.966,424.673996 431.966,425.466 L431.966,432 L428.688,432 L428.688,425.862 C428.688,424.805995 428.548668,424.058002 428.27,423.618 C427.991332,423.177998 427.47067,422.958 426.708,422.958 C426.473332,422.958 426.224001,422.969 425.96,422.991 C425.695999,423.013 425.461334,423.038667 425.256,423.068 L425.256,432 L421.978,432 L421.978,420.824 Z M438.258,429.646 C438.859336,429.646 439.284665,429.587334 439.534,429.47 C439.783335,429.352666 439.908,429.125335 439.908,428.788 C439.908,428.523999 439.746668,428.293001 439.424,428.095 C439.101332,427.896999 438.610003,427.673335 437.95,427.424 C437.436664,427.233332 436.971002,427.035334 436.553,426.83 C436.134998,426.624666 435.779335,426.379001 435.486,426.093 C435.192665,425.806999 434.965334,425.466002 434.804,425.07 C434.642666,424.673998 434.562,424.197336 434.562,423.64 C434.562,422.554661 434.965329,421.69667 435.772,421.066 C436.578671,420.43533 437.685993,420.12 439.094,420.12 C439.798004,420.12 440.472663,420.182333 441.118,420.307 C441.763337,420.431667 442.276665,420.567333 442.658,420.714 L442.086,423.266 C441.704665,423.133999 441.290336,423.016667 440.843,422.914 C440.395664,422.811333 439.893336,422.76 439.336,422.76 C438.309328,422.76 437.796,423.045997 437.796,423.618 C437.796,423.750001 437.818,423.867333 437.862,423.97 C437.906,424.072667 437.993999,424.171666 438.126,424.267 C438.258001,424.362334 438.437666,424.464999 438.665,424.575 C438.892334,424.685001 439.181998,424.805999 439.534,424.938 C440.25267,425.202001 440.846664,425.462332 441.316,425.719 C441.785336,425.975668 442.155665,426.254332 442.427,426.555 C442.698335,426.855668 442.888999,427.189331 442.999,427.556 C443.109001,427.922668 443.164,428.347998 443.164,428.832 C443.164,429.976006 442.735004,430.84133 441.877,431.428 C441.018996,432.01467 439.805341,432.308 438.236,432.308 C437.209328,432.308 436.355003,432.220001 435.673,432.044 C434.990997,431.867999 434.518001,431.721334 434.254,431.604 L434.804,428.942 C435.361336,429.162001 435.93333,429.334333 436.52,429.459 C437.10667,429.583667 437.685997,429.646 438.258,429.646 Z M450.622,414.928 C451.238003,414.928 451.802664,414.990333 452.316,415.115 C452.829336,415.239667 453.225332,415.360666 453.504,415.478 L452.866,418.096 C452.572665,417.963999 452.253668,417.865 451.909,417.799 C451.564332,417.733 451.245335,417.7 450.952,417.7 C450.555998,417.7 450.222335,417.754999 449.951,417.865 C449.679665,417.975001 449.467001,418.125332 449.313,418.316 C449.158999,418.506668 449.049,418.733999 448.983,418.998 C448.917,419.262001 448.884,419.547998 448.884,419.856 L448.884,420.428 L452.932,420.428 L452.932,423.156 L448.884,423.156 L448.884,432 L445.606,432 L445.606,419.812 C445.606,418.315993 446.027662,417.128004 446.871,416.248 C447.714338,415.367996 448.964658,414.928 450.622,414.928 Z M465.538,426.192 C465.538,427.101338 465.406001,427.933663 465.142,428.689 C464.877999,429.444337 464.496669,430.089664 463.998,430.625 C463.499331,431.160336 462.90167,431.574665 462.205,431.868 C461.50833,432.161335 460.727338,432.308 459.862,432.308 C459.011329,432.308 458.23767,432.161335 457.541,431.868 C456.84433,431.574665 456.246669,431.160336 455.748,430.625 C455.249331,430.089664 454.860668,429.444337 454.582,428.689 C454.303332,427.933663 454.164,427.101338 454.164,426.192 C454.164,425.282662 454.306999,424.454004 454.593,423.706 C454.879001,422.957996 455.274997,422.320003 455.781,421.792 C456.287003,421.263997 456.88833,420.853335 457.585,420.56 C458.28167,420.266665 459.040663,420.12 459.862,420.12 C460.698004,420.12 461.46433,420.266665 462.161,420.56 C462.85767,420.853335 463.455331,421.263997 463.954,421.792 C464.452669,422.320003 464.841332,422.957996 465.12,423.706 C465.398668,424.454004 465.538,425.282662 465.538,426.192 Z M462.194,426.192 C462.194,425.179995 461.992335,424.384336 461.589,423.805 C461.185665,423.225664 460.610004,422.936 459.862,422.936 C459.113996,422.936 458.534669,423.225664 458.124,423.805 C457.713331,424.384336 457.508,425.179995 457.508,426.192 C457.508,427.204005 457.713331,428.006997 458.124,428.601 C458.534669,429.195003 459.113996,429.492 459.862,429.492 C460.610004,429.492 461.185665,429.195003 461.589,428.601 C461.992335,428.006997 462.194,427.204005 462.194,426.192 Z M475.042,423.332 C474.748665,423.258666 474.404002,423.181667 474.008,423.101 C473.611998,423.020333 473.186669,422.98 472.732,422.98 C472.526666,422.98 472.281001,422.998333 471.995,423.035 C471.708999,423.071667 471.492667,423.112 471.346,423.156 L471.346,432 L468.068,432 L468.068,421.044 C468.65467,420.838666 469.347663,420.644334 470.147,420.461 C470.946337,420.277666 471.837328,420.186 472.82,420.186 C472.996001,420.186 473.208665,420.197 473.458,420.219 C473.707335,420.241 473.956665,420.270333 474.206,420.307 C474.455335,420.343667 474.704665,420.387666 474.954,420.439 C475.203335,420.490334 475.415999,420.552666 475.592,420.626 L475.042,423.332 Z M483.71,425.862 C483.71,424.805995 483.574335,424.058002 483.303,423.618 C483.031665,423.177998 482.566003,422.958 481.906,422.958 C481.700666,422.958 481.488001,422.969 481.268,422.991 C481.047999,423.013 480.835334,423.038667 480.63,423.068 L480.63,432 L477.352,432 L477.352,420.824 C477.630668,420.750666 477.956998,420.673667 478.331,420.593 C478.705002,420.512333 479.100998,420.439 479.519,420.373 C479.937002,420.307 480.365998,420.255667 480.806,420.219 C481.246002,420.182333 481.678665,420.164 482.104,420.164 C482.940004,420.164 483.618331,420.270332 484.139,420.483 C484.659669,420.695668 485.088665,420.948665 485.426,421.242 C485.895336,420.904665 486.43433,420.640668 487.043,420.45 C487.65167,420.259332 488.212664,420.164 488.726,420.164 C489.650005,420.164 490.408997,420.292332 491.003,420.549 C491.597003,420.805668 492.069998,421.168664 492.422,421.638 C492.774002,422.107336 493.015999,422.664663 493.148,423.31 C493.280001,423.955337 493.346,424.673996 493.346,425.466 L493.346,432 L490.068,432 L490.068,425.862 C490.068,424.805995 489.932335,424.058002 489.661,423.618 C489.389665,423.177998 488.924003,422.958 488.264,422.958 C488.087999,422.958 487.842335,423.002 487.527,423.09 C487.211665,423.178 486.951334,423.287999 486.746,423.42 C486.848667,423.757335 486.914667,424.112998 486.944,424.487 C486.973333,424.861002 486.988,425.260665 486.988,425.686 L486.988,432 L483.71,432 L483.71,425.862 Z" id="JSONParserTransform" fill="#001B3D" fill-rule="nonzero"></path>
            <g id="Transforms" transform="translate(242.721371, 134.000000)">
                <g id="Aggregate" transform="translate(28.278629, 204.000000)">
                    <polygon id="Fill-74" fill="#001B3D" points="1.13686838e-13 43.0202204 99.9238736 59.9540001 199.84544 43.0202204 99.9238736 26.0846919"></polygon>
                    <polygon id="Fill-79" fill="#001B3D" points="0.206736663 43.0174706 1.13686838e-13 17.4237163 99.7120786 0.476190476 199.84544 17.5940651 199.516959 42.9577539 99.7120786 59.9540001"></polygon>
                    <polygon id="Fill-75" fill="#001B3D" points="5.68434189e-14 17.823885 5.68434189e-14 43.1880044 97.3605992 59.9540001 97.3605992 34.8063684"></polygon>
                    <polygon id="Fill-76" fill="#001B3D" points="100.776761 34.6757847 199.84544 17.823885 199.36429 43.1020671 100.776761 59.9540001"></polygon>
                    <polygon id="Fill-77" fill="#001B3D" points="100.776761 0.476190476 199.84544 17.437889 199.364396 42.6063057 100.981171 25.8281337"></polygon>
                    <polygon id="Fill-78" fill="#001B3D" points="1.13686838e-13 17.2204794 1.13686838e-13 42.6063057 99.0686799 25.8051804 98.8616119 0.476190476"></polygon>
                    <polygon id="Fill-74-Copy" fill-opacity="0.33241368" fill="#FFFFFF" points="1.70530257e-13 17.3059347 99.9238736 34.2397144 199.84544 17.3059347 99.9238736 0.370406148"></polygon>
                </g>
                <g id="Sample" transform="translate(28.278629, 138.000000)">
                    <polygon id="Fill-74" fill="#10E7FF" points="1.13686838e-13 51.6242645 99.9238736 71.9448002 199.84544 51.6242645 99.9238736 31.3016302"></polygon>
                    <polygon id="Fill-79" fill="#10E7FF" points="0.206736663 51.6209648 1.13686838e-13 20.9084596 99.7120786 0.571428571 199.84544 21.1128781 199.516959 51.5493047 99.7120786 71.9448002"></polygon>
                    <polygon id="Fill-75" fill="#10E7FF" points="5.68434189e-14 21.388662 5.68434189e-14 51.8256053 97.3605992 71.9448002 97.3605992 41.7676421"></polygon>
                    <polygon id="Fill-76" fill="#10E7FF" points="100.776761 41.6109417 199.84544 21.388662 199.36429 51.7224806 100.776761 71.9448002"></polygon>
                    <polygon id="Fill-77" fill="#10E7FF" points="100.776761 0.571428571 199.84544 20.9254668 199.364396 51.1275668 100.981171 30.9937605"></polygon>
                    <polygon id="Fill-78" fill="#10E7FF" points="1.13686838e-13 20.6645753 1.13686838e-13 51.1275668 99.0686799 30.9662165 98.8616119 0.571428571"></polygon>
                    <polygon id="Fill-74-Copy" fill-opacity="0.33241368" fill="#FFFFFF" points="1.70530257e-13 20.7671217 99.9238736 41.0876573 199.84544 20.7671217 99.9238736 0.444487378"></polygon>
                </g>
                <g id="Parse" transform="translate(28.278629, 74.000000)">
                    <polygon id="Fill-74" fill="#001B3D" points="1.13686838e-13 52.4612587 99.9238736 72.9443586 199.84544 52.4612587 99.9238736 31.9760433"></polygon>
                    <polygon id="Fill-79" fill="#001B3D" points="0.206736663 52.4579325 1.13686838e-13 21.4997273 99.7120786 1 199.84544 21.7057811 199.516959 52.3856991 99.7120786 72.9443586"></polygon>
                    <polygon id="Fill-75" fill="#001B3D" points="5.68434189e-14 21.9837713 5.68434189e-14 52.6642102 97.3605992 72.9443586 97.3605992 42.5257832"></polygon>
                    <polygon id="Fill-76" fill="#001B3D" points="100.776761 42.3678292 199.84544 21.9837713 199.36429 52.5602604 100.776761 72.9443586"></polygon>
                    <polygon id="Fill-77" fill="#001B3D" points="100.776761 1 199.84544 21.5168705 199.364396 51.9605873 100.981171 31.6657106"></polygon>
                    <polygon id="Fill-78" fill="#001B3D" points="1.13686838e-13 21.2538919 1.13686838e-13 51.9605873 99.0686799 31.6379463 98.8616119 1"></polygon>
                    <polygon id="Fill-74-Copy" fill-opacity="0.33241368" fill="#FFFFFF" points="1.70530257e-13 21.3572587 99.9238736 41.8403586 199.84544 21.3572587 99.9238736 0.872043277"></polygon>
                </g>
                <path id="Line" d="M13.379204,161.590782 C9.79299921,155.128919 8,147.926538 8,140 C8,127.153085 12.3775094,116.876139 21.1211537,109.246524 L21.8746297,108.589049 L23.1895806,110.096 L22.4361047,110.753476 C14.1415768,117.991197 10,127.714251 10,140 C10,147.470383 11.6548675,154.239403 14.964406,160.322645 L19.4991214,156.694941 L22.7786292,172 L8.56687739,165.440571 L13.379204,161.590782 Z" fill="url(#linearGradient-1)" fill-rule="nonzero"></path>
                <path id="Line" d="M13.3141739,225.644231 C3.76775209,211.063968 -1,193.174861 -1,172 C-1,145.12301 6.34863133,124.202725 21.0670751,109.297369 L21.7697064,108.585815 L23.1928146,109.991077 L22.4901833,110.702631 C8.17045481,125.204209 1,145.617256 1,172 C1,192.72483 5.63088086,210.179546 14.8818472,224.386978 L19.4804629,220.698951 L22.7786292,236 L8.55889027,229.457904 L13.3141739,225.644231 Z" fill="#001B3D" fill-rule="nonzero"></path>
                <path d="M81.7326292,2.754 L81.7326292,5.68 L77.1346292,5.68 L77.1346292,18 L73.7026292,18 L73.7026292,5.68 L69.1046292,5.68 L69.1046292,2.754 L81.7326292,2.754 Z M89.1686292,9.332 C88.8752944,9.2586663 88.5306312,9.18166707 88.1346292,9.101 C87.7386272,9.02033293 87.3132982,8.98 86.8586292,8.98 C86.6532949,8.98 86.4076306,8.99833315 86.1216292,9.035 C85.8356278,9.07166685 85.6192966,9.11199978 85.4726292,9.156 L85.4726292,18 L82.1946292,18 L82.1946292,7.044 C82.7812988,6.83866564 83.4742919,6.64433425 84.2736292,6.461 C85.0729665,6.27766575 85.9639576,6.186 86.9466292,6.186 C87.1226301,6.186 87.3352946,6.19699989 87.5846292,6.219 C87.8339638,6.24100011 88.0832946,6.27033315 88.3326292,6.307 C88.5819638,6.34366685 88.8312946,6.38766641 89.0806292,6.439 C89.3299638,6.49033359 89.5426283,6.5526663 89.7186292,6.626 L89.1686292,9.332 Z M95.6806292,15.712 C96.0032975,15.712 96.3112944,15.7046667 96.6046292,15.69 C96.897964,15.6753333 97.1326283,15.6533335 97.3086292,15.624 L97.3086292,13.138 C97.1766286,13.1086665 96.9786305,13.0793335 96.7146292,13.05 C96.4506279,13.0206665 96.2086303,13.006 95.9886292,13.006 C95.6806277,13.006 95.3909639,13.0243331 95.1196292,13.061 C94.8482945,13.0976668 94.6099636,13.1673328 94.4046292,13.27 C94.1992949,13.3726672 94.0379631,13.5119991 93.9206292,13.688 C93.8032953,13.8640009 93.7446292,14.0839987 93.7446292,14.348 C93.7446292,14.8613359 93.9169608,15.216999 94.2616292,15.415 C94.6062976,15.613001 95.0792929,15.712 95.6806292,15.712 Z M95.4166292,6.12 C96.3846341,6.12 97.1912927,6.2299989 97.8366292,6.45 C98.4819658,6.6700011 98.9989606,6.98533128 99.3876292,7.396 C99.7762978,7.80666872 100.051295,8.3053304 100.212629,8.892 C100.373963,9.4786696 100.454629,10.1313297 100.454629,10.85 L100.454629,17.67 C99.9852935,17.7726672 99.3326334,17.893666 98.4966292,18.033 C97.660625,18.172334 96.6486352,18.242 95.4606292,18.242 C94.7126255,18.242 94.0342989,18.1760007 93.4256292,18.044 C92.8169595,17.9119993 92.2926314,17.6956682 91.8526292,17.395 C91.412627,17.0943318 91.0752971,16.7020024 90.8406292,16.218 C90.6059614,15.7339976 90.4886292,15.1400035 90.4886292,14.436 C90.4886292,13.76133 90.6242945,13.1893357 90.8956292,12.72 C91.1669639,12.2506643 91.5299603,11.8766681 91.9846292,11.598 C92.4392982,11.3193319 92.9599596,11.1176673 93.5466292,10.993 C94.1332988,10.8683327 94.7419594,10.806 95.3726292,10.806 C95.7979647,10.806 96.1756276,10.8243331 96.5056292,10.861 C96.8356309,10.8976668 97.1032949,10.945333 97.3086292,11.004 L97.3086292,10.696 C97.3086292,10.1386639 97.1399642,9.69133502 96.8026292,9.354 C96.4652942,9.01666498 95.8786334,8.848 95.0426292,8.848 C94.4852931,8.848 93.9352986,8.88833293 93.3926292,8.969 C92.8499598,9.04966707 92.3806312,9.1633326 91.9846292,9.31 L91.5666292,6.67 C91.7572968,6.61133304 91.9956278,6.54900033 92.2816292,6.483 C92.5676306,6.41699967 92.8792942,6.35833359 93.2166292,6.307 C93.5539642,6.25566641 93.9096273,6.21166685 94.2836292,6.175 C94.6576311,6.13833315 95.035294,6.12 95.4166292,6.12 Z M103.424629,6.824 C103.981965,6.66266586 104.700625,6.51233403 105.580629,6.373 C106.460634,6.23366597 107.384624,6.164 108.352629,6.164 C109.335301,6.164 110.152959,6.29233205 110.805629,6.549 C111.458299,6.80566795 111.975294,7.16866432 112.356629,7.638 C112.737964,8.10733568 113.009295,8.66466344 113.170629,9.31 C113.331963,9.95533656 113.412629,10.673996 113.412629,11.466 L113.412629,18 L110.134629,18 L110.134629,11.862 C110.134629,10.8059947 109.995297,10.0580022 109.716629,9.618 C109.437961,9.1779978 108.9173,8.958 108.154629,8.958 C107.919961,8.958 107.670631,8.96899989 107.406629,8.991 C107.142628,9.01300011 106.907964,9.03866652 106.702629,9.068 L106.702629,18 L103.424629,18 L103.424629,6.824 Z M119.704629,15.646 C120.305966,15.646 120.731295,15.5873339 120.980629,15.47 C121.229964,15.3526661 121.354629,15.125335 121.354629,14.788 C121.354629,14.5239987 121.193297,14.293001 120.870629,14.095 C120.547961,13.896999 120.056633,13.6733346 119.396629,13.424 C118.883293,13.2333324 118.417631,13.0353344 117.999629,12.83 C117.581627,12.6246656 117.225964,12.3790014 116.932629,12.093 C116.639294,11.8069986 116.411963,11.466002 116.250629,11.07 C116.089295,10.673998 116.008629,10.1973361 116.008629,9.64 C116.008629,8.55466124 116.411959,7.69666982 117.218629,7.066 C118.0253,6.43533018 119.132622,6.12 120.540629,6.12 C121.244633,6.12 121.919293,6.18233271 122.564629,6.307 C123.209966,6.43166729 123.723294,6.5673326 124.104629,6.714 L123.532629,9.266 C123.151294,9.13399934 122.736965,9.01666718 122.289629,8.914 C121.842294,8.81133282 121.339965,8.76 120.782629,8.76 C119.755957,8.76 119.242629,9.04599714 119.242629,9.618 C119.242629,9.75000066 119.264629,9.86733282 119.308629,9.97 C119.352629,10.0726672 119.440629,10.1716662 119.572629,10.267 C119.70463,10.3623338 119.884295,10.4649994 120.111629,10.575 C120.338964,10.6850005 120.628627,10.8059993 120.980629,10.938 C121.699299,11.2020013 122.293294,11.462332 122.762629,11.719 C123.231965,11.9756679 123.602295,12.2543318 123.873629,12.555 C124.144964,12.8556682 124.335629,13.1893315 124.445629,13.556 C124.55563,13.9226685 124.610629,14.3479976 124.610629,14.832 C124.610629,15.9760057 124.181634,16.8413304 123.323629,17.428 C122.465625,18.0146696 121.25197,18.308 119.682629,18.308 C118.655957,18.308 117.801633,18.2200009 117.119629,18.044 C116.437626,17.8679991 115.964631,17.7213339 115.700629,17.604 L116.250629,14.942 C116.807965,15.1620011 117.37996,15.3343327 117.966629,15.459 C118.553299,15.5836673 119.132626,15.646 119.704629,15.646 Z M132.068629,0.928 C132.684632,0.928 133.249293,0.99033271 133.762629,1.115 C134.275965,1.23966729 134.671961,1.36066608 134.950629,1.478 L134.312629,4.096 C134.019294,3.96399934 133.700298,3.86500033 133.355629,3.799 C133.010961,3.73299967 132.691964,3.7 132.398629,3.7 C132.002627,3.7 131.668964,3.75499945 131.397629,3.865 C131.126295,3.97500055 130.91363,4.12533238 130.759629,4.316 C130.605628,4.50666762 130.49563,4.73399868 130.429629,4.998 C130.363629,5.26200132 130.330629,5.54799846 130.330629,5.856 L130.330629,6.428 L134.378629,6.428 L134.378629,9.156 L130.330629,9.156 L130.330629,18 L127.052629,18 L127.052629,5.812 C127.052629,4.31599252 127.474292,3.1280044 128.317629,2.248 C129.160967,1.3679956 130.411288,0.928 132.068629,0.928 Z M146.984629,12.192 C146.984629,13.1013379 146.852631,13.9336629 146.588629,14.689 C146.324628,15.4443371 145.943298,16.089664 145.444629,16.625 C144.94596,17.160336 144.348299,17.5746652 143.651629,17.868 C142.954959,18.1613348 142.173967,18.308 141.308629,18.308 C140.457958,18.308 139.684299,18.1613348 138.987629,17.868 C138.290959,17.5746652 137.693298,17.160336 137.194629,16.625 C136.69596,16.089664 136.307297,15.4443371 136.028629,14.689 C135.749961,13.9336629 135.610629,13.1013379 135.610629,12.192 C135.610629,11.2826621 135.753628,10.4540037 136.039629,9.706 C136.325631,8.95799626 136.721627,8.32000264 137.227629,7.792 C137.733632,7.26399736 138.334959,6.8533348 139.031629,6.56 C139.728299,6.2666652 140.487292,6.12 141.308629,6.12 C142.144633,6.12 142.910959,6.2666652 143.607629,6.56 C144.304299,6.8533348 144.90196,7.26399736 145.400629,7.792 C145.899298,8.32000264 146.287961,8.95799626 146.566629,9.706 C146.845297,10.4540037 146.984629,11.2826621 146.984629,12.192 Z M143.640629,12.192 C143.640629,11.1799949 143.438965,10.3843362 143.035629,9.805 C142.632294,9.22566377 142.056633,8.936 141.308629,8.936 C140.560625,8.936 139.981298,9.22566377 139.570629,9.805 C139.15996,10.3843362 138.954629,11.1799949 138.954629,12.192 C138.954629,13.2040051 139.15996,14.006997 139.570629,14.601 C139.981298,15.195003 140.560625,15.492 141.308629,15.492 C142.056633,15.492 142.632294,15.195003 143.035629,14.601 C143.438965,14.006997 143.640629,13.2040051 143.640629,12.192 Z M156.488629,9.332 C156.195294,9.2586663 155.850631,9.18166707 155.454629,9.101 C155.058627,9.02033293 154.633298,8.98 154.178629,8.98 C153.973295,8.98 153.727631,8.99833315 153.441629,9.035 C153.155628,9.07166685 152.939297,9.11199978 152.792629,9.156 L152.792629,18 L149.514629,18 L149.514629,7.044 C150.101299,6.83866564 150.794292,6.64433425 151.593629,6.461 C152.392967,6.27766575 153.283958,6.186 154.266629,6.186 C154.44263,6.186 154.655295,6.19699989 154.904629,6.219 C155.153964,6.24100011 155.403295,6.27033315 155.652629,6.307 C155.901964,6.34366685 156.151295,6.38766641 156.400629,6.439 C156.649964,6.49033359 156.862628,6.5526663 157.038629,6.626 L156.488629,9.332 Z M165.156629,11.862 C165.156629,10.8059947 165.020964,10.0580022 164.749629,9.618 C164.478295,9.1779978 164.012633,8.958 163.352629,8.958 C163.147295,8.958 162.93463,8.96899989 162.714629,8.991 C162.494628,9.01300011 162.281964,9.03866652 162.076629,9.068 L162.076629,18 L158.798629,18 L158.798629,6.824 C159.077297,6.7506663 159.403627,6.67366707 159.777629,6.593 C160.151631,6.51233293 160.547627,6.43900033 160.965629,6.373 C161.383631,6.30699967 161.812627,6.25566685 162.252629,6.219 C162.692631,6.18233315 163.125294,6.164 163.550629,6.164 C164.386633,6.164 165.06496,6.27033227 165.585629,6.483 C166.106298,6.69566773 166.535294,6.9486652 166.872629,7.242 C167.341965,6.90466498 167.88096,6.64066762 168.489629,6.45 C169.098299,6.25933238 169.659293,6.164 170.172629,6.164 C171.096634,6.164 171.855626,6.29233205 172.449629,6.549 C173.043632,6.80566795 173.516627,7.16866432 173.868629,7.638 C174.220631,8.10733568 174.462629,8.66466344 174.594629,9.31 C174.72663,9.95533656 174.792629,10.673996 174.792629,11.466 L174.792629,18 L171.514629,18 L171.514629,11.862 C171.514629,10.8059947 171.378964,10.0580022 171.107629,9.618 C170.836295,9.1779978 170.370633,8.958 169.710629,8.958 C169.534628,8.958 169.288964,9.00199956 168.973629,9.09 C168.658294,9.17800044 168.397964,9.28799934 168.192629,9.42 C168.295296,9.75733502 168.361296,10.1129981 168.390629,10.487 C168.419963,10.8610019 168.434629,11.2606645 168.434629,11.686 L168.434629,18 L165.156629,18 L165.156629,11.862 Z M181.084629,15.646 C181.685966,15.646 182.111295,15.5873339 182.360629,15.47 C182.609964,15.3526661 182.734629,15.125335 182.734629,14.788 C182.734629,14.5239987 182.573297,14.293001 182.250629,14.095 C181.927961,13.896999 181.436633,13.6733346 180.776629,13.424 C180.263293,13.2333324 179.797631,13.0353344 179.379629,12.83 C178.961627,12.6246656 178.605964,12.3790014 178.312629,12.093 C178.019294,11.8069986 177.791963,11.466002 177.630629,11.07 C177.469295,10.673998 177.388629,10.1973361 177.388629,9.64 C177.388629,8.55466124 177.791959,7.69666982 178.598629,7.066 C179.4053,6.43533018 180.512622,6.12 181.920629,6.12 C182.624633,6.12 183.299293,6.18233271 183.944629,6.307 C184.589966,6.43166729 185.103294,6.5673326 185.484629,6.714 L184.912629,9.266 C184.531294,9.13399934 184.116965,9.01666718 183.669629,8.914 C183.222294,8.81133282 182.719965,8.76 182.162629,8.76 C181.135957,8.76 180.622629,9.04599714 180.622629,9.618 C180.622629,9.75000066 180.644629,9.86733282 180.688629,9.97 C180.732629,10.0726672 180.820629,10.1716662 180.952629,10.267 C181.08463,10.3623338 181.264295,10.4649994 181.491629,10.575 C181.718964,10.6850005 182.008627,10.8059993 182.360629,10.938 C183.079299,11.2020013 183.673294,11.462332 184.142629,11.719 C184.611965,11.9756679 184.982295,12.2543318 185.253629,12.555 C185.524964,12.8556682 185.715629,13.1893315 185.825629,13.556 C185.93563,13.9226685 185.990629,14.3479976 185.990629,14.832 C185.990629,15.9760057 185.561634,16.8413304 184.703629,17.428 C183.845625,18.0146696 182.63197,18.308 181.062629,18.308 C180.035957,18.308 179.181633,18.2200009 178.499629,18.044 C177.817626,17.8679991 177.344631,17.7213339 177.080629,17.604 L177.630629,14.942 C178.187965,15.1620011 178.75996,15.3343327 179.346629,15.459 C179.933299,15.5836673 180.512626,15.646 181.084629,15.646 Z" fill="#001B3D" fill-rule="nonzero"></path>
            </g>
            <g id="Group-16" transform="translate(351.000000, 167.000000)">
                <g id="Group-15" transform="translate(8.337072, 0.000000)">
                    <polygon id="Triangle" fill="#001B3D" transform="translate(18.869266, 17.145933) scale(1, -1) translate(-18.869266, -17.145933) " points="18.8692664 4.55040597 33.9838989 29.7414602 3.75463383 29.7414602"></polygon>
                    <polygon id="Triangle" fill="#FFFFFF" transform="translate(15.289485, 12.664577) scale(1, -1) translate(-15.289485, -12.664577) " points="15.289485 0.0690500056 30.4041175 25.2601043 0.174852433 25.2601043"></polygon>
                </g>
                <g id="Symbol" transform="translate(0.000000, 3.967034)">
                    <polygon id="Triangle" fill="#001B3D" transform="translate(15.035082, 13.112607) scale(1, -1) translate(-15.035082, -13.112607) " points="15.0350819 0.583371783 30.0701637 25.6418415 0 25.6418415"></polygon>
                    <mask id="mask-3" fill="white">
                        <use xlink:href="#path-2"></use>
                    </mask>
                    <use id="Mask" fill="#FFFFFF" transform="translate(15.188880, 6.430348) scale(1, -1) translate(-15.188880, -6.430348) " xlink:href="#path-2"></use>
                </g>
            </g>
            <g id="Source-Arrows" transform="translate(104.500000, 230.638384)" fill-rule="nonzero">
                <path id="Line-4" d="M133.231475,1.3572192 L79.0095209,1.87104747 L78.9905689,-0.128862732 L133.212523,-0.642691001 L133.155668,-6.64242161 L147.221371,0.224600628 L133.288331,7.35694982 L133.231475,1.3572192 Z" fill="#001B3D"></path>
                <path id="Line-5" d="M132.966167,1.03233353 C108.504376,1.65531525 90.3526989,11.2782408 78.3993935,29.9305268 C74.5373258,35.9570097 72.1363463,39.7121723 70.3695633,42.482819 C70.0373237,43.0039276 70.0373237,43.0039276 69.845901,43.3041043 C69.7729377,43.4184094 69.7729377,43.4184094 69.7273462,43.4895749 C69.7014243,43.531451 69.7014243,43.531451 69.6187869,43.6451529 C69.6087059,43.6573233 69.6087059,43.6573233 69.5458669,43.724737 L69.4168931,43.8314804 L69.3240426,43.815818 C68.2165116,45.4355163 66.2669548,48.3450975 63.3331136,52.764216 C52.470948,69.1254278 31.2128344,73.4282409 -0.23475072,65.833672 L-1.20680632,65.5989213 L-0.737304886,63.6548101 L0.23475072,63.8895608 C30.9549174,71.3084586 51.3634704,67.1776035 61.6668864,51.6580122 C65.4557398,45.9510256 67.6069973,42.7554536 68.4415074,41.5778706 C68.6285185,41.313978 68.7507489,41.1490819 68.8325537,41.0526347 C68.8749631,41.002864 68.8749631,41.002864 68.9579373,40.9220972 C68.9882688,40.8946364 69.0038335,40.8805448 69.03146,40.861551 C70.7650181,38.144249 73.1004443,34.4924437 76.7155003,28.8514049 C89.0615288,9.5863024 107.879043,-0.364191256 133.055643,-0.970486784 L133.326364,-7.03026802 L147,0.587584848 L132.701536,6.95578182 L132.966167,1.03233353 Z M70.354781,42.3499259 L70.3551711,42.3497278 C70.3561209,42.3485736 70.3568782,42.3475575 70.3577993,42.3463217 C70.3568542,42.347436 70.3558479,42.3486375 70.354781,42.3499259 Z" fill="url(#linearGradient-4)"></path>
                <path id="Line-6" d="M132.986475,1.19575249 C112.502722,2.15780217 96.5785493,8.52312923 85.1610844,20.2781533 C71.2435841,34.6071267 63.6740952,56.9688315 62.4992556,87.4001939 L62.4606781,88.3994495 L60.4621669,88.3222945 L60.5007444,87.3230389 C61.6930285,56.4398177 69.419375,33.6147256 83.7264219,18.8846887 C95.5447403,6.71695992 111.991893,0.157382433 133.014686,-0.807707284 L133.099945,-6.86262491 L147,0.333795697 L132.90283,7.13598737 L132.986475,1.19575249 Z" fill="#001B3D"></path>
            </g>
            <g id="Sources" transform="translate(18.000000, 136.000000)">
                <g id="Source-2" transform="translate(0.000000, 122.000000)">
                    <circle id="Oval-Copy-2" fill="#001B3D" cx="37.5" cy="37.5" r="37.5"></circle>
                    <path d="M13.71875,36.0859375 C13.71875,34.4921875 15.09375,33.4453125 17.2265625,33.4453125 C19.375,33.4453125 20.703125,34.546875 20.75,36.1875 L18.6484375,36.1875 C18.578125,35.5078125 18.0703125,35.046875 17.2265625,35.046875 C16.4375,35.046875 15.9140625,35.40625 15.9140625,35.9609375 C15.9140625,36.390625 16.2265625,36.6796875 17.0703125,36.859375 L18.5,37.1640625 C20.25,37.53125 20.96875,38.21875 20.96875,39.4453125 C20.96875,41.09375 19.4609375,42.1796875 17.3046875,42.1796875 C14.9921875,42.1796875 13.65625,41.1015625 13.5078125,39.453125 L15.734375,39.453125 C15.875,40.1875 16.3984375,40.578125 17.3046875,40.578125 C18.1640625,40.578125 18.6953125,40.2265625 18.6953125,39.6796875 C18.6953125,39.234375 18.40625,38.984375 17.5859375,38.796875 L16.15625,38.5 C14.5390625,38.15625 13.71875,37.34375 13.71875,36.0859375 Z M25.9375,42.1796875 C23.40625,42.1796875 21.7890625,40.5546875 21.7890625,37.8046875 C21.7890625,35.09375 23.4296875,33.4453125 25.9375,33.4453125 C28.4453125,33.4453125 30.0859375,35.0859375 30.0859375,37.8046875 C30.0859375,40.5625 28.46875,42.1796875 25.9375,42.1796875 Z M25.9375,40.4375 C27.0546875,40.4375 27.765625,39.4921875 27.765625,37.8125 C27.765625,36.1484375 27.046875,35.1875 25.9375,35.1875 C24.828125,35.1875 24.1015625,36.1484375 24.1015625,37.8125 C24.1015625,39.4921875 24.8125,40.4375 25.9375,40.4375 Z M38.9921875,33.625 L38.9921875,42 L36.7890625,42 L36.7890625,40.4921875 L36.7421875,40.4921875 C36.328125,41.546875 35.5,42.15625 34.234375,42.15625 C32.421875,42.15625 31.21875,40.9765625 31.21875,39.0234375 L31.21875,33.625 L33.5,33.625 L33.5,38.546875 C33.5,39.6640625 34.0546875,40.2578125 35.0625,40.2578125 C36.078125,40.2578125 36.7109375,39.53125 36.7109375,38.421875 L36.7109375,33.625 L38.9921875,33.625 Z M40.4765625,42 L40.4765625,33.625 L42.6796875,33.625 L42.6796875,35.1328125 L42.7265625,35.1328125 C43.0234375,34.0703125 43.734375,33.4921875 44.71875,33.4921875 C44.984375,33.4921875 45.2109375,33.53125 45.3671875,33.578125 L45.3671875,35.5859375 C45.1796875,35.5078125 44.8671875,35.453125 44.5390625,35.453125 C43.4140625,35.453125 42.7578125,36.140625 42.7578125,37.3203125 L42.7578125,42 L40.4765625,42 Z M53.6328125,36.7421875 L51.515625,36.7421875 C51.3828125,35.859375 50.796875,35.234375 49.859375,35.234375 C48.734375,35.234375 48.03125,36.1875 48.03125,37.8046875 C48.03125,39.453125 48.734375,40.390625 49.8671875,40.390625 C50.78125,40.390625 51.375,39.84375 51.515625,38.9296875 L53.640625,38.9296875 C53.5234375,40.90625 52.046875,42.1796875 49.84375,42.1796875 C47.3203125,42.1796875 45.71875,40.5390625 45.71875,37.8046875 C45.71875,35.1171875 47.3203125,33.4453125 49.828125,33.4453125 C52.09375,33.4453125 53.53125,34.84375 53.6328125,36.7421875 Z M58.5,35.1328125 C57.5,35.1328125 56.78125,35.890625 56.703125,36.9375 L60.2578125,36.9375 C60.2109375,35.8671875 59.515625,35.1328125 58.5,35.1328125 Z M60.2890625,39.4375 L62.3828125,39.4375 C62.1328125,41.078125 60.6328125,42.1796875 58.5625,42.1796875 C55.984375,42.1796875 54.4375,40.53125 54.4375,37.8515625 C54.4375,35.1796875 56,33.4453125 58.4765625,33.4453125 C60.9140625,33.4453125 62.453125,35.09375 62.453125,37.640625 L62.453125,38.3359375 L56.6796875,38.3359375 L56.6796875,38.4765625 C56.6796875,39.671875 57.4375,40.4921875 58.6015625,40.4921875 C59.4375,40.4921875 60.078125,40.078125 60.2890625,39.4375 Z" id="source" fill="#FFFFFF" fill-rule="nonzero"></path>
                </g>
                <g id="Source-3" transform="translate(82.000000, 182.000000)">
                    <circle id="Oval-Copy-2" fill="#001B3D" cx="37.5" cy="37.5" r="37.5"></circle>
                    <path d="M13.71875,36.0859375 C13.71875,34.4921875 15.09375,33.4453125 17.2265625,33.4453125 C19.375,33.4453125 20.703125,34.546875 20.75,36.1875 L18.6484375,36.1875 C18.578125,35.5078125 18.0703125,35.046875 17.2265625,35.046875 C16.4375,35.046875 15.9140625,35.40625 15.9140625,35.9609375 C15.9140625,36.390625 16.2265625,36.6796875 17.0703125,36.859375 L18.5,37.1640625 C20.25,37.53125 20.96875,38.21875 20.96875,39.4453125 C20.96875,41.09375 19.4609375,42.1796875 17.3046875,42.1796875 C14.9921875,42.1796875 13.65625,41.1015625 13.5078125,39.453125 L15.734375,39.453125 C15.875,40.1875 16.3984375,40.578125 17.3046875,40.578125 C18.1640625,40.578125 18.6953125,40.2265625 18.6953125,39.6796875 C18.6953125,39.234375 18.40625,38.984375 17.5859375,38.796875 L16.15625,38.5 C14.5390625,38.15625 13.71875,37.34375 13.71875,36.0859375 Z M25.9375,42.1796875 C23.40625,42.1796875 21.7890625,40.5546875 21.7890625,37.8046875 C21.7890625,35.09375 23.4296875,33.4453125 25.9375,33.4453125 C28.4453125,33.4453125 30.0859375,35.0859375 30.0859375,37.8046875 C30.0859375,40.5625 28.46875,42.1796875 25.9375,42.1796875 Z M25.9375,40.4375 C27.0546875,40.4375 27.765625,39.4921875 27.765625,37.8125 C27.765625,36.1484375 27.046875,35.1875 25.9375,35.1875 C24.828125,35.1875 24.1015625,36.1484375 24.1015625,37.8125 C24.1015625,39.4921875 24.8125,40.4375 25.9375,40.4375 Z M38.9921875,33.625 L38.9921875,42 L36.7890625,42 L36.7890625,40.4921875 L36.7421875,40.4921875 C36.328125,41.546875 35.5,42.15625 34.234375,42.15625 C32.421875,42.15625 31.21875,40.9765625 31.21875,39.0234375 L31.21875,33.625 L33.5,33.625 L33.5,38.546875 C33.5,39.6640625 34.0546875,40.2578125 35.0625,40.2578125 C36.078125,40.2578125 36.7109375,39.53125 36.7109375,38.421875 L36.7109375,33.625 L38.9921875,33.625 Z M40.4765625,42 L40.4765625,33.625 L42.6796875,33.625 L42.6796875,35.1328125 L42.7265625,35.1328125 C43.0234375,34.0703125 43.734375,33.4921875 44.71875,33.4921875 C44.984375,33.4921875 45.2109375,33.53125 45.3671875,33.578125 L45.3671875,35.5859375 C45.1796875,35.5078125 44.8671875,35.453125 44.5390625,35.453125 C43.4140625,35.453125 42.7578125,36.140625 42.7578125,37.3203125 L42.7578125,42 L40.4765625,42 Z M53.6328125,36.7421875 L51.515625,36.7421875 C51.3828125,35.859375 50.796875,35.234375 49.859375,35.234375 C48.734375,35.234375 48.03125,36.1875 48.03125,37.8046875 C48.03125,39.453125 48.734375,40.390625 49.8671875,40.390625 C50.78125,40.390625 51.375,39.84375 51.515625,38.9296875 L53.640625,38.9296875 C53.5234375,40.90625 52.046875,42.1796875 49.84375,42.1796875 C47.3203125,42.1796875 45.71875,40.5390625 45.71875,37.8046875 C45.71875,35.1171875 47.3203125,33.4453125 49.828125,33.4453125 C52.09375,33.4453125 53.53125,34.84375 53.6328125,36.7421875 Z M58.5,35.1328125 C57.5,35.1328125 56.78125,35.890625 56.703125,36.9375 L60.2578125,36.9375 C60.2109375,35.8671875 59.515625,35.1328125 58.5,35.1328125 Z M60.2890625,39.4375 L62.3828125,39.4375 C62.1328125,41.078125 60.6328125,42.1796875 58.5625,42.1796875 C55.984375,42.1796875 54.4375,40.53125 54.4375,37.8515625 C54.4375,35.1796875 56,33.4453125 58.4765625,33.4453125 C60.9140625,33.4453125 62.453125,35.09375 62.453125,37.640625 L62.453125,38.3359375 L56.6796875,38.3359375 L56.6796875,38.4765625 C56.6796875,39.671875 57.4375,40.4921875 58.6015625,40.4921875 C59.4375,40.4921875 60.078125,40.078125 60.2890625,39.4375 Z" id="source" fill="#FFFFFF" fill-rule="nonzero"></path>
                </g>
                <g id="Source-1" transform="translate(82.000000, 56.000000)">
                    <circle id="Oval-Copy-2" fill="#001B3D" cx="37.5" cy="37.5" r="37.5"></circle>
                    <path d="M13.71875,35.0859375 C13.71875,33.4921875 15.09375,32.4453125 17.2265625,32.4453125 C19.375,32.4453125 20.703125,33.546875 20.75,35.1875 L18.6484375,35.1875 C18.578125,34.5078125 18.0703125,34.046875 17.2265625,34.046875 C16.4375,34.046875 15.9140625,34.40625 15.9140625,34.9609375 C15.9140625,35.390625 16.2265625,35.6796875 17.0703125,35.859375 L18.5,36.1640625 C20.25,36.53125 20.96875,37.21875 20.96875,38.4453125 C20.96875,40.09375 19.4609375,41.1796875 17.3046875,41.1796875 C14.9921875,41.1796875 13.65625,40.1015625 13.5078125,38.453125 L15.734375,38.453125 C15.875,39.1875 16.3984375,39.578125 17.3046875,39.578125 C18.1640625,39.578125 18.6953125,39.2265625 18.6953125,38.6796875 C18.6953125,38.234375 18.40625,37.984375 17.5859375,37.796875 L16.15625,37.5 C14.5390625,37.15625 13.71875,36.34375 13.71875,35.0859375 Z M25.9375,41.1796875 C23.40625,41.1796875 21.7890625,39.5546875 21.7890625,36.8046875 C21.7890625,34.09375 23.4296875,32.4453125 25.9375,32.4453125 C28.4453125,32.4453125 30.0859375,34.0859375 30.0859375,36.8046875 C30.0859375,39.5625 28.46875,41.1796875 25.9375,41.1796875 Z M25.9375,39.4375 C27.0546875,39.4375 27.765625,38.4921875 27.765625,36.8125 C27.765625,35.1484375 27.046875,34.1875 25.9375,34.1875 C24.828125,34.1875 24.1015625,35.1484375 24.1015625,36.8125 C24.1015625,38.4921875 24.8125,39.4375 25.9375,39.4375 Z M38.9921875,32.625 L38.9921875,41 L36.7890625,41 L36.7890625,39.4921875 L36.7421875,39.4921875 C36.328125,40.546875 35.5,41.15625 34.234375,41.15625 C32.421875,41.15625 31.21875,39.9765625 31.21875,38.0234375 L31.21875,32.625 L33.5,32.625 L33.5,37.546875 C33.5,38.6640625 34.0546875,39.2578125 35.0625,39.2578125 C36.078125,39.2578125 36.7109375,38.53125 36.7109375,37.421875 L36.7109375,32.625 L38.9921875,32.625 Z M40.4765625,41 L40.4765625,32.625 L42.6796875,32.625 L42.6796875,34.1328125 L42.7265625,34.1328125 C43.0234375,33.0703125 43.734375,32.4921875 44.71875,32.4921875 C44.984375,32.4921875 45.2109375,32.53125 45.3671875,32.578125 L45.3671875,34.5859375 C45.1796875,34.5078125 44.8671875,34.453125 44.5390625,34.453125 C43.4140625,34.453125 42.7578125,35.140625 42.7578125,36.3203125 L42.7578125,41 L40.4765625,41 Z M53.6328125,35.7421875 L51.515625,35.7421875 C51.3828125,34.859375 50.796875,34.234375 49.859375,34.234375 C48.734375,34.234375 48.03125,35.1875 48.03125,36.8046875 C48.03125,38.453125 48.734375,39.390625 49.8671875,39.390625 C50.78125,39.390625 51.375,38.84375 51.515625,37.9296875 L53.640625,37.9296875 C53.5234375,39.90625 52.046875,41.1796875 49.84375,41.1796875 C47.3203125,41.1796875 45.71875,39.5390625 45.71875,36.8046875 C45.71875,34.1171875 47.3203125,32.4453125 49.828125,32.4453125 C52.09375,32.4453125 53.53125,33.84375 53.6328125,35.7421875 Z M58.5,34.1328125 C57.5,34.1328125 56.78125,34.890625 56.703125,35.9375 L60.2578125,35.9375 C60.2109375,34.8671875 59.515625,34.1328125 58.5,34.1328125 Z M60.2890625,38.4375 L62.3828125,38.4375 C62.1328125,40.078125 60.6328125,41.1796875 58.5625,41.1796875 C55.984375,41.1796875 54.4375,39.53125 54.4375,36.8515625 C54.4375,34.1796875 56,32.4453125 58.4765625,32.4453125 C60.9140625,32.4453125 62.453125,34.09375 62.453125,36.640625 L62.453125,37.3359375 L56.6796875,37.3359375 L56.6796875,37.4765625 C56.6796875,38.671875 57.4375,39.4921875 58.6015625,39.4921875 C59.4375,39.4921875 60.078125,39.078125 60.2890625,38.4375 Z" id="source-copy" fill="#FFFFFF" fill-rule="nonzero"></path>
                </g>
                <path d="M73.344,13.382 C73.8280024,13.382 74.2276651,13.3416671 74.543,13.261 C74.8583349,13.1803329 75.1113324,13.070334 75.302,12.931 C75.4926676,12.791666 75.6246663,12.6266676 75.698,12.436 C75.7713337,12.2453324 75.808,12.0326678 75.808,11.798 C75.808,11.2993308 75.5733357,10.8850017 75.104,10.555 C74.6346643,10.2249984 73.8280057,9.86933524 72.684,9.488 C72.1853308,9.31199912 71.6866692,9.11033447 71.188,8.883 C70.6893308,8.65566553 70.242002,8.36966839 69.846,8.025 C69.449998,7.68033161 69.1273346,7.26233579 68.878,6.771 C68.6286654,6.27966421 68.504,5.68200352 68.504,4.978 C68.504,4.27399648 68.6359987,3.63966949 68.9,3.075 C69.1640013,2.51033051 69.5379976,2.03000198 70.022,1.634 C70.5060024,1.23799802 71.0926632,0.93366773 71.782,0.721 C72.4713368,0.50833227 73.2486623,0.402 74.114,0.402 C75.1406718,0.402 76.0279963,0.5119989 76.776,0.732 C77.5240037,0.9520011 78.1399976,1.19399868 78.624,1.458 L77.634,4.164 C77.2086645,3.9439989 76.7356693,3.74966751 76.215,3.581 C75.6943307,3.41233249 75.067337,3.328 74.334,3.328 C73.5126626,3.328 72.9223351,3.44166553 72.563,3.669 C72.2036649,3.89633447 72.024,4.24466432 72.024,4.714 C72.024,4.99266806 72.0899993,5.22733238 72.222,5.418 C72.3540007,5.60866762 72.5409988,5.78099923 72.783,5.935 C73.0250012,6.08900077 73.3036651,6.22833271 73.619,6.353 C73.9343349,6.47766729 74.2826648,6.60599934 74.664,6.738 C75.456004,7.0313348 76.1453304,7.32099857 76.732,7.607 C77.3186696,7.89300143 77.8063314,8.22666476 78.195,8.608 C78.5836686,8.98933524 78.8733324,9.4366641 79.064,9.95 C79.2546676,10.4633359 79.35,11.086663 79.35,11.82 C79.35,13.2426738 78.8513383,14.3463294 77.854,15.131 C76.8566617,15.9156706 75.3533434,16.308 73.344,16.308 C72.66933,16.308 72.0606694,16.2676671 71.518,16.187 C70.9753306,16.1063329 70.4950021,16.0073339 70.077,15.89 C69.6589979,15.7726661 69.2996682,15.6480007 68.999,15.516 C68.6983318,15.3839993 68.4453344,15.2593339 68.24,15.142 L69.208,12.414 C69.6626689,12.6633346 70.2236633,12.886999 70.891,13.085 C71.5583367,13.283001 72.3759952,13.382 73.344,13.382 Z M92.594,10.192 C92.594,11.1013379 92.4620013,11.9336629 92.198,12.689 C91.9339987,13.4443371 91.5526692,14.089664 91.054,14.625 C90.5553308,15.160336 89.9576702,15.5746652 89.261,15.868 C88.5643299,16.1613348 87.7833377,16.308 86.918,16.308 C86.0673291,16.308 85.2936701,16.1613348 84.597,15.868 C83.9003298,15.5746652 83.3026692,15.160336 82.804,14.625 C82.3053308,14.089664 81.9166681,13.4443371 81.638,12.689 C81.3593319,11.9336629 81.22,11.1013379 81.22,10.192 C81.22,9.28266212 81.3629986,8.45400374 81.649,7.706 C81.9350014,6.95799626 82.3309975,6.32000264 82.837,5.792 C83.3430025,5.26399736 83.9443299,4.8533348 84.641,4.56 C85.3376702,4.2666652 86.0966626,4.12 86.918,4.12 C87.7540042,4.12 88.5203298,4.2666652 89.217,4.56 C89.9136702,4.8533348 90.5113308,5.26399736 91.01,5.792 C91.5086692,6.32000264 91.8973319,6.95799626 92.176,7.706 C92.4546681,8.45400374 92.594,9.28266212 92.594,10.192 Z M89.25,10.192 C89.25,9.17999494 89.0483354,8.38433623 88.645,7.805 C88.2416646,7.22566377 87.6660037,6.936 86.918,6.936 C86.1699963,6.936 85.5906687,7.22566377 85.18,7.805 C84.7693313,8.38433623 84.564,9.17999494 84.564,10.192 C84.564,11.2040051 84.7693313,12.006997 85.18,12.601 C85.5906687,13.195003 86.1699963,13.492 86.918,13.492 C87.6660037,13.492 88.2416646,13.195003 88.645,12.601 C89.0483354,12.006997 89.25,11.2040051 89.25,10.192 Z M105.002,15.604 C104.444664,15.7653341 103.726004,15.915666 102.846,16.055 C101.965996,16.194334 101.042005,16.264 100.074,16.264 C99.0913284,16.264 98.2736699,16.1320013 97.621,15.868 C96.9683301,15.6039987 96.4513352,15.2336691 96.07,14.757 C95.6886648,14.280331 95.4173341,13.7120033 95.256,13.052 C95.0946659,12.3919967 95.014,11.666004 95.014,10.874 L95.014,4.428 L98.292,4.428 L98.292,10.478 C98.292,11.5340053 98.4313319,12.2966643 98.71,12.766 C98.9886681,13.2353357 99.5093295,13.47 100.272,13.47 C100.506668,13.47 100.755999,13.4590001 101.02,13.437 C101.284001,13.4149999 101.518666,13.3893335 101.724,13.36 L101.724,4.428 L105.002,4.428 L105.002,15.604 Z M115.056,7.332 C114.762665,7.2586663 114.418002,7.18166707 114.022,7.101 C113.625998,7.02033293 113.200669,6.98 112.746,6.98 C112.540666,6.98 112.295001,6.99833315 112.009,7.035 C111.722999,7.07166685 111.506667,7.11199978 111.36,7.156 L111.36,16 L108.082,16 L108.082,5.044 C108.66867,4.83866564 109.361663,4.64433425 110.161,4.461 C110.960337,4.27766575 111.851328,4.186 112.834,4.186 C113.010001,4.186 113.222665,4.19699989 113.472,4.219 C113.721335,4.24100011 113.970665,4.27033315 114.22,4.307 C114.469335,4.34366685 114.718665,4.38766641 114.968,4.439 C115.217335,4.49033359 115.429999,4.5526663 115.606,4.626 L115.056,7.332 Z M116.596,10.214 C116.596,9.37799582 116.731665,8.58967037 117.003,7.849 C117.274335,7.10832963 117.666664,6.46300275 118.18,5.913 C118.693336,5.36299725 119.316663,4.92666828 120.05,4.604 C120.783337,4.28133172 121.619329,4.12 122.558,4.12 C123.174003,4.12 123.738664,4.17499945 124.252,4.285 C124.765336,4.39500055 125.263998,4.55266564 125.748,4.758 L125.066,7.376 C124.757998,7.25866608 124.420669,7.15600044 124.054,7.068 C123.687331,6.97999956 123.276669,6.936 122.822,6.936 C121.853995,6.936 121.131669,7.23666366 120.655,7.838 C120.178331,8.43933634 119.94,9.23132842 119.94,10.214 C119.94,11.2553385 120.163664,12.0619971 120.611,12.634 C121.058336,13.2060029 121.839328,13.492 122.954,13.492 C123.350002,13.492 123.775331,13.4553337 124.23,13.382 C124.684669,13.3086663 125.102665,13.1913341 125.484,13.03 L125.946,15.714 C125.564665,15.8753341 125.088003,16.0146661 124.516,16.132 C123.943997,16.2493339 123.313337,16.308 122.624,16.308 C121.567995,16.308 120.65867,16.1503349 119.896,15.835 C119.13333,15.5196651 118.506336,15.0906694 118.015,14.548 C117.523664,14.0053306 117.164334,13.3636704 116.937,12.623 C116.709666,11.8823296 116.596,11.0793377 116.596,10.214 Z M127.046,10.302 C127.046,9.2753282 127.203665,8.37700385 127.519,7.607 C127.834335,6.83699615 128.248664,6.1953359 128.762,5.682 C129.275336,5.1686641 129.865663,4.78000132 130.533,4.516 C131.200337,4.25199868 131.885996,4.12 132.59,4.12 C134.232675,4.12 135.530662,4.62232831 136.484,5.627 C137.437338,6.63167169 137.914,8.10932358 137.914,10.06 C137.914,10.2506676 137.906667,10.4596655 137.892,10.687 C137.877333,10.9143345 137.862667,11.1159991 137.848,11.292 L130.412,11.292 C130.485334,11.96667 130.800664,12.501998 131.358,12.898 C131.915336,13.294002 132.663329,13.492 133.602,13.492 C134.203336,13.492 134.793664,13.4370006 135.373,13.327 C135.952336,13.2169995 136.425331,13.0813341 136.792,12.92 L137.232,15.582 C137.055999,15.6700004 136.821335,15.7579996 136.528,15.846 C136.234665,15.9340004 135.908335,16.0109997 135.549,16.077 C135.189665,16.1430003 134.804669,16.1979998 134.394,16.242 C133.983331,16.2860002 133.572669,16.308 133.162,16.308 C132.120661,16.308 131.215004,16.1540015 130.445,15.846 C129.674996,15.5379985 129.037003,15.116336 128.531,14.581 C128.024997,14.045664 127.651001,13.411337 127.409,12.678 C127.166999,11.944663 127.046,11.1526709 127.046,10.302 Z M134.746,9.048 C134.731333,8.76933194 134.683667,8.49800132 134.603,8.234 C134.522333,7.96999868 134.397668,7.73533436 134.229,7.53 C134.060332,7.32466564 133.847668,7.15600066 133.591,7.024 C133.334332,6.89199934 133.015335,6.826 132.634,6.826 C132.267332,6.826 131.952001,6.88833271 131.688,7.013 C131.423999,7.13766729 131.204001,7.30266564 131.028,7.508 C130.851999,7.71333436 130.716334,7.95166531 130.621,8.223 C130.525666,8.49433469 130.456,8.76933194 130.412,9.048 L134.746,9.048 Z M143.766,13.646 C144.367336,13.646 144.792665,13.5873339 145.042,13.47 C145.291335,13.3526661 145.416,13.125335 145.416,12.788 C145.416,12.5239987 145.254668,12.293001 144.932,12.095 C144.609332,11.896999 144.118003,11.6733346 143.458,11.424 C142.944664,11.2333324 142.479002,11.0353344 142.061,10.83 C141.642998,10.6246656 141.287335,10.3790014 140.994,10.093 C140.700665,9.80699857 140.473334,9.46600198 140.312,9.07 C140.150666,8.67399802 140.07,8.19733612 140.07,7.64 C140.07,6.55466124 140.473329,5.69666982 141.28,5.066 C142.086671,4.43533018 143.193993,4.12 144.602,4.12 C145.306004,4.12 145.980663,4.18233271 146.626,4.307 C147.271337,4.43166729 147.784665,4.5673326 148.166,4.714 L147.594,7.266 C147.212665,7.13399934 146.798336,7.01666718 146.351,6.914 C145.903664,6.81133282 145.401336,6.76 144.844,6.76 C143.817328,6.76 143.304,7.04599714 143.304,7.618 C143.304,7.75000066 143.326,7.86733282 143.37,7.97 C143.414,8.07266718 143.501999,8.17166619 143.634,8.267 C143.766001,8.36233381 143.945666,8.46499945 144.173,8.575 C144.400334,8.68500055 144.689998,8.80599934 145.042,8.938 C145.76067,9.20200132 146.354664,9.46233205 146.824,9.719 C147.293336,9.97566795 147.663665,10.2543318 147.935,10.555 C148.206335,10.8556682 148.396999,11.1893315 148.507,11.556 C148.617001,11.9226685 148.672,12.3479976 148.672,12.832 C148.672,13.9760057 148.243004,14.8413304 147.385,15.428 C146.526996,16.0146696 145.313341,16.308 143.744,16.308 C142.717328,16.308 141.863003,16.2200009 141.181,16.044 C140.498997,15.8679991 140.026001,15.7213339 139.762,15.604 L140.312,12.942 C140.869336,13.1620011 141.44133,13.3343327 142.028,13.459 C142.61467,13.5836673 143.193997,13.646 143.766,13.646 Z" fill="#001B3D" fill-rule="nonzero"></path>
            </g>
        </g>
    </g>
</svg>