<svg width="683" height="300" viewBox="0 0 683 300" fill="none" xmlns="http://www.w3.org/2000/svg">
<path d="M565.5 268C586.211 268 603 251.211 603 230.5C603 209.789 586.211 193 565.5 193C544.789 193 528 209.789 528 230.5C528 251.211 544.789 268 565.5 268Z" fill="#001B3D"/>
<path d="M551.652 230.086C551.652 228.492 553.027 227.445 555.16 227.445C557.309 227.445 558.637 228.547 558.684 230.188H556.582C556.512 229.508 556.004 229.047 555.16 229.047C554.371 229.047 553.848 229.406 553.848 229.961C553.848 230.391 554.16 230.68 555.004 230.859L556.434 231.164C558.184 231.531 558.902 232.219 558.902 233.445C558.902 235.094 557.395 236.18 555.238 236.18C552.926 236.18 551.59 235.102 551.441 233.453H553.668C553.809 234.188 554.332 234.578 555.238 234.578C556.098 234.578 556.629 234.227 556.629 233.68C556.629 233.234 556.34 232.984 555.52 232.797L554.09 232.5C552.473 232.156 551.652 231.344 551.652 230.086ZM560.066 236V227.625H562.348V236H560.066ZM561.199 226.492C560.535 226.492 560.012 225.961 560.012 225.32C560.012 224.672 560.535 224.148 561.199 224.148C561.863 224.148 562.387 224.672 562.387 225.32C562.387 225.961 561.863 226.492 561.199 226.492ZM563.863 236V227.625H566.066V229.117H566.113C566.559 228.078 567.441 227.469 568.73 227.469C570.59 227.469 571.637 228.641 571.637 230.602V236H569.355V231.078C569.355 229.984 568.84 229.359 567.816 229.359C566.793 229.359 566.145 230.109 566.145 231.195V236H563.863ZM575.449 230.984L578.293 227.625H580.879L577.684 231.219L581.035 236H578.41L576.012 232.594L575.418 233.234V236H573.137V224.727H575.418V230.984H575.449Z" fill="white"/>
<path d="M645.5 208C666.211 208 683 191.211 683 170.5C683 149.789 666.211 133 645.5 133C624.789 133 608 149.789 608 170.5C608 191.211 624.789 208 645.5 208Z" fill="#001B3D"/>
<path d="M631.652 170.086C631.652 168.492 633.027 167.445 635.16 167.445C637.309 167.445 638.637 168.547 638.684 170.187H636.582C636.512 169.508 636.004 169.047 635.16 169.047C634.371 169.047 633.848 169.406 633.848 169.961C633.848 170.391 634.16 170.68 635.004 170.859L636.434 171.164C638.184 171.531 638.902 172.219 638.902 173.445C638.902 175.094 637.395 176.18 635.238 176.18C632.926 176.18 631.59 175.102 631.441 173.453H633.668C633.809 174.187 634.332 174.578 635.238 174.578C636.098 174.578 636.629 174.227 636.629 173.68C636.629 173.234 636.34 172.984 635.52 172.797L634.09 172.5C632.473 172.156 631.652 171.344 631.652 170.086ZM640.066 176V167.625H642.348V176H640.066ZM641.199 166.492C640.535 166.492 640.012 165.961 640.012 165.32C640.012 164.672 640.535 164.148 641.199 164.148C641.863 164.148 642.387 164.672 642.387 165.32C642.387 165.961 641.863 166.492 641.199 166.492ZM643.863 176V167.625H646.066V169.117H646.113C646.559 168.078 647.441 167.469 648.73 167.469C650.59 167.469 651.637 168.641 651.637 170.602V176H649.355V171.078C649.355 169.984 648.84 169.359 647.816 169.359C646.793 169.359 646.145 170.109 646.145 171.195V176H643.863ZM655.449 170.984L658.293 167.625H660.879L657.684 171.219L661.035 176H658.41L656.012 172.594L655.418 173.234V176H653.137V164.727H655.418V170.984H655.449Z" fill="white"/>
<path d="M565.5 142C586.211 142 603 125.211 603 104.5C603 83.7893 586.211 67 565.5 67C544.789 67 528 83.7893 528 104.5C528 125.211 544.789 142 565.5 142Z" fill="#001B3D"/>
<path d="M551.652 105.086C551.652 103.492 553.027 102.445 555.16 102.445C557.309 102.445 558.637 103.547 558.684 105.188H556.582C556.512 104.508 556.004 104.047 555.16 104.047C554.371 104.047 553.848 104.406 553.848 104.961C553.848 105.391 554.16 105.68 555.004 105.859L556.434 106.164C558.184 106.531 558.902 107.219 558.902 108.445C558.902 110.094 557.395 111.18 555.238 111.18C552.926 111.18 551.59 110.102 551.441 108.453H553.668C553.809 109.188 554.332 109.578 555.238 109.578C556.098 109.578 556.629 109.227 556.629 108.68C556.629 108.234 556.34 107.984 555.52 107.797L554.09 107.5C552.473 107.156 551.652 106.344 551.652 105.086ZM560.066 111V102.625H562.348V111H560.066ZM561.199 101.492C560.535 101.492 560.012 100.961 560.012 100.32C560.012 99.6719 560.535 99.1484 561.199 99.1484C561.863 99.1484 562.387 99.6719 562.387 100.32C562.387 100.961 561.863 101.492 561.199 101.492ZM563.863 111V102.625H566.066V104.117H566.113C566.559 103.078 567.441 102.469 568.73 102.469C570.59 102.469 571.637 103.641 571.637 105.602V111H569.355V106.078C569.355 104.984 568.84 104.359 567.816 104.359C566.793 104.359 566.145 105.109 566.145 106.195V111H563.863ZM575.449 105.984L578.293 102.625H580.879L577.684 106.219L581.035 111H578.41L576.012 107.594L575.418 108.234V111H573.137V99.7266H575.418V105.984H575.449Z" fill="white"/>
<path d="M544.154 24.382C544.638 24.382 545.038 24.3416 545.353 24.261C545.668 24.1803 545.921 24.0703 546.112 23.931C546.303 23.7916 546.435 23.6266 546.508 23.436C546.581 23.2453 546.618 23.0326 546.618 22.798C546.618 22.2993 546.383 21.885 545.914 21.555C545.445 21.225 544.638 20.8693 543.494 20.488C542.995 20.312 542.497 20.1103 541.998 19.883C541.499 19.6556 541.052 19.3696 540.656 19.025C540.26 18.6803 539.937 18.2623 539.688 17.771C539.439 17.2796 539.314 16.682 539.314 15.978C539.314 15.274 539.446 14.6396 539.71 14.075C539.974 13.5103 540.348 13.03 540.832 12.634C541.316 12.238 541.903 11.9336 542.592 11.721C543.281 11.5083 544.059 11.402 544.924 11.402C545.951 11.402 546.838 11.512 547.586 11.732C548.334 11.952 548.95 12.194 549.434 12.458L548.444 15.164C548.019 14.944 547.546 14.7496 547.025 14.581C546.504 14.4123 545.877 14.328 545.144 14.328C544.323 14.328 543.732 14.4416 543.373 14.669C543.014 14.8963 542.834 15.2446 542.834 15.714C542.834 15.9926 542.9 16.2273 543.032 16.418C543.164 16.6086 543.351 16.781 543.593 16.935C543.835 17.089 544.114 17.2283 544.429 17.353C544.744 17.4776 545.093 17.606 545.474 17.738C546.266 18.0313 546.955 18.321 547.542 18.607C548.129 18.893 548.616 19.2266 549.005 19.608C549.394 19.9893 549.683 20.4366 549.874 20.95C550.065 21.4633 550.16 22.0866 550.16 22.82C550.16 24.2427 549.661 25.3463 548.664 26.131C547.667 26.9157 546.163 27.308 544.154 27.308C543.479 27.308 542.871 27.2676 542.328 27.187C541.785 27.1063 541.305 27.0073 540.887 26.89C540.469 26.7726 540.11 26.648 539.809 26.516C539.508 26.384 539.255 26.2593 539.05 26.142L540.018 23.414C540.473 23.6633 541.034 23.887 541.701 24.085C542.368 24.283 543.186 24.382 544.154 24.382ZM555.858 27H552.58V15.428H555.858V27ZM556.166 12.084C556.166 12.6853 555.972 13.1583 555.583 13.503C555.194 13.8476 554.736 14.02 554.208 14.02C553.68 14.02 553.222 13.8476 552.833 13.503C552.444 13.1583 552.25 12.6853 552.25 12.084C552.25 11.4826 552.444 11.0096 552.833 10.665C553.222 10.3203 553.68 10.148 554.208 10.148C554.736 10.148 555.194 10.3203 555.583 10.665C555.972 11.0096 556.166 11.4826 556.166 12.084ZM558.938 15.824C559.495 15.6626 560.214 15.5123 561.094 15.373C561.974 15.2336 562.898 15.164 563.866 15.164C564.849 15.164 565.666 15.2923 566.319 15.549C566.972 15.8056 567.489 16.1686 567.87 16.638C568.251 17.1073 568.523 17.6646 568.684 18.31C568.845 18.9553 568.926 19.674 568.926 20.466V27H565.648V20.862C565.648 19.806 565.509 19.058 565.23 18.618C564.951 18.178 564.431 17.958 563.668 17.958C563.433 17.958 563.184 17.969 562.92 17.991C562.656 18.013 562.421 18.0386 562.216 18.068V27H558.938V15.824ZM575.174 19.608C575.497 19.256 575.83 18.8893 576.175 18.508C576.52 18.1266 576.853 17.749 577.176 17.375C577.499 17.001 577.803 16.6453 578.089 16.308C578.375 15.9706 578.621 15.6773 578.826 15.428H582.72C581.943 16.3226 581.184 17.177 580.443 17.991C579.702 18.805 578.892 19.6446 578.012 20.51C578.452 20.906 578.907 21.379 579.376 21.929C579.845 22.479 580.3 23.0473 580.74 23.634C581.18 24.2206 581.583 24.8073 581.95 25.394C582.317 25.9806 582.625 26.516 582.874 27H579.112C578.877 26.6186 578.61 26.197 578.309 25.735C578.008 25.273 577.689 24.811 577.352 24.349C577.015 23.887 576.659 23.4433 576.285 23.018C575.911 22.5926 575.541 22.2333 575.174 21.94V27H571.896V10.456L575.174 9.92798V19.608ZM587.956 24.646C588.557 24.646 588.983 24.5873 589.232 24.47C589.481 24.3526 589.606 24.1253 589.606 23.788C589.606 23.524 589.445 23.293 589.122 23.095C588.799 22.897 588.308 22.6733 587.648 22.424C587.135 22.2333 586.669 22.0353 586.251 21.83C585.833 21.6246 585.477 21.379 585.184 21.093C584.891 20.807 584.663 20.466 584.502 20.07C584.341 19.674 584.26 19.1973 584.26 18.64C584.26 17.5546 584.663 16.6966 585.47 16.066C586.277 15.4353 587.384 15.12 588.792 15.12C589.496 15.12 590.171 15.1823 590.816 15.307C591.461 15.4316 591.975 15.5673 592.356 15.714L591.784 18.266C591.403 18.134 590.988 18.0166 590.541 17.914C590.094 17.8113 589.591 17.76 589.034 17.76C588.007 17.76 587.494 18.046 587.494 18.618C587.494 18.75 587.516 18.8673 587.56 18.97C587.604 19.0726 587.692 19.1716 587.824 19.267C587.956 19.3623 588.136 19.465 588.363 19.575C588.59 19.685 588.88 19.806 589.232 19.938C589.951 20.202 590.545 20.4623 591.014 20.719C591.483 20.9756 591.854 21.2543 592.125 21.555C592.396 21.8556 592.587 22.1893 592.697 22.556C592.807 22.9226 592.862 23.348 592.862 23.832C592.862 24.976 592.433 25.8413 591.575 26.428C590.717 27.0146 589.503 27.308 587.934 27.308C586.907 27.308 586.053 27.22 585.371 27.044C584.689 26.868 584.216 26.7213 583.952 26.604L584.502 23.942C585.059 24.162 585.631 24.3343 586.218 24.459C586.805 24.5836 587.384 24.646 587.956 24.646Z" fill="#001B3D"/>
<path d="M192 4V297.5H194V4H192Z" fill="black"/>
<path d="M492 0V300H494V0H492Z" fill="black"/>
<path d="M588.275 172.226H586V170.226H588.275V164.226L602.275 171.226L588.275 178.226V172.226ZM466 172.226V170.226H473V172.226H466ZM476 172.226V170.226H483V172.226H476ZM486 172.226V170.226H493V172.226H486ZM496 172.226V170.226H503V172.226H496ZM506 172.226V170.226H513V172.226H506ZM516 172.226V170.226H523V172.226H516ZM526 172.226V170.226H533V172.226H526ZM536 172.226V170.226H543V172.226H536ZM546 172.226V170.226H553V172.226H546ZM556 172.226V170.226H563V172.226H556ZM566 172.226V170.226H573V172.226H566ZM576 172.226V170.226H583V172.226H576Z" fill="#001B3D"/>
<path d="M519 231.226L505 238.226V224.226L519 231.226ZM466 232.226V230.226H473V232.226H466ZM476 232.226V230.226H483V232.226H476ZM486 232.226V230.226H493V232.226H486ZM496 232.226V230.226H503V232.226H496Z" fill="#001B3D"/>
<path d="M519 108.5L505 115.5V101.5L519 108.5ZM466 109.5V107.5H480V109.5H466ZM490 109.5V107.5H504V109.5H490Z" fill="#001B3D"/>
<path fill-rule="evenodd" clip-rule="evenodd" d="M253 256.02L352.924 272.954L452.845 256.02L352.924 239.085L253 256.02Z" fill="#001B3D"/>
<path fill-rule="evenodd" clip-rule="evenodd" d="M253.207 256.017L253 230.424L352.712 213.476L452.845 230.594L452.517 255.958L352.712 272.954L253.207 256.017Z" fill="#001B3D"/>
<path fill-rule="evenodd" clip-rule="evenodd" d="M253 230.824V256.188L350.361 272.954V247.806L253 230.824Z" fill="#001B3D"/>
<path fill-rule="evenodd" clip-rule="evenodd" d="M353.777 247.676L452.845 230.824L452.364 256.102L353.777 272.954V247.676Z" fill="#001B3D"/>
<path fill-rule="evenodd" clip-rule="evenodd" d="M353.777 213.476L452.845 230.438L452.364 255.606L353.981 238.828L353.777 213.476Z" fill="#001B3D"/>
<path fill-rule="evenodd" clip-rule="evenodd" d="M253 230.22V255.606L352.069 238.805L351.862 213.476L253 230.22Z" fill="#001B3D"/>
<path fill-rule="evenodd" clip-rule="evenodd" d="M253 230.306L352.924 247.24L452.845 230.306L352.924 213.37L253 230.306Z" fill="white" fill-opacity="0.332414"/>
<path fill-rule="evenodd" clip-rule="evenodd" d="M253 198.624L352.924 218.945L452.845 198.624L352.924 178.302L253 198.624Z" fill="#001B3D"/>
<path fill-rule="evenodd" clip-rule="evenodd" d="M253.207 198.621L253 167.908L352.712 147.571L452.845 168.113L452.517 198.549L352.712 218.945L253.207 198.621Z" fill="#001B3D"/>
<path fill-rule="evenodd" clip-rule="evenodd" d="M253 168.389V198.826L350.361 218.945V188.768L253 168.389Z" fill="#001B3D"/>
<path fill-rule="evenodd" clip-rule="evenodd" d="M353.777 188.611L452.845 168.389L452.364 198.722L353.777 218.945V188.611Z" fill="#001B3D"/>
<path fill-rule="evenodd" clip-rule="evenodd" d="M353.777 147.571L452.845 167.925L452.364 198.128L353.981 177.994L353.777 147.571Z" fill="#001B3D"/>
<path fill-rule="evenodd" clip-rule="evenodd" d="M253 167.665V198.128L352.069 177.966L351.862 147.571L253 167.665Z" fill="#001B3D"/>
<path fill-rule="evenodd" clip-rule="evenodd" d="M253 167.767L352.924 188.088L452.845 167.767L352.924 147.444L253 167.767Z" fill="white" fill-opacity="0.332414"/>
<path fill-rule="evenodd" clip-rule="evenodd" d="M253 135.461L352.924 155.944L452.845 135.461L352.924 114.976L253 135.461Z" fill="#001B3D"/>
<path fill-rule="evenodd" clip-rule="evenodd" d="M253.207 135.458L253 104.5L352.712 83.9999L452.845 104.706L452.517 135.386L352.712 155.944L253.207 135.458Z" fill="#001B3D"/>
<path fill-rule="evenodd" clip-rule="evenodd" d="M253 104.984V135.664L350.361 155.944V125.526L253 104.984Z" fill="#001B3D"/>
<path fill-rule="evenodd" clip-rule="evenodd" d="M353.777 125.368L452.845 104.984L452.364 135.56L353.777 155.944V125.368Z" fill="#001B3D"/>
<path fill-rule="evenodd" clip-rule="evenodd" d="M353.777 83.9999L452.845 104.517L452.364 134.961L353.981 114.666L353.777 83.9999Z" fill="#001B3D"/>
<path fill-rule="evenodd" clip-rule="evenodd" d="M253 104.254V134.961L352.069 114.638L351.862 83.9999L253 104.254Z" fill="#001B3D"/>
<path fill-rule="evenodd" clip-rule="evenodd" d="M253 104.357L352.924 124.84L452.845 104.357L352.924 83.872L253 104.357Z" fill="white" fill-opacity="0.332414"/>
<path d="M365.694 132.636L370.11 131.697C372.288 131.234 373.586 132.484 373.298 134.845C373.014 137.182 371.275 139.077 369.045 139.551L366.955 139.995L366.526 143.521L364.311 143.992L365.694 132.636ZM367.672 134.117L367.19 138.067L368.796 137.726C370.065 137.456 370.89 136.606 371.046 135.331C371.203 134.041 370.561 133.503 369.285 133.774L367.672 134.117ZM377.039 139.738C378.029 139.527 378.86 138.692 378.967 137.81L379.045 137.173L377.396 137.631C376.47 137.896 375.98 138.346 375.904 138.967C375.825 139.613 376.298 139.895 377.039 139.738ZM376.125 141.611C374.57 141.942 373.602 141.151 373.795 139.561C373.987 137.987 375.221 136.836 377.246 136.283L379.219 135.74L379.305 135.032C379.394 134.308 378.959 134.002 378.079 134.189C377.309 134.353 376.761 134.745 376.522 135.302L374.556 135.72C374.891 134.085 376.386 132.786 378.417 132.354C380.559 131.899 381.637 132.728 381.41 134.585L380.688 140.511L378.62 140.95L378.758 139.817L378.626 139.845C378.111 140.729 377.173 141.388 376.125 141.611ZM382.786 140.065L383.844 131.385L385.912 130.945L385.743 132.33L385.875 132.302C386.193 131.391 387.11 130.552 388.137 130.334C388.43 130.272 388.785 130.235 388.96 130.266L388.706 132.352C388.546 132.317 388.055 132.352 387.711 132.425C386.545 132.673 385.655 133.583 385.506 134.803L384.92 139.611L382.786 140.065ZM389.701 132.623C389.902 130.978 391.385 129.598 393.402 129.169C395.455 128.732 396.553 129.396 396.468 131.032L394.495 131.451C394.453 130.916 394.004 130.674 393.212 130.842C392.449 131.004 391.839 131.494 391.772 132.045C391.72 132.47 392.034 132.656 392.76 132.678L394.235 132.71C395.759 132.746 396.377 133.305 396.219 134.603C396.008 136.335 394.425 137.775 392.305 138.225C390.171 138.679 388.994 138.017 389.051 136.38L391.134 135.937C391.223 136.493 391.703 136.721 392.553 136.54C393.382 136.364 393.999 135.872 394.067 135.313C394.119 134.888 393.843 134.694 393.151 134.68L391.728 134.638C390.203 134.602 389.538 133.961 389.701 132.623ZM402.011 129.048C401.021 129.259 400.234 130.147 400.023 131.288L403.471 130.555C403.567 129.415 403.009 128.836 402.011 129.048ZM403.176 133.324L405.164 132.901C404.65 134.597 403.123 135.926 401.143 136.347C398.679 136.871 397.43 135.511 397.773 132.694C398.117 129.868 399.812 127.806 402.218 127.295C404.601 126.788 405.811 128.118 405.475 130.873L405.39 131.573L399.838 132.753L399.823 132.871C399.695 134.155 400.302 134.809 401.417 134.572C402.26 134.392 402.879 133.946 403.176 133.324Z" fill="white"/>
<path d="M362.628 203.228L364.842 202.796C364.741 203.647 365.503 204.031 366.792 203.779C367.982 203.547 368.958 202.816 369.151 202.004C369.313 201.318 368.861 201.03 367.587 201.009L366.232 200.989C364.335 200.969 363.599 200.139 363.988 198.499C364.469 196.472 366.446 194.814 368.971 194.321C371.382 193.85 372.773 194.843 372.387 196.745L370.233 197.166C370.329 196.337 369.66 195.928 368.553 196.144C367.408 196.367 366.526 197.037 366.331 197.857C366.174 198.52 366.607 198.798 367.825 198.816L369.079 198.834C371.169 198.859 371.896 199.606 371.5 201.275C370.986 203.444 368.98 205.1 366.236 205.636C363.628 206.146 362.236 205.216 362.628 203.228ZM375.938 202.043C376.962 201.843 377.887 201.051 378.085 200.216L378.228 199.613L376.513 200.047C375.549 200.3 375.007 200.725 374.867 201.314C374.722 201.925 375.172 202.192 375.938 202.043ZM374.823 203.817C373.216 204.131 372.316 203.383 372.673 201.877C373.027 200.387 374.392 199.296 376.497 198.771L378.55 198.257L378.709 197.586C378.872 196.9 378.463 196.61 377.553 196.788C376.757 196.944 376.163 197.315 375.864 197.843L373.833 198.24C374.337 196.691 375.981 195.46 378.081 195.05C380.295 194.618 381.302 195.402 380.885 197.161L379.554 202.772L377.416 203.19L377.67 202.117L377.534 202.143C376.923 202.981 375.907 203.605 374.823 203.817ZM381.722 202.349L383.672 194.129L385.81 193.712L385.492 195.053L385.628 195.026C386.192 194.021 387.202 193.269 388.301 193.054C389.477 192.825 390.146 193.234 390.253 194.123L390.39 194.096C390.994 193.104 392.1 192.313 393.267 192.085C394.935 191.759 395.721 192.622 395.32 194.313L393.982 199.955L391.775 200.386L392.977 195.318C393.209 194.342 392.862 193.948 391.929 194.13C391.034 194.305 390.31 195.043 390.103 195.915L388.909 200.945L386.787 201.36L388.01 196.203C388.217 195.331 387.82 194.932 386.955 195.101C386.091 195.27 385.32 196.053 385.102 196.97L383.928 201.918L381.722 202.349ZM402.931 190.24C405.046 189.827 405.968 191.154 405.337 193.814C404.707 196.467 403.049 198.305 400.957 198.713C399.759 198.947 398.964 198.612 398.761 197.82L398.625 197.847L397.679 201.834L395.472 202.265L398.07 191.317L400.208 190.9L399.888 192.249L400.024 192.222C400.698 191.209 401.778 190.465 402.931 190.24ZM400.598 197.056C401.788 196.824 402.709 195.777 403.07 194.257C403.427 192.751 402.932 191.974 401.757 192.203C400.581 192.433 399.634 193.499 399.277 195.005C398.92 196.51 399.43 197.284 400.598 197.056ZM406.233 197.562L408.928 186.205L411.134 185.774L408.44 197.131L406.233 197.562ZM415.944 189.241C414.92 189.441 414.034 190.282 413.705 191.362L417.269 190.666C417.481 189.587 416.975 189.039 415.944 189.241ZM416.69 193.288L418.745 192.887C418.053 194.493 416.373 195.752 414.326 196.152C411.779 196.65 410.652 195.363 411.285 192.695C411.92 190.02 413.844 188.066 416.331 187.58C418.795 187.099 419.884 188.358 419.266 190.966L419.108 191.629L413.369 192.75L413.342 192.862C413.083 194.078 413.63 194.696 414.783 194.471C415.655 194.301 416.326 193.878 416.69 193.288Z" fill="white"/>
<path d="M238.101 170.591C234.514 164.129 232.721 156.927 232.721 149C232.721 136.153 237.099 125.876 245.843 118.247L246.596 117.589L247.911 119.096L247.157 119.753C238.863 126.991 234.721 136.714 234.721 149C234.721 156.47 236.376 163.239 239.686 169.323L244.22 165.695L247.5 181L233.288 174.441L238.101 170.591Z" fill="#001B3D"/>
<path d="M238.036 234.644C228.489 220.064 223.721 202.175 223.721 181C223.721 154.123 231.07 133.203 245.788 118.297L246.491 117.586L247.914 118.991L247.212 119.703C232.892 134.204 225.721 154.617 225.721 181C225.721 201.725 230.352 219.18 239.603 233.387L244.202 229.699L247.5 245L233.28 238.458L238.036 234.644Z" fill="#001B3D"/>
<path d="M368.912 262.517L368.854 259.999L365.129 260.646L363.571 263.445L361.345 263.831L368.141 252.047L370.749 251.594L371.314 262.1L368.912 262.517ZM368.661 254.161L366.11 258.764L368.887 258.281L368.793 254.138L368.661 254.161ZM376.598 259.374C377.759 259.173 378.711 258.118 379.13 256.62C379.549 255.122 379.114 254.301 377.961 254.501C376.807 254.701 375.875 255.76 375.459 257.25C375.038 258.756 375.438 259.576 376.598 259.374ZM375.136 264.508C372.983 264.882 371.836 264.133 372.123 262.657L374.239 262.29C374.202 262.796 374.712 263.024 375.637 262.863C376.783 262.664 377.607 261.992 377.875 261.034L378.315 259.458L378.183 259.481C377.485 260.455 376.499 261.082 375.36 261.28C373.34 261.63 372.543 260.204 373.26 257.639C373.998 254.998 375.732 253.095 377.789 252.738C378.884 252.548 379.657 252.957 379.83 253.816L379.962 253.793L380.344 252.426L382.416 252.066L380.043 260.554C379.484 262.555 377.582 264.083 375.136 264.508ZM386.31 257.688C387.471 257.486 388.423 256.432 388.842 254.933C389.261 253.435 388.826 252.614 387.673 252.814C386.519 253.015 385.587 254.073 385.171 255.564C384.75 257.07 385.15 257.889 386.31 257.688ZM384.848 262.821C382.695 263.195 381.548 262.446 381.835 260.971L383.951 260.603C383.914 261.109 384.424 261.337 385.349 261.176C386.495 260.977 387.319 260.305 387.587 259.347L388.028 257.772L387.895 257.795C387.197 258.768 386.211 259.395 385.072 259.593C383.052 259.944 382.255 258.517 382.972 255.953C383.71 253.311 385.444 251.408 387.501 251.051C388.596 250.861 389.369 251.27 389.542 252.13L389.674 252.107L390.056 250.74L392.128 250.38L389.755 258.868C389.196 260.868 387.294 262.396 384.848 262.821ZM391.892 258.526L394.273 250.007L396.345 249.647L395.965 251.007L396.097 250.984C396.547 250.097 397.566 249.303 398.595 249.124C398.889 249.073 399.238 249.049 399.402 249.087L398.83 251.134C398.68 251.094 398.2 251.111 397.855 251.171C396.687 251.374 395.683 252.239 395.349 253.436L394.03 258.155L391.892 258.526ZM403.71 249.831C402.718 250.003 401.817 250.85 401.435 251.967L404.888 251.368C405.159 250.248 404.709 249.657 403.71 249.831ZM404.17 254.086L406.161 253.741C405.398 255.394 403.712 256.65 401.728 256.994C399.26 257.423 398.263 256.038 399.036 253.273C399.811 250.5 401.774 248.528 404.184 248.11C406.571 247.695 407.535 249.049 406.779 251.752L406.587 252.439L401.026 253.405L400.994 253.521C400.669 254.783 401.154 255.448 402.271 255.254C403.115 255.107 403.784 254.69 404.17 254.086ZM411.428 253.325C412.589 253.124 413.541 252.069 413.959 250.571C414.378 249.073 413.944 248.252 412.79 248.452C411.637 248.652 410.705 249.711 410.288 251.201C409.867 252.707 410.267 253.527 411.428 253.325ZM409.965 258.459C407.813 258.833 406.666 258.084 406.953 256.609L409.068 256.241C409.032 256.747 409.541 256.975 410.467 256.814C411.613 256.615 412.437 255.943 412.705 254.985L413.145 253.409L413.013 253.432C412.314 254.406 411.328 255.033 410.19 255.231C408.169 255.582 407.373 254.155 408.09 251.59C408.828 248.949 410.562 247.046 412.619 246.689C413.714 246.499 414.487 246.908 414.659 247.767L414.791 247.744L415.174 246.377L417.245 246.018L414.873 254.506C414.314 256.506 412.412 258.034 409.965 258.459ZM420.369 252.096C421.361 251.924 422.296 251.129 422.538 250.264L422.713 249.639L421.044 250.031C420.107 250.26 419.561 250.686 419.391 251.296C419.214 251.929 419.627 252.225 420.369 252.096ZM419.191 253.91C417.634 254.18 416.82 253.366 417.256 251.806C417.688 250.262 419.062 249.171 421.11 248.697L423.106 248.233L423.3 247.538C423.499 246.827 423.126 246.51 422.244 246.663C421.473 246.797 420.881 247.164 420.562 247.705L418.593 248.047C419.173 246.447 420.823 245.22 422.858 244.866C425.004 244.494 425.918 245.349 425.408 247.172L423.783 252.988L421.711 253.347L422.022 252.235L421.89 252.258C421.253 253.111 420.242 253.727 419.191 253.91ZM429.44 241.974L431.578 241.603L430.989 243.712L432.671 243.419L432.177 245.188L430.495 245.48L429.424 249.311C429.217 250.052 429.445 250.336 430.172 250.21C430.451 250.161 430.6 250.128 430.813 250.069L430.333 251.784C430.054 251.884 429.644 251.999 429.233 252.07C427.264 252.412 426.673 251.876 427.137 250.215L428.357 245.851L427.093 246.071L427.587 244.302L428.851 244.083L429.44 241.974ZM437.489 243.964C436.497 244.136 435.596 244.984 435.214 246.101L438.667 245.501C438.938 244.381 438.488 243.791 437.489 243.964ZM437.949 248.22L439.94 247.874C439.177 249.528 437.491 250.783 435.507 251.128C433.039 251.556 432.042 250.172 432.815 247.407C433.59 244.634 435.553 242.662 437.963 242.243C440.35 241.829 441.314 243.182 440.559 245.885L440.366 246.573L434.805 247.539L434.773 247.655C434.448 248.916 434.933 249.581 436.05 249.387C436.895 249.241 437.564 248.823 437.949 248.22Z" fill="white"/>
<path d="M306.454 11.754V14.68H301.856V27H298.424V14.68H293.826V11.754H306.454ZM313.89 18.332C313.597 18.2586 313.252 18.1816 312.856 18.101C312.46 18.0203 312.035 17.98 311.58 17.98C311.375 17.98 311.129 17.9983 310.843 18.035C310.557 18.0716 310.341 18.112 310.194 18.156V27H306.916V16.044C307.503 15.8386 308.196 15.6443 308.995 15.461C309.794 15.2776 310.685 15.186 311.668 15.186C311.844 15.186 312.057 15.197 312.306 15.219C312.555 15.241 312.805 15.2703 313.054 15.307C313.303 15.3436 313.553 15.3876 313.802 15.439C314.051 15.4903 314.264 15.5526 314.44 15.626L313.89 18.332ZM320.402 24.712C320.725 24.712 321.033 24.7046 321.326 24.69C321.619 24.6753 321.854 24.6533 322.03 24.624V22.138C321.898 22.1086 321.7 22.0793 321.436 22.05C321.172 22.0206 320.93 22.006 320.71 22.006C320.402 22.006 320.112 22.0243 319.841 22.061C319.57 22.0976 319.331 22.1673 319.126 22.27C318.921 22.3726 318.759 22.512 318.642 22.688C318.525 22.864 318.466 23.084 318.466 23.348C318.466 23.8613 318.638 24.217 318.983 24.415C319.328 24.613 319.801 24.712 320.402 24.712ZM320.138 15.12C321.106 15.12 321.913 15.23 322.558 15.45C323.203 15.67 323.72 15.9853 324.109 16.396C324.498 16.8066 324.773 17.3053 324.934 17.892C325.095 18.4786 325.176 19.1313 325.176 19.85V26.67C324.707 26.7726 324.054 26.8936 323.218 27.033C322.382 27.1723 321.37 27.242 320.182 27.242C319.434 27.242 318.756 27.176 318.147 27.044C317.538 26.912 317.014 26.6956 316.574 26.395C316.134 26.0943 315.797 25.702 315.562 25.218C315.327 24.734 315.21 24.14 315.21 23.436C315.21 22.7613 315.346 22.1893 315.617 21.72C315.888 21.2506 316.251 20.8766 316.706 20.598C317.161 20.3193 317.681 20.1176 318.268 19.993C318.855 19.8683 319.463 19.806 320.094 19.806C320.519 19.806 320.897 19.8243 321.227 19.861C321.557 19.8976 321.825 19.9453 322.03 20.004V19.696C322.03 19.1386 321.861 18.6913 321.524 18.354C321.187 18.0166 320.6 17.848 319.764 17.848C319.207 17.848 318.657 17.8883 318.114 17.969C317.571 18.0496 317.102 18.1633 316.706 18.31L316.288 15.67C316.479 15.6113 316.717 15.549 317.003 15.483C317.289 15.417 317.601 15.3583 317.938 15.307C318.275 15.2556 318.631 15.2116 319.005 15.175C319.379 15.1383 319.757 15.12 320.138 15.12ZM328.146 15.824C328.703 15.6626 329.422 15.5123 330.302 15.373C331.182 15.2336 332.106 15.164 333.074 15.164C334.057 15.164 334.874 15.2923 335.527 15.549C336.18 15.8056 336.697 16.1686 337.078 16.638C337.459 17.1073 337.731 17.6646 337.892 18.31C338.053 18.9553 338.134 19.674 338.134 20.466V27H334.856V20.862C334.856 19.806 334.717 19.058 334.438 18.618C334.159 18.178 333.639 17.958 332.876 17.958C332.641 17.958 332.392 17.969 332.128 17.991C331.864 18.013 331.629 18.0386 331.424 18.068V27H328.146V15.824ZM344.426 24.646C345.027 24.646 345.453 24.5873 345.702 24.47C345.951 24.3526 346.076 24.1253 346.076 23.788C346.076 23.524 345.915 23.293 345.592 23.095C345.269 22.897 344.778 22.6733 344.118 22.424C343.605 22.2333 343.139 22.0353 342.721 21.83C342.303 21.6246 341.947 21.379 341.654 21.093C341.361 20.807 341.133 20.466 340.972 20.07C340.811 19.674 340.73 19.1973 340.73 18.64C340.73 17.5546 341.133 16.6966 341.94 16.066C342.747 15.4353 343.854 15.12 345.262 15.12C345.966 15.12 346.641 15.1823 347.286 15.307C347.931 15.4316 348.445 15.5673 348.826 15.714L348.254 18.266C347.873 18.134 347.458 18.0166 347.011 17.914C346.564 17.8113 346.061 17.76 345.504 17.76C344.477 17.76 343.964 18.046 343.964 18.618C343.964 18.75 343.986 18.8673 344.03 18.97C344.074 19.0726 344.162 19.1716 344.294 19.267C344.426 19.3623 344.606 19.465 344.833 19.575C345.06 19.685 345.35 19.806 345.702 19.938C346.421 20.202 347.015 20.4623 347.484 20.719C347.953 20.9756 348.324 21.2543 348.595 21.555C348.866 21.8556 349.057 22.1893 349.167 22.556C349.277 22.9226 349.332 23.348 349.332 23.832C349.332 24.976 348.903 25.8413 348.045 26.428C347.187 27.0146 345.973 27.308 344.404 27.308C343.377 27.308 342.523 27.22 341.841 27.044C341.159 26.868 340.686 26.7213 340.422 26.604L340.972 23.942C341.529 24.162 342.101 24.3343 342.688 24.459C343.275 24.5836 343.854 24.646 344.426 24.646ZM356.79 9.92798C357.406 9.92798 357.971 9.99031 358.484 10.115C358.997 10.2396 359.393 10.3606 359.672 10.478L359.034 13.096C358.741 12.964 358.422 12.865 358.077 12.799C357.732 12.733 357.413 12.7 357.12 12.7C356.724 12.7 356.39 12.755 356.119 12.865C355.848 12.975 355.635 13.1253 355.481 13.316C355.327 13.5066 355.217 13.734 355.151 13.998C355.085 14.262 355.052 14.548 355.052 14.856V15.428H359.1V18.156H355.052V27H351.774V14.812C351.774 13.316 352.196 12.128 353.039 11.248C353.882 10.368 355.133 9.92798 356.79 9.92798ZM371.706 21.192C371.706 22.1013 371.574 22.9336 371.31 23.689C371.046 24.4443 370.665 25.0896 370.166 25.625C369.667 26.1603 369.07 26.5746 368.373 26.868C367.676 27.1613 366.895 27.308 366.03 27.308C365.179 27.308 364.406 27.1613 363.709 26.868C363.012 26.5746 362.415 26.1603 361.916 25.625C361.417 25.0896 361.029 24.4443 360.75 23.689C360.471 22.9336 360.332 22.1013 360.332 21.192C360.332 20.2826 360.475 19.454 360.761 18.706C361.047 17.958 361.443 17.32 361.949 16.792C362.455 16.264 363.056 15.8533 363.753 15.56C364.45 15.2666 365.209 15.12 366.03 15.12C366.866 15.12 367.632 15.2666 368.329 15.56C369.026 15.8533 369.623 16.264 370.122 16.792C370.621 17.32 371.009 17.958 371.288 18.706C371.567 19.454 371.706 20.2826 371.706 21.192ZM368.362 21.192C368.362 20.18 368.16 19.3843 367.757 18.805C367.354 18.2256 366.778 17.936 366.03 17.936C365.282 17.936 364.703 18.2256 364.292 18.805C363.881 19.3843 363.676 20.18 363.676 21.192C363.676 22.204 363.881 23.007 364.292 23.601C364.703 24.195 365.282 24.492 366.03 24.492C366.778 24.492 367.354 24.195 367.757 23.601C368.16 23.007 368.362 22.204 368.362 21.192ZM381.21 18.332C380.917 18.2586 380.572 18.1816 380.176 18.101C379.78 18.0203 379.355 17.98 378.9 17.98C378.695 17.98 378.449 17.9983 378.163 18.035C377.877 18.0716 377.661 18.112 377.514 18.156V27H374.236V16.044C374.823 15.8386 375.516 15.6443 376.315 15.461C377.114 15.2776 378.005 15.186 378.988 15.186C379.164 15.186 379.377 15.197 379.626 15.219C379.875 15.241 380.125 15.2703 380.374 15.307C380.623 15.3436 380.873 15.3876 381.122 15.439C381.371 15.4903 381.584 15.5526 381.76 15.626L381.21 18.332ZM389.878 20.862C389.878 19.806 389.742 19.058 389.471 18.618C389.2 18.178 388.734 17.958 388.074 17.958C387.869 17.958 387.656 17.969 387.436 17.991C387.216 18.013 387.003 18.0386 386.798 18.068V27H383.52V15.824C383.799 15.7506 384.125 15.6736 384.499 15.593C384.873 15.5123 385.269 15.439 385.687 15.373C386.105 15.307 386.534 15.2556 386.974 15.219C387.414 15.1823 387.847 15.164 388.272 15.164C389.108 15.164 389.786 15.2703 390.307 15.483C390.828 15.6956 391.257 15.9486 391.594 16.242C392.063 15.9046 392.602 15.6406 393.211 15.45C393.82 15.2593 394.381 15.164 394.894 15.164C395.818 15.164 396.577 15.2923 397.171 15.549C397.765 15.8056 398.238 16.1686 398.59 16.638C398.942 17.1073 399.184 17.6646 399.316 18.31C399.448 18.9553 399.514 19.674 399.514 20.466V27H396.236V20.862C396.236 19.806 396.1 19.058 395.829 18.618C395.558 18.178 395.092 17.958 394.432 17.958C394.256 17.958 394.01 18.002 393.695 18.09C393.38 18.178 393.119 18.288 392.914 18.42C393.017 18.7573 393.083 19.113 393.112 19.487C393.141 19.861 393.156 20.2606 393.156 20.686V27H389.878V20.862ZM405.806 24.646C406.407 24.646 406.833 24.5873 407.082 24.47C407.331 24.3526 407.456 24.1253 407.456 23.788C407.456 23.524 407.295 23.293 406.972 23.095C406.649 22.897 406.158 22.6733 405.498 22.424C404.985 22.2333 404.519 22.0353 404.101 21.83C403.683 21.6246 403.327 21.379 403.034 21.093C402.741 20.807 402.513 20.466 402.352 20.07C402.191 19.674 402.11 19.1973 402.11 18.64C402.11 17.5546 402.513 16.6966 403.32 16.066C404.127 15.4353 405.234 15.12 406.642 15.12C407.346 15.12 408.021 15.1823 408.666 15.307C409.311 15.4316 409.825 15.5673 410.206 15.714L409.634 18.266C409.253 18.134 408.838 18.0166 408.391 17.914C407.944 17.8113 407.441 17.76 406.884 17.76C405.857 17.76 405.344 18.046 405.344 18.618C405.344 18.75 405.366 18.8673 405.41 18.97C405.454 19.0726 405.542 19.1716 405.674 19.267C405.806 19.3623 405.986 19.465 406.213 19.575C406.44 19.685 406.73 19.806 407.082 19.938C407.801 20.202 408.395 20.4623 408.864 20.719C409.333 20.9756 409.704 21.2543 409.975 21.555C410.246 21.8556 410.437 22.1893 410.547 22.556C410.657 22.9226 410.712 23.348 410.712 23.832C410.712 24.976 410.283 25.8413 409.425 26.428C408.567 27.0146 407.353 27.308 405.784 27.308C404.757 27.308 403.903 27.22 403.221 27.044C402.539 26.868 402.066 26.7213 401.802 26.604L402.352 23.942C402.909 24.162 403.481 24.3343 404.068 24.459C404.655 24.5836 405.234 24.646 405.806 24.646Z" fill="#001B3D"/>
<path fill-rule="evenodd" clip-rule="evenodd" d="M360.206 71.7415L375.321 46.5504H345.092L360.206 71.7415Z" fill="#001B3D"/>
<path fill-rule="evenodd" clip-rule="evenodd" d="M356.627 67.2601L371.741 42.069H341.512L356.627 67.2601Z" fill="white"/>
<path fill-rule="evenodd" clip-rule="evenodd" d="M348.035 71.6089L363.07 46.5504H333L348.035 71.6089Z" fill="#001B3D"/>
<mask id="mask0" mask-type="alpha" maskUnits="userSpaceOnUse" x="340" y="45" width="16" height="14">
<path d="M348.189 45.9935L355.873 58.8012H340.504L348.189 45.9935Z" fill="white"/>
</mask>
<g mask="url(#mask0)">
<path d="M348.189 58.8012L355.873 45.9935H340.504L348.189 58.8012Z" fill="white"/>
</g>
<path d="M219.731 106.996L165.51 107.509L165.491 105.509L219.713 104.996L219.656 98.9959L233.721 105.863L219.788 112.995L219.731 106.996Z" fill="url(#paint0_linear)"/>
<path d="M219.466 106.671C195.004 107.294 176.853 116.917 164.899 135.569C161.037 141.595 158.636 145.351 156.87 148.121C156.537 148.642 156.537 148.642 156.346 148.942C156.273 149.057 156.273 149.057 156.227 149.128C156.201 149.17 156.201 149.17 156.119 149.284C156.109 149.296 156.109 149.296 156.046 149.363L155.917 149.47L155.824 149.454C154.717 151.074 152.767 153.983 149.833 158.403C138.971 174.764 117.713 179.067 86.2652 171.472L85.2932 171.237L85.7627 169.293L86.7347 169.528C117.455 176.947 137.863 172.816 148.167 157.296C151.956 151.589 154.107 148.394 154.941 147.216C155.129 146.952 155.251 146.787 155.333 146.691C155.375 146.641 155.375 146.641 155.458 146.56C155.488 146.533 155.504 146.519 155.531 146.5C157.265 143.783 159.6 140.131 163.215 134.49C175.562 115.225 194.379 105.274 219.556 104.668L219.826 98.6081L233.5 106.226L219.202 112.594L219.466 106.671ZM156.855 147.988L156.855 147.988C156.856 147.987 156.857 147.986 156.858 147.985C156.857 147.986 156.856 147.987 156.855 147.988Z" fill="url(#paint1_linear)"/>
<path d="M219.486 106.834C199.003 107.796 183.079 114.162 171.661 125.917C157.744 140.246 150.174 162.607 148.999 193.039L148.961 194.038L146.962 193.961L147.001 192.961C148.193 162.078 155.919 139.253 170.226 124.523C182.045 112.355 198.492 105.796 219.515 104.831L219.6 98.7758L233.5 105.972L219.403 112.774L219.486 106.834Z" fill="#001B3D"/>
<path d="M37.5 208C58.2107 208 75 191.211 75 170.5C75 149.789 58.2107 133 37.5 133C16.7893 133 0 149.789 0 170.5C0 191.211 16.7893 208 37.5 208Z" fill="#001B3D"/>
<path d="M13.7188 169.086C13.7188 167.492 15.0938 166.445 17.2266 166.445C19.375 166.445 20.7031 167.547 20.75 169.187H18.6484C18.5781 168.508 18.0703 168.047 17.2266 168.047C16.4375 168.047 15.9141 168.406 15.9141 168.961C15.9141 169.391 16.2266 169.68 17.0703 169.859L18.5 170.164C20.25 170.531 20.9688 171.219 20.9688 172.445C20.9688 174.094 19.4609 175.18 17.3047 175.18C14.9922 175.18 13.6562 174.102 13.5078 172.453H15.7344C15.875 173.187 16.3984 173.578 17.3047 173.578C18.1641 173.578 18.6953 173.227 18.6953 172.68C18.6953 172.234 18.4062 171.984 17.5859 171.797L16.1562 171.5C14.5391 171.156 13.7188 170.344 13.7188 169.086ZM25.9375 175.18C23.4062 175.18 21.7891 173.555 21.7891 170.805C21.7891 168.094 23.4297 166.445 25.9375 166.445C28.4453 166.445 30.0859 168.086 30.0859 170.805C30.0859 173.562 28.4688 175.18 25.9375 175.18ZM25.9375 173.437C27.0547 173.437 27.7656 172.492 27.7656 170.812C27.7656 169.148 27.0469 168.187 25.9375 168.187C24.8281 168.187 24.1016 169.148 24.1016 170.812C24.1016 172.492 24.8125 173.437 25.9375 173.437ZM38.9922 166.625V175H36.7891V173.492H36.7422C36.3281 174.547 35.5 175.156 34.2344 175.156C32.4219 175.156 31.2188 173.977 31.2188 172.023V166.625H33.5V171.547C33.5 172.664 34.0547 173.258 35.0625 173.258C36.0781 173.258 36.7109 172.531 36.7109 171.422V166.625H38.9922ZM40.4766 175V166.625H42.6797V168.133H42.7266C43.0234 167.07 43.7344 166.492 44.7188 166.492C44.9844 166.492 45.2109 166.531 45.3672 166.578V168.586C45.1797 168.508 44.8672 168.453 44.5391 168.453C43.4141 168.453 42.7578 169.141 42.7578 170.32V175H40.4766ZM53.6328 169.742H51.5156C51.3828 168.859 50.7969 168.234 49.8594 168.234C48.7344 168.234 48.0312 169.187 48.0312 170.805C48.0312 172.453 48.7344 173.391 49.8672 173.391C50.7812 173.391 51.375 172.844 51.5156 171.93H53.6406C53.5234 173.906 52.0469 175.18 49.8438 175.18C47.3203 175.18 45.7188 173.539 45.7188 170.805C45.7188 168.117 47.3203 166.445 49.8281 166.445C52.0938 166.445 53.5312 167.844 53.6328 169.742ZM58.5 168.133C57.5 168.133 56.7812 168.891 56.7031 169.937H60.2578C60.2109 168.867 59.5156 168.133 58.5 168.133ZM60.2891 172.437H62.3828C62.1328 174.078 60.6328 175.18 58.5625 175.18C55.9844 175.18 54.4375 173.531 54.4375 170.852C54.4375 168.18 56 166.445 58.4766 166.445C60.9141 166.445 62.4531 168.094 62.4531 170.641V171.336H56.6797V171.477C56.6797 172.672 57.4375 173.492 58.6016 173.492C59.4375 173.492 60.0781 173.078 60.2891 172.437Z" fill="white"/>
<path d="M119.5 268C140.211 268 157 251.211 157 230.5C157 209.789 140.211 193 119.5 193C98.7893 193 82 209.789 82 230.5C82 251.211 98.7893 268 119.5 268Z" fill="#001B3D"/>
<path d="M95.7188 229.086C95.7188 227.492 97.0938 226.445 99.2266 226.445C101.375 226.445 102.703 227.547 102.75 229.188H100.648C100.578 228.508 100.07 228.047 99.2266 228.047C98.4375 228.047 97.9141 228.406 97.9141 228.961C97.9141 229.391 98.2266 229.68 99.0703 229.859L100.5 230.164C102.25 230.531 102.969 231.219 102.969 232.445C102.969 234.094 101.461 235.18 99.3047 235.18C96.9922 235.18 95.6562 234.102 95.5078 232.453H97.7344C97.875 233.188 98.3984 233.578 99.3047 233.578C100.164 233.578 100.695 233.227 100.695 232.68C100.695 232.234 100.406 231.984 99.5859 231.797L98.1562 231.5C96.5391 231.156 95.7188 230.344 95.7188 229.086ZM107.938 235.18C105.406 235.18 103.789 233.555 103.789 230.805C103.789 228.094 105.43 226.445 107.938 226.445C110.445 226.445 112.086 228.086 112.086 230.805C112.086 233.562 110.469 235.18 107.938 235.18ZM107.938 233.438C109.055 233.438 109.766 232.492 109.766 230.812C109.766 229.148 109.047 228.188 107.938 228.188C106.828 228.188 106.102 229.148 106.102 230.812C106.102 232.492 106.812 233.438 107.938 233.438ZM120.992 226.625V235H118.789V233.492H118.742C118.328 234.547 117.5 235.156 116.234 235.156C114.422 235.156 113.219 233.977 113.219 232.023V226.625H115.5V231.547C115.5 232.664 116.055 233.258 117.062 233.258C118.078 233.258 118.711 232.531 118.711 231.422V226.625H120.992ZM122.477 235V226.625H124.68V228.133H124.727C125.023 227.07 125.734 226.492 126.719 226.492C126.984 226.492 127.211 226.531 127.367 226.578V228.586C127.18 228.508 126.867 228.453 126.539 228.453C125.414 228.453 124.758 229.141 124.758 230.32V235H122.477ZM135.633 229.742H133.516C133.383 228.859 132.797 228.234 131.859 228.234C130.734 228.234 130.031 229.188 130.031 230.805C130.031 232.453 130.734 233.391 131.867 233.391C132.781 233.391 133.375 232.844 133.516 231.93H135.641C135.523 233.906 134.047 235.18 131.844 235.18C129.32 235.18 127.719 233.539 127.719 230.805C127.719 228.117 129.32 226.445 131.828 226.445C134.094 226.445 135.531 227.844 135.633 229.742ZM140.5 228.133C139.5 228.133 138.781 228.891 138.703 229.938H142.258C142.211 228.867 141.516 228.133 140.5 228.133ZM142.289 232.438H144.383C144.133 234.078 142.633 235.18 140.562 235.18C137.984 235.18 136.438 233.531 136.438 230.852C136.438 228.18 138 226.445 140.477 226.445C142.914 226.445 144.453 228.094 144.453 230.641V231.336H138.68V231.477C138.68 232.672 139.438 233.492 140.602 233.492C141.438 233.492 142.078 233.078 142.289 232.438Z" fill="white"/>
<path d="M119.5 142C140.211 142 157 125.211 157 104.5C157 83.7893 140.211 67 119.5 67C98.7893 67 82 83.7893 82 104.5C82 125.211 98.7893 142 119.5 142Z" fill="#1BE6FF"/>
<path d="M99.777 115C99.469 114.501 99.106 113.962 98.688 113.383C98.27 112.804 97.8153 112.224 97.324 111.645C96.8327 111.066 96.323 110.508 95.795 109.973C95.267 109.438 94.739 108.965 94.211 108.554V115H90.779V99.754H94.211V105.518C95.1057 104.579 96.004 103.6 96.906 102.581C97.808 101.562 98.6477 100.619 99.425 99.754H103.495C102.454 100.986 101.409 102.174 100.36 103.318C99.3113 104.462 98.2077 105.613 97.049 106.772C98.2663 107.784 99.4433 108.987 100.58 110.38C101.717 111.773 102.806 113.313 103.847 115H99.777ZM109.809 112.712C110.132 112.712 110.44 112.705 110.733 112.69C111.026 112.675 111.261 112.653 111.437 112.624V110.138C111.305 110.109 111.107 110.079 110.843 110.05C110.579 110.021 110.337 110.006 110.117 110.006C109.809 110.006 109.519 110.024 109.248 110.061C108.977 110.098 108.738 110.167 108.533 110.27C108.328 110.373 108.166 110.512 108.049 110.688C107.932 110.864 107.873 111.084 107.873 111.348C107.873 111.861 108.045 112.217 108.39 112.415C108.735 112.613 109.208 112.712 109.809 112.712ZM109.545 103.12C110.513 103.12 111.32 103.23 111.965 103.45C112.61 103.67 113.127 103.985 113.516 104.396C113.905 104.807 114.18 105.305 114.341 105.892C114.502 106.479 114.583 107.131 114.583 107.85V114.67C114.114 114.773 113.461 114.894 112.625 115.033C111.789 115.172 110.777 115.242 109.589 115.242C108.841 115.242 108.163 115.176 107.554 115.044C106.945 114.912 106.421 114.696 105.981 114.395C105.541 114.094 105.204 113.702 104.969 113.218C104.734 112.734 104.617 112.14 104.617 111.436C104.617 110.761 104.753 110.189 105.024 109.72C105.295 109.251 105.658 108.877 106.113 108.598C106.568 108.319 107.088 108.118 107.675 107.993C108.262 107.868 108.87 107.806 109.501 107.806C109.926 107.806 110.304 107.824 110.634 107.861C110.964 107.898 111.232 107.945 111.437 108.004V107.696C111.437 107.139 111.268 106.691 110.931 106.354C110.594 106.017 110.007 105.848 109.171 105.848C108.614 105.848 108.064 105.888 107.521 105.969C106.978 106.05 106.509 106.163 106.113 106.31L105.695 103.67C105.886 103.611 106.124 103.549 106.41 103.483C106.696 103.417 107.008 103.358 107.345 103.307C107.682 103.256 108.038 103.212 108.412 103.175C108.786 103.138 109.164 103.12 109.545 103.12ZM122.569 97.928C123.185 97.928 123.75 97.9903 124.263 98.115C124.776 98.2396 125.172 98.3606 125.451 98.478L124.813 101.096C124.52 100.964 124.201 100.865 123.856 100.799C123.511 100.733 123.192 100.7 122.899 100.7C122.503 100.7 122.169 100.755 121.898 100.865C121.627 100.975 121.414 101.125 121.26 101.316C121.106 101.507 120.996 101.734 120.93 101.998C120.864 102.262 120.831 102.548 120.831 102.856V103.428H124.879V106.156H120.831V115H117.553V102.812C117.553 101.316 117.975 100.128 118.818 99.248C119.661 98.368 120.912 97.928 122.569 97.928ZM130.115 107.608C130.438 107.256 130.771 106.889 131.116 106.508C131.461 106.127 131.794 105.749 132.117 105.375C132.44 105.001 132.744 104.645 133.03 104.308C133.316 103.971 133.562 103.677 133.767 103.428H137.661C136.884 104.323 136.125 105.177 135.384 105.991C134.643 106.805 133.833 107.645 132.953 108.51C133.393 108.906 133.848 109.379 134.317 109.929C134.786 110.479 135.241 111.047 135.681 111.634C136.121 112.221 136.524 112.807 136.891 113.394C137.258 113.981 137.566 114.516 137.815 115H134.053C133.818 114.619 133.551 114.197 133.25 113.735C132.949 113.273 132.63 112.811 132.293 112.349C131.956 111.887 131.6 111.443 131.226 111.018C130.852 110.593 130.482 110.233 130.115 109.94V115H126.837V98.456L130.115 97.928V107.608ZM143.777 112.712C144.1 112.712 144.408 112.705 144.701 112.69C144.994 112.675 145.229 112.653 145.405 112.624V110.138C145.273 110.109 145.075 110.079 144.811 110.05C144.547 110.021 144.305 110.006 144.085 110.006C143.777 110.006 143.487 110.024 143.216 110.061C142.945 110.098 142.706 110.167 142.501 110.27C142.296 110.373 142.134 110.512 142.017 110.688C141.9 110.864 141.841 111.084 141.841 111.348C141.841 111.861 142.013 112.217 142.358 112.415C142.703 112.613 143.176 112.712 143.777 112.712ZM143.513 103.12C144.481 103.12 145.288 103.23 145.933 103.45C146.578 103.67 147.095 103.985 147.484 104.396C147.873 104.807 148.148 105.305 148.309 105.892C148.47 106.479 148.551 107.131 148.551 107.85V114.67C148.082 114.773 147.429 114.894 146.593 115.033C145.757 115.172 144.745 115.242 143.557 115.242C142.809 115.242 142.131 115.176 141.522 115.044C140.913 114.912 140.389 114.696 139.949 114.395C139.509 114.094 139.172 113.702 138.937 113.218C138.702 112.734 138.585 112.14 138.585 111.436C138.585 110.761 138.721 110.189 138.992 109.72C139.263 109.251 139.626 108.877 140.081 108.598C140.536 108.319 141.056 108.118 141.643 107.993C142.23 107.868 142.838 107.806 143.469 107.806C143.894 107.806 144.272 107.824 144.602 107.861C144.932 107.898 145.2 107.945 145.405 108.004V107.696C145.405 107.139 145.236 106.691 144.899 106.354C144.562 106.017 143.975 105.848 143.139 105.848C142.582 105.848 142.032 105.888 141.489 105.969C140.946 106.05 140.477 106.163 140.081 106.31L139.663 103.67C139.854 103.611 140.092 103.549 140.378 103.483C140.664 103.417 140.976 103.358 141.313 103.307C141.65 103.256 142.006 103.212 142.38 103.175C142.754 103.138 143.132 103.12 143.513 103.12Z" fill="white"/>
<path d="M73.344 24.382C73.828 24.382 74.2277 24.3416 74.543 24.261C74.8583 24.1803 75.1113 24.0703 75.302 23.931C75.4927 23.7916 75.6247 23.6266 75.698 23.436C75.7713 23.2453 75.808 23.0326 75.808 22.798C75.808 22.2993 75.5733 21.885 75.104 21.555C74.6347 21.225 73.828 20.8693 72.684 20.488C72.1853 20.312 71.6867 20.1103 71.188 19.883C70.6893 19.6556 70.242 19.3696 69.846 19.025C69.45 18.6803 69.1273 18.2623 68.878 17.771C68.6287 17.2796 68.504 16.682 68.504 15.978C68.504 15.274 68.636 14.6396 68.9 14.075C69.164 13.5103 69.538 13.03 70.022 12.634C70.506 12.238 71.0927 11.9336 71.782 11.721C72.4713 11.5083 73.2487 11.402 74.114 11.402C75.1407 11.402 76.028 11.512 76.776 11.732C77.524 11.952 78.14 12.194 78.624 12.458L77.634 15.164C77.2087 14.944 76.7357 14.7496 76.215 14.581C75.6943 14.4123 75.0673 14.328 74.334 14.328C73.5127 14.328 72.9223 14.4416 72.563 14.669C72.2037 14.8963 72.024 15.2446 72.024 15.714C72.024 15.9926 72.09 16.2273 72.222 16.418C72.354 16.6086 72.541 16.781 72.783 16.935C73.025 17.089 73.3037 17.2283 73.619 17.353C73.9343 17.4776 74.2827 17.606 74.664 17.738C75.456 18.0313 76.1453 18.321 76.732 18.607C77.3187 18.893 77.8063 19.2266 78.195 19.608C78.5837 19.9893 78.8733 20.4366 79.064 20.95C79.2547 21.4633 79.35 22.0866 79.35 22.82C79.35 24.2427 78.8513 25.3463 77.854 26.131C76.8567 26.9156 75.3533 27.308 73.344 27.308C72.6693 27.308 72.0607 27.2676 71.518 27.187C70.9753 27.1063 70.495 27.0073 70.077 26.89C69.659 26.7726 69.2997 26.648 68.999 26.516C68.6983 26.384 68.4453 26.2593 68.24 26.142L69.208 23.414C69.6627 23.6633 70.2237 23.887 70.891 24.085C71.5583 24.283 72.376 24.382 73.344 24.382ZM92.594 21.192C92.594 22.1013 92.462 22.9336 92.198 23.689C91.934 24.4443 91.5527 25.0896 91.054 25.625C90.5553 26.1603 89.9577 26.5746 89.261 26.868C88.5643 27.1613 87.7833 27.308 86.918 27.308C86.0673 27.308 85.2937 27.1613 84.597 26.868C83.9003 26.5746 83.3027 26.1603 82.804 25.625C82.3053 25.0896 81.9167 24.4443 81.638 23.689C81.3593 22.9336 81.22 22.1013 81.22 21.192C81.22 20.2826 81.363 19.454 81.649 18.706C81.935 17.958 82.331 17.32 82.837 16.792C83.343 16.264 83.9443 15.8533 84.641 15.56C85.3377 15.2666 86.0967 15.12 86.918 15.12C87.754 15.12 88.5203 15.2666 89.217 15.56C89.9137 15.8533 90.5113 16.264 91.01 16.792C91.5087 17.32 91.8973 17.958 92.176 18.706C92.4547 19.454 92.594 20.2826 92.594 21.192ZM89.25 21.192C89.25 20.18 89.0483 19.3843 88.645 18.805C88.2417 18.2256 87.666 17.936 86.918 17.936C86.17 17.936 85.5907 18.2256 85.18 18.805C84.7693 19.3843 84.564 20.18 84.564 21.192C84.564 22.204 84.7693 23.007 85.18 23.601C85.5907 24.195 86.17 24.492 86.918 24.492C87.666 24.492 88.2417 24.195 88.645 23.601C89.0483 23.007 89.25 22.204 89.25 21.192ZM105.002 26.604C104.445 26.7653 103.726 26.9156 102.846 27.055C101.966 27.1943 101.042 27.264 100.074 27.264C99.0913 27.264 98.2737 27.132 97.621 26.868C96.9683 26.604 96.4513 26.2336 96.07 25.757C95.6887 25.2803 95.4173 24.712 95.256 24.052C95.0947 23.392 95.014 22.666 95.014 21.874V15.428H98.292V21.478C98.292 22.534 98.4313 23.2966 98.71 23.766C98.9887 24.2353 99.5093 24.47 100.272 24.47C100.507 24.47 100.756 24.459 101.02 24.437C101.284 24.415 101.519 24.3893 101.724 24.36V15.428H105.002V26.604ZM115.056 18.332C114.763 18.2586 114.418 18.1816 114.022 18.101C113.626 18.0203 113.201 17.98 112.746 17.98C112.541 17.98 112.295 17.9983 112.009 18.035C111.723 18.0716 111.507 18.112 111.36 18.156V27H108.082V16.044C108.669 15.8386 109.362 15.6443 110.161 15.461C110.96 15.2776 111.851 15.186 112.834 15.186C113.01 15.186 113.223 15.197 113.472 15.219C113.721 15.241 113.971 15.2703 114.22 15.307C114.469 15.3436 114.719 15.3876 114.968 15.439C115.217 15.4903 115.43 15.5526 115.606 15.626L115.056 18.332ZM116.596 21.214C116.596 20.378 116.732 19.5896 117.003 18.849C117.274 18.1083 117.667 17.463 118.18 16.913C118.693 16.363 119.317 15.9266 120.05 15.604C120.783 15.2813 121.619 15.12 122.558 15.12C123.174 15.12 123.739 15.175 124.252 15.285C124.765 15.395 125.264 15.5526 125.748 15.758L125.066 18.376C124.758 18.2586 124.421 18.156 124.054 18.068C123.687 17.98 123.277 17.936 122.822 17.936C121.854 17.936 121.132 18.2366 120.655 18.838C120.178 19.4393 119.94 20.2313 119.94 21.214C119.94 22.2553 120.164 23.062 120.611 23.634C121.058 24.206 121.839 24.492 122.954 24.492C123.35 24.492 123.775 24.4553 124.23 24.382C124.685 24.3086 125.103 24.1913 125.484 24.03L125.946 26.714C125.565 26.8753 125.088 27.0146 124.516 27.132C123.944 27.2493 123.313 27.308 122.624 27.308C121.568 27.308 120.659 27.1503 119.896 26.835C119.133 26.5196 118.506 26.0906 118.015 25.548C117.524 25.0053 117.164 24.3636 116.937 23.623C116.71 22.8823 116.596 22.0793 116.596 21.214ZM127.046 21.302C127.046 20.2753 127.204 19.377 127.519 18.607C127.834 17.837 128.249 17.1953 128.762 16.682C129.275 16.1686 129.866 15.78 130.533 15.516C131.2 15.252 131.886 15.12 132.59 15.12C134.233 15.12 135.531 15.6223 136.484 16.627C137.437 17.6316 137.914 19.1093 137.914 21.06C137.914 21.2506 137.907 21.4596 137.892 21.687C137.877 21.9143 137.863 22.116 137.848 22.292H130.412C130.485 22.9666 130.801 23.502 131.358 23.898C131.915 24.294 132.663 24.492 133.602 24.492C134.203 24.492 134.794 24.437 135.373 24.327C135.952 24.217 136.425 24.0813 136.792 23.92L137.232 26.582C137.056 26.67 136.821 26.758 136.528 26.846C136.235 26.934 135.908 27.011 135.549 27.077C135.19 27.143 134.805 27.198 134.394 27.242C133.983 27.286 133.573 27.308 133.162 27.308C132.121 27.308 131.215 27.154 130.445 26.846C129.675 26.538 129.037 26.1163 128.531 25.581C128.025 25.0456 127.651 24.4113 127.409 23.678C127.167 22.9446 127.046 22.1526 127.046 21.302ZM134.746 20.048C134.731 19.7693 134.684 19.498 134.603 19.234C134.522 18.97 134.398 18.7353 134.229 18.53C134.06 18.3246 133.848 18.156 133.591 18.024C133.334 17.892 133.015 17.826 132.634 17.826C132.267 17.826 131.952 17.8883 131.688 18.013C131.424 18.1376 131.204 18.3026 131.028 18.508C130.852 18.7133 130.716 18.9516 130.621 19.223C130.526 19.4943 130.456 19.7693 130.412 20.048H134.746ZM143.766 24.646C144.367 24.646 144.793 24.5873 145.042 24.47C145.291 24.3526 145.416 24.1253 145.416 23.788C145.416 23.524 145.255 23.293 144.932 23.095C144.609 22.897 144.118 22.6733 143.458 22.424C142.945 22.2333 142.479 22.0353 142.061 21.83C141.643 21.6246 141.287 21.379 140.994 21.093C140.701 20.807 140.473 20.466 140.312 20.07C140.151 19.674 140.07 19.1973 140.07 18.64C140.07 17.5546 140.473 16.6966 141.28 16.066C142.087 15.4353 143.194 15.12 144.602 15.12C145.306 15.12 145.981 15.1823 146.626 15.307C147.271 15.4316 147.785 15.5673 148.166 15.714L147.594 18.266C147.213 18.134 146.798 18.0166 146.351 17.914C145.904 17.8113 145.401 17.76 144.844 17.76C143.817 17.76 143.304 18.046 143.304 18.618C143.304 18.75 143.326 18.8673 143.37 18.97C143.414 19.0726 143.502 19.1716 143.634 19.267C143.766 19.3623 143.946 19.465 144.173 19.575C144.4 19.685 144.69 19.806 145.042 19.938C145.761 20.202 146.355 20.4623 146.824 20.719C147.293 20.9756 147.664 21.2543 147.935 21.555C148.206 21.8556 148.397 22.1893 148.507 22.556C148.617 22.9226 148.672 23.348 148.672 23.832C148.672 24.976 148.243 25.8413 147.385 26.428C146.527 27.0146 145.313 27.308 143.744 27.308C142.717 27.308 141.863 27.22 141.181 27.044C140.499 26.868 140.026 26.7213 139.762 26.604L140.312 23.942C140.869 24.162 141.441 24.3343 142.028 24.459C142.615 24.5836 143.194 24.646 143.766 24.646Z" fill="#001B3D"/>
<defs>
<linearGradient id="paint0_linear" x1="165.491" y1="105.996" x2="233.721" y2="105.996" gradientUnits="userSpaceOnUse">
<stop stop-color="#10E7FF"/>
<stop offset="1" stop-color="#001B3D"/>
</linearGradient>
<linearGradient id="paint1_linear" x1="109.459" y1="143.331" x2="184.559" y2="98.5482" gradientUnits="userSpaceOnUse">
<stop stop-color="#001B3D"/>
<stop offset="1" stop-color="#001B3D"/>
</linearGradient>
</defs>
</svg>
