<?xml version="1.0" encoding="UTF-8" standalone="no"?><svg xmlns="http://www.w3.org/2000/svg" xmlns:xlink="http://www.w3.org/1999/xlink" style="isolation:isolate" viewBox="0 0 834 450" width="834pt" height="450pt"><defs><clipPath id="_clipPath_zVT7R4onupGy2UU24fX8Q9GtTwq5qtAb"><rect width="834" height="450"/></clipPath></defs><g clip-path="url(#_clipPath_zVT7R4onupGy2UU24fX8Q9GtTwq5qtAb)"><g><g><linearGradient id="_lgradient_0" x1="0" y1="0.5" x2="1" y2="0.5" gradientTransform="matrix(834,0,0,450,0,0.952)" gradientUnits="userSpaceOnUse"><stop offset="0%" stop-opacity="1" style="stop-color:rgb(244,75,245)"/><stop offset="100%" stop-opacity="1" style="stop-color:rgb(185,52,221)"/></linearGradient><rect x="0" y="0.952" width="834" height="450" transform="matrix(1,0,0,1,0,0)" fill="url(#_lgradient_0)"/><clipPath id="_clipPath_wzFPcykc0fXtK619OH7W17xutEbHNniM"><rect x="0" y="0.952" width="834" height="450" transform="matrix(1,0,0,1,0,0)" fill="rgb(255,255,255)"/></clipPath><g clip-path="url(#_clipPath_wzFPcykc0fXtK619OH7W17xutEbHNniM)"><g><g><g><g><path d=" M 447.041 306.818 L 537.179 325.205 L 627.314 306.818 L 537.179 288.429 L 447.041 306.818 Z " fill-rule="evenodd" fill="rgb(0,27,61)"/><path d=" M 447.228 306.815 L 447.041 279.025 L 536.988 260.623 L 627.314 279.209 L 627.018 306.75 L 536.988 325.205 L 447.228 306.815 Z " fill-rule="evenodd" fill="rgb(0,27,61)"/><path d=" M 447.041 279.459 L 447.041 307 L 534.867 325.205 L 534.867 297.899 L 447.041 279.459 Z " fill-rule="evenodd" fill="rgb(0,27,61)"/><path d=" M 537.948 297.757 L 627.314 279.459 L 626.88 306.906 L 537.948 325.205 L 537.948 297.757 Z " fill-rule="evenodd" fill="rgb(0,27,61)"/><path d=" M 537.948 260.623 L 627.314 279.04 L 626.88 306.368 L 538.132 288.15 L 537.948 260.623 Z " fill-rule="evenodd" fill="rgb(0,27,61)"/><path d=" M 447.041 278.804 L 447.041 306.368 L 536.407 288.125 L 536.221 260.623 L 447.041 278.804 Z " fill-rule="evenodd" fill="rgb(0,27,61)"/><path d=" M 447.041 278.897 L 537.179 297.284 L 627.314 278.897 L 537.179 260.508 L 447.041 278.897 Z " fill-rule="evenodd" fill="rgb(255,255,255)" fill-opacity="0.33241368"/></g><g><g><path d=" M 525.455 313.387 L 531.819 302.855 L 519.091 302.855 L 525.455 313.387 Z " fill-rule="evenodd" fill="rgb(255,255,255)"/><path d=" M 523.948 311.514 L 530.312 300.981 L 517.584 300.981 L 523.948 311.514 Z " fill-rule="evenodd" fill="rgb(0,27,61)"/></g><g><path d=" M 520.331 313.332 L 526.661 302.855 L 514 302.855 L 520.331 313.332 Z " fill-rule="evenodd" fill="rgb(255,255,255)"/><path d=" M 520.395 307.977 L 523.631 302.622 L 517.16 302.622 L 520.395 307.977 Z " fill="rgb(0,27,61)"/></g></g><path d=" M 551.601 311.841 L 551.548 309.57 L 548.189 310.153 L 546.783 312.678 L 544.775 313.027 L 550.905 302.397 L 553.258 301.988 L 553.768 311.465 L 551.601 311.841 Z  M 551.375 304.304 L 549.073 308.455 L 551.578 308.02 L 551.494 304.283 L 551.375 304.304 Z  M 558.535 309.006 C 559.582 308.824 560.44 307.873 560.818 306.522 C 561.196 305.17 560.804 304.429 559.763 304.61 C 558.723 304.791 557.882 305.745 557.507 307.09 C 557.127 308.449 557.488 309.188 558.535 309.006 Z  M 557.215 313.637 C 555.273 313.974 554.239 313.299 554.497 311.968 L 556.406 311.636 C 556.373 312.093 556.833 312.298 557.668 312.153 C 558.702 311.973 559.445 311.367 559.686 310.503 L 560.084 309.082 L 559.964 309.103 C 559.334 309.981 558.445 310.546 557.417 310.725 C 555.595 311.041 554.877 309.754 555.523 307.441 C 556.189 305.058 557.753 303.342 559.609 303.019 C 560.596 302.848 561.294 303.217 561.449 303.992 L 561.569 303.972 L 561.913 302.739 L 563.782 302.414 L 561.642 310.071 C 561.138 311.875 559.422 313.254 557.215 313.637 Z  M 567.296 307.485 C 568.343 307.303 569.201 306.352 569.579 305 C 569.957 303.648 569.565 302.908 568.524 303.089 C 567.484 303.269 566.643 304.224 566.267 305.569 C 565.888 306.927 566.248 307.667 567.296 307.485 Z  M 565.976 312.115 C 564.034 312.453 563 311.777 563.258 310.446 L 565.167 310.115 C 565.134 310.571 565.594 310.776 566.429 310.631 C 567.462 310.452 568.206 309.846 568.447 308.982 L 568.844 307.56 L 568.725 307.581 C 568.095 308.459 567.206 309.025 566.178 309.203 C 564.356 309.52 563.637 308.233 564.284 305.92 C 564.95 303.537 566.514 301.82 568.37 301.498 C 569.357 301.326 570.055 301.696 570.21 302.471 L 570.329 302.45 L 570.674 301.217 L 572.543 300.893 L 570.403 308.549 C 569.899 310.354 568.183 311.732 565.976 312.115 Z  M 572.33 308.241 L 574.478 300.556 L 576.347 300.232 L 576.004 301.458 L 576.123 301.437 C 576.53 300.638 577.449 299.921 578.377 299.76 C 578.642 299.714 578.957 299.692 579.105 299.726 L 578.589 301.573 C 578.454 301.536 578.021 301.552 577.709 301.606 C 576.656 301.789 575.75 302.569 575.448 303.649 L 574.259 307.906 L 572.33 308.241 Z  M 582.991 300.397 C 582.096 300.553 581.283 301.317 580.939 302.325 L 584.053 301.784 C 584.298 300.773 583.892 300.241 582.991 300.397 Z  M 583.406 304.236 L 585.202 303.924 C 584.513 305.416 582.993 306.548 581.203 306.859 C 578.977 307.246 578.077 305.997 578.775 303.503 C 579.474 301.001 581.245 299.222 583.418 298.845 C 585.572 298.471 586.441 299.692 585.76 302.13 L 585.586 302.75 L 580.57 303.622 L 580.541 303.726 C 580.248 304.864 580.685 305.464 581.693 305.289 C 582.455 305.157 583.058 304.78 583.406 304.236 Z  M 589.953 303.55 C 591 303.368 591.859 302.417 592.237 301.065 C 592.614 299.714 592.222 298.973 591.182 299.154 C 590.142 299.334 589.301 300.289 588.925 301.634 C 588.545 302.992 588.906 303.732 589.953 303.55 Z  M 588.634 308.18 C 586.692 308.518 585.658 307.842 585.916 306.511 L 587.825 306.18 C 587.792 306.636 588.251 306.841 589.086 306.696 C 590.12 306.517 590.863 305.911 591.105 305.047 L 591.502 303.625 L 591.383 303.646 C 590.753 304.525 589.863 305.09 588.836 305.268 C 587.014 305.585 586.295 304.298 586.942 301.985 C 587.608 299.602 589.172 297.885 591.028 297.563 C 592.015 297.391 592.713 297.761 592.868 298.536 L 592.987 298.515 L 593.332 297.282 L 595.201 296.958 L 593.061 304.614 C 592.556 306.419 590.84 307.797 588.634 308.18 Z  M 598.019 302.441 C 598.913 302.285 599.757 301.569 599.975 300.788 L 600.133 300.224 L 598.628 300.578 C 597.782 300.785 597.29 301.169 597.136 301.719 C 596.976 302.29 597.349 302.557 598.019 302.441 Z  M 596.956 304.077 C 595.551 304.321 594.817 303.587 595.21 302.179 C 595.6 300.786 596.84 299.802 598.686 299.375 L 600.487 298.956 L 600.662 298.329 C 600.841 297.688 600.505 297.402 599.71 297.54 C 599.014 297.661 598.48 297.992 598.193 298.48 L 596.417 298.788 C 596.94 297.345 598.428 296.238 600.264 295.919 C 602.199 295.583 603.024 296.355 602.564 297.999 L 601.098 303.245 L 599.229 303.569 L 599.51 302.566 L 599.39 302.587 C 598.816 303.356 597.904 303.912 596.956 304.077 Z  M 606.201 293.31 L 608.13 292.975 L 607.598 294.877 L 609.116 294.614 L 608.67 296.209 L 607.152 296.473 L 606.186 299.928 C 605.999 300.597 606.205 300.853 606.861 300.739 C 607.113 300.695 607.248 300.665 607.439 300.612 L 607.007 302.159 C 606.755 302.249 606.385 302.353 606.014 302.418 C 604.238 302.726 603.705 302.242 604.124 300.744 L 605.224 296.808 L 604.084 297.006 L 604.53 295.41 L 605.67 295.212 L 606.201 293.31 Z  M 613.461 295.105 C 612.567 295.261 611.754 296.025 611.409 297.033 L 614.524 296.492 C 614.769 295.481 614.363 294.949 613.461 295.105 Z  M 613.877 298.944 L 615.672 298.632 C 614.984 300.124 613.464 301.256 611.674 301.567 C 609.448 301.954 608.548 300.705 609.245 298.211 C 609.945 295.709 611.715 293.93 613.889 293.553 C 616.043 293.179 616.912 294.4 616.231 296.838 L 616.057 297.458 L 611.041 298.33 L 611.011 298.434 C 610.719 299.572 611.156 300.172 612.163 299.997 C 612.926 299.865 613.529 299.488 613.877 298.944 Z " fill="rgb(255,255,255)"/></g><g><path d=" M 447.041 254.206 L 537.179 272.536 L 627.314 254.206 L 537.179 235.874 L 447.041 254.206 Z " fill-rule="evenodd" fill="rgb(0,27,61)"/><path d=" M 447.228 254.203 L 447.041 226.498 L 536.988 208.153 L 627.314 226.683 L 627.018 254.138 L 536.988 272.536 L 447.228 254.203 Z " fill-rule="evenodd" fill="rgb(0,27,61)"/><path d=" M 447.041 226.931 L 447.041 254.387 L 534.867 272.536 L 534.867 245.315 L 447.041 226.931 Z " fill-rule="evenodd" fill="rgb(0,27,61)"/><path d=" M 537.948 245.173 L 627.314 226.931 L 626.88 254.294 L 537.948 272.536 L 537.948 245.173 Z " fill-rule="evenodd" fill="rgb(0,27,61)"/><path d=" M 537.948 208.153 L 627.314 226.514 L 626.88 253.758 L 538.132 235.596 L 537.948 208.153 Z " fill-rule="evenodd" fill="rgb(0,27,61)"/><path d=" M 447.041 226.278 L 447.041 253.758 L 536.407 235.571 L 536.221 208.153 L 447.041 226.278 Z " fill-rule="evenodd" fill="rgb(0,27,61)"/><path d=" M 447.041 226.371 L 537.179 244.701 L 627.314 226.371 L 537.179 208.039 L 447.041 226.371 Z " fill-rule="evenodd" fill="rgb(255,255,255)" fill-opacity="0.33241368"/><g><g><path d=" M 523.455 261.387 L 529.819 250.855 L 517.091 250.855 L 523.455 261.387 Z " fill-rule="evenodd" fill="rgb(255,255,255)"/><path d=" M 521.948 259.514 L 528.312 248.981 L 515.584 248.981 L 521.948 259.514 Z " fill-rule="evenodd" fill="rgb(0,27,61)"/></g><g><path d=" M 518.331 261.332 L 524.661 250.855 L 512 250.855 L 518.331 261.332 Z " fill-rule="evenodd" fill="rgb(255,255,255)"/><path d=" M 518.395 255.977 L 521.631 250.622 L 515.16 250.622 L 518.395 255.977 Z " fill="rgb(0,27,61)"/></g></g><path d=" M 545.932 258.359 L 547.929 257.969 C 547.838 258.737 548.526 259.083 549.689 258.856 C 550.762 258.646 551.643 257.987 551.816 257.255 C 551.963 256.636 551.555 256.376 550.405 256.357 L 549.183 256.339 C 547.472 256.321 546.809 255.572 547.16 254.093 C 547.593 252.265 549.377 250.769 551.654 250.324 C 553.829 249.899 555.084 250.795 554.735 252.511 L 552.793 252.89 C 552.879 252.143 552.275 251.773 551.277 251.968 C 550.244 252.17 549.449 252.774 549.273 253.514 C 549.131 254.112 549.522 254.363 550.62 254.379 L 551.751 254.395 C 553.637 254.418 554.293 255.091 553.936 256.597 C 553.472 258.553 551.663 260.048 549.187 260.531 C 546.834 260.991 545.579 260.152 545.932 258.359 Z  M 557.939 257.29 C 558.862 257.109 559.697 256.395 559.876 255.642 L 560.005 255.098 L 558.457 255.49 C 557.588 255.717 557.099 256.101 556.973 256.632 C 556.842 257.183 557.248 257.425 557.939 257.29 Z  M 556.933 258.89 C 555.483 259.173 554.672 258.498 554.994 257.14 C 555.313 255.796 556.544 254.812 558.443 254.338 L 560.295 253.874 L 560.439 253.269 C 560.585 252.651 560.217 252.389 559.396 252.55 C 558.678 252.69 558.142 253.025 557.873 253.501 L 556.04 253.859 C 556.495 252.462 557.978 251.352 559.872 250.982 C 561.869 250.592 562.778 251.299 562.401 252.886 L 561.201 257.948 L 559.272 258.324 L 559.502 257.356 L 559.378 257.38 C 558.828 258.136 557.911 258.699 556.933 258.89 Z  M 563.156 257.566 L 564.916 250.151 L 566.844 249.774 L 566.557 250.984 L 566.68 250.96 C 567.189 250.053 568.1 249.375 569.091 249.182 C 570.152 248.975 570.755 249.344 570.852 250.146 L 570.975 250.121 C 571.52 249.227 572.518 248.512 573.571 248.307 C 575.076 248.013 575.785 248.791 575.423 250.317 L 574.215 255.406 L 572.225 255.795 L 573.31 251.223 C 573.518 250.343 573.205 249.987 572.364 250.152 C 571.557 250.309 570.903 250.975 570.716 251.762 L 569.64 256.3 L 567.725 256.674 L 568.829 252.022 C 569.015 251.235 568.657 250.876 567.877 251.028 C 567.098 251.18 566.402 251.887 566.206 252.713 L 565.147 257.177 L 563.156 257.566 Z  M 582.288 246.643 C 584.196 246.27 585.028 247.467 584.458 249.867 C 583.891 252.26 582.395 253.918 580.507 254.286 C 579.427 254.497 578.709 254.195 578.527 253.481 L 578.404 253.505 L 577.55 257.101 L 575.56 257.49 L 577.903 247.615 L 579.832 247.238 L 579.543 248.455 L 579.666 248.431 C 580.274 247.517 581.249 246.846 582.288 246.643 Z  M 580.184 252.792 C 581.257 252.582 582.088 251.637 582.413 250.266 C 582.736 248.908 582.289 248.207 581.229 248.414 C 580.169 248.621 579.314 249.583 578.992 250.941 C 578.67 252.299 579.131 252.997 580.184 252.792 Z  M 585.267 253.248 L 587.698 243.003 L 589.688 242.614 L 587.257 252.859 L 585.267 253.248 Z  M 594.027 245.741 C 593.103 245.922 592.304 246.68 592.007 247.655 L 595.222 247.027 C 595.414 246.054 594.957 245.56 594.027 245.741 Z  M 594.7 249.392 L 596.553 249.03 C 595.929 250.479 594.414 251.615 592.567 251.976 C 590.269 252.425 589.253 251.264 589.824 248.857 C 590.397 246.444 592.132 244.682 594.376 244.244 C 596.598 243.81 597.581 244.945 597.023 247.297 L 596.881 247.896 L 591.704 248.907 L 591.68 249.008 C 591.446 250.105 591.94 250.662 592.979 250.459 C 593.766 250.306 594.371 249.925 594.7 249.392 Z " fill="rgb(255,255,255)"/></g><g><path d=" M 167.402 282.925 L 257.54 301.402 L 347.675 282.925 L 257.54 264.446 L 167.402 282.925 Z " fill-rule="evenodd" fill="rgb(0,27,61)"/><path d=" M 167.589 282.922 L 167.402 254.996 L 257.349 236.504 L 347.675 255.181 L 347.379 282.857 L 257.349 301.402 L 167.589 282.922 Z " fill-rule="evenodd" fill="rgb(0,27,61)"/><path d=" M 167.402 255.432 L 167.402 283.108 L 255.227 301.402 L 255.227 273.962 L 167.402 255.432 Z " fill-rule="evenodd" fill="rgb(0,27,61)"/><path d=" M 258.309 273.82 L 347.675 255.432 L 347.241 283.014 L 258.309 301.402 L 258.309 273.82 Z " fill-rule="evenodd" fill="rgb(0,27,61)"/><path d=" M 258.309 236.504 L 347.675 255.011 L 347.241 282.473 L 258.493 264.166 L 258.309 236.504 Z " fill-rule="evenodd" fill="rgb(0,27,61)"/><path d=" M 167.402 254.774 L 167.402 282.473 L 256.768 264.141 L 256.581 236.504 L 167.402 254.774 Z " fill-rule="evenodd" fill="rgb(0,27,61)"/><path d=" M 167.402 254.867 L 257.54 273.344 L 347.675 254.867 L 257.54 236.388 L 167.402 254.867 Z " fill-rule="evenodd" fill="rgb(255,255,255)" fill-opacity="0.33241368"/><path d=" M 269.059 280.376 L 273.042 279.53 C 275.007 279.112 276.178 280.239 275.919 282.369 C 275.662 284.477 274.094 286.187 272.082 286.614 L 270.197 287.015 L 269.809 290.195 L 267.811 290.62 L 269.059 280.376 Z  M 270.843 281.712 L 270.409 285.276 L 271.858 284.968 C 273.002 284.724 273.746 283.958 273.887 282.808 C 274.029 281.643 273.45 281.158 272.298 281.403 L 270.843 281.712 Z  M 279.293 286.783 C 280.186 286.593 280.935 285.839 281.032 285.044 L 281.102 284.469 L 279.615 284.882 C 278.78 285.121 278.337 285.527 278.269 286.087 C 278.198 286.67 278.625 286.925 279.293 286.783 Z  M 278.468 288.472 C 277.066 288.77 276.192 288.057 276.367 286.623 C 276.54 285.203 277.653 284.165 279.479 283.666 L 281.26 283.177 L 281.337 282.538 C 281.417 281.885 281.025 281.608 280.231 281.777 C 279.537 281.925 279.042 282.279 278.827 282.781 L 277.053 283.158 C 277.356 281.683 278.704 280.511 280.536 280.122 C 282.468 279.711 283.44 280.459 283.236 282.134 L 282.585 287.48 L 280.719 287.876 L 280.844 286.854 L 280.725 286.879 C 280.26 287.676 279.414 288.271 278.468 288.472 Z  M 284.477 287.077 L 285.431 279.247 L 287.297 278.851 L 287.145 280.1 L 287.264 280.075 C 287.551 279.253 288.378 278.497 289.304 278.3 C 289.569 278.243 289.889 278.21 290.046 278.239 L 289.817 280.12 C 289.672 280.088 289.23 280.12 288.919 280.186 C 287.867 280.41 287.065 281.23 286.931 282.331 L 286.402 286.668 L 284.477 287.077 Z  M 290.715 280.365 C 290.896 278.881 292.234 277.636 294.053 277.249 C 295.905 276.855 296.896 277.454 296.819 278.929 L 295.039 279.307 C 295.002 278.824 294.596 278.606 293.882 278.758 C 293.194 278.904 292.644 279.346 292.583 279.843 C 292.536 280.226 292.819 280.395 293.474 280.414 L 294.804 280.443 C 296.18 280.476 296.737 280.979 296.594 282.151 C 296.404 283.713 294.976 285.012 293.064 285.418 C 291.139 285.827 290.077 285.23 290.128 283.753 L 292.007 283.354 C 292.088 283.855 292.52 284.061 293.288 283.898 C 294.035 283.739 294.592 283.295 294.654 282.791 C 294.7 282.408 294.451 282.233 293.827 282.22 L 292.543 282.182 C 291.168 282.149 290.568 281.572 290.715 280.365 Z  M 301.819 277.14 C 300.926 277.33 300.216 278.131 300.026 279.16 L 303.136 278.499 C 303.223 277.471 302.719 276.949 301.819 277.14 Z  M 302.87 280.997 L 304.663 280.615 C 304.2 282.145 302.823 283.344 301.036 283.724 C 298.813 284.196 297.687 282.97 297.996 280.428 C 298.307 277.88 299.835 276.02 302.006 275.558 C 304.156 275.101 305.247 276.301 304.944 278.785 L 304.867 279.417 L 299.859 280.482 L 299.846 280.588 C 299.73 281.747 300.277 282.336 301.283 282.122 C 302.044 281.961 302.602 281.558 302.87 280.997 Z " fill="rgb(255,255,255)"/><g><g><path d=" M 239.455 289.387 L 245.819 278.855 L 233.091 278.855 L 239.455 289.387 Z " fill-rule="evenodd" fill="rgb(255,255,255)"/><path d=" M 237.948 287.514 L 244.312 276.981 L 231.584 276.981 L 237.948 287.514 Z " fill-rule="evenodd" fill="rgb(0,27,61)"/></g><g><path d=" M 234.331 289.332 L 240.661 278.855 L 228 278.855 L 234.331 289.332 Z " fill-rule="evenodd" fill="rgb(255,255,255)"/><path d=" M 234.395 283.977 L 237.631 278.622 L 231.16 278.622 L 234.395 283.977 Z " fill="rgb(0,27,61)"/></g></g></g></g></g></g><clipPath id="_clipPath_T8UGdIbbmV6Sn1a5dAIxQ0y721ag09vJ"><rect x="0" y="0.952" width="834" height="450" transform="matrix(1,0,0,1,0,0)" fill="rgb(255,255,255)"/></clipPath><g clip-path="url(#_clipPath_T8UGdIbbmV6Sn1a5dAIxQ0y721ag09vJ)"><g><g><path d=" M 147.539 261.98 C 54.079 226.488 -9.702 191.235 -43.832 156.169 C -79.55 119.471 -98.611 90.815 -100.993 70.066 L -101.108 69.073 L -99.121 68.844 L -99.007 69.838 C -96.69 90.016 -77.827 118.374 -42.398 154.774 C -8.519 189.583 55.035 224.711 148.239 260.107 L 150.339 254.492 L 161 265.952 L 145.435 267.605 L 147.539 261.98 L 147.539 261.98 Z " fill="rgb(255,255,255)"/><path d=" M 147.178 263.514 C 47.527 237.864 -23.317 205.282 -65.362 165.723 C -109.083 124.587 -140.809 98.612 -160.481 87.829 L -161.358 87.348 L -160.396 85.594 L -159.519 86.075 C -139.654 96.965 -107.831 123.019 -63.991 164.266 C -22.238 203.551 48.317 236.001 147.664 261.573 L 149.121 255.759 L 161 265.952 L 145.718 269.34 L 147.178 263.514 L 147.178 263.514 Z " fill="rgb(255,255,255)"/><path d=" M 147.028 266.62 C 44.518 248.801 -31.977 221.74 -82.467 185.407 C -135.033 147.58 -166.404 125.366 -176.544 118.791 L -177.383 118.247 L -176.295 116.569 L -175.456 117.113 C -165.276 123.714 -133.902 145.93 -81.299 183.784 C -31.095 219.911 45.127 246.875 147.359 264.647 L 148.348 258.736 L 161 267.952 L 146.036 272.543 L 147.028 266.62 L 147.028 266.62 Z " fill="rgb(255,255,255)"/><path d=" M 146.965 267.847 C 41.472 258.918 -37.904 238.22 -91.173 205.723 C -146.874 171.743 -175.507 142.583 -176.998 118.013 L -177.059 117.014 L -175.062 116.893 L -175.002 117.891 C -173.565 141.575 -145.3 170.36 -90.131 204.016 C -37.172 236.324 41.916 256.947 147.122 265.853 L 147.591 259.878 L 161 267.952 L 146.495 273.835 L 146.965 267.847 Z " fill="rgb(255,255,255)"/><path d=" M 147.023 267.81 C 16.449 269.718 -74.296 252.349 -125.249 215.623 C -177.21 178.169 -206.085 187.066 -213.008 242.463 L -213.132 243.456 L -215.116 243.208 L -214.992 242.215 C -207.865 185.178 -177.182 175.723 -124.079 214 C -73.559 250.415 16.807 267.712 146.983 265.811 L 146.863 259.817 L 161 266.536 L 147.143 273.814 L 147.023 267.81 L 147.023 267.81 Z " fill="rgb(255,255,255)"/><path d=" M 147.472 276.505 C 54.052 310.162 -9.708 344.493 -43.832 379.552 C -79.55 416.249 -98.611 444.905 -100.993 465.653 L -101.108 466.647 L -99.121 466.875 L -99.007 465.881 C -96.69 445.704 -77.827 417.347 -42.398 380.947 C -8.534 346.155 54.986 311.952 148.139 278.39 L 150.141 284.041 L 161 272.767 L 145.466 270.844 L 147.472 276.505 L 147.472 276.505 Z " fill="rgb(255,255,255)"/><path d=" M 147.178 273.42 C 47.527 299.07 -23.317 331.652 -65.362 371.211 C -109.083 412.347 -140.809 438.322 -160.481 449.105 L -161.358 449.586 L -160.396 451.34 L -159.519 450.859 C -139.654 439.969 -107.831 413.915 -63.991 372.668 C -22.238 333.383 48.317 300.933 147.664 275.361 L 149.121 281.175 L 161 270.982 L 145.718 267.594 L 147.178 273.42 L 147.178 273.42 Z " fill="rgb(255,255,255)"/><path d=" M 147.013 271.504 C 44.513 288.098 -31.978 314.546 -82.467 350.879 C -135.033 388.708 -166.404 410.922 -176.544 417.497 L -177.383 418.041 L -176.295 419.72 L -175.456 419.175 C -165.276 412.574 -133.902 390.358 -81.299 352.503 C -31.103 316.38 45.106 290.029 147.321 273.48 L 148.241 279.403 L 161 270.336 L 146.091 265.569 L 147.013 271.504 L 147.013 271.504 Z " fill="rgb(255,255,255)"/><path d=" M 146.965 269.889 C 41.475 276.977 -37.901 296.755 -91.173 329.255 C -146.874 363.237 -175.507 392.399 -176.998 416.97 L -177.059 417.968 L -175.062 418.089 L -175.002 417.091 C -173.565 393.406 -145.3 364.62 -90.131 330.963 C -37.181 298.659 41.896 278.955 147.087 271.885 L 147.451 277.867 L 161 270.03 L 146.601 263.893 L 146.965 269.889 L 146.965 269.889 Z " fill="rgb(255,255,255)"/><path d=" M 147.023 269.973 C 16.449 268.065 -74.296 285.434 -125.249 322.161 C -177.21 359.615 -206.085 350.717 -213.008 295.32 L -213.132 294.328 L -215.116 294.576 L -214.992 295.568 C -207.865 352.606 -177.182 362.06 -124.079 323.784 C -73.559 287.369 16.807 270.072 146.983 271.973 L 146.863 277.967 L 161 271.248 L 147.143 263.969 L 147.023 269.973 L 147.023 269.973 Z " fill="rgb(255,255,255)"/><path d=" M 424.807 254.665 C 418.199 257.998 410.773 260.781 402.53 263.017 C 386.997 267.229 371.927 268.502 357.329 266.83 L 355.839 266.659 L 356.18 263.679 L 357.671 263.849 C 371.882 265.477 386.571 264.236 401.745 260.121 C 409.667 257.973 416.798 255.314 423.14 252.145 L 418.829 245.631 L 439.917 243.069 L 429.315 261.476 L 424.807 254.665 L 424.807 254.665 Z " fill="rgb(255,255,255)"/><path d=" M 424.807 285.946 C 418.199 282.612 410.773 279.829 402.53 277.594 C 386.997 273.382 371.927 272.109 357.329 273.781 L 355.839 273.951 L 356.18 276.932 L 357.671 276.761 C 371.882 275.134 386.571 276.374 401.745 280.489 C 409.667 282.638 416.798 285.297 423.14 288.465 L 418.829 294.979 L 439.917 297.542 L 429.315 279.134 L 424.807 285.946 L 424.807 285.946 Z " fill="rgb(255,255,255)"/><path d=" M 789 241.845 L 778 241.845 L 778 238.845 L 789 238.845 L 789 230.845 L 808 240.345 L 789 249.845 L 789 241.845 L 789 241.845 Z  M 638 241.845 L 638 238.845 L 651 238.845 L 651 241.845 L 638 241.845 Z  M 658 241.845 L 658 238.845 L 671 238.845 L 671 241.845 L 658 241.845 Z  M 678 241.845 L 678 238.845 L 691 238.845 L 691 241.845 L 678 241.845 Z  M 698 241.845 L 698 238.845 L 711 238.845 L 711 241.845 L 698 241.845 Z  M 718 241.845 L 718 238.845 L 731 238.845 L 731 241.845 L 718 241.845 Z  M 738 241.845 L 738 238.845 L 751 238.845 L 751 241.845 L 738 241.845 Z  M 758 241.845 L 758 238.845 L 771 238.845 L 771 241.845 L 758 241.845 Z " fill="rgb(255,255,255)"/><path d=" M 788.994 297.465 L 777.993 297.419 L 778.005 294.419 L 789.006 294.465 L 789.04 286.465 L 808 296.044 L 788.961 305.465 L 788.994 297.465 L 788.994 297.465 Z  M 637.994 296.838 L 638.006 293.838 L 651.006 293.892 L 650.994 296.892 L 637.994 296.838 Z  M 657.994 296.921 L 658.006 293.921 L 671.006 293.975 L 670.994 296.975 L 657.994 296.921 Z  M 677.993 297.004 L 678.006 294.004 L 691.006 294.058 L 690.993 297.058 L 677.993 297.004 Z  M 697.993 297.087 L 698.006 294.087 L 711.006 294.141 L 710.993 297.141 L 697.993 297.087 Z  M 717.993 297.17 L 718.006 294.17 L 731.005 294.224 L 730.993 297.224 L 717.993 297.17 Z  M 737.993 297.253 L 738.005 294.253 L 751.005 294.307 L 750.993 297.307 L 737.993 297.253 Z  M 757.993 297.336 L 758.005 294.336 L 771.005 294.39 L 770.993 297.39 L 757.993 297.336 Z " fill="rgb(255,255,255)"/></g></g></g><clipPath id="_clipPath_3K3L6dBX8a2KqEws6LYRzLDJjzRRYRW7"><rect x="0" y="0.952" width="834" height="450" transform="matrix(1,0,0,1,0,0)" fill="rgb(255,255,255)"/></clipPath><g clip-path="url(#_clipPath_3K3L6dBX8a2KqEws6LYRzLDJjzRRYRW7)"><g><g><path d=" M 360.882 163.015 L 363.021 163.015 C 363.123 163.872 363.988 164.421 365.233 164.421 C 366.383 164.421 367.196 163.865 367.196 163.066 C 367.196 162.392 366.668 162.004 365.372 161.726 L 363.995 161.433 C 362.069 161.03 361.124 160.027 361.124 158.415 C 361.124 156.423 362.728 155.112 365.167 155.112 C 367.496 155.112 369.144 156.416 369.21 158.298 L 367.13 158.298 C 367.027 157.463 366.251 156.907 365.181 156.907 C 364.075 156.907 363.343 157.419 363.343 158.225 C 363.343 158.877 363.848 159.25 365.086 159.514 L 366.361 159.785 C 368.485 160.232 369.4 161.147 369.4 162.788 C 369.4 164.919 367.767 166.223 365.115 166.223 C 362.596 166.223 360.963 164.985 360.882 163.015 Z  M 374.08 164.473 C 375.069 164.473 375.816 163.843 375.816 163.022 L 375.816 162.429 L 374.183 162.532 C 373.267 162.598 372.821 162.927 372.821 163.506 C 372.821 164.106 373.341 164.473 374.08 164.473 Z  M 373.377 166.077 C 371.824 166.077 370.733 165.124 370.733 163.645 C 370.733 162.18 371.854 161.33 373.861 161.213 L 375.816 161.096 L 375.816 160.437 C 375.816 159.763 375.333 159.382 374.454 159.382 C 373.685 159.382 373.172 159.646 372.996 160.129 L 371.033 160.129 C 371.173 158.635 372.542 157.698 374.571 157.698 C 376.71 157.698 377.918 158.708 377.918 160.437 L 377.918 165.952 L 375.853 165.952 L 375.853 164.897 L 375.721 164.897 C 375.303 165.637 374.425 166.077 373.377 166.077 Z  M 380.013 165.952 L 380.013 157.873 L 382.078 157.873 L 382.078 159.192 L 382.21 159.192 C 382.54 158.269 383.382 157.698 384.444 157.698 C 385.579 157.698 386.356 158.254 386.678 159.192 L 386.81 159.192 C 387.183 158.291 388.114 157.698 389.241 157.698 C 390.853 157.698 391.856 158.745 391.856 160.408 L 391.856 165.952 L 389.725 165.952 L 389.725 160.972 C 389.725 160.012 389.278 159.536 388.377 159.536 C 387.513 159.536 386.956 160.151 386.956 161.008 L 386.956 165.952 L 384.906 165.952 L 384.906 160.884 C 384.906 160.027 384.407 159.536 383.573 159.536 C 382.738 159.536 382.144 160.188 382.144 161.089 L 382.144 165.952 L 380.013 165.952 Z  M 398.587 157.742 C 400.631 157.742 401.883 159.294 401.883 161.909 C 401.883 164.516 400.645 166.077 398.624 166.077 C 397.467 166.077 396.58 165.571 396.185 164.714 L 396.053 164.714 L 396.053 168.633 L 393.922 168.633 L 393.922 157.873 L 395.987 157.873 L 395.987 159.199 L 396.119 159.199 C 396.558 158.291 397.474 157.742 398.587 157.742 Z  M 397.862 164.297 C 399.012 164.297 399.693 163.403 399.693 161.909 C 399.693 160.43 399.005 159.529 397.869 159.529 C 396.734 159.529 396.031 160.437 396.031 161.916 C 396.031 163.396 396.734 164.297 397.862 164.297 Z  M 403.692 165.952 L 403.692 154.79 L 405.823 154.79 L 405.823 165.952 L 403.692 165.952 Z  M 411.529 159.331 C 410.54 159.331 409.844 160.019 409.771 161.067 L 413.214 161.067 C 413.17 159.997 412.525 159.331 411.529 159.331 Z  M 413.258 163.652 L 415.242 163.652 C 414.927 165.168 413.529 166.128 411.551 166.128 C 409.09 166.128 407.64 164.575 407.64 161.953 C 407.64 159.324 409.119 157.698 411.522 157.698 C 413.902 157.698 415.308 159.214 415.308 161.777 L 415.308 162.429 L 409.764 162.429 L 409.764 162.539 C 409.793 163.74 410.496 164.487 411.61 164.487 C 412.452 164.487 413.031 164.187 413.258 163.652 Z  M 428.133 164.062 L 428.133 165.952 L 421.131 165.952 L 421.131 155.383 L 428.133 155.383 L 428.133 157.273 L 423.343 157.273 L 423.343 159.741 L 427.862 159.741 L 427.862 161.492 L 423.343 161.492 L 423.343 164.062 L 428.133 164.062 Z  M 430.25 165.952 L 430.25 157.873 L 432.315 157.873 L 432.315 159.17 L 432.447 159.17 C 432.821 158.262 433.641 157.698 434.835 157.698 C 436.629 157.698 437.596 158.796 437.596 160.73 L 437.596 165.952 L 435.465 165.952 L 435.465 161.235 C 435.465 160.122 434.989 159.536 433.978 159.536 C 432.989 159.536 432.381 160.232 432.381 161.294 L 432.381 165.952 L 430.25 165.952 Z  M 445.676 165.952 L 445.676 160.423 L 445.676 157.873 L 447.807 157.873 L 447.807 165.952 L 445.676 165.952 Z  M 446.745 156.665 C 446.086 156.665 445.537 156.123 445.537 155.442 C 445.537 154.761 446.086 154.226 446.745 154.226 C 447.412 154.226 447.954 154.761 447.954 155.442 C 447.954 156.123 447.412 156.665 446.745 156.665 Z  M 439.569 155.954 L 441.7 155.954 L 441.7 157.954 L 443.377 157.954 L 443.377 159.631 L 441.7 159.631 L 441.7 163.264 C 441.7 163.967 442.022 164.289 442.747 164.289 C 443.026 164.289 443.172 164.282 443.377 164.26 L 443.377 165.886 C 443.114 165.937 442.718 165.981 442.308 165.981 C 440.345 165.981 439.569 165.344 439.569 163.769 L 439.569 159.631 L 438.309 159.631 L 438.309 157.954 L 439.569 157.954 L 439.569 155.954 Z  M 450.15 165.952 L 450.15 157.873 L 452.215 157.873 L 452.215 159.162 L 452.347 159.162 C 452.559 158.357 453.394 157.742 454.42 157.742 C 454.713 157.742 455.072 157.778 455.255 157.844 L 455.255 159.785 C 455.086 159.719 454.588 159.653 454.244 159.653 C 453.079 159.653 452.281 160.342 452.281 161.477 L 452.281 165.952 L 450.15 165.952 Z  M 459.986 159.331 C 458.997 159.331 458.302 160.019 458.228 161.067 L 461.671 161.067 C 461.627 159.997 460.982 159.331 459.986 159.331 Z  M 461.715 163.652 L 463.699 163.652 C 463.385 165.168 461.986 166.128 460.008 166.128 C 457.547 166.128 456.097 164.575 456.097 161.953 C 456.097 159.324 457.576 157.698 459.979 157.698 C 462.359 157.698 463.765 159.214 463.765 161.777 L 463.765 162.429 L 458.221 162.429 L 458.221 162.539 C 458.25 163.74 458.953 164.487 460.067 164.487 C 460.909 164.487 461.488 164.187 461.715 163.652 Z  M 474.364 165.952 L 472.152 165.952 L 472.152 157.273 L 468.98 157.273 L 468.98 155.383 L 477.535 155.383 L 477.535 157.273 L 474.364 157.273 L 474.364 165.952 Z  M 478.436 165.952 L 478.436 157.873 L 480.501 157.873 L 480.501 159.162 L 480.633 159.162 C 480.845 158.357 481.68 157.742 482.706 157.742 C 482.999 157.742 483.358 157.778 483.541 157.844 L 483.541 159.785 C 483.372 159.719 482.874 159.653 482.53 159.653 C 481.365 159.653 480.567 160.342 480.567 161.477 L 480.567 165.952 L 478.436 165.952 Z  M 487.73 164.473 C 488.719 164.473 489.466 163.843 489.466 163.022 L 489.466 162.429 L 487.833 162.532 C 486.917 162.598 486.47 162.927 486.47 163.506 C 486.47 164.106 486.99 164.473 487.73 164.473 Z  M 487.027 166.077 C 485.474 166.077 484.383 165.124 484.383 163.645 C 484.383 162.18 485.504 161.33 487.51 161.213 L 489.466 161.096 L 489.466 160.437 C 489.466 159.763 488.983 159.382 488.104 159.382 C 487.335 159.382 486.822 159.646 486.646 160.129 L 484.683 160.129 C 484.823 158.635 486.192 157.698 488.221 157.698 C 490.36 157.698 491.568 158.708 491.568 160.437 L 491.568 165.952 L 489.503 165.952 L 489.503 164.897 L 489.371 164.897 C 488.953 165.637 488.074 166.077 487.027 166.077 Z  M 493.663 165.952 L 493.663 157.873 L 495.728 157.873 L 495.728 159.17 L 495.86 159.17 C 496.234 158.262 497.054 157.698 498.248 157.698 C 500.042 157.698 501.009 158.796 501.009 160.73 L 501.009 165.952 L 498.878 165.952 L 498.878 161.235 C 498.878 160.122 498.402 159.536 497.391 159.536 C 496.402 159.536 495.794 160.232 495.794 161.294 L 495.794 165.952 L 493.663 165.952 Z  M 502.891 160.246 C 502.891 158.716 504.239 157.698 506.253 157.698 C 508.304 157.698 509.512 158.555 509.63 160.1 L 507.659 160.1 C 507.55 159.58 507.059 159.258 506.268 159.258 C 505.506 159.258 504.942 159.602 504.942 160.115 C 504.942 160.51 505.286 160.752 506.033 160.92 L 507.55 161.25 C 509.117 161.594 509.82 162.253 509.82 163.462 C 509.82 165.073 508.377 166.128 506.26 166.128 C 504.129 166.128 502.84 165.256 502.694 163.703 L 504.774 163.703 C 504.935 164.253 505.455 164.568 506.304 164.568 C 507.132 164.568 507.703 164.223 507.703 163.703 C 507.703 163.308 507.396 163.066 506.685 162.912 L 505.22 162.583 C 503.653 162.239 502.891 161.492 502.891 160.246 Z  M 514.486 164.473 C 515.474 164.473 516.221 163.843 516.221 163.022 L 516.221 162.429 L 514.588 162.532 C 513.673 162.598 513.226 162.927 513.226 163.506 C 513.226 164.106 513.746 164.473 514.486 164.473 Z  M 513.782 166.077 C 512.23 166.077 511.138 165.124 511.138 163.645 C 511.138 162.18 512.259 161.33 514.266 161.213 L 516.221 161.096 L 516.221 160.437 C 516.221 159.763 515.738 159.382 514.859 159.382 C 514.09 159.382 513.577 159.646 513.402 160.129 L 511.439 160.129 C 511.578 158.635 512.948 157.698 514.976 157.698 C 517.115 157.698 518.323 158.708 518.323 160.437 L 518.323 165.952 L 516.258 165.952 L 516.258 164.897 L 516.126 164.897 C 515.709 165.637 514.83 166.077 513.782 166.077 Z  M 527.567 160.723 L 525.574 160.723 C 525.428 159.953 524.879 159.448 523.97 159.448 C 522.821 159.448 522.176 160.305 522.176 161.894 C 522.176 163.506 522.828 164.377 523.97 164.377 C 524.842 164.377 525.413 163.952 525.574 163.154 L 527.567 163.154 C 527.391 164.963 526.073 166.128 523.97 166.128 C 521.451 166.128 520.023 164.604 520.023 161.894 C 520.023 159.214 521.444 157.698 523.97 157.698 C 526.109 157.698 527.391 158.884 527.567 160.723 Z  M 529.91 155.954 L 532.042 155.954 L 532.042 157.954 L 533.719 157.954 L 533.719 159.631 L 532.042 159.631 L 532.042 163.264 C 532.042 163.967 532.364 164.289 533.089 164.289 C 533.367 164.289 533.514 164.282 533.719 164.26 L 533.719 165.886 C 533.455 165.937 533.06 165.981 532.65 165.981 C 530.687 165.981 529.91 165.344 529.91 163.769 L 529.91 159.631 L 528.651 159.631 L 528.651 157.954 L 529.91 157.954 L 529.91 155.954 Z  M 535.506 165.952 L 535.506 157.873 L 537.637 157.873 L 537.637 165.952 L 535.506 165.952 Z  M 536.575 156.665 C 535.916 156.665 535.367 156.123 535.367 155.442 C 535.367 154.761 535.916 154.226 536.575 154.226 C 537.242 154.226 537.784 154.761 537.784 155.442 C 537.784 156.123 537.242 156.665 536.575 156.665 Z  M 543.372 166.128 C 540.889 166.128 539.395 164.553 539.395 161.909 C 539.395 159.294 540.911 157.698 543.372 157.698 C 545.833 157.698 547.349 159.287 547.349 161.909 C 547.349 164.553 545.855 166.128 543.372 166.128 Z  M 543.372 164.385 C 544.508 164.385 545.159 163.476 545.159 161.909 C 545.159 160.356 544.5 159.441 543.372 159.441 C 542.237 159.441 541.585 160.356 541.585 161.909 C 541.585 163.484 542.23 164.385 543.372 164.385 Z  M 549.085 165.952 L 549.085 157.873 L 551.151 157.873 L 551.151 159.17 L 551.282 159.17 C 551.656 158.262 552.476 157.698 553.67 157.698 C 555.465 157.698 556.431 158.796 556.431 160.73 L 556.431 165.952 L 554.3 165.952 L 554.3 161.235 C 554.3 160.122 553.824 159.536 552.813 159.536 C 551.824 159.536 551.217 160.232 551.217 161.294 L 551.217 165.952 L 549.085 165.952 Z  M 558.314 160.246 C 558.314 158.716 559.661 157.698 561.676 157.698 C 563.726 157.698 564.935 158.555 565.052 160.1 L 563.082 160.1 C 562.972 159.58 562.481 159.258 561.69 159.258 C 560.928 159.258 560.365 159.602 560.365 160.115 C 560.365 160.51 560.709 160.752 561.456 160.92 L 562.972 161.25 C 564.539 161.594 565.242 162.253 565.242 163.462 C 565.242 165.073 563.8 166.128 561.683 166.128 C 559.552 166.128 558.262 165.256 558.116 163.703 L 560.196 163.703 C 560.357 164.253 560.877 164.568 561.727 164.568 C 562.554 164.568 563.126 164.223 563.126 163.703 C 563.126 163.308 562.818 163.066 562.108 162.912 L 560.643 162.583 C 559.075 162.239 558.314 161.492 558.314 160.246 Z " fill="rgb(255,255,255)"/><path d=" M 390.746 357.17 L 390.746 360.422 L 392.687 360.422 C 393.8 360.422 394.452 359.822 394.452 358.804 C 394.452 357.8 393.764 357.17 392.665 357.17 L 390.746 357.17 Z  M 390.746 362.121 L 390.746 365.952 L 388.534 365.952 L 388.534 355.383 L 392.973 355.383 C 395.294 355.383 396.723 356.672 396.723 358.774 C 396.723 360.122 396.02 361.294 394.804 361.777 L 397.03 365.952 L 394.525 365.952 L 392.555 362.121 L 390.746 362.121 Z  M 401.974 359.331 C 400.985 359.331 400.29 360.019 400.216 361.067 L 403.659 361.067 C 403.615 359.997 402.97 359.331 401.974 359.331 Z  M 403.703 363.652 L 405.688 363.652 C 405.373 365.168 403.974 366.128 401.996 366.128 C 399.535 366.128 398.085 364.575 398.085 361.953 C 398.085 359.324 399.564 357.698 401.967 357.698 C 404.347 357.698 405.753 359.214 405.753 361.777 L 405.753 362.429 L 400.209 362.429 L 400.209 362.539 C 400.238 363.74 400.941 364.487 402.055 364.487 C 402.897 364.487 403.476 364.187 403.703 363.652 Z  M 410.39 366.077 C 408.354 366.077 407.101 364.48 407.101 361.902 C 407.101 359.331 408.361 357.742 410.39 357.742 C 411.481 357.742 412.382 358.269 412.799 359.162 L 412.924 359.162 L 412.924 354.79 L 415.055 354.79 L 415.055 365.952 L 412.99 365.952 L 412.99 364.685 L 412.858 364.685 C 412.426 365.556 411.51 366.077 410.39 366.077 Z  M 411.115 359.529 C 409.979 359.529 409.291 360.43 409.291 361.909 C 409.291 363.403 409.972 364.297 411.115 364.297 C 412.257 364.297 412.946 363.396 412.946 361.916 C 412.946 360.444 412.25 359.529 411.115 359.529 Z  M 424.577 357.873 L 424.577 365.952 L 422.511 365.952 L 422.511 364.656 L 422.379 364.656 C 421.999 365.593 421.244 366.128 420.021 366.128 C 418.278 366.128 417.194 365.015 417.194 363.14 L 417.194 357.873 L 419.325 357.873 L 419.325 362.59 C 419.325 363.703 419.831 364.275 420.812 364.275 C 421.874 364.275 422.445 363.608 422.445 362.532 L 422.445 357.873 L 424.577 357.873 Z  M 433.864 360.723 L 431.872 360.723 C 431.725 359.953 431.176 359.448 430.268 359.448 C 429.118 359.448 428.473 360.305 428.473 361.894 C 428.473 363.506 429.125 364.377 430.268 364.377 C 431.139 364.377 431.71 363.952 431.872 363.154 L 433.864 363.154 C 433.688 364.963 432.37 366.128 430.268 366.128 C 427.748 366.128 426.32 364.604 426.32 361.894 C 426.32 359.214 427.741 357.698 430.268 357.698 C 432.406 357.698 433.688 358.884 433.864 360.723 Z  M 439.02 359.331 C 438.031 359.331 437.335 360.019 437.262 361.067 L 440.705 361.067 C 440.661 359.997 440.016 359.331 439.02 359.331 Z  M 440.749 363.652 L 442.733 363.652 C 442.418 365.168 441.02 366.128 439.042 366.128 C 436.581 366.128 435.131 364.575 435.131 361.953 C 435.131 359.324 436.61 357.698 439.013 357.698 C 441.393 357.698 442.799 359.214 442.799 361.777 L 442.799 362.429 L 437.255 362.429 L 437.255 362.539 C 437.284 363.74 437.987 364.487 439.101 364.487 C 439.943 364.487 440.521 364.187 440.749 363.652 Z  M 455.536 364.026 L 455.536 365.952 L 448.622 365.952 L 448.622 355.383 L 450.834 355.383 L 450.834 364.026 L 455.536 364.026 Z  M 460.546 366.128 C 458.063 366.128 456.569 364.553 456.569 361.909 C 456.569 359.294 458.085 357.698 460.546 357.698 C 463.007 357.698 464.523 359.287 464.523 361.909 C 464.523 364.553 463.029 366.128 460.546 366.128 Z  M 460.546 364.385 C 461.681 364.385 462.333 363.476 462.333 361.909 C 462.333 360.356 461.674 359.441 460.546 359.441 C 459.411 359.441 458.759 360.356 458.759 361.909 C 458.759 363.484 459.403 364.385 460.546 364.385 Z  M 469.848 364.15 C 471.005 364.15 471.693 363.264 471.693 361.843 C 471.693 360.422 470.998 359.529 469.848 359.529 C 468.698 359.529 468.031 360.422 468.031 361.836 C 468.031 363.264 468.69 364.15 469.848 364.15 Z  M 469.818 369.014 C 467.672 369.014 466.251 368.069 466.12 366.648 L 468.229 366.648 C 468.339 367.146 468.939 367.461 469.862 367.461 C 471.005 367.461 471.671 366.933 471.671 366.025 L 471.671 364.531 L 471.54 364.531 C 471.093 365.381 470.243 365.835 469.108 365.835 C 467.094 365.835 465.841 364.275 465.841 361.843 C 465.841 359.338 467.101 357.742 469.152 357.742 C 470.243 357.742 471.173 358.284 471.605 359.17 L 471.737 359.17 L 471.737 357.873 L 473.803 357.873 L 473.803 365.923 C 473.803 367.82 472.257 369.014 469.818 369.014 Z  M 475.758 360.246 C 475.758 358.716 477.106 357.698 479.12 357.698 C 481.171 357.698 482.379 358.555 482.497 360.1 L 480.526 360.1 C 480.417 359.58 479.926 359.258 479.135 359.258 C 478.373 359.258 477.809 359.602 477.809 360.115 C 477.809 360.51 478.153 360.752 478.9 360.92 L 480.417 361.25 C 481.984 361.594 482.687 362.253 482.687 363.462 C 482.687 365.073 481.244 366.128 479.127 366.128 C 476.996 366.128 475.707 365.256 475.561 363.703 L 477.641 363.703 C 477.802 364.253 478.322 364.568 479.171 364.568 C 479.999 364.568 480.57 364.223 480.57 363.703 C 480.57 363.308 480.263 363.066 479.552 362.912 L 478.087 362.583 C 476.52 362.239 475.758 361.492 475.758 360.246 Z  M 493.292 365.952 L 491.081 365.952 L 491.081 357.273 L 487.909 357.273 L 487.909 355.383 L 496.464 355.383 L 496.464 357.273 L 493.292 357.273 L 493.292 365.952 Z  M 500.397 366.128 C 497.914 366.128 496.42 364.553 496.42 361.909 C 496.42 359.294 497.936 357.698 500.397 357.698 C 502.858 357.698 504.374 359.287 504.374 361.909 C 504.374 364.553 502.88 366.128 500.397 366.128 Z  M 500.397 364.385 C 501.532 364.385 502.184 363.476 502.184 361.909 C 502.184 360.356 501.525 359.441 500.397 359.441 C 499.262 359.441 498.61 360.356 498.61 361.909 C 498.61 363.484 499.254 364.385 500.397 364.385 Z  M 521.381 365.952 L 519.33 365.952 L 519.33 358.884 L 519.213 358.884 L 516.525 365.381 L 515.053 365.381 L 512.357 358.884 L 512.24 358.884 L 512.24 365.952 L 510.189 365.952 L 510.189 355.383 L 512.797 355.383 L 515.719 362.517 L 515.851 362.517 L 518.781 355.383 L 521.381 355.383 L 521.381 365.952 Z  M 527.226 359.331 C 526.237 359.331 525.541 360.019 525.468 361.067 L 528.91 361.067 C 528.866 359.997 528.222 359.331 527.226 359.331 Z  M 528.954 363.652 L 530.939 363.652 C 530.624 365.168 529.225 366.128 527.248 366.128 C 524.787 366.128 523.336 364.575 523.336 361.953 C 523.336 359.324 524.816 357.698 527.218 357.698 C 529.599 357.698 531.005 359.214 531.005 361.777 L 531.005 362.429 L 525.46 362.429 L 525.46 362.539 C 525.49 363.74 526.193 364.487 527.306 364.487 C 528.148 364.487 528.727 364.187 528.954 363.652 Z  M 533.356 355.954 L 535.487 355.954 L 535.487 357.954 L 537.165 357.954 L 537.165 359.631 L 535.487 359.631 L 535.487 363.264 C 535.487 363.967 535.81 364.289 536.535 364.289 C 536.813 364.289 536.959 364.282 537.165 364.26 L 537.165 365.886 C 536.901 365.937 536.505 365.981 536.095 365.981 C 534.132 365.981 533.356 365.344 533.356 363.769 L 533.356 359.631 L 532.096 359.631 L 532.096 357.954 L 533.356 357.954 L 533.356 355.954 Z  M 538.937 365.952 L 538.937 357.873 L 541.002 357.873 L 541.002 359.162 L 541.134 359.162 C 541.347 358.357 542.182 357.742 543.207 357.742 C 543.5 357.742 543.859 357.778 544.042 357.844 L 544.042 359.785 C 543.874 359.719 543.375 359.653 543.031 359.653 C 541.867 359.653 541.068 360.342 541.068 361.477 L 541.068 365.952 L 538.937 365.952 Z  M 545.478 365.952 L 545.478 357.873 L 547.609 357.873 L 547.609 365.952 L 545.478 365.952 Z  M 546.547 356.665 C 545.888 356.665 545.338 356.123 545.338 355.442 C 545.338 354.761 545.888 354.226 546.547 354.226 C 547.213 354.226 547.755 354.761 547.755 355.442 C 547.755 356.123 547.213 356.665 546.547 356.665 Z  M 556.911 360.723 L 554.918 360.723 C 554.772 359.953 554.223 359.448 553.314 359.448 C 552.165 359.448 551.52 360.305 551.52 361.894 C 551.52 363.506 552.172 364.377 553.314 364.377 C 554.186 364.377 554.757 363.952 554.918 363.154 L 556.911 363.154 C 556.735 364.963 555.417 366.128 553.314 366.128 C 550.795 366.128 549.367 364.604 549.367 361.894 C 549.367 359.214 550.788 357.698 553.314 357.698 C 555.453 357.698 556.735 358.884 556.911 360.723 Z  M 558.39 360.246 C 558.39 358.716 559.738 357.698 561.752 357.698 C 563.803 357.698 565.011 358.555 565.128 360.1 L 563.158 360.1 C 563.048 359.58 562.558 359.258 561.767 359.258 C 561.005 359.258 560.441 359.602 560.441 360.115 C 560.441 360.51 560.785 360.752 561.532 360.92 L 563.048 361.25 C 564.616 361.594 565.319 362.253 565.319 363.462 C 565.319 365.073 563.876 366.128 561.759 366.128 C 559.628 366.128 558.339 365.256 558.192 363.703 L 560.272 363.703 C 560.434 364.253 560.954 364.568 561.803 364.568 C 562.631 364.568 563.202 364.223 563.202 363.703 C 563.202 363.308 562.895 363.066 562.184 362.912 L 560.719 362.583 C 559.152 362.239 558.39 361.492 558.39 360.246 Z " fill="rgb(255,255,255)"/><path d=" M 149.645 361.383 L 154.054 361.383 C 156.229 361.383 157.716 362.841 157.716 365.038 C 157.716 367.213 156.171 368.671 153.944 368.671 L 151.857 368.671 L 151.857 371.952 L 149.645 371.952 L 149.645 361.383 Z  M 151.857 363.2 L 151.857 366.876 L 153.461 366.876 C 154.728 366.876 155.468 366.232 155.468 365.045 C 155.468 363.844 154.743 363.2 153.468 363.2 L 151.857 363.2 Z  M 162.162 370.473 C 163.151 370.473 163.898 369.843 163.898 369.022 L 163.898 368.429 L 162.265 368.532 C 161.349 368.598 160.902 368.927 160.902 369.506 C 160.902 370.106 161.422 370.473 162.162 370.473 Z  M 161.459 372.077 C 159.906 372.077 158.815 371.124 158.815 369.645 C 158.815 368.18 159.936 367.33 161.942 367.213 L 163.898 367.096 L 163.898 366.437 C 163.898 365.763 163.415 365.382 162.536 365.382 C 161.767 365.382 161.254 365.646 161.078 366.129 L 159.115 366.129 C 159.254 364.635 160.624 363.698 162.653 363.698 C 164.792 363.698 166 364.708 166 366.437 L 166 371.952 L 163.935 371.952 L 163.935 370.897 L 163.803 370.897 C 163.385 371.637 162.506 372.077 161.459 372.077 Z  M 168.095 371.952 L 168.095 363.873 L 170.16 363.873 L 170.16 365.162 L 170.292 365.162 C 170.504 364.357 171.339 363.742 172.365 363.742 C 172.658 363.742 173.017 363.778 173.2 363.844 L 173.2 365.785 C 173.031 365.719 172.533 365.653 172.189 365.653 C 171.024 365.653 170.226 366.342 170.226 367.477 L 170.226 371.952 L 168.095 371.952 Z  M 174.254 366.246 C 174.254 364.716 175.602 363.698 177.616 363.698 C 179.667 363.698 180.875 364.555 180.993 366.1 L 179.022 366.1 C 178.913 365.58 178.422 365.258 177.631 365.258 C 176.869 365.258 176.305 365.602 176.305 366.115 C 176.305 366.51 176.649 366.752 177.396 366.92 L 178.913 367.25 C 180.48 367.594 181.183 368.253 181.183 369.462 C 181.183 371.073 179.74 372.128 177.624 372.128 C 175.492 372.128 174.203 371.256 174.057 369.703 L 176.137 369.703 C 176.298 370.253 176.818 370.568 177.667 370.568 C 178.495 370.568 179.066 370.223 179.066 369.703 C 179.066 369.308 178.759 369.066 178.048 368.912 L 176.583 368.583 C 175.016 368.239 174.254 367.492 174.254 366.246 Z  M 186.427 365.331 C 185.438 365.331 184.743 366.019 184.669 367.067 L 188.112 367.067 C 188.068 365.997 187.423 365.331 186.427 365.331 Z  M 188.156 369.652 L 190.141 369.652 C 189.826 371.168 188.427 372.128 186.449 372.128 C 183.988 372.128 182.538 370.575 182.538 367.953 C 182.538 365.324 184.018 363.698 186.42 363.698 C 188.8 363.698 190.207 365.214 190.207 367.777 L 190.207 368.429 L 184.662 368.429 L 184.662 368.539 C 184.691 369.74 185.395 370.487 186.508 370.487 C 187.35 370.487 187.929 370.187 188.156 369.652 Z  M 203.332 371.952 L 202.519 371.095 C 201.735 371.762 200.526 372.157 199.23 372.157 C 196.981 372.157 195.531 370.993 195.531 369.191 C 195.531 367.982 196.139 367.118 197.501 366.371 C 197.545 366.356 197.912 366.144 197.97 366.115 C 197.003 365.126 196.659 364.467 196.659 363.69 C 196.659 362.262 197.934 361.222 199.669 361.222 C 201.398 361.222 202.621 362.218 202.621 363.646 C 202.621 364.738 201.947 365.617 200.468 366.415 L 202.497 368.517 C 202.746 368.077 202.87 367.47 202.87 366.591 L 202.87 366.071 L 204.665 366.071 L 204.665 366.73 C 204.665 367.997 204.335 369.118 203.764 369.887 L 205.727 371.952 L 203.332 371.952 Z  M 198.666 367.426 C 197.897 367.843 197.531 368.363 197.531 369.008 C 197.531 369.931 198.307 370.553 199.45 370.553 C 200.219 370.553 200.98 370.275 201.398 369.835 L 198.974 367.279 C 198.893 367.308 198.747 367.382 198.666 367.426 Z  M 199.479 365.382 C 200.446 364.899 200.841 364.43 200.841 363.807 C 200.841 363.141 200.365 362.687 199.677 362.687 C 198.988 362.687 198.498 363.148 198.498 363.807 C 198.498 364.291 198.754 364.694 199.479 365.382 Z  M 213.183 371.952 L 211.066 371.952 L 211.066 361.383 L 212.912 361.383 L 217.775 367.968 L 217.907 367.968 L 217.907 361.383 L 220.023 361.383 L 220.023 371.952 L 218.192 371.952 L 213.314 365.338 L 213.183 365.338 L 213.183 371.952 Z  M 225.956 372.128 C 223.473 372.128 221.979 370.553 221.979 367.909 C 221.979 365.294 223.495 363.698 225.956 363.698 C 228.417 363.698 229.933 365.287 229.933 367.909 C 229.933 370.553 228.439 372.128 225.956 372.128 Z  M 225.956 370.385 C 227.091 370.385 227.743 369.476 227.743 367.909 C 227.743 366.356 227.084 365.441 225.956 365.441 C 224.821 365.441 224.169 366.356 224.169 367.909 C 224.169 369.484 224.813 370.385 225.956 370.385 Z  M 231.669 371.952 L 231.669 363.873 L 233.734 363.873 L 233.734 365.162 L 233.866 365.162 C 234.079 364.357 234.914 363.742 235.939 363.742 C 236.232 363.742 236.591 363.778 236.774 363.844 L 236.774 365.785 C 236.605 365.719 236.107 365.653 235.763 365.653 C 234.599 365.653 233.8 366.342 233.8 367.477 L 233.8 371.952 L 231.669 371.952 Z  M 238.268 371.952 L 238.268 363.873 L 240.333 363.873 L 240.333 365.192 L 240.465 365.192 C 240.795 364.269 241.637 363.698 242.699 363.698 C 243.834 363.698 244.611 364.254 244.933 365.192 L 245.065 365.192 C 245.438 364.291 246.369 363.698 247.497 363.698 C 249.108 363.698 250.111 364.745 250.111 366.408 L 250.111 371.952 L 247.98 371.952 L 247.98 366.972 C 247.98 366.012 247.533 365.536 246.632 365.536 C 245.768 365.536 245.211 366.151 245.211 367.008 L 245.211 371.952 L 243.161 371.952 L 243.161 366.884 C 243.161 366.027 242.663 365.536 241.828 365.536 C 240.993 365.536 240.399 366.188 240.399 367.089 L 240.399 371.952 L 238.268 371.952 Z  M 255.092 370.473 C 256.081 370.473 256.828 369.843 256.828 369.022 L 256.828 368.429 L 255.194 368.532 C 254.279 368.598 253.832 368.927 253.832 369.506 C 253.832 370.106 254.352 370.473 255.092 370.473 Z  M 254.389 372.077 C 252.836 372.077 251.745 371.124 251.745 369.645 C 251.745 368.18 252.865 367.33 254.872 367.213 L 256.828 367.096 L 256.828 366.437 C 256.828 365.763 256.344 365.382 255.465 365.382 C 254.696 365.382 254.184 365.646 254.008 366.129 L 252.045 366.129 C 252.184 364.635 253.554 363.698 255.583 363.698 C 257.721 363.698 258.93 364.708 258.93 366.437 L 258.93 371.952 L 256.864 371.952 L 256.864 370.897 L 256.732 370.897 C 256.315 371.637 255.436 372.077 254.389 372.077 Z  M 261.098 371.952 L 261.098 360.79 L 263.229 360.79 L 263.229 371.952 L 261.098 371.952 Z  M 265.456 371.952 L 265.456 363.873 L 267.587 363.873 L 267.587 371.952 L 265.456 371.952 Z  M 266.525 362.665 C 265.866 362.665 265.316 362.123 265.316 361.442 C 265.316 360.761 265.866 360.226 266.525 360.226 C 267.191 360.226 267.733 360.761 267.733 361.442 C 267.733 362.123 267.191 362.665 266.525 362.665 Z  M 269.557 371.952 L 269.557 370.692 L 273.644 365.704 L 273.644 365.573 L 269.616 365.573 L 269.616 363.873 L 276.193 363.873 L 276.193 365.28 L 272.34 370.121 L 272.34 370.253 L 276.288 370.253 L 276.288 371.952 L 269.557 371.952 Z  M 281.547 365.331 C 280.558 365.331 279.862 366.019 279.789 367.067 L 283.231 367.067 C 283.188 365.997 282.543 365.331 281.547 365.331 Z  M 283.275 369.652 L 285.26 369.652 C 284.945 371.168 283.546 372.128 281.569 372.128 C 279.108 372.128 277.658 370.575 277.658 367.953 C 277.658 365.324 279.137 363.698 281.54 363.698 C 283.92 363.698 285.326 365.214 285.326 367.777 L 285.326 368.429 L 279.782 368.429 L 279.782 368.539 C 279.811 369.74 280.514 370.487 281.627 370.487 C 282.47 370.487 283.048 370.187 283.275 369.652 Z " fill="rgb(255,255,255)"/><path d=" M 633.282 156.383 L 637.442 156.383 C 640.584 156.383 642.4 158.28 642.4 161.591 C 642.4 165.026 640.606 166.952 637.442 166.952 L 633.282 166.952 L 633.282 156.383 Z  M 635.494 158.273 L 635.494 165.062 L 637.09 165.062 C 639.046 165.062 640.145 163.861 640.145 161.627 C 640.145 159.489 639.009 158.273 637.09 158.273 L 635.494 158.273 Z  M 644.283 166.952 L 644.283 158.873 L 646.348 158.873 L 646.348 160.162 L 646.48 160.162 C 646.692 159.357 647.527 158.742 648.553 158.742 C 648.846 158.742 649.205 158.778 649.388 158.844 L 649.388 160.785 C 649.219 160.719 648.721 160.653 648.377 160.653 C 647.212 160.653 646.414 161.342 646.414 162.477 L 646.414 166.952 L 644.283 166.952 Z  M 653.577 165.473 C 654.566 165.473 655.313 164.843 655.313 164.022 L 655.313 163.429 L 653.68 163.532 C 652.764 163.598 652.317 163.927 652.317 164.506 C 652.317 165.106 652.837 165.473 653.577 165.473 Z  M 652.874 167.077 C 651.321 167.077 650.23 166.124 650.23 164.645 C 650.23 163.18 651.351 162.33 653.357 162.213 L 655.313 162.096 L 655.313 161.437 C 655.313 160.763 654.83 160.382 653.951 160.382 C 653.182 160.382 652.669 160.646 652.493 161.129 L 650.53 161.129 C 650.669 159.635 652.039 158.698 654.068 158.698 C 656.207 158.698 657.415 159.708 657.415 161.437 L 657.415 166.952 L 655.35 166.952 L 655.35 165.897 L 655.218 165.897 C 654.8 166.637 653.921 167.077 652.874 167.077 Z  M 659.51 166.952 L 659.51 158.873 L 661.575 158.873 L 661.575 160.192 L 661.707 160.192 C 662.037 159.269 662.879 158.698 663.941 158.698 C 665.076 158.698 665.853 159.254 666.175 160.192 L 666.307 160.192 C 666.68 159.291 667.61 158.698 668.738 158.698 C 670.35 158.698 671.353 159.745 671.353 161.408 L 671.353 166.952 L 669.222 166.952 L 669.222 161.972 C 669.222 161.012 668.775 160.536 667.874 160.536 C 667.01 160.536 666.453 161.151 666.453 162.008 L 666.453 166.952 L 664.402 166.952 L 664.402 161.884 C 664.402 161.027 663.904 160.536 663.069 160.536 C 662.234 160.536 661.641 161.188 661.641 162.089 L 661.641 166.952 L 659.51 166.952 Z  M 676.333 165.473 C 677.322 165.473 678.069 164.843 678.069 164.022 L 678.069 163.429 L 676.436 163.532 C 675.521 163.598 675.074 163.927 675.074 164.506 C 675.074 165.106 675.594 165.473 676.333 165.473 Z  M 675.63 167.077 C 674.078 167.077 672.986 166.124 672.986 164.645 C 672.986 163.18 674.107 162.33 676.114 162.213 L 678.069 162.096 L 678.069 161.437 C 678.069 160.763 677.586 160.382 676.707 160.382 C 675.938 160.382 675.425 160.646 675.25 161.129 L 673.287 161.129 C 673.426 159.635 674.795 158.698 676.824 158.698 C 678.963 158.698 680.171 159.708 680.171 161.437 L 680.171 166.952 L 678.106 166.952 L 678.106 165.897 L 677.974 165.897 C 677.557 166.637 676.678 167.077 675.63 167.077 Z  M 682.874 156.954 L 685.005 156.954 L 685.005 158.954 L 686.683 158.954 L 686.683 160.631 L 685.005 160.631 L 685.005 164.264 C 685.005 164.967 685.328 165.289 686.053 165.289 C 686.331 165.289 686.478 165.282 686.683 165.26 L 686.683 166.886 C 686.419 166.937 686.023 166.981 685.613 166.981 C 683.65 166.981 682.874 166.344 682.874 164.769 L 682.874 160.631 L 681.614 160.631 L 681.614 158.954 L 682.874 158.954 L 682.874 156.954 Z  M 688.47 166.952 L 688.47 158.873 L 690.601 158.873 L 690.601 166.952 L 688.47 166.952 Z  M 689.539 157.665 C 688.88 157.665 688.331 157.123 688.331 156.442 C 688.331 155.761 688.88 155.226 689.539 155.226 C 690.206 155.226 690.748 155.761 690.748 156.442 C 690.748 157.123 690.206 157.665 689.539 157.665 Z  M 699.903 161.723 L 697.911 161.723 C 697.764 160.953 697.215 160.448 696.307 160.448 C 695.157 160.448 694.512 161.305 694.512 162.894 C 694.512 164.506 695.164 165.377 696.307 165.377 C 697.178 165.377 697.75 164.952 697.911 164.154 L 699.903 164.154 C 699.727 165.963 698.409 167.128 696.307 167.128 C 693.787 167.128 692.359 165.604 692.359 162.894 C 692.359 160.214 693.78 158.698 696.307 158.698 C 698.445 158.698 699.727 159.884 699.903 161.723 Z  M 704.48 165.473 C 705.469 165.473 706.216 164.843 706.216 164.022 L 706.216 163.429 L 704.583 163.532 C 703.667 163.598 703.221 163.927 703.221 164.506 C 703.221 165.106 703.741 165.473 704.48 165.473 Z  M 703.777 167.077 C 702.225 167.077 701.133 166.124 701.133 164.645 C 701.133 163.18 702.254 162.33 704.261 162.213 L 706.216 162.096 L 706.216 161.437 C 706.216 160.763 705.733 160.382 704.854 160.382 C 704.085 160.382 703.572 160.646 703.396 161.129 L 701.434 161.129 C 701.573 159.635 702.942 158.698 704.971 158.698 C 707.11 158.698 708.318 159.708 708.318 161.437 L 708.318 166.952 L 706.253 166.952 L 706.253 165.897 L 706.121 165.897 C 705.704 166.637 704.825 167.077 703.777 167.077 Z  M 710.486 166.952 L 710.486 155.79 L 712.618 155.79 L 712.618 166.952 L 710.486 166.952 Z  M 714.903 166.952 L 714.903 155.79 L 717.034 155.79 L 717.034 166.952 L 714.903 166.952 Z  M 720.25 169.889 C 720.169 169.889 719.524 169.882 719.437 169.867 L 719.437 168.153 C 719.51 168.168 719.832 168.168 719.92 168.168 C 720.718 168.168 721.172 167.911 721.348 167.296 L 721.421 167.003 L 718.587 158.873 L 720.938 158.873 L 722.637 164.996 L 722.769 164.996 L 724.468 158.873 L 726.724 158.873 L 723.941 167.077 C 723.252 169.157 722.264 169.889 720.25 169.889 Z  M 739.197 165.026 L 739.197 166.952 L 732.283 166.952 L 732.283 156.383 L 734.495 156.383 L 734.495 165.026 L 739.197 165.026 Z  M 744.119 160.331 C 743.13 160.331 742.435 161.019 742.361 162.067 L 745.804 162.067 C 745.76 160.997 745.115 160.331 744.119 160.331 Z  M 745.848 164.652 L 747.833 164.652 C 747.518 166.168 746.119 167.128 744.141 167.128 C 741.68 167.128 740.23 165.575 740.23 162.953 C 740.23 160.324 741.709 158.698 744.112 158.698 C 746.492 158.698 747.898 160.214 747.898 162.777 L 747.898 163.429 L 742.354 163.429 L 742.354 163.539 C 742.383 164.74 743.086 165.487 744.2 165.487 C 745.042 165.487 745.621 165.187 745.848 164.652 Z  M 749.458 161.246 C 749.458 159.716 750.806 158.698 752.82 158.698 C 754.871 158.698 756.08 159.555 756.197 161.1 L 754.227 161.1 C 754.117 160.58 753.626 160.258 752.835 160.258 C 752.073 160.258 751.509 160.602 751.509 161.115 C 751.509 161.51 751.854 161.752 752.601 161.92 L 754.117 162.25 C 755.684 162.594 756.387 163.253 756.387 164.462 C 756.387 166.073 754.944 167.128 752.828 167.128 C 750.696 167.128 749.407 166.256 749.261 164.703 L 751.341 164.703 C 751.502 165.253 752.022 165.568 752.872 165.568 C 753.699 165.568 754.271 165.223 754.271 164.703 C 754.271 164.308 753.963 164.066 753.252 163.912 L 751.788 163.583 C 750.22 163.239 749.458 162.492 749.458 161.246 Z  M 757.808 161.246 C 757.808 159.716 759.156 158.698 761.17 158.698 C 763.221 158.698 764.429 159.555 764.546 161.1 L 762.576 161.1 C 762.466 160.58 761.976 160.258 761.185 160.258 C 760.423 160.258 759.859 160.602 759.859 161.115 C 759.859 161.51 760.203 161.752 760.95 161.92 L 762.466 162.25 C 764.034 162.594 764.737 163.253 764.737 164.462 C 764.737 166.073 763.294 167.128 761.177 167.128 C 759.046 167.128 757.757 166.256 757.61 164.703 L 759.69 164.703 C 759.852 165.253 760.372 165.568 761.221 165.568 C 762.049 165.568 762.62 165.223 762.62 164.703 C 762.62 164.308 762.313 164.066 761.602 163.912 L 760.137 163.583 C 758.57 163.239 757.808 162.492 757.808 161.246 Z  M 770.567 156.383 L 774.727 156.383 C 777.869 156.383 779.686 158.28 779.686 161.591 C 779.686 165.026 777.891 166.952 774.727 166.952 L 770.567 166.952 L 770.567 156.383 Z  M 772.779 158.273 L 772.779 165.062 L 774.375 165.062 C 776.331 165.062 777.43 163.861 777.43 161.627 C 777.43 159.489 776.294 158.273 774.375 158.273 L 772.779 158.273 Z  M 784.41 165.473 C 785.398 165.473 786.146 164.843 786.146 164.022 L 786.146 163.429 L 784.512 163.532 C 783.597 163.598 783.15 163.927 783.15 164.506 C 783.15 165.106 783.67 165.473 784.41 165.473 Z  M 783.707 167.077 C 782.154 167.077 781.063 166.124 781.063 164.645 C 781.063 163.18 782.183 162.33 784.19 162.213 L 786.146 162.096 L 786.146 161.437 C 786.146 160.763 785.662 160.382 784.783 160.382 C 784.014 160.382 783.501 160.646 783.326 161.129 L 781.363 161.129 C 781.502 159.635 782.872 158.698 784.9 158.698 C 787.039 158.698 788.248 159.708 788.248 161.437 L 788.248 166.952 L 786.182 166.952 L 786.182 165.897 L 786.05 165.897 C 785.633 166.637 784.754 167.077 783.707 167.077 Z  M 790.95 156.954 L 793.082 156.954 L 793.082 158.954 L 794.759 158.954 L 794.759 160.631 L 793.082 160.631 L 793.082 164.264 C 793.082 164.967 793.404 165.289 794.129 165.289 C 794.407 165.289 794.554 165.282 794.759 165.26 L 794.759 166.886 C 794.495 166.937 794.1 166.981 793.689 166.981 C 791.727 166.981 790.95 166.344 790.95 164.769 L 790.95 160.631 L 789.69 160.631 L 789.69 158.954 L 790.95 158.954 L 790.95 156.954 Z  M 799.446 165.473 C 800.435 165.473 801.182 164.843 801.182 164.022 L 801.182 163.429 L 799.549 163.532 C 798.633 163.598 798.187 163.927 798.187 164.506 C 798.187 165.106 798.707 165.473 799.446 165.473 Z  M 798.743 167.077 C 797.19 167.077 796.099 166.124 796.099 164.645 C 796.099 163.18 797.22 162.33 799.227 162.213 L 801.182 162.096 L 801.182 161.437 C 801.182 160.763 800.699 160.382 799.82 160.382 C 799.051 160.382 798.538 160.646 798.362 161.129 L 796.399 161.129 C 796.539 159.635 797.908 158.698 799.937 158.698 C 802.076 158.698 803.284 159.708 803.284 161.437 L 803.284 166.952 L 801.219 166.952 L 801.219 165.897 L 801.087 165.897 C 800.669 166.637 799.791 167.077 798.743 167.077 Z " fill="rgb(255,255,255)"/><path d=" M 633.282 355.383 L 637.442 355.383 C 640.584 355.383 642.4 357.28 642.4 360.591 C 642.4 364.026 640.606 365.952 637.442 365.952 L 633.282 365.952 L 633.282 355.383 Z  M 635.494 357.273 L 635.494 364.062 L 637.09 364.062 C 639.046 364.062 640.145 362.861 640.145 360.627 C 640.145 358.489 639.009 357.273 637.09 357.273 L 635.494 357.273 Z  M 644.283 365.952 L 644.283 357.873 L 646.348 357.873 L 646.348 359.162 L 646.48 359.162 C 646.692 358.357 647.527 357.742 648.553 357.742 C 648.846 357.742 649.205 357.778 649.388 357.844 L 649.388 359.785 C 649.219 359.719 648.721 359.653 648.377 359.653 C 647.212 359.653 646.414 360.342 646.414 361.477 L 646.414 365.952 L 644.283 365.952 Z  M 653.577 364.473 C 654.566 364.473 655.313 363.843 655.313 363.022 L 655.313 362.429 L 653.68 362.532 C 652.764 362.598 652.317 362.927 652.317 363.506 C 652.317 364.106 652.837 364.473 653.577 364.473 Z  M 652.874 366.077 C 651.321 366.077 650.23 365.124 650.23 363.645 C 650.23 362.18 651.351 361.33 653.357 361.213 L 655.313 361.096 L 655.313 360.437 C 655.313 359.763 654.83 359.382 653.951 359.382 C 653.182 359.382 652.669 359.646 652.493 360.129 L 650.53 360.129 C 650.669 358.635 652.039 357.698 654.068 357.698 C 656.207 357.698 657.415 358.708 657.415 360.437 L 657.415 365.952 L 655.35 365.952 L 655.35 364.897 L 655.218 364.897 C 654.8 365.637 653.921 366.077 652.874 366.077 Z  M 659.51 365.952 L 659.51 357.873 L 661.575 357.873 L 661.575 359.192 L 661.707 359.192 C 662.037 358.269 662.879 357.698 663.941 357.698 C 665.076 357.698 665.853 358.254 666.175 359.192 L 666.307 359.192 C 666.68 358.291 667.61 357.698 668.738 357.698 C 670.35 357.698 671.353 358.745 671.353 360.408 L 671.353 365.952 L 669.222 365.952 L 669.222 360.972 C 669.222 360.012 668.775 359.536 667.874 359.536 C 667.01 359.536 666.453 360.151 666.453 361.008 L 666.453 365.952 L 664.402 365.952 L 664.402 360.884 C 664.402 360.027 663.904 359.536 663.069 359.536 C 662.234 359.536 661.641 360.188 661.641 361.089 L 661.641 365.952 L 659.51 365.952 Z  M 676.333 364.473 C 677.322 364.473 678.069 363.843 678.069 363.022 L 678.069 362.429 L 676.436 362.532 C 675.521 362.598 675.074 362.927 675.074 363.506 C 675.074 364.106 675.594 364.473 676.333 364.473 Z  M 675.63 366.077 C 674.078 366.077 672.986 365.124 672.986 363.645 C 672.986 362.18 674.107 361.33 676.114 361.213 L 678.069 361.096 L 678.069 360.437 C 678.069 359.763 677.586 359.382 676.707 359.382 C 675.938 359.382 675.425 359.646 675.25 360.129 L 673.287 360.129 C 673.426 358.635 674.795 357.698 676.824 357.698 C 678.963 357.698 680.171 358.708 680.171 360.437 L 680.171 365.952 L 678.106 365.952 L 678.106 364.897 L 677.974 364.897 C 677.557 365.637 676.678 366.077 675.63 366.077 Z  M 682.874 355.954 L 685.005 355.954 L 685.005 357.954 L 686.683 357.954 L 686.683 359.631 L 685.005 359.631 L 685.005 363.264 C 685.005 363.967 685.328 364.289 686.053 364.289 C 686.331 364.289 686.478 364.282 686.683 364.26 L 686.683 365.886 C 686.419 365.937 686.023 365.981 685.613 365.981 C 683.65 365.981 682.874 365.344 682.874 363.769 L 682.874 359.631 L 681.614 359.631 L 681.614 357.954 L 682.874 357.954 L 682.874 355.954 Z  M 688.47 365.952 L 688.47 357.873 L 690.601 357.873 L 690.601 365.952 L 688.47 365.952 Z  M 689.539 356.665 C 688.88 356.665 688.331 356.123 688.331 355.442 C 688.331 354.761 688.88 354.226 689.539 354.226 C 690.206 354.226 690.748 354.761 690.748 355.442 C 690.748 356.123 690.206 356.665 689.539 356.665 Z  M 699.903 360.723 L 697.911 360.723 C 697.764 359.953 697.215 359.448 696.307 359.448 C 695.157 359.448 694.512 360.305 694.512 361.894 C 694.512 363.506 695.164 364.377 696.307 364.377 C 697.178 364.377 697.75 363.952 697.911 363.154 L 699.903 363.154 C 699.727 364.963 698.409 366.128 696.307 366.128 C 693.787 366.128 692.359 364.604 692.359 361.894 C 692.359 359.214 693.78 357.698 696.307 357.698 C 698.445 357.698 699.727 358.884 699.903 360.723 Z  M 704.48 364.473 C 705.469 364.473 706.216 363.843 706.216 363.022 L 706.216 362.429 L 704.583 362.532 C 703.667 362.598 703.221 362.927 703.221 363.506 C 703.221 364.106 703.741 364.473 704.48 364.473 Z  M 703.777 366.077 C 702.225 366.077 701.133 365.124 701.133 363.645 C 701.133 362.18 702.254 361.33 704.261 361.213 L 706.216 361.096 L 706.216 360.437 C 706.216 359.763 705.733 359.382 704.854 359.382 C 704.085 359.382 703.572 359.646 703.396 360.129 L 701.434 360.129 C 701.573 358.635 702.942 357.698 704.971 357.698 C 707.11 357.698 708.318 358.708 708.318 360.437 L 708.318 365.952 L 706.253 365.952 L 706.253 364.897 L 706.121 364.897 C 705.704 365.637 704.825 366.077 703.777 366.077 Z  M 710.486 365.952 L 710.486 354.79 L 712.618 354.79 L 712.618 365.952 L 710.486 365.952 Z  M 714.903 365.952 L 714.903 354.79 L 717.034 354.79 L 717.034 365.952 L 714.903 365.952 Z  M 720.25 368.889 C 720.169 368.889 719.524 368.882 719.437 368.867 L 719.437 367.153 C 719.51 367.168 719.832 367.168 719.92 367.168 C 720.718 367.168 721.172 366.911 721.348 366.296 L 721.421 366.003 L 718.587 357.873 L 720.938 357.873 L 722.637 363.996 L 722.769 363.996 L 724.468 357.873 L 726.724 357.873 L 723.941 366.077 C 723.252 368.157 722.264 368.889 720.25 368.889 Z  M 739.197 364.026 L 739.197 365.952 L 732.283 365.952 L 732.283 355.383 L 734.495 355.383 L 734.495 364.026 L 739.197 364.026 Z  M 744.119 359.331 C 743.13 359.331 742.435 360.019 742.361 361.067 L 745.804 361.067 C 745.76 359.997 745.115 359.331 744.119 359.331 Z  M 745.848 363.652 L 747.833 363.652 C 747.518 365.168 746.119 366.128 744.141 366.128 C 741.68 366.128 740.23 364.575 740.23 361.953 C 740.23 359.324 741.709 357.698 744.112 357.698 C 746.492 357.698 747.898 359.214 747.898 361.777 L 747.898 362.429 L 742.354 362.429 L 742.354 362.539 C 742.383 363.74 743.086 364.487 744.2 364.487 C 745.042 364.487 745.621 364.187 745.848 363.652 Z  M 749.458 360.246 C 749.458 358.716 750.806 357.698 752.82 357.698 C 754.871 357.698 756.08 358.555 756.197 360.1 L 754.227 360.1 C 754.117 359.58 753.626 359.258 752.835 359.258 C 752.073 359.258 751.509 359.602 751.509 360.115 C 751.509 360.51 751.854 360.752 752.601 360.92 L 754.117 361.25 C 755.684 361.594 756.387 362.253 756.387 363.462 C 756.387 365.073 754.944 366.128 752.828 366.128 C 750.696 366.128 749.407 365.256 749.261 363.703 L 751.341 363.703 C 751.502 364.253 752.022 364.568 752.872 364.568 C 753.699 364.568 754.271 364.223 754.271 363.703 C 754.271 363.308 753.963 363.066 753.252 362.912 L 751.788 362.583 C 750.22 362.239 749.458 361.492 749.458 360.246 Z  M 757.808 360.246 C 757.808 358.716 759.156 357.698 761.17 357.698 C 763.221 357.698 764.429 358.555 764.546 360.1 L 762.576 360.1 C 762.466 359.58 761.976 359.258 761.185 359.258 C 760.423 359.258 759.859 359.602 759.859 360.115 C 759.859 360.51 760.203 360.752 760.95 360.92 L 762.466 361.25 C 764.034 361.594 764.737 362.253 764.737 363.462 C 764.737 365.073 763.294 366.128 761.177 366.128 C 759.046 366.128 757.757 365.256 757.61 363.703 L 759.69 363.703 C 759.852 364.253 760.372 364.568 761.221 364.568 C 762.049 364.568 762.62 364.223 762.62 363.703 C 762.62 363.308 762.313 363.066 761.602 362.912 L 760.137 362.583 C 758.57 362.239 757.808 361.492 757.808 360.246 Z  M 775.057 366.223 C 771.995 366.223 770.098 364.106 770.098 360.664 C 770.098 357.229 771.988 355.112 775.057 355.112 C 777.562 355.112 779.48 356.775 779.642 359.075 L 777.488 359.075 C 777.276 357.859 776.316 357.06 775.057 357.06 C 773.394 357.06 772.361 358.437 772.361 360.664 C 772.361 362.89 773.394 364.275 775.064 364.275 C 776.331 364.275 777.283 363.528 777.496 362.363 L 779.649 362.363 C 779.466 364.648 777.605 366.223 775.057 366.223 Z  M 785.054 366.128 C 782.571 366.128 781.077 364.553 781.077 361.909 C 781.077 359.294 782.593 357.698 785.054 357.698 C 787.515 357.698 789.031 359.287 789.031 361.909 C 789.031 364.553 787.537 366.128 785.054 366.128 Z  M 785.054 364.385 C 786.189 364.385 786.841 363.476 786.841 361.909 C 786.841 360.356 786.182 359.441 785.054 359.441 C 783.919 359.441 783.267 360.356 783.267 361.909 C 783.267 363.484 783.912 364.385 785.054 364.385 Z  M 790.584 360.246 C 790.584 358.716 791.932 357.698 793.946 357.698 C 795.997 357.698 797.205 358.555 797.322 360.1 L 795.352 360.1 C 795.242 359.58 794.751 359.258 793.96 359.258 C 793.199 359.258 792.635 359.602 792.635 360.115 C 792.635 360.51 792.979 360.752 793.726 360.92 L 795.242 361.25 C 796.81 361.594 797.513 362.253 797.513 363.462 C 797.513 365.073 796.07 366.128 793.953 366.128 C 791.822 366.128 790.533 365.256 790.386 363.703 L 792.466 363.703 C 792.627 364.253 793.147 364.568 793.997 364.568 C 794.825 364.568 795.396 364.223 795.396 363.703 C 795.396 363.308 795.088 363.066 794.378 362.912 L 792.913 362.583 C 791.346 362.239 790.584 361.492 790.584 360.246 Z  M 799.834 355.954 L 801.966 355.954 L 801.966 357.954 L 803.643 357.954 L 803.643 359.631 L 801.966 359.631 L 801.966 363.264 C 801.966 363.967 802.288 364.289 803.013 364.289 C 803.292 364.289 803.438 364.282 803.643 364.26 L 803.643 365.886 C 803.379 365.937 802.984 365.981 802.574 365.981 C 800.611 365.981 799.834 365.344 799.834 363.769 L 799.834 359.631 L 798.575 359.631 L 798.575 357.954 L 799.834 357.954 L 799.834 355.954 Z " fill="rgb(255,255,255)"/><path d=" M 256.727 306.568 L 256.727 352.452 L 257.727 352.452 L 257.727 306.568 L 256.727 306.568 Z " fill="rgb(255,255,255)"/><path d=" M 536.727 329.568 L 536.727 347.952 L 537.727 347.952 L 537.727 329.568 L 536.727 329.568 Z " fill="rgb(255,255,255)"/><path d=" M 536.727 177.952 L 536.727 197.952 L 537.727 197.952 L 537.727 177.952 L 536.727 177.952 Z " fill="rgb(255,255,255)"/><path d=" M 663 218.06 L 663 176.967 L 662 176.967 L 662 218.06 L 663 218.06 Z " fill="rgb(255,255,255)"/><path d=" M 663 218.06 L 663 176.967 L 662 176.967 L 662 218.06 L 663 218.06 Z " fill="rgb(255,255,255)"/></g></g></g><clipPath id="_clipPath_Zv6mJlePAH5oBZtBUcqUXxHV08NZVqGm"><rect x="0" y="0.952" width="834" height="450" transform="matrix(1,0,0,1,0,0)" fill="rgb(255,255,255)"/></clipPath><g clip-path="url(#_clipPath_Zv6mJlePAH5oBZtBUcqUXxHV08NZVqGm)"><path d=" M 156.149 48 L 154.659 43.297 L 147.728 43.297 L 146.21 48 L 142.067 48 L 148.917 28.271 L 153.771 28.271 L 160.62 48 L 156.149 48 L 156.149 48 Z  M 151.091 32.373 L 148.616 40.111 L 153.784 40.111 L 151.337 32.373 L 151.091 32.373 L 151.091 32.373 Z  M 163.724 48 L 163.724 27.164 L 167.702 27.164 L 167.702 48 L 163.724 48 L 163.724 48 Z  M 171.968 48 L 171.968 27.164 L 175.946 27.164 L 175.946 48 L 171.968 48 L 171.968 48 Z  M 193.979 48.328 C 189.345 48.328 186.556 45.389 186.556 40.453 C 186.556 35.572 189.386 32.592 193.979 32.592 C 198.573 32.592 201.403 35.559 201.403 40.453 C 201.403 45.389 198.614 48.328 193.979 48.328 Z  M 193.979 45.074 C 196.099 45.074 197.315 43.379 197.315 40.453 C 197.315 37.555 196.085 35.846 193.979 35.846 C 191.86 35.846 190.644 37.555 190.644 40.453 C 190.644 43.393 191.847 45.074 193.979 45.074 Z  M 205.806 48 L 205.806 36.201 L 203.372 36.201 L 203.372 33.07 L 205.806 33.07 L 205.806 31.539 C 205.806 28.545 207.337 27.027 210.974 27.027 C 211.78 27.027 212.45 27.082 213.024 27.178 L 213.024 29.994 C 212.765 29.967 212.354 29.926 211.835 29.926 C 210.276 29.926 209.702 30.541 209.702 31.826 L 209.702 33.07 L 212.901 33.07 L 212.901 36.201 L 209.784 36.201 L 209.784 48 L 205.806 48 L 205.806 48 Z  M 224.427 29.338 L 228.405 29.338 L 228.405 33.07 L 231.536 33.07 L 231.536 36.201 L 228.405 36.201 L 228.405 42.982 C 228.405 44.295 229.007 44.896 230.36 44.896 C 230.88 44.896 231.153 44.883 231.536 44.842 L 231.536 47.877 C 231.044 47.973 230.306 48.055 229.54 48.055 C 225.876 48.055 224.427 46.865 224.427 43.926 L 224.427 36.201 L 222.075 36.201 L 222.075 33.07 L 224.427 33.07 L 224.427 29.338 L 224.427 29.338 Z  M 234.981 48 L 234.981 27.164 L 238.892 27.164 L 238.892 35.395 L 239.138 35.395 C 239.835 33.672 241.476 32.633 243.69 32.633 C 246.931 32.633 248.858 34.67 248.858 38.293 L 248.858 48 L 244.88 48 L 244.88 39.236 C 244.88 37.145 243.909 36.064 242.104 36.064 C 240.108 36.064 238.96 37.391 238.96 39.346 L 238.96 48 L 234.981 48 L 234.981 48 Z  M 259.235 35.641 C 257.39 35.641 256.091 36.926 255.954 38.881 L 262.38 38.881 C 262.298 36.885 261.095 35.641 259.235 35.641 Z  M 262.462 43.707 L 266.167 43.707 C 265.579 46.537 262.968 48.328 259.276 48.328 C 254.683 48.328 251.976 45.43 251.976 40.535 C 251.976 35.627 254.737 32.592 259.222 32.592 C 263.665 32.592 266.29 35.422 266.29 40.207 L 266.29 41.424 L 255.94 41.424 L 255.94 41.629 C 255.995 43.871 257.308 45.266 259.386 45.266 C 260.958 45.266 262.038 44.705 262.462 43.707 Z  M 276.79 48 L 276.79 32.92 L 280.769 32.92 L 280.769 48 L 276.79 48 L 276.79 48 Z  M 278.786 30.664 C 277.556 30.664 276.53 29.652 276.53 28.381 C 276.53 27.109 277.556 26.111 278.786 26.111 C 280.03 26.111 281.042 27.109 281.042 28.381 C 281.042 29.652 280.03 30.664 278.786 30.664 Z  M 284.788 48 L 284.788 32.92 L 288.644 32.92 L 288.644 35.34 L 288.89 35.34 C 289.587 33.645 291.118 32.592 293.347 32.592 C 296.696 32.592 298.501 34.643 298.501 38.252 L 298.501 48 L 294.522 48 L 294.522 39.195 C 294.522 37.117 293.634 36.023 291.747 36.023 C 289.901 36.023 288.767 37.322 288.767 39.305 L 288.767 48 L 284.788 48 L 284.788 48 Z  M 302.015 37.35 C 302.015 34.492 304.53 32.592 308.29 32.592 C 312.118 32.592 314.374 34.191 314.593 37.076 L 310.915 37.076 C 310.71 36.105 309.794 35.504 308.317 35.504 C 306.896 35.504 305.843 36.146 305.843 37.104 C 305.843 37.842 306.485 38.293 307.88 38.607 L 310.71 39.223 C 313.636 39.865 314.948 41.096 314.948 43.352 C 314.948 46.359 312.255 48.328 308.304 48.328 C 304.325 48.328 301.919 46.701 301.646 43.803 L 305.528 43.803 C 305.829 44.828 306.8 45.416 308.386 45.416 C 309.931 45.416 310.997 44.773 310.997 43.803 C 310.997 43.064 310.423 42.613 309.097 42.326 L 306.362 41.711 C 303.437 41.068 302.015 39.674 302.015 37.35 Z  M 318.243 48 L 318.243 32.92 L 322.222 32.92 L 322.222 48 L 318.243 48 L 318.243 48 Z  M 320.239 30.664 C 319.009 30.664 317.983 29.652 317.983 28.381 C 317.983 27.109 319.009 26.111 320.239 26.111 C 321.483 26.111 322.495 27.109 322.495 28.381 C 322.495 29.652 321.483 30.664 320.239 30.664 Z  M 332.94 44.637 C 335.101 44.637 336.386 42.982 336.386 40.33 C 336.386 37.678 335.087 36.01 332.94 36.01 C 330.794 36.01 329.55 37.678 329.55 40.316 C 329.55 42.982 330.78 44.637 332.94 44.637 Z  M 332.886 53.715 C 328.88 53.715 326.228 51.951 325.981 49.299 L 329.919 49.299 C 330.124 50.229 331.245 50.816 332.968 50.816 C 335.101 50.816 336.345 49.832 336.345 48.137 L 336.345 45.348 L 336.099 45.348 C 335.265 46.934 333.679 47.781 331.56 47.781 C 327.8 47.781 325.462 44.869 325.462 40.33 C 325.462 35.654 327.813 32.674 331.642 32.674 C 333.679 32.674 335.415 33.686 336.222 35.34 L 336.468 35.34 L 336.468 32.92 L 340.323 32.92 L 340.323 47.945 C 340.323 51.486 337.438 53.715 332.886 53.715 Z  M 344.452 48 L 344.452 27.164 L 348.362 27.164 L 348.362 35.395 L 348.608 35.395 C 349.306 33.672 350.946 32.633 353.161 32.633 C 356.401 32.633 358.329 34.67 358.329 38.293 L 358.329 48 L 354.351 48 L 354.351 39.236 C 354.351 37.145 353.38 36.064 351.575 36.064 C 349.579 36.064 348.431 37.391 348.431 39.346 L 348.431 48 L 344.452 48 L 344.452 48 Z  M 363.319 29.338 L 367.298 29.338 L 367.298 33.07 L 370.429 33.07 L 370.429 36.201 L 367.298 36.201 L 367.298 42.982 C 367.298 44.295 367.899 44.896 369.253 44.896 C 369.772 44.896 370.046 44.883 370.429 44.842 L 370.429 47.877 C 369.937 47.973 369.198 48.055 368.433 48.055 C 364.769 48.055 363.319 46.865 363.319 43.926 L 363.319 36.201 L 360.968 36.201 L 360.968 33.07 L 363.319 33.07 L 363.319 29.338 L 363.319 29.338 Z  M 376.608 48.369 C 375.146 48.369 374.188 47.371 374.188 45.99 C 374.188 44.609 375.146 43.625 376.608 43.625 C 378.085 43.625 379.028 44.609 379.028 45.99 C 379.028 47.371 378.085 48.369 376.608 48.369 Z  M 403.761 48 L 402.271 43.297 L 395.339 43.297 L 393.821 48 L 389.679 48 L 396.528 28.271 L 401.382 28.271 L 408.231 48 L 403.761 48 L 403.761 48 Z  M 398.702 32.373 L 396.228 40.111 L 401.396 40.111 L 398.948 32.373 L 398.702 32.373 L 398.702 32.373 Z  M 419.579 48 L 419.579 36.201 L 417.146 36.201 L 417.146 33.07 L 419.579 33.07 L 419.579 31.539 C 419.579 28.545 421.11 27.027 424.747 27.027 C 425.554 27.027 426.224 27.082 426.798 27.178 L 426.798 29.994 C 426.538 29.967 426.128 29.926 425.608 29.926 C 424.05 29.926 423.476 30.541 423.476 31.826 L 423.476 33.07 L 426.675 33.07 L 426.675 36.201 L 423.558 36.201 L 423.558 48 L 419.579 48 L 419.579 48 Z  M 429.847 48 L 429.847 32.92 L 433.702 32.92 L 433.702 35.326 L 433.948 35.326 C 434.345 33.822 435.903 32.674 437.817 32.674 C 438.364 32.674 439.034 32.742 439.376 32.865 L 439.376 36.488 C 439.062 36.365 438.132 36.242 437.489 36.242 C 435.315 36.242 433.825 37.527 433.825 39.646 L 433.825 48 L 429.847 48 L 429.847 48 Z  M 447.196 45.238 C 449.042 45.238 450.437 44.063 450.437 42.531 L 450.437 41.424 L 447.388 41.615 C 445.679 41.738 444.845 42.354 444.845 43.434 C 444.845 44.555 445.815 45.238 447.196 45.238 Z  M 445.884 48.232 C 442.985 48.232 440.948 46.455 440.948 43.693 C 440.948 40.959 443.04 39.373 446.786 39.154 L 450.437 38.936 L 450.437 37.705 C 450.437 36.447 449.534 35.736 447.894 35.736 C 446.458 35.736 445.501 36.229 445.173 37.131 L 441.509 37.131 C 441.769 34.342 444.325 32.592 448.112 32.592 C 452.104 32.592 454.36 34.479 454.36 37.705 L 454.36 48 L 450.505 48 L 450.505 46.031 L 450.259 46.031 C 449.479 47.412 447.839 48.232 445.884 48.232 Z  M 471.614 38.238 L 467.896 38.238 C 467.622 36.803 466.597 35.859 464.901 35.859 C 462.755 35.859 461.552 37.459 461.552 40.426 C 461.552 43.434 462.769 45.061 464.901 45.061 C 466.528 45.061 467.595 44.268 467.896 42.777 L 471.614 42.777 C 471.286 46.154 468.825 48.328 464.901 48.328 C 460.198 48.328 457.532 45.484 457.532 40.426 C 457.532 35.422 460.185 32.592 464.901 32.592 C 468.894 32.592 471.286 34.807 471.614 38.238 Z  M 475.989 29.338 L 479.968 29.338 L 479.968 33.07 L 483.099 33.07 L 483.099 36.201 L 479.968 36.201 L 479.968 42.982 C 479.968 44.295 480.569 44.896 481.923 44.896 C 482.442 44.896 482.716 44.883 483.099 44.842 L 483.099 47.877 C 482.606 47.973 481.868 48.055 481.103 48.055 C 477.438 48.055 475.989 46.865 475.989 43.926 L 475.989 36.201 L 473.638 36.201 L 473.638 33.07 L 475.989 33.07 L 475.989 29.338 L 475.989 29.338 Z  M 486.435 48 L 486.435 32.92 L 490.413 32.92 L 490.413 48 L 486.435 48 L 486.435 48 Z  M 488.431 30.664 C 487.2 30.664 486.175 29.652 486.175 28.381 C 486.175 27.109 487.2 26.111 488.431 26.111 C 489.675 26.111 490.687 27.109 490.687 28.381 C 490.687 29.652 489.675 30.664 488.431 30.664 Z  M 501.118 48.328 C 496.483 48.328 493.694 45.389 493.694 40.453 C 493.694 35.572 496.524 32.592 501.118 32.592 C 505.712 32.592 508.542 35.559 508.542 40.453 C 508.542 45.389 505.753 48.328 501.118 48.328 Z  M 501.118 45.074 C 503.237 45.074 504.454 43.379 504.454 40.453 C 504.454 37.555 503.224 35.846 501.118 35.846 C 498.999 35.846 497.782 37.555 497.782 40.453 C 497.782 43.393 498.985 45.074 501.118 45.074 Z  M 511.782 48 L 511.782 32.92 L 515.638 32.92 L 515.638 35.34 L 515.884 35.34 C 516.581 33.645 518.112 32.592 520.341 32.592 C 523.69 32.592 525.495 34.643 525.495 38.252 L 525.495 48 L 521.517 48 L 521.517 39.195 C 521.517 37.117 520.628 36.023 518.741 36.023 C 516.896 36.023 515.761 37.322 515.761 39.305 L 515.761 48 L 511.782 48 L 511.782 48 Z  M 543.255 48.328 C 538.62 48.328 535.831 45.389 535.831 40.453 C 535.831 35.572 538.661 32.592 543.255 32.592 C 547.849 32.592 550.679 35.559 550.679 40.453 C 550.679 45.389 547.89 48.328 543.255 48.328 Z  M 543.255 45.074 C 545.374 45.074 546.591 43.379 546.591 40.453 C 546.591 37.555 545.36 35.846 543.255 35.846 C 541.136 35.846 539.919 37.555 539.919 40.453 C 539.919 43.393 541.122 45.074 543.255 45.074 Z  M 555.081 48 L 555.081 36.201 L 552.647 36.201 L 552.647 33.07 L 555.081 33.07 L 555.081 31.539 C 555.081 28.545 556.612 27.027 560.249 27.027 C 561.056 27.027 561.726 27.082 562.3 27.178 L 562.3 29.994 C 562.04 29.967 561.63 29.926 561.11 29.926 C 559.552 29.926 558.978 30.541 558.978 31.826 L 558.978 33.07 L 562.177 33.07 L 562.177 36.201 L 559.06 36.201 L 559.06 48 L 555.081 48 L 555.081 48 Z  M 573.702 29.338 L 577.681 29.338 L 577.681 33.07 L 580.812 33.07 L 580.812 36.201 L 577.681 36.201 L 577.681 42.982 C 577.681 44.295 578.282 44.896 579.636 44.896 C 580.155 44.896 580.429 44.883 580.812 44.842 L 580.812 47.877 C 580.319 47.973 579.581 48.055 578.815 48.055 C 575.151 48.055 573.702 46.865 573.702 43.926 L 573.702 36.201 L 571.351 36.201 L 571.351 33.07 L 573.702 33.07 L 573.702 29.338 L 573.702 29.338 Z  M 584.257 48 L 584.257 27.164 L 588.167 27.164 L 588.167 35.395 L 588.413 35.395 C 589.11 33.672 590.751 32.633 592.966 32.633 C 596.206 32.633 598.134 34.67 598.134 38.293 L 598.134 48 L 594.155 48 L 594.155 39.236 C 594.155 37.145 593.185 36.064 591.38 36.064 C 589.384 36.064 588.235 37.391 588.235 39.346 L 588.235 48 L 584.257 48 L 584.257 48 Z  M 608.511 35.641 C 606.665 35.641 605.366 36.926 605.229 38.881 L 611.655 38.881 C 611.573 36.885 610.37 35.641 608.511 35.641 Z  M 611.737 43.707 L 615.442 43.707 C 614.854 46.537 612.243 48.328 608.552 48.328 C 603.958 48.328 601.251 45.43 601.251 40.535 C 601.251 35.627 604.013 32.592 608.497 32.592 C 612.94 32.592 615.565 35.422 615.565 40.207 L 615.565 41.424 L 605.216 41.424 L 605.216 41.629 C 605.271 43.871 606.583 45.266 608.661 45.266 C 610.233 45.266 611.313 44.705 611.737 43.707 Z  M 639.382 38.238 L 635.663 38.238 C 635.39 36.803 634.364 35.859 632.669 35.859 C 630.522 35.859 629.319 37.459 629.319 40.426 C 629.319 43.434 630.536 45.061 632.669 45.061 C 634.296 45.061 635.362 44.268 635.663 42.777 L 639.382 42.777 C 639.054 46.154 636.593 48.328 632.669 48.328 C 627.966 48.328 625.3 45.484 625.3 40.426 C 625.3 35.422 627.952 32.592 632.669 32.592 C 636.661 32.592 639.054 34.807 639.382 38.238 Z  M 649.171 48.328 C 644.536 48.328 641.747 45.389 641.747 40.453 C 641.747 35.572 644.577 32.592 649.171 32.592 C 653.765 32.592 656.595 35.559 656.595 40.453 C 656.595 45.389 653.806 48.328 649.171 48.328 Z  M 649.171 45.074 C 651.29 45.074 652.507 43.379 652.507 40.453 C 652.507 37.555 651.276 35.846 649.171 35.846 C 647.052 35.846 645.835 37.555 645.835 40.453 C 645.835 43.393 647.038 45.074 649.171 45.074 Z  M 659.493 37.35 C 659.493 34.492 662.009 32.592 665.769 32.592 C 669.597 32.592 671.853 34.191 672.071 37.076 L 668.394 37.076 C 668.188 36.105 667.272 35.504 665.796 35.504 C 664.374 35.504 663.321 36.146 663.321 37.104 C 663.321 37.842 663.964 38.293 665.358 38.607 L 668.188 39.223 C 671.114 39.865 672.427 41.096 672.427 43.352 C 672.427 46.359 669.733 48.328 665.782 48.328 C 661.804 48.328 659.397 46.701 659.124 43.803 L 663.007 43.803 C 663.308 44.828 664.278 45.416 665.864 45.416 C 667.409 45.416 668.476 44.773 668.476 43.803 C 668.476 43.064 667.901 42.613 666.575 42.326 L 663.841 41.711 C 660.915 41.068 659.493 39.674 659.493 37.35 Z  M 676.761 29.338 L 680.739 29.338 L 680.739 33.07 L 683.87 33.07 L 683.87 36.201 L 680.739 36.201 L 680.739 42.982 C 680.739 44.295 681.341 44.896 682.694 44.896 C 683.214 44.896 683.487 44.883 683.87 44.842 L 683.87 47.877 C 683.378 47.973 682.64 48.055 681.874 48.055 C 678.21 48.055 676.761 46.865 676.761 43.926 L 676.761 36.201 L 674.409 36.201 L 674.409 33.07 L 676.761 33.07 L 676.761 29.338 L 676.761 29.338 Z  M 690.05 48.369 C 688.587 48.369 687.63 47.371 687.63 45.99 C 687.63 44.609 688.587 43.625 690.05 43.625 C 691.526 43.625 692.47 44.609 692.47 45.99 C 692.47 47.371 691.526 48.369 690.05 48.369 Z " fill="rgb(255,255,255)"/></g></g></g></g></svg>