<?xml version="1.0" encoding="UTF-8"?>
<svg width="683px" height="308px" viewBox="0 0 683 308" version="1.1" xmlns="http://www.w3.org/2000/svg" xmlns:xlink="http://www.w3.org/1999/xlink">
    <!-- Generator: Sketch 57.1 (83088) - https://sketch.com -->
    <title>Untitled</title>
    <desc>Created with Sketch.</desc>
    <defs>
        <linearGradient x1="50%" y1="100%" x2="50%" y2="3.061617e-15%" id="linearGradient-1">
            <stop stop-color="#00DEFF" offset="0%"></stop>
            <stop stop-color="#001B3D" offset="100%"></stop>
        </linearGradient>
        <linearGradient x1="16.3052721%" y1="58.4654615%" x2="79.0524022%" y2="39.1534187%" id="linearGradient-2">
            <stop stop-color="#001B3D" offset="0%"></stop>
            <stop stop-color="#001B3D" offset="100%"></stop>
        </linearGradient>
        <path d="M227.226,287.578 C229.514011,287.578 231.266661,287.984996 232.484,288.799 C233.701339,289.613004 234.31,290.877991 234.31,292.594 C234.31,293.664672 234.064336,294.533663 233.573,295.201 C233.081664,295.868337 232.374005,296.392665 231.45,296.774 C231.758002,297.155335 232.080665,297.591664 232.418,298.083 C232.755335,298.574336 233.088998,299.087664 233.419,299.623 C233.749002,300.158336 234.067998,300.715664 234.376,301.295 C234.684002,301.874336 234.969999,302.442664 235.234,303 L231.384,303 C231.105332,302.501331 230.823001,301.995336 230.537,301.482 C230.250999,300.968664 229.957668,300.470002 229.657,299.986 C229.356332,299.501998 229.059335,299.043669 228.766,298.611 C228.472665,298.178331 228.179335,297.786002 227.886,297.434 L226.192,297.434 L226.192,303 L222.76,303 L222.76,287.974 C223.508004,287.827333 224.281663,287.724667 225.081,287.666 C225.880337,287.607333 226.59533,287.578 227.226,287.578 Z M227.424,290.504 C227.174665,290.504 226.951001,290.511333 226.753,290.526 C226.554999,290.540667 226.368001,290.555333 226.192,290.57 L226.192,294.706 L227.16,294.706 C228.450673,294.706 229.374664,294.544668 229.932,294.222 C230.489336,293.899332 230.768,293.349337 230.768,292.572 C230.768,291.823996 230.485669,291.292335 229.921,290.977 C229.356331,290.661665 228.524005,290.504 227.424,290.504 Z M236.114,297.302 C236.114,296.275328 236.271665,295.377004 236.587,294.607 C236.902335,293.836996 237.316664,293.195336 237.83,292.682 C238.343336,292.168664 238.933663,291.780001 239.601,291.516 C240.268337,291.251999 240.953996,291.12 241.658,291.12 C243.300675,291.12 244.598662,291.622328 245.552,292.627 C246.505338,293.631672 246.982,295.109324 246.982,297.06 C246.982,297.250668 246.974667,297.459666 246.96,297.687 C246.945333,297.914334 246.930667,298.115999 246.916,298.292 L239.48,298.292 C239.553334,298.96667 239.868664,299.501998 240.426,299.898 C240.983336,300.294002 241.731329,300.492 242.67,300.492 C243.271336,300.492 243.861664,300.437001 244.441,300.327 C245.020336,300.216999 245.493332,300.081334 245.86,299.92 L246.3,302.582 C246.123999,302.67 245.889335,302.758 245.596,302.846 C245.302665,302.934 244.976335,303.011 244.617,303.077 C244.257665,303.143 243.872669,303.198 243.462,303.242 C243.051331,303.286 242.640669,303.308 242.23,303.308 C241.188661,303.308 240.283004,303.154002 239.513,302.846 C238.742996,302.537998 238.105003,302.116336 237.599,301.581 C237.092997,301.045664 236.719001,300.411337 236.477,299.678 C236.234999,298.944663 236.114,298.152671 236.114,297.302 Z M243.814,296.048 C243.799333,295.769332 243.751667,295.498001 243.671,295.234 C243.590333,294.969999 243.465668,294.735334 243.297,294.53 C243.128332,294.324666 242.915668,294.156001 242.659,294.024 C242.402332,293.891999 242.083335,293.826 241.702,293.826 C241.335331,293.826 241.020001,293.888333 240.756,294.013 C240.491999,294.137667 240.272001,294.302666 240.096,294.508 C239.919999,294.713334 239.784334,294.951665 239.689,295.223 C239.593666,295.494335 239.524,295.769332 239.48,296.048 L243.814,296.048 Z M255.87,296.862 C255.87,295.805995 255.734335,295.058002 255.463,294.618 C255.191665,294.177998 254.726003,293.958 254.066,293.958 C253.860666,293.958 253.648001,293.969 253.428,293.991 C253.207999,294.013 252.995334,294.038667 252.79,294.068 L252.79,303 L249.512,303 L249.512,291.824 C249.790668,291.750666 250.116998,291.673667 250.491,291.593 C250.865002,291.512333 251.260998,291.439 251.679,291.373 C252.097002,291.307 252.525998,291.255667 252.966,291.219 C253.406002,291.182333 253.838665,291.164 254.264,291.164 C255.100004,291.164 255.778331,291.270332 256.299,291.483 C256.819669,291.695668 257.248665,291.948665 257.586,292.242 C258.055336,291.904665 258.59433,291.640668 259.203,291.45 C259.81167,291.259332 260.372664,291.164 260.886,291.164 C261.810005,291.164 262.568997,291.292332 263.163,291.549 C263.757003,291.805668 264.229998,292.168664 264.582,292.638 C264.934002,293.107336 265.175999,293.664663 265.308,294.31 C265.440001,294.955337 265.506,295.673996 265.506,296.466 L265.506,303 L262.228,303 L262.228,296.862 C262.228,295.805995 262.092335,295.058002 261.821,294.618 C261.549665,294.177998 261.084003,293.958 260.424,293.958 C260.247999,293.958 260.002335,294.002 259.687,294.09 C259.371665,294.178 259.111334,294.287999 258.906,294.42 C259.008667,294.757335 259.074667,295.112998 259.104,295.487 C259.133333,295.861002 259.148,296.260665 259.148,296.686 L259.148,303 L255.87,303 L255.87,296.862 Z M279.3,297.192 C279.3,298.101338 279.168001,298.933663 278.904,299.689 C278.639999,300.444337 278.258669,301.089664 277.76,301.625 C277.261331,302.160336 276.66367,302.574665 275.967,302.868 C275.27033,303.161335 274.489338,303.308 273.624,303.308 C272.773329,303.308 271.99967,303.161335 271.303,302.868 C270.60633,302.574665 270.008669,302.160336 269.51,301.625 C269.011331,301.089664 268.622668,300.444337 268.344,299.689 C268.065332,298.933663 267.926,298.101338 267.926,297.192 C267.926,296.282662 268.068999,295.454004 268.355,294.706 C268.641001,293.957996 269.036997,293.320003 269.543,292.792 C270.049003,292.263997 270.65033,291.853335 271.347,291.56 C272.04367,291.266665 272.802663,291.12 273.624,291.12 C274.460004,291.12 275.22633,291.266665 275.923,291.56 C276.61967,291.853335 277.217331,292.263997 277.716,292.792 C278.214669,293.320003 278.603332,293.957996 278.882,294.706 C279.160668,295.454004 279.3,296.282662 279.3,297.192 Z M275.956,297.192 C275.956,296.179995 275.754335,295.384336 275.351,294.805 C274.947665,294.225664 274.372004,293.936 273.624,293.936 C272.875996,293.936 272.296669,294.225664 271.886,294.805 C271.475331,295.384336 271.27,296.179995 271.27,297.192 C271.27,298.204005 271.475331,299.006997 271.886,299.601 C272.296669,300.195003 272.875996,300.492 273.624,300.492 C274.372004,300.492 274.947665,300.195003 275.351,299.601 C275.754335,299.006997 275.956,298.204005 275.956,297.192 Z M284.668,303 C283.919996,301.533326 283.161004,299.817343 282.391,297.852 C281.620996,295.886657 280.891337,293.745345 280.202,291.428 L283.678,291.428 C283.824667,292.000003 283.996999,292.619663 284.195,293.287 C284.393001,293.954337 284.598332,294.628997 284.811,295.311 C285.023668,295.993003 285.236332,296.656663 285.449,297.302 C285.661668,297.947337 285.870666,298.533997 286.076,299.062 C286.266668,298.533997 286.471999,297.947337 286.692,297.302 C286.912001,296.656663 287.128332,295.993003 287.341,295.311 C287.553668,294.628997 287.758999,293.954337 287.957,293.287 C288.155001,292.619663 288.327333,292.000003 288.474,291.428 L291.862,291.428 C291.172663,293.745345 290.443004,295.886657 289.673,297.852 C288.902996,299.817343 288.144004,301.533326 287.396,303 L284.668,303 Z M292.764,297.302 C292.764,296.275328 292.921665,295.377004 293.237,294.607 C293.552335,293.836996 293.966664,293.195336 294.48,292.682 C294.993336,292.168664 295.583663,291.780001 296.251,291.516 C296.918337,291.251999 297.603996,291.12 298.308,291.12 C299.950675,291.12 301.248662,291.622328 302.202,292.627 C303.155338,293.631672 303.632,295.109324 303.632,297.06 C303.632,297.250668 303.624667,297.459666 303.61,297.687 C303.595333,297.914334 303.580667,298.115999 303.566,298.292 L296.13,298.292 C296.203334,298.96667 296.518664,299.501998 297.076,299.898 C297.633336,300.294002 298.381329,300.492 299.32,300.492 C299.921336,300.492 300.511664,300.437001 301.091,300.327 C301.670336,300.216999 302.143331,300.081334 302.51,299.92 L302.95,302.582 C302.773999,302.67 302.539335,302.758 302.246,302.846 C301.952665,302.934 301.626335,303.011 301.267,303.077 C300.907665,303.143 300.522669,303.198 300.112,303.242 C299.701331,303.286 299.290669,303.308 298.88,303.308 C297.838661,303.308 296.933004,303.154002 296.163,302.846 C295.392996,302.537998 294.755003,302.116336 294.249,301.581 C293.742997,301.045664 293.369001,300.411337 293.127,299.678 C292.884999,298.944663 292.764,298.152671 292.764,297.302 Z M300.464,296.048 C300.449333,295.769332 300.401667,295.498001 300.321,295.234 C300.240333,294.969999 300.115668,294.735334 299.947,294.53 C299.778332,294.324666 299.565668,294.156001 299.309,294.024 C299.052332,293.891999 298.733335,293.826 298.352,293.826 C297.985331,293.826 297.670001,293.888333 297.406,294.013 C297.141999,294.137667 296.922001,294.302666 296.746,294.508 C296.569999,294.713334 296.434334,294.951665 296.339,295.223 C296.243666,295.494335 296.174,295.769332 296.13,296.048 L300.464,296.048 Z M322.97,287.754 L322.97,290.68 L318.372,290.68 L318.372,303 L314.94,303 L314.94,290.68 L310.342,290.68 L310.342,287.754 L322.97,287.754 Z M327.722,300.712 C328.044668,300.712 328.352665,300.704667 328.646,300.69 C328.939335,300.675333 329.173999,300.653333 329.35,300.624 L329.35,298.138 C329.217999,298.108667 329.020001,298.079333 328.756,298.05 C328.491999,298.020667 328.250001,298.006 328.03,298.006 C327.721998,298.006 327.432335,298.024333 327.161,298.061 C326.889665,298.097667 326.651334,298.167333 326.446,298.27 C326.240666,298.372667 326.079334,298.511999 325.962,298.688 C325.844666,298.864001 325.786,299.083999 325.786,299.348 C325.786,299.861336 325.958332,300.216999 326.303,300.415 C326.647668,300.613001 327.120664,300.712 327.722,300.712 Z M327.458,291.12 C328.426005,291.12 329.232663,291.229999 329.878,291.45 C330.523337,291.670001 331.040331,291.985331 331.429,292.396 C331.817669,292.806669 332.092666,293.30533 332.254,293.892 C332.415334,294.47867 332.496,295.13133 332.496,295.85 L332.496,302.67 C332.026664,302.772667 331.374004,302.893666 330.538,303.033 C329.701996,303.172334 328.690006,303.242 327.502,303.242 C326.753996,303.242 326.07567,303.176001 325.467,303.044 C324.85833,302.911999 324.334002,302.695668 323.894,302.395 C323.453998,302.094332 323.116668,301.702002 322.882,301.218 C322.647332,300.733998 322.53,300.140004 322.53,299.436 C322.53,298.76133 322.665665,298.189336 322.937,297.72 C323.208335,297.250664 323.571331,296.876668 324.026,296.598 C324.480669,296.319332 325.00133,296.117667 325.588,295.993 C326.17467,295.868333 326.78333,295.806 327.414,295.806 C327.839335,295.806 328.216998,295.824333 328.547,295.861 C328.877002,295.897667 329.144666,295.945333 329.35,296.004 L329.35,295.696 C329.35,295.138664 329.181335,294.691335 328.844,294.354 C328.506665,294.016665 327.920004,293.848 327.084,293.848 C326.526664,293.848 325.976669,293.888333 325.434,293.969 C324.891331,294.049667 324.422002,294.163333 324.026,294.31 L323.608,291.67 C323.798668,291.611333 324.036999,291.549 324.323,291.483 C324.609001,291.417 324.920665,291.358334 325.258,291.307 C325.595335,291.255666 325.950998,291.211667 326.325,291.175 C326.699002,291.138333 327.076665,291.12 327.458,291.12 Z M338.26,296.84 C338.26,298.673342 339.000659,299.59 340.482,299.59 C340.819335,299.59 341.134665,299.546 341.428,299.458 C341.721335,299.37 341.970666,299.267334 342.176,299.15 L342.176,293.914 C342.014666,293.884667 341.824001,293.859 341.604,293.837 C341.383999,293.815 341.127335,293.804 340.834,293.804 C339.968662,293.804 339.323335,294.089997 338.898,294.662 C338.472665,295.234003 338.26,295.959996 338.26,296.84 Z M345.454,301.548 C345.454,303.440009 344.973671,304.844329 344.013,305.761 C343.052329,306.677671 341.567343,307.136 339.558,307.136 C338.853996,307.136 338.150004,307.073667 337.446,306.949 C336.741996,306.824333 336.089336,306.659334 335.488,306.454 L336.06,303.704 C336.573336,303.909334 337.112331,304.070666 337.677,304.188 C338.241669,304.305334 338.88333,304.364 339.602,304.364 C340.540671,304.364 341.204331,304.158669 341.593,303.748 C341.981669,303.337331 342.176,302.809337 342.176,302.164 L342.176,301.746 C341.823998,301.907334 341.461002,302.028333 341.087,302.109 C340.712998,302.189667 340.306002,302.23 339.866,302.23 C338.267325,302.23 337.042671,301.757005 336.192,300.811 C335.341329,299.864995 334.916,298.541342 334.916,296.84 C334.916,295.989329 335.047999,295.21567 335.312,294.519 C335.576001,293.82233 335.960997,293.224669 336.467,292.726 C336.973003,292.227331 337.592663,291.842335 338.326,291.571 C339.059337,291.299665 339.887995,291.164 340.812,291.164 C341.208002,291.164 341.614998,291.182333 342.033,291.219 C342.451002,291.255667 342.865331,291.303333 343.276,291.362 C343.686669,291.420667 344.078998,291.490333 344.453,291.571 C344.827002,291.651667 345.160665,291.736 345.454,291.824 L345.454,301.548 Z M351.856,300.646 C352.457336,300.646 352.882665,300.587334 353.132,300.47 C353.381335,300.352666 353.506,300.125335 353.506,299.788 C353.506,299.523999 353.344668,299.293001 353.022,299.095 C352.699332,298.896999 352.208003,298.673335 351.548,298.424 C351.034664,298.233332 350.569002,298.035334 350.151,297.83 C349.732998,297.624666 349.377335,297.379001 349.084,297.093 C348.790665,296.806999 348.563334,296.466002 348.402,296.07 C348.240666,295.673998 348.16,295.197336 348.16,294.64 C348.16,293.554661 348.563329,292.69667 349.37,292.066 C350.176671,291.43533 351.283993,291.12 352.692,291.12 C353.396004,291.12 354.070663,291.182333 354.716,291.307 C355.361337,291.431667 355.874665,291.567333 356.256,291.714 L355.684,294.266 C355.302665,294.133999 354.888336,294.016667 354.441,293.914 C353.993664,293.811333 353.491336,293.76 352.934,293.76 C351.907328,293.76 351.394,294.045997 351.394,294.618 C351.394,294.750001 351.416,294.867333 351.46,294.97 C351.504,295.072667 351.591999,295.171666 351.724,295.267 C351.856001,295.362334 352.035666,295.464999 352.263,295.575 C352.490334,295.685001 352.779998,295.805999 353.132,295.938 C353.85067,296.202001 354.444664,296.462332 354.914,296.719 C355.383336,296.975668 355.753665,297.254332 356.025,297.555 C356.296335,297.855668 356.486999,298.189331 356.597,298.556 C356.707001,298.922668 356.762,299.347998 356.762,299.832 C356.762,300.976006 356.333004,301.84133 355.475,302.428 C354.616996,303.01467 353.403341,303.308 351.834,303.308 C350.807328,303.308 349.953003,303.220001 349.271,303.044 C348.588997,302.867999 348.116001,302.721334 347.852,302.604 L348.402,299.942 C348.959336,300.162001 349.53133,300.334333 350.118,300.459 C350.70467,300.583667 351.283997,300.646 351.856,300.646 Z M376.012,287.754 L376.012,290.68 L371.414,290.68 L371.414,303 L367.982,303 L367.982,290.68 L363.384,290.68 L363.384,287.754 L376.012,287.754 Z M383.448,294.332 C383.154665,294.258666 382.810002,294.181667 382.414,294.101 C382.017998,294.020333 381.592669,293.98 381.138,293.98 C380.932666,293.98 380.687001,293.998333 380.401,294.035 C380.114999,294.071667 379.898667,294.112 379.752,294.156 L379.752,303 L376.474,303 L376.474,292.044 C377.06067,291.838666 377.753663,291.644334 378.553,291.461 C379.352337,291.277666 380.243328,291.186 381.226,291.186 C381.402001,291.186 381.614665,291.197 381.864,291.219 C382.113335,291.241 382.362665,291.270333 382.612,291.307 C382.861335,291.343667 383.110665,291.387666 383.36,291.439 C383.609335,291.490334 383.821999,291.552666 383.998,291.626 L383.448,294.332 Z M389.96,300.712 C390.282668,300.712 390.590665,300.704667 390.884,300.69 C391.177335,300.675333 391.411999,300.653333 391.588,300.624 L391.588,298.138 C391.455999,298.108667 391.258001,298.079333 390.994,298.05 C390.729999,298.020667 390.488001,298.006 390.268,298.006 C389.959998,298.006 389.670335,298.024333 389.399,298.061 C389.127665,298.097667 388.889334,298.167333 388.684,298.27 C388.478666,298.372667 388.317334,298.511999 388.2,298.688 C388.082666,298.864001 388.024,299.083999 388.024,299.348 C388.024,299.861336 388.196332,300.216999 388.541,300.415 C388.885668,300.613001 389.358664,300.712 389.96,300.712 Z M389.696,291.12 C390.664005,291.12 391.470663,291.229999 392.116,291.45 C392.761337,291.670001 393.278331,291.985331 393.667,292.396 C394.055669,292.806669 394.330666,293.30533 394.492,293.892 C394.653334,294.47867 394.734,295.13133 394.734,295.85 L394.734,302.67 C394.264664,302.772667 393.612004,302.893666 392.776,303.033 C391.939996,303.172334 390.928006,303.242 389.74,303.242 C388.991996,303.242 388.31367,303.176001 387.705,303.044 C387.09633,302.911999 386.572002,302.695668 386.132,302.395 C385.691998,302.094332 385.354668,301.702002 385.12,301.218 C384.885332,300.733998 384.768,300.140004 384.768,299.436 C384.768,298.76133 384.903665,298.189336 385.175,297.72 C385.446335,297.250664 385.809331,296.876668 386.264,296.598 C386.718669,296.319332 387.23933,296.117667 387.826,295.993 C388.41267,295.868333 389.02133,295.806 389.652,295.806 C390.077335,295.806 390.454998,295.824333 390.785,295.861 C391.115002,295.897667 391.382666,295.945333 391.588,296.004 L391.588,295.696 C391.588,295.138664 391.419335,294.691335 391.082,294.354 C390.744665,294.016665 390.158004,293.848 389.322,293.848 C388.764664,293.848 388.214669,293.888333 387.672,293.969 C387.129331,294.049667 386.660002,294.163333 386.264,294.31 L385.846,291.67 C386.036668,291.611333 386.274999,291.549 386.561,291.483 C386.847001,291.417 387.158665,291.358334 387.496,291.307 C387.833335,291.255666 388.188998,291.211667 388.563,291.175 C388.937002,291.138333 389.314665,291.12 389.696,291.12 Z M397.704,291.824 C398.261336,291.662666 398.979996,291.512334 399.86,291.373 C400.740004,291.233666 401.663995,291.164 402.632,291.164 C403.614672,291.164 404.43233,291.292332 405.085,291.549 C405.73767,291.805668 406.254665,292.168664 406.636,292.638 C407.017335,293.107336 407.288666,293.664663 407.45,294.31 C407.611334,294.955337 407.692,295.673996 407.692,296.466 L407.692,303 L404.414,303 L404.414,296.862 C404.414,295.805995 404.274668,295.058002 403.996,294.618 C403.717332,294.177998 403.19667,293.958 402.434,293.958 C402.199332,293.958 401.950001,293.969 401.686,293.991 C401.421999,294.013 401.187334,294.038667 400.982,294.068 L400.982,303 L397.704,303 L397.704,291.824 Z M413.984,300.646 C414.585336,300.646 415.010665,300.587334 415.26,300.47 C415.509335,300.352666 415.634,300.125335 415.634,299.788 C415.634,299.523999 415.472668,299.293001 415.15,299.095 C414.827332,298.896999 414.336003,298.673335 413.676,298.424 C413.162664,298.233332 412.697002,298.035334 412.279,297.83 C411.860998,297.624666 411.505335,297.379001 411.212,297.093 C410.918665,296.806999 410.691334,296.466002 410.53,296.07 C410.368666,295.673998 410.288,295.197336 410.288,294.64 C410.288,293.554661 410.691329,292.69667 411.498,292.066 C412.304671,291.43533 413.411993,291.12 414.82,291.12 C415.524004,291.12 416.198663,291.182333 416.844,291.307 C417.489337,291.431667 418.002665,291.567333 418.384,291.714 L417.812,294.266 C417.430665,294.133999 417.016336,294.016667 416.569,293.914 C416.121664,293.811333 415.619336,293.76 415.062,293.76 C414.035328,293.76 413.522,294.045997 413.522,294.618 C413.522,294.750001 413.544,294.867333 413.588,294.97 C413.632,295.072667 413.719999,295.171666 413.852,295.267 C413.984001,295.362334 414.163666,295.464999 414.391,295.575 C414.618334,295.685001 414.907998,295.805999 415.26,295.938 C415.97867,296.202001 416.572664,296.462332 417.042,296.719 C417.511336,296.975668 417.881665,297.254332 418.153,297.555 C418.424335,297.855668 418.614999,298.189331 418.725,298.556 C418.835001,298.922668 418.89,299.347998 418.89,299.832 C418.89,300.976006 418.461004,301.84133 417.603,302.428 C416.744996,303.01467 415.531341,303.308 413.962,303.308 C412.935328,303.308 412.081003,303.220001 411.399,303.044 C410.716997,302.867999 410.244001,302.721334 409.98,302.604 L410.53,299.942 C411.087336,300.162001 411.65933,300.334333 412.246,300.459 C412.83267,300.583667 413.411997,300.646 413.984,300.646 Z M426.348,285.928 C426.964003,285.928 427.528664,285.990333 428.042,286.115 C428.555336,286.239667 428.951332,286.360666 429.23,286.478 L428.592,289.096 C428.298665,288.963999 427.979668,288.865 427.635,288.799 C427.290332,288.733 426.971335,288.7 426.678,288.7 C426.281998,288.7 425.948335,288.754999 425.677,288.865 C425.405665,288.975001 425.193001,289.125332 425.039,289.316 C424.884999,289.506668 424.775,289.733999 424.709,289.998 C424.643,290.262001 424.61,290.547998 424.61,290.856 L424.61,291.428 L428.658,291.428 L428.658,294.156 L424.61,294.156 L424.61,303 L421.332,303 L421.332,290.812 C421.332,289.315993 421.753662,288.128004 422.597,287.248 C423.440338,286.367996 424.690658,285.928 426.348,285.928 Z M441.264,297.192 C441.264,298.101338 441.132001,298.933663 440.868,299.689 C440.603999,300.444337 440.222669,301.089664 439.724,301.625 C439.225331,302.160336 438.62767,302.574665 437.931,302.868 C437.23433,303.161335 436.453338,303.308 435.588,303.308 C434.737329,303.308 433.96367,303.161335 433.267,302.868 C432.57033,302.574665 431.972669,302.160336 431.474,301.625 C430.975331,301.089664 430.586668,300.444337 430.308,299.689 C430.029332,298.933663 429.89,298.101338 429.89,297.192 C429.89,296.282662 430.032999,295.454004 430.319,294.706 C430.605001,293.957996 431.000997,293.320003 431.507,292.792 C432.013003,292.263997 432.61433,291.853335 433.311,291.56 C434.00767,291.266665 434.766663,291.12 435.588,291.12 C436.424004,291.12 437.19033,291.266665 437.887,291.56 C438.58367,291.853335 439.181331,292.263997 439.68,292.792 C440.178669,293.320003 440.567332,293.957996 440.846,294.706 C441.124668,295.454004 441.264,296.282662 441.264,297.192 Z M437.92,297.192 C437.92,296.179995 437.718335,295.384336 437.315,294.805 C436.911665,294.225664 436.336004,293.936 435.588,293.936 C434.839996,293.936 434.260669,294.225664 433.85,294.805 C433.439331,295.384336 433.234,296.179995 433.234,297.192 C433.234,298.204005 433.439331,299.006997 433.85,299.601 C434.260669,300.195003 434.839996,300.492 435.588,300.492 C436.336004,300.492 436.911665,300.195003 437.315,299.601 C437.718335,299.006997 437.92,298.204005 437.92,297.192 Z M450.768,294.332 C450.474665,294.258666 450.130002,294.181667 449.734,294.101 C449.337998,294.020333 448.912669,293.98 448.458,293.98 C448.252666,293.98 448.007001,293.998333 447.721,294.035 C447.434999,294.071667 447.218667,294.112 447.072,294.156 L447.072,303 L443.794,303 L443.794,292.044 C444.38067,291.838666 445.073663,291.644334 445.873,291.461 C446.672337,291.277666 447.563328,291.186 448.546,291.186 C448.722001,291.186 448.934665,291.197 449.184,291.219 C449.433335,291.241 449.682665,291.270333 449.932,291.307 C450.181335,291.343667 450.430665,291.387666 450.68,291.439 C450.929335,291.490334 451.141999,291.552666 451.318,291.626 L450.768,294.332 Z M459.436,296.862 C459.436,295.805995 459.300335,295.058002 459.029,294.618 C458.757665,294.177998 458.292003,293.958 457.632,293.958 C457.426666,293.958 457.214001,293.969 456.994,293.991 C456.773999,294.013 456.561334,294.038667 456.356,294.068 L456.356,303 L453.078,303 L453.078,291.824 C453.356668,291.750666 453.682998,291.673667 454.057,291.593 C454.431002,291.512333 454.826998,291.439 455.245,291.373 C455.663002,291.307 456.091998,291.255667 456.532,291.219 C456.972002,291.182333 457.404665,291.164 457.83,291.164 C458.666004,291.164 459.344331,291.270332 459.865,291.483 C460.385669,291.695668 460.814665,291.948665 461.152,292.242 C461.621336,291.904665 462.16033,291.640668 462.769,291.45 C463.37767,291.259332 463.938664,291.164 464.452,291.164 C465.376005,291.164 466.134997,291.292332 466.729,291.549 C467.323003,291.805668 467.795998,292.168664 468.148,292.638 C468.500002,293.107336 468.741999,293.664663 468.874,294.31 C469.006001,294.955337 469.072,295.673996 469.072,296.466 L469.072,303 L465.794,303 L465.794,296.862 C465.794,295.805995 465.658335,295.058002 465.387,294.618 C465.115665,294.177998 464.650003,293.958 463.99,293.958 C463.813999,293.958 463.568335,294.002 463.253,294.09 C462.937665,294.178 462.677334,294.287999 462.472,294.42 C462.574667,294.757335 462.640667,295.112998 462.67,295.487 C462.699333,295.861002 462.714,296.260665 462.714,296.686 L462.714,303 L459.436,303 L459.436,296.862 Z" id="path-3"></path>
    </defs>
    <g id="Page-1" stroke="none" stroke-width="1" fill="none" fill-rule="evenodd">
        <g id="remove_fields-transform" fill-rule="nonzero">
            <g id="Sinks" transform="translate(528.000000, 9.000000)">
                <g id="Sink-3" transform="translate(0.000000, 184.000000)">
                    <circle id="Oval-Copy" fill="#001B3D" cx="37.5" cy="37.5" r="37.5"></circle>
                    <path d="M23.6523438,37.0859375 C23.6523438,35.4921875 25.0273438,34.4453125 27.1601562,34.4453125 C29.3085938,34.4453125 30.6367188,35.546875 30.6835938,37.1875 L28.5820312,37.1875 C28.5117188,36.5078125 28.0039062,36.046875 27.1601562,36.046875 C26.3710938,36.046875 25.8476562,36.40625 25.8476562,36.9609375 C25.8476562,37.390625 26.1601562,37.6796875 27.0039062,37.859375 L28.4335938,38.1640625 C30.1835938,38.53125 30.9023438,39.21875 30.9023438,40.4453125 C30.9023438,42.09375 29.3945312,43.1796875 27.2382812,43.1796875 C24.9257812,43.1796875 23.5898438,42.1015625 23.4414062,40.453125 L25.6679688,40.453125 C25.8085938,41.1875 26.3320312,41.578125 27.2382812,41.578125 C28.0976562,41.578125 28.6289062,41.2265625 28.6289062,40.6796875 C28.6289062,40.234375 28.3398438,39.984375 27.5195312,39.796875 L26.0898438,39.5 C24.4726562,39.15625 23.6523438,38.34375 23.6523438,37.0859375 Z M32.0664062,43 L32.0664062,34.625 L34.3476562,34.625 L34.3476562,43 L32.0664062,43 Z M33.1992188,33.4921875 C32.5351562,33.4921875 32.0117188,32.9609375 32.0117188,32.3203125 C32.0117188,31.671875 32.5351562,31.1484375 33.1992188,31.1484375 C33.8632812,31.1484375 34.3867188,31.671875 34.3867188,32.3203125 C34.3867188,32.9609375 33.8632812,33.4921875 33.1992188,33.4921875 Z M35.8632812,43 L35.8632812,34.625 L38.0664062,34.625 L38.0664062,36.1171875 L38.1132812,36.1171875 C38.5585938,35.078125 39.4414062,34.46875 40.7304688,34.46875 C42.5898438,34.46875 43.6367188,35.640625 43.6367188,37.6015625 L43.6367188,43 L41.3554688,43 L41.3554688,38.078125 C41.3554688,36.984375 40.8398438,36.359375 39.8164062,36.359375 C38.7929688,36.359375 38.1445312,37.109375 38.1445312,38.1953125 L38.1445312,43 L35.8632812,43 Z M47.4492188,37.984375 L50.2929688,34.625 L52.8789062,34.625 L49.6835938,38.21875 L53.0351562,43 L50.4101562,43 L48.0117188,39.59375 L47.4179688,40.234375 L47.4179688,43 L45.1367188,43 L45.1367188,31.7265625 L47.4179688,31.7265625 L47.4179688,37.984375 L47.4492188,37.984375 Z" id="sink" fill="#FFFFFF"></path>
                </g>
                <g id="Sink-2" transform="translate(80.000000, 124.000000)">
                    <circle id="Oval-Copy" fill="#001B3D" cx="37.5" cy="37.5" r="37.5"></circle>
                    <path d="M23.6523438,37.0859375 C23.6523438,35.4921875 25.0273438,34.4453125 27.1601562,34.4453125 C29.3085938,34.4453125 30.6367188,35.546875 30.6835938,37.1875 L28.5820312,37.1875 C28.5117188,36.5078125 28.0039062,36.046875 27.1601562,36.046875 C26.3710938,36.046875 25.8476562,36.40625 25.8476562,36.9609375 C25.8476562,37.390625 26.1601562,37.6796875 27.0039062,37.859375 L28.4335938,38.1640625 C30.1835938,38.53125 30.9023438,39.21875 30.9023438,40.4453125 C30.9023438,42.09375 29.3945312,43.1796875 27.2382812,43.1796875 C24.9257812,43.1796875 23.5898438,42.1015625 23.4414062,40.453125 L25.6679688,40.453125 C25.8085938,41.1875 26.3320312,41.578125 27.2382812,41.578125 C28.0976562,41.578125 28.6289062,41.2265625 28.6289062,40.6796875 C28.6289062,40.234375 28.3398438,39.984375 27.5195312,39.796875 L26.0898438,39.5 C24.4726562,39.15625 23.6523438,38.34375 23.6523438,37.0859375 Z M32.0664062,43 L32.0664062,34.625 L34.3476562,34.625 L34.3476562,43 L32.0664062,43 Z M33.1992188,33.4921875 C32.5351562,33.4921875 32.0117188,32.9609375 32.0117188,32.3203125 C32.0117188,31.671875 32.5351562,31.1484375 33.1992188,31.1484375 C33.8632812,31.1484375 34.3867188,31.671875 34.3867188,32.3203125 C34.3867188,32.9609375 33.8632812,33.4921875 33.1992188,33.4921875 Z M35.8632812,43 L35.8632812,34.625 L38.0664062,34.625 L38.0664062,36.1171875 L38.1132812,36.1171875 C38.5585938,35.078125 39.4414062,34.46875 40.7304688,34.46875 C42.5898438,34.46875 43.6367188,35.640625 43.6367188,37.6015625 L43.6367188,43 L41.3554688,43 L41.3554688,38.078125 C41.3554688,36.984375 40.8398438,36.359375 39.8164062,36.359375 C38.7929688,36.359375 38.1445312,37.109375 38.1445312,38.1953125 L38.1445312,43 L35.8632812,43 Z M47.4492188,37.984375 L50.2929688,34.625 L52.8789062,34.625 L49.6835938,38.21875 L53.0351562,43 L50.4101562,43 L48.0117188,39.59375 L47.4179688,40.234375 L47.4179688,43 L45.1367188,43 L45.1367188,31.7265625 L47.4179688,31.7265625 L47.4179688,37.984375 L47.4492188,37.984375 Z" id="sink" fill="#FFFFFF"></path>
                </g>
                <g id="Sink-1" transform="translate(0.000000, 58.000000)">
                    <circle id="Oval-Copy-2" fill="#001B3D" cx="37.5" cy="37.5" r="37.5"></circle>
                    <path d="M23.6523438,38.0859375 C23.6523438,36.4921875 25.0273438,35.4453125 27.1601562,35.4453125 C29.3085938,35.4453125 30.6367188,36.546875 30.6835938,38.1875 L28.5820312,38.1875 C28.5117188,37.5078125 28.0039062,37.046875 27.1601562,37.046875 C26.3710938,37.046875 25.8476562,37.40625 25.8476562,37.9609375 C25.8476562,38.390625 26.1601562,38.6796875 27.0039062,38.859375 L28.4335938,39.1640625 C30.1835938,39.53125 30.9023438,40.21875 30.9023438,41.4453125 C30.9023438,43.09375 29.3945312,44.1796875 27.2382812,44.1796875 C24.9257812,44.1796875 23.5898438,43.1015625 23.4414062,41.453125 L25.6679688,41.453125 C25.8085938,42.1875 26.3320312,42.578125 27.2382812,42.578125 C28.0976562,42.578125 28.6289062,42.2265625 28.6289062,41.6796875 C28.6289062,41.234375 28.3398438,40.984375 27.5195312,40.796875 L26.0898438,40.5 C24.4726562,40.15625 23.6523438,39.34375 23.6523438,38.0859375 Z M32.0664062,44 L32.0664062,35.625 L34.3476562,35.625 L34.3476562,44 L32.0664062,44 Z M33.1992188,34.4921875 C32.5351562,34.4921875 32.0117188,33.9609375 32.0117188,33.3203125 C32.0117188,32.671875 32.5351562,32.1484375 33.1992188,32.1484375 C33.8632812,32.1484375 34.3867188,32.671875 34.3867188,33.3203125 C34.3867188,33.9609375 33.8632812,34.4921875 33.1992188,34.4921875 Z M35.8632812,44 L35.8632812,35.625 L38.0664062,35.625 L38.0664062,37.1171875 L38.1132812,37.1171875 C38.5585938,36.078125 39.4414062,35.46875 40.7304688,35.46875 C42.5898438,35.46875 43.6367188,36.640625 43.6367188,38.6015625 L43.6367188,44 L41.3554688,44 L41.3554688,39.078125 C41.3554688,37.984375 40.8398438,37.359375 39.8164062,37.359375 C38.7929688,37.359375 38.1445312,38.109375 38.1445312,39.1953125 L38.1445312,44 L35.8632812,44 Z M47.4492188,38.984375 L50.2929688,35.625 L52.8789062,35.625 L49.6835938,39.21875 L53.0351562,44 L50.4101562,44 L48.0117188,40.59375 L47.4179688,41.234375 L47.4179688,44 L45.1367188,44 L45.1367188,32.7265625 L47.4179688,32.7265625 L47.4179688,38.984375 L47.4492188,38.984375 Z" id="sink" fill="#FFFFFF"></path>
                </g>
                <path d="M16.154,15.382 C16.6380024,15.382 17.0376651,15.3416671 17.353,15.261 C17.6683349,15.1803329 17.9213324,15.070334 18.112,14.931 C18.3026676,14.791666 18.4346663,14.6266676 18.508,14.436 C18.5813337,14.2453324 18.618,14.0326678 18.618,13.798 C18.618,13.2993308 18.3833357,12.8850016 17.914,12.555 C17.4446643,12.2249983 16.6380057,11.8693352 15.494,11.488 C14.9953308,11.3119991 14.4966692,11.1103345 13.998,10.883 C13.4993308,10.6556655 13.052002,10.3696684 12.656,10.025 C12.259998,9.68033161 11.9373346,9.26233579 11.688,8.771 C11.4386654,8.27966421 11.314,7.68200352 11.314,6.978 C11.314,6.27399648 11.4459987,5.63966949 11.71,5.075 C11.9740013,4.51033051 12.3479976,4.03000198 12.832,3.634 C13.3160024,3.23799802 13.9026632,2.93366773 14.592,2.721 C15.2813368,2.50833227 16.0586623,2.402 16.924,2.402 C17.9506718,2.402 18.8379963,2.5119989 19.586,2.732 C20.3340037,2.9520011 20.9499976,3.19399868 21.434,3.458 L20.444,6.164 C20.0186645,5.9439989 19.5456693,5.74966751 19.025,5.581 C18.5043307,5.41233249 17.877337,5.328 17.144,5.328 C16.3226626,5.328 15.7323351,5.44166553 15.373,5.669 C15.0136649,5.89633447 14.834,6.24466432 14.834,6.714 C14.834,6.99266806 14.8999993,7.22733238 15.032,7.418 C15.1640007,7.60866762 15.3509988,7.78099923 15.593,7.935 C15.8350012,8.08900077 16.1136651,8.22833271 16.429,8.353 C16.7443349,8.47766729 17.0926648,8.60599934 17.474,8.738 C18.266004,9.0313348 18.9553304,9.32099857 19.542,9.607 C20.1286696,9.89300143 20.6163314,10.2266648 21.005,10.608 C21.3936686,10.9893352 21.6833324,11.4366641 21.874,11.95 C22.0646676,12.4633359 22.16,13.086663 22.16,13.82 C22.16,15.2426738 21.6613383,16.3463294 20.664,17.131 C19.6666617,17.9156706 18.1633434,18.308 16.154,18.308 C15.47933,18.308 14.8706694,18.2676671 14.328,18.187 C13.7853306,18.1063329 13.3050021,18.0073339 12.887,17.89 C12.4689979,17.7726661 12.1096682,17.6480007 11.809,17.516 C11.5083318,17.3839993 11.2553344,17.2593339 11.05,17.142 L12.018,14.414 C12.4726689,14.6633346 13.0336633,14.886999 13.701,15.085 C14.3683367,15.283001 15.1859952,15.382 16.154,15.382 Z M27.858,18 L24.58,18 L24.58,6.428 L27.858,6.428 L27.858,18 Z M28.166,3.084 C28.166,3.68533634 27.9716686,4.15833161 27.583,4.503 C27.1943314,4.84766839 26.7360026,5.02 26.208,5.02 C25.6799974,5.02 25.2216686,4.84766839 24.833,4.503 C24.4443314,4.15833161 24.25,3.68533634 24.25,3.084 C24.25,2.48266366 24.4443314,2.00966839 24.833,1.665 C25.2216686,1.32033161 25.6799974,1.148 26.208,1.148 C26.7360026,1.148 27.1943314,1.32033161 27.583,1.665 C27.9716686,2.00966839 28.166,2.48266366 28.166,3.084 Z M30.938,6.824 C31.4953361,6.66266586 32.2139956,6.51233403 33.094,6.373 C33.9740044,6.23366597 34.8979952,6.164 35.866,6.164 C36.8486716,6.164 37.6663301,6.29233205 38.319,6.549 C38.9716699,6.80566795 39.4886648,7.16866432 39.87,7.638 C40.2513352,8.10733568 40.5226659,8.66466344 40.684,9.31 C40.8453341,9.95533656 40.926,10.673996 40.926,11.466 L40.926,18 L37.648,18 L37.648,11.862 C37.648,10.8059947 37.5086681,10.0580022 37.23,9.618 C36.9513319,9.1779978 36.4306705,8.958 35.668,8.958 C35.4333322,8.958 35.1840013,8.96899989 34.92,8.991 C34.6559987,9.01300011 34.4213344,9.03866652 34.216,9.068 L34.216,18 L30.938,18 L30.938,6.824 Z M47.174,10.608 C47.4966683,10.2559982 47.8303316,9.88933524 48.175,9.508 C48.5196684,9.12666476 48.8533317,8.74900187 49.176,8.375 C49.4986683,8.00099813 49.8029986,7.64533502 50.089,7.308 C50.3750014,6.97066498 50.6206656,6.67733458 50.826,6.428 L54.72,6.428 C53.9426628,7.32267114 53.1836704,8.17699593 52.443,8.991 C51.7023296,9.80500407 50.8920044,10.6446623 50.012,11.51 C50.4520022,11.906002 50.9066643,12.3789972 51.376,12.929 C51.8453357,13.4790027 52.2999978,14.0473304 52.74,14.634 C53.1800022,15.2206696 53.5833315,15.8073304 53.95,16.394 C54.3166685,16.9806696 54.6246654,17.5159976 54.874,18 L51.112,18 C50.8773322,17.6186648 50.6096682,17.1970023 50.309,16.735 C50.0083318,16.2729977 49.689335,15.8110023 49.352,15.349 C49.014665,14.8869977 48.6590019,14.4433355 48.285,14.018 C47.9109981,13.5926645 47.5406685,13.2333348 47.174,12.94 L47.174,18 L43.896,18 L43.896,1.456 L47.174,0.928 L47.174,10.608 Z M59.956,15.646 C60.5573363,15.646 60.9826654,15.5873339 61.232,15.47 C61.4813346,15.3526661 61.606,15.125335 61.606,14.788 C61.606,14.5239987 61.4446683,14.293001 61.122,14.095 C60.7993317,13.896999 60.3080033,13.6733346 59.648,13.424 C59.1346641,13.2333324 58.6690021,13.0353344 58.251,12.83 C57.8329979,12.6246656 57.4773348,12.3790014 57.184,12.093 C56.8906652,11.8069986 56.6633341,11.466002 56.502,11.07 C56.3406659,10.673998 56.26,10.1973361 56.26,9.64 C56.26,8.55466124 56.6633293,7.69666982 57.47,7.066 C58.2766707,6.43533018 59.383993,6.12 60.792,6.12 C61.4960035,6.12 62.1706634,6.18233271 62.816,6.307 C63.4613366,6.43166729 63.9746648,6.5673326 64.356,6.714 L63.784,9.266 C63.4026648,9.13399934 62.9883356,9.01666718 62.541,8.914 C62.0936644,8.81133282 61.5913361,8.76 61.034,8.76 C60.0073282,8.76 59.494,9.04599714 59.494,9.618 C59.494,9.75000066 59.5159998,9.86733282 59.56,9.97 C59.6040002,10.0726672 59.6919993,10.1716662 59.824,10.267 C59.9560007,10.3623338 60.1356655,10.4649994 60.363,10.575 C60.5903345,10.6850005 60.8799982,10.8059993 61.232,10.938 C61.9506703,11.2020013 62.5446643,11.462332 63.014,11.719 C63.4833357,11.9756679 63.8536653,12.2543318 64.125,12.555 C64.3963347,12.8556682 64.5869995,13.1893315 64.697,13.556 C64.8070006,13.9226685 64.862,14.3479976 64.862,14.832 C64.862,15.9760057 64.4330043,16.8413304 63.575,17.428 C62.7169957,18.0146696 61.5033412,18.308 59.934,18.308 C58.9073282,18.308 58.0530034,18.2200009 57.371,18.044 C56.6889966,17.8679991 56.2160013,17.7213339 55.952,17.604 L56.502,14.942 C57.0593361,15.1620011 57.6313304,15.3343327 58.218,15.459 C58.8046696,15.5836673 59.3839971,15.646 59.956,15.646 Z" id="Shape" fill="#001B3D"></path>
            </g>
            <g id="Sinks" transform="translate(528.000000, 9.000000)">
                <g id="Sink-3" transform="translate(0.000000, 184.000000)">
                    <circle id="Oval-Copy" fill="#001B3D" cx="37.5" cy="37.5" r="37.5"></circle>
                    <path d="M23.6523438,37.0859375 C23.6523438,35.4921875 25.0273438,34.4453125 27.1601562,34.4453125 C29.3085938,34.4453125 30.6367188,35.546875 30.6835938,37.1875 L28.5820312,37.1875 C28.5117188,36.5078125 28.0039062,36.046875 27.1601562,36.046875 C26.3710938,36.046875 25.8476562,36.40625 25.8476562,36.9609375 C25.8476562,37.390625 26.1601562,37.6796875 27.0039062,37.859375 L28.4335938,38.1640625 C30.1835938,38.53125 30.9023438,39.21875 30.9023438,40.4453125 C30.9023438,42.09375 29.3945312,43.1796875 27.2382812,43.1796875 C24.9257812,43.1796875 23.5898438,42.1015625 23.4414062,40.453125 L25.6679688,40.453125 C25.8085938,41.1875 26.3320312,41.578125 27.2382812,41.578125 C28.0976562,41.578125 28.6289062,41.2265625 28.6289062,40.6796875 C28.6289062,40.234375 28.3398438,39.984375 27.5195312,39.796875 L26.0898438,39.5 C24.4726562,39.15625 23.6523438,38.34375 23.6523438,37.0859375 Z M32.0664062,43 L32.0664062,34.625 L34.3476562,34.625 L34.3476562,43 L32.0664062,43 Z M33.1992188,33.4921875 C32.5351562,33.4921875 32.0117188,32.9609375 32.0117188,32.3203125 C32.0117188,31.671875 32.5351562,31.1484375 33.1992188,31.1484375 C33.8632812,31.1484375 34.3867188,31.671875 34.3867188,32.3203125 C34.3867188,32.9609375 33.8632812,33.4921875 33.1992188,33.4921875 Z M35.8632812,43 L35.8632812,34.625 L38.0664062,34.625 L38.0664062,36.1171875 L38.1132812,36.1171875 C38.5585938,35.078125 39.4414062,34.46875 40.7304688,34.46875 C42.5898438,34.46875 43.6367188,35.640625 43.6367188,37.6015625 L43.6367188,43 L41.3554688,43 L41.3554688,38.078125 C41.3554688,36.984375 40.8398438,36.359375 39.8164062,36.359375 C38.7929688,36.359375 38.1445312,37.109375 38.1445312,38.1953125 L38.1445312,43 L35.8632812,43 Z M47.4492188,37.984375 L50.2929688,34.625 L52.8789062,34.625 L49.6835938,38.21875 L53.0351562,43 L50.4101562,43 L48.0117188,39.59375 L47.4179688,40.234375 L47.4179688,43 L45.1367188,43 L45.1367188,31.7265625 L47.4179688,31.7265625 L47.4179688,37.984375 L47.4492188,37.984375 Z" id="sink" fill="#FFFFFF"></path>
                </g>
                <g id="Sink-2" transform="translate(80.000000, 124.000000)">
                    <circle id="Oval-Copy" fill="#001B3D" cx="37.5" cy="37.5" r="37.5"></circle>
                    <path d="M23.6523438,37.0859375 C23.6523438,35.4921875 25.0273438,34.4453125 27.1601562,34.4453125 C29.3085938,34.4453125 30.6367188,35.546875 30.6835938,37.1875 L28.5820312,37.1875 C28.5117188,36.5078125 28.0039062,36.046875 27.1601562,36.046875 C26.3710938,36.046875 25.8476562,36.40625 25.8476562,36.9609375 C25.8476562,37.390625 26.1601562,37.6796875 27.0039062,37.859375 L28.4335938,38.1640625 C30.1835938,38.53125 30.9023438,39.21875 30.9023438,40.4453125 C30.9023438,42.09375 29.3945312,43.1796875 27.2382812,43.1796875 C24.9257812,43.1796875 23.5898438,42.1015625 23.4414062,40.453125 L25.6679688,40.453125 C25.8085938,41.1875 26.3320312,41.578125 27.2382812,41.578125 C28.0976562,41.578125 28.6289062,41.2265625 28.6289062,40.6796875 C28.6289062,40.234375 28.3398438,39.984375 27.5195312,39.796875 L26.0898438,39.5 C24.4726562,39.15625 23.6523438,38.34375 23.6523438,37.0859375 Z M32.0664062,43 L32.0664062,34.625 L34.3476562,34.625 L34.3476562,43 L32.0664062,43 Z M33.1992188,33.4921875 C32.5351562,33.4921875 32.0117188,32.9609375 32.0117188,32.3203125 C32.0117188,31.671875 32.5351562,31.1484375 33.1992188,31.1484375 C33.8632812,31.1484375 34.3867188,31.671875 34.3867188,32.3203125 C34.3867188,32.9609375 33.8632812,33.4921875 33.1992188,33.4921875 Z M35.8632812,43 L35.8632812,34.625 L38.0664062,34.625 L38.0664062,36.1171875 L38.1132812,36.1171875 C38.5585938,35.078125 39.4414062,34.46875 40.7304688,34.46875 C42.5898438,34.46875 43.6367188,35.640625 43.6367188,37.6015625 L43.6367188,43 L41.3554688,43 L41.3554688,38.078125 C41.3554688,36.984375 40.8398438,36.359375 39.8164062,36.359375 C38.7929688,36.359375 38.1445312,37.109375 38.1445312,38.1953125 L38.1445312,43 L35.8632812,43 Z M47.4492188,37.984375 L50.2929688,34.625 L52.8789062,34.625 L49.6835938,38.21875 L53.0351562,43 L50.4101562,43 L48.0117188,39.59375 L47.4179688,40.234375 L47.4179688,43 L45.1367188,43 L45.1367188,31.7265625 L47.4179688,31.7265625 L47.4179688,37.984375 L47.4492188,37.984375 Z" id="sink" fill="#FFFFFF"></path>
                </g>
                <g id="Sink-1" transform="translate(0.000000, 58.000000)">
                    <circle id="Oval-Copy-2" fill="#001B3D" cx="37.5" cy="37.5" r="37.5"></circle>
                    <path d="M23.6523438,38.0859375 C23.6523438,36.4921875 25.0273438,35.4453125 27.1601562,35.4453125 C29.3085938,35.4453125 30.6367188,36.546875 30.6835938,38.1875 L28.5820312,38.1875 C28.5117188,37.5078125 28.0039062,37.046875 27.1601562,37.046875 C26.3710938,37.046875 25.8476562,37.40625 25.8476562,37.9609375 C25.8476562,38.390625 26.1601562,38.6796875 27.0039062,38.859375 L28.4335938,39.1640625 C30.1835938,39.53125 30.9023438,40.21875 30.9023438,41.4453125 C30.9023438,43.09375 29.3945312,44.1796875 27.2382812,44.1796875 C24.9257812,44.1796875 23.5898438,43.1015625 23.4414062,41.453125 L25.6679688,41.453125 C25.8085938,42.1875 26.3320312,42.578125 27.2382812,42.578125 C28.0976562,42.578125 28.6289062,42.2265625 28.6289062,41.6796875 C28.6289062,41.234375 28.3398438,40.984375 27.5195312,40.796875 L26.0898438,40.5 C24.4726562,40.15625 23.6523438,39.34375 23.6523438,38.0859375 Z M32.0664062,44 L32.0664062,35.625 L34.3476562,35.625 L34.3476562,44 L32.0664062,44 Z M33.1992188,34.4921875 C32.5351562,34.4921875 32.0117188,33.9609375 32.0117188,33.3203125 C32.0117188,32.671875 32.5351562,32.1484375 33.1992188,32.1484375 C33.8632812,32.1484375 34.3867188,32.671875 34.3867188,33.3203125 C34.3867188,33.9609375 33.8632812,34.4921875 33.1992188,34.4921875 Z M35.8632812,44 L35.8632812,35.625 L38.0664062,35.625 L38.0664062,37.1171875 L38.1132812,37.1171875 C38.5585938,36.078125 39.4414062,35.46875 40.7304688,35.46875 C42.5898438,35.46875 43.6367188,36.640625 43.6367188,38.6015625 L43.6367188,44 L41.3554688,44 L41.3554688,39.078125 C41.3554688,37.984375 40.8398438,37.359375 39.8164062,37.359375 C38.7929688,37.359375 38.1445312,38.109375 38.1445312,39.1953125 L38.1445312,44 L35.8632812,44 Z M47.4492188,38.984375 L50.2929688,35.625 L52.8789062,35.625 L49.6835938,39.21875 L53.0351562,44 L50.4101562,44 L48.0117188,40.59375 L47.4179688,41.234375 L47.4179688,44 L45.1367188,44 L45.1367188,32.7265625 L47.4179688,32.7265625 L47.4179688,38.984375 L47.4492188,38.984375 Z" id="sink" fill="#FFFFFF"></path>
                </g>
                <path d="M16.154,15.382 C16.6380024,15.382 17.0376651,15.3416671 17.353,15.261 C17.6683349,15.1803329 17.9213324,15.070334 18.112,14.931 C18.3026676,14.791666 18.4346663,14.6266676 18.508,14.436 C18.5813337,14.2453324 18.618,14.0326678 18.618,13.798 C18.618,13.2993308 18.3833357,12.8850016 17.914,12.555 C17.4446643,12.2249983 16.6380057,11.8693352 15.494,11.488 C14.9953308,11.3119991 14.4966692,11.1103345 13.998,10.883 C13.4993308,10.6556655 13.052002,10.3696684 12.656,10.025 C12.259998,9.68033161 11.9373346,9.26233579 11.688,8.771 C11.4386654,8.27966421 11.314,7.68200352 11.314,6.978 C11.314,6.27399648 11.4459987,5.63966949 11.71,5.075 C11.9740013,4.51033051 12.3479976,4.03000198 12.832,3.634 C13.3160024,3.23799802 13.9026632,2.93366773 14.592,2.721 C15.2813368,2.50833227 16.0586623,2.402 16.924,2.402 C17.9506718,2.402 18.8379963,2.5119989 19.586,2.732 C20.3340037,2.9520011 20.9499976,3.19399868 21.434,3.458 L20.444,6.164 C20.0186645,5.9439989 19.5456693,5.74966751 19.025,5.581 C18.5043307,5.41233249 17.877337,5.328 17.144,5.328 C16.3226626,5.328 15.7323351,5.44166553 15.373,5.669 C15.0136649,5.89633447 14.834,6.24466432 14.834,6.714 C14.834,6.99266806 14.8999993,7.22733238 15.032,7.418 C15.1640007,7.60866762 15.3509988,7.78099923 15.593,7.935 C15.8350012,8.08900077 16.1136651,8.22833271 16.429,8.353 C16.7443349,8.47766729 17.0926648,8.60599934 17.474,8.738 C18.266004,9.0313348 18.9553304,9.32099857 19.542,9.607 C20.1286696,9.89300143 20.6163314,10.2266648 21.005,10.608 C21.3936686,10.9893352 21.6833324,11.4366641 21.874,11.95 C22.0646676,12.4633359 22.16,13.086663 22.16,13.82 C22.16,15.2426738 21.6613383,16.3463294 20.664,17.131 C19.6666617,17.9156706 18.1633434,18.308 16.154,18.308 C15.47933,18.308 14.8706694,18.2676671 14.328,18.187 C13.7853306,18.1063329 13.3050021,18.0073339 12.887,17.89 C12.4689979,17.7726661 12.1096682,17.6480007 11.809,17.516 C11.5083318,17.3839993 11.2553344,17.2593339 11.05,17.142 L12.018,14.414 C12.4726689,14.6633346 13.0336633,14.886999 13.701,15.085 C14.3683367,15.283001 15.1859952,15.382 16.154,15.382 Z M27.858,18 L24.58,18 L24.58,6.428 L27.858,6.428 L27.858,18 Z M28.166,3.084 C28.166,3.68533634 27.9716686,4.15833161 27.583,4.503 C27.1943314,4.84766839 26.7360026,5.02 26.208,5.02 C25.6799974,5.02 25.2216686,4.84766839 24.833,4.503 C24.4443314,4.15833161 24.25,3.68533634 24.25,3.084 C24.25,2.48266366 24.4443314,2.00966839 24.833,1.665 C25.2216686,1.32033161 25.6799974,1.148 26.208,1.148 C26.7360026,1.148 27.1943314,1.32033161 27.583,1.665 C27.9716686,2.00966839 28.166,2.48266366 28.166,3.084 Z M30.938,6.824 C31.4953361,6.66266586 32.2139956,6.51233403 33.094,6.373 C33.9740044,6.23366597 34.8979952,6.164 35.866,6.164 C36.8486716,6.164 37.6663301,6.29233205 38.319,6.549 C38.9716699,6.80566795 39.4886648,7.16866432 39.87,7.638 C40.2513352,8.10733568 40.5226659,8.66466344 40.684,9.31 C40.8453341,9.95533656 40.926,10.673996 40.926,11.466 L40.926,18 L37.648,18 L37.648,11.862 C37.648,10.8059947 37.5086681,10.0580022 37.23,9.618 C36.9513319,9.1779978 36.4306705,8.958 35.668,8.958 C35.4333322,8.958 35.1840013,8.96899989 34.92,8.991 C34.6559987,9.01300011 34.4213344,9.03866652 34.216,9.068 L34.216,18 L30.938,18 L30.938,6.824 Z M47.174,10.608 C47.4966683,10.2559982 47.8303316,9.88933524 48.175,9.508 C48.5196684,9.12666476 48.8533317,8.74900187 49.176,8.375 C49.4986683,8.00099813 49.8029986,7.64533502 50.089,7.308 C50.3750014,6.97066498 50.6206656,6.67733458 50.826,6.428 L54.72,6.428 C53.9426628,7.32267114 53.1836704,8.17699593 52.443,8.991 C51.7023296,9.80500407 50.8920044,10.6446623 50.012,11.51 C50.4520022,11.906002 50.9066643,12.3789972 51.376,12.929 C51.8453357,13.4790027 52.2999978,14.0473304 52.74,14.634 C53.1800022,15.2206696 53.5833315,15.8073304 53.95,16.394 C54.3166685,16.9806696 54.6246654,17.5159976 54.874,18 L51.112,18 C50.8773322,17.6186648 50.6096682,17.1970023 50.309,16.735 C50.0083318,16.2729977 49.689335,15.8110023 49.352,15.349 C49.014665,14.8869977 48.6590019,14.4433355 48.285,14.018 C47.9109981,13.5926645 47.5406685,13.2333348 47.174,12.94 L47.174,18 L43.896,18 L43.896,1.456 L47.174,0.928 L47.174,10.608 Z M59.956,15.646 C60.5573363,15.646 60.9826654,15.5873339 61.232,15.47 C61.4813346,15.3526661 61.606,15.125335 61.606,14.788 C61.606,14.5239987 61.4446683,14.293001 61.122,14.095 C60.7993317,13.896999 60.3080033,13.6733346 59.648,13.424 C59.1346641,13.2333324 58.6690021,13.0353344 58.251,12.83 C57.8329979,12.6246656 57.4773348,12.3790014 57.184,12.093 C56.8906652,11.8069986 56.6633341,11.466002 56.502,11.07 C56.3406659,10.673998 56.26,10.1973361 56.26,9.64 C56.26,8.55466124 56.6633293,7.69666982 57.47,7.066 C58.2766707,6.43533018 59.383993,6.12 60.792,6.12 C61.4960035,6.12 62.1706634,6.18233271 62.816,6.307 C63.4613366,6.43166729 63.9746648,6.5673326 64.356,6.714 L63.784,9.266 C63.4026648,9.13399934 62.9883356,9.01666718 62.541,8.914 C62.0936644,8.81133282 61.5913361,8.76 61.034,8.76 C60.0073282,8.76 59.494,9.04599714 59.494,9.618 C59.494,9.75000066 59.5159998,9.86733282 59.56,9.97 C59.6040002,10.0726672 59.6919993,10.1716662 59.824,10.267 C59.9560007,10.3623338 60.1356655,10.4649994 60.363,10.575 C60.5903345,10.6850005 60.8799982,10.8059993 61.232,10.938 C61.9506703,11.2020013 62.5446643,11.462332 63.014,11.719 C63.4833357,11.9756679 63.8536653,12.2543318 64.125,12.555 C64.3963347,12.8556682 64.5869995,13.1893315 64.697,13.556 C64.8070006,13.9226685 64.862,14.3479976 64.862,14.832 C64.862,15.9760057 64.4330043,16.8413304 63.575,17.428 C62.7169957,18.0146696 61.5033412,18.308 59.934,18.308 C58.9073282,18.308 58.0530034,18.2200009 57.371,18.044 C56.6889966,17.8679991 56.2160013,17.7213339 55.952,17.604 L56.502,14.942 C57.0593361,15.1620011 57.6313304,15.3343327 58.218,15.459 C58.8046696,15.5836673 59.3839971,15.646 59.956,15.646 Z" id="Shape" fill="#001B3D"></path>
            </g>
            <g id="Dividers" transform="translate(192.000000, 0.000000)" fill="#000000">
                <polygon id="Line-3" points="0 4 0 297.5 2 297.5 2 4"></polygon>
                <polygon id="Line-3" points="300 0 300 300 302 300 302 0"></polygon>
            </g>
            <g id="Sink-Arrows" transform="translate(466.000000, 101.000000)" fill="#001B3D">
                <path d="M122.274956,71.2259684 L120,71.2259684 L120,69.2259684 L122.274956,69.2259684 L122.274956,63.2259684 L136.274956,70.2259684 L122.274956,77.2259684 L122.274956,71.2259684 Z M0,71.2259684 L0,69.2259684 L7,69.2259684 L7,71.2259684 L0,71.2259684 Z M10,71.2259684 L10,69.2259684 L17,69.2259684 L17,71.2259684 L10,71.2259684 Z M20,71.2259684 L20,69.2259684 L27,69.2259684 L27,71.2259684 L20,71.2259684 Z M30,71.2259684 L30,69.2259684 L37,69.2259684 L37,71.2259684 L30,71.2259684 Z M40,71.2259684 L40,69.2259684 L47,69.2259684 L47,71.2259684 L40,71.2259684 Z M50,71.2259684 L50,69.2259684 L57,69.2259684 L57,71.2259684 L50,71.2259684 Z M60,71.2259684 L60,69.2259684 L67,69.2259684 L67,71.2259684 L60,71.2259684 Z M70,71.2259684 L70,69.2259684 L77,69.2259684 L77,71.2259684 L70,71.2259684 Z M80,71.2259684 L80,69.2259684 L87,69.2259684 L87,71.2259684 L80,71.2259684 Z M90,71.2259684 L90,69.2259684 L97,69.2259684 L97,71.2259684 L90,71.2259684 Z M100,71.2259684 L100,69.2259684 L107,69.2259684 L107,71.2259684 L100,71.2259684 Z M110,71.2259684 L110,69.2259684 L117,69.2259684 L117,71.2259684 L110,71.2259684 Z" id="Line-2"></path>
                <path d="M53,130.225968 L39,137.225968 L39,123.225968 L53,130.225968 Z M-2.22044605e-16,131.225968 L-2.22044605e-16,129.225968 L7,129.225968 L7,131.225968 L-2.22044605e-16,131.225968 Z M10,131.225968 L10,129.225968 L17,129.225968 L17,131.225968 L10,131.225968 Z M20,131.225968 L20,129.225968 L27,129.225968 L27,131.225968 L20,131.225968 Z M30,131.225968 L30,129.225968 L37,129.225968 L37,131.225968 L30,131.225968 Z" id="Line-2"></path>
                <path d="M53,7.5 L39,14.5 L39,0.5 L53,7.5 Z M0,8.5 L0,6.5 L14,6.5 L14,8.5 L0,8.5 Z M24,8.5 L24,6.5 L38,6.5 L38,8.5 L24,8.5 Z" id="Line-2"></path>
            </g>
            <g id="Transforms" transform="translate(223.721371, 9.000000)">
                <g id="Aggregate" transform="translate(29.278629, 204.000000)">
                    <polygon id="Fill-74" fill="#001B3D" points="1.13686838e-13 43.0202204 99.9238736 59.9540001 199.84544 43.0202204 99.9238736 26.0846919"></polygon>
                    <polygon id="Fill-79" fill="#001B3D" points="0.206736663 43.0174706 1.13686838e-13 17.4237163 99.7120786 0.476190476 199.84544 17.5940651 199.516959 42.9577539 99.7120786 59.9540001"></polygon>
                    <polygon id="Fill-75" fill="#001B3D" points="5.68434189e-14 17.823885 5.68434189e-14 43.1880044 97.3605992 59.9540001 97.3605992 34.8063684"></polygon>
                    <polygon id="Fill-76" fill="#001B3D" points="100.776761 34.6757847 199.84544 17.823885 199.36429 43.1020671 100.776761 59.9540001"></polygon>
                    <polygon id="Fill-77" fill="#001B3D" points="100.776761 0.476190476 199.84544 17.437889 199.364396 42.6063057 100.981171 25.8281337"></polygon>
                    <polygon id="Fill-78" fill="#001B3D" points="1.13686838e-13 17.2204794 1.13686838e-13 42.6063057 99.0686799 25.8051804 98.8616119 0.476190476"></polygon>
                    <polygon id="Fill-74-Copy" fill-opacity="0.33241368" fill="#FFFFFF" points="1.70530257e-13 17.3059347 99.9238736 34.2397144 199.84544 17.3059347 99.9238736 0.370406148"></polygon>
                </g>
                <g id="Sample" transform="translate(29.278629, 138.000000)">
                    <polygon id="Fill-74" fill="#10E7FF" points="1.13686838e-13 51.6242645 99.9238736 71.9448002 199.84544 51.6242645 99.9238736 31.3016302"></polygon>
                    <polygon id="Fill-79" fill="#10E7FF" points="0.206736663 51.6209648 1.13686838e-13 20.9084596 99.7120786 0.571428571 199.84544 21.1128781 199.516959 51.5493047 99.7120786 71.9448002"></polygon>
                    <polygon id="Fill-75" fill="#10E7FF" points="5.68434189e-14 21.388662 5.68434189e-14 51.8256053 97.3605992 71.9448002 97.3605992 41.7676421"></polygon>
                    <polygon id="Fill-76" fill="#10E7FF" points="100.776761 41.6109417 199.84544 21.388662 199.36429 51.7224806 100.776761 71.9448002"></polygon>
                    <polygon id="Fill-77" fill="#10E7FF" points="100.776761 0.571428571 199.84544 20.9254668 199.364396 51.1275668 100.981171 30.9937605"></polygon>
                    <polygon id="Fill-78" fill="#10E7FF" points="1.13686838e-13 20.6645753 1.13686838e-13 51.1275668 99.0686799 30.9662165 98.8616119 0.571428571"></polygon>
                    <polygon id="Fill-74-Copy" fill-opacity="0.33241368" fill="#FFFFFF" points="1.70530257e-13 20.7671217 99.9238736 41.0876573 199.84544 20.7671217 99.9238736 0.444487378"></polygon>
                </g>
                <g id="Parse" transform="translate(29.278629, 74.000000)">
                    <polygon id="Fill-74" fill="#001B3D" points="1.13686838e-13 52.4612587 99.9238736 72.9443586 199.84544 52.4612587 99.9238736 31.9760433"></polygon>
                    <polygon id="Fill-79" fill="#001B3D" points="0.206736663 52.4579325 1.13686838e-13 21.4997273 99.7120786 1 199.84544 21.7057811 199.516959 52.3856991 99.7120786 72.9443586"></polygon>
                    <polygon id="Fill-75" fill="#001B3D" points="5.68434189e-14 21.9837713 5.68434189e-14 52.6642102 97.3605992 72.9443586 97.3605992 42.5257832"></polygon>
                    <polygon id="Fill-76" fill="#001B3D" points="100.776761 42.3678292 199.84544 21.9837713 199.36429 52.5602604 100.776761 72.9443586"></polygon>
                    <polygon id="Fill-77" fill="#001B3D" points="100.776761 1 199.84544 21.5168705 199.364396 51.9605873 100.981171 31.6657106"></polygon>
                    <polygon id="Fill-78" fill="#001B3D" points="1.13686838e-13 21.2538919 1.13686838e-13 51.9605873 99.0686799 31.6379463 98.8616119 1"></polygon>
                    <polygon id="Fill-74-Copy" fill-opacity="0.33241368" fill="#FFFFFF" points="1.70530257e-13 21.3572587 99.9238736 41.8403586 199.84544 21.3572587 99.9238736 0.872043277"></polygon>
                </g>
                <path d="M14.379204,161.590782 C10.7929992,155.128919 9,147.926538 9,140 C9,127.153085 13.3775094,116.876139 22.1211537,109.246524 L22.8746297,108.589049 L24.1895806,110.096 L23.4361047,110.753476 C15.1415768,117.991197 11,127.714251 11,140 C11,147.470383 12.6548675,154.239403 15.964406,160.322645 L20.4991214,156.694941 L23.7786292,172 L9.56687739,165.440571 L14.379204,161.590782 Z" id="Line" fill="url(#linearGradient-1)"></path>
                <path d="M14.3141739,225.644231 C4.76775209,211.063968 0,193.174861 0,172 C0,145.12301 7.34863133,124.202725 22.0670751,109.297369 L22.7697064,108.585815 L24.1928146,109.991077 L23.4901833,110.702631 C9.17045481,125.204209 2,145.617256 2,172 C2,192.72483 6.63088086,210.179546 15.8818472,224.386978 L20.4804629,220.698951 L23.7786292,236 L9.55889027,229.457904 L14.3141739,225.644231 Z" id="Line" fill="#001B3D"></path>
                <path d="M82.7326292,2.754 L82.7326292,5.68 L78.1346292,5.68 L78.1346292,18 L74.7026292,18 L74.7026292,5.68 L70.1046292,5.68 L70.1046292,2.754 L82.7326292,2.754 Z M90.1686292,9.332 C89.8752944,9.2586663 89.5306312,9.18166707 89.1346292,9.101 C88.7386272,9.02033293 88.3132982,8.98 87.8586292,8.98 C87.6532949,8.98 87.4076306,8.99833315 87.1216292,9.035 C86.8356278,9.07166685 86.6192966,9.11199978 86.4726292,9.156 L86.4726292,18 L83.1946292,18 L83.1946292,7.044 C83.7812988,6.83866564 84.4742919,6.64433425 85.2736292,6.461 C86.0729665,6.27766575 86.9639576,6.186 87.9466292,6.186 C88.1226301,6.186 88.3352946,6.19699989 88.5846292,6.219 C88.8339638,6.24100011 89.0832946,6.27033315 89.3326292,6.307 C89.5819638,6.34366685 89.8312946,6.38766641 90.0806292,6.439 C90.3299638,6.49033359 90.5426283,6.5526663 90.7186292,6.626 L90.1686292,9.332 Z M96.6806292,15.712 C97.0032975,15.712 97.3112944,15.7046667 97.6046292,15.69 C97.897964,15.6753333 98.1326283,15.6533335 98.3086292,15.624 L98.3086292,13.138 C98.1766286,13.1086665 97.9786305,13.0793335 97.7146292,13.05 C97.4506279,13.0206665 97.2086303,13.006 96.9886292,13.006 C96.6806277,13.006 96.3909639,13.0243331 96.1196292,13.061 C95.8482945,13.0976668 95.6099636,13.1673328 95.4046292,13.27 C95.1992949,13.3726672 95.0379631,13.5119991 94.9206292,13.688 C94.8032953,13.8640009 94.7446292,14.0839987 94.7446292,14.348 C94.7446292,14.8613359 94.9169608,15.216999 95.2616292,15.415 C95.6062976,15.613001 96.0792929,15.712 96.6806292,15.712 Z M96.4166292,6.12 C97.3846341,6.12 98.1912927,6.2299989 98.8366292,6.45 C99.4819658,6.6700011 99.9989606,6.98533128 100.387629,7.396 C100.776298,7.80666872 101.051295,8.3053304 101.212629,8.892 C101.373963,9.4786696 101.454629,10.1313297 101.454629,10.85 L101.454629,17.67 C100.985293,17.7726672 100.332633,17.893666 99.4966292,18.033 C98.660625,18.172334 97.6486352,18.242 96.4606292,18.242 C95.7126255,18.242 95.0342989,18.1760007 94.4256292,18.044 C93.8169595,17.9119993 93.2926314,17.6956682 92.8526292,17.395 C92.412627,17.0943318 92.0752971,16.7020024 91.8406292,16.218 C91.6059614,15.7339976 91.4886292,15.1400035 91.4886292,14.436 C91.4886292,13.76133 91.6242945,13.1893357 91.8956292,12.72 C92.1669639,12.2506643 92.5299603,11.8766681 92.9846292,11.598 C93.4392982,11.3193319 93.9599596,11.1176673 94.5466292,10.993 C95.1332988,10.8683327 95.7419594,10.806 96.3726292,10.806 C96.7979647,10.806 97.1756276,10.8243331 97.5056292,10.861 C97.8356309,10.8976668 98.1032949,10.945333 98.3086292,11.004 L98.3086292,10.696 C98.3086292,10.1386639 98.1399642,9.69133502 97.8026292,9.354 C97.4652942,9.01666498 96.8786334,8.848 96.0426292,8.848 C95.4852931,8.848 94.9352986,8.88833293 94.3926292,8.969 C93.8499598,9.04966707 93.3806312,9.1633326 92.9846292,9.31 L92.5666292,6.67 C92.7572968,6.61133304 92.9956278,6.54900033 93.2816292,6.483 C93.5676306,6.41699967 93.8792942,6.35833359 94.2166292,6.307 C94.5539642,6.25566641 94.9096273,6.21166685 95.2836292,6.175 C95.6576311,6.13833315 96.035294,6.12 96.4166292,6.12 Z M104.424629,6.824 C104.981965,6.66266586 105.700625,6.51233403 106.580629,6.373 C107.460634,6.23366597 108.384624,6.164 109.352629,6.164 C110.335301,6.164 111.152959,6.29233205 111.805629,6.549 C112.458299,6.80566795 112.975294,7.16866432 113.356629,7.638 C113.737964,8.10733568 114.009295,8.66466344 114.170629,9.31 C114.331963,9.95533656 114.412629,10.673996 114.412629,11.466 L114.412629,18 L111.134629,18 L111.134629,11.862 C111.134629,10.8059947 110.995297,10.0580022 110.716629,9.618 C110.437961,9.1779978 109.9173,8.958 109.154629,8.958 C108.919961,8.958 108.670631,8.96899989 108.406629,8.991 C108.142628,9.01300011 107.907964,9.03866652 107.702629,9.068 L107.702629,18 L104.424629,18 L104.424629,6.824 Z M120.704629,15.646 C121.305966,15.646 121.731295,15.5873339 121.980629,15.47 C122.229964,15.3526661 122.354629,15.125335 122.354629,14.788 C122.354629,14.5239987 122.193297,14.293001 121.870629,14.095 C121.547961,13.896999 121.056633,13.6733346 120.396629,13.424 C119.883293,13.2333324 119.417631,13.0353344 118.999629,12.83 C118.581627,12.6246656 118.225964,12.3790014 117.932629,12.093 C117.639294,11.8069986 117.411963,11.466002 117.250629,11.07 C117.089295,10.673998 117.008629,10.1973361 117.008629,9.64 C117.008629,8.55466124 117.411959,7.69666982 118.218629,7.066 C119.0253,6.43533018 120.132622,6.12 121.540629,6.12 C122.244633,6.12 122.919293,6.18233271 123.564629,6.307 C124.209966,6.43166729 124.723294,6.5673326 125.104629,6.714 L124.532629,9.266 C124.151294,9.13399934 123.736965,9.01666718 123.289629,8.914 C122.842294,8.81133282 122.339965,8.76 121.782629,8.76 C120.755957,8.76 120.242629,9.04599714 120.242629,9.618 C120.242629,9.75000066 120.264629,9.86733282 120.308629,9.97 C120.352629,10.0726672 120.440629,10.1716662 120.572629,10.267 C120.70463,10.3623338 120.884295,10.4649994 121.111629,10.575 C121.338964,10.6850005 121.628627,10.8059993 121.980629,10.938 C122.699299,11.2020013 123.293294,11.462332 123.762629,11.719 C124.231965,11.9756679 124.602295,12.2543318 124.873629,12.555 C125.144964,12.8556682 125.335629,13.1893315 125.445629,13.556 C125.55563,13.9226685 125.610629,14.3479976 125.610629,14.832 C125.610629,15.9760057 125.181634,16.8413304 124.323629,17.428 C123.465625,18.0146696 122.25197,18.308 120.682629,18.308 C119.655957,18.308 118.801633,18.2200009 118.119629,18.044 C117.437626,17.8679991 116.964631,17.7213339 116.700629,17.604 L117.250629,14.942 C117.807965,15.1620011 118.37996,15.3343327 118.966629,15.459 C119.553299,15.5836673 120.132626,15.646 120.704629,15.646 Z M133.068629,0.928 C133.684632,0.928 134.249293,0.99033271 134.762629,1.115 C135.275965,1.23966729 135.671961,1.36066608 135.950629,1.478 L135.312629,4.096 C135.019294,3.96399934 134.700298,3.86500033 134.355629,3.799 C134.010961,3.73299967 133.691964,3.7 133.398629,3.7 C133.002627,3.7 132.668964,3.75499945 132.397629,3.865 C132.126295,3.97500055 131.91363,4.12533238 131.759629,4.316 C131.605628,4.50666762 131.49563,4.73399868 131.429629,4.998 C131.363629,5.26200132 131.330629,5.54799846 131.330629,5.856 L131.330629,6.428 L135.378629,6.428 L135.378629,9.156 L131.330629,9.156 L131.330629,18 L128.052629,18 L128.052629,5.812 C128.052629,4.31599252 128.474292,3.1280044 129.317629,2.248 C130.160967,1.3679956 131.411288,0.928 133.068629,0.928 Z M147.984629,12.192 C147.984629,13.1013379 147.852631,13.9336629 147.588629,14.689 C147.324628,15.4443371 146.943298,16.089664 146.444629,16.625 C145.94596,17.160336 145.348299,17.5746652 144.651629,17.868 C143.954959,18.1613348 143.173967,18.308 142.308629,18.308 C141.457958,18.308 140.684299,18.1613348 139.987629,17.868 C139.290959,17.5746652 138.693298,17.160336 138.194629,16.625 C137.69596,16.089664 137.307297,15.4443371 137.028629,14.689 C136.749961,13.9336629 136.610629,13.1013379 136.610629,12.192 C136.610629,11.2826621 136.753628,10.4540037 137.039629,9.706 C137.325631,8.95799626 137.721627,8.32000264 138.227629,7.792 C138.733632,7.26399736 139.334959,6.8533348 140.031629,6.56 C140.728299,6.2666652 141.487292,6.12 142.308629,6.12 C143.144633,6.12 143.910959,6.2666652 144.607629,6.56 C145.304299,6.8533348 145.90196,7.26399736 146.400629,7.792 C146.899298,8.32000264 147.287961,8.95799626 147.566629,9.706 C147.845297,10.4540037 147.984629,11.2826621 147.984629,12.192 Z M144.640629,12.192 C144.640629,11.1799949 144.438965,10.3843362 144.035629,9.805 C143.632294,9.22566377 143.056633,8.936 142.308629,8.936 C141.560625,8.936 140.981298,9.22566377 140.570629,9.805 C140.15996,10.3843362 139.954629,11.1799949 139.954629,12.192 C139.954629,13.2040051 140.15996,14.006997 140.570629,14.601 C140.981298,15.195003 141.560625,15.492 142.308629,15.492 C143.056633,15.492 143.632294,15.195003 144.035629,14.601 C144.438965,14.006997 144.640629,13.2040051 144.640629,12.192 Z M157.488629,9.332 C157.195294,9.2586663 156.850631,9.18166707 156.454629,9.101 C156.058627,9.02033293 155.633298,8.98 155.178629,8.98 C154.973295,8.98 154.727631,8.99833315 154.441629,9.035 C154.155628,9.07166685 153.939297,9.11199978 153.792629,9.156 L153.792629,18 L150.514629,18 L150.514629,7.044 C151.101299,6.83866564 151.794292,6.64433425 152.593629,6.461 C153.392967,6.27766575 154.283958,6.186 155.266629,6.186 C155.44263,6.186 155.655295,6.19699989 155.904629,6.219 C156.153964,6.24100011 156.403295,6.27033315 156.652629,6.307 C156.901964,6.34366685 157.151295,6.38766641 157.400629,6.439 C157.649964,6.49033359 157.862628,6.5526663 158.038629,6.626 L157.488629,9.332 Z M166.156629,11.862 C166.156629,10.8059947 166.020964,10.0580022 165.749629,9.618 C165.478295,9.1779978 165.012633,8.958 164.352629,8.958 C164.147295,8.958 163.93463,8.96899989 163.714629,8.991 C163.494628,9.01300011 163.281964,9.03866652 163.076629,9.068 L163.076629,18 L159.798629,18 L159.798629,6.824 C160.077297,6.7506663 160.403627,6.67366707 160.777629,6.593 C161.151631,6.51233293 161.547627,6.43900033 161.965629,6.373 C162.383631,6.30699967 162.812627,6.25566685 163.252629,6.219 C163.692631,6.18233315 164.125294,6.164 164.550629,6.164 C165.386633,6.164 166.06496,6.27033227 166.585629,6.483 C167.106298,6.69566773 167.535294,6.9486652 167.872629,7.242 C168.341965,6.90466498 168.88096,6.64066762 169.489629,6.45 C170.098299,6.25933238 170.659293,6.164 171.172629,6.164 C172.096634,6.164 172.855626,6.29233205 173.449629,6.549 C174.043632,6.80566795 174.516627,7.16866432 174.868629,7.638 C175.220631,8.10733568 175.462629,8.66466344 175.594629,9.31 C175.72663,9.95533656 175.792629,10.673996 175.792629,11.466 L175.792629,18 L172.514629,18 L172.514629,11.862 C172.514629,10.8059947 172.378964,10.0580022 172.107629,9.618 C171.836295,9.1779978 171.370633,8.958 170.710629,8.958 C170.534628,8.958 170.288964,9.00199956 169.973629,9.09 C169.658294,9.17800044 169.397964,9.28799934 169.192629,9.42 C169.295296,9.75733502 169.361296,10.1129981 169.390629,10.487 C169.419963,10.8610019 169.434629,11.2606645 169.434629,11.686 L169.434629,18 L166.156629,18 L166.156629,11.862 Z M182.084629,15.646 C182.685966,15.646 183.111295,15.5873339 183.360629,15.47 C183.609964,15.3526661 183.734629,15.125335 183.734629,14.788 C183.734629,14.5239987 183.573297,14.293001 183.250629,14.095 C182.927961,13.896999 182.436633,13.6733346 181.776629,13.424 C181.263293,13.2333324 180.797631,13.0353344 180.379629,12.83 C179.961627,12.6246656 179.605964,12.3790014 179.312629,12.093 C179.019294,11.8069986 178.791963,11.466002 178.630629,11.07 C178.469295,10.673998 178.388629,10.1973361 178.388629,9.64 C178.388629,8.55466124 178.791959,7.69666982 179.598629,7.066 C180.4053,6.43533018 181.512622,6.12 182.920629,6.12 C183.624633,6.12 184.299293,6.18233271 184.944629,6.307 C185.589966,6.43166729 186.103294,6.5673326 186.484629,6.714 L185.912629,9.266 C185.531294,9.13399934 185.116965,9.01666718 184.669629,8.914 C184.222294,8.81133282 183.719965,8.76 183.162629,8.76 C182.135957,8.76 181.622629,9.04599714 181.622629,9.618 C181.622629,9.75000066 181.644629,9.86733282 181.688629,9.97 C181.732629,10.0726672 181.820629,10.1716662 181.952629,10.267 C182.08463,10.3623338 182.264295,10.4649994 182.491629,10.575 C182.718964,10.6850005 183.008627,10.8059993 183.360629,10.938 C184.079299,11.2020013 184.673294,11.462332 185.142629,11.719 C185.611965,11.9756679 185.982295,12.2543318 186.253629,12.555 C186.524964,12.8556682 186.715629,13.1893315 186.825629,13.556 C186.93563,13.9226685 186.990629,14.3479976 186.990629,14.832 C186.990629,15.9760057 186.561634,16.8413304 185.703629,17.428 C184.845625,18.0146696 183.63197,18.308 182.062629,18.308 C181.035957,18.308 180.181633,18.2200009 179.499629,18.044 C178.817626,17.8679991 178.344631,17.7213339 178.080629,17.604 L178.630629,14.942 C179.187965,15.1620011 179.75996,15.3343327 180.346629,15.459 C180.933299,15.5836673 181.512626,15.646 182.084629,15.646 Z" id="Shape" fill="#001B3D"></path>
            </g>
            <g id="Group-16" transform="translate(333.000000, 42.000000)">
                <g id="Group-15" transform="translate(8.337072, 0.000000)">
                    <polygon id="Triangle" fill="#001B3D" transform="translate(18.869266, 17.145933) scale(-1, 1) rotate(-180.000000) translate(-18.869266, -17.145933) " points="18.8692664 4.5504058 33.9838989 29.74146 3.75463383 29.74146"></polygon>
                    <polygon id="Triangle" fill="#FFFFFF" transform="translate(15.289485, 12.664577) scale(-1, 1) rotate(-180.000000) translate(-15.289485, -12.664577) " points="15.289485 0.0690497 30.4041175 25.260104 0.174852433 25.260104"></polygon>
                </g>
                <g id="Symbol" transform="translate(0.000000, 2.967034)">
                    <polygon id="Triangle" fill="#001B3D" transform="translate(15.035082, 14.112607) scale(-1, 1) rotate(-180.000000) translate(-15.035082, -14.112607) " points="15.0350819 1.5833725 30.0701637 26.6418422 0 26.6418422"></polygon>
                    <g id="Mask" transform="translate(15.000000, 7.360696) scale(-1, 1) rotate(-180.000000) translate(-15.000000, -7.360696) translate(7.000000, 0.860696)" fill="#FFFFFF">
                        <polygon id="path-2" points="8.1888799 0.0265168992 15.8734773 12.8341792 0.50428248 12.8341792"></polygon>
                    </g>
                </g>
            </g>
            <g id="Source-Arrows" transform="translate(84.500000, 97.638384)">
                <polygon id="Line-4" fill="#001B3D" points="135.231475 9.3572192 81.0095209 9.87104747 80.9905689 7.87113727 135.212523 7.357309 135.155668 1.35757839 149.221371 8.22460063 135.288331 15.3569498"></polygon>
                <path d="M134.966167,9.03233353 C110.504376,9.65531525 92.3526989,19.2782408 80.3993935,37.9305268 C76.5373258,43.9570097 74.1363463,47.7121723 72.3695633,50.482819 C72.0373237,51.0039276 72.0373237,51.0039276 71.845901,51.3041043 C71.7729377,51.4184094 71.7729377,51.4184094 71.7273462,51.4895749 C71.7014243,51.531451 71.7014243,51.531451 71.6187869,51.6451529 C71.6087059,51.6573233 71.6087059,51.6573233 71.5458669,51.724737 L71.4168931,51.8314804 L71.3240426,51.815818 C70.2165116,53.4355163 68.2669548,56.3450975 65.3331136,60.764216 C54.470948,77.1254278 33.2128344,81.4282409 1.76524928,73.833672 L0.79319368,73.5989213 L1.26269511,71.6548101 L2.23475072,71.8895608 C32.9549174,79.3084586 53.3634704,75.1776035 63.6668864,59.6580122 C67.4557398,53.9510256 69.6069973,50.7554536 70.4415074,49.5778706 C70.6285185,49.313978 70.7507489,49.1490819 70.8325537,49.0526347 C70.8749631,49.002864 70.8749631,49.002864 70.9579373,48.9220972 C70.9882688,48.8946364 71.0038335,48.8805448 71.03146,48.861551 C72.7650181,46.144249 75.1004443,42.4924437 78.7155003,36.8514049 C91.0615288,17.5863024 109.879043,7.63580874 135.055643,7.02951322 L135.326364,0.96973198 L149,8.58758485 L134.701536,14.9557818 L134.966167,9.03233353 Z" id="Line-5" fill="url(#linearGradient-2)"></path>
                <path d="M134.986475,9.19575249 C114.502722,10.1578022 98.5785493,16.5231292 87.1610844,28.2781533 C73.2435841,42.6071267 65.6740952,64.9688315 64.4992556,95.4001939 L64.4606781,96.3994495 L62.4621669,96.3222945 L62.5007444,95.3230389 C63.6930285,64.4398177 71.419375,41.6147256 85.7264219,26.8846887 C97.5447403,14.7169599 113.991893,8.15738243 135.014686,7.19229272 L135.099945,1.13737509 L149,8.3337957 L134.90283,15.1359874 L134.986475,9.19575249 Z" id="Line-6" fill="#001B3D"></path>
            </g>
            <g id="Sources" transform="translate(0.000000, 11.000000)">
                <g id="Source-2" transform="translate(0.000000, 122.000000)">
                    <circle id="Oval-Copy-2" fill="#001B3D" cx="37.5" cy="37.5" r="37.5"></circle>
                    <path d="M13.71875,36.0859375 C13.71875,34.4921875 15.09375,33.4453125 17.2265625,33.4453125 C19.375,33.4453125 20.703125,34.546875 20.75,36.1875 L18.6484375,36.1875 C18.578125,35.5078125 18.0703125,35.046875 17.2265625,35.046875 C16.4375,35.046875 15.9140625,35.40625 15.9140625,35.9609375 C15.9140625,36.390625 16.2265625,36.6796875 17.0703125,36.859375 L18.5,37.1640625 C20.25,37.53125 20.96875,38.21875 20.96875,39.4453125 C20.96875,41.09375 19.4609375,42.1796875 17.3046875,42.1796875 C14.9921875,42.1796875 13.65625,41.1015625 13.5078125,39.453125 L15.734375,39.453125 C15.875,40.1875 16.3984375,40.578125 17.3046875,40.578125 C18.1640625,40.578125 18.6953125,40.2265625 18.6953125,39.6796875 C18.6953125,39.234375 18.40625,38.984375 17.5859375,38.796875 L16.15625,38.5 C14.5390625,38.15625 13.71875,37.34375 13.71875,36.0859375 Z M25.9375,42.1796875 C23.40625,42.1796875 21.7890625,40.5546875 21.7890625,37.8046875 C21.7890625,35.09375 23.4296875,33.4453125 25.9375,33.4453125 C28.4453125,33.4453125 30.0859375,35.0859375 30.0859375,37.8046875 C30.0859375,40.5625 28.46875,42.1796875 25.9375,42.1796875 Z M25.9375,40.4375 C27.0546875,40.4375 27.765625,39.4921875 27.765625,37.8125 C27.765625,36.1484375 27.046875,35.1875 25.9375,35.1875 C24.828125,35.1875 24.1015625,36.1484375 24.1015625,37.8125 C24.1015625,39.4921875 24.8125,40.4375 25.9375,40.4375 Z M38.9921875,33.625 L38.9921875,42 L36.7890625,42 L36.7890625,40.4921875 L36.7421875,40.4921875 C36.328125,41.546875 35.5,42.15625 34.234375,42.15625 C32.421875,42.15625 31.21875,40.9765625 31.21875,39.0234375 L31.21875,33.625 L33.5,33.625 L33.5,38.546875 C33.5,39.6640625 34.0546875,40.2578125 35.0625,40.2578125 C36.078125,40.2578125 36.7109375,39.53125 36.7109375,38.421875 L36.7109375,33.625 L38.9921875,33.625 Z M40.4765625,42 L40.4765625,33.625 L42.6796875,33.625 L42.6796875,35.1328125 L42.7265625,35.1328125 C43.0234375,34.0703125 43.734375,33.4921875 44.71875,33.4921875 C44.984375,33.4921875 45.2109375,33.53125 45.3671875,33.578125 L45.3671875,35.5859375 C45.1796875,35.5078125 44.8671875,35.453125 44.5390625,35.453125 C43.4140625,35.453125 42.7578125,36.140625 42.7578125,37.3203125 L42.7578125,42 L40.4765625,42 Z M53.6328125,36.7421875 L51.515625,36.7421875 C51.3828125,35.859375 50.796875,35.234375 49.859375,35.234375 C48.734375,35.234375 48.03125,36.1875 48.03125,37.8046875 C48.03125,39.453125 48.734375,40.390625 49.8671875,40.390625 C50.78125,40.390625 51.375,39.84375 51.515625,38.9296875 L53.640625,38.9296875 C53.5234375,40.90625 52.046875,42.1796875 49.84375,42.1796875 C47.3203125,42.1796875 45.71875,40.5390625 45.71875,37.8046875 C45.71875,35.1171875 47.3203125,33.4453125 49.828125,33.4453125 C52.09375,33.4453125 53.53125,34.84375 53.6328125,36.7421875 Z M58.5,35.1328125 C57.5,35.1328125 56.78125,35.890625 56.703125,36.9375 L60.2578125,36.9375 C60.2109375,35.8671875 59.515625,35.1328125 58.5,35.1328125 Z M60.2890625,39.4375 L62.3828125,39.4375 C62.1328125,41.078125 60.6328125,42.1796875 58.5625,42.1796875 C55.984375,42.1796875 54.4375,40.53125 54.4375,37.8515625 C54.4375,35.1796875 56,33.4453125 58.4765625,33.4453125 C60.9140625,33.4453125 62.453125,35.09375 62.453125,37.640625 L62.453125,38.3359375 L56.6796875,38.3359375 L56.6796875,38.4765625 C56.6796875,39.671875 57.4375,40.4921875 58.6015625,40.4921875 C59.4375,40.4921875 60.078125,40.078125 60.2890625,39.4375 Z" id="source" fill="#FFFFFF"></path>
                </g>
                <g id="Source-3" transform="translate(82.000000, 182.000000)">
                    <circle id="Oval-Copy-2" fill="#001B3D" cx="37.5" cy="37.5" r="37.5"></circle>
                    <path d="M13.71875,36.0859375 C13.71875,34.4921875 15.09375,33.4453125 17.2265625,33.4453125 C19.375,33.4453125 20.703125,34.546875 20.75,36.1875 L18.6484375,36.1875 C18.578125,35.5078125 18.0703125,35.046875 17.2265625,35.046875 C16.4375,35.046875 15.9140625,35.40625 15.9140625,35.9609375 C15.9140625,36.390625 16.2265625,36.6796875 17.0703125,36.859375 L18.5,37.1640625 C20.25,37.53125 20.96875,38.21875 20.96875,39.4453125 C20.96875,41.09375 19.4609375,42.1796875 17.3046875,42.1796875 C14.9921875,42.1796875 13.65625,41.1015625 13.5078125,39.453125 L15.734375,39.453125 C15.875,40.1875 16.3984375,40.578125 17.3046875,40.578125 C18.1640625,40.578125 18.6953125,40.2265625 18.6953125,39.6796875 C18.6953125,39.234375 18.40625,38.984375 17.5859375,38.796875 L16.15625,38.5 C14.5390625,38.15625 13.71875,37.34375 13.71875,36.0859375 Z M25.9375,42.1796875 C23.40625,42.1796875 21.7890625,40.5546875 21.7890625,37.8046875 C21.7890625,35.09375 23.4296875,33.4453125 25.9375,33.4453125 C28.4453125,33.4453125 30.0859375,35.0859375 30.0859375,37.8046875 C30.0859375,40.5625 28.46875,42.1796875 25.9375,42.1796875 Z M25.9375,40.4375 C27.0546875,40.4375 27.765625,39.4921875 27.765625,37.8125 C27.765625,36.1484375 27.046875,35.1875 25.9375,35.1875 C24.828125,35.1875 24.1015625,36.1484375 24.1015625,37.8125 C24.1015625,39.4921875 24.8125,40.4375 25.9375,40.4375 Z M38.9921875,33.625 L38.9921875,42 L36.7890625,42 L36.7890625,40.4921875 L36.7421875,40.4921875 C36.328125,41.546875 35.5,42.15625 34.234375,42.15625 C32.421875,42.15625 31.21875,40.9765625 31.21875,39.0234375 L31.21875,33.625 L33.5,33.625 L33.5,38.546875 C33.5,39.6640625 34.0546875,40.2578125 35.0625,40.2578125 C36.078125,40.2578125 36.7109375,39.53125 36.7109375,38.421875 L36.7109375,33.625 L38.9921875,33.625 Z M40.4765625,42 L40.4765625,33.625 L42.6796875,33.625 L42.6796875,35.1328125 L42.7265625,35.1328125 C43.0234375,34.0703125 43.734375,33.4921875 44.71875,33.4921875 C44.984375,33.4921875 45.2109375,33.53125 45.3671875,33.578125 L45.3671875,35.5859375 C45.1796875,35.5078125 44.8671875,35.453125 44.5390625,35.453125 C43.4140625,35.453125 42.7578125,36.140625 42.7578125,37.3203125 L42.7578125,42 L40.4765625,42 Z M53.6328125,36.7421875 L51.515625,36.7421875 C51.3828125,35.859375 50.796875,35.234375 49.859375,35.234375 C48.734375,35.234375 48.03125,36.1875 48.03125,37.8046875 C48.03125,39.453125 48.734375,40.390625 49.8671875,40.390625 C50.78125,40.390625 51.375,39.84375 51.515625,38.9296875 L53.640625,38.9296875 C53.5234375,40.90625 52.046875,42.1796875 49.84375,42.1796875 C47.3203125,42.1796875 45.71875,40.5390625 45.71875,37.8046875 C45.71875,35.1171875 47.3203125,33.4453125 49.828125,33.4453125 C52.09375,33.4453125 53.53125,34.84375 53.6328125,36.7421875 Z M58.5,35.1328125 C57.5,35.1328125 56.78125,35.890625 56.703125,36.9375 L60.2578125,36.9375 C60.2109375,35.8671875 59.515625,35.1328125 58.5,35.1328125 Z M60.2890625,39.4375 L62.3828125,39.4375 C62.1328125,41.078125 60.6328125,42.1796875 58.5625,42.1796875 C55.984375,42.1796875 54.4375,40.53125 54.4375,37.8515625 C54.4375,35.1796875 56,33.4453125 58.4765625,33.4453125 C60.9140625,33.4453125 62.453125,35.09375 62.453125,37.640625 L62.453125,38.3359375 L56.6796875,38.3359375 L56.6796875,38.4765625 C56.6796875,39.671875 57.4375,40.4921875 58.6015625,40.4921875 C59.4375,40.4921875 60.078125,40.078125 60.2890625,39.4375 Z" id="source" fill="#FFFFFF"></path>
                </g>
                <g id="Source-1" transform="translate(82.000000, 56.000000)">
                    <circle id="Oval-Copy-2" fill="#001B3D" cx="37.5" cy="37.5" r="37.5"></circle>
                    <path d="M13.71875,35.0859375 C13.71875,33.4921875 15.09375,32.4453125 17.2265625,32.4453125 C19.375,32.4453125 20.703125,33.546875 20.75,35.1875 L18.6484375,35.1875 C18.578125,34.5078125 18.0703125,34.046875 17.2265625,34.046875 C16.4375,34.046875 15.9140625,34.40625 15.9140625,34.9609375 C15.9140625,35.390625 16.2265625,35.6796875 17.0703125,35.859375 L18.5,36.1640625 C20.25,36.53125 20.96875,37.21875 20.96875,38.4453125 C20.96875,40.09375 19.4609375,41.1796875 17.3046875,41.1796875 C14.9921875,41.1796875 13.65625,40.1015625 13.5078125,38.453125 L15.734375,38.453125 C15.875,39.1875 16.3984375,39.578125 17.3046875,39.578125 C18.1640625,39.578125 18.6953125,39.2265625 18.6953125,38.6796875 C18.6953125,38.234375 18.40625,37.984375 17.5859375,37.796875 L16.15625,37.5 C14.5390625,37.15625 13.71875,36.34375 13.71875,35.0859375 Z M25.9375,41.1796875 C23.40625,41.1796875 21.7890625,39.5546875 21.7890625,36.8046875 C21.7890625,34.09375 23.4296875,32.4453125 25.9375,32.4453125 C28.4453125,32.4453125 30.0859375,34.0859375 30.0859375,36.8046875 C30.0859375,39.5625 28.46875,41.1796875 25.9375,41.1796875 Z M25.9375,39.4375 C27.0546875,39.4375 27.765625,38.4921875 27.765625,36.8125 C27.765625,35.1484375 27.046875,34.1875 25.9375,34.1875 C24.828125,34.1875 24.1015625,35.1484375 24.1015625,36.8125 C24.1015625,38.4921875 24.8125,39.4375 25.9375,39.4375 Z M38.9921875,32.625 L38.9921875,41 L36.7890625,41 L36.7890625,39.4921875 L36.7421875,39.4921875 C36.328125,40.546875 35.5,41.15625 34.234375,41.15625 C32.421875,41.15625 31.21875,39.9765625 31.21875,38.0234375 L31.21875,32.625 L33.5,32.625 L33.5,37.546875 C33.5,38.6640625 34.0546875,39.2578125 35.0625,39.2578125 C36.078125,39.2578125 36.7109375,38.53125 36.7109375,37.421875 L36.7109375,32.625 L38.9921875,32.625 Z M40.4765625,41 L40.4765625,32.625 L42.6796875,32.625 L42.6796875,34.1328125 L42.7265625,34.1328125 C43.0234375,33.0703125 43.734375,32.4921875 44.71875,32.4921875 C44.984375,32.4921875 45.2109375,32.53125 45.3671875,32.578125 L45.3671875,34.5859375 C45.1796875,34.5078125 44.8671875,34.453125 44.5390625,34.453125 C43.4140625,34.453125 42.7578125,35.140625 42.7578125,36.3203125 L42.7578125,41 L40.4765625,41 Z M53.6328125,35.7421875 L51.515625,35.7421875 C51.3828125,34.859375 50.796875,34.234375 49.859375,34.234375 C48.734375,34.234375 48.03125,35.1875 48.03125,36.8046875 C48.03125,38.453125 48.734375,39.390625 49.8671875,39.390625 C50.78125,39.390625 51.375,38.84375 51.515625,37.9296875 L53.640625,37.9296875 C53.5234375,39.90625 52.046875,41.1796875 49.84375,41.1796875 C47.3203125,41.1796875 45.71875,39.5390625 45.71875,36.8046875 C45.71875,34.1171875 47.3203125,32.4453125 49.828125,32.4453125 C52.09375,32.4453125 53.53125,33.84375 53.6328125,35.7421875 Z M58.5,34.1328125 C57.5,34.1328125 56.78125,34.890625 56.703125,35.9375 L60.2578125,35.9375 C60.2109375,34.8671875 59.515625,34.1328125 58.5,34.1328125 Z M60.2890625,38.4375 L62.3828125,38.4375 C62.1328125,40.078125 60.6328125,41.1796875 58.5625,41.1796875 C55.984375,41.1796875 54.4375,39.53125 54.4375,36.8515625 C54.4375,34.1796875 56,32.4453125 58.4765625,32.4453125 C60.9140625,32.4453125 62.453125,34.09375 62.453125,36.640625 L62.453125,37.3359375 L56.6796875,37.3359375 L56.6796875,37.4765625 C56.6796875,38.671875 57.4375,39.4921875 58.6015625,39.4921875 C59.4375,39.4921875 60.078125,39.078125 60.2890625,38.4375 Z" id="source-copy" fill="#FFFFFF"></path>
                </g>
                <path d="M73.344,13.382 C73.8280024,13.382 74.2276651,13.3416671 74.543,13.261 C74.8583349,13.1803329 75.1113324,13.070334 75.302,12.931 C75.4926676,12.791666 75.6246663,12.6266676 75.698,12.436 C75.7713337,12.2453324 75.808,12.0326678 75.808,11.798 C75.808,11.2993308 75.5733357,10.8850017 75.104,10.555 C74.6346643,10.2249984 73.8280057,9.86933524 72.684,9.488 C72.1853308,9.31199912 71.6866692,9.11033447 71.188,8.883 C70.6893308,8.65566553 70.242002,8.36966839 69.846,8.025 C69.449998,7.68033161 69.1273346,7.26233579 68.878,6.771 C68.6286654,6.27966421 68.504,5.68200352 68.504,4.978 C68.504,4.27399648 68.6359987,3.63966949 68.9,3.075 C69.1640013,2.51033051 69.5379976,2.03000198 70.022,1.634 C70.5060024,1.23799802 71.0926632,0.93366773 71.782,0.721 C72.4713368,0.50833227 73.2486623,0.402 74.114,0.402 C75.1406718,0.402 76.0279963,0.5119989 76.776,0.732 C77.5240037,0.9520011 78.1399976,1.19399868 78.624,1.458 L77.634,4.164 C77.2086645,3.9439989 76.7356693,3.74966751 76.215,3.581 C75.6943307,3.41233249 75.067337,3.328 74.334,3.328 C73.5126626,3.328 72.9223351,3.44166553 72.563,3.669 C72.2036649,3.89633447 72.024,4.24466432 72.024,4.714 C72.024,4.99266806 72.0899993,5.22733238 72.222,5.418 C72.3540007,5.60866762 72.5409988,5.78099923 72.783,5.935 C73.0250012,6.08900077 73.3036651,6.22833271 73.619,6.353 C73.9343349,6.47766729 74.2826648,6.60599934 74.664,6.738 C75.456004,7.0313348 76.1453304,7.32099857 76.732,7.607 C77.3186696,7.89300143 77.8063314,8.22666476 78.195,8.608 C78.5836686,8.98933524 78.8733324,9.4366641 79.064,9.95 C79.2546676,10.4633359 79.35,11.086663 79.35,11.82 C79.35,13.2426738 78.8513383,14.3463294 77.854,15.131 C76.8566617,15.9156706 75.3533434,16.308 73.344,16.308 C72.66933,16.308 72.0606694,16.2676671 71.518,16.187 C70.9753306,16.1063329 70.4950021,16.0073339 70.077,15.89 C69.6589979,15.7726661 69.2996682,15.6480007 68.999,15.516 C68.6983318,15.3839993 68.4453344,15.2593339 68.24,15.142 L69.208,12.414 C69.6626689,12.6633346 70.2236633,12.886999 70.891,13.085 C71.5583367,13.283001 72.3759952,13.382 73.344,13.382 Z M92.594,10.192 C92.594,11.1013379 92.4620013,11.9336629 92.198,12.689 C91.9339987,13.4443371 91.5526692,14.089664 91.054,14.625 C90.5553308,15.160336 89.9576702,15.5746652 89.261,15.868 C88.5643299,16.1613348 87.7833377,16.308 86.918,16.308 C86.0673291,16.308 85.2936701,16.1613348 84.597,15.868 C83.9003298,15.5746652 83.3026692,15.160336 82.804,14.625 C82.3053308,14.089664 81.9166681,13.4443371 81.638,12.689 C81.3593319,11.9336629 81.22,11.1013379 81.22,10.192 C81.22,9.28266212 81.3629986,8.45400374 81.649,7.706 C81.9350014,6.95799626 82.3309975,6.32000264 82.837,5.792 C83.3430025,5.26399736 83.9443299,4.8533348 84.641,4.56 C85.3376702,4.2666652 86.0966626,4.12 86.918,4.12 C87.7540042,4.12 88.5203298,4.2666652 89.217,4.56 C89.9136702,4.8533348 90.5113308,5.26399736 91.01,5.792 C91.5086692,6.32000264 91.8973319,6.95799626 92.176,7.706 C92.4546681,8.45400374 92.594,9.28266212 92.594,10.192 Z M89.25,10.192 C89.25,9.17999494 89.0483354,8.38433623 88.645,7.805 C88.2416646,7.22566377 87.6660037,6.936 86.918,6.936 C86.1699963,6.936 85.5906687,7.22566377 85.18,7.805 C84.7693313,8.38433623 84.564,9.17999494 84.564,10.192 C84.564,11.2040051 84.7693313,12.006997 85.18,12.601 C85.5906687,13.195003 86.1699963,13.492 86.918,13.492 C87.6660037,13.492 88.2416646,13.195003 88.645,12.601 C89.0483354,12.006997 89.25,11.2040051 89.25,10.192 Z M105.002,15.604 C104.444664,15.7653341 103.726004,15.915666 102.846,16.055 C101.965996,16.194334 101.042005,16.264 100.074,16.264 C99.0913284,16.264 98.2736699,16.1320013 97.621,15.868 C96.9683301,15.6039987 96.4513352,15.2336691 96.07,14.757 C95.6886648,14.280331 95.4173341,13.7120033 95.256,13.052 C95.0946659,12.3919967 95.014,11.666004 95.014,10.874 L95.014,4.428 L98.292,4.428 L98.292,10.478 C98.292,11.5340053 98.4313319,12.2966643 98.71,12.766 C98.9886681,13.2353357 99.5093295,13.47 100.272,13.47 C100.506668,13.47 100.755999,13.4590001 101.02,13.437 C101.284001,13.4149999 101.518666,13.3893335 101.724,13.36 L101.724,4.428 L105.002,4.428 L105.002,15.604 Z M115.056,7.332 C114.762665,7.2586663 114.418002,7.18166707 114.022,7.101 C113.625998,7.02033293 113.200669,6.98 112.746,6.98 C112.540666,6.98 112.295001,6.99833315 112.009,7.035 C111.722999,7.07166685 111.506667,7.11199978 111.36,7.156 L111.36,16 L108.082,16 L108.082,5.044 C108.66867,4.83866564 109.361663,4.64433425 110.161,4.461 C110.960337,4.27766575 111.851328,4.186 112.834,4.186 C113.010001,4.186 113.222665,4.19699989 113.472,4.219 C113.721335,4.24100011 113.970665,4.27033315 114.22,4.307 C114.469335,4.34366685 114.718665,4.38766641 114.968,4.439 C115.217335,4.49033359 115.429999,4.5526663 115.606,4.626 L115.056,7.332 Z M116.596,10.214 C116.596,9.37799582 116.731665,8.58967037 117.003,7.849 C117.274335,7.10832963 117.666664,6.46300275 118.18,5.913 C118.693336,5.36299725 119.316663,4.92666828 120.05,4.604 C120.783337,4.28133172 121.619329,4.12 122.558,4.12 C123.174003,4.12 123.738664,4.17499945 124.252,4.285 C124.765336,4.39500055 125.263998,4.55266564 125.748,4.758 L125.066,7.376 C124.757998,7.25866608 124.420669,7.15600044 124.054,7.068 C123.687331,6.97999956 123.276669,6.936 122.822,6.936 C121.853995,6.936 121.131669,7.23666366 120.655,7.838 C120.178331,8.43933634 119.94,9.23132842 119.94,10.214 C119.94,11.2553385 120.163664,12.0619971 120.611,12.634 C121.058336,13.2060029 121.839328,13.492 122.954,13.492 C123.350002,13.492 123.775331,13.4553337 124.23,13.382 C124.684669,13.3086663 125.102665,13.1913341 125.484,13.03 L125.946,15.714 C125.564665,15.8753341 125.088003,16.0146661 124.516,16.132 C123.943997,16.2493339 123.313337,16.308 122.624,16.308 C121.567995,16.308 120.65867,16.1503349 119.896,15.835 C119.13333,15.5196651 118.506336,15.0906694 118.015,14.548 C117.523664,14.0053306 117.164334,13.3636704 116.937,12.623 C116.709666,11.8823296 116.596,11.0793377 116.596,10.214 Z M127.046,10.302 C127.046,9.2753282 127.203665,8.37700385 127.519,7.607 C127.834335,6.83699615 128.248664,6.1953359 128.762,5.682 C129.275336,5.1686641 129.865663,4.78000132 130.533,4.516 C131.200337,4.25199868 131.885996,4.12 132.59,4.12 C134.232675,4.12 135.530662,4.62232831 136.484,5.627 C137.437338,6.63167169 137.914,8.10932358 137.914,10.06 C137.914,10.2506676 137.906667,10.4596655 137.892,10.687 C137.877333,10.9143345 137.862667,11.1159991 137.848,11.292 L130.412,11.292 C130.485334,11.96667 130.800664,12.501998 131.358,12.898 C131.915336,13.294002 132.663329,13.492 133.602,13.492 C134.203336,13.492 134.793664,13.4370006 135.373,13.327 C135.952336,13.2169995 136.425331,13.0813341 136.792,12.92 L137.232,15.582 C137.055999,15.6700004 136.821335,15.7579996 136.528,15.846 C136.234665,15.9340004 135.908335,16.0109997 135.549,16.077 C135.189665,16.1430003 134.804669,16.1979998 134.394,16.242 C133.983331,16.2860002 133.572669,16.308 133.162,16.308 C132.120661,16.308 131.215004,16.1540015 130.445,15.846 C129.674996,15.5379985 129.037003,15.116336 128.531,14.581 C128.024997,14.045664 127.651001,13.411337 127.409,12.678 C127.166999,11.944663 127.046,11.1526709 127.046,10.302 Z M134.746,9.048 C134.731333,8.76933194 134.683667,8.49800132 134.603,8.234 C134.522333,7.96999868 134.397668,7.73533436 134.229,7.53 C134.060332,7.32466564 133.847668,7.15600066 133.591,7.024 C133.334332,6.89199934 133.015335,6.826 132.634,6.826 C132.267332,6.826 131.952001,6.88833271 131.688,7.013 C131.423999,7.13766729 131.204001,7.30266564 131.028,7.508 C130.851999,7.71333436 130.716334,7.95166531 130.621,8.223 C130.525666,8.49433469 130.456,8.76933194 130.412,9.048 L134.746,9.048 Z M143.766,13.646 C144.367336,13.646 144.792665,13.5873339 145.042,13.47 C145.291335,13.3526661 145.416,13.125335 145.416,12.788 C145.416,12.5239987 145.254668,12.293001 144.932,12.095 C144.609332,11.896999 144.118003,11.6733346 143.458,11.424 C142.944664,11.2333324 142.479002,11.0353344 142.061,10.83 C141.642998,10.6246656 141.287335,10.3790014 140.994,10.093 C140.700665,9.80699857 140.473334,9.46600198 140.312,9.07 C140.150666,8.67399802 140.07,8.19733612 140.07,7.64 C140.07,6.55466124 140.473329,5.69666982 141.28,5.066 C142.086671,4.43533018 143.193993,4.12 144.602,4.12 C145.306004,4.12 145.980663,4.18233271 146.626,4.307 C147.271337,4.43166729 147.784665,4.5673326 148.166,4.714 L147.594,7.266 C147.212665,7.13399934 146.798336,7.01666718 146.351,6.914 C145.903664,6.81133282 145.401336,6.76 144.844,6.76 C143.817328,6.76 143.304,7.04599714 143.304,7.618 C143.304,7.75000066 143.326,7.86733282 143.37,7.97 C143.414,8.07266718 143.501999,8.17166619 143.634,8.267 C143.766001,8.36233381 143.945666,8.46499945 144.173,8.575 C144.400334,8.68500055 144.689998,8.80599934 145.042,8.938 C145.76067,9.20200132 146.354664,9.46233205 146.824,9.719 C147.293336,9.97566795 147.663665,10.2543318 147.935,10.555 C148.206335,10.8556682 148.396999,11.1893315 148.507,11.556 C148.617001,11.9226685 148.672,12.3479976 148.672,12.832 C148.672,13.9760057 148.243004,14.8413304 147.385,15.428 C146.526996,16.0146696 145.313341,16.308 143.744,16.308 C142.717328,16.308 141.863003,16.2200009 141.181,16.044 C140.498997,15.8679991 140.026001,15.7213339 139.762,15.604 L140.312,12.942 C140.869336,13.1620011 141.44133,13.3343327 142.028,13.459 C142.61467,13.5836673 143.193997,13.646 143.766,13.646 Z" id="Shape" fill="#001B3D"></path>
            </g>
        </g>
        <g id="RemoveTagsTransform" fill-rule="nonzero">
            <use fill="#000000" xlink:href="#path-3"></use>
            <use fill="#001B3D" xlink:href="#path-3"></use>
        </g>
    </g>
</svg>