<?xml version="1.0" encoding="UTF-8"?>
<svg width="538px" height="237px" viewBox="0 0 538 237" version="1.1" xmlns="http://www.w3.org/2000/svg" xmlns:xlink="http://www.w3.org/1999/xlink">
    <!-- Generator: Sketch 54.1 (76490) - https://sketchapp.com -->
    <title>Group 2</title>
    <desc>Created with Sketch.</desc>
    <g id="Buffers-&amp;-Batching-(partitioned)" stroke="none" stroke-width="1" fill="none" fill-rule="evenodd">
        <g id="Group-2">
            <path d="M108.326996,29.526616 L108.326996,35.8003802 L108.326996,36.6368821 L110,36.6368821 L110,35.8003802 L110,29.526616 L110,28.6901141 L108.326996,28.6901141 L108.326996,29.526616 Z M108.326996,42.0741445 L108.326996,48.3479087 L108.326996,49.1844106 L110,49.1844106 L110,48.3479087 L110,42.0741445 L110,41.2376426 L108.326996,41.2376426 L108.326996,42.0741445 Z M108.326996,54.621673 L108.326996,60.8954373 L108.326996,61.7319392 L110,61.7319392 L110,60.8954373 L110,54.621673 L110,53.7851711 L108.326996,53.7851711 L108.326996,54.621673 Z M108.326996,67.1692015 L108.326996,73.4429658 L108.326996,74.2794677 L110,74.2794677 L110,73.4429658 L110,67.1692015 L110,66.3326996 L108.326996,66.3326996 L108.326996,67.1692015 Z M108.326996,79.71673 L108.326996,85.9904943 L108.326996,86.8269962 L110,86.8269962 L110,85.9904943 L110,79.71673 L110,78.8802281 L108.326996,78.8802281 L108.326996,79.71673 Z M108.326996,92.2642586 L108.326996,98.5380228 L108.326996,99.3745247 L110,99.3745247 L110,98.5380228 L110,92.2642586 L110,91.4277567 L108.326996,91.4277567 L108.326996,92.2642586 Z M108.326996,104.811787 L108.326996,111.085551 L108.326996,111.922053 L110,111.922053 L110,111.085551 L110,104.811787 L110,103.975285 L108.326996,103.975285 L108.326996,104.811787 Z M108.326996,117.359316 L108.326996,123.63308 L108.326996,124.469582 L110,124.469582 L110,123.63308 L110,117.359316 L110,116.522814 L108.326996,116.522814 L108.326996,117.359316 Z M108.326996,129.906844 L108.326996,136.180608 L108.326996,137.01711 L110,137.01711 L110,136.180608 L110,129.906844 L110,129.070342 L108.326996,129.070342 L108.326996,129.906844 Z M108.326996,142.454373 L108.326996,148.728137 L108.326996,149.564639 L110,149.564639 L110,148.728137 L110,142.454373 L110,141.617871 L108.326996,141.617871 L108.326996,142.454373 Z M108.326996,155.001901 L108.326996,161.275665 L108.326996,162.112167 L110,162.112167 L110,161.275665 L110,155.001901 L110,154.165399 L108.326996,154.165399 L108.326996,155.001901 Z M108.326996,167.54943 L108.326996,173.823194 L108.326996,174.659696 L110,174.659696 L110,173.823194 L110,167.54943 L110,166.712928 L108.326996,166.712928 L108.326996,167.54943 Z M108.326996,180.096958 L108.326996,186.370722 L108.326996,187.207224 L110,187.207224 L110,186.370722 L110,180.096958 L110,179.260456 L108.326996,179.260456 L108.326996,180.096958 Z M108.326996,192.644487 L108.326996,198.918251 L108.326996,199.754753 L110,199.754753 L110,198.918251 L110,192.644487 L110,191.807985 L108.326996,191.807985 L108.326996,192.644487 Z M108.326996,205.192015 L108.326996,211.465779 L108.326996,212.302281 L110,212.302281 L110,211.465779 L110,205.192015 L110,204.355513 L108.326996,204.355513 L108.326996,205.192015 Z" id="Line-2" fill="#E1E6EA" fill-rule="nonzero"></path>
            <path d="M438.326996,32.0361217 L438.326996,38.3098859 L438.326996,39.1463878 L440,39.1463878 L440,38.3098859 L440,32.0361217 L440,31.1996198 L438.326996,31.1996198 L438.326996,32.0361217 Z M438.326996,44.5836502 L438.326996,50.8574144 L438.326996,51.6939163 L440,51.6939163 L440,50.8574144 L440,44.5836502 L440,43.7471483 L438.326996,43.7471483 L438.326996,44.5836502 Z M438.326996,57.1311787 L438.326996,63.404943 L438.326996,64.2414449 L440,64.2414449 L440,63.404943 L440,57.1311787 L440,56.2946768 L438.326996,56.2946768 L438.326996,57.1311787 Z M438.326996,69.6787072 L438.326996,75.9524715 L438.326996,76.7889734 L440,76.7889734 L440,75.9524715 L440,69.6787072 L440,68.8422053 L438.326996,68.8422053 L438.326996,69.6787072 Z M438.326996,82.2262357 L438.326996,88.5 L438.326996,89.3365019 L440,89.3365019 L440,88.5 L440,82.2262357 L440,81.3897338 L438.326996,81.3897338 L438.326996,82.2262357 Z M438.326996,94.7737643 L438.326996,101.047529 L438.326996,101.88403 L440,101.88403 L440,101.047529 L440,94.7737643 L440,93.9372624 L438.326996,93.9372624 L438.326996,94.7737643 Z M438.326996,107.321293 L438.326996,113.595057 L438.326996,114.431559 L440,114.431559 L440,113.595057 L440,107.321293 L440,106.484791 L438.326996,106.484791 L438.326996,107.321293 Z M438.326996,119.868821 L438.326996,126.142586 L438.326996,126.979087 L440,126.979087 L440,126.142586 L440,119.868821 L440,119.032319 L438.326996,119.032319 L438.326996,119.868821 Z M438.326996,132.41635 L438.326996,138.690114 L438.326996,139.526616 L440,139.526616 L440,138.690114 L440,132.41635 L440,131.579848 L438.326996,131.579848 L438.326996,132.41635 Z M438.326996,144.963878 L438.326996,151.237643 L438.326996,152.074144 L440,152.074144 L440,151.237643 L440,144.963878 L440,144.127376 L438.326996,144.127376 L438.326996,144.963878 Z M438.326996,157.511407 L438.326996,163.785171 L438.326996,164.621673 L440,164.621673 L440,163.785171 L440,157.511407 L440,156.674905 L438.326996,156.674905 L438.326996,157.511407 Z M438.326996,170.058935 L438.326996,176.3327 L438.326996,177.169202 L440,177.169202 L440,176.3327 L440,170.058935 L440,169.222433 L438.326996,169.222433 L438.326996,170.058935 Z M438.326996,182.606464 L438.326996,188.880228 L438.326996,189.71673 L440,189.71673 L440,188.880228 L440,182.606464 L440,181.769962 L438.326996,181.769962 L438.326996,182.606464 Z M438.326996,195.153992 L438.326996,201.427757 L438.326996,202.264259 L440,202.264259 L440,201.427757 L440,195.153992 L440,194.31749 L438.326996,194.31749 L438.326996,195.153992 Z M438.326996,207.701521 L438.326996,213.975285 L438.326996,214.811787 L440,214.811787 L440,213.975285 L440,207.701521 L440,206.865019 L438.326996,206.865019 L438.326996,207.701521 Z" id="Line-2" fill="#E1E6EA" fill-rule="nonzero"></path>
            <g id="Incoming-events" transform="translate(0.000000, 113.804183)" fill="#001B3D">
                <circle id="Oval" cx="70.0570342" cy="7.31939163" r="7.31939163"></circle>
                <circle id="Oval" cx="90.9695817" cy="7.31939163" r="7.31939163"></circle>
                <circle id="Oval" cx="49.1444867" cy="7.31939163" r="7.31939163"></circle>
                <circle id="Oval" cx="28.2319392" cy="7.31939163" r="7.31939163"></circle>
                <circle id="Oval" cx="7.31939163" cy="7.31939163" r="7.31939163"></circle>
                <polygon id="Line-7" fill-rule="nonzero" points="121.920152 8.57414449 7.52851711 8.57414449 7.52851711 6.06463878 121.920152 6.06463878 121.920152 0.209125475 136.140684 7.31939163 121.920152 14.4296578"></polygon>
                <path d="M29.9218333,102.692734 C29.9218333,102.13662 30.0072353,101.650028 30.1780417,101.232942 C30.3488481,100.815857 30.5732764,100.468291 30.8513333,100.190234 C31.1293903,99.9121772 31.449151,99.7016515 31.810625,99.5586508 C32.172099,99.4156501 32.5434981,99.3441508 32.9248333,99.3441508 C33.8146156,99.3441508 34.5176919,99.6162453 35.0340833,100.160442 C35.5504748,100.70464 35.8086667,101.505034 35.8086667,102.561651 C35.8086667,102.664929 35.8046945,102.778136 35.79675,102.901276 C35.7888055,103.024415 35.7808612,103.13365 35.7729167,103.228984 L31.7450833,103.228984 C31.7848058,103.59443 31.9556096,103.8844 32.2575,104.098901 C32.5593904,104.313402 32.964553,104.420651 33.473,104.420651 C33.7987239,104.420651 34.1184845,104.390859 34.4322917,104.331276 C34.7460988,104.271692 35.0023046,104.198207 35.2009167,104.110817 L35.43925,105.552734 C35.3439162,105.600401 35.2168063,105.648067 35.0579167,105.695734 C34.899027,105.743401 34.7222649,105.785109 34.527625,105.820859 C34.3329851,105.856609 34.1244456,105.886401 33.902,105.910234 C33.6795544,105.934068 33.4571122,105.945984 33.2346667,105.945984 C32.6706083,105.945984 32.1800438,105.862568 31.7629583,105.695734 C31.3458729,105.5289 31.000293,105.300499 30.7262083,105.010526 C30.4521236,104.720552 30.2495423,104.376958 30.1184583,103.979734 C29.9873743,103.58251 29.9218333,103.153514 29.9218333,102.692734 Z M34.0926667,102.013484 C34.0847222,101.862539 34.058903,101.715568 34.0152083,101.572567 C33.9715137,101.429567 33.9039866,101.302457 33.812625,101.191234 C33.7212634,101.080011 33.6060701,100.988651 33.4670417,100.917151 C33.3280132,100.84565 33.1552233,100.809901 32.9486667,100.809901 C32.7500546,100.809901 32.5792507,100.843664 32.43625,100.911192 C32.2932493,100.978721 32.1740838,101.068095 32.07875,101.179317 C31.9834162,101.29054 31.9099308,101.419636 31.8582917,101.566609 C31.8066525,101.713582 31.7689168,101.862539 31.7450833,102.013484 L34.0926667,102.013484 Z M38.8831667,105.779151 C38.477998,104.984702 38.0668771,104.055212 37.6497917,102.990651 C37.2327062,101.92609 36.8374741,100.766213 36.4640833,99.5109842 L38.3469167,99.5109842 C38.4263615,99.820819 38.5197078,100.156468 38.6269583,100.517942 C38.7342089,100.879417 38.84543,101.244857 38.960625,101.614276 C39.07582,101.983694 39.1910133,102.343177 39.3062083,102.692734 C39.4214034,103.042291 39.5346106,103.360066 39.6458333,103.646067 C39.7491116,103.360066 39.8603327,103.042291 39.9795,102.692734 C40.0986673,102.343177 40.2158466,101.983694 40.3310417,101.614276 C40.4462367,101.244857 40.5574578,100.879417 40.6647083,100.517942 C40.7719589,100.156468 40.8653052,99.820819 40.94475,99.5109842 L42.7799167,99.5109842 C42.4065259,100.766213 42.0112938,101.92609 41.5942083,102.990651 C41.1771229,104.055212 40.766002,104.984702 40.3608333,105.779151 L38.8831667,105.779151 Z M43.2685,102.692734 C43.2685,102.13662 43.3539019,101.650028 43.5247083,101.232942 C43.6955147,100.815857 43.9199431,100.468291 44.198,100.190234 C44.4760569,99.9121772 44.7958176,99.7016515 45.1572917,99.5586508 C45.5187657,99.4156501 45.8901648,99.3441508 46.2715,99.3441508 C47.1612822,99.3441508 47.8643585,99.6162453 48.38075,100.160442 C48.8971415,100.70464 49.1553333,101.505034 49.1553333,102.561651 C49.1553333,102.664929 49.1513612,102.778136 49.1434167,102.901276 C49.1354722,103.024415 49.1275278,103.13365 49.1195833,103.228984 L45.09175,103.228984 C45.1314724,103.59443 45.3022763,103.8844 45.6041667,104.098901 C45.9060571,104.313402 46.3112197,104.420651 46.8196667,104.420651 C47.1453905,104.420651 47.4651512,104.390859 47.7789583,104.331276 C48.0927655,104.271692 48.3489712,104.198207 48.5475833,104.110817 L48.7859167,105.552734 C48.6905829,105.600401 48.563473,105.648067 48.4045833,105.695734 C48.2456937,105.743401 48.0689315,105.785109 47.8742917,105.820859 C47.6796518,105.856609 47.4711122,105.886401 47.2486667,105.910234 C47.0262211,105.934068 46.8037789,105.945984 46.5813333,105.945984 C46.017275,105.945984 45.5267104,105.862568 45.109625,105.695734 C44.6925396,105.5289 44.3469597,105.300499 44.072875,105.010526 C43.7987903,104.720552 43.596209,104.376958 43.465125,103.979734 C43.334041,103.58251 43.2685,103.153514 43.2685,102.692734 Z M47.4393333,102.013484 C47.4313888,101.862539 47.4055697,101.715568 47.361875,101.572567 C47.3181803,101.429567 47.2506532,101.302457 47.1592917,101.191234 C47.0679301,101.080011 46.9527368,100.988651 46.8137083,100.917151 C46.6746799,100.84565 46.5018899,100.809901 46.2953333,100.809901 C46.0967212,100.809901 45.9259174,100.843664 45.7829167,100.911192 C45.639916,100.978721 45.5207505,101.068095 45.4254167,101.179317 C45.3300829,101.29054 45.2565975,101.419636 45.2049583,101.566609 C45.1533192,101.713582 45.1155835,101.862539 45.09175,102.013484 L47.4393333,102.013484 Z M50.52575,99.7254842 C50.8276404,99.6380948 51.2169143,99.5566651 51.6935833,99.4811925 C52.1702524,99.4057199 52.6707474,99.3679842 53.1950833,99.3679842 C53.7273638,99.3679842 54.1702621,99.4374974 54.5237917,99.5765258 C54.8773212,99.7155543 55.1573601,99.9121773 55.3639167,100.166401 C55.5704733,100.420624 55.717444,100.72251 55.8048333,101.072067 C55.8922227,101.421625 55.9359167,101.810899 55.9359167,102.239901 L55.9359167,105.779151 L54.1603333,105.779151 L54.1603333,102.454401 C54.1603333,101.882398 54.0848619,101.477235 53.9339167,101.238901 C53.7829715,101.000566 53.5009465,100.881401 53.0878333,100.881401 C52.9607216,100.881401 52.8256674,100.887359 52.6826667,100.899276 C52.539666,100.911193 52.4125561,100.925095 52.3013333,100.940984 L52.3013333,105.779151 L50.52575,105.779151 L50.52575,99.7254842 Z M57.4850833,97.9499008 L59.2606667,97.6639008 L59.2606667,99.5109842 L61.39375,99.5109842 L61.39375,100.988651 L59.2606667,100.988651 L59.2606667,103.193234 C59.2606667,103.566625 59.3262077,103.864539 59.4572917,104.086984 C59.5883757,104.30943 59.8525258,104.420651 60.24975,104.420651 C60.4404176,104.420651 60.6370407,104.402776 60.839625,104.367026 C61.0422093,104.331276 61.2269158,104.281623 61.39375,104.218067 L61.644,105.600401 C61.4294989,105.68779 61.191168,105.763262 60.929,105.826817 C60.666832,105.890373 60.3450852,105.922151 59.96375,105.922151 C59.4791365,105.922151 59.077946,105.85661 58.7601667,105.725526 C58.4423873,105.594442 58.1881676,105.411721 57.9975,105.177359 C57.8068324,104.942997 57.6737643,104.658986 57.5982917,104.325317 C57.5228191,103.991649 57.4850833,103.622234 57.4850833,103.217067 L57.4850833,97.9499008 Z M64.6350833,104.504067 C64.9608072,104.504067 65.1911938,104.47229 65.32625,104.408734 C65.4613062,104.345178 65.5288333,104.222041 65.5288333,104.039317 C65.5288333,103.896317 65.4414453,103.771193 65.2666667,103.663942 C65.091888,103.556692 64.8257518,103.43554 64.46825,103.300484 C64.1901931,103.197206 63.9379595,103.089957 63.7115417,102.978734 C63.4851239,102.867511 63.292473,102.734443 63.1335833,102.579526 C62.9746936,102.424608 62.851556,102.239902 62.7641667,102.025401 C62.6767773,101.8109 62.6330833,101.552708 62.6330833,101.250817 C62.6330833,100.662926 62.8515534,100.19818 63.2885,99.8565675 C63.7254466,99.5149547 64.3252462,99.3441508 65.0879167,99.3441508 C65.4692519,99.3441508 65.8346927,99.3779144 66.18425,99.4454425 C66.5338073,99.5129706 66.8118601,99.586456 67.0184167,99.6659008 L66.7085833,101.048234 C66.5020267,100.976734 66.2775984,100.913179 66.0352917,100.857567 C65.7929849,100.801956 65.5208904,100.774151 65.219,100.774151 C64.6628861,100.774151 64.3848333,100.929066 64.3848333,101.238901 C64.3848333,101.310401 64.3967499,101.373956 64.4205833,101.429567 C64.4444168,101.485179 64.492083,101.538803 64.5635833,101.590442 C64.6350837,101.642082 64.7324022,101.697692 64.8555417,101.757276 C64.9786812,101.816859 65.1355824,101.8824 65.32625,101.953901 C65.7155297,102.096902 66.0372765,102.237914 66.2915,102.376942 C66.5457235,102.515971 66.7463187,102.666914 66.8932917,102.829776 C67.0402646,102.992638 67.1435414,103.173372 67.203125,103.371984 C67.2627086,103.570596 67.2925,103.800983 67.2925,104.063151 C67.2925,104.682821 67.0601273,105.151538 66.595375,105.469317 C66.1306227,105.787097 65.4732265,105.945984 64.6231667,105.945984 C64.0670528,105.945984 63.6042935,105.898318 63.234875,105.802984 C62.8654565,105.70765 62.6092507,105.628207 62.46625,105.564651 L62.7641667,104.122734 C63.0660571,104.241901 63.3758873,104.335248 63.6936667,104.402776 C64.011446,104.470304 64.3252485,104.504067 64.6350833,104.504067 Z" id="events" fill-rule="nonzero"></path>
            </g>
            <g id="Buffer" transform="translate(143.041825, 108.785171)">
                <rect id="Rectangle" fill="#E1E6EA" x="0" y="0" width="124.220532" height="25.095057" rx="6"></rect>
                <circle id="Oval" fill="#001B3D" cx="98.0798479" cy="12.338403" r="7.31939163"></circle>
                <circle id="Oval" fill="#001B3D" cx="83.4410646" cy="12.338403" r="7.31939163"></circle>
                <circle id="Oval" fill="#001B3D" cx="112.718631" cy="12.338403" r="7.31939163"></circle>
                <path d="M57.3259249,105.783079 C57.3259249,104.639073 56.9048736,104.067079 56.0627582,104.067079 C55.8800351,104.067079 55.6993008,104.090912 55.5205499,104.138579 C55.341799,104.186246 55.1968143,104.245829 55.0855916,104.317329 L55.0855916,107.546746 C55.1729809,107.562635 55.284202,107.576537 55.4192582,107.588454 C55.5543145,107.600371 55.7012852,107.606329 55.8601749,107.606329 C56.3447884,107.606329 56.7102292,107.439497 56.9565082,107.105829 C57.2027872,106.772161 57.3259249,106.331248 57.3259249,105.783079 Z M59.1372582,105.830746 C59.1372582,106.331248 59.0637729,106.784077 58.9167999,107.189246 C58.7698269,107.594414 58.5573152,107.939994 58.2792582,108.225996 C58.0012013,108.511997 57.6595936,108.732453 57.2544249,108.887371 C56.8492562,109.042288 56.388483,109.119746 55.8720916,109.119746 C55.6575905,109.119746 55.4331622,109.109815 55.1987999,109.089954 C54.9644376,109.070093 54.734051,109.044274 54.5076332,109.012496 C54.2812154,108.980718 54.0647315,108.942982 53.8581749,108.899287 C53.6516183,108.855593 53.4688979,108.809912 53.3100082,108.762246 L53.3100082,100.003496 L55.0855916,99.7174956 L55.0855916,102.839662 C55.2842037,102.752273 55.4907572,102.684746 55.7052582,102.637079 C55.9197593,102.589412 56.1501459,102.565579 56.3964249,102.565579 C56.841316,102.565579 57.2345621,102.643036 57.5761749,102.797954 C57.9177877,102.952871 58.2037849,103.173327 58.4341749,103.459329 C58.6645649,103.74533 58.839341,104.088924 58.9585082,104.490121 C59.0776755,104.891317 59.1372582,105.338188 59.1372582,105.830746 Z M65.8582582,108.750329 C65.5563678,108.837718 65.167094,108.919148 64.6904249,108.994621 C64.2137559,109.070093 63.7132609,109.107829 63.1889249,109.107829 C62.6566445,109.107829 62.2137461,109.03633 61.8602166,108.893329 C61.506687,108.750328 61.2266482,108.549733 61.0200916,108.291537 C60.813535,108.033341 60.6665642,107.725497 60.5791749,107.367996 C60.4917856,107.010494 60.4480916,106.617248 60.4480916,106.188246 L60.4480916,102.696662 L62.2236749,102.696662 L62.2236749,105.973746 C62.2236749,106.545748 62.2991464,106.958855 62.4500916,107.213079 C62.6010368,107.467302 62.8830617,107.594412 63.2961749,107.594412 C63.4232867,107.594412 63.5583409,107.588454 63.7013416,107.576537 C63.8443423,107.564621 63.9714521,107.550718 64.0826749,107.534829 L64.0826749,102.696662 L65.8582582,102.696662 L65.8582582,108.750329 Z M70.2435916,99.7174956 C70.5772599,99.7174956 70.883118,99.7512591 71.1611749,99.8187872 C71.4392319,99.8863153 71.6537297,99.9518564 71.8046749,100.015412 L71.4590916,101.433496 C71.3002019,101.361995 71.1274119,101.308371 70.9407166,101.272621 C70.7540212,101.23687 70.5812313,101.218996 70.4223416,101.218996 C70.2078405,101.218996 70.0271062,101.248787 69.8801332,101.308371 C69.7331603,101.367954 69.617967,101.449384 69.5345499,101.552662 C69.4511328,101.655941 69.3915501,101.779078 69.3557999,101.922079 C69.3200497,102.06508 69.3021749,102.219995 69.3021749,102.386829 L69.3021749,102.696662 L71.4948416,102.696662 L71.4948416,104.174329 L69.3021749,104.174329 L69.3021749,108.964829 L67.5265916,108.964829 L67.5265916,102.362996 C67.5265916,101.552658 67.7549921,100.909165 68.2117999,100.432496 C68.6686077,99.9558265 69.3458649,99.7174956 70.2435916,99.7174956 Z M75.2366749,99.7174956 C75.5703432,99.7174956 75.8762013,99.7512591 76.1542582,99.8187872 C76.4323152,99.8863153 76.646813,99.9518564 76.7977582,100.015412 L76.4521749,101.433496 C76.2932852,101.361995 76.1204953,101.308371 75.9337999,101.272621 C75.7471045,101.23687 75.5743146,101.218996 75.4154249,101.218996 C75.2009238,101.218996 75.0201895,101.248787 74.8732166,101.308371 C74.7262436,101.367954 74.6110503,101.449384 74.5276332,101.552662 C74.4442162,101.655941 74.3846334,101.779078 74.3488832,101.922079 C74.3131331,102.06508 74.2952582,102.219995 74.2952582,102.386829 L74.2952582,102.696662 L76.4879249,102.696662 L76.4879249,104.174329 L74.2952582,104.174329 L74.2952582,108.964829 L72.5196749,108.964829 L72.5196749,102.362996 C72.5196749,101.552658 72.7480754,100.909165 73.2048832,100.432496 C73.6616911,99.9558265 74.3389482,99.7174956 75.2366749,99.7174956 Z M77.1552582,105.878412 C77.1552582,105.322298 77.2406602,104.835706 77.4114666,104.418621 C77.582273,104.001535 77.8067013,103.653969 78.0847582,103.375912 C78.3628152,103.097855 78.6825759,102.88733 79.0440499,102.744329 C79.4055239,102.601328 79.776923,102.529829 80.1582582,102.529829 C81.0480405,102.529829 81.7511168,102.801923 82.2675082,103.346121 C82.7838997,103.890318 83.0420916,104.690713 83.0420916,105.747329 C83.0420916,105.850607 83.0381194,105.963814 83.0301749,106.086954 C83.0222304,106.210093 83.0142861,106.319328 83.0063416,106.414662 L78.9785082,106.414662 C79.0182307,106.780109 79.1890345,107.070078 79.4909249,107.284579 C79.7928153,107.49908 80.1979779,107.606329 80.7064249,107.606329 C81.0321488,107.606329 81.3519094,107.576538 81.6657166,107.516954 C81.9795237,107.45737 82.2357295,107.383885 82.4343416,107.296496 L82.6726749,108.738412 C82.5773411,108.786079 82.4502313,108.833745 82.2913416,108.881412 C82.1324519,108.929079 81.9556898,108.970787 81.7610499,109.006537 C81.56641,109.042287 81.3578705,109.072079 81.1354249,109.095912 C80.9129793,109.119746 80.6905371,109.131662 80.4680916,109.131662 C79.9040332,109.131662 79.4134687,109.048246 78.9963832,108.881412 C78.5792978,108.714578 78.2337179,108.486178 77.9596332,108.196204 C77.6855485,107.90623 77.4829672,107.562636 77.3518832,107.165412 C77.2207992,106.768188 77.1552582,106.339192 77.1552582,105.878412 Z M81.3260916,105.199162 C81.3181471,105.048217 81.2923279,104.901246 81.2486332,104.758246 C81.2049386,104.615245 81.1374115,104.488135 81.0460499,104.376912 C80.9546883,104.265689 80.839495,104.174329 80.7004666,104.102829 C80.5614381,104.031329 80.3886482,103.995579 80.1820916,103.995579 C79.9834795,103.995579 79.8126756,104.029342 79.6696749,104.096871 C79.5266742,104.164399 79.4075087,104.253773 79.3121749,104.364996 C79.2168411,104.476218 79.1433557,104.605314 79.0917166,104.752287 C79.0400774,104.89926 79.0023417,105.048217 78.9785082,105.199162 L81.3260916,105.199162 Z M88.1900916,104.269662 C88.0312019,104.22994 87.8445093,104.188232 87.6300082,104.144537 C87.4155072,104.100843 87.1851206,104.078996 86.9388416,104.078996 C86.8276188,104.078996 86.6945507,104.088926 86.5396332,104.108787 C86.3847158,104.128648 86.2675364,104.150495 86.1880916,104.174329 L86.1880916,108.964829 L84.4125082,108.964829 L84.4125082,103.030329 C84.7302876,102.919106 85.1056589,102.813843 85.5386332,102.714537 C85.9716076,102.615231 86.4542278,102.565579 86.9865082,102.565579 C87.081842,102.565579 87.1970353,102.571537 87.3320916,102.583454 C87.4671478,102.595371 87.602202,102.611259 87.7372582,102.631121 C87.8723145,102.650982 88.0073687,102.674815 88.1424249,102.702621 C88.2774811,102.730426 88.3926744,102.76419 88.4880082,102.803912 L88.1900916,104.269662 Z M26.8728832,121.901746 C26.8728832,122.91864 27.019854,123.860047 27.3137999,124.725996 C27.6077458,125.591944 28.0407137,126.394325 28.6127166,127.133162 L27.8262166,127.669412 C27.2065468,126.914686 26.7080379,126.046764 26.3306749,125.065621 C25.9533119,124.084477 25.7646332,123.029862 25.7646332,121.901746 C25.7646332,120.773629 25.9533119,119.719014 26.3306749,118.737871 C26.7080379,117.756727 27.2065468,116.888805 27.8262166,116.134079 L28.6127166,116.670329 C28.0407137,117.409166 27.6077458,118.211547 27.3137999,119.077496 C27.019854,119.943444 26.8728832,120.884852 26.8728832,121.901746 Z M29.6494666,119.446912 C29.9036901,119.383356 30.2393395,119.315829 30.6564249,119.244329 C31.0735103,119.172829 31.5561305,119.137079 32.1042999,119.137079 C32.5015241,119.137079 32.8351874,119.190703 33.1052999,119.297954 C33.3754124,119.405204 33.6018268,119.562106 33.7845499,119.768662 C33.8401613,119.72894 33.9275493,119.673329 34.0467166,119.601829 C34.1658838,119.530329 34.3128546,119.460815 34.4876332,119.393287 C34.6624119,119.325759 34.8570488,119.266176 35.0715499,119.214537 C35.286051,119.162898 35.5164376,119.137079 35.7627166,119.137079 C36.2393856,119.137079 36.6286595,119.206592 36.9305499,119.345621 C37.2324403,119.484649 37.4687852,119.681272 37.6395916,119.935496 C37.810398,120.189719 37.9255913,120.491605 37.9851749,120.841162 C38.0447585,121.19072 38.0745499,121.572049 38.0745499,121.985162 L38.0745499,125.464829 L36.9662999,125.464829 L36.9662999,122.223496 C36.9662999,121.858049 36.9484251,121.544247 36.9126749,121.282079 C36.8769247,121.019911 36.8093976,120.801441 36.7100916,120.626662 C36.6107855,120.451884 36.4757313,120.322788 36.3049249,120.239371 C36.1341185,120.155953 35.9136624,120.114246 35.6435499,120.114246 C35.2701591,120.114246 34.962315,120.163898 34.7200082,120.263204 C34.4777015,120.36251 34.3128559,120.451884 34.2254666,120.531329 C34.2890224,120.737885 34.3366886,120.9643 34.3684666,121.210579 C34.4002445,121.456858 34.4161332,121.71505 34.4161332,121.985162 L34.4161332,125.464829 L33.3078832,125.464829 L33.3078832,122.223496 C33.3078832,121.858049 33.2880223,121.544247 33.2482999,121.282079 C33.2085775,121.019911 33.1390643,120.801441 33.0397582,120.626662 C32.9404522,120.451884 32.805398,120.322788 32.6345916,120.239371 C32.4637852,120.155953 32.2473012,120.114246 31.9851332,120.114246 C31.8739105,120.114246 31.754745,120.118218 31.6276332,120.126162 C31.5005215,120.134107 31.3793699,120.144037 31.2641749,120.155954 C31.1489799,120.167871 31.043717,120.181773 30.9483832,120.197662 C30.8530494,120.213551 30.7894945,120.225468 30.7577166,120.233412 L30.7577166,125.464829 L29.6494666,125.464829 L29.6494666,119.446912 Z M39.5641332,122.378412 C39.5641332,121.830243 39.6435769,121.351595 39.8024666,120.942454 C39.9613563,120.533313 40.1718819,120.193691 40.4340499,119.923579 C40.6962179,119.653466 40.9981038,119.450885 41.3397166,119.315829 C41.6813294,119.180773 42.0308815,119.113246 42.3883832,119.113246 C43.2225541,119.113246 43.8620755,119.373424 44.3069666,119.893787 C44.7518577,120.414151 44.9742999,121.206601 44.9742999,122.271162 L44.9742999,122.455871 C44.9742999,122.531343 44.9703277,122.600856 44.9623832,122.664412 L40.7200499,122.664412 C40.7677168,123.307915 40.9544094,123.796494 41.2801332,124.130162 C41.6058571,124.463831 42.1142964,124.630662 42.8054666,124.630662 C43.1947463,124.630662 43.5224514,124.596899 43.7885916,124.529371 C44.0547318,124.461842 44.255327,124.396301 44.3903832,124.332746 L44.5452999,125.262246 C44.4102437,125.333746 44.1738988,125.409217 43.8362582,125.488662 C43.4986177,125.568107 43.115302,125.607829 42.6862999,125.607829 C42.146075,125.607829 41.6793435,125.526399 41.2860916,125.363537 C40.8928396,125.200675 40.5691067,124.976247 40.3148832,124.690246 C40.0606597,124.404244 39.8719811,124.064623 39.7488416,123.671371 C39.6257021,123.278119 39.5641332,122.847137 39.5641332,122.378412 Z M43.8183832,121.770662 C43.8263277,121.27016 43.701204,120.859039 43.4430082,120.537287 C43.1848125,120.215536 42.8293022,120.054662 42.3764666,120.054662 C42.1222431,120.054662 41.8978148,120.104315 41.7031749,120.203621 C41.508535,120.302927 41.3436895,120.432023 41.2086332,120.590912 C41.073577,120.749802 40.9683142,120.932522 40.8928416,121.139079 C40.817369,121.345635 40.7677167,121.556161 40.7438832,121.770662 L43.8183832,121.770662 Z M46.5711332,119.446912 C46.8253567,119.383356 47.1610062,119.315829 47.5780916,119.244329 C47.995177,119.172829 48.4777972,119.137079 49.0259666,119.137079 C49.4231908,119.137079 49.7568541,119.190703 50.0269666,119.297954 C50.297079,119.405204 50.5234934,119.562106 50.7062166,119.768662 C50.761828,119.72894 50.849216,119.673329 50.9683832,119.601829 C51.0875505,119.530329 51.2345213,119.460815 51.4092999,119.393287 C51.5840786,119.325759 51.7787155,119.266176 51.9932166,119.214537 C52.2077176,119.162898 52.4381042,119.137079 52.6843832,119.137079 C53.1610523,119.137079 53.5503262,119.206592 53.8522166,119.345621 C54.154107,119.484649 54.3904518,119.681272 54.5612582,119.935496 C54.7320646,120.189719 54.8472579,120.491605 54.9068416,120.841162 C54.9664252,121.19072 54.9962166,121.572049 54.9962166,121.985162 L54.9962166,125.464829 L53.8879666,125.464829 L53.8879666,122.223496 C53.8879666,121.858049 53.8700918,121.544247 53.8343416,121.282079 C53.7985914,121.019911 53.7310643,120.801441 53.6317582,120.626662 C53.5324522,120.451884 53.397398,120.322788 53.2265916,120.239371 C53.0557852,120.155953 52.835329,120.114246 52.5652166,120.114246 C52.1918258,120.114246 51.8839817,120.163898 51.6416749,120.263204 C51.3993681,120.36251 51.2345226,120.451884 51.1471332,120.531329 C51.2106891,120.737885 51.2583553,120.9643 51.2901332,121.210579 C51.3219112,121.456858 51.3377999,121.71505 51.3377999,121.985162 L51.3377999,125.464829 L50.2295499,125.464829 L50.2295499,122.223496 C50.2295499,121.858049 50.209689,121.544247 50.1699666,121.282079 C50.1302442,121.019911 50.060731,120.801441 49.9614249,120.626662 C49.8621189,120.451884 49.7270646,120.322788 49.5562582,120.239371 C49.3854518,120.155953 49.1689679,120.114246 48.9067999,120.114246 C48.7955771,120.114246 48.6764117,120.118218 48.5492999,120.126162 C48.4221882,120.134107 48.3010366,120.144037 48.1858416,120.155954 C48.0706466,120.167871 47.9653837,120.181773 47.8700499,120.197662 C47.7747161,120.213551 47.7111612,120.225468 47.6793832,120.233412 L47.6793832,125.464829 L46.5711332,125.464829 L46.5711332,119.446912 Z M62.3011332,122.366496 C62.3011332,122.859054 62.229634,123.303938 62.0866332,123.701162 C61.9436325,124.098386 61.7430373,124.439994 61.4848416,124.725996 C61.2266458,125.011997 60.9188017,125.232453 60.5612999,125.387371 C60.2037981,125.542288 59.8145242,125.619746 59.3934666,125.619746 C58.9724089,125.619746 58.583135,125.542288 58.2256332,125.387371 C57.8681315,125.232453 57.5602873,125.011997 57.3020916,124.725996 C57.0438958,124.439994 56.8433006,124.098386 56.7002999,123.701162 C56.5572992,123.303938 56.4857999,122.859054 56.4857999,122.366496 C56.4857999,121.881882 56.5572992,121.438984 56.7002999,121.037787 C56.8433006,120.636591 57.0438958,120.292997 57.3020916,120.006996 C57.5602873,119.720994 57.8681315,119.500538 58.2256332,119.345621 C58.583135,119.190703 58.9724089,119.113246 59.3934666,119.113246 C59.8145242,119.113246 60.2037981,119.190703 60.5612999,119.345621 C60.9188017,119.500538 61.2266458,119.720994 61.4848416,120.006996 C61.7430373,120.292997 61.9436325,120.636591 62.0866332,121.037787 C62.229634,121.438984 62.3011332,121.881882 62.3011332,122.366496 Z M61.1452166,122.366496 C61.1452166,121.667381 60.9883154,121.113261 60.6745082,120.704121 C60.3607011,120.29498 59.9336915,120.090412 59.3934666,120.090412 C58.8532416,120.090412 58.426232,120.29498 58.1124249,120.704121 C57.7986178,121.113261 57.6417166,121.667381 57.6417166,122.366496 C57.6417166,123.06561 57.7986178,123.61973 58.1124249,124.028871 C58.426232,124.438011 58.8532416,124.642579 59.3934666,124.642579 C59.9336915,124.642579 60.3607011,124.438011 60.6745082,124.028871 C60.9883154,123.61973 61.1452166,123.06561 61.1452166,122.366496 Z M66.1502166,119.137079 C66.2455504,119.137079 66.3547854,119.143037 66.4779249,119.154954 C66.6010644,119.166871 66.722216,119.182759 66.8413832,119.202621 C66.9605505,119.222482 67.0697855,119.242343 67.1690916,119.262204 C67.2683976,119.282065 67.341883,119.29994 67.3895499,119.315829 L67.1988832,120.281079 C67.1114939,120.249301 66.9665093,120.211565 66.7639249,120.167871 C66.5613406,120.124176 66.3011626,120.102329 65.9833832,120.102329 C65.7768266,120.102329 65.5722593,120.124176 65.3696749,120.167871 C65.1670906,120.211565 65.0340224,120.241357 64.9704666,120.257246 L64.9704666,125.464829 L63.8622166,125.464829 L63.8622166,119.530329 C64.1243845,119.434995 64.4501035,119.345621 64.8393832,119.262204 C65.228663,119.178787 65.665603,119.137079 66.1502166,119.137079 Z M67.9853832,126.620746 C68.0727726,126.660468 68.1859798,126.698204 68.3250082,126.733954 C68.4640367,126.769704 68.601077,126.787579 68.7361332,126.787579 C69.1730799,126.787579 69.5146876,126.69026 69.7609666,126.495621 C70.0072456,126.300981 70.2296878,125.985192 70.4282999,125.548246 C69.9277974,124.594907 69.461066,123.583987 69.0280916,122.515454 C68.5951172,121.446921 68.2356347,120.364501 67.9496332,119.268162 L69.1412999,119.268162 C69.2286892,119.625664 69.3339521,120.010966 69.4570916,120.424079 C69.5802311,120.837192 69.7172714,121.262216 69.8682166,121.699162 C70.0191618,122.136109 70.1820213,122.573049 70.3567999,123.009996 C70.5315786,123.446942 70.714299,123.867994 70.9049666,124.273162 C71.206857,123.438991 71.469021,122.612777 71.6914666,121.794496 C71.9139121,120.976214 72.1244378,120.134111 72.3230499,119.268162 L73.4670499,119.268162 C73.1810485,120.436001 72.8632739,121.558143 72.5137166,122.634621 C72.1641593,123.711098 71.7868019,124.718046 71.3816332,125.655496 C71.2227436,126.012997 71.057898,126.320841 70.8870916,126.579037 C70.7162852,126.837233 70.5276065,127.049745 70.3210499,127.216579 C70.1144933,127.383413 69.8821206,127.506551 69.6239249,127.585996 C69.3657292,127.66544 69.0737738,127.705162 68.7480499,127.705162 C68.6606606,127.705162 68.5693004,127.699204 68.4739666,127.687287 C68.3786328,127.675371 68.2852865,127.659482 68.1939249,127.639621 C68.1025633,127.619759 68.0191475,127.597912 67.9436749,127.574079 C67.8682023,127.550245 67.8145778,127.530385 67.7827999,127.514496 L67.9853832,126.620746 Z M82.8573832,122.366496 C82.8573832,122.859054 82.785884,123.303938 82.6428832,123.701162 C82.4998825,124.098386 82.2992873,124.439994 82.0410916,124.725996 C81.7828958,125.011997 81.4750517,125.232453 81.1175499,125.387371 C80.7600481,125.542288 80.3707742,125.619746 79.9497166,125.619746 C79.5286589,125.619746 79.139385,125.542288 78.7818832,125.387371 C78.4243815,125.232453 78.1165373,125.011997 77.8583416,124.725996 C77.6001458,124.439994 77.3995506,124.098386 77.2565499,123.701162 C77.1135492,123.303938 77.0420499,122.859054 77.0420499,122.366496 C77.0420499,121.881882 77.1135492,121.438984 77.2565499,121.037787 C77.3995506,120.636591 77.6001458,120.292997 77.8583416,120.006996 C78.1165373,119.720994 78.4243815,119.500538 78.7818832,119.345621 C79.139385,119.190703 79.5286589,119.113246 79.9497166,119.113246 C80.3707742,119.113246 80.7600481,119.190703 81.1175499,119.345621 C81.4750517,119.500538 81.7828958,119.720994 82.0410916,120.006996 C82.2992873,120.292997 82.4998825,120.636591 82.6428832,121.037787 C82.785884,121.438984 82.8573832,121.881882 82.8573832,122.366496 Z M81.7014666,122.366496 C81.7014666,121.667381 81.5445654,121.113261 81.2307582,120.704121 C80.9169511,120.29498 80.4899415,120.090412 79.9497166,120.090412 C79.4094916,120.090412 78.982482,120.29498 78.6686749,120.704121 C78.3548678,121.113261 78.1979666,121.667381 78.1979666,122.366496 C78.1979666,123.06561 78.3548678,123.61973 78.6686749,124.028871 C78.982482,124.438011 79.4094916,124.642579 79.9497166,124.642579 C80.4899415,124.642579 80.9169511,124.438011 81.2307582,124.028871 C81.5445654,123.61973 81.7014666,123.06561 81.7014666,122.366496 Z M86.7064666,119.137079 C86.8018004,119.137079 86.9110354,119.143037 87.0341749,119.154954 C87.1573144,119.166871 87.278466,119.182759 87.3976332,119.202621 C87.5168005,119.222482 87.6260355,119.242343 87.7253416,119.262204 C87.8246476,119.282065 87.898133,119.29994 87.9457999,119.315829 L87.7551332,120.281079 C87.6677439,120.249301 87.5227593,120.211565 87.3201749,120.167871 C87.1175906,120.124176 86.8574126,120.102329 86.5396332,120.102329 C86.3330766,120.102329 86.1285093,120.124176 85.9259249,120.167871 C85.7233406,120.211565 85.5902724,120.241357 85.5267166,120.257246 L85.5267166,125.464829 L84.4184666,125.464829 L84.4184666,119.530329 C84.6806345,119.434995 85.0063535,119.345621 85.3956332,119.262204 C85.784913,119.178787 86.221853,119.137079 86.7064666,119.137079 Z M95.7750499,120.578996 C95.6399937,120.467773 95.4453567,120.360524 95.1911332,120.257246 C94.9369097,120.153967 94.658857,120.102329 94.3569666,120.102329 C94.0391872,120.102329 93.7670927,120.159926 93.5406749,120.275121 C93.3142571,120.390316 93.1295506,120.549203 92.9865499,120.751787 C92.8435492,120.954372 92.7402724,121.194689 92.6767166,121.472746 C92.6131607,121.750803 92.5813832,122.048716 92.5813832,122.366496 C92.5813832,123.089444 92.7601315,123.647535 93.1176332,124.040787 C93.475135,124.434039 93.9517969,124.630662 94.5476332,124.630662 C94.8495236,124.630662 95.1017572,124.61676 95.3043416,124.588954 C95.5069259,124.561148 95.6638271,124.531357 95.7750499,124.499579 L95.7750499,120.578996 Z M95.7750499,116.408162 L96.8832999,116.217496 L96.8832999,125.286079 C96.6290764,125.357579 96.3033574,125.429079 95.9061332,125.500579 C95.508909,125.572079 95.052108,125.607829 94.5357166,125.607829 C94.0590475,125.607829 93.6300518,125.532357 93.2487166,125.381412 C92.8673813,125.230467 92.5416624,125.015969 92.2715499,124.737912 C92.0014374,124.459855 91.7928979,124.120234 91.6459249,123.719037 C91.4989519,123.317841 91.4254666,122.866998 91.4254666,122.366496 C91.4254666,121.889827 91.4870354,121.452886 91.6101749,121.055662 C91.7333144,120.658438 91.9140487,120.31683 92.1523832,120.030829 C92.3907178,119.744827 92.6826732,119.522385 93.0282582,119.363496 C93.3738433,119.204606 93.7690755,119.125162 94.2139666,119.125162 C94.5714684,119.125162 94.8872569,119.172828 95.1613416,119.268162 C95.4354263,119.363496 95.6399937,119.454856 95.7750499,119.542246 L95.7750499,116.408162 Z M99.8982166,125.464829 L98.7899666,125.464829 L98.7899666,119.268162 L99.8982166,119.268162 L99.8982166,125.464829 Z M99.3381332,118.147996 C99.1395211,118.147996 98.9707034,118.082455 98.8316749,117.951371 C98.6926464,117.820287 98.6231332,117.643524 98.6231332,117.421079 C98.6231332,117.198633 98.6926464,117.021871 98.8316749,116.890787 C98.9707034,116.759703 99.1395211,116.694162 99.3381332,116.694162 C99.5367453,116.694162 99.7055631,116.759703 99.8445916,116.890787 C99.98362,117.021871 100.053133,117.198633 100.053133,117.421079 C100.053133,117.643524 99.98362,117.820287 99.8445916,117.951371 C99.7055631,118.082455 99.5367453,118.147996 99.3381332,118.147996 Z M103.2468,124.666412 C103.699636,124.666412 104.035285,124.606829 104.253758,124.487662 C104.472232,124.368495 104.581467,124.17783 104.581467,123.915662 C104.581467,123.64555 104.474218,123.431052 104.259717,123.272162 C104.045215,123.113273 103.691691,122.934524 103.199133,122.735912 C102.960799,122.640578 102.732398,122.54326 102.513925,122.443954 C102.295452,122.344648 102.106773,122.227468 101.947883,122.092412 C101.788994,121.957356 101.661884,121.794497 101.56655,121.603829 C101.471216,121.413161 101.42355,121.178803 101.42355,120.900746 C101.42355,120.352576 101.626131,119.917622 102.0313,119.595871 C102.436469,119.274119 102.988602,119.113246 103.687717,119.113246 C103.862495,119.113246 104.037271,119.123176 104.21205,119.143037 C104.386829,119.162898 104.549688,119.186732 104.700633,119.214537 C104.851578,119.242343 104.984647,119.272134 105.099842,119.303912 C105.215037,119.33569 105.304411,119.363495 105.367967,119.387329 L105.165383,120.340662 C105.046216,120.277106 104.859523,120.211565 104.6053,120.144037 C104.351076,120.076509 104.045218,120.042746 103.687717,120.042746 C103.377882,120.042746 103.107773,120.104314 102.877383,120.227454 C102.646993,120.350593 102.5318,120.543244 102.5318,120.805412 C102.5318,120.940468 102.557619,121.059634 102.609258,121.162912 C102.660897,121.266191 102.740341,121.359537 102.847592,121.442954 C102.954842,121.526371 103.08791,121.603829 103.2468,121.675329 C103.40569,121.746829 103.596354,121.822301 103.8188,121.901746 C104.112746,122.012968 104.37491,122.122203 104.6053,122.229454 C104.83569,122.336704 105.032313,122.461828 105.195175,122.604829 C105.358037,122.74783 105.483161,122.92062 105.57055,123.123204 C105.657939,123.325788 105.701633,123.57405 105.701633,123.867996 C105.701633,124.439998 105.489121,124.872966 105.064092,125.166912 C104.639062,125.460858 104.033304,125.607829 103.2468,125.607829 C102.69863,125.607829 102.269635,125.562149 101.9598,125.470787 C101.649965,125.379426 101.439439,125.309912 101.328217,125.262246 L101.5308,124.308912 C101.657912,124.356579 101.860493,124.428078 102.13855,124.523412 C102.416607,124.618746 102.78602,124.666412 103.2468,124.666412 Z M109.36005,122.056662 C109.598384,122.239385 109.850618,122.4658 110.116758,122.735912 C110.382898,123.006025 110.645063,123.29798 110.903258,123.611787 C111.161454,123.925594 111.405743,124.243369 111.636133,124.565121 C111.866523,124.886872 112.06116,125.186772 112.22005,125.464829 L110.921133,125.464829 C110.754299,125.186772 110.561648,124.902761 110.343175,124.612787 C110.124702,124.322814 109.896301,124.044761 109.657967,123.778621 C109.419632,123.51248 109.177329,123.268191 108.93105,123.045746 C108.684771,122.8233 108.450412,122.636607 108.227967,122.485662 L108.227967,125.464829 L107.119717,125.464829 L107.119717,116.408162 L108.227967,116.217496 L108.227967,121.865996 L108.85955,121.234412 C109.08994,121.004022 109.316354,120.769663 109.5388,120.531329 C109.761245,120.292994 109.971771,120.064594 110.170383,119.846121 C110.368995,119.627647 110.539799,119.434996 110.6828,119.268162 L111.981717,119.268162 C111.798993,119.466774 111.600384,119.685244 111.385883,119.923579 C111.171382,120.161913 110.94894,120.40223 110.71855,120.644537 C110.48816,120.886844 110.255787,121.129147 110.021425,121.371454 C109.787063,121.613761 109.566606,121.842161 109.36005,122.056662 Z M114.210133,121.901746 C114.210133,120.884852 114.063162,119.943444 113.769217,119.077496 C113.475271,118.211547 113.042303,117.409166 112.4703,116.670329 L113.2568,116.134079 C113.87647,116.888805 114.374979,117.756727 114.752342,118.737871 C115.129705,119.719014 115.318383,120.773629 115.318383,121.901746 C115.318383,123.029862 115.129705,124.084477 114.752342,125.065621 C114.374979,126.046764 113.87647,126.914686 113.2568,127.669412 L112.4703,127.133162 C113.042303,126.394325 113.475271,125.591944 113.769217,124.725996 C114.063162,123.860047 114.210133,122.91864 114.210133,121.901746 Z" id="bufer(memoryordisk)" fill="#001B3D" fill-rule="nonzero"></path>
            </g>
            <g id="Batches" transform="translate(273.536122, 53.157795)" fill-rule="nonzero">
                <g id="rotate" transform="translate(99.125475, 18.821293) scale(-1, 1) translate(-99.125475, -18.821293) translate(80.304183, 0.000000)">
                    <path d="M37.6425856,18.8212928 C37.6425856,29.2161398 29.2161398,37.6425856 18.8212928,37.6425856 C8.42644577,37.6425856 0,29.2161398 0,18.8212928 C0,8.42644577 8.42644577,0 18.8212928,0 C29.2161398,0 37.6425856,8.42644577 37.6425856,18.8212928 Z" id="Path" fill="#000000"></path>
                    <g id="Group" transform="translate(6.543340, 6.690381)" fill="#E1E6EA">
                        <path d="M25.1233931,12.642397 C25.1233931,5.68090807 19.4600036,0.0175185799 12.4985147,0.0175185799 C9.3503365,0.0175185799 6.33282971,1.20562423 4.03214951,3.28057295 L4.03214951,0.14388224 L1.82652927,0.14388224 L1.82652927,7.10537114 L8.78801817,7.10537114 L8.78801817,4.8997509 L5.53013327,4.8997509 C7.42673693,3.19757501 9.90920846,2.22313883 12.4985147,2.22313883 C18.2437534,2.22313883 22.9177729,6.89715831 22.9177729,12.642397 L23.0441365,12.642397 C23.0441365,12.9660603 23.0294898,13.2925954 23.0001965,13.6125253 L24.9450481,13.7894344 C24.9795109,13.4109178 24.9970295,13.0249342 24.9973166,12.642397 L24.1653268,12.642397 L25.1233931,12.642397 Z" id="Path"></path>
                        <path d="M4.28286648,19.2546627 L2.76219469,20.480103 C3.20389316,21.0280618 3.69556267,21.5424193 4.22313094,22.0088161 L5.51663531,20.5458695 C5.07120339,20.1518447 4.65592649,19.717326 4.28286648,19.2546627 Z" id="Path"></path>
                        <path d="M2.54938682,16.1484142 L0.707636496,16.7974639 C0.941696475,17.4614475 1.23463041,18.1104972 1.57868416,18.7268072 L3.28373198,17.7747719 C2.99366998,17.255245 2.74668646,16.7081477 2.54938682,16.1484142 L2.54938682,16.1484142 Z" id="Path"></path>
                        <path d="M1.95289293,12.642397 L0,12.642397 C0,13.3488847 0.0594483766,14.0573828 0.176909124,14.7486495 L2.1022318,14.4218271 C2.00315122,13.8382567 1.95289293,13.2394653 1.95289293,12.642397 Z" id="Path"></path>
                        <path d="M5.91956309,23.2710168 C6.51864168,23.6426408 7.15304474,23.9651553 7.80496632,24.2293703 L8.53873713,22.419498 C7.98905518,22.1966384 7.45430718,21.9249566 6.94885254,21.611345 L5.91956309,23.2710168 Z" id="Path"></path>
                        <path d="M22.0834856,17.0467449 L23.857459,17.8635137 C24.152116,17.2230797 24.393643,16.5533523 24.5754343,15.8727116 L22.6885951,15.3689802 C22.5355228,15.9424988 22.331905,16.5071147 22.0834856,17.0467449 Z" id="Path"></path>
                        <path d="M9.82707205,24.8545832 C10.5131693,25.003922 11.2187955,25.0958229 11.9241345,25.127701 L12.0123019,23.1768184 C11.4166695,23.1501097 10.8213243,23.0722811 10.2426362,22.9462047 L9.82707205,24.8545832 Z" id="Path"></path>
                        <path d="M20.072293,19.9803922 L21.4746425,21.3393759 C21.964876,20.8336341 22.4151901,20.2828034 22.8132357,19.7026793 L21.2026734,18.5981461 C20.8666609,19.0880924 20.4864212,19.5530532 20.072293,19.9803922 Z" id="Path"></path>
                        <path d="M17.2021148,22.0837727 L18.0745984,23.8310375 C18.7041192,23.5165643 19.3118135,23.1458018 19.88045,22.7288018 L18.7259457,21.153851 C18.2460509,21.505659 17.7331294,21.8186962 17.2021148,22.0837727 Z" id="Path"></path>
                        <path d="M13.7980501,23.1087543 L14.0358435,25.0470006 C14.7360131,24.9611307 15.4327363,24.8146637 16.1064844,24.6119075 L15.5435918,22.7420125 C14.9755296,22.9128907 14.3882258,23.0363824 13.7980501,23.1087543 Z" id="Path"></path>
                    </g>
                </g>
                <g id="rotate" transform="translate(99.125475, 68.174905) scale(-1, 1) translate(-99.125475, -68.174905) translate(80.304183, 49.353612)">
                    <path d="M37.6425856,18.8212928 C37.6425856,29.2161398 29.2161398,37.6425856 18.8212928,37.6425856 C8.42644577,37.6425856 0,29.2161398 0,18.8212928 C0,8.42644577 8.42644577,0 18.8212928,0 C29.2161398,0 37.6425856,8.42644577 37.6425856,18.8212928 Z" id="Path" fill="#000000"></path>
                    <g id="Group" transform="translate(6.543340, 6.690381)" fill="#E1E6EA">
                        <path d="M25.1233931,12.642397 C25.1233931,5.68090807 19.4600036,0.0175185799 12.4985147,0.0175185799 C9.3503365,0.0175185799 6.33282971,1.20562423 4.03214951,3.28057295 L4.03214951,0.14388224 L1.82652927,0.14388224 L1.82652927,7.10537114 L8.78801817,7.10537114 L8.78801817,4.8997509 L5.53013327,4.8997509 C7.42673693,3.19757501 9.90920846,2.22313883 12.4985147,2.22313883 C18.2437534,2.22313883 22.9177729,6.89715831 22.9177729,12.642397 L23.0441365,12.642397 C23.0441365,12.9660603 23.0294898,13.2925954 23.0001965,13.6125253 L24.9450481,13.7894344 C24.9795109,13.4109178 24.9970295,13.0249342 24.9973166,12.642397 L24.1653268,12.642397 L25.1233931,12.642397 Z" id="Path"></path>
                        <path d="M4.28286648,19.2546627 L2.76219469,20.480103 C3.20389316,21.0280618 3.69556267,21.5424193 4.22313094,22.0088161 L5.51663531,20.5458695 C5.07120339,20.1518447 4.65592649,19.717326 4.28286648,19.2546627 Z" id="Path"></path>
                        <path d="M2.54938682,16.1484142 L0.707636496,16.7974639 C0.941696475,17.4614475 1.23463041,18.1104972 1.57868416,18.7268072 L3.28373198,17.7747719 C2.99366998,17.255245 2.74668646,16.7081477 2.54938682,16.1484142 L2.54938682,16.1484142 Z" id="Path"></path>
                        <path d="M1.95289293,12.642397 L0,12.642397 C0,13.3488847 0.0594483766,14.0573828 0.176909124,14.7486495 L2.1022318,14.4218271 C2.00315122,13.8382567 1.95289293,13.2394653 1.95289293,12.642397 Z" id="Path"></path>
                        <path d="M5.91956309,23.2710168 C6.51864168,23.6426408 7.15304474,23.9651553 7.80496632,24.2293703 L8.53873713,22.419498 C7.98905518,22.1966384 7.45430718,21.9249566 6.94885254,21.611345 L5.91956309,23.2710168 Z" id="Path"></path>
                        <path d="M22.0834856,17.0467449 L23.857459,17.8635137 C24.152116,17.2230797 24.393643,16.5533523 24.5754343,15.8727116 L22.6885951,15.3689802 C22.5355228,15.9424988 22.331905,16.5071147 22.0834856,17.0467449 Z" id="Path"></path>
                        <path d="M9.82707205,24.8545832 C10.5131693,25.003922 11.2187955,25.0958229 11.9241345,25.127701 L12.0123019,23.1768184 C11.4166695,23.1501097 10.8213243,23.0722811 10.2426362,22.9462047 L9.82707205,24.8545832 Z" id="Path"></path>
                        <path d="M20.072293,19.9803922 L21.4746425,21.3393759 C21.964876,20.8336341 22.4151901,20.2828034 22.8132357,19.7026793 L21.2026734,18.5981461 C20.8666609,19.0880924 20.4864212,19.5530532 20.072293,19.9803922 Z" id="Path"></path>
                        <path d="M17.2021148,22.0837727 L18.0745984,23.8310375 C18.7041192,23.5165643 19.3118135,23.1458018 19.88045,22.7288018 L18.7259457,21.153851 C18.2460509,21.505659 17.7331294,21.8186962 17.2021148,22.0837727 Z" id="Path"></path>
                        <path d="M13.7980501,23.1087543 L14.0358435,25.0470006 C14.7360131,24.9611307 15.4327363,24.8146637 16.1064844,24.6119075 L15.5435918,22.7420125 C14.9755296,22.9128907 14.3882258,23.0363824 13.7980501,23.1087543 Z" id="Path"></path>
                    </g>
                </g>
                <g id="rotate" transform="translate(99.125475, 117.528517) scale(-1, 1) translate(-99.125475, -117.528517) translate(80.304183, 98.707224)">
                    <path d="M37.6425856,18.8212928 C37.6425856,29.2161398 29.2161398,37.6425856 18.8212928,37.6425856 C8.42644577,37.6425856 0,29.2161398 0,18.8212928 C0,8.42644577 8.42644577,0 18.8212928,0 C29.2161398,0 37.6425856,8.42644577 37.6425856,18.8212928 Z" id="Path" fill="#000000"></path>
                    <g id="Group" transform="translate(6.543340, 6.690381)" fill="#E1E6EA">
                        <path d="M25.1233931,12.642397 C25.1233931,5.68090807 19.4600036,0.0175185799 12.4985147,0.0175185799 C9.3503365,0.0175185799 6.33282971,1.20562423 4.03214951,3.28057295 L4.03214951,0.14388224 L1.82652927,0.14388224 L1.82652927,7.10537114 L8.78801817,7.10537114 L8.78801817,4.8997509 L5.53013327,4.8997509 C7.42673693,3.19757501 9.90920846,2.22313883 12.4985147,2.22313883 C18.2437534,2.22313883 22.9177729,6.89715831 22.9177729,12.642397 L23.0441365,12.642397 C23.0441365,12.9660603 23.0294898,13.2925954 23.0001965,13.6125253 L24.9450481,13.7894344 C24.9795109,13.4109178 24.9970295,13.0249342 24.9973166,12.642397 L24.1653268,12.642397 L25.1233931,12.642397 Z" id="Path"></path>
                        <path d="M4.28286648,19.2546627 L2.76219469,20.480103 C3.20389316,21.0280618 3.69556267,21.5424193 4.22313094,22.0088161 L5.51663531,20.5458695 C5.07120339,20.1518447 4.65592649,19.717326 4.28286648,19.2546627 Z" id="Path"></path>
                        <path d="M2.54938682,16.1484142 L0.707636496,16.7974639 C0.941696475,17.4614475 1.23463041,18.1104972 1.57868416,18.7268072 L3.28373198,17.7747719 C2.99366998,17.255245 2.74668646,16.7081477 2.54938682,16.1484142 L2.54938682,16.1484142 Z" id="Path"></path>
                        <path d="M1.95289293,12.642397 L0,12.642397 C0,13.3488847 0.0594483766,14.0573828 0.176909124,14.7486495 L2.1022318,14.4218271 C2.00315122,13.8382567 1.95289293,13.2394653 1.95289293,12.642397 Z" id="Path"></path>
                        <path d="M5.91956309,23.2710168 C6.51864168,23.6426408 7.15304474,23.9651553 7.80496632,24.2293703 L8.53873713,22.419498 C7.98905518,22.1966384 7.45430718,21.9249566 6.94885254,21.611345 L5.91956309,23.2710168 Z" id="Path"></path>
                        <path d="M22.0834856,17.0467449 L23.857459,17.8635137 C24.152116,17.2230797 24.393643,16.5533523 24.5754343,15.8727116 L22.6885951,15.3689802 C22.5355228,15.9424988 22.331905,16.5071147 22.0834856,17.0467449 Z" id="Path"></path>
                        <path d="M9.82707205,24.8545832 C10.5131693,25.003922 11.2187955,25.0958229 11.9241345,25.127701 L12.0123019,23.1768184 C11.4166695,23.1501097 10.8213243,23.0722811 10.2426362,22.9462047 L9.82707205,24.8545832 Z" id="Path"></path>
                        <path d="M20.072293,19.9803922 L21.4746425,21.3393759 C21.964876,20.8336341 22.4151901,20.2828034 22.8132357,19.7026793 L21.2026734,18.5981461 C20.8666609,19.0880924 20.4864212,19.5530532 20.072293,19.9803922 Z" id="Path"></path>
                        <path d="M17.2021148,22.0837727 L18.0745984,23.8310375 C18.7041192,23.5165643 19.3118135,23.1458018 19.88045,22.7288018 L18.7259457,21.153851 C18.2460509,21.505659 17.7331294,21.8186962 17.2021148,22.0837727 Z" id="Path"></path>
                        <path d="M13.7980501,23.1087543 L14.0358435,25.0470006 C14.7360131,24.9611307 15.4327363,24.8146637 16.1064844,24.6119075 L15.5435918,22.7420125 C14.9755296,22.9128907 14.3882258,23.0363824 13.7980501,23.1087543 Z" id="Path"></path>
                    </g>
                </g>
                <path d="M63.9923485,19.7214633 C50.8372105,20.7936441 42.3573639,26.0363267 38.4142092,35.4560851 C35.9948107,41.2357594 35.4717645,42.4862996 35.0940301,43.3960962 C35.0415299,43.5225462 34.9961487,43.6321477 34.9574633,43.7258885 C34.9553972,43.7852775 34.9522728,43.7986473 34.9428128,43.8391282 C34.91759,43.9587643 34.8473936,44.1544715 34.6772519,44.5972518 C34.3125461,45.5463697 33.5083737,47.5572877 32.1440405,50.9226431 C27.8266203,61.5722794 17.4317491,67.522447 1.11089318,68.7997314 L0.276941258,68.8649972 L0.146409653,67.1970933 L0.980361574,67.1318275 C16.7254118,65.8996062 26.5460032,60.2781642 30.5936021,50.294087 C31.954165,46.9380319 32.7556979,44.9337142 33.1155741,43.9971651 C33.1279674,43.9649124 33.1398453,43.9338609 33.1511805,43.9041158 C33.1487489,43.8573646 33.1509115,43.8406872 33.1565745,43.797017 C33.1719922,43.7066157 33.1719922,43.7066157 33.1820577,43.6712589 C33.1967785,43.6226979 33.1967785,43.6226979 33.2062315,43.5962673 C33.2383012,43.5068572 33.3328096,43.2750691 33.5489076,42.7545837 C33.9276229,41.8424246 34.4502092,40.592984 36.8709619,34.8100746 C41.0907715,24.7294184 50.1779595,19.1382101 63.9924151,18.0430954 L63.992575,13.8019223 L74.0304183,18.8212928 L63.9922159,23.8399451 L63.9923632,19.7214621 L63.9923485,19.7214633 Z" id="Line" fill="#E1E6EA"></path>
                <path d="M63.9923485,73.6758359 C50.8372105,74.7480167 42.3573639,79.9906993 38.4142092,89.4104577 C35.9948107,95.190132 35.4717645,96.4406722 35.0940301,97.3504689 C35.0415299,97.4769188 34.9961487,97.5865203 34.9574633,97.6802611 C34.9553972,97.7396501 34.9522728,97.7530199 34.9428128,97.7935008 C34.91759,97.9131369 34.8473936,98.1088442 34.6772519,98.5516244 C34.3125461,99.5007423 33.5083737,101.51166 32.1440405,104.877016 C27.8266203,115.526652 17.4317491,121.47682 1.11089318,122.754104 L0.276941258,122.81937 L0.146409653,121.151466 L0.980361574,121.0862 C16.7254118,119.853979 26.5460032,114.232537 30.5936021,104.24846 C31.954165,100.892405 32.7556979,98.8880868 33.1155741,97.9515377 C33.1279674,97.9192851 33.1398453,97.8882335 33.1511805,97.8584885 C33.1487489,97.8117372 33.1509115,97.7950598 33.1565745,97.7513897 C33.1719922,97.6609884 33.1719922,97.6609884 33.1820577,97.6256316 C33.1967785,97.5770705 33.1967785,97.5770705 33.2062315,97.5506399 C33.2383012,97.4612298 33.3328096,97.2294418 33.5489076,96.7089563 C33.9276229,95.7967972 34.4502092,94.5473566 36.8709619,88.7644472 C41.0907715,78.683791 50.1779595,73.0925827 63.9924151,71.997468 L63.992575,67.756295 L74.0304183,72.7756654 L63.9922159,77.7943178 L63.9923632,73.6758347 L63.9923485,73.6758359 Z" id="Line" fill="#E1E6EA" transform="translate(37.088414, 95.287832) scale(1, -1) translate(-37.088414, -95.287832) "></path>
                <polygon id="Line-3" fill="#E1E6EA" points="63.9948335 68.8310401 0.211525753 69.0138003 0.206732065 67.3408033 63.9900398 67.1580431 63.9780556 62.9755508 74.0304183 67.9657795 64.0068177 73.0135324 63.9948335 68.8310401"></polygon>
                <path d="M81.6607533,161.410455 C81.6607533,160.26645 81.239702,159.694455 80.3975867,159.694455 C80.2148635,159.694455 80.0341292,159.718288 79.8553783,159.765955 C79.6766274,159.813622 79.5316428,159.873205 79.42042,159.944705 L79.42042,163.174122 C79.5078093,163.190011 79.6190304,163.203914 79.7540867,163.21583 C79.8891429,163.227747 80.0361136,163.233705 80.1950033,163.233705 C80.6796169,163.233705 81.0450577,163.066874 81.2913367,162.733205 C81.5376157,162.399537 81.6607533,161.958625 81.6607533,161.410455 Z M83.4720867,161.458122 C83.4720867,161.958624 83.3986013,162.411453 83.2516283,162.816622 C83.1046554,163.221791 82.8921436,163.567371 82.6140867,163.853372 C82.3360297,164.139373 81.994422,164.35983 81.5892533,164.514747 C81.1840846,164.669664 80.7233115,164.747122 80.20692,164.747122 C79.9924189,164.747122 79.7679906,164.737192 79.5336283,164.71733 C79.299266,164.697469 79.0688795,164.67165 78.8424617,164.639872 C78.6160439,164.608094 78.3995599,164.570358 78.1930033,164.526664 C77.9864467,164.482969 77.8037263,164.437289 77.6448367,164.389622 L77.6448367,155.630872 L79.42042,155.344872 L79.42042,158.467039 C79.6190321,158.379649 79.8255856,158.312122 80.0400867,158.264455 C80.2545877,158.216788 80.4849743,158.192955 80.7312533,158.192955 C81.1761444,158.192955 81.5693905,158.270413 81.9110033,158.42533 C82.2526161,158.580248 82.5386133,158.800704 82.7690033,159.086705 C82.9993934,159.372707 83.1741694,159.716301 83.2933367,160.117497 C83.4125039,160.518693 83.4720867,160.965564 83.4720867,161.458122 Z M87.2377533,163.352872 C87.412532,163.352872 87.5793636,163.3489 87.7382533,163.340955 C87.897143,163.333011 88.0242529,163.321094 88.1195867,163.305205 L88.1195867,161.958622 C88.0480863,161.942733 87.9408374,161.926844 87.7978367,161.910955 C87.6548359,161.895066 87.5237539,161.887122 87.4045867,161.887122 C87.2377525,161.887122 87.0808513,161.897052 86.9338783,161.916914 C86.7869054,161.936775 86.6578094,161.974511 86.5465867,162.030122 C86.4353639,162.085733 86.3479759,162.161205 86.28442,162.256539 C86.2208641,162.351872 86.1890867,162.471038 86.1890867,162.614039 C86.1890867,162.892096 86.2824329,163.084746 86.4691283,163.191997 C86.6558237,163.299248 86.9120295,163.352872 87.2377533,163.352872 Z M87.0947533,158.157205 C87.6190893,158.157205 88.0560294,158.216788 88.4055867,158.335955 C88.755144,158.455123 89.0351828,158.625926 89.2457117,158.848372 C89.4562405,159.070818 89.6051973,159.340926 89.6925867,159.658705 C89.779976,159.976485 89.82367,160.330009 89.82367,160.719289 L89.82367,164.413455 C89.5694465,164.469067 89.2159223,164.534608 88.7630867,164.61008 C88.3102511,164.685553 87.7620899,164.723289 87.1185867,164.723289 C86.713418,164.723289 86.3459911,164.687539 86.016295,164.616039 C85.6865989,164.544538 85.4025879,164.427359 85.1642533,164.264497 C84.9259188,164.101635 84.7431984,163.889123 84.6160867,163.626955 C84.4889749,163.364787 84.42542,163.043041 84.42542,162.661705 C84.42542,162.296259 84.4989054,161.986429 84.6458783,161.732205 C84.7928513,161.477982 84.9894743,161.275401 85.2357533,161.124455 C85.4820323,160.97351 85.7640573,160.864275 86.0818367,160.796747 C86.399616,160.729219 86.7293072,160.695455 87.07092,160.695455 C87.30131,160.695455 87.5058774,160.705386 87.6846283,160.725247 C87.8633792,160.745108 88.0083639,160.770927 88.1195867,160.802705 L88.1195867,160.635872 C88.1195867,160.333982 88.0282265,160.091678 87.8455033,159.908955 C87.6627802,159.726232 87.3450056,159.634872 86.89217,159.634872 C86.5902796,159.634872 86.2923659,159.656719 85.99842,159.700414 C85.7044741,159.744108 85.4502544,159.805677 85.2357533,159.885122 L85.0093367,158.455122 C85.112615,158.423344 85.2417109,158.389581 85.3966283,158.35383 C85.5515458,158.31808 85.7203635,158.286303 85.9030867,158.258497 C86.0858098,158.230691 86.2784606,158.206858 86.481045,158.186997 C86.6836293,158.167136 86.8881967,158.157205 87.0947533,158.157205 Z M91.3728367,156.762955 L93.14842,156.476955 L93.14842,158.324039 L95.2815033,158.324039 L95.2815033,159.801705 L93.14842,159.801705 L93.14842,162.006289 C93.14842,162.379679 93.213961,162.677593 93.345045,162.900039 C93.476129,163.122484 93.7402791,163.233705 94.1375033,163.233705 C94.3281709,163.233705 94.524794,163.215831 94.7273783,163.18008 C94.9299627,163.14433 95.1146692,163.094678 95.2815033,163.031122 L95.5317533,164.413455 C95.3172523,164.500845 95.0789213,164.576316 94.8167533,164.639872 C94.5545853,164.703428 94.2328386,164.735205 93.8515033,164.735205 C93.3668898,164.735205 92.9656994,164.669664 92.64792,164.53858 C92.3301406,164.407496 92.0759209,164.224776 91.8852533,163.990414 C91.6945857,163.756051 91.5615176,163.47204 91.486045,163.138372 C91.4105724,162.804704 91.3728367,162.435289 91.3728367,162.030122 L91.3728367,156.762955 Z M96.18717,161.458122 C96.18717,161.005286 96.2606554,160.578277 96.4076283,160.17708 C96.5546013,159.775884 96.767113,159.426332 97.04517,159.128414 C97.3232269,158.830496 97.6608625,158.594151 98.0580867,158.419372 C98.4553109,158.244593 98.9081397,158.157205 99.4165867,158.157205 C99.750255,158.157205 100.056113,158.186997 100.33417,158.24658 C100.612227,158.306164 100.882335,158.391566 101.144503,158.502789 L100.775087,159.920872 C100.608252,159.857316 100.425532,159.801706 100.22692,159.754039 C100.028308,159.706372 99.8058657,159.682539 99.5595867,159.682539 C99.0352507,159.682539 98.6439907,159.845398 98.385795,160.171122 C98.1275993,160.496846 97.9985033,160.925842 97.9985033,161.458122 C97.9985033,162.02218 98.1196549,162.45912 98.3619617,162.768955 C98.6042684,163.07879 99.0273059,163.233705 99.6310867,163.233705 C99.8455877,163.233705 100.075974,163.213844 100.322253,163.174122 C100.568532,163.1344 100.794947,163.070845 101.001503,162.983455 L101.251753,164.437289 C101.045197,164.524678 100.787005,164.600149 100.47717,164.663705 C100.167335,164.727261 99.8257274,164.759039 99.4523367,164.759039 C98.8803338,164.759039 98.3877832,164.673637 97.97467,164.50283 C97.5615568,164.332024 97.2219352,164.099651 96.955795,163.805705 C96.6896548,163.511759 96.4950178,163.164193 96.3718783,162.762997 C96.2487388,162.361801 96.18717,161.926847 96.18717,161.458122 Z M102.44342,164.592205 L102.44342,155.630872 L104.219003,155.344872 L104.219003,158.347872 C104.338171,158.30815 104.4911,158.270414 104.677795,158.234664 C104.86449,158.198913 105.045225,158.181039 105.220003,158.181039 C105.72845,158.181039 106.151488,158.250552 106.489128,158.38958 C106.826769,158.528609 107.096877,158.725232 107.299462,158.979455 C107.502046,159.233679 107.645045,159.535565 107.728462,159.885122 C107.811879,160.234679 107.853587,160.623953 107.853587,161.052955 L107.853587,164.592205 L106.078003,164.592205 L106.078003,161.267455 C106.078003,160.695452 106.004518,160.29029 105.857545,160.051955 C105.710572,159.813621 105.438478,159.694455 105.041253,159.694455 C104.882364,159.694455 104.733407,159.708358 104.594378,159.736164 C104.45535,159.763969 104.330226,159.793761 104.219003,159.825539 L104.219003,164.592205 L102.44342,164.592205 Z M109.16442,161.505789 C109.16442,160.949675 109.249822,160.463082 109.420628,160.045997 C109.591435,159.628912 109.815863,159.281346 110.09392,159.003289 C110.371977,158.725232 110.691738,158.514706 111.053212,158.371705 C111.414686,158.228705 111.786085,158.157205 112.16742,158.157205 C113.057202,158.157205 113.760279,158.4293 114.27667,158.973497 C114.793061,159.517694 115.051253,160.318089 115.051253,161.374705 C115.051253,161.477984 115.047281,161.591191 115.039337,161.71433 C115.031392,161.83747 115.023448,161.946705 115.015503,162.042039 L110.98767,162.042039 C111.027392,162.407485 111.198196,162.697454 111.500087,162.911955 C111.801977,163.126456 112.20714,163.233705 112.715587,163.233705 C113.041311,163.233705 113.361071,163.203914 113.674878,163.14433 C113.988685,163.084747 114.244891,163.011261 114.443503,162.923872 L114.681837,164.365789 C114.586503,164.413456 114.459393,164.461122 114.300503,164.508789 C114.141614,164.556456 113.964852,164.598163 113.770212,164.633914 C113.575572,164.669664 113.367032,164.699455 113.144587,164.723289 C112.922141,164.747122 112.699699,164.759039 112.477253,164.759039 C111.913195,164.759039 111.42263,164.675623 111.005545,164.508789 C110.58846,164.341954 110.24288,164.113554 109.968795,163.82358 C109.69471,163.533607 109.492129,163.190013 109.361045,162.792789 C109.229961,162.395564 109.16442,161.966569 109.16442,161.505789 Z M113.335253,160.826539 C113.327309,160.675593 113.30149,160.528623 113.257795,160.385622 C113.2141,160.242621 113.146573,160.115511 113.055212,160.004289 C112.96385,159.893066 112.848657,159.801706 112.709628,159.730205 C112.5706,159.658705 112.39781,159.622955 112.191253,159.622955 C111.992641,159.622955 111.821837,159.656719 111.678837,159.724247 C111.535836,159.791775 111.41667,159.881149 111.321337,159.992372 C111.226003,160.103595 111.152517,160.232691 111.100878,160.379664 C111.049239,160.526637 111.011503,160.675593 110.98767,160.826539 L113.335253,160.826539 Z M118.221087,163.317122 C118.546811,163.317122 118.777197,163.285345 118.912253,163.221789 C119.04731,163.158233 119.114837,163.035095 119.114837,162.852372 C119.114837,162.709371 119.027449,162.584248 118.85267,162.476997 C118.677891,162.369746 118.411755,162.248595 118.054253,162.113539 C117.776196,162.01026 117.523963,161.903011 117.297545,161.791789 C117.071127,161.680566 116.878476,161.547498 116.719587,161.39258 C116.560697,161.237663 116.437559,161.052956 116.35017,160.838455 C116.262781,160.623954 116.219087,160.365762 116.219087,160.063872 C116.219087,159.47598 116.437557,159.011235 116.874503,158.669622 C117.31145,158.328009 117.91125,158.157205 118.67392,158.157205 C119.055255,158.157205 119.420696,158.190969 119.770253,158.258497 C120.119811,158.326025 120.397863,158.39951 120.60442,158.478955 L120.294587,159.861289 C120.08803,159.789788 119.863602,159.726233 119.621295,159.670622 C119.378988,159.615011 119.106894,159.587205 118.805003,159.587205 C118.248889,159.587205 117.970837,159.74212 117.970837,160.051955 C117.970837,160.123456 117.982753,160.187011 118.006587,160.242622 C118.03042,160.298233 118.078086,160.351858 118.149587,160.403497 C118.221087,160.455136 118.318405,160.510747 118.441545,160.57033 C118.564684,160.629914 118.721586,160.695455 118.912253,160.766955 C119.301533,160.909956 119.62328,161.050969 119.877503,161.189997 C120.131727,161.329025 120.332322,161.479968 120.479295,161.64283 C120.626268,161.805692 120.729545,161.986427 120.789128,162.185039 C120.848712,162.383651 120.878503,162.614037 120.878503,162.876205 C120.878503,163.495875 120.646131,163.964593 120.181378,164.282372 C119.716626,164.600151 119.05923,164.759039 118.20917,164.759039 C117.653056,164.759039 117.190297,164.711372 116.820878,164.616039 C116.45146,164.520705 116.195254,164.441261 116.052253,164.377705 L116.35017,162.935789 C116.65206,163.054956 116.961891,163.148302 117.27967,163.21583 C117.597449,163.283358 117.911252,163.317122 118.221087,163.317122 Z M66.76492,177.529122 C66.76492,178.546016 66.9118907,179.487423 67.2058367,180.353372 C67.4997826,181.219321 67.9327505,182.021702 68.5047533,182.760539 L67.7182533,183.296789 C67.0985836,182.542063 66.6000747,181.674141 66.2227117,180.692997 C65.8453487,179.711853 65.65667,178.657239 65.65667,177.529122 C65.65667,176.401005 65.8453487,175.346391 66.2227117,174.365247 C66.6000747,173.384103 67.0985836,172.516181 67.7182533,171.761455 L68.5047533,172.297705 C67.9327505,173.036542 67.4997826,173.838923 67.2058367,174.704872 C66.9118907,175.570821 66.76492,176.512228 66.76492,177.529122 Z M73.84342,178.005789 C73.84342,177.282841 73.6646718,176.726735 73.30717,176.337455 C72.9496682,175.948176 72.4730063,175.753539 71.87717,175.753539 C71.5435017,175.753539 71.2833237,175.765455 71.0966283,175.789289 C70.9099329,175.813122 70.7609761,175.840927 70.6497533,175.872705 L70.6497533,179.781372 C70.7848096,179.892595 70.9794465,179.999844 71.23367,180.103122 C71.4878935,180.2064 71.7659463,180.258039 72.0678367,180.258039 C72.385616,180.258039 72.6577105,180.200442 72.8841283,180.085247 C73.1105461,179.970052 73.2952526,179.811165 73.4382533,179.60858 C73.581254,179.405996 73.6845308,179.167665 73.7480867,178.89358 C73.8116425,178.619496 73.84342,178.323568 73.84342,178.005789 Z M74.9993367,178.005789 C74.9993367,178.474513 74.9377678,178.907481 74.8146283,179.304705 C74.6914888,179.70193 74.5107545,180.043537 74.27242,180.329539 C74.0340855,180.61554 73.7421301,180.837982 73.396545,180.996872 C73.0509599,181.155762 72.6557278,181.235205 72.2108367,181.235205 C71.8533349,181.235205 71.5375464,181.187539 71.2634617,181.092205 C70.989377,180.996872 70.7848096,180.905511 70.6497533,180.818122 L70.6497533,183.296789 L69.5415033,183.296789 L69.5415033,175.086205 C69.8036713,175.022649 70.1313764,174.953136 70.5246283,174.877664 C70.9178803,174.802191 71.3726952,174.764455 71.8890867,174.764455 C72.3657557,174.764455 72.7947514,174.839927 73.1760867,174.990872 C73.5574219,175.141817 73.8831409,175.356315 74.1532533,175.634372 C74.4233658,175.912429 74.6319054,176.252051 74.7788783,176.653247 C74.9258513,177.054443 74.9993367,177.505286 74.9993367,178.005789 Z M78.6577533,180.293789 C78.9199213,180.293789 79.152294,180.28783 79.3548783,180.275914 C79.5574627,180.263997 79.7262804,180.24215 79.8613367,180.210372 L79.8613367,178.363289 C79.7818918,178.323566 79.6527959,178.289803 79.474045,178.261997 C79.2952941,178.234191 79.0788102,178.220289 78.8245867,178.220289 C78.6577525,178.220289 78.4809904,178.232205 78.294295,178.256039 C78.1075996,178.279872 77.9367958,178.329524 77.7818783,178.404997 C77.6269609,178.48047 77.497865,178.583746 77.3945867,178.71483 C77.2913084,178.845914 77.23967,179.018704 77.23967,179.233205 C77.23967,179.63043 77.3667798,179.906496 77.6210033,180.061414 C77.8752268,180.216331 78.2208067,180.293789 78.6577533,180.293789 Z M78.56242,174.740622 C79.0073111,174.740622 79.3826824,174.798219 79.688545,174.913414 C79.9944076,175.028609 80.2406829,175.191468 80.4273783,175.401997 C80.6140737,175.612526 80.7471418,175.862773 80.8265867,176.152747 C80.9060315,176.442721 80.9457533,176.762481 80.9457533,177.112039 L80.9457533,180.984955 C80.8504195,181.000844 80.7173514,181.022691 80.546545,181.050497 C80.3757386,181.078303 80.1830877,181.104122 79.9685867,181.127955 C79.7540856,181.151789 79.5217129,181.173636 79.2714617,181.193497 C79.0212104,181.213358 78.772949,181.223289 78.52667,181.223289 C78.1771127,181.223289 77.8553659,181.187539 77.56142,181.116039 C77.2674741,181.044538 77.0132544,180.931331 76.7987533,180.776414 C76.5842523,180.621496 76.4174206,180.416929 76.2982533,180.162705 C76.1790861,179.908482 76.1195033,179.602624 76.1195033,179.245122 C76.1195033,178.903509 76.1890165,178.609568 76.328045,178.363289 C76.4670735,178.11701 76.6557521,177.918401 76.8940867,177.767455 C77.1324212,177.61651 77.410474,177.505289 77.7282533,177.433789 C78.0460327,177.362288 78.379696,177.326539 78.7292533,177.326539 C78.8404761,177.326539 78.9556694,177.332497 79.0748367,177.344414 C79.1940039,177.35633 79.3072111,177.372219 79.4144617,177.39208 C79.5217122,177.411942 79.6150585,177.429816 79.6945033,177.445705 C79.7739482,177.461594 79.8295587,177.473511 79.8613367,177.481455 L79.8613367,177.171622 C79.8613367,176.988899 79.8414757,176.808165 79.8017533,176.629414 C79.7620309,176.450663 79.6905316,176.291775 79.5872533,176.152747 C79.483975,176.013719 79.3429626,175.902497 79.1642117,175.81908 C78.9854608,175.735663 78.7530881,175.693955 78.4670867,175.693955 C78.1016404,175.693955 77.7818797,175.719775 77.507795,175.771414 C77.2337103,175.823053 77.0291429,175.876677 76.8940867,175.932289 L76.7630033,175.014705 C76.906004,174.951149 77.144335,174.889581 77.4780033,174.829997 C77.8116717,174.770413 78.1731403,174.740622 78.56242,174.740622 Z M85.06892,174.764455 C85.1642538,174.764455 85.2734888,174.770414 85.3966283,174.78233 C85.5197678,174.794247 85.6409194,174.810136 85.7600867,174.829997 C85.8792539,174.849858 85.9884889,174.869719 86.087795,174.88958 C86.187101,174.909442 86.2605864,174.927316 86.3082533,174.943205 L86.1175867,175.908455 C86.0301973,175.876677 85.8852127,175.838942 85.6826283,175.795247 C85.480044,175.751552 85.219866,175.729705 84.9020867,175.729705 C84.6955301,175.729705 84.4909627,175.751552 84.2883783,175.795247 C84.085794,175.838942 83.9527259,175.868733 83.88917,175.884622 L83.88917,181.092205 L82.78092,181.092205 L82.78092,175.157705 C83.043088,175.062372 83.3688069,174.972997 83.7580867,174.88958 C84.1473664,174.806163 84.5843065,174.764455 85.06892,174.764455 Z M88.4175033,174.895539 L90.7650867,174.895539 L90.7650867,175.825039 L88.4175033,175.825039 L88.4175033,178.685039 C88.4175033,178.994874 88.4413364,179.251079 88.4890033,179.453664 C88.5366702,179.656248 88.6081695,179.815135 88.7035033,179.93033 C88.7988371,180.045525 88.9180026,180.126955 89.0610033,180.174622 C89.204004,180.222289 89.3708357,180.246122 89.5615033,180.246122 C89.8951717,180.246122 90.163294,180.208386 90.3658783,180.132914 C90.5684627,180.057441 90.7094752,180.003817 90.78892,179.972039 L91.00342,180.889622 C90.8921972,180.945233 90.6975603,181.014747 90.4195033,181.098164 C90.1414464,181.181581 89.8236718,181.223289 89.46617,181.223289 C89.0451123,181.223289 88.6975464,181.169664 88.4234617,181.062414 C88.149377,180.955163 87.9289208,180.79429 87.7620867,180.579789 C87.5952525,180.365288 87.4780731,180.101137 87.410545,179.78733 C87.3430169,179.473523 87.3092533,179.110068 87.3092533,178.696955 L87.3092533,173.167622 L88.4175033,172.976955 L88.4175033,174.895539 Z M93.2795033,181.092205 L92.1712533,181.092205 L92.1712533,174.895539 L93.2795033,174.895539 L93.2795033,181.092205 Z M92.71942,173.775372 C92.5208079,173.775372 92.3519901,173.709831 92.2129617,173.578747 C92.0739332,173.447663 92.00442,173.270901 92.00442,173.048455 C92.00442,172.82601 92.0739332,172.649248 92.2129617,172.518164 C92.3519901,172.38708 92.5208079,172.321539 92.71942,172.321539 C92.9180321,172.321539 93.0868499,172.38708 93.2258783,172.518164 C93.3649068,172.649248 93.43442,172.82601 93.43442,173.048455 C93.43442,173.270901 93.3649068,173.447663 93.2258783,173.578747 C93.0868499,173.709831 92.9180321,173.775372 92.71942,173.775372 Z M96.22292,174.895539 L98.5705033,174.895539 L98.5705033,175.825039 L96.22292,175.825039 L96.22292,178.685039 C96.22292,178.994874 96.2467531,179.251079 96.29442,179.453664 C96.3420869,179.656248 96.4135862,179.815135 96.50892,179.93033 C96.6042538,180.045525 96.7234193,180.126955 96.86642,180.174622 C97.0094207,180.222289 97.1762524,180.246122 97.36692,180.246122 C97.7005883,180.246122 97.9687106,180.208386 98.171295,180.132914 C98.3738793,180.057441 98.5148918,180.003817 98.5943367,179.972039 L98.8088367,180.889622 C98.6976139,180.945233 98.5029769,181.014747 98.22492,181.098164 C97.946863,181.181581 97.6290884,181.223289 97.2715867,181.223289 C96.850529,181.223289 96.502963,181.169664 96.2288783,181.062414 C95.9547936,180.955163 95.7343375,180.79429 95.5675033,180.579789 C95.4006692,180.365288 95.2834898,180.101137 95.2159617,179.78733 C95.1484335,179.473523 95.11467,179.110068 95.11467,178.696955 L95.11467,173.167622 L96.22292,172.976955 L96.22292,174.895539 Z M101.08492,181.092205 L99.97667,181.092205 L99.97667,174.895539 L101.08492,174.895539 L101.08492,181.092205 Z M100.524837,173.775372 C100.326225,173.775372 100.157407,173.709831 100.018378,173.578747 C99.8793499,173.447663 99.8098367,173.270901 99.8098367,173.048455 C99.8098367,172.82601 99.8793499,172.649248 100.018378,172.518164 C100.157407,172.38708 100.326225,172.321539 100.524837,172.321539 C100.723449,172.321539 100.892267,172.38708 101.031295,172.518164 C101.170323,172.649248 101.239837,172.82601 101.239837,173.048455 C101.239837,173.270901 101.170323,173.447663 101.031295,173.578747 C100.892267,173.709831 100.723449,173.775372 100.524837,173.775372 Z M108.461337,177.993872 C108.461337,178.48643 108.389837,178.931314 108.246837,179.328539 C108.103836,179.725763 107.903241,180.067371 107.645045,180.353372 C107.386849,180.639373 107.079005,180.85983 106.721503,181.014747 C106.364002,181.169664 105.974728,181.247122 105.55367,181.247122 C105.132612,181.247122 104.743338,181.169664 104.385837,181.014747 C104.028335,180.85983 103.720491,180.639373 103.462295,180.353372 C103.204099,180.067371 103.003504,179.725763 102.860503,179.328539 C102.717503,178.931314 102.646003,178.48643 102.646003,177.993872 C102.646003,177.509258 102.717503,177.06636 102.860503,176.665164 C103.003504,176.263967 103.204099,175.920373 103.462295,175.634372 C103.720491,175.348371 104.028335,175.127914 104.385837,174.972997 C104.743338,174.81808 105.132612,174.740622 105.55367,174.740622 C105.974728,174.740622 106.364002,174.81808 106.721503,174.972997 C107.079005,175.127914 107.386849,175.348371 107.645045,175.634372 C107.903241,175.920373 108.103836,176.263967 108.246837,176.665164 C108.389837,177.06636 108.461337,177.509258 108.461337,177.993872 Z M107.30542,177.993872 C107.30542,177.294757 107.148519,176.740638 106.834712,176.331497 C106.520905,175.922356 106.093895,175.717789 105.55367,175.717789 C105.013445,175.717789 104.586435,175.922356 104.272628,176.331497 C103.958821,176.740638 103.80192,177.294757 103.80192,177.993872 C103.80192,178.692987 103.958821,179.247106 104.272628,179.656247 C104.586435,180.065388 105.013445,180.269955 105.55367,180.269955 C106.093895,180.269955 106.520905,180.065388 106.834712,179.656247 C107.148519,179.247106 107.30542,178.692987 107.30542,177.993872 Z M110.02242,175.074289 C110.276643,175.010733 110.614279,174.943206 111.035337,174.871705 C111.456394,174.800205 111.941001,174.764455 112.48917,174.764455 C112.981728,174.764455 113.390863,174.833969 113.716587,174.972997 C114.042311,175.112025 114.302488,175.306662 114.497128,175.556914 C114.691768,175.807165 114.828808,176.107065 114.908253,176.456622 C114.987698,176.806179 115.02742,177.191481 115.02742,177.612539 L115.02742,181.092205 L113.91917,181.092205 L113.91917,177.850872 C113.91917,177.469537 113.893351,177.143818 113.841712,176.873705 C113.790073,176.603593 113.704671,176.385123 113.585503,176.218289 C113.466336,176.051454 113.307449,175.930303 113.108837,175.85483 C112.910225,175.779358 112.663949,175.741622 112.370003,175.741622 C112.250836,175.741622 112.127698,175.745594 112.000587,175.753539 C111.873475,175.761483 111.752323,175.771414 111.637128,175.78333 C111.521933,175.795247 111.418657,175.80915 111.327295,175.825039 C111.235933,175.840928 111.170392,175.852844 111.13067,175.860789 L111.13067,181.092205 L110.02242,181.092205 L110.02242,175.074289 Z M116.517003,178.005789 C116.517003,177.457619 116.596447,176.978971 116.755337,176.56983 C116.914226,176.160689 117.124752,175.821068 117.38692,175.550955 C117.649088,175.280843 117.950974,175.078262 118.292587,174.943205 C118.634199,174.808149 118.983752,174.740622 119.341253,174.740622 C120.175424,174.740622 120.814946,175.0008 121.259837,175.521164 C121.704728,176.041527 121.92717,176.833978 121.92717,177.898539 L121.92717,178.083247 C121.92717,178.15872 121.923198,178.228233 121.915253,178.291789 L117.67292,178.291789 C117.720587,178.935292 117.907279,179.42387 118.233003,179.757539 C118.558727,180.091207 119.067167,180.258039 119.758337,180.258039 C120.147616,180.258039 120.475321,180.224275 120.741462,180.156747 C121.007602,180.089219 121.208197,180.023678 121.343253,179.960122 L121.49817,180.889622 C121.363114,180.961122 121.126769,181.036594 120.789128,181.116039 C120.451488,181.195483 120.068172,181.235205 119.63917,181.235205 C119.098945,181.235205 118.632214,181.153776 118.238962,180.990914 C117.84571,180.828052 117.521977,180.603623 117.267753,180.317622 C117.01353,180.031621 116.824851,179.691999 116.701712,179.298747 C116.578572,178.905495 116.517003,178.474513 116.517003,178.005789 Z M120.771253,177.398039 C120.779198,176.897536 120.654074,176.486415 120.395878,176.164664 C120.137683,175.842912 119.782172,175.682039 119.329337,175.682039 C119.075113,175.682039 118.850685,175.731691 118.656045,175.830997 C118.461405,175.930303 118.29656,176.059399 118.161503,176.218289 C118.026447,176.377178 117.921184,176.559899 117.845712,176.766455 C117.770239,176.973012 117.720587,177.183538 117.696753,177.398039 L120.771253,177.398039 Z M127.528003,176.206372 C127.392947,176.095149 127.19831,175.9879 126.944087,175.884622 C126.689863,175.781344 126.41181,175.729705 126.10992,175.729705 C125.792141,175.729705 125.520046,175.787302 125.293628,175.902497 C125.067211,176.017692 124.882504,176.176579 124.739503,176.379164 C124.596503,176.581748 124.493226,176.822065 124.42967,177.100122 C124.366114,177.378179 124.334337,177.676093 124.334337,177.993872 C124.334337,178.71682 124.513085,179.274912 124.870587,179.668164 C125.228088,180.061416 125.70475,180.258039 126.300587,180.258039 C126.602477,180.258039 126.854711,180.244136 127.057295,180.21633 C127.259879,180.188525 127.416781,180.158733 127.528003,180.126955 L127.528003,176.206372 Z M127.528003,172.035539 L128.636253,171.844872 L128.636253,180.913455 C128.38203,180.984956 128.056311,181.056455 127.659087,181.127955 C127.261862,181.199456 126.805061,181.235205 126.28867,181.235205 C125.812001,181.235205 125.383005,181.159734 125.00167,181.008789 C124.620335,180.857843 124.294616,180.643346 124.024503,180.365289 C123.754391,180.087232 123.545851,179.74761 123.398878,179.346414 C123.251905,178.945217 123.17842,178.494374 123.17842,177.993872 C123.17842,177.517203 123.239989,177.080263 123.363128,176.683039 C123.486268,176.285814 123.667002,175.944207 123.905337,175.658205 C124.143671,175.372204 124.435627,175.149762 124.781212,174.990872 C125.126797,174.831982 125.522029,174.752539 125.96692,174.752539 C126.324422,174.752539 126.64021,174.800205 126.914295,174.895539 C127.18838,174.990872 127.392947,175.082233 127.528003,175.169622 L127.528003,172.035539 Z M131.412837,177.529122 C131.412837,176.512228 131.265866,175.570821 130.97192,174.704872 C130.677974,173.838923 130.245006,173.036542 129.673003,172.297705 L130.459503,171.761455 C131.079173,172.516181 131.577682,173.384103 131.955045,174.365247 C132.332408,175.346391 132.521087,176.401005 132.521087,177.529122 C132.521087,178.657239 132.332408,179.711853 131.955045,180.692997 C131.577682,181.674141 131.079173,182.542063 130.459503,183.296789 L129.673003,182.760539 C130.245006,182.021702 130.677974,181.219321 130.97192,180.353372 C131.265866,179.487423 131.412837,178.546016 131.412837,177.529122 Z" id="batches(partitioned)" fill="#001B3D"></path>
            </g>
            <g id="Service" transform="translate(403.193916, 55.907795)" fill-rule="nonzero">
                <g id="mobileme-logo-of-black-cloud" transform="translate(87.083333, 0.000000)" fill="#000000">
                    <path d="M47.2588599,22.7164284 C47.2588599,27.8786587 43.104288,32.0635559 37.9813927,32.0635559 L9.27581906,32.0635559 C4.15303368,32.0635559 0,27.8786587 0,22.7164284 C0,18.0541267 3.38698916,14.1918208 7.81822489,13.4851084 C7.76207905,13.1579024 7.73109446,12.8212471 7.73109446,12.4747032 C7.73109446,9.20385131 10.3628068,6.55269121 13.6100357,6.55269121 C15.0581807,6.55269121 16.385244,7.08030822 17.4090539,7.95820491 C19.234288,3.81429081 21.5741738,0.0325228311 28.1385117,0.0325228311 C36.0995733,0.0325228311 39.8727711,6.21878282 39.8727711,12.7466424 C39.8727711,13.0196804 39.8613442,13.2901912 39.8429951,13.5578453 C44.0744792,14.4266224 47.2588599,18.1966338 47.2588599,22.7164284 Z" id="MobileMe"></path>
                </g>
                <g id="mobileme-logo-of-black-cloud" transform="translate(87.083333, 49.500000)" fill="#000000">
                    <path d="M47.2588599,22.7164284 C47.2588599,27.8786587 43.104288,32.0635559 37.9813927,32.0635559 L9.27581906,32.0635559 C4.15303368,32.0635559 0,27.8786587 0,22.7164284 C0,18.0541267 3.38698916,14.1918208 7.81822489,13.4851084 C7.76207905,13.1579024 7.73109446,12.8212471 7.73109446,12.4747032 C7.73109446,9.20385131 10.3628068,6.55269121 13.6100357,6.55269121 C15.0581807,6.55269121 16.385244,7.08030822 17.4090539,7.95820491 C19.234288,3.81429081 21.5741738,0.0325228311 28.1385117,0.0325228311 C36.0995733,0.0325228311 39.8727711,6.21878282 39.8727711,12.7466424 C39.8727711,13.0196804 39.8613442,13.2901912 39.8429951,13.5578453 C44.0744792,14.4266224 47.2588599,18.1966338 47.2588599,22.7164284 Z" id="MobileMe"></path>
                </g>
                <g id="mobileme-logo-of-black-cloud" transform="translate(87.083333, 99.000000)" fill="#000000">
                    <path d="M47.2588599,22.7164284 C47.2588599,27.8786587 43.104288,32.0635559 37.9813927,32.0635559 L9.27581906,32.0635559 C4.15303368,32.0635559 0,27.8786587 0,22.7164284 C0,18.0541267 3.38698916,14.1918208 7.81822489,13.4851084 C7.76207905,13.1579024 7.73109446,12.8212471 7.73109446,12.4747032 C7.73109446,9.20385131 10.3628068,6.55269121 13.6100357,6.55269121 C15.0581807,6.55269121 16.385244,7.08030822 17.4090539,7.95820491 C19.234288,3.81429081 21.5741738,0.0325228311 28.1385117,0.0325228311 C36.0995733,0.0325228311 39.8727711,6.21878282 39.8727711,12.7466424 C39.8727711,13.0196804 39.8613442,13.2901912 39.8429951,13.5578453 C44.0744792,14.4266224 47.2588599,18.1966338 47.2588599,22.7164284 Z" id="MobileMe"></path>
                </g>
                <polygon id="Line-3" fill="#E1E6EA" points="63.9948335 66.0810401 0.211525753 66.2638003 0.206732065 64.5908033 63.9900398 64.4080431 63.9780556 60.2255508 74.0304183 65.2157795 64.0068177 70.2635324 63.9948335 66.0810401"></polygon>
                <polygon id="Line-3" fill="#E1E6EA" points="63.9948335 16.7274279 0.211525753 16.9101881 0.206732065 15.2371912 63.9900398 15.054431 63.9780556 10.8719386 74.0304183 15.8621673 64.0068177 20.9099202 63.9948335 16.7274279"></polygon>
                <polygon id="Line-3" fill="#E1E6EA" points="63.9948335 115.434652 0.211525753 115.617412 0.206732065 113.944415 63.9900398 113.761655 63.9780556 109.579163 74.0304183 114.569392 64.0068177 119.617145 63.9948335 115.434652"></polygon>
                <path d="M92.8538337,160.567122 C93.1795575,160.567122 93.4099441,160.535345 93.5450003,160.471789 C93.6800565,160.408233 93.7475837,160.285095 93.7475837,160.102372 C93.7475837,159.959371 93.6601956,159.834248 93.485417,159.726997 C93.3106383,159.619746 93.0445021,159.498595 92.6870003,159.363539 C92.4089434,159.26026 92.1567098,159.153011 91.930292,159.041789 C91.7038742,158.930566 91.5112233,158.797498 91.3523337,158.64258 C91.193444,158.487663 91.0703063,158.302956 90.982917,158.088455 C90.8955277,157.873954 90.8518337,157.615762 90.8518337,157.313872 C90.8518337,156.72598 91.0703037,156.261235 91.5072503,155.919622 C91.9441969,155.578009 92.5439965,155.407205 93.306667,155.407205 C93.6880022,155.407205 94.053443,155.440969 94.4030003,155.508497 C94.7525576,155.576025 95.0306104,155.64951 95.237167,155.728955 L94.9273337,157.111289 C94.7207771,157.039788 94.4963488,156.976233 94.254042,156.920622 C94.0117352,156.865011 93.7396407,156.837205 93.4377503,156.837205 C92.8816364,156.837205 92.6035837,156.99212 92.6035837,157.301955 C92.6035837,157.373456 92.6155002,157.437011 92.6393337,157.492622 C92.6631671,157.548233 92.7108333,157.601858 92.7823337,157.653497 C92.853834,157.705136 92.9511525,157.760747 93.074292,157.82033 C93.1974315,157.879914 93.3543327,157.945455 93.5450003,158.016955 C93.93428,158.159956 94.2560268,158.300969 94.5102503,158.439997 C94.7644738,158.579025 94.965069,158.729968 95.112042,158.89283 C95.2590149,159.055692 95.3622917,159.236427 95.4218753,159.435039 C95.4814589,159.633651 95.5112503,159.864037 95.5112503,160.126205 C95.5112503,160.745875 95.2788776,161.214593 94.8141253,161.532372 C94.349373,161.850151 93.6919768,162.009039 92.841917,162.009039 C92.2858031,162.009039 91.8230438,161.961372 91.4536253,161.866039 C91.0842068,161.770705 90.828001,161.691261 90.6850003,161.627705 L90.982917,160.185789 C91.2848074,160.304956 91.5946376,160.398302 91.912417,160.46583 C92.2301964,160.533358 92.5439988,160.567122 92.8538337,160.567122 Z M96.5360837,158.755789 C96.5360837,158.199675 96.6214856,157.713082 96.792292,157.295997 C96.9630984,156.878912 97.1875267,156.531346 97.4655837,156.253289 C97.7436406,155.975232 98.0634013,155.764706 98.4248753,155.621705 C98.7863493,155.478705 99.1577484,155.407205 99.5390837,155.407205 C100.428866,155.407205 101.131942,155.6793 101.648334,156.223497 C102.164725,156.767694 102.422917,157.568089 102.422917,158.624705 C102.422917,158.727984 102.418945,158.841191 102.411,158.96433 C102.403056,159.08747 102.395111,159.196705 102.387167,159.292039 L98.3593337,159.292039 C98.3990561,159.657485 98.5698599,159.947454 98.8717503,160.161955 C99.1736407,160.376456 99.5788033,160.483705 100.08725,160.483705 C100.412974,160.483705 100.732735,160.453914 101.046542,160.39433 C101.360349,160.334747 101.616555,160.261261 101.815167,160.173872 L102.0535,161.615789 C101.958167,161.663456 101.831057,161.711122 101.672167,161.758789 C101.513277,161.806456 101.336515,161.848163 101.141875,161.883914 C100.947235,161.919664 100.738696,161.949455 100.51625,161.973289 C100.293805,161.997122 100.071363,162.009039 99.848917,162.009039 C99.2848586,162.009039 98.7942941,161.925623 98.3772087,161.758789 C97.9601232,161.591954 97.6145434,161.363554 97.3404587,161.07358 C97.0663739,160.783607 96.8637926,160.440013 96.7327087,160.042789 C96.6016247,159.645564 96.5360837,159.216569 96.5360837,158.755789 Z M100.706917,158.076539 C100.698972,157.925593 100.673153,157.778623 100.629459,157.635622 C100.585764,157.492621 100.518237,157.365511 100.426875,157.254289 C100.335514,157.143066 100.22032,157.051706 100.081292,156.980205 C99.9422635,156.908705 99.7694736,156.872955 99.562917,156.872955 C99.3643049,156.872955 99.193501,156.906719 99.0505003,156.974247 C98.9074996,157.041775 98.7883341,157.131149 98.6930003,157.242372 C98.5976665,157.353595 98.5241811,157.482691 98.472542,157.629664 C98.4209028,157.776637 98.3831671,157.925593 98.3593337,158.076539 L100.706917,158.076539 Z M107.570917,157.147039 C107.412027,157.107316 107.225335,157.065608 107.010834,157.021914 C106.796333,156.978219 106.565946,156.956372 106.319667,156.956372 C106.208444,156.956372 106.075376,156.966302 105.920459,156.986164 C105.765541,157.006025 105.648362,157.027872 105.568917,157.051705 L105.568917,161.842205 L103.793334,161.842205 L103.793334,155.907705 C104.111113,155.796483 104.486484,155.69122 104.919459,155.591914 C105.352433,155.492608 105.835053,155.442955 106.367334,155.442955 C106.462667,155.442955 106.577861,155.448914 106.712917,155.46083 C106.847973,155.472747 106.983027,155.488636 107.118084,155.508497 C107.25314,155.528358 107.388194,155.552191 107.52325,155.579997 C107.658307,155.607803 107.7735,155.641566 107.868834,155.681289 L107.570917,157.147039 Z M110.895667,161.842205 C110.490498,161.047757 110.079377,160.118266 109.662292,159.053705 C109.245207,157.989144 108.849974,156.829267 108.476584,155.574039 L110.359417,155.574039 C110.438862,155.883874 110.532208,156.219523 110.639459,156.580997 C110.746709,156.942471 110.85793,157.307912 110.973125,157.67733 C111.08832,158.046749 111.203514,158.406231 111.318709,158.755789 C111.433904,159.105346 111.547111,159.423121 111.658334,159.709122 C111.761612,159.423121 111.872833,159.105346 111.992,158.755789 C112.111168,158.406231 112.228347,158.046749 112.343542,157.67733 C112.458737,157.307912 112.569958,156.942471 112.677209,156.580997 C112.784459,156.219523 112.877805,155.883874 112.95725,155.574039 L114.792417,155.574039 C114.419026,156.829267 114.023794,157.989144 113.606709,159.053705 C113.189623,160.118266 112.778502,161.047757 112.373334,161.842205 L110.895667,161.842205 Z M117.521334,161.842205 L115.74575,161.842205 L115.74575,155.574039 L117.521334,155.574039 L117.521334,161.842205 Z M117.688167,153.762705 C117.688167,154.088429 117.582904,154.344635 117.372375,154.53133 C117.161846,154.718026 116.913585,154.811372 116.627584,154.811372 C116.341582,154.811372 116.093321,154.718026 115.882792,154.53133 C115.672263,154.344635 115.567,154.088429 115.567,153.762705 C115.567,153.436981 115.672263,153.180776 115.882792,152.99408 C116.093321,152.807385 116.341582,152.714039 116.627584,152.714039 C116.913585,152.714039 117.161846,152.807385 117.372375,152.99408 C117.582904,153.180776 117.688167,153.436981 117.688167,153.762705 Z M118.89175,158.708122 C118.89175,158.255286 118.965236,157.828277 119.112209,157.42708 C119.259182,157.025884 119.471693,156.676332 119.74975,156.378414 C120.027807,156.080496 120.365443,155.844151 120.762667,155.669372 C121.159891,155.494593 121.61272,155.407205 122.121167,155.407205 C122.454835,155.407205 122.760693,155.436997 123.03875,155.49658 C123.316807,155.556164 123.586916,155.641566 123.849084,155.752789 L123.479667,157.170872 C123.312833,157.107316 123.130112,157.051706 122.9315,157.004039 C122.732888,156.956372 122.510446,156.932539 122.264167,156.932539 C121.739831,156.932539 121.348571,157.095398 121.090375,157.421122 C120.83218,157.746846 120.703084,158.175842 120.703084,158.708122 C120.703084,159.27218 120.824235,159.70912 121.066542,160.018955 C121.308849,160.32879 121.731886,160.483705 122.335667,160.483705 C122.550168,160.483705 122.780555,160.463844 123.026834,160.424122 C123.273113,160.3844 123.499527,160.320845 123.706084,160.233455 L123.956334,161.687289 C123.749777,161.774678 123.491585,161.850149 123.18175,161.913705 C122.871915,161.977261 122.530308,162.009039 122.156917,162.009039 C121.584914,162.009039 121.092363,161.923637 120.67925,161.75283 C120.266137,161.582024 119.926516,161.349651 119.660375,161.055705 C119.394235,160.761759 119.199598,160.414193 119.076459,160.012997 C118.953319,159.611801 118.89175,159.176847 118.89175,158.708122 Z M124.552167,158.755789 C124.552167,158.199675 124.637569,157.713082 124.808375,157.295997 C124.979182,156.878912 125.20361,156.531346 125.481667,156.253289 C125.759724,155.975232 126.079485,155.764706 126.440959,155.621705 C126.802433,155.478705 127.173832,155.407205 127.555167,155.407205 C128.444949,155.407205 129.148026,155.6793 129.664417,156.223497 C130.180808,156.767694 130.439,157.568089 130.439,158.624705 C130.439,158.727984 130.435028,158.841191 130.427084,158.96433 C130.419139,159.08747 130.411195,159.196705 130.40325,159.292039 L126.375417,159.292039 C126.415139,159.657485 126.585943,159.947454 126.887834,160.161955 C127.189724,160.376456 127.594887,160.483705 128.103334,160.483705 C128.429058,160.483705 128.748818,160.453914 129.062625,160.39433 C129.376432,160.334747 129.632638,160.261261 129.83125,160.173872 L130.069584,161.615789 C129.97425,161.663456 129.84714,161.711122 129.68825,161.758789 C129.529361,161.806456 129.352599,161.848163 129.157959,161.883914 C128.963319,161.919664 128.754779,161.949455 128.532334,161.973289 C128.309888,161.997122 128.087446,162.009039 127.865,162.009039 C127.300942,162.009039 126.810377,161.925623 126.393292,161.758789 C125.976207,161.591954 125.630627,161.363554 125.356542,161.07358 C125.082457,160.783607 124.879876,160.440013 124.748792,160.042789 C124.617708,159.645564 124.552167,159.216569 124.552167,158.755789 Z M128.723,158.076539 C128.715056,157.925593 128.689237,157.778623 128.645542,157.635622 C128.601847,157.492621 128.53432,157.365511 128.442959,157.254289 C128.351597,157.143066 128.236404,157.051706 128.097375,156.980205 C127.958347,156.908705 127.785557,156.872955 127.579,156.872955 C127.380388,156.872955 127.209584,156.906719 127.066584,156.974247 C126.923583,157.041775 126.804417,157.131149 126.709084,157.242372 C126.61375,157.353595 126.540264,157.482691 126.488625,157.629664 C126.436986,157.776637 126.39925,157.925593 126.375417,158.076539 L128.723,158.076539 Z" id="service" fill="#001B3D"></path>
            </g>
            <g id="Sink" transform="translate(107.954373, 0.724968)" fill-rule="nonzero">
                <polygon id="Line-4" fill="#000000" points="1.04562738 23.2750317 332.045627 23.2750317 332.045627 21.2750317 1.04562738 21.2750317"></polygon>
                <polygon id="Line-5" fill="#000000" points="0.372623574 21.5589354 0.372623574 35.7794677 2.04562738 35.7794677 2.04562738 21.5589354"></polygon>
                <polygon id="Line-5" fill="#000000" points="330.790875 21.5589354 330.790875 35.7794677 332.463878 35.7794677 332.463878 21.5589354"></polygon>
                <path d="M150.220562,6.71488831 C150.220562,5.00757486 151.723651,3.87208888 153.970116,3.87208888 C156.257426,3.87208888 157.605305,4.82785765 157.736009,6.55150903 L155.538558,6.55150903 C155.416023,5.9715126 154.868702,5.61207818 153.986454,5.61207818 C153.136882,5.61207818 152.507872,5.99601949 152.507872,6.56784696 C152.507872,7.00897101 152.891813,7.27854682 153.725048,7.46643298 L155.416023,7.83403636 C157.164181,8.21797766 157.948402,8.95318441 157.948402,10.3010635 C157.948402,12.0982355 156.339116,13.2745663 153.978285,13.2745663 C151.601117,13.2745663 150.163379,12.3024596 150,10.5706393 L152.319986,10.5706393 C152.499703,11.1833115 153.079699,11.534577 154.027299,11.534577 C154.950392,11.534577 155.587571,11.1506357 155.587571,10.5706393 C155.587571,10.1295152 155.244475,9.8599394 154.452085,9.68839116 L152.818293,9.32078779 C151.070134,8.93684648 150.220562,8.10361217 150.220562,6.71488831 Z M159.917122,13.0785112 L159.917122,4.06814401 L162.294291,4.06814401 L162.294291,13.0785112 L159.917122,13.0785112 Z M161.109791,2.72026497 C160.374584,2.72026497 159.761912,2.11576164 159.761912,1.356048 C159.761912,0.596334363 160.374584,8.8817842e-16 161.109791,8.8817842e-16 C161.853167,8.8817842e-16 162.45767,0.596334363 162.45767,1.356048 C162.45767,2.11576164 161.853167,2.72026497 161.109791,2.72026497 Z M164.695966,13.0785112 L164.695966,4.06814401 L166.999614,4.06814401 L166.999614,5.51405062 L167.146655,5.51405062 C167.563272,4.5010991 168.478196,3.87208888 169.809737,3.87208888 C171.811134,3.87208888 172.889437,5.09743346 172.889437,7.25403992 L172.889437,13.0785112 L170.512268,13.0785112 L170.512268,7.81769843 C170.512268,6.57601592 169.981286,5.92249881 168.853969,5.92249881 C167.751159,5.92249881 167.073135,6.69855038 167.073135,7.88305014 L167.073135,13.0785112 L164.695966,13.0785112 Z M177.798984,7.58896744 L180.813332,4.06814401 L183.517259,4.06814401 L180.086294,7.93206393 L183.754159,13.0785112 L180.935866,13.0785112 L178.30546,9.41881535 L177.651943,10.0886704 L177.651943,13.0785112 L175.274774,13.0785112 L175.274774,0.629010219 L177.651943,0.629010219 L177.651943,7.58896744 L177.798984,7.58896744 Z" id="sink" fill="#001B3D"></path>
            </g>
        </g>
    </g>
</svg>