<?xml version="1.0" encoding="UTF-8"?>
<svg width="601px" height="251px" viewBox="0 0 601 251" version="1.1" xmlns="http://www.w3.org/2000/svg" xmlns:xlink="http://www.w3.org/1999/xlink">
    <!-- Generator: Sketch 54.1 (76490) - https://sketchapp.com -->
    <title>Group 2</title>
    <desc>Created with Sketch.</desc>
    <g id="Buffers-&amp;-Batching-(partitioned)" stroke="none" stroke-width="1" fill="none" fill-rule="evenodd">
        <g id="Group-2" transform="translate(0.000000, -7.500000)">
            <path d="M118.174905,55.6653992 L118.174905,62.5095057 L118.174905,63.4220532 L120,63.4220532 L120,62.5095057 L120,55.6653992 L120,54.7528517 L118.174905,54.7528517 L118.174905,55.6653992 Z M118.174905,69.3536122 L118.174905,76.1977186 L118.174905,77.1102662 L120,77.1102662 L120,76.1977186 L120,69.3536122 L120,68.4410646 L118.174905,68.4410646 L118.174905,69.3536122 Z M118.174905,83.0418251 L118.174905,89.8859316 L118.174905,90.7984791 L120,90.7984791 L120,89.8859316 L120,83.0418251 L120,82.1292776 L118.174905,82.1292776 L118.174905,83.0418251 Z M118.174905,96.730038 L118.174905,103.574144 L118.174905,104.486692 L120,104.486692 L120,103.574144 L120,96.730038 L120,95.8174905 L118.174905,95.8174905 L118.174905,96.730038 Z M118.174905,110.418251 L118.174905,117.262357 L118.174905,118.174905 L120,118.174905 L120,117.262357 L120,110.418251 L120,109.505703 L118.174905,109.505703 L118.174905,110.418251 Z M118.174905,124.106464 L118.174905,130.95057 L118.174905,131.863118 L120,131.863118 L120,130.95057 L120,124.106464 L120,123.193916 L118.174905,123.193916 L118.174905,124.106464 Z M118.174905,137.794677 L118.174905,144.638783 L118.174905,145.551331 L120,145.551331 L120,144.638783 L120,137.794677 L120,136.882129 L118.174905,136.882129 L118.174905,137.794677 Z M118.174905,151.48289 L118.174905,158.326996 L118.174905,159.239544 L120,159.239544 L120,158.326996 L120,151.48289 L120,150.570342 L118.174905,150.570342 L118.174905,151.48289 Z M118.174905,165.171103 L118.174905,172.015209 L118.174905,172.927757 L120,172.927757 L120,172.015209 L120,165.171103 L120,164.258555 L118.174905,164.258555 L118.174905,165.171103 Z M118.174905,178.859316 L118.174905,185.703422 L118.174905,186.61597 L120,186.61597 L120,185.703422 L120,178.859316 L120,177.946768 L118.174905,177.946768 L118.174905,178.859316 Z M118.174905,192.547529 L118.174905,199.391635 L118.174905,200.304183 L120,200.304183 L120,199.391635 L120,192.547529 L120,191.634981 L118.174905,191.634981 L118.174905,192.547529 Z M118.174905,206.235741 L118.174905,213.079848 L118.174905,213.992395 L120,213.992395 L120,213.079848 L120,206.235741 L120,205.323194 L118.174905,205.323194 L118.174905,206.235741 Z M118.174905,219.923954 L118.174905,226.768061 L118.174905,227.680608 L120,227.680608 L120,226.768061 L120,219.923954 L120,219.011407 L118.174905,219.011407 L118.174905,219.923954 Z M118.174905,233.612167 L118.174905,240.456274 L118.174905,241.368821 L120,241.368821 L120,240.456274 L120,233.612167 L120,232.69962 L118.174905,232.69962 L118.174905,233.612167 Z M118.174905,247.30038 L118.174905,254.144487 L118.174905,255.057034 L120,255.057034 L120,254.144487 L120,247.30038 L120,246.387833 L118.174905,246.387833 L118.174905,247.30038 Z" id="Line-2" fill="#E1E6EA" fill-rule="nonzero"></path>
            <path d="M338.555133,58.4030418 L338.555133,65.2471483 L338.555133,66.1596958 L340.380228,66.1596958 L340.380228,65.2471483 L340.380228,58.4030418 L340.380228,57.4904943 L338.555133,57.4904943 L338.555133,58.4030418 Z M338.555133,72.0912548 L338.555133,78.9353612 L338.555133,79.8479087 L340.380228,79.8479087 L340.380228,78.9353612 L340.380228,72.0912548 L340.380228,71.1787072 L338.555133,71.1787072 L338.555133,72.0912548 Z M338.555133,85.7794677 L338.555133,92.6235741 L338.555133,93.5361217 L340.380228,93.5361217 L340.380228,92.6235741 L340.380228,85.7794677 L340.380228,84.8669202 L338.555133,84.8669202 L338.555133,85.7794677 Z M338.555133,99.4676806 L338.555133,106.311787 L338.555133,107.224335 L340.380228,107.224335 L340.380228,106.311787 L340.380228,99.4676806 L340.380228,98.5551331 L338.555133,98.5551331 L338.555133,99.4676806 Z M338.555133,113.155894 L338.555133,120 L338.555133,120.912548 L340.380228,120.912548 L340.380228,120 L340.380228,113.155894 L340.380228,112.243346 L338.555133,112.243346 L338.555133,113.155894 Z M338.555133,126.844106 L338.555133,133.688213 L338.555133,134.60076 L340.380228,134.60076 L340.380228,133.688213 L340.380228,126.844106 L340.380228,125.931559 L338.555133,125.931559 L338.555133,126.844106 Z M338.555133,140.532319 L338.555133,147.376426 L338.555133,148.288973 L340.380228,148.288973 L340.380228,147.376426 L340.380228,140.532319 L340.380228,139.619772 L338.555133,139.619772 L338.555133,140.532319 Z M338.555133,154.220532 L338.555133,161.064639 L338.555133,161.977186 L340.380228,161.977186 L340.380228,161.064639 L340.380228,154.220532 L340.380228,153.307985 L338.555133,153.307985 L338.555133,154.220532 Z M338.555133,167.908745 L338.555133,174.752852 L338.555133,175.665399 L340.380228,175.665399 L340.380228,174.752852 L340.380228,167.908745 L340.380228,166.996198 L338.555133,166.996198 L338.555133,167.908745 Z M338.555133,181.596958 L338.555133,188.441065 L338.555133,189.353612 L340.380228,189.353612 L340.380228,188.441065 L340.380228,181.596958 L340.380228,180.684411 L338.555133,180.684411 L338.555133,181.596958 Z M338.555133,195.285171 L338.555133,202.129278 L338.555133,203.041825 L340.380228,203.041825 L340.380228,202.129278 L340.380228,195.285171 L340.380228,194.372624 L338.555133,194.372624 L338.555133,195.285171 Z M338.555133,208.973384 L338.555133,215.81749 L338.555133,216.730038 L340.380228,216.730038 L340.380228,215.81749 L340.380228,208.973384 L340.380228,208.060837 L338.555133,208.060837 L338.555133,208.973384 Z M338.555133,222.661597 L338.555133,229.505703 L338.555133,230.418251 L340.380228,230.418251 L340.380228,229.505703 L340.380228,222.661597 L340.380228,221.749049 L338.555133,221.749049 L338.555133,222.661597 Z M338.555133,236.34981 L338.555133,243.193916 L338.555133,244.106464 L340.380228,244.106464 L340.380228,243.193916 L340.380228,236.34981 L340.380228,235.437262 L338.555133,235.437262 L338.555133,236.34981 Z M338.555133,250.038023 L338.555133,256.882129 L338.555133,257.794677 L340.380228,257.794677 L340.380228,256.882129 L340.380228,250.038023 L340.380228,249.125475 L338.555133,249.125475 L338.555133,250.038023 Z" id="Line-2" fill="#E1E6EA" fill-rule="nonzero"></path>
            <path d="M478.174905,58.4030418 L478.174905,65.2471483 L478.174905,66.1596958 L480,66.1596958 L480,65.2471483 L480,58.4030418 L480,57.4904943 L478.174905,57.4904943 L478.174905,58.4030418 Z M478.174905,72.0912548 L478.174905,78.9353612 L478.174905,79.8479087 L480,79.8479087 L480,78.9353612 L480,72.0912548 L480,71.1787072 L478.174905,71.1787072 L478.174905,72.0912548 Z M478.174905,85.7794677 L478.174905,92.6235741 L478.174905,93.5361217 L480,93.5361217 L480,92.6235741 L480,85.7794677 L480,84.8669202 L478.174905,84.8669202 L478.174905,85.7794677 Z M478.174905,99.4676806 L478.174905,106.311787 L478.174905,107.224335 L480,107.224335 L480,106.311787 L480,99.4676806 L480,98.5551331 L478.174905,98.5551331 L478.174905,99.4676806 Z M478.174905,113.155894 L478.174905,120 L478.174905,120.912548 L480,120.912548 L480,120 L480,113.155894 L480,112.243346 L478.174905,112.243346 L478.174905,113.155894 Z M478.174905,126.844106 L478.174905,133.688213 L478.174905,134.60076 L480,134.60076 L480,133.688213 L480,126.844106 L480,125.931559 L478.174905,125.931559 L478.174905,126.844106 Z M478.174905,140.532319 L478.174905,147.376426 L478.174905,148.288973 L480,148.288973 L480,147.376426 L480,140.532319 L480,139.619772 L478.174905,139.619772 L478.174905,140.532319 Z M478.174905,154.220532 L478.174905,161.064639 L478.174905,161.977186 L480,161.977186 L480,161.064639 L480,154.220532 L480,153.307985 L478.174905,153.307985 L478.174905,154.220532 Z M478.174905,167.908745 L478.174905,174.752852 L478.174905,175.665399 L480,175.665399 L480,174.752852 L480,167.908745 L480,166.996198 L478.174905,166.996198 L478.174905,167.908745 Z M478.174905,181.596958 L478.174905,188.441065 L478.174905,189.353612 L480,189.353612 L480,188.441065 L480,181.596958 L480,180.684411 L478.174905,180.684411 L478.174905,181.596958 Z M478.174905,195.285171 L478.174905,202.129278 L478.174905,203.041825 L480,203.041825 L480,202.129278 L480,195.285171 L480,194.372624 L478.174905,194.372624 L478.174905,195.285171 Z M478.174905,208.973384 L478.174905,215.81749 L478.174905,216.730038 L480,216.730038 L480,215.81749 L480,208.973384 L480,208.060837 L478.174905,208.060837 L478.174905,208.973384 Z M478.174905,222.661597 L478.174905,229.505703 L478.174905,230.418251 L480,230.418251 L480,229.505703 L480,222.661597 L480,221.749049 L478.174905,221.749049 L478.174905,222.661597 Z M478.174905,236.34981 L478.174905,243.193916 L478.174905,244.106464 L480,244.106464 L480,243.193916 L480,236.34981 L480,235.437262 L478.174905,235.437262 L478.174905,236.34981 Z M478.174905,250.038023 L478.174905,256.882129 L478.174905,257.794677 L480,257.794677 L480,256.882129 L480,250.038023 L480,249.125475 L478.174905,249.125475 L478.174905,250.038023 Z" id="Line-2" fill="#E1E6EA" fill-rule="nonzero"></path>
            <g id="Incoming-events" transform="translate(0.000000, 147.604563)" fill="#001B3D">
                <circle id="Oval" cx="76.4258555" cy="7.98479087" r="7.98479087"></circle>
                <circle id="Oval" cx="99.2395437" cy="7.98479087" r="7.98479087"></circle>
                <circle id="Oval" cx="53.6121673" cy="7.98479087" r="7.98479087"></circle>
                <circle id="Oval" cx="30.7984791" cy="7.98479087" r="7.98479087"></circle>
                <circle id="Oval" cx="7.98479087" cy="7.98479087" r="7.98479087"></circle>
                <path d="M6.05364781,47.9087452 L6.05364781,41.5195758 L7.73927638,41.5195758 L7.73927638,47.9087452 L6.05364781,47.9087452 Z M6.89935837,40.563807 C6.37802994,40.563807 5.94358959,40.1351592 5.94358959,39.5964532 C5.94358959,39.0577471 6.37802994,38.6348919 6.89935837,38.6348919 C7.42647933,38.6348919 7.85512714,39.0577471 7.85512714,39.5964532 C7.85512714,40.1351592 7.42647933,40.563807 6.89935837,40.563807 Z M9.44228256,47.9087452 L9.44228256,41.5195758 L11.0757783,41.5195758 L11.0757783,42.544855 L11.180044,42.544855 C11.4754634,41.8265803 12.1242277,41.3805549 13.0684114,41.3805549 C14.4875832,41.3805549 15.2521982,42.2494356 15.2521982,43.7786656 L15.2521982,47.9087452 L13.5665696,47.9087452 L13.5665696,44.1783508 C13.5665696,43.297885 13.1900547,42.8344819 12.3906844,42.8344819 C11.6086918,42.8344819 11.1279111,43.3847731 11.1279111,44.2246911 L11.1279111,47.9087452 L9.44228256,47.9087452 Z M22.539211,43.7728731 L20.9636407,43.7728731 C20.8477899,43.1646566 20.4133496,42.7649715 19.6950749,42.7649715 C18.7856464,42.7649715 18.275903,43.4426984 18.275903,44.6996792 C18.275903,45.9740375 18.7914389,46.6633496 19.6950749,46.6633496 C20.3843869,46.6633496 20.8362048,46.3273824 20.9636407,45.6959957 L22.539211,45.6959957 C22.4001901,47.1267526 21.3575333,48.0477662 19.6950749,48.0477662 C17.7024418,48.0477662 16.5728969,46.8429183 16.5728969,44.6996792 C16.5728969,42.5796103 17.6966492,41.3805549 19.6950749,41.3805549 C21.386496,41.3805549 22.4001901,42.3189461 22.539211,43.7728731 Z M26.6866683,48.0477662 C24.7229979,48.0477662 23.5413201,46.8023705 23.5413201,44.7112643 C23.5413201,42.6433282 24.7403755,41.3805549 26.6866683,41.3805549 C28.632961,41.3805549 29.8320164,42.6375356 29.8320164,44.7112643 C29.8320164,46.8023705 28.6503386,48.0477662 26.6866683,48.0477662 Z M26.6866683,46.6691421 C27.5845116,46.6691421 28.1000475,45.9508674 28.1000475,44.7112643 C28.1000475,43.4832462 27.5787191,42.7591789 26.6866683,42.7591789 C25.7888249,42.7591789 25.273289,43.4832462 25.273289,44.7112643 C25.273289,45.9566599 25.7830323,46.6691421 26.6866683,46.6691421 Z M31.2048479,47.9087452 L31.2048479,41.5195758 L32.8383436,41.5195758 L32.8383436,42.5622327 L32.9426093,42.5622327 C33.2032735,41.8323729 33.8694154,41.3805549 34.7093334,41.3805549 C35.6071768,41.3805549 36.2211858,41.8207878 36.4760575,42.5622327 L36.5803232,42.5622327 C36.8757426,41.8497505 37.611395,41.3805549 38.5034458,41.3805549 C39.7778042,41.3805549 40.5713819,42.2088878 40.5713819,43.523794 L40.5713819,47.9087452 L38.8857533,47.9087452 L38.8857533,43.9698194 C38.8857533,43.2109969 38.5324085,42.8344819 37.8199263,42.8344819 C37.1364068,42.8344819 36.696174,43.3210551 36.696174,43.9987821 L36.696174,47.9087452 L35.0742633,47.9087452 L35.0742633,43.9003089 C35.0742633,43.222582 34.6803707,42.8344819 34.0200214,42.8344819 C33.3596721,42.8344819 32.8904765,43.3500178 32.8904765,44.0625 L32.8904765,47.9087452 L31.2048479,47.9087452 Z M42.2164627,47.9087452 L42.2164627,41.5195758 L43.9020913,41.5195758 L43.9020913,47.9087452 L42.2164627,47.9087452 Z M43.0621732,40.563807 C42.5408448,40.563807 42.1064045,40.1351592 42.1064045,39.5964532 C42.1064045,39.0577471 42.5408448,38.6348919 43.0621732,38.6348919 C43.5892942,38.6348919 44.017942,39.0577471 44.017942,39.5964532 C44.017942,40.1351592 43.5892942,40.563807 43.0621732,40.563807 Z M45.6050974,47.9087452 L45.6050974,41.5195758 L47.2385932,41.5195758 L47.2385932,42.544855 L47.3428588,42.544855 C47.6382783,41.8265803 48.2870425,41.3805549 49.2312262,41.3805549 C50.6503981,41.3805549 51.4150131,42.2494356 51.4150131,43.7786656 L51.4150131,47.9087452 L49.7293845,47.9087452 L49.7293845,44.1783508 C49.7293845,43.297885 49.3528695,42.8344819 48.5534993,42.8344819 C47.7715067,42.8344819 47.290726,43.3847731 47.290726,44.2246911 L47.290726,47.9087452 L45.6050974,47.9087452 Z M55.8868524,46.4837809 C56.8020734,46.4837809 57.346572,45.7828838 57.346572,44.6591314 C57.346572,43.535379 56.7962809,42.8286894 55.8868524,42.8286894 C54.977424,42.8286894 54.450303,43.535379 54.450303,44.6533389 C54.450303,45.7828838 54.9716314,46.4837809 55.8868524,46.4837809 Z M55.8636823,50.3300261 C54.1664686,50.3300261 53.0427163,49.5827887 52.9384506,48.4590364 L54.6067015,48.4590364 C54.6935896,48.8529289 55.1685777,49.1020081 55.8984375,49.1020081 C56.8020734,49.1020081 57.3291944,48.6849453 57.3291944,47.9666706 L57.3291944,46.7849929 L57.2249287,46.7849929 C56.8715839,47.4569273 56.1996495,47.8160646 55.3018061,47.8160646 C53.7088581,47.8160646 52.7183341,46.582254 52.7183341,44.6591314 C52.7183341,42.6780834 53.7146507,41.4153101 55.3365613,41.4153101 C56.1996495,41.4153101 56.9353018,41.8439579 57.2770615,42.544855 L57.3813272,42.544855 L57.3813272,41.5195758 L59.014823,41.5195758 L59.014823,47.8855751 C59.014823,49.3858424 57.7925974,50.3300261 55.8636823,50.3300261 Z M66.5277448,42.6722909 C65.7457521,42.6722909 65.195461,43.2167894 65.1375356,44.0451224 L67.8600285,44.0451224 C67.8252733,43.1994118 67.3155299,42.6722909 66.5277448,42.6722909 Z M67.8947837,46.0898883 L69.4645615,46.0898883 C69.2154824,47.2889437 68.1091077,48.0477662 66.5451224,48.0477662 C64.5988296,48.0477662 63.4519071,46.8197481 63.4519071,44.7460195 C63.4519071,42.6664983 64.6219998,41.3805549 66.5219522,41.3805549 C68.4045271,41.3805549 69.5166944,42.5796103 69.5166944,44.6069986 L69.5166944,45.1225345 L65.1317431,45.1225345 L65.1317431,45.2094225 C65.1549133,46.1593988 65.7109969,46.7502376 66.5914627,46.7502376 C67.2576046,46.7502376 67.7152151,46.5127436 67.8947837,46.0898883 Z M76.4967027,41.5195758 L74.2897457,47.9087452 L72.3897933,47.9087452 L70.1712512,41.5195758 L71.9843156,41.5195758 L73.3050143,46.2810421 L73.4092799,46.2810421 L74.7183935,41.5195758 L76.4967027,41.5195758 Z M80.1402091,42.6722909 C79.3582165,42.6722909 78.8079254,43.2167894 78.75,44.0451224 L81.4724929,44.0451224 C81.4377376,43.1994118 80.9279943,42.6722909 80.1402091,42.6722909 Z M81.5072481,46.0898883 L83.0770259,46.0898883 C82.8279468,47.2889437 81.721572,48.0477662 80.1575867,48.0477662 C78.211294,48.0477662 77.0643714,46.8197481 77.0643714,44.7460195 C77.0643714,42.6664983 78.2344641,41.3805549 80.1344166,41.3805549 C82.0169914,41.3805549 83.1291587,42.5796103 83.1291587,44.6069986 L83.1291587,45.1225345 L78.7442075,45.1225345 L78.7442075,45.2094225 C78.7673776,46.1593988 79.3234613,46.7502376 80.203927,46.7502376 C80.8700689,46.7502376 81.3276794,46.5127436 81.5072481,46.0898883 Z M84.5077828,47.9087452 L84.5077828,41.5195758 L86.1412785,41.5195758 L86.1412785,42.544855 L86.2455442,42.544855 C86.5409636,41.8265803 87.1897279,41.3805549 88.1339116,41.3805549 C89.5530834,41.3805549 90.3176984,42.2494356 90.3176984,43.7786656 L90.3176984,47.9087452 L88.6320699,47.9087452 L88.6320699,44.1783508 C88.6320699,43.297885 88.2555549,42.8344819 87.4561846,42.8344819 C86.674192,42.8344819 86.1934114,43.3847731 86.1934114,44.2246911 L86.1934114,47.9087452 L84.5077828,47.9087452 Z M92.4319748,40.0019308 L94.1176034,40.0019308 L94.1176034,41.5832937 L95.4440946,41.5832937 L95.4440946,42.9097849 L94.1176034,42.9097849 L94.1176034,45.7828838 C94.1176034,46.3389674 94.372475,46.5938391 94.9459363,46.5938391 C95.1660528,46.5938391 95.2819035,46.5880466 95.4440946,46.570669 L95.4440946,47.8566124 C95.2355632,47.8971602 94.9227662,47.9319154 94.598384,47.9319154 C93.0459838,47.9319154 92.4319748,47.4279646 92.4319748,46.1825689 L92.4319748,42.9097849 L91.4356583,42.9097849 L91.4356583,41.5832937 L92.4319748,41.5832937 L92.4319748,40.0019308 Z M96.64315,43.3963581 C96.64315,42.1857177 97.7089769,41.3805549 99.3019249,41.3805549 C100.923836,41.3805549 101.879604,42.0582818 101.972285,43.2805074 L100.414092,43.2805074 C100.327204,42.8692372 99.9391041,42.6143655 99.31351,42.6143655 C98.711086,42.6143655 98.2650606,42.8866148 98.2650606,43.2920924 C98.2650606,43.6048895 98.5373099,43.7960433 99.1281488,43.9292716 L100.327204,44.1899358 C101.566807,44.4621851 102.122891,44.9835135 102.122891,45.9392823 C102.122891,47.2136407 100.981761,48.0477662 99.3077174,48.0477662 C97.6220889,48.0477662 96.6026022,47.3584541 96.4867514,46.1304361 L98.1318322,46.1304361 C98.2592681,46.5648764 98.6705383,46.8139556 99.3424727,46.8139556 C99.9970295,46.8139556 100.448847,46.5417063 100.448847,46.1304361 C100.448847,45.817639 100.205561,45.6264853 99.6436846,45.504842 L98.485177,45.2441778 C97.2455739,44.9719285 96.64315,44.3810896 96.64315,43.3963581 Z" id="incomingevents" fill-rule="nonzero"></path>
                <polygon id="Line-7" fill-rule="nonzero" points="133.003802 9.35361217 8.21292776 9.35361217 8.21292776 6.61596958 133.003802 6.61596958 133.003802 0.228136882 148.51711 7.98479087 133.003802 15.7414449"></polygon>
            </g>
            <g id="Buffer" transform="translate(156.045627, 142.129278)">
                <rect id="Rectangle" fill="#E1E6EA" x="0" y="0" width="135.513308" height="27.3764259" rx="6"></rect>
                <circle id="Oval" fill="#001B3D" cx="106.996198" cy="13.460076" r="7.98479087"></circle>
                <circle id="Oval" fill="#001B3D" cx="91.026616" cy="13.460076" r="7.98479087"></circle>
                <path d="M52.4852959,53.4900784 C51.5121495,53.4900784 50.7323847,53.0534102 50.3643358,52.304836 L50.2520497,52.304836 L50.2520497,53.3840304 L48.4929004,53.3840304 L48.4929004,43.8771388 L50.3081927,43.8771388 L50.3081927,47.6012952 L50.4204788,47.6012952 C50.7698135,46.8464829 51.5433401,46.3911003 52.4852959,46.3911003 C54.2257308,46.3911003 55.2737346,47.7198194 55.2737346,49.9405894 C55.2737346,52.1488831 54.2132545,53.4900784 52.4852959,53.4900784 Z M51.855246,47.913201 C50.9008139,47.913201 50.2957165,48.6929658 50.2894784,49.9468275 C50.2957165,51.194451 50.8945758,51.9742158 51.855246,51.9742158 C52.8221542,51.9742158 53.4085373,51.2006892 53.4085373,49.9405894 C53.4085373,48.6867277 52.8159161,47.913201 51.855246,47.913201 Z M62.9778101,46.5033864 L62.9778101,53.3840304 L61.2186609,53.3840304 L61.2186609,52.2798836 L61.1063748,52.2798836 C60.7819926,53.0783626 60.1394665,53.5337452 59.0977008,53.5337452 C57.6130288,53.5337452 56.6897873,52.5855513 56.6897873,50.9885932 L56.6897873,46.5033864 L58.5050796,46.5033864 L58.5050796,50.5207343 C58.5050796,51.4689282 58.9355097,51.9555014 59.7714175,51.9555014 C60.6759446,51.9555014 61.1625178,51.3878327 61.1625178,50.4708294 L61.1625178,46.5033864 L62.9778101,46.5033864 Z M65.4855335,53.3840304 L65.4855335,48.0005347 L64.3751485,48.0005347 L64.3751485,46.5720057 L65.4855335,46.5720057 L65.4855335,45.8733365 C65.4855335,44.5071887 66.1842027,43.8147576 67.8435421,43.8147576 C68.211591,43.8147576 68.5172588,43.8397101 68.7792597,43.8833769 L68.7792597,45.1684292 C68.6607355,45.1559529 68.473592,45.1372386 68.2365435,45.1372386 C67.5253981,45.1372386 67.2633971,45.4179539 67.2633971,46.004337 L67.2633971,46.5720057 L68.7231167,46.5720057 L68.7231167,48.0005347 L67.3008258,48.0005347 L67.3008258,53.3840304 L65.4855335,53.3840304 Z M70.7629812,53.3840304 L70.7629812,48.0005347 L69.6525962,48.0005347 L69.6525962,46.5720057 L70.7629812,46.5720057 L70.7629812,45.8733365 C70.7629812,44.5071887 71.4616504,43.8147576 73.1209898,43.8147576 C73.4890387,43.8147576 73.7947065,43.8397101 74.0567075,43.8833769 L74.0567075,45.1684292 C73.9381832,45.1559529 73.7510397,45.1372386 73.5139912,45.1372386 C72.8028458,45.1372386 72.5408448,45.4179539 72.5408448,46.004337 L72.5408448,46.5720057 L74.0005644,46.5720057 L74.0005644,48.0005347 L72.5782735,48.0005347 L72.5782735,53.3840304 L70.7629812,53.3840304 Z M78.1863415,47.7447719 C77.3441956,47.7447719 76.7515744,48.3311549 76.6891932,49.2232058 L79.6211086,49.2232058 C79.5836799,48.3124406 79.0347255,47.7447719 78.1863415,47.7447719 Z M79.6585373,51.4252614 L81.3490673,51.4252614 C81.0808282,52.7165518 79.8893477,53.5337452 78.2050558,53.5337452 C76.1090482,53.5337452 74.8739009,52.2112643 74.8739009,49.9780181 C74.8739009,47.7385337 76.1340007,46.3536716 78.1801034,46.3536716 C80.2074917,46.3536716 81.4052103,47.644962 81.4052103,49.8283032 L81.4052103,50.3834957 L76.6829551,50.3834957 L76.6829551,50.4770675 C76.7079076,51.5001188 77.3067669,52.1364068 78.2549608,52.1364068 C78.9723443,52.1364068 79.4651557,51.880644 79.6585373,51.4252614 Z M82.8898824,53.3840304 L82.8898824,46.5033864 L84.6490316,46.5033864 L84.6490316,47.6012952 L84.7613177,47.6012952 C84.9422231,46.9151022 85.6533686,46.3911003 86.5267051,46.3911003 C86.7762298,46.3911003 87.0818976,46.4222909 87.2378505,46.4784339 L87.2378505,48.1315352 C87.0943738,48.0753921 86.6701818,48.019249 86.3769903,48.019249 C85.3851295,48.019249 84.7051747,48.6056321 84.7051747,49.5725404 L84.7051747,53.3840304 L82.8898824,53.3840304 Z" id="buffer" fill="#001B3D" fill-rule="nonzero"></path>
                <circle id="Oval" fill="#001B3D" cx="122.965779" cy="13.460076" r="7.98479087"></circle>
            </g>
            <g id="Batches" transform="translate(298.403042, 81.444867)" fill-rule="nonzero">
                <path d="M87.276616,173.946352 C86.3034696,173.946352 85.5237048,173.509684 85.1556559,172.76111 L85.0433698,172.76111 L85.0433698,173.840304 L83.2842205,173.840304 L83.2842205,164.333413 L85.0995128,164.333413 L85.0995128,168.057569 L85.211799,168.057569 C85.5611336,167.302757 86.3346602,166.847374 87.276616,166.847374 C89.0170509,166.847374 90.0650547,168.176093 90.0650547,170.396863 C90.0650547,172.605157 89.0045746,173.946352 87.276616,173.946352 Z M86.6465661,168.369475 C85.692134,168.369475 85.0870366,169.14924 85.0807985,170.403101 C85.0870366,171.650725 85.6858959,172.43049 86.6465661,172.43049 C87.6134743,172.43049 88.1998574,171.656963 88.1998574,170.396863 C88.1998574,169.143001 87.6072362,168.369475 86.6465661,168.369475 Z M94.0262595,172.580204 C94.8684054,172.580204 95.5046934,172.043726 95.5046934,171.345057 L95.5046934,170.839769 L94.1135932,170.927103 C93.3338284,170.983246 92.9533032,171.263962 92.9533032,171.756773 C92.9533032,172.268298 93.3962096,172.580204 94.0262595,172.580204 Z M93.4274002,173.946352 C92.1049192,173.946352 91.1754396,173.135397 91.1754396,171.875297 C91.1754396,170.627673 92.1298717,169.904052 93.839116,169.804242 L95.5046934,169.704432 L95.5046934,169.143001 C95.5046934,168.569095 95.0929777,168.244712 94.3444035,168.244712 C93.6894011,168.244712 93.2527329,168.469285 93.1030181,168.881 L91.4312025,168.881 C91.5497267,167.608424 92.7162548,166.809945 94.4442134,166.809945 C96.2657438,166.809945 97.2950333,167.670806 97.2950333,169.143001 L97.2950333,173.840304 L95.535884,173.840304 L95.535884,172.942015 L95.4235979,172.942015 C95.0680252,173.572065 94.319451,173.946352 93.4274002,173.946352 Z M99.5968988,165.325273 L101.412191,165.325273 L101.412191,167.028279 L102.84072,167.028279 L102.84072,168.456808 L101.412191,168.456808 L101.412191,171.550915 C101.412191,172.149774 101.686668,172.424251 102.304242,172.424251 C102.54129,172.424251 102.666053,172.418013 102.84072,172.399299 L102.84072,173.784161 C102.616148,173.827828 102.279289,173.865257 101.929955,173.865257 C100.258139,173.865257 99.5968988,173.32254 99.5968988,171.981345 L99.5968988,168.456808 L98.5239425,168.456808 L98.5239425,167.028279 L99.5968988,167.028279 L99.5968988,165.325273 Z M110.388843,169.386288 L108.692075,169.386288 C108.567312,168.731286 108.099453,168.300856 107.325927,168.300856 C106.346542,168.300856 105.797588,169.030715 105.797588,170.384387 C105.797588,171.756773 106.35278,172.499109 107.325927,172.499109 C108.068263,172.499109 108.554836,172.137298 108.692075,171.457343 L110.388843,171.457343 C110.239128,172.998158 109.116267,173.990019 107.325927,173.990019 C105.180014,173.990019 103.963581,172.69249 103.963581,170.384387 C103.963581,168.101236 105.173776,166.809945 107.325927,166.809945 C109.147457,166.809945 110.239128,167.82052 110.388843,169.386288 Z M111.867277,173.840304 L111.867277,164.333413 L113.651378,164.333413 L113.651378,168.08876 L113.763664,168.08876 C114.081808,167.302757 114.830383,166.82866 115.840958,166.82866 C117.319392,166.82866 118.198966,167.758139 118.198966,169.41124 L118.198966,173.840304 L116.383674,173.840304 L116.383674,169.841671 C116.383674,168.887239 115.940768,168.394427 115.117336,168.394427 C114.206571,168.394427 113.682569,168.999525 113.682569,169.891576 L113.682569,173.840304 L111.867277,173.840304 Z M122.933698,168.201046 C122.091552,168.201046 121.498931,168.787429 121.436549,169.67948 L124.368465,169.67948 C124.331036,168.768714 123.782082,168.201046 122.933698,168.201046 Z M124.405894,171.881535 L126.096423,171.881535 C125.828184,173.172826 124.636704,173.990019 122.952412,173.990019 C120.856404,173.990019 119.621257,172.667538 119.621257,170.434292 C119.621257,168.194808 120.881357,166.809945 122.92746,166.809945 C124.954848,166.809945 126.152567,168.101236 126.152567,170.284577 L126.152567,170.839769 L121.430311,170.839769 L121.430311,170.933341 C121.455264,171.956393 122.054123,172.592681 123.002317,172.592681 C123.719701,172.592681 124.212512,172.336918 124.405894,171.881535 Z M127.481286,168.98081 C127.481286,167.677044 128.629099,166.809945 130.344582,166.809945 C132.091255,166.809945 133.120544,167.539805 133.220354,168.856048 L131.5423,168.856048 C131.448729,168.413142 131.030775,168.138664 130.357058,168.138664 C129.708294,168.138664 129.227959,168.431856 129.227959,168.868524 C129.227959,169.205383 129.52115,169.41124 130.157438,169.554717 L131.448729,169.835433 C132.783686,170.128624 133.382545,170.690055 133.382545,171.719344 C133.382545,173.09173 132.153636,173.990019 130.35082,173.990019 C128.535528,173.990019 127.437619,173.247683 127.312856,171.925202 L129.084482,171.925202 C129.221721,172.393061 129.664627,172.6613 130.388249,172.6613 C131.093156,172.6613 131.579729,172.368108 131.579729,171.925202 C131.579729,171.588344 131.317728,171.382486 130.712631,171.251485 L129.465007,170.97077 C128.13005,170.677578 127.481286,170.04129 127.481286,168.98081 Z" id="batches" fill="#001B3D"></path>
                <g id="rotate" transform="translate(108.136882, 20.532319) scale(-1, 1) translate(-108.136882, -20.532319) translate(87.604563, 0.000000)">
                    <path d="M41.0646388,20.5323194 C41.0646388,31.8721525 31.8721525,41.0646388 20.5323194,41.0646388 C9.1924863,41.0646388 0,31.8721525 0,20.5323194 C0,9.1924863 9.1924863,0 20.5323194,0 C31.8721525,0 41.0646388,9.1924863 41.0646388,20.5323194 Z" id="Path" fill="#000000"></path>
                    <g id="Group" transform="translate(7.138189, 7.298598)" fill="#E1E6EA">
                        <path d="M27.407338,13.7917058 C27.407338,6.19735426 21.2290949,0.0191111781 13.6347433,0.0191111781 C10.2003671,0.0191111781 6.90854151,1.31522643 4.39870856,3.57880685 L4.39870856,0.156962444 L1.99257738,0.156962444 L1.99257738,7.75131398 L9.58692892,7.75131398 L9.58692892,5.3451828 L6.03287265,5.3451828 C8.10189483,3.48826365 10.8100456,2.42524236 13.6347433,2.42524236 C19.9022764,2.42524236 25.0012068,7.52417271 25.0012068,13.7917058 L25.139058,13.7917058 C25.139058,14.144793 25.1230798,14.5010132 25.0911234,14.8500276 L27.2127797,15.0430194 C27.2503755,14.6300921 27.2694867,14.2090192 27.2698,13.7917058 L26.3621747,13.7917058 L27.407338,13.7917058 Z" id="Path"></path>
                        <path d="M4.67221798,21.0050866 L3.0133033,22.3419305 C3.49515618,22.9397038 4.03152292,23.5008211 4.60705193,24.0096176 L6.01814761,22.4136758 C5.53222188,21.9838305 5.07919254,21.5098102 4.67221798,21.0050866 Z" id="Path"></path>
                        <path d="M2.78114926,17.6164518 L0.771967087,18.324506 C1.02730525,19.0488518 1.34686954,19.756906 1.7222009,20.4292443 L3.58225307,19.3906603 C3.2658218,18.8239036 2.99638523,18.2270702 2.78114926,17.6164518 L2.78114926,17.6164518 Z" id="Path"></path>
                        <path d="M2.13042865,13.7917058 L0,13.7917058 C0,14.5624197 0.0648527745,15.3353267 0.192991772,16.0894358 L2.29334378,15.7329022 C2.18525588,15.09628 2.13042865,14.443053 2.13042865,13.7917058 Z" id="Path"></path>
                        <path d="M6.45770519,25.3865638 C7.11124547,25.7919718 7.80332154,26.1438058 8.51450871,26.4320403 L9.31498596,24.4576342 C8.71533292,24.2145147 8.13197147,23.9181345 7.58056641,23.5760127 L6.45770519,25.3865638 Z" id="Path"></path>
                        <path d="M24.0910751,18.596449 L26.0263189,19.4874694 C26.347763,18.7888142 26.6112469,18.0582025 26.8095647,17.3156854 L24.7511947,16.7661602 C24.5842067,17.3918169 24.3620782,18.0077615 24.0910751,18.596449 Z" id="Path"></path>
                        <path d="M10.7204422,27.1140907 C11.468912,27.2770059 12.238686,27.3772613 13.0081467,27.4120375 L13.1043293,25.2838019 C12.4545485,25.2546651 11.8050811,25.1697612 11.1737849,25.0322233 L10.7204422,27.1140907 Z" id="Path"></path>
                        <path d="M21.8970469,21.7967915 L23.4268827,23.2793192 C23.9616829,22.7276008 24.4529347,22.1266946 24.8871662,21.4938319 L23.1301891,20.2888866 C22.7636301,20.8233735 22.3488232,21.3306035 21.8970469,21.7967915 Z" id="Path"></path>
                        <path d="M18.7659434,24.0913884 L19.7177437,25.9974955 C20.4044937,25.6544338 21.0674329,25.2499656 21.6877636,24.7950565 L20.4283043,23.0769284 C19.9047828,23.4607189 19.345232,23.802214 18.7659434,24.0913884 Z" id="Path"></path>
                        <path d="M15.0524183,25.2095501 L15.3118293,27.3240006 C16.0756507,27.2303244 16.8357124,27.0705422 17.5707103,26.8493537 L16.9566456,24.8094682 C16.3369414,24.9958807 15.6962464,25.130599 15.0524183,25.2095501 Z" id="Path"></path>
                    </g>
                </g>
                <g id="rotate" transform="translate(108.136882, 74.372624) scale(-1, 1) translate(-108.136882, -74.372624) translate(87.604563, 53.840304)">
                    <path d="M41.0646388,20.5323194 C41.0646388,31.8721525 31.8721525,41.0646388 20.5323194,41.0646388 C9.1924863,41.0646388 0,31.8721525 0,20.5323194 C0,9.1924863 9.1924863,0 20.5323194,0 C31.8721525,0 41.0646388,9.1924863 41.0646388,20.5323194 Z" id="Path" fill="#000000"></path>
                    <g id="Group" transform="translate(7.138189, 7.298598)" fill="#E1E6EA">
                        <path d="M27.407338,13.7917058 C27.407338,6.19735426 21.2290949,0.0191111781 13.6347433,0.0191111781 C10.2003671,0.0191111781 6.90854151,1.31522643 4.39870856,3.57880685 L4.39870856,0.156962444 L1.99257738,0.156962444 L1.99257738,7.75131398 L9.58692892,7.75131398 L9.58692892,5.3451828 L6.03287265,5.3451828 C8.10189483,3.48826365 10.8100456,2.42524236 13.6347433,2.42524236 C19.9022764,2.42524236 25.0012068,7.52417271 25.0012068,13.7917058 L25.139058,13.7917058 C25.139058,14.144793 25.1230798,14.5010132 25.0911234,14.8500276 L27.2127797,15.0430194 C27.2503755,14.6300921 27.2694867,14.2090192 27.2698,13.7917058 L26.3621747,13.7917058 L27.407338,13.7917058 Z" id="Path"></path>
                        <path d="M4.67221798,21.0050866 L3.0133033,22.3419305 C3.49515618,22.9397038 4.03152292,23.5008211 4.60705193,24.0096176 L6.01814761,22.4136758 C5.53222188,21.9838305 5.07919254,21.5098102 4.67221798,21.0050866 Z" id="Path"></path>
                        <path d="M2.78114926,17.6164518 L0.771967087,18.324506 C1.02730525,19.0488518 1.34686954,19.756906 1.7222009,20.4292443 L3.58225307,19.3906603 C3.2658218,18.8239036 2.99638523,18.2270702 2.78114926,17.6164518 L2.78114926,17.6164518 Z" id="Path"></path>
                        <path d="M2.13042865,13.7917058 L0,13.7917058 C0,14.5624197 0.0648527745,15.3353267 0.192991772,16.0894358 L2.29334378,15.7329022 C2.18525588,15.09628 2.13042865,14.443053 2.13042865,13.7917058 Z" id="Path"></path>
                        <path d="M6.45770519,25.3865638 C7.11124547,25.7919718 7.80332154,26.1438058 8.51450871,26.4320403 L9.31498596,24.4576342 C8.71533292,24.2145147 8.13197147,23.9181345 7.58056641,23.5760127 L6.45770519,25.3865638 Z" id="Path"></path>
                        <path d="M24.0910751,18.596449 L26.0263189,19.4874694 C26.347763,18.7888142 26.6112469,18.0582025 26.8095647,17.3156854 L24.7511947,16.7661602 C24.5842067,17.3918169 24.3620782,18.0077615 24.0910751,18.596449 Z" id="Path"></path>
                        <path d="M10.7204422,27.1140907 C11.468912,27.2770059 12.238686,27.3772613 13.0081467,27.4120375 L13.1043293,25.2838019 C12.4545485,25.2546651 11.8050811,25.1697612 11.1737849,25.0322233 L10.7204422,27.1140907 Z" id="Path"></path>
                        <path d="M21.8970469,21.7967915 L23.4268827,23.2793192 C23.9616829,22.7276008 24.4529347,22.1266946 24.8871662,21.4938319 L23.1301891,20.2888866 C22.7636301,20.8233735 22.3488232,21.3306035 21.8970469,21.7967915 Z" id="Path"></path>
                        <path d="M18.7659434,24.0913884 L19.7177437,25.9974955 C20.4044937,25.6544338 21.0674329,25.2499656 21.6877636,24.7950565 L20.4283043,23.0769284 C19.9047828,23.4607189 19.345232,23.802214 18.7659434,24.0913884 Z" id="Path"></path>
                        <path d="M15.0524183,25.2095501 L15.3118293,27.3240006 C16.0756507,27.2303244 16.8357124,27.0705422 17.5707103,26.8493537 L16.9566456,24.8094682 C16.3369414,24.9958807 15.6962464,25.130599 15.0524183,25.2095501 Z" id="Path"></path>
                    </g>
                </g>
                <g id="rotate" transform="translate(108.136882, 128.212928) scale(-1, 1) translate(-108.136882, -128.212928) translate(87.604563, 107.680608)">
                    <path d="M41.0646388,20.5323194 C41.0646388,31.8721525 31.8721525,41.0646388 20.5323194,41.0646388 C9.1924863,41.0646388 0,31.8721525 0,20.5323194 C0,9.1924863 9.1924863,0 20.5323194,0 C31.8721525,0 41.0646388,9.1924863 41.0646388,20.5323194 Z" id="Path" fill="#000000"></path>
                    <g id="Group" transform="translate(7.138189, 7.298598)" fill="#E1E6EA">
                        <path d="M27.407338,13.7917058 C27.407338,6.19735426 21.2290949,0.0191111781 13.6347433,0.0191111781 C10.2003671,0.0191111781 6.90854151,1.31522643 4.39870856,3.57880685 L4.39870856,0.156962444 L1.99257738,0.156962444 L1.99257738,7.75131398 L9.58692892,7.75131398 L9.58692892,5.3451828 L6.03287265,5.3451828 C8.10189483,3.48826365 10.8100456,2.42524236 13.6347433,2.42524236 C19.9022764,2.42524236 25.0012068,7.52417271 25.0012068,13.7917058 L25.139058,13.7917058 C25.139058,14.144793 25.1230798,14.5010132 25.0911234,14.8500276 L27.2127797,15.0430194 C27.2503755,14.6300921 27.2694867,14.2090192 27.2698,13.7917058 L26.3621747,13.7917058 L27.407338,13.7917058 Z" id="Path"></path>
                        <path d="M4.67221798,21.0050866 L3.0133033,22.3419305 C3.49515618,22.9397038 4.03152292,23.5008211 4.60705193,24.0096176 L6.01814761,22.4136758 C5.53222188,21.9838305 5.07919254,21.5098102 4.67221798,21.0050866 Z" id="Path"></path>
                        <path d="M2.78114926,17.6164518 L0.771967087,18.324506 C1.02730525,19.0488518 1.34686954,19.756906 1.7222009,20.4292443 L3.58225307,19.3906603 C3.2658218,18.8239036 2.99638523,18.2270702 2.78114926,17.6164518 L2.78114926,17.6164518 Z" id="Path"></path>
                        <path d="M2.13042865,13.7917058 L0,13.7917058 C0,14.5624197 0.0648527745,15.3353267 0.192991772,16.0894358 L2.29334378,15.7329022 C2.18525588,15.09628 2.13042865,14.443053 2.13042865,13.7917058 Z" id="Path"></path>
                        <path d="M6.45770519,25.3865638 C7.11124547,25.7919718 7.80332154,26.1438058 8.51450871,26.4320403 L9.31498596,24.4576342 C8.71533292,24.2145147 8.13197147,23.9181345 7.58056641,23.5760127 L6.45770519,25.3865638 Z" id="Path"></path>
                        <path d="M24.0910751,18.596449 L26.0263189,19.4874694 C26.347763,18.7888142 26.6112469,18.0582025 26.8095647,17.3156854 L24.7511947,16.7661602 C24.5842067,17.3918169 24.3620782,18.0077615 24.0910751,18.596449 Z" id="Path"></path>
                        <path d="M10.7204422,27.1140907 C11.468912,27.2770059 12.238686,27.3772613 13.0081467,27.4120375 L13.1043293,25.2838019 C12.4545485,25.2546651 11.8050811,25.1697612 11.1737849,25.0322233 L10.7204422,27.1140907 Z" id="Path"></path>
                        <path d="M21.8970469,21.7967915 L23.4268827,23.2793192 C23.9616829,22.7276008 24.4529347,22.1266946 24.8871662,21.4938319 L23.1301891,20.2888866 C22.7636301,20.8233735 22.3488232,21.3306035 21.8970469,21.7967915 Z" id="Path"></path>
                        <path d="M18.7659434,24.0913884 L19.7177437,25.9974955 C20.4044937,25.6544338 21.0674329,25.2499656 21.6877636,24.7950565 L20.4283043,23.0769284 C19.9047828,23.4607189 19.345232,23.802214 18.7659434,24.0913884 Z" id="Path"></path>
                        <path d="M15.0524183,25.2095501 L15.3118293,27.3240006 C16.0756507,27.2303244 16.8357124,27.0705422 17.5707103,26.8493537 L16.9566456,24.8094682 C16.3369414,24.9958807 15.6962464,25.130599 15.0524183,25.2095501 Z" id="Path"></path>
                    </g>
                </g>
                <path d="M69.8098348,21.5143236 C55.4587751,22.6839754 46.2080333,28.4032654 41.90641,38.6793656 C39.2670662,44.9844648 38.6964704,46.3486905 38.2843964,47.3411959 C38.2271235,47.4791413 38.1776168,47.5987066 38.1354145,47.7009692 C38.1331606,47.7657573 38.1297521,47.7803425 38.1194321,47.8245035 C38.0919164,47.9550156 38.0153385,48.1685144 37.8297294,48.6515474 C37.4318685,49.6869487 36.5545895,51.8806775 35.0662259,55.5519742 C30.3563131,67.1697593 19.0164536,73.6608513 1.21188347,75.0542524 L0.302117736,75.1254515 L0.159719622,73.30592 L1.06948535,73.234721 C18.2459038,71.8904795 28.9592763,65.7579974 33.3748387,54.8662767 C34.8590891,51.2051257 35.7334886,49.0185973 36.1260808,47.9969074 C36.1396008,47.9617227 36.1525585,47.9278482 36.1649241,47.8953991 C36.1622715,47.8443978 36.1646308,47.8262042 36.1708086,47.778564 C36.1876279,47.6799444 36.1876279,47.6799444 36.1986084,47.6413734 C36.2146674,47.5883977 36.2146674,47.5883977 36.2249798,47.5595643 C36.2599649,47.462026 36.363065,47.2091663 36.5988083,46.641364 C37.0119523,45.6462814 37.5820463,44.2832552 40.2228675,37.9746268 C44.8262962,26.9775473 54.7395922,20.8780474 69.8099074,19.6833768 L69.8100818,15.0566425 L80.7604563,20.5323194 L69.8096901,26.0072129 L69.8098508,21.5143223 L69.8098348,21.5143236 Z" id="Line" fill="#E1E6EA"></path>
                <path d="M69.8098348,80.3736392 C55.4587751,81.5432909 46.2080333,87.262581 41.90641,97.5386811 C39.2670662,103.84378 38.6964704,105.208006 38.2843964,106.200511 C38.2271235,106.338457 38.1776168,106.458022 38.1354145,106.560285 C38.1331606,106.625073 38.1297521,106.639658 38.1194321,106.683819 C38.0919164,106.814331 38.0153385,107.02783 37.8297294,107.510863 C37.4318685,108.546264 36.5545895,110.739993 35.0662259,114.41129 C30.3563131,126.029075 19.0164536,132.520167 1.21188347,133.913568 L0.302117736,133.984767 L0.159719622,132.165236 L1.06948535,132.094037 C18.2459038,130.749795 28.9592763,124.617313 33.3748387,113.725592 C34.8590891,110.064441 35.7334886,107.877913 36.1260808,106.856223 C36.1396008,106.821038 36.1525585,106.787164 36.1649241,106.754715 C36.1622715,106.703713 36.1646308,106.68552 36.1708086,106.63788 C36.1876279,106.53926 36.1876279,106.53926 36.1986084,106.500689 C36.2146674,106.447713 36.2146674,106.447713 36.2249798,106.41888 C36.2599649,106.321342 36.363065,106.068482 36.5988083,105.50068 C37.0119523,104.505597 37.5820463,103.142571 40.2228675,96.8339424 C44.8262962,85.8368629 54.7395922,79.737363 69.8099074,78.5426924 L69.8100818,73.9159581 L80.7604563,79.391635 L69.8096901,84.8665285 L69.8098508,80.3736379 L69.8098348,80.3736392 Z" id="Line" fill="#E1E6EA" transform="translate(40.460088, 103.950363) scale(1, -1) translate(-40.460088, -103.950363) "></path>
                <polygon id="Line-3" fill="#E1E6EA" points="69.8125456 75.0884073 0.230755367 75.2877821 0.22552589 73.4626945 69.8073161 73.2633198 69.7942425 68.7006009 80.7604563 74.1444867 69.8256193 79.6511263 69.8125456 75.0884073"></polygon>
            </g>
            <g id="Service" transform="translate(439.847909, 81.444867)" fill-rule="nonzero">
                <path d="M99.1495366,171.718453 C99.1495366,170.414686 100.29735,169.547588 102.012833,169.547588 C103.759506,169.547588 104.788795,170.277448 104.888605,171.593691 L103.210551,171.593691 C103.11698,171.150784 102.699026,170.876307 102.025309,170.876307 C101.376545,170.876307 100.89621,171.169499 100.89621,171.606167 C100.89621,171.943025 101.189401,172.148883 101.825689,172.29236 L103.11698,172.573075 C104.451937,172.866267 105.050796,173.427697 105.050796,174.456987 C105.050796,175.829373 103.821887,176.727662 102.019071,176.727662 C100.203779,176.727662 99.1058698,175.985326 98.9811074,174.662845 L100.752733,174.662845 C100.889971,175.130703 101.332878,175.398942 102.0565,175.398942 C102.761407,175.398942 103.24798,175.105751 103.24798,174.662845 C103.24798,174.325986 102.985979,174.120128 102.380882,173.989128 L101.133258,173.708413 C99.7983009,173.415221 99.1495366,172.778933 99.1495366,171.718453 Z M109.517288,170.938688 C108.675143,170.938688 108.082521,171.525071 108.02014,172.417122 L110.952056,172.417122 C110.914627,171.506357 110.365673,170.938688 109.517288,170.938688 Z M110.989484,174.619178 L112.680014,174.619178 C112.411775,175.910468 111.220295,176.727662 109.536003,176.727662 C107.439995,176.727662 106.204848,175.405181 106.204848,173.171934 C106.204848,170.93245 107.464948,169.547588 109.51105,169.547588 C111.538439,169.547588 112.736157,170.838878 112.736157,173.02222 L112.736157,173.577412 L108.013902,173.577412 L108.013902,173.670984 C108.038855,174.694035 108.637714,175.330323 109.585908,175.330323 C110.303291,175.330323 110.796103,175.07456 110.989484,174.619178 Z M114.220829,176.577947 L114.220829,169.697303 L115.979979,169.697303 L115.979979,170.795212 L116.092265,170.795212 C116.27317,170.109019 116.984316,169.585017 117.857652,169.585017 C118.107177,169.585017 118.412845,169.616207 118.568798,169.67235 L118.568798,171.325452 C118.425321,171.269308 118.001129,171.213165 117.707937,171.213165 C116.716077,171.213165 116.036122,171.799548 116.036122,172.766457 L116.036122,176.577947 L114.220829,176.577947 Z M126.091968,169.697303 L123.715245,176.577947 L121.669142,176.577947 L119.279943,169.697303 L121.232474,169.697303 L122.654765,174.825036 L122.767051,174.825036 L124.176865,169.697303 L126.091968,169.697303 Z M127.333353,176.577947 L127.333353,169.697303 L129.148645,169.697303 L129.148645,176.577947 L127.333353,176.577947 Z M128.244118,168.668013 C127.682688,168.668013 127.214829,168.206393 127.214829,167.626248 C127.214829,167.046103 127.682688,166.59072 128.244118,166.59072 C128.811787,166.59072 129.273408,167.046103 129.273408,167.626248 C129.273408,168.206393 128.811787,168.668013 128.244118,168.668013 Z M137.071055,172.123931 L135.374287,172.123931 C135.249525,171.468928 134.781666,171.038498 134.008139,171.038498 C133.028755,171.038498 132.4798,171.768358 132.4798,173.122029 C132.4798,174.494415 133.034993,175.236751 134.008139,175.236751 C134.750475,175.236751 135.237048,174.874941 135.374287,174.194986 L137.071055,174.194986 C136.92134,175.735801 135.798479,176.727662 134.008139,176.727662 C131.862227,176.727662 130.645794,175.430133 130.645794,173.122029 C130.645794,170.838878 131.855989,169.547588 134.008139,169.547588 C135.82967,169.547588 136.92134,170.558163 137.071055,172.123931 Z M141.46269,170.938688 C140.620544,170.938688 140.027923,171.525071 139.965542,172.417122 L142.897457,172.417122 C142.860029,171.506357 142.311074,170.938688 141.46269,170.938688 Z M142.934886,174.619178 L144.625416,174.619178 C144.357177,175.910468 143.165696,176.727662 141.481404,176.727662 C139.385397,176.727662 138.15025,175.405181 138.15025,173.171934 C138.15025,170.93245 139.410349,169.547588 141.456452,169.547588 C143.48384,169.547588 144.681559,170.838878 144.681559,173.02222 L144.681559,173.577412 L139.959304,173.577412 L139.959304,173.670984 C139.984256,174.694035 140.583115,175.330323 141.531309,175.330323 C142.248693,175.330323 142.741504,175.07456 142.934886,174.619178 Z" id="service" fill="#001B3D"></path>
                <g id="mobileme-logo-of-black-cloud" transform="translate(98.555133, 0.000000)" fill="#000000">
                    <path d="M60.4883536,29.0755925 C60.4883536,35.682921 55.1707641,41.039325 48.613782,41.039325 L11.8724621,41.039325 C5.31562061,41.039325 0,35.682921 0,29.0755925 C0,23.108141 4.33513204,18.1646336 10.0068337,17.2600865 C9.93497057,16.8412834 9.89531226,16.410386 9.89531226,15.9668316 C9.89531226,11.7803479 13.2637377,8.38703057 17.4199854,8.38703057 C19.2735195,8.38703057 20.9720767,9.062347 22.2824887,10.1859993 C24.6186728,4.88205115 27.6135788,0.0416271681 36.0155164,0.0416271681 C46.2051721,0.0416271681 51.0346268,7.95964894 51.0346268,16.3148966 C51.0346268,16.6643679 51.020001,17.0106047 50.9965154,17.3531851 C56.4125475,18.4651649 60.4883536,23.2905412 60.4883536,29.0755925 Z" id="MobileMe"></path>
                </g>
                <g id="mobileme-logo-of-black-cloud" transform="translate(94.904943, 53.840304)" fill="#000000">
                    <path d="M60.4883536,29.0755925 C60.4883536,35.682921 55.1707641,41.039325 48.613782,41.039325 L11.8724621,41.039325 C5.31562061,41.039325 0,35.682921 0,29.0755925 C0,23.108141 4.33513204,18.1646336 10.0068337,17.2600865 C9.93497057,16.8412834 9.89531226,16.410386 9.89531226,15.9668316 C9.89531226,11.7803479 13.2637377,8.38703057 17.4199854,8.38703057 C19.2735195,8.38703057 20.9720767,9.062347 22.2824887,10.1859993 C24.6186728,4.88205115 27.6135788,0.0416271681 36.0155164,0.0416271681 C46.2051721,0.0416271681 51.0346268,7.95964894 51.0346268,16.3148966 C51.0346268,16.6643679 51.020001,17.0106047 50.9965154,17.3531851 C56.4125475,18.4651649 60.4883536,23.2905412 60.4883536,29.0755925 Z" id="MobileMe"></path>
                </g>
                <g id="mobileme-logo-of-black-cloud" transform="translate(94.904943, 107.680608)" fill="#000000">
                    <path d="M60.4883536,29.0755925 C60.4883536,35.682921 55.1707641,41.039325 48.613782,41.039325 L11.8724621,41.039325 C5.31562061,41.039325 0,35.682921 0,29.0755925 C0,23.108141 4.33513204,18.1646336 10.0068337,17.2600865 C9.93497057,16.8412834 9.89531226,16.410386 9.89531226,15.9668316 C9.89531226,11.7803479 13.2637377,8.38703057 17.4199854,8.38703057 C19.2735195,8.38703057 20.9720767,9.062347 22.2824887,10.1859993 C24.6186728,4.88205115 27.6135788,0.0416271681 36.0155164,0.0416271681 C46.2051721,0.0416271681 51.0346268,7.95964894 51.0346268,16.3148966 C51.0346268,16.6643679 51.020001,17.0106047 50.9965154,17.3531851 C56.4125475,18.4651649 60.4883536,23.2905412 60.4883536,29.0755925 Z" id="MobileMe"></path>
                </g>
                <polygon id="Line-3" fill="#E1E6EA" points="69.8125456 75.0884073 0.230755367 75.2877821 0.22552589 73.4626945 69.8073161 73.2633198 69.7942425 68.7006009 80.7604563 74.1444867 69.8256193 79.6511263 69.8125456 75.0884073"></polygon>
                <polygon id="Line-3" fill="#E1E6EA" points="69.8125456 21.2481032 0.230755367 21.4474779 0.22552589 19.6223903 69.8073161 19.4230156 69.7942425 14.8602967 80.7604563 20.3041825 69.8256193 25.8108221 69.8125456 21.2481032"></polygon>
                <polygon id="Line-3" fill="#E1E6EA" points="69.8125456 128.928712 0.230755367 129.128086 0.22552589 127.302999 69.8073161 127.103624 69.7942425 122.540905 80.7604563 127.984791 69.8256193 133.49143 69.8125456 128.928712"></polygon>
            </g>
            <g id="Sink" transform="translate(118.859316, 4.790875)" fill-rule="nonzero">
                <polygon id="Line-4" fill="#000000" points="0.228136882 30.7984791 481.140684 30.7984791 481.140684 28.973384 0.228136882 28.973384"></polygon>
                <polygon id="Line-5" fill="#000000" points="-0.684410646 28.973384 -0.684410646 44.486692 1.14068441 44.486692 1.14068441 28.973384"></polygon>
                <polygon id="Line-5" fill="#000000" points="479.771863 28.973384 479.771863 44.486692 481.596958 44.486692 481.596958 28.973384"></polygon>
                <path d="M222.763189,10.396269 C222.763189,8.53374525 224.402923,7.29503327 226.853612,7.29503327 C229.348859,7.29503327 230.819273,8.33769011 230.961858,10.2180371 L228.564639,10.2180371 C228.430965,9.58531369 227.833888,9.19320342 226.871435,9.19320342 C225.944629,9.19320342 225.258436,9.61204848 225.258436,10.2358603 C225.258436,10.7170865 225.677281,11.0111692 226.586264,11.2161359 L228.430965,11.6171578 C230.338047,12.0360029 231.19356,12.8380466 231.19356,14.3084601 C231.19356,16.2690114 229.437975,17.5522814 226.862524,17.5522814 C224.269249,17.5522814 222.700808,16.4918013 222.522576,14.6025428 L225.05347,14.6025428 C225.249525,15.2709125 225.882248,15.6541112 226.915993,15.6541112 C227.923004,15.6541112 228.618108,15.2352662 228.618108,14.6025428 C228.618108,14.1213165 228.243821,13.8272338 227.379396,13.6400903 L225.597077,13.2390684 C223.689995,12.8202234 222.763189,11.9112405 222.763189,10.396269 Z M233.341255,17.338403 L233.341255,7.5089116 L235.934529,7.5089116 L235.934529,17.338403 L233.341255,17.338403 Z M234.642348,6.0384981 C233.840304,6.0384981 233.171934,5.37903992 233.171934,4.55026141 C233.171934,3.72148289 233.840304,3.07093631 234.642348,3.07093631 C235.453303,3.07093631 236.112761,3.72148289 236.112761,4.55026141 C236.112761,5.37903992 235.453303,6.0384981 234.642348,6.0384981 Z M238.554539,17.338403 L238.554539,7.5089116 L241.067609,7.5089116 L241.067609,9.08626426 L241.228018,9.08626426 C241.68251,7.98122624 242.680608,7.29503327 244.133199,7.29503327 C246.31654,7.29503327 247.492871,8.63177281 247.492871,10.9844344 L247.492871,17.338403 L244.899596,17.338403 L244.899596,11.5993346 C244.899596,10.2447719 244.320342,9.53184411 243.090542,9.53184411 C241.887476,9.53184411 241.147814,10.3784458 241.147814,11.6706274 L241.147814,17.338403 L238.554539,17.338403 Z M252.84874,11.3498099 L256.13712,7.5089116 L259.086858,7.5089116 L255.343988,11.724097 L259.345295,17.338403 L256.270794,17.338403 L253.40126,13.3460076 L252.688332,14.0767586 L252.688332,17.338403 L250.095057,17.338403 L250.095057,3.75712928 L252.688332,3.75712928 L252.688332,11.3498099 L252.84874,11.3498099 Z" id="sink" fill="#001B3D"></path>
            </g>
        </g>
    </g>
</svg>