<?xml version="1.0" encoding="UTF-8"?>
<svg width="801px" height="334px" viewBox="0 0 801 334" version="1.1" xmlns="http://www.w3.org/2000/svg" xmlns:xlink="http://www.w3.org/1999/xlink">
    <!-- Generator: Sketch 54.1 (76490) - https://sketchapp.com -->
    <title>Group 2</title>
    <desc>Created with Sketch.</desc>
    <g id="Buffers-&amp;-Batching-(partitioned)" stroke="none" stroke-width="1" fill="none" fill-rule="evenodd">
        <g id="Group-2" transform="translate(0.000000, -10.500000)">
            <path d="M157.56654,74.2205323 L157.56654,83.3460076 L157.56654,84.5627376 L160,84.5627376 L160,83.3460076 L160,74.2205323 L160,73.0038023 L157.56654,73.0038023 L157.56654,74.2205323 Z M157.56654,92.4714829 L157.56654,101.596958 L157.56654,102.813688 L160,102.813688 L160,101.596958 L160,92.4714829 L160,91.2547529 L157.56654,91.2547529 L157.56654,92.4714829 Z M157.56654,110.722433 L157.56654,119.847909 L157.56654,121.064639 L160,121.064639 L160,119.847909 L160,110.722433 L160,109.505703 L157.56654,109.505703 L157.56654,110.722433 Z M157.56654,128.973384 L157.56654,138.098859 L157.56654,139.315589 L160,139.315589 L160,138.098859 L160,128.973384 L160,127.756654 L157.56654,127.756654 L157.56654,128.973384 Z M157.56654,147.224335 L157.56654,156.34981 L157.56654,157.56654 L160,157.56654 L160,156.34981 L160,147.224335 L160,146.007605 L157.56654,146.007605 L157.56654,147.224335 Z M157.56654,165.475285 L157.56654,174.60076 L157.56654,175.81749 L160,175.81749 L160,174.60076 L160,165.475285 L160,164.258555 L157.56654,164.258555 L157.56654,165.475285 Z M157.56654,183.726236 L157.56654,192.851711 L157.56654,194.068441 L160,194.068441 L160,192.851711 L160,183.726236 L160,182.509506 L157.56654,182.509506 L157.56654,183.726236 Z M157.56654,201.977186 L157.56654,211.102662 L157.56654,212.319392 L160,212.319392 L160,211.102662 L160,201.977186 L160,200.760456 L157.56654,200.760456 L157.56654,201.977186 Z M157.56654,220.228137 L157.56654,229.353612 L157.56654,230.570342 L160,230.570342 L160,229.353612 L160,220.228137 L160,219.011407 L157.56654,219.011407 L157.56654,220.228137 Z M157.56654,238.479087 L157.56654,247.604563 L157.56654,248.821293 L160,248.821293 L160,247.604563 L160,238.479087 L160,237.262357 L157.56654,237.262357 L157.56654,238.479087 Z M157.56654,256.730038 L157.56654,265.855513 L157.56654,267.072243 L160,267.072243 L160,265.855513 L160,256.730038 L160,255.513308 L157.56654,255.513308 L157.56654,256.730038 Z M157.56654,274.980989 L157.56654,284.106464 L157.56654,285.323194 L160,285.323194 L160,284.106464 L160,274.980989 L160,273.764259 L157.56654,273.764259 L157.56654,274.980989 Z M157.56654,293.231939 L157.56654,302.357414 L157.56654,303.574144 L160,303.574144 L160,302.357414 L160,293.231939 L160,292.015209 L157.56654,292.015209 L157.56654,293.231939 Z M157.56654,311.48289 L157.56654,320.608365 L157.56654,321.825095 L160,321.825095 L160,320.608365 L160,311.48289 L160,310.26616 L157.56654,310.26616 L157.56654,311.48289 Z M157.56654,329.73384 L157.56654,338.859316 L157.56654,340.076046 L160,340.076046 L160,338.859316 L160,329.73384 L160,328.51711 L157.56654,328.51711 L157.56654,329.73384 Z" id="Line-2" fill="#E1E6EA" fill-rule="nonzero"></path>
            <path d="M451.406844,77.8707224 L451.406844,86.9961977 L451.406844,88.2129278 L453.840304,88.2129278 L453.840304,86.9961977 L453.840304,77.8707224 L453.840304,76.6539924 L451.406844,76.6539924 L451.406844,77.8707224 Z M451.406844,96.121673 L451.406844,105.247148 L451.406844,106.463878 L453.840304,106.463878 L453.840304,105.247148 L453.840304,96.121673 L453.840304,94.904943 L451.406844,94.904943 L451.406844,96.121673 Z M451.406844,114.372624 L451.406844,123.498099 L451.406844,124.714829 L453.840304,124.714829 L453.840304,123.498099 L453.840304,114.372624 L453.840304,113.155894 L451.406844,113.155894 L451.406844,114.372624 Z M451.406844,132.623574 L451.406844,141.749049 L451.406844,142.965779 L453.840304,142.965779 L453.840304,141.749049 L453.840304,132.623574 L453.840304,131.406844 L451.406844,131.406844 L451.406844,132.623574 Z M451.406844,150.874525 L451.406844,160 L451.406844,161.21673 L453.840304,161.21673 L453.840304,160 L453.840304,150.874525 L453.840304,149.657795 L451.406844,149.657795 L451.406844,150.874525 Z M451.406844,169.125475 L451.406844,178.250951 L451.406844,179.467681 L453.840304,179.467681 L453.840304,178.250951 L453.840304,169.125475 L453.840304,167.908745 L451.406844,167.908745 L451.406844,169.125475 Z M451.406844,187.376426 L451.406844,196.501901 L451.406844,197.718631 L453.840304,197.718631 L453.840304,196.501901 L453.840304,187.376426 L453.840304,186.159696 L451.406844,186.159696 L451.406844,187.376426 Z M451.406844,205.627376 L451.406844,214.752852 L451.406844,215.969582 L453.840304,215.969582 L453.840304,214.752852 L453.840304,205.627376 L453.840304,204.410646 L451.406844,204.410646 L451.406844,205.627376 Z M451.406844,223.878327 L451.406844,233.003802 L451.406844,234.220532 L453.840304,234.220532 L453.840304,233.003802 L453.840304,223.878327 L453.840304,222.661597 L451.406844,222.661597 L451.406844,223.878327 Z M451.406844,242.129278 L451.406844,251.254753 L451.406844,252.471483 L453.840304,252.471483 L453.840304,251.254753 L453.840304,242.129278 L453.840304,240.912548 L451.406844,240.912548 L451.406844,242.129278 Z M451.406844,260.380228 L451.406844,269.505703 L451.406844,270.722433 L453.840304,270.722433 L453.840304,269.505703 L453.840304,260.380228 L453.840304,259.163498 L451.406844,259.163498 L451.406844,260.380228 Z M451.406844,278.631179 L451.406844,287.756654 L451.406844,288.973384 L453.840304,288.973384 L453.840304,287.756654 L453.840304,278.631179 L453.840304,277.414449 L451.406844,277.414449 L451.406844,278.631179 Z M451.406844,296.882129 L451.406844,306.007605 L451.406844,307.224335 L453.840304,307.224335 L453.840304,306.007605 L453.840304,296.882129 L453.840304,295.665399 L451.406844,295.665399 L451.406844,296.882129 Z M451.406844,315.13308 L451.406844,324.258555 L451.406844,325.475285 L453.840304,325.475285 L453.840304,324.258555 L453.840304,315.13308 L453.840304,313.91635 L451.406844,313.91635 L451.406844,315.13308 Z M451.406844,333.38403 L451.406844,342.509506 L451.406844,343.726236 L453.840304,343.726236 L453.840304,342.509506 L453.840304,333.38403 L453.840304,332.1673 L451.406844,332.1673 L451.406844,333.38403 Z" id="Line-2" fill="#E1E6EA" fill-rule="nonzero"></path>
            <path d="M637.56654,77.8707224 L637.56654,86.9961977 L637.56654,88.2129278 L640,88.2129278 L640,86.9961977 L640,77.8707224 L640,76.6539924 L637.56654,76.6539924 L637.56654,77.8707224 Z M637.56654,96.121673 L637.56654,105.247148 L637.56654,106.463878 L640,106.463878 L640,105.247148 L640,96.121673 L640,94.904943 L637.56654,94.904943 L637.56654,96.121673 Z M637.56654,114.372624 L637.56654,123.498099 L637.56654,124.714829 L640,124.714829 L640,123.498099 L640,114.372624 L640,113.155894 L637.56654,113.155894 L637.56654,114.372624 Z M637.56654,132.623574 L637.56654,141.749049 L637.56654,142.965779 L640,142.965779 L640,141.749049 L640,132.623574 L640,131.406844 L637.56654,131.406844 L637.56654,132.623574 Z M637.56654,150.874525 L637.56654,160 L637.56654,161.21673 L640,161.21673 L640,160 L640,150.874525 L640,149.657795 L637.56654,149.657795 L637.56654,150.874525 Z M637.56654,169.125475 L637.56654,178.250951 L637.56654,179.467681 L640,179.467681 L640,178.250951 L640,169.125475 L640,167.908745 L637.56654,167.908745 L637.56654,169.125475 Z M637.56654,187.376426 L637.56654,196.501901 L637.56654,197.718631 L640,197.718631 L640,196.501901 L640,187.376426 L640,186.159696 L637.56654,186.159696 L637.56654,187.376426 Z M637.56654,205.627376 L637.56654,214.752852 L637.56654,215.969582 L640,215.969582 L640,214.752852 L640,205.627376 L640,204.410646 L637.56654,204.410646 L637.56654,205.627376 Z M637.56654,223.878327 L637.56654,233.003802 L637.56654,234.220532 L640,234.220532 L640,233.003802 L640,223.878327 L640,222.661597 L637.56654,222.661597 L637.56654,223.878327 Z M637.56654,242.129278 L637.56654,251.254753 L637.56654,252.471483 L640,252.471483 L640,251.254753 L640,242.129278 L640,240.912548 L637.56654,240.912548 L637.56654,242.129278 Z M637.56654,260.380228 L637.56654,269.505703 L637.56654,270.722433 L640,270.722433 L640,269.505703 L640,260.380228 L640,259.163498 L637.56654,259.163498 L637.56654,260.380228 Z M637.56654,278.631179 L637.56654,287.756654 L637.56654,288.973384 L640,288.973384 L640,287.756654 L640,278.631179 L640,277.414449 L637.56654,277.414449 L637.56654,278.631179 Z M637.56654,296.882129 L637.56654,306.007605 L637.56654,307.224335 L640,307.224335 L640,306.007605 L640,296.882129 L640,295.665399 L637.56654,295.665399 L637.56654,296.882129 Z M637.56654,315.13308 L637.56654,324.258555 L637.56654,325.475285 L640,325.475285 L640,324.258555 L640,315.13308 L640,313.91635 L637.56654,313.91635 L637.56654,315.13308 Z M637.56654,333.38403 L637.56654,342.509506 L637.56654,343.726236 L640,343.726236 L640,342.509506 L640,333.38403 L640,332.1673 L637.56654,332.1673 L637.56654,333.38403 Z" id="Line-2" fill="#E1E6EA" fill-rule="nonzero"></path>
            <g id="Incoming-events" transform="translate(0.000000, 196.806084)" fill="#001B3D">
                <circle id="Oval" cx="101.901141" cy="10.6463878" r="10.6463878"></circle>
                <circle id="Oval" cx="132.319392" cy="10.6463878" r="10.6463878"></circle>
                <circle id="Oval" cx="71.4828897" cy="10.6463878" r="10.6463878"></circle>
                <circle id="Oval" cx="41.0646388" cy="10.6463878" r="10.6463878"></circle>
                <circle id="Oval" cx="10.6463878" cy="10.6463878" r="10.6463878"></circle>
                <path d="M8.07153042,63.878327 L8.07153042,55.3594344 L10.3190352,55.3594344 L10.3190352,63.878327 L8.07153042,63.878327 Z M9.19914449,54.085076 C8.50403992,54.085076 7.92478612,53.5135456 7.92478612,52.7952709 C7.92478612,52.0769962 8.50403992,51.5131892 9.19914449,51.5131892 C9.90197243,51.5131892 10.4735029,52.0769962 10.4735029,52.7952709 C10.4735029,53.5135456 9.90197243,54.085076 9.19914449,54.085076 Z M12.5897101,63.878327 L12.5897101,55.3594344 L14.7677044,55.3594344 L14.7677044,56.7264734 L14.9067253,56.7264734 C15.3006179,55.7687738 16.1656369,55.1740732 17.4245485,55.1740732 C19.3167776,55.1740732 20.3362643,56.3325808 20.3362643,58.3715542 L20.3362643,63.878327 L18.0887595,63.878327 L18.0887595,58.9044677 C18.0887595,57.7305133 17.5867395,57.1126426 16.5209125,57.1126426 C15.4782557,57.1126426 14.8372148,57.8463641 14.8372148,58.9662548 L14.8372148,63.878327 L12.5897101,63.878327 Z M30.0522814,58.3638308 L27.9515209,58.3638308 C27.7970532,57.5528755 27.2177994,57.019962 26.2600998,57.019962 C25.0475285,57.019962 24.3678707,57.9235979 24.3678707,59.5995722 C24.3678707,61.2987167 25.0552519,62.2177994 26.2600998,62.2177994 C27.1791825,62.2177994 27.7816065,61.7698432 27.9515209,60.9279943 L30.0522814,60.9279943 C29.8669202,62.8356702 28.476711,64.0636882 26.2600998,64.0636882 C23.6032557,64.0636882 22.0971958,62.4572243 22.0971958,59.5995722 C22.0971958,56.7728137 23.5955323,55.1740732 26.2600998,55.1740732 C28.5153279,55.1740732 29.8669202,56.4252614 30.0522814,58.3638308 Z M35.5822243,64.0636882 C32.9639971,64.0636882 31.3884268,62.4031606 31.3884268,59.615019 C31.3884268,56.8577709 32.9871673,55.1740732 35.5822243,55.1740732 C38.1772814,55.1740732 39.7760219,56.8500475 39.7760219,59.615019 C39.7760219,62.4031606 38.2004515,64.0636882 35.5822243,64.0636882 Z M35.5822243,62.2255228 C36.7793489,62.2255228 37.46673,61.2678232 37.46673,59.615019 C37.46673,57.9776616 36.7716255,57.0122386 35.5822243,57.0122386 C34.3850998,57.0122386 33.6977186,57.9776616 33.6977186,59.615019 C33.6977186,61.2755466 34.3773764,62.2255228 35.5822243,62.2255228 Z M41.6064639,63.878327 L41.6064639,55.3594344 L43.7844582,55.3594344 L43.7844582,56.7496435 L43.9234791,56.7496435 C44.2710314,55.7764971 45.1592205,55.1740732 46.2791112,55.1740732 C47.4762357,55.1740732 48.2949144,55.7610504 48.6347433,56.7496435 L48.7737643,56.7496435 C49.1676568,55.7996673 50.1485266,55.1740732 51.3379278,55.1740732 C53.0370722,55.1740732 54.0951759,56.2785171 54.0951759,58.0317253 L54.0951759,63.878327 L51.8476711,63.878327 L51.8476711,58.6264259 C51.8476711,57.6146625 51.3765447,57.1126426 50.4265684,57.1126426 C49.5152091,57.1126426 48.9282319,57.7614068 48.9282319,58.6650428 L48.9282319,63.878327 L46.7656844,63.878327 L46.7656844,58.5337452 C46.7656844,57.6301093 46.2404943,57.1126426 45.3600285,57.1126426 C44.4795627,57.1126426 43.8539686,57.8000238 43.8539686,58.75 L43.8539686,63.878327 L41.6064639,63.878327 Z M56.2886169,63.878327 L56.2886169,55.3594344 L58.5361217,55.3594344 L58.5361217,63.878327 L56.2886169,63.878327 Z M57.416231,54.085076 C56.7211264,54.085076 56.1418726,53.5135456 56.1418726,52.7952709 C56.1418726,52.0769962 56.7211264,51.5131892 57.416231,51.5131892 C58.1190589,51.5131892 58.6905894,52.0769962 58.6905894,52.7952709 C58.6905894,53.5135456 58.1190589,54.085076 57.416231,54.085076 Z M60.8067966,63.878327 L60.8067966,55.3594344 L62.9847909,55.3594344 L62.9847909,56.7264734 L63.1238118,56.7264734 C63.5177044,55.7687738 64.3827234,55.1740732 65.641635,55.1740732 C67.5338641,55.1740732 68.5533508,56.3325808 68.5533508,58.3715542 L68.5533508,63.878327 L66.305846,63.878327 L66.305846,58.9044677 C66.305846,57.7305133 65.803826,57.1126426 64.737999,57.1126426 C63.6953422,57.1126426 63.0543013,57.8463641 63.0543013,58.9662548 L63.0543013,63.878327 L60.8067966,63.878327 Z M74.5158032,61.9783745 C75.7360979,61.9783745 76.462096,61.0438451 76.462096,59.5455086 C76.462096,58.0471721 75.7283745,57.1049192 74.5158032,57.1049192 C73.3032319,57.1049192 72.600404,58.0471721 72.600404,59.5377852 C72.600404,61.0438451 73.2955086,61.9783745 74.5158032,61.9783745 Z M74.4849097,67.1067015 C72.2219582,67.1067015 70.7236217,66.110385 70.5846008,64.6120485 L72.8089354,64.6120485 C72.9247861,65.1372386 73.5581036,65.4693441 74.53125,65.4693441 C75.7360979,65.4693441 76.4389259,64.9132605 76.4389259,63.9555608 L76.4389259,62.3799905 L76.2999049,62.3799905 C75.8287785,63.275903 74.932866,63.7547529 73.7357414,63.7547529 C71.6118108,63.7547529 70.2911122,62.1096721 70.2911122,59.5455086 C70.2911122,56.9041112 71.6195342,55.2204135 73.7820817,55.2204135 C74.932866,55.2204135 75.9137357,55.7919439 76.3694154,56.7264734 L76.5084363,56.7264734 L76.5084363,55.3594344 L78.6864306,55.3594344 L78.6864306,63.8474335 C78.6864306,65.8477899 77.0567966,67.1067015 74.4849097,67.1067015 Z M88.7036597,56.8963878 C87.6610029,56.8963878 86.9272814,57.6223859 86.8500475,58.7268298 L90.480038,58.7268298 C90.4336977,57.5992158 89.7540399,56.8963878 88.7036597,56.8963878 Z M90.5263783,61.4531844 L92.6194154,61.4531844 C92.2873099,63.0519249 90.8121435,64.0636882 88.7268298,64.0636882 C86.1317728,64.0636882 84.6025428,62.4263308 84.6025428,59.6613593 C84.6025428,56.8886644 86.1626663,55.1740732 88.6959363,55.1740732 C91.2060361,55.1740732 92.6889259,56.7728137 92.6889259,59.4759981 L92.6889259,60.1633793 L86.8423241,60.1633793 L86.8423241,60.27923 C86.8732177,61.545865 87.6146625,62.3336502 88.7886169,62.3336502 C89.6768061,62.3336502 90.2869534,62.0169914 90.5263783,61.4531844 Z M101.995604,55.3594344 L99.0529943,63.878327 L96.5197243,63.878327 L93.5616683,55.3594344 L95.9790875,55.3594344 L97.740019,61.7080561 L97.8790399,61.7080561 L99.6245247,55.3594344 L101.995604,55.3594344 Z M106.853612,56.8963878 C105.810955,56.8963878 105.077234,57.6223859 105,58.7268298 L108.62999,58.7268298 C108.58365,57.5992158 107.903992,56.8963878 106.853612,56.8963878 Z M108.676331,61.4531844 L110.769368,61.4531844 C110.437262,63.0519249 108.962096,64.0636882 106.876782,64.0636882 C104.281725,64.0636882 102.752495,62.4263308 102.752495,59.6613593 C102.752495,56.8886644 104.312619,55.1740732 106.845889,55.1740732 C109.355989,55.1740732 110.838878,56.7728137 110.838878,59.4759981 L110.838878,60.1633793 L104.992277,60.1633793 L104.992277,60.27923 C105.02317,61.545865 105.764615,62.3336502 106.938569,62.3336502 C107.826759,62.3336502 108.436906,62.0169914 108.676331,61.4531844 Z M112.677044,63.878327 L112.677044,55.3594344 L114.855038,55.3594344 L114.855038,56.7264734 L114.994059,56.7264734 C115.387952,55.7687738 116.252971,55.1740732 117.511882,55.1740732 C119.404111,55.1740732 120.423598,56.3325808 120.423598,58.3715542 L120.423598,63.878327 L118.176093,63.878327 L118.176093,58.9044677 C118.176093,57.7305133 117.674073,57.1126426 116.608246,57.1126426 C115.565589,57.1126426 114.924548,57.8463641 114.924548,58.9662548 L114.924548,63.878327 L112.677044,63.878327 Z M123.242633,53.3359078 L125.490138,53.3359078 L125.490138,55.4443916 L127.258793,55.4443916 L127.258793,57.2130466 L125.490138,57.2130466 L125.490138,61.0438451 C125.490138,61.7852899 125.829967,62.1251188 126.594582,62.1251188 C126.88807,62.1251188 127.042538,62.1173954 127.258793,62.0942253 L127.258793,63.8088165 C126.980751,63.8628802 126.563688,63.9092205 126.131179,63.9092205 C124.061312,63.9092205 123.242633,63.2372861 123.242633,61.5767586 L123.242633,57.2130466 L121.914211,57.2130466 L121.914211,55.4443916 L123.242633,55.4443916 L123.242633,53.3359078 Z M128.857533,57.8618108 C128.857533,56.2476236 130.278636,55.1740732 132.402567,55.1740732 C134.565114,55.1740732 135.839472,56.0777091 135.963047,57.7073432 L133.885456,57.7073432 C133.769606,57.1589829 133.252139,56.819154 132.418013,56.819154 C131.614781,56.819154 131.020081,57.182153 131.020081,57.7227899 C131.020081,58.1398527 131.38308,58.3947243 132.170865,58.5723622 L133.769606,58.9199144 C135.42241,59.2829135 136.163855,59.9780181 136.163855,61.2523764 C136.163855,62.9515209 134.642348,64.0636882 132.41029,64.0636882 C130.162785,64.0636882 128.80347,63.1446055 128.649002,61.5072481 L130.842443,61.5072481 C131.012357,62.0865019 131.560718,62.4186074 132.45663,62.4186074 C133.329373,62.4186074 133.931797,62.0556084 133.931797,61.5072481 C133.931797,61.0901854 133.607414,60.8353137 132.858246,60.6731226 L131.313569,60.3255703 C129.660765,59.9625713 128.857533,59.1747861 128.857533,57.8618108 Z" id="incomingevents" fill-rule="nonzero"></path>
                <polygon id="Line-7" fill-rule="nonzero" points="177.338403 12.4714829 10.9505703 12.4714829 10.9505703 8.82129278 177.338403 8.82129278 177.338403 0.30418251 198.022814 10.6463878 177.338403 20.9885932"></polygon>
            </g>
            <g id="Buffer" transform="translate(208.060837, 189.505703)">
                <rect id="Rectangle" fill="#E1E6EA" x="0" y="0" width="180.684411" height="36.5019011" rx="6"></rect>
                <circle id="Oval" fill="#001B3D" cx="142.661597" cy="17.9467681" r="10.6463878"></circle>
                <circle id="Oval" fill="#001B3D" cx="121.368821" cy="17.9467681" r="10.6463878"></circle>
                <path d="M69.9803945,71.3201046 C68.682866,71.3201046 67.6431797,70.7378802 67.1524477,69.7397814 L67.0027329,69.7397814 L67.0027329,71.1787072 L64.6572006,71.1787072 L64.6572006,58.5028517 L67.0775903,58.5028517 L67.0775903,63.4683935 L67.2273051,63.4683935 C67.6930846,62.4619772 68.7244534,61.8548004 69.9803945,61.8548004 C72.3009743,61.8548004 73.6983127,63.6264259 73.6983127,66.5874525 C73.6983127,69.5318441 72.2843394,71.3201046 69.9803945,71.3201046 Z M69.1403279,63.8842681 C67.8677519,63.8842681 67.0609553,64.9239544 67.0526378,66.59577 C67.0609553,68.2592681 67.8594344,69.2989544 69.1403279,69.2989544 C70.429539,69.2989544 71.2113831,68.2675856 71.2113831,66.5874525 C71.2113831,64.9156369 70.4212215,63.8842681 69.1403279,63.8842681 Z M83.9704135,62.0045152 L83.9704135,71.1787072 L81.6248812,71.1787072 L81.6248812,69.7065114 L81.4751663,69.7065114 C81.0426568,70.7711502 80.1859553,71.378327 78.7969344,71.378327 C76.8173717,71.378327 75.5863831,70.1140684 75.5863831,67.9847909 L75.5863831,62.0045152 L78.0067728,62.0045152 L78.0067728,67.3609791 C78.0067728,68.6252376 78.5806797,69.2740019 79.6952234,69.2740019 C80.9012595,69.2740019 81.5500238,68.5171103 81.5500238,67.2944392 L81.5500238,62.0045152 L83.9704135,62.0045152 Z M87.3140447,71.1787072 L87.3140447,64.0007129 L85.8335314,64.0007129 L85.8335314,62.0960076 L87.3140447,62.0960076 L87.3140447,61.1644487 C87.3140447,59.3429183 88.2456036,58.4196768 90.4580561,58.4196768 C90.948788,58.4196768 91.3563451,58.4529468 91.7056797,58.5111692 L91.7056797,60.2245722 C91.5476473,60.2079373 91.2981226,60.1829848 90.982058,60.1829848 C90.0338641,60.1829848 89.6845295,60.5572719 89.6845295,61.339116 L89.6845295,62.0960076 L91.6308222,62.0960076 L91.6308222,64.0007129 L89.7344344,64.0007129 L89.7344344,71.1787072 L87.3140447,71.1787072 Z M94.3506416,71.1787072 L94.3506416,64.0007129 L92.8701283,64.0007129 L92.8701283,62.0960076 L94.3506416,62.0960076 L94.3506416,61.1644487 C94.3506416,59.3429183 95.2822006,58.4196768 97.494653,58.4196768 C97.985385,58.4196768 98.392942,58.4529468 98.7422766,58.5111692 L98.7422766,60.2245722 C98.5842443,60.2079373 98.3347196,60.1829848 98.0186549,60.1829848 C97.070461,60.1829848 96.7211264,60.5572719 96.7211264,61.339116 L96.7211264,62.0960076 L98.6674192,62.0960076 L98.6674192,64.0007129 L96.7710314,64.0007129 L96.7710314,71.1787072 L94.3506416,71.1787072 Z M104.248455,63.6596958 C103.125594,63.6596958 102.335433,64.4415399 102.252258,65.6309411 L106.161478,65.6309411 C106.111573,64.4165875 105.379634,63.6596958 104.248455,63.6596958 Z M106.211383,68.5670152 L108.465423,68.5670152 C108.107771,70.2887357 106.51913,71.378327 104.273408,71.378327 C101.478731,71.378327 99.8318679,69.615019 99.8318679,66.6373574 C99.8318679,63.6513783 101.512001,61.8048954 104.240138,61.8048954 C106.943322,61.8048954 108.54028,63.526616 108.54028,66.4377376 L108.54028,67.1779943 L102.24394,67.1779943 L102.24394,67.3027567 C102.27721,68.6668251 103.075689,69.5152091 104.339948,69.5152091 C105.296459,69.5152091 105.953541,69.174192 106.211383,68.5670152 Z M110.519843,71.1787072 L110.519843,62.0045152 L112.865375,62.0045152 L112.865375,63.4683935 L113.01509,63.4683935 C113.256298,62.5534696 114.204491,61.8548004 115.36894,61.8548004 C115.70164,61.8548004 116.109197,61.8963878 116.317134,61.9712452 L116.317134,64.1753802 C116.125832,64.1005228 115.560242,64.0256654 115.16932,64.0256654 C113.846839,64.0256654 112.940233,64.8075095 112.940233,66.0967205 L112.940233,71.1787072 L110.519843,71.1787072 Z" id="buffer" fill="#001B3D" fill-rule="nonzero"></path>
                <circle id="Oval" fill="#001B3D" cx="163.954373" cy="17.9467681" r="10.6463878"></circle>
            </g>
            <g id="Batches" transform="translate(397.870722, 108.593156)" fill-rule="nonzero">
                <path d="M116.368821,231.92847 C115.071293,231.92847 114.031606,231.346245 113.540875,230.348146 L113.39116,230.348146 L113.39116,231.787072 L111.045627,231.787072 L111.045627,219.111217 L113.466017,219.111217 L113.466017,224.076759 L113.615732,224.076759 C114.081511,223.070342 115.11288,222.463165 116.368821,222.463165 C118.689401,222.463165 120.08674,224.234791 120.08674,227.195817 C120.08674,230.140209 118.672766,231.92847 116.368821,231.92847 Z M115.528755,224.492633 C114.256179,224.492633 113.449382,225.532319 113.441065,227.204135 C113.449382,228.867633 114.247861,229.907319 115.528755,229.907319 C116.817966,229.907319 117.59981,228.875951 117.59981,227.195817 C117.59981,225.524002 116.809648,224.492633 115.528755,224.492633 Z M125.368346,230.106939 C126.491207,230.106939 127.339591,229.391635 127.339591,228.460076 L127.339591,227.786359 L125.484791,227.902804 C124.445105,227.977662 123.937738,228.351949 123.937738,229.00903 C123.937738,229.691065 124.528279,230.106939 125.368346,230.106939 Z M124.569867,231.92847 C122.806559,231.92847 121.567253,230.847196 121.567253,229.167063 C121.567253,227.503565 122.839829,226.538736 125.118821,226.405656 L127.339591,226.272576 L127.339591,225.524002 C127.339591,224.758793 126.790637,224.326283 125.792538,224.326283 C124.919202,224.326283 124.336977,224.625713 124.137357,225.174667 L121.90827,225.174667 C122.066302,223.477899 123.621673,222.41326 125.925618,222.41326 C128.354325,222.41326 129.726711,223.561074 129.726711,225.524002 L129.726711,231.787072 L127.381179,231.787072 L127.381179,230.589354 L127.231464,230.589354 C126.757367,231.42942 125.759268,231.92847 124.569867,231.92847 Z M132.795865,220.433698 L135.216255,220.433698 L135.216255,222.704373 L137.12096,222.704373 L137.12096,224.609078 L135.216255,224.609078 L135.216255,228.734553 C135.216255,229.533032 135.582224,229.899002 136.405656,229.899002 C136.721721,229.899002 136.88807,229.890684 137.12096,229.865732 L137.12096,231.712215 C136.82153,231.770437 136.372386,231.820342 135.906606,231.820342 C133.677519,231.820342 132.795865,231.096721 132.795865,229.30846 L132.795865,224.609078 L131.365257,224.609078 L131.365257,222.704373 L132.795865,222.704373 L132.795865,220.433698 Z M147.185124,225.848384 L144.922766,225.848384 C144.756416,224.975048 144.132605,224.401141 143.101236,224.401141 C141.79539,224.401141 141.063451,225.374287 141.063451,227.179183 C141.063451,229.00903 141.803707,229.998812 143.101236,229.998812 C144.091017,229.998812 144.739781,229.516397 144.922766,228.609791 L147.185124,228.609791 C146.985504,230.664211 145.488356,231.986692 143.101236,231.986692 C140.240019,231.986692 138.618108,230.256654 138.618108,227.179183 C138.618108,224.134981 140.231702,222.41326 143.101236,222.41326 C145.529943,222.41326 146.985504,223.760694 147.185124,225.848384 Z M149.156369,231.787072 L149.156369,219.111217 L151.535171,219.111217 L151.535171,224.118346 L151.684886,224.118346 C152.109078,223.070342 153.107177,222.438213 154.45461,222.438213 C156.425856,222.438213 157.598622,223.677519 157.598622,225.881654 L157.598622,231.787072 L155.178232,231.787072 L155.178232,226.455561 C155.178232,225.182985 154.58769,224.525903 153.489781,224.525903 C152.275428,224.525903 151.576759,225.3327 151.576759,226.522101 L151.576759,231.787072 L149.156369,231.787072 Z M163.911597,224.268061 C162.788736,224.268061 161.998574,225.049905 161.915399,226.239306 L165.82462,226.239306 C165.774715,225.024952 165.042776,224.268061 163.911597,224.268061 Z M165.874525,229.17538 L168.128565,229.17538 C167.770913,230.897101 166.182272,231.986692 163.936549,231.986692 C161.141873,231.986692 159.49501,230.223384 159.49501,227.245722 C159.49501,224.259743 161.175143,222.41326 163.903279,222.41326 C166.606464,222.41326 168.203422,224.134981 168.203422,227.046103 L168.203422,227.786359 L161.907082,227.786359 L161.907082,227.911122 C161.940352,229.27519 162.738831,230.123574 164.003089,230.123574 C164.959601,230.123574 165.616683,229.782557 165.874525,229.17538 Z M169.975048,225.307747 C169.975048,223.569392 171.505466,222.41326 173.792776,222.41326 C176.121673,222.41326 177.494059,223.386407 177.627139,225.141397 L175.389734,225.141397 C175.264971,224.550856 174.7077,224.184886 173.809411,224.184886 C172.944392,224.184886 172.303945,224.575808 172.303945,225.158032 C172.303945,225.607177 172.694867,225.881654 173.543251,226.072956 L175.264971,226.447243 C177.044914,226.838165 177.843394,227.58674 177.843394,228.959125 C177.843394,230.788973 176.204848,231.986692 173.801093,231.986692 C171.380703,231.986692 169.916825,230.996911 169.750475,229.233603 L172.112643,229.233603 C172.295627,229.857414 172.886169,230.215067 173.850998,230.215067 C174.790875,230.215067 175.439639,229.824144 175.439639,229.233603 C175.439639,228.784458 175.090304,228.509981 174.283508,228.335314 L172.62001,227.961027 C170.840067,227.570105 169.975048,226.721721 169.975048,225.307747 Z" id="batches" fill="#001B3D"></path>
                <g id="rotate" transform="translate(144.182510, 27.376426) scale(-1, 1) translate(-144.182510, -27.376426) translate(116.806084, 0.000000)">
                    <path d="M54.7528517,27.3764259 C54.7528517,42.4962033 42.4962033,54.7528517 27.3764259,54.7528517 C12.2566484,54.7528517 0,42.4962033 0,27.3764259 C0,12.2566484 12.2566484,0 27.3764259,0 C42.4962033,0 54.7528517,12.2566484 54.7528517,27.3764259 Z" id="Path" fill="#000000"></path>
                    <g id="Group" transform="translate(9.517586, 9.731464)" fill="#E1E6EA">
                        <path d="M36.5431173,18.3889411 C36.5431173,8.26313901 28.3054598,0.0254815708 18.1796578,0.0254815708 C13.6004894,0.0254815708 9.21138868,1.75363524 5.86494475,4.77174247 L5.86494475,0.209283258 L2.65676984,0.209283258 L2.65676984,10.3350853 L12.7825719,10.3350853 L12.7825719,7.1269104 L8.0438302,7.1269104 C10.8025264,4.6510182 14.4133941,3.23365648 18.1796578,3.23365648 C26.5363686,3.23365648 33.3349424,10.0322303 33.3349424,18.3889411 L33.5187441,18.3889411 C33.5187441,18.859724 33.4974397,19.3346843 33.4548312,19.8000368 L36.2837063,20.0573591 C36.333834,19.5067895 36.3593156,18.9453589 36.3597333,18.3889411 L35.1495663,18.3889411 L36.5431173,18.3889411 Z" id="Path"></path>
                        <path d="M6.22962398,28.0067821 L4.01773774,29.7892407 C4.66020823,30.5862717 5.37536389,31.3344281 6.14273591,32.0128234 L8.02419682,29.8849011 C7.37629584,29.311774 6.77225671,28.6797469 6.22962398,28.0067821 Z" id="Path"></path>
                        <path d="M3.70819901,23.4886024 L1.02928945,24.4326747 C1.36974033,25.398469 1.79582606,26.3425413 2.29626787,27.2389923 L4.77633743,25.8542137 C4.35442906,25.0985382 3.99518031,24.3027603 3.70819901,23.4886024 L3.70819901,23.4886024 Z" id="Path"></path>
                        <path d="M2.84057153,18.3889411 L0,18.3889411 C0,19.4165596 0.086470366,20.4471022 0.257322362,21.452581 L3.05779171,20.977203 C2.9136745,20.1283734 2.84057153,19.2574041 2.84057153,18.3889411 Z" id="Path"></path>
                        <path d="M8.61027359,33.8487517 C9.48166062,34.3892957 10.4044287,34.8584077 11.3526783,35.2427204 L12.4199813,32.6101789 C11.6204439,32.2860195 10.8426286,31.890846 10.1074219,31.4346836 L8.61027359,33.8487517 Z" id="Path"></path>
                        <path d="M32.1214335,24.7952653 L34.7017586,25.9832926 C35.1303506,25.0517523 35.4816626,24.0776033 35.7460863,23.0875805 L33.0015929,22.3548802 C32.7789422,23.1890892 32.4827709,24.0103486 32.1214335,24.7952653 Z" id="Path"></path>
                        <path d="M14.293923,36.152121 C15.2918827,36.3693411 16.318248,36.5030151 17.3441956,36.5493833 L17.4724391,33.7117359 C16.6060647,33.6728868 15.7401081,33.5596817 14.8983799,33.3762978 L14.293923,36.152121 Z" id="Path"></path>
                        <path d="M29.1960626,29.0623886 L31.2358436,31.0390922 C31.9489105,30.3034678 32.6039129,29.5022594 33.1828882,28.6584426 L30.8402522,27.0518488 C30.3515067,27.764498 29.7984309,28.4408047 29.1960626,29.0623886 Z" id="Path"></path>
                        <path d="M25.0212578,32.1218512 L26.290325,34.6633273 C27.2059916,34.2059117 28.0899106,33.6666208 28.9170182,33.0600754 L27.2377391,30.7692379 C26.5397104,31.2809585 25.7936427,31.7362854 25.0212578,32.1218512 Z" id="Path"></path>
                        <path d="M20.069891,33.6127335 L20.4157724,36.4320009 C21.4342009,36.3070992 22.4476165,36.0940563 23.4276137,35.7991382 L22.6088608,33.0792909 C21.7825886,33.327841 20.9283285,33.5074653 20.069891,33.6127335 Z" id="Path"></path>
                    </g>
                </g>
                <g id="rotate" transform="translate(144.182510, 99.163498) scale(-1, 1) translate(-144.182510, -99.163498) translate(116.806084, 71.787072)">
                    <path d="M54.7528517,27.3764259 C54.7528517,42.4962033 42.4962033,54.7528517 27.3764259,54.7528517 C12.2566484,54.7528517 0,42.4962033 0,27.3764259 C0,12.2566484 12.2566484,0 27.3764259,0 C42.4962033,0 54.7528517,12.2566484 54.7528517,27.3764259 Z" id="Path" fill="#000000"></path>
                    <g id="Group" transform="translate(9.517586, 9.731464)" fill="#E1E6EA">
                        <path d="M36.5431173,18.3889411 C36.5431173,8.26313901 28.3054598,0.0254815708 18.1796578,0.0254815708 C13.6004894,0.0254815708 9.21138868,1.75363524 5.86494475,4.77174247 L5.86494475,0.209283258 L2.65676984,0.209283258 L2.65676984,10.3350853 L12.7825719,10.3350853 L12.7825719,7.1269104 L8.0438302,7.1269104 C10.8025264,4.6510182 14.4133941,3.23365648 18.1796578,3.23365648 C26.5363686,3.23365648 33.3349424,10.0322303 33.3349424,18.3889411 L33.5187441,18.3889411 C33.5187441,18.859724 33.4974397,19.3346843 33.4548312,19.8000368 L36.2837063,20.0573591 C36.333834,19.5067895 36.3593156,18.9453589 36.3597333,18.3889411 L35.1495663,18.3889411 L36.5431173,18.3889411 Z" id="Path"></path>
                        <path d="M6.22962398,28.0067821 L4.01773774,29.7892407 C4.66020823,30.5862717 5.37536389,31.3344281 6.14273591,32.0128234 L8.02419682,29.8849011 C7.37629584,29.311774 6.77225671,28.6797469 6.22962398,28.0067821 Z" id="Path"></path>
                        <path d="M3.70819901,23.4886024 L1.02928945,24.4326747 C1.36974033,25.398469 1.79582606,26.3425413 2.29626787,27.2389923 L4.77633743,25.8542137 C4.35442906,25.0985382 3.99518031,24.3027603 3.70819901,23.4886024 L3.70819901,23.4886024 Z" id="Path"></path>
                        <path d="M2.84057153,18.3889411 L0,18.3889411 C0,19.4165596 0.086470366,20.4471022 0.257322362,21.452581 L3.05779171,20.977203 C2.9136745,20.1283734 2.84057153,19.2574041 2.84057153,18.3889411 Z" id="Path"></path>
                        <path d="M8.61027359,33.8487517 C9.48166062,34.3892957 10.4044287,34.8584077 11.3526783,35.2427204 L12.4199813,32.6101789 C11.6204439,32.2860195 10.8426286,31.890846 10.1074219,31.4346836 L8.61027359,33.8487517 Z" id="Path"></path>
                        <path d="M32.1214335,24.7952653 L34.7017586,25.9832926 C35.1303506,25.0517523 35.4816626,24.0776033 35.7460863,23.0875805 L33.0015929,22.3548802 C32.7789422,23.1890892 32.4827709,24.0103486 32.1214335,24.7952653 Z" id="Path"></path>
                        <path d="M14.293923,36.152121 C15.2918827,36.3693411 16.318248,36.5030151 17.3441956,36.5493833 L17.4724391,33.7117359 C16.6060647,33.6728868 15.7401081,33.5596817 14.8983799,33.3762978 L14.293923,36.152121 Z" id="Path"></path>
                        <path d="M29.1960626,29.0623886 L31.2358436,31.0390922 C31.9489105,30.3034678 32.6039129,29.5022594 33.1828882,28.6584426 L30.8402522,27.0518488 C30.3515067,27.764498 29.7984309,28.4408047 29.1960626,29.0623886 Z" id="Path"></path>
                        <path d="M25.0212578,32.1218512 L26.290325,34.6633273 C27.2059916,34.2059117 28.0899106,33.6666208 28.9170182,33.0600754 L27.2377391,30.7692379 C26.5397104,31.2809585 25.7936427,31.7362854 25.0212578,32.1218512 Z" id="Path"></path>
                        <path d="M20.069891,33.6127335 L20.4157724,36.4320009 C21.4342009,36.3070992 22.4476165,36.0940563 23.4276137,35.7991382 L22.6088608,33.0792909 C21.7825886,33.327841 20.9283285,33.5074653 20.069891,33.6127335 Z" id="Path"></path>
                    </g>
                </g>
                <g id="rotate" transform="translate(144.182510, 170.950570) scale(-1, 1) translate(-144.182510, -170.950570) translate(116.806084, 143.574144)">
                    <path d="M54.7528517,27.3764259 C54.7528517,42.4962033 42.4962033,54.7528517 27.3764259,54.7528517 C12.2566484,54.7528517 0,42.4962033 0,27.3764259 C0,12.2566484 12.2566484,0 27.3764259,0 C42.4962033,0 54.7528517,12.2566484 54.7528517,27.3764259 Z" id="Path" fill="#000000"></path>
                    <g id="Group" transform="translate(9.517586, 9.731464)" fill="#E1E6EA">
                        <path d="M36.5431173,18.3889411 C36.5431173,8.26313901 28.3054598,0.0254815708 18.1796578,0.0254815708 C13.6004894,0.0254815708 9.21138868,1.75363524 5.86494475,4.77174247 L5.86494475,0.209283258 L2.65676984,0.209283258 L2.65676984,10.3350853 L12.7825719,10.3350853 L12.7825719,7.1269104 L8.0438302,7.1269104 C10.8025264,4.6510182 14.4133941,3.23365648 18.1796578,3.23365648 C26.5363686,3.23365648 33.3349424,10.0322303 33.3349424,18.3889411 L33.5187441,18.3889411 C33.5187441,18.859724 33.4974397,19.3346843 33.4548312,19.8000368 L36.2837063,20.0573591 C36.333834,19.5067895 36.3593156,18.9453589 36.3597333,18.3889411 L35.1495663,18.3889411 L36.5431173,18.3889411 Z" id="Path"></path>
                        <path d="M6.22962398,28.0067821 L4.01773774,29.7892407 C4.66020823,30.5862717 5.37536389,31.3344281 6.14273591,32.0128234 L8.02419682,29.8849011 C7.37629584,29.311774 6.77225671,28.6797469 6.22962398,28.0067821 Z" id="Path"></path>
                        <path d="M3.70819901,23.4886024 L1.02928945,24.4326747 C1.36974033,25.398469 1.79582606,26.3425413 2.29626787,27.2389923 L4.77633743,25.8542137 C4.35442906,25.0985382 3.99518031,24.3027603 3.70819901,23.4886024 L3.70819901,23.4886024 Z" id="Path"></path>
                        <path d="M2.84057153,18.3889411 L0,18.3889411 C0,19.4165596 0.086470366,20.4471022 0.257322362,21.452581 L3.05779171,20.977203 C2.9136745,20.1283734 2.84057153,19.2574041 2.84057153,18.3889411 Z" id="Path"></path>
                        <path d="M8.61027359,33.8487517 C9.48166062,34.3892957 10.4044287,34.8584077 11.3526783,35.2427204 L12.4199813,32.6101789 C11.6204439,32.2860195 10.8426286,31.890846 10.1074219,31.4346836 L8.61027359,33.8487517 Z" id="Path"></path>
                        <path d="M32.1214335,24.7952653 L34.7017586,25.9832926 C35.1303506,25.0517523 35.4816626,24.0776033 35.7460863,23.0875805 L33.0015929,22.3548802 C32.7789422,23.1890892 32.4827709,24.0103486 32.1214335,24.7952653 Z" id="Path"></path>
                        <path d="M14.293923,36.152121 C15.2918827,36.3693411 16.318248,36.5030151 17.3441956,36.5493833 L17.4724391,33.7117359 C16.6060647,33.6728868 15.7401081,33.5596817 14.8983799,33.3762978 L14.293923,36.152121 Z" id="Path"></path>
                        <path d="M29.1960626,29.0623886 L31.2358436,31.0390922 C31.9489105,30.3034678 32.6039129,29.5022594 33.1828882,28.6584426 L30.8402522,27.0518488 C30.3515067,27.764498 29.7984309,28.4408047 29.1960626,29.0623886 Z" id="Path"></path>
                        <path d="M25.0212578,32.1218512 L26.290325,34.6633273 C27.2059916,34.2059117 28.0899106,33.6666208 28.9170182,33.0600754 L27.2377391,30.7692379 C26.5397104,31.2809585 25.7936427,31.7362854 25.0212578,32.1218512 Z" id="Path"></path>
                        <path d="M20.069891,33.6127335 L20.4157724,36.4320009 C21.4342009,36.3070992 22.4476165,36.0940563 23.4276137,35.7991382 L22.6088608,33.0792909 C21.7825886,33.327841 20.9283285,33.5074653 20.069891,33.6127335 Z" id="Path"></path>
                    </g>
                </g>
                <path d="M93.0797797,28.6857648 C73.9450335,30.2453005 61.6107111,37.8710206 55.8752134,51.5724874 C52.3560882,59.9792864 51.5952939,61.7982539 51.0458619,63.1215945 C50.969498,63.3055217 50.903489,63.4649421 50.8472194,63.6012923 C50.8442141,63.6876764 50.8396695,63.7071233 50.8259095,63.7660046 C50.7892219,63.9400208 50.687118,64.2246859 50.4396391,64.8687299 C49.909158,66.249265 48.7394527,69.1742367 46.7549679,74.069299 C40.4750841,89.5596791 25.3552715,98.2144684 1.61584462,100.072337 L0.402823649,100.167269 L0.212959496,97.7412267 L1.42598047,97.6462946 C24.3278718,95.8539727 38.6123684,87.6773298 44.4997849,73.1550356 C46.4787855,68.273501 47.6446515,65.3581297 48.1681077,63.9958765 C48.1861344,63.9489635 48.2034113,63.9037977 48.2198989,63.8605321 C48.216362,63.7925303 48.2195077,63.7682723 48.2277448,63.7047521 C48.2501705,63.5732593 48.2501705,63.5732593 48.2648113,63.5218312 C48.2862232,63.4511969 48.2862232,63.4511969 48.2999731,63.4127524 C48.3466199,63.2827014 48.4840867,62.9455551 48.7984111,62.1884854 C49.3492697,60.8617085 50.1093951,59.0443403 53.6304901,50.6328358 C59.7683949,35.9700631 72.9861229,27.8373965 93.0798765,26.2445024 L93.080109,20.0755234 L107.680608,27.3764259 L93.0795868,34.6762838 L93.0798011,28.6857631 L93.0797797,28.6857648 Z" id="Line" fill="#E1E6EA"></path>
                <path d="M93.0797797,107.164852 C73.9450335,108.724388 61.6107111,116.350108 55.8752134,130.051575 C52.3560882,138.458374 51.5952939,140.277341 51.0458619,141.600682 C50.969498,141.784609 50.903489,141.94403 50.8472194,142.08038 C50.8442141,142.166764 50.8396695,142.186211 50.8259095,142.245092 C50.7892219,142.419108 50.687118,142.703773 50.4396391,143.347817 C49.909158,144.728352 48.7394527,147.653324 46.7549679,152.548386 C40.4750841,168.038767 25.3552715,176.693556 1.61584462,178.551424 L0.402823649,178.646356 L0.212959496,176.220314 L1.42598047,176.125382 C24.3278718,174.33306 38.6123684,166.156417 44.4997849,151.634123 C46.4787855,146.752588 47.6446515,143.837217 48.1681077,142.474964 C48.1861344,142.428051 48.2034113,142.382885 48.2198989,142.33962 C48.216362,142.271618 48.2195077,142.24736 48.2277448,142.18384 C48.2501705,142.052347 48.2501705,142.052347 48.2648113,142.000919 C48.2862232,141.930284 48.2862232,141.930284 48.2999731,141.89184 C48.3466199,141.761789 48.4840867,141.424643 48.7984111,140.667573 C49.3492697,139.340796 50.1093951,137.523428 53.6304901,129.111923 C59.7683949,114.449151 72.9861229,106.316484 93.0798765,104.72359 L93.080109,98.5546108 L107.680608,105.855513 L93.0795868,113.155371 L93.0798011,107.164851 L93.0797797,107.164852 Z" id="Line" fill="#E1E6EA" transform="translate(53.946784, 138.600483) scale(1, -1) translate(-53.946784, -138.600483) "></path>
                <polygon id="Line-3" fill="#E1E6EA" points="93.0833942 100.117876 0.307673822 100.383709 0.300701186 97.9502594 93.0764215 97.6844264 93.0589899 91.6008011 107.680608 98.8593156 93.1008258 106.201502 93.0833942 100.117876"></polygon>
            </g>
            <g id="Service" transform="translate(586.463878, 108.593156)" fill-rule="nonzero">
                <path d="M132.199382,228.957937 C132.199382,227.219582 133.7298,226.063451 136.01711,226.063451 C138.346008,226.063451 139.718394,227.036597 139.851473,228.791587 L137.614068,228.791587 C137.489306,228.201046 136.932034,227.835076 136.033745,227.835076 C135.168726,227.835076 134.528279,228.225998 134.528279,228.808222 C134.528279,229.257367 134.919202,229.531844 135.767586,229.723146 L137.489306,230.097433 C139.269249,230.488356 140.067728,231.23693 140.067728,232.609316 C140.067728,234.439163 138.429183,235.636882 136.025428,235.636882 C133.605038,235.636882 132.14116,234.647101 131.97481,232.883793 L134.336977,232.883793 C134.519962,233.507605 135.110504,233.865257 136.075333,233.865257 C137.015209,233.865257 137.663973,233.474335 137.663973,232.883793 C137.663973,232.434648 137.314639,232.160171 136.507842,231.985504 L134.844344,231.611217 C133.064401,231.220295 132.199382,230.371911 132.199382,228.957937 Z M146.023051,227.918251 C144.90019,227.918251 144.110029,228.700095 144.026854,229.889496 L147.936074,229.889496 C147.886169,228.675143 147.15423,227.918251 146.023051,227.918251 Z M147.985979,232.82557 L150.240019,232.82557 C149.882367,234.547291 148.293726,235.636882 146.048004,235.636882 C143.253327,235.636882 141.606464,233.873574 141.606464,230.895913 C141.606464,227.909933 143.286597,226.063451 146.014734,226.063451 C148.717918,226.063451 150.314876,227.785171 150.314876,230.696293 L150.314876,231.436549 L144.018536,231.436549 L144.018536,231.561312 C144.051806,232.92538 144.850285,233.773764 146.114544,233.773764 C147.071055,233.773764 147.728137,233.432747 147.985979,232.82557 Z M152.294439,235.437262 L152.294439,226.26307 L154.639971,226.26307 L154.639971,227.726949 L154.789686,227.726949 C155.030894,226.812025 155.979087,226.113356 157.143536,226.113356 C157.476236,226.113356 157.883793,226.154943 158.09173,226.2298 L158.09173,228.433935 C157.900428,228.359078 157.334838,228.284221 156.943916,228.284221 C155.621435,228.284221 154.714829,229.066065 154.714829,230.355276 L154.714829,235.437262 L152.294439,235.437262 Z M168.122624,226.26307 L164.95366,235.437262 L162.225523,235.437262 L159.039924,226.26307 L161.643298,226.26307 L163.539686,233.100048 L163.689401,233.100048 L165.569154,226.26307 L168.122624,226.26307 Z M169.777804,235.437262 L169.777804,226.26307 L172.198194,226.26307 L172.198194,235.437262 L169.777804,235.437262 Z M170.992158,224.890684 C170.243584,224.890684 169.619772,224.27519 169.619772,223.501663 C169.619772,222.728137 170.243584,222.12096 170.992158,222.12096 C171.749049,222.12096 172.364544,222.728137 172.364544,223.501663 C172.364544,224.27519 171.749049,224.890684 170.992158,224.890684 Z M182.761407,229.498574 L180.499049,229.498574 C180.3327,228.625238 179.708888,228.051331 178.677519,228.051331 C177.371673,228.051331 176.639734,229.024477 176.639734,230.829373 C176.639734,232.659221 177.37999,233.649002 178.677519,233.649002 C179.6673,233.649002 180.316065,233.166587 180.499049,232.259981 L182.761407,232.259981 C182.561787,234.314401 181.064639,235.636882 178.677519,235.636882 C175.816302,235.636882 174.194392,233.906844 174.194392,230.829373 C174.194392,227.785171 175.807985,226.063451 178.677519,226.063451 C181.106226,226.063451 182.561787,227.410884 182.761407,229.498574 Z M188.61692,227.918251 C187.494059,227.918251 186.703897,228.700095 186.620722,229.889496 L190.529943,229.889496 C190.480038,228.675143 189.748099,227.918251 188.61692,227.918251 Z M190.579848,232.82557 L192.833888,232.82557 C192.476236,234.547291 190.887595,235.636882 188.641873,235.636882 C185.847196,235.636882 184.200333,233.873574 184.200333,230.895913 C184.200333,227.909933 185.880466,226.063451 188.608603,226.063451 C191.311787,226.063451 192.908745,227.785171 192.908745,230.696293 L192.908745,231.436549 L186.612405,231.436549 L186.612405,231.561312 C186.645675,232.92538 187.444154,233.773764 188.708413,233.773764 C189.664924,233.773764 190.322006,233.432747 190.579848,232.82557 Z" id="service" fill="#001B3D"></path>
                <g id="mobileme-logo-of-black-cloud" transform="translate(131.406844, 0.000000)" fill="#000000">
                    <path d="M80.6511381,38.7674566 C80.6511381,47.577228 73.5610188,54.7191 64.818376,54.7191 L15.8299495,54.7191 C7.08749414,54.7191 0,47.577228 0,38.7674566 C0,30.8108547 5.78017605,24.2195114 13.3424449,23.0134486 C13.2466274,22.4550445 13.1937497,21.8805146 13.1937497,21.2891088 C13.1937497,15.7071306 17.6849836,11.1827074 23.2266472,11.1827074 C25.6980259,11.1827074 27.9627689,12.0831293 29.7099849,13.5813324 C32.8248971,6.50940153 36.8181051,0.0555028908 48.0206886,0.0555028908 C61.6068962,0.0555028908 68.0461691,10.6128653 68.0461691,21.7531955 C68.0461691,22.2191572 68.0266681,22.6808063 67.9953539,23.1375801 C75.21673,24.6202198 80.6511381,31.0540549 80.6511381,38.7674566 Z" id="MobileMe"></path>
                </g>
                <g id="mobileme-logo-of-black-cloud" transform="translate(126.539924, 71.787072)" fill="#000000">
                    <path d="M80.6511381,38.7674566 C80.6511381,47.577228 73.5610188,54.7191 64.818376,54.7191 L15.8299495,54.7191 C7.08749414,54.7191 0,47.577228 0,38.7674566 C0,30.8108547 5.78017605,24.2195114 13.3424449,23.0134486 C13.2466274,22.4550445 13.1937497,21.8805146 13.1937497,21.2891088 C13.1937497,15.7071306 17.6849836,11.1827074 23.2266472,11.1827074 C25.6980259,11.1827074 27.9627689,12.0831293 29.7099849,13.5813324 C32.8248971,6.50940153 36.8181051,0.0555028908 48.0206886,0.0555028908 C61.6068962,0.0555028908 68.0461691,10.6128653 68.0461691,21.7531955 C68.0461691,22.2191572 68.0266681,22.6808063 67.9953539,23.1375801 C75.21673,24.6202198 80.6511381,31.0540549 80.6511381,38.7674566 Z" id="MobileMe"></path>
                </g>
                <g id="mobileme-logo-of-black-cloud" transform="translate(126.539924, 143.574144)" fill="#000000">
                    <path d="M80.6511381,38.7674566 C80.6511381,47.577228 73.5610188,54.7191 64.818376,54.7191 L15.8299495,54.7191 C7.08749414,54.7191 0,47.577228 0,38.7674566 C0,30.8108547 5.78017605,24.2195114 13.3424449,23.0134486 C13.2466274,22.4550445 13.1937497,21.8805146 13.1937497,21.2891088 C13.1937497,15.7071306 17.6849836,11.1827074 23.2266472,11.1827074 C25.6980259,11.1827074 27.9627689,12.0831293 29.7099849,13.5813324 C32.8248971,6.50940153 36.8181051,0.0555028908 48.0206886,0.0555028908 C61.6068962,0.0555028908 68.0461691,10.6128653 68.0461691,21.7531955 C68.0461691,22.2191572 68.0266681,22.6808063 67.9953539,23.1375801 C75.21673,24.6202198 80.6511381,31.0540549 80.6511381,38.7674566 Z" id="MobileMe"></path>
                </g>
                <polygon id="Line-3" fill="#E1E6EA" points="93.0833942 100.117876 0.307673822 100.383709 0.300701186 97.9502594 93.0764215 97.6844264 93.0589899 91.6008011 107.680608 98.8593156 93.1008258 106.201502 93.0833942 100.117876"></polygon>
                <polygon id="Line-3" fill="#E1E6EA" points="93.0833942 28.3308042 0.307673822 28.5966372 0.300701186 26.1631871 93.0764215 25.8973541 93.0589899 19.8137289 107.680608 27.0722433 93.1008258 34.4144294 93.0833942 28.3308042"></polygon>
                <polygon id="Line-3" fill="#E1E6EA" points="93.0833942 171.904949 0.307673822 172.170782 0.300701186 169.737332 93.0764215 169.471499 93.0589899 163.387873 107.680608 170.646388 93.1008258 177.988574 93.0833942 171.904949"></polygon>
            </g>
            <g id="Sink" transform="translate(158.479087, 6.387833)" fill-rule="nonzero">
                <polygon id="Line-4" fill="#000000" points="0.30418251 41.0646388 641.520913 41.0646388 641.520913 38.6311787 0.30418251 38.6311787"></polygon>
                <polygon id="Line-5" fill="#000000" points="-0.912547529 38.6311787 -0.912547529 59.3155894 1.52091255 59.3155894 1.52091255 38.6311787"></polygon>
                <polygon id="Line-5" fill="#000000" points="639.695817 38.6311787 639.695817 59.3155894 642.129278 59.3155894 642.129278 38.6311787"></polygon>
                <path d="M297.017586,13.861692 C297.017586,11.378327 299.203897,9.72671103 302.471483,9.72671103 C305.798479,9.72671103 307.75903,11.1169202 307.949144,13.6240494 L304.752852,13.6240494 C304.57462,12.7804183 303.778517,12.2576046 302.495247,12.2576046 C301.259506,12.2576046 300.344582,12.8160646 300.344582,13.6478137 C300.344582,14.2894487 300.903042,14.6815589 302.115019,14.9548479 L304.57462,15.4895437 C307.117395,16.0480038 308.25808,17.1173954 308.25808,19.0779468 C308.25808,21.6920152 305.9173,23.4030418 302.483365,23.4030418 C299.025665,23.4030418 296.934411,21.9890684 296.696768,19.470057 L300.071293,19.470057 C300.3327,20.3612167 301.176331,20.8721483 302.554658,20.8721483 C303.897338,20.8721483 304.824144,20.3136882 304.824144,19.470057 C304.824144,18.8284221 304.325095,18.4363118 303.172529,18.1867871 L300.796103,17.6520913 C298.253327,17.0936312 297.017586,15.881654 297.017586,13.861692 Z M311.121673,23.1178707 L311.121673,10.0118821 L314.579373,10.0118821 L314.579373,23.1178707 L311.121673,23.1178707 Z M312.856464,8.0513308 C311.787072,8.0513308 310.895913,7.17205323 310.895913,6.06701521 C310.895913,4.96197719 311.787072,4.09458175 312.856464,4.09458175 C313.937738,4.09458175 314.817015,4.96197719 314.817015,6.06701521 C314.817015,7.17205323 313.937738,8.0513308 312.856464,8.0513308 Z M318.072719,23.1178707 L318.072719,10.0118821 L321.423479,10.0118821 L321.423479,12.115019 L321.637357,12.115019 C322.243346,10.641635 323.574144,9.72671103 325.510932,9.72671103 C328.422053,9.72671103 329.990494,11.5090304 329.990494,14.6459125 L329.990494,23.1178707 L326.532795,23.1178707 L326.532795,15.4657795 C326.532795,13.6596958 325.760456,12.7091255 324.120722,12.7091255 C322.516635,12.7091255 321.530418,13.8379278 321.530418,15.5608365 L321.530418,23.1178707 L318.072719,23.1178707 Z M337.131654,15.1330798 L341.51616,10.0118821 L345.449144,10.0118821 L340.45865,15.6321293 L345.793726,23.1178707 L341.694392,23.1178707 L337.868346,17.7946768 L336.917776,18.7690114 L336.917776,23.1178707 L333.460076,23.1178707 L333.460076,5.0095057 L336.917776,5.0095057 L336.917776,15.1330798 L337.131654,15.1330798 Z" id="sink" fill="#001B3D"></path>
            </g>
        </g>
    </g>
</svg>